<svg xmlns="http://www.w3.org/2000/svg" width="96" height="64" viewBox="0 0 96 64"><rect x="6" y="6" width="41.6" height="52" fill="none" stroke="#111" stroke-width="1.6"/><polyline points="16.4,52.8 21.6,52.8 21.6,42.4 37.2,42.4" fill="none" stroke="#111" stroke-width="1.6" stroke-linecap="round" stroke-linejoin="round"/><rect x="24.2" y="25.5" width="5.2" height="13" fill="none" stroke="#111" stroke-width="1.6"/><polyline points="25.5,25.5 25.5,13.8 43.18,13.8 43.18,27.06 40.58,27.06" fill="none" stroke="#111" stroke-width="1.6" stroke-linecap="round" stroke-linejoin="round"/><polyline points="26.8,38.5 26.8,48.9 41.88,48.9 41.88,45.26 40.58,45.26" fill="none" stroke="#111" stroke-width="1.6" stroke-linecap="round" stroke-linejoin="round"/><polyline points="31.22,16.92 31.22,20.56" fill="none" stroke="#111" stroke-width="1.6" stroke-linecap="round" stroke-linejoin="round"/><polyline points="31.22,18.74 28.1,18.74 28.1,25.5" fill="none" stroke="#111" stroke-width="1.6" stroke-linecap="round" stroke-linejoin="round"/><polyline points="31.22,25.24 31.22,28.88" fill="none" stroke="#111" stroke-width="1.6" stroke-linecap="round" stroke-linejoin="round"/><polyline points="31.22,27.06 29.4,27.06" fill="none" stroke="#111" stroke-width="1.6" stroke-linecap="round" stroke-linejoin="round"/><polyline points="31.22,35.12 31.22,38.76" fill="none" stroke="#111" stroke-width="1.6" stroke-linecap="round" stroke-linejoin="round"/><polyline points="31.22,36.94 29.4,36.94" fill="none" stroke="#111" stroke-width="1.6" stroke-linecap="round" stroke-linejoin="round"/><polyline points="31.22,43.44 31.22,47.08" fill="none" stroke="#111" stroke-width="1.6" stroke-linecap="round" stroke-linejoin="round"/><polyline points="31.22,45.26 28.1,45.26 28.1,38.5" fill="none" stroke="#111" stroke-width="1.6" stroke-linecap="round" stroke-linejoin="round"/><polyline points="32,16.92 32,17.44 32,17.44" fill="none" stroke="#111" stroke-width="1.6" stroke-linecap="round" stroke-linejoin="round"/><polyline points="32,17.18 34.6,17.18 34.6,11.2 47.6,11.2" fill="none" stroke="#111" stroke-width="1.6" stroke-linecap="round" stroke-linejoin="round"/><polyline points="32,18.48 32,19 32,19" fill="none" stroke="#111" stroke-width="1.6" stroke-linecap="round" stroke-linejoin="round"/><polyline points="32,18.74 34.6,18.74 34.6,25.5 32,25.5" fill="none" stroke="#111" stroke-width="1.6" stroke-linecap="round" stroke-linejoin="round"/><polyline points="32,20.04 32,20.56 32,20.56" fill="none" stroke="#111" stroke-width="1.6" stroke-linecap="round" stroke-linejoin="round"/><polyline points="32,20.3 34.6,20.3" fill="none" stroke="#111" stroke-width="1.6" stroke-linecap="round" stroke-linejoin="round"/><polyline points="32,26.8 32,27.32 32,27.32" fill="none" stroke="#111" stroke-width="1.6" stroke-linecap="round" stroke-linejoin="round"/><polyline points="32,27.06 34.6,27.06 34.6,30.7 45,30.7 45,52.8" fill="none" stroke="#111" stroke-width="1.6" stroke-linecap="round" stroke-linejoin="round"/><polyline points="32,28.36 32,28.88 32,28.88" fill="none" stroke="#111" stroke-width="1.6" stroke-linecap="round" stroke-linejoin="round"/><polyline points="32,28.62 34.6,28.62" fill="none" stroke="#111" stroke-width="1.6" stroke-linecap="round" stroke-linejoin="round"/><polyline points="32,35.12 32,35.64 32,35.64" fill="none" stroke="#111" stroke-width="1.6" stroke-linecap="round" stroke-linejoin="round"/><polyline points="32,35.38 34.6,35.38 34.6,33.3 46.3,33.3 46.3,11.2" fill="none" stroke="#111" stroke-width="1.6" stroke-linecap="round" stroke-linejoin="round"/><polyline points="32,36.68 32,37.2 32,37.2" fill="none" stroke="#111" stroke-width="1.6" stroke-linecap="round" stroke-linejoin="round"/><polyline points="32,36.94 34.6,36.94 34.6,43.7 32,43.7" fill="none" stroke="#111" stroke-width="1.6" stroke-linecap="round" stroke-linejoin="round"/><polyline points="32,38.24 32,38.76 32,38.76" fill="none" stroke="#111" stroke-width="1.6" stroke-linecap="round" stroke-linejoin="round"/><polyline points="32,38.5 34.6,38.5" fill="none" stroke="#111" stroke-width="1.6" stroke-linecap="round" stroke-linejoin="round"/><polyline points="32,45 32,45.52 32,45.52" fill="none" stroke="#111" stroke-width="1.6" stroke-linecap="round" stroke-linejoin="round"/><polyline points="32,45.26 34.6,45.26 34.6,52.8 47.6,52.8" fill="none" stroke="#111" stroke-width="1.6" stroke-linecap="round" stroke-linejoin="round"/><polyline points="32,46.56 32,47.08 32,47.08" fill="none" stroke="#111" stroke-width="1.6" stroke-linecap="round" stroke-linejoin="round"/><polyline points="32,46.82 34.6,46.82" fill="none" stroke="#111" stroke-width="1.6" stroke-linecap="round" stroke-linejoin="round"/><polyline points="32.52,18.74 33.56,18.48 33.56,19 32.52,18.74" fill="none" stroke="#111" stroke-width="1.6" stroke-linecap="round" stroke-linejoin="round"/><polyline points="32.52,27.06 33.56,26.8 33.56,27.32 32.52,27.06" fill="none" stroke="#111" stroke-width="1.6" stroke-linecap="round" stroke-linejoin="round"/><polyline points="32.52,36.94 33.56,36.68 33.56,37.2 32.52,36.94" fill="none" stroke="#111" stroke-width="1.6" stroke-linecap="round" stroke-linejoin="round"/><polyline points="32.52,45.26 33.56,45 33.56,45.52 32.52,45.26" fill="none" stroke="#111" stroke-width="1.6" stroke-linecap="round" stroke-linejoin="round"/><circle cx="34.6" cy="20.3" r="0.26" fill="none" stroke="#111" stroke-width="1.6"/><polyline points="34.6,21.6 21.6,21.6 21.6,11.2 16.4,11.2" fill="none" stroke="#111" stroke-width="1.6" stroke-linecap="round" stroke-linejoin="round"/><circle cx="34.6" cy="21.6" r="0.26" fill="none" stroke="#111" stroke-width="1.6"/><circle cx="34.6" cy="28.62" r="0.26" fill="none" stroke="#111" stroke-width="1.6"/><circle cx="34.6" cy="38.5" r="0.26" fill="none" stroke="#111" stroke-width="1.6"/><polyline points="34.6,39.8 19,39.8 19,47.6 16.4,47.6" fill="none" stroke="#111" stroke-width="1.6" stroke-linecap="round" stroke-linejoin="round"/><circle cx="34.6" cy="39.8" r="0.26" fill="none" stroke="#111" stroke-width="1.6"/><circle cx="34.6" cy="46.82" r="0.26" fill="none" stroke="#111" stroke-width="1.6"/><circle cx="37.2" cy="11.2" r="0.26" fill="none" stroke="#111" stroke-width="1.6"/><circle cx="37.2" cy="20.3" r="0.26" fill="none" stroke="#111" stroke-width="1.6"/><polyline points="37.2,24.2 19,24.2 19,16.4 16.4,16.4" fill="none" stroke="#111" stroke-width="1.6" stroke-linecap="round" stroke-linejoin="round"/><circle cx="37.2" cy="24.2" r="0.26" fill="none" stroke="#111" stroke-width="1.6"/><circle cx="37.2" cy="28.62" r="0.26" fill="none" stroke="#111" stroke-width="1.6"/><circle cx="37.2" cy="30.7" r="0.26" fill="none" stroke="#111" stroke-width="1.6"/><circle cx="37.2" cy="33.3" r="0.26" fill="none" stroke="#111" stroke-width="1.6"/><circle cx="37.2" cy="38.5" r="0.26" fill="none" stroke="#111" stroke-width="1.6"/><circle cx="37.2" cy="42.4" r="0.26" fill="none" stroke="#111" stroke-width="1.6"/><circle cx="37.2" cy="46.82" r="0.26" fill="none" stroke="#111" stroke-width="1.6"/><polyline points="37.2,52.8 37.2,45.26 39.8,45.26" fill="none" stroke="#111" stroke-width="1.6" stroke-linecap="round" stroke-linejoin="round"/><circle cx="37.2" cy="52.8" r="0.26" fill="none" stroke="#111" stroke-width="1.6"/><polyline points="39.28,18.74 38.24,18.48 38.24,19 39.28,18.74" fill="none" stroke="#111" stroke-width="1.6" stroke-linecap="round" stroke-linejoin="round"/><polyline points="39.28,27.06 38.24,26.8 38.24,27.32 39.28,27.06" fill="none" stroke="#111" stroke-width="1.6" stroke-linecap="round" stroke-linejoin="round"/><polyline points="39.28,36.94 38.24,36.68 38.24,37.2 39.28,36.94" fill="none" stroke="#111" stroke-width="1.6" stroke-linecap="round" stroke-linejoin="round"/><polyline points="39.28,45.26 38.24,45 38.24,45.52 39.28,45.26" fill="none" stroke="#111" stroke-width="1.6" stroke-linecap="round" stroke-linejoin="round"/><polyline points="39.8,16.92 39.8,17.44 39.8,17.44" fill="none" stroke="#111" stroke-width="1.6" stroke-linecap="round" stroke-linejoin="round"/><polyline points="39.8,17.18 37.2,17.18 37.2,11.2" fill="none" stroke="#111" stroke-width="1.6" stroke-linecap="round" stroke-linejoin="round"/><polyline points="39.8,18.48 39.8,19 39.8,19" fill="none" stroke="#111" stroke-width="1.6" stroke-linecap="round" stroke-linejoin="round"/><polyline points="39.8,18.74 37.2,18.74 37.2,25.5 39.8,25.5" fill="none" stroke="#111" stroke-width="1.6" stroke-linecap="round" stroke-linejoin="round"/><polyline points="39.8,20.04 39.8,20.56 39.8,20.56" fill="none" stroke="#111" stroke-width="1.6" stroke-linecap="round" stroke-linejoin="round"/><polyline points="39.8,20.3 37.2,20.3" fill="none" stroke="#111" stroke-width="1.6" stroke-linecap="round" stroke-linejoin="round"/><polyline points="39.8,26.8 39.8,27.32 39.8,27.32" fill="none" stroke="#111" stroke-width="1.6" stroke-linecap="round" stroke-linejoin="round"/><polyline points="39.8,27.06 37.2,27.06 37.2,30.7" fill="none" stroke="#111" stroke-width="1.6" stroke-linecap="round" stroke-linejoin="round"/><polyline points="39.8,28.36 39.8,28.88 39.8,28.88" fill="none" stroke="#111" stroke-width="1.6" stroke-linecap="round" stroke-linejoin="round"/><polyline points="39.8,28.62 37.2,28.62" fill="none" stroke="#111" stroke-width="1.6" stroke-linecap="round" stroke-linejoin="round"/><polyline points="39.8,35.12 39.8,35.64 39.8,35.64" fill="none" stroke="#111" stroke-width="1.6" stroke-linecap="round" stroke-linejoin="round"/><polyline points="39.8,35.38 37.2,35.38 37.2,33.3" fill="none" stroke="#111" stroke-width="1.6" stroke-linecap="round" stroke-linejoin="round"/><polyline points="39.8,36.68 39.8,37.2 39.8,37.2" fill="none" stroke="#111" stroke-width="1.6" stroke-linecap="round" stroke-linejoin="round"/><polyline points="39.8,36.94 37.2,36.94 37.2,43.7 39.8,43.7" fill="none" stroke="#111" stroke-width="1.6" stroke-linecap="round" stroke-linejoin="round"/><polyline points="39.8,38.24 39.8,38.76 39.8,38.76" fill="none" stroke="#111" stroke-width="1.6" stroke-linecap="round" stroke-linejoin="round"/><polyline points="39.8,38.5 37.2,38.5" fill="none" stroke="#111" stroke-width="1.6" stroke-linecap="round" stroke-linejoin="round"/><polyline points="39.8,45 39.8,45.52 39.8,45.52" fill="none" stroke="#111" stroke-width="1.6" stroke-linecap="round" stroke-linejoin="round"/><polyline points="39.8,46.56 39.8,47.08 39.8,47.08" fill="none" stroke="#111" stroke-width="1.6" stroke-linecap="round" stroke-linejoin="round"/><polyline points="39.8,46.82 37.2,46.82" fill="none" stroke="#111" stroke-width="1.6" stroke-linecap="round" stroke-linejoin="round"/><polyline points="40.58,16.92 40.58,20.56" fill="none" stroke="#111" stroke-width="1.6" stroke-linecap="round" stroke-linejoin="round"/><polyline points="40.58,18.74 41.88,18.74 41.88,15.1 26.8,15.1 26.8,25.5" fill="none" stroke="#111" stroke-width="1.6" stroke-linecap="round" stroke-linejoin="round"/><polyline points="40.58,25.24 40.58,28.88" fill="none" stroke="#111" stroke-width="1.6" stroke-linecap="round" stroke-linejoin="round"/><polyline points="40.58,35.12 40.58,38.76" fill="none" stroke="#111" stroke-width="1.6" stroke-linecap="round" stroke-linejoin="round"/><polyline points="40.58,36.94 43.18,36.94 43.18,50.2 25.5,50.2 25.5,38.5" fill="none" stroke="#111" stroke-width="1.6" stroke-linecap="round" stroke-linejoin="round"/><polyline points="40.58,43.44 40.58,47.08" fill="none" stroke="#111" stroke-width="1.6" stroke-linecap="round" stroke-linejoin="round"/><circle cx="45" cy="52.8" r="0.26" fill="none" stroke="#111" stroke-width="1.6"/><circle cx="46.3" cy="11.2" r="0.26" fill="none" stroke="#111" stroke-width="1.6"/><polyline points="32,25.24 32,25.76" fill="none" stroke="#111" stroke-width="1.6" stroke-linecap="round" stroke-linejoin="round"/><polyline points="32,43.44 32,43.96" fill="none" stroke="#111" stroke-width="1.6" stroke-linecap="round" stroke-linejoin="round"/><polyline points="39.8,25.24 39.8,25.76" fill="none" stroke="#111" stroke-width="1.6" stroke-linecap="round" stroke-linejoin="round"/><polyline points="39.8,43.44 39.8,43.96" fill="none" stroke="#111" stroke-width="1.6" stroke-linecap="round" stroke-linejoin="round"/></svg>