<svg xmlns="http://www.w3.org/2000/svg" width="96" height="64" viewBox="0 0 96 64"><rect x="6" y="6" width="34.67" height="52" fill="none" stroke="#111" stroke-width="1.6"/><polyline points="16.11,34.89 20.44,34.89 20.44,36.33" fill="none" stroke="#111" stroke-width="1.6" stroke-linecap="round" stroke-linejoin="round"/><polyline points="16.11,40.67 19,40.67" fill="none" stroke="#111" stroke-width="1.6" stroke-linecap="round" stroke-linejoin="round"/><polyline points="19,36.33 19,42.11 24.78,39.22 19,36.33" fill="none" stroke="#111" stroke-width="1.6" stroke-linecap="round" stroke-linejoin="round"/><polyline points="20.44,24.78 17.56,24.78 17.56,23.33 16.11,23.33" fill="none" stroke="#111" stroke-width="1.6" stroke-linecap="round" stroke-linejoin="round"/><polyline points="20.44,24.78 26.22,21.89 26.22,27.67 20.44,24.78" fill="none" stroke="#111" stroke-width="1.6" stroke-linecap="round" stroke-linejoin="round"/><polyline points="20.44,36.39 20.44,36.97" fill="none" stroke="#111" stroke-width="1.6" stroke-linecap="round" stroke-linejoin="round"/><polyline points="21.89,40.67 33.44,40.67" fill="none" stroke="#111" stroke-width="1.6" stroke-linecap="round" stroke-linejoin="round"/><circle cx="22.64" cy="37.49" r="0.81" fill="none" stroke="#111" stroke-width="1.6"/><polyline points="22.76,37.2 22.76,34.89 33.73,34.89" fill="none" stroke="#111" stroke-width="1.6" stroke-linecap="round" stroke-linejoin="round"/><circle cx="23.28" cy="27.15" r="0.81" fill="none" stroke="#111" stroke-width="1.6"/><polyline points="23.33,27.67 23.33,29.11 16.11,29.11" fill="none" stroke="#111" stroke-width="1.6" stroke-linecap="round" stroke-linejoin="round"/><polyline points="26.22,23.33 33.44,23.33" fill="none" stroke="#111" stroke-width="1.6" stroke-linecap="round" stroke-linejoin="round"/><circle cx="27.09" cy="26.22" r="0.81" fill="none" stroke="#111" stroke-width="1.6"/><polyline points="27.67,26.22 29.11,26.22 29.11,29.11 33.44,29.11" fill="none" stroke="#111" stroke-width="1.6" stroke-linecap="round" stroke-linejoin="round"/></svg>