<svg xmlns="http://www.w3.org/2000/svg" width="96" height="64" viewBox="0 0 96 64"><circle cx="9.25" cy="12.5" r="3.25" fill="none" stroke="#111" stroke-width="1.6"/><polyline points="15.75,6 20.95,6 20.95,16.4" fill="none" stroke="#111" stroke-width="1.6" stroke-linecap="round" stroke-linejoin="round"/><path d="M 20.95 16.4 Q 24.83 20.3 20.95 24.2" fill="none" stroke="#111" stroke-width="1.6" stroke-linecap="round"/><path d="M 20.95 24.2 Q 24.83 28.1 20.95 32" fill="none" stroke="#111" stroke-width="1.6" stroke-linecap="round"/><path d="M 20.95 32 Q 24.83 35.9 20.95 39.8" fill="none" stroke="#111" stroke-width="1.6" stroke-linecap="round"/><path d="M 20.95 39.8 Q 24.83 43.7 20.95 47.6" fill="none" stroke="#111" stroke-width="1.6" stroke-linecap="round"/><polyline points="20.95,47.6 20.95,58 15.75,58" fill="none" stroke="#111" stroke-width="1.6" stroke-linecap="round" stroke-linejoin="round"/><polyline points="36.55,16.4 36.55,6 41.75,6" fill="none" stroke="#111" stroke-width="1.6" stroke-linecap="round" stroke-linejoin="round"/><path d="M 36.55 24.2 Q 32.67 20.3 36.55 16.4" fill="none" stroke="#111" stroke-width="1.6" stroke-linecap="round"/><path d="M 36.55 32 Q 32.67 28.1 36.55 24.2" fill="none" stroke="#111" stroke-width="1.6" stroke-linecap="round"/><path d="M 36.55 39.8 Q 32.67 35.9 36.55 32" fill="none" stroke="#111" stroke-width="1.6" stroke-linecap="round"/><path d="M 36.55 47.6 Q 32.67 43.7 36.55 39.8" fill="none" stroke="#111" stroke-width="1.6" stroke-linecap="round"/><polyline points="41.75,32 35.25,32" fill="none" stroke="#111" stroke-width="1.6" stroke-linecap="round" stroke-linejoin="round"/><polyline points="41.75,58 36.55,58 36.55,47.6" fill="none" stroke="#111" stroke-width="1.6" stroke-linecap="round" stroke-linejoin="round"/><circle cx="48.25" cy="12.5" r="3.25" fill="none" stroke="#111" stroke-width="1.6"/></svg>