<svg xmlns="http://www.w3.org/2000/svg" width="96" height="64" viewBox="0 0 96 64"><rect x="6" y="6" width="6.8" height="50.98" fill="none" stroke="#111" stroke-width="1.6"/><rect x="6" y="7.53" width="1.7" height="0.34" fill="none" stroke="#111" stroke-width="1.6"/><rect x="6" y="10.93" width="1.7" height="0.34" fill="none" stroke="#111" stroke-width="1.6"/><rect x="6" y="14.33" width="1.7" height="0.34" fill="none" stroke="#111" stroke-width="1.6"/><rect x="6" y="17.73" width="1.7" height="0.34" fill="none" stroke="#111" stroke-width="1.6"/><rect x="6" y="21.12" width="1.7" height="0.34" fill="none" stroke="#111" stroke-width="1.6"/><rect x="6" y="24.52" width="1.7" height="0.34" fill="none" stroke="#111" stroke-width="1.6"/><rect x="6" y="27.92" width="1.7" height="0.34" fill="none" stroke="#111" stroke-width="1.6"/><rect x="6" y="31.32" width="1.7" height="0.34" fill="none" stroke="#111" stroke-width="1.6"/><rect x="6" y="34.72" width="1.7" height="0.34" fill="none" stroke="#111" stroke-width="1.6"/><rect x="6" y="38.12" width="1.7" height="0.34" fill="none" stroke="#111" stroke-width="1.6"/><rect x="6" y="41.52" width="1.7" height="0.34" fill="none" stroke="#111" stroke-width="1.6"/><rect x="6" y="44.92" width="1.7" height="0.33" fill="none" stroke="#111" stroke-width="1.6"/><rect x="6" y="48.31" width="1.7" height="0.34" fill="none" stroke="#111" stroke-width="1.6"/><rect x="6" y="51.71" width="1.7" height="0.34" fill="none" stroke="#111" stroke-width="1.6"/><rect x="6" y="55.11" width="1.7" height="0.34" fill="none" stroke="#111" stroke-width="1.6"/><polyline points="8.04,58 10.76,58" fill="none" stroke="#111" stroke-width="1.6" stroke-linecap="round" stroke-linejoin="round"/><rect x="11.1" y="7.53" width="1.7" height="0.34" fill="none" stroke="#111" stroke-width="1.6"/><rect x="11.1" y="10.93" width="1.7" height="0.34" fill="none" stroke="#111" stroke-width="1.6"/><rect x="11.1" y="14.33" width="1.7" height="0.34" fill="none" stroke="#111" stroke-width="1.6"/><rect x="11.1" y="17.73" width="1.7" height="0.34" fill="none" stroke="#111" stroke-width="1.6"/><rect x="11.1" y="21.12" width="1.7" height="0.34" fill="none" stroke="#111" stroke-width="1.6"/><rect x="11.1" y="24.52" width="1.7" height="0.34" fill="none" stroke="#111" stroke-width="1.6"/><rect x="11.1" y="27.92" width="1.7" height="0.34" fill="none" stroke="#111" stroke-width="1.6"/><rect x="11.1" y="31.32" width="1.7" height="0.34" fill="none" stroke="#111" stroke-width="1.6"/><rect x="11.1" y="34.72" width="1.7" height="0.34" fill="none" stroke="#111" stroke-width="1.6"/><rect x="11.1" y="38.12" width="1.7" height="0.34" fill="none" stroke="#111" stroke-width="1.6"/><rect x="11.1" y="41.52" width="1.7" height="0.34" fill="none" stroke="#111" stroke-width="1.6"/><rect x="11.1" y="44.92" width="1.7" height="0.33" fill="none" stroke="#111" stroke-width="1.6"/><rect x="11.1" y="48.31" width="1.7" height="0.34" fill="none" stroke="#111" stroke-width="1.6"/><rect x="11.1" y="51.71" width="1.7" height="0.34" fill="none" stroke="#111" stroke-width="1.6"/></svg>