<svg xmlns="http://www.w3.org/2000/svg" width="96" height="64" viewBox="0 0 96 64"><rect x="6" y="6" width="34.67" height="52" fill="none" stroke="#111" stroke-width="1.6"/><polyline points="14.09,23.33 20.44,23.33" fill="none" stroke="#111" stroke-width="1.6" stroke-linecap="round" stroke-linejoin="round"/><polyline points="14.09,34.89 20.44,34.89 20.44,36.33" fill="none" stroke="#111" stroke-width="1.6" stroke-linecap="round" stroke-linejoin="round"/><polyline points="14.09,40.67 19,40.67" fill="none" stroke="#111" stroke-width="1.6" stroke-linecap="round" stroke-linejoin="round"/><polyline points="19,36.33 19,42.11 24.78,39.22 19,36.33" fill="none" stroke="#111" stroke-width="1.6" stroke-linecap="round" stroke-linejoin="round"/><polyline points="20.44,23.33 26.22,20.44 26.22,26.22 20.44,23.33" fill="none" stroke="#111" stroke-width="1.6" stroke-linecap="round" stroke-linejoin="round"/><polyline points="20.44,36.39 20.44,36.97" fill="none" stroke="#111" stroke-width="1.6" stroke-linecap="round" stroke-linejoin="round"/><polyline points="21.89,40.67 34.89,40.67" fill="none" stroke="#111" stroke-width="1.6" stroke-linecap="round" stroke-linejoin="round"/><circle cx="22.64" cy="37.49" r="0.81" fill="none" stroke="#111" stroke-width="1.6"/><circle cx="23.28" cy="25.7" r="0.81" fill="none" stroke="#111" stroke-width="1.6"/><polyline points="23.33,26.22 23.33,29.11 14.09,29.11" fill="none" stroke="#111" stroke-width="1.6" stroke-linecap="round" stroke-linejoin="round"/><polyline points="26.22,21.89 32,21.89 32,40.67" fill="none" stroke="#111" stroke-width="1.6" stroke-linecap="round" stroke-linejoin="round"/><rect x="26.22" y="21.89" width="0" height="0" fill="none" stroke="#111" stroke-width="1.6"/><circle cx="27.09" cy="24.78" r="0.81" fill="none" stroke="#111" stroke-width="1.6"/><polyline points="27.67,24.78 33.44,24.78 33.44,23.33 34.89,23.33" fill="none" stroke="#111" stroke-width="1.6" stroke-linecap="round" stroke-linejoin="round"/><polyline points="29.11,24.78 29.11,37.78 23.33,37.78" fill="none" stroke="#111" stroke-width="1.6" stroke-linecap="round" stroke-linejoin="round"/></svg>