<svg xmlns="http://www.w3.org/2000/svg" width="96" height="64" viewBox="0 0 96 64"><rect x="6" y="6" width="52" height="52" fill="none" stroke="#111" stroke-width="1.6"/><polyline points="6,19 12.5,19 12.5,21.6" fill="none" stroke="#111" stroke-width="1.6" stroke-linecap="round" stroke-linejoin="round"/><polyline points="6,32 12.5,32 12.5,37.2 15.1,42.4" fill="none" stroke="#111" stroke-width="1.6" stroke-linecap="round" stroke-linejoin="round"/><polyline points="6,45 12.5,45 12.5,42.4" fill="none" stroke="#111" stroke-width="1.6" stroke-linecap="round" stroke-linejoin="round"/><polyline points="9.9,32 12.5,32 12.5,26.8 15.1,21.6" fill="none" stroke="#111" stroke-width="1.6" stroke-linecap="round" stroke-linejoin="round"/><circle cx="12.5" cy="32" r="1.3" fill="none" stroke="#111" stroke-width="1.6"/><polyline points="28.75,41.1 28.75,22.9" fill="none" stroke="#111" stroke-width="1.6" stroke-linecap="round" stroke-linejoin="round"/><circle cx="30.05" cy="32" r="9.75" fill="none" stroke="#111" stroke-width="1.6"/><polyline points="30.05,41.1 30.05,22.9" fill="none" stroke="#111" stroke-width="1.6" stroke-linecap="round" stroke-linejoin="round"/><path d="M 30.05 46.3 Q 16.14 32.33 30.05 18.35" fill="none" stroke="#111" stroke-width="1.6" stroke-linecap="round"/><polyline points="31.35,22.9 31.35,41.1" fill="none" stroke="#111" stroke-width="1.6" stroke-linecap="round" stroke-linejoin="round"/><polyline points="33.3,17.05 29.4,18.35 32.65,20.3" fill="none" stroke="#111" stroke-width="1.6" stroke-linecap="round" stroke-linejoin="round"/><polyline points="33.3,47.6 29.4,46.3 32.65,44.35" fill="none" stroke="#111" stroke-width="1.6" stroke-linecap="round" stroke-linejoin="round"/></svg>