<svg xmlns="http://www.w3.org/2000/svg" width="96" height="64" viewBox="0 0 96 64"><polyline points="23.33,49.33 23.33,14.67 36.33,14.67 42.83,8.17 45,8.17 45,10.33 49.33,10.33 51.5,8.17 73.17,8.17 73.17,49.33 23.33,49.33" fill="none" stroke="#111" stroke-width="1.6" stroke-linecap="round" stroke-linejoin="round"/><rect x="25.5" y="15.75" width="4.33" height="2.17" fill="none" stroke="#111" stroke-width="1.6"/><rect x="25.5" y="20.08" width="4.33" height="2.17" fill="none" stroke="#111" stroke-width="1.6"/><rect x="25.5" y="24.42" width="4.33" height="2.16" fill="none" stroke="#111" stroke-width="1.6"/><rect x="25.5" y="28.75" width="4.33" height="2.17" fill="none" stroke="#111" stroke-width="1.6"/><rect x="25.5" y="33.08" width="4.33" height="2.17" fill="none" stroke="#111" stroke-width="1.6"/><rect x="25.5" y="37.42" width="4.33" height="2.16" fill="none" stroke="#111" stroke-width="1.6"/><rect x="25.5" y="41.75" width="4.33" height="2.17" fill="none" stroke="#111" stroke-width="1.6"/><rect x="25.5" y="46.08" width="4.33" height="2.17" fill="none" stroke="#111" stroke-width="1.6"/><polyline points="66.67,8.17 66.67,6 6,6 6,58 66.67,58 66.67,49.33" fill="none" stroke="#111" stroke-width="1.6" stroke-linecap="round" stroke-linejoin="round"/></svg>