<svg xmlns="http://www.w3.org/2000/svg" width="96" height="64" viewBox="0 0 96 64"><polyline points="6,32 19,32" fill="none" stroke="#111" stroke-width="1.6" stroke-linecap="round" stroke-linejoin="round"/><rect x="19" y="25.5" width="3.25" height="13" fill="none" stroke="#111" stroke-width="1.6"/><rect x="25.5" y="19" width="13" height="3.25" fill="none" stroke="#111" stroke-width="1.6"/><rect x="25.5" y="41.75" width="13" height="3.25" fill="none" stroke="#111" stroke-width="1.6"/><polyline points="32,6 32,19" fill="none" stroke="#111" stroke-width="1.6" stroke-linecap="round" stroke-linejoin="round"/><circle cx="32" cy="32" r="26" fill="none" stroke="#111" stroke-width="1.6"/><polyline points="32,58 32,45" fill="none" stroke="#111" stroke-width="1.6" stroke-linecap="round" stroke-linejoin="round"/><rect x="41.75" y="25.5" width="3.25" height="13" fill="none" stroke="#111" stroke-width="1.6"/><polyline points="58,32 45,32" fill="none" stroke="#111" stroke-width="1.6" stroke-linecap="round" stroke-linejoin="round"/><polyline points="6,19 12.5,19 12.5,30.7 13.8,28.1" fill="none" stroke="#111" stroke-width="1.6" stroke-linecap="round" stroke-linejoin="round"/><polyline points="12.5,30.7 11.2,28.1" fill="none" stroke="#111" stroke-width="1.6" stroke-linecap="round" stroke-linejoin="round"/><polyline points="19,6 19,12.5 30.7,12.5 28.1,13.8" fill="none" stroke="#111" stroke-width="1.6" stroke-linecap="round" stroke-linejoin="round"/><polyline points="19,58 19,51.5 30.7,51.5 28.1,50.2" fill="none" stroke="#111" stroke-width="1.6" stroke-linecap="round" stroke-linejoin="round"/><polyline points="30.7,12.5 28.1,11.2" fill="none" stroke="#111" stroke-width="1.6" stroke-linecap="round" stroke-linejoin="round"/><polyline points="30.7,51.5 28.1,52.8" fill="none" stroke="#111" stroke-width="1.6" stroke-linecap="round" stroke-linejoin="round"/><polyline points="51.5,30.7 52.8,28.1" fill="none" stroke="#111" stroke-width="1.6" stroke-linecap="round" stroke-linejoin="round"/><polyline points="58,19 51.5,19 51.5,30.7 50.2,28.1" fill="none" stroke="#111" stroke-width="1.6" stroke-linecap="round" stroke-linejoin="round"/></svg>