<svg xmlns="http://www.w3.org/2000/svg" width="96" height="64" viewBox="0 0 96 64"><rect x="6" y="21.65" width="16.85" height="21.91" fill="none" stroke="#111" stroke-width="1.6"/><rect x="6" y="21.65" width="16.85" height="21.91" fill="none" stroke="#111" stroke-width="1.6"/><rect x="6" y="21.65" width="16.85" height="21.91" fill="none" stroke="#111" stroke-width="1.6"/><rect x="6" y="21.65" width="16.85" height="21.91" fill="none" stroke="#111" stroke-width="1.6"/><rect x="6" y="21.65" width="16.85" height="21.91" fill="none" stroke="#111" stroke-width="1.6"/><rect x="6" y="21.65" width="16.85" height="21.91" fill="none" stroke="#111" stroke-width="1.6"/><rect x="8.41" y="26.22" width="12.03" height="11.56" fill="none" stroke="#111" stroke-width="1.6"/><rect x="8.41" y="26.22" width="12.03" height="11.56" fill="none" stroke="#111" stroke-width="1.6"/><rect x="8.41" y="26.22" width="12.03" height="11.56" fill="none" stroke="#111" stroke-width="1.6"/><rect x="8.41" y="26.7" width="12.03" height="10.6" fill="none" stroke="#111" stroke-width="1.6"/><rect x="8.41" y="26.7" width="12.03" height="10.6" fill="none" stroke="#111" stroke-width="1.6"/><rect x="8.41" y="26.22" width="12.03" height="11.56" fill="none" stroke="#111" stroke-width="1.6"/><rect x="8.41" y="21.41" width="12.03" height="21.18" fill="none" stroke="#111" stroke-width="1.6"/><rect x="8.41" y="24.06" width="12.03" height="17.09" fill="none" stroke="#111" stroke-width="1.6"/><rect x="10.81" y="6" width="7.23" height="52" fill="none" stroke="#111" stroke-width="1.6"/><rect x="10.81" y="9.85" width="7.23" height="44.3" fill="none" stroke="#111" stroke-width="1.6"/></svg>