<svg xmlns="http://www.w3.org/2000/svg" width="96" height="64" viewBox="0 0 96 64"><rect x="6" y="6" width="1.89" height="52" fill="none" stroke="#111" stroke-width="1.6"/><rect x="6.09" y="6.09" width="1.71" height="51.82" fill="none" stroke="#111" stroke-width="1.6"/><rect x="6.09" y="6.43" width="0.48" height="0.09" fill="none" stroke="#111" stroke-width="1.6"/><rect x="6.09" y="7.37" width="0.48" height="0.1" fill="none" stroke="#111" stroke-width="1.6"/><rect x="6.09" y="8.32" width="0.48" height="0.09" fill="none" stroke="#111" stroke-width="1.6"/><rect x="6.09" y="9.26" width="0.48" height="0.1" fill="none" stroke="#111" stroke-width="1.6"/><rect x="6.09" y="10.21" width="0.48" height="0.09" fill="none" stroke="#111" stroke-width="1.6"/><rect x="6.09" y="11.15" width="0.48" height="0.1" fill="none" stroke="#111" stroke-width="1.6"/><rect x="6.09" y="12.1" width="0.48" height="0.09" fill="none" stroke="#111" stroke-width="1.6"/><rect x="6.09" y="13.04" width="0.48" height="0.1" fill="none" stroke="#111" stroke-width="1.6"/><rect x="6.09" y="13.99" width="0.48" height="0.09" fill="none" stroke="#111" stroke-width="1.6"/><rect x="6.09" y="14.93" width="0.48" height="0.1" fill="none" stroke="#111" stroke-width="1.6"/><rect x="6.09" y="15.88" width="0.48" height="0.09" fill="none" stroke="#111" stroke-width="1.6"/><rect x="6.09" y="16.83" width="0.48" height="0.09" fill="none" stroke="#111" stroke-width="1.6"/><rect x="6.09" y="17.77" width="0.48" height="0.1" fill="none" stroke="#111" stroke-width="1.6"/><rect x="6.09" y="18.72" width="0.48" height="0.09" fill="none" stroke="#111" stroke-width="1.6"/><rect x="6.09" y="19.66" width="0.48" height="0.1" fill="none" stroke="#111" stroke-width="1.6"/><rect x="6.09" y="20.61" width="0.48" height="0.09" fill="none" stroke="#111" stroke-width="1.6"/><rect x="6.09" y="21.55" width="0.48" height="0.1" fill="none" stroke="#111" stroke-width="1.6"/><rect x="6.09" y="22.5" width="0.48" height="0.09" fill="none" stroke="#111" stroke-width="1.6"/><rect x="6.09" y="23.44" width="0.48" height="0.1" fill="none" stroke="#111" stroke-width="1.6"/><rect x="6.09" y="24.39" width="0.48" height="0.09" fill="none" stroke="#111" stroke-width="1.6"/><rect x="6.09" y="25.33" width="0.48" height="0.1" fill="none" stroke="#111" stroke-width="1.6"/><rect x="6.09" y="26.28" width="0.48" height="0.09" fill="none" stroke="#111" stroke-width="1.6"/><rect x="6.09" y="27.23" width="0.48" height="0.09" fill="none" stroke="#111" stroke-width="1.6"/><rect x="6.09" y="28.17" width="0.48" height="0.1" fill="none" stroke="#111" stroke-width="1.6"/><rect x="6.09" y="29.12" width="0.48" height="0.09" fill="none" stroke="#111" stroke-width="1.6"/><rect x="6.09" y="30.06" width="0.48" height="0.1" fill="none" stroke="#111" stroke-width="1.6"/><rect x="6.09" y="31.01" width="0.48" height="0.09" fill="none" stroke="#111" stroke-width="1.6"/><rect x="6.09" y="31.95" width="0.48" height="0.1" fill="none" stroke="#111" stroke-width="1.6"/><rect x="6.09" y="32.9" width="0.48" height="0.09" fill="none" stroke="#111" stroke-width="1.6"/><rect x="6.09" y="33.84" width="0.48" height="0.1" fill="none" stroke="#111" stroke-width="1.6"/><rect x="6.09" y="34.79" width="0.48" height="0.09" fill="none" stroke="#111" stroke-width="1.6"/><rect x="6.09" y="35.73" width="0.48" height="0.1" fill="none" stroke="#111" stroke-width="1.6"/><rect x="6.09" y="36.68" width="0.48" height="0.09" fill="none" stroke="#111" stroke-width="1.6"/><rect x="6.09" y="37.63" width="0.48" height="0.09" fill="none" stroke="#111" stroke-width="1.6"/><rect x="6.09" y="38.57" width="0.48" height="0.1" fill="none" stroke="#111" stroke-width="1.6"/><rect x="6.09" y="39.52" width="0.48" height="0.09" fill="none" stroke="#111" stroke-width="1.6"/><rect x="6.09" y="40.46" width="0.48" height="0.1" fill="none" stroke="#111" stroke-width="1.6"/><rect x="6.09" y="41.41" width="0.48" height="0.09" fill="none" stroke="#111" stroke-width="1.6"/><rect x="6.09" y="42.35" width="0.48" height="0.1" fill="none" stroke="#111" stroke-width="1.6"/><rect x="6.09" y="43.3" width="0.48" height="0.09" fill="none" stroke="#111" stroke-width="1.6"/><rect x="6.09" y="44.24" width="0.48" height="0.1" fill="none" stroke="#111" stroke-width="1.6"/><rect x="6.09" y="45.19" width="0.48" height="0.09" fill="none" stroke="#111" stroke-width="1.6"/><rect x="6.09" y="46.13" width="0.48" height="0.1" fill="none" stroke="#111" stroke-width="1.6"/><rect x="6.09" y="47.08" width="0.48" height="0.09" fill="none" stroke="#111" stroke-width="1.6"/><rect x="6.09" y="48.03" width="0.48" height="0.09" fill="none" stroke="#111" stroke-width="1.6"/><rect x="6.09" y="48.97" width="0.48" height="0.1" fill="none" stroke="#111" stroke-width="1.6"/><rect x="6.09" y="49.92" width="0.48" height="0.09" fill="none" stroke="#111" stroke-width="1.6"/><rect x="6.09" y="50.86" width="0.48" height="0.1" fill="none" stroke="#111" stroke-width="1.6"/><rect x="6.09" y="51.81" width="0.48" height="0.09" fill="none" stroke="#111" stroke-width="1.6"/><rect x="6.09" y="52.75" width="0.48" height="0.1" fill="none" stroke="#111" stroke-width="1.6"/><rect x="6.09" y="53.7" width="0.48" height="0.09" fill="none" stroke="#111" stroke-width="1.6"/><rect x="6.09" y="54.64" width="0.48" height="0.1" fill="none" stroke="#111" stroke-width="1.6"/><rect x="6.09" y="55.59" width="0.48" height="0.09" fill="none" stroke="#111" stroke-width="1.6"/><rect x="6.09" y="56.53" width="0.48" height="0.1" fill="none" stroke="#111" stroke-width="1.6"/><rect x="6.09" y="57.48" width="0.48" height="0.09" fill="none" stroke="#111" stroke-width="1.6"/><rect x="7.32" y="6.43" width="0.48" height="0.09" fill="none" stroke="#111" stroke-width="1.6"/><rect x="7.32" y="7.37" width="0.48" height="0.1" fill="none" stroke="#111" stroke-width="1.6"/><rect x="7.32" y="8.32" width="0.48" height="0.09" fill="none" stroke="#111" stroke-width="1.6"/><rect x="7.32" y="9.26" width="0.48" height="0.1" fill="none" stroke="#111" stroke-width="1.6"/><rect x="7.32" y="10.21" width="0.48" height="0.09" fill="none" stroke="#111" stroke-width="1.6"/><rect x="7.32" y="11.15" width="0.48" height="0.1" fill="none" stroke="#111" stroke-width="1.6"/><rect x="7.32" y="12.1" width="0.48" height="0.09" fill="none" stroke="#111" stroke-width="1.6"/><rect x="7.32" y="13.04" width="0.48" height="0.1" fill="none" stroke="#111" stroke-width="1.6"/><rect x="7.32" y="13.99" width="0.48" height="0.09" fill="none" stroke="#111" stroke-width="1.6"/><rect x="7.32" y="14.93" width="0.48" height="0.1" fill="none" stroke="#111" stroke-width="1.6"/><rect x="7.32" y="15.88" width="0.48" height="0.09" fill="none" stroke="#111" stroke-width="1.6"/><rect x="7.32" y="16.83" width="0.48" height="0.09" fill="none" stroke="#111" stroke-width="1.6"/><rect x="7.32" y="17.77" width="0.48" height="0.1" fill="none" stroke="#111" stroke-width="1.6"/><rect x="7.32" y="18.72" width="0.48" height="0.09" fill="none" stroke="#111" stroke-width="1.6"/><rect x="7.32" y="19.66" width="0.48" height="0.1" fill="none" stroke="#111" stroke-width="1.6"/><rect x="7.32" y="20.61" width="0.48" height="0.09" fill="none" stroke="#111" stroke-width="1.6"/><rect x="7.32" y="21.55" width="0.48" height="0.1" fill="none" stroke="#111" stroke-width="1.6"/><rect x="7.32" y="22.5" width="0.48" height="0.09" fill="none" stroke="#111" stroke-width="1.6"/><rect x="7.32" y="23.44" width="0.48" height="0.1" fill="none" stroke="#111" stroke-width="1.6"/><rect x="7.32" y="24.39" width="0.48" height="0.09" fill="none" stroke="#111" stroke-width="1.6"/><rect x="7.32" y="25.33" width="0.48" height="0.1" fill="none" stroke="#111" stroke-width="1.6"/><rect x="7.32" y="26.28" width="0.48" height="0.09" fill="none" stroke="#111" stroke-width="1.6"/><rect x="7.32" y="27.23" width="0.48" height="0.09" fill="none" stroke="#111" stroke-width="1.6"/><rect x="7.32" y="28.17" width="0.48" height="0.1" fill="none" stroke="#111" stroke-width="1.6"/><rect x="7.32" y="29.12" width="0.48" height="0.09" fill="none" stroke="#111" stroke-width="1.6"/><rect x="7.32" y="30.06" width="0.48" height="0.1" fill="none" stroke="#111" stroke-width="1.6"/><rect x="7.32" y="31.01" width="0.48" height="0.09" fill="none" stroke="#111" stroke-width="1.6"/><rect x="7.32" y="31.95" width="0.48" height="0.1" fill="none" stroke="#111" stroke-width="1.6"/><rect x="7.32" y="32.9" width="0.48" height="0.09" fill="none" stroke="#111" stroke-width="1.6"/><rect x="7.32" y="33.84" width="0.48" height="0.1" fill="none" stroke="#111" stroke-width="1.6"/><rect x="7.32" y="34.79" width="0.48" height="0.09" fill="none" stroke="#111" stroke-width="1.6"/><rect x="7.32" y="35.73" width="0.48" height="0.1" fill="none" stroke="#111" stroke-width="1.6"/><rect x="7.32" y="36.68" width="0.48" height="0.09" fill="none" stroke="#111" stroke-width="1.6"/><rect x="7.32" y="37.63" width="0.48" height="0.09" fill="none" stroke="#111" stroke-width="1.6"/><rect x="7.32" y="38.57" width="0.48" height="0.1" fill="none" stroke="#111" stroke-width="1.6"/><rect x="7.32" y="39.52" width="0.48" height="0.09" fill="none" stroke="#111" stroke-width="1.6"/><rect x="7.32" y="40.46" width="0.48" height="0.1" fill="none" stroke="#111" stroke-width="1.6"/><rect x="7.32" y="41.41" width="0.48" height="0.09" fill="none" stroke="#111" stroke-width="1.6"/><rect x="7.32" y="42.35" width="0.48" height="0.1" fill="none" stroke="#111" stroke-width="1.6"/><rect x="7.32" y="43.3" width="0.48" height="0.09" fill="none" stroke="#111" stroke-width="1.6"/><rect x="7.32" y="44.24" width="0.48" height="0.1" fill="none" stroke="#111" stroke-width="1.6"/><rect x="7.32" y="45.19" width="0.48" height="0.09" fill="none" stroke="#111" stroke-width="1.6"/><rect x="7.32" y="46.13" width="0.48" height="0.1" fill="none" stroke="#111" stroke-width="1.6"/><rect x="7.32" y="47.08" width="0.48" height="0.09" fill="none" stroke="#111" stroke-width="1.6"/><rect x="7.32" y="48.03" width="0.48" height="0.09" fill="none" stroke="#111" stroke-width="1.6"/><rect x="7.32" y="48.97" width="0.48" height="0.1" fill="none" stroke="#111" stroke-width="1.6"/><rect x="7.32" y="49.92" width="0.48" height="0.09" fill="none" stroke="#111" stroke-width="1.6"/><rect x="7.32" y="50.86" width="0.48" height="0.1" fill="none" stroke="#111" stroke-width="1.6"/><rect x="7.32" y="51.81" width="0.48" height="0.09" fill="none" stroke="#111" stroke-width="1.6"/><rect x="7.32" y="52.75" width="0.48" height="0.1" fill="none" stroke="#111" stroke-width="1.6"/><rect x="7.32" y="53.7" width="0.48" height="0.09" fill="none" stroke="#111" stroke-width="1.6"/><rect x="7.32" y="54.64" width="0.48" height="0.1" fill="none" stroke="#111" stroke-width="1.6"/><rect x="7.32" y="55.59" width="0.48" height="0.09" fill="none" stroke="#111" stroke-width="1.6"/><rect x="7.32" y="56.53" width="0.48" height="0.1" fill="none" stroke="#111" stroke-width="1.6"/><rect x="7.32" y="57.48" width="0.48" height="0.09" fill="none" stroke="#111" stroke-width="1.6"/></svg>