<svg xmlns="http://www.w3.org/2000/svg" width="96" height="64" viewBox="0 0 96 64"><rect x="6" y="6" width="84" height="19.09" fill="none" stroke="#111" stroke-width="1.6"/><circle cx="9.82" cy="8.67" r="0.76" fill="none" stroke="#111" stroke-width="1.6"/><polyline points="9.82,8.67 86.18,8.67" fill="none" stroke="#111" stroke-width="1.6" stroke-linecap="round" stroke-linejoin="round"/><polyline points="9.82,8.67 9.82,10.96 12.11,12.03 7.53,14.02 12.11,16 7.53,18.07 12.11,20.13 7.53,22.11 9.82,23.18 9.82,27" fill="none" stroke="#111" stroke-width="1.6" stroke-linecap="round" stroke-linejoin="round"/><circle cx="17.45" cy="8.67" r="0.76" fill="none" stroke="#111" stroke-width="1.6"/><polyline points="17.45,8.67 17.45,10.96 19.75,12.03 15.16,14.02 19.75,16 15.16,18.07 19.75,20.13 15.16,22.11 17.45,23.18 17.45,27" fill="none" stroke="#111" stroke-width="1.6" stroke-linecap="round" stroke-linejoin="round"/><circle cx="25.09" cy="8.67" r="0.76" fill="none" stroke="#111" stroke-width="1.6"/><polyline points="25.09,8.67 25.09,10.96 27.38,12.03 22.8,14.02 27.38,16 22.8,18.07 27.38,20.13 22.8,22.11 25.09,23.18 25.09,27" fill="none" stroke="#111" stroke-width="1.6" stroke-linecap="round" stroke-linejoin="round"/><circle cx="32.73" cy="8.67" r="0.76" fill="none" stroke="#111" stroke-width="1.6"/><polyline points="32.73,8.67 32.73,10.96 35.02,12.03 30.44,14.02 35.02,16 30.44,18.07 35.02,20.13 30.44,22.11 32.73,23.18 32.73,27" fill="none" stroke="#111" stroke-width="1.6" stroke-linecap="round" stroke-linejoin="round"/><circle cx="40.36" cy="8.67" r="0.76" fill="none" stroke="#111" stroke-width="1.6"/><polyline points="40.36,8.67 40.36,10.96 42.65,12.03 38.07,14.02 42.65,16 38.07,18.07 42.65,20.13 38.07,22.11 40.36,23.18 40.36,27" fill="none" stroke="#111" stroke-width="1.6" stroke-linecap="round" stroke-linejoin="round"/><circle cx="48" cy="8.67" r="0.76" fill="none" stroke="#111" stroke-width="1.6"/><polyline points="48,8.67 48,10.96 50.29,12.03 45.71,14.02 50.29,16 45.71,18.07 50.29,20.13 45.71,22.11 48,23.18 48,27" fill="none" stroke="#111" stroke-width="1.6" stroke-linecap="round" stroke-linejoin="round"/><polyline points="55.64,8.67 55.64,10.96 57.93,12.03 53.35,14.02 57.93,16 53.35,18.07 57.93,20.13 53.35,22.11 55.64,23.18 55.64,27" fill="none" stroke="#111" stroke-width="1.6" stroke-linecap="round" stroke-linejoin="round"/><circle cx="55.64" cy="8.67" r="0.76" fill="none" stroke="#111" stroke-width="1.6"/><polyline points="63.27,8.67 63.27,10.96 65.56,12.03 60.98,14.02 65.56,16 60.98,18.07 65.56,20.13 60.98,22.11 63.27,23.18 63.27,27" fill="none" stroke="#111" stroke-width="1.6" stroke-linecap="round" stroke-linejoin="round"/><circle cx="63.27" cy="8.67" r="0.76" fill="none" stroke="#111" stroke-width="1.6"/><polyline points="70.91,8.67 70.91,10.96 73.2,12.03 68.62,14.02 73.2,16 68.62,18.07 73.2,20.13 68.62,22.11 70.91,23.18 70.91,27" fill="none" stroke="#111" stroke-width="1.6" stroke-linecap="round" stroke-linejoin="round"/><circle cx="70.91" cy="8.67" r="0.76" fill="none" stroke="#111" stroke-width="1.6"/><polyline points="78.55,8.67 78.55,10.96 80.84,12.03 76.25,14.02 80.84,16 76.25,18.07 80.84,20.13 76.25,22.11 78.55,23.18 78.55,27" fill="none" stroke="#111" stroke-width="1.6" stroke-linecap="round" stroke-linejoin="round"/><circle cx="78.55" cy="8.67" r="0.76" fill="none" stroke="#111" stroke-width="1.6"/><polyline points="86.18,8.67 86.18,10.96 88.47,12.03 83.89,14.02 88.47,16 83.89,18.07 88.47,20.13 83.89,22.11 86.18,23.18 86.18,27" fill="none" stroke="#111" stroke-width="1.6" stroke-linecap="round" stroke-linejoin="round"/></svg>