<svg xmlns="http://www.w3.org/2000/svg" width="96" height="64" viewBox="0 0 96 64"><polyline points="9.12,32.94 54.78,32.94" fill="none" stroke="#111" stroke-width="1.6" stroke-linecap="round" stroke-linejoin="round"/><polyline points="11.2,47.6 16.4,47.6" fill="none" stroke="#111" stroke-width="1.6" stroke-linecap="round" stroke-linejoin="round"/><polyline points="16.4,16.4 11.2,16.4" fill="none" stroke="#111" stroke-width="1.6" stroke-linecap="round" stroke-linejoin="round"/><polyline points="16.4,16.4 18.48,18.48" fill="none" stroke="#111" stroke-width="1.6" stroke-linecap="round" stroke-linejoin="round"/><polyline points="16.4,47.6 18.48,45.52" fill="none" stroke="#111" stroke-width="1.6" stroke-linecap="round" stroke-linejoin="round"/><circle cx="21.6" cy="21.6" r="4.16" fill="none" stroke="#111" stroke-width="1.6"/><circle cx="21.6" cy="42.4" r="4.16" fill="none" stroke="#111" stroke-width="1.6"/><circle cx="32" cy="32" r="26" fill="none" stroke="#111" stroke-width="1.6"/><path d="M 32 55.82 Q 15.82 49.11 9.12 32.94" fill="none" stroke="#111" stroke-width="1.6" stroke-linecap="round"/><path d="M 54.88 32.94 Q 48.18 49.11 32 55.82" fill="none" stroke="#111" stroke-width="1.6" stroke-linecap="round"/><circle cx="42.4" cy="21.6" r="4.16" fill="none" stroke="#111" stroke-width="1.6"/><circle cx="42.4" cy="42.4" r="4.16" fill="none" stroke="#111" stroke-width="1.6"/><polyline points="47.6,16.4 45.52,18.48" fill="none" stroke="#111" stroke-width="1.6" stroke-linecap="round" stroke-linejoin="round"/><polyline points="47.6,47.6 45.52,45.52" fill="none" stroke="#111" stroke-width="1.6" stroke-linecap="round" stroke-linejoin="round"/><polyline points="52.8,16.4 47.6,16.4" fill="none" stroke="#111" stroke-width="1.6" stroke-linecap="round" stroke-linejoin="round"/><polyline points="52.8,47.6 47.6,47.6" fill="none" stroke="#111" stroke-width="1.6" stroke-linecap="round" stroke-linejoin="round"/></svg>