<svg xmlns="http://www.w3.org/2000/svg" width="96" height="64" viewBox="0 0 96 64"><rect x="6" y="6" width="2.74" height="52" fill="none" stroke="#111" stroke-width="1.6"/><polyline points="6.79,7.01 7.72,7.92" fill="none" stroke="#111" stroke-width="1.6" stroke-linecap="round" stroke-linejoin="round"/><polyline points="6.79,9.75 7.72,10.65" fill="none" stroke="#111" stroke-width="1.6" stroke-linecap="round" stroke-linejoin="round"/><polyline points="6.79,12.49 7.72,13.39" fill="none" stroke="#111" stroke-width="1.6" stroke-linecap="round" stroke-linejoin="round"/><polyline points="6.79,15.22 7.72,16.13" fill="none" stroke="#111" stroke-width="1.6" stroke-linecap="round" stroke-linejoin="round"/><polyline points="6.79,17.96 7.72,18.86" fill="none" stroke="#111" stroke-width="1.6" stroke-linecap="round" stroke-linejoin="round"/><polyline points="6.79,20.7 7.72,21.6" fill="none" stroke="#111" stroke-width="1.6" stroke-linecap="round" stroke-linejoin="round"/><polyline points="6.79,23.43 7.72,24.34" fill="none" stroke="#111" stroke-width="1.6" stroke-linecap="round" stroke-linejoin="round"/><polyline points="6.79,26.17 7.72,27.07" fill="none" stroke="#111" stroke-width="1.6" stroke-linecap="round" stroke-linejoin="round"/><polyline points="6.79,28.91 7.72,29.81" fill="none" stroke="#111" stroke-width="1.6" stroke-linecap="round" stroke-linejoin="round"/><polyline points="6.79,31.64 7.72,32.55" fill="none" stroke="#111" stroke-width="1.6" stroke-linecap="round" stroke-linejoin="round"/><polyline points="6.79,34.38 7.72,35.28" fill="none" stroke="#111" stroke-width="1.6" stroke-linecap="round" stroke-linejoin="round"/><polyline points="6.79,37.12 7.72,38.02" fill="none" stroke="#111" stroke-width="1.6" stroke-linecap="round" stroke-linejoin="round"/><polyline points="6.79,39.85 7.72,40.76" fill="none" stroke="#111" stroke-width="1.6" stroke-linecap="round" stroke-linejoin="round"/><polyline points="6.79,42.59 7.72,43.49" fill="none" stroke="#111" stroke-width="1.6" stroke-linecap="round" stroke-linejoin="round"/><polyline points="6.79,45.33 7.72,46.23" fill="none" stroke="#111" stroke-width="1.6" stroke-linecap="round" stroke-linejoin="round"/><polyline points="6.79,48.07 7.72,48.97" fill="none" stroke="#111" stroke-width="1.6" stroke-linecap="round" stroke-linejoin="round"/><polyline points="6.79,50.8 7.72,51.71" fill="none" stroke="#111" stroke-width="1.6" stroke-linecap="round" stroke-linejoin="round"/><polyline points="6.79,53.54 7.72,54.44" fill="none" stroke="#111" stroke-width="1.6" stroke-linecap="round" stroke-linejoin="round"/><polyline points="6.79,56.28 7.72,57.18" fill="none" stroke="#111" stroke-width="1.6" stroke-linecap="round" stroke-linejoin="round"/><polyline points="6.99,6.82 7.92,7.72" fill="none" stroke="#111" stroke-width="1.6" stroke-linecap="round" stroke-linejoin="round"/><polyline points="6.99,9.56 7.92,10.46" fill="none" stroke="#111" stroke-width="1.6" stroke-linecap="round" stroke-linejoin="round"/><polyline points="6.99,12.29 7.92,13.2" fill="none" stroke="#111" stroke-width="1.6" stroke-linecap="round" stroke-linejoin="round"/><polyline points="6.99,15.03 7.92,15.93" fill="none" stroke="#111" stroke-width="1.6" stroke-linecap="round" stroke-linejoin="round"/><polyline points="6.99,17.77 7.92,18.67" fill="none" stroke="#111" stroke-width="1.6" stroke-linecap="round" stroke-linejoin="round"/><polyline points="6.99,20.51 7.92,21.41" fill="none" stroke="#111" stroke-width="1.6" stroke-linecap="round" stroke-linejoin="round"/><polyline points="6.99,23.24 7.92,24.15" fill="none" stroke="#111" stroke-width="1.6" stroke-linecap="round" stroke-linejoin="round"/><polyline points="6.99,25.98 7.92,26.88" fill="none" stroke="#111" stroke-width="1.6" stroke-linecap="round" stroke-linejoin="round"/><polyline points="6.99,28.72 7.92,29.62" fill="none" stroke="#111" stroke-width="1.6" stroke-linecap="round" stroke-linejoin="round"/><polyline points="6.99,31.45 7.92,32.36" fill="none" stroke="#111" stroke-width="1.6" stroke-linecap="round" stroke-linejoin="round"/><polyline points="6.99,34.19 7.92,35.09" fill="none" stroke="#111" stroke-width="1.6" stroke-linecap="round" stroke-linejoin="round"/><polyline points="6.99,36.93 7.92,37.83" fill="none" stroke="#111" stroke-width="1.6" stroke-linecap="round" stroke-linejoin="round"/><polyline points="6.99,39.66 7.92,40.57" fill="none" stroke="#111" stroke-width="1.6" stroke-linecap="round" stroke-linejoin="round"/><polyline points="6.99,42.4 7.92,43.3" fill="none" stroke="#111" stroke-width="1.6" stroke-linecap="round" stroke-linejoin="round"/><polyline points="6.99,45.14 7.92,46.04" fill="none" stroke="#111" stroke-width="1.6" stroke-linecap="round" stroke-linejoin="round"/><polyline points="6.99,47.87 7.92,48.78" fill="none" stroke="#111" stroke-width="1.6" stroke-linecap="round" stroke-linejoin="round"/><polyline points="6.99,50.61 7.92,51.51" fill="none" stroke="#111" stroke-width="1.6" stroke-linecap="round" stroke-linejoin="round"/><polyline points="6.99,53.35 7.92,54.25" fill="none" stroke="#111" stroke-width="1.6" stroke-linecap="round" stroke-linejoin="round"/><polyline points="6.99,56.08 7.92,56.99" fill="none" stroke="#111" stroke-width="1.6" stroke-linecap="round" stroke-linejoin="round"/><circle cx="7.37" cy="7.37" r="0.68" fill="none" stroke="#111" stroke-width="1.6"/><circle cx="7.37" cy="10.11" r="0.68" fill="none" stroke="#111" stroke-width="1.6"/><circle cx="7.37" cy="12.84" r="0.68" fill="none" stroke="#111" stroke-width="1.6"/><circle cx="7.37" cy="15.58" r="0.68" fill="none" stroke="#111" stroke-width="1.6"/><circle cx="7.37" cy="18.32" r="0.68" fill="none" stroke="#111" stroke-width="1.6"/><circle cx="7.37" cy="21.05" r="0.68" fill="none" stroke="#111" stroke-width="1.6"/><circle cx="7.37" cy="23.79" r="0.68" fill="none" stroke="#111" stroke-width="1.6"/><circle cx="7.37" cy="26.53" r="0.68" fill="none" stroke="#111" stroke-width="1.6"/><circle cx="7.37" cy="29.26" r="0.68" fill="none" stroke="#111" stroke-width="1.6"/><circle cx="7.37" cy="32" r="0.68" fill="none" stroke="#111" stroke-width="1.6"/><circle cx="7.37" cy="34.74" r="0.68" fill="none" stroke="#111" stroke-width="1.6"/><circle cx="7.37" cy="37.47" r="0.68" fill="none" stroke="#111" stroke-width="1.6"/><circle cx="7.37" cy="40.21" r="0.68" fill="none" stroke="#111" stroke-width="1.6"/><circle cx="7.37" cy="42.95" r="0.68" fill="none" stroke="#111" stroke-width="1.6"/><circle cx="7.37" cy="45.68" r="0.68" fill="none" stroke="#111" stroke-width="1.6"/><circle cx="7.37" cy="48.42" r="0.68" fill="none" stroke="#111" stroke-width="1.6"/><circle cx="7.37" cy="51.16" r="0.68" fill="none" stroke="#111" stroke-width="1.6"/><circle cx="7.37" cy="53.89" r="0.68" fill="none" stroke="#111" stroke-width="1.6"/><circle cx="7.37" cy="56.63" r="0.68" fill="none" stroke="#111" stroke-width="1.6"/></svg>