<svg xmlns="http://www.w3.org/2000/svg" width="96" height="64" viewBox="0 0 96 64"><path d="M 10.33 19 Q 14.5 32 10.33 45" fill="none" stroke="#111" stroke-width="1.6" stroke-linecap="round"/><polyline points="10.33,19 21.17,19" fill="none" stroke="#111" stroke-width="1.6" stroke-linecap="round" stroke-linejoin="round"/><polyline points="10.33,45 21.17,45" fill="none" stroke="#111" stroke-width="1.6" stroke-linecap="round" stroke-linejoin="round"/><path d="M 36.33 32 Q 30.79 40.82 21.25 45" fill="none" stroke="#111" stroke-width="1.6" stroke-linecap="round"/><path d="M 21.25 19 Q 30.82 23.15 36.33 32" fill="none" stroke="#111" stroke-width="1.6" stroke-linecap="round"/><polyline points="21.17,19 10.33,19 10.33,19 11.2,20.39 13.02,24.29 14.15,28.45 14.41,32.87 13.89,37.11 12.5,41.27 10.33,45 10.33,45 21.17,45" fill="none" stroke="#111" stroke-width="1.6" stroke-linecap="round" stroke-linejoin="round"/><path d="M 23.33 19 Q 36.28 32 23.33 45" fill="none" stroke="#111" stroke-width="1.6" stroke-linecap="round"/><polyline points="23.33,19 10.33,19 10.33,45 23.33,45" fill="none" stroke="#111" stroke-width="1.6" stroke-linecap="round" stroke-linejoin="round"/><path d="M 10.33 19 Q 14.5 32 10.33 45" fill="none" stroke="#111" stroke-width="1.6" stroke-linecap="round"/><polyline points="10.33,19 21.17,19" fill="none" stroke="#111" stroke-width="1.6" stroke-linecap="round" stroke-linejoin="round"/><polyline points="10.33,45 21.17,45" fill="none" stroke="#111" stroke-width="1.6" stroke-linecap="round" stroke-linejoin="round"/><path d="M 36.33 32 Q 30.79 40.82 21.25 45" fill="none" stroke="#111" stroke-width="1.6" stroke-linecap="round"/><path d="M 21.25 19 Q 30.82 23.15 36.33 32" fill="none" stroke="#111" stroke-width="1.6" stroke-linecap="round"/><polyline points="21.17,19 10.33,19 10.33,19 11.2,20.39 13.02,24.29 14.15,28.45 14.41,32.87 13.89,37.11 12.5,41.27 10.33,45 10.33,45 21.17,45" fill="none" stroke="#111" stroke-width="1.6" stroke-linecap="round" stroke-linejoin="round"/><path d="M 23.33 19 Q 36.28 32 23.33 45" fill="none" stroke="#111" stroke-width="1.6" stroke-linecap="round"/><polyline points="23.33,19 10.33,19 10.33,45 23.33,45" fill="none" stroke="#111" stroke-width="1.6" stroke-linecap="round" stroke-linejoin="round"/><path d="M 10.33 19 Q 14.5 32 10.33 45" fill="none" stroke="#111" stroke-width="1.6" stroke-linecap="round"/><polyline points="10.33,19 21.17,19" fill="none" stroke="#111" stroke-width="1.6" stroke-linecap="round" stroke-linejoin="round"/><polyline points="10.33,45 21.17,45" fill="none" stroke="#111" stroke-width="1.6" stroke-linecap="round" stroke-linejoin="round"/><path d="M 36.33 32 Q 30.79 40.82 21.25 45" fill="none" stroke="#111" stroke-width="1.6" stroke-linecap="round"/><path d="M 21.25 19 Q 30.82 23.15 36.33 32" fill="none" stroke="#111" stroke-width="1.6" stroke-linecap="round"/><polyline points="21.17,19 10.33,19 10.33,19 11.2,20.39 13.02,24.29 14.15,28.45 14.41,32.87 13.89,37.11 12.5,41.27 10.33,45 10.33,45 21.17,45" fill="none" stroke="#111" stroke-width="1.6" stroke-linecap="round" stroke-linejoin="round"/><path d="M 23.33 19 Q 36.28 32 23.33 45" fill="none" stroke="#111" stroke-width="1.6" stroke-linecap="round"/><polyline points="23.33,19 10.33,19 10.33,45 23.33,45" fill="none" stroke="#111" stroke-width="1.6" stroke-linecap="round" stroke-linejoin="round"/><path d="M 10.33 19 Q 14.5 32 10.33 45" fill="none" stroke="#111" stroke-width="1.6" stroke-linecap="round"/><polyline points="10.33,19 21.17,19" fill="none" stroke="#111" stroke-width="1.6" stroke-linecap="round" stroke-linejoin="round"/><polyline points="10.33,45 21.17,45" fill="none" stroke="#111" stroke-width="1.6" stroke-linecap="round" stroke-linejoin="round"/><path d="M 36.33 32 Q 30.79 40.82 21.25 45" fill="none" stroke="#111" stroke-width="1.6" stroke-linecap="round"/><path d="M 21.25 19 Q 30.82 23.15 36.33 32" fill="none" stroke="#111" stroke-width="1.6" stroke-linecap="round"/><polyline points="21.17,19 10.33,19 10.33,19 11.2,20.39 13.02,24.29 14.15,28.45 14.41,32.87 13.89,37.11 12.5,41.27 10.33,45 10.33,45 21.17,45" fill="none" stroke="#111" stroke-width="1.6" stroke-linecap="round" stroke-linejoin="round"/><path d="M 23.33 19 Q 36.28 32 23.33 45" fill="none" stroke="#111" stroke-width="1.6" stroke-linecap="round"/><polyline points="23.33,19 10.33,19 10.33,45 23.33,45" fill="none" stroke="#111" stroke-width="1.6" stroke-linecap="round" stroke-linejoin="round"/><rect x="6" y="6" width="34.67" height="52" fill="none" stroke="#111" stroke-width="1.6"/></svg>