<svg xmlns="http://www.w3.org/2000/svg" width="96" height="64" viewBox="0 0 96 64"><rect x="6" y="6" width="2.6" height="52" fill="none" stroke="#111" stroke-width="1.6"/><rect x="6.13" y="6.13" width="2.34" height="51.74" fill="none" stroke="#111" stroke-width="1.6"/><rect x="6.13" y="6.58" width="0.65" height="0.13" fill="none" stroke="#111" stroke-width="1.6"/><rect x="6.13" y="7.88" width="0.65" height="0.13" fill="none" stroke="#111" stroke-width="1.6"/><rect x="6.13" y="9.18" width="0.65" height="0.14" fill="none" stroke="#111" stroke-width="1.6"/><rect x="6.13" y="10.48" width="0.65" height="0.14" fill="none" stroke="#111" stroke-width="1.6"/><rect x="6.13" y="11.79" width="0.65" height="0.13" fill="none" stroke="#111" stroke-width="1.6"/><rect x="6.13" y="13.09" width="0.65" height="0.12" fill="none" stroke="#111" stroke-width="1.6"/><rect x="6.13" y="14.39" width="0.65" height="0.13" fill="none" stroke="#111" stroke-width="1.6"/><rect x="6.13" y="15.69" width="0.65" height="0.12" fill="none" stroke="#111" stroke-width="1.6"/><rect x="6.13" y="16.98" width="0.65" height="0.14" fill="none" stroke="#111" stroke-width="1.6"/><rect x="6.13" y="18.29" width="0.65" height="0.12" fill="none" stroke="#111" stroke-width="1.6"/><rect x="6.13" y="19.59" width="0.65" height="0.12" fill="none" stroke="#111" stroke-width="1.6"/><rect x="6.13" y="20.88" width="0.65" height="0.14" fill="none" stroke="#111" stroke-width="1.6"/><rect x="6.13" y="22.18" width="0.65" height="0.14" fill="none" stroke="#111" stroke-width="1.6"/><rect x="6.13" y="23.48" width="0.65" height="0.13" fill="none" stroke="#111" stroke-width="1.6"/><rect x="6.13" y="24.79" width="0.65" height="0.12" fill="none" stroke="#111" stroke-width="1.6"/><rect x="6.13" y="26.09" width="0.65" height="0.12" fill="none" stroke="#111" stroke-width="1.6"/><rect x="6.13" y="27.38" width="0.65" height="0.13" fill="none" stroke="#111" stroke-width="1.6"/><rect x="6.13" y="28.68" width="0.65" height="0.13" fill="none" stroke="#111" stroke-width="1.6"/><rect x="6.13" y="29.98" width="0.65" height="0.14" fill="none" stroke="#111" stroke-width="1.6"/><rect x="6.13" y="31.28" width="0.65" height="0.13" fill="none" stroke="#111" stroke-width="1.6"/><rect x="6.13" y="32.58" width="0.65" height="0.14" fill="none" stroke="#111" stroke-width="1.6"/><rect x="6.13" y="33.89" width="0.65" height="0.13" fill="none" stroke="#111" stroke-width="1.6"/><rect x="6.13" y="35.19" width="0.65" height="0.12" fill="none" stroke="#111" stroke-width="1.6"/><rect x="6.13" y="36.48" width="0.65" height="0.13" fill="none" stroke="#111" stroke-width="1.6"/><rect x="6.13" y="37.78" width="0.65" height="0.13" fill="none" stroke="#111" stroke-width="1.6"/><rect x="6.13" y="39.09" width="0.65" height="0.13" fill="none" stroke="#111" stroke-width="1.6"/><rect x="6.13" y="40.38" width="0.65" height="0.14" fill="none" stroke="#111" stroke-width="1.6"/><rect x="6.13" y="41.68" width="0.65" height="0.13" fill="none" stroke="#111" stroke-width="1.6"/><rect x="6.13" y="42.98" width="0.65" height="0.13" fill="none" stroke="#111" stroke-width="1.6"/><rect x="6.13" y="44.28" width="0.65" height="0.13" fill="none" stroke="#111" stroke-width="1.6"/><rect x="6.13" y="45.59" width="0.65" height="0.13" fill="none" stroke="#111" stroke-width="1.6"/><rect x="6.13" y="46.89" width="0.65" height="0.13" fill="none" stroke="#111" stroke-width="1.6"/><rect x="6.13" y="48.19" width="0.65" height="0.12" fill="none" stroke="#111" stroke-width="1.6"/><rect x="6.13" y="49.48" width="0.65" height="0.13" fill="none" stroke="#111" stroke-width="1.6"/><rect x="6.13" y="50.78" width="0.65" height="0.13" fill="none" stroke="#111" stroke-width="1.6"/><rect x="6.13" y="52.09" width="0.65" height="0.12" fill="none" stroke="#111" stroke-width="1.6"/><rect x="6.13" y="53.38" width="0.65" height="0.14" fill="none" stroke="#111" stroke-width="1.6"/><rect x="6.13" y="54.69" width="0.65" height="0.13" fill="none" stroke="#111" stroke-width="1.6"/><rect x="6.13" y="55.99" width="0.65" height="0.13" fill="none" stroke="#111" stroke-width="1.6"/><rect x="6.13" y="57.28" width="0.65" height="0.13" fill="none" stroke="#111" stroke-width="1.6"/><rect x="7.82" y="6.58" width="0.65" height="0.13" fill="none" stroke="#111" stroke-width="1.6"/><rect x="7.82" y="7.88" width="0.65" height="0.13" fill="none" stroke="#111" stroke-width="1.6"/><rect x="7.82" y="9.18" width="0.65" height="0.14" fill="none" stroke="#111" stroke-width="1.6"/><rect x="7.82" y="10.48" width="0.65" height="0.14" fill="none" stroke="#111" stroke-width="1.6"/><rect x="7.82" y="11.79" width="0.65" height="0.13" fill="none" stroke="#111" stroke-width="1.6"/><rect x="7.82" y="13.09" width="0.65" height="0.12" fill="none" stroke="#111" stroke-width="1.6"/><rect x="7.82" y="14.39" width="0.65" height="0.13" fill="none" stroke="#111" stroke-width="1.6"/><rect x="7.82" y="15.69" width="0.65" height="0.12" fill="none" stroke="#111" stroke-width="1.6"/><rect x="7.82" y="16.98" width="0.65" height="0.14" fill="none" stroke="#111" stroke-width="1.6"/><rect x="7.82" y="18.29" width="0.65" height="0.12" fill="none" stroke="#111" stroke-width="1.6"/><rect x="7.82" y="19.59" width="0.65" height="0.12" fill="none" stroke="#111" stroke-width="1.6"/><rect x="7.82" y="20.88" width="0.65" height="0.14" fill="none" stroke="#111" stroke-width="1.6"/><rect x="7.82" y="22.18" width="0.65" height="0.14" fill="none" stroke="#111" stroke-width="1.6"/><rect x="7.82" y="23.48" width="0.65" height="0.13" fill="none" stroke="#111" stroke-width="1.6"/><rect x="7.82" y="24.79" width="0.65" height="0.12" fill="none" stroke="#111" stroke-width="1.6"/><rect x="7.82" y="26.09" width="0.65" height="0.12" fill="none" stroke="#111" stroke-width="1.6"/><rect x="7.82" y="27.38" width="0.65" height="0.13" fill="none" stroke="#111" stroke-width="1.6"/><rect x="7.82" y="28.68" width="0.65" height="0.13" fill="none" stroke="#111" stroke-width="1.6"/><rect x="7.82" y="29.98" width="0.65" height="0.14" fill="none" stroke="#111" stroke-width="1.6"/><rect x="7.82" y="31.28" width="0.65" height="0.13" fill="none" stroke="#111" stroke-width="1.6"/><rect x="7.82" y="32.58" width="0.65" height="0.14" fill="none" stroke="#111" stroke-width="1.6"/><rect x="7.82" y="33.89" width="0.65" height="0.13" fill="none" stroke="#111" stroke-width="1.6"/><rect x="7.82" y="35.19" width="0.65" height="0.12" fill="none" stroke="#111" stroke-width="1.6"/><rect x="7.82" y="36.48" width="0.65" height="0.13" fill="none" stroke="#111" stroke-width="1.6"/><rect x="7.82" y="37.78" width="0.65" height="0.13" fill="none" stroke="#111" stroke-width="1.6"/><rect x="7.82" y="39.09" width="0.65" height="0.13" fill="none" stroke="#111" stroke-width="1.6"/><rect x="7.82" y="40.38" width="0.65" height="0.14" fill="none" stroke="#111" stroke-width="1.6"/><rect x="7.82" y="41.68" width="0.65" height="0.13" fill="none" stroke="#111" stroke-width="1.6"/><rect x="7.82" y="42.98" width="0.65" height="0.13" fill="none" stroke="#111" stroke-width="1.6"/><rect x="7.82" y="44.28" width="0.65" height="0.13" fill="none" stroke="#111" stroke-width="1.6"/><rect x="7.82" y="45.59" width="0.65" height="0.13" fill="none" stroke="#111" stroke-width="1.6"/><rect x="7.82" y="46.89" width="0.65" height="0.13" fill="none" stroke="#111" stroke-width="1.6"/><rect x="7.82" y="48.19" width="0.65" height="0.12" fill="none" stroke="#111" stroke-width="1.6"/><rect x="7.82" y="49.48" width="0.65" height="0.13" fill="none" stroke="#111" stroke-width="1.6"/><rect x="7.82" y="50.78" width="0.65" height="0.13" fill="none" stroke="#111" stroke-width="1.6"/><rect x="7.82" y="52.09" width="0.65" height="0.12" fill="none" stroke="#111" stroke-width="1.6"/><rect x="7.82" y="53.38" width="0.65" height="0.14" fill="none" stroke="#111" stroke-width="1.6"/><rect x="7.82" y="54.69" width="0.65" height="0.13" fill="none" stroke="#111" stroke-width="1.6"/><rect x="7.82" y="55.99" width="0.65" height="0.13" fill="none" stroke="#111" stroke-width="1.6"/><rect x="7.82" y="57.28" width="0.65" height="0.13" fill="none" stroke="#111" stroke-width="1.6"/></svg>