<svg xmlns="http://www.w3.org/2000/svg" width="96" height="64" viewBox="0 0 96 64"><rect x="6" y="6" width="69.33" height="52" fill="none" stroke="#111" stroke-width="1.6"/><polyline points="40.67,14.67 40.67,16.83 66.67,16.83 66.67,14.67" fill="none" stroke="#111" stroke-width="1.6" stroke-linecap="round" stroke-linejoin="round"/><polyline points="49.33,14.67 49.33,16.83" fill="none" stroke="#111" stroke-width="1.6" stroke-linecap="round" stroke-linejoin="round"/><circle cx="49.33" cy="16.83" r="0.43" fill="none" stroke="#111" stroke-width="1.6"/><polyline points="58,14.67 58,16.83" fill="none" stroke="#111" stroke-width="1.6" stroke-linecap="round" stroke-linejoin="round"/><circle cx="58" cy="16.83" r="0.43" fill="none" stroke="#111" stroke-width="1.6"/><polyline points="58,49.33 58,47.17 66.67,47.17 66.67,49.33" fill="none" stroke="#111" stroke-width="1.6" stroke-linecap="round" stroke-linejoin="round"/><circle cx="62.33" cy="16.83" r="0.43" fill="none" stroke="#111" stroke-width="1.6"/><polyline points="62.33,23.33 62.33,16.83" fill="none" stroke="#111" stroke-width="1.6" stroke-linecap="round" stroke-linejoin="round"/><circle cx="62.33" cy="36.33" r="0.43" fill="none" stroke="#111" stroke-width="1.6"/><polyline points="62.33,40.67 62.33,47.17" fill="none" stroke="#111" stroke-width="1.6" stroke-linecap="round" stroke-linejoin="round"/><circle cx="62.33" cy="47.17" r="0.43" fill="none" stroke="#111" stroke-width="1.6"/><polyline points="14.67,23.33 14.67,27.67 27.67,27.67" fill="none" stroke="#111" stroke-width="1.6" stroke-linecap="round" stroke-linejoin="round"/><polyline points="19,49.33 32,49.33 32,40.67" fill="none" stroke="#111" stroke-width="1.6" stroke-linecap="round" stroke-linejoin="round"/><rect x="27.67" y="23.33" width="21.66" height="17.34" fill="none" stroke="#111" stroke-width="1.6"/><polyline points="53.67,26.8 53.67,37.2" fill="none" stroke="#111" stroke-width="1.6" stroke-linecap="round" stroke-linejoin="round"/><polyline points="53.67,32 49.33,32" fill="none" stroke="#111" stroke-width="1.6" stroke-linecap="round" stroke-linejoin="round"/><polyline points="55.83,26.37 55.83,28.53" fill="none" stroke="#111" stroke-width="1.6" stroke-linecap="round" stroke-linejoin="round"/><polyline points="55.83,30.7 55.83,33.3" fill="none" stroke="#111" stroke-width="1.6" stroke-linecap="round" stroke-linejoin="round"/><polyline points="55.83,35.47 55.83,37.63" fill="none" stroke="#111" stroke-width="1.6" stroke-linecap="round" stroke-linejoin="round"/><polyline points="56.27,27.67 62.33,27.67 62.33,23.33" fill="none" stroke="#111" stroke-width="1.6" stroke-linecap="round" stroke-linejoin="round"/><polyline points="56.27,32 58,32 62.33,32 62.33,36.33" fill="none" stroke="#111" stroke-width="1.6" stroke-linecap="round" stroke-linejoin="round"/><polyline points="56.27,36.33 62.33,36.33 62.33,40.67" fill="none" stroke="#111" stroke-width="1.6" stroke-linecap="round" stroke-linejoin="round"/><polyline points="56.7,32 60.17,30.7 60.17,33.3 56.7,32 57.13,32" fill="none" stroke="#111" stroke-width="1.6" stroke-linecap="round" stroke-linejoin="round"/></svg>