<svg xmlns="http://www.w3.org/2000/svg" width="96" height="64" viewBox="0 0 96 64"><rect x="6" y="6" width="21.38" height="52" fill="none" stroke="#111" stroke-width="1.6"/><polyline points="12.93,25.07 13.8,25.07 13.8,13.51 12.93,13.51 12.93,13.51" fill="none" stroke="#111" stroke-width="1.6" stroke-linecap="round" stroke-linejoin="round"/><polyline points="12.93,36.62 13.8,36.62 13.8,26.22 12.93,26.22 12.93,26.22" fill="none" stroke="#111" stroke-width="1.6" stroke-linecap="round" stroke-linejoin="round"/><polyline points="12.93,45.87 13.8,45.87 13.8,37.2 12.93,37.2 12.93,37.2" fill="none" stroke="#111" stroke-width="1.6" stroke-linecap="round" stroke-linejoin="round"/><polyline points="12.93,46.44 13.8,46.44 13.8,56.27 12.93,56.27 13.22,56.27" fill="none" stroke="#111" stroke-width="1.6" stroke-linecap="round" stroke-linejoin="round"/><polyline points="21.31,13.22 20.44,13.22 20.44,22.47 21.31,22.47 21.31,22.47" fill="none" stroke="#111" stroke-width="1.6" stroke-linecap="round" stroke-linejoin="round"/><polyline points="21.31,23.04 20.44,23.04 20.44,31.71 21.31,31.71 21.31,31.71" fill="none" stroke="#111" stroke-width="1.6" stroke-linecap="round" stroke-linejoin="round"/><polyline points="21.31,32.29 20.44,32.29 20.44,43.27 21.31,43.27 21.31,43.27" fill="none" stroke="#111" stroke-width="1.6" stroke-linecap="round" stroke-linejoin="round"/><polyline points="21.31,43.84 20.44,43.84 20.44,55.4 21.31,55.4 21.31,55.4" fill="none" stroke="#111" stroke-width="1.6" stroke-linecap="round" stroke-linejoin="round"/></svg>