<svg xmlns="http://www.w3.org/2000/svg" width="96" height="64" viewBox="0 0 96 64"><polyline points="6,6.6 6.9,6.6" fill="none" stroke="#111" stroke-width="1.6" stroke-linecap="round" stroke-linejoin="round"/><polyline points="6,9.59 6.9,9.59" fill="none" stroke="#111" stroke-width="1.6" stroke-linecap="round" stroke-linejoin="round"/><polyline points="6,12.57 6.9,12.57" fill="none" stroke="#111" stroke-width="1.6" stroke-linecap="round" stroke-linejoin="round"/><polyline points="6,15.56 6.9,15.56" fill="none" stroke="#111" stroke-width="1.6" stroke-linecap="round" stroke-linejoin="round"/><polyline points="6,18.55 6.9,18.55" fill="none" stroke="#111" stroke-width="1.6" stroke-linecap="round" stroke-linejoin="round"/><polyline points="6,21.54 6.9,21.54" fill="none" stroke="#111" stroke-width="1.6" stroke-linecap="round" stroke-linejoin="round"/><polyline points="6,24.53 6.9,24.53" fill="none" stroke="#111" stroke-width="1.6" stroke-linecap="round" stroke-linejoin="round"/><polyline points="6,27.52 6.9,27.52" fill="none" stroke="#111" stroke-width="1.6" stroke-linecap="round" stroke-linejoin="round"/><polyline points="6,30.51 6.9,30.51" fill="none" stroke="#111" stroke-width="1.6" stroke-linecap="round" stroke-linejoin="round"/><polyline points="6,33.49 6.9,33.49" fill="none" stroke="#111" stroke-width="1.6" stroke-linecap="round" stroke-linejoin="round"/><polyline points="6,36.48 6.9,36.48" fill="none" stroke="#111" stroke-width="1.6" stroke-linecap="round" stroke-linejoin="round"/><polyline points="6,39.47 6.9,39.47" fill="none" stroke="#111" stroke-width="1.6" stroke-linecap="round" stroke-linejoin="round"/><polyline points="6,42.46 6.9,42.46" fill="none" stroke="#111" stroke-width="1.6" stroke-linecap="round" stroke-linejoin="round"/><polyline points="6,45.45 6.9,45.45" fill="none" stroke="#111" stroke-width="1.6" stroke-linecap="round" stroke-linejoin="round"/><polyline points="6,48.44 6.9,48.44" fill="none" stroke="#111" stroke-width="1.6" stroke-linecap="round" stroke-linejoin="round"/><polyline points="6,51.43 6.9,51.43" fill="none" stroke="#111" stroke-width="1.6" stroke-linecap="round" stroke-linejoin="round"/><polyline points="6,54.41 6.9,54.41" fill="none" stroke="#111" stroke-width="1.6" stroke-linecap="round" stroke-linejoin="round"/><polyline points="6,57.4 6.9,57.4" fill="none" stroke="#111" stroke-width="1.6" stroke-linecap="round" stroke-linejoin="round"/><path d="M 7.49 7.2 Q 6.9 6.6 7.49 6" fill="none" stroke="#111" stroke-width="1.6" stroke-linecap="round"/><path d="M 7.49 10.18 Q 6.9 9.59 7.49 8.99" fill="none" stroke="#111" stroke-width="1.6" stroke-linecap="round"/><path d="M 7.49 13.17 Q 6.9 12.57 7.49 11.98" fill="none" stroke="#111" stroke-width="1.6" stroke-linecap="round"/><path d="M 7.49 16.16 Q 6.9 15.56 7.49 14.97" fill="none" stroke="#111" stroke-width="1.6" stroke-linecap="round"/><path d="M 7.49 19.15 Q 6.9 18.55 7.49 17.95" fill="none" stroke="#111" stroke-width="1.6" stroke-linecap="round"/><path d="M 7.49 22.14 Q 6.9 21.54 7.49 20.94" fill="none" stroke="#111" stroke-width="1.6" stroke-linecap="round"/><path d="M 7.49 25.13 Q 6.9 24.53 7.49 23.93" fill="none" stroke="#111" stroke-width="1.6" stroke-linecap="round"/><path d="M 7.49 28.11 Q 6.9 27.52 7.49 26.92" fill="none" stroke="#111" stroke-width="1.6" stroke-linecap="round"/><path d="M 7.49 31.1 Q 6.9 30.51 7.49 29.91" fill="none" stroke="#111" stroke-width="1.6" stroke-linecap="round"/><path d="M 7.49 34.09 Q 6.9 33.49 7.49 32.9" fill="none" stroke="#111" stroke-width="1.6" stroke-linecap="round"/><path d="M 7.49 37.08 Q 6.9 36.48 7.49 35.89" fill="none" stroke="#111" stroke-width="1.6" stroke-linecap="round"/><path d="M 7.49 40.07 Q 6.9 39.47 7.49 38.87" fill="none" stroke="#111" stroke-width="1.6" stroke-linecap="round"/><path d="M 7.49 43.06 Q 6.9 42.46 7.49 41.86" fill="none" stroke="#111" stroke-width="1.6" stroke-linecap="round"/><path d="M 7.49 46.05 Q 6.9 45.45 7.49 44.85" fill="none" stroke="#111" stroke-width="1.6" stroke-linecap="round"/><path d="M 7.49 49.03 Q 6.9 48.44 7.49 47.84" fill="none" stroke="#111" stroke-width="1.6" stroke-linecap="round"/><path d="M 7.49 52.02 Q 6.9 51.43 7.49 50.83" fill="none" stroke="#111" stroke-width="1.6" stroke-linecap="round"/><path d="M 7.49 55.01 Q 6.9 54.41 7.49 53.82" fill="none" stroke="#111" stroke-width="1.6" stroke-linecap="round"/><path d="M 7.49 58 Q 6.9 57.4 7.49 56.8" fill="none" stroke="#111" stroke-width="1.6" stroke-linecap="round"/></svg>