<svg xmlns="http://www.w3.org/2000/svg" width="96" height="64" viewBox="0 0 96 64"><rect x="6" y="6" width="19.5" height="52" fill="none" stroke="#111" stroke-width="1.6"/><rect x="17.57" y="10.78" width="1.3" height="3.57" fill="none" stroke="#111" stroke-width="1.6"/><rect x="17.57" y="23.78" width="1.3" height="3.57" fill="none" stroke="#111" stroke-width="1.6"/><rect x="17.57" y="36.78" width="1.3" height="3.57" fill="none" stroke="#111" stroke-width="1.6"/><rect x="17.57" y="49.78" width="1.3" height="3.57" fill="none" stroke="#111" stroke-width="1.6"/><polyline points="18.19,9.25 18.19,9.58 18.19,9.58" fill="none" stroke="#111" stroke-width="1.6" stroke-linecap="round" stroke-linejoin="round"/><polyline points="18.19,9.25 21.11,9.25 21.11,9.25" fill="none" stroke="#111" stroke-width="1.6" stroke-linecap="round" stroke-linejoin="round"/><polyline points="18.19,9.54 18.19,10.75" fill="none" stroke="#111" stroke-width="1.6" stroke-linecap="round" stroke-linejoin="round"/><polyline points="18.19,15.42 18.19,14.35" fill="none" stroke="#111" stroke-width="1.6" stroke-linecap="round" stroke-linejoin="round"/><polyline points="18.19,15.75 18.19,15.42 18.19,15.42" fill="none" stroke="#111" stroke-width="1.6" stroke-linecap="round" stroke-linejoin="round"/><polyline points="18.19,15.75 21.11,15.75 21.11,15.75" fill="none" stroke="#111" stroke-width="1.6" stroke-linecap="round" stroke-linejoin="round"/><polyline points="18.19,22.25 18.19,22.57 18.19,22.57" fill="none" stroke="#111" stroke-width="1.6" stroke-linecap="round" stroke-linejoin="round"/><polyline points="18.19,22.25 21.11,22.25 21.11,22.25" fill="none" stroke="#111" stroke-width="1.6" stroke-linecap="round" stroke-linejoin="round"/><polyline points="18.19,22.54 18.19,23.75" fill="none" stroke="#111" stroke-width="1.6" stroke-linecap="round" stroke-linejoin="round"/><polyline points="18.19,28.42 18.19,27.35" fill="none" stroke="#111" stroke-width="1.6" stroke-linecap="round" stroke-linejoin="round"/><polyline points="18.19,28.75 18.19,28.42 18.19,28.42" fill="none" stroke="#111" stroke-width="1.6" stroke-linecap="round" stroke-linejoin="round"/><polyline points="18.19,28.75 21.11,28.75 21.11,28.75" fill="none" stroke="#111" stroke-width="1.6" stroke-linecap="round" stroke-linejoin="round"/><polyline points="18.19,35.25 18.19,35.58 18.19,35.58" fill="none" stroke="#111" stroke-width="1.6" stroke-linecap="round" stroke-linejoin="round"/><polyline points="18.19,35.25 21.11,35.25 21.11,35.25" fill="none" stroke="#111" stroke-width="1.6" stroke-linecap="round" stroke-linejoin="round"/><polyline points="18.19,35.54 18.19,36.75" fill="none" stroke="#111" stroke-width="1.6" stroke-linecap="round" stroke-linejoin="round"/><polyline points="18.19,41.42 18.19,40.35" fill="none" stroke="#111" stroke-width="1.6" stroke-linecap="round" stroke-linejoin="round"/><polyline points="18.19,41.75 18.19,41.42 18.19,41.42" fill="none" stroke="#111" stroke-width="1.6" stroke-linecap="round" stroke-linejoin="round"/><polyline points="18.19,41.75 21.11,41.75 21.11,41.75" fill="none" stroke="#111" stroke-width="1.6" stroke-linecap="round" stroke-linejoin="round"/><polyline points="18.19,48.25 18.19,48.58 18.19,48.58" fill="none" stroke="#111" stroke-width="1.6" stroke-linecap="round" stroke-linejoin="round"/><polyline points="18.19,48.25 21.11,48.25 21.11,48.25" fill="none" stroke="#111" stroke-width="1.6" stroke-linecap="round" stroke-linejoin="round"/><polyline points="18.19,48.54 18.19,49.74" fill="none" stroke="#111" stroke-width="1.6" stroke-linecap="round" stroke-linejoin="round"/><polyline points="18.19,54.43 18.19,53.35" fill="none" stroke="#111" stroke-width="1.6" stroke-linecap="round" stroke-linejoin="round"/><polyline points="18.19,54.75 18.19,54.43 18.19,54.43" fill="none" stroke="#111" stroke-width="1.6" stroke-linecap="round" stroke-linejoin="round"/><polyline points="18.19,54.75 21.11,54.75 21.11,54.75" fill="none" stroke="#111" stroke-width="1.6" stroke-linecap="round" stroke-linejoin="round"/><polyline points="20.2,11.85 20.2,13.15 18.9,12.5 20.2,11.85 20.2,11.85" fill="none" stroke="#111" stroke-width="1.6" stroke-linecap="round" stroke-linejoin="round"/><polyline points="20.2,12.47 21.11,12.47" fill="none" stroke="#111" stroke-width="1.6" stroke-linecap="round" stroke-linejoin="round"/><polyline points="20.2,24.85 20.2,26.15 18.9,25.5 20.2,24.85 20.2,24.85" fill="none" stroke="#111" stroke-width="1.6" stroke-linecap="round" stroke-linejoin="round"/><polyline points="20.2,25.47 21.11,25.47" fill="none" stroke="#111" stroke-width="1.6" stroke-linecap="round" stroke-linejoin="round"/><polyline points="20.2,37.85 20.2,39.15 18.9,38.5 20.2,37.85 20.2,37.85" fill="none" stroke="#111" stroke-width="1.6" stroke-linecap="round" stroke-linejoin="round"/><polyline points="20.2,38.47 21.11,38.47" fill="none" stroke="#111" stroke-width="1.6" stroke-linecap="round" stroke-linejoin="round"/><polyline points="20.2,50.85 20.2,52.15 18.9,51.5 20.2,50.85 20.2,50.85" fill="none" stroke="#111" stroke-width="1.6" stroke-linecap="round" stroke-linejoin="round"/><polyline points="20.2,51.47 21.11,51.47" fill="none" stroke="#111" stroke-width="1.6" stroke-linecap="round" stroke-linejoin="round"/></svg>