<svg xmlns="http://www.w3.org/2000/svg" width="96" height="64" viewBox="0 0 96 64"><polyline points="6,35.17 16.15,35.17" fill="none" stroke="#111" stroke-width="1.6" stroke-linecap="round" stroke-linejoin="round"/><circle cx="18.68" cy="35.17" r="1.27" fill="none" stroke="#111" stroke-width="1.6"/><polyline points="18.68,35.17 16.15,35.17" fill="none" stroke="#111" stroke-width="1.6" stroke-linecap="round" stroke-linejoin="round"/><polyline points="23.76,16.15 23.76,28.83" fill="none" stroke="#111" stroke-width="1.6" stroke-linecap="round" stroke-linejoin="round"/><polyline points="23.76,41.51 23.76,54.2 35.17,47.85 23.76,41.51" fill="none" stroke="#111" stroke-width="1.6" stroke-linecap="round" stroke-linejoin="round"/><circle cx="28.83" cy="35.17" r="22.83" fill="none" stroke="#111" stroke-width="1.6"/><polyline points="35.17,16.15 35.17,28.83 23.76,22.49 35.17,16.15" fill="none" stroke="#111" stroke-width="1.6" stroke-linecap="round" stroke-linejoin="round"/><polyline points="35.17,41.51 35.17,54.2" fill="none" stroke="#111" stroke-width="1.6" stroke-linecap="round" stroke-linejoin="round"/><polyline points="40.24,22.49 18.68,22.49 18.68,47.85 40.24,47.85 40.24,22.49" fill="none" stroke="#111" stroke-width="1.6" stroke-linecap="round" stroke-linejoin="round"/><circle cx="40.24" cy="35.17" r="1.27" fill="none" stroke="#111" stroke-width="1.6"/><polyline points="42.78,13.61 50.39,6 46.59,6" fill="none" stroke="#111" stroke-width="1.6" stroke-linecap="round" stroke-linejoin="round"/><polyline points="49.12,19.95 56.73,12.34 52.93,12.34" fill="none" stroke="#111" stroke-width="1.6" stroke-linecap="round" stroke-linejoin="round"/><polyline points="49.12,35.17 40.24,35.17" fill="none" stroke="#111" stroke-width="1.6" stroke-linecap="round" stroke-linejoin="round"/><polyline points="50.39,6 50.39,9.8" fill="none" stroke="#111" stroke-width="1.6" stroke-linecap="round" stroke-linejoin="round"/><polyline points="56.73,12.34 56.73,16.15" fill="none" stroke="#111" stroke-width="1.6" stroke-linecap="round" stroke-linejoin="round"/></svg>