<svg xmlns="http://www.w3.org/2000/svg" width="96" height="64" viewBox="0 0 96 64"><polyline points="6,6.84 7.26,6.84" fill="none" stroke="#111" stroke-width="1.6" stroke-linecap="round" stroke-linejoin="round"/><polyline points="6,11.03 7.26,11.03" fill="none" stroke="#111" stroke-width="1.6" stroke-linecap="round" stroke-linejoin="round"/><polyline points="6,15.23 7.26,15.23" fill="none" stroke="#111" stroke-width="1.6" stroke-linecap="round" stroke-linejoin="round"/><polyline points="6,19.42 7.26,19.42" fill="none" stroke="#111" stroke-width="1.6" stroke-linecap="round" stroke-linejoin="round"/><polyline points="6,23.61 7.26,23.61" fill="none" stroke="#111" stroke-width="1.6" stroke-linecap="round" stroke-linejoin="round"/><polyline points="6,27.81 7.26,27.81" fill="none" stroke="#111" stroke-width="1.6" stroke-linecap="round" stroke-linejoin="round"/><polyline points="6,32 7.26,32" fill="none" stroke="#111" stroke-width="1.6" stroke-linecap="round" stroke-linejoin="round"/><polyline points="6,36.19 7.26,36.19" fill="none" stroke="#111" stroke-width="1.6" stroke-linecap="round" stroke-linejoin="round"/><polyline points="6,40.39 7.26,40.39" fill="none" stroke="#111" stroke-width="1.6" stroke-linecap="round" stroke-linejoin="round"/><polyline points="6,44.58 7.26,44.58" fill="none" stroke="#111" stroke-width="1.6" stroke-linecap="round" stroke-linejoin="round"/><polyline points="6,48.77 7.26,48.77" fill="none" stroke="#111" stroke-width="1.6" stroke-linecap="round" stroke-linejoin="round"/><polyline points="6,52.97 7.26,52.97" fill="none" stroke="#111" stroke-width="1.6" stroke-linecap="round" stroke-linejoin="round"/><polyline points="6,57.16 7.26,57.16" fill="none" stroke="#111" stroke-width="1.6" stroke-linecap="round" stroke-linejoin="round"/><path d="M 8.1 7.68 Q 7.26 6.84 8.1 6" fill="none" stroke="#111" stroke-width="1.6" stroke-linecap="round"/><path d="M 8.1 11.87 Q 7.26 11.03 8.1 10.19" fill="none" stroke="#111" stroke-width="1.6" stroke-linecap="round"/><path d="M 8.1 16.06 Q 7.26 15.23 8.1 14.39" fill="none" stroke="#111" stroke-width="1.6" stroke-linecap="round"/><path d="M 8.1 20.26 Q 7.26 19.42 8.1 18.58" fill="none" stroke="#111" stroke-width="1.6" stroke-linecap="round"/><path d="M 8.1 24.45 Q 7.26 23.61 8.1 22.77" fill="none" stroke="#111" stroke-width="1.6" stroke-linecap="round"/><path d="M 8.1 28.65 Q 7.26 27.81 8.1 26.97" fill="none" stroke="#111" stroke-width="1.6" stroke-linecap="round"/><path d="M 8.1 32.84 Q 7.26 32 8.1 31.16" fill="none" stroke="#111" stroke-width="1.6" stroke-linecap="round"/><path d="M 8.1 37.03 Q 7.26 36.19 8.1 35.35" fill="none" stroke="#111" stroke-width="1.6" stroke-linecap="round"/><path d="M 8.1 41.23 Q 7.26 40.39 8.1 39.55" fill="none" stroke="#111" stroke-width="1.6" stroke-linecap="round"/><path d="M 8.1 45.42 Q 7.26 44.58 8.1 43.74" fill="none" stroke="#111" stroke-width="1.6" stroke-linecap="round"/><path d="M 8.1 49.61 Q 7.26 48.77 8.1 47.94" fill="none" stroke="#111" stroke-width="1.6" stroke-linecap="round"/><path d="M 8.1 53.81 Q 7.26 52.97 8.1 52.13" fill="none" stroke="#111" stroke-width="1.6" stroke-linecap="round"/><path d="M 8.1 58 Q 7.26 57.16 8.1 56.32" fill="none" stroke="#111" stroke-width="1.6" stroke-linecap="round"/></svg>