<svg xmlns="http://www.w3.org/2000/svg" width="96" height="64" viewBox="0 0 96 64"><rect x="6" y="6" width="84" height="28" fill="none" stroke="#111" stroke-width="1.6"/><polyline points="16.5,16.5 23.5,16.5 23.5,17.9" fill="none" stroke="#111" stroke-width="1.6" stroke-linecap="round" stroke-linejoin="round"/><polyline points="16.5,23.5 23.5,23.5 20,16.5 16.5,23.5" fill="none" stroke="#111" stroke-width="1.6" stroke-linecap="round" stroke-linejoin="round"/><polyline points="20,6 20,30.5 76,30.5 76,6" fill="none" stroke="#111" stroke-width="1.6" stroke-linecap="round" stroke-linejoin="round"/><polyline points="30.5,16.5 37.5,16.5 37.5,17.9" fill="none" stroke="#111" stroke-width="1.6" stroke-linecap="round" stroke-linejoin="round"/><polyline points="30.5,23.5 37.5,23.5 34,16.5 30.5,23.5" fill="none" stroke="#111" stroke-width="1.6" stroke-linecap="round" stroke-linejoin="round"/><polyline points="34,6 34,30.5" fill="none" stroke="#111" stroke-width="1.6" stroke-linecap="round" stroke-linejoin="round"/><circle cx="34" cy="30.5" r="0.7" fill="none" stroke="#111" stroke-width="1.6"/><polyline points="44.5,16.5 51.5,16.5 51.5,17.9" fill="none" stroke="#111" stroke-width="1.6" stroke-linecap="round" stroke-linejoin="round"/><polyline points="44.5,23.5 51.5,23.5 48,16.5 44.5,23.5" fill="none" stroke="#111" stroke-width="1.6" stroke-linecap="round" stroke-linejoin="round"/><polyline points="48,6 48,34" fill="none" stroke="#111" stroke-width="1.6" stroke-linecap="round" stroke-linejoin="round"/><circle cx="48" cy="30.5" r="0.7" fill="none" stroke="#111" stroke-width="1.6"/><polyline points="58.5,16.5 65.5,16.5 65.5,17.9" fill="none" stroke="#111" stroke-width="1.6" stroke-linecap="round" stroke-linejoin="round"/><polyline points="58.5,23.5 65.5,23.5 62,16.5 58.5,23.5" fill="none" stroke="#111" stroke-width="1.6" stroke-linecap="round" stroke-linejoin="round"/><polyline points="62,6 62,30.5" fill="none" stroke="#111" stroke-width="1.6" stroke-linecap="round" stroke-linejoin="round"/><circle cx="62" cy="30.5" r="0.7" fill="none" stroke="#111" stroke-width="1.6"/><polyline points="72.5,16.5 79.5,16.5 79.5,17.9" fill="none" stroke="#111" stroke-width="1.6" stroke-linecap="round" stroke-linejoin="round"/><polyline points="72.5,23.5 79.5,23.5 76,16.5 72.5,23.5" fill="none" stroke="#111" stroke-width="1.6" stroke-linecap="round" stroke-linejoin="round"/></svg>