<svg xmlns="http://www.w3.org/2000/svg" width="96" height="64" viewBox="0 0 96 64"><circle cx="13.43" cy="30.89" r="0" fill="none" stroke="#111" stroke-width="1.6"/><circle cx="13.43" cy="42.03" r="0" fill="none" stroke="#111" stroke-width="1.6"/><circle cx="13.43" cy="53.17" r="0" fill="none" stroke="#111" stroke-width="1.6"/><polyline points="14.54,53.17 13.43,53.17" fill="none" stroke="#111" stroke-width="1.6" stroke-linecap="round" stroke-linejoin="round"/><polyline points="15.29,16.03 11.57,16.03" fill="none" stroke="#111" stroke-width="1.6" stroke-linecap="round" stroke-linejoin="round"/><polyline points="15.29,18.26 11.57,18.26" fill="none" stroke="#111" stroke-width="1.6" stroke-linecap="round" stroke-linejoin="round"/><polyline points="15.29,27.17 11.57,27.17" fill="none" stroke="#111" stroke-width="1.6" stroke-linecap="round" stroke-linejoin="round"/><polyline points="15.29,29.4 11.57,29.4" fill="none" stroke="#111" stroke-width="1.6" stroke-linecap="round" stroke-linejoin="round"/><polyline points="15.29,38.31 11.57,38.31" fill="none" stroke="#111" stroke-width="1.6" stroke-linecap="round" stroke-linejoin="round"/><polyline points="15.29,40.54 11.57,40.54" fill="none" stroke="#111" stroke-width="1.6" stroke-linecap="round" stroke-linejoin="round"/><polyline points="15.29,49.46 11.57,49.46" fill="none" stroke="#111" stroke-width="1.6" stroke-linecap="round" stroke-linejoin="round"/><polyline points="15.29,51.69 11.57,51.69" fill="none" stroke="#111" stroke-width="1.6" stroke-linecap="round" stroke-linejoin="round"/><polyline points="18.26,19.74 20.86,19.74 20.86,17.14 22.71,17.14" fill="none" stroke="#111" stroke-width="1.6" stroke-linecap="round" stroke-linejoin="round"/><polyline points="18.26,30.89 20.86,30.89 20.86,28.29 22.71,28.29" fill="none" stroke="#111" stroke-width="1.6" stroke-linecap="round" stroke-linejoin="round"/><polyline points="18.26,42.03 20.86,42.03 20.86,39.43 22.71,39.43" fill="none" stroke="#111" stroke-width="1.6" stroke-linecap="round" stroke-linejoin="round"/><polyline points="18.26,53.17 20.86,53.17 20.86,50.57 22.71,50.57" fill="none" stroke="#111" stroke-width="1.6" stroke-linecap="round" stroke-linejoin="round"/><polyline points="24.57,28.29 26.43,28.29" fill="none" stroke="#111" stroke-width="1.6" stroke-linecap="round" stroke-linejoin="round"/><polyline points="26.43,17.14 24.57,17.14" fill="none" stroke="#111" stroke-width="1.6" stroke-linecap="round" stroke-linejoin="round"/><circle cx="26.43" cy="17.14" r="0" fill="none" stroke="#111" stroke-width="1.6"/><circle cx="26.43" cy="28.29" r="0" fill="none" stroke="#111" stroke-width="1.6"/><polyline points="26.43,39.43 24.57,39.43" fill="none" stroke="#111" stroke-width="1.6" stroke-linecap="round" stroke-linejoin="round"/><circle cx="26.43" cy="39.43" r="0" fill="none" stroke="#111" stroke-width="1.6"/><rect x="6" y="7.86" width="22.29" height="50.14" fill="none" stroke="#111" stroke-width="1.6"/><polyline points="9.71,6 9.71,9.34 10.83,9.34" fill="none" stroke="#111" stroke-width="1.6" stroke-linecap="round" stroke-linejoin="round"/><rect x="7.86" y="13.8" width="3.71" height="39.74" fill="none" stroke="#111" stroke-width="1.6"/><polyline points="11.94,10.83 11.94,11.2 11.57,11.2" fill="none" stroke="#111" stroke-width="1.6" stroke-linecap="round" stroke-linejoin="round"/><polyline points="11.94,11.2 11.2,10.46" fill="none" stroke="#111" stroke-width="1.6" stroke-linecap="round" stroke-linejoin="round"/><polyline points="12.31,8.6 12.31,10.09" fill="none" stroke="#111" stroke-width="1.6" stroke-linecap="round" stroke-linejoin="round"/><polyline points="12.31,9.34 10.83,8.6 10.83,10.09 12.31,9.34" fill="none" stroke="#111" stroke-width="1.6" stroke-linecap="round" stroke-linejoin="round"/><polyline points="12.31,55.4 14.54,55.4" fill="none" stroke="#111" stroke-width="1.6" stroke-linecap="round" stroke-linejoin="round"/><polyline points="12.31,56.14 14.54,56.14" fill="none" stroke="#111" stroke-width="1.6" stroke-linecap="round" stroke-linejoin="round"/><polyline points="12.69,10.83 12.69,11.2 12.31,11.2" fill="none" stroke="#111" stroke-width="1.6" stroke-linecap="round" stroke-linejoin="round"/><polyline points="12.69,11.2 11.94,10.46" fill="none" stroke="#111" stroke-width="1.6" stroke-linecap="round" stroke-linejoin="round"/><polyline points="13.43,6 13.43,9.34 12.31,9.34" fill="none" stroke="#111" stroke-width="1.6" stroke-linecap="round" stroke-linejoin="round"/><polyline points="13.43,30.89 14.54,30.89" fill="none" stroke="#111" stroke-width="1.6" stroke-linecap="round" stroke-linejoin="round"/><polyline points="13.43,55.4 13.43,19.74 14.54,19.74" fill="none" stroke="#111" stroke-width="1.6" stroke-linecap="round" stroke-linejoin="round"/><polyline points="13.43,58 13.43,56.14" fill="none" stroke="#111" stroke-width="1.6" stroke-linecap="round" stroke-linejoin="round"/><rect x="14.54" y="19" width="3.72" height="1.49" fill="none" stroke="#111" stroke-width="1.6"/><rect x="14.54" y="30.14" width="3.72" height="1.49" fill="none" stroke="#111" stroke-width="1.6"/><polyline points="14.54,42.03 13.43,42.03" fill="none" stroke="#111" stroke-width="1.6" stroke-linecap="round" stroke-linejoin="round"/><rect x="14.54" y="41.29" width="3.72" height="1.48" fill="none" stroke="#111" stroke-width="1.6"/><rect x="14.54" y="52.43" width="3.72" height="1.48" fill="none" stroke="#111" stroke-width="1.6"/><polyline points="15.29,17.51 18.26,17.51" fill="none" stroke="#111" stroke-width="1.6" stroke-linecap="round" stroke-linejoin="round"/><polyline points="15.29,28.66 18.26,28.66" fill="none" stroke="#111" stroke-width="1.6" stroke-linecap="round" stroke-linejoin="round"/><polyline points="15.29,39.8 18.26,39.8" fill="none" stroke="#111" stroke-width="1.6" stroke-linecap="round" stroke-linejoin="round"/><polyline points="15.29,50.94 18.26,50.94" fill="none" stroke="#111" stroke-width="1.6" stroke-linecap="round" stroke-linejoin="round"/><path d="M 16.03 16.03 Q 15.66 16.4 15.29 16.03" fill="none" stroke="#111" stroke-width="1.6" stroke-linecap="round"/><path d="M 15.29 18.26 Q 15.66 17.89 16.03 18.26" fill="none" stroke="#111" stroke-width="1.6" stroke-linecap="round"/><path d="M 16.03 27.17 Q 15.66 27.54 15.29 27.17" fill="none" stroke="#111" stroke-width="1.6" stroke-linecap="round"/><path d="M 15.29 29.4 Q 15.66 29.03 16.03 29.4" fill="none" stroke="#111" stroke-width="1.6" stroke-linecap="round"/><path d="M 16.03 38.31 Q 15.66 38.68 15.29 38.31" fill="none" stroke="#111" stroke-width="1.6" stroke-linecap="round"/><path d="M 15.29 40.54 Q 15.66 40.17 16.03 40.54" fill="none" stroke="#111" stroke-width="1.6" stroke-linecap="round"/><path d="M 16.03 49.46 Q 15.66 49.83 15.29 49.46" fill="none" stroke="#111" stroke-width="1.6" stroke-linecap="round"/><path d="M 15.29 51.69 Q 15.66 51.32 16.03 51.69" fill="none" stroke="#111" stroke-width="1.6" stroke-linecap="round"/><path d="M 16.77 16.03 Q 16.4 16.4 16.03 16.03" fill="none" stroke="#111" stroke-width="1.6" stroke-linecap="round"/><path d="M 16.03 18.26 Q 16.4 17.89 16.77 18.26" fill="none" stroke="#111" stroke-width="1.6" stroke-linecap="round"/><path d="M 16.77 27.17 Q 16.4 27.54 16.03 27.17" fill="none" stroke="#111" stroke-width="1.6" stroke-linecap="round"/><path d="M 16.03 29.4 Q 16.4 29.03 16.77 29.4" fill="none" stroke="#111" stroke-width="1.6" stroke-linecap="round"/><path d="M 16.77 38.31 Q 16.4 38.68 16.03 38.31" fill="none" stroke="#111" stroke-width="1.6" stroke-linecap="round"/><path d="M 16.03 40.54 Q 16.4 40.17 16.77 40.54" fill="none" stroke="#111" stroke-width="1.6" stroke-linecap="round"/><path d="M 16.77 49.46 Q 16.4 49.83 16.03 49.46" fill="none" stroke="#111" stroke-width="1.6" stroke-linecap="round"/><path d="M 16.03 51.69 Q 16.4 51.32 16.77 51.69" fill="none" stroke="#111" stroke-width="1.6" stroke-linecap="round"/><polyline points="17.14,6 17.14,9.34 18.26,9.34" fill="none" stroke="#111" stroke-width="1.6" stroke-linecap="round" stroke-linejoin="round"/><path d="M 17.51 16.03 Q 17.14 16.4 16.77 16.03" fill="none" stroke="#111" stroke-width="1.6" stroke-linecap="round"/><path d="M 16.77 18.26 Q 17.14 17.89 17.51 18.26" fill="none" stroke="#111" stroke-width="1.6" stroke-linecap="round"/><path d="M 17.51 27.17 Q 17.14 27.54 16.77 27.17" fill="none" stroke="#111" stroke-width="1.6" stroke-linecap="round"/><path d="M 16.77 29.4 Q 17.14 29.03 17.51 29.4" fill="none" stroke="#111" stroke-width="1.6" stroke-linecap="round"/><path d="M 17.51 38.31 Q 17.14 38.68 16.77 38.31" fill="none" stroke="#111" stroke-width="1.6" stroke-linecap="round"/><path d="M 16.77 40.54 Q 17.14 40.17 17.51 40.54" fill="none" stroke="#111" stroke-width="1.6" stroke-linecap="round"/><path d="M 17.51 49.46 Q 17.14 49.83 16.77 49.46" fill="none" stroke="#111" stroke-width="1.6" stroke-linecap="round"/><path d="M 16.77 51.69 Q 17.14 51.32 17.51 51.69" fill="none" stroke="#111" stroke-width="1.6" stroke-linecap="round"/><circle cx="17.89" cy="15.99" r="0.11" fill="none" stroke="#111" stroke-width="1.6"/><path d="M 18.26 16.03 Q 17.89 16.4 17.51 16.03" fill="none" stroke="#111" stroke-width="1.6" stroke-linecap="round"/><path d="M 17.51 18.26 Q 17.89 17.89 18.26 18.26" fill="none" stroke="#111" stroke-width="1.6" stroke-linecap="round"/><circle cx="17.89" cy="18.29" r="0.11" fill="none" stroke="#111" stroke-width="1.6"/><circle cx="17.89" cy="27.13" r="0.11" fill="none" stroke="#111" stroke-width="1.6"/><path d="M 18.26 27.17 Q 17.89 27.54 17.51 27.17" fill="none" stroke="#111" stroke-width="1.6" stroke-linecap="round"/><path d="M 17.51 29.4 Q 17.89 29.03 18.26 29.4" fill="none" stroke="#111" stroke-width="1.6" stroke-linecap="round"/><circle cx="17.89" cy="29.44" r="0.11" fill="none" stroke="#111" stroke-width="1.6"/><circle cx="17.89" cy="38.28" r="0.11" fill="none" stroke="#111" stroke-width="1.6"/><path d="M 18.26 38.31 Q 17.89 38.68 17.51 38.31" fill="none" stroke="#111" stroke-width="1.6" stroke-linecap="round"/><path d="M 17.51 40.54 Q 17.89 40.17 18.26 40.54" fill="none" stroke="#111" stroke-width="1.6" stroke-linecap="round"/><circle cx="17.89" cy="40.58" r="0.11" fill="none" stroke="#111" stroke-width="1.6"/><circle cx="17.89" cy="49.42" r="0.11" fill="none" stroke="#111" stroke-width="1.6"/><path d="M 18.26 49.46 Q 17.89 49.83 17.51 49.46" fill="none" stroke="#111" stroke-width="1.6" stroke-linecap="round"/><path d="M 17.51 51.69 Q 17.89 51.32 18.26 51.69" fill="none" stroke="#111" stroke-width="1.6" stroke-linecap="round"/><circle cx="17.89" cy="51.72" r="0.11" fill="none" stroke="#111" stroke-width="1.6"/><polyline points="18.26,16.03 19,16.03 19,13.43 22.71,13.43 22.71,14.17" fill="none" stroke="#111" stroke-width="1.6" stroke-linecap="round" stroke-linejoin="round"/><polyline points="18.26,16.77 15.29,16.77" fill="none" stroke="#111" stroke-width="1.6" stroke-linecap="round" stroke-linejoin="round"/><polyline points="18.26,27.17 19,27.17 19,24.57 22.71,24.57 22.71,25.31" fill="none" stroke="#111" stroke-width="1.6" stroke-linecap="round" stroke-linejoin="round"/><polyline points="18.26,27.91 15.29,27.91" fill="none" stroke="#111" stroke-width="1.6" stroke-linecap="round" stroke-linejoin="round"/><polyline points="18.26,38.31 19,38.31 19,35.71 22.71,35.71 22.71,36.46" fill="none" stroke="#111" stroke-width="1.6" stroke-linecap="round" stroke-linejoin="round"/><polyline points="18.26,39.06 15.29,39.06" fill="none" stroke="#111" stroke-width="1.6" stroke-linecap="round" stroke-linejoin="round"/><polyline points="18.26,49.46 19,49.46 19,46.86 22.71,46.86 22.71,47.6" fill="none" stroke="#111" stroke-width="1.6" stroke-linecap="round" stroke-linejoin="round"/><polyline points="18.26,50.2 15.29,50.2" fill="none" stroke="#111" stroke-width="1.6" stroke-linecap="round" stroke-linejoin="round"/><polyline points="19.37,10.83 19.37,11.2 19,11.2" fill="none" stroke="#111" stroke-width="1.6" stroke-linecap="round" stroke-linejoin="round"/><polyline points="19.37,11.2 18.63,10.46" fill="none" stroke="#111" stroke-width="1.6" stroke-linecap="round" stroke-linejoin="round"/><polyline points="19.74,8.6 19.74,10.09" fill="none" stroke="#111" stroke-width="1.6" stroke-linecap="round" stroke-linejoin="round"/><polyline points="19.74,9.34 18.26,8.6 18.26,10.09 19.74,9.34" fill="none" stroke="#111" stroke-width="1.6" stroke-linecap="round" stroke-linejoin="round"/><polyline points="20.11,10.83 20.11,11.2 19.74,11.2" fill="none" stroke="#111" stroke-width="1.6" stroke-linecap="round" stroke-linejoin="round"/><polyline points="20.11,11.2 19.37,10.46" fill="none" stroke="#111" stroke-width="1.6" stroke-linecap="round" stroke-linejoin="round"/><polyline points="20.86,6 20.86,9.34 19.74,9.34" fill="none" stroke="#111" stroke-width="1.6" stroke-linecap="round" stroke-linejoin="round"/><circle cx="22.68" cy="14.54" r="0.11" fill="none" stroke="#111" stroke-width="1.6"/><circle cx="22.68" cy="17.51" r="0.11" fill="none" stroke="#111" stroke-width="1.6"/><circle cx="22.68" cy="25.69" r="0.11" fill="none" stroke="#111" stroke-width="1.6"/><circle cx="22.68" cy="28.66" r="0.11" fill="none" stroke="#111" stroke-width="1.6"/><circle cx="22.68" cy="36.83" r="0.11" fill="none" stroke="#111" stroke-width="1.6"/><circle cx="22.68" cy="39.8" r="0.11" fill="none" stroke="#111" stroke-width="1.6"/><circle cx="22.68" cy="47.97" r="0.11" fill="none" stroke="#111" stroke-width="1.6"/><circle cx="22.68" cy="50.94" r="0.11" fill="none" stroke="#111" stroke-width="1.6"/><path d="M 22.71 14.17 Q 23.08 14.54 22.71 14.91" fill="none" stroke="#111" stroke-width="1.6" stroke-linecap="round"/><path d="M 22.71 15.66 Q 23.08 16.03 22.71 16.4" fill="none" stroke="#111" stroke-width="1.6" stroke-linecap="round"/><path d="M 22.71 16.4 Q 23.08 16.77 22.71 17.14" fill="none" stroke="#111" stroke-width="1.6" stroke-linecap="round"/><path d="M 22.71 17.14 Q 23.08 17.51 22.71 17.89" fill="none" stroke="#111" stroke-width="1.6" stroke-linecap="round"/><path d="M 22.71 17.89 Q 23.08 18.26 22.71 18.63" fill="none" stroke="#111" stroke-width="1.6" stroke-linecap="round"/><path d="M 22.71 19.37 Q 23.08 19.74 22.71 20.11" fill="none" stroke="#111" stroke-width="1.6" stroke-linecap="round"/><path d="M 22.71 25.31 Q 23.08 25.69 22.71 26.06" fill="none" stroke="#111" stroke-width="1.6" stroke-linecap="round"/><path d="M 22.71 26.8 Q 23.08 27.17 22.71 27.54" fill="none" stroke="#111" stroke-width="1.6" stroke-linecap="round"/><path d="M 22.71 27.54 Q 23.08 27.91 22.71 28.29" fill="none" stroke="#111" stroke-width="1.6" stroke-linecap="round"/><path d="M 22.71 28.29 Q 23.08 28.66 22.71 29.03" fill="none" stroke="#111" stroke-width="1.6" stroke-linecap="round"/><path d="M 22.71 29.03 Q 23.08 29.4 22.71 29.77" fill="none" stroke="#111" stroke-width="1.6" stroke-linecap="round"/><path d="M 22.71 30.51 Q 23.08 30.89 22.71 31.26" fill="none" stroke="#111" stroke-width="1.6" stroke-linecap="round"/><path d="M 22.71 36.46 Q 23.08 36.83 22.71 37.2" fill="none" stroke="#111" stroke-width="1.6" stroke-linecap="round"/><path d="M 22.71 37.94 Q 23.08 38.31 22.71 38.69" fill="none" stroke="#111" stroke-width="1.6" stroke-linecap="round"/><path d="M 22.71 38.69 Q 23.08 39.06 22.71 39.43" fill="none" stroke="#111" stroke-width="1.6" stroke-linecap="round"/><path d="M 22.71 39.43 Q 23.08 39.8 22.71 40.17" fill="none" stroke="#111" stroke-width="1.6" stroke-linecap="round"/><path d="M 22.71 40.17 Q 23.08 40.54 22.71 40.91" fill="none" stroke="#111" stroke-width="1.6" stroke-linecap="round"/><path d="M 22.71 41.66 Q 23.08 42.03 22.71 42.4" fill="none" stroke="#111" stroke-width="1.6" stroke-linecap="round"/><path d="M 22.71 47.6 Q 23.08 47.97 22.71 48.34" fill="none" stroke="#111" stroke-width="1.6" stroke-linecap="round"/><path d="M 22.71 49.09 Q 23.08 49.46 22.71 49.83" fill="none" stroke="#111" stroke-width="1.6" stroke-linecap="round"/><path d="M 22.71 49.83 Q 23.08 50.2 22.71 50.57" fill="none" stroke="#111" stroke-width="1.6" stroke-linecap="round"/><path d="M 22.71 50.57 Q 23.08 50.94 22.71 51.31" fill="none" stroke="#111" stroke-width="1.6" stroke-linecap="round"/><path d="M 22.71 51.31 Q 23.08 51.69 22.71 52.06" fill="none" stroke="#111" stroke-width="1.6" stroke-linecap="round"/><path d="M 22.71 52.8 Q 23.08 53.17 22.71 53.54" fill="none" stroke="#111" stroke-width="1.6" stroke-linecap="round"/><path d="M 22.71 14.91 Q 23.08 15.29 22.71 15.66" fill="none" stroke="#111" stroke-width="1.6" stroke-linecap="round"/><path d="M 22.71 18.63 Q 23.08 19 22.71 19.37" fill="none" stroke="#111" stroke-width="1.6" stroke-linecap="round"/><polyline points="22.71,20.11 22.71,20.86 19,20.86 19,18.26 18.26,18.26" fill="none" stroke="#111" stroke-width="1.6" stroke-linecap="round" stroke-linejoin="round"/><path d="M 22.71 26.06 Q 23.08 26.43 22.71 26.8" fill="none" stroke="#111" stroke-width="1.6" stroke-linecap="round"/><path d="M 22.71 29.77 Q 23.08 30.14 22.71 30.51" fill="none" stroke="#111" stroke-width="1.6" stroke-linecap="round"/><polyline points="22.71,31.26 22.71,32 19,32 19,29.4 18.26,29.4" fill="none" stroke="#111" stroke-width="1.6" stroke-linecap="round" stroke-linejoin="round"/><path d="M 22.71 37.2 Q 23.08 37.57 22.71 37.94" fill="none" stroke="#111" stroke-width="1.6" stroke-linecap="round"/><path d="M 22.71 40.91 Q 23.08 41.29 22.71 41.66" fill="none" stroke="#111" stroke-width="1.6" stroke-linecap="round"/><polyline points="22.71,42.4 22.71,43.14 19,43.14 19,40.54 18.26,40.54" fill="none" stroke="#111" stroke-width="1.6" stroke-linecap="round" stroke-linejoin="round"/><path d="M 22.71 48.34 Q 23.08 48.71 22.71 49.09" fill="none" stroke="#111" stroke-width="1.6" stroke-linecap="round"/><path d="M 22.71 52.06 Q 23.08 52.43 22.71 52.8" fill="none" stroke="#111" stroke-width="1.6" stroke-linecap="round"/><polyline points="22.71,53.54 22.71,54.29 19,54.29 19,51.69 18.26,51.69" fill="none" stroke="#111" stroke-width="1.6" stroke-linecap="round" stroke-linejoin="round"/><polyline points="23.46,14.17 23.46,20.11" fill="none" stroke="#111" stroke-width="1.6" stroke-linecap="round" stroke-linejoin="round"/><polyline points="23.46,25.31 23.46,31.26" fill="none" stroke="#111" stroke-width="1.6" stroke-linecap="round" stroke-linejoin="round"/><polyline points="23.46,36.46 23.46,42.4" fill="none" stroke="#111" stroke-width="1.6" stroke-linecap="round" stroke-linejoin="round"/><polyline points="23.46,47.6 23.46,53.54" fill="none" stroke="#111" stroke-width="1.6" stroke-linecap="round" stroke-linejoin="round"/><polyline points="23.83,20.11 23.83,14.17" fill="none" stroke="#111" stroke-width="1.6" stroke-linecap="round" stroke-linejoin="round"/><polyline points="23.83,31.26 23.83,25.31" fill="none" stroke="#111" stroke-width="1.6" stroke-linecap="round" stroke-linejoin="round"/><polyline points="23.83,42.4 23.83,36.46" fill="none" stroke="#111" stroke-width="1.6" stroke-linecap="round" stroke-linejoin="round"/><polyline points="23.83,53.54 23.83,47.6" fill="none" stroke="#111" stroke-width="1.6" stroke-linecap="round" stroke-linejoin="round"/><polyline points="24.57,14.17 24.57,13.43 28.29,13.43" fill="none" stroke="#111" stroke-width="1.6" stroke-linecap="round" stroke-linejoin="round"/><path d="M 24.57 15.66 Q 24.2 15.29 24.57 14.91" fill="none" stroke="#111" stroke-width="1.6" stroke-linecap="round"/><path d="M 24.57 19.37 Q 24.2 19 24.57 18.63" fill="none" stroke="#111" stroke-width="1.6" stroke-linecap="round"/><polyline points="24.57,20.11 24.57,20.86 28.29,20.86" fill="none" stroke="#111" stroke-width="1.6" stroke-linecap="round" stroke-linejoin="round"/><polyline points="24.57,25.31 24.57,24.57 28.29,24.57" fill="none" stroke="#111" stroke-width="1.6" stroke-linecap="round" stroke-linejoin="round"/><path d="M 24.57 26.8 Q 24.2 26.43 24.57 26.06" fill="none" stroke="#111" stroke-width="1.6" stroke-linecap="round"/><path d="M 24.57 30.51 Q 24.2 30.14 24.57 29.77" fill="none" stroke="#111" stroke-width="1.6" stroke-linecap="round"/><polyline points="24.57,31.26 24.57,32 28.29,32" fill="none" stroke="#111" stroke-width="1.6" stroke-linecap="round" stroke-linejoin="round"/><polyline points="24.57,36.46 24.57,35.71 28.29,35.71" fill="none" stroke="#111" stroke-width="1.6" stroke-linecap="round" stroke-linejoin="round"/><path d="M 24.57 37.94 Q 24.2 37.57 24.57 37.2" fill="none" stroke="#111" stroke-width="1.6" stroke-linecap="round"/><path d="M 24.57 41.66 Q 24.2 41.29 24.57 40.91" fill="none" stroke="#111" stroke-width="1.6" stroke-linecap="round"/><polyline points="24.57,42.4 24.57,43.14 28.29,43.14" fill="none" stroke="#111" stroke-width="1.6" stroke-linecap="round" stroke-linejoin="round"/><polyline points="24.57,47.6 24.57,46.86 28.29,46.86" fill="none" stroke="#111" stroke-width="1.6" stroke-linecap="round" stroke-linejoin="round"/><path d="M 24.57 49.09 Q 24.2 48.71 24.57 48.34" fill="none" stroke="#111" stroke-width="1.6" stroke-linecap="round"/><path d="M 24.57 52.8 Q 24.2 52.43 24.57 52.06" fill="none" stroke="#111" stroke-width="1.6" stroke-linecap="round"/><polyline points="24.57,53.54 24.57,54.29 28.29,54.29" fill="none" stroke="#111" stroke-width="1.6" stroke-linecap="round" stroke-linejoin="round"/><path d="M 24.57 14.91 Q 24.2 14.54 24.57 14.17" fill="none" stroke="#111" stroke-width="1.6" stroke-linecap="round"/><path d="M 24.57 16.4 Q 24.2 16.03 24.57 15.66" fill="none" stroke="#111" stroke-width="1.6" stroke-linecap="round"/><path d="M 24.57 17.14 Q 24.2 16.77 24.57 16.4" fill="none" stroke="#111" stroke-width="1.6" stroke-linecap="round"/><path d="M 24.57 17.89 Q 24.2 17.51 24.57 17.14" fill="none" stroke="#111" stroke-width="1.6" stroke-linecap="round"/><path d="M 24.57 18.63 Q 24.2 18.26 24.57 17.89" fill="none" stroke="#111" stroke-width="1.6" stroke-linecap="round"/><path d="M 24.57 20.11 Q 24.2 19.74 24.57 19.37" fill="none" stroke="#111" stroke-width="1.6" stroke-linecap="round"/><path d="M 24.57 26.06 Q 24.2 25.69 24.57 25.31" fill="none" stroke="#111" stroke-width="1.6" stroke-linecap="round"/><path d="M 24.57 27.54 Q 24.2 27.17 24.57 26.8" fill="none" stroke="#111" stroke-width="1.6" stroke-linecap="round"/><path d="M 24.57 28.29 Q 24.2 27.91 24.57 27.54" fill="none" stroke="#111" stroke-width="1.6" stroke-linecap="round"/><path d="M 24.57 29.03 Q 24.2 28.66 24.57 28.29" fill="none" stroke="#111" stroke-width="1.6" stroke-linecap="round"/><path d="M 24.57 29.77 Q 24.2 29.4 24.57 29.03" fill="none" stroke="#111" stroke-width="1.6" stroke-linecap="round"/><path d="M 24.57 31.26 Q 24.2 30.89 24.57 30.51" fill="none" stroke="#111" stroke-width="1.6" stroke-linecap="round"/><path d="M 24.57 37.2 Q 24.2 36.83 24.57 36.46" fill="none" stroke="#111" stroke-width="1.6" stroke-linecap="round"/><path d="M 24.57 38.69 Q 24.2 38.31 24.57 37.94" fill="none" stroke="#111" stroke-width="1.6" stroke-linecap="round"/><path d="M 24.57 39.43 Q 24.2 39.06 24.57 38.69" fill="none" stroke="#111" stroke-width="1.6" stroke-linecap="round"/><path d="M 24.57 40.17 Q 24.2 39.8 24.57 39.43" fill="none" stroke="#111" stroke-width="1.6" stroke-linecap="round"/><path d="M 24.57 40.91 Q 24.2 40.54 24.57 40.17" fill="none" stroke="#111" stroke-width="1.6" stroke-linecap="round"/><path d="M 24.57 42.4 Q 24.2 42.03 24.57 41.66" fill="none" stroke="#111" stroke-width="1.6" stroke-linecap="round"/><path d="M 24.57 48.34 Q 24.2 47.97 24.57 47.6" fill="none" stroke="#111" stroke-width="1.6" stroke-linecap="round"/><path d="M 24.57 49.83 Q 24.2 49.46 24.57 49.09" fill="none" stroke="#111" stroke-width="1.6" stroke-linecap="round"/><path d="M 24.57 50.57 Q 24.2 50.2 24.57 49.83" fill="none" stroke="#111" stroke-width="1.6" stroke-linecap="round"/><path d="M 24.57 51.31 Q 24.2 50.94 24.57 50.57" fill="none" stroke="#111" stroke-width="1.6" stroke-linecap="round"/><path d="M 24.57 52.06 Q 24.2 51.69 24.57 51.31" fill="none" stroke="#111" stroke-width="1.6" stroke-linecap="round"/><path d="M 24.57 53.54 Q 24.2 53.17 24.57 52.8" fill="none" stroke="#111" stroke-width="1.6" stroke-linecap="round"/><circle cx="24.61" cy="14.54" r="0.11" fill="none" stroke="#111" stroke-width="1.6"/><circle cx="24.61" cy="17.51" r="0.11" fill="none" stroke="#111" stroke-width="1.6"/><circle cx="24.61" cy="25.69" r="0.11" fill="none" stroke="#111" stroke-width="1.6"/><circle cx="24.61" cy="28.66" r="0.11" fill="none" stroke="#111" stroke-width="1.6"/><circle cx="24.61" cy="36.83" r="0.11" fill="none" stroke="#111" stroke-width="1.6"/><circle cx="24.61" cy="39.8" r="0.11" fill="none" stroke="#111" stroke-width="1.6"/><circle cx="24.61" cy="47.97" r="0.11" fill="none" stroke="#111" stroke-width="1.6"/><circle cx="24.61" cy="50.94" r="0.11" fill="none" stroke="#111" stroke-width="1.6"/><polyline points="28.29,9.71 26.43,9.71 26.43,50.57 24.57,50.57" fill="none" stroke="#111" stroke-width="1.6" stroke-linecap="round" stroke-linejoin="round"/></svg>