<svg xmlns="http://www.w3.org/2000/svg" width="96" height="64" viewBox="0 0 96 64"><polyline points="6,6.26 6.4,6.26" fill="none" stroke="#111" stroke-width="1.6" stroke-linecap="round" stroke-linejoin="round"/><polyline points="6,7.58 6.4,7.58" fill="none" stroke="#111" stroke-width="1.6" stroke-linecap="round" stroke-linejoin="round"/><polyline points="6,8.9 6.4,8.9" fill="none" stroke="#111" stroke-width="1.6" stroke-linecap="round" stroke-linejoin="round"/><polyline points="6,10.22 6.4,10.22" fill="none" stroke="#111" stroke-width="1.6" stroke-linecap="round" stroke-linejoin="round"/><polyline points="6,11.54 6.4,11.54" fill="none" stroke="#111" stroke-width="1.6" stroke-linecap="round" stroke-linejoin="round"/><polyline points="6,12.86 6.4,12.86" fill="none" stroke="#111" stroke-width="1.6" stroke-linecap="round" stroke-linejoin="round"/><polyline points="6,14.18 6.4,14.18" fill="none" stroke="#111" stroke-width="1.6" stroke-linecap="round" stroke-linejoin="round"/><polyline points="6,15.5 6.4,15.5" fill="none" stroke="#111" stroke-width="1.6" stroke-linecap="round" stroke-linejoin="round"/><polyline points="6,16.82 6.4,16.82" fill="none" stroke="#111" stroke-width="1.6" stroke-linecap="round" stroke-linejoin="round"/><polyline points="6,18.14 6.4,18.14" fill="none" stroke="#111" stroke-width="1.6" stroke-linecap="round" stroke-linejoin="round"/><polyline points="6,19.46 6.4,19.46" fill="none" stroke="#111" stroke-width="1.6" stroke-linecap="round" stroke-linejoin="round"/><polyline points="6,20.78 6.4,20.78" fill="none" stroke="#111" stroke-width="1.6" stroke-linecap="round" stroke-linejoin="round"/><polyline points="6,22.1 6.4,22.1" fill="none" stroke="#111" stroke-width="1.6" stroke-linecap="round" stroke-linejoin="round"/><polyline points="6,23.42 6.4,23.42" fill="none" stroke="#111" stroke-width="1.6" stroke-linecap="round" stroke-linejoin="round"/><polyline points="6,24.74 6.4,24.74" fill="none" stroke="#111" stroke-width="1.6" stroke-linecap="round" stroke-linejoin="round"/><polyline points="6,26.06 6.4,26.06" fill="none" stroke="#111" stroke-width="1.6" stroke-linecap="round" stroke-linejoin="round"/><polyline points="6,27.38 6.4,27.38" fill="none" stroke="#111" stroke-width="1.6" stroke-linecap="round" stroke-linejoin="round"/><polyline points="6,28.7 6.4,28.7" fill="none" stroke="#111" stroke-width="1.6" stroke-linecap="round" stroke-linejoin="round"/><polyline points="6,30.02 6.4,30.02" fill="none" stroke="#111" stroke-width="1.6" stroke-linecap="round" stroke-linejoin="round"/><polyline points="6,31.34 6.4,31.34" fill="none" stroke="#111" stroke-width="1.6" stroke-linecap="round" stroke-linejoin="round"/><polyline points="6,32.66 6.4,32.66" fill="none" stroke="#111" stroke-width="1.6" stroke-linecap="round" stroke-linejoin="round"/><polyline points="6,33.98 6.4,33.98" fill="none" stroke="#111" stroke-width="1.6" stroke-linecap="round" stroke-linejoin="round"/><polyline points="6,35.3 6.4,35.3" fill="none" stroke="#111" stroke-width="1.6" stroke-linecap="round" stroke-linejoin="round"/><polyline points="6,36.62 6.4,36.62" fill="none" stroke="#111" stroke-width="1.6" stroke-linecap="round" stroke-linejoin="round"/><polyline points="6,37.94 6.4,37.94" fill="none" stroke="#111" stroke-width="1.6" stroke-linecap="round" stroke-linejoin="round"/><polyline points="6,39.26 6.4,39.26" fill="none" stroke="#111" stroke-width="1.6" stroke-linecap="round" stroke-linejoin="round"/><polyline points="6,40.58 6.4,40.58" fill="none" stroke="#111" stroke-width="1.6" stroke-linecap="round" stroke-linejoin="round"/><polyline points="6,41.9 6.4,41.9" fill="none" stroke="#111" stroke-width="1.6" stroke-linecap="round" stroke-linejoin="round"/><polyline points="6,43.22 6.4,43.22" fill="none" stroke="#111" stroke-width="1.6" stroke-linecap="round" stroke-linejoin="round"/><polyline points="6,44.54 6.4,44.54" fill="none" stroke="#111" stroke-width="1.6" stroke-linecap="round" stroke-linejoin="round"/><polyline points="6,45.86 6.4,45.86" fill="none" stroke="#111" stroke-width="1.6" stroke-linecap="round" stroke-linejoin="round"/><polyline points="6,47.18 6.4,47.18" fill="none" stroke="#111" stroke-width="1.6" stroke-linecap="round" stroke-linejoin="round"/><polyline points="6,48.5 6.4,48.5" fill="none" stroke="#111" stroke-width="1.6" stroke-linecap="round" stroke-linejoin="round"/><polyline points="6,49.82 6.4,49.82" fill="none" stroke="#111" stroke-width="1.6" stroke-linecap="round" stroke-linejoin="round"/><polyline points="6,51.14 6.4,51.14" fill="none" stroke="#111" stroke-width="1.6" stroke-linecap="round" stroke-linejoin="round"/><polyline points="6,52.46 6.4,52.46" fill="none" stroke="#111" stroke-width="1.6" stroke-linecap="round" stroke-linejoin="round"/><polyline points="6,53.78 6.4,53.78" fill="none" stroke="#111" stroke-width="1.6" stroke-linecap="round" stroke-linejoin="round"/><polyline points="6,55.1 6.4,55.1" fill="none" stroke="#111" stroke-width="1.6" stroke-linecap="round" stroke-linejoin="round"/><polyline points="6,56.42 6.4,56.42" fill="none" stroke="#111" stroke-width="1.6" stroke-linecap="round" stroke-linejoin="round"/><polyline points="6,57.74 6.4,57.74" fill="none" stroke="#111" stroke-width="1.6" stroke-linecap="round" stroke-linejoin="round"/><path d="M 6.66 6.53 Q 6.4 6.26 6.66 6" fill="none" stroke="#111" stroke-width="1.6" stroke-linecap="round"/><path d="M 6.66 7.85 Q 6.4 7.58 6.66 7.32" fill="none" stroke="#111" stroke-width="1.6" stroke-linecap="round"/><path d="M 6.66 9.17 Q 6.4 8.9 6.66 8.64" fill="none" stroke="#111" stroke-width="1.6" stroke-linecap="round"/><path d="M 6.66 10.49 Q 6.4 10.22 6.66 9.96" fill="none" stroke="#111" stroke-width="1.6" stroke-linecap="round"/><path d="M 6.66 11.81 Q 6.4 11.54 6.66 11.28" fill="none" stroke="#111" stroke-width="1.6" stroke-linecap="round"/><path d="M 6.66 13.13 Q 6.4 12.86 6.66 12.6" fill="none" stroke="#111" stroke-width="1.6" stroke-linecap="round"/><path d="M 6.66 14.45 Q 6.4 14.18 6.66 13.92" fill="none" stroke="#111" stroke-width="1.6" stroke-linecap="round"/><path d="M 6.66 15.77 Q 6.4 15.5 6.66 15.24" fill="none" stroke="#111" stroke-width="1.6" stroke-linecap="round"/><path d="M 6.66 17.09 Q 6.4 16.82 6.66 16.56" fill="none" stroke="#111" stroke-width="1.6" stroke-linecap="round"/><path d="M 6.66 18.41 Q 6.4 18.14 6.66 17.88" fill="none" stroke="#111" stroke-width="1.6" stroke-linecap="round"/><path d="M 6.66 19.73 Q 6.4 19.46 6.66 19.2" fill="none" stroke="#111" stroke-width="1.6" stroke-linecap="round"/><path d="M 6.66 21.05 Q 6.4 20.78 6.66 20.52" fill="none" stroke="#111" stroke-width="1.6" stroke-linecap="round"/><path d="M 6.66 22.37 Q 6.4 22.1 6.66 21.84" fill="none" stroke="#111" stroke-width="1.6" stroke-linecap="round"/><path d="M 6.66 23.69 Q 6.4 23.42 6.66 23.16" fill="none" stroke="#111" stroke-width="1.6" stroke-linecap="round"/><path d="M 6.66 25.01 Q 6.4 24.74 6.66 24.48" fill="none" stroke="#111" stroke-width="1.6" stroke-linecap="round"/><path d="M 6.66 26.32 Q 6.4 26.06 6.66 25.8" fill="none" stroke="#111" stroke-width="1.6" stroke-linecap="round"/><path d="M 6.66 27.64 Q 6.4 27.38 6.66 27.12" fill="none" stroke="#111" stroke-width="1.6" stroke-linecap="round"/><path d="M 6.66 28.96 Q 6.4 28.7 6.66 28.44" fill="none" stroke="#111" stroke-width="1.6" stroke-linecap="round"/><path d="M 6.66 30.28 Q 6.4 30.02 6.66 29.76" fill="none" stroke="#111" stroke-width="1.6" stroke-linecap="round"/><path d="M 6.66 31.6 Q 6.4 31.34 6.66 31.08" fill="none" stroke="#111" stroke-width="1.6" stroke-linecap="round"/><path d="M 6.66 32.92 Q 6.4 32.66 6.66 32.4" fill="none" stroke="#111" stroke-width="1.6" stroke-linecap="round"/><path d="M 6.66 34.24 Q 6.4 33.98 6.66 33.72" fill="none" stroke="#111" stroke-width="1.6" stroke-linecap="round"/><path d="M 6.66 35.56 Q 6.4 35.3 6.66 35.04" fill="none" stroke="#111" stroke-width="1.6" stroke-linecap="round"/><path d="M 6.66 36.88 Q 6.4 36.62 6.66 36.36" fill="none" stroke="#111" stroke-width="1.6" stroke-linecap="round"/><path d="M 6.66 38.2 Q 6.4 37.94 6.66 37.68" fill="none" stroke="#111" stroke-width="1.6" stroke-linecap="round"/><path d="M 6.66 39.52 Q 6.4 39.26 6.66 38.99" fill="none" stroke="#111" stroke-width="1.6" stroke-linecap="round"/><path d="M 6.66 40.84 Q 6.4 40.58 6.66 40.31" fill="none" stroke="#111" stroke-width="1.6" stroke-linecap="round"/><path d="M 6.66 42.16 Q 6.4 41.9 6.66 41.63" fill="none" stroke="#111" stroke-width="1.6" stroke-linecap="round"/><path d="M 6.66 43.48 Q 6.4 43.22 6.66 42.95" fill="none" stroke="#111" stroke-width="1.6" stroke-linecap="round"/><path d="M 6.66 44.8 Q 6.4 44.54 6.66 44.27" fill="none" stroke="#111" stroke-width="1.6" stroke-linecap="round"/><path d="M 6.66 46.12 Q 6.4 45.86 6.66 45.59" fill="none" stroke="#111" stroke-width="1.6" stroke-linecap="round"/><path d="M 6.66 47.44 Q 6.4 47.18 6.66 46.91" fill="none" stroke="#111" stroke-width="1.6" stroke-linecap="round"/><path d="M 6.66 48.76 Q 6.4 48.5 6.66 48.23" fill="none" stroke="#111" stroke-width="1.6" stroke-linecap="round"/><path d="M 6.66 50.08 Q 6.4 49.82 6.66 49.55" fill="none" stroke="#111" stroke-width="1.6" stroke-linecap="round"/><path d="M 6.66 51.4 Q 6.4 51.14 6.66 50.87" fill="none" stroke="#111" stroke-width="1.6" stroke-linecap="round"/><path d="M 6.66 52.72 Q 6.4 52.46 6.66 52.19" fill="none" stroke="#111" stroke-width="1.6" stroke-linecap="round"/><path d="M 6.66 54.04 Q 6.4 53.78 6.66 53.51" fill="none" stroke="#111" stroke-width="1.6" stroke-linecap="round"/><path d="M 6.66 55.36 Q 6.4 55.1 6.66 54.83" fill="none" stroke="#111" stroke-width="1.6" stroke-linecap="round"/><path d="M 6.66 56.68 Q 6.4 56.42 6.66 56.15" fill="none" stroke="#111" stroke-width="1.6" stroke-linecap="round"/><path d="M 6.66 58 Q 6.4 57.74 6.66 57.47" fill="none" stroke="#111" stroke-width="1.6" stroke-linecap="round"/></svg>