<svg xmlns="http://www.w3.org/2000/svg" width="96" height="64" viewBox="0 0 96 64"><rect x="9.39" y="11.09" width="1.13" height="39.56" fill="none" stroke="#111" stroke-width="1.6"/><polyline points="12.22,15.61 15.04,15.61 16.17,16.74 15.04,17.87 12.22,17.87 12.22,15.61" fill="none" stroke="#111" stroke-width="1.6" stroke-linecap="round" stroke-linejoin="round"/><polyline points="12.22,16.74 10.52,16.74" fill="none" stroke="#111" stroke-width="1.6" stroke-linecap="round" stroke-linejoin="round"/><polyline points="12.22,22.39 15.04,22.39 16.17,23.52 15.04,24.65 12.22,24.65 12.22,22.39" fill="none" stroke="#111" stroke-width="1.6" stroke-linecap="round" stroke-linejoin="round"/><polyline points="12.22,23.52 10.52,23.52" fill="none" stroke="#111" stroke-width="1.6" stroke-linecap="round" stroke-linejoin="round"/><rect x="12.22" y="52.35" width="2.26" height="1.13" fill="none" stroke="#111" stroke-width="1.6"/><polyline points="13.35,26.91 11.65,26.91 11.65,20.13 13.35,20.13 13.35,17.87" fill="none" stroke="#111" stroke-width="1.6" stroke-linecap="round" stroke-linejoin="round"/><polyline points="13.35,52.35 13.35,24.65" fill="none" stroke="#111" stroke-width="1.6" stroke-linecap="round" stroke-linejoin="round"/><polyline points="14.48,41.61 13.35,41.61" fill="none" stroke="#111" stroke-width="1.6" stroke-linecap="round" stroke-linejoin="round"/><rect x="15.04" y="37.09" width="1.13" height="9.04" fill="none" stroke="#111" stroke-width="1.6"/><polyline points="15.04,41.61 14.48,41.61" fill="none" stroke="#111" stroke-width="1.6" stroke-linecap="round" stroke-linejoin="round"/><polyline points="15.61,16.17 16.17,16.17" fill="none" stroke="#111" stroke-width="1.6" stroke-linecap="round" stroke-linejoin="round"/><polyline points="15.61,17.3 16.17,17.3" fill="none" stroke="#111" stroke-width="1.6" stroke-linecap="round" stroke-linejoin="round"/><polyline points="15.61,22.96 16.17,22.96" fill="none" stroke="#111" stroke-width="1.6" stroke-linecap="round" stroke-linejoin="round"/><polyline points="15.61,24.09 16.17,24.09" fill="none" stroke="#111" stroke-width="1.6" stroke-linecap="round" stroke-linejoin="round"/><rect x="6" y="6" width="13.57" height="52" fill="none" stroke="#111" stroke-width="1.6"/></svg>