<svg xmlns="http://www.w3.org/2000/svg" width="96" height="64" viewBox="0 0 96 64"><rect x="6" y="6" width="1.37" height="52" fill="none" stroke="#111" stroke-width="1.6"/><rect x="6.14" y="6.14" width="1.09" height="51.72" fill="none" stroke="#111" stroke-width="1.6"/><rect x="6.14" y="6.62" width="0.68" height="0.13" fill="none" stroke="#111" stroke-width="1.6"/><rect x="6.14" y="7.98" width="0.68" height="0.14" fill="none" stroke="#111" stroke-width="1.6"/><rect x="6.14" y="9.35" width="0.68" height="0.14" fill="none" stroke="#111" stroke-width="1.6"/><rect x="6.14" y="10.72" width="0.68" height="0.14" fill="none" stroke="#111" stroke-width="1.6"/><rect x="6.14" y="12.09" width="0.68" height="0.14" fill="none" stroke="#111" stroke-width="1.6"/><rect x="6.14" y="13.46" width="0.68" height="0.13" fill="none" stroke="#111" stroke-width="1.6"/><rect x="6.14" y="14.83" width="0.68" height="0.13" fill="none" stroke="#111" stroke-width="1.6"/><rect x="6.14" y="16.19" width="0.68" height="0.14" fill="none" stroke="#111" stroke-width="1.6"/><rect x="6.14" y="17.56" width="0.68" height="0.14" fill="none" stroke="#111" stroke-width="1.6"/><rect x="6.14" y="18.93" width="0.68" height="0.14" fill="none" stroke="#111" stroke-width="1.6"/><rect x="6.14" y="20.3" width="0.68" height="0.14" fill="none" stroke="#111" stroke-width="1.6"/><rect x="6.14" y="21.67" width="0.68" height="0.14" fill="none" stroke="#111" stroke-width="1.6"/><rect x="6.14" y="23.04" width="0.68" height="0.13" fill="none" stroke="#111" stroke-width="1.6"/><rect x="6.14" y="24.41" width="0.68" height="0.13" fill="none" stroke="#111" stroke-width="1.6"/><rect x="6.14" y="25.77" width="0.68" height="0.14" fill="none" stroke="#111" stroke-width="1.6"/><rect x="6.14" y="27.14" width="0.68" height="0.14" fill="none" stroke="#111" stroke-width="1.6"/><rect x="6.14" y="28.51" width="0.68" height="0.14" fill="none" stroke="#111" stroke-width="1.6"/><rect x="6.14" y="29.88" width="0.68" height="0.14" fill="none" stroke="#111" stroke-width="1.6"/><rect x="6.14" y="31.25" width="0.68" height="0.13" fill="none" stroke="#111" stroke-width="1.6"/><rect x="6.14" y="32.62" width="0.68" height="0.13" fill="none" stroke="#111" stroke-width="1.6"/><rect x="6.14" y="33.98" width="0.68" height="0.14" fill="none" stroke="#111" stroke-width="1.6"/><rect x="6.14" y="35.35" width="0.68" height="0.14" fill="none" stroke="#111" stroke-width="1.6"/><rect x="6.14" y="36.72" width="0.68" height="0.14" fill="none" stroke="#111" stroke-width="1.6"/><rect x="6.14" y="38.09" width="0.68" height="0.14" fill="none" stroke="#111" stroke-width="1.6"/><rect x="6.14" y="39.46" width="0.68" height="0.13" fill="none" stroke="#111" stroke-width="1.6"/><rect x="6.14" y="40.83" width="0.68" height="0.13" fill="none" stroke="#111" stroke-width="1.6"/><rect x="6.14" y="42.19" width="0.68" height="0.14" fill="none" stroke="#111" stroke-width="1.6"/><rect x="6.14" y="43.56" width="0.68" height="0.14" fill="none" stroke="#111" stroke-width="1.6"/><rect x="6.14" y="44.93" width="0.68" height="0.14" fill="none" stroke="#111" stroke-width="1.6"/><rect x="6.14" y="46.3" width="0.68" height="0.14" fill="none" stroke="#111" stroke-width="1.6"/><rect x="6.14" y="47.67" width="0.68" height="0.14" fill="none" stroke="#111" stroke-width="1.6"/><rect x="6.14" y="49.04" width="0.68" height="0.13" fill="none" stroke="#111" stroke-width="1.6"/><rect x="6.14" y="50.41" width="0.68" height="0.13" fill="none" stroke="#111" stroke-width="1.6"/><rect x="6.14" y="51.77" width="0.68" height="0.14" fill="none" stroke="#111" stroke-width="1.6"/><rect x="6.14" y="53.14" width="0.68" height="0.14" fill="none" stroke="#111" stroke-width="1.6"/><rect x="6.14" y="54.51" width="0.68" height="0.14" fill="none" stroke="#111" stroke-width="1.6"/><rect x="6.14" y="55.88" width="0.68" height="0.14" fill="none" stroke="#111" stroke-width="1.6"/><rect x="6.14" y="57.25" width="0.68" height="0.13" fill="none" stroke="#111" stroke-width="1.6"/></svg>