<svg xmlns="http://www.w3.org/2000/svg" width="96" height="64" viewBox="0 0 96 64"><polyline points="13.8,15.1 13.8,13.54 13.8,14.32 15.75,14.32 15.75,13.54 15.75,15.1" fill="none" stroke="#111" stroke-width="1.6" stroke-linecap="round" stroke-linejoin="round"/><polyline points="16.53,13.54 18.22,13.54 18.48,13.8 18.48,14.84 18.22,15.1 16.53,15.1 16.53,14.32" fill="none" stroke="#111" stroke-width="1.6" stroke-linecap="round" stroke-linejoin="round"/><polyline points="22.12,15.1 22.12,13.54" fill="none" stroke="#111" stroke-width="1.6" stroke-linecap="round" stroke-linejoin="round"/><rect x="6" y="6" width="18.2" height="52" fill="none" stroke="#111" stroke-width="1.6"/><polyline points="13.8,24.2 17.7,24.2 19.65,26.15 19.65,37.85 17.7,39.8 13.8,39.8 13.8,24.2" fill="none" stroke="#111" stroke-width="1.6" stroke-linecap="round" stroke-linejoin="round"/><polyline points="15.75,25.5 17.05,25.5 17.7,26.15 17.7,37.85 17.05,38.5 15.75,38.5 15.75,26.15" fill="none" stroke="#111" stroke-width="1.6" stroke-linecap="round" stroke-linejoin="round"/><polyline points="19.26,15.1 19.26,13.54 20.3,13.54 20.3,15.1 20.3,13.54 21.08,13.54 21.34,13.8 21.34,15.1" fill="none" stroke="#111" stroke-width="1.6" stroke-linecap="round" stroke-linejoin="round"/></svg>