<svg xmlns="http://www.w3.org/2000/svg" width="96" height="64" viewBox="0 0 96 64"><rect x="6" y="6" width="0.33" height="0.1" fill="none" stroke="#111" stroke-width="1.6"/><rect x="6" y="6.96" width="0.33" height="0.1" fill="none" stroke="#111" stroke-width="1.6"/><rect x="6" y="7.92" width="0.33" height="0.1" fill="none" stroke="#111" stroke-width="1.6"/><rect x="6" y="8.88" width="0.33" height="0.1" fill="none" stroke="#111" stroke-width="1.6"/><rect x="6" y="9.84" width="0.33" height="0.1" fill="none" stroke="#111" stroke-width="1.6"/><rect x="6" y="10.81" width="0.33" height="0.09" fill="none" stroke="#111" stroke-width="1.6"/><rect x="6" y="11.77" width="0.33" height="0.09" fill="none" stroke="#111" stroke-width="1.6"/><rect x="6" y="12.73" width="0.33" height="0.09" fill="none" stroke="#111" stroke-width="1.6"/><rect x="6" y="13.69" width="0.33" height="0.1" fill="none" stroke="#111" stroke-width="1.6"/><rect x="6" y="14.65" width="0.33" height="0.1" fill="none" stroke="#111" stroke-width="1.6"/><rect x="6" y="15.61" width="0.33" height="0.1" fill="none" stroke="#111" stroke-width="1.6"/><rect x="6" y="16.57" width="0.33" height="0.1" fill="none" stroke="#111" stroke-width="1.6"/><rect x="6" y="17.53" width="0.33" height="0.1" fill="none" stroke="#111" stroke-width="1.6"/><rect x="6" y="18.5" width="0.33" height="0.09" fill="none" stroke="#111" stroke-width="1.6"/><rect x="6" y="19.46" width="0.33" height="0.09" fill="none" stroke="#111" stroke-width="1.6"/><rect x="6" y="20.42" width="0.33" height="0.09" fill="none" stroke="#111" stroke-width="1.6"/><rect x="6" y="21.38" width="0.33" height="0.1" fill="none" stroke="#111" stroke-width="1.6"/><rect x="6" y="22.34" width="0.33" height="0.1" fill="none" stroke="#111" stroke-width="1.6"/><rect x="6" y="23.3" width="0.33" height="0.1" fill="none" stroke="#111" stroke-width="1.6"/><rect x="6" y="24.26" width="0.33" height="0.1" fill="none" stroke="#111" stroke-width="1.6"/><rect x="6" y="25.22" width="0.33" height="0.1" fill="none" stroke="#111" stroke-width="1.6"/><rect x="6" y="26.18" width="0.33" height="0.1" fill="none" stroke="#111" stroke-width="1.6"/><rect x="6" y="27.15" width="0.33" height="0.09" fill="none" stroke="#111" stroke-width="1.6"/><rect x="6" y="28.11" width="0.33" height="0.09" fill="none" stroke="#111" stroke-width="1.6"/><rect x="6" y="29.07" width="0.33" height="0.09" fill="none" stroke="#111" stroke-width="1.6"/><rect x="6" y="30.03" width="0.33" height="0.1" fill="none" stroke="#111" stroke-width="1.6"/><rect x="6" y="30.99" width="0.33" height="0.1" fill="none" stroke="#111" stroke-width="1.6"/><rect x="6" y="31.95" width="0.33" height="0.1" fill="none" stroke="#111" stroke-width="1.6"/><rect x="6" y="32.91" width="0.33" height="0.1" fill="none" stroke="#111" stroke-width="1.6"/><rect x="6" y="33.87" width="0.33" height="0.1" fill="none" stroke="#111" stroke-width="1.6"/><rect x="6" y="34.84" width="0.33" height="0.09" fill="none" stroke="#111" stroke-width="1.6"/><rect x="6" y="35.8" width="0.33" height="0.09" fill="none" stroke="#111" stroke-width="1.6"/><rect x="6" y="36.76" width="0.33" height="0.09" fill="none" stroke="#111" stroke-width="1.6"/><rect x="6" y="37.72" width="0.33" height="0.1" fill="none" stroke="#111" stroke-width="1.6"/><rect x="6" y="38.68" width="0.33" height="0.1" fill="none" stroke="#111" stroke-width="1.6"/><rect x="6" y="39.64" width="0.33" height="0.1" fill="none" stroke="#111" stroke-width="1.6"/><rect x="6" y="40.6" width="0.33" height="0.1" fill="none" stroke="#111" stroke-width="1.6"/><rect x="6" y="41.56" width="0.33" height="0.1" fill="none" stroke="#111" stroke-width="1.6"/><rect x="6" y="42.52" width="0.33" height="0.1" fill="none" stroke="#111" stroke-width="1.6"/><rect x="6" y="43.49" width="0.33" height="0.09" fill="none" stroke="#111" stroke-width="1.6"/><rect x="6" y="44.45" width="0.33" height="0.09" fill="none" stroke="#111" stroke-width="1.6"/><rect x="6" y="45.41" width="0.33" height="0.09" fill="none" stroke="#111" stroke-width="1.6"/><rect x="6" y="46.37" width="0.33" height="0.1" fill="none" stroke="#111" stroke-width="1.6"/><rect x="6" y="47.33" width="0.33" height="0.1" fill="none" stroke="#111" stroke-width="1.6"/><rect x="6" y="48.29" width="0.33" height="0.1" fill="none" stroke="#111" stroke-width="1.6"/><rect x="6" y="49.25" width="0.33" height="0.1" fill="none" stroke="#111" stroke-width="1.6"/><rect x="6" y="50.21" width="0.33" height="0.1" fill="none" stroke="#111" stroke-width="1.6"/><rect x="6" y="51.18" width="0.33" height="0.09" fill="none" stroke="#111" stroke-width="1.6"/><rect x="6" y="52.14" width="0.33" height="0.09" fill="none" stroke="#111" stroke-width="1.6"/><rect x="6" y="53.1" width="0.33" height="0.09" fill="none" stroke="#111" stroke-width="1.6"/><rect x="6" y="54.06" width="0.33" height="0.1" fill="none" stroke="#111" stroke-width="1.6"/><rect x="6" y="55.02" width="0.33" height="0.1" fill="none" stroke="#111" stroke-width="1.6"/><rect x="6" y="55.98" width="0.33" height="0.1" fill="none" stroke="#111" stroke-width="1.6"/><rect x="6" y="56.94" width="0.33" height="0.1" fill="none" stroke="#111" stroke-width="1.6"/><rect x="6" y="57.9" width="0.33" height="0.1" fill="none" stroke="#111" stroke-width="1.6"/><polyline points="6.48,6.05 6.33,6.05" fill="none" stroke="#111" stroke-width="1.6" stroke-linecap="round" stroke-linejoin="round"/><polyline points="6.48,7.01 6.33,7.01" fill="none" stroke="#111" stroke-width="1.6" stroke-linecap="round" stroke-linejoin="round"/><polyline points="6.48,7.97 6.33,7.97" fill="none" stroke="#111" stroke-width="1.6" stroke-linecap="round" stroke-linejoin="round"/><polyline points="6.48,8.93 6.33,8.93" fill="none" stroke="#111" stroke-width="1.6" stroke-linecap="round" stroke-linejoin="round"/><polyline points="6.48,9.89 6.33,9.89" fill="none" stroke="#111" stroke-width="1.6" stroke-linecap="round" stroke-linejoin="round"/><polyline points="6.48,10.85 6.33,10.85" fill="none" stroke="#111" stroke-width="1.6" stroke-linecap="round" stroke-linejoin="round"/><polyline points="6.48,11.82 6.33,11.82" fill="none" stroke="#111" stroke-width="1.6" stroke-linecap="round" stroke-linejoin="round"/><polyline points="6.48,12.78 6.33,12.78" fill="none" stroke="#111" stroke-width="1.6" stroke-linecap="round" stroke-linejoin="round"/><polyline points="6.48,13.74 6.33,13.74" fill="none" stroke="#111" stroke-width="1.6" stroke-linecap="round" stroke-linejoin="round"/><polyline points="6.48,14.7 6.33,14.7" fill="none" stroke="#111" stroke-width="1.6" stroke-linecap="round" stroke-linejoin="round"/><polyline points="6.48,15.66 6.33,15.66" fill="none" stroke="#111" stroke-width="1.6" stroke-linecap="round" stroke-linejoin="round"/><polyline points="6.48,16.62 6.33,16.62" fill="none" stroke="#111" stroke-width="1.6" stroke-linecap="round" stroke-linejoin="round"/><polyline points="6.48,17.58 6.33,17.58" fill="none" stroke="#111" stroke-width="1.6" stroke-linecap="round" stroke-linejoin="round"/><polyline points="6.48,18.54 6.33,18.54" fill="none" stroke="#111" stroke-width="1.6" stroke-linecap="round" stroke-linejoin="round"/><polyline points="6.48,19.5 6.33,19.5" fill="none" stroke="#111" stroke-width="1.6" stroke-linecap="round" stroke-linejoin="round"/><polyline points="6.48,20.47 6.33,20.47" fill="none" stroke="#111" stroke-width="1.6" stroke-linecap="round" stroke-linejoin="round"/><polyline points="6.48,21.43 6.33,21.43" fill="none" stroke="#111" stroke-width="1.6" stroke-linecap="round" stroke-linejoin="round"/><polyline points="6.48,22.39 6.33,22.39" fill="none" stroke="#111" stroke-width="1.6" stroke-linecap="round" stroke-linejoin="round"/><polyline points="6.48,23.35 6.33,23.35" fill="none" stroke="#111" stroke-width="1.6" stroke-linecap="round" stroke-linejoin="round"/><polyline points="6.48,24.31 6.33,24.31" fill="none" stroke="#111" stroke-width="1.6" stroke-linecap="round" stroke-linejoin="round"/><polyline points="6.48,25.27 6.33,25.27" fill="none" stroke="#111" stroke-width="1.6" stroke-linecap="round" stroke-linejoin="round"/><polyline points="6.48,26.23 6.33,26.23" fill="none" stroke="#111" stroke-width="1.6" stroke-linecap="round" stroke-linejoin="round"/><polyline points="6.48,27.19 6.33,27.19" fill="none" stroke="#111" stroke-width="1.6" stroke-linecap="round" stroke-linejoin="round"/><polyline points="6.48,28.16 6.33,28.16" fill="none" stroke="#111" stroke-width="1.6" stroke-linecap="round" stroke-linejoin="round"/><polyline points="6.48,29.12 6.33,29.12" fill="none" stroke="#111" stroke-width="1.6" stroke-linecap="round" stroke-linejoin="round"/><polyline points="6.48,30.08 6.33,30.08" fill="none" stroke="#111" stroke-width="1.6" stroke-linecap="round" stroke-linejoin="round"/><polyline points="6.48,31.04 6.33,31.04" fill="none" stroke="#111" stroke-width="1.6" stroke-linecap="round" stroke-linejoin="round"/><polyline points="6.48,32 6.33,32" fill="none" stroke="#111" stroke-width="1.6" stroke-linecap="round" stroke-linejoin="round"/><polyline points="6.48,32.96 6.33,32.96" fill="none" stroke="#111" stroke-width="1.6" stroke-linecap="round" stroke-linejoin="round"/><polyline points="6.48,33.92 6.33,33.92" fill="none" stroke="#111" stroke-width="1.6" stroke-linecap="round" stroke-linejoin="round"/><polyline points="6.48,34.88 6.33,34.88" fill="none" stroke="#111" stroke-width="1.6" stroke-linecap="round" stroke-linejoin="round"/><polyline points="6.48,35.84 6.33,35.84" fill="none" stroke="#111" stroke-width="1.6" stroke-linecap="round" stroke-linejoin="round"/><polyline points="6.48,36.81 6.33,36.81" fill="none" stroke="#111" stroke-width="1.6" stroke-linecap="round" stroke-linejoin="round"/><polyline points="6.48,37.77 6.33,37.77" fill="none" stroke="#111" stroke-width="1.6" stroke-linecap="round" stroke-linejoin="round"/><polyline points="6.48,38.73 6.33,38.73" fill="none" stroke="#111" stroke-width="1.6" stroke-linecap="round" stroke-linejoin="round"/><polyline points="6.48,39.69 6.33,39.69" fill="none" stroke="#111" stroke-width="1.6" stroke-linecap="round" stroke-linejoin="round"/><polyline points="6.48,40.65 6.33,40.65" fill="none" stroke="#111" stroke-width="1.6" stroke-linecap="round" stroke-linejoin="round"/><polyline points="6.48,41.61 6.33,41.61" fill="none" stroke="#111" stroke-width="1.6" stroke-linecap="round" stroke-linejoin="round"/><polyline points="6.48,42.57 6.33,42.57" fill="none" stroke="#111" stroke-width="1.6" stroke-linecap="round" stroke-linejoin="round"/><polyline points="6.48,43.53 6.33,43.53" fill="none" stroke="#111" stroke-width="1.6" stroke-linecap="round" stroke-linejoin="round"/><polyline points="6.48,44.5 6.33,44.5" fill="none" stroke="#111" stroke-width="1.6" stroke-linecap="round" stroke-linejoin="round"/><polyline points="6.48,45.46 6.33,45.46" fill="none" stroke="#111" stroke-width="1.6" stroke-linecap="round" stroke-linejoin="round"/><polyline points="6.48,46.42 6.33,46.42" fill="none" stroke="#111" stroke-width="1.6" stroke-linecap="round" stroke-linejoin="round"/><polyline points="6.48,47.38 6.33,47.38" fill="none" stroke="#111" stroke-width="1.6" stroke-linecap="round" stroke-linejoin="round"/><polyline points="6.48,48.34 6.33,48.34" fill="none" stroke="#111" stroke-width="1.6" stroke-linecap="round" stroke-linejoin="round"/><polyline points="6.48,49.3 6.33,49.3" fill="none" stroke="#111" stroke-width="1.6" stroke-linecap="round" stroke-linejoin="round"/><polyline points="6.48,50.26 6.33,50.26" fill="none" stroke="#111" stroke-width="1.6" stroke-linecap="round" stroke-linejoin="round"/><polyline points="6.48,51.22 6.33,51.22" fill="none" stroke="#111" stroke-width="1.6" stroke-linecap="round" stroke-linejoin="round"/><polyline points="6.48,52.18 6.33,52.18" fill="none" stroke="#111" stroke-width="1.6" stroke-linecap="round" stroke-linejoin="round"/><polyline points="6.48,53.15 6.33,53.15" fill="none" stroke="#111" stroke-width="1.6" stroke-linecap="round" stroke-linejoin="round"/><polyline points="6.48,54.11 6.33,54.11" fill="none" stroke="#111" stroke-width="1.6" stroke-linecap="round" stroke-linejoin="round"/><polyline points="6.48,55.07 6.33,55.07" fill="none" stroke="#111" stroke-width="1.6" stroke-linecap="round" stroke-linejoin="round"/><polyline points="6.48,56.03 6.33,56.03" fill="none" stroke="#111" stroke-width="1.6" stroke-linecap="round" stroke-linejoin="round"/><polyline points="6.48,56.99 6.33,56.99" fill="none" stroke="#111" stroke-width="1.6" stroke-linecap="round" stroke-linejoin="round"/><polyline points="6.48,57.95 6.33,57.95" fill="none" stroke="#111" stroke-width="1.6" stroke-linecap="round" stroke-linejoin="round"/></svg>