<svg xmlns="http://www.w3.org/2000/svg" width="96" height="64" viewBox="0 0 96 64"><polyline points="6,19 9.9,19 15.75,22.25" fill="none" stroke="#111" stroke-width="1.6" stroke-linecap="round" stroke-linejoin="round"/><polyline points="6,45 9.9,45 15.75,41.75" fill="none" stroke="#111" stroke-width="1.6" stroke-linecap="round" stroke-linejoin="round"/><circle cx="17.7" cy="24.2" r="2.6" fill="none" stroke="#111" stroke-width="1.6"/><circle cx="17.7" cy="39.8" r="2.6" fill="none" stroke="#111" stroke-width="1.6"/><polyline points="28.1,57.35 28.1,53.45 35.9,53.45 35.9,57.35" fill="none" stroke="#111" stroke-width="1.6" stroke-linecap="round" stroke-linejoin="round"/><path d="M 58 32 Q 51.79 49.12 35.9 58" fill="none" stroke="#111" stroke-width="1.6" stroke-linecap="round"/><polyline points="32,6 32,12.5" fill="none" stroke="#111" stroke-width="1.6" stroke-linecap="round" stroke-linejoin="round"/><circle cx="32" cy="15.1" r="2.6" fill="none" stroke="#111" stroke-width="1.6"/><circle cx="32" cy="32" r="2.6" fill="none" stroke="#111" stroke-width="1.6"/><path d="M 6 32 Q 32 6.11 58 32" fill="none" stroke="#111" stroke-width="1.6" stroke-linecap="round"/><polyline points="32,58 32,34.6" fill="none" stroke="#111" stroke-width="1.6" stroke-linecap="round" stroke-linejoin="round"/><path d="M 28.1 58 Q 12.25 49.08 6 32" fill="none" stroke="#111" stroke-width="1.6" stroke-linecap="round"/><circle cx="46.3" cy="24.2" r="2.6" fill="none" stroke="#111" stroke-width="1.6"/><circle cx="46.3" cy="39.8" r="2.6" fill="none" stroke="#111" stroke-width="1.6"/><polyline points="58,19 54.1,19 48.25,22.25" fill="none" stroke="#111" stroke-width="1.6" stroke-linecap="round" stroke-linejoin="round"/><polyline points="58,45 54.1,45 48.25,41.75" fill="none" stroke="#111" stroke-width="1.6" stroke-linecap="round" stroke-linejoin="round"/></svg>