<svg xmlns="http://www.w3.org/2000/svg" width="96" height="64" viewBox="0 0 96 64"><polyline points="6,6.78 7.16,6.78" fill="none" stroke="#111" stroke-width="1.6" stroke-linecap="round" stroke-linejoin="round"/><polyline points="6,10.66 7.16,10.66" fill="none" stroke="#111" stroke-width="1.6" stroke-linecap="round" stroke-linejoin="round"/><polyline points="6,14.54 7.16,14.54" fill="none" stroke="#111" stroke-width="1.6" stroke-linecap="round" stroke-linejoin="round"/><polyline points="6,18.42 7.16,18.42" fill="none" stroke="#111" stroke-width="1.6" stroke-linecap="round" stroke-linejoin="round"/><polyline points="6,22.3 7.16,22.3" fill="none" stroke="#111" stroke-width="1.6" stroke-linecap="round" stroke-linejoin="round"/><polyline points="6,26.18 7.16,26.18" fill="none" stroke="#111" stroke-width="1.6" stroke-linecap="round" stroke-linejoin="round"/><polyline points="6,30.06 7.16,30.06" fill="none" stroke="#111" stroke-width="1.6" stroke-linecap="round" stroke-linejoin="round"/><polyline points="6,33.94 7.16,33.94" fill="none" stroke="#111" stroke-width="1.6" stroke-linecap="round" stroke-linejoin="round"/><polyline points="6,37.82 7.16,37.82" fill="none" stroke="#111" stroke-width="1.6" stroke-linecap="round" stroke-linejoin="round"/><polyline points="6,41.7 7.16,41.7" fill="none" stroke="#111" stroke-width="1.6" stroke-linecap="round" stroke-linejoin="round"/><polyline points="6,45.58 7.16,45.58" fill="none" stroke="#111" stroke-width="1.6" stroke-linecap="round" stroke-linejoin="round"/><polyline points="6,49.46 7.16,49.46" fill="none" stroke="#111" stroke-width="1.6" stroke-linecap="round" stroke-linejoin="round"/><polyline points="6,53.34 7.16,53.34" fill="none" stroke="#111" stroke-width="1.6" stroke-linecap="round" stroke-linejoin="round"/><polyline points="6,57.22 7.16,57.22" fill="none" stroke="#111" stroke-width="1.6" stroke-linecap="round" stroke-linejoin="round"/><path d="M 7.94 7.55 Q 7.17 6.78 7.94 6" fill="none" stroke="#111" stroke-width="1.6" stroke-linecap="round"/><path d="M 7.94 11.43 Q 7.17 10.66 7.94 9.88" fill="none" stroke="#111" stroke-width="1.6" stroke-linecap="round"/><path d="M 7.94 15.31 Q 7.17 14.54 7.94 13.76" fill="none" stroke="#111" stroke-width="1.6" stroke-linecap="round"/><path d="M 7.94 19.19 Q 7.17 18.42 7.94 17.64" fill="none" stroke="#111" stroke-width="1.6" stroke-linecap="round"/><path d="M 7.94 23.07 Q 7.17 22.3 7.94 21.52" fill="none" stroke="#111" stroke-width="1.6" stroke-linecap="round"/><path d="M 7.94 26.96 Q 7.17 26.18 7.94 25.4" fill="none" stroke="#111" stroke-width="1.6" stroke-linecap="round"/><path d="M 7.94 30.84 Q 7.17 30.06 7.94 29.28" fill="none" stroke="#111" stroke-width="1.6" stroke-linecap="round"/><path d="M 7.94 34.72 Q 7.17 33.94 7.94 33.16" fill="none" stroke="#111" stroke-width="1.6" stroke-linecap="round"/><path d="M 7.94 38.6 Q 7.17 37.82 7.94 37.04" fill="none" stroke="#111" stroke-width="1.6" stroke-linecap="round"/><path d="M 7.94 42.48 Q 7.17 41.7 7.94 40.93" fill="none" stroke="#111" stroke-width="1.6" stroke-linecap="round"/><path d="M 7.94 46.36 Q 7.17 45.58 7.94 44.81" fill="none" stroke="#111" stroke-width="1.6" stroke-linecap="round"/><path d="M 7.94 50.24 Q 7.17 49.46 7.94 48.69" fill="none" stroke="#111" stroke-width="1.6" stroke-linecap="round"/><path d="M 7.94 54.12 Q 7.17 53.34 7.94 52.57" fill="none" stroke="#111" stroke-width="1.6" stroke-linecap="round"/><path d="M 7.94 58 Q 7.17 57.22 7.94 56.45" fill="none" stroke="#111" stroke-width="1.6" stroke-linecap="round"/></svg>