<svg xmlns="http://www.w3.org/2000/svg" width="96" height="64" viewBox="0 0 96 64"><polyline points="25.31,9.71 32.74,14.17 32.74,43.89 25.31,48.34 25.31,9.71" fill="none" stroke="#111" stroke-width="1.6" stroke-linecap="round" stroke-linejoin="round"/><polyline points="53.54,26.06 53.54,37.94 40.17,37.94 36.46,32 40.17,26.06 53.54,26.06" fill="none" stroke="#111" stroke-width="1.6" stroke-linecap="round" stroke-linejoin="round"/><polyline points="56.51,23.09 37.94,23.09 37.94,9.71 29.03,9.71 29.03,11.94" fill="none" stroke="#111" stroke-width="1.6" stroke-linecap="round" stroke-linejoin="round"/><polyline points="32.74,32 36.46,32" fill="none" stroke="#111" stroke-width="1.6" stroke-linecap="round" stroke-linejoin="round"/><rect x="46.86" y="43.14" width="7.43" height="9.66" fill="none" stroke="#111" stroke-width="1.6"/><polyline points="49.09,46.86 48.34,47.6" fill="none" stroke="#111" stroke-width="1.6" stroke-linecap="round" stroke-linejoin="round"/><polyline points="49.09,46.86 52.06,46.86 52.8,46.11" fill="none" stroke="#111" stroke-width="1.6" stroke-linecap="round" stroke-linejoin="round"/><polyline points="50.57,38.69 51.31,39.43" fill="none" stroke="#111" stroke-width="1.6" stroke-linecap="round" stroke-linejoin="round"/><polyline points="50.57,43.14 50.57,38.69 49.83,39.43" fill="none" stroke="#111" stroke-width="1.6" stroke-linecap="round" stroke-linejoin="round"/><polyline points="50.57,45.37 50.57,50.57" fill="none" stroke="#111" stroke-width="1.6" stroke-linecap="round" stroke-linejoin="round"/><polyline points="50.57,46.86 49.09,49.09 52.06,49.09 50.57,46.86" fill="none" stroke="#111" stroke-width="1.6" stroke-linecap="round" stroke-linejoin="round"/><polyline points="53.54,32 56.51,32" fill="none" stroke="#111" stroke-width="1.6" stroke-linecap="round" stroke-linejoin="round"/><rect x="56.51" y="17.14" width="9.29" height="29.72" fill="none" stroke="#111" stroke-width="1.6"/><rect x="6" y="6" width="74.29" height="52" fill="none" stroke="#111" stroke-width="1.6"/></svg>