<svg xmlns="http://www.w3.org/2000/svg" width="96" height="64" viewBox="0 0 96 64"><rect x="6" y="6" width="84" height="15.27" fill="none" stroke="#111" stroke-width="1.6"/><rect x="7.15" y="8.56" width="1.52" height="3.82" fill="none" stroke="#111" stroke-width="1.6"/><polyline points="7.91,6 7.91,8.56" fill="none" stroke="#111" stroke-width="1.6" stroke-linecap="round" stroke-linejoin="round"/><circle cx="7.91" cy="7.3" r="0.38" fill="none" stroke="#111" stroke-width="1.6"/><polyline points="7.91,7.3 15.55,7.3 15.55,8.56" fill="none" stroke="#111" stroke-width="1.6" stroke-linecap="round" stroke-linejoin="round"/><circle cx="7.91" cy="13.64" r="0.38" fill="none" stroke="#111" stroke-width="1.6"/><polyline points="7.91,13.64 10.2,13.64 10.2,14.9" fill="none" stroke="#111" stroke-width="1.6" stroke-linecap="round" stroke-linejoin="round"/><polyline points="7.91,21.27 7.91,12.38" fill="none" stroke="#111" stroke-width="1.6" stroke-linecap="round" stroke-linejoin="round"/><rect x="9.44" y="14.9" width="1.52" height="3.81" fill="none" stroke="#111" stroke-width="1.6"/><polyline points="10.2,18.71 10.2,19.97 88.09,19.97" fill="none" stroke="#111" stroke-width="1.6" stroke-linecap="round" stroke-linejoin="round"/><rect x="14.78" y="8.56" width="1.53" height="3.82" fill="none" stroke="#111" stroke-width="1.6"/><circle cx="15.55" cy="7.3" r="0.38" fill="none" stroke="#111" stroke-width="1.6"/><polyline points="15.55,7.3 23.18,7.3 23.18,8.56" fill="none" stroke="#111" stroke-width="1.6" stroke-linecap="round" stroke-linejoin="round"/><circle cx="15.55" cy="13.64" r="0.38" fill="none" stroke="#111" stroke-width="1.6"/><polyline points="15.55,13.64 17.84,13.64 17.84,14.9" fill="none" stroke="#111" stroke-width="1.6" stroke-linecap="round" stroke-linejoin="round"/><polyline points="15.55,21.27 15.55,12.38" fill="none" stroke="#111" stroke-width="1.6" stroke-linecap="round" stroke-linejoin="round"/><rect x="17.07" y="14.9" width="1.53" height="3.81" fill="none" stroke="#111" stroke-width="1.6"/><polyline points="17.84,18.71 17.84,19.97 88.09,19.97" fill="none" stroke="#111" stroke-width="1.6" stroke-linecap="round" stroke-linejoin="round"/><circle cx="17.84" cy="19.97" r="0.38" fill="none" stroke="#111" stroke-width="1.6"/><rect x="22.42" y="8.56" width="1.53" height="3.82" fill="none" stroke="#111" stroke-width="1.6"/><circle cx="23.18" cy="7.3" r="0.38" fill="none" stroke="#111" stroke-width="1.6"/><polyline points="23.18,7.3 30.82,7.3 30.82,8.56" fill="none" stroke="#111" stroke-width="1.6" stroke-linecap="round" stroke-linejoin="round"/><circle cx="23.18" cy="13.64" r="0.38" fill="none" stroke="#111" stroke-width="1.6"/><polyline points="23.18,13.64 25.47,13.64 25.47,14.9" fill="none" stroke="#111" stroke-width="1.6" stroke-linecap="round" stroke-linejoin="round"/><polyline points="23.18,21.27 23.18,12.38" fill="none" stroke="#111" stroke-width="1.6" stroke-linecap="round" stroke-linejoin="round"/><rect x="24.71" y="14.9" width="1.53" height="3.81" fill="none" stroke="#111" stroke-width="1.6"/><polyline points="25.47,18.71 25.47,19.97 88.09,19.97" fill="none" stroke="#111" stroke-width="1.6" stroke-linecap="round" stroke-linejoin="round"/><circle cx="25.47" cy="19.97" r="0.38" fill="none" stroke="#111" stroke-width="1.6"/><rect x="30.05" y="8.56" width="1.53" height="3.82" fill="none" stroke="#111" stroke-width="1.6"/><circle cx="30.82" cy="7.3" r="0.38" fill="none" stroke="#111" stroke-width="1.6"/><polyline points="30.82,7.3 38.45,7.3 38.45,8.56" fill="none" stroke="#111" stroke-width="1.6" stroke-linecap="round" stroke-linejoin="round"/><circle cx="30.82" cy="13.64" r="0.38" fill="none" stroke="#111" stroke-width="1.6"/><polyline points="30.82,13.64 33.11,13.64 33.11,14.9" fill="none" stroke="#111" stroke-width="1.6" stroke-linecap="round" stroke-linejoin="round"/><polyline points="30.82,21.27 30.82,12.38" fill="none" stroke="#111" stroke-width="1.6" stroke-linecap="round" stroke-linejoin="round"/><rect x="32.35" y="14.9" width="1.52" height="3.81" fill="none" stroke="#111" stroke-width="1.6"/><polyline points="33.11,18.71 33.11,19.97 88.09,19.97" fill="none" stroke="#111" stroke-width="1.6" stroke-linecap="round" stroke-linejoin="round"/><circle cx="33.11" cy="19.97" r="0.38" fill="none" stroke="#111" stroke-width="1.6"/><rect x="37.69" y="8.56" width="1.53" height="3.82" fill="none" stroke="#111" stroke-width="1.6"/><circle cx="38.45" cy="7.3" r="0.38" fill="none" stroke="#111" stroke-width="1.6"/><polyline points="38.45,7.3 46.09,7.3 46.09,8.56" fill="none" stroke="#111" stroke-width="1.6" stroke-linecap="round" stroke-linejoin="round"/><circle cx="38.45" cy="13.64" r="0.38" fill="none" stroke="#111" stroke-width="1.6"/><polyline points="38.45,13.64 40.75,13.64 40.75,14.9" fill="none" stroke="#111" stroke-width="1.6" stroke-linecap="round" stroke-linejoin="round"/><polyline points="38.45,21.27 38.45,12.38" fill="none" stroke="#111" stroke-width="1.6" stroke-linecap="round" stroke-linejoin="round"/><rect x="39.98" y="14.9" width="1.53" height="3.81" fill="none" stroke="#111" stroke-width="1.6"/><polyline points="40.75,18.71 40.75,19.97 88.09,19.97" fill="none" stroke="#111" stroke-width="1.6" stroke-linecap="round" stroke-linejoin="round"/><circle cx="40.75" cy="19.97" r="0.38" fill="none" stroke="#111" stroke-width="1.6"/><rect x="45.33" y="8.56" width="1.52" height="3.82" fill="none" stroke="#111" stroke-width="1.6"/><circle cx="46.09" cy="7.3" r="0.38" fill="none" stroke="#111" stroke-width="1.6"/><polyline points="46.09,7.3 53.73,7.3 53.73,8.56" fill="none" stroke="#111" stroke-width="1.6" stroke-linecap="round" stroke-linejoin="round"/><polyline points="46.09,13.64 48.38,13.64 48.38,14.9" fill="none" stroke="#111" stroke-width="1.6" stroke-linecap="round" stroke-linejoin="round"/><circle cx="46.09" cy="13.64" r="0.38" fill="none" stroke="#111" stroke-width="1.6"/><polyline points="46.09,21.27 46.09,12.38" fill="none" stroke="#111" stroke-width="1.6" stroke-linecap="round" stroke-linejoin="round"/><rect x="47.62" y="14.9" width="1.53" height="3.81" fill="none" stroke="#111" stroke-width="1.6"/><polyline points="48.38,18.71 48.38,19.97 88.09,19.97" fill="none" stroke="#111" stroke-width="1.6" stroke-linecap="round" stroke-linejoin="round"/><circle cx="48.38" cy="19.97" r="0.38" fill="none" stroke="#111" stroke-width="1.6"/><rect x="52.96" y="8.56" width="1.53" height="3.82" fill="none" stroke="#111" stroke-width="1.6"/><polyline points="53.73,7.3 61.36,7.3 61.36,8.56" fill="none" stroke="#111" stroke-width="1.6" stroke-linecap="round" stroke-linejoin="round"/><circle cx="53.73" cy="7.3" r="0.38" fill="none" stroke="#111" stroke-width="1.6"/><polyline points="53.73,13.64 56.02,13.64 56.02,14.9" fill="none" stroke="#111" stroke-width="1.6" stroke-linecap="round" stroke-linejoin="round"/><circle cx="53.73" cy="13.64" r="0.38" fill="none" stroke="#111" stroke-width="1.6"/><polyline points="53.73,21.27 53.73,12.38" fill="none" stroke="#111" stroke-width="1.6" stroke-linecap="round" stroke-linejoin="round"/><rect x="55.25" y="14.9" width="1.53" height="3.81" fill="none" stroke="#111" stroke-width="1.6"/><polyline points="56.02,18.71 56.02,19.97 88.09,19.97" fill="none" stroke="#111" stroke-width="1.6" stroke-linecap="round" stroke-linejoin="round"/><circle cx="56.02" cy="19.97" r="0.38" fill="none" stroke="#111" stroke-width="1.6"/><rect x="60.6" y="8.56" width="1.53" height="3.82" fill="none" stroke="#111" stroke-width="1.6"/><polyline points="61.36,7.3 69,7.3 69,8.56" fill="none" stroke="#111" stroke-width="1.6" stroke-linecap="round" stroke-linejoin="round"/><circle cx="61.36" cy="7.3" r="0.38" fill="none" stroke="#111" stroke-width="1.6"/><polyline points="61.36,13.64 63.65,13.64 63.65,14.9" fill="none" stroke="#111" stroke-width="1.6" stroke-linecap="round" stroke-linejoin="round"/><circle cx="61.36" cy="13.64" r="0.38" fill="none" stroke="#111" stroke-width="1.6"/><polyline points="61.36,21.27 61.36,12.38" fill="none" stroke="#111" stroke-width="1.6" stroke-linecap="round" stroke-linejoin="round"/><rect x="62.89" y="14.9" width="1.53" height="3.81" fill="none" stroke="#111" stroke-width="1.6"/><polyline points="63.65,18.71 63.65,19.97 88.09,19.97" fill="none" stroke="#111" stroke-width="1.6" stroke-linecap="round" stroke-linejoin="round"/><circle cx="63.65" cy="19.97" r="0.38" fill="none" stroke="#111" stroke-width="1.6"/><rect x="68.24" y="8.56" width="1.52" height="3.82" fill="none" stroke="#111" stroke-width="1.6"/><polyline points="69,7.3 76.64,7.3 76.64,8.56" fill="none" stroke="#111" stroke-width="1.6" stroke-linecap="round" stroke-linejoin="round"/><circle cx="69" cy="7.3" r="0.38" fill="none" stroke="#111" stroke-width="1.6"/><polyline points="69,13.64 71.29,13.64 71.29,14.9" fill="none" stroke="#111" stroke-width="1.6" stroke-linecap="round" stroke-linejoin="round"/><circle cx="69" cy="13.64" r="0.38" fill="none" stroke="#111" stroke-width="1.6"/><polyline points="69,21.27 69,12.38" fill="none" stroke="#111" stroke-width="1.6" stroke-linecap="round" stroke-linejoin="round"/><rect x="70.53" y="14.9" width="1.52" height="3.81" fill="none" stroke="#111" stroke-width="1.6"/><polyline points="71.29,18.71 71.29,19.97 88.09,19.97" fill="none" stroke="#111" stroke-width="1.6" stroke-linecap="round" stroke-linejoin="round"/><circle cx="71.29" cy="19.97" r="0.38" fill="none" stroke="#111" stroke-width="1.6"/><rect x="75.87" y="8.56" width="1.53" height="3.82" fill="none" stroke="#111" stroke-width="1.6"/><polyline points="76.64,7.3 84.27,7.3 84.27,8.56" fill="none" stroke="#111" stroke-width="1.6" stroke-linecap="round" stroke-linejoin="round"/><circle cx="76.64" cy="7.3" r="0.38" fill="none" stroke="#111" stroke-width="1.6"/><polyline points="76.64,13.64 78.93,13.64 78.93,14.9" fill="none" stroke="#111" stroke-width="1.6" stroke-linecap="round" stroke-linejoin="round"/><circle cx="76.64" cy="13.64" r="0.38" fill="none" stroke="#111" stroke-width="1.6"/><polyline points="76.64,21.27 76.64,12.38" fill="none" stroke="#111" stroke-width="1.6" stroke-linecap="round" stroke-linejoin="round"/><rect x="78.16" y="14.9" width="1.53" height="3.81" fill="none" stroke="#111" stroke-width="1.6"/><polyline points="78.93,18.71 78.93,19.97 88.09,19.97" fill="none" stroke="#111" stroke-width="1.6" stroke-linecap="round" stroke-linejoin="round"/><circle cx="78.93" cy="19.97" r="0.38" fill="none" stroke="#111" stroke-width="1.6"/><rect x="83.51" y="8.56" width="1.53" height="3.82" fill="none" stroke="#111" stroke-width="1.6"/><polyline points="84.27,13.64 86.56,13.64 86.56,14.9" fill="none" stroke="#111" stroke-width="1.6" stroke-linecap="round" stroke-linejoin="round"/><circle cx="84.27" cy="13.64" r="0.38" fill="none" stroke="#111" stroke-width="1.6"/><polyline points="84.27,21.27 84.27,12.38" fill="none" stroke="#111" stroke-width="1.6" stroke-linecap="round" stroke-linejoin="round"/><rect x="85.8" y="14.9" width="1.53" height="3.81" fill="none" stroke="#111" stroke-width="1.6"/><polyline points="86.56,18.71 86.56,19.97 88.09,19.97" fill="none" stroke="#111" stroke-width="1.6" stroke-linecap="round" stroke-linejoin="round"/><circle cx="86.56" cy="19.97" r="0.38" fill="none" stroke="#111" stroke-width="1.6"/><polyline points="88.09,19.97 88.09,6" fill="none" stroke="#111" stroke-width="1.6" stroke-linecap="round" stroke-linejoin="round"/></svg>