<svg xmlns="http://www.w3.org/2000/svg" width="96" height="64" viewBox="0 0 96 64"><rect x="6" y="6" width="1.29" height="51.61" fill="none" stroke="#111" stroke-width="1.6"/><rect x="6" y="6.58" width="0.65" height="0.13" fill="none" stroke="#111" stroke-width="1.6"/><rect x="6" y="7.87" width="0.65" height="0.13" fill="none" stroke="#111" stroke-width="1.6"/><rect x="6" y="9.16" width="0.65" height="0.13" fill="none" stroke="#111" stroke-width="1.6"/><rect x="6" y="10.45" width="0.65" height="0.13" fill="none" stroke="#111" stroke-width="1.6"/><rect x="6" y="11.74" width="0.65" height="0.13" fill="none" stroke="#111" stroke-width="1.6"/><rect x="6" y="13.03" width="0.65" height="0.13" fill="none" stroke="#111" stroke-width="1.6"/><rect x="6" y="14.32" width="0.65" height="0.13" fill="none" stroke="#111" stroke-width="1.6"/><rect x="6" y="15.61" width="0.65" height="0.13" fill="none" stroke="#111" stroke-width="1.6"/><rect x="6" y="16.9" width="0.65" height="0.13" fill="none" stroke="#111" stroke-width="1.6"/><rect x="6" y="18.19" width="0.65" height="0.13" fill="none" stroke="#111" stroke-width="1.6"/><rect x="6" y="19.48" width="0.65" height="0.13" fill="none" stroke="#111" stroke-width="1.6"/><rect x="6" y="20.77" width="0.65" height="0.13" fill="none" stroke="#111" stroke-width="1.6"/><rect x="6" y="22.06" width="0.65" height="0.13" fill="none" stroke="#111" stroke-width="1.6"/><rect x="6" y="23.35" width="0.65" height="0.13" fill="none" stroke="#111" stroke-width="1.6"/><rect x="6" y="24.65" width="0.65" height="0.12" fill="none" stroke="#111" stroke-width="1.6"/><rect x="6" y="25.94" width="0.65" height="0.12" fill="none" stroke="#111" stroke-width="1.6"/><rect x="6" y="27.23" width="0.65" height="0.12" fill="none" stroke="#111" stroke-width="1.6"/><rect x="6" y="28.52" width="0.65" height="0.13" fill="none" stroke="#111" stroke-width="1.6"/><rect x="6" y="29.81" width="0.65" height="0.13" fill="none" stroke="#111" stroke-width="1.6"/><rect x="6" y="31.1" width="0.65" height="0.13" fill="none" stroke="#111" stroke-width="1.6"/><rect x="6" y="32.39" width="0.65" height="0.13" fill="none" stroke="#111" stroke-width="1.6"/><rect x="6" y="33.68" width="0.65" height="0.13" fill="none" stroke="#111" stroke-width="1.6"/><rect x="6" y="34.97" width="0.65" height="0.13" fill="none" stroke="#111" stroke-width="1.6"/><rect x="6" y="36.26" width="0.65" height="0.13" fill="none" stroke="#111" stroke-width="1.6"/><rect x="6" y="37.55" width="0.65" height="0.13" fill="none" stroke="#111" stroke-width="1.6"/><rect x="6" y="38.84" width="0.65" height="0.13" fill="none" stroke="#111" stroke-width="1.6"/><rect x="6" y="40.13" width="0.65" height="0.13" fill="none" stroke="#111" stroke-width="1.6"/><rect x="6" y="41.42" width="0.65" height="0.13" fill="none" stroke="#111" stroke-width="1.6"/><rect x="6" y="42.71" width="0.65" height="0.13" fill="none" stroke="#111" stroke-width="1.6"/><rect x="6" y="44" width="0.65" height="0.13" fill="none" stroke="#111" stroke-width="1.6"/><rect x="6" y="45.29" width="0.65" height="0.13" fill="none" stroke="#111" stroke-width="1.6"/><rect x="6" y="46.58" width="0.65" height="0.13" fill="none" stroke="#111" stroke-width="1.6"/><rect x="6" y="47.87" width="0.65" height="0.13" fill="none" stroke="#111" stroke-width="1.6"/><rect x="6" y="49.16" width="0.65" height="0.13" fill="none" stroke="#111" stroke-width="1.6"/><rect x="6" y="50.45" width="0.65" height="0.13" fill="none" stroke="#111" stroke-width="1.6"/><rect x="6" y="51.74" width="0.65" height="0.13" fill="none" stroke="#111" stroke-width="1.6"/><rect x="6" y="53.03" width="0.65" height="0.13" fill="none" stroke="#111" stroke-width="1.6"/><rect x="6" y="54.32" width="0.65" height="0.13" fill="none" stroke="#111" stroke-width="1.6"/><rect x="6" y="55.61" width="0.65" height="0.13" fill="none" stroke="#111" stroke-width="1.6"/><rect x="6" y="56.9" width="0.65" height="0.13" fill="none" stroke="#111" stroke-width="1.6"/><polyline points="6.13,58 7.16,58" fill="none" stroke="#111" stroke-width="1.6" stroke-linecap="round" stroke-linejoin="round"/></svg>