<svg xmlns="http://www.w3.org/2000/svg" width="96" height="64" viewBox="0 0 96 64"><polyline points="6,16.4 14.67,16.4 14.67,25.07 12.93,25.07 12.93,26.8 12.93,26.8" fill="none" stroke="#111" stroke-width="1.6" stroke-linecap="round" stroke-linejoin="round"/><rect x="6" y="26.8" width="17.33" height="6.93" fill="none" stroke="#111" stroke-width="1.6"/><rect x="6" y="33.73" width="17.33" height="3.47" fill="none" stroke="#111" stroke-width="1.6"/><rect x="6" y="37.2" width="17.33" height="3.47" fill="none" stroke="#111" stroke-width="1.6"/><rect x="6" y="40.67" width="17.33" height="3.46" fill="none" stroke="#111" stroke-width="1.6"/><rect x="6" y="44.13" width="17.33" height="3.47" fill="none" stroke="#111" stroke-width="1.6"/><rect x="6" y="47.6" width="17.33" height="3.47" fill="none" stroke="#111" stroke-width="1.6"/><rect x="6" y="51.07" width="17.33" height="3.46" fill="none" stroke="#111" stroke-width="1.6"/><rect x="6" y="54.53" width="0" height="0" fill="none" stroke="#111" stroke-width="1.6"/><rect x="6" y="54.53" width="17.33" height="3.47" fill="none" stroke="#111" stroke-width="1.6"/><polyline points="7.73,26.8 7.73,25.07 6,25.07 6,6 23.33,6 23.33,25.07 21.6,25.07 21.6,26.8 21.6,26.8" fill="none" stroke="#111" stroke-width="1.6" stroke-linecap="round" stroke-linejoin="round"/><polyline points="8.77,19.17 9.81,20.21 8.77,21.25 8.77,21.25" fill="none" stroke="#111" stroke-width="1.6" stroke-linecap="round" stroke-linejoin="round"/><polyline points="8.77,21.6 9.81,20.56 9.81,20.56" fill="none" stroke="#111" stroke-width="1.6" stroke-linecap="round" stroke-linejoin="round"/><polyline points="14.67,18.13 16.4,19.87 14.67,21.6 14.67,21.6" fill="none" stroke="#111" stroke-width="1.6" stroke-linecap="round" stroke-linejoin="round"/></svg>