<svg xmlns="http://www.w3.org/2000/svg" width="96" height="64" viewBox="0 0 96 64"><polyline points="6,6 6,18.24 12.12,18.24 12.12,21.29 6,21.29 6,58 39.65,58 39.65,21.29 33.53,21.29 33.53,18.24 39.65,18.24 39.65,6 6,6 6,6" fill="none" stroke="#111" stroke-width="1.6" stroke-linecap="round" stroke-linejoin="round"/><polyline points="6,27.41 39.65,27.41 39.65,27.41" fill="none" stroke="#111" stroke-width="1.6" stroke-linecap="round" stroke-linejoin="round"/><polyline points="6,39.65 39.65,39.65 39.65,39.65" fill="none" stroke="#111" stroke-width="1.6" stroke-linecap="round" stroke-linejoin="round"/><polyline points="6,51.88 39.65,51.88 39.65,51.88" fill="none" stroke="#111" stroke-width="1.6" stroke-linecap="round" stroke-linejoin="round"/><polyline points="12.12,21.29 33.53,21.29 33.53,21.29" fill="none" stroke="#111" stroke-width="1.6" stroke-linecap="round" stroke-linejoin="round"/><polyline points="18.24,22.52 18.24,26.19 20.07,24.35 18.24,22.52 18.24,22.52" fill="none" stroke="#111" stroke-width="1.6" stroke-linecap="round" stroke-linejoin="round"/><polyline points="25.58,22.52 29.25,22.52 27.41,26.19 25.58,22.52 25.58,22.52" fill="none" stroke="#111" stroke-width="1.6" stroke-linecap="round" stroke-linejoin="round"/><polyline points="39.65,33.53 6,33.53 6,33.53" fill="none" stroke="#111" stroke-width="1.6" stroke-linecap="round" stroke-linejoin="round"/><polyline points="39.65,45.76 6,45.76 6,45.76" fill="none" stroke="#111" stroke-width="1.6" stroke-linecap="round" stroke-linejoin="round"/></svg>