<svg xmlns="http://www.w3.org/2000/svg" width="96" height="64" viewBox="0 0 96 64"><rect x="6" y="6" width="5.78" height="52" fill="none" stroke="#111" stroke-width="1.6"/><polyline points="7.68,8.14 9.64,10.04" fill="none" stroke="#111" stroke-width="1.6" stroke-linecap="round" stroke-linejoin="round"/><polyline points="7.68,13.92 9.64,15.82" fill="none" stroke="#111" stroke-width="1.6" stroke-linecap="round" stroke-linejoin="round"/><polyline points="7.68,19.69 9.64,21.6" fill="none" stroke="#111" stroke-width="1.6" stroke-linecap="round" stroke-linejoin="round"/><polyline points="7.68,25.47 9.64,27.38" fill="none" stroke="#111" stroke-width="1.6" stroke-linecap="round" stroke-linejoin="round"/><polyline points="7.68,31.25 9.64,33.16" fill="none" stroke="#111" stroke-width="1.6" stroke-linecap="round" stroke-linejoin="round"/><polyline points="7.68,37.03 9.64,38.93" fill="none" stroke="#111" stroke-width="1.6" stroke-linecap="round" stroke-linejoin="round"/><polyline points="7.68,42.8 9.64,44.71" fill="none" stroke="#111" stroke-width="1.6" stroke-linecap="round" stroke-linejoin="round"/><polyline points="7.68,48.58 9.64,50.49" fill="none" stroke="#111" stroke-width="1.6" stroke-linecap="round" stroke-linejoin="round"/><polyline points="7.68,54.36 9.64,56.27" fill="none" stroke="#111" stroke-width="1.6" stroke-linecap="round" stroke-linejoin="round"/><polyline points="8.08,7.73 10.04,9.64" fill="none" stroke="#111" stroke-width="1.6" stroke-linecap="round" stroke-linejoin="round"/><polyline points="8.08,13.51 10.04,15.42" fill="none" stroke="#111" stroke-width="1.6" stroke-linecap="round" stroke-linejoin="round"/><polyline points="8.08,19.29 10.04,21.2" fill="none" stroke="#111" stroke-width="1.6" stroke-linecap="round" stroke-linejoin="round"/><polyline points="8.08,25.07 10.04,26.97" fill="none" stroke="#111" stroke-width="1.6" stroke-linecap="round" stroke-linejoin="round"/><polyline points="8.08,30.84 10.04,32.75" fill="none" stroke="#111" stroke-width="1.6" stroke-linecap="round" stroke-linejoin="round"/><polyline points="8.08,36.62 10.04,38.53" fill="none" stroke="#111" stroke-width="1.6" stroke-linecap="round" stroke-linejoin="round"/><polyline points="8.08,42.4 10.04,44.31" fill="none" stroke="#111" stroke-width="1.6" stroke-linecap="round" stroke-linejoin="round"/><polyline points="8.08,48.18 10.04,50.08" fill="none" stroke="#111" stroke-width="1.6" stroke-linecap="round" stroke-linejoin="round"/><polyline points="8.08,53.96 10.04,55.86" fill="none" stroke="#111" stroke-width="1.6" stroke-linecap="round" stroke-linejoin="round"/><circle cx="8.89" cy="8.89" r="1.44" fill="none" stroke="#111" stroke-width="1.6"/><circle cx="8.89" cy="14.67" r="1.44" fill="none" stroke="#111" stroke-width="1.6"/><circle cx="8.89" cy="20.44" r="1.44" fill="none" stroke="#111" stroke-width="1.6"/><circle cx="8.89" cy="26.22" r="1.44" fill="none" stroke="#111" stroke-width="1.6"/><circle cx="8.89" cy="32" r="1.44" fill="none" stroke="#111" stroke-width="1.6"/><circle cx="8.89" cy="37.78" r="1.44" fill="none" stroke="#111" stroke-width="1.6"/><circle cx="8.89" cy="43.56" r="1.44" fill="none" stroke="#111" stroke-width="1.6"/><circle cx="8.89" cy="49.33" r="1.44" fill="none" stroke="#111" stroke-width="1.6"/><circle cx="8.89" cy="55.11" r="1.44" fill="none" stroke="#111" stroke-width="1.6"/></svg>