<svg xmlns="http://www.w3.org/2000/svg" width="96" height="64" viewBox="0 0 96 64"><polyline points="6,28.29 13.43,28.29" fill="none" stroke="#111" stroke-width="1.6" stroke-linecap="round" stroke-linejoin="round"/><polyline points="6,58 13.43,58" fill="none" stroke="#111" stroke-width="1.6" stroke-linecap="round" stroke-linejoin="round"/><polyline points="20.86,6 28.29,9.71 20.86,13.43 20.86,6" fill="none" stroke="#111" stroke-width="1.6" stroke-linecap="round" stroke-linejoin="round"/><polyline points="20.86,13.43 28.29,17.14 20.86,20.86 20.86,13.43" fill="none" stroke="#111" stroke-width="1.6" stroke-linecap="round" stroke-linejoin="round"/><polyline points="20.86,13.43 13.43,13.43 13.43,28.29 13.43,43.14 20.86,43.14" fill="none" stroke="#111" stroke-width="1.6" stroke-linecap="round" stroke-linejoin="round"/><polyline points="20.86,35.71 20.86,43.14 28.29,39.43 20.86,35.71" fill="none" stroke="#111" stroke-width="1.6" stroke-linecap="round" stroke-linejoin="round"/><polyline points="20.86,43.14 28.29,46.86 20.86,50.57 20.86,43.14" fill="none" stroke="#111" stroke-width="1.6" stroke-linecap="round" stroke-linejoin="round"/><circle cx="28.29" cy="20.11" r="2.23" fill="none" stroke="#111" stroke-width="1.6"/><polyline points="28.29,30.51 17.14,30.51 17.14,58 13.43,58" fill="none" stroke="#111" stroke-width="1.6" stroke-linecap="round" stroke-linejoin="round"/><polyline points="28.29,39.43 28.29,22.34" fill="none" stroke="#111" stroke-width="1.6" stroke-linecap="round" stroke-linejoin="round"/><polyline points="35.71,13.43 35.71,6 28.29,9.71 35.71,13.43" fill="none" stroke="#111" stroke-width="1.6" stroke-linecap="round" stroke-linejoin="round"/><polyline points="35.71,13.43 35.71,20.86 28.29,17.14 35.71,13.43" fill="none" stroke="#111" stroke-width="1.6" stroke-linecap="round" stroke-linejoin="round"/><polyline points="35.71,35.71 35.71,43.14 28.29,39.43 35.71,35.71" fill="none" stroke="#111" stroke-width="1.6" stroke-linecap="round" stroke-linejoin="round"/><polyline points="35.71,43.14 28.29,46.86 35.71,50.57 35.71,43.14" fill="none" stroke="#111" stroke-width="1.6" stroke-linecap="round" stroke-linejoin="round"/><polyline points="43.14,13.43 35.71,13.43" fill="none" stroke="#111" stroke-width="1.6" stroke-linecap="round" stroke-linejoin="round"/><polyline points="43.14,43.14 35.71,43.14" fill="none" stroke="#111" stroke-width="1.6" stroke-linecap="round" stroke-linejoin="round"/><rect x="20.86" y="13.43" width="14.85" height="29.71" fill="none" stroke="#111" stroke-width="1.6"/></svg>