<svg xmlns="http://www.w3.org/2000/svg" width="96" height="64" viewBox="0 0 96 64"><rect x="6" y="6" width="2" height="52" fill="none" stroke="#111" stroke-width="1.6"/><rect x="6" y="6.45" width="0.5" height="0.1" fill="none" stroke="#111" stroke-width="1.6"/><rect x="6" y="7.45" width="0.5" height="0.1" fill="none" stroke="#111" stroke-width="1.6"/><rect x="6" y="8.45" width="0.5" height="0.1" fill="none" stroke="#111" stroke-width="1.6"/><rect x="6" y="9.45" width="0.5" height="0.1" fill="none" stroke="#111" stroke-width="1.6"/><rect x="6" y="10.45" width="0.5" height="0.1" fill="none" stroke="#111" stroke-width="1.6"/><rect x="6" y="11.45" width="0.5" height="0.1" fill="none" stroke="#111" stroke-width="1.6"/><rect x="6" y="12.45" width="0.5" height="0.1" fill="none" stroke="#111" stroke-width="1.6"/><rect x="6" y="13.45" width="0.5" height="0.1" fill="none" stroke="#111" stroke-width="1.6"/><rect x="6" y="14.45" width="0.5" height="0.1" fill="none" stroke="#111" stroke-width="1.6"/><rect x="6" y="15.45" width="0.5" height="0.1" fill="none" stroke="#111" stroke-width="1.6"/><rect x="6" y="16.45" width="0.5" height="0.1" fill="none" stroke="#111" stroke-width="1.6"/><rect x="6" y="17.45" width="0.5" height="0.1" fill="none" stroke="#111" stroke-width="1.6"/><rect x="6" y="18.45" width="0.5" height="0.1" fill="none" stroke="#111" stroke-width="1.6"/><rect x="6" y="19.45" width="0.5" height="0.1" fill="none" stroke="#111" stroke-width="1.6"/><rect x="6" y="20.45" width="0.5" height="0.1" fill="none" stroke="#111" stroke-width="1.6"/><rect x="6" y="21.45" width="0.5" height="0.1" fill="none" stroke="#111" stroke-width="1.6"/><rect x="6" y="22.45" width="0.5" height="0.1" fill="none" stroke="#111" stroke-width="1.6"/><rect x="6" y="23.45" width="0.5" height="0.1" fill="none" stroke="#111" stroke-width="1.6"/><rect x="6" y="24.45" width="0.5" height="0.1" fill="none" stroke="#111" stroke-width="1.6"/><rect x="6" y="25.45" width="0.5" height="0.1" fill="none" stroke="#111" stroke-width="1.6"/><rect x="6" y="26.45" width="0.5" height="0.1" fill="none" stroke="#111" stroke-width="1.6"/><rect x="6" y="27.45" width="0.5" height="0.1" fill="none" stroke="#111" stroke-width="1.6"/><rect x="6" y="28.45" width="0.5" height="0.1" fill="none" stroke="#111" stroke-width="1.6"/><rect x="6" y="29.45" width="0.5" height="0.1" fill="none" stroke="#111" stroke-width="1.6"/><rect x="6" y="30.45" width="0.5" height="0.1" fill="none" stroke="#111" stroke-width="1.6"/><rect x="6" y="31.45" width="0.5" height="0.1" fill="none" stroke="#111" stroke-width="1.6"/><rect x="6" y="32.45" width="0.5" height="0.1" fill="none" stroke="#111" stroke-width="1.6"/><rect x="6" y="33.45" width="0.5" height="0.1" fill="none" stroke="#111" stroke-width="1.6"/><rect x="6" y="34.45" width="0.5" height="0.1" fill="none" stroke="#111" stroke-width="1.6"/><rect x="6" y="35.45" width="0.5" height="0.1" fill="none" stroke="#111" stroke-width="1.6"/><rect x="6" y="36.45" width="0.5" height="0.1" fill="none" stroke="#111" stroke-width="1.6"/><rect x="6" y="37.45" width="0.5" height="0.1" fill="none" stroke="#111" stroke-width="1.6"/><rect x="6" y="38.45" width="0.5" height="0.1" fill="none" stroke="#111" stroke-width="1.6"/><rect x="6" y="39.45" width="0.5" height="0.1" fill="none" stroke="#111" stroke-width="1.6"/><rect x="6" y="40.45" width="0.5" height="0.1" fill="none" stroke="#111" stroke-width="1.6"/><rect x="6" y="41.45" width="0.5" height="0.1" fill="none" stroke="#111" stroke-width="1.6"/><rect x="6" y="42.45" width="0.5" height="0.1" fill="none" stroke="#111" stroke-width="1.6"/><rect x="6" y="43.45" width="0.5" height="0.1" fill="none" stroke="#111" stroke-width="1.6"/><rect x="6" y="44.45" width="0.5" height="0.1" fill="none" stroke="#111" stroke-width="1.6"/><rect x="6" y="45.45" width="0.5" height="0.1" fill="none" stroke="#111" stroke-width="1.6"/><rect x="6" y="46.45" width="0.5" height="0.1" fill="none" stroke="#111" stroke-width="1.6"/><rect x="6" y="47.45" width="0.5" height="0.1" fill="none" stroke="#111" stroke-width="1.6"/><rect x="6" y="48.45" width="0.5" height="0.1" fill="none" stroke="#111" stroke-width="1.6"/><rect x="6" y="49.45" width="0.5" height="0.1" fill="none" stroke="#111" stroke-width="1.6"/><rect x="6" y="50.45" width="0.5" height="0.1" fill="none" stroke="#111" stroke-width="1.6"/><rect x="6" y="51.45" width="0.5" height="0.1" fill="none" stroke="#111" stroke-width="1.6"/><rect x="6" y="52.45" width="0.5" height="0.1" fill="none" stroke="#111" stroke-width="1.6"/><rect x="6" y="53.45" width="0.5" height="0.1" fill="none" stroke="#111" stroke-width="1.6"/><rect x="6" y="54.45" width="0.5" height="0.1" fill="none" stroke="#111" stroke-width="1.6"/><rect x="6" y="55.45" width="0.5" height="0.1" fill="none" stroke="#111" stroke-width="1.6"/><rect x="6" y="56.45" width="0.5" height="0.1" fill="none" stroke="#111" stroke-width="1.6"/><rect x="6" y="57.45" width="0.5" height="0.1" fill="none" stroke="#111" stroke-width="1.6"/><rect x="7.5" y="6.45" width="0.5" height="0.1" fill="none" stroke="#111" stroke-width="1.6"/><rect x="7.5" y="7.45" width="0.5" height="0.1" fill="none" stroke="#111" stroke-width="1.6"/><rect x="7.5" y="8.45" width="0.5" height="0.1" fill="none" stroke="#111" stroke-width="1.6"/><rect x="7.5" y="9.45" width="0.5" height="0.1" fill="none" stroke="#111" stroke-width="1.6"/><rect x="7.5" y="10.45" width="0.5" height="0.1" fill="none" stroke="#111" stroke-width="1.6"/><rect x="7.5" y="11.45" width="0.5" height="0.1" fill="none" stroke="#111" stroke-width="1.6"/><rect x="7.5" y="12.45" width="0.5" height="0.1" fill="none" stroke="#111" stroke-width="1.6"/><rect x="7.5" y="13.45" width="0.5" height="0.1" fill="none" stroke="#111" stroke-width="1.6"/><rect x="7.5" y="14.45" width="0.5" height="0.1" fill="none" stroke="#111" stroke-width="1.6"/><rect x="7.5" y="15.45" width="0.5" height="0.1" fill="none" stroke="#111" stroke-width="1.6"/><rect x="7.5" y="16.45" width="0.5" height="0.1" fill="none" stroke="#111" stroke-width="1.6"/><rect x="7.5" y="17.45" width="0.5" height="0.1" fill="none" stroke="#111" stroke-width="1.6"/><rect x="7.5" y="18.45" width="0.5" height="0.1" fill="none" stroke="#111" stroke-width="1.6"/><rect x="7.5" y="19.45" width="0.5" height="0.1" fill="none" stroke="#111" stroke-width="1.6"/><rect x="7.5" y="20.45" width="0.5" height="0.1" fill="none" stroke="#111" stroke-width="1.6"/><rect x="7.5" y="21.45" width="0.5" height="0.1" fill="none" stroke="#111" stroke-width="1.6"/><rect x="7.5" y="22.45" width="0.5" height="0.1" fill="none" stroke="#111" stroke-width="1.6"/><rect x="7.5" y="23.45" width="0.5" height="0.1" fill="none" stroke="#111" stroke-width="1.6"/><rect x="7.5" y="24.45" width="0.5" height="0.1" fill="none" stroke="#111" stroke-width="1.6"/><rect x="7.5" y="25.45" width="0.5" height="0.1" fill="none" stroke="#111" stroke-width="1.6"/><rect x="7.5" y="26.45" width="0.5" height="0.1" fill="none" stroke="#111" stroke-width="1.6"/><rect x="7.5" y="27.45" width="0.5" height="0.1" fill="none" stroke="#111" stroke-width="1.6"/><rect x="7.5" y="28.45" width="0.5" height="0.1" fill="none" stroke="#111" stroke-width="1.6"/><rect x="7.5" y="29.45" width="0.5" height="0.1" fill="none" stroke="#111" stroke-width="1.6"/><rect x="7.5" y="30.45" width="0.5" height="0.1" fill="none" stroke="#111" stroke-width="1.6"/><rect x="7.5" y="31.45" width="0.5" height="0.1" fill="none" stroke="#111" stroke-width="1.6"/><rect x="7.5" y="32.45" width="0.5" height="0.1" fill="none" stroke="#111" stroke-width="1.6"/><rect x="7.5" y="33.45" width="0.5" height="0.1" fill="none" stroke="#111" stroke-width="1.6"/><rect x="7.5" y="34.45" width="0.5" height="0.1" fill="none" stroke="#111" stroke-width="1.6"/><rect x="7.5" y="35.45" width="0.5" height="0.1" fill="none" stroke="#111" stroke-width="1.6"/><rect x="7.5" y="36.45" width="0.5" height="0.1" fill="none" stroke="#111" stroke-width="1.6"/><rect x="7.5" y="37.45" width="0.5" height="0.1" fill="none" stroke="#111" stroke-width="1.6"/><rect x="7.5" y="38.45" width="0.5" height="0.1" fill="none" stroke="#111" stroke-width="1.6"/><rect x="7.5" y="39.45" width="0.5" height="0.1" fill="none" stroke="#111" stroke-width="1.6"/><rect x="7.5" y="40.45" width="0.5" height="0.1" fill="none" stroke="#111" stroke-width="1.6"/><rect x="7.5" y="41.45" width="0.5" height="0.1" fill="none" stroke="#111" stroke-width="1.6"/><rect x="7.5" y="42.45" width="0.5" height="0.1" fill="none" stroke="#111" stroke-width="1.6"/><rect x="7.5" y="43.45" width="0.5" height="0.1" fill="none" stroke="#111" stroke-width="1.6"/><rect x="7.5" y="44.45" width="0.5" height="0.1" fill="none" stroke="#111" stroke-width="1.6"/><rect x="7.5" y="45.45" width="0.5" height="0.1" fill="none" stroke="#111" stroke-width="1.6"/><rect x="7.5" y="46.45" width="0.5" height="0.1" fill="none" stroke="#111" stroke-width="1.6"/><rect x="7.5" y="47.45" width="0.5" height="0.1" fill="none" stroke="#111" stroke-width="1.6"/><rect x="7.5" y="48.45" width="0.5" height="0.1" fill="none" stroke="#111" stroke-width="1.6"/><rect x="7.5" y="49.45" width="0.5" height="0.1" fill="none" stroke="#111" stroke-width="1.6"/><rect x="7.5" y="50.45" width="0.5" height="0.1" fill="none" stroke="#111" stroke-width="1.6"/><rect x="7.5" y="51.45" width="0.5" height="0.1" fill="none" stroke="#111" stroke-width="1.6"/><rect x="7.5" y="52.45" width="0.5" height="0.1" fill="none" stroke="#111" stroke-width="1.6"/><rect x="7.5" y="53.45" width="0.5" height="0.1" fill="none" stroke="#111" stroke-width="1.6"/><rect x="7.5" y="54.45" width="0.5" height="0.1" fill="none" stroke="#111" stroke-width="1.6"/><rect x="7.5" y="55.45" width="0.5" height="0.1" fill="none" stroke="#111" stroke-width="1.6"/><rect x="7.5" y="56.45" width="0.5" height="0.1" fill="none" stroke="#111" stroke-width="1.6"/><rect x="7.5" y="57.45" width="0.5" height="0.1" fill="none" stroke="#111" stroke-width="1.6"/></svg>