<svg xmlns="http://www.w3.org/2000/svg" width="96" height="64" viewBox="0 0 96 64"><rect x="6" y="20.18" width="18.91" height="4.73" fill="none" stroke="#111" stroke-width="1.6"/><rect x="6" y="24.91" width="18.91" height="4.73" fill="none" stroke="#111" stroke-width="1.6"/><rect x="6" y="29.64" width="18.91" height="4.72" fill="none" stroke="#111" stroke-width="1.6"/><rect x="6" y="34.36" width="18.91" height="4.73" fill="none" stroke="#111" stroke-width="1.6"/><rect x="6" y="39.09" width="18.91" height="4.73" fill="none" stroke="#111" stroke-width="1.6"/><rect x="6" y="43.82" width="18.91" height="4.73" fill="none" stroke="#111" stroke-width="1.6"/><rect x="6" y="48.55" width="18.91" height="4.72" fill="none" stroke="#111" stroke-width="1.6"/><rect x="6" y="53.27" width="18.91" height="4.73" fill="none" stroke="#111" stroke-width="1.6"/><polyline points="8.36,20.18 8.36,17.82 6,17.82 6,6 24.91,6 24.91,17.82 22.55,17.82 22.55,20.18 22.55,20.18" fill="none" stroke="#111" stroke-width="1.6" stroke-linecap="round" stroke-linejoin="round"/><polyline points="19.24,21.13 23.02,21.13 21.13,23.96 19.24,21.13 19.24,21.13" fill="none" stroke="#111" stroke-width="1.6" stroke-linecap="round" stroke-linejoin="round"/></svg>