<svg xmlns="http://www.w3.org/2000/svg" width="96" height="64" viewBox="0 0 96 64"><rect x="6" y="6" width="56.73" height="47.27" fill="none" stroke="#111" stroke-width="1.6"/><circle cx="15.45" cy="12.62" r="1.89" fill="none" stroke="#111" stroke-width="1.6"/><polyline points="15.45,12.62 53.27,12.62" fill="none" stroke="#111" stroke-width="1.6" stroke-linecap="round" stroke-linejoin="round"/><polyline points="15.45,12.62 15.45,18.29 21.13,20.94 9.78,25.85 21.13,30.77 9.78,35.88 21.13,40.98 9.78,45.9 15.45,48.55 15.45,58" fill="none" stroke="#111" stroke-width="1.6" stroke-linecap="round" stroke-linejoin="round"/><circle cx="34.36" cy="12.62" r="1.89" fill="none" stroke="#111" stroke-width="1.6"/><polyline points="34.36,12.62 34.36,18.29 40.04,20.94 28.69,25.85 40.04,30.77 28.69,35.88 40.04,40.98 28.69,45.9 34.36,48.55 34.36,58" fill="none" stroke="#111" stroke-width="1.6" stroke-linecap="round" stroke-linejoin="round"/><polyline points="53.27,12.62 53.27,18.29 58.95,20.94 47.6,25.85 58.95,30.77 47.6,35.88 58.95,40.98 47.6,45.9 53.27,48.55 53.27,58" fill="none" stroke="#111" stroke-width="1.6" stroke-linecap="round" stroke-linejoin="round"/></svg>