<svg xmlns="http://www.w3.org/2000/svg" width="96" height="64" viewBox="0 0 96 64"><rect x="6" y="6" width="2.6" height="52" fill="none" stroke="#111" stroke-width="1.6"/><rect x="6.26" y="6.26" width="2.08" height="51.48" fill="none" stroke="#111" stroke-width="1.6"/><rect x="6.26" y="7.17" width="1.3" height="0.26" fill="none" stroke="#111" stroke-width="1.6"/><rect x="6.26" y="9.77" width="1.3" height="0.26" fill="none" stroke="#111" stroke-width="1.6"/><rect x="6.26" y="12.37" width="1.3" height="0.26" fill="none" stroke="#111" stroke-width="1.6"/><rect x="6.26" y="14.97" width="1.3" height="0.26" fill="none" stroke="#111" stroke-width="1.6"/><rect x="6.26" y="17.57" width="1.3" height="0.26" fill="none" stroke="#111" stroke-width="1.6"/><rect x="6.26" y="20.17" width="1.3" height="0.26" fill="none" stroke="#111" stroke-width="1.6"/><rect x="6.26" y="22.77" width="1.3" height="0.26" fill="none" stroke="#111" stroke-width="1.6"/><rect x="6.26" y="25.37" width="1.3" height="0.26" fill="none" stroke="#111" stroke-width="1.6"/><rect x="6.26" y="27.97" width="1.3" height="0.26" fill="none" stroke="#111" stroke-width="1.6"/><rect x="6.26" y="30.57" width="1.3" height="0.26" fill="none" stroke="#111" stroke-width="1.6"/><rect x="6.26" y="33.17" width="1.3" height="0.26" fill="none" stroke="#111" stroke-width="1.6"/><rect x="6.26" y="35.77" width="1.3" height="0.26" fill="none" stroke="#111" stroke-width="1.6"/><rect x="6.26" y="38.37" width="1.3" height="0.26" fill="none" stroke="#111" stroke-width="1.6"/><rect x="6.26" y="40.97" width="1.3" height="0.26" fill="none" stroke="#111" stroke-width="1.6"/><rect x="6.26" y="43.57" width="1.3" height="0.26" fill="none" stroke="#111" stroke-width="1.6"/><rect x="6.26" y="46.17" width="1.3" height="0.26" fill="none" stroke="#111" stroke-width="1.6"/><rect x="6.26" y="48.77" width="1.3" height="0.26" fill="none" stroke="#111" stroke-width="1.6"/><rect x="6.26" y="51.37" width="1.3" height="0.26" fill="none" stroke="#111" stroke-width="1.6"/><rect x="6.26" y="53.97" width="1.3" height="0.26" fill="none" stroke="#111" stroke-width="1.6"/><rect x="6.26" y="56.57" width="1.3" height="0.26" fill="none" stroke="#111" stroke-width="1.6"/></svg>