<svg xmlns="http://www.w3.org/2000/svg" width="96" height="64" viewBox="0 0 96 64"><rect x="6" y="28.29" width="37.14" height="29.71" fill="none" stroke="#111" stroke-width="1.6"/><polyline points="6,35.71 43.14,35.71 43.14,35.71" fill="none" stroke="#111" stroke-width="1.6" stroke-linecap="round" stroke-linejoin="round"/><polyline points="6,43.14 43.14,43.14 43.14,43.14" fill="none" stroke="#111" stroke-width="1.6" stroke-linecap="round" stroke-linejoin="round"/><polyline points="6,50.57 43.14,50.57 43.14,50.57" fill="none" stroke="#111" stroke-width="1.6" stroke-linecap="round" stroke-linejoin="round"/><polyline points="9.71,28.29 9.71,24.57 6,24.57 6,6 43.14,6 43.14,24.57 39.43,24.57 39.43,28.29 39.43,28.29" fill="none" stroke="#111" stroke-width="1.6" stroke-linecap="round" stroke-linejoin="round"/><polyline points="15.66,34.23 17.14,34.23 18.63,29.77 19.37,29.77 17.89,29.77 16.4,34.23 16.4,34.23" fill="none" stroke="#111" stroke-width="1.6" stroke-linecap="round" stroke-linejoin="round"/><polyline points="20.86,29.77 20.86,34.23 23.09,32 20.86,29.77 20.86,29.77" fill="none" stroke="#111" stroke-width="1.6" stroke-linecap="round" stroke-linejoin="round"/><polyline points="23.09,15.66 24.57,15.66 26.06,11.2 26.8,11.2 25.31,11.2 23.83,15.66 23.83,15.66" fill="none" stroke="#111" stroke-width="1.6" stroke-linecap="round" stroke-linejoin="round"/><polyline points="23.09,23.09 24.57,23.09 26.06,18.63 26.8,18.63 25.31,18.63 23.83,23.09 23.83,23.09" fill="none" stroke="#111" stroke-width="1.6" stroke-linecap="round" stroke-linejoin="round"/><polyline points="26.06,29.77 30.51,29.77 28.29,34.23 26.06,29.77 26.06,29.77" fill="none" stroke="#111" stroke-width="1.6" stroke-linecap="round" stroke-linejoin="round"/></svg>