<svg xmlns="http://www.w3.org/2000/svg" width="96" height="64" viewBox="0 0 96 64"><rect x="6" y="6" width="17.33" height="52" fill="none" stroke="#111" stroke-width="1.6"/><rect x="12.5" y="40.88" width="8.45" height="10.4" fill="none" stroke="#111" stroke-width="1.6"/><polyline points="12.5,46.08 13.8,46.08" fill="none" stroke="#111" stroke-width="1.6" stroke-linecap="round" stroke-linejoin="round"/><polyline points="12.93,40.88 12.93,40.45 21.38,40.45 21.38,50.85 20.95,50.85" fill="none" stroke="#111" stroke-width="1.6" stroke-linecap="round" stroke-linejoin="round"/><polyline points="13.37,40.45 13.37,40.02 21.82,40.02 21.82,50.42 21.38,50.42" fill="none" stroke="#111" stroke-width="1.6" stroke-linecap="round" stroke-linejoin="round"/><polyline points="13.8,40.02 13.8,39.58 22.25,39.58 22.25,49.98 21.82,49.98" fill="none" stroke="#111" stroke-width="1.6" stroke-linecap="round" stroke-linejoin="round"/><polyline points="13.8,42.83 13.8,49.33" fill="none" stroke="#111" stroke-width="1.6" stroke-linecap="round" stroke-linejoin="round"/><polyline points="14.45,41.75 14.45,43.92" fill="none" stroke="#111" stroke-width="1.6" stroke-linecap="round" stroke-linejoin="round"/><polyline points="14.45,45 14.45,47.17" fill="none" stroke="#111" stroke-width="1.6" stroke-linecap="round" stroke-linejoin="round"/><polyline points="14.45,48.25 14.45,50.42" fill="none" stroke="#111" stroke-width="1.6" stroke-linecap="round" stroke-linejoin="round"/><polyline points="14.45,49.33 19,49.33" fill="none" stroke="#111" stroke-width="1.6" stroke-linecap="round" stroke-linejoin="round"/><polyline points="14.67,46.08 15.97,45.43" fill="none" stroke="#111" stroke-width="1.6" stroke-linecap="round" stroke-linejoin="round"/><polyline points="14.67,46.08 15.97,46.73" fill="none" stroke="#111" stroke-width="1.6" stroke-linecap="round" stroke-linejoin="round"/><polyline points="14.67,46.08 16.83,46.08" fill="none" stroke="#111" stroke-width="1.6" stroke-linecap="round" stroke-linejoin="round"/><polyline points="16.83,42.83 16.83,25.5 23.33,25.5" fill="none" stroke="#111" stroke-width="1.6" stroke-linecap="round" stroke-linejoin="round"/><circle cx="16.83" cy="42.83" r="0.22" fill="none" stroke="#111" stroke-width="1.6"/><polyline points="16.83,46.08 16.83,47.17 16.83,49.33" fill="none" stroke="#111" stroke-width="1.6" stroke-linecap="round" stroke-linejoin="round"/><circle cx="16.83" cy="49.33" r="0.22" fill="none" stroke="#111" stroke-width="1.6"/><polyline points="17.92,45 20.08,45" fill="none" stroke="#111" stroke-width="1.6" stroke-linecap="round" stroke-linejoin="round"/><polyline points="17.92,51.28 17.92,55.83" fill="none" stroke="#111" stroke-width="1.6" stroke-linecap="round" stroke-linejoin="round"/><circle cx="17.92" cy="55.83" r="0.22" fill="none" stroke="#111" stroke-width="1.6"/><polyline points="19,42.83 14.45,42.83" fill="none" stroke="#111" stroke-width="1.6" stroke-linecap="round" stroke-linejoin="round"/><polyline points="19,42.83 19,42.83" fill="none" stroke="#111" stroke-width="1.6" stroke-linecap="round" stroke-linejoin="round"/><polyline points="19,42.83 19,49.33" fill="none" stroke="#111" stroke-width="1.6" stroke-linecap="round" stroke-linejoin="round"/><polyline points="19,45 17.92,47.17 20.08,47.17 19,45" fill="none" stroke="#111" stroke-width="1.6" stroke-linecap="round" stroke-linejoin="round"/><polyline points="19,55.83 19,51.28" fill="none" stroke="#111" stroke-width="1.6" stroke-linecap="round" stroke-linejoin="round"/><circle cx="19" cy="55.83" r="0.22" fill="none" stroke="#111" stroke-width="1.6"/><polyline points="20.08,55.83 20.08,51.28" fill="none" stroke="#111" stroke-width="1.6" stroke-linecap="round" stroke-linejoin="round"/><circle cx="20.08" cy="55.83" r="0.22" fill="none" stroke="#111" stroke-width="1.6"/><polyline points="23.33,29.83 17.92,29.83 17.92,40.88" fill="none" stroke="#111" stroke-width="1.6" stroke-linecap="round" stroke-linejoin="round"/><polyline points="23.33,34.17 19,34.17 19,40.45" fill="none" stroke="#111" stroke-width="1.6" stroke-linecap="round" stroke-linejoin="round"/><polyline points="23.33,38.5 20.08,38.5 20.08,40.02" fill="none" stroke="#111" stroke-width="1.6" stroke-linecap="round" stroke-linejoin="round"/><polyline points="23.33,55.83 16.83,55.83 16.83,49.33" fill="none" stroke="#111" stroke-width="1.6" stroke-linecap="round" stroke-linejoin="round"/></svg>