<svg xmlns="http://www.w3.org/2000/svg" width="96" height="64" viewBox="0 0 96 64"><rect x="6" y="6" width="8.67" height="52" fill="none" stroke="#111" stroke-width="1.6"/><polyline points="8.51,9.21 11.46,12.07" fill="none" stroke="#111" stroke-width="1.6" stroke-linecap="round" stroke-linejoin="round"/><polyline points="8.51,17.87 11.46,20.73" fill="none" stroke="#111" stroke-width="1.6" stroke-linecap="round" stroke-linejoin="round"/><polyline points="8.51,26.54 11.46,29.4" fill="none" stroke="#111" stroke-width="1.6" stroke-linecap="round" stroke-linejoin="round"/><polyline points="8.51,35.21 11.46,38.07" fill="none" stroke="#111" stroke-width="1.6" stroke-linecap="round" stroke-linejoin="round"/><polyline points="8.51,43.87 11.46,46.73" fill="none" stroke="#111" stroke-width="1.6" stroke-linecap="round" stroke-linejoin="round"/><polyline points="8.51,52.54 11.46,55.4" fill="none" stroke="#111" stroke-width="1.6" stroke-linecap="round" stroke-linejoin="round"/><polyline points="9.12,8.6 12.07,11.46" fill="none" stroke="#111" stroke-width="1.6" stroke-linecap="round" stroke-linejoin="round"/><polyline points="9.12,17.27 12.07,20.13" fill="none" stroke="#111" stroke-width="1.6" stroke-linecap="round" stroke-linejoin="round"/><polyline points="9.12,25.93 12.07,28.79" fill="none" stroke="#111" stroke-width="1.6" stroke-linecap="round" stroke-linejoin="round"/><polyline points="9.12,34.6 12.07,37.46" fill="none" stroke="#111" stroke-width="1.6" stroke-linecap="round" stroke-linejoin="round"/><polyline points="9.12,43.27 12.07,46.13" fill="none" stroke="#111" stroke-width="1.6" stroke-linecap="round" stroke-linejoin="round"/><polyline points="9.12,51.93 12.07,54.79" fill="none" stroke="#111" stroke-width="1.6" stroke-linecap="round" stroke-linejoin="round"/><circle cx="10.33" cy="10.33" r="2.17" fill="none" stroke="#111" stroke-width="1.6"/><circle cx="10.33" cy="19" r="2.17" fill="none" stroke="#111" stroke-width="1.6"/><circle cx="10.33" cy="27.67" r="2.17" fill="none" stroke="#111" stroke-width="1.6"/><circle cx="10.33" cy="36.33" r="2.17" fill="none" stroke="#111" stroke-width="1.6"/><circle cx="10.33" cy="45" r="2.17" fill="none" stroke="#111" stroke-width="1.6"/><circle cx="10.33" cy="53.67" r="2.17" fill="none" stroke="#111" stroke-width="1.6"/></svg>