<svg xmlns="http://www.w3.org/2000/svg" width="96" height="64" viewBox="0 0 96 64"><polyline points="6,21.71 14.12,21.71 14.12,42.29 6,42.29" fill="none" stroke="#111" stroke-width="1.6" stroke-linecap="round" stroke-linejoin="round"/><polyline points="6,43.38 14.12,43.38 14.12,48.79 6,48.79" fill="none" stroke="#111" stroke-width="1.6" stroke-linecap="round" stroke-linejoin="round"/><polyline points="13.58,58 13.58,55.29 22.79,55.29 22.79,50.96 16.29,50.96 16.29,53.13 6,53.13" fill="none" stroke="#111" stroke-width="1.6" stroke-linecap="round" stroke-linejoin="round"/><rect x="16.83" y="25.5" width="5.42" height="4.33" fill="none" stroke="#111" stroke-width="1.6"/><rect x="16.83" y="43.92" width="5.42" height="4.33" fill="none" stroke="#111" stroke-width="1.6"/><polyline points="16.83,46.08 14.12,46.08" fill="none" stroke="#111" stroke-width="1.6" stroke-linecap="round" stroke-linejoin="round"/><polyline points="17.38,40.12 14.12,40.12" fill="none" stroke="#111" stroke-width="1.6" stroke-linecap="round" stroke-linejoin="round"/><polyline points="18.46,37.96 18.46,35.79" fill="none" stroke="#111" stroke-width="1.6" stroke-linecap="round" stroke-linejoin="round"/><polyline points="19.54,42.29 19.54,43.92" fill="none" stroke="#111" stroke-width="1.6" stroke-linecap="round" stroke-linejoin="round"/><polyline points="19.54,48.25 19.54,50.96" fill="none" stroke="#111" stroke-width="1.6" stroke-linecap="round" stroke-linejoin="round"/><rect x="17.38" y="37.96" width="4.33" height="4.33" fill="none" stroke="#111" stroke-width="1.6"/><polyline points="22.25,27.67 24.42,27.67 24.42,36.88 20.62,36.88 20.62,37.96" fill="none" stroke="#111" stroke-width="1.6" stroke-linecap="round" stroke-linejoin="round"/><rect x="16.29" y="31.46" width="6.5" height="4.33" fill="none" stroke="#111" stroke-width="1.6"/><polyline points="22.79,40.12 21.71,40.12" fill="none" stroke="#111" stroke-width="1.6" stroke-linecap="round" stroke-linejoin="round"/><polyline points="27.12,40.67 27.67,40.67" fill="none" stroke="#111" stroke-width="1.6" stroke-linecap="round" stroke-linejoin="round"/><polyline points="27.67,39.58 27.12,39.58" fill="none" stroke="#111" stroke-width="1.6" stroke-linecap="round" stroke-linejoin="round"/><polyline points="27.67,40.12 26.04,38.5 22.79,38.5 22.79,41.75 26.04,41.75 27.67,40.12" fill="none" stroke="#111" stroke-width="1.6" stroke-linecap="round" stroke-linejoin="round"/><rect x="6" y="6" width="23.83" height="52" fill="none" stroke="#111" stroke-width="1.6"/></svg>