<svg xmlns="http://www.w3.org/2000/svg" width="96" height="64" viewBox="0 0 96 64"><polyline points="10.94,6 10.94,30.71 10.94,30.71" fill="none" stroke="#111" stroke-width="1.6" stroke-linecap="round" stroke-linejoin="round"/><polyline points="10.94,6 6,6 6,8.47 6,8.47" fill="none" stroke="#111" stroke-width="1.6" stroke-linecap="round" stroke-linejoin="round"/><polyline points="13.41,18.35 85.06,18.35" fill="none" stroke="#111" stroke-width="1.6" stroke-linecap="round" stroke-linejoin="round"/><polyline points="15.88,28.24 15.88,30.71 10.94,30.71 10.94,30.71 10.94,30.71" fill="none" stroke="#111" stroke-width="1.6" stroke-linecap="round" stroke-linejoin="round"/><polyline points="35.65,30.71 10.94,18.35 35.65,6 35.65,30.71 35.65,30.71 35.65,30.71" fill="none" stroke="#111" stroke-width="1.6" stroke-linecap="round" stroke-linejoin="round"/><polyline points="48,18.35 48,43.06" fill="none" stroke="#111" stroke-width="1.6" stroke-linecap="round" stroke-linejoin="round"/><circle cx="48" cy="18.35" r="2.47" fill="none" stroke="#111" stroke-width="1.6"/><polyline points="60.35,6 85.06,18.35 60.35,30.71 60.35,6 60.35,6 60.35,6" fill="none" stroke="#111" stroke-width="1.6" stroke-linecap="round" stroke-linejoin="round"/><polyline points="85.06,6 85.06,30.71 85.06,30.71" fill="none" stroke="#111" stroke-width="1.6" stroke-linecap="round" stroke-linejoin="round"/><polyline points="85.06,6 80.12,6 80.12,8.47 80.12,8.47" fill="none" stroke="#111" stroke-width="1.6" stroke-linecap="round" stroke-linejoin="round"/><polyline points="85.06,30.71 90,30.71 90,28.24 90,28.24" fill="none" stroke="#111" stroke-width="1.6" stroke-linecap="round" stroke-linejoin="round"/></svg>