<svg xmlns="http://www.w3.org/2000/svg" width="96" height="64" viewBox="0 0 96 64"><rect x="6" y="6" width="31.2" height="52" fill="none" stroke="#111" stroke-width="1.6"/><polyline points="13.02,26.8 19,26.8" fill="none" stroke="#111" stroke-width="1.6" stroke-linecap="round" stroke-linejoin="round"/><polyline points="13.02,32 19.78,32 19.78,36.68" fill="none" stroke="#111" stroke-width="1.6" stroke-linecap="round" stroke-linejoin="round"/><polyline points="15.1,21.6 13.02,21.6 13.28,21.6" fill="none" stroke="#111" stroke-width="1.6" stroke-linecap="round" stroke-linejoin="round"/><polyline points="16.4,42.4 13.02,42.4" fill="none" stroke="#111" stroke-width="1.6" stroke-linecap="round" stroke-linejoin="round"/><polyline points="16.66,42.4 16.66,34.6 27.06,41.88 16.66,50.2 16.66,42.4" fill="none" stroke="#111" stroke-width="1.6" stroke-linecap="round" stroke-linejoin="round"/><circle cx="20.04" cy="26.8" r="1.04" fill="none" stroke="#111" stroke-width="1.6"/><polyline points="20.3,47.6 33.3,47.6" fill="none" stroke="#111" stroke-width="1.6" stroke-linecap="round" stroke-linejoin="round"/><circle cx="22.38" cy="37.2" r="1.04" fill="none" stroke="#111" stroke-width="1.6"/><polyline points="23.42,37.2 33.3,37.2" fill="none" stroke="#111" stroke-width="1.6" stroke-linecap="round" stroke-linejoin="round"/><polyline points="25.76,16.4 33.3,16.4" fill="none" stroke="#111" stroke-width="1.6" stroke-linecap="round" stroke-linejoin="round"/><polyline points="25.76,22.12 25.76,14.32 15.36,21.6 25.76,29.92 25.76,22.12" fill="none" stroke="#111" stroke-width="1.6" stroke-linecap="round" stroke-linejoin="round"/><circle cx="26.8" cy="26.8" r="1.04" fill="none" stroke="#111" stroke-width="1.6"/><polyline points="27.84,26.8 33.3,26.8" fill="none" stroke="#111" stroke-width="1.6" stroke-linecap="round" stroke-linejoin="round"/></svg>