<svg xmlns="http://www.w3.org/2000/svg" width="96" height="64" viewBox="0 0 96 64"><polyline points="12.42,31.68 18.84,31.68" fill="none" stroke="#111" stroke-width="1.6" stroke-linecap="round" stroke-linejoin="round"/><polyline points="12.42,57.36 18.84,57.36" fill="none" stroke="#111" stroke-width="1.6" stroke-linecap="round" stroke-linejoin="round"/><circle cx="18.84" cy="31.68" r="0.64" fill="none" stroke="#111" stroke-width="1.6"/><polyline points="25.26,12.42 31.68,15.63 25.26,18.84 25.26,12.42" fill="none" stroke="#111" stroke-width="1.6" stroke-linecap="round" stroke-linejoin="round"/><polyline points="25.26,18.84 31.68,22.05 25.26,25.26 25.26,18.84" fill="none" stroke="#111" stroke-width="1.6" stroke-linecap="round" stroke-linejoin="round"/><polyline points="25.26,18.84 18.84,18.84 18.84,31.68 18.84,44.52 25.26,44.52" fill="none" stroke="#111" stroke-width="1.6" stroke-linecap="round" stroke-linejoin="round"/><polyline points="25.26,38.1 25.26,44.52 31.68,41.31 25.26,38.1" fill="none" stroke="#111" stroke-width="1.6" stroke-linecap="round" stroke-linejoin="round"/><polyline points="25.26,44.52 31.68,47.73 25.26,50.94 25.26,44.52" fill="none" stroke="#111" stroke-width="1.6" stroke-linecap="round" stroke-linejoin="round"/><circle cx="31.68" cy="13.7" r="1.28" fill="none" stroke="#111" stroke-width="1.6"/><circle cx="31.68" cy="24.62" r="1.93" fill="none" stroke="#111" stroke-width="1.6"/><polyline points="31.68,26.54 31.68,31.68 31.68,41.31" fill="none" stroke="#111" stroke-width="1.6" stroke-linecap="round" stroke-linejoin="round"/><polyline points="31.68,33.6 22.05,33.6 22.05,57.36 18.84,57.36" fill="none" stroke="#111" stroke-width="1.6" stroke-linecap="round" stroke-linejoin="round"/><circle cx="31.68" cy="33.6" r="0.64" fill="none" stroke="#111" stroke-width="1.6"/><circle cx="31.68" cy="49.65" r="1.28" fill="none" stroke="#111" stroke-width="1.6"/><polyline points="31.68,50.94 31.68,57.36 44.52,57.36" fill="none" stroke="#111" stroke-width="1.6" stroke-linecap="round" stroke-linejoin="round"/><polyline points="38.1,18.84 38.1,12.42 31.68,15.63 38.1,18.84" fill="none" stroke="#111" stroke-width="1.6" stroke-linecap="round" stroke-linejoin="round"/><polyline points="38.1,18.84 38.1,25.26 31.68,22.05 38.1,18.84" fill="none" stroke="#111" stroke-width="1.6" stroke-linecap="round" stroke-linejoin="round"/><polyline points="38.1,38.1 38.1,44.52 31.68,41.31 38.1,38.1" fill="none" stroke="#111" stroke-width="1.6" stroke-linecap="round" stroke-linejoin="round"/><polyline points="38.1,44.52 31.68,47.73 38.1,50.94 38.1,44.52" fill="none" stroke="#111" stroke-width="1.6" stroke-linecap="round" stroke-linejoin="round"/><polyline points="41.31,57.36 41.31,6 31.68,6 31.68,12.42" fill="none" stroke="#111" stroke-width="1.6" stroke-linecap="round" stroke-linejoin="round"/><circle cx="41.31" cy="57.36" r="0.64" fill="none" stroke="#111" stroke-width="1.6"/><polyline points="44.52,18.84 38.1,18.84" fill="none" stroke="#111" stroke-width="1.6" stroke-linecap="round" stroke-linejoin="round"/><polyline points="44.52,44.52 38.1,44.52" fill="none" stroke="#111" stroke-width="1.6" stroke-linecap="round" stroke-linejoin="round"/><rect x="6" y="6" width="51.36" height="51.36" fill="none" stroke="#111" stroke-width="1.6"/></svg>