<svg xmlns="http://www.w3.org/2000/svg" width="96" height="64" viewBox="0 0 96 64"><polyline points="6,38 6,58" fill="none" stroke="#111" stroke-width="1.6" stroke-linecap="round" stroke-linejoin="round"/><polyline points="10,24 10,30" fill="none" stroke="#111" stroke-width="1.6" stroke-linecap="round" stroke-linejoin="round"/><polyline points="10,30 16,24" fill="none" stroke="#111" stroke-width="1.6" stroke-linecap="round" stroke-linejoin="round"/><polyline points="10,30 16,30" fill="none" stroke="#111" stroke-width="1.6" stroke-linecap="round" stroke-linejoin="round"/><polyline points="18,28 18,34" fill="none" stroke="#111" stroke-width="1.6" stroke-linecap="round" stroke-linejoin="round"/><polyline points="18,34 24,28" fill="none" stroke="#111" stroke-width="1.6" stroke-linecap="round" stroke-linejoin="round"/><polyline points="18,34 24,34" fill="none" stroke="#111" stroke-width="1.6" stroke-linecap="round" stroke-linejoin="round"/><path d="M 16 24 Q 16.84 18.84 22 18" fill="none" stroke="#111" stroke-width="1.6" stroke-linecap="round"/><path d="M 28 12 Q 27.16 17.16 22 18" fill="none" stroke="#111" stroke-width="1.6" stroke-linecap="round"/><polyline points="26,38 26,58 6,48 26,38" fill="none" stroke="#111" stroke-width="1.6" stroke-linecap="round" stroke-linejoin="round"/><polyline points="26,48 6,48" fill="none" stroke="#111" stroke-width="1.6" stroke-linecap="round" stroke-linejoin="round"/><path d="M 24 28 Q 24.84 22.84 30 22" fill="none" stroke="#111" stroke-width="1.6" stroke-linecap="round"/><path d="M 28 12 Q 28.84 6.84 34 6" fill="none" stroke="#111" stroke-width="1.6" stroke-linecap="round"/><path d="M 36 16 Q 35.16 21.16 30 22" fill="none" stroke="#111" stroke-width="1.6" stroke-linecap="round"/><path d="M 36 16 Q 36.84 10.84 42 10" fill="none" stroke="#111" stroke-width="1.6" stroke-linecap="round"/></svg>