<svg xmlns="http://www.w3.org/2000/svg" width="96" height="64" viewBox="0 0 96 64"><rect x="6" y="43.92" width="17.33" height="2.16" fill="none" stroke="#111" stroke-width="1.6"/><rect x="6" y="50.42" width="17.33" height="2.16" fill="none" stroke="#111" stroke-width="1.6"/><circle cx="14.67" cy="23.33" r="2.17" fill="none" stroke="#111" stroke-width="1.6"/><polyline points="14.67,43.92 14.67,23.33" fill="none" stroke="#111" stroke-width="1.6" stroke-linecap="round" stroke-linejoin="round"/><polyline points="19,23.33 8.17,23.33" fill="none" stroke="#111" stroke-width="1.6" stroke-linecap="round" stroke-linejoin="round"/><polyline points="20.08,34.17 20.08,12.5" fill="none" stroke="#111" stroke-width="1.6" stroke-linecap="round" stroke-linejoin="round"/><rect x="26.58" y="6" width="17.34" height="34.67" fill="none" stroke="#111" stroke-width="1.6"/><circle cx="35.25" cy="55.83" r="2.17" fill="none" stroke="#111" stroke-width="1.6"/><rect x="47.17" y="43.92" width="17.33" height="2.16" fill="none" stroke="#111" stroke-width="1.6"/><rect x="47.17" y="50.42" width="17.33" height="2.16" fill="none" stroke="#111" stroke-width="1.6"/><polyline points="50.42,34.17 50.42,12.5" fill="none" stroke="#111" stroke-width="1.6" stroke-linecap="round" stroke-linejoin="round"/><polyline points="51.5,23.33 56.92,23.33" fill="none" stroke="#111" stroke-width="1.6" stroke-linecap="round" stroke-linejoin="round"/><polyline points="55.83,23.33 55.83,45" fill="none" stroke="#111" stroke-width="1.6" stroke-linecap="round" stroke-linejoin="round"/><circle cx="55.83" cy="23.33" r="2.17" fill="none" stroke="#111" stroke-width="1.6"/><polyline points="55.83,51.5 55.83,55.83 14.67,55.83 14.67,51.5" fill="none" stroke="#111" stroke-width="1.6" stroke-linecap="round" stroke-linejoin="round"/></svg>