<svg xmlns="http://www.w3.org/2000/svg" width="96" height="64" viewBox="0 0 96 64"><rect x="6" y="6" width="28.36" height="52" fill="none" stroke="#111" stroke-width="1.6"/><polyline points="16.64,19 17.82,20.18 16.64,21.36 16.64,19" fill="none" stroke="#111" stroke-width="1.6" stroke-linecap="round" stroke-linejoin="round"/><polyline points="19,6 19,58" fill="none" stroke="#111" stroke-width="1.6" stroke-linecap="round" stroke-linejoin="round"/><polyline points="21.36,6 21.36,58" fill="none" stroke="#111" stroke-width="1.6" stroke-linecap="round" stroke-linejoin="round"/><polyline points="22.55,19 23.73,20.18 22.55,21.36 22.55,19" fill="none" stroke="#111" stroke-width="1.6" stroke-linecap="round" stroke-linejoin="round"/><polyline points="16.64,23.73 17.82,24.91 16.64,26.09 16.64,23.73" fill="none" stroke="#111" stroke-width="1.6" stroke-linecap="round" stroke-linejoin="round"/><polyline points="16.64,28.45 17.82,29.64 16.64,30.82 16.64,28.45" fill="none" stroke="#111" stroke-width="1.6" stroke-linecap="round" stroke-linejoin="round"/><polyline points="16.64,33.18 17.82,34.36 16.64,35.55 16.64,33.18" fill="none" stroke="#111" stroke-width="1.6" stroke-linecap="round" stroke-linejoin="round"/><polyline points="17.82,37.91 16.64,39.09 17.82,40.27 17.82,37.91" fill="none" stroke="#111" stroke-width="1.6" stroke-linecap="round" stroke-linejoin="round"/><polyline points="17.82,42.64 16.64,43.82 17.82,45 17.82,42.64" fill="none" stroke="#111" stroke-width="1.6" stroke-linecap="round" stroke-linejoin="round"/><polyline points="22.55,23.73 23.73,24.91 22.55,26.09 22.55,23.73" fill="none" stroke="#111" stroke-width="1.6" stroke-linecap="round" stroke-linejoin="round"/><polyline points="22.55,28.45 23.73,29.64 22.55,30.82 22.55,28.45" fill="none" stroke="#111" stroke-width="1.6" stroke-linecap="round" stroke-linejoin="round"/><polyline points="22.55,33.18 23.73,34.36 22.55,35.55 22.55,33.18" fill="none" stroke="#111" stroke-width="1.6" stroke-linecap="round" stroke-linejoin="round"/><polyline points="23.73,37.91 22.55,39.09 23.73,40.27 23.73,37.91" fill="none" stroke="#111" stroke-width="1.6" stroke-linecap="round" stroke-linejoin="round"/><polyline points="23.73,42.64 22.55,43.82 23.73,45 23.73,42.64" fill="none" stroke="#111" stroke-width="1.6" stroke-linecap="round" stroke-linejoin="round"/></svg>