<svg xmlns="http://www.w3.org/2000/svg" width="96" height="64" viewBox="0 0 96 64"><rect x="6" y="24.01" width="13" height="16.9" fill="none" stroke="#111" stroke-width="1.6"/><rect x="6" y="24.01" width="13" height="16.9" fill="none" stroke="#111" stroke-width="1.6"/><rect x="6" y="24.01" width="13" height="16.9" fill="none" stroke="#111" stroke-width="1.6"/><rect x="6" y="24.01" width="13" height="16.9" fill="none" stroke="#111" stroke-width="1.6"/><rect x="6" y="24.01" width="13" height="16.9" fill="none" stroke="#111" stroke-width="1.6"/><rect x="6" y="27.73" width="13" height="9.47" fill="none" stroke="#111" stroke-width="1.6"/><rect x="7.86" y="29.4" width="9.28" height="5.2" fill="none" stroke="#111" stroke-width="1.6"/><rect x="7.86" y="29.4" width="9.28" height="5.2" fill="none" stroke="#111" stroke-width="1.6"/><rect x="7.86" y="29.4" width="9.28" height="5.2" fill="none" stroke="#111" stroke-width="1.6"/><rect x="7.86" y="29.4" width="9.28" height="5.2" fill="none" stroke="#111" stroke-width="1.6"/><rect x="7.86" y="29.4" width="9.28" height="5.2" fill="none" stroke="#111" stroke-width="1.6"/><rect x="7.86" y="29.4" width="9.28" height="5.2" fill="none" stroke="#111" stroke-width="1.6"/><rect x="7.86" y="29.4" width="9.28" height="5.2" fill="none" stroke="#111" stroke-width="1.6"/><rect x="7.86" y="29.4" width="9.28" height="5.2" fill="none" stroke="#111" stroke-width="1.6"/><rect x="7.86" y="29.4" width="9.28" height="5.2" fill="none" stroke="#111" stroke-width="1.6"/><rect x="7.86" y="29.4" width="9.28" height="5.2" fill="none" stroke="#111" stroke-width="1.6"/><rect x="7.86" y="19.74" width="9.28" height="24.52" fill="none" stroke="#111" stroke-width="1.6"/><rect x="7.86" y="25.5" width="9.28" height="13.93" fill="none" stroke="#111" stroke-width="1.6"/><rect x="9.71" y="12.69" width="5.58" height="38.62" fill="none" stroke="#111" stroke-width="1.6"/><rect x="9.71" y="6" width="5.58" height="52" fill="none" stroke="#111" stroke-width="1.6"/></svg>