<svg xmlns="http://www.w3.org/2000/svg" width="96" height="64" viewBox="0 0 96 64"><polyline points="35.71,30.89 37.2,32.37 34.23,32.37 35.71,30.89" fill="none" stroke="#111" stroke-width="1.6" stroke-linecap="round" stroke-linejoin="round"/><polyline points="35.71,33.49 35.71,30.14" fill="none" stroke="#111" stroke-width="1.6" stroke-linecap="round" stroke-linejoin="round"/><polyline points="36.83,30.89 37.2,30.51" fill="none" stroke="#111" stroke-width="1.6" stroke-linecap="round" stroke-linejoin="round"/><polyline points="36.83,30.89 34.6,30.89 34.23,31.26" fill="none" stroke="#111" stroke-width="1.6" stroke-linecap="round" stroke-linejoin="round"/><rect x="33.49" y="29.4" width="4.45" height="4.83" fill="none" stroke="#111" stroke-width="1.6"/><polyline points="37.94,32 42.4,32 42.4,30.51" fill="none" stroke="#111" stroke-width="1.6" stroke-linecap="round" stroke-linejoin="round"/><polyline points="42.4,31.63 42.4,33.86" fill="none" stroke="#111" stroke-width="1.6" stroke-linecap="round" stroke-linejoin="round"/><polyline points="56.14,24.57 63.57,24.57 63.57,20.86 65.43,20.86" fill="none" stroke="#111" stroke-width="1.6" stroke-linecap="round" stroke-linejoin="round"/><polyline points="56.14,39.43 63.57,39.43 63.57,43.14 65.43,43.14" fill="none" stroke="#111" stroke-width="1.6" stroke-linecap="round" stroke-linejoin="round"/><rect x="6" y="6" width="59.43" height="52" fill="none" stroke="#111" stroke-width="1.6"/><rect x="24.57" y="17.14" width="7.43" height="29.72" fill="none" stroke="#111" stroke-width="1.6"/><polyline points="39.43,24.57 32,24.57" fill="none" stroke="#111" stroke-width="1.6" stroke-linecap="round" stroke-linejoin="round"/><polyline points="39.43,39.43 32,39.43" fill="none" stroke="#111" stroke-width="1.6" stroke-linecap="round" stroke-linejoin="round"/><polyline points="56.14,24.57 52.43,19 39.43,19 39.43,30.14 52.43,30.14 56.14,24.57" fill="none" stroke="#111" stroke-width="1.6" stroke-linecap="round" stroke-linejoin="round"/><polyline points="56.14,39.43 52.43,33.86 39.43,33.86 39.43,45 52.43,45 56.14,39.43" fill="none" stroke="#111" stroke-width="1.6" stroke-linecap="round" stroke-linejoin="round"/></svg>