<svg xmlns="http://www.w3.org/2000/svg" width="96" height="64" viewBox="0 0 96 64"><rect x="6" y="6" width="7.43" height="52" fill="none" stroke="#111" stroke-width="1.6"/><polyline points="8.15,8.75 10.68,11.2" fill="none" stroke="#111" stroke-width="1.6" stroke-linecap="round" stroke-linejoin="round"/><polyline points="8.15,16.18 10.68,18.63" fill="none" stroke="#111" stroke-width="1.6" stroke-linecap="round" stroke-linejoin="round"/><polyline points="8.15,23.61 10.68,26.06" fill="none" stroke="#111" stroke-width="1.6" stroke-linecap="round" stroke-linejoin="round"/><polyline points="8.15,31.03 10.68,33.49" fill="none" stroke="#111" stroke-width="1.6" stroke-linecap="round" stroke-linejoin="round"/><polyline points="8.15,38.46 10.68,40.91" fill="none" stroke="#111" stroke-width="1.6" stroke-linecap="round" stroke-linejoin="round"/><polyline points="8.15,45.89 10.68,48.34" fill="none" stroke="#111" stroke-width="1.6" stroke-linecap="round" stroke-linejoin="round"/><polyline points="8.15,53.32 10.68,55.77" fill="none" stroke="#111" stroke-width="1.6" stroke-linecap="round" stroke-linejoin="round"/><polyline points="8.67,8.23 11.2,10.68" fill="none" stroke="#111" stroke-width="1.6" stroke-linecap="round" stroke-linejoin="round"/><polyline points="8.67,15.66 11.2,18.11" fill="none" stroke="#111" stroke-width="1.6" stroke-linecap="round" stroke-linejoin="round"/><polyline points="8.67,23.09 11.2,25.54" fill="none" stroke="#111" stroke-width="1.6" stroke-linecap="round" stroke-linejoin="round"/><polyline points="8.67,30.51 11.2,32.97" fill="none" stroke="#111" stroke-width="1.6" stroke-linecap="round" stroke-linejoin="round"/><polyline points="8.67,37.94 11.2,40.39" fill="none" stroke="#111" stroke-width="1.6" stroke-linecap="round" stroke-linejoin="round"/><polyline points="8.67,45.37 11.2,47.82" fill="none" stroke="#111" stroke-width="1.6" stroke-linecap="round" stroke-linejoin="round"/><polyline points="8.67,52.8 11.2,55.25" fill="none" stroke="#111" stroke-width="1.6" stroke-linecap="round" stroke-linejoin="round"/><circle cx="9.71" cy="9.71" r="1.86" fill="none" stroke="#111" stroke-width="1.6"/><circle cx="9.71" cy="17.14" r="1.86" fill="none" stroke="#111" stroke-width="1.6"/><circle cx="9.71" cy="24.57" r="1.86" fill="none" stroke="#111" stroke-width="1.6"/><circle cx="9.71" cy="32" r="1.86" fill="none" stroke="#111" stroke-width="1.6"/><circle cx="9.71" cy="39.43" r="1.86" fill="none" stroke="#111" stroke-width="1.6"/><circle cx="9.71" cy="46.86" r="1.86" fill="none" stroke="#111" stroke-width="1.6"/><circle cx="9.71" cy="54.29" r="1.86" fill="none" stroke="#111" stroke-width="1.6"/></svg>