<svg xmlns="http://www.w3.org/2000/svg" width="96" height="64" viewBox="0 0 96 64"><polyline points="25.5,38.5 38.5,38.5" fill="none" stroke="#111" stroke-width="1.6" stroke-linecap="round" stroke-linejoin="round"/><polyline points="32,25.5 25.5,32 32,38.5 38.5,32 32,25.5" fill="none" stroke="#111" stroke-width="1.6" stroke-linecap="round" stroke-linejoin="round"/><path d="M 45 6 Q 70.89 32 45 58" fill="none" stroke="#111" stroke-width="1.6" stroke-linecap="round"/><polyline points="45,58 6,58 6,6 45,6" fill="none" stroke="#111" stroke-width="1.6" stroke-linecap="round" stroke-linejoin="round"/><polyline points="25.5,38.5 38.5,38.5" fill="none" stroke="#111" stroke-width="1.6" stroke-linecap="round" stroke-linejoin="round"/><polyline points="32,25.5 25.5,32 32,38.5 38.5,32 32,25.5" fill="none" stroke="#111" stroke-width="1.6" stroke-linecap="round" stroke-linejoin="round"/><path d="M 45 6 Q 70.89 32 45 58" fill="none" stroke="#111" stroke-width="1.6" stroke-linecap="round"/><polyline points="45,58 6,58 6,6 45,6" fill="none" stroke="#111" stroke-width="1.6" stroke-linecap="round" stroke-linejoin="round"/><rect x="19" y="6" width="52" height="52" fill="none" stroke="#111" stroke-width="1.6"/></svg>