<svg xmlns="http://www.w3.org/2000/svg" width="96" height="64" viewBox="0 0 96 64"><rect x="6" y="6" width="2.35" height="51.65" fill="none" stroke="#111" stroke-width="1.6"/><rect x="6" y="6.53" width="0.59" height="0.12" fill="none" stroke="#111" stroke-width="1.6"/><rect x="6" y="7.7" width="0.59" height="0.12" fill="none" stroke="#111" stroke-width="1.6"/><rect x="6" y="8.88" width="0.59" height="0.11" fill="none" stroke="#111" stroke-width="1.6"/><rect x="6" y="10.05" width="0.59" height="0.12" fill="none" stroke="#111" stroke-width="1.6"/><rect x="6" y="11.22" width="0.59" height="0.12" fill="none" stroke="#111" stroke-width="1.6"/><rect x="6" y="12.4" width="0.59" height="0.11" fill="none" stroke="#111" stroke-width="1.6"/><rect x="6" y="13.57" width="0.59" height="0.12" fill="none" stroke="#111" stroke-width="1.6"/><rect x="6" y="14.74" width="0.59" height="0.12" fill="none" stroke="#111" stroke-width="1.6"/><rect x="6" y="15.92" width="0.59" height="0.12" fill="none" stroke="#111" stroke-width="1.6"/><rect x="6" y="17.09" width="0.59" height="0.12" fill="none" stroke="#111" stroke-width="1.6"/><rect x="6" y="18.27" width="0.59" height="0.11" fill="none" stroke="#111" stroke-width="1.6"/><rect x="6" y="19.44" width="0.59" height="0.12" fill="none" stroke="#111" stroke-width="1.6"/><rect x="6" y="20.61" width="0.59" height="0.12" fill="none" stroke="#111" stroke-width="1.6"/><rect x="6" y="21.79" width="0.59" height="0.12" fill="none" stroke="#111" stroke-width="1.6"/><rect x="6" y="22.96" width="0.59" height="0.12" fill="none" stroke="#111" stroke-width="1.6"/><rect x="6" y="24.14" width="0.59" height="0.11" fill="none" stroke="#111" stroke-width="1.6"/><rect x="6" y="25.31" width="0.59" height="0.12" fill="none" stroke="#111" stroke-width="1.6"/><rect x="6" y="26.48" width="0.59" height="0.12" fill="none" stroke="#111" stroke-width="1.6"/><rect x="6" y="27.66" width="0.59" height="0.11" fill="none" stroke="#111" stroke-width="1.6"/><rect x="6" y="28.83" width="0.59" height="0.12" fill="none" stroke="#111" stroke-width="1.6"/><rect x="6" y="30" width="0.59" height="0.12" fill="none" stroke="#111" stroke-width="1.6"/><rect x="6" y="31.18" width="0.59" height="0.12" fill="none" stroke="#111" stroke-width="1.6"/><rect x="6" y="32.35" width="0.59" height="0.12" fill="none" stroke="#111" stroke-width="1.6"/><rect x="6" y="33.53" width="0.59" height="0.11" fill="none" stroke="#111" stroke-width="1.6"/><rect x="6" y="34.7" width="0.59" height="0.12" fill="none" stroke="#111" stroke-width="1.6"/><rect x="6" y="35.87" width="0.59" height="0.12" fill="none" stroke="#111" stroke-width="1.6"/><rect x="6" y="37.05" width="0.59" height="0.11" fill="none" stroke="#111" stroke-width="1.6"/><rect x="6" y="38.22" width="0.59" height="0.12" fill="none" stroke="#111" stroke-width="1.6"/><rect x="6" y="39.4" width="0.59" height="0.11" fill="none" stroke="#111" stroke-width="1.6"/><rect x="6" y="40.57" width="0.59" height="0.12" fill="none" stroke="#111" stroke-width="1.6"/><rect x="6" y="41.74" width="0.59" height="0.12" fill="none" stroke="#111" stroke-width="1.6"/><rect x="6" y="42.92" width="0.59" height="0.11" fill="none" stroke="#111" stroke-width="1.6"/><rect x="6" y="44.09" width="0.59" height="0.12" fill="none" stroke="#111" stroke-width="1.6"/><rect x="6" y="45.26" width="0.59" height="0.12" fill="none" stroke="#111" stroke-width="1.6"/><rect x="6" y="46.44" width="0.59" height="0.12" fill="none" stroke="#111" stroke-width="1.6"/><rect x="6" y="47.61" width="0.59" height="0.12" fill="none" stroke="#111" stroke-width="1.6"/><rect x="6" y="48.79" width="0.59" height="0.11" fill="none" stroke="#111" stroke-width="1.6"/><rect x="6" y="49.96" width="0.59" height="0.12" fill="none" stroke="#111" stroke-width="1.6"/><rect x="6" y="51.13" width="0.59" height="0.12" fill="none" stroke="#111" stroke-width="1.6"/><rect x="6" y="52.31" width="0.59" height="0.11" fill="none" stroke="#111" stroke-width="1.6"/><rect x="6" y="53.48" width="0.59" height="0.12" fill="none" stroke="#111" stroke-width="1.6"/><rect x="6" y="54.65" width="0.59" height="0.12" fill="none" stroke="#111" stroke-width="1.6"/><rect x="6" y="55.83" width="0.59" height="0.12" fill="none" stroke="#111" stroke-width="1.6"/><rect x="6" y="57" width="0.59" height="0.12" fill="none" stroke="#111" stroke-width="1.6"/><polyline points="6.7,58 7.64,58" fill="none" stroke="#111" stroke-width="1.6" stroke-linecap="round" stroke-linejoin="round"/><rect x="7.76" y="6.53" width="0.59" height="0.12" fill="none" stroke="#111" stroke-width="1.6"/><rect x="7.76" y="7.7" width="0.59" height="0.12" fill="none" stroke="#111" stroke-width="1.6"/><rect x="7.76" y="8.88" width="0.59" height="0.11" fill="none" stroke="#111" stroke-width="1.6"/><rect x="7.76" y="10.05" width="0.59" height="0.12" fill="none" stroke="#111" stroke-width="1.6"/><rect x="7.76" y="11.22" width="0.59" height="0.12" fill="none" stroke="#111" stroke-width="1.6"/><rect x="7.76" y="12.4" width="0.59" height="0.11" fill="none" stroke="#111" stroke-width="1.6"/><rect x="7.76" y="13.57" width="0.59" height="0.12" fill="none" stroke="#111" stroke-width="1.6"/><rect x="7.76" y="14.74" width="0.59" height="0.12" fill="none" stroke="#111" stroke-width="1.6"/><rect x="7.76" y="15.92" width="0.59" height="0.12" fill="none" stroke="#111" stroke-width="1.6"/><rect x="7.76" y="17.09" width="0.59" height="0.12" fill="none" stroke="#111" stroke-width="1.6"/><rect x="7.76" y="18.27" width="0.59" height="0.11" fill="none" stroke="#111" stroke-width="1.6"/><rect x="7.76" y="19.44" width="0.59" height="0.12" fill="none" stroke="#111" stroke-width="1.6"/><rect x="7.76" y="20.61" width="0.59" height="0.12" fill="none" stroke="#111" stroke-width="1.6"/><rect x="7.76" y="21.79" width="0.59" height="0.12" fill="none" stroke="#111" stroke-width="1.6"/><rect x="7.76" y="22.96" width="0.59" height="0.12" fill="none" stroke="#111" stroke-width="1.6"/><rect x="7.76" y="24.14" width="0.59" height="0.11" fill="none" stroke="#111" stroke-width="1.6"/><rect x="7.76" y="25.31" width="0.59" height="0.12" fill="none" stroke="#111" stroke-width="1.6"/><rect x="7.76" y="26.48" width="0.59" height="0.12" fill="none" stroke="#111" stroke-width="1.6"/><rect x="7.76" y="27.66" width="0.59" height="0.11" fill="none" stroke="#111" stroke-width="1.6"/><rect x="7.76" y="28.83" width="0.59" height="0.12" fill="none" stroke="#111" stroke-width="1.6"/><rect x="7.76" y="30" width="0.59" height="0.12" fill="none" stroke="#111" stroke-width="1.6"/><rect x="7.76" y="31.18" width="0.59" height="0.12" fill="none" stroke="#111" stroke-width="1.6"/><rect x="7.76" y="32.35" width="0.59" height="0.12" fill="none" stroke="#111" stroke-width="1.6"/><rect x="7.76" y="33.53" width="0.59" height="0.11" fill="none" stroke="#111" stroke-width="1.6"/><rect x="7.76" y="34.7" width="0.59" height="0.12" fill="none" stroke="#111" stroke-width="1.6"/><rect x="7.76" y="35.87" width="0.59" height="0.12" fill="none" stroke="#111" stroke-width="1.6"/><rect x="7.76" y="37.05" width="0.59" height="0.11" fill="none" stroke="#111" stroke-width="1.6"/><rect x="7.76" y="38.22" width="0.59" height="0.12" fill="none" stroke="#111" stroke-width="1.6"/><rect x="7.76" y="39.4" width="0.59" height="0.11" fill="none" stroke="#111" stroke-width="1.6"/><rect x="7.76" y="40.57" width="0.59" height="0.12" fill="none" stroke="#111" stroke-width="1.6"/><rect x="7.76" y="41.74" width="0.59" height="0.12" fill="none" stroke="#111" stroke-width="1.6"/><rect x="7.76" y="42.92" width="0.59" height="0.11" fill="none" stroke="#111" stroke-width="1.6"/><rect x="7.76" y="44.09" width="0.59" height="0.12" fill="none" stroke="#111" stroke-width="1.6"/><rect x="7.76" y="45.26" width="0.59" height="0.12" fill="none" stroke="#111" stroke-width="1.6"/><rect x="7.76" y="46.44" width="0.59" height="0.12" fill="none" stroke="#111" stroke-width="1.6"/><rect x="7.76" y="47.61" width="0.59" height="0.12" fill="none" stroke="#111" stroke-width="1.6"/><rect x="7.76" y="48.79" width="0.59" height="0.11" fill="none" stroke="#111" stroke-width="1.6"/><rect x="7.76" y="49.96" width="0.59" height="0.12" fill="none" stroke="#111" stroke-width="1.6"/><rect x="7.76" y="51.13" width="0.59" height="0.12" fill="none" stroke="#111" stroke-width="1.6"/><rect x="7.76" y="52.31" width="0.59" height="0.11" fill="none" stroke="#111" stroke-width="1.6"/><rect x="7.76" y="53.48" width="0.59" height="0.12" fill="none" stroke="#111" stroke-width="1.6"/><rect x="7.76" y="54.65" width="0.59" height="0.12" fill="none" stroke="#111" stroke-width="1.6"/><rect x="7.76" y="55.83" width="0.59" height="0.12" fill="none" stroke="#111" stroke-width="1.6"/><rect x="7.76" y="57" width="0.59" height="0.12" fill="none" stroke="#111" stroke-width="1.6"/></svg>