<svg xmlns="http://www.w3.org/2000/svg" width="96" height="64" viewBox="0 0 96 64"><polyline points="6,9.25 6,54.75 9.25,58 22.25,58 25.5,54.75 25.5,9.25 22.25,6 9.25,6 6,9.25" fill="none" stroke="#111" stroke-width="1.6" stroke-linecap="round" stroke-linejoin="round"/><path d="M 9.31 12.5 Q 12.44 15.72 9.31 18.93" fill="none" stroke="#111" stroke-width="1.6" stroke-linecap="round"/><path d="M 9.31 19 Q 12.44 22.22 9.31 25.43" fill="none" stroke="#111" stroke-width="1.6" stroke-linecap="round"/><path d="M 9.31 38.5 Q 12.44 41.72 9.31 44.94" fill="none" stroke="#111" stroke-width="1.6" stroke-linecap="round"/><path d="M 9.31 45 Q 12.44 48.22 9.31 51.43" fill="none" stroke="#111" stroke-width="1.6" stroke-linecap="round"/><polyline points="14.12,19 14.12,45" fill="none" stroke="#111" stroke-width="1.6" stroke-linecap="round" stroke-linejoin="round"/><polyline points="17.38,45 17.38,19" fill="none" stroke="#111" stroke-width="1.6" stroke-linecap="round" stroke-linejoin="round"/><path d="M 19.07 22.25 Q 19.96 19.94 22.25 19" fill="none" stroke="#111" stroke-width="1.6" stroke-linecap="round"/><path d="M 19.07 28.75 Q 19.96 26.44 22.25 25.5" fill="none" stroke="#111" stroke-width="1.6" stroke-linecap="round"/><path d="M 19.07 35.25 Q 19.96 32.94 22.25 32" fill="none" stroke="#111" stroke-width="1.6" stroke-linecap="round"/><path d="M 22.25 25.43 Q 20 24.5 19.07 22.25" fill="none" stroke="#111" stroke-width="1.6" stroke-linecap="round"/><path d="M 22.25 31.94 Q 20 31 19.07 28.75" fill="none" stroke="#111" stroke-width="1.6" stroke-linecap="round"/><path d="M 22.25 38.43 Q 20 37.5 19.07 35.25" fill="none" stroke="#111" stroke-width="1.6" stroke-linecap="round"/><path d="M 19.13 41.75 Q 20.03 39.44 22.31 38.5" fill="none" stroke="#111" stroke-width="1.6" stroke-linecap="round"/><path d="M 22.31 44.94 Q 20.06 44 19.13 41.75" fill="none" stroke="#111" stroke-width="1.6" stroke-linecap="round"/></svg>