<svg xmlns="http://www.w3.org/2000/svg" width="96" height="64" viewBox="0 0 96 64"><rect x="6" y="6" width="1.43" height="51.57" fill="none" stroke="#111" stroke-width="1.6"/><rect x="6" y="6.64" width="0.72" height="0.15" fill="none" stroke="#111" stroke-width="1.6"/><rect x="6" y="8.08" width="0.72" height="0.14" fill="none" stroke="#111" stroke-width="1.6"/><rect x="6" y="9.51" width="0.72" height="0.14" fill="none" stroke="#111" stroke-width="1.6"/><rect x="6" y="10.94" width="0.72" height="0.15" fill="none" stroke="#111" stroke-width="1.6"/><rect x="6" y="12.37" width="0.72" height="0.15" fill="none" stroke="#111" stroke-width="1.6"/><rect x="6" y="13.81" width="0.72" height="0.14" fill="none" stroke="#111" stroke-width="1.6"/><rect x="6" y="15.24" width="0.72" height="0.14" fill="none" stroke="#111" stroke-width="1.6"/><rect x="6" y="16.67" width="0.72" height="0.15" fill="none" stroke="#111" stroke-width="1.6"/><rect x="6" y="18.1" width="0.72" height="0.15" fill="none" stroke="#111" stroke-width="1.6"/><rect x="6" y="19.54" width="0.72" height="0.14" fill="none" stroke="#111" stroke-width="1.6"/><rect x="6" y="20.97" width="0.72" height="0.14" fill="none" stroke="#111" stroke-width="1.6"/><rect x="6" y="22.4" width="0.72" height="0.15" fill="none" stroke="#111" stroke-width="1.6"/><rect x="6" y="23.83" width="0.72" height="0.15" fill="none" stroke="#111" stroke-width="1.6"/><rect x="6" y="25.27" width="0.72" height="0.14" fill="none" stroke="#111" stroke-width="1.6"/><rect x="6" y="26.7" width="0.72" height="0.14" fill="none" stroke="#111" stroke-width="1.6"/><rect x="6" y="28.13" width="0.72" height="0.15" fill="none" stroke="#111" stroke-width="1.6"/><rect x="6" y="29.56" width="0.72" height="0.15" fill="none" stroke="#111" stroke-width="1.6"/><rect x="6" y="31" width="0.72" height="0.14" fill="none" stroke="#111" stroke-width="1.6"/><rect x="6" y="32.43" width="0.72" height="0.14" fill="none" stroke="#111" stroke-width="1.6"/><rect x="6" y="33.86" width="0.72" height="0.15" fill="none" stroke="#111" stroke-width="1.6"/><rect x="6" y="35.29" width="0.72" height="0.15" fill="none" stroke="#111" stroke-width="1.6"/><rect x="6" y="36.73" width="0.72" height="0.14" fill="none" stroke="#111" stroke-width="1.6"/><rect x="6" y="38.16" width="0.72" height="0.14" fill="none" stroke="#111" stroke-width="1.6"/><rect x="6" y="39.59" width="0.72" height="0.15" fill="none" stroke="#111" stroke-width="1.6"/><rect x="6" y="41.02" width="0.72" height="0.15" fill="none" stroke="#111" stroke-width="1.6"/><rect x="6" y="42.46" width="0.72" height="0.14" fill="none" stroke="#111" stroke-width="1.6"/><rect x="6" y="43.89" width="0.72" height="0.14" fill="none" stroke="#111" stroke-width="1.6"/><rect x="6" y="45.32" width="0.72" height="0.15" fill="none" stroke="#111" stroke-width="1.6"/><rect x="6" y="46.75" width="0.72" height="0.15" fill="none" stroke="#111" stroke-width="1.6"/><rect x="6" y="48.19" width="0.72" height="0.14" fill="none" stroke="#111" stroke-width="1.6"/><rect x="6" y="49.62" width="0.72" height="0.14" fill="none" stroke="#111" stroke-width="1.6"/><rect x="6" y="51.05" width="0.72" height="0.15" fill="none" stroke="#111" stroke-width="1.6"/><rect x="6" y="52.48" width="0.72" height="0.15" fill="none" stroke="#111" stroke-width="1.6"/><rect x="6" y="53.92" width="0.72" height="0.14" fill="none" stroke="#111" stroke-width="1.6"/><rect x="6" y="55.35" width="0.72" height="0.14" fill="none" stroke="#111" stroke-width="1.6"/><rect x="6" y="56.78" width="0.72" height="0.15" fill="none" stroke="#111" stroke-width="1.6"/><polyline points="6.14,58 7.29,58" fill="none" stroke="#111" stroke-width="1.6" stroke-linecap="round" stroke-linejoin="round"/></svg>