<svg xmlns="http://www.w3.org/2000/svg" width="96" height="64" viewBox="0 0 96 64"><rect x="6" y="6" width="0.65" height="0.19" fill="none" stroke="#111" stroke-width="1.6"/><rect x="6" y="7.92" width="0.65" height="0.19" fill="none" stroke="#111" stroke-width="1.6"/><rect x="6" y="9.84" width="0.65" height="0.19" fill="none" stroke="#111" stroke-width="1.6"/><rect x="6" y="11.76" width="0.65" height="0.19" fill="none" stroke="#111" stroke-width="1.6"/><rect x="6" y="13.68" width="0.65" height="0.19" fill="none" stroke="#111" stroke-width="1.6"/><rect x="6" y="15.59" width="0.65" height="0.2" fill="none" stroke="#111" stroke-width="1.6"/><rect x="6" y="17.51" width="0.65" height="0.19" fill="none" stroke="#111" stroke-width="1.6"/><rect x="6" y="19.43" width="0.65" height="0.19" fill="none" stroke="#111" stroke-width="1.6"/><rect x="6" y="21.35" width="0.65" height="0.19" fill="none" stroke="#111" stroke-width="1.6"/><rect x="6" y="23.27" width="0.65" height="0.19" fill="none" stroke="#111" stroke-width="1.6"/><rect x="6" y="25.19" width="0.65" height="0.19" fill="none" stroke="#111" stroke-width="1.6"/><rect x="6" y="27.11" width="0.65" height="0.19" fill="none" stroke="#111" stroke-width="1.6"/><rect x="6" y="29.03" width="0.65" height="0.19" fill="none" stroke="#111" stroke-width="1.6"/><rect x="6" y="30.94" width="0.65" height="0.2" fill="none" stroke="#111" stroke-width="1.6"/><rect x="6" y="32.86" width="0.65" height="0.2" fill="none" stroke="#111" stroke-width="1.6"/><rect x="6" y="34.78" width="0.65" height="0.19" fill="none" stroke="#111" stroke-width="1.6"/><rect x="6" y="36.7" width="0.65" height="0.19" fill="none" stroke="#111" stroke-width="1.6"/><rect x="6" y="38.62" width="0.65" height="0.19" fill="none" stroke="#111" stroke-width="1.6"/><rect x="6" y="40.54" width="0.65" height="0.19" fill="none" stroke="#111" stroke-width="1.6"/><rect x="6" y="42.46" width="0.65" height="0.19" fill="none" stroke="#111" stroke-width="1.6"/><rect x="6" y="44.38" width="0.65" height="0.19" fill="none" stroke="#111" stroke-width="1.6"/><rect x="6" y="46.3" width="0.65" height="0.19" fill="none" stroke="#111" stroke-width="1.6"/><rect x="6" y="48.21" width="0.65" height="0.2" fill="none" stroke="#111" stroke-width="1.6"/><rect x="6" y="50.13" width="0.65" height="0.19" fill="none" stroke="#111" stroke-width="1.6"/><rect x="6" y="52.05" width="0.65" height="0.19" fill="none" stroke="#111" stroke-width="1.6"/><rect x="6" y="53.97" width="0.65" height="0.19" fill="none" stroke="#111" stroke-width="1.6"/><rect x="6" y="55.89" width="0.65" height="0.19" fill="none" stroke="#111" stroke-width="1.6"/><rect x="6" y="57.81" width="0.65" height="0.19" fill="none" stroke="#111" stroke-width="1.6"/><polyline points="6.96,6.1 6.65,6.1" fill="none" stroke="#111" stroke-width="1.6" stroke-linecap="round" stroke-linejoin="round"/><polyline points="6.96,8.01 6.65,8.01" fill="none" stroke="#111" stroke-width="1.6" stroke-linecap="round" stroke-linejoin="round"/><polyline points="6.96,9.93 6.65,9.93" fill="none" stroke="#111" stroke-width="1.6" stroke-linecap="round" stroke-linejoin="round"/><polyline points="6.96,11.85 6.65,11.85" fill="none" stroke="#111" stroke-width="1.6" stroke-linecap="round" stroke-linejoin="round"/><polyline points="6.96,13.77 6.65,13.77" fill="none" stroke="#111" stroke-width="1.6" stroke-linecap="round" stroke-linejoin="round"/><polyline points="6.96,15.69 6.65,15.69" fill="none" stroke="#111" stroke-width="1.6" stroke-linecap="round" stroke-linejoin="round"/><polyline points="6.96,17.61 6.65,17.61" fill="none" stroke="#111" stroke-width="1.6" stroke-linecap="round" stroke-linejoin="round"/><polyline points="6.96,19.53 6.65,19.53" fill="none" stroke="#111" stroke-width="1.6" stroke-linecap="round" stroke-linejoin="round"/><polyline points="6.96,21.45 6.65,21.45" fill="none" stroke="#111" stroke-width="1.6" stroke-linecap="round" stroke-linejoin="round"/><polyline points="6.96,23.37 6.65,23.37" fill="none" stroke="#111" stroke-width="1.6" stroke-linecap="round" stroke-linejoin="round"/><polyline points="6.96,25.28 6.65,25.28" fill="none" stroke="#111" stroke-width="1.6" stroke-linecap="round" stroke-linejoin="round"/><polyline points="6.96,27.2 6.65,27.2" fill="none" stroke="#111" stroke-width="1.6" stroke-linecap="round" stroke-linejoin="round"/><polyline points="6.96,29.12 6.65,29.12" fill="none" stroke="#111" stroke-width="1.6" stroke-linecap="round" stroke-linejoin="round"/><polyline points="6.96,31.04 6.65,31.04" fill="none" stroke="#111" stroke-width="1.6" stroke-linecap="round" stroke-linejoin="round"/><polyline points="6.96,32.96 6.65,32.96" fill="none" stroke="#111" stroke-width="1.6" stroke-linecap="round" stroke-linejoin="round"/><polyline points="6.96,34.88 6.65,34.88" fill="none" stroke="#111" stroke-width="1.6" stroke-linecap="round" stroke-linejoin="round"/><polyline points="6.96,36.8 6.65,36.8" fill="none" stroke="#111" stroke-width="1.6" stroke-linecap="round" stroke-linejoin="round"/><polyline points="6.96,38.72 6.65,38.72" fill="none" stroke="#111" stroke-width="1.6" stroke-linecap="round" stroke-linejoin="round"/><polyline points="6.96,40.63 6.65,40.63" fill="none" stroke="#111" stroke-width="1.6" stroke-linecap="round" stroke-linejoin="round"/><polyline points="6.96,42.55 6.65,42.55" fill="none" stroke="#111" stroke-width="1.6" stroke-linecap="round" stroke-linejoin="round"/><polyline points="6.96,44.47 6.65,44.47" fill="none" stroke="#111" stroke-width="1.6" stroke-linecap="round" stroke-linejoin="round"/><polyline points="6.96,46.39 6.65,46.39" fill="none" stroke="#111" stroke-width="1.6" stroke-linecap="round" stroke-linejoin="round"/><polyline points="6.96,48.31 6.65,48.31" fill="none" stroke="#111" stroke-width="1.6" stroke-linecap="round" stroke-linejoin="round"/><polyline points="6.96,50.23 6.65,50.23" fill="none" stroke="#111" stroke-width="1.6" stroke-linecap="round" stroke-linejoin="round"/><polyline points="6.96,52.15 6.65,52.15" fill="none" stroke="#111" stroke-width="1.6" stroke-linecap="round" stroke-linejoin="round"/><polyline points="6.96,54.07 6.65,54.07" fill="none" stroke="#111" stroke-width="1.6" stroke-linecap="round" stroke-linejoin="round"/><polyline points="6.96,55.99 6.65,55.99" fill="none" stroke="#111" stroke-width="1.6" stroke-linecap="round" stroke-linejoin="round"/><polyline points="6.96,57.9 6.65,57.9" fill="none" stroke="#111" stroke-width="1.6" stroke-linecap="round" stroke-linejoin="round"/></svg>