<svg xmlns="http://www.w3.org/2000/svg" width="96" height="64" viewBox="0 0 96 64"><rect x="6" y="6" width="2.08" height="52" fill="none" stroke="#111" stroke-width="1.6"/><rect x="6" y="6.47" width="0.52" height="0.1" fill="none" stroke="#111" stroke-width="1.6"/><rect x="6" y="7.51" width="0.52" height="0.1" fill="none" stroke="#111" stroke-width="1.6"/><rect x="6" y="8.55" width="0.52" height="0.1" fill="none" stroke="#111" stroke-width="1.6"/><rect x="6" y="9.59" width="0.52" height="0.1" fill="none" stroke="#111" stroke-width="1.6"/><rect x="6" y="10.63" width="0.52" height="0.1" fill="none" stroke="#111" stroke-width="1.6"/><rect x="6" y="11.67" width="0.52" height="0.1" fill="none" stroke="#111" stroke-width="1.6"/><rect x="6" y="12.71" width="0.52" height="0.1" fill="none" stroke="#111" stroke-width="1.6"/><rect x="6" y="13.75" width="0.52" height="0.1" fill="none" stroke="#111" stroke-width="1.6"/><rect x="6" y="14.79" width="0.52" height="0.1" fill="none" stroke="#111" stroke-width="1.6"/><rect x="6" y="15.83" width="0.52" height="0.1" fill="none" stroke="#111" stroke-width="1.6"/><rect x="6" y="16.87" width="0.52" height="0.1" fill="none" stroke="#111" stroke-width="1.6"/><rect x="6" y="17.91" width="0.52" height="0.1" fill="none" stroke="#111" stroke-width="1.6"/><rect x="6" y="18.95" width="0.52" height="0.1" fill="none" stroke="#111" stroke-width="1.6"/><rect x="6" y="19.99" width="0.52" height="0.1" fill="none" stroke="#111" stroke-width="1.6"/><rect x="6" y="21.03" width="0.52" height="0.1" fill="none" stroke="#111" stroke-width="1.6"/><rect x="6" y="22.07" width="0.52" height="0.1" fill="none" stroke="#111" stroke-width="1.6"/><rect x="6" y="23.11" width="0.52" height="0.1" fill="none" stroke="#111" stroke-width="1.6"/><rect x="6" y="24.15" width="0.52" height="0.1" fill="none" stroke="#111" stroke-width="1.6"/><rect x="6" y="25.19" width="0.52" height="0.1" fill="none" stroke="#111" stroke-width="1.6"/><rect x="6" y="26.23" width="0.52" height="0.1" fill="none" stroke="#111" stroke-width="1.6"/><rect x="6" y="27.27" width="0.52" height="0.1" fill="none" stroke="#111" stroke-width="1.6"/><rect x="6" y="28.31" width="0.52" height="0.1" fill="none" stroke="#111" stroke-width="1.6"/><rect x="6" y="29.35" width="0.52" height="0.1" fill="none" stroke="#111" stroke-width="1.6"/><rect x="6" y="30.39" width="0.52" height="0.1" fill="none" stroke="#111" stroke-width="1.6"/><rect x="6" y="31.43" width="0.52" height="0.1" fill="none" stroke="#111" stroke-width="1.6"/><rect x="6" y="32.47" width="0.52" height="0.1" fill="none" stroke="#111" stroke-width="1.6"/><rect x="6" y="33.51" width="0.52" height="0.1" fill="none" stroke="#111" stroke-width="1.6"/><rect x="6" y="34.55" width="0.52" height="0.1" fill="none" stroke="#111" stroke-width="1.6"/><rect x="6" y="35.59" width="0.52" height="0.1" fill="none" stroke="#111" stroke-width="1.6"/><rect x="6" y="36.63" width="0.52" height="0.1" fill="none" stroke="#111" stroke-width="1.6"/><rect x="6" y="37.67" width="0.52" height="0.1" fill="none" stroke="#111" stroke-width="1.6"/><rect x="6" y="38.71" width="0.52" height="0.1" fill="none" stroke="#111" stroke-width="1.6"/><rect x="6" y="39.75" width="0.52" height="0.1" fill="none" stroke="#111" stroke-width="1.6"/><rect x="6" y="40.79" width="0.52" height="0.1" fill="none" stroke="#111" stroke-width="1.6"/><rect x="6" y="41.83" width="0.52" height="0.1" fill="none" stroke="#111" stroke-width="1.6"/><rect x="6" y="42.87" width="0.52" height="0.1" fill="none" stroke="#111" stroke-width="1.6"/><rect x="6" y="43.91" width="0.52" height="0.1" fill="none" stroke="#111" stroke-width="1.6"/><rect x="6" y="44.95" width="0.52" height="0.1" fill="none" stroke="#111" stroke-width="1.6"/><rect x="6" y="45.99" width="0.52" height="0.1" fill="none" stroke="#111" stroke-width="1.6"/><rect x="6" y="47.03" width="0.52" height="0.1" fill="none" stroke="#111" stroke-width="1.6"/><rect x="6" y="48.07" width="0.52" height="0.1" fill="none" stroke="#111" stroke-width="1.6"/><rect x="6" y="49.11" width="0.52" height="0.1" fill="none" stroke="#111" stroke-width="1.6"/><rect x="6" y="50.15" width="0.52" height="0.1" fill="none" stroke="#111" stroke-width="1.6"/><rect x="6" y="51.19" width="0.52" height="0.1" fill="none" stroke="#111" stroke-width="1.6"/><rect x="6" y="52.23" width="0.52" height="0.1" fill="none" stroke="#111" stroke-width="1.6"/><rect x="6" y="53.27" width="0.52" height="0.1" fill="none" stroke="#111" stroke-width="1.6"/><rect x="6" y="54.31" width="0.52" height="0.1" fill="none" stroke="#111" stroke-width="1.6"/><rect x="6" y="55.35" width="0.52" height="0.1" fill="none" stroke="#111" stroke-width="1.6"/><rect x="6" y="56.39" width="0.52" height="0.1" fill="none" stroke="#111" stroke-width="1.6"/><rect x="6" y="57.43" width="0.52" height="0.1" fill="none" stroke="#111" stroke-width="1.6"/><rect x="7.56" y="6.47" width="0.52" height="0.1" fill="none" stroke="#111" stroke-width="1.6"/><rect x="7.56" y="7.51" width="0.52" height="0.1" fill="none" stroke="#111" stroke-width="1.6"/><rect x="7.56" y="8.55" width="0.52" height="0.1" fill="none" stroke="#111" stroke-width="1.6"/><rect x="7.56" y="9.59" width="0.52" height="0.1" fill="none" stroke="#111" stroke-width="1.6"/><rect x="7.56" y="10.63" width="0.52" height="0.1" fill="none" stroke="#111" stroke-width="1.6"/><rect x="7.56" y="11.67" width="0.52" height="0.1" fill="none" stroke="#111" stroke-width="1.6"/><rect x="7.56" y="12.71" width="0.52" height="0.1" fill="none" stroke="#111" stroke-width="1.6"/><rect x="7.56" y="13.75" width="0.52" height="0.1" fill="none" stroke="#111" stroke-width="1.6"/><rect x="7.56" y="14.79" width="0.52" height="0.1" fill="none" stroke="#111" stroke-width="1.6"/><rect x="7.56" y="15.83" width="0.52" height="0.1" fill="none" stroke="#111" stroke-width="1.6"/><rect x="7.56" y="16.87" width="0.52" height="0.1" fill="none" stroke="#111" stroke-width="1.6"/><rect x="7.56" y="17.91" width="0.52" height="0.1" fill="none" stroke="#111" stroke-width="1.6"/><rect x="7.56" y="18.95" width="0.52" height="0.1" fill="none" stroke="#111" stroke-width="1.6"/><rect x="7.56" y="19.99" width="0.52" height="0.1" fill="none" stroke="#111" stroke-width="1.6"/><rect x="7.56" y="21.03" width="0.52" height="0.1" fill="none" stroke="#111" stroke-width="1.6"/><rect x="7.56" y="22.07" width="0.52" height="0.1" fill="none" stroke="#111" stroke-width="1.6"/><rect x="7.56" y="23.11" width="0.52" height="0.1" fill="none" stroke="#111" stroke-width="1.6"/><rect x="7.56" y="24.15" width="0.52" height="0.1" fill="none" stroke="#111" stroke-width="1.6"/><rect x="7.56" y="25.19" width="0.52" height="0.1" fill="none" stroke="#111" stroke-width="1.6"/><rect x="7.56" y="26.23" width="0.52" height="0.1" fill="none" stroke="#111" stroke-width="1.6"/><rect x="7.56" y="27.27" width="0.52" height="0.1" fill="none" stroke="#111" stroke-width="1.6"/><rect x="7.56" y="28.31" width="0.52" height="0.1" fill="none" stroke="#111" stroke-width="1.6"/><rect x="7.56" y="29.35" width="0.52" height="0.1" fill="none" stroke="#111" stroke-width="1.6"/><rect x="7.56" y="30.39" width="0.52" height="0.1" fill="none" stroke="#111" stroke-width="1.6"/><rect x="7.56" y="31.43" width="0.52" height="0.1" fill="none" stroke="#111" stroke-width="1.6"/><rect x="7.56" y="32.47" width="0.52" height="0.1" fill="none" stroke="#111" stroke-width="1.6"/><rect x="7.56" y="33.51" width="0.52" height="0.1" fill="none" stroke="#111" stroke-width="1.6"/><rect x="7.56" y="34.55" width="0.52" height="0.1" fill="none" stroke="#111" stroke-width="1.6"/><rect x="7.56" y="35.59" width="0.52" height="0.1" fill="none" stroke="#111" stroke-width="1.6"/><rect x="7.56" y="36.63" width="0.52" height="0.1" fill="none" stroke="#111" stroke-width="1.6"/><rect x="7.56" y="37.67" width="0.52" height="0.1" fill="none" stroke="#111" stroke-width="1.6"/><rect x="7.56" y="38.71" width="0.52" height="0.1" fill="none" stroke="#111" stroke-width="1.6"/><rect x="7.56" y="39.75" width="0.52" height="0.1" fill="none" stroke="#111" stroke-width="1.6"/><rect x="7.56" y="40.79" width="0.52" height="0.1" fill="none" stroke="#111" stroke-width="1.6"/><rect x="7.56" y="41.83" width="0.52" height="0.1" fill="none" stroke="#111" stroke-width="1.6"/><rect x="7.56" y="42.87" width="0.52" height="0.1" fill="none" stroke="#111" stroke-width="1.6"/><rect x="7.56" y="43.91" width="0.52" height="0.1" fill="none" stroke="#111" stroke-width="1.6"/><rect x="7.56" y="44.95" width="0.52" height="0.1" fill="none" stroke="#111" stroke-width="1.6"/><rect x="7.56" y="45.99" width="0.52" height="0.1" fill="none" stroke="#111" stroke-width="1.6"/><rect x="7.56" y="47.03" width="0.52" height="0.1" fill="none" stroke="#111" stroke-width="1.6"/><rect x="7.56" y="48.07" width="0.52" height="0.1" fill="none" stroke="#111" stroke-width="1.6"/><rect x="7.56" y="49.11" width="0.52" height="0.1" fill="none" stroke="#111" stroke-width="1.6"/><rect x="7.56" y="50.15" width="0.52" height="0.1" fill="none" stroke="#111" stroke-width="1.6"/><rect x="7.56" y="51.19" width="0.52" height="0.1" fill="none" stroke="#111" stroke-width="1.6"/><rect x="7.56" y="52.23" width="0.52" height="0.1" fill="none" stroke="#111" stroke-width="1.6"/><rect x="7.56" y="53.27" width="0.52" height="0.1" fill="none" stroke="#111" stroke-width="1.6"/><rect x="7.56" y="54.31" width="0.52" height="0.1" fill="none" stroke="#111" stroke-width="1.6"/><rect x="7.56" y="55.35" width="0.52" height="0.1" fill="none" stroke="#111" stroke-width="1.6"/><rect x="7.56" y="56.39" width="0.52" height="0.1" fill="none" stroke="#111" stroke-width="1.6"/><rect x="7.56" y="57.43" width="0.52" height="0.1" fill="none" stroke="#111" stroke-width="1.6"/></svg>