<svg xmlns="http://www.w3.org/2000/svg" width="96" height="64" viewBox="0 0 96 64"><rect x="6" y="6.6" width="84" height="22.8" fill="none" stroke="#111" stroke-width="1.6"/><rect x="9" y="9" width="6" height="18" fill="none" stroke="#111" stroke-width="1.6"/><polyline points="12,9 12,6" fill="none" stroke="#111" stroke-width="1.6" stroke-linecap="round" stroke-linejoin="round"/><polyline points="12,30 12,27" fill="none" stroke="#111" stroke-width="1.6" stroke-linecap="round" stroke-linejoin="round"/><rect x="21" y="9" width="6" height="18" fill="none" stroke="#111" stroke-width="1.6"/><polyline points="24,9 24,6" fill="none" stroke="#111" stroke-width="1.6" stroke-linecap="round" stroke-linejoin="round"/><polyline points="24,30 24,27" fill="none" stroke="#111" stroke-width="1.6" stroke-linecap="round" stroke-linejoin="round"/><rect x="33" y="9" width="6" height="18" fill="none" stroke="#111" stroke-width="1.6"/><polyline points="36,9 36,6" fill="none" stroke="#111" stroke-width="1.6" stroke-linecap="round" stroke-linejoin="round"/><polyline points="36,30 36,27" fill="none" stroke="#111" stroke-width="1.6" stroke-linecap="round" stroke-linejoin="round"/><rect x="45" y="9" width="6" height="18" fill="none" stroke="#111" stroke-width="1.6"/><polyline points="48,9 48,6" fill="none" stroke="#111" stroke-width="1.6" stroke-linecap="round" stroke-linejoin="round"/><polyline points="48,30 48,27" fill="none" stroke="#111" stroke-width="1.6" stroke-linecap="round" stroke-linejoin="round"/><rect x="57" y="9" width="6" height="18" fill="none" stroke="#111" stroke-width="1.6"/><polyline points="60,9 60,6" fill="none" stroke="#111" stroke-width="1.6" stroke-linecap="round" stroke-linejoin="round"/><polyline points="60,30 60,27" fill="none" stroke="#111" stroke-width="1.6" stroke-linecap="round" stroke-linejoin="round"/><rect x="69" y="9" width="6" height="18" fill="none" stroke="#111" stroke-width="1.6"/><polyline points="72,9 72,6" fill="none" stroke="#111" stroke-width="1.6" stroke-linecap="round" stroke-linejoin="round"/><polyline points="72,30 72,27" fill="none" stroke="#111" stroke-width="1.6" stroke-linecap="round" stroke-linejoin="round"/><rect x="81" y="9" width="6" height="18" fill="none" stroke="#111" stroke-width="1.6"/><polyline points="84,9 84,6" fill="none" stroke="#111" stroke-width="1.6" stroke-linecap="round" stroke-linejoin="round"/><polyline points="84,30 84,27" fill="none" stroke="#111" stroke-width="1.6" stroke-linecap="round" stroke-linejoin="round"/></svg>