<svg xmlns="http://www.w3.org/2000/svg" width="96" height="64" viewBox="0 0 96 64"><rect x="6" y="26.8" width="17.33" height="31.2" fill="none" stroke="#111" stroke-width="1.6"/><rect x="6" y="30.27" width="8.67" height="3.46" fill="none" stroke="#111" stroke-width="1.6"/><rect x="6" y="30.27" width="8.67" height="27.73" fill="none" stroke="#111" stroke-width="1.6"/><rect x="6" y="33.73" width="17.33" height="3.47" fill="none" stroke="#111" stroke-width="1.6"/><rect x="6" y="37.2" width="17.33" height="3.47" fill="none" stroke="#111" stroke-width="1.6"/><rect x="6" y="40.67" width="17.33" height="3.46" fill="none" stroke="#111" stroke-width="1.6"/><rect x="6" y="44.13" width="17.33" height="3.47" fill="none" stroke="#111" stroke-width="1.6"/><rect x="6" y="47.6" width="17.33" height="3.47" fill="none" stroke="#111" stroke-width="1.6"/><rect x="6" y="51.07" width="17.33" height="3.46" fill="none" stroke="#111" stroke-width="1.6"/><rect x="6" y="54.53" width="0" height="0" fill="none" stroke="#111" stroke-width="1.6"/><polyline points="7.73,26.8 7.73,25.07 6,25.07 6,6 23.33,6 23.33,25.07 21.6,25.07 21.6,26.8 21.6,26.8" fill="none" stroke="#111" stroke-width="1.6" stroke-linecap="round" stroke-linejoin="round"/></svg>