<svg xmlns="http://www.w3.org/2000/svg" width="96" height="64" viewBox="0 0 96 64"><rect x="6" y="6" width="78" height="52" fill="none" stroke="#111" stroke-width="1.6"/><circle cx="19" cy="47.6" r="2.6" fill="none" stroke="#111" stroke-width="1.6"/><polyline points="19,58 19,42.4 24.2,42.4 24.2,35.9 13.8,35.9 13.8,29.4 24.2,29.4 24.2,22.9 13.8,22.9 13.8,16.4 24.2,16.4 24.2,9.9 19,9.9 19,6" fill="none" stroke="#111" stroke-width="1.6" stroke-linecap="round" stroke-linejoin="round"/><circle cx="71" cy="47.6" r="2.6" fill="none" stroke="#111" stroke-width="1.6"/><polyline points="37.2,39.8 37.2,55.4 52.8,47.6 37.2,39.8" fill="none" stroke="#111" stroke-width="1.6" stroke-linecap="round" stroke-linejoin="round"/><polyline points="52.8,39.8 52.8,47.6 52.8,55.4" fill="none" stroke="#111" stroke-width="1.6" stroke-linecap="round" stroke-linejoin="round"/><polyline points="63.2,16.4 78.8,16.4 78.8,19" fill="none" stroke="#111" stroke-width="1.6" stroke-linecap="round" stroke-linejoin="round"/><polyline points="63.2,32 78.8,32 71,16.4 63.2,32" fill="none" stroke="#111" stroke-width="1.6" stroke-linecap="round" stroke-linejoin="round"/><polyline points="71,6 71,58" fill="none" stroke="#111" stroke-width="1.6" stroke-linecap="round" stroke-linejoin="round"/><polyline points="71,47.6 19,47.6" fill="none" stroke="#111" stroke-width="1.6" stroke-linecap="round" stroke-linejoin="round"/></svg>