<svg xmlns="http://www.w3.org/2000/svg" width="96" height="64" viewBox="0 0 96 64"><rect x="6" y="6.42" width="84" height="15.96" fill="none" stroke="#111" stroke-width="1.6"/><rect x="8.1" y="8.1" width="4.2" height="12.6" fill="none" stroke="#111" stroke-width="1.6"/><polyline points="10.2,8.1 10.2,6" fill="none" stroke="#111" stroke-width="1.6" stroke-linecap="round" stroke-linejoin="round"/><polyline points="10.2,22.8 10.2,20.7" fill="none" stroke="#111" stroke-width="1.6" stroke-linecap="round" stroke-linejoin="round"/><rect x="16.5" y="8.1" width="4.2" height="12.6" fill="none" stroke="#111" stroke-width="1.6"/><polyline points="18.6,8.1 18.6,6" fill="none" stroke="#111" stroke-width="1.6" stroke-linecap="round" stroke-linejoin="round"/><polyline points="18.6,22.8 18.6,20.7" fill="none" stroke="#111" stroke-width="1.6" stroke-linecap="round" stroke-linejoin="round"/><rect x="24.9" y="8.1" width="4.2" height="12.6" fill="none" stroke="#111" stroke-width="1.6"/><polyline points="27,8.1 27,6" fill="none" stroke="#111" stroke-width="1.6" stroke-linecap="round" stroke-linejoin="round"/><polyline points="27,22.8 27,20.7" fill="none" stroke="#111" stroke-width="1.6" stroke-linecap="round" stroke-linejoin="round"/><rect x="33.3" y="8.1" width="4.2" height="12.6" fill="none" stroke="#111" stroke-width="1.6"/><polyline points="35.4,8.1 35.4,6" fill="none" stroke="#111" stroke-width="1.6" stroke-linecap="round" stroke-linejoin="round"/><polyline points="35.4,22.8 35.4,20.7" fill="none" stroke="#111" stroke-width="1.6" stroke-linecap="round" stroke-linejoin="round"/><rect x="41.7" y="8.1" width="4.2" height="12.6" fill="none" stroke="#111" stroke-width="1.6"/><polyline points="43.8,8.1 43.8,6" fill="none" stroke="#111" stroke-width="1.6" stroke-linecap="round" stroke-linejoin="round"/><polyline points="43.8,22.8 43.8,20.7" fill="none" stroke="#111" stroke-width="1.6" stroke-linecap="round" stroke-linejoin="round"/><rect x="50.1" y="8.1" width="4.2" height="12.6" fill="none" stroke="#111" stroke-width="1.6"/><polyline points="52.2,8.1 52.2,6" fill="none" stroke="#111" stroke-width="1.6" stroke-linecap="round" stroke-linejoin="round"/><polyline points="52.2,22.8 52.2,20.7" fill="none" stroke="#111" stroke-width="1.6" stroke-linecap="round" stroke-linejoin="round"/><rect x="58.5" y="8.1" width="4.2" height="12.6" fill="none" stroke="#111" stroke-width="1.6"/><polyline points="60.6,8.1 60.6,6" fill="none" stroke="#111" stroke-width="1.6" stroke-linecap="round" stroke-linejoin="round"/><polyline points="60.6,22.8 60.6,20.7" fill="none" stroke="#111" stroke-width="1.6" stroke-linecap="round" stroke-linejoin="round"/><rect x="66.9" y="8.1" width="4.2" height="12.6" fill="none" stroke="#111" stroke-width="1.6"/><polyline points="69,8.1 69,6" fill="none" stroke="#111" stroke-width="1.6" stroke-linecap="round" stroke-linejoin="round"/><polyline points="69,22.8 69,20.7" fill="none" stroke="#111" stroke-width="1.6" stroke-linecap="round" stroke-linejoin="round"/><rect x="75.3" y="8.1" width="4.2" height="12.6" fill="none" stroke="#111" stroke-width="1.6"/><polyline points="77.4,8.1 77.4,6" fill="none" stroke="#111" stroke-width="1.6" stroke-linecap="round" stroke-linejoin="round"/><polyline points="77.4,22.8 77.4,20.7" fill="none" stroke="#111" stroke-width="1.6" stroke-linecap="round" stroke-linejoin="round"/><rect x="83.7" y="8.1" width="4.2" height="12.6" fill="none" stroke="#111" stroke-width="1.6"/><polyline points="85.8,8.1 85.8,6" fill="none" stroke="#111" stroke-width="1.6" stroke-linecap="round" stroke-linejoin="round"/><polyline points="85.8,22.8 85.8,20.7" fill="none" stroke="#111" stroke-width="1.6" stroke-linecap="round" stroke-linejoin="round"/></svg>