<svg xmlns="http://www.w3.org/2000/svg" width="96" height="64" viewBox="0 0 96 64"><polyline points="59.02,27 59.02,11.25 79.5,11.25" fill="none" stroke="#111" stroke-width="1.6" stroke-linecap="round" stroke-linejoin="round"/><polyline points="79.5,15.97 79.5,6" fill="none" stroke="#111" stroke-width="1.6" stroke-linecap="round" stroke-linejoin="round"/><polyline points="79.5,38.02 79.5,48" fill="none" stroke="#111" stroke-width="1.6" stroke-linecap="round" stroke-linejoin="round"/><rect x="9.15" y="24.9" width="8.93" height="4.2" fill="none" stroke="#111" stroke-width="1.6"/><polyline points="9.15,27 6,27" fill="none" stroke="#111" stroke-width="1.6" stroke-linecap="round" stroke-linejoin="round"/><polyline points="18.08,27 26.48,27" fill="none" stroke="#111" stroke-width="1.6" stroke-linecap="round" stroke-linejoin="round"/><polyline points="22.27,27 22.27,11.25 59.02,11.25" fill="none" stroke="#111" stroke-width="1.6" stroke-linecap="round" stroke-linejoin="round"/><polyline points="40.65,11.25 40.65,19.65" fill="none" stroke="#111" stroke-width="1.6" stroke-linecap="round" stroke-linejoin="round"/><rect x="6" y="6" width="84" height="42" fill="none" stroke="#111" stroke-width="1.6"/><polyline points="20.18,14.4 20.7,14.93 23.85,14.93 24.38,15.45" fill="none" stroke="#111" stroke-width="1.6" stroke-linecap="round" stroke-linejoin="round"/><polyline points="22.27,14.93 20.7,17.55 23.85,17.55 22.27,14.93" fill="none" stroke="#111" stroke-width="1.6" stroke-linecap="round" stroke-linejoin="round"/><circle cx="22.27" cy="27" r="1.15" fill="none" stroke="#111" stroke-width="1.6"/><rect x="26.48" y="19.65" width="27.82" height="14.7" fill="none" stroke="#111" stroke-width="1.6"/><circle cx="40.65" cy="11.25" r="1.15" fill="none" stroke="#111" stroke-width="1.6"/><polyline points="56.92,14.4 57.45,14.93 60.6,14.93 61.12,15.45" fill="none" stroke="#111" stroke-width="1.6" stroke-linecap="round" stroke-linejoin="round"/><circle cx="59.02" cy="11.25" r="1.15" fill="none" stroke="#111" stroke-width="1.6"/><polyline points="59.02,14.93 57.45,17.55 60.6,17.55 59.02,14.93" fill="none" stroke="#111" stroke-width="1.6" stroke-linecap="round" stroke-linejoin="round"/><polyline points="59.02,23.32 60.6,20.7 57.45,20.7 59.02,23.32" fill="none" stroke="#111" stroke-width="1.6" stroke-linecap="round" stroke-linejoin="round"/><polyline points="59.02,27 54.3,27" fill="none" stroke="#111" stroke-width="1.6" stroke-linecap="round" stroke-linejoin="round"/><polyline points="59.02,27 70.05,27" fill="none" stroke="#111" stroke-width="1.6" stroke-linecap="round" stroke-linejoin="round"/><circle cx="59.02" cy="27" r="1.15" fill="none" stroke="#111" stroke-width="1.6"/><polyline points="60.6,23.32 57.45,23.32" fill="none" stroke="#111" stroke-width="1.6" stroke-linecap="round" stroke-linejoin="round"/><polyline points="70.05,19.12 70.05,34.88" fill="none" stroke="#111" stroke-width="1.6" stroke-linecap="round" stroke-linejoin="round"/><polyline points="72.15,17.55 72.15,21.75" fill="none" stroke="#111" stroke-width="1.6" stroke-linecap="round" stroke-linejoin="round"/><polyline points="72.15,19.65 79.5,19.65" fill="none" stroke="#111" stroke-width="1.6" stroke-linecap="round" stroke-linejoin="round"/><polyline points="72.15,24.9 72.15,29.1" fill="none" stroke="#111" stroke-width="1.6" stroke-linecap="round" stroke-linejoin="round"/><polyline points="72.15,27 79.5,27" fill="none" stroke="#111" stroke-width="1.6" stroke-linecap="round" stroke-linejoin="round"/><polyline points="72.15,32.25 72.15,36.45" fill="none" stroke="#111" stroke-width="1.6" stroke-linecap="round" stroke-linejoin="round"/><polyline points="72.15,34.35 79.5,34.35" fill="none" stroke="#111" stroke-width="1.6" stroke-linecap="round" stroke-linejoin="round"/><polyline points="73.2,27 77.4,25.42 77.4,28.57 73.2,27" fill="none" stroke="#111" stroke-width="1.6" stroke-linecap="round" stroke-linejoin="round"/><circle cx="75.82" cy="27" r="11.65" fill="none" stroke="#111" stroke-width="1.6"/><circle cx="79.5" cy="11.25" r="1.15" fill="none" stroke="#111" stroke-width="1.6"/><polyline points="79.5,15.97 79.5,19.65" fill="none" stroke="#111" stroke-width="1.6" stroke-linecap="round" stroke-linejoin="round"/><circle cx="79.5" cy="19.65" r="1.15" fill="none" stroke="#111" stroke-width="1.6"/><polyline points="79.5,34.35 79.5,27" fill="none" stroke="#111" stroke-width="1.6" stroke-linecap="round" stroke-linejoin="round"/><polyline points="79.5,34.35 79.5,38.02" fill="none" stroke="#111" stroke-width="1.6" stroke-linecap="round" stroke-linejoin="round"/><polyline points="79.5,34.35 82.65,34.35 82.65,19.65 79.5,19.65" fill="none" stroke="#111" stroke-width="1.6" stroke-linecap="round" stroke-linejoin="round"/><circle cx="79.5" cy="34.35" r="1.15" fill="none" stroke="#111" stroke-width="1.6"/><polyline points="82.65,25.42 81.08,28.05 84.23,28.05 82.65,25.42" fill="none" stroke="#111" stroke-width="1.6" stroke-linecap="round" stroke-linejoin="round"/><polyline points="84.23,25.42 81.08,25.42" fill="none" stroke="#111" stroke-width="1.6" stroke-linecap="round" stroke-linejoin="round"/></svg>