<svg xmlns="http://www.w3.org/2000/svg" width="96" height="64" viewBox="0 0 96 64"><polyline points="6,6.18 6.26,6.18" fill="none" stroke="#111" stroke-width="1.6" stroke-linecap="round" stroke-linejoin="round"/><polyline points="6,7.05 6.26,7.05" fill="none" stroke="#111" stroke-width="1.6" stroke-linecap="round" stroke-linejoin="round"/><polyline points="6,7.93 6.26,7.93" fill="none" stroke="#111" stroke-width="1.6" stroke-linecap="round" stroke-linejoin="round"/><polyline points="6,8.8 6.26,8.8" fill="none" stroke="#111" stroke-width="1.6" stroke-linecap="round" stroke-linejoin="round"/><polyline points="6,9.68 6.26,9.68" fill="none" stroke="#111" stroke-width="1.6" stroke-linecap="round" stroke-linejoin="round"/><polyline points="6,10.55 6.26,10.55" fill="none" stroke="#111" stroke-width="1.6" stroke-linecap="round" stroke-linejoin="round"/><polyline points="6,11.43 6.26,11.43" fill="none" stroke="#111" stroke-width="1.6" stroke-linecap="round" stroke-linejoin="round"/><polyline points="6,12.3 6.26,12.3" fill="none" stroke="#111" stroke-width="1.6" stroke-linecap="round" stroke-linejoin="round"/><polyline points="6,13.18 6.26,13.18" fill="none" stroke="#111" stroke-width="1.6" stroke-linecap="round" stroke-linejoin="round"/><polyline points="6,14.05 6.26,14.05" fill="none" stroke="#111" stroke-width="1.6" stroke-linecap="round" stroke-linejoin="round"/><polyline points="6,14.93 6.26,14.93" fill="none" stroke="#111" stroke-width="1.6" stroke-linecap="round" stroke-linejoin="round"/><polyline points="6,15.8 6.26,15.8" fill="none" stroke="#111" stroke-width="1.6" stroke-linecap="round" stroke-linejoin="round"/><polyline points="6,16.68 6.26,16.68" fill="none" stroke="#111" stroke-width="1.6" stroke-linecap="round" stroke-linejoin="round"/><polyline points="6,17.56 6.26,17.56" fill="none" stroke="#111" stroke-width="1.6" stroke-linecap="round" stroke-linejoin="round"/><polyline points="6,18.43 6.26,18.43" fill="none" stroke="#111" stroke-width="1.6" stroke-linecap="round" stroke-linejoin="round"/><polyline points="6,19.31 6.26,19.31" fill="none" stroke="#111" stroke-width="1.6" stroke-linecap="round" stroke-linejoin="round"/><polyline points="6,20.18 6.26,20.18" fill="none" stroke="#111" stroke-width="1.6" stroke-linecap="round" stroke-linejoin="round"/><polyline points="6,21.06 6.26,21.06" fill="none" stroke="#111" stroke-width="1.6" stroke-linecap="round" stroke-linejoin="round"/><polyline points="6,21.93 6.26,21.93" fill="none" stroke="#111" stroke-width="1.6" stroke-linecap="round" stroke-linejoin="round"/><polyline points="6,22.81 6.26,22.81" fill="none" stroke="#111" stroke-width="1.6" stroke-linecap="round" stroke-linejoin="round"/><polyline points="6,23.68 6.26,23.68" fill="none" stroke="#111" stroke-width="1.6" stroke-linecap="round" stroke-linejoin="round"/><polyline points="6,24.56 6.26,24.56" fill="none" stroke="#111" stroke-width="1.6" stroke-linecap="round" stroke-linejoin="round"/><polyline points="6,25.43 6.26,25.43" fill="none" stroke="#111" stroke-width="1.6" stroke-linecap="round" stroke-linejoin="round"/><polyline points="6,26.31 6.26,26.31" fill="none" stroke="#111" stroke-width="1.6" stroke-linecap="round" stroke-linejoin="round"/><polyline points="6,27.19 6.26,27.19" fill="none" stroke="#111" stroke-width="1.6" stroke-linecap="round" stroke-linejoin="round"/><polyline points="6,28.06 6.26,28.06" fill="none" stroke="#111" stroke-width="1.6" stroke-linecap="round" stroke-linejoin="round"/><polyline points="6,28.94 6.26,28.94" fill="none" stroke="#111" stroke-width="1.6" stroke-linecap="round" stroke-linejoin="round"/><polyline points="6,29.81 6.26,29.81" fill="none" stroke="#111" stroke-width="1.6" stroke-linecap="round" stroke-linejoin="round"/><polyline points="6,30.69 6.26,30.69" fill="none" stroke="#111" stroke-width="1.6" stroke-linecap="round" stroke-linejoin="round"/><polyline points="6,31.56 6.26,31.56" fill="none" stroke="#111" stroke-width="1.6" stroke-linecap="round" stroke-linejoin="round"/><polyline points="6,32.44 6.26,32.44" fill="none" stroke="#111" stroke-width="1.6" stroke-linecap="round" stroke-linejoin="round"/><polyline points="6,33.31 6.26,33.31" fill="none" stroke="#111" stroke-width="1.6" stroke-linecap="round" stroke-linejoin="round"/><polyline points="6,34.19 6.26,34.19" fill="none" stroke="#111" stroke-width="1.6" stroke-linecap="round" stroke-linejoin="round"/><polyline points="6,35.06 6.26,35.06" fill="none" stroke="#111" stroke-width="1.6" stroke-linecap="round" stroke-linejoin="round"/><polyline points="6,35.94 6.26,35.94" fill="none" stroke="#111" stroke-width="1.6" stroke-linecap="round" stroke-linejoin="round"/><polyline points="6,36.81 6.26,36.81" fill="none" stroke="#111" stroke-width="1.6" stroke-linecap="round" stroke-linejoin="round"/><polyline points="6,37.69 6.26,37.69" fill="none" stroke="#111" stroke-width="1.6" stroke-linecap="round" stroke-linejoin="round"/><polyline points="6,38.57 6.26,38.57" fill="none" stroke="#111" stroke-width="1.6" stroke-linecap="round" stroke-linejoin="round"/><polyline points="6,39.44 6.26,39.44" fill="none" stroke="#111" stroke-width="1.6" stroke-linecap="round" stroke-linejoin="round"/><polyline points="6,40.32 6.26,40.32" fill="none" stroke="#111" stroke-width="1.6" stroke-linecap="round" stroke-linejoin="round"/><polyline points="6,41.19 6.26,41.19" fill="none" stroke="#111" stroke-width="1.6" stroke-linecap="round" stroke-linejoin="round"/><polyline points="6,42.07 6.26,42.07" fill="none" stroke="#111" stroke-width="1.6" stroke-linecap="round" stroke-linejoin="round"/><polyline points="6,42.94 6.26,42.94" fill="none" stroke="#111" stroke-width="1.6" stroke-linecap="round" stroke-linejoin="round"/><polyline points="6,43.82 6.26,43.82" fill="none" stroke="#111" stroke-width="1.6" stroke-linecap="round" stroke-linejoin="round"/><polyline points="6,44.69 6.26,44.69" fill="none" stroke="#111" stroke-width="1.6" stroke-linecap="round" stroke-linejoin="round"/><polyline points="6,45.57 6.26,45.57" fill="none" stroke="#111" stroke-width="1.6" stroke-linecap="round" stroke-linejoin="round"/><polyline points="6,46.44 6.26,46.44" fill="none" stroke="#111" stroke-width="1.6" stroke-linecap="round" stroke-linejoin="round"/><polyline points="6,47.32 6.26,47.32" fill="none" stroke="#111" stroke-width="1.6" stroke-linecap="round" stroke-linejoin="round"/><polyline points="6,48.2 6.26,48.2" fill="none" stroke="#111" stroke-width="1.6" stroke-linecap="round" stroke-linejoin="round"/><polyline points="6,49.07 6.26,49.07" fill="none" stroke="#111" stroke-width="1.6" stroke-linecap="round" stroke-linejoin="round"/><polyline points="6,49.95 6.26,49.95" fill="none" stroke="#111" stroke-width="1.6" stroke-linecap="round" stroke-linejoin="round"/><polyline points="6,50.82 6.26,50.82" fill="none" stroke="#111" stroke-width="1.6" stroke-linecap="round" stroke-linejoin="round"/><polyline points="6,51.7 6.26,51.7" fill="none" stroke="#111" stroke-width="1.6" stroke-linecap="round" stroke-linejoin="round"/><polyline points="6,52.57 6.26,52.57" fill="none" stroke="#111" stroke-width="1.6" stroke-linecap="round" stroke-linejoin="round"/><polyline points="6,53.45 6.26,53.45" fill="none" stroke="#111" stroke-width="1.6" stroke-linecap="round" stroke-linejoin="round"/><polyline points="6,54.32 6.26,54.32" fill="none" stroke="#111" stroke-width="1.6" stroke-linecap="round" stroke-linejoin="round"/><polyline points="6,55.2 6.26,55.2" fill="none" stroke="#111" stroke-width="1.6" stroke-linecap="round" stroke-linejoin="round"/><polyline points="6,56.07 6.26,56.07" fill="none" stroke="#111" stroke-width="1.6" stroke-linecap="round" stroke-linejoin="round"/><polyline points="6,56.95 6.26,56.95" fill="none" stroke="#111" stroke-width="1.6" stroke-linecap="round" stroke-linejoin="round"/><polyline points="6,57.82 6.26,57.82" fill="none" stroke="#111" stroke-width="1.6" stroke-linecap="round" stroke-linejoin="round"/><path d="M 6.44 6.35 Q 6.26 6.18 6.44 6" fill="none" stroke="#111" stroke-width="1.6" stroke-linecap="round"/><path d="M 6.44 7.23 Q 6.26 7.05 6.44 6.88" fill="none" stroke="#111" stroke-width="1.6" stroke-linecap="round"/><path d="M 6.44 8.1 Q 6.26 7.93 6.44 7.75" fill="none" stroke="#111" stroke-width="1.6" stroke-linecap="round"/><path d="M 6.44 8.98 Q 6.26 8.8 6.44 8.63" fill="none" stroke="#111" stroke-width="1.6" stroke-linecap="round"/><path d="M 6.44 9.85 Q 6.26 9.68 6.44 9.5" fill="none" stroke="#111" stroke-width="1.6" stroke-linecap="round"/><path d="M 6.44 10.73 Q 6.26 10.55 6.44 10.38" fill="none" stroke="#111" stroke-width="1.6" stroke-linecap="round"/><path d="M 6.44 11.6 Q 6.26 11.43 6.44 11.25" fill="none" stroke="#111" stroke-width="1.6" stroke-linecap="round"/><path d="M 6.44 12.48 Q 6.26 12.3 6.44 12.13" fill="none" stroke="#111" stroke-width="1.6" stroke-linecap="round"/><path d="M 6.44 13.35 Q 6.26 13.18 6.44 13" fill="none" stroke="#111" stroke-width="1.6" stroke-linecap="round"/><path d="M 6.44 14.23 Q 6.26 14.05 6.44 13.88" fill="none" stroke="#111" stroke-width="1.6" stroke-linecap="round"/><path d="M 6.44 15.1 Q 6.26 14.93 6.44 14.75" fill="none" stroke="#111" stroke-width="1.6" stroke-linecap="round"/><path d="M 6.44 15.98 Q 6.26 15.8 6.44 15.63" fill="none" stroke="#111" stroke-width="1.6" stroke-linecap="round"/><path d="M 6.44 16.86 Q 6.26 16.68 6.44 16.51" fill="none" stroke="#111" stroke-width="1.6" stroke-linecap="round"/><path d="M 6.44 17.73 Q 6.26 17.56 6.44 17.38" fill="none" stroke="#111" stroke-width="1.6" stroke-linecap="round"/><path d="M 6.44 18.61 Q 6.26 18.43 6.44 18.26" fill="none" stroke="#111" stroke-width="1.6" stroke-linecap="round"/><path d="M 6.44 19.48 Q 6.26 19.31 6.44 19.13" fill="none" stroke="#111" stroke-width="1.6" stroke-linecap="round"/><path d="M 6.44 20.36 Q 6.26 20.18 6.44 20.01" fill="none" stroke="#111" stroke-width="1.6" stroke-linecap="round"/><path d="M 6.44 21.23 Q 6.26 21.06 6.44 20.88" fill="none" stroke="#111" stroke-width="1.6" stroke-linecap="round"/><path d="M 6.44 22.11 Q 6.26 21.93 6.44 21.76" fill="none" stroke="#111" stroke-width="1.6" stroke-linecap="round"/><path d="M 6.44 22.98 Q 6.26 22.81 6.44 22.63" fill="none" stroke="#111" stroke-width="1.6" stroke-linecap="round"/><path d="M 6.44 23.86 Q 6.26 23.68 6.44 23.51" fill="none" stroke="#111" stroke-width="1.6" stroke-linecap="round"/><path d="M 6.44 24.73 Q 6.26 24.56 6.44 24.38" fill="none" stroke="#111" stroke-width="1.6" stroke-linecap="round"/><path d="M 6.44 25.61 Q 6.26 25.43 6.44 25.26" fill="none" stroke="#111" stroke-width="1.6" stroke-linecap="round"/><path d="M 6.44 26.48 Q 6.26 26.31 6.44 26.13" fill="none" stroke="#111" stroke-width="1.6" stroke-linecap="round"/><path d="M 6.44 27.36 Q 6.26 27.19 6.44 27.01" fill="none" stroke="#111" stroke-width="1.6" stroke-linecap="round"/><path d="M 6.44 28.24 Q 6.26 28.06 6.44 27.89" fill="none" stroke="#111" stroke-width="1.6" stroke-linecap="round"/><path d="M 6.44 29.11 Q 6.26 28.94 6.44 28.76" fill="none" stroke="#111" stroke-width="1.6" stroke-linecap="round"/><path d="M 6.44 29.99 Q 6.26 29.81 6.44 29.64" fill="none" stroke="#111" stroke-width="1.6" stroke-linecap="round"/><path d="M 6.44 30.86 Q 6.26 30.69 6.44 30.51" fill="none" stroke="#111" stroke-width="1.6" stroke-linecap="round"/><path d="M 6.44 31.74 Q 6.26 31.56 6.44 31.39" fill="none" stroke="#111" stroke-width="1.6" stroke-linecap="round"/><path d="M 6.44 32.61 Q 6.26 32.44 6.44 32.26" fill="none" stroke="#111" stroke-width="1.6" stroke-linecap="round"/><path d="M 6.44 33.49 Q 6.26 33.31 6.44 33.14" fill="none" stroke="#111" stroke-width="1.6" stroke-linecap="round"/><path d="M 6.44 34.36 Q 6.26 34.19 6.44 34.01" fill="none" stroke="#111" stroke-width="1.6" stroke-linecap="round"/><path d="M 6.44 35.24 Q 6.26 35.06 6.44 34.89" fill="none" stroke="#111" stroke-width="1.6" stroke-linecap="round"/><path d="M 6.44 36.11 Q 6.26 35.94 6.44 35.76" fill="none" stroke="#111" stroke-width="1.6" stroke-linecap="round"/><path d="M 6.44 36.99 Q 6.26 36.81 6.44 36.64" fill="none" stroke="#111" stroke-width="1.6" stroke-linecap="round"/><path d="M 6.44 37.87 Q 6.26 37.69 6.44 37.52" fill="none" stroke="#111" stroke-width="1.6" stroke-linecap="round"/><path d="M 6.44 38.74 Q 6.26 38.57 6.44 38.39" fill="none" stroke="#111" stroke-width="1.6" stroke-linecap="round"/><path d="M 6.44 39.62 Q 6.26 39.44 6.44 39.27" fill="none" stroke="#111" stroke-width="1.6" stroke-linecap="round"/><path d="M 6.44 40.49 Q 6.26 40.32 6.44 40.14" fill="none" stroke="#111" stroke-width="1.6" stroke-linecap="round"/><path d="M 6.44 41.37 Q 6.26 41.19 6.44 41.02" fill="none" stroke="#111" stroke-width="1.6" stroke-linecap="round"/><path d="M 6.44 42.24 Q 6.26 42.07 6.44 41.89" fill="none" stroke="#111" stroke-width="1.6" stroke-linecap="round"/><path d="M 6.44 43.12 Q 6.26 42.94 6.44 42.77" fill="none" stroke="#111" stroke-width="1.6" stroke-linecap="round"/><path d="M 6.44 43.99 Q 6.26 43.82 6.44 43.64" fill="none" stroke="#111" stroke-width="1.6" stroke-linecap="round"/><path d="M 6.44 44.87 Q 6.26 44.69 6.44 44.52" fill="none" stroke="#111" stroke-width="1.6" stroke-linecap="round"/><path d="M 6.44 45.74 Q 6.26 45.57 6.44 45.39" fill="none" stroke="#111" stroke-width="1.6" stroke-linecap="round"/><path d="M 6.44 46.62 Q 6.26 46.44 6.44 46.27" fill="none" stroke="#111" stroke-width="1.6" stroke-linecap="round"/><path d="M 6.44 47.49 Q 6.26 47.32 6.44 47.14" fill="none" stroke="#111" stroke-width="1.6" stroke-linecap="round"/><path d="M 6.44 48.37 Q 6.26 48.2 6.44 48.02" fill="none" stroke="#111" stroke-width="1.6" stroke-linecap="round"/><path d="M 6.44 49.25 Q 6.26 49.07 6.44 48.9" fill="none" stroke="#111" stroke-width="1.6" stroke-linecap="round"/><path d="M 6.44 50.12 Q 6.26 49.95 6.44 49.77" fill="none" stroke="#111" stroke-width="1.6" stroke-linecap="round"/><path d="M 6.44 51 Q 6.26 50.82 6.44 50.65" fill="none" stroke="#111" stroke-width="1.6" stroke-linecap="round"/><path d="M 6.44 51.87 Q 6.26 51.7 6.44 51.52" fill="none" stroke="#111" stroke-width="1.6" stroke-linecap="round"/><path d="M 6.44 52.75 Q 6.26 52.57 6.44 52.4" fill="none" stroke="#111" stroke-width="1.6" stroke-linecap="round"/><path d="M 6.44 53.62 Q 6.26 53.45 6.44 53.27" fill="none" stroke="#111" stroke-width="1.6" stroke-linecap="round"/><path d="M 6.44 54.5 Q 6.26 54.32 6.44 54.15" fill="none" stroke="#111" stroke-width="1.6" stroke-linecap="round"/><path d="M 6.44 55.37 Q 6.26 55.2 6.44 55.02" fill="none" stroke="#111" stroke-width="1.6" stroke-linecap="round"/><path d="M 6.44 56.25 Q 6.26 56.07 6.44 55.9" fill="none" stroke="#111" stroke-width="1.6" stroke-linecap="round"/><path d="M 6.44 57.12 Q 6.26 56.95 6.44 56.77" fill="none" stroke="#111" stroke-width="1.6" stroke-linecap="round"/><path d="M 6.44 58 Q 6.26 57.82 6.44 57.65" fill="none" stroke="#111" stroke-width="1.6" stroke-linecap="round"/></svg>