<svg xmlns="http://www.w3.org/2000/svg" width="96" height="64" viewBox="0 0 96 64"><rect x="6" y="6" width="78" height="52" fill="none" stroke="#111" stroke-width="1.6"/><polyline points="6,19 37.2,19" fill="none" stroke="#111" stroke-width="1.6" stroke-linecap="round" stroke-linejoin="round"/><polyline points="6,32 37.2,32" fill="none" stroke="#111" stroke-width="1.6" stroke-linecap="round" stroke-linejoin="round"/><polyline points="21.6,19 21.6,51.5" fill="none" stroke="#111" stroke-width="1.6" stroke-linecap="round" stroke-linejoin="round"/><polyline points="21.6,51.5 68.4,51.5" fill="none" stroke="#111" stroke-width="1.6" stroke-linecap="round" stroke-linejoin="round"/><polyline points="30.7,32 30.7,51.5" fill="none" stroke="#111" stroke-width="1.6" stroke-linecap="round" stroke-linejoin="round"/><path d="M 42.4 19.19 Q 39.8 21.61 37.2 19.19" fill="none" stroke="#111" stroke-width="1.6" stroke-linecap="round"/><path d="M 37.2 31.81 Q 39.8 29.39 42.4 31.81" fill="none" stroke="#111" stroke-width="1.6" stroke-linecap="round"/><path d="M 47.6 19.19 Q 45 21.61 42.4 19.19" fill="none" stroke="#111" stroke-width="1.6" stroke-linecap="round"/><path d="M 42.4 31.81 Q 45 29.39 47.6 31.81" fill="none" stroke="#111" stroke-width="1.6" stroke-linecap="round"/><polyline points="45,58 45,51.5" fill="none" stroke="#111" stroke-width="1.6" stroke-linecap="round" stroke-linejoin="round"/><path d="M 52.8 19.19 Q 50.2 21.61 47.6 19.19" fill="none" stroke="#111" stroke-width="1.6" stroke-linecap="round"/><path d="M 47.6 31.81 Q 50.2 29.39 52.8 31.81" fill="none" stroke="#111" stroke-width="1.6" stroke-linecap="round"/><polyline points="58,19 52.8,19" fill="none" stroke="#111" stroke-width="1.6" stroke-linecap="round" stroke-linejoin="round"/><polyline points="58,19 84,19" fill="none" stroke="#111" stroke-width="1.6" stroke-linecap="round" stroke-linejoin="round"/><polyline points="58,32 52.8,32" fill="none" stroke="#111" stroke-width="1.6" stroke-linecap="round" stroke-linejoin="round"/><polyline points="58,32 84,32" fill="none" stroke="#111" stroke-width="1.6" stroke-linecap="round" stroke-linejoin="round"/><polyline points="59.3,32 59.3,51.5" fill="none" stroke="#111" stroke-width="1.6" stroke-linecap="round" stroke-linejoin="round"/><polyline points="68.4,19 68.4,51.5" fill="none" stroke="#111" stroke-width="1.6" stroke-linecap="round" stroke-linejoin="round"/><polyline points="18.35,45 24.85,45 21.6,38.5 18.35,45" fill="none" stroke="#111" stroke-width="1.6" stroke-linecap="round" stroke-linejoin="round"/><circle cx="21.6" cy="19" r="1.3" fill="none" stroke="#111" stroke-width="1.6"/><polyline points="24.85,40.45 24.85,38.5 18.35,38.5" fill="none" stroke="#111" stroke-width="1.6" stroke-linecap="round" stroke-linejoin="round"/><polyline points="27.45,45 33.95,45 30.7,38.5 27.45,45" fill="none" stroke="#111" stroke-width="1.6" stroke-linecap="round" stroke-linejoin="round"/><circle cx="30.7" cy="32" r="1.3" fill="none" stroke="#111" stroke-width="1.6"/><circle cx="30.7" cy="51.5" r="1.3" fill="none" stroke="#111" stroke-width="1.6"/><polyline points="33.95,40.45 33.95,38.5 27.45,38.5" fill="none" stroke="#111" stroke-width="1.6" stroke-linecap="round" stroke-linejoin="round"/><circle cx="45" cy="51.5" r="1.3" fill="none" stroke="#111" stroke-width="1.6"/><circle cx="54.75" cy="21.6" r="1.3" fill="none" stroke="#111" stroke-width="1.6"/><circle cx="54.75" cy="29.4" r="1.3" fill="none" stroke="#111" stroke-width="1.6"/><circle cx="59.3" cy="32" r="1.3" fill="none" stroke="#111" stroke-width="1.6"/><circle cx="59.3" cy="51.5" r="1.3" fill="none" stroke="#111" stroke-width="1.6"/><polyline points="62.55,40.45 62.55,38.5 56.05,38.5" fill="none" stroke="#111" stroke-width="1.6" stroke-linecap="round" stroke-linejoin="round"/><polyline points="62.55,45 56.05,45 59.3,38.5 62.55,45" fill="none" stroke="#111" stroke-width="1.6" stroke-linecap="round" stroke-linejoin="round"/><circle cx="68.4" cy="19" r="1.3" fill="none" stroke="#111" stroke-width="1.6"/><polyline points="71.65,40.45 71.65,38.5 65.15,38.5" fill="none" stroke="#111" stroke-width="1.6" stroke-linecap="round" stroke-linejoin="round"/><polyline points="71.65,45 65.15,45 68.4,38.5 71.65,45" fill="none" stroke="#111" stroke-width="1.6" stroke-linecap="round" stroke-linejoin="round"/></svg>