<svg xmlns="http://www.w3.org/2000/svg" width="96" height="64" viewBox="0 0 96 64"><path d="M 10.67 6 Q 13.55 20.01 10.67 34.03" fill="none" stroke="#111" stroke-width="1.6" stroke-linecap="round"/><polyline points="6,10.67 10.67,10.67" fill="none" stroke="#111" stroke-width="1.6" stroke-linecap="round" stroke-linejoin="round"/><polyline points="6,29.36 10.67,29.36" fill="none" stroke="#111" stroke-width="1.6" stroke-linecap="round" stroke-linejoin="round"/><polyline points="24.68,6 10.67,6" fill="none" stroke="#111" stroke-width="1.6" stroke-linecap="round" stroke-linejoin="round"/><polyline points="24.68,34.03 10.67,34.03" fill="none" stroke="#111" stroke-width="1.6" stroke-linecap="round" stroke-linejoin="round"/><path d="M 24.68 6 Q 36.6 9.58 43.37 20.01" fill="none" stroke="#111" stroke-width="1.6" stroke-linecap="round"/><path d="M 43.37 20.01 Q 36.69 30.57 24.68 34.03" fill="none" stroke="#111" stroke-width="1.6" stroke-linecap="round"/><polyline points="43.37,10.67 43.37,48.04" fill="none" stroke="#111" stroke-width="1.6" stroke-linecap="round" stroke-linejoin="round"/><polyline points="43.37,38.7 38.7,38.7 38.7,43.37 38.7,48.04 6,48.04" fill="none" stroke="#111" stroke-width="1.6" stroke-linecap="round" stroke-linejoin="round"/><path d="M 71.4 10.67 Q 90 29.36 71.4 48.04" fill="none" stroke="#111" stroke-width="1.6" stroke-linecap="round"/><polyline points="71.4,10.67 43.37,10.67" fill="none" stroke="#111" stroke-width="1.6" stroke-linecap="round" stroke-linejoin="round"/><polyline points="71.4,48.04 43.37,48.04" fill="none" stroke="#111" stroke-width="1.6" stroke-linecap="round" stroke-linejoin="round"/></svg>