<svg xmlns="http://www.w3.org/2000/svg" width="96" height="64" viewBox="0 0 96 64"><polyline points="11.2,29.4 11.2,32" fill="none" stroke="#111" stroke-width="1.6" stroke-linecap="round" stroke-linejoin="round"/><path d="M 11.2 29.4 Q 13.8 26.81 16.4 29.4" fill="none" stroke="#111" stroke-width="1.6" stroke-linecap="round"/><polyline points="16.4,34.6 16.4,29.4" fill="none" stroke="#111" stroke-width="1.6" stroke-linecap="round" stroke-linejoin="round"/><path d="M 21.6 34.6 Q 19 37.19 16.4 34.6" fill="none" stroke="#111" stroke-width="1.6" stroke-linecap="round"/><polyline points="21.6,32 21.6,34.6" fill="none" stroke="#111" stroke-width="1.6" stroke-linecap="round" stroke-linejoin="round"/><path d="M 21.6 32 Q 26.8 26.82 32 32" fill="none" stroke="#111" stroke-width="1.6" stroke-linecap="round"/><polyline points="29.4,13.8 32,19 34.6,13.8" fill="none" stroke="#111" stroke-width="1.6" stroke-linecap="round" stroke-linejoin="round"/><polyline points="32,19 32,8.6" fill="none" stroke="#111" stroke-width="1.6" stroke-linecap="round" stroke-linejoin="round"/><circle cx="32" cy="32" r="26" fill="none" stroke="#111" stroke-width="1.6"/><path d="M 42.4 32 Q 37.2 37.18 32 32" fill="none" stroke="#111" stroke-width="1.6" stroke-linecap="round"/><polyline points="42.4,29.4 42.4,32" fill="none" stroke="#111" stroke-width="1.6" stroke-linecap="round" stroke-linejoin="round"/><path d="M 42.4 29.4 Q 45 26.81 47.6 29.4" fill="none" stroke="#111" stroke-width="1.6" stroke-linecap="round"/><polyline points="47.6,29.4 47.6,34.6" fill="none" stroke="#111" stroke-width="1.6" stroke-linecap="round" stroke-linejoin="round"/><path d="M 52.8 34.6 Q 50.2 37.19 47.6 34.6" fill="none" stroke="#111" stroke-width="1.6" stroke-linecap="round"/><polyline points="52.8,34.6 52.8,32" fill="none" stroke="#111" stroke-width="1.6" stroke-linecap="round" stroke-linejoin="round"/></svg>