<svg xmlns="http://www.w3.org/2000/svg" width="96" height="64" viewBox="0 0 96 64"><rect x="6" y="6" width="0.44" height="0.13" fill="none" stroke="#111" stroke-width="1.6"/><rect x="6" y="7.3" width="0.44" height="0.13" fill="none" stroke="#111" stroke-width="1.6"/><rect x="6" y="8.59" width="0.44" height="0.13" fill="none" stroke="#111" stroke-width="1.6"/><rect x="6" y="9.89" width="0.44" height="0.13" fill="none" stroke="#111" stroke-width="1.6"/><rect x="6" y="11.19" width="0.44" height="0.13" fill="none" stroke="#111" stroke-width="1.6"/><rect x="6" y="12.48" width="0.44" height="0.13" fill="none" stroke="#111" stroke-width="1.6"/><rect x="6" y="13.78" width="0.44" height="0.13" fill="none" stroke="#111" stroke-width="1.6"/><rect x="6" y="15.08" width="0.44" height="0.13" fill="none" stroke="#111" stroke-width="1.6"/><rect x="6" y="16.37" width="0.44" height="0.13" fill="none" stroke="#111" stroke-width="1.6"/><rect x="6" y="17.67" width="0.44" height="0.13" fill="none" stroke="#111" stroke-width="1.6"/><rect x="6" y="18.97" width="0.44" height="0.13" fill="none" stroke="#111" stroke-width="1.6"/><rect x="6" y="20.26" width="0.44" height="0.13" fill="none" stroke="#111" stroke-width="1.6"/><rect x="6" y="21.56" width="0.44" height="0.13" fill="none" stroke="#111" stroke-width="1.6"/><rect x="6" y="22.86" width="0.44" height="0.13" fill="none" stroke="#111" stroke-width="1.6"/><rect x="6" y="24.15" width="0.44" height="0.13" fill="none" stroke="#111" stroke-width="1.6"/><rect x="6" y="25.45" width="0.44" height="0.13" fill="none" stroke="#111" stroke-width="1.6"/><rect x="6" y="26.75" width="0.44" height="0.13" fill="none" stroke="#111" stroke-width="1.6"/><rect x="6" y="28.04" width="0.44" height="0.13" fill="none" stroke="#111" stroke-width="1.6"/><rect x="6" y="29.34" width="0.44" height="0.13" fill="none" stroke="#111" stroke-width="1.6"/><rect x="6" y="30.64" width="0.44" height="0.13" fill="none" stroke="#111" stroke-width="1.6"/><rect x="6" y="31.94" width="0.44" height="0.12" fill="none" stroke="#111" stroke-width="1.6"/><rect x="6" y="33.23" width="0.44" height="0.13" fill="none" stroke="#111" stroke-width="1.6"/><rect x="6" y="34.53" width="0.44" height="0.13" fill="none" stroke="#111" stroke-width="1.6"/><rect x="6" y="35.83" width="0.44" height="0.13" fill="none" stroke="#111" stroke-width="1.6"/><rect x="6" y="37.12" width="0.44" height="0.13" fill="none" stroke="#111" stroke-width="1.6"/><rect x="6" y="38.42" width="0.44" height="0.13" fill="none" stroke="#111" stroke-width="1.6"/><rect x="6" y="39.72" width="0.44" height="0.13" fill="none" stroke="#111" stroke-width="1.6"/><rect x="6" y="41.01" width="0.44" height="0.13" fill="none" stroke="#111" stroke-width="1.6"/><rect x="6" y="42.31" width="0.44" height="0.13" fill="none" stroke="#111" stroke-width="1.6"/><rect x="6" y="43.61" width="0.44" height="0.13" fill="none" stroke="#111" stroke-width="1.6"/><rect x="6" y="44.9" width="0.44" height="0.13" fill="none" stroke="#111" stroke-width="1.6"/><rect x="6" y="46.2" width="0.44" height="0.13" fill="none" stroke="#111" stroke-width="1.6"/><rect x="6" y="47.5" width="0.44" height="0.13" fill="none" stroke="#111" stroke-width="1.6"/><rect x="6" y="48.79" width="0.44" height="0.13" fill="none" stroke="#111" stroke-width="1.6"/><rect x="6" y="50.09" width="0.44" height="0.13" fill="none" stroke="#111" stroke-width="1.6"/><rect x="6" y="51.39" width="0.44" height="0.13" fill="none" stroke="#111" stroke-width="1.6"/><rect x="6" y="52.68" width="0.44" height="0.13" fill="none" stroke="#111" stroke-width="1.6"/><rect x="6" y="53.98" width="0.44" height="0.13" fill="none" stroke="#111" stroke-width="1.6"/><rect x="6" y="55.28" width="0.44" height="0.13" fill="none" stroke="#111" stroke-width="1.6"/><rect x="6" y="56.57" width="0.44" height="0.13" fill="none" stroke="#111" stroke-width="1.6"/><rect x="6" y="57.87" width="0.44" height="0.13" fill="none" stroke="#111" stroke-width="1.6"/><polyline points="6.65,6.06 6.44,6.06" fill="none" stroke="#111" stroke-width="1.6" stroke-linecap="round" stroke-linejoin="round"/><polyline points="6.65,7.36 6.44,7.36" fill="none" stroke="#111" stroke-width="1.6" stroke-linecap="round" stroke-linejoin="round"/><polyline points="6.65,8.66 6.44,8.66" fill="none" stroke="#111" stroke-width="1.6" stroke-linecap="round" stroke-linejoin="round"/><polyline points="6.65,9.96 6.44,9.96" fill="none" stroke="#111" stroke-width="1.6" stroke-linecap="round" stroke-linejoin="round"/><polyline points="6.65,11.25 6.44,11.25" fill="none" stroke="#111" stroke-width="1.6" stroke-linecap="round" stroke-linejoin="round"/><polyline points="6.65,12.55 6.44,12.55" fill="none" stroke="#111" stroke-width="1.6" stroke-linecap="round" stroke-linejoin="round"/><polyline points="6.65,13.85 6.44,13.85" fill="none" stroke="#111" stroke-width="1.6" stroke-linecap="round" stroke-linejoin="round"/><polyline points="6.65,15.14 6.44,15.14" fill="none" stroke="#111" stroke-width="1.6" stroke-linecap="round" stroke-linejoin="round"/><polyline points="6.65,16.44 6.44,16.44" fill="none" stroke="#111" stroke-width="1.6" stroke-linecap="round" stroke-linejoin="round"/><polyline points="6.65,17.74 6.44,17.74" fill="none" stroke="#111" stroke-width="1.6" stroke-linecap="round" stroke-linejoin="round"/><polyline points="6.65,19.03 6.44,19.03" fill="none" stroke="#111" stroke-width="1.6" stroke-linecap="round" stroke-linejoin="round"/><polyline points="6.65,20.33 6.44,20.33" fill="none" stroke="#111" stroke-width="1.6" stroke-linecap="round" stroke-linejoin="round"/><polyline points="6.65,21.63 6.44,21.63" fill="none" stroke="#111" stroke-width="1.6" stroke-linecap="round" stroke-linejoin="round"/><polyline points="6.65,22.92 6.44,22.92" fill="none" stroke="#111" stroke-width="1.6" stroke-linecap="round" stroke-linejoin="round"/><polyline points="6.65,24.22 6.44,24.22" fill="none" stroke="#111" stroke-width="1.6" stroke-linecap="round" stroke-linejoin="round"/><polyline points="6.65,25.52 6.44,25.52" fill="none" stroke="#111" stroke-width="1.6" stroke-linecap="round" stroke-linejoin="round"/><polyline points="6.65,26.81 6.44,26.81" fill="none" stroke="#111" stroke-width="1.6" stroke-linecap="round" stroke-linejoin="round"/><polyline points="6.65,28.11 6.44,28.11" fill="none" stroke="#111" stroke-width="1.6" stroke-linecap="round" stroke-linejoin="round"/><polyline points="6.65,29.41 6.44,29.41" fill="none" stroke="#111" stroke-width="1.6" stroke-linecap="round" stroke-linejoin="round"/><polyline points="6.65,30.7 6.44,30.7" fill="none" stroke="#111" stroke-width="1.6" stroke-linecap="round" stroke-linejoin="round"/><polyline points="6.65,32 6.44,32" fill="none" stroke="#111" stroke-width="1.6" stroke-linecap="round" stroke-linejoin="round"/><polyline points="6.65,33.3 6.44,33.3" fill="none" stroke="#111" stroke-width="1.6" stroke-linecap="round" stroke-linejoin="round"/><polyline points="6.65,34.59 6.44,34.59" fill="none" stroke="#111" stroke-width="1.6" stroke-linecap="round" stroke-linejoin="round"/><polyline points="6.65,35.89 6.44,35.89" fill="none" stroke="#111" stroke-width="1.6" stroke-linecap="round" stroke-linejoin="round"/><polyline points="6.65,37.19 6.44,37.19" fill="none" stroke="#111" stroke-width="1.6" stroke-linecap="round" stroke-linejoin="round"/><polyline points="6.65,38.48 6.44,38.48" fill="none" stroke="#111" stroke-width="1.6" stroke-linecap="round" stroke-linejoin="round"/><polyline points="6.65,39.78 6.44,39.78" fill="none" stroke="#111" stroke-width="1.6" stroke-linecap="round" stroke-linejoin="round"/><polyline points="6.65,41.08 6.44,41.08" fill="none" stroke="#111" stroke-width="1.6" stroke-linecap="round" stroke-linejoin="round"/><polyline points="6.65,42.37 6.44,42.37" fill="none" stroke="#111" stroke-width="1.6" stroke-linecap="round" stroke-linejoin="round"/><polyline points="6.65,43.67 6.44,43.67" fill="none" stroke="#111" stroke-width="1.6" stroke-linecap="round" stroke-linejoin="round"/><polyline points="6.65,44.97 6.44,44.97" fill="none" stroke="#111" stroke-width="1.6" stroke-linecap="round" stroke-linejoin="round"/><polyline points="6.65,46.26 6.44,46.26" fill="none" stroke="#111" stroke-width="1.6" stroke-linecap="round" stroke-linejoin="round"/><polyline points="6.65,47.56 6.44,47.56" fill="none" stroke="#111" stroke-width="1.6" stroke-linecap="round" stroke-linejoin="round"/><polyline points="6.65,48.86 6.44,48.86" fill="none" stroke="#111" stroke-width="1.6" stroke-linecap="round" stroke-linejoin="round"/><polyline points="6.65,50.15 6.44,50.15" fill="none" stroke="#111" stroke-width="1.6" stroke-linecap="round" stroke-linejoin="round"/><polyline points="6.65,51.45 6.44,51.45" fill="none" stroke="#111" stroke-width="1.6" stroke-linecap="round" stroke-linejoin="round"/><polyline points="6.65,52.75 6.44,52.75" fill="none" stroke="#111" stroke-width="1.6" stroke-linecap="round" stroke-linejoin="round"/><polyline points="6.65,54.04 6.44,54.04" fill="none" stroke="#111" stroke-width="1.6" stroke-linecap="round" stroke-linejoin="round"/><polyline points="6.65,55.34 6.44,55.34" fill="none" stroke="#111" stroke-width="1.6" stroke-linecap="round" stroke-linejoin="round"/><polyline points="6.65,56.64 6.44,56.64" fill="none" stroke="#111" stroke-width="1.6" stroke-linecap="round" stroke-linejoin="round"/><polyline points="6.65,57.94 6.44,57.94" fill="none" stroke="#111" stroke-width="1.6" stroke-linecap="round" stroke-linejoin="round"/></svg>