<svg xmlns="http://www.w3.org/2000/svg" width="96" height="64" viewBox="0 0 96 64"><polyline points="15.23,15.23 6,15.23" fill="none" stroke="#111" stroke-width="1.6" stroke-linecap="round" stroke-linejoin="round"/><polyline points="15.23,21.52 15.23,8.94" fill="none" stroke="#111" stroke-width="1.6" stroke-linecap="round" stroke-linejoin="round"/><polyline points="16.9,9.35 25.29,9.35 25.29,21.1 16.9,21.1" fill="none" stroke="#111" stroke-width="1.6" stroke-linecap="round" stroke-linejoin="round"/><polyline points="16.9,11.03 16.9,7.68" fill="none" stroke="#111" stroke-width="1.6" stroke-linecap="round" stroke-linejoin="round"/><polyline points="16.9,16.9 16.9,13.55" fill="none" stroke="#111" stroke-width="1.6" stroke-linecap="round" stroke-linejoin="round"/><polyline points="16.9,22.77 16.9,19.42" fill="none" stroke="#111" stroke-width="1.6" stroke-linecap="round" stroke-linejoin="round"/><polyline points="17.74,15.23 21.1,16.48 21.1,13.97 17.74,15.23" fill="none" stroke="#111" stroke-width="1.6" stroke-linecap="round" stroke-linejoin="round"/><circle cx="19.84" cy="15.23" r="9.23" fill="none" stroke="#111" stroke-width="1.6"/><polyline points="22.77,6.84 22.77,15.23 16.9,15.23" fill="none" stroke="#111" stroke-width="1.6" stroke-linecap="round" stroke-linejoin="round"/><circle cx="22.77" cy="9.35" r="0.84" fill="none" stroke="#111" stroke-width="1.6"/><circle cx="22.77" cy="21.1" r="0.84" fill="none" stroke="#111" stroke-width="1.6"/><polyline points="22.77,42.9 22.77,21.1" fill="none" stroke="#111" stroke-width="1.6" stroke-linecap="round" stroke-linejoin="round"/><polyline points="23.61,16.9 24.03,16.48 26.55,16.48 26.97,16.06" fill="none" stroke="#111" stroke-width="1.6" stroke-linecap="round" stroke-linejoin="round"/><polyline points="25.29,16.48 24.03,14.39 26.55,14.39 25.29,16.48" fill="none" stroke="#111" stroke-width="1.6" stroke-linecap="round" stroke-linejoin="round"/><polyline points="15.23,42.48 15.23,55.06" fill="none" stroke="#111" stroke-width="1.6" stroke-linecap="round" stroke-linejoin="round"/><polyline points="15.23,48.77 6,48.77" fill="none" stroke="#111" stroke-width="1.6" stroke-linecap="round" stroke-linejoin="round"/><polyline points="16.9,41.23 16.9,44.58" fill="none" stroke="#111" stroke-width="1.6" stroke-linecap="round" stroke-linejoin="round"/><polyline points="16.9,47.1 16.9,50.45" fill="none" stroke="#111" stroke-width="1.6" stroke-linecap="round" stroke-linejoin="round"/><polyline points="16.9,52.97 16.9,56.32" fill="none" stroke="#111" stroke-width="1.6" stroke-linecap="round" stroke-linejoin="round"/><polyline points="16.9,54.65 25.29,54.65 25.29,42.9 16.9,42.9" fill="none" stroke="#111" stroke-width="1.6" stroke-linecap="round" stroke-linejoin="round"/><polyline points="17.74,48.77 21.1,47.52 21.1,50.03 17.74,48.77" fill="none" stroke="#111" stroke-width="1.6" stroke-linecap="round" stroke-linejoin="round"/><circle cx="19.84" cy="48.77" r="9.23" fill="none" stroke="#111" stroke-width="1.6"/><circle cx="22.77" cy="32" r="0.84" fill="none" stroke="#111" stroke-width="1.6"/><circle cx="22.77" cy="42.9" r="0.84" fill="none" stroke="#111" stroke-width="1.6"/><circle cx="22.77" cy="54.65" r="0.84" fill="none" stroke="#111" stroke-width="1.6"/><polyline points="22.77,57.16 22.77,48.77 16.9,48.77" fill="none" stroke="#111" stroke-width="1.6" stroke-linecap="round" stroke-linejoin="round"/><polyline points="23.61,47.1 24.03,47.52 26.55,47.52 26.97,47.94" fill="none" stroke="#111" stroke-width="1.6" stroke-linecap="round" stroke-linejoin="round"/><polyline points="25.29,47.52 24.03,49.61 26.55,49.61 25.29,47.52" fill="none" stroke="#111" stroke-width="1.6" stroke-linecap="round" stroke-linejoin="round"/></svg>