<svg xmlns="http://www.w3.org/2000/svg" width="96" height="64" viewBox="0 0 96 64"><rect x="6" y="6" width="0.5" height="0.15" fill="none" stroke="#111" stroke-width="1.6"/><rect x="6" y="7.48" width="0.5" height="0.15" fill="none" stroke="#111" stroke-width="1.6"/><rect x="6" y="8.96" width="0.5" height="0.15" fill="none" stroke="#111" stroke-width="1.6"/><rect x="6" y="10.44" width="0.5" height="0.15" fill="none" stroke="#111" stroke-width="1.6"/><rect x="6" y="11.93" width="0.5" height="0.14" fill="none" stroke="#111" stroke-width="1.6"/><rect x="6" y="13.41" width="0.5" height="0.15" fill="none" stroke="#111" stroke-width="1.6"/><rect x="6" y="14.89" width="0.5" height="0.15" fill="none" stroke="#111" stroke-width="1.6"/><rect x="6" y="16.37" width="0.5" height="0.15" fill="none" stroke="#111" stroke-width="1.6"/><rect x="6" y="17.85" width="0.5" height="0.15" fill="none" stroke="#111" stroke-width="1.6"/><rect x="6" y="19.33" width="0.5" height="0.15" fill="none" stroke="#111" stroke-width="1.6"/><rect x="6" y="20.81" width="0.5" height="0.15" fill="none" stroke="#111" stroke-width="1.6"/><rect x="6" y="22.3" width="0.5" height="0.14" fill="none" stroke="#111" stroke-width="1.6"/><rect x="6" y="23.78" width="0.5" height="0.15" fill="none" stroke="#111" stroke-width="1.6"/><rect x="6" y="25.26" width="0.5" height="0.15" fill="none" stroke="#111" stroke-width="1.6"/><rect x="6" y="26.74" width="0.5" height="0.15" fill="none" stroke="#111" stroke-width="1.6"/><rect x="6" y="28.22" width="0.5" height="0.15" fill="none" stroke="#111" stroke-width="1.6"/><rect x="6" y="29.7" width="0.5" height="0.15" fill="none" stroke="#111" stroke-width="1.6"/><rect x="6" y="31.19" width="0.5" height="0.14" fill="none" stroke="#111" stroke-width="1.6"/><rect x="6" y="32.67" width="0.5" height="0.14" fill="none" stroke="#111" stroke-width="1.6"/><rect x="6" y="34.15" width="0.5" height="0.15" fill="none" stroke="#111" stroke-width="1.6"/><rect x="6" y="35.63" width="0.5" height="0.15" fill="none" stroke="#111" stroke-width="1.6"/><rect x="6" y="37.11" width="0.5" height="0.15" fill="none" stroke="#111" stroke-width="1.6"/><rect x="6" y="38.59" width="0.5" height="0.15" fill="none" stroke="#111" stroke-width="1.6"/><rect x="6" y="40.07" width="0.5" height="0.15" fill="none" stroke="#111" stroke-width="1.6"/><rect x="6" y="41.56" width="0.5" height="0.14" fill="none" stroke="#111" stroke-width="1.6"/><rect x="6" y="43.04" width="0.5" height="0.15" fill="none" stroke="#111" stroke-width="1.6"/><rect x="6" y="44.52" width="0.5" height="0.15" fill="none" stroke="#111" stroke-width="1.6"/><rect x="6" y="46" width="0.5" height="0.15" fill="none" stroke="#111" stroke-width="1.6"/><rect x="6" y="47.48" width="0.5" height="0.15" fill="none" stroke="#111" stroke-width="1.6"/><rect x="6" y="48.96" width="0.5" height="0.15" fill="none" stroke="#111" stroke-width="1.6"/><rect x="6" y="50.44" width="0.5" height="0.15" fill="none" stroke="#111" stroke-width="1.6"/><rect x="6" y="51.93" width="0.5" height="0.14" fill="none" stroke="#111" stroke-width="1.6"/><rect x="6" y="53.41" width="0.5" height="0.15" fill="none" stroke="#111" stroke-width="1.6"/><rect x="6" y="54.89" width="0.5" height="0.15" fill="none" stroke="#111" stroke-width="1.6"/><rect x="6" y="56.37" width="0.5" height="0.15" fill="none" stroke="#111" stroke-width="1.6"/><rect x="6" y="57.85" width="0.5" height="0.15" fill="none" stroke="#111" stroke-width="1.6"/><polyline points="6.74,6.07 6.5,6.07" fill="none" stroke="#111" stroke-width="1.6" stroke-linecap="round" stroke-linejoin="round"/><polyline points="6.74,7.56 6.5,7.56" fill="none" stroke="#111" stroke-width="1.6" stroke-linecap="round" stroke-linejoin="round"/><polyline points="6.74,9.04 6.5,9.04" fill="none" stroke="#111" stroke-width="1.6" stroke-linecap="round" stroke-linejoin="round"/><polyline points="6.74,10.52 6.5,10.52" fill="none" stroke="#111" stroke-width="1.6" stroke-linecap="round" stroke-linejoin="round"/><polyline points="6.74,12 6.5,12" fill="none" stroke="#111" stroke-width="1.6" stroke-linecap="round" stroke-linejoin="round"/><polyline points="6.74,13.48 6.5,13.48" fill="none" stroke="#111" stroke-width="1.6" stroke-linecap="round" stroke-linejoin="round"/><polyline points="6.74,14.96 6.5,14.96" fill="none" stroke="#111" stroke-width="1.6" stroke-linecap="round" stroke-linejoin="round"/><polyline points="6.74,16.44 6.5,16.44" fill="none" stroke="#111" stroke-width="1.6" stroke-linecap="round" stroke-linejoin="round"/><polyline points="6.74,17.93 6.5,17.93" fill="none" stroke="#111" stroke-width="1.6" stroke-linecap="round" stroke-linejoin="round"/><polyline points="6.74,19.41 6.5,19.41" fill="none" stroke="#111" stroke-width="1.6" stroke-linecap="round" stroke-linejoin="round"/><polyline points="6.74,20.89 6.5,20.89" fill="none" stroke="#111" stroke-width="1.6" stroke-linecap="round" stroke-linejoin="round"/><polyline points="6.74,22.37 6.5,22.37" fill="none" stroke="#111" stroke-width="1.6" stroke-linecap="round" stroke-linejoin="round"/><polyline points="6.74,23.85 6.5,23.85" fill="none" stroke="#111" stroke-width="1.6" stroke-linecap="round" stroke-linejoin="round"/><polyline points="6.74,25.33 6.5,25.33" fill="none" stroke="#111" stroke-width="1.6" stroke-linecap="round" stroke-linejoin="round"/><polyline points="6.74,26.81 6.5,26.81" fill="none" stroke="#111" stroke-width="1.6" stroke-linecap="round" stroke-linejoin="round"/><polyline points="6.74,28.3 6.5,28.3" fill="none" stroke="#111" stroke-width="1.6" stroke-linecap="round" stroke-linejoin="round"/><polyline points="6.74,29.78 6.5,29.78" fill="none" stroke="#111" stroke-width="1.6" stroke-linecap="round" stroke-linejoin="round"/><polyline points="6.74,31.26 6.5,31.26" fill="none" stroke="#111" stroke-width="1.6" stroke-linecap="round" stroke-linejoin="round"/><polyline points="6.74,32.74 6.5,32.74" fill="none" stroke="#111" stroke-width="1.6" stroke-linecap="round" stroke-linejoin="round"/><polyline points="6.74,34.22 6.5,34.22" fill="none" stroke="#111" stroke-width="1.6" stroke-linecap="round" stroke-linejoin="round"/><polyline points="6.74,35.7 6.5,35.7" fill="none" stroke="#111" stroke-width="1.6" stroke-linecap="round" stroke-linejoin="round"/><polyline points="6.74,37.19 6.5,37.19" fill="none" stroke="#111" stroke-width="1.6" stroke-linecap="round" stroke-linejoin="round"/><polyline points="6.74,38.67 6.5,38.67" fill="none" stroke="#111" stroke-width="1.6" stroke-linecap="round" stroke-linejoin="round"/><polyline points="6.74,40.15 6.5,40.15" fill="none" stroke="#111" stroke-width="1.6" stroke-linecap="round" stroke-linejoin="round"/><polyline points="6.74,41.63 6.5,41.63" fill="none" stroke="#111" stroke-width="1.6" stroke-linecap="round" stroke-linejoin="round"/><polyline points="6.74,43.11 6.5,43.11" fill="none" stroke="#111" stroke-width="1.6" stroke-linecap="round" stroke-linejoin="round"/><polyline points="6.74,44.59 6.5,44.59" fill="none" stroke="#111" stroke-width="1.6" stroke-linecap="round" stroke-linejoin="round"/><polyline points="6.74,46.07 6.5,46.07" fill="none" stroke="#111" stroke-width="1.6" stroke-linecap="round" stroke-linejoin="round"/><polyline points="6.74,47.56 6.5,47.56" fill="none" stroke="#111" stroke-width="1.6" stroke-linecap="round" stroke-linejoin="round"/><polyline points="6.74,49.04 6.5,49.04" fill="none" stroke="#111" stroke-width="1.6" stroke-linecap="round" stroke-linejoin="round"/><polyline points="6.74,50.52 6.5,50.52" fill="none" stroke="#111" stroke-width="1.6" stroke-linecap="round" stroke-linejoin="round"/><polyline points="6.74,52 6.5,52" fill="none" stroke="#111" stroke-width="1.6" stroke-linecap="round" stroke-linejoin="round"/><polyline points="6.74,53.48 6.5,53.48" fill="none" stroke="#111" stroke-width="1.6" stroke-linecap="round" stroke-linejoin="round"/><polyline points="6.74,54.96 6.5,54.96" fill="none" stroke="#111" stroke-width="1.6" stroke-linecap="round" stroke-linejoin="round"/><polyline points="6.74,56.44 6.5,56.44" fill="none" stroke="#111" stroke-width="1.6" stroke-linecap="round" stroke-linejoin="round"/><polyline points="6.74,57.93 6.5,57.93" fill="none" stroke="#111" stroke-width="1.6" stroke-linecap="round" stroke-linejoin="round"/></svg>