<svg xmlns="http://www.w3.org/2000/svg" width="96" height="64" viewBox="0 0 96 64"><rect x="6" y="24.55" width="12.13" height="15.77" fill="none" stroke="#111" stroke-width="1.6"/><rect x="6" y="24.55" width="12.13" height="15.77" fill="none" stroke="#111" stroke-width="1.6"/><rect x="6" y="24.55" width="12.13" height="15.77" fill="none" stroke="#111" stroke-width="1.6"/><rect x="6" y="24.55" width="12.13" height="15.77" fill="none" stroke="#111" stroke-width="1.6"/><rect x="6" y="24.55" width="12.13" height="15.77" fill="none" stroke="#111" stroke-width="1.6"/><rect x="6" y="24.55" width="12.13" height="15.77" fill="none" stroke="#111" stroke-width="1.6"/><rect x="6" y="24.55" width="12.13" height="15.77" fill="none" stroke="#111" stroke-width="1.6"/><rect x="6" y="24.55" width="12.13" height="15.77" fill="none" stroke="#111" stroke-width="1.6"/><rect x="6" y="24.55" width="12.13" height="15.77" fill="none" stroke="#111" stroke-width="1.6"/><rect x="6" y="24.55" width="12.13" height="15.77" fill="none" stroke="#111" stroke-width="1.6"/><rect x="6" y="24.55" width="12.13" height="15.77" fill="none" stroke="#111" stroke-width="1.6"/><rect x="6" y="24.55" width="12.13" height="15.77" fill="none" stroke="#111" stroke-width="1.6"/><rect x="6" y="24.55" width="12.13" height="15.77" fill="none" stroke="#111" stroke-width="1.6"/><rect x="6" y="24.55" width="12.13" height="15.77" fill="none" stroke="#111" stroke-width="1.6"/><rect x="6" y="24.55" width="12.13" height="15.77" fill="none" stroke="#111" stroke-width="1.6"/><rect x="6" y="24.55" width="12.13" height="15.77" fill="none" stroke="#111" stroke-width="1.6"/><rect x="7.73" y="26.28" width="8.67" height="12.31" fill="none" stroke="#111" stroke-width="1.6"/><rect x="9.47" y="6" width="5.2" height="52" fill="none" stroke="#111" stroke-width="1.6"/><rect x="9.47" y="12.59" width="5.2" height="38.82" fill="none" stroke="#111" stroke-width="1.6"/></svg>