<svg xmlns="http://www.w3.org/2000/svg" width="96" height="64" viewBox="0 0 96 64"><polyline points="6,6.63 6.95,6.63" fill="none" stroke="#111" stroke-width="1.6" stroke-linecap="round" stroke-linejoin="round"/><polyline points="6,9.8 6.95,9.8" fill="none" stroke="#111" stroke-width="1.6" stroke-linecap="round" stroke-linejoin="round"/><polyline points="6,12.98 6.95,12.98" fill="none" stroke="#111" stroke-width="1.6" stroke-linecap="round" stroke-linejoin="round"/><polyline points="6,16.15 6.95,16.15" fill="none" stroke="#111" stroke-width="1.6" stroke-linecap="round" stroke-linejoin="round"/><polyline points="6,19.32 6.95,19.32" fill="none" stroke="#111" stroke-width="1.6" stroke-linecap="round" stroke-linejoin="round"/><polyline points="6,22.49 6.95,22.49" fill="none" stroke="#111" stroke-width="1.6" stroke-linecap="round" stroke-linejoin="round"/><polyline points="6,25.66 6.95,25.66" fill="none" stroke="#111" stroke-width="1.6" stroke-linecap="round" stroke-linejoin="round"/><polyline points="6,28.83 6.95,28.83" fill="none" stroke="#111" stroke-width="1.6" stroke-linecap="round" stroke-linejoin="round"/><polyline points="6,32 6.95,32" fill="none" stroke="#111" stroke-width="1.6" stroke-linecap="round" stroke-linejoin="round"/><polyline points="6,35.17 6.95,35.17" fill="none" stroke="#111" stroke-width="1.6" stroke-linecap="round" stroke-linejoin="round"/><polyline points="6,38.34 6.95,38.34" fill="none" stroke="#111" stroke-width="1.6" stroke-linecap="round" stroke-linejoin="round"/><polyline points="6,41.51 6.95,41.51" fill="none" stroke="#111" stroke-width="1.6" stroke-linecap="round" stroke-linejoin="round"/><polyline points="6,44.68 6.95,44.68" fill="none" stroke="#111" stroke-width="1.6" stroke-linecap="round" stroke-linejoin="round"/><polyline points="6,47.85 6.95,47.85" fill="none" stroke="#111" stroke-width="1.6" stroke-linecap="round" stroke-linejoin="round"/><polyline points="6,51.02 6.95,51.02" fill="none" stroke="#111" stroke-width="1.6" stroke-linecap="round" stroke-linejoin="round"/><polyline points="6,54.2 6.95,54.2" fill="none" stroke="#111" stroke-width="1.6" stroke-linecap="round" stroke-linejoin="round"/><polyline points="6,57.37 6.95,57.37" fill="none" stroke="#111" stroke-width="1.6" stroke-linecap="round" stroke-linejoin="round"/><path d="M 7.59 7.27 Q 6.95 6.63 7.59 6" fill="none" stroke="#111" stroke-width="1.6" stroke-linecap="round"/><path d="M 7.59 10.44 Q 6.95 9.8 7.59 9.17" fill="none" stroke="#111" stroke-width="1.6" stroke-linecap="round"/><path d="M 7.59 13.61 Q 6.95 12.98 7.59 12.34" fill="none" stroke="#111" stroke-width="1.6" stroke-linecap="round"/><path d="M 7.59 16.78 Q 6.95 16.15 7.59 15.51" fill="none" stroke="#111" stroke-width="1.6" stroke-linecap="round"/><path d="M 7.59 19.95 Q 6.95 19.32 7.59 18.68" fill="none" stroke="#111" stroke-width="1.6" stroke-linecap="round"/><path d="M 7.59 23.12 Q 6.95 22.49 7.59 21.85" fill="none" stroke="#111" stroke-width="1.6" stroke-linecap="round"/><path d="M 7.59 26.29 Q 6.95 25.66 7.59 25.02" fill="none" stroke="#111" stroke-width="1.6" stroke-linecap="round"/><path d="M 7.59 29.46 Q 6.95 28.83 7.59 28.2" fill="none" stroke="#111" stroke-width="1.6" stroke-linecap="round"/><path d="M 7.59 32.63 Q 6.95 32 7.59 31.37" fill="none" stroke="#111" stroke-width="1.6" stroke-linecap="round"/><path d="M 7.59 35.8 Q 6.95 35.17 7.59 34.54" fill="none" stroke="#111" stroke-width="1.6" stroke-linecap="round"/><path d="M 7.59 38.98 Q 6.95 38.34 7.59 37.71" fill="none" stroke="#111" stroke-width="1.6" stroke-linecap="round"/><path d="M 7.59 42.15 Q 6.95 41.51 7.59 40.88" fill="none" stroke="#111" stroke-width="1.6" stroke-linecap="round"/><path d="M 7.59 45.32 Q 6.95 44.68 7.59 44.05" fill="none" stroke="#111" stroke-width="1.6" stroke-linecap="round"/><path d="M 7.59 48.49 Q 6.95 47.85 7.59 47.22" fill="none" stroke="#111" stroke-width="1.6" stroke-linecap="round"/><path d="M 7.59 51.66 Q 6.95 51.02 7.59 50.39" fill="none" stroke="#111" stroke-width="1.6" stroke-linecap="round"/><path d="M 7.59 54.83 Q 6.95 54.2 7.59 53.56" fill="none" stroke="#111" stroke-width="1.6" stroke-linecap="round"/><path d="M 7.59 58 Q 6.95 57.37 7.59 56.73" fill="none" stroke="#111" stroke-width="1.6" stroke-linecap="round"/></svg>