<svg xmlns="http://www.w3.org/2000/svg" width="96" height="64" viewBox="0 0 96 64"><rect x="6" y="42" width="4" height="8" fill="none" stroke="#111" stroke-width="1.6"/><rect x="10" y="6" width="24" height="52" fill="none" stroke="#111" stroke-width="1.6"/><polyline points="20,42 22,44 24,42 24,26 34,26" fill="none" stroke="#111" stroke-width="1.6" stroke-linecap="round" stroke-linejoin="round"/><polyline points="22,10.8 22.8,12.4" fill="none" stroke="#111" stroke-width="1.6" stroke-linecap="round" stroke-linejoin="round"/><polyline points="26,42 28,44 30,42 34,42" fill="none" stroke="#111" stroke-width="1.6" stroke-linecap="round" stroke-linejoin="round"/><polyline points="27.6,26.8 28.4,28.4" fill="none" stroke="#111" stroke-width="1.6" stroke-linecap="round" stroke-linejoin="round"/><polyline points="31.6,42.8 32.4,44.4" fill="none" stroke="#111" stroke-width="1.6" stroke-linecap="round" stroke-linejoin="round"/><polyline points="34,10 18,10 18,42 16,44 14,42" fill="none" stroke="#111" stroke-width="1.6" stroke-linecap="round" stroke-linejoin="round"/><polyline points="34,18 22,18 22,10.8 21.2,12.4" fill="none" stroke="#111" stroke-width="1.6" stroke-linecap="round" stroke-linejoin="round"/><polyline points="34,34 27.6,34 27.6,26.8 26.8,28.4" fill="none" stroke="#111" stroke-width="1.6" stroke-linecap="round" stroke-linejoin="round"/><polyline points="34,50 31.6,50 31.6,42.8 30.8,44.4" fill="none" stroke="#111" stroke-width="1.6" stroke-linecap="round" stroke-linejoin="round"/></svg>