<svg xmlns="http://www.w3.org/2000/svg" width="96" height="64" viewBox="0 0 96 64"><rect x="6" y="6" width="7.43" height="52" fill="none" stroke="#111" stroke-width="1.6"/><rect x="6.37" y="6.37" width="6.69" height="51.26" fill="none" stroke="#111" stroke-width="1.6"/><rect x="6.37" y="7.67" width="1.86" height="0.37" fill="none" stroke="#111" stroke-width="1.6"/><rect x="6.37" y="11.39" width="1.86" height="0.37" fill="none" stroke="#111" stroke-width="1.6"/><rect x="6.37" y="15.1" width="1.86" height="0.37" fill="none" stroke="#111" stroke-width="1.6"/><rect x="6.37" y="18.81" width="1.86" height="0.38" fill="none" stroke="#111" stroke-width="1.6"/><rect x="6.37" y="22.53" width="1.86" height="0.37" fill="none" stroke="#111" stroke-width="1.6"/><rect x="6.37" y="26.24" width="1.86" height="0.37" fill="none" stroke="#111" stroke-width="1.6"/><rect x="6.37" y="29.96" width="1.86" height="0.37" fill="none" stroke="#111" stroke-width="1.6"/><rect x="6.37" y="33.67" width="1.86" height="0.37" fill="none" stroke="#111" stroke-width="1.6"/><rect x="6.37" y="37.39" width="1.86" height="0.37" fill="none" stroke="#111" stroke-width="1.6"/><rect x="6.37" y="41.1" width="1.86" height="0.37" fill="none" stroke="#111" stroke-width="1.6"/><rect x="6.37" y="44.81" width="1.86" height="0.38" fill="none" stroke="#111" stroke-width="1.6"/><rect x="6.37" y="48.53" width="1.86" height="0.37" fill="none" stroke="#111" stroke-width="1.6"/><rect x="6.37" y="52.24" width="1.86" height="0.37" fill="none" stroke="#111" stroke-width="1.6"/><rect x="6.37" y="55.96" width="1.86" height="0.37" fill="none" stroke="#111" stroke-width="1.6"/><rect x="11.2" y="7.67" width="1.86" height="0.37" fill="none" stroke="#111" stroke-width="1.6"/><rect x="11.2" y="11.39" width="1.86" height="0.37" fill="none" stroke="#111" stroke-width="1.6"/><rect x="11.2" y="15.1" width="1.86" height="0.37" fill="none" stroke="#111" stroke-width="1.6"/><rect x="11.2" y="18.81" width="1.86" height="0.38" fill="none" stroke="#111" stroke-width="1.6"/><rect x="11.2" y="22.53" width="1.86" height="0.37" fill="none" stroke="#111" stroke-width="1.6"/><rect x="11.2" y="26.24" width="1.86" height="0.37" fill="none" stroke="#111" stroke-width="1.6"/><rect x="11.2" y="29.96" width="1.86" height="0.37" fill="none" stroke="#111" stroke-width="1.6"/><rect x="11.2" y="33.67" width="1.86" height="0.37" fill="none" stroke="#111" stroke-width="1.6"/><rect x="11.2" y="37.39" width="1.86" height="0.37" fill="none" stroke="#111" stroke-width="1.6"/><rect x="11.2" y="41.1" width="1.86" height="0.37" fill="none" stroke="#111" stroke-width="1.6"/><rect x="11.2" y="44.81" width="1.86" height="0.38" fill="none" stroke="#111" stroke-width="1.6"/><rect x="11.2" y="48.53" width="1.86" height="0.37" fill="none" stroke="#111" stroke-width="1.6"/><rect x="11.2" y="52.24" width="1.86" height="0.37" fill="none" stroke="#111" stroke-width="1.6"/><rect x="11.2" y="55.96" width="1.86" height="0.37" fill="none" stroke="#111" stroke-width="1.6"/></svg>