<svg xmlns="http://www.w3.org/2000/svg" width="96" height="64" viewBox="0 0 96 64"><rect x="6" y="21.83" width="18.09" height="9.04" fill="none" stroke="#111" stroke-width="1.6"/><rect x="6" y="30.87" width="18.09" height="9.04" fill="none" stroke="#111" stroke-width="1.6"/><rect x="6" y="39.91" width="18.09" height="9.05" fill="none" stroke="#111" stroke-width="1.6"/><rect x="6" y="48.96" width="18.09" height="9.04" fill="none" stroke="#111" stroke-width="1.6"/><polyline points="8.26,21.83 8.26,19.57 6,19.57 6,6 24.09,6 24.09,19.57 21.83,19.57 21.83,21.83 21.83,21.83" fill="none" stroke="#111" stroke-width="1.6" stroke-linecap="round" stroke-linejoin="round"/><polyline points="8.71,24.99 10.52,26.8 8.71,28.61 8.71,28.61" fill="none" stroke="#111" stroke-width="1.6" stroke-linecap="round" stroke-linejoin="round"/><polyline points="8.71,29.51 10.52,27.7 10.52,27.7" fill="none" stroke="#111" stroke-width="1.6" stroke-linecap="round" stroke-linejoin="round"/><polyline points="15.04,21.83 15.04,30.87 15.04,30.87" fill="none" stroke="#111" stroke-width="1.6" stroke-linecap="round" stroke-linejoin="round"/><circle cx="15.95" cy="26.8" r="0.9" fill="none" stroke="#111" stroke-width="1.6"/><polyline points="18.66,24.99 20.47,28.61 22.28,24.99 18.66,24.99 18.66,24.99" fill="none" stroke="#111" stroke-width="1.6" stroke-linecap="round" stroke-linejoin="round"/></svg>