<svg xmlns="http://www.w3.org/2000/svg" width="96" height="64" viewBox="0 0 96 64"><circle cx="7.82" cy="7.82" r="1.82" fill="none" stroke="#111" stroke-width="1.6"/><polyline points="7.82,21.51 47.05,21.51" fill="none" stroke="#111" stroke-width="1.6" stroke-linecap="round" stroke-linejoin="round"/><circle cx="7.82" cy="26.07" r="1.82" fill="none" stroke="#111" stroke-width="1.6"/><polyline points="7.82,39.75 47.05,39.75" fill="none" stroke="#111" stroke-width="1.6" stroke-linecap="round" stroke-linejoin="round"/><circle cx="7.82" cy="44.32" r="1.82" fill="none" stroke="#111" stroke-width="1.6"/><polyline points="7.82,58 47.05,58" fill="none" stroke="#111" stroke-width="1.6" stroke-linecap="round" stroke-linejoin="round"/><path d="M 7.82 16.95 Q 12.39 12.41 16.95 16.95" fill="none" stroke="#111" stroke-width="1.6" stroke-linecap="round"/><path d="M 7.82 35.19 Q 12.39 30.65 16.95 35.19" fill="none" stroke="#111" stroke-width="1.6" stroke-linecap="round"/><path d="M 7.82 53.44 Q 12.39 48.9 16.95 53.44" fill="none" stroke="#111" stroke-width="1.6" stroke-linecap="round"/><polyline points="19.68,34.28 7.82,39.75" fill="none" stroke="#111" stroke-width="1.6" stroke-linecap="round" stroke-linejoin="round"/><polyline points="19.68,52.53 7.82,58" fill="none" stroke="#111" stroke-width="1.6" stroke-linecap="round" stroke-linejoin="round"/><path d="M 16.95 16.95 Q 21.51 12.41 26.07 16.95" fill="none" stroke="#111" stroke-width="1.6" stroke-linecap="round"/><path d="M 16.95 35.19 Q 21.51 30.65 26.07 35.19" fill="none" stroke="#111" stroke-width="1.6" stroke-linecap="round"/><path d="M 16.95 53.44 Q 21.51 48.9 26.07 53.44" fill="none" stroke="#111" stroke-width="1.6" stroke-linecap="round"/><path d="M 26.07 16.95 Q 30.63 12.41 35.19 16.95" fill="none" stroke="#111" stroke-width="1.6" stroke-linecap="round"/><path d="M 26.07 35.19 Q 30.63 30.65 35.19 35.19" fill="none" stroke="#111" stroke-width="1.6" stroke-linecap="round"/><path d="M 26.07 53.44 Q 30.63 48.9 35.19 53.44" fill="none" stroke="#111" stroke-width="1.6" stroke-linecap="round"/><polyline points="31.54,28.81 24.25,32.46" fill="none" stroke="#111" stroke-width="1.6" stroke-linecap="round" stroke-linejoin="round"/><polyline points="31.54,47.05 24.25,50.7" fill="none" stroke="#111" stroke-width="1.6" stroke-linecap="round" stroke-linejoin="round"/><path d="M 35.19 16.95 Q 39.75 12.41 44.32 16.95" fill="none" stroke="#111" stroke-width="1.6" stroke-linecap="round"/><path d="M 35.19 35.19 Q 39.75 30.65 44.32 35.19" fill="none" stroke="#111" stroke-width="1.6" stroke-linecap="round"/><path d="M 35.19 53.44 Q 39.75 48.9 44.32 53.44" fill="none" stroke="#111" stroke-width="1.6" stroke-linecap="round"/><polyline points="47.05,21.51 35.19,26.98" fill="none" stroke="#111" stroke-width="1.6" stroke-linecap="round" stroke-linejoin="round"/><polyline points="47.05,39.75 35.19,45.23" fill="none" stroke="#111" stroke-width="1.6" stroke-linecap="round" stroke-linejoin="round"/></svg>