<svg xmlns="http://www.w3.org/2000/svg" width="96" height="64" viewBox="0 0 96 64"><rect x="6" y="6" width="2.97" height="52" fill="none" stroke="#111" stroke-width="1.6"/><rect x="6.15" y="6.15" width="2.67" height="51.7" fill="none" stroke="#111" stroke-width="1.6"/><rect x="6.15" y="6.67" width="0.74" height="0.15" fill="none" stroke="#111" stroke-width="1.6"/><rect x="6.15" y="8.15" width="0.74" height="0.15" fill="none" stroke="#111" stroke-width="1.6"/><rect x="6.15" y="9.64" width="0.74" height="0.15" fill="none" stroke="#111" stroke-width="1.6"/><rect x="6.15" y="11.13" width="0.74" height="0.14" fill="none" stroke="#111" stroke-width="1.6"/><rect x="6.15" y="12.61" width="0.74" height="0.15" fill="none" stroke="#111" stroke-width="1.6"/><rect x="6.15" y="14.1" width="0.74" height="0.15" fill="none" stroke="#111" stroke-width="1.6"/><rect x="6.15" y="15.58" width="0.74" height="0.15" fill="none" stroke="#111" stroke-width="1.6"/><rect x="6.15" y="17.07" width="0.74" height="0.15" fill="none" stroke="#111" stroke-width="1.6"/><rect x="6.15" y="18.55" width="0.74" height="0.15" fill="none" stroke="#111" stroke-width="1.6"/><rect x="6.15" y="20.04" width="0.74" height="0.15" fill="none" stroke="#111" stroke-width="1.6"/><rect x="6.15" y="21.53" width="0.74" height="0.14" fill="none" stroke="#111" stroke-width="1.6"/><rect x="6.15" y="23.01" width="0.74" height="0.15" fill="none" stroke="#111" stroke-width="1.6"/><rect x="6.15" y="24.5" width="0.74" height="0.15" fill="none" stroke="#111" stroke-width="1.6"/><rect x="6.15" y="25.98" width="0.74" height="0.15" fill="none" stroke="#111" stroke-width="1.6"/><rect x="6.15" y="27.47" width="0.74" height="0.15" fill="none" stroke="#111" stroke-width="1.6"/><rect x="6.15" y="28.95" width="0.74" height="0.15" fill="none" stroke="#111" stroke-width="1.6"/><rect x="6.15" y="30.44" width="0.74" height="0.15" fill="none" stroke="#111" stroke-width="1.6"/><rect x="6.15" y="31.93" width="0.74" height="0.14" fill="none" stroke="#111" stroke-width="1.6"/><rect x="6.15" y="33.41" width="0.74" height="0.15" fill="none" stroke="#111" stroke-width="1.6"/><rect x="6.15" y="34.9" width="0.74" height="0.15" fill="none" stroke="#111" stroke-width="1.6"/><rect x="6.15" y="36.38" width="0.74" height="0.15" fill="none" stroke="#111" stroke-width="1.6"/><rect x="6.15" y="37.87" width="0.74" height="0.15" fill="none" stroke="#111" stroke-width="1.6"/><rect x="6.15" y="39.35" width="0.74" height="0.15" fill="none" stroke="#111" stroke-width="1.6"/><rect x="6.15" y="40.84" width="0.74" height="0.15" fill="none" stroke="#111" stroke-width="1.6"/><rect x="6.15" y="42.33" width="0.74" height="0.14" fill="none" stroke="#111" stroke-width="1.6"/><rect x="6.15" y="43.81" width="0.74" height="0.15" fill="none" stroke="#111" stroke-width="1.6"/><rect x="6.15" y="45.3" width="0.74" height="0.15" fill="none" stroke="#111" stroke-width="1.6"/><rect x="6.15" y="46.78" width="0.74" height="0.15" fill="none" stroke="#111" stroke-width="1.6"/><rect x="6.15" y="48.27" width="0.74" height="0.15" fill="none" stroke="#111" stroke-width="1.6"/><rect x="6.15" y="49.75" width="0.74" height="0.15" fill="none" stroke="#111" stroke-width="1.6"/><rect x="6.15" y="51.24" width="0.74" height="0.15" fill="none" stroke="#111" stroke-width="1.6"/><rect x="6.15" y="52.73" width="0.74" height="0.14" fill="none" stroke="#111" stroke-width="1.6"/><rect x="6.15" y="54.21" width="0.74" height="0.15" fill="none" stroke="#111" stroke-width="1.6"/><rect x="6.15" y="55.7" width="0.74" height="0.15" fill="none" stroke="#111" stroke-width="1.6"/><rect x="6.15" y="57.18" width="0.74" height="0.15" fill="none" stroke="#111" stroke-width="1.6"/><rect x="8.08" y="6.67" width="0.74" height="0.15" fill="none" stroke="#111" stroke-width="1.6"/><rect x="8.08" y="8.15" width="0.74" height="0.15" fill="none" stroke="#111" stroke-width="1.6"/><rect x="8.08" y="9.64" width="0.74" height="0.15" fill="none" stroke="#111" stroke-width="1.6"/><rect x="8.08" y="11.13" width="0.74" height="0.14" fill="none" stroke="#111" stroke-width="1.6"/><rect x="8.08" y="12.61" width="0.74" height="0.15" fill="none" stroke="#111" stroke-width="1.6"/><rect x="8.08" y="14.1" width="0.74" height="0.15" fill="none" stroke="#111" stroke-width="1.6"/><rect x="8.08" y="15.58" width="0.74" height="0.15" fill="none" stroke="#111" stroke-width="1.6"/><rect x="8.08" y="17.07" width="0.74" height="0.15" fill="none" stroke="#111" stroke-width="1.6"/><rect x="8.08" y="18.55" width="0.74" height="0.15" fill="none" stroke="#111" stroke-width="1.6"/><rect x="8.08" y="20.04" width="0.74" height="0.15" fill="none" stroke="#111" stroke-width="1.6"/><rect x="8.08" y="21.53" width="0.74" height="0.14" fill="none" stroke="#111" stroke-width="1.6"/><rect x="8.08" y="23.01" width="0.74" height="0.15" fill="none" stroke="#111" stroke-width="1.6"/><rect x="8.08" y="24.5" width="0.74" height="0.15" fill="none" stroke="#111" stroke-width="1.6"/><rect x="8.08" y="25.98" width="0.74" height="0.15" fill="none" stroke="#111" stroke-width="1.6"/><rect x="8.08" y="27.47" width="0.74" height="0.15" fill="none" stroke="#111" stroke-width="1.6"/><rect x="8.08" y="28.95" width="0.74" height="0.15" fill="none" stroke="#111" stroke-width="1.6"/><rect x="8.08" y="30.44" width="0.74" height="0.15" fill="none" stroke="#111" stroke-width="1.6"/><rect x="8.08" y="31.93" width="0.74" height="0.14" fill="none" stroke="#111" stroke-width="1.6"/><rect x="8.08" y="33.41" width="0.74" height="0.15" fill="none" stroke="#111" stroke-width="1.6"/><rect x="8.08" y="34.9" width="0.74" height="0.15" fill="none" stroke="#111" stroke-width="1.6"/><rect x="8.08" y="36.38" width="0.74" height="0.15" fill="none" stroke="#111" stroke-width="1.6"/><rect x="8.08" y="37.87" width="0.74" height="0.15" fill="none" stroke="#111" stroke-width="1.6"/><rect x="8.08" y="39.35" width="0.74" height="0.15" fill="none" stroke="#111" stroke-width="1.6"/><rect x="8.08" y="40.84" width="0.74" height="0.15" fill="none" stroke="#111" stroke-width="1.6"/><rect x="8.08" y="42.33" width="0.74" height="0.14" fill="none" stroke="#111" stroke-width="1.6"/><rect x="8.08" y="43.81" width="0.74" height="0.15" fill="none" stroke="#111" stroke-width="1.6"/><rect x="8.08" y="45.3" width="0.74" height="0.15" fill="none" stroke="#111" stroke-width="1.6"/><rect x="8.08" y="46.78" width="0.74" height="0.15" fill="none" stroke="#111" stroke-width="1.6"/><rect x="8.08" y="48.27" width="0.74" height="0.15" fill="none" stroke="#111" stroke-width="1.6"/><rect x="8.08" y="49.75" width="0.74" height="0.15" fill="none" stroke="#111" stroke-width="1.6"/><rect x="8.08" y="51.24" width="0.74" height="0.15" fill="none" stroke="#111" stroke-width="1.6"/><rect x="8.08" y="52.73" width="0.74" height="0.14" fill="none" stroke="#111" stroke-width="1.6"/><rect x="8.08" y="54.21" width="0.74" height="0.15" fill="none" stroke="#111" stroke-width="1.6"/><rect x="8.08" y="55.7" width="0.74" height="0.15" fill="none" stroke="#111" stroke-width="1.6"/></svg>