<svg xmlns="http://www.w3.org/2000/svg" width="96" height="64" viewBox="0 0 96 64"><rect x="6" y="6" width="84" height="21" fill="none" stroke="#111" stroke-width="1.6"/><rect x="7.58" y="9.52" width="2.09" height="5.25" fill="none" stroke="#111" stroke-width="1.6"/><polyline points="8.62,6 8.62,9.52" fill="none" stroke="#111" stroke-width="1.6" stroke-linecap="round" stroke-linejoin="round"/><circle cx="8.62" cy="7.79" r="0.53" fill="none" stroke="#111" stroke-width="1.6"/><polyline points="8.62,7.79 19.12,7.79 19.12,9.52" fill="none" stroke="#111" stroke-width="1.6" stroke-linecap="round" stroke-linejoin="round"/><circle cx="8.62" cy="16.5" r="0.53" fill="none" stroke="#111" stroke-width="1.6"/><polyline points="8.62,16.5 11.78,16.5 11.78,18.23" fill="none" stroke="#111" stroke-width="1.6" stroke-linecap="round" stroke-linejoin="round"/><polyline points="8.62,27 8.62,14.77" fill="none" stroke="#111" stroke-width="1.6" stroke-linecap="round" stroke-linejoin="round"/><rect x="10.73" y="18.23" width="2.09" height="5.25" fill="none" stroke="#111" stroke-width="1.6"/><polyline points="11.78,23.48 11.78,25.21 87.38,25.21" fill="none" stroke="#111" stroke-width="1.6" stroke-linecap="round" stroke-linejoin="round"/><rect x="18.08" y="9.52" width="2.1" height="5.25" fill="none" stroke="#111" stroke-width="1.6"/><circle cx="19.12" cy="7.79" r="0.53" fill="none" stroke="#111" stroke-width="1.6"/><polyline points="19.12,7.79 29.62,7.79 29.62,9.52" fill="none" stroke="#111" stroke-width="1.6" stroke-linecap="round" stroke-linejoin="round"/><circle cx="19.12" cy="16.5" r="0.53" fill="none" stroke="#111" stroke-width="1.6"/><polyline points="19.12,16.5 22.27,16.5 22.27,18.23" fill="none" stroke="#111" stroke-width="1.6" stroke-linecap="round" stroke-linejoin="round"/><polyline points="19.12,27 19.12,14.77" fill="none" stroke="#111" stroke-width="1.6" stroke-linecap="round" stroke-linejoin="round"/><rect x="21.22" y="18.23" width="2.1" height="5.25" fill="none" stroke="#111" stroke-width="1.6"/><polyline points="22.27,23.48 22.27,25.21 87.38,25.21" fill="none" stroke="#111" stroke-width="1.6" stroke-linecap="round" stroke-linejoin="round"/><circle cx="22.27" cy="25.21" r="0.53" fill="none" stroke="#111" stroke-width="1.6"/><rect x="28.57" y="9.52" width="2.11" height="5.25" fill="none" stroke="#111" stroke-width="1.6"/><circle cx="29.62" cy="7.79" r="0.53" fill="none" stroke="#111" stroke-width="1.6"/><polyline points="29.62,7.79 40.12,7.79 40.12,9.52" fill="none" stroke="#111" stroke-width="1.6" stroke-linecap="round" stroke-linejoin="round"/><circle cx="29.62" cy="16.5" r="0.53" fill="none" stroke="#111" stroke-width="1.6"/><polyline points="29.62,16.5 32.77,16.5 32.77,18.23" fill="none" stroke="#111" stroke-width="1.6" stroke-linecap="round" stroke-linejoin="round"/><polyline points="29.62,27 29.62,14.77" fill="none" stroke="#111" stroke-width="1.6" stroke-linecap="round" stroke-linejoin="round"/><rect x="31.72" y="18.23" width="2.11" height="5.25" fill="none" stroke="#111" stroke-width="1.6"/><polyline points="32.77,23.48 32.77,25.21 87.38,25.21" fill="none" stroke="#111" stroke-width="1.6" stroke-linecap="round" stroke-linejoin="round"/><circle cx="32.77" cy="25.21" r="0.53" fill="none" stroke="#111" stroke-width="1.6"/><rect x="39.07" y="9.52" width="2.1" height="5.25" fill="none" stroke="#111" stroke-width="1.6"/><circle cx="40.12" cy="7.79" r="0.53" fill="none" stroke="#111" stroke-width="1.6"/><polyline points="40.12,7.79 50.62,7.79 50.62,9.52" fill="none" stroke="#111" stroke-width="1.6" stroke-linecap="round" stroke-linejoin="round"/><circle cx="40.12" cy="16.5" r="0.53" fill="none" stroke="#111" stroke-width="1.6"/><polyline points="40.12,16.5 43.27,16.5 43.27,18.23" fill="none" stroke="#111" stroke-width="1.6" stroke-linecap="round" stroke-linejoin="round"/><polyline points="40.12,27 40.12,14.77" fill="none" stroke="#111" stroke-width="1.6" stroke-linecap="round" stroke-linejoin="round"/><rect x="42.22" y="18.23" width="2.11" height="5.25" fill="none" stroke="#111" stroke-width="1.6"/><polyline points="43.27,23.48 43.27,25.21 87.38,25.21" fill="none" stroke="#111" stroke-width="1.6" stroke-linecap="round" stroke-linejoin="round"/><circle cx="43.27" cy="25.21" r="0.53" fill="none" stroke="#111" stroke-width="1.6"/><rect x="49.57" y="9.52" width="2.1" height="5.25" fill="none" stroke="#111" stroke-width="1.6"/><circle cx="50.62" cy="7.79" r="0.53" fill="none" stroke="#111" stroke-width="1.6"/><polyline points="50.62,7.79 61.12,7.79 61.12,9.52" fill="none" stroke="#111" stroke-width="1.6" stroke-linecap="round" stroke-linejoin="round"/><polyline points="50.62,16.5 53.77,16.5 53.77,18.23" fill="none" stroke="#111" stroke-width="1.6" stroke-linecap="round" stroke-linejoin="round"/><circle cx="50.62" cy="16.5" r="0.53" fill="none" stroke="#111" stroke-width="1.6"/><polyline points="50.62,27 50.62,14.77" fill="none" stroke="#111" stroke-width="1.6" stroke-linecap="round" stroke-linejoin="round"/><rect x="52.73" y="18.23" width="2.09" height="5.25" fill="none" stroke="#111" stroke-width="1.6"/><polyline points="53.77,23.48 53.77,25.21 87.38,25.21" fill="none" stroke="#111" stroke-width="1.6" stroke-linecap="round" stroke-linejoin="round"/><circle cx="53.77" cy="25.21" r="0.53" fill="none" stroke="#111" stroke-width="1.6"/><rect x="60.07" y="9.52" width="2.1" height="5.25" fill="none" stroke="#111" stroke-width="1.6"/><polyline points="61.12,7.79 71.62,7.79 71.62,9.52" fill="none" stroke="#111" stroke-width="1.6" stroke-linecap="round" stroke-linejoin="round"/><circle cx="61.12" cy="7.79" r="0.53" fill="none" stroke="#111" stroke-width="1.6"/><polyline points="61.12,16.5 64.27,16.5 64.27,18.23" fill="none" stroke="#111" stroke-width="1.6" stroke-linecap="round" stroke-linejoin="round"/><circle cx="61.12" cy="16.5" r="0.53" fill="none" stroke="#111" stroke-width="1.6"/><polyline points="61.12,27 61.12,14.77" fill="none" stroke="#111" stroke-width="1.6" stroke-linecap="round" stroke-linejoin="round"/><rect x="63.22" y="18.23" width="2.1" height="5.25" fill="none" stroke="#111" stroke-width="1.6"/><polyline points="64.27,23.48 64.27,25.21 87.38,25.21" fill="none" stroke="#111" stroke-width="1.6" stroke-linecap="round" stroke-linejoin="round"/><circle cx="64.27" cy="25.21" r="0.53" fill="none" stroke="#111" stroke-width="1.6"/><rect x="70.57" y="9.52" width="2.1" height="5.25" fill="none" stroke="#111" stroke-width="1.6"/><polyline points="71.62,7.79 82.12,7.79 82.12,9.52" fill="none" stroke="#111" stroke-width="1.6" stroke-linecap="round" stroke-linejoin="round"/><circle cx="71.62" cy="7.79" r="0.53" fill="none" stroke="#111" stroke-width="1.6"/><polyline points="71.62,16.5 74.77,16.5 74.77,18.23" fill="none" stroke="#111" stroke-width="1.6" stroke-linecap="round" stroke-linejoin="round"/><circle cx="71.62" cy="16.5" r="0.53" fill="none" stroke="#111" stroke-width="1.6"/><polyline points="71.62,27 71.62,14.77" fill="none" stroke="#111" stroke-width="1.6" stroke-linecap="round" stroke-linejoin="round"/><rect x="73.72" y="18.23" width="2.1" height="5.25" fill="none" stroke="#111" stroke-width="1.6"/><polyline points="74.77,23.48 74.77,25.21 87.38,25.21" fill="none" stroke="#111" stroke-width="1.6" stroke-linecap="round" stroke-linejoin="round"/><circle cx="74.77" cy="25.21" r="0.53" fill="none" stroke="#111" stroke-width="1.6"/><rect x="81.08" y="9.52" width="2.09" height="5.25" fill="none" stroke="#111" stroke-width="1.6"/><polyline points="82.12,16.5 85.27,16.5 85.27,18.23" fill="none" stroke="#111" stroke-width="1.6" stroke-linecap="round" stroke-linejoin="round"/><circle cx="82.12" cy="16.5" r="0.53" fill="none" stroke="#111" stroke-width="1.6"/><polyline points="82.12,27 82.12,14.77" fill="none" stroke="#111" stroke-width="1.6" stroke-linecap="round" stroke-linejoin="round"/><rect x="84.23" y="18.23" width="2.09" height="5.25" fill="none" stroke="#111" stroke-width="1.6"/><polyline points="85.27,23.48 85.27,25.21 87.38,25.21" fill="none" stroke="#111" stroke-width="1.6" stroke-linecap="round" stroke-linejoin="round"/><circle cx="85.27" cy="25.21" r="0.53" fill="none" stroke="#111" stroke-width="1.6"/><polyline points="87.38,25.21 87.38,6" fill="none" stroke="#111" stroke-width="1.6" stroke-linecap="round" stroke-linejoin="round"/></svg>