<svg xmlns="http://www.w3.org/2000/svg" width="96" height="64" viewBox="0 0 96 64"><rect x="6" y="6" width="3.64" height="50.91" fill="none" stroke="#111" stroke-width="1.6"/><rect x="6" y="7.64" width="1.82" height="0.36" fill="none" stroke="#111" stroke-width="1.6"/><rect x="6" y="11.27" width="1.82" height="0.37" fill="none" stroke="#111" stroke-width="1.6"/><rect x="6" y="14.91" width="1.82" height="0.36" fill="none" stroke="#111" stroke-width="1.6"/><rect x="6" y="18.55" width="1.82" height="0.36" fill="none" stroke="#111" stroke-width="1.6"/><rect x="6" y="22.18" width="1.82" height="0.37" fill="none" stroke="#111" stroke-width="1.6"/><rect x="6" y="25.82" width="1.82" height="0.36" fill="none" stroke="#111" stroke-width="1.6"/><rect x="6" y="29.45" width="1.82" height="0.37" fill="none" stroke="#111" stroke-width="1.6"/><rect x="6" y="33.09" width="1.82" height="0.36" fill="none" stroke="#111" stroke-width="1.6"/><rect x="6" y="36.73" width="1.82" height="0.36" fill="none" stroke="#111" stroke-width="1.6"/><rect x="6" y="40.36" width="1.82" height="0.37" fill="none" stroke="#111" stroke-width="1.6"/><rect x="6" y="44" width="1.82" height="0.36" fill="none" stroke="#111" stroke-width="1.6"/><rect x="6" y="47.64" width="1.82" height="0.36" fill="none" stroke="#111" stroke-width="1.6"/><rect x="6" y="51.27" width="1.82" height="0.37" fill="none" stroke="#111" stroke-width="1.6"/><rect x="6" y="54.91" width="1.82" height="0.36" fill="none" stroke="#111" stroke-width="1.6"/><polyline points="6.36,58 9.27,58" fill="none" stroke="#111" stroke-width="1.6" stroke-linecap="round" stroke-linejoin="round"/></svg>