<svg xmlns="http://www.w3.org/2000/svg" width="96" height="64" viewBox="0 0 96 64"><rect x="6" y="6" width="0.36" height="0.11" fill="none" stroke="#111" stroke-width="1.6"/><rect x="6" y="7.06" width="0.36" height="0.1" fill="none" stroke="#111" stroke-width="1.6"/><rect x="6" y="8.12" width="0.36" height="0.1" fill="none" stroke="#111" stroke-width="1.6"/><rect x="6" y="9.18" width="0.36" height="0.1" fill="none" stroke="#111" stroke-width="1.6"/><rect x="6" y="10.24" width="0.36" height="0.1" fill="none" stroke="#111" stroke-width="1.6"/><rect x="6" y="11.3" width="0.36" height="0.1" fill="none" stroke="#111" stroke-width="1.6"/><rect x="6" y="12.35" width="0.36" height="0.11" fill="none" stroke="#111" stroke-width="1.6"/><rect x="6" y="13.41" width="0.36" height="0.11" fill="none" stroke="#111" stroke-width="1.6"/><rect x="6" y="14.47" width="0.36" height="0.11" fill="none" stroke="#111" stroke-width="1.6"/><rect x="6" y="15.53" width="0.36" height="0.11" fill="none" stroke="#111" stroke-width="1.6"/><rect x="6" y="16.59" width="0.36" height="0.11" fill="none" stroke="#111" stroke-width="1.6"/><rect x="6" y="17.65" width="0.36" height="0.11" fill="none" stroke="#111" stroke-width="1.6"/><rect x="6" y="18.71" width="0.36" height="0.1" fill="none" stroke="#111" stroke-width="1.6"/><rect x="6" y="19.77" width="0.36" height="0.1" fill="none" stroke="#111" stroke-width="1.6"/><rect x="6" y="20.83" width="0.36" height="0.1" fill="none" stroke="#111" stroke-width="1.6"/><rect x="6" y="21.89" width="0.36" height="0.1" fill="none" stroke="#111" stroke-width="1.6"/><rect x="6" y="22.95" width="0.36" height="0.1" fill="none" stroke="#111" stroke-width="1.6"/><rect x="6" y="24" width="0.36" height="0.11" fill="none" stroke="#111" stroke-width="1.6"/><rect x="6" y="25.06" width="0.36" height="0.11" fill="none" stroke="#111" stroke-width="1.6"/><rect x="6" y="26.12" width="0.36" height="0.11" fill="none" stroke="#111" stroke-width="1.6"/><rect x="6" y="27.18" width="0.36" height="0.11" fill="none" stroke="#111" stroke-width="1.6"/><rect x="6" y="28.24" width="0.36" height="0.11" fill="none" stroke="#111" stroke-width="1.6"/><rect x="6" y="29.3" width="0.36" height="0.11" fill="none" stroke="#111" stroke-width="1.6"/><rect x="6" y="30.36" width="0.36" height="0.1" fill="none" stroke="#111" stroke-width="1.6"/><rect x="6" y="31.42" width="0.36" height="0.1" fill="none" stroke="#111" stroke-width="1.6"/><rect x="6" y="32.48" width="0.36" height="0.1" fill="none" stroke="#111" stroke-width="1.6"/><rect x="6" y="33.54" width="0.36" height="0.1" fill="none" stroke="#111" stroke-width="1.6"/><rect x="6" y="34.59" width="0.36" height="0.11" fill="none" stroke="#111" stroke-width="1.6"/><rect x="6" y="35.65" width="0.36" height="0.11" fill="none" stroke="#111" stroke-width="1.6"/><rect x="6" y="36.71" width="0.36" height="0.11" fill="none" stroke="#111" stroke-width="1.6"/><rect x="6" y="37.77" width="0.36" height="0.11" fill="none" stroke="#111" stroke-width="1.6"/><rect x="6" y="38.83" width="0.36" height="0.11" fill="none" stroke="#111" stroke-width="1.6"/><rect x="6" y="39.89" width="0.36" height="0.11" fill="none" stroke="#111" stroke-width="1.6"/><rect x="6" y="40.95" width="0.36" height="0.1" fill="none" stroke="#111" stroke-width="1.6"/><rect x="6" y="42.01" width="0.36" height="0.1" fill="none" stroke="#111" stroke-width="1.6"/><rect x="6" y="43.07" width="0.36" height="0.1" fill="none" stroke="#111" stroke-width="1.6"/><rect x="6" y="44.13" width="0.36" height="0.1" fill="none" stroke="#111" stroke-width="1.6"/><rect x="6" y="45.19" width="0.36" height="0.1" fill="none" stroke="#111" stroke-width="1.6"/><rect x="6" y="46.24" width="0.36" height="0.11" fill="none" stroke="#111" stroke-width="1.6"/><rect x="6" y="47.3" width="0.36" height="0.11" fill="none" stroke="#111" stroke-width="1.6"/><rect x="6" y="48.36" width="0.36" height="0.11" fill="none" stroke="#111" stroke-width="1.6"/><rect x="6" y="49.42" width="0.36" height="0.11" fill="none" stroke="#111" stroke-width="1.6"/><rect x="6" y="50.48" width="0.36" height="0.11" fill="none" stroke="#111" stroke-width="1.6"/><rect x="6" y="51.54" width="0.36" height="0.11" fill="none" stroke="#111" stroke-width="1.6"/><rect x="6" y="52.6" width="0.36" height="0.1" fill="none" stroke="#111" stroke-width="1.6"/><rect x="6" y="53.66" width="0.36" height="0.1" fill="none" stroke="#111" stroke-width="1.6"/><rect x="6" y="54.72" width="0.36" height="0.1" fill="none" stroke="#111" stroke-width="1.6"/><rect x="6" y="55.78" width="0.36" height="0.1" fill="none" stroke="#111" stroke-width="1.6"/><rect x="6" y="56.84" width="0.36" height="0.1" fill="none" stroke="#111" stroke-width="1.6"/><rect x="6" y="57.89" width="0.36" height="0.11" fill="none" stroke="#111" stroke-width="1.6"/><polyline points="6.53,6.05 6.36,6.05" fill="none" stroke="#111" stroke-width="1.6" stroke-linecap="round" stroke-linejoin="round"/><polyline points="6.53,7.11 6.36,7.11" fill="none" stroke="#111" stroke-width="1.6" stroke-linecap="round" stroke-linejoin="round"/><polyline points="6.53,8.17 6.36,8.17" fill="none" stroke="#111" stroke-width="1.6" stroke-linecap="round" stroke-linejoin="round"/><polyline points="6.53,9.23 6.36,9.23" fill="none" stroke="#111" stroke-width="1.6" stroke-linecap="round" stroke-linejoin="round"/><polyline points="6.53,10.29 6.36,10.29" fill="none" stroke="#111" stroke-width="1.6" stroke-linecap="round" stroke-linejoin="round"/><polyline points="6.53,11.35 6.36,11.35" fill="none" stroke="#111" stroke-width="1.6" stroke-linecap="round" stroke-linejoin="round"/><polyline points="6.53,12.41 6.36,12.41" fill="none" stroke="#111" stroke-width="1.6" stroke-linecap="round" stroke-linejoin="round"/><polyline points="6.53,13.47 6.36,13.47" fill="none" stroke="#111" stroke-width="1.6" stroke-linecap="round" stroke-linejoin="round"/><polyline points="6.53,14.53 6.36,14.53" fill="none" stroke="#111" stroke-width="1.6" stroke-linecap="round" stroke-linejoin="round"/><polyline points="6.53,15.58 6.36,15.58" fill="none" stroke="#111" stroke-width="1.6" stroke-linecap="round" stroke-linejoin="round"/><polyline points="6.53,16.64 6.36,16.64" fill="none" stroke="#111" stroke-width="1.6" stroke-linecap="round" stroke-linejoin="round"/><polyline points="6.53,17.7 6.36,17.7" fill="none" stroke="#111" stroke-width="1.6" stroke-linecap="round" stroke-linejoin="round"/><polyline points="6.53,18.76 6.36,18.76" fill="none" stroke="#111" stroke-width="1.6" stroke-linecap="round" stroke-linejoin="round"/><polyline points="6.53,19.82 6.36,19.82" fill="none" stroke="#111" stroke-width="1.6" stroke-linecap="round" stroke-linejoin="round"/><polyline points="6.53,20.88 6.36,20.88" fill="none" stroke="#111" stroke-width="1.6" stroke-linecap="round" stroke-linejoin="round"/><polyline points="6.53,21.94 6.36,21.94" fill="none" stroke="#111" stroke-width="1.6" stroke-linecap="round" stroke-linejoin="round"/><polyline points="6.53,23 6.36,23" fill="none" stroke="#111" stroke-width="1.6" stroke-linecap="round" stroke-linejoin="round"/><polyline points="6.53,24.06 6.36,24.06" fill="none" stroke="#111" stroke-width="1.6" stroke-linecap="round" stroke-linejoin="round"/><polyline points="6.53,25.12 6.36,25.12" fill="none" stroke="#111" stroke-width="1.6" stroke-linecap="round" stroke-linejoin="round"/><polyline points="6.53,26.18 6.36,26.18" fill="none" stroke="#111" stroke-width="1.6" stroke-linecap="round" stroke-linejoin="round"/><polyline points="6.53,27.23 6.36,27.23" fill="none" stroke="#111" stroke-width="1.6" stroke-linecap="round" stroke-linejoin="round"/><polyline points="6.53,28.29 6.36,28.29" fill="none" stroke="#111" stroke-width="1.6" stroke-linecap="round" stroke-linejoin="round"/><polyline points="6.53,29.35 6.36,29.35" fill="none" stroke="#111" stroke-width="1.6" stroke-linecap="round" stroke-linejoin="round"/><polyline points="6.53,30.41 6.36,30.41" fill="none" stroke="#111" stroke-width="1.6" stroke-linecap="round" stroke-linejoin="round"/><polyline points="6.53,31.47 6.36,31.47" fill="none" stroke="#111" stroke-width="1.6" stroke-linecap="round" stroke-linejoin="round"/><polyline points="6.53,32.53 6.36,32.53" fill="none" stroke="#111" stroke-width="1.6" stroke-linecap="round" stroke-linejoin="round"/><polyline points="6.53,33.59 6.36,33.59" fill="none" stroke="#111" stroke-width="1.6" stroke-linecap="round" stroke-linejoin="round"/><polyline points="6.53,34.65 6.36,34.65" fill="none" stroke="#111" stroke-width="1.6" stroke-linecap="round" stroke-linejoin="round"/><polyline points="6.53,35.71 6.36,35.71" fill="none" stroke="#111" stroke-width="1.6" stroke-linecap="round" stroke-linejoin="round"/><polyline points="6.53,36.77 6.36,36.77" fill="none" stroke="#111" stroke-width="1.6" stroke-linecap="round" stroke-linejoin="round"/><polyline points="6.53,37.82 6.36,37.82" fill="none" stroke="#111" stroke-width="1.6" stroke-linecap="round" stroke-linejoin="round"/><polyline points="6.53,38.88 6.36,38.88" fill="none" stroke="#111" stroke-width="1.6" stroke-linecap="round" stroke-linejoin="round"/><polyline points="6.53,39.94 6.36,39.94" fill="none" stroke="#111" stroke-width="1.6" stroke-linecap="round" stroke-linejoin="round"/><polyline points="6.53,41 6.36,41" fill="none" stroke="#111" stroke-width="1.6" stroke-linecap="round" stroke-linejoin="round"/><polyline points="6.53,42.06 6.36,42.06" fill="none" stroke="#111" stroke-width="1.6" stroke-linecap="round" stroke-linejoin="round"/><polyline points="6.53,43.12 6.36,43.12" fill="none" stroke="#111" stroke-width="1.6" stroke-linecap="round" stroke-linejoin="round"/><polyline points="6.53,44.18 6.36,44.18" fill="none" stroke="#111" stroke-width="1.6" stroke-linecap="round" stroke-linejoin="round"/><polyline points="6.53,45.24 6.36,45.24" fill="none" stroke="#111" stroke-width="1.6" stroke-linecap="round" stroke-linejoin="round"/><polyline points="6.53,46.3 6.36,46.3" fill="none" stroke="#111" stroke-width="1.6" stroke-linecap="round" stroke-linejoin="round"/><polyline points="6.53,47.36 6.36,47.36" fill="none" stroke="#111" stroke-width="1.6" stroke-linecap="round" stroke-linejoin="round"/><polyline points="6.53,48.42 6.36,48.42" fill="none" stroke="#111" stroke-width="1.6" stroke-linecap="round" stroke-linejoin="round"/><polyline points="6.53,49.47 6.36,49.47" fill="none" stroke="#111" stroke-width="1.6" stroke-linecap="round" stroke-linejoin="round"/><polyline points="6.53,50.53 6.36,50.53" fill="none" stroke="#111" stroke-width="1.6" stroke-linecap="round" stroke-linejoin="round"/><polyline points="6.53,51.59 6.36,51.59" fill="none" stroke="#111" stroke-width="1.6" stroke-linecap="round" stroke-linejoin="round"/><polyline points="6.53,52.65 6.36,52.65" fill="none" stroke="#111" stroke-width="1.6" stroke-linecap="round" stroke-linejoin="round"/><polyline points="6.53,53.71 6.36,53.71" fill="none" stroke="#111" stroke-width="1.6" stroke-linecap="round" stroke-linejoin="round"/><polyline points="6.53,54.77 6.36,54.77" fill="none" stroke="#111" stroke-width="1.6" stroke-linecap="round" stroke-linejoin="round"/><polyline points="6.53,55.83 6.36,55.83" fill="none" stroke="#111" stroke-width="1.6" stroke-linecap="round" stroke-linejoin="round"/><polyline points="6.53,56.89 6.36,56.89" fill="none" stroke="#111" stroke-width="1.6" stroke-linecap="round" stroke-linejoin="round"/><polyline points="6.53,57.95 6.36,57.95" fill="none" stroke="#111" stroke-width="1.6" stroke-linecap="round" stroke-linejoin="round"/></svg>