<svg xmlns="http://www.w3.org/2000/svg" width="96" height="64" viewBox="0 0 96 64"><rect x="6" y="6" width="15.17" height="52" fill="none" stroke="#111" stroke-width="1.6"/><rect x="6" y="7.08" width="5.96" height="10.84" fill="none" stroke="#111" stroke-width="1.6"/><polyline points="11.2,21.17 9.68,21.17" fill="none" stroke="#111" stroke-width="1.6" stroke-linecap="round" stroke-linejoin="round"/><polyline points="11.2,23.33 9.68,23.33" fill="none" stroke="#111" stroke-width="1.6" stroke-linecap="round" stroke-linejoin="round"/><polyline points="11.2,25.5 9.68,25.5" fill="none" stroke="#111" stroke-width="1.6" stroke-linecap="round" stroke-linejoin="round"/><polyline points="11.2,27.67 9.68,27.67" fill="none" stroke="#111" stroke-width="1.6" stroke-linecap="round" stroke-linejoin="round"/><polyline points="11.2,29.83 9.68,29.83" fill="none" stroke="#111" stroke-width="1.6" stroke-linecap="round" stroke-linejoin="round"/><polyline points="11.2,32 9.68,32" fill="none" stroke="#111" stroke-width="1.6" stroke-linecap="round" stroke-linejoin="round"/><polyline points="11.2,34.17 9.68,34.17" fill="none" stroke="#111" stroke-width="1.6" stroke-linecap="round" stroke-linejoin="round"/><polyline points="11.2,36.33 9.68,36.33" fill="none" stroke="#111" stroke-width="1.6" stroke-linecap="round" stroke-linejoin="round"/><polyline points="11.2,40.67 9.68,40.67" fill="none" stroke="#111" stroke-width="1.6" stroke-linecap="round" stroke-linejoin="round"/><polyline points="11.2,42.83 9.68,42.83" fill="none" stroke="#111" stroke-width="1.6" stroke-linecap="round" stroke-linejoin="round"/><polyline points="11.2,45 9.68,45" fill="none" stroke="#111" stroke-width="1.6" stroke-linecap="round" stroke-linejoin="round"/><polyline points="11.2,47.17 9.68,47.17" fill="none" stroke="#111" stroke-width="1.6" stroke-linecap="round" stroke-linejoin="round"/><polyline points="11.2,49.33 9.68,49.33" fill="none" stroke="#111" stroke-width="1.6" stroke-linecap="round" stroke-linejoin="round"/><polyline points="11.2,51.5 9.68,51.5" fill="none" stroke="#111" stroke-width="1.6" stroke-linecap="round" stroke-linejoin="round"/><polyline points="11.2,53.67 9.68,53.67" fill="none" stroke="#111" stroke-width="1.6" stroke-linecap="round" stroke-linejoin="round"/><polyline points="11.2,55.83 9.68,55.83" fill="none" stroke="#111" stroke-width="1.6" stroke-linecap="round" stroke-linejoin="round"/><circle cx="11.63" cy="21.17" r="0.43" fill="none" stroke="#111" stroke-width="1.6"/><circle cx="11.63" cy="23.33" r="0.43" fill="none" stroke="#111" stroke-width="1.6"/><circle cx="11.63" cy="25.5" r="0.43" fill="none" stroke="#111" stroke-width="1.6"/><circle cx="11.63" cy="27.67" r="0.43" fill="none" stroke="#111" stroke-width="1.6"/><circle cx="11.63" cy="29.83" r="0.43" fill="none" stroke="#111" stroke-width="1.6"/><circle cx="11.63" cy="32" r="0.43" fill="none" stroke="#111" stroke-width="1.6"/><circle cx="11.63" cy="34.17" r="0.43" fill="none" stroke="#111" stroke-width="1.6"/><circle cx="11.63" cy="36.33" r="0.43" fill="none" stroke="#111" stroke-width="1.6"/><circle cx="11.63" cy="40.67" r="0.43" fill="none" stroke="#111" stroke-width="1.6"/><circle cx="11.63" cy="42.83" r="0.43" fill="none" stroke="#111" stroke-width="1.6"/><circle cx="11.63" cy="45" r="0.43" fill="none" stroke="#111" stroke-width="1.6"/><circle cx="11.63" cy="47.17" r="0.43" fill="none" stroke="#111" stroke-width="1.6"/><circle cx="11.63" cy="49.33" r="0.43" fill="none" stroke="#111" stroke-width="1.6"/><circle cx="11.63" cy="51.5" r="0.43" fill="none" stroke="#111" stroke-width="1.6"/><circle cx="11.63" cy="53.67" r="0.43" fill="none" stroke="#111" stroke-width="1.6"/><circle cx="11.63" cy="55.83" r="0.43" fill="none" stroke="#111" stroke-width="1.6"/><polyline points="12.07,13.58 12.72,13.58" fill="none" stroke="#111" stroke-width="1.6" stroke-linecap="round" stroke-linejoin="round"/><polyline points="12.72,14.67 12.72,14.13" fill="none" stroke="#111" stroke-width="1.6" stroke-linecap="round" stroke-linejoin="round"/><polyline points="12.72,15.75 12.72,15.21" fill="none" stroke="#111" stroke-width="1.6" stroke-linecap="round" stroke-linejoin="round"/><polyline points="12.72,15.75 12.72,15.21" fill="none" stroke="#111" stroke-width="1.6" stroke-linecap="round" stroke-linejoin="round"/><polyline points="12.72,16.83 12.72,16.18" fill="none" stroke="#111" stroke-width="1.6" stroke-linecap="round" stroke-linejoin="round"/><polyline points="12.72,17.92 12.72,17.38" fill="none" stroke="#111" stroke-width="1.6" stroke-linecap="round" stroke-linejoin="round"/><polyline points="12.72,19 12.72,18.46" fill="none" stroke="#111" stroke-width="1.6" stroke-linecap="round" stroke-linejoin="round"/><polyline points="12.72,19 12.72,18.46" fill="none" stroke="#111" stroke-width="1.6" stroke-linecap="round" stroke-linejoin="round"/><polyline points="12.72,20.08 12.72,19.54" fill="none" stroke="#111" stroke-width="1.6" stroke-linecap="round" stroke-linejoin="round"/><polyline points="12.72,20.08 12.72,19.54" fill="none" stroke="#111" stroke-width="1.6" stroke-linecap="round" stroke-linejoin="round"/><polyline points="12.72,21.17 12.72,20.62" fill="none" stroke="#111" stroke-width="1.6" stroke-linecap="round" stroke-linejoin="round"/><polyline points="12.72,22.25 12.72,21.71" fill="none" stroke="#111" stroke-width="1.6" stroke-linecap="round" stroke-linejoin="round"/><polyline points="12.72,23.33 12.72,22.79" fill="none" stroke="#111" stroke-width="1.6" stroke-linecap="round" stroke-linejoin="round"/><polyline points="12.72,24.42 12.72,23.88" fill="none" stroke="#111" stroke-width="1.6" stroke-linecap="round" stroke-linejoin="round"/><polyline points="12.72,25.5 12.72,24.96" fill="none" stroke="#111" stroke-width="1.6" stroke-linecap="round" stroke-linejoin="round"/><polyline points="12.72,26.58 12.72,26.04" fill="none" stroke="#111" stroke-width="1.6" stroke-linecap="round" stroke-linejoin="round"/><polyline points="12.72,27.67 12.72,27.12" fill="none" stroke="#111" stroke-width="1.6" stroke-linecap="round" stroke-linejoin="round"/><polyline points="12.72,28.75 12.72,28.21" fill="none" stroke="#111" stroke-width="1.6" stroke-linecap="round" stroke-linejoin="round"/><polyline points="12.72,29.83 12.72,29.29" fill="none" stroke="#111" stroke-width="1.6" stroke-linecap="round" stroke-linejoin="round"/><polyline points="12.72,30.92 12.72,30.38" fill="none" stroke="#111" stroke-width="1.6" stroke-linecap="round" stroke-linejoin="round"/><polyline points="12.72,32 12.72,31.46" fill="none" stroke="#111" stroke-width="1.6" stroke-linecap="round" stroke-linejoin="round"/><polyline points="12.72,33.08 12.72,32.54" fill="none" stroke="#111" stroke-width="1.6" stroke-linecap="round" stroke-linejoin="round"/><polyline points="12.72,34.17 12.72,33.62" fill="none" stroke="#111" stroke-width="1.6" stroke-linecap="round" stroke-linejoin="round"/><polyline points="12.72,35.25 12.72,34.71" fill="none" stroke="#111" stroke-width="1.6" stroke-linecap="round" stroke-linejoin="round"/><polyline points="12.72,36.33 12.72,35.79" fill="none" stroke="#111" stroke-width="1.6" stroke-linecap="round" stroke-linejoin="round"/><polyline points="12.72,37.42 12.72,36.88" fill="none" stroke="#111" stroke-width="1.6" stroke-linecap="round" stroke-linejoin="round"/><polyline points="12.72,38.5 12.72,37.96" fill="none" stroke="#111" stroke-width="1.6" stroke-linecap="round" stroke-linejoin="round"/><polyline points="12.72,39.58 12.72,39.04" fill="none" stroke="#111" stroke-width="1.6" stroke-linecap="round" stroke-linejoin="round"/><polyline points="12.72,40.67 12.72,40.12" fill="none" stroke="#111" stroke-width="1.6" stroke-linecap="round" stroke-linejoin="round"/><polyline points="12.72,41.75 12.72,41.21" fill="none" stroke="#111" stroke-width="1.6" stroke-linecap="round" stroke-linejoin="round"/><polyline points="12.72,42.83 12.72,42.29" fill="none" stroke="#111" stroke-width="1.6" stroke-linecap="round" stroke-linejoin="round"/><polyline points="12.72,43.92 12.72,43.38" fill="none" stroke="#111" stroke-width="1.6" stroke-linecap="round" stroke-linejoin="round"/><polyline points="12.72,45 12.72,44.46" fill="none" stroke="#111" stroke-width="1.6" stroke-linecap="round" stroke-linejoin="round"/><polyline points="14.67,32 12.28,21.17" fill="none" stroke="#111" stroke-width="1.6" stroke-linecap="round" stroke-linejoin="round"/><polyline points="14.67,51.5 12.28,40.67" fill="none" stroke="#111" stroke-width="1.6" stroke-linecap="round" stroke-linejoin="round"/><circle cx="15.21" cy="32" r="0.43" fill="none" stroke="#111" stroke-width="1.6"/><circle cx="15.21" cy="51.5" r="0.43" fill="none" stroke="#111" stroke-width="1.6"/><polyline points="17.92,32 15.75,32" fill="none" stroke="#111" stroke-width="1.6" stroke-linecap="round" stroke-linejoin="round"/><polyline points="17.92,51.5 15.75,51.5" fill="none" stroke="#111" stroke-width="1.6" stroke-linecap="round" stroke-linejoin="round"/></svg>