<svg xmlns="http://www.w3.org/2000/svg" width="96" height="64" viewBox="0 0 96 64"><rect x="6" y="6" width="84" height="50.4" fill="none" stroke="#111" stroke-width="1.6"/><polyline points="14.4,25.32 15.66,21.54 13.14,21.54 14.4,25.32" fill="none" stroke="#111" stroke-width="1.6" stroke-linecap="round" stroke-linejoin="round"/><polyline points="14.4,28.68 14.4,19.44" fill="none" stroke="#111" stroke-width="1.6" stroke-linecap="round" stroke-linejoin="round"/><path d="M 14.4 28.68 Q 16.92 31.2 14.4 33.72" fill="none" stroke="#111" stroke-width="1.6" stroke-linecap="round"/><polyline points="14.4,33.72 14.4,37.08" fill="none" stroke="#111" stroke-width="1.6" stroke-linecap="round" stroke-linejoin="round"/><polyline points="22.8,25.32 24.06,21.54 21.54,21.54 22.8,25.32" fill="none" stroke="#111" stroke-width="1.6" stroke-linecap="round" stroke-linejoin="round"/><polyline points="22.8,28.68 22.8,19.44" fill="none" stroke="#111" stroke-width="1.6" stroke-linecap="round" stroke-linejoin="round"/><path d="M 22.8 28.68 Q 25.32 31.2 22.8 33.72" fill="none" stroke="#111" stroke-width="1.6" stroke-linecap="round"/><polyline points="22.8,33.72 22.8,37.08" fill="none" stroke="#111" stroke-width="1.6" stroke-linecap="round" stroke-linejoin="round"/><polyline points="31.2,25.32 32.46,21.54 29.94,21.54 31.2,25.32" fill="none" stroke="#111" stroke-width="1.6" stroke-linecap="round" stroke-linejoin="round"/><polyline points="31.2,28.68 31.2,19.44" fill="none" stroke="#111" stroke-width="1.6" stroke-linecap="round" stroke-linejoin="round"/><path d="M 31.2 28.68 Q 33.72 31.2 31.2 33.72" fill="none" stroke="#111" stroke-width="1.6" stroke-linecap="round"/><polyline points="31.2,33.72 31.2,37.08" fill="none" stroke="#111" stroke-width="1.6" stroke-linecap="round" stroke-linejoin="round"/><polyline points="39.6,25.32 40.86,21.54 38.34,21.54 39.6,25.32" fill="none" stroke="#111" stroke-width="1.6" stroke-linecap="round" stroke-linejoin="round"/><polyline points="39.6,28.68 39.6,19.44" fill="none" stroke="#111" stroke-width="1.6" stroke-linecap="round" stroke-linejoin="round"/><path d="M 39.6 28.68 Q 42.12 31.2 39.6 33.72" fill="none" stroke="#111" stroke-width="1.6" stroke-linecap="round"/><polyline points="39.6,33.72 39.6,37.08" fill="none" stroke="#111" stroke-width="1.6" stroke-linecap="round" stroke-linejoin="round"/><polyline points="53.04,18.6 57.24,18.6" fill="none" stroke="#111" stroke-width="1.6" stroke-linecap="round" stroke-linejoin="round"/><path d="M 53.04 23.64 Q 50.52 21.12 53.04 18.6" fill="none" stroke="#111" stroke-width="1.6" stroke-linecap="round"/><path d="M 53.04 28.68 Q 50.52 26.16 53.04 23.64" fill="none" stroke="#111" stroke-width="1.6" stroke-linecap="round"/><path d="M 53.04 33.72 Q 50.52 31.2 53.04 28.68" fill="none" stroke="#111" stroke-width="1.6" stroke-linecap="round"/><path d="M 53.04 38.76 Q 50.52 36.24 53.04 33.72" fill="none" stroke="#111" stroke-width="1.6" stroke-linecap="round"/><path d="M 53.04 43.8 Q 50.52 41.28 53.04 38.76" fill="none" stroke="#111" stroke-width="1.6" stroke-linecap="round"/><polyline points="53.04,43.8 57.24,43.8" fill="none" stroke="#111" stroke-width="1.6" stroke-linecap="round" stroke-linejoin="round"/><polyline points="45.48,18.6 45.48,43.8" fill="none" stroke="#111" stroke-width="1.6" stroke-linecap="round" stroke-linejoin="round"/><polyline points="47.16,43.8 47.16,18.6" fill="none" stroke="#111" stroke-width="1.6" stroke-linecap="round" stroke-linejoin="round"/></svg>