<svg xmlns="http://www.w3.org/2000/svg" width="96" height="64" viewBox="0 0 96 64"><circle cx="11.2" cy="13.43" r="1.49" fill="none" stroke="#111" stroke-width="1.6"/><circle cx="11.2" cy="20.86" r="1.49" fill="none" stroke="#111" stroke-width="1.6"/><circle cx="11.2" cy="28.29" r="1.49" fill="none" stroke="#111" stroke-width="1.6"/><circle cx="11.2" cy="35.71" r="1.49" fill="none" stroke="#111" stroke-width="1.6"/><circle cx="11.2" cy="43.14" r="1.49" fill="none" stroke="#111" stroke-width="1.6"/><circle cx="11.2" cy="50.57" r="1.49" fill="none" stroke="#111" stroke-width="1.6"/><polyline points="12.69,13.06 24.05,10.01" fill="none" stroke="#111" stroke-width="1.6" stroke-linecap="round" stroke-linejoin="round"/><polyline points="12.69,20.49 24.05,17.44" fill="none" stroke="#111" stroke-width="1.6" stroke-linecap="round" stroke-linejoin="round"/><polyline points="12.69,27.91 24.05,24.87" fill="none" stroke="#111" stroke-width="1.6" stroke-linecap="round" stroke-linejoin="round"/><polyline points="12.69,35.34 24.05,32.3" fill="none" stroke="#111" stroke-width="1.6" stroke-linecap="round" stroke-linejoin="round"/><polyline points="12.69,42.7 24.05,39.65" fill="none" stroke="#111" stroke-width="1.6" stroke-linecap="round" stroke-linejoin="round"/><polyline points="12.69,50.13 24.05,47.08" fill="none" stroke="#111" stroke-width="1.6" stroke-linecap="round" stroke-linejoin="round"/><circle cx="23.09" cy="13.43" r="1.49" fill="none" stroke="#111" stroke-width="1.6"/><circle cx="23.09" cy="20.86" r="1.49" fill="none" stroke="#111" stroke-width="1.6"/><circle cx="23.09" cy="28.29" r="1.49" fill="none" stroke="#111" stroke-width="1.6"/><circle cx="23.09" cy="35.71" r="1.49" fill="none" stroke="#111" stroke-width="1.6"/><circle cx="23.09" cy="43.14" r="1.49" fill="none" stroke="#111" stroke-width="1.6"/><circle cx="23.09" cy="50.57" r="1.49" fill="none" stroke="#111" stroke-width="1.6"/><rect x="6" y="6" width="22.29" height="52" fill="none" stroke="#111" stroke-width="1.6"/></svg>