<svg xmlns="http://www.w3.org/2000/svg" width="96" height="64" viewBox="0 0 96 64"><path d="M 23.33 29.83 Q 24.23 32 23.33 34.17" fill="none" stroke="#111" stroke-width="1.6" stroke-linecap="round"/><polyline points="21.17,27.67 21.17,21.17" fill="none" stroke="#111" stroke-width="1.6" stroke-linecap="round" stroke-linejoin="round"/><polyline points="21.17,36.33 21.17,42.83" fill="none" stroke="#111" stroke-width="1.6" stroke-linecap="round" stroke-linejoin="round"/><polyline points="23.33,34.17 21.17,36.33" fill="none" stroke="#111" stroke-width="1.6" stroke-linecap="round" stroke-linejoin="round"/><path d="M 21.17 21.17 Q 27.67 16.48 34.17 21.17" fill="none" stroke="#111" stroke-width="1.6" stroke-linecap="round"/><path d="M 34.17 42.83 Q 27.67 47.52 21.17 42.83" fill="none" stroke="#111" stroke-width="1.6" stroke-linecap="round"/><polyline points="32,29.83 34.17,27.67" fill="none" stroke="#111" stroke-width="1.6" stroke-linecap="round" stroke-linejoin="round"/><polyline points="32,34.17 34.17,36.33" fill="none" stroke="#111" stroke-width="1.6" stroke-linecap="round" stroke-linejoin="round"/><polyline points="34.17,27.67 34.17,21.17" fill="none" stroke="#111" stroke-width="1.6" stroke-linecap="round" stroke-linejoin="round"/><path d="M 32 34.17 Q 31.1 32 32 29.83" fill="none" stroke="#111" stroke-width="1.6" stroke-linecap="round"/><polyline points="34.17,36.33 34.17,42.83" fill="none" stroke="#111" stroke-width="1.6" stroke-linecap="round" stroke-linejoin="round"/><polyline points="6,6 49.33,6 49.33,58 6,58 6,6" fill="none" stroke="#111" stroke-width="1.6" stroke-linecap="round" stroke-linejoin="round"/><polyline points="23.33,29.83 21.17,27.67" fill="none" stroke="#111" stroke-width="1.6" stroke-linecap="round" stroke-linejoin="round"/><circle cx="27.67" cy="23.33" r="3.06" fill="none" stroke="#111" stroke-width="1.6"/><circle cx="27.67" cy="40.67" r="3.06" fill="none" stroke="#111" stroke-width="1.6"/></svg>