<svg xmlns="http://www.w3.org/2000/svg" width="96" height="64" viewBox="0 0 96 64"><rect x="6" y="6" width="0.3" height="0.09" fill="none" stroke="#111" stroke-width="1.6"/><rect x="6" y="6.9" width="0.3" height="0.08" fill="none" stroke="#111" stroke-width="1.6"/><rect x="6" y="7.79" width="0.3" height="0.09" fill="none" stroke="#111" stroke-width="1.6"/><rect x="6" y="8.69" width="0.3" height="0.08" fill="none" stroke="#111" stroke-width="1.6"/><rect x="6" y="9.58" width="0.3" height="0.09" fill="none" stroke="#111" stroke-width="1.6"/><rect x="6" y="10.48" width="0.3" height="0.08" fill="none" stroke="#111" stroke-width="1.6"/><rect x="6" y="11.37" width="0.3" height="0.09" fill="none" stroke="#111" stroke-width="1.6"/><rect x="6" y="12.27" width="0.3" height="0.08" fill="none" stroke="#111" stroke-width="1.6"/><rect x="6" y="13.16" width="0.3" height="0.09" fill="none" stroke="#111" stroke-width="1.6"/><rect x="6" y="14.06" width="0.3" height="0.08" fill="none" stroke="#111" stroke-width="1.6"/><rect x="6" y="14.95" width="0.3" height="0.09" fill="none" stroke="#111" stroke-width="1.6"/><rect x="6" y="15.85" width="0.3" height="0.08" fill="none" stroke="#111" stroke-width="1.6"/><rect x="6" y="16.74" width="0.3" height="0.09" fill="none" stroke="#111" stroke-width="1.6"/><rect x="6" y="17.64" width="0.3" height="0.08" fill="none" stroke="#111" stroke-width="1.6"/><rect x="6" y="18.53" width="0.3" height="0.09" fill="none" stroke="#111" stroke-width="1.6"/><rect x="6" y="19.43" width="0.3" height="0.08" fill="none" stroke="#111" stroke-width="1.6"/><rect x="6" y="20.32" width="0.3" height="0.09" fill="none" stroke="#111" stroke-width="1.6"/><rect x="6" y="21.22" width="0.3" height="0.08" fill="none" stroke="#111" stroke-width="1.6"/><rect x="6" y="22.11" width="0.3" height="0.09" fill="none" stroke="#111" stroke-width="1.6"/><rect x="6" y="23.01" width="0.3" height="0.08" fill="none" stroke="#111" stroke-width="1.6"/><rect x="6" y="23.9" width="0.3" height="0.09" fill="none" stroke="#111" stroke-width="1.6"/><rect x="6" y="24.8" width="0.3" height="0.08" fill="none" stroke="#111" stroke-width="1.6"/><rect x="6" y="25.69" width="0.3" height="0.09" fill="none" stroke="#111" stroke-width="1.6"/><rect x="6" y="26.59" width="0.3" height="0.08" fill="none" stroke="#111" stroke-width="1.6"/><rect x="6" y="27.48" width="0.3" height="0.09" fill="none" stroke="#111" stroke-width="1.6"/><rect x="6" y="28.38" width="0.3" height="0.08" fill="none" stroke="#111" stroke-width="1.6"/><rect x="6" y="29.27" width="0.3" height="0.09" fill="none" stroke="#111" stroke-width="1.6"/><rect x="6" y="30.17" width="0.3" height="0.08" fill="none" stroke="#111" stroke-width="1.6"/><rect x="6" y="31.06" width="0.3" height="0.09" fill="none" stroke="#111" stroke-width="1.6"/><rect x="6" y="31.96" width="0.3" height="0.08" fill="none" stroke="#111" stroke-width="1.6"/><rect x="6" y="32.85" width="0.3" height="0.09" fill="none" stroke="#111" stroke-width="1.6"/><rect x="6" y="33.75" width="0.3" height="0.08" fill="none" stroke="#111" stroke-width="1.6"/><rect x="6" y="34.64" width="0.3" height="0.09" fill="none" stroke="#111" stroke-width="1.6"/><rect x="6" y="35.54" width="0.3" height="0.08" fill="none" stroke="#111" stroke-width="1.6"/><rect x="6" y="36.43" width="0.3" height="0.09" fill="none" stroke="#111" stroke-width="1.6"/><rect x="6" y="37.33" width="0.3" height="0.08" fill="none" stroke="#111" stroke-width="1.6"/><rect x="6" y="38.22" width="0.3" height="0.09" fill="none" stroke="#111" stroke-width="1.6"/><rect x="6" y="39.12" width="0.3" height="0.08" fill="none" stroke="#111" stroke-width="1.6"/><rect x="6" y="40.01" width="0.3" height="0.09" fill="none" stroke="#111" stroke-width="1.6"/><rect x="6" y="40.91" width="0.3" height="0.08" fill="none" stroke="#111" stroke-width="1.6"/><rect x="6" y="41.8" width="0.3" height="0.09" fill="none" stroke="#111" stroke-width="1.6"/><rect x="6" y="42.7" width="0.3" height="0.08" fill="none" stroke="#111" stroke-width="1.6"/><rect x="6" y="43.59" width="0.3" height="0.09" fill="none" stroke="#111" stroke-width="1.6"/><rect x="6" y="44.49" width="0.3" height="0.08" fill="none" stroke="#111" stroke-width="1.6"/><rect x="6" y="45.38" width="0.3" height="0.09" fill="none" stroke="#111" stroke-width="1.6"/><rect x="6" y="46.28" width="0.3" height="0.08" fill="none" stroke="#111" stroke-width="1.6"/><rect x="6" y="47.17" width="0.3" height="0.09" fill="none" stroke="#111" stroke-width="1.6"/><rect x="6" y="48.07" width="0.3" height="0.08" fill="none" stroke="#111" stroke-width="1.6"/><rect x="6" y="48.96" width="0.3" height="0.09" fill="none" stroke="#111" stroke-width="1.6"/><rect x="6" y="49.86" width="0.3" height="0.08" fill="none" stroke="#111" stroke-width="1.6"/><rect x="6" y="50.75" width="0.3" height="0.09" fill="none" stroke="#111" stroke-width="1.6"/><rect x="6" y="51.65" width="0.3" height="0.08" fill="none" stroke="#111" stroke-width="1.6"/><rect x="6" y="52.54" width="0.3" height="0.09" fill="none" stroke="#111" stroke-width="1.6"/><rect x="6" y="53.44" width="0.3" height="0.08" fill="none" stroke="#111" stroke-width="1.6"/><rect x="6" y="54.33" width="0.3" height="0.09" fill="none" stroke="#111" stroke-width="1.6"/><rect x="6" y="55.23" width="0.3" height="0.08" fill="none" stroke="#111" stroke-width="1.6"/><rect x="6" y="56.12" width="0.3" height="0.09" fill="none" stroke="#111" stroke-width="1.6"/><rect x="6" y="57.02" width="0.3" height="0.08" fill="none" stroke="#111" stroke-width="1.6"/><rect x="6" y="57.91" width="0.3" height="0.09" fill="none" stroke="#111" stroke-width="1.6"/><polyline points="6.45,6.04 6.3,6.04" fill="none" stroke="#111" stroke-width="1.6" stroke-linecap="round" stroke-linejoin="round"/><polyline points="6.45,6.94 6.3,6.94" fill="none" stroke="#111" stroke-width="1.6" stroke-linecap="round" stroke-linejoin="round"/><polyline points="6.45,7.83 6.3,7.83" fill="none" stroke="#111" stroke-width="1.6" stroke-linecap="round" stroke-linejoin="round"/><polyline points="6.45,8.73 6.3,8.73" fill="none" stroke="#111" stroke-width="1.6" stroke-linecap="round" stroke-linejoin="round"/><polyline points="6.45,9.62 6.3,9.62" fill="none" stroke="#111" stroke-width="1.6" stroke-linecap="round" stroke-linejoin="round"/><polyline points="6.45,10.52 6.3,10.52" fill="none" stroke="#111" stroke-width="1.6" stroke-linecap="round" stroke-linejoin="round"/><polyline points="6.45,11.41 6.3,11.41" fill="none" stroke="#111" stroke-width="1.6" stroke-linecap="round" stroke-linejoin="round"/><polyline points="6.45,12.31 6.3,12.31" fill="none" stroke="#111" stroke-width="1.6" stroke-linecap="round" stroke-linejoin="round"/><polyline points="6.45,13.2 6.3,13.2" fill="none" stroke="#111" stroke-width="1.6" stroke-linecap="round" stroke-linejoin="round"/><polyline points="6.45,14.1 6.3,14.1" fill="none" stroke="#111" stroke-width="1.6" stroke-linecap="round" stroke-linejoin="round"/><polyline points="6.45,14.99 6.3,14.99" fill="none" stroke="#111" stroke-width="1.6" stroke-linecap="round" stroke-linejoin="round"/><polyline points="6.45,15.89 6.3,15.89" fill="none" stroke="#111" stroke-width="1.6" stroke-linecap="round" stroke-linejoin="round"/><polyline points="6.45,16.78 6.3,16.78" fill="none" stroke="#111" stroke-width="1.6" stroke-linecap="round" stroke-linejoin="round"/><polyline points="6.45,17.68 6.3,17.68" fill="none" stroke="#111" stroke-width="1.6" stroke-linecap="round" stroke-linejoin="round"/><polyline points="6.45,18.57 6.3,18.57" fill="none" stroke="#111" stroke-width="1.6" stroke-linecap="round" stroke-linejoin="round"/><polyline points="6.45,19.47 6.3,19.47" fill="none" stroke="#111" stroke-width="1.6" stroke-linecap="round" stroke-linejoin="round"/><polyline points="6.45,20.36 6.3,20.36" fill="none" stroke="#111" stroke-width="1.6" stroke-linecap="round" stroke-linejoin="round"/><polyline points="6.45,21.26 6.3,21.26" fill="none" stroke="#111" stroke-width="1.6" stroke-linecap="round" stroke-linejoin="round"/><polyline points="6.45,22.15 6.3,22.15" fill="none" stroke="#111" stroke-width="1.6" stroke-linecap="round" stroke-linejoin="round"/><polyline points="6.45,23.05 6.3,23.05" fill="none" stroke="#111" stroke-width="1.6" stroke-linecap="round" stroke-linejoin="round"/><polyline points="6.45,23.94 6.3,23.94" fill="none" stroke="#111" stroke-width="1.6" stroke-linecap="round" stroke-linejoin="round"/><polyline points="6.45,24.84 6.3,24.84" fill="none" stroke="#111" stroke-width="1.6" stroke-linecap="round" stroke-linejoin="round"/><polyline points="6.45,25.73 6.3,25.73" fill="none" stroke="#111" stroke-width="1.6" stroke-linecap="round" stroke-linejoin="round"/><polyline points="6.45,26.63 6.3,26.63" fill="none" stroke="#111" stroke-width="1.6" stroke-linecap="round" stroke-linejoin="round"/><polyline points="6.45,27.52 6.3,27.52" fill="none" stroke="#111" stroke-width="1.6" stroke-linecap="round" stroke-linejoin="round"/><polyline points="6.45,28.42 6.3,28.42" fill="none" stroke="#111" stroke-width="1.6" stroke-linecap="round" stroke-linejoin="round"/><polyline points="6.45,29.31 6.3,29.31" fill="none" stroke="#111" stroke-width="1.6" stroke-linecap="round" stroke-linejoin="round"/><polyline points="6.45,30.21 6.3,30.21" fill="none" stroke="#111" stroke-width="1.6" stroke-linecap="round" stroke-linejoin="round"/><polyline points="6.45,31.1 6.3,31.1" fill="none" stroke="#111" stroke-width="1.6" stroke-linecap="round" stroke-linejoin="round"/><polyline points="6.45,32 6.3,32" fill="none" stroke="#111" stroke-width="1.6" stroke-linecap="round" stroke-linejoin="round"/><polyline points="6.45,32.9 6.3,32.9" fill="none" stroke="#111" stroke-width="1.6" stroke-linecap="round" stroke-linejoin="round"/><polyline points="6.45,33.79 6.3,33.79" fill="none" stroke="#111" stroke-width="1.6" stroke-linecap="round" stroke-linejoin="round"/><polyline points="6.45,34.69 6.3,34.69" fill="none" stroke="#111" stroke-width="1.6" stroke-linecap="round" stroke-linejoin="round"/><polyline points="6.45,35.58 6.3,35.58" fill="none" stroke="#111" stroke-width="1.6" stroke-linecap="round" stroke-linejoin="round"/><polyline points="6.45,36.48 6.3,36.48" fill="none" stroke="#111" stroke-width="1.6" stroke-linecap="round" stroke-linejoin="round"/><polyline points="6.45,37.37 6.3,37.37" fill="none" stroke="#111" stroke-width="1.6" stroke-linecap="round" stroke-linejoin="round"/><polyline points="6.45,38.27 6.3,38.27" fill="none" stroke="#111" stroke-width="1.6" stroke-linecap="round" stroke-linejoin="round"/><polyline points="6.45,39.16 6.3,39.16" fill="none" stroke="#111" stroke-width="1.6" stroke-linecap="round" stroke-linejoin="round"/><polyline points="6.45,40.06 6.3,40.06" fill="none" stroke="#111" stroke-width="1.6" stroke-linecap="round" stroke-linejoin="round"/><polyline points="6.45,40.95 6.3,40.95" fill="none" stroke="#111" stroke-width="1.6" stroke-linecap="round" stroke-linejoin="round"/><polyline points="6.45,41.85 6.3,41.85" fill="none" stroke="#111" stroke-width="1.6" stroke-linecap="round" stroke-linejoin="round"/><polyline points="6.45,42.74 6.3,42.74" fill="none" stroke="#111" stroke-width="1.6" stroke-linecap="round" stroke-linejoin="round"/><polyline points="6.45,43.64 6.3,43.64" fill="none" stroke="#111" stroke-width="1.6" stroke-linecap="round" stroke-linejoin="round"/><polyline points="6.45,44.53 6.3,44.53" fill="none" stroke="#111" stroke-width="1.6" stroke-linecap="round" stroke-linejoin="round"/><polyline points="6.45,45.43 6.3,45.43" fill="none" stroke="#111" stroke-width="1.6" stroke-linecap="round" stroke-linejoin="round"/><polyline points="6.45,46.32 6.3,46.32" fill="none" stroke="#111" stroke-width="1.6" stroke-linecap="round" stroke-linejoin="round"/><polyline points="6.45,47.22 6.3,47.22" fill="none" stroke="#111" stroke-width="1.6" stroke-linecap="round" stroke-linejoin="round"/><polyline points="6.45,48.11 6.3,48.11" fill="none" stroke="#111" stroke-width="1.6" stroke-linecap="round" stroke-linejoin="round"/><polyline points="6.45,49.01 6.3,49.01" fill="none" stroke="#111" stroke-width="1.6" stroke-linecap="round" stroke-linejoin="round"/><polyline points="6.45,49.9 6.3,49.9" fill="none" stroke="#111" stroke-width="1.6" stroke-linecap="round" stroke-linejoin="round"/><polyline points="6.45,50.8 6.3,50.8" fill="none" stroke="#111" stroke-width="1.6" stroke-linecap="round" stroke-linejoin="round"/><polyline points="6.45,51.69 6.3,51.69" fill="none" stroke="#111" stroke-width="1.6" stroke-linecap="round" stroke-linejoin="round"/><polyline points="6.45,52.59 6.3,52.59" fill="none" stroke="#111" stroke-width="1.6" stroke-linecap="round" stroke-linejoin="round"/><polyline points="6.45,53.48 6.3,53.48" fill="none" stroke="#111" stroke-width="1.6" stroke-linecap="round" stroke-linejoin="round"/><polyline points="6.45,54.38 6.3,54.38" fill="none" stroke="#111" stroke-width="1.6" stroke-linecap="round" stroke-linejoin="round"/><polyline points="6.45,55.27 6.3,55.27" fill="none" stroke="#111" stroke-width="1.6" stroke-linecap="round" stroke-linejoin="round"/><polyline points="6.45,56.17 6.3,56.17" fill="none" stroke="#111" stroke-width="1.6" stroke-linecap="round" stroke-linejoin="round"/><polyline points="6.45,57.06 6.3,57.06" fill="none" stroke="#111" stroke-width="1.6" stroke-linecap="round" stroke-linejoin="round"/><polyline points="6.45,57.96 6.3,57.96" fill="none" stroke="#111" stroke-width="1.6" stroke-linecap="round" stroke-linejoin="round"/></svg>