<svg xmlns="http://www.w3.org/2000/svg" width="96" height="64" viewBox="0 0 96 64"><rect x="6" y="6" width="34.67" height="52" fill="none" stroke="#111" stroke-width="1.6"/><polyline points="7.3,12.07 7.3,12.93 8.17,15.53 8.17,16.4 17.7,16.4 17.7,15.53 18.57,12.93 18.57,12.07 7.3,12.07" fill="none" stroke="#111" stroke-width="1.6" stroke-linecap="round" stroke-linejoin="round"/><polyline points="8.6,12.93 17.27,12.93 16.4,15.53 9.47,15.53 8.6,12.93" fill="none" stroke="#111" stroke-width="1.6" stroke-linecap="round" stroke-linejoin="round"/><circle cx="10.33" cy="24.63" r="2.17" fill="none" stroke="#111" stroke-width="1.6"/><polyline points="12.5,24.63 14.67,24.63 19,20.3 21.17,20.3" fill="none" stroke="#111" stroke-width="1.6" stroke-linecap="round" stroke-linejoin="round"/><polyline points="14.67,24.63 16.83,24.63 19,28.97 23.33,28.97" fill="none" stroke="#111" stroke-width="1.6" stroke-linecap="round" stroke-linejoin="round"/><polyline points="16.83,24.63 25.5,24.63" fill="none" stroke="#111" stroke-width="1.6" stroke-linecap="round" stroke-linejoin="round"/><circle cx="21.17" cy="20.3" r="1.3" fill="none" stroke="#111" stroke-width="1.6"/><rect x="22.9" y="55.4" width="0.87" height="2.6" fill="none" stroke="#111" stroke-width="1.6"/><rect x="21.6" y="27.67" width="2.6" height="2.6" fill="none" stroke="#111" stroke-width="1.6"/><polyline points="25.5,22.47 25.5,26.8 29.83,24.63 25.5,22.47" fill="none" stroke="#111" stroke-width="1.6" stroke-linecap="round" stroke-linejoin="round"/><rect x="38.07" y="14.23" width="2.6" height="0.87" fill="none" stroke="#111" stroke-width="1.6"/><rect x="38.07" y="31.57" width="2.6" height="0.86" fill="none" stroke="#111" stroke-width="1.6"/><rect x="38.07" y="40.23" width="2.6" height="0.87" fill="none" stroke="#111" stroke-width="1.6"/><rect x="38.07" y="48.9" width="2.6" height="0.87" fill="none" stroke="#111" stroke-width="1.6"/></svg>