<svg xmlns="http://www.w3.org/2000/svg" width="96" height="64" viewBox="0 0 96 64"><polyline points="30.05,36.55 33.3,36.55 31.35,39.15 29.4,36.55" fill="none" stroke="#111" stroke-width="1.6" stroke-linecap="round" stroke-linejoin="round"/><path d="M 31.35 25.5 Q 34.59 28.75 31.35 32" fill="none" stroke="#111" stroke-width="1.6" stroke-linecap="round"/><polyline points="31.35,19 31.35,25.5" fill="none" stroke="#111" stroke-width="1.6" stroke-linecap="round" stroke-linejoin="round"/><polyline points="31.35,32 31.35,45" fill="none" stroke="#111" stroke-width="1.6" stroke-linecap="round" stroke-linejoin="round"/><polyline points="37.85,41.1 43.05,41.1" fill="none" stroke="#111" stroke-width="1.6" stroke-linecap="round" stroke-linejoin="round"/><polyline points="40.45,23.55 67.1,23.55" fill="none" stroke="#111" stroke-width="1.6" stroke-linecap="round" stroke-linejoin="round"/><polyline points="40.45,37.85 40.45,35.9" fill="none" stroke="#111" stroke-width="1.6" stroke-linecap="round" stroke-linejoin="round"/><circle cx="40.45" cy="41.1" r="2.86" fill="none" stroke="#111" stroke-width="1.6"/><polyline points="40.45,44.35 40.45,47.6" fill="none" stroke="#111" stroke-width="1.6" stroke-linecap="round" stroke-linejoin="round"/><path d="M 40.45 32.65 Q 39.16 31.35 40.45 30.05" fill="none" stroke="#111" stroke-width="1.6" stroke-linecap="round"/><path d="M 40.45 26.8 Q 38.89 25.18 40.45 23.55" fill="none" stroke="#111" stroke-width="1.6" stroke-linecap="round"/><path d="M 40.45 30.05 Q 38.89 28.42 40.45 26.8" fill="none" stroke="#111" stroke-width="1.6" stroke-linecap="round"/><path d="M 40.45 35.9 Q 38.89 34.27 40.45 32.65" fill="none" stroke="#111" stroke-width="1.6" stroke-linecap="round"/><polyline points="61.9,23.55 59.95,21.6 59.95,25.5 61.9,23.55" fill="none" stroke="#111" stroke-width="1.6" stroke-linecap="round" stroke-linejoin="round"/><rect x="6" y="6" width="78" height="52" fill="none" stroke="#111" stroke-width="1.6"/></svg>