<svg xmlns="http://www.w3.org/2000/svg" width="96" height="64" viewBox="0 0 96 64"><polyline points="6,56.4 90,56.4 90,6 22.8,6 22.8,39.6 14.4,39.6 14.4,6 6,6 6,56.4" fill="none" stroke="#111" stroke-width="1.6" stroke-linecap="round" stroke-linejoin="round"/><polyline points="8.6,27 12.8,27 10.7,31.2 8.6,27" fill="none" stroke="#111" stroke-width="1.6" stroke-linecap="round" stroke-linejoin="round"/><polyline points="8.6,31.2 12.8,31.2" fill="none" stroke="#111" stroke-width="1.6" stroke-linecap="round" stroke-linejoin="round"/><polyline points="10.7,43.8 10.7,20.7" fill="none" stroke="#111" stroke-width="1.6" stroke-linecap="round" stroke-linejoin="round"/><polyline points="17.09,27.42 22.13,27.42 20.78,26.75" fill="none" stroke="#111" stroke-width="1.6" stroke-linecap="round" stroke-linejoin="round"/><polyline points="17.09,31.62 22.13,31.62 20.78,30.95" fill="none" stroke="#111" stroke-width="1.6" stroke-linecap="round" stroke-linejoin="round"/><polyline points="20.78,26.75 20.78,28.09 22.13,27.42" fill="none" stroke="#111" stroke-width="1.6" stroke-linecap="round" stroke-linejoin="round"/><polyline points="20.78,30.95 20.78,32.29 22.13,31.62" fill="none" stroke="#111" stroke-width="1.6" stroke-linecap="round" stroke-linejoin="round"/><polyline points="24.9,27.42 29.1,27.42" fill="none" stroke="#111" stroke-width="1.6" stroke-linecap="round" stroke-linejoin="round"/><polyline points="24.9,31.62 29.1,31.62 27,27.42 24.9,31.62" fill="none" stroke="#111" stroke-width="1.6" stroke-linecap="round" stroke-linejoin="round"/><polyline points="27,27.42 27,25.32 33.3,25.32" fill="none" stroke="#111" stroke-width="1.6" stroke-linecap="round" stroke-linejoin="round"/><polyline points="27,31.62 27,33.72 33.3,33.72" fill="none" stroke="#111" stroke-width="1.6" stroke-linecap="round" stroke-linejoin="round"/><polyline points="33.3,23.22 33.3,35.82 43.8,29.52 33.3,23.22" fill="none" stroke="#111" stroke-width="1.6" stroke-linecap="round" stroke-linejoin="round"/><polyline points="38.34,23.64 52.2,23.64" fill="none" stroke="#111" stroke-width="1.6" stroke-linecap="round" stroke-linejoin="round"/><polyline points="38.34,26.16 38.34,23.64" fill="none" stroke="#111" stroke-width="1.6" stroke-linecap="round" stroke-linejoin="round"/><polyline points="43.8,29.52 48,29.52" fill="none" stroke="#111" stroke-width="1.6" stroke-linecap="round" stroke-linejoin="round"/><polyline points="47.66,39.52 47.66,38.09" fill="none" stroke="#111" stroke-width="1.6" stroke-linecap="round" stroke-linejoin="round"/><polyline points="48,25.32 56.4,25.32" fill="none" stroke="#111" stroke-width="1.6" stroke-linecap="round" stroke-linejoin="round"/><polyline points="48,25.32 48,33.72 56.4,33.72" fill="none" stroke="#111" stroke-width="1.6" stroke-linecap="round" stroke-linejoin="round"/><polyline points="48.08,23.56 48.08,22.21" fill="none" stroke="#111" stroke-width="1.6" stroke-linecap="round" stroke-linejoin="round"/><polyline points="50.1,31.62 54.3,31.62 54.3,27.42 56.4,27.42" fill="none" stroke="#111" stroke-width="1.6" stroke-linecap="round" stroke-linejoin="round"/><polyline points="52.2,24.82 52.2,23.64" fill="none" stroke="#111" stroke-width="1.6" stroke-linecap="round" stroke-linejoin="round"/><polyline points="52.2,33.72 52.2,37.92 64.8,37.92 64.8,31.62" fill="none" stroke="#111" stroke-width="1.6" stroke-linecap="round" stroke-linejoin="round"/><polyline points="52.2,37.92 38.34,37.92 38.34,32.88" fill="none" stroke="#111" stroke-width="1.6" stroke-linecap="round" stroke-linejoin="round"/><polyline points="54.3,27.42 52.2,27.42 52.2,31.62" fill="none" stroke="#111" stroke-width="1.6" stroke-linecap="round" stroke-linejoin="round"/><path d="M 56.4 25.32 Q 59 29.52 56.4 33.72" fill="none" stroke="#111" stroke-width="1.6" stroke-linecap="round"/><polyline points="58.5,29.52 62.7,29.52" fill="none" stroke="#111" stroke-width="1.6" stroke-linecap="round" stroke-linejoin="round"/><polyline points="62.7,27.42 62.7,31.62" fill="none" stroke="#111" stroke-width="1.6" stroke-linecap="round" stroke-linejoin="round"/><polyline points="62.7,29.52 64.8,27.42" fill="none" stroke="#111" stroke-width="1.6" stroke-linecap="round" stroke-linejoin="round"/><polyline points="62.7,29.52 64.8,31.62" fill="none" stroke="#111" stroke-width="1.6" stroke-linecap="round" stroke-linejoin="round"/><polyline points="64.8,27.42 64.8,22.38 69,22.38" fill="none" stroke="#111" stroke-width="1.6" stroke-linecap="round" stroke-linejoin="round"/><polyline points="64.8,31.62 63.96,31.45 64.63,30.78 64.8,31.62" fill="none" stroke="#111" stroke-width="1.6" stroke-linecap="round" stroke-linejoin="round"/></svg>