<svg xmlns="http://www.w3.org/2000/svg" width="96" height="64" viewBox="0 0 96 64"><polyline points="6,32 9.71,32" fill="none" stroke="#111" stroke-width="1.6" stroke-linecap="round" stroke-linejoin="round"/><circle cx="11.57" cy="32" r="1.86" fill="none" stroke="#111" stroke-width="1.6"/><polyline points="12.24,30.22 16.55,15.21" fill="none" stroke="#111" stroke-width="1.6" stroke-linecap="round" stroke-linejoin="round"/><path d="M 18.07 25.5 Q 21.31 30.69 19.93 36.64" fill="none" stroke="#111" stroke-width="1.6" stroke-linecap="round"/><circle cx="17.14" cy="13.43" r="1.86" fill="none" stroke="#111" stroke-width="1.6"/><circle cx="17.14" cy="50.57" r="1.86" fill="none" stroke="#111" stroke-width="1.6"/><polyline points="19.93,36.64 19.93,34.04" fill="none" stroke="#111" stroke-width="1.6" stroke-linecap="round" stroke-linejoin="round"/><polyline points="19.93,36.64 19.93,36.64" fill="none" stroke="#111" stroke-width="1.6" stroke-linecap="round" stroke-linejoin="round"/><polyline points="19.93,36.64 22.16,35.16" fill="none" stroke="#111" stroke-width="1.6" stroke-linecap="round" stroke-linejoin="round"/><circle cx="22.71" cy="19" r="1.86" fill="none" stroke="#111" stroke-width="1.6"/><circle cx="22.71" cy="45" r="1.86" fill="none" stroke="#111" stroke-width="1.6"/><circle cx="28.29" cy="24.57" r="1.86" fill="none" stroke="#111" stroke-width="1.6"/><circle cx="28.29" cy="39.43" r="1.86" fill="none" stroke="#111" stroke-width="1.6"/><circle cx="30.14" cy="32" r="1.86" fill="none" stroke="#111" stroke-width="1.6"/><polyline points="35.71,9.71 17.14,9.71 17.14,9.71 17.14,11.57" fill="none" stroke="#111" stroke-width="1.6" stroke-linecap="round" stroke-linejoin="round"/><polyline points="35.71,17.14 28.29,17.14 28.29,19 24.57,19" fill="none" stroke="#111" stroke-width="1.6" stroke-linecap="round" stroke-linejoin="round"/><polyline points="35.71,24.57 30.14,24.57" fill="none" stroke="#111" stroke-width="1.6" stroke-linecap="round" stroke-linejoin="round"/><polyline points="35.71,32 32,32" fill="none" stroke="#111" stroke-width="1.6" stroke-linecap="round" stroke-linejoin="round"/><polyline points="35.71,39.43 30.14,39.43" fill="none" stroke="#111" stroke-width="1.6" stroke-linecap="round" stroke-linejoin="round"/><polyline points="35.71,46.86 28.29,46.86 28.29,45 24.57,45" fill="none" stroke="#111" stroke-width="1.6" stroke-linecap="round" stroke-linejoin="round"/><polyline points="35.71,54.29 17.14,54.29 17.14,54.29 17.14,52.43" fill="none" stroke="#111" stroke-width="1.6" stroke-linecap="round" stroke-linejoin="round"/><polyline points="6,6 35.71,6 35.71,58 6,58 6,6 6,6" fill="none" stroke="#111" stroke-width="1.6" stroke-linecap="round" stroke-linejoin="round"/></svg>