<svg xmlns="http://www.w3.org/2000/svg" width="96" height="64" viewBox="0 0 96 64"><polyline points="6,32 13.8,32" fill="none" stroke="#111" stroke-width="1.6" stroke-linecap="round" stroke-linejoin="round"/><circle cx="13.8" cy="32" r="2.6" fill="none" stroke="#111" stroke-width="1.6"/><polyline points="13.8,32 29.4,13.8" fill="none" stroke="#111" stroke-width="1.6" stroke-linecap="round" stroke-linejoin="round"/><path d="M 22.9 22.9 Q 27.43 30.16 25.5 38.5" fill="none" stroke="#111" stroke-width="1.6" stroke-linecap="round"/><polyline points="25.5,38.5 25.5,34.86" fill="none" stroke="#111" stroke-width="1.6" stroke-linecap="round" stroke-linejoin="round"/><polyline points="25.5,38.5 25.5,38.5" fill="none" stroke="#111" stroke-width="1.6" stroke-linecap="round" stroke-linejoin="round"/><polyline points="25.5,38.5 28.62,36.42" fill="none" stroke="#111" stroke-width="1.6" stroke-linecap="round" stroke-linejoin="round"/><polyline points="28.1,38.5 28.1,38.5" fill="none" stroke="#111" stroke-width="1.6" stroke-linecap="round" stroke-linejoin="round"/><circle cx="29.4" cy="13.8" r="2.6" fill="none" stroke="#111" stroke-width="1.6"/><circle cx="37.2" cy="21.6" r="2.6" fill="none" stroke="#111" stroke-width="1.6"/><circle cx="37.2" cy="42.4" r="2.6" fill="none" stroke="#111" stroke-width="1.6"/><circle cx="39.8" cy="32" r="2.6" fill="none" stroke="#111" stroke-width="1.6"/><polyline points="47.6,11.2 37.2,11.2 37.2,13.8 32,13.8" fill="none" stroke="#111" stroke-width="1.6" stroke-linecap="round" stroke-linejoin="round"/><polyline points="47.6,21.6 39.8,21.6" fill="none" stroke="#111" stroke-width="1.6" stroke-linecap="round" stroke-linejoin="round"/><polyline points="47.6,32 42.4,32" fill="none" stroke="#111" stroke-width="1.6" stroke-linecap="round" stroke-linejoin="round"/><polyline points="47.6,42.4 39.8,42.4" fill="none" stroke="#111" stroke-width="1.6" stroke-linecap="round" stroke-linejoin="round"/><polyline points="6,6 47.6,6 47.6,58 6,58 6,6 6,6" fill="none" stroke="#111" stroke-width="1.6" stroke-linecap="round" stroke-linejoin="round"/></svg>