<svg xmlns="http://www.w3.org/2000/svg" width="96" height="64" viewBox="0 0 96 64"><polyline points="6.45,14.59 8.26,14.59 10.07,10.97 10.97,10.97 9.17,10.97 7.36,14.59 7.36,14.59" fill="none" stroke="#111" stroke-width="1.6" stroke-linecap="round" stroke-linejoin="round"/><rect x="6" y="17.3" width="22.61" height="9.05" fill="none" stroke="#111" stroke-width="1.6"/><rect x="6" y="26.35" width="22.61" height="4.52" fill="none" stroke="#111" stroke-width="1.6"/><rect x="6" y="30.87" width="22.61" height="4.52" fill="none" stroke="#111" stroke-width="1.6"/><rect x="6" y="35.39" width="22.61" height="4.52" fill="none" stroke="#111" stroke-width="1.6"/><rect x="6" y="39.91" width="22.61" height="4.52" fill="none" stroke="#111" stroke-width="1.6"/><rect x="6" y="44.43" width="22.61" height="4.53" fill="none" stroke="#111" stroke-width="1.6"/><rect x="6" y="48.96" width="22.61" height="4.52" fill="none" stroke="#111" stroke-width="1.6"/><rect x="6" y="53.48" width="22.61" height="4.52" fill="none" stroke="#111" stroke-width="1.6"/><polyline points="8.26,17.3 8.26,15.04 6,15.04 6,6 28.61,6 28.61,15.04 26.35,15.04 26.35,17.3 26.35,17.3" fill="none" stroke="#111" stroke-width="1.6" stroke-linecap="round" stroke-linejoin="round"/><polyline points="11.88,8.26 13.69,10.07 11.88,11.88 11.88,11.88" fill="none" stroke="#111" stroke-width="1.6" stroke-linecap="round" stroke-linejoin="round"/><polyline points="11.88,12.78 13.69,10.97 13.69,10.97" fill="none" stroke="#111" stroke-width="1.6" stroke-linecap="round" stroke-linejoin="round"/><polyline points="17.3,6 17.3,15.04 8.26,15.04 8.26,15.04" fill="none" stroke="#111" stroke-width="1.6" stroke-linecap="round" stroke-linejoin="round"/><polyline points="17.3,8.26 19.57,10.52 17.3,12.78 17.3,12.78" fill="none" stroke="#111" stroke-width="1.6" stroke-linecap="round" stroke-linejoin="round"/></svg>