<svg xmlns="http://www.w3.org/2000/svg" width="96" height="64" viewBox="0 0 96 64"><rect x="6" y="6.53" width="84" height="19.94" fill="none" stroke="#111" stroke-width="1.6"/><rect x="8.62" y="8.62" width="5.25" height="15.76" fill="none" stroke="#111" stroke-width="1.6"/><polyline points="11.25,8.62 11.25,6" fill="none" stroke="#111" stroke-width="1.6" stroke-linecap="round" stroke-linejoin="round"/><polyline points="11.25,27 11.25,24.38" fill="none" stroke="#111" stroke-width="1.6" stroke-linecap="round" stroke-linejoin="round"/><rect x="19.12" y="8.62" width="5.25" height="15.76" fill="none" stroke="#111" stroke-width="1.6"/><polyline points="21.75,8.62 21.75,6" fill="none" stroke="#111" stroke-width="1.6" stroke-linecap="round" stroke-linejoin="round"/><polyline points="21.75,27 21.75,24.38" fill="none" stroke="#111" stroke-width="1.6" stroke-linecap="round" stroke-linejoin="round"/><rect x="29.62" y="8.62" width="5.26" height="15.76" fill="none" stroke="#111" stroke-width="1.6"/><polyline points="32.25,8.62 32.25,6" fill="none" stroke="#111" stroke-width="1.6" stroke-linecap="round" stroke-linejoin="round"/><polyline points="32.25,27 32.25,24.38" fill="none" stroke="#111" stroke-width="1.6" stroke-linecap="round" stroke-linejoin="round"/><rect x="40.12" y="8.62" width="5.26" height="15.76" fill="none" stroke="#111" stroke-width="1.6"/><polyline points="42.75,8.62 42.75,6" fill="none" stroke="#111" stroke-width="1.6" stroke-linecap="round" stroke-linejoin="round"/><polyline points="42.75,27 42.75,24.38" fill="none" stroke="#111" stroke-width="1.6" stroke-linecap="round" stroke-linejoin="round"/><rect x="50.62" y="8.62" width="5.25" height="15.76" fill="none" stroke="#111" stroke-width="1.6"/><polyline points="53.25,8.62 53.25,6" fill="none" stroke="#111" stroke-width="1.6" stroke-linecap="round" stroke-linejoin="round"/><polyline points="53.25,27 53.25,24.38" fill="none" stroke="#111" stroke-width="1.6" stroke-linecap="round" stroke-linejoin="round"/><rect x="61.12" y="8.62" width="5.26" height="15.76" fill="none" stroke="#111" stroke-width="1.6"/><polyline points="63.75,8.62 63.75,6" fill="none" stroke="#111" stroke-width="1.6" stroke-linecap="round" stroke-linejoin="round"/><polyline points="63.75,27 63.75,24.38" fill="none" stroke="#111" stroke-width="1.6" stroke-linecap="round" stroke-linejoin="round"/><rect x="71.62" y="8.62" width="5.26" height="15.76" fill="none" stroke="#111" stroke-width="1.6"/><polyline points="74.25,8.62 74.25,6" fill="none" stroke="#111" stroke-width="1.6" stroke-linecap="round" stroke-linejoin="round"/><polyline points="74.25,27 74.25,24.38" fill="none" stroke="#111" stroke-width="1.6" stroke-linecap="round" stroke-linejoin="round"/><rect x="82.12" y="8.62" width="5.26" height="15.76" fill="none" stroke="#111" stroke-width="1.6"/><polyline points="84.75,8.62 84.75,6" fill="none" stroke="#111" stroke-width="1.6" stroke-linecap="round" stroke-linejoin="round"/><polyline points="84.75,27 84.75,24.38" fill="none" stroke="#111" stroke-width="1.6" stroke-linecap="round" stroke-linejoin="round"/></svg>