<svg xmlns="http://www.w3.org/2000/svg" width="96" height="64" viewBox="0 0 96 64"><rect x="6" y="6" width="0.39" height="0.12" fill="none" stroke="#111" stroke-width="1.6"/><rect x="6" y="7.15" width="0.39" height="0.12" fill="none" stroke="#111" stroke-width="1.6"/><rect x="6" y="8.31" width="0.39" height="0.11" fill="none" stroke="#111" stroke-width="1.6"/><rect x="6" y="9.46" width="0.39" height="0.11" fill="none" stroke="#111" stroke-width="1.6"/><rect x="6" y="10.61" width="0.39" height="0.12" fill="none" stroke="#111" stroke-width="1.6"/><rect x="6" y="11.76" width="0.39" height="0.12" fill="none" stroke="#111" stroke-width="1.6"/><rect x="6" y="12.92" width="0.39" height="0.11" fill="none" stroke="#111" stroke-width="1.6"/><rect x="6" y="14.07" width="0.39" height="0.12" fill="none" stroke="#111" stroke-width="1.6"/><rect x="6" y="15.22" width="0.39" height="0.12" fill="none" stroke="#111" stroke-width="1.6"/><rect x="6" y="16.38" width="0.39" height="0.11" fill="none" stroke="#111" stroke-width="1.6"/><rect x="6" y="17.53" width="0.39" height="0.12" fill="none" stroke="#111" stroke-width="1.6"/><rect x="6" y="18.68" width="0.39" height="0.12" fill="none" stroke="#111" stroke-width="1.6"/><rect x="6" y="19.84" width="0.39" height="0.11" fill="none" stroke="#111" stroke-width="1.6"/><rect x="6" y="20.99" width="0.39" height="0.11" fill="none" stroke="#111" stroke-width="1.6"/><rect x="6" y="22.14" width="0.39" height="0.12" fill="none" stroke="#111" stroke-width="1.6"/><rect x="6" y="23.29" width="0.39" height="0.12" fill="none" stroke="#111" stroke-width="1.6"/><rect x="6" y="24.45" width="0.39" height="0.11" fill="none" stroke="#111" stroke-width="1.6"/><rect x="6" y="25.6" width="0.39" height="0.12" fill="none" stroke="#111" stroke-width="1.6"/><rect x="6" y="26.75" width="0.39" height="0.12" fill="none" stroke="#111" stroke-width="1.6"/><rect x="6" y="27.91" width="0.39" height="0.11" fill="none" stroke="#111" stroke-width="1.6"/><rect x="6" y="29.06" width="0.39" height="0.12" fill="none" stroke="#111" stroke-width="1.6"/><rect x="6" y="30.21" width="0.39" height="0.12" fill="none" stroke="#111" stroke-width="1.6"/><rect x="6" y="31.37" width="0.39" height="0.11" fill="none" stroke="#111" stroke-width="1.6"/><rect x="6" y="32.52" width="0.39" height="0.11" fill="none" stroke="#111" stroke-width="1.6"/><rect x="6" y="33.67" width="0.39" height="0.12" fill="none" stroke="#111" stroke-width="1.6"/><rect x="6" y="34.82" width="0.39" height="0.12" fill="none" stroke="#111" stroke-width="1.6"/><rect x="6" y="35.98" width="0.39" height="0.11" fill="none" stroke="#111" stroke-width="1.6"/><rect x="6" y="37.13" width="0.39" height="0.12" fill="none" stroke="#111" stroke-width="1.6"/><rect x="6" y="38.28" width="0.39" height="0.12" fill="none" stroke="#111" stroke-width="1.6"/><rect x="6" y="39.44" width="0.39" height="0.11" fill="none" stroke="#111" stroke-width="1.6"/><rect x="6" y="40.59" width="0.39" height="0.12" fill="none" stroke="#111" stroke-width="1.6"/><rect x="6" y="41.74" width="0.39" height="0.12" fill="none" stroke="#111" stroke-width="1.6"/><rect x="6" y="42.9" width="0.39" height="0.11" fill="none" stroke="#111" stroke-width="1.6"/><rect x="6" y="44.05" width="0.39" height="0.11" fill="none" stroke="#111" stroke-width="1.6"/><rect x="6" y="45.2" width="0.39" height="0.12" fill="none" stroke="#111" stroke-width="1.6"/><rect x="6" y="46.35" width="0.39" height="0.12" fill="none" stroke="#111" stroke-width="1.6"/><rect x="6" y="47.51" width="0.39" height="0.11" fill="none" stroke="#111" stroke-width="1.6"/><rect x="6" y="48.66" width="0.39" height="0.12" fill="none" stroke="#111" stroke-width="1.6"/><rect x="6" y="49.81" width="0.39" height="0.12" fill="none" stroke="#111" stroke-width="1.6"/><rect x="6" y="50.97" width="0.39" height="0.11" fill="none" stroke="#111" stroke-width="1.6"/><rect x="6" y="52.12" width="0.39" height="0.12" fill="none" stroke="#111" stroke-width="1.6"/><rect x="6" y="53.27" width="0.39" height="0.12" fill="none" stroke="#111" stroke-width="1.6"/><rect x="6" y="54.43" width="0.39" height="0.11" fill="none" stroke="#111" stroke-width="1.6"/><rect x="6" y="55.58" width="0.39" height="0.11" fill="none" stroke="#111" stroke-width="1.6"/><rect x="6" y="56.73" width="0.39" height="0.12" fill="none" stroke="#111" stroke-width="1.6"/><rect x="6" y="57.88" width="0.39" height="0.12" fill="none" stroke="#111" stroke-width="1.6"/><polyline points="6.58,6.06 6.39,6.06" fill="none" stroke="#111" stroke-width="1.6" stroke-linecap="round" stroke-linejoin="round"/><polyline points="6.58,7.21 6.39,7.21" fill="none" stroke="#111" stroke-width="1.6" stroke-linecap="round" stroke-linejoin="round"/><polyline points="6.58,8.36 6.39,8.36" fill="none" stroke="#111" stroke-width="1.6" stroke-linecap="round" stroke-linejoin="round"/><polyline points="6.58,9.52 6.39,9.52" fill="none" stroke="#111" stroke-width="1.6" stroke-linecap="round" stroke-linejoin="round"/><polyline points="6.58,10.67 6.39,10.67" fill="none" stroke="#111" stroke-width="1.6" stroke-linecap="round" stroke-linejoin="round"/><polyline points="6.58,11.82 6.39,11.82" fill="none" stroke="#111" stroke-width="1.6" stroke-linecap="round" stroke-linejoin="round"/><polyline points="6.58,12.98 6.39,12.98" fill="none" stroke="#111" stroke-width="1.6" stroke-linecap="round" stroke-linejoin="round"/><polyline points="6.58,14.13 6.39,14.13" fill="none" stroke="#111" stroke-width="1.6" stroke-linecap="round" stroke-linejoin="round"/><polyline points="6.58,15.28 6.39,15.28" fill="none" stroke="#111" stroke-width="1.6" stroke-linecap="round" stroke-linejoin="round"/><polyline points="6.58,16.43 6.39,16.43" fill="none" stroke="#111" stroke-width="1.6" stroke-linecap="round" stroke-linejoin="round"/><polyline points="6.58,17.59 6.39,17.59" fill="none" stroke="#111" stroke-width="1.6" stroke-linecap="round" stroke-linejoin="round"/><polyline points="6.58,18.74 6.39,18.74" fill="none" stroke="#111" stroke-width="1.6" stroke-linecap="round" stroke-linejoin="round"/><polyline points="6.58,19.89 6.39,19.89" fill="none" stroke="#111" stroke-width="1.6" stroke-linecap="round" stroke-linejoin="round"/><polyline points="6.58,21.05 6.39,21.05" fill="none" stroke="#111" stroke-width="1.6" stroke-linecap="round" stroke-linejoin="round"/><polyline points="6.58,22.2 6.39,22.2" fill="none" stroke="#111" stroke-width="1.6" stroke-linecap="round" stroke-linejoin="round"/><polyline points="6.58,23.35 6.39,23.35" fill="none" stroke="#111" stroke-width="1.6" stroke-linecap="round" stroke-linejoin="round"/><polyline points="6.58,24.51 6.39,24.51" fill="none" stroke="#111" stroke-width="1.6" stroke-linecap="round" stroke-linejoin="round"/><polyline points="6.58,25.66 6.39,25.66" fill="none" stroke="#111" stroke-width="1.6" stroke-linecap="round" stroke-linejoin="round"/><polyline points="6.58,26.81 6.39,26.81" fill="none" stroke="#111" stroke-width="1.6" stroke-linecap="round" stroke-linejoin="round"/><polyline points="6.58,27.96 6.39,27.96" fill="none" stroke="#111" stroke-width="1.6" stroke-linecap="round" stroke-linejoin="round"/><polyline points="6.58,29.12 6.39,29.12" fill="none" stroke="#111" stroke-width="1.6" stroke-linecap="round" stroke-linejoin="round"/><polyline points="6.58,30.27 6.39,30.27" fill="none" stroke="#111" stroke-width="1.6" stroke-linecap="round" stroke-linejoin="round"/><polyline points="6.58,31.42 6.39,31.42" fill="none" stroke="#111" stroke-width="1.6" stroke-linecap="round" stroke-linejoin="round"/><polyline points="6.58,32.58 6.39,32.58" fill="none" stroke="#111" stroke-width="1.6" stroke-linecap="round" stroke-linejoin="round"/><polyline points="6.58,33.73 6.39,33.73" fill="none" stroke="#111" stroke-width="1.6" stroke-linecap="round" stroke-linejoin="round"/><polyline points="6.58,34.88 6.39,34.88" fill="none" stroke="#111" stroke-width="1.6" stroke-linecap="round" stroke-linejoin="round"/><polyline points="6.58,36.04 6.39,36.04" fill="none" stroke="#111" stroke-width="1.6" stroke-linecap="round" stroke-linejoin="round"/><polyline points="6.58,37.19 6.39,37.19" fill="none" stroke="#111" stroke-width="1.6" stroke-linecap="round" stroke-linejoin="round"/><polyline points="6.58,38.34 6.39,38.34" fill="none" stroke="#111" stroke-width="1.6" stroke-linecap="round" stroke-linejoin="round"/><polyline points="6.58,39.49 6.39,39.49" fill="none" stroke="#111" stroke-width="1.6" stroke-linecap="round" stroke-linejoin="round"/><polyline points="6.58,40.65 6.39,40.65" fill="none" stroke="#111" stroke-width="1.6" stroke-linecap="round" stroke-linejoin="round"/><polyline points="6.58,41.8 6.39,41.8" fill="none" stroke="#111" stroke-width="1.6" stroke-linecap="round" stroke-linejoin="round"/><polyline points="6.58,42.95 6.39,42.95" fill="none" stroke="#111" stroke-width="1.6" stroke-linecap="round" stroke-linejoin="round"/><polyline points="6.58,44.11 6.39,44.11" fill="none" stroke="#111" stroke-width="1.6" stroke-linecap="round" stroke-linejoin="round"/><polyline points="6.58,45.26 6.39,45.26" fill="none" stroke="#111" stroke-width="1.6" stroke-linecap="round" stroke-linejoin="round"/><polyline points="6.58,46.41 6.39,46.41" fill="none" stroke="#111" stroke-width="1.6" stroke-linecap="round" stroke-linejoin="round"/><polyline points="6.58,47.57 6.39,47.57" fill="none" stroke="#111" stroke-width="1.6" stroke-linecap="round" stroke-linejoin="round"/><polyline points="6.58,48.72 6.39,48.72" fill="none" stroke="#111" stroke-width="1.6" stroke-linecap="round" stroke-linejoin="round"/><polyline points="6.58,49.87 6.39,49.87" fill="none" stroke="#111" stroke-width="1.6" stroke-linecap="round" stroke-linejoin="round"/><polyline points="6.58,51.02 6.39,51.02" fill="none" stroke="#111" stroke-width="1.6" stroke-linecap="round" stroke-linejoin="round"/><polyline points="6.58,52.18 6.39,52.18" fill="none" stroke="#111" stroke-width="1.6" stroke-linecap="round" stroke-linejoin="round"/><polyline points="6.58,53.33 6.39,53.33" fill="none" stroke="#111" stroke-width="1.6" stroke-linecap="round" stroke-linejoin="round"/><polyline points="6.58,54.48 6.39,54.48" fill="none" stroke="#111" stroke-width="1.6" stroke-linecap="round" stroke-linejoin="round"/><polyline points="6.58,55.64 6.39,55.64" fill="none" stroke="#111" stroke-width="1.6" stroke-linecap="round" stroke-linejoin="round"/><polyline points="6.58,56.79 6.39,56.79" fill="none" stroke="#111" stroke-width="1.6" stroke-linecap="round" stroke-linejoin="round"/><polyline points="6.58,57.94 6.39,57.94" fill="none" stroke="#111" stroke-width="1.6" stroke-linecap="round" stroke-linejoin="round"/></svg>