<svg xmlns="http://www.w3.org/2000/svg" width="96" height="64" viewBox="0 0 96 64"><rect x="6" y="6" width="84" height="33.6" fill="none" stroke="#111" stroke-width="1.6"/><rect x="8.52" y="11.63" width="3.36" height="8.4" fill="none" stroke="#111" stroke-width="1.6"/><polyline points="10.2,6 10.2,11.63" fill="none" stroke="#111" stroke-width="1.6" stroke-linecap="round" stroke-linejoin="round"/><circle cx="10.2" cy="8.86" r="0.84" fill="none" stroke="#111" stroke-width="1.6"/><polyline points="10.2,8.86 27,8.86 27,11.63" fill="none" stroke="#111" stroke-width="1.6" stroke-linecap="round" stroke-linejoin="round"/><circle cx="10.2" cy="22.8" r="0.84" fill="none" stroke="#111" stroke-width="1.6"/><polyline points="10.2,22.8 15.24,22.8 15.24,25.57" fill="none" stroke="#111" stroke-width="1.6" stroke-linecap="round" stroke-linejoin="round"/><polyline points="10.2,39.6 10.2,20.03" fill="none" stroke="#111" stroke-width="1.6" stroke-linecap="round" stroke-linejoin="round"/><rect x="13.56" y="25.57" width="3.36" height="8.4" fill="none" stroke="#111" stroke-width="1.6"/><polyline points="15.24,33.97 15.24,36.74 85.8,36.74" fill="none" stroke="#111" stroke-width="1.6" stroke-linecap="round" stroke-linejoin="round"/><rect x="25.32" y="11.63" width="3.36" height="8.4" fill="none" stroke="#111" stroke-width="1.6"/><circle cx="27" cy="8.86" r="0.84" fill="none" stroke="#111" stroke-width="1.6"/><polyline points="27,8.86 43.8,8.86 43.8,11.63" fill="none" stroke="#111" stroke-width="1.6" stroke-linecap="round" stroke-linejoin="round"/><circle cx="27" cy="22.8" r="0.84" fill="none" stroke="#111" stroke-width="1.6"/><polyline points="27,22.8 32.04,22.8 32.04,25.57" fill="none" stroke="#111" stroke-width="1.6" stroke-linecap="round" stroke-linejoin="round"/><polyline points="27,39.6 27,20.03" fill="none" stroke="#111" stroke-width="1.6" stroke-linecap="round" stroke-linejoin="round"/><rect x="30.36" y="25.57" width="3.36" height="8.4" fill="none" stroke="#111" stroke-width="1.6"/><polyline points="32.04,33.97 32.04,36.74 85.8,36.74" fill="none" stroke="#111" stroke-width="1.6" stroke-linecap="round" stroke-linejoin="round"/><circle cx="32.04" cy="36.74" r="0.84" fill="none" stroke="#111" stroke-width="1.6"/><rect x="42.12" y="11.63" width="3.36" height="8.4" fill="none" stroke="#111" stroke-width="1.6"/><circle cx="43.8" cy="8.86" r="0.84" fill="none" stroke="#111" stroke-width="1.6"/><polyline points="43.8,8.86 60.6,8.86 60.6,11.63" fill="none" stroke="#111" stroke-width="1.6" stroke-linecap="round" stroke-linejoin="round"/><polyline points="43.8,22.8 48.84,22.8 48.84,25.57" fill="none" stroke="#111" stroke-width="1.6" stroke-linecap="round" stroke-linejoin="round"/><circle cx="43.8" cy="22.8" r="0.84" fill="none" stroke="#111" stroke-width="1.6"/><polyline points="43.8,39.6 43.8,20.03" fill="none" stroke="#111" stroke-width="1.6" stroke-linecap="round" stroke-linejoin="round"/><rect x="47.16" y="25.57" width="3.36" height="8.4" fill="none" stroke="#111" stroke-width="1.6"/><polyline points="48.84,33.97 48.84,36.74 85.8,36.74" fill="none" stroke="#111" stroke-width="1.6" stroke-linecap="round" stroke-linejoin="round"/><circle cx="48.84" cy="36.74" r="0.84" fill="none" stroke="#111" stroke-width="1.6"/><rect x="58.92" y="11.63" width="3.36" height="8.4" fill="none" stroke="#111" stroke-width="1.6"/><polyline points="60.6,8.86 77.4,8.86 77.4,11.63" fill="none" stroke="#111" stroke-width="1.6" stroke-linecap="round" stroke-linejoin="round"/><circle cx="60.6" cy="8.86" r="0.84" fill="none" stroke="#111" stroke-width="1.6"/><polyline points="60.6,22.8 65.64,22.8 65.64,25.57" fill="none" stroke="#111" stroke-width="1.6" stroke-linecap="round" stroke-linejoin="round"/><circle cx="60.6" cy="22.8" r="0.84" fill="none" stroke="#111" stroke-width="1.6"/><polyline points="60.6,39.6 60.6,20.03" fill="none" stroke="#111" stroke-width="1.6" stroke-linecap="round" stroke-linejoin="round"/><rect x="63.96" y="25.57" width="3.36" height="8.4" fill="none" stroke="#111" stroke-width="1.6"/><polyline points="65.64,33.97 65.64,36.74 85.8,36.74" fill="none" stroke="#111" stroke-width="1.6" stroke-linecap="round" stroke-linejoin="round"/><circle cx="65.64" cy="36.74" r="0.84" fill="none" stroke="#111" stroke-width="1.6"/><rect x="75.72" y="11.63" width="3.36" height="8.4" fill="none" stroke="#111" stroke-width="1.6"/><polyline points="77.4,22.8 82.44,22.8 82.44,25.57" fill="none" stroke="#111" stroke-width="1.6" stroke-linecap="round" stroke-linejoin="round"/><circle cx="77.4" cy="22.8" r="0.84" fill="none" stroke="#111" stroke-width="1.6"/><polyline points="77.4,39.6 77.4,20.03" fill="none" stroke="#111" stroke-width="1.6" stroke-linecap="round" stroke-linejoin="round"/><rect x="80.76" y="25.57" width="3.36" height="8.4" fill="none" stroke="#111" stroke-width="1.6"/><polyline points="82.44,33.97 82.44,36.74 85.8,36.74" fill="none" stroke="#111" stroke-width="1.6" stroke-linecap="round" stroke-linejoin="round"/><circle cx="82.44" cy="36.74" r="0.84" fill="none" stroke="#111" stroke-width="1.6"/><polyline points="85.8,36.74 85.8,6" fill="none" stroke="#111" stroke-width="1.6" stroke-linecap="round" stroke-linejoin="round"/></svg>