<svg xmlns="http://www.w3.org/2000/svg" width="96" height="64" viewBox="0 0 96 64"><polyline points="15.75,19 14.67,19" fill="none" stroke="#111" stroke-width="1.6" stroke-linecap="round" stroke-linejoin="round"/><polyline points="15.75,23.33 14.67,23.33" fill="none" stroke="#111" stroke-width="1.6" stroke-linecap="round" stroke-linejoin="round"/><polyline points="15.75,27.67 14.67,27.67" fill="none" stroke="#111" stroke-width="1.6" stroke-linecap="round" stroke-linejoin="round"/><polyline points="15.75,32 14.67,32" fill="none" stroke="#111" stroke-width="1.6" stroke-linecap="round" stroke-linejoin="round"/><polyline points="20.08,30.92 20.08,28.75" fill="none" stroke="#111" stroke-width="1.6" stroke-linecap="round" stroke-linejoin="round"/><polyline points="20.08,34.17 20.08,33.08" fill="none" stroke="#111" stroke-width="1.6" stroke-linecap="round" stroke-linejoin="round"/><polyline points="20.08,34.17 20.08,40.67 17.92,40.67" fill="none" stroke="#111" stroke-width="1.6" stroke-linecap="round" stroke-linejoin="round"/><polyline points="24.42,19 25.5,19" fill="none" stroke="#111" stroke-width="1.6" stroke-linecap="round" stroke-linejoin="round"/><polyline points="24.42,23.33 25.5,23.33" fill="none" stroke="#111" stroke-width="1.6" stroke-linecap="round" stroke-linejoin="round"/><polyline points="24.42,27.67 25.5,27.67" fill="none" stroke="#111" stroke-width="1.6" stroke-linecap="round" stroke-linejoin="round"/><rect x="15.75" y="30.92" width="8.67" height="2.16" fill="none" stroke="#111" stroke-width="1.6"/><polyline points="24.42,32 25.5,32" fill="none" stroke="#111" stroke-width="1.6" stroke-linecap="round" stroke-linejoin="round"/><rect x="25.5" y="17.27" width="4.33" height="3.46" fill="none" stroke="#111" stroke-width="1.6"/><polyline points="25.5,17.7 26.8,17.7" fill="none" stroke="#111" stroke-width="1.6" stroke-linecap="round" stroke-linejoin="round"/><polyline points="25.5,20.3 26.8,20.3" fill="none" stroke="#111" stroke-width="1.6" stroke-linecap="round" stroke-linejoin="round"/><rect x="25.5" y="21.6" width="4.33" height="3.47" fill="none" stroke="#111" stroke-width="1.6"/><polyline points="25.5,22.03 26.8,22.03" fill="none" stroke="#111" stroke-width="1.6" stroke-linecap="round" stroke-linejoin="round"/><polyline points="25.5,24.63 26.8,24.63" fill="none" stroke="#111" stroke-width="1.6" stroke-linecap="round" stroke-linejoin="round"/><rect x="25.5" y="25.93" width="4.33" height="3.47" fill="none" stroke="#111" stroke-width="1.6"/><polyline points="25.5,26.37 26.8,26.37" fill="none" stroke="#111" stroke-width="1.6" stroke-linecap="round" stroke-linejoin="round"/><polyline points="25.5,28.97 26.8,28.97" fill="none" stroke="#111" stroke-width="1.6" stroke-linecap="round" stroke-linejoin="round"/><rect x="25.5" y="30.27" width="4.33" height="3.46" fill="none" stroke="#111" stroke-width="1.6"/><polyline points="25.5,30.7 26.8,30.7" fill="none" stroke="#111" stroke-width="1.6" stroke-linecap="round" stroke-linejoin="round"/><polyline points="25.5,33.3 26.8,33.3" fill="none" stroke="#111" stroke-width="1.6" stroke-linecap="round" stroke-linejoin="round"/><polyline points="26.58,6 26.58,7.08" fill="none" stroke="#111" stroke-width="1.6" stroke-linecap="round" stroke-linejoin="round"/><polyline points="26.58,10.33 26.58,8.17" fill="none" stroke="#111" stroke-width="1.6" stroke-linecap="round" stroke-linejoin="round"/><polyline points="26.58,13.58 26.58,11.42" fill="none" stroke="#111" stroke-width="1.6" stroke-linecap="round" stroke-linejoin="round"/><polyline points="26.58,16.83 26.58,14.67" fill="none" stroke="#111" stroke-width="1.6" stroke-linecap="round" stroke-linejoin="round"/><polyline points="26.58,34.17 26.58,36.33" fill="none" stroke="#111" stroke-width="1.6" stroke-linecap="round" stroke-linejoin="round"/><polyline points="26.58,37.42 26.58,39.58" fill="none" stroke="#111" stroke-width="1.6" stroke-linecap="round" stroke-linejoin="round"/><polyline points="26.58,40.67 26.58,42.83" fill="none" stroke="#111" stroke-width="1.6" stroke-linecap="round" stroke-linejoin="round"/><polyline points="26.58,43.92 26.58,46.08" fill="none" stroke="#111" stroke-width="1.6" stroke-linecap="round" stroke-linejoin="round"/><polyline points="26.58,47.17 26.58,49.33" fill="none" stroke="#111" stroke-width="1.6" stroke-linecap="round" stroke-linejoin="round"/><polyline points="26.58,50.42 26.58,52.58" fill="none" stroke="#111" stroke-width="1.6" stroke-linecap="round" stroke-linejoin="round"/><path d="M 26.8 17.7 Q 27.23 18.13 26.8 18.57" fill="none" stroke="#111" stroke-width="1.6" stroke-linecap="round"/><path d="M 26.8 18.57 Q 27.23 19 26.8 19.43" fill="none" stroke="#111" stroke-width="1.6" stroke-linecap="round"/><path d="M 26.8 19.43 Q 27.23 19.87 26.8 20.3" fill="none" stroke="#111" stroke-width="1.6" stroke-linecap="round"/><path d="M 26.8 22.03 Q 27.23 22.47 26.8 22.9" fill="none" stroke="#111" stroke-width="1.6" stroke-linecap="round"/><path d="M 26.8 22.9 Q 27.23 23.33 26.8 23.77" fill="none" stroke="#111" stroke-width="1.6" stroke-linecap="round"/><path d="M 26.8 23.77 Q 27.23 24.2 26.8 24.63" fill="none" stroke="#111" stroke-width="1.6" stroke-linecap="round"/><path d="M 26.8 26.37 Q 27.23 26.8 26.8 27.23" fill="none" stroke="#111" stroke-width="1.6" stroke-linecap="round"/><path d="M 26.8 27.23 Q 27.23 27.67 26.8 28.1" fill="none" stroke="#111" stroke-width="1.6" stroke-linecap="round"/><path d="M 26.8 28.1 Q 27.23 28.53 26.8 28.97" fill="none" stroke="#111" stroke-width="1.6" stroke-linecap="round"/><path d="M 26.8 30.7 Q 27.23 31.13 26.8 31.57" fill="none" stroke="#111" stroke-width="1.6" stroke-linecap="round"/><path d="M 26.8 31.57 Q 27.23 32 26.8 32.43" fill="none" stroke="#111" stroke-width="1.6" stroke-linecap="round"/><path d="M 26.8 32.43 Q 27.23 32.87 26.8 33.3" fill="none" stroke="#111" stroke-width="1.6" stroke-linecap="round"/><path d="M 28.53 18.57 Q 28.1 18.13 28.53 17.7" fill="none" stroke="#111" stroke-width="1.6" stroke-linecap="round"/><path d="M 28.53 19.43 Q 28.1 19 28.53 18.57" fill="none" stroke="#111" stroke-width="1.6" stroke-linecap="round"/><path d="M 28.53 20.3 Q 28.1 19.87 28.53 19.43" fill="none" stroke="#111" stroke-width="1.6" stroke-linecap="round"/><path d="M 28.53 22.9 Q 28.1 22.47 28.53 22.03" fill="none" stroke="#111" stroke-width="1.6" stroke-linecap="round"/><path d="M 28.53 23.77 Q 28.1 23.33 28.53 22.9" fill="none" stroke="#111" stroke-width="1.6" stroke-linecap="round"/><path d="M 28.53 24.63 Q 28.1 24.2 28.53 23.77" fill="none" stroke="#111" stroke-width="1.6" stroke-linecap="round"/><path d="M 28.53 27.23 Q 28.1 26.8 28.53 26.37" fill="none" stroke="#111" stroke-width="1.6" stroke-linecap="round"/><path d="M 28.53 28.1 Q 28.1 27.67 28.53 27.23" fill="none" stroke="#111" stroke-width="1.6" stroke-linecap="round"/><path d="M 28.53 28.97 Q 28.1 28.53 28.53 28.1" fill="none" stroke="#111" stroke-width="1.6" stroke-linecap="round"/><path d="M 28.53 31.57 Q 28.1 31.13 28.53 30.7" fill="none" stroke="#111" stroke-width="1.6" stroke-linecap="round"/><path d="M 28.53 32.43 Q 28.1 32 28.53 31.57" fill="none" stroke="#111" stroke-width="1.6" stroke-linecap="round"/><path d="M 28.53 33.3 Q 28.1 32.87 28.53 32.43" fill="none" stroke="#111" stroke-width="1.6" stroke-linecap="round"/><polyline points="28.75,7.08 28.75,6" fill="none" stroke="#111" stroke-width="1.6" stroke-linecap="round" stroke-linejoin="round"/><polyline points="28.75,8.17 28.75,10.33" fill="none" stroke="#111" stroke-width="1.6" stroke-linecap="round" stroke-linejoin="round"/><polyline points="28.75,11.42 28.75,13.58" fill="none" stroke="#111" stroke-width="1.6" stroke-linecap="round" stroke-linejoin="round"/><polyline points="28.75,16.83 28.75,14.67" fill="none" stroke="#111" stroke-width="1.6" stroke-linecap="round" stroke-linejoin="round"/><polyline points="28.75,34.17 28.75,36.33" fill="none" stroke="#111" stroke-width="1.6" stroke-linecap="round" stroke-linejoin="round"/><polyline points="28.75,37.42 28.75,39.58" fill="none" stroke="#111" stroke-width="1.6" stroke-linecap="round" stroke-linejoin="round"/><polyline points="28.75,40.67 28.75,42.83" fill="none" stroke="#111" stroke-width="1.6" stroke-linecap="round" stroke-linejoin="round"/><polyline points="28.75,43.92 28.75,46.08" fill="none" stroke="#111" stroke-width="1.6" stroke-linecap="round" stroke-linejoin="round"/><polyline points="28.75,47.17 28.75,49.33" fill="none" stroke="#111" stroke-width="1.6" stroke-linecap="round" stroke-linejoin="round"/><polyline points="28.75,50.42 28.75,52.58" fill="none" stroke="#111" stroke-width="1.6" stroke-linecap="round" stroke-linejoin="round"/><polyline points="29.83,17.7 28.53,17.7" fill="none" stroke="#111" stroke-width="1.6" stroke-linecap="round" stroke-linejoin="round"/><polyline points="29.83,20.3 28.53,20.3" fill="none" stroke="#111" stroke-width="1.6" stroke-linecap="round" stroke-linejoin="round"/><polyline points="29.83,22.03 28.53,22.03" fill="none" stroke="#111" stroke-width="1.6" stroke-linecap="round" stroke-linejoin="round"/><polyline points="29.83,24.63 28.53,24.63" fill="none" stroke="#111" stroke-width="1.6" stroke-linecap="round" stroke-linejoin="round"/><polyline points="29.83,26.37 28.53,26.37" fill="none" stroke="#111" stroke-width="1.6" stroke-linecap="round" stroke-linejoin="round"/><polyline points="29.83,28.97 28.53,28.97" fill="none" stroke="#111" stroke-width="1.6" stroke-linecap="round" stroke-linejoin="round"/><polyline points="29.83,30.7 28.53,30.7" fill="none" stroke="#111" stroke-width="1.6" stroke-linecap="round" stroke-linejoin="round"/><polyline points="29.83,33.3 28.53,33.3" fill="none" stroke="#111" stroke-width="1.6" stroke-linecap="round" stroke-linejoin="round"/><rect x="30.92" y="17.92" width="8.66" height="2.16" fill="none" stroke="#111" stroke-width="1.6"/><polyline points="30.92,19 29.83,19" fill="none" stroke="#111" stroke-width="1.6" stroke-linecap="round" stroke-linejoin="round"/><rect x="30.92" y="22.25" width="8.66" height="2.17" fill="none" stroke="#111" stroke-width="1.6"/><polyline points="30.92,23.33 29.83,23.33" fill="none" stroke="#111" stroke-width="1.6" stroke-linecap="round" stroke-linejoin="round"/><rect x="30.92" y="26.58" width="8.66" height="2.17" fill="none" stroke="#111" stroke-width="1.6"/><polyline points="30.92,27.67 29.83,27.67" fill="none" stroke="#111" stroke-width="1.6" stroke-linecap="round" stroke-linejoin="round"/><rect x="30.92" y="30.92" width="8.66" height="2.16" fill="none" stroke="#111" stroke-width="1.6"/><polyline points="30.92,32 29.83,32" fill="none" stroke="#111" stroke-width="1.6" stroke-linecap="round" stroke-linejoin="round"/><polyline points="35.25,22.25 35.25,20.08" fill="none" stroke="#111" stroke-width="1.6" stroke-linecap="round" stroke-linejoin="round"/><polyline points="35.25,26.58 35.25,24.42" fill="none" stroke="#111" stroke-width="1.6" stroke-linecap="round" stroke-linejoin="round"/><polyline points="35.25,30.92 35.25,28.75" fill="none" stroke="#111" stroke-width="1.6" stroke-linecap="round" stroke-linejoin="round"/><polyline points="37.42,40.67 35.25,40.67 35.25,33.08" fill="none" stroke="#111" stroke-width="1.6" stroke-linecap="round" stroke-linejoin="round"/><polyline points="39.58,19 40.67,19" fill="none" stroke="#111" stroke-width="1.6" stroke-linecap="round" stroke-linejoin="round"/><polyline points="39.58,23.33 40.67,23.33" fill="none" stroke="#111" stroke-width="1.6" stroke-linecap="round" stroke-linejoin="round"/><polyline points="39.58,27.67 40.67,27.67" fill="none" stroke="#111" stroke-width="1.6" stroke-linecap="round" stroke-linejoin="round"/><polyline points="39.58,32 40.67,32" fill="none" stroke="#111" stroke-width="1.6" stroke-linecap="round" stroke-linejoin="round"/><rect x="6" y="6" width="43.33" height="52" fill="none" stroke="#111" stroke-width="1.6"/><rect x="15.75" y="17.92" width="8.67" height="2.16" fill="none" stroke="#111" stroke-width="1.6"/><rect x="15.75" y="22.25" width="8.67" height="2.17" fill="none" stroke="#111" stroke-width="1.6"/><rect x="15.75" y="26.58" width="8.67" height="2.17" fill="none" stroke="#111" stroke-width="1.6"/><polyline points="26.58,53.67 26.58,55.83" fill="none" stroke="#111" stroke-width="1.6" stroke-linecap="round" stroke-linejoin="round"/><polyline points="26.58,56.92 26.58,58" fill="none" stroke="#111" stroke-width="1.6" stroke-linecap="round" stroke-linejoin="round"/><polyline points="28.75,53.67 28.75,55.83" fill="none" stroke="#111" stroke-width="1.6" stroke-linecap="round" stroke-linejoin="round"/><polyline points="28.75,56.92 28.75,58" fill="none" stroke="#111" stroke-width="1.6" stroke-linecap="round" stroke-linejoin="round"/></svg>