<svg xmlns="http://www.w3.org/2000/svg" width="96" height="64" viewBox="0 0 96 64"><rect x="6" y="6" width="1.05" height="51.68" fill="none" stroke="#111" stroke-width="1.6"/><rect x="6" y="6.47" width="0.53" height="0.11" fill="none" stroke="#111" stroke-width="1.6"/><rect x="6" y="7.53" width="0.53" height="0.1" fill="none" stroke="#111" stroke-width="1.6"/><rect x="6" y="8.58" width="0.53" height="0.11" fill="none" stroke="#111" stroke-width="1.6"/><rect x="6" y="9.64" width="0.53" height="0.1" fill="none" stroke="#111" stroke-width="1.6"/><rect x="6" y="10.69" width="0.53" height="0.11" fill="none" stroke="#111" stroke-width="1.6"/><rect x="6" y="11.75" width="0.53" height="0.1" fill="none" stroke="#111" stroke-width="1.6"/><rect x="6" y="12.8" width="0.53" height="0.11" fill="none" stroke="#111" stroke-width="1.6"/><rect x="6" y="13.86" width="0.53" height="0.1" fill="none" stroke="#111" stroke-width="1.6"/><rect x="6" y="14.91" width="0.53" height="0.11" fill="none" stroke="#111" stroke-width="1.6"/><rect x="6" y="15.97" width="0.53" height="0.1" fill="none" stroke="#111" stroke-width="1.6"/><rect x="6" y="17.02" width="0.53" height="0.11" fill="none" stroke="#111" stroke-width="1.6"/><rect x="6" y="18.08" width="0.53" height="0.1" fill="none" stroke="#111" stroke-width="1.6"/><rect x="6" y="19.13" width="0.53" height="0.11" fill="none" stroke="#111" stroke-width="1.6"/><rect x="6" y="20.19" width="0.53" height="0.1" fill="none" stroke="#111" stroke-width="1.6"/><rect x="6" y="21.24" width="0.53" height="0.11" fill="none" stroke="#111" stroke-width="1.6"/><rect x="6" y="22.3" width="0.53" height="0.1" fill="none" stroke="#111" stroke-width="1.6"/><rect x="6" y="23.35" width="0.53" height="0.11" fill="none" stroke="#111" stroke-width="1.6"/><rect x="6" y="24.41" width="0.53" height="0.1" fill="none" stroke="#111" stroke-width="1.6"/><rect x="6" y="25.46" width="0.53" height="0.11" fill="none" stroke="#111" stroke-width="1.6"/><rect x="6" y="26.52" width="0.53" height="0.1" fill="none" stroke="#111" stroke-width="1.6"/><rect x="6" y="27.57" width="0.53" height="0.11" fill="none" stroke="#111" stroke-width="1.6"/><rect x="6" y="28.62" width="0.53" height="0.11" fill="none" stroke="#111" stroke-width="1.6"/><rect x="6" y="29.68" width="0.53" height="0.1" fill="none" stroke="#111" stroke-width="1.6"/><rect x="6" y="30.73" width="0.53" height="0.11" fill="none" stroke="#111" stroke-width="1.6"/><rect x="6" y="31.79" width="0.53" height="0.1" fill="none" stroke="#111" stroke-width="1.6"/><rect x="6" y="32.84" width="0.53" height="0.11" fill="none" stroke="#111" stroke-width="1.6"/><rect x="6" y="33.9" width="0.53" height="0.1" fill="none" stroke="#111" stroke-width="1.6"/><rect x="6" y="34.95" width="0.53" height="0.11" fill="none" stroke="#111" stroke-width="1.6"/><rect x="6" y="36.01" width="0.53" height="0.1" fill="none" stroke="#111" stroke-width="1.6"/><rect x="6" y="37.06" width="0.53" height="0.11" fill="none" stroke="#111" stroke-width="1.6"/><rect x="6" y="38.12" width="0.53" height="0.1" fill="none" stroke="#111" stroke-width="1.6"/><rect x="6" y="39.17" width="0.53" height="0.11" fill="none" stroke="#111" stroke-width="1.6"/><rect x="6" y="40.23" width="0.53" height="0.1" fill="none" stroke="#111" stroke-width="1.6"/><rect x="6" y="41.28" width="0.53" height="0.11" fill="none" stroke="#111" stroke-width="1.6"/><rect x="6" y="42.34" width="0.53" height="0.1" fill="none" stroke="#111" stroke-width="1.6"/><rect x="6" y="43.39" width="0.53" height="0.11" fill="none" stroke="#111" stroke-width="1.6"/><rect x="6" y="44.45" width="0.53" height="0.1" fill="none" stroke="#111" stroke-width="1.6"/><rect x="6" y="45.5" width="0.53" height="0.11" fill="none" stroke="#111" stroke-width="1.6"/><rect x="6" y="46.56" width="0.53" height="0.1" fill="none" stroke="#111" stroke-width="1.6"/><rect x="6" y="47.61" width="0.53" height="0.11" fill="none" stroke="#111" stroke-width="1.6"/><rect x="6" y="48.67" width="0.53" height="0.1" fill="none" stroke="#111" stroke-width="1.6"/><rect x="6" y="49.72" width="0.53" height="0.11" fill="none" stroke="#111" stroke-width="1.6"/><rect x="6" y="50.77" width="0.53" height="0.11" fill="none" stroke="#111" stroke-width="1.6"/><rect x="6" y="51.83" width="0.53" height="0.11" fill="none" stroke="#111" stroke-width="1.6"/><rect x="6" y="52.88" width="0.53" height="0.11" fill="none" stroke="#111" stroke-width="1.6"/><rect x="6" y="53.94" width="0.53" height="0.1" fill="none" stroke="#111" stroke-width="1.6"/><rect x="6" y="54.99" width="0.53" height="0.11" fill="none" stroke="#111" stroke-width="1.6"/><rect x="6" y="56.05" width="0.53" height="0.1" fill="none" stroke="#111" stroke-width="1.6"/><rect x="6" y="57.1" width="0.53" height="0.11" fill="none" stroke="#111" stroke-width="1.6"/><polyline points="6.11,58 6.95,58" fill="none" stroke="#111" stroke-width="1.6" stroke-linecap="round" stroke-linejoin="round"/></svg>