<svg xmlns="http://www.w3.org/2000/svg" width="96" height="64" viewBox="0 0 96 64"><circle cx="10.04" cy="11.78" r="1.16" fill="none" stroke="#111" stroke-width="1.6"/><circle cx="10.04" cy="17.56" r="1.16" fill="none" stroke="#111" stroke-width="1.6"/><circle cx="10.04" cy="23.33" r="1.16" fill="none" stroke="#111" stroke-width="1.6"/><circle cx="10.04" cy="29.11" r="1.16" fill="none" stroke="#111" stroke-width="1.6"/><circle cx="10.04" cy="34.89" r="1.16" fill="none" stroke="#111" stroke-width="1.6"/><circle cx="10.04" cy="40.67" r="1.16" fill="none" stroke="#111" stroke-width="1.6"/><circle cx="10.04" cy="46.44" r="1.16" fill="none" stroke="#111" stroke-width="1.6"/><circle cx="10.04" cy="52.22" r="1.16" fill="none" stroke="#111" stroke-width="1.6"/><polyline points="11.2,11.49 20.04,9.12" fill="none" stroke="#111" stroke-width="1.6" stroke-linecap="round" stroke-linejoin="round"/><polyline points="11.2,17.27 20.04,14.9" fill="none" stroke="#111" stroke-width="1.6" stroke-linecap="round" stroke-linejoin="round"/><polyline points="11.2,23.04 20.04,20.68" fill="none" stroke="#111" stroke-width="1.6" stroke-linecap="round" stroke-linejoin="round"/><polyline points="11.2,28.82 20.04,26.45" fill="none" stroke="#111" stroke-width="1.6" stroke-linecap="round" stroke-linejoin="round"/><polyline points="11.2,34.6 20.04,32.23" fill="none" stroke="#111" stroke-width="1.6" stroke-linecap="round" stroke-linejoin="round"/><polyline points="11.2,40.32 20.04,37.95" fill="none" stroke="#111" stroke-width="1.6" stroke-linecap="round" stroke-linejoin="round"/><polyline points="11.2,46.1 20.04,43.73" fill="none" stroke="#111" stroke-width="1.6" stroke-linecap="round" stroke-linejoin="round"/><polyline points="11.2,51.88 20.04,49.51" fill="none" stroke="#111" stroke-width="1.6" stroke-linecap="round" stroke-linejoin="round"/><circle cx="19.29" cy="11.78" r="1.16" fill="none" stroke="#111" stroke-width="1.6"/><circle cx="19.29" cy="17.56" r="1.16" fill="none" stroke="#111" stroke-width="1.6"/><circle cx="19.29" cy="23.33" r="1.16" fill="none" stroke="#111" stroke-width="1.6"/><circle cx="19.29" cy="29.11" r="1.16" fill="none" stroke="#111" stroke-width="1.6"/><circle cx="19.29" cy="34.89" r="1.16" fill="none" stroke="#111" stroke-width="1.6"/><circle cx="19.29" cy="40.67" r="1.16" fill="none" stroke="#111" stroke-width="1.6"/><circle cx="19.29" cy="46.44" r="1.16" fill="none" stroke="#111" stroke-width="1.6"/><circle cx="19.29" cy="52.22" r="1.16" fill="none" stroke="#111" stroke-width="1.6"/><rect x="6" y="6" width="17.33" height="52" fill="none" stroke="#111" stroke-width="1.6"/></svg>