<svg xmlns="http://www.w3.org/2000/svg" width="96" height="64" viewBox="0 0 96 64"><polyline points="6,58 9.47,58 9.47,42.4 9.47,46.73" fill="none" stroke="#111" stroke-width="1.6" stroke-linecap="round" stroke-linejoin="round"/><path d="M 9.47 21.6 Q 12.06 24.2 9.47 26.8" fill="none" stroke="#111" stroke-width="1.6" stroke-linecap="round"/><path d="M 9.47 26.8 Q 12.06 29.4 9.47 32" fill="none" stroke="#111" stroke-width="1.6" stroke-linecap="round"/><path d="M 9.47 32 Q 12.06 34.6 9.47 37.2" fill="none" stroke="#111" stroke-width="1.6" stroke-linecap="round"/><path d="M 9.47 37.2 Q 12.06 39.8 9.47 42.4" fill="none" stroke="#111" stroke-width="1.6" stroke-linecap="round"/><polyline points="9.47,21.6 9.47,6 6,6" fill="none" stroke="#111" stroke-width="1.6" stroke-linecap="round" stroke-linejoin="round"/><rect x="13.8" y="6" width="1.73" height="52" fill="none" stroke="#111" stroke-width="1.6"/><polyline points="19.87,6 19.87,6.87" fill="none" stroke="#111" stroke-width="1.6" stroke-linecap="round" stroke-linejoin="round"/><polyline points="19.87,6 23.33,6" fill="none" stroke="#111" stroke-width="1.6" stroke-linecap="round" stroke-linejoin="round"/><polyline points="19.87,23.33 19.87,22.47" fill="none" stroke="#111" stroke-width="1.6" stroke-linecap="round" stroke-linejoin="round"/><polyline points="19.87,23.33 23.33,23.33" fill="none" stroke="#111" stroke-width="1.6" stroke-linecap="round" stroke-linejoin="round"/><polyline points="19.87,40.67 19.87,41.53" fill="none" stroke="#111" stroke-width="1.6" stroke-linecap="round" stroke-linejoin="round"/><polyline points="19.87,40.67 23.33,40.67" fill="none" stroke="#111" stroke-width="1.6" stroke-linecap="round" stroke-linejoin="round"/><polyline points="19.87,57.13 19.87,58" fill="none" stroke="#111" stroke-width="1.6" stroke-linecap="round" stroke-linejoin="round"/><path d="M 19.87 12.07 Q 17.28 9.47 19.87 6.87" fill="none" stroke="#111" stroke-width="1.6" stroke-linecap="round"/><path d="M 19.87 17.27 Q 17.28 14.67 19.87 12.07" fill="none" stroke="#111" stroke-width="1.6" stroke-linecap="round"/><path d="M 19.87 22.47 Q 17.28 19.87 19.87 17.27" fill="none" stroke="#111" stroke-width="1.6" stroke-linecap="round"/><path d="M 19.87 46.73 Q 17.28 44.13 19.87 41.53" fill="none" stroke="#111" stroke-width="1.6" stroke-linecap="round"/><path d="M 19.87 51.93 Q 17.28 49.33 19.87 46.73" fill="none" stroke="#111" stroke-width="1.6" stroke-linecap="round"/><path d="M 19.87 57.13 Q 17.28 54.53 19.87 51.93" fill="none" stroke="#111" stroke-width="1.6" stroke-linecap="round"/><polyline points="23.33,58 19.87,58" fill="none" stroke="#111" stroke-width="1.6" stroke-linecap="round" stroke-linejoin="round"/></svg>