<svg xmlns="http://www.w3.org/2000/svg" width="96" height="64" viewBox="0 0 96 64"><polyline points="13.02,47.6 16.4,47.6 16.4,44.22" fill="none" stroke="#111" stroke-width="1.6" stroke-linecap="round" stroke-linejoin="round"/><circle cx="16.4" cy="43.96" r="0.26" fill="none" stroke="#111" stroke-width="1.6"/><polyline points="44.22,37.2 48.64,37.2 48.64,36.16" fill="none" stroke="#111" stroke-width="1.6" stroke-linecap="round" stroke-linejoin="round"/><polyline points="47.34,45 46.04,45 46.04,42.4 44.22,42.4" fill="none" stroke="#111" stroke-width="1.6" stroke-linecap="round" stroke-linejoin="round"/><polyline points="47.6,34.6 46.3,34.6 46.3,32 44.22,32" fill="none" stroke="#111" stroke-width="1.6" stroke-linecap="round" stroke-linejoin="round"/><polyline points="50.46,43.7 52.02,43.7 52.02,42.4 53.84,42.4" fill="none" stroke="#111" stroke-width="1.6" stroke-linecap="round" stroke-linejoin="round"/><polyline points="51.24,46.3 52.02,46.3 52.02,47.6 53.84,47.6" fill="none" stroke="#111" stroke-width="1.6" stroke-linecap="round" stroke-linejoin="round"/><polyline points="53.84,32 52.02,32 52.02,33.3 48.9,33.3" fill="none" stroke="#111" stroke-width="1.6" stroke-linecap="round" stroke-linejoin="round"/><polyline points="53.84,37.2 52.02,37.2 52.02,35.9 49.94,35.9" fill="none" stroke="#111" stroke-width="1.6" stroke-linecap="round" stroke-linejoin="round"/><polyline points="19.78,32 17.96,32" fill="none" stroke="#111" stroke-width="1.6" stroke-linecap="round" stroke-linejoin="round"/><polyline points="19.78,37.2 17.96,37.2" fill="none" stroke="#111" stroke-width="1.6" stroke-linecap="round" stroke-linejoin="round"/><polyline points="19.78,42.4 17.96,42.4" fill="none" stroke="#111" stroke-width="1.6" stroke-linecap="round" stroke-linejoin="round"/><polyline points="21.6,20.3 21.6,16.4" fill="none" stroke="#111" stroke-width="1.6" stroke-linecap="round" stroke-linejoin="round"/><polyline points="21.6,20.3 29.4,20.3" fill="none" stroke="#111" stroke-width="1.6" stroke-linecap="round" stroke-linejoin="round"/><polyline points="28.1,15.1 29.4,15.1" fill="none" stroke="#111" stroke-width="1.6" stroke-linecap="round" stroke-linejoin="round"/><polyline points="28.62,32 29.4,32" fill="none" stroke="#111" stroke-width="1.6" stroke-linecap="round" stroke-linejoin="round"/><polyline points="28.62,37.2 29.4,37.2" fill="none" stroke="#111" stroke-width="1.6" stroke-linecap="round" stroke-linejoin="round"/><polyline points="28.62,42.4 29.4,42.4" fill="none" stroke="#111" stroke-width="1.6" stroke-linecap="round" stroke-linejoin="round"/><rect x="29.4" y="13.02" width="5.2" height="4.16" fill="none" stroke="#111" stroke-width="1.6"/><polyline points="29.4,13.54 30.96,13.54" fill="none" stroke="#111" stroke-width="1.6" stroke-linecap="round" stroke-linejoin="round"/><polyline points="29.4,16.66 30.96,16.66" fill="none" stroke="#111" stroke-width="1.6" stroke-linecap="round" stroke-linejoin="round"/><rect x="29.4" y="18.22" width="5.2" height="4.16" fill="none" stroke="#111" stroke-width="1.6"/><polyline points="29.4,18.74 30.96,18.74" fill="none" stroke="#111" stroke-width="1.6" stroke-linecap="round" stroke-linejoin="round"/><polyline points="29.4,21.86 30.96,21.86" fill="none" stroke="#111" stroke-width="1.6" stroke-linecap="round" stroke-linejoin="round"/><rect x="29.4" y="29.92" width="5.2" height="4.16" fill="none" stroke="#111" stroke-width="1.6"/><polyline points="29.4,30.44 30.96,30.44" fill="none" stroke="#111" stroke-width="1.6" stroke-linecap="round" stroke-linejoin="round"/><polyline points="29.4,33.56 30.96,33.56" fill="none" stroke="#111" stroke-width="1.6" stroke-linecap="round" stroke-linejoin="round"/><rect x="29.4" y="35.12" width="5.2" height="4.16" fill="none" stroke="#111" stroke-width="1.6"/><polyline points="29.4,35.64 30.96,35.64" fill="none" stroke="#111" stroke-width="1.6" stroke-linecap="round" stroke-linejoin="round"/><polyline points="29.4,38.76 30.96,38.76" fill="none" stroke="#111" stroke-width="1.6" stroke-linecap="round" stroke-linejoin="round"/><rect x="29.4" y="40.32" width="5.2" height="4.16" fill="none" stroke="#111" stroke-width="1.6"/><polyline points="29.4,40.84 30.96,40.84" fill="none" stroke="#111" stroke-width="1.6" stroke-linecap="round" stroke-linejoin="round"/><polyline points="29.4,43.96 30.96,43.96" fill="none" stroke="#111" stroke-width="1.6" stroke-linecap="round" stroke-linejoin="round"/><path d="M 30.96 13.54 Q 31.48 14.06 30.96 14.58" fill="none" stroke="#111" stroke-width="1.6" stroke-linecap="round"/><path d="M 30.96 14.58 Q 31.48 15.1 30.96 15.62" fill="none" stroke="#111" stroke-width="1.6" stroke-linecap="round"/><path d="M 30.96 15.62 Q 31.48 16.14 30.96 16.66" fill="none" stroke="#111" stroke-width="1.6" stroke-linecap="round"/><path d="M 30.96 18.74 Q 31.48 19.26 30.96 19.78" fill="none" stroke="#111" stroke-width="1.6" stroke-linecap="round"/><path d="M 30.96 19.78 Q 31.48 20.3 30.96 20.82" fill="none" stroke="#111" stroke-width="1.6" stroke-linecap="round"/><path d="M 30.96 20.82 Q 31.48 21.34 30.96 21.86" fill="none" stroke="#111" stroke-width="1.6" stroke-linecap="round"/><path d="M 30.96 30.44 Q 31.48 30.96 30.96 31.48" fill="none" stroke="#111" stroke-width="1.6" stroke-linecap="round"/><path d="M 30.96 31.48 Q 31.48 32 30.96 32.52" fill="none" stroke="#111" stroke-width="1.6" stroke-linecap="round"/><path d="M 30.96 32.52 Q 31.48 33.04 30.96 33.56" fill="none" stroke="#111" stroke-width="1.6" stroke-linecap="round"/><path d="M 30.96 35.64 Q 31.48 36.16 30.96 36.68" fill="none" stroke="#111" stroke-width="1.6" stroke-linecap="round"/><path d="M 30.96 36.68 Q 31.48 37.2 30.96 37.72" fill="none" stroke="#111" stroke-width="1.6" stroke-linecap="round"/><path d="M 30.96 37.72 Q 31.48 38.24 30.96 38.76" fill="none" stroke="#111" stroke-width="1.6" stroke-linecap="round"/><path d="M 30.96 40.84 Q 31.48 41.36 30.96 41.88" fill="none" stroke="#111" stroke-width="1.6" stroke-linecap="round"/><path d="M 30.96 41.88 Q 31.48 42.4 30.96 42.92" fill="none" stroke="#111" stroke-width="1.6" stroke-linecap="round"/><path d="M 30.96 42.92 Q 31.48 43.44 30.96 43.96" fill="none" stroke="#111" stroke-width="1.6" stroke-linecap="round"/><polyline points="32,6 32,8.6" fill="none" stroke="#111" stroke-width="1.6" stroke-linecap="round" stroke-linejoin="round"/><polyline points="32,13.02 32,11.2" fill="none" stroke="#111" stroke-width="1.6" stroke-linecap="round" stroke-linejoin="round"/><polyline points="32,24.2 32,22.38" fill="none" stroke="#111" stroke-width="1.6" stroke-linecap="round" stroke-linejoin="round"/><polyline points="32,29.4 32,26.8" fill="none" stroke="#111" stroke-width="1.6" stroke-linecap="round" stroke-linejoin="round"/><polyline points="32,45 32,44.48" fill="none" stroke="#111" stroke-width="1.6" stroke-linecap="round" stroke-linejoin="round"/><polyline points="32,50.2 32,47.6" fill="none" stroke="#111" stroke-width="1.6" stroke-linecap="round" stroke-linejoin="round"/><polyline points="32,55.4 32,52.8" fill="none" stroke="#111" stroke-width="1.6" stroke-linecap="round" stroke-linejoin="round"/><path d="M 33.04 14.58 Q 32.52 14.06 33.04 13.54" fill="none" stroke="#111" stroke-width="1.6" stroke-linecap="round"/><path d="M 33.04 15.62 Q 32.52 15.1 33.04 14.58" fill="none" stroke="#111" stroke-width="1.6" stroke-linecap="round"/><path d="M 33.04 16.66 Q 32.52 16.14 33.04 15.62" fill="none" stroke="#111" stroke-width="1.6" stroke-linecap="round"/><path d="M 33.04 19.78 Q 32.52 19.26 33.04 18.74" fill="none" stroke="#111" stroke-width="1.6" stroke-linecap="round"/><path d="M 33.04 20.82 Q 32.52 20.3 33.04 19.78" fill="none" stroke="#111" stroke-width="1.6" stroke-linecap="round"/><path d="M 33.04 21.86 Q 32.52 21.34 33.04 20.82" fill="none" stroke="#111" stroke-width="1.6" stroke-linecap="round"/><path d="M 33.04 31.48 Q 32.52 30.96 33.04 30.44" fill="none" stroke="#111" stroke-width="1.6" stroke-linecap="round"/><path d="M 33.04 32.52 Q 32.52 32 33.04 31.48" fill="none" stroke="#111" stroke-width="1.6" stroke-linecap="round"/><path d="M 33.04 33.56 Q 32.52 33.04 33.04 32.52" fill="none" stroke="#111" stroke-width="1.6" stroke-linecap="round"/><path d="M 33.04 36.68 Q 32.52 36.16 33.04 35.64" fill="none" stroke="#111" stroke-width="1.6" stroke-linecap="round"/><path d="M 33.04 37.72 Q 32.52 37.2 33.04 36.68" fill="none" stroke="#111" stroke-width="1.6" stroke-linecap="round"/><path d="M 33.04 38.76 Q 32.52 38.24 33.04 37.72" fill="none" stroke="#111" stroke-width="1.6" stroke-linecap="round"/><path d="M 33.04 41.88 Q 32.52 41.36 33.04 40.84" fill="none" stroke="#111" stroke-width="1.6" stroke-linecap="round"/><path d="M 33.04 42.92 Q 32.52 42.4 33.04 41.88" fill="none" stroke="#111" stroke-width="1.6" stroke-linecap="round"/><path d="M 33.04 43.96 Q 32.52 43.44 33.04 42.92" fill="none" stroke="#111" stroke-width="1.6" stroke-linecap="round"/><polyline points="34.6,13.54 33.04,13.54" fill="none" stroke="#111" stroke-width="1.6" stroke-linecap="round" stroke-linejoin="round"/><polyline points="34.6,16.66 33.04,16.66" fill="none" stroke="#111" stroke-width="1.6" stroke-linecap="round" stroke-linejoin="round"/><polyline points="34.6,18.74 33.04,18.74" fill="none" stroke="#111" stroke-width="1.6" stroke-linecap="round" stroke-linejoin="round"/><polyline points="34.6,21.86 33.04,21.86" fill="none" stroke="#111" stroke-width="1.6" stroke-linecap="round" stroke-linejoin="round"/><polyline points="34.6,30.44 33.04,30.44" fill="none" stroke="#111" stroke-width="1.6" stroke-linecap="round" stroke-linejoin="round"/><polyline points="34.6,33.56 33.04,33.56" fill="none" stroke="#111" stroke-width="1.6" stroke-linecap="round" stroke-linejoin="round"/><polyline points="34.6,35.64 33.04,35.64" fill="none" stroke="#111" stroke-width="1.6" stroke-linecap="round" stroke-linejoin="round"/><polyline points="34.6,38.76 33.04,38.76" fill="none" stroke="#111" stroke-width="1.6" stroke-linecap="round" stroke-linejoin="round"/><polyline points="34.6,40.84 33.04,40.84" fill="none" stroke="#111" stroke-width="1.6" stroke-linecap="round" stroke-linejoin="round"/><polyline points="34.6,43.96 33.04,43.96" fill="none" stroke="#111" stroke-width="1.6" stroke-linecap="round" stroke-linejoin="round"/><rect x="35.38" y="30.7" width="8.84" height="2.6" fill="none" stroke="#111" stroke-width="1.6"/><polyline points="35.38,32 34.6,32" fill="none" stroke="#111" stroke-width="1.6" stroke-linecap="round" stroke-linejoin="round"/><rect x="35.38" y="35.9" width="8.84" height="2.6" fill="none" stroke="#111" stroke-width="1.6"/><polyline points="35.38,37.2 34.6,37.2" fill="none" stroke="#111" stroke-width="1.6" stroke-linecap="round" stroke-linejoin="round"/><rect x="35.38" y="41.1" width="8.84" height="2.6" fill="none" stroke="#111" stroke-width="1.6"/><polyline points="35.38,42.4 34.6,42.4" fill="none" stroke="#111" stroke-width="1.6" stroke-linecap="round" stroke-linejoin="round"/><rect x="35.9" y="13.8" width="11.96" height="2.6" fill="none" stroke="#111" stroke-width="1.6"/><polyline points="35.9,15.1 34.6,15.1" fill="none" stroke="#111" stroke-width="1.6" stroke-linecap="round" stroke-linejoin="round"/><rect x="35.9" y="19" width="11.96" height="2.6" fill="none" stroke="#111" stroke-width="1.6"/><polyline points="35.9,20.3 34.6,20.3" fill="none" stroke="#111" stroke-width="1.6" stroke-linecap="round" stroke-linejoin="round"/><polyline points="41.62,19 41.62,16.4" fill="none" stroke="#111" stroke-width="1.6" stroke-linecap="round" stroke-linejoin="round"/><rect x="6" y="6" width="52" height="52" fill="none" stroke="#111" stroke-width="1.6"/><polyline points="14.84,42.4 17.96,40.32 17.96,44.48 14.84,42.4" fill="none" stroke="#111" stroke-width="1.6" stroke-linecap="round" stroke-linejoin="round"/><polyline points="18.22,32 15.1,29.92 15.1,34.08 18.22,32" fill="none" stroke="#111" stroke-width="1.6" stroke-linecap="round" stroke-linejoin="round"/><polyline points="18.22,37.2 15.1,35.12 15.1,39.28 18.22,37.2" fill="none" stroke="#111" stroke-width="1.6" stroke-linecap="round" stroke-linejoin="round"/><rect x="15.62" y="13.8" width="12.48" height="2.6" fill="none" stroke="#111" stroke-width="1.6"/><rect x="19.78" y="30.7" width="8.84" height="2.6" fill="none" stroke="#111" stroke-width="1.6"/><rect x="19.78" y="35.9" width="8.84" height="2.6" fill="none" stroke="#111" stroke-width="1.6"/><rect x="19.78" y="41.1" width="8.84" height="2.6" fill="none" stroke="#111" stroke-width="1.6"/><polyline points="47.34,45 50.46,42.92 50.46,47.08 47.34,45" fill="none" stroke="#111" stroke-width="1.6" stroke-linecap="round" stroke-linejoin="round"/><circle cx="49.68" cy="35.9" r="0.26" fill="none" stroke="#111" stroke-width="1.6"/><polyline points="50.72,34.6 47.6,32.52 47.6,36.68 50.72,34.6" fill="none" stroke="#111" stroke-width="1.6" stroke-linecap="round" stroke-linejoin="round"/><circle cx="50.98" cy="46.3" r="0.26" fill="none" stroke="#111" stroke-width="1.6"/></svg>