<svg xmlns="http://www.w3.org/2000/svg" width="96" height="64" viewBox="0 0 96 64"><polyline points="6,18 34,18 34,50 6,50" fill="none" stroke="#111" stroke-width="1.6" stroke-linecap="round" stroke-linejoin="round"/><polyline points="15.2,8.8 18.8,12.4 18,10.8 17.2,11.6 18.8,12.4" fill="none" stroke="#111" stroke-width="1.6" stroke-linecap="round" stroke-linejoin="round"/><polyline points="15.2,24.8 18.8,28.4 18,26.8 17.2,27.6 18.8,28.4" fill="none" stroke="#111" stroke-width="1.6" stroke-linecap="round" stroke-linejoin="round"/><polyline points="15.2,40.8 18.8,44.4 18,42.8 17.2,43.6 18.8,44.4" fill="none" stroke="#111" stroke-width="1.6" stroke-linecap="round" stroke-linejoin="round"/><polyline points="18.8,40.4 22.4,44 21.6,42.4 20.8,43.2 22.4,44" fill="none" stroke="#111" stroke-width="1.6" stroke-linecap="round" stroke-linejoin="round"/><polyline points="19.2,8.4 22.8,12 22,10.4 21.2,11.2 22.8,12" fill="none" stroke="#111" stroke-width="1.6" stroke-linecap="round" stroke-linejoin="round"/><polyline points="19.2,24.8 22.8,28.4 22,26.8 21.2,27.6 22.8,28.4" fill="none" stroke="#111" stroke-width="1.6" stroke-linecap="round" stroke-linejoin="round"/><polyline points="24,14 24,22 24,18 18,14 18,22 24,18" fill="none" stroke="#111" stroke-width="1.6" stroke-linecap="round" stroke-linejoin="round"/><polyline points="24,30 24,38 24,34 18,30 18,38 24,34" fill="none" stroke="#111" stroke-width="1.6" stroke-linecap="round" stroke-linejoin="round"/><polyline points="24,46 24,54 24,50 18,46 18,54 24,50" fill="none" stroke="#111" stroke-width="1.6" stroke-linecap="round" stroke-linejoin="round"/><circle cx="34" cy="34" r="1.6" fill="none" stroke="#111" stroke-width="1.6"/><polyline points="38,34 6,34" fill="none" stroke="#111" stroke-width="1.6" stroke-linecap="round" stroke-linejoin="round"/><rect x="6" y="6" width="32" height="52" fill="none" stroke="#111" stroke-width="1.6"/></svg>