<svg xmlns="http://www.w3.org/2000/svg" width="96" height="64" viewBox="0 0 96 64"><rect x="6" y="6" width="0.68" height="0.2" fill="none" stroke="#111" stroke-width="1.6"/><rect x="6" y="7.99" width="0.68" height="0.2" fill="none" stroke="#111" stroke-width="1.6"/><rect x="6" y="9.98" width="0.68" height="0.2" fill="none" stroke="#111" stroke-width="1.6"/><rect x="6" y="11.98" width="0.68" height="0.2" fill="none" stroke="#111" stroke-width="1.6"/><rect x="6" y="13.97" width="0.68" height="0.2" fill="none" stroke="#111" stroke-width="1.6"/><rect x="6" y="15.96" width="0.68" height="0.2" fill="none" stroke="#111" stroke-width="1.6"/><rect x="6" y="17.95" width="0.68" height="0.2" fill="none" stroke="#111" stroke-width="1.6"/><rect x="6" y="19.95" width="0.68" height="0.2" fill="none" stroke="#111" stroke-width="1.6"/><rect x="6" y="21.94" width="0.68" height="0.2" fill="none" stroke="#111" stroke-width="1.6"/><rect x="6" y="23.93" width="0.68" height="0.2" fill="none" stroke="#111" stroke-width="1.6"/><rect x="6" y="25.92" width="0.68" height="0.2" fill="none" stroke="#111" stroke-width="1.6"/><rect x="6" y="27.92" width="0.68" height="0.19" fill="none" stroke="#111" stroke-width="1.6"/><rect x="6" y="29.91" width="0.68" height="0.2" fill="none" stroke="#111" stroke-width="1.6"/><rect x="6" y="31.9" width="0.68" height="0.2" fill="none" stroke="#111" stroke-width="1.6"/><rect x="6" y="33.89" width="0.68" height="0.2" fill="none" stroke="#111" stroke-width="1.6"/><rect x="6" y="35.89" width="0.68" height="0.19" fill="none" stroke="#111" stroke-width="1.6"/><rect x="6" y="37.88" width="0.68" height="0.2" fill="none" stroke="#111" stroke-width="1.6"/><rect x="6" y="39.87" width="0.68" height="0.2" fill="none" stroke="#111" stroke-width="1.6"/><rect x="6" y="41.86" width="0.68" height="0.2" fill="none" stroke="#111" stroke-width="1.6"/><rect x="6" y="43.85" width="0.68" height="0.2" fill="none" stroke="#111" stroke-width="1.6"/><rect x="6" y="45.85" width="0.68" height="0.2" fill="none" stroke="#111" stroke-width="1.6"/><rect x="6" y="47.84" width="0.68" height="0.2" fill="none" stroke="#111" stroke-width="1.6"/><rect x="6" y="49.83" width="0.68" height="0.2" fill="none" stroke="#111" stroke-width="1.6"/><rect x="6" y="51.82" width="0.68" height="0.2" fill="none" stroke="#111" stroke-width="1.6"/><rect x="6" y="53.82" width="0.68" height="0.2" fill="none" stroke="#111" stroke-width="1.6"/><rect x="6" y="55.81" width="0.68" height="0.2" fill="none" stroke="#111" stroke-width="1.6"/><rect x="6" y="57.8" width="0.68" height="0.2" fill="none" stroke="#111" stroke-width="1.6"/><polyline points="7,6.1 6.68,6.1" fill="none" stroke="#111" stroke-width="1.6" stroke-linecap="round" stroke-linejoin="round"/><polyline points="7,8.09 6.68,8.09" fill="none" stroke="#111" stroke-width="1.6" stroke-linecap="round" stroke-linejoin="round"/><polyline points="7,10.08 6.68,10.08" fill="none" stroke="#111" stroke-width="1.6" stroke-linecap="round" stroke-linejoin="round"/><polyline points="7,12.08 6.68,12.08" fill="none" stroke="#111" stroke-width="1.6" stroke-linecap="round" stroke-linejoin="round"/><polyline points="7,14.07 6.68,14.07" fill="none" stroke="#111" stroke-width="1.6" stroke-linecap="round" stroke-linejoin="round"/><polyline points="7,16.06 6.68,16.06" fill="none" stroke="#111" stroke-width="1.6" stroke-linecap="round" stroke-linejoin="round"/><polyline points="7,18.05 6.68,18.05" fill="none" stroke="#111" stroke-width="1.6" stroke-linecap="round" stroke-linejoin="round"/><polyline points="7,20.05 6.68,20.05" fill="none" stroke="#111" stroke-width="1.6" stroke-linecap="round" stroke-linejoin="round"/><polyline points="7,22.04 6.68,22.04" fill="none" stroke="#111" stroke-width="1.6" stroke-linecap="round" stroke-linejoin="round"/><polyline points="7,24.03 6.68,24.03" fill="none" stroke="#111" stroke-width="1.6" stroke-linecap="round" stroke-linejoin="round"/><polyline points="7,26.02 6.68,26.02" fill="none" stroke="#111" stroke-width="1.6" stroke-linecap="round" stroke-linejoin="round"/><polyline points="7,28.02 6.68,28.02" fill="none" stroke="#111" stroke-width="1.6" stroke-linecap="round" stroke-linejoin="round"/><polyline points="7,30.01 6.68,30.01" fill="none" stroke="#111" stroke-width="1.6" stroke-linecap="round" stroke-linejoin="round"/><polyline points="7,32 6.68,32" fill="none" stroke="#111" stroke-width="1.6" stroke-linecap="round" stroke-linejoin="round"/><polyline points="7,33.99 6.68,33.99" fill="none" stroke="#111" stroke-width="1.6" stroke-linecap="round" stroke-linejoin="round"/><polyline points="7,35.98 6.68,35.98" fill="none" stroke="#111" stroke-width="1.6" stroke-linecap="round" stroke-linejoin="round"/><polyline points="7,37.98 6.68,37.98" fill="none" stroke="#111" stroke-width="1.6" stroke-linecap="round" stroke-linejoin="round"/><polyline points="7,39.97 6.68,39.97" fill="none" stroke="#111" stroke-width="1.6" stroke-linecap="round" stroke-linejoin="round"/><polyline points="7,41.96 6.68,41.96" fill="none" stroke="#111" stroke-width="1.6" stroke-linecap="round" stroke-linejoin="round"/><polyline points="7,43.95 6.68,43.95" fill="none" stroke="#111" stroke-width="1.6" stroke-linecap="round" stroke-linejoin="round"/><polyline points="7,45.95 6.68,45.95" fill="none" stroke="#111" stroke-width="1.6" stroke-linecap="round" stroke-linejoin="round"/><polyline points="7,47.94 6.68,47.94" fill="none" stroke="#111" stroke-width="1.6" stroke-linecap="round" stroke-linejoin="round"/><polyline points="7,49.93 6.68,49.93" fill="none" stroke="#111" stroke-width="1.6" stroke-linecap="round" stroke-linejoin="round"/><polyline points="7,51.92 6.68,51.92" fill="none" stroke="#111" stroke-width="1.6" stroke-linecap="round" stroke-linejoin="round"/><polyline points="7,53.92 6.68,53.92" fill="none" stroke="#111" stroke-width="1.6" stroke-linecap="round" stroke-linejoin="round"/><polyline points="7,55.91 6.68,55.91" fill="none" stroke="#111" stroke-width="1.6" stroke-linecap="round" stroke-linejoin="round"/><polyline points="7,57.9 6.68,57.9" fill="none" stroke="#111" stroke-width="1.6" stroke-linecap="round" stroke-linejoin="round"/></svg>