<svg xmlns="http://www.w3.org/2000/svg" width="96" height="64" viewBox="0 0 96 64"><rect x="6" y="6" width="1.96" height="52" fill="none" stroke="#111" stroke-width="1.6"/><rect x="6" y="6.44" width="0.49" height="0.1" fill="none" stroke="#111" stroke-width="1.6"/><rect x="6" y="7.42" width="0.49" height="0.1" fill="none" stroke="#111" stroke-width="1.6"/><rect x="6" y="8.4" width="0.49" height="0.1" fill="none" stroke="#111" stroke-width="1.6"/><rect x="6" y="9.38" width="0.49" height="0.1" fill="none" stroke="#111" stroke-width="1.6"/><rect x="6" y="10.37" width="0.49" height="0.09" fill="none" stroke="#111" stroke-width="1.6"/><rect x="6" y="11.35" width="0.49" height="0.1" fill="none" stroke="#111" stroke-width="1.6"/><rect x="6" y="12.33" width="0.49" height="0.1" fill="none" stroke="#111" stroke-width="1.6"/><rect x="6" y="13.31" width="0.49" height="0.1" fill="none" stroke="#111" stroke-width="1.6"/><rect x="6" y="14.29" width="0.49" height="0.1" fill="none" stroke="#111" stroke-width="1.6"/><rect x="6" y="15.27" width="0.49" height="0.1" fill="none" stroke="#111" stroke-width="1.6"/><rect x="6" y="16.25" width="0.49" height="0.1" fill="none" stroke="#111" stroke-width="1.6"/><rect x="6" y="17.23" width="0.49" height="0.1" fill="none" stroke="#111" stroke-width="1.6"/><rect x="6" y="18.22" width="0.49" height="0.09" fill="none" stroke="#111" stroke-width="1.6"/><rect x="6" y="19.2" width="0.49" height="0.09" fill="none" stroke="#111" stroke-width="1.6"/><rect x="6" y="20.18" width="0.49" height="0.1" fill="none" stroke="#111" stroke-width="1.6"/><rect x="6" y="21.16" width="0.49" height="0.1" fill="none" stroke="#111" stroke-width="1.6"/><rect x="6" y="22.14" width="0.49" height="0.1" fill="none" stroke="#111" stroke-width="1.6"/><rect x="6" y="23.12" width="0.49" height="0.1" fill="none" stroke="#111" stroke-width="1.6"/><rect x="6" y="24.1" width="0.49" height="0.1" fill="none" stroke="#111" stroke-width="1.6"/><rect x="6" y="25.08" width="0.49" height="0.1" fill="none" stroke="#111" stroke-width="1.6"/><rect x="6" y="26.06" width="0.49" height="0.1" fill="none" stroke="#111" stroke-width="1.6"/><rect x="6" y="27.05" width="0.49" height="0.09" fill="none" stroke="#111" stroke-width="1.6"/><rect x="6" y="28.03" width="0.49" height="0.09" fill="none" stroke="#111" stroke-width="1.6"/><rect x="6" y="29.01" width="0.49" height="0.1" fill="none" stroke="#111" stroke-width="1.6"/><rect x="6" y="29.99" width="0.49" height="0.1" fill="none" stroke="#111" stroke-width="1.6"/><rect x="6" y="30.97" width="0.49" height="0.1" fill="none" stroke="#111" stroke-width="1.6"/><rect x="6" y="31.95" width="0.49" height="0.1" fill="none" stroke="#111" stroke-width="1.6"/><rect x="6" y="32.93" width="0.49" height="0.1" fill="none" stroke="#111" stroke-width="1.6"/><rect x="6" y="33.91" width="0.49" height="0.1" fill="none" stroke="#111" stroke-width="1.6"/><rect x="6" y="34.89" width="0.49" height="0.1" fill="none" stroke="#111" stroke-width="1.6"/><rect x="6" y="35.88" width="0.49" height="0.09" fill="none" stroke="#111" stroke-width="1.6"/><rect x="6" y="36.86" width="0.49" height="0.09" fill="none" stroke="#111" stroke-width="1.6"/><rect x="6" y="37.84" width="0.49" height="0.1" fill="none" stroke="#111" stroke-width="1.6"/><rect x="6" y="38.82" width="0.49" height="0.1" fill="none" stroke="#111" stroke-width="1.6"/><rect x="6" y="39.8" width="0.49" height="0.1" fill="none" stroke="#111" stroke-width="1.6"/><rect x="6" y="40.78" width="0.49" height="0.1" fill="none" stroke="#111" stroke-width="1.6"/><rect x="6" y="41.76" width="0.49" height="0.1" fill="none" stroke="#111" stroke-width="1.6"/><rect x="6" y="42.74" width="0.49" height="0.1" fill="none" stroke="#111" stroke-width="1.6"/><rect x="6" y="43.72" width="0.49" height="0.1" fill="none" stroke="#111" stroke-width="1.6"/><rect x="6" y="44.71" width="0.49" height="0.09" fill="none" stroke="#111" stroke-width="1.6"/><rect x="6" y="45.69" width="0.49" height="0.09" fill="none" stroke="#111" stroke-width="1.6"/><rect x="6" y="46.67" width="0.49" height="0.1" fill="none" stroke="#111" stroke-width="1.6"/><rect x="6" y="47.65" width="0.49" height="0.1" fill="none" stroke="#111" stroke-width="1.6"/><rect x="6" y="48.63" width="0.49" height="0.1" fill="none" stroke="#111" stroke-width="1.6"/><rect x="6" y="49.61" width="0.49" height="0.1" fill="none" stroke="#111" stroke-width="1.6"/><rect x="6" y="50.59" width="0.49" height="0.1" fill="none" stroke="#111" stroke-width="1.6"/><rect x="6" y="51.57" width="0.49" height="0.1" fill="none" stroke="#111" stroke-width="1.6"/><rect x="6" y="52.55" width="0.49" height="0.1" fill="none" stroke="#111" stroke-width="1.6"/><rect x="6" y="53.54" width="0.49" height="0.09" fill="none" stroke="#111" stroke-width="1.6"/><rect x="6" y="54.52" width="0.49" height="0.1" fill="none" stroke="#111" stroke-width="1.6"/><rect x="6" y="55.5" width="0.49" height="0.1" fill="none" stroke="#111" stroke-width="1.6"/><rect x="6" y="56.48" width="0.49" height="0.1" fill="none" stroke="#111" stroke-width="1.6"/><rect x="6" y="57.46" width="0.49" height="0.1" fill="none" stroke="#111" stroke-width="1.6"/><rect x="7.47" y="6.44" width="0.49" height="0.1" fill="none" stroke="#111" stroke-width="1.6"/><rect x="7.47" y="7.42" width="0.49" height="0.1" fill="none" stroke="#111" stroke-width="1.6"/><rect x="7.47" y="8.4" width="0.49" height="0.1" fill="none" stroke="#111" stroke-width="1.6"/><rect x="7.47" y="9.38" width="0.49" height="0.1" fill="none" stroke="#111" stroke-width="1.6"/><rect x="7.47" y="10.37" width="0.49" height="0.09" fill="none" stroke="#111" stroke-width="1.6"/><rect x="7.47" y="11.35" width="0.49" height="0.1" fill="none" stroke="#111" stroke-width="1.6"/><rect x="7.47" y="12.33" width="0.49" height="0.1" fill="none" stroke="#111" stroke-width="1.6"/><rect x="7.47" y="13.31" width="0.49" height="0.1" fill="none" stroke="#111" stroke-width="1.6"/><rect x="7.47" y="14.29" width="0.49" height="0.1" fill="none" stroke="#111" stroke-width="1.6"/><rect x="7.47" y="15.27" width="0.49" height="0.1" fill="none" stroke="#111" stroke-width="1.6"/><rect x="7.47" y="16.25" width="0.49" height="0.1" fill="none" stroke="#111" stroke-width="1.6"/><rect x="7.47" y="17.23" width="0.49" height="0.1" fill="none" stroke="#111" stroke-width="1.6"/><rect x="7.47" y="18.22" width="0.49" height="0.09" fill="none" stroke="#111" stroke-width="1.6"/><rect x="7.47" y="19.2" width="0.49" height="0.09" fill="none" stroke="#111" stroke-width="1.6"/><rect x="7.47" y="20.18" width="0.49" height="0.1" fill="none" stroke="#111" stroke-width="1.6"/><rect x="7.47" y="21.16" width="0.49" height="0.1" fill="none" stroke="#111" stroke-width="1.6"/><rect x="7.47" y="22.14" width="0.49" height="0.1" fill="none" stroke="#111" stroke-width="1.6"/><rect x="7.47" y="23.12" width="0.49" height="0.1" fill="none" stroke="#111" stroke-width="1.6"/><rect x="7.47" y="24.1" width="0.49" height="0.1" fill="none" stroke="#111" stroke-width="1.6"/><rect x="7.47" y="25.08" width="0.49" height="0.1" fill="none" stroke="#111" stroke-width="1.6"/><rect x="7.47" y="26.06" width="0.49" height="0.1" fill="none" stroke="#111" stroke-width="1.6"/><rect x="7.47" y="27.05" width="0.49" height="0.09" fill="none" stroke="#111" stroke-width="1.6"/><rect x="7.47" y="28.03" width="0.49" height="0.09" fill="none" stroke="#111" stroke-width="1.6"/><rect x="7.47" y="29.01" width="0.49" height="0.1" fill="none" stroke="#111" stroke-width="1.6"/><rect x="7.47" y="29.99" width="0.49" height="0.1" fill="none" stroke="#111" stroke-width="1.6"/><rect x="7.47" y="30.97" width="0.49" height="0.1" fill="none" stroke="#111" stroke-width="1.6"/><rect x="7.47" y="31.95" width="0.49" height="0.1" fill="none" stroke="#111" stroke-width="1.6"/><rect x="7.47" y="32.93" width="0.49" height="0.1" fill="none" stroke="#111" stroke-width="1.6"/><rect x="7.47" y="33.91" width="0.49" height="0.1" fill="none" stroke="#111" stroke-width="1.6"/><rect x="7.47" y="34.89" width="0.49" height="0.1" fill="none" stroke="#111" stroke-width="1.6"/><rect x="7.47" y="35.88" width="0.49" height="0.09" fill="none" stroke="#111" stroke-width="1.6"/><rect x="7.47" y="36.86" width="0.49" height="0.09" fill="none" stroke="#111" stroke-width="1.6"/><rect x="7.47" y="37.84" width="0.49" height="0.1" fill="none" stroke="#111" stroke-width="1.6"/><rect x="7.47" y="38.82" width="0.49" height="0.1" fill="none" stroke="#111" stroke-width="1.6"/><rect x="7.47" y="39.8" width="0.49" height="0.1" fill="none" stroke="#111" stroke-width="1.6"/><rect x="7.47" y="40.78" width="0.49" height="0.1" fill="none" stroke="#111" stroke-width="1.6"/><rect x="7.47" y="41.76" width="0.49" height="0.1" fill="none" stroke="#111" stroke-width="1.6"/><rect x="7.47" y="42.74" width="0.49" height="0.1" fill="none" stroke="#111" stroke-width="1.6"/><rect x="7.47" y="43.72" width="0.49" height="0.1" fill="none" stroke="#111" stroke-width="1.6"/><rect x="7.47" y="44.71" width="0.49" height="0.09" fill="none" stroke="#111" stroke-width="1.6"/><rect x="7.47" y="45.69" width="0.49" height="0.09" fill="none" stroke="#111" stroke-width="1.6"/><rect x="7.47" y="46.67" width="0.49" height="0.1" fill="none" stroke="#111" stroke-width="1.6"/><rect x="7.47" y="47.65" width="0.49" height="0.1" fill="none" stroke="#111" stroke-width="1.6"/><rect x="7.47" y="48.63" width="0.49" height="0.1" fill="none" stroke="#111" stroke-width="1.6"/><rect x="7.47" y="49.61" width="0.49" height="0.1" fill="none" stroke="#111" stroke-width="1.6"/><rect x="7.47" y="50.59" width="0.49" height="0.1" fill="none" stroke="#111" stroke-width="1.6"/><rect x="7.47" y="51.57" width="0.49" height="0.1" fill="none" stroke="#111" stroke-width="1.6"/><rect x="7.47" y="52.55" width="0.49" height="0.1" fill="none" stroke="#111" stroke-width="1.6"/><rect x="7.47" y="53.54" width="0.49" height="0.09" fill="none" stroke="#111" stroke-width="1.6"/><rect x="7.47" y="54.52" width="0.49" height="0.1" fill="none" stroke="#111" stroke-width="1.6"/><rect x="7.47" y="55.5" width="0.49" height="0.1" fill="none" stroke="#111" stroke-width="1.6"/><rect x="7.47" y="56.48" width="0.49" height="0.1" fill="none" stroke="#111" stroke-width="1.6"/><rect x="7.47" y="57.46" width="0.49" height="0.1" fill="none" stroke="#111" stroke-width="1.6"/></svg>