<svg xmlns="http://www.w3.org/2000/svg" width="96" height="64" viewBox="0 0 96 64"><rect x="6" y="6" width="3.25" height="52" fill="none" stroke="#111" stroke-width="1.6"/><polyline points="6.94,7.2 8.05,8.28" fill="none" stroke="#111" stroke-width="1.6" stroke-linecap="round" stroke-linejoin="round"/><polyline points="6.94,10.45 8.05,11.53" fill="none" stroke="#111" stroke-width="1.6" stroke-linecap="round" stroke-linejoin="round"/><polyline points="6.94,13.7 8.05,14.78" fill="none" stroke="#111" stroke-width="1.6" stroke-linecap="round" stroke-linejoin="round"/><polyline points="6.94,16.95 8.05,18.03" fill="none" stroke="#111" stroke-width="1.6" stroke-linecap="round" stroke-linejoin="round"/><polyline points="6.94,20.2 8.05,21.27" fill="none" stroke="#111" stroke-width="1.6" stroke-linecap="round" stroke-linejoin="round"/><polyline points="6.94,23.45 8.05,24.53" fill="none" stroke="#111" stroke-width="1.6" stroke-linecap="round" stroke-linejoin="round"/><polyline points="6.94,26.7 8.05,27.77" fill="none" stroke="#111" stroke-width="1.6" stroke-linecap="round" stroke-linejoin="round"/><polyline points="6.94,29.95 8.05,31.02" fill="none" stroke="#111" stroke-width="1.6" stroke-linecap="round" stroke-linejoin="round"/><polyline points="6.94,33.2 8.05,34.27" fill="none" stroke="#111" stroke-width="1.6" stroke-linecap="round" stroke-linejoin="round"/><polyline points="6.94,36.45 8.05,37.53" fill="none" stroke="#111" stroke-width="1.6" stroke-linecap="round" stroke-linejoin="round"/><polyline points="6.94,39.7 8.05,40.77" fill="none" stroke="#111" stroke-width="1.6" stroke-linecap="round" stroke-linejoin="round"/><polyline points="6.94,42.95 8.05,44.02" fill="none" stroke="#111" stroke-width="1.6" stroke-linecap="round" stroke-linejoin="round"/><polyline points="6.94,46.2 8.05,47.27" fill="none" stroke="#111" stroke-width="1.6" stroke-linecap="round" stroke-linejoin="round"/><polyline points="6.94,49.45 8.05,50.52" fill="none" stroke="#111" stroke-width="1.6" stroke-linecap="round" stroke-linejoin="round"/><polyline points="6.94,52.7 8.05,53.77" fill="none" stroke="#111" stroke-width="1.6" stroke-linecap="round" stroke-linejoin="round"/><polyline points="6.94,55.95 8.05,57.02" fill="none" stroke="#111" stroke-width="1.6" stroke-linecap="round" stroke-linejoin="round"/><polyline points="7.17,6.98 8.28,8.05" fill="none" stroke="#111" stroke-width="1.6" stroke-linecap="round" stroke-linejoin="round"/><polyline points="7.17,10.23 8.28,11.3" fill="none" stroke="#111" stroke-width="1.6" stroke-linecap="round" stroke-linejoin="round"/><polyline points="7.17,13.48 8.28,14.55" fill="none" stroke="#111" stroke-width="1.6" stroke-linecap="round" stroke-linejoin="round"/><polyline points="7.17,16.73 8.28,17.8" fill="none" stroke="#111" stroke-width="1.6" stroke-linecap="round" stroke-linejoin="round"/><polyline points="7.17,19.98 8.28,21.05" fill="none" stroke="#111" stroke-width="1.6" stroke-linecap="round" stroke-linejoin="round"/><polyline points="7.17,23.22 8.28,24.3" fill="none" stroke="#111" stroke-width="1.6" stroke-linecap="round" stroke-linejoin="round"/><polyline points="7.17,26.48 8.28,27.55" fill="none" stroke="#111" stroke-width="1.6" stroke-linecap="round" stroke-linejoin="round"/><polyline points="7.17,29.73 8.28,30.8" fill="none" stroke="#111" stroke-width="1.6" stroke-linecap="round" stroke-linejoin="round"/><polyline points="7.17,32.98 8.28,34.05" fill="none" stroke="#111" stroke-width="1.6" stroke-linecap="round" stroke-linejoin="round"/><polyline points="7.17,36.22 8.28,37.3" fill="none" stroke="#111" stroke-width="1.6" stroke-linecap="round" stroke-linejoin="round"/><polyline points="7.17,39.47 8.28,40.55" fill="none" stroke="#111" stroke-width="1.6" stroke-linecap="round" stroke-linejoin="round"/><polyline points="7.17,42.72 8.28,43.8" fill="none" stroke="#111" stroke-width="1.6" stroke-linecap="round" stroke-linejoin="round"/><polyline points="7.17,45.98 8.28,47.05" fill="none" stroke="#111" stroke-width="1.6" stroke-linecap="round" stroke-linejoin="round"/><polyline points="7.17,49.22 8.28,50.3" fill="none" stroke="#111" stroke-width="1.6" stroke-linecap="round" stroke-linejoin="round"/><polyline points="7.17,52.48 8.28,53.55" fill="none" stroke="#111" stroke-width="1.6" stroke-linecap="round" stroke-linejoin="round"/><polyline points="7.17,55.73 8.28,56.8" fill="none" stroke="#111" stroke-width="1.6" stroke-linecap="round" stroke-linejoin="round"/><circle cx="7.62" cy="7.62" r="0.81" fill="none" stroke="#111" stroke-width="1.6"/><circle cx="7.62" cy="10.88" r="0.81" fill="none" stroke="#111" stroke-width="1.6"/><circle cx="7.62" cy="14.13" r="0.81" fill="none" stroke="#111" stroke-width="1.6"/><circle cx="7.62" cy="17.38" r="0.81" fill="none" stroke="#111" stroke-width="1.6"/><circle cx="7.62" cy="20.62" r="0.81" fill="none" stroke="#111" stroke-width="1.6"/><circle cx="7.62" cy="23.88" r="0.81" fill="none" stroke="#111" stroke-width="1.6"/><circle cx="7.62" cy="27.12" r="0.81" fill="none" stroke="#111" stroke-width="1.6"/><circle cx="7.62" cy="30.38" r="0.81" fill="none" stroke="#111" stroke-width="1.6"/><circle cx="7.62" cy="33.62" r="0.81" fill="none" stroke="#111" stroke-width="1.6"/><circle cx="7.62" cy="36.88" r="0.81" fill="none" stroke="#111" stroke-width="1.6"/><circle cx="7.62" cy="40.12" r="0.81" fill="none" stroke="#111" stroke-width="1.6"/><circle cx="7.62" cy="43.38" r="0.81" fill="none" stroke="#111" stroke-width="1.6"/><circle cx="7.62" cy="46.62" r="0.81" fill="none" stroke="#111" stroke-width="1.6"/><circle cx="7.62" cy="49.88" r="0.81" fill="none" stroke="#111" stroke-width="1.6"/><circle cx="7.62" cy="53.12" r="0.81" fill="none" stroke="#111" stroke-width="1.6"/><circle cx="7.62" cy="56.38" r="0.81" fill="none" stroke="#111" stroke-width="1.6"/></svg>