<svg xmlns="http://www.w3.org/2000/svg" width="96" height="64" viewBox="0 0 96 64"><rect x="6" y="6" width="2.17" height="52" fill="none" stroke="#111" stroke-width="1.6"/><rect x="6" y="6.98" width="1.08" height="0.21" fill="none" stroke="#111" stroke-width="1.6"/><rect x="6" y="9.14" width="1.08" height="0.22" fill="none" stroke="#111" stroke-width="1.6"/><rect x="6" y="11.31" width="1.08" height="0.22" fill="none" stroke="#111" stroke-width="1.6"/><rect x="6" y="13.48" width="1.08" height="0.21" fill="none" stroke="#111" stroke-width="1.6"/><rect x="6" y="15.64" width="1.08" height="0.22" fill="none" stroke="#111" stroke-width="1.6"/><rect x="6" y="17.81" width="1.08" height="0.21" fill="none" stroke="#111" stroke-width="1.6"/><rect x="6" y="19.98" width="1.08" height="0.21" fill="none" stroke="#111" stroke-width="1.6"/><rect x="6" y="22.14" width="1.08" height="0.22" fill="none" stroke="#111" stroke-width="1.6"/><rect x="6" y="24.31" width="1.08" height="0.21" fill="none" stroke="#111" stroke-width="1.6"/><rect x="6" y="26.48" width="1.08" height="0.21" fill="none" stroke="#111" stroke-width="1.6"/><rect x="6" y="28.64" width="1.08" height="0.22" fill="none" stroke="#111" stroke-width="1.6"/><rect x="6" y="30.81" width="1.08" height="0.21" fill="none" stroke="#111" stroke-width="1.6"/><rect x="6" y="32.98" width="1.08" height="0.21" fill="none" stroke="#111" stroke-width="1.6"/><rect x="6" y="35.14" width="1.08" height="0.22" fill="none" stroke="#111" stroke-width="1.6"/><rect x="6" y="37.31" width="1.08" height="0.22" fill="none" stroke="#111" stroke-width="1.6"/><rect x="6" y="39.48" width="1.08" height="0.21" fill="none" stroke="#111" stroke-width="1.6"/><rect x="6" y="41.64" width="1.08" height="0.22" fill="none" stroke="#111" stroke-width="1.6"/><rect x="6" y="43.81" width="1.08" height="0.21" fill="none" stroke="#111" stroke-width="1.6"/><rect x="6" y="45.98" width="1.08" height="0.21" fill="none" stroke="#111" stroke-width="1.6"/><rect x="6" y="48.14" width="1.08" height="0.22" fill="none" stroke="#111" stroke-width="1.6"/><rect x="6" y="50.31" width="1.08" height="0.22" fill="none" stroke="#111" stroke-width="1.6"/><rect x="6" y="52.48" width="1.08" height="0.21" fill="none" stroke="#111" stroke-width="1.6"/><rect x="6" y="54.64" width="1.08" height="0.22" fill="none" stroke="#111" stroke-width="1.6"/><rect x="6" y="56.81" width="1.08" height="0.21" fill="none" stroke="#111" stroke-width="1.6"/></svg>