<svg xmlns="http://www.w3.org/2000/svg" width="96" height="64" viewBox="0 0 96 64"><rect x="6" y="6" width="0.35" height="0.1" fill="none" stroke="#111" stroke-width="1.6"/><rect x="6" y="7.02" width="0.35" height="0.1" fill="none" stroke="#111" stroke-width="1.6"/><rect x="6" y="8.04" width="0.35" height="0.1" fill="none" stroke="#111" stroke-width="1.6"/><rect x="6" y="9.05" width="0.35" height="0.1" fill="none" stroke="#111" stroke-width="1.6"/><rect x="6" y="10.07" width="0.35" height="0.1" fill="none" stroke="#111" stroke-width="1.6"/><rect x="6" y="11.09" width="0.35" height="0.1" fill="none" stroke="#111" stroke-width="1.6"/><rect x="6" y="12.11" width="0.35" height="0.1" fill="none" stroke="#111" stroke-width="1.6"/><rect x="6" y="13.12" width="0.35" height="0.11" fill="none" stroke="#111" stroke-width="1.6"/><rect x="6" y="14.14" width="0.35" height="0.1" fill="none" stroke="#111" stroke-width="1.6"/><rect x="6" y="15.16" width="0.35" height="0.1" fill="none" stroke="#111" stroke-width="1.6"/><rect x="6" y="16.18" width="0.35" height="0.1" fill="none" stroke="#111" stroke-width="1.6"/><rect x="6" y="17.19" width="0.35" height="0.11" fill="none" stroke="#111" stroke-width="1.6"/><rect x="6" y="18.21" width="0.35" height="0.1" fill="none" stroke="#111" stroke-width="1.6"/><rect x="6" y="19.23" width="0.35" height="0.1" fill="none" stroke="#111" stroke-width="1.6"/><rect x="6" y="20.25" width="0.35" height="0.1" fill="none" stroke="#111" stroke-width="1.6"/><rect x="6" y="21.26" width="0.35" height="0.11" fill="none" stroke="#111" stroke-width="1.6"/><rect x="6" y="22.28" width="0.35" height="0.1" fill="none" stroke="#111" stroke-width="1.6"/><rect x="6" y="23.3" width="0.35" height="0.1" fill="none" stroke="#111" stroke-width="1.6"/><rect x="6" y="24.32" width="0.35" height="0.1" fill="none" stroke="#111" stroke-width="1.6"/><rect x="6" y="25.33" width="0.35" height="0.11" fill="none" stroke="#111" stroke-width="1.6"/><rect x="6" y="26.35" width="0.35" height="0.1" fill="none" stroke="#111" stroke-width="1.6"/><rect x="6" y="27.37" width="0.35" height="0.1" fill="none" stroke="#111" stroke-width="1.6"/><rect x="6" y="28.39" width="0.35" height="0.1" fill="none" stroke="#111" stroke-width="1.6"/><rect x="6" y="29.41" width="0.35" height="0.1" fill="none" stroke="#111" stroke-width="1.6"/><rect x="6" y="30.42" width="0.35" height="0.1" fill="none" stroke="#111" stroke-width="1.6"/><rect x="6" y="31.44" width="0.35" height="0.1" fill="none" stroke="#111" stroke-width="1.6"/><rect x="6" y="32.46" width="0.35" height="0.1" fill="none" stroke="#111" stroke-width="1.6"/><rect x="6" y="33.48" width="0.35" height="0.1" fill="none" stroke="#111" stroke-width="1.6"/><rect x="6" y="34.49" width="0.35" height="0.1" fill="none" stroke="#111" stroke-width="1.6"/><rect x="6" y="35.51" width="0.35" height="0.1" fill="none" stroke="#111" stroke-width="1.6"/><rect x="6" y="36.53" width="0.35" height="0.1" fill="none" stroke="#111" stroke-width="1.6"/><rect x="6" y="37.55" width="0.35" height="0.1" fill="none" stroke="#111" stroke-width="1.6"/><rect x="6" y="38.56" width="0.35" height="0.11" fill="none" stroke="#111" stroke-width="1.6"/><rect x="6" y="39.58" width="0.35" height="0.1" fill="none" stroke="#111" stroke-width="1.6"/><rect x="6" y="40.6" width="0.35" height="0.1" fill="none" stroke="#111" stroke-width="1.6"/><rect x="6" y="41.62" width="0.35" height="0.1" fill="none" stroke="#111" stroke-width="1.6"/><rect x="6" y="42.63" width="0.35" height="0.11" fill="none" stroke="#111" stroke-width="1.6"/><rect x="6" y="43.65" width="0.35" height="0.1" fill="none" stroke="#111" stroke-width="1.6"/><rect x="6" y="44.67" width="0.35" height="0.1" fill="none" stroke="#111" stroke-width="1.6"/><rect x="6" y="45.69" width="0.35" height="0.1" fill="none" stroke="#111" stroke-width="1.6"/><rect x="6" y="46.7" width="0.35" height="0.11" fill="none" stroke="#111" stroke-width="1.6"/><rect x="6" y="47.72" width="0.35" height="0.1" fill="none" stroke="#111" stroke-width="1.6"/><rect x="6" y="48.74" width="0.35" height="0.1" fill="none" stroke="#111" stroke-width="1.6"/><rect x="6" y="49.76" width="0.35" height="0.1" fill="none" stroke="#111" stroke-width="1.6"/><rect x="6" y="50.77" width="0.35" height="0.11" fill="none" stroke="#111" stroke-width="1.6"/><rect x="6" y="51.79" width="0.35" height="0.1" fill="none" stroke="#111" stroke-width="1.6"/><rect x="6" y="52.81" width="0.35" height="0.1" fill="none" stroke="#111" stroke-width="1.6"/><rect x="6" y="53.83" width="0.35" height="0.1" fill="none" stroke="#111" stroke-width="1.6"/><rect x="6" y="54.85" width="0.35" height="0.1" fill="none" stroke="#111" stroke-width="1.6"/><rect x="6" y="55.86" width="0.35" height="0.1" fill="none" stroke="#111" stroke-width="1.6"/><rect x="6" y="56.88" width="0.35" height="0.1" fill="none" stroke="#111" stroke-width="1.6"/><rect x="6" y="57.9" width="0.35" height="0.1" fill="none" stroke="#111" stroke-width="1.6"/><polyline points="6.51,6.05 6.35,6.05" fill="none" stroke="#111" stroke-width="1.6" stroke-linecap="round" stroke-linejoin="round"/><polyline points="6.51,7.07 6.35,7.07" fill="none" stroke="#111" stroke-width="1.6" stroke-linecap="round" stroke-linejoin="round"/><polyline points="6.51,8.09 6.35,8.09" fill="none" stroke="#111" stroke-width="1.6" stroke-linecap="round" stroke-linejoin="round"/><polyline points="6.51,9.1 6.35,9.1" fill="none" stroke="#111" stroke-width="1.6" stroke-linecap="round" stroke-linejoin="round"/><polyline points="6.51,10.12 6.35,10.12" fill="none" stroke="#111" stroke-width="1.6" stroke-linecap="round" stroke-linejoin="round"/><polyline points="6.51,11.14 6.35,11.14" fill="none" stroke="#111" stroke-width="1.6" stroke-linecap="round" stroke-linejoin="round"/><polyline points="6.51,12.16 6.35,12.16" fill="none" stroke="#111" stroke-width="1.6" stroke-linecap="round" stroke-linejoin="round"/><polyline points="6.51,13.17 6.35,13.17" fill="none" stroke="#111" stroke-width="1.6" stroke-linecap="round" stroke-linejoin="round"/><polyline points="6.51,14.19 6.35,14.19" fill="none" stroke="#111" stroke-width="1.6" stroke-linecap="round" stroke-linejoin="round"/><polyline points="6.51,15.21 6.35,15.21" fill="none" stroke="#111" stroke-width="1.6" stroke-linecap="round" stroke-linejoin="round"/><polyline points="6.51,16.23 6.35,16.23" fill="none" stroke="#111" stroke-width="1.6" stroke-linecap="round" stroke-linejoin="round"/><polyline points="6.51,17.24 6.35,17.24" fill="none" stroke="#111" stroke-width="1.6" stroke-linecap="round" stroke-linejoin="round"/><polyline points="6.51,18.26 6.35,18.26" fill="none" stroke="#111" stroke-width="1.6" stroke-linecap="round" stroke-linejoin="round"/><polyline points="6.51,19.28 6.35,19.28" fill="none" stroke="#111" stroke-width="1.6" stroke-linecap="round" stroke-linejoin="round"/><polyline points="6.51,20.3 6.35,20.3" fill="none" stroke="#111" stroke-width="1.6" stroke-linecap="round" stroke-linejoin="round"/><polyline points="6.51,21.32 6.35,21.32" fill="none" stroke="#111" stroke-width="1.6" stroke-linecap="round" stroke-linejoin="round"/><polyline points="6.51,22.33 6.35,22.33" fill="none" stroke="#111" stroke-width="1.6" stroke-linecap="round" stroke-linejoin="round"/><polyline points="6.51,23.35 6.35,23.35" fill="none" stroke="#111" stroke-width="1.6" stroke-linecap="round" stroke-linejoin="round"/><polyline points="6.51,24.37 6.35,24.37" fill="none" stroke="#111" stroke-width="1.6" stroke-linecap="round" stroke-linejoin="round"/><polyline points="6.51,25.39 6.35,25.39" fill="none" stroke="#111" stroke-width="1.6" stroke-linecap="round" stroke-linejoin="round"/><polyline points="6.51,26.4 6.35,26.4" fill="none" stroke="#111" stroke-width="1.6" stroke-linecap="round" stroke-linejoin="round"/><polyline points="6.51,27.42 6.35,27.42" fill="none" stroke="#111" stroke-width="1.6" stroke-linecap="round" stroke-linejoin="round"/><polyline points="6.51,28.44 6.35,28.44" fill="none" stroke="#111" stroke-width="1.6" stroke-linecap="round" stroke-linejoin="round"/><polyline points="6.51,29.46 6.35,29.46" fill="none" stroke="#111" stroke-width="1.6" stroke-linecap="round" stroke-linejoin="round"/><polyline points="6.51,30.47 6.35,30.47" fill="none" stroke="#111" stroke-width="1.6" stroke-linecap="round" stroke-linejoin="round"/><polyline points="6.51,31.49 6.35,31.49" fill="none" stroke="#111" stroke-width="1.6" stroke-linecap="round" stroke-linejoin="round"/><polyline points="6.51,32.51 6.35,32.51" fill="none" stroke="#111" stroke-width="1.6" stroke-linecap="round" stroke-linejoin="round"/><polyline points="6.51,33.53 6.35,33.53" fill="none" stroke="#111" stroke-width="1.6" stroke-linecap="round" stroke-linejoin="round"/><polyline points="6.51,34.54 6.35,34.54" fill="none" stroke="#111" stroke-width="1.6" stroke-linecap="round" stroke-linejoin="round"/><polyline points="6.51,35.56 6.35,35.56" fill="none" stroke="#111" stroke-width="1.6" stroke-linecap="round" stroke-linejoin="round"/><polyline points="6.51,36.58 6.35,36.58" fill="none" stroke="#111" stroke-width="1.6" stroke-linecap="round" stroke-linejoin="round"/><polyline points="6.51,37.6 6.35,37.6" fill="none" stroke="#111" stroke-width="1.6" stroke-linecap="round" stroke-linejoin="round"/><polyline points="6.51,38.61 6.35,38.61" fill="none" stroke="#111" stroke-width="1.6" stroke-linecap="round" stroke-linejoin="round"/><polyline points="6.51,39.63 6.35,39.63" fill="none" stroke="#111" stroke-width="1.6" stroke-linecap="round" stroke-linejoin="round"/><polyline points="6.51,40.65 6.35,40.65" fill="none" stroke="#111" stroke-width="1.6" stroke-linecap="round" stroke-linejoin="round"/><polyline points="6.51,41.67 6.35,41.67" fill="none" stroke="#111" stroke-width="1.6" stroke-linecap="round" stroke-linejoin="round"/><polyline points="6.51,42.68 6.35,42.68" fill="none" stroke="#111" stroke-width="1.6" stroke-linecap="round" stroke-linejoin="round"/><polyline points="6.51,43.7 6.35,43.7" fill="none" stroke="#111" stroke-width="1.6" stroke-linecap="round" stroke-linejoin="round"/><polyline points="6.51,44.72 6.35,44.72" fill="none" stroke="#111" stroke-width="1.6" stroke-linecap="round" stroke-linejoin="round"/><polyline points="6.51,45.74 6.35,45.74" fill="none" stroke="#111" stroke-width="1.6" stroke-linecap="round" stroke-linejoin="round"/><polyline points="6.51,46.76 6.35,46.76" fill="none" stroke="#111" stroke-width="1.6" stroke-linecap="round" stroke-linejoin="round"/><polyline points="6.51,47.77 6.35,47.77" fill="none" stroke="#111" stroke-width="1.6" stroke-linecap="round" stroke-linejoin="round"/><polyline points="6.51,48.79 6.35,48.79" fill="none" stroke="#111" stroke-width="1.6" stroke-linecap="round" stroke-linejoin="round"/><polyline points="6.51,49.81 6.35,49.81" fill="none" stroke="#111" stroke-width="1.6" stroke-linecap="round" stroke-linejoin="round"/><polyline points="6.51,50.83 6.35,50.83" fill="none" stroke="#111" stroke-width="1.6" stroke-linecap="round" stroke-linejoin="round"/><polyline points="6.51,51.84 6.35,51.84" fill="none" stroke="#111" stroke-width="1.6" stroke-linecap="round" stroke-linejoin="round"/><polyline points="6.51,52.86 6.35,52.86" fill="none" stroke="#111" stroke-width="1.6" stroke-linecap="round" stroke-linejoin="round"/><polyline points="6.51,53.88 6.35,53.88" fill="none" stroke="#111" stroke-width="1.6" stroke-linecap="round" stroke-linejoin="round"/><polyline points="6.51,54.9 6.35,54.9" fill="none" stroke="#111" stroke-width="1.6" stroke-linecap="round" stroke-linejoin="round"/><polyline points="6.51,55.91 6.35,55.91" fill="none" stroke="#111" stroke-width="1.6" stroke-linecap="round" stroke-linejoin="round"/><polyline points="6.51,56.93 6.35,56.93" fill="none" stroke="#111" stroke-width="1.6" stroke-linecap="round" stroke-linejoin="round"/><polyline points="6.51,57.95 6.35,57.95" fill="none" stroke="#111" stroke-width="1.6" stroke-linecap="round" stroke-linejoin="round"/></svg>