<svg xmlns="http://www.w3.org/2000/svg" width="96" height="64" viewBox="0 0 96 64"><polyline points="6,6.18 6.27,6.18" fill="none" stroke="#111" stroke-width="1.6" stroke-linecap="round" stroke-linejoin="round"/><polyline points="6,7.07 6.27,7.07" fill="none" stroke="#111" stroke-width="1.6" stroke-linecap="round" stroke-linejoin="round"/><polyline points="6,7.96 6.27,7.96" fill="none" stroke="#111" stroke-width="1.6" stroke-linecap="round" stroke-linejoin="round"/><polyline points="6,8.85 6.27,8.85" fill="none" stroke="#111" stroke-width="1.6" stroke-linecap="round" stroke-linejoin="round"/><polyline points="6,9.74 6.27,9.74" fill="none" stroke="#111" stroke-width="1.6" stroke-linecap="round" stroke-linejoin="round"/><polyline points="6,10.63 6.27,10.63" fill="none" stroke="#111" stroke-width="1.6" stroke-linecap="round" stroke-linejoin="round"/><polyline points="6,11.52 6.27,11.52" fill="none" stroke="#111" stroke-width="1.6" stroke-linecap="round" stroke-linejoin="round"/><polyline points="6,12.41 6.27,12.41" fill="none" stroke="#111" stroke-width="1.6" stroke-linecap="round" stroke-linejoin="round"/><polyline points="6,13.3 6.27,13.3" fill="none" stroke="#111" stroke-width="1.6" stroke-linecap="round" stroke-linejoin="round"/><polyline points="6,14.19 6.27,14.19" fill="none" stroke="#111" stroke-width="1.6" stroke-linecap="round" stroke-linejoin="round"/><polyline points="6,15.08 6.27,15.08" fill="none" stroke="#111" stroke-width="1.6" stroke-linecap="round" stroke-linejoin="round"/><polyline points="6,15.97 6.27,15.97" fill="none" stroke="#111" stroke-width="1.6" stroke-linecap="round" stroke-linejoin="round"/><polyline points="6,16.86 6.27,16.86" fill="none" stroke="#111" stroke-width="1.6" stroke-linecap="round" stroke-linejoin="round"/><polyline points="6,17.75 6.27,17.75" fill="none" stroke="#111" stroke-width="1.6" stroke-linecap="round" stroke-linejoin="round"/><polyline points="6,18.64 6.27,18.64" fill="none" stroke="#111" stroke-width="1.6" stroke-linecap="round" stroke-linejoin="round"/><polyline points="6,19.53 6.27,19.53" fill="none" stroke="#111" stroke-width="1.6" stroke-linecap="round" stroke-linejoin="round"/><polyline points="6,20.42 6.27,20.42" fill="none" stroke="#111" stroke-width="1.6" stroke-linecap="round" stroke-linejoin="round"/><polyline points="6,21.32 6.27,21.32" fill="none" stroke="#111" stroke-width="1.6" stroke-linecap="round" stroke-linejoin="round"/><polyline points="6,22.21 6.27,22.21" fill="none" stroke="#111" stroke-width="1.6" stroke-linecap="round" stroke-linejoin="round"/><polyline points="6,23.1 6.27,23.1" fill="none" stroke="#111" stroke-width="1.6" stroke-linecap="round" stroke-linejoin="round"/><polyline points="6,23.99 6.27,23.99" fill="none" stroke="#111" stroke-width="1.6" stroke-linecap="round" stroke-linejoin="round"/><polyline points="6,24.88 6.27,24.88" fill="none" stroke="#111" stroke-width="1.6" stroke-linecap="round" stroke-linejoin="round"/><polyline points="6,25.77 6.27,25.77" fill="none" stroke="#111" stroke-width="1.6" stroke-linecap="round" stroke-linejoin="round"/><polyline points="6,26.66 6.27,26.66" fill="none" stroke="#111" stroke-width="1.6" stroke-linecap="round" stroke-linejoin="round"/><polyline points="6,27.55 6.27,27.55" fill="none" stroke="#111" stroke-width="1.6" stroke-linecap="round" stroke-linejoin="round"/><polyline points="6,28.44 6.27,28.44" fill="none" stroke="#111" stroke-width="1.6" stroke-linecap="round" stroke-linejoin="round"/><polyline points="6,29.33 6.27,29.33" fill="none" stroke="#111" stroke-width="1.6" stroke-linecap="round" stroke-linejoin="round"/><polyline points="6,30.22 6.27,30.22" fill="none" stroke="#111" stroke-width="1.6" stroke-linecap="round" stroke-linejoin="round"/><polyline points="6,31.11 6.27,31.11" fill="none" stroke="#111" stroke-width="1.6" stroke-linecap="round" stroke-linejoin="round"/><polyline points="6,32 6.27,32" fill="none" stroke="#111" stroke-width="1.6" stroke-linecap="round" stroke-linejoin="round"/><polyline points="6,32.89 6.27,32.89" fill="none" stroke="#111" stroke-width="1.6" stroke-linecap="round" stroke-linejoin="round"/><polyline points="6,33.78 6.27,33.78" fill="none" stroke="#111" stroke-width="1.6" stroke-linecap="round" stroke-linejoin="round"/><polyline points="6,34.67 6.27,34.67" fill="none" stroke="#111" stroke-width="1.6" stroke-linecap="round" stroke-linejoin="round"/><polyline points="6,35.56 6.27,35.56" fill="none" stroke="#111" stroke-width="1.6" stroke-linecap="round" stroke-linejoin="round"/><polyline points="6,36.45 6.27,36.45" fill="none" stroke="#111" stroke-width="1.6" stroke-linecap="round" stroke-linejoin="round"/><polyline points="6,37.34 6.27,37.34" fill="none" stroke="#111" stroke-width="1.6" stroke-linecap="round" stroke-linejoin="round"/><polyline points="6,38.23 6.27,38.23" fill="none" stroke="#111" stroke-width="1.6" stroke-linecap="round" stroke-linejoin="round"/><polyline points="6,39.12 6.27,39.12" fill="none" stroke="#111" stroke-width="1.6" stroke-linecap="round" stroke-linejoin="round"/><polyline points="6,40.01 6.27,40.01" fill="none" stroke="#111" stroke-width="1.6" stroke-linecap="round" stroke-linejoin="round"/><polyline points="6,40.9 6.27,40.9" fill="none" stroke="#111" stroke-width="1.6" stroke-linecap="round" stroke-linejoin="round"/><polyline points="6,41.79 6.27,41.79" fill="none" stroke="#111" stroke-width="1.6" stroke-linecap="round" stroke-linejoin="round"/><polyline points="6,42.68 6.27,42.68" fill="none" stroke="#111" stroke-width="1.6" stroke-linecap="round" stroke-linejoin="round"/><polyline points="6,43.58 6.27,43.58" fill="none" stroke="#111" stroke-width="1.6" stroke-linecap="round" stroke-linejoin="round"/><polyline points="6,44.47 6.27,44.47" fill="none" stroke="#111" stroke-width="1.6" stroke-linecap="round" stroke-linejoin="round"/><polyline points="6,45.36 6.27,45.36" fill="none" stroke="#111" stroke-width="1.6" stroke-linecap="round" stroke-linejoin="round"/><polyline points="6,46.25 6.27,46.25" fill="none" stroke="#111" stroke-width="1.6" stroke-linecap="round" stroke-linejoin="round"/><polyline points="6,47.14 6.27,47.14" fill="none" stroke="#111" stroke-width="1.6" stroke-linecap="round" stroke-linejoin="round"/><polyline points="6,48.03 6.27,48.03" fill="none" stroke="#111" stroke-width="1.6" stroke-linecap="round" stroke-linejoin="round"/><polyline points="6,48.92 6.27,48.92" fill="none" stroke="#111" stroke-width="1.6" stroke-linecap="round" stroke-linejoin="round"/><polyline points="6,49.81 6.27,49.81" fill="none" stroke="#111" stroke-width="1.6" stroke-linecap="round" stroke-linejoin="round"/><polyline points="6,50.7 6.27,50.7" fill="none" stroke="#111" stroke-width="1.6" stroke-linecap="round" stroke-linejoin="round"/><polyline points="6,51.59 6.27,51.59" fill="none" stroke="#111" stroke-width="1.6" stroke-linecap="round" stroke-linejoin="round"/><polyline points="6,52.48 6.27,52.48" fill="none" stroke="#111" stroke-width="1.6" stroke-linecap="round" stroke-linejoin="round"/><polyline points="6,53.37 6.27,53.37" fill="none" stroke="#111" stroke-width="1.6" stroke-linecap="round" stroke-linejoin="round"/><polyline points="6,54.26 6.27,54.26" fill="none" stroke="#111" stroke-width="1.6" stroke-linecap="round" stroke-linejoin="round"/><polyline points="6,55.15 6.27,55.15" fill="none" stroke="#111" stroke-width="1.6" stroke-linecap="round" stroke-linejoin="round"/><polyline points="6,56.04 6.27,56.04" fill="none" stroke="#111" stroke-width="1.6" stroke-linecap="round" stroke-linejoin="round"/><polyline points="6,56.93 6.27,56.93" fill="none" stroke="#111" stroke-width="1.6" stroke-linecap="round" stroke-linejoin="round"/><polyline points="6,57.82 6.27,57.82" fill="none" stroke="#111" stroke-width="1.6" stroke-linecap="round" stroke-linejoin="round"/><path d="M 6.45 6.36 Q 6.27 6.18 6.45 6" fill="none" stroke="#111" stroke-width="1.6" stroke-linecap="round"/><path d="M 6.45 7.25 Q 6.27 7.07 6.45 6.89" fill="none" stroke="#111" stroke-width="1.6" stroke-linecap="round"/><path d="M 6.45 8.14 Q 6.27 7.96 6.45 7.78" fill="none" stroke="#111" stroke-width="1.6" stroke-linecap="round"/><path d="M 6.45 9.03 Q 6.27 8.85 6.45 8.67" fill="none" stroke="#111" stroke-width="1.6" stroke-linecap="round"/><path d="M 6.45 9.92 Q 6.27 9.74 6.45 9.56" fill="none" stroke="#111" stroke-width="1.6" stroke-linecap="round"/><path d="M 6.45 10.81 Q 6.27 10.63 6.45 10.45" fill="none" stroke="#111" stroke-width="1.6" stroke-linecap="round"/><path d="M 6.45 11.7 Q 6.27 11.52 6.45 11.34" fill="none" stroke="#111" stroke-width="1.6" stroke-linecap="round"/><path d="M 6.45 12.59 Q 6.27 12.41 6.45 12.23" fill="none" stroke="#111" stroke-width="1.6" stroke-linecap="round"/><path d="M 6.45 13.48 Q 6.27 13.3 6.45 13.12" fill="none" stroke="#111" stroke-width="1.6" stroke-linecap="round"/><path d="M 6.45 14.37 Q 6.27 14.19 6.45 14.01" fill="none" stroke="#111" stroke-width="1.6" stroke-linecap="round"/><path d="M 6.45 15.26 Q 6.27 15.08 6.45 14.9" fill="none" stroke="#111" stroke-width="1.6" stroke-linecap="round"/><path d="M 6.45 16.15 Q 6.27 15.97 6.45 15.79" fill="none" stroke="#111" stroke-width="1.6" stroke-linecap="round"/><path d="M 6.45 17.04 Q 6.27 16.86 6.45 16.68" fill="none" stroke="#111" stroke-width="1.6" stroke-linecap="round"/><path d="M 6.45 17.93 Q 6.27 17.75 6.45 17.58" fill="none" stroke="#111" stroke-width="1.6" stroke-linecap="round"/><path d="M 6.45 18.82 Q 6.27 18.64 6.45 18.47" fill="none" stroke="#111" stroke-width="1.6" stroke-linecap="round"/><path d="M 6.45 19.71 Q 6.27 19.53 6.45 19.36" fill="none" stroke="#111" stroke-width="1.6" stroke-linecap="round"/><path d="M 6.45 20.6 Q 6.27 20.42 6.45 20.25" fill="none" stroke="#111" stroke-width="1.6" stroke-linecap="round"/><path d="M 6.45 21.49 Q 6.27 21.32 6.45 21.14" fill="none" stroke="#111" stroke-width="1.6" stroke-linecap="round"/><path d="M 6.45 22.38 Q 6.27 22.21 6.45 22.03" fill="none" stroke="#111" stroke-width="1.6" stroke-linecap="round"/><path d="M 6.45 23.27 Q 6.27 23.1 6.45 22.92" fill="none" stroke="#111" stroke-width="1.6" stroke-linecap="round"/><path d="M 6.45 24.16 Q 6.27 23.99 6.45 23.81" fill="none" stroke="#111" stroke-width="1.6" stroke-linecap="round"/><path d="M 6.45 25.05 Q 6.27 24.88 6.45 24.7" fill="none" stroke="#111" stroke-width="1.6" stroke-linecap="round"/><path d="M 6.45 25.95 Q 6.27 25.77 6.45 25.59" fill="none" stroke="#111" stroke-width="1.6" stroke-linecap="round"/><path d="M 6.45 26.84 Q 6.27 26.66 6.45 26.48" fill="none" stroke="#111" stroke-width="1.6" stroke-linecap="round"/><path d="M 6.45 27.73 Q 6.27 27.55 6.45 27.37" fill="none" stroke="#111" stroke-width="1.6" stroke-linecap="round"/><path d="M 6.45 28.62 Q 6.27 28.44 6.45 28.26" fill="none" stroke="#111" stroke-width="1.6" stroke-linecap="round"/><path d="M 6.45 29.51 Q 6.27 29.33 6.45 29.15" fill="none" stroke="#111" stroke-width="1.6" stroke-linecap="round"/><path d="M 6.45 30.4 Q 6.27 30.22 6.45 30.04" fill="none" stroke="#111" stroke-width="1.6" stroke-linecap="round"/><path d="M 6.45 31.29 Q 6.27 31.11 6.45 30.93" fill="none" stroke="#111" stroke-width="1.6" stroke-linecap="round"/><path d="M 6.45 32.18 Q 6.27 32 6.45 31.82" fill="none" stroke="#111" stroke-width="1.6" stroke-linecap="round"/><path d="M 6.45 33.07 Q 6.27 32.89 6.45 32.71" fill="none" stroke="#111" stroke-width="1.6" stroke-linecap="round"/><path d="M 6.45 33.96 Q 6.27 33.78 6.45 33.6" fill="none" stroke="#111" stroke-width="1.6" stroke-linecap="round"/><path d="M 6.45 34.85 Q 6.27 34.67 6.45 34.49" fill="none" stroke="#111" stroke-width="1.6" stroke-linecap="round"/><path d="M 6.45 35.74 Q 6.27 35.56 6.45 35.38" fill="none" stroke="#111" stroke-width="1.6" stroke-linecap="round"/><path d="M 6.45 36.63 Q 6.27 36.45 6.45 36.27" fill="none" stroke="#111" stroke-width="1.6" stroke-linecap="round"/><path d="M 6.45 37.52 Q 6.27 37.34 6.45 37.16" fill="none" stroke="#111" stroke-width="1.6" stroke-linecap="round"/><path d="M 6.45 38.41 Q 6.27 38.23 6.45 38.05" fill="none" stroke="#111" stroke-width="1.6" stroke-linecap="round"/><path d="M 6.45 39.3 Q 6.27 39.12 6.45 38.95" fill="none" stroke="#111" stroke-width="1.6" stroke-linecap="round"/><path d="M 6.45 40.19 Q 6.27 40.01 6.45 39.84" fill="none" stroke="#111" stroke-width="1.6" stroke-linecap="round"/><path d="M 6.45 41.08 Q 6.27 40.9 6.45 40.73" fill="none" stroke="#111" stroke-width="1.6" stroke-linecap="round"/><path d="M 6.45 41.97 Q 6.27 41.79 6.45 41.62" fill="none" stroke="#111" stroke-width="1.6" stroke-linecap="round"/><path d="M 6.45 42.86 Q 6.27 42.68 6.45 42.51" fill="none" stroke="#111" stroke-width="1.6" stroke-linecap="round"/><path d="M 6.45 43.75 Q 6.27 43.58 6.45 43.4" fill="none" stroke="#111" stroke-width="1.6" stroke-linecap="round"/><path d="M 6.45 44.64 Q 6.27 44.47 6.45 44.29" fill="none" stroke="#111" stroke-width="1.6" stroke-linecap="round"/><path d="M 6.45 45.53 Q 6.27 45.36 6.45 45.18" fill="none" stroke="#111" stroke-width="1.6" stroke-linecap="round"/><path d="M 6.45 46.42 Q 6.27 46.25 6.45 46.07" fill="none" stroke="#111" stroke-width="1.6" stroke-linecap="round"/><path d="M 6.45 47.32 Q 6.27 47.14 6.45 46.96" fill="none" stroke="#111" stroke-width="1.6" stroke-linecap="round"/><path d="M 6.45 48.21 Q 6.27 48.03 6.45 47.85" fill="none" stroke="#111" stroke-width="1.6" stroke-linecap="round"/><path d="M 6.45 49.1 Q 6.27 48.92 6.45 48.74" fill="none" stroke="#111" stroke-width="1.6" stroke-linecap="round"/><path d="M 6.45 49.99 Q 6.27 49.81 6.45 49.63" fill="none" stroke="#111" stroke-width="1.6" stroke-linecap="round"/><path d="M 6.45 50.88 Q 6.27 50.7 6.45 50.52" fill="none" stroke="#111" stroke-width="1.6" stroke-linecap="round"/><path d="M 6.45 51.77 Q 6.27 51.59 6.45 51.41" fill="none" stroke="#111" stroke-width="1.6" stroke-linecap="round"/><path d="M 6.45 52.66 Q 6.27 52.48 6.45 52.3" fill="none" stroke="#111" stroke-width="1.6" stroke-linecap="round"/><path d="M 6.45 53.55 Q 6.27 53.37 6.45 53.19" fill="none" stroke="#111" stroke-width="1.6" stroke-linecap="round"/><path d="M 6.45 54.44 Q 6.27 54.26 6.45 54.08" fill="none" stroke="#111" stroke-width="1.6" stroke-linecap="round"/><path d="M 6.45 55.33 Q 6.27 55.15 6.45 54.97" fill="none" stroke="#111" stroke-width="1.6" stroke-linecap="round"/><path d="M 6.45 56.22 Q 6.27 56.04 6.45 55.86" fill="none" stroke="#111" stroke-width="1.6" stroke-linecap="round"/><path d="M 6.45 57.11 Q 6.27 56.93 6.45 56.75" fill="none" stroke="#111" stroke-width="1.6" stroke-linecap="round"/><path d="M 6.45 58 Q 6.27 57.82 6.45 57.64" fill="none" stroke="#111" stroke-width="1.6" stroke-linecap="round"/></svg>