<svg xmlns="http://www.w3.org/2000/svg" width="96" height="64" viewBox="0 0 96 64"><polyline points="6,35.25 10.88,35.25" fill="none" stroke="#111" stroke-width="1.6" stroke-linecap="round" stroke-linejoin="round"/><circle cx="12.5" cy="35.25" r="1.62" fill="none" stroke="#111" stroke-width="1.6"/><polyline points="12.89,33.56 15.49,19" fill="none" stroke="#111" stroke-width="1.6" stroke-linecap="round" stroke-linejoin="round"/><circle cx="15.75" cy="17.38" r="1.62" fill="none" stroke="#111" stroke-width="1.6"/><path d="M 19.81 29.56 Q 22.64 34.1 21.44 39.31" fill="none" stroke="#111" stroke-width="1.6" stroke-linecap="round"/><polyline points="21.44,39.31 21.44,37.04" fill="none" stroke="#111" stroke-width="1.6" stroke-linecap="round" stroke-linejoin="round"/><polyline points="21.44,39.31 21.44,39.31" fill="none" stroke="#111" stroke-width="1.6" stroke-linecap="round" stroke-linejoin="round"/><polyline points="21.44,39.31 23.39,38.01" fill="none" stroke="#111" stroke-width="1.6" stroke-linecap="round" stroke-linejoin="round"/><circle cx="22.25" cy="19" r="1.62" fill="none" stroke="#111" stroke-width="1.6"/><circle cx="22.25" cy="51.5" r="1.62" fill="none" stroke="#111" stroke-width="1.6"/><circle cx="27.12" cy="23.87" r="1.62" fill="none" stroke="#111" stroke-width="1.6"/><circle cx="27.12" cy="46.62" r="1.62" fill="none" stroke="#111" stroke-width="1.6"/><circle cx="32" cy="28.75" r="1.62" fill="none" stroke="#111" stroke-width="1.6"/><circle cx="32" cy="41.75" r="1.62" fill="none" stroke="#111" stroke-width="1.6"/><circle cx="33.62" cy="35.25" r="1.62" fill="none" stroke="#111" stroke-width="1.6"/><polyline points="38.5,15.75 22.25,15.75 22.25,15.75 22.25,17.38" fill="none" stroke="#111" stroke-width="1.6" stroke-linecap="round" stroke-linejoin="round"/><polyline points="38.5,22.25 32,22.25 32,23.87 28.75,23.87" fill="none" stroke="#111" stroke-width="1.6" stroke-linecap="round" stroke-linejoin="round"/><polyline points="38.5,28.75 33.62,28.75" fill="none" stroke="#111" stroke-width="1.6" stroke-linecap="round" stroke-linejoin="round"/><polyline points="38.5,35.25 35.25,35.25" fill="none" stroke="#111" stroke-width="1.6" stroke-linecap="round" stroke-linejoin="round"/><polyline points="38.5,41.75 33.62,41.75" fill="none" stroke="#111" stroke-width="1.6" stroke-linecap="round" stroke-linejoin="round"/><polyline points="38.5,48.25 32,48.25 32,46.62 28.75,46.62" fill="none" stroke="#111" stroke-width="1.6" stroke-linecap="round" stroke-linejoin="round"/><polyline points="38.5,54.75 27.12,54.75 27.12,51.5 23.88,51.5" fill="none" stroke="#111" stroke-width="1.6" stroke-linecap="round" stroke-linejoin="round"/><polyline points="6,6 38.5,6 38.5,58 6,58 6,6 6,6" fill="none" stroke="#111" stroke-width="1.6" stroke-linecap="round" stroke-linejoin="round"/><polyline points="38.5,9.25 15.75,9.25 15.75,15.75" fill="none" stroke="#111" stroke-width="1.6" stroke-linecap="round" stroke-linejoin="round"/></svg>