<svg xmlns="http://www.w3.org/2000/svg" width="96" height="64" viewBox="0 0 96 64"><rect x="6" y="6" width="78" height="52" fill="none" stroke="#111" stroke-width="1.6"/><polyline points="6,32 8.6,32 8.6,8.6 19,8.6" fill="none" stroke="#111" stroke-width="1.6" stroke-linecap="round" stroke-linejoin="round"/><circle cx="19" cy="8.6" r="1.3" fill="none" stroke="#111" stroke-width="1.6"/><polyline points="19,26.8 13.8,37.2 24.2,37.2 19,26.8" fill="none" stroke="#111" stroke-width="1.6" stroke-linecap="round" stroke-linejoin="round"/><polyline points="22.9,26.8 13.8,26.8 13.8,29.4" fill="none" stroke="#111" stroke-width="1.6" stroke-linecap="round" stroke-linejoin="round"/><circle cx="32" cy="8.6" r="1.3" fill="none" stroke="#111" stroke-width="1.6"/><polyline points="32,8.6 32,55.4" fill="none" stroke="#111" stroke-width="1.6" stroke-linecap="round" stroke-linejoin="round"/><polyline points="32,11.2 29.4,16.4 34.6,16.4 32,11.2" fill="none" stroke="#111" stroke-width="1.6" stroke-linecap="round" stroke-linejoin="round"/><circle cx="32" cy="19" r="1.3" fill="none" stroke="#111" stroke-width="1.6"/><polyline points="32,19 64.5,19" fill="none" stroke="#111" stroke-width="1.6" stroke-linecap="round" stroke-linejoin="round"/><polyline points="32,21.6 29.4,26.8 34.6,26.8 32,21.6" fill="none" stroke="#111" stroke-width="1.6" stroke-linecap="round" stroke-linejoin="round"/><circle cx="32" cy="55.4" r="1.3" fill="none" stroke="#111" stroke-width="1.6"/><polyline points="34.6,11.2 29.4,11.2" fill="none" stroke="#111" stroke-width="1.6" stroke-linecap="round" stroke-linejoin="round"/><polyline points="34.6,21.6 29.4,21.6" fill="none" stroke="#111" stroke-width="1.6" stroke-linecap="round" stroke-linejoin="round"/><circle cx="45" cy="8.6" r="1.3" fill="none" stroke="#111" stroke-width="1.6"/><polyline points="45,24.2 42.4,29.4 47.6,29.4 45,24.2" fill="none" stroke="#111" stroke-width="1.6" stroke-linecap="round" stroke-linejoin="round"/><polyline points="45,32 64.5,32" fill="none" stroke="#111" stroke-width="1.6" stroke-linecap="round" stroke-linejoin="round"/><circle cx="45" cy="32" r="1.3" fill="none" stroke="#111" stroke-width="1.6"/><polyline points="45,34.6 42.4,39.8 47.6,39.8 45,34.6" fill="none" stroke="#111" stroke-width="1.6" stroke-linecap="round" stroke-linejoin="round"/><circle cx="45" cy="55.4" r="1.3" fill="none" stroke="#111" stroke-width="1.6"/><polyline points="45,58 45,8.6" fill="none" stroke="#111" stroke-width="1.6" stroke-linecap="round" stroke-linejoin="round"/><polyline points="47.6,24.2 42.4,24.2" fill="none" stroke="#111" stroke-width="1.6" stroke-linecap="round" stroke-linejoin="round"/><polyline points="47.6,34.6 42.4,34.6" fill="none" stroke="#111" stroke-width="1.6" stroke-linecap="round" stroke-linejoin="round"/><polyline points="58,37.2 55.4,42.4 60.6,42.4 58,37.2" fill="none" stroke="#111" stroke-width="1.6" stroke-linecap="round" stroke-linejoin="round"/><polyline points="58,45 64.5,45" fill="none" stroke="#111" stroke-width="1.6" stroke-linecap="round" stroke-linejoin="round"/><circle cx="58" cy="45" r="1.3" fill="none" stroke="#111" stroke-width="1.6"/><polyline points="58,47.6 55.4,52.8 60.6,52.8 58,47.6" fill="none" stroke="#111" stroke-width="1.6" stroke-linecap="round" stroke-linejoin="round"/><rect x="19" y="8.6" width="39" height="46.8" fill="none" stroke="#111" stroke-width="1.6"/><polyline points="60.6,37.2 55.4,37.2" fill="none" stroke="#111" stroke-width="1.6" stroke-linecap="round" stroke-linejoin="round"/><polyline points="60.6,47.6 55.4,47.6" fill="none" stroke="#111" stroke-width="1.6" stroke-linecap="round" stroke-linejoin="round"/></svg>