<svg xmlns="http://www.w3.org/2000/svg" width="96" height="64" viewBox="0 0 96 64"><polyline points="6,6.68 7.01,6.68" fill="none" stroke="#111" stroke-width="1.6" stroke-linecap="round" stroke-linejoin="round"/><polyline points="6,10.05 7.01,10.05" fill="none" stroke="#111" stroke-width="1.6" stroke-linecap="round" stroke-linejoin="round"/><polyline points="6,13.43 7.01,13.43" fill="none" stroke="#111" stroke-width="1.6" stroke-linecap="round" stroke-linejoin="round"/><polyline points="6,16.81 7.01,16.81" fill="none" stroke="#111" stroke-width="1.6" stroke-linecap="round" stroke-linejoin="round"/><polyline points="6,20.18 7.01,20.18" fill="none" stroke="#111" stroke-width="1.6" stroke-linecap="round" stroke-linejoin="round"/><polyline points="6,23.56 7.01,23.56" fill="none" stroke="#111" stroke-width="1.6" stroke-linecap="round" stroke-linejoin="round"/><polyline points="6,26.94 7.01,26.94" fill="none" stroke="#111" stroke-width="1.6" stroke-linecap="round" stroke-linejoin="round"/><polyline points="6,30.31 7.01,30.31" fill="none" stroke="#111" stroke-width="1.6" stroke-linecap="round" stroke-linejoin="round"/><polyline points="6,33.69 7.01,33.69" fill="none" stroke="#111" stroke-width="1.6" stroke-linecap="round" stroke-linejoin="round"/><polyline points="6,37.06 7.01,37.06" fill="none" stroke="#111" stroke-width="1.6" stroke-linecap="round" stroke-linejoin="round"/><polyline points="6,40.44 7.01,40.44" fill="none" stroke="#111" stroke-width="1.6" stroke-linecap="round" stroke-linejoin="round"/><polyline points="6,43.82 7.01,43.82" fill="none" stroke="#111" stroke-width="1.6" stroke-linecap="round" stroke-linejoin="round"/><polyline points="6,47.19 7.01,47.19" fill="none" stroke="#111" stroke-width="1.6" stroke-linecap="round" stroke-linejoin="round"/><polyline points="6,50.57 7.01,50.57" fill="none" stroke="#111" stroke-width="1.6" stroke-linecap="round" stroke-linejoin="round"/><polyline points="6,53.95 7.01,53.95" fill="none" stroke="#111" stroke-width="1.6" stroke-linecap="round" stroke-linejoin="round"/><polyline points="6,57.32 7.01,57.32" fill="none" stroke="#111" stroke-width="1.6" stroke-linecap="round" stroke-linejoin="round"/><path d="M 7.69 7.35 Q 7.02 6.68 7.69 6" fill="none" stroke="#111" stroke-width="1.6" stroke-linecap="round"/><path d="M 7.69 10.73 Q 7.02 10.05 7.69 9.38" fill="none" stroke="#111" stroke-width="1.6" stroke-linecap="round"/><path d="M 7.69 14.1 Q 7.02 13.43 7.69 12.75" fill="none" stroke="#111" stroke-width="1.6" stroke-linecap="round"/><path d="M 7.69 17.48 Q 7.02 16.81 7.69 16.13" fill="none" stroke="#111" stroke-width="1.6" stroke-linecap="round"/><path d="M 7.69 20.86 Q 7.02 20.18 7.69 19.51" fill="none" stroke="#111" stroke-width="1.6" stroke-linecap="round"/><path d="M 7.69 24.23 Q 7.02 23.56 7.69 22.88" fill="none" stroke="#111" stroke-width="1.6" stroke-linecap="round"/><path d="M 7.69 27.61 Q 7.02 26.94 7.69 26.26" fill="none" stroke="#111" stroke-width="1.6" stroke-linecap="round"/><path d="M 7.69 30.99 Q 7.02 30.31 7.69 29.64" fill="none" stroke="#111" stroke-width="1.6" stroke-linecap="round"/><path d="M 7.69 34.36 Q 7.02 33.69 7.69 33.01" fill="none" stroke="#111" stroke-width="1.6" stroke-linecap="round"/><path d="M 7.69 37.74 Q 7.02 37.06 7.69 36.39" fill="none" stroke="#111" stroke-width="1.6" stroke-linecap="round"/><path d="M 7.69 41.12 Q 7.02 40.44 7.69 39.77" fill="none" stroke="#111" stroke-width="1.6" stroke-linecap="round"/><path d="M 7.69 44.49 Q 7.02 43.82 7.69 43.14" fill="none" stroke="#111" stroke-width="1.6" stroke-linecap="round"/><path d="M 7.69 47.87 Q 7.02 47.19 7.69 46.52" fill="none" stroke="#111" stroke-width="1.6" stroke-linecap="round"/><path d="M 7.69 51.25 Q 7.02 50.57 7.69 49.9" fill="none" stroke="#111" stroke-width="1.6" stroke-linecap="round"/><path d="M 7.69 54.62 Q 7.02 53.95 7.69 53.27" fill="none" stroke="#111" stroke-width="1.6" stroke-linecap="round"/><path d="M 7.69 58 Q 7.02 57.32 7.69 56.65" fill="none" stroke="#111" stroke-width="1.6" stroke-linecap="round"/></svg>