<svg xmlns="http://www.w3.org/2000/svg" width="96" height="64" viewBox="0 0 96 64"><rect x="6" y="6" width="84" height="45.82" fill="none" stroke="#111" stroke-width="1.6"/><polyline points="13.64,23.56 14.78,20.13 12.49,20.13 13.64,23.56" fill="none" stroke="#111" stroke-width="1.6" stroke-linecap="round" stroke-linejoin="round"/><polyline points="13.64,26.62 13.64,18.22" fill="none" stroke="#111" stroke-width="1.6" stroke-linecap="round" stroke-linejoin="round"/><path d="M 13.64 26.62 Q 15.93 28.91 13.64 31.2" fill="none" stroke="#111" stroke-width="1.6" stroke-linecap="round"/><polyline points="13.64,31.2 13.64,34.25" fill="none" stroke="#111" stroke-width="1.6" stroke-linecap="round" stroke-linejoin="round"/><polyline points="21.27,23.56 22.42,20.13 20.13,20.13 21.27,23.56" fill="none" stroke="#111" stroke-width="1.6" stroke-linecap="round" stroke-linejoin="round"/><polyline points="21.27,26.62 21.27,18.22" fill="none" stroke="#111" stroke-width="1.6" stroke-linecap="round" stroke-linejoin="round"/><path d="M 21.27 26.62 Q 23.56 28.91 21.27 31.2" fill="none" stroke="#111" stroke-width="1.6" stroke-linecap="round"/><polyline points="21.27,31.2 21.27,34.25" fill="none" stroke="#111" stroke-width="1.6" stroke-linecap="round" stroke-linejoin="round"/><polyline points="28.91,23.56 30.05,20.13 27.76,20.13 28.91,23.56" fill="none" stroke="#111" stroke-width="1.6" stroke-linecap="round" stroke-linejoin="round"/><polyline points="28.91,26.62 28.91,18.22" fill="none" stroke="#111" stroke-width="1.6" stroke-linecap="round" stroke-linejoin="round"/><path d="M 28.91 26.62 Q 31.2 28.91 28.91 31.2" fill="none" stroke="#111" stroke-width="1.6" stroke-linecap="round"/><polyline points="28.91,31.2 28.91,34.25" fill="none" stroke="#111" stroke-width="1.6" stroke-linecap="round" stroke-linejoin="round"/><polyline points="36.55,23.56 37.69,20.13 35.4,20.13 36.55,23.56" fill="none" stroke="#111" stroke-width="1.6" stroke-linecap="round" stroke-linejoin="round"/><polyline points="36.55,26.62 36.55,18.22" fill="none" stroke="#111" stroke-width="1.6" stroke-linecap="round" stroke-linejoin="round"/><path d="M 36.55 26.62 Q 38.84 28.91 36.55 31.2" fill="none" stroke="#111" stroke-width="1.6" stroke-linecap="round"/><polyline points="36.55,31.2 36.55,34.25" fill="none" stroke="#111" stroke-width="1.6" stroke-linecap="round" stroke-linejoin="round"/><rect x="43.04" y="25.47" width="6.87" height="6.88" fill="none" stroke="#111" stroke-width="1.6"/><polyline points="43.04,25.47 49.91,32.35" fill="none" stroke="#111" stroke-width="1.6" stroke-linecap="round" stroke-linejoin="round"/><polyline points="46.47,25.47 46.47,22.42" fill="none" stroke="#111" stroke-width="1.6" stroke-linecap="round" stroke-linejoin="round"/><polyline points="46.47,35.4 46.47,32.35" fill="none" stroke="#111" stroke-width="1.6" stroke-linecap="round" stroke-linejoin="round"/><polyline points="49.91,25.47 43.04,32.35" fill="none" stroke="#111" stroke-width="1.6" stroke-linecap="round" stroke-linejoin="round"/><polyline points="52.96,28.91 49.91,28.91" fill="none" stroke="#111" stroke-width="1.6" stroke-linecap="round" stroke-linejoin="round"/></svg>