<svg xmlns="http://www.w3.org/2000/svg" width="96" height="64" viewBox="0 0 96 64"><circle cx="29.92" cy="11.2" r="0.52" fill="none" stroke="#111" stroke-width="1.6"/><polyline points="29.92,11.2 29.92,21.6 54.88,21.6 54.88,11.2" fill="none" stroke="#111" stroke-width="1.6" stroke-linecap="round" stroke-linejoin="round"/><circle cx="36.16" cy="11.2" r="0.52" fill="none" stroke="#111" stroke-width="1.6"/><circle cx="36.16" cy="21.6" r="0.52" fill="none" stroke="#111" stroke-width="1.6"/><circle cx="42.4" cy="21.6" r="0.52" fill="none" stroke="#111" stroke-width="1.6"/><circle cx="48.64" cy="11.2" r="0.52" fill="none" stroke="#111" stroke-width="1.6"/><circle cx="48.64" cy="21.6" r="0.52" fill="none" stroke="#111" stroke-width="1.6"/><circle cx="54.88" cy="11.2" r="0.52" fill="none" stroke="#111" stroke-width="1.6"/><rect x="6" y="6" width="72.8" height="52" fill="none" stroke="#111" stroke-width="1.6"/><polyline points="29.92,14.32 32,18.48 27.84,18.48 29.92,14.32" fill="none" stroke="#111" stroke-width="1.6" stroke-linecap="round" stroke-linejoin="round"/><polyline points="32,14.32 27.58,14.32 27.58,15.36" fill="none" stroke="#111" stroke-width="1.6" stroke-linecap="round" stroke-linejoin="round"/><polyline points="34.08,15.88 38.24,15.88" fill="none" stroke="#111" stroke-width="1.6" stroke-linecap="round" stroke-linejoin="round"/><polyline points="36.16,11.2 36.16,15.88" fill="none" stroke="#111" stroke-width="1.6" stroke-linecap="round" stroke-linejoin="round"/><polyline points="36.16,16.92 36.16,21.6" fill="none" stroke="#111" stroke-width="1.6" stroke-linecap="round" stroke-linejoin="round"/><polyline points="38.24,16.92 34.08,16.92" fill="none" stroke="#111" stroke-width="1.6" stroke-linecap="round" stroke-linejoin="round"/><polyline points="39.8,11.2 21.6,11.2" fill="none" stroke="#111" stroke-width="1.6" stroke-linecap="round" stroke-linejoin="round"/><polyline points="39.8,11.2 39.8,12.5 45,12.5 45,9.9 39.8,9.9 39.8,11.2" fill="none" stroke="#111" stroke-width="1.6" stroke-linecap="round" stroke-linejoin="round"/><polyline points="42.4,21.6 42.4,47.6" fill="none" stroke="#111" stroke-width="1.6" stroke-linecap="round" stroke-linejoin="round"/><polyline points="45,11.2 60.6,11.2" fill="none" stroke="#111" stroke-width="1.6" stroke-linecap="round" stroke-linejoin="round"/><polyline points="46.56,15.88 50.72,15.88" fill="none" stroke="#111" stroke-width="1.6" stroke-linecap="round" stroke-linejoin="round"/><polyline points="48.64,11.2 48.64,15.88" fill="none" stroke="#111" stroke-width="1.6" stroke-linecap="round" stroke-linejoin="round"/><polyline points="48.64,16.92 48.64,21.6" fill="none" stroke="#111" stroke-width="1.6" stroke-linecap="round" stroke-linejoin="round"/><polyline points="50.72,16.92 46.56,16.92" fill="none" stroke="#111" stroke-width="1.6" stroke-linecap="round" stroke-linejoin="round"/><polyline points="52.8,15.36 52.8,14.32 56.96,14.32" fill="none" stroke="#111" stroke-width="1.6" stroke-linecap="round" stroke-linejoin="round"/><polyline points="54.88,14.32 52.8,18.48 56.96,18.48 54.88,14.32" fill="none" stroke="#111" stroke-width="1.6" stroke-linecap="round" stroke-linejoin="round"/></svg>