<svg xmlns="http://www.w3.org/2000/svg" width="96" height="64" viewBox="0 0 96 64"><polyline points="6,36.33 10.33,36.33" fill="none" stroke="#111" stroke-width="1.6" stroke-linecap="round" stroke-linejoin="round"/><circle cx="12.5" cy="36.33" r="2.17" fill="none" stroke="#111" stroke-width="1.6"/><polyline points="13.28,34.25 18.31,16.75" fill="none" stroke="#111" stroke-width="1.6" stroke-linecap="round" stroke-linejoin="round"/><path d="M 20.08 28.75 Q 23.86 34.8 22.25 41.75" fill="none" stroke="#111" stroke-width="1.6" stroke-linecap="round"/><circle cx="19" cy="14.67" r="2.17" fill="none" stroke="#111" stroke-width="1.6"/><polyline points="22.25,41.75 22.25,38.72" fill="none" stroke="#111" stroke-width="1.6" stroke-linecap="round" stroke-linejoin="round"/><polyline points="22.25,41.75 22.25,41.75" fill="none" stroke="#111" stroke-width="1.6" stroke-linecap="round" stroke-linejoin="round"/><polyline points="22.25,41.75 24.85,40.02" fill="none" stroke="#111" stroke-width="1.6" stroke-linecap="round" stroke-linejoin="round"/><circle cx="25.5" cy="21.17" r="2.17" fill="none" stroke="#111" stroke-width="1.6"/><circle cx="25.5" cy="51.5" r="2.17" fill="none" stroke="#111" stroke-width="1.6"/><circle cx="32" cy="27.67" r="2.17" fill="none" stroke="#111" stroke-width="1.6"/><circle cx="32" cy="45" r="2.17" fill="none" stroke="#111" stroke-width="1.6"/><circle cx="34.17" cy="36.33" r="2.17" fill="none" stroke="#111" stroke-width="1.6"/><polyline points="40.67,10.33 19,10.33 19,10.33 19,12.5" fill="none" stroke="#111" stroke-width="1.6" stroke-linecap="round" stroke-linejoin="round"/><polyline points="40.67,19 32,19 32,21.17 27.67,21.17" fill="none" stroke="#111" stroke-width="1.6" stroke-linecap="round" stroke-linejoin="round"/><polyline points="40.67,27.67 34.17,27.67" fill="none" stroke="#111" stroke-width="1.6" stroke-linecap="round" stroke-linejoin="round"/><polyline points="40.67,36.33 36.33,36.33" fill="none" stroke="#111" stroke-width="1.6" stroke-linecap="round" stroke-linejoin="round"/><polyline points="40.67,45 34.17,45" fill="none" stroke="#111" stroke-width="1.6" stroke-linecap="round" stroke-linejoin="round"/><polyline points="40.67,53.67 32,53.67 32,51.5 27.67,51.5" fill="none" stroke="#111" stroke-width="1.6" stroke-linecap="round" stroke-linejoin="round"/><polyline points="6,6 40.67,6 40.67,58 6,58 6,6 6,6" fill="none" stroke="#111" stroke-width="1.6" stroke-linecap="round" stroke-linejoin="round"/></svg>