<svg xmlns="http://www.w3.org/2000/svg" width="96" height="64" viewBox="0 0 96 64"><rect x="6" y="6" width="0.38" height="0.11" fill="none" stroke="#111" stroke-width="1.6"/><rect x="6" y="7.13" width="0.38" height="0.11" fill="none" stroke="#111" stroke-width="1.6"/><rect x="6" y="8.26" width="0.38" height="0.11" fill="none" stroke="#111" stroke-width="1.6"/><rect x="6" y="9.38" width="0.38" height="0.12" fill="none" stroke="#111" stroke-width="1.6"/><rect x="6" y="10.51" width="0.38" height="0.11" fill="none" stroke="#111" stroke-width="1.6"/><rect x="6" y="11.64" width="0.38" height="0.11" fill="none" stroke="#111" stroke-width="1.6"/><rect x="6" y="12.77" width="0.38" height="0.11" fill="none" stroke="#111" stroke-width="1.6"/><rect x="6" y="13.9" width="0.38" height="0.11" fill="none" stroke="#111" stroke-width="1.6"/><rect x="6" y="15.02" width="0.38" height="0.12" fill="none" stroke="#111" stroke-width="1.6"/><rect x="6" y="16.15" width="0.38" height="0.11" fill="none" stroke="#111" stroke-width="1.6"/><rect x="6" y="17.28" width="0.38" height="0.11" fill="none" stroke="#111" stroke-width="1.6"/><rect x="6" y="18.41" width="0.38" height="0.11" fill="none" stroke="#111" stroke-width="1.6"/><rect x="6" y="19.54" width="0.38" height="0.11" fill="none" stroke="#111" stroke-width="1.6"/><rect x="6" y="20.66" width="0.38" height="0.12" fill="none" stroke="#111" stroke-width="1.6"/><rect x="6" y="21.79" width="0.38" height="0.11" fill="none" stroke="#111" stroke-width="1.6"/><rect x="6" y="22.92" width="0.38" height="0.11" fill="none" stroke="#111" stroke-width="1.6"/><rect x="6" y="24.05" width="0.38" height="0.11" fill="none" stroke="#111" stroke-width="1.6"/><rect x="6" y="25.18" width="0.38" height="0.11" fill="none" stroke="#111" stroke-width="1.6"/><rect x="6" y="26.3" width="0.38" height="0.12" fill="none" stroke="#111" stroke-width="1.6"/><rect x="6" y="27.43" width="0.38" height="0.11" fill="none" stroke="#111" stroke-width="1.6"/><rect x="6" y="28.56" width="0.38" height="0.11" fill="none" stroke="#111" stroke-width="1.6"/><rect x="6" y="29.69" width="0.38" height="0.11" fill="none" stroke="#111" stroke-width="1.6"/><rect x="6" y="30.82" width="0.38" height="0.11" fill="none" stroke="#111" stroke-width="1.6"/><rect x="6" y="31.94" width="0.38" height="0.12" fill="none" stroke="#111" stroke-width="1.6"/><rect x="6" y="33.07" width="0.38" height="0.11" fill="none" stroke="#111" stroke-width="1.6"/><rect x="6" y="34.2" width="0.38" height="0.11" fill="none" stroke="#111" stroke-width="1.6"/><rect x="6" y="35.33" width="0.38" height="0.11" fill="none" stroke="#111" stroke-width="1.6"/><rect x="6" y="36.46" width="0.38" height="0.11" fill="none" stroke="#111" stroke-width="1.6"/><rect x="6" y="37.58" width="0.38" height="0.12" fill="none" stroke="#111" stroke-width="1.6"/><rect x="6" y="38.71" width="0.38" height="0.11" fill="none" stroke="#111" stroke-width="1.6"/><rect x="6" y="39.84" width="0.38" height="0.11" fill="none" stroke="#111" stroke-width="1.6"/><rect x="6" y="40.97" width="0.38" height="0.11" fill="none" stroke="#111" stroke-width="1.6"/><rect x="6" y="42.1" width="0.38" height="0.11" fill="none" stroke="#111" stroke-width="1.6"/><rect x="6" y="43.22" width="0.38" height="0.12" fill="none" stroke="#111" stroke-width="1.6"/><rect x="6" y="44.35" width="0.38" height="0.11" fill="none" stroke="#111" stroke-width="1.6"/><rect x="6" y="45.48" width="0.38" height="0.11" fill="none" stroke="#111" stroke-width="1.6"/><rect x="6" y="46.61" width="0.38" height="0.11" fill="none" stroke="#111" stroke-width="1.6"/><rect x="6" y="47.74" width="0.38" height="0.11" fill="none" stroke="#111" stroke-width="1.6"/><rect x="6" y="48.86" width="0.38" height="0.12" fill="none" stroke="#111" stroke-width="1.6"/><rect x="6" y="49.99" width="0.38" height="0.11" fill="none" stroke="#111" stroke-width="1.6"/><rect x="6" y="51.12" width="0.38" height="0.11" fill="none" stroke="#111" stroke-width="1.6"/><rect x="6" y="52.25" width="0.38" height="0.11" fill="none" stroke="#111" stroke-width="1.6"/><rect x="6" y="53.38" width="0.38" height="0.11" fill="none" stroke="#111" stroke-width="1.6"/><rect x="6" y="54.5" width="0.38" height="0.12" fill="none" stroke="#111" stroke-width="1.6"/><rect x="6" y="55.63" width="0.38" height="0.11" fill="none" stroke="#111" stroke-width="1.6"/><rect x="6" y="56.76" width="0.38" height="0.11" fill="none" stroke="#111" stroke-width="1.6"/><rect x="6" y="57.89" width="0.38" height="0.11" fill="none" stroke="#111" stroke-width="1.6"/><polyline points="6.56,6.06 6.38,6.06" fill="none" stroke="#111" stroke-width="1.6" stroke-linecap="round" stroke-linejoin="round"/><polyline points="6.56,7.18 6.38,7.18" fill="none" stroke="#111" stroke-width="1.6" stroke-linecap="round" stroke-linejoin="round"/><polyline points="6.56,8.31 6.38,8.31" fill="none" stroke="#111" stroke-width="1.6" stroke-linecap="round" stroke-linejoin="round"/><polyline points="6.56,9.44 6.38,9.44" fill="none" stroke="#111" stroke-width="1.6" stroke-linecap="round" stroke-linejoin="round"/><polyline points="6.56,10.57 6.38,10.57" fill="none" stroke="#111" stroke-width="1.6" stroke-linecap="round" stroke-linejoin="round"/><polyline points="6.56,11.7 6.38,11.7" fill="none" stroke="#111" stroke-width="1.6" stroke-linecap="round" stroke-linejoin="round"/><polyline points="6.56,12.82 6.38,12.82" fill="none" stroke="#111" stroke-width="1.6" stroke-linecap="round" stroke-linejoin="round"/><polyline points="6.56,13.95 6.38,13.95" fill="none" stroke="#111" stroke-width="1.6" stroke-linecap="round" stroke-linejoin="round"/><polyline points="6.56,15.08 6.38,15.08" fill="none" stroke="#111" stroke-width="1.6" stroke-linecap="round" stroke-linejoin="round"/><polyline points="6.56,16.21 6.38,16.21" fill="none" stroke="#111" stroke-width="1.6" stroke-linecap="round" stroke-linejoin="round"/><polyline points="6.56,17.34 6.38,17.34" fill="none" stroke="#111" stroke-width="1.6" stroke-linecap="round" stroke-linejoin="round"/><polyline points="6.56,18.46 6.38,18.46" fill="none" stroke="#111" stroke-width="1.6" stroke-linecap="round" stroke-linejoin="round"/><polyline points="6.56,19.59 6.38,19.59" fill="none" stroke="#111" stroke-width="1.6" stroke-linecap="round" stroke-linejoin="round"/><polyline points="6.56,20.72 6.38,20.72" fill="none" stroke="#111" stroke-width="1.6" stroke-linecap="round" stroke-linejoin="round"/><polyline points="6.56,21.85 6.38,21.85" fill="none" stroke="#111" stroke-width="1.6" stroke-linecap="round" stroke-linejoin="round"/><polyline points="6.56,22.98 6.38,22.98" fill="none" stroke="#111" stroke-width="1.6" stroke-linecap="round" stroke-linejoin="round"/><polyline points="6.56,24.1 6.38,24.1" fill="none" stroke="#111" stroke-width="1.6" stroke-linecap="round" stroke-linejoin="round"/><polyline points="6.56,25.23 6.38,25.23" fill="none" stroke="#111" stroke-width="1.6" stroke-linecap="round" stroke-linejoin="round"/><polyline points="6.56,26.36 6.38,26.36" fill="none" stroke="#111" stroke-width="1.6" stroke-linecap="round" stroke-linejoin="round"/><polyline points="6.56,27.49 6.38,27.49" fill="none" stroke="#111" stroke-width="1.6" stroke-linecap="round" stroke-linejoin="round"/><polyline points="6.56,28.62 6.38,28.62" fill="none" stroke="#111" stroke-width="1.6" stroke-linecap="round" stroke-linejoin="round"/><polyline points="6.56,29.74 6.38,29.74" fill="none" stroke="#111" stroke-width="1.6" stroke-linecap="round" stroke-linejoin="round"/><polyline points="6.56,30.87 6.38,30.87" fill="none" stroke="#111" stroke-width="1.6" stroke-linecap="round" stroke-linejoin="round"/><polyline points="6.56,32 6.38,32" fill="none" stroke="#111" stroke-width="1.6" stroke-linecap="round" stroke-linejoin="round"/><polyline points="6.56,33.13 6.38,33.13" fill="none" stroke="#111" stroke-width="1.6" stroke-linecap="round" stroke-linejoin="round"/><polyline points="6.56,34.26 6.38,34.26" fill="none" stroke="#111" stroke-width="1.6" stroke-linecap="round" stroke-linejoin="round"/><polyline points="6.56,35.38 6.38,35.38" fill="none" stroke="#111" stroke-width="1.6" stroke-linecap="round" stroke-linejoin="round"/><polyline points="6.56,36.51 6.38,36.51" fill="none" stroke="#111" stroke-width="1.6" stroke-linecap="round" stroke-linejoin="round"/><polyline points="6.56,37.64 6.38,37.64" fill="none" stroke="#111" stroke-width="1.6" stroke-linecap="round" stroke-linejoin="round"/><polyline points="6.56,38.77 6.38,38.77" fill="none" stroke="#111" stroke-width="1.6" stroke-linecap="round" stroke-linejoin="round"/><polyline points="6.56,39.9 6.38,39.9" fill="none" stroke="#111" stroke-width="1.6" stroke-linecap="round" stroke-linejoin="round"/><polyline points="6.56,41.02 6.38,41.02" fill="none" stroke="#111" stroke-width="1.6" stroke-linecap="round" stroke-linejoin="round"/><polyline points="6.56,42.15 6.38,42.15" fill="none" stroke="#111" stroke-width="1.6" stroke-linecap="round" stroke-linejoin="round"/><polyline points="6.56,43.28 6.38,43.28" fill="none" stroke="#111" stroke-width="1.6" stroke-linecap="round" stroke-linejoin="round"/><polyline points="6.56,44.41 6.38,44.41" fill="none" stroke="#111" stroke-width="1.6" stroke-linecap="round" stroke-linejoin="round"/><polyline points="6.56,45.54 6.38,45.54" fill="none" stroke="#111" stroke-width="1.6" stroke-linecap="round" stroke-linejoin="round"/><polyline points="6.56,46.66 6.38,46.66" fill="none" stroke="#111" stroke-width="1.6" stroke-linecap="round" stroke-linejoin="round"/><polyline points="6.56,47.79 6.38,47.79" fill="none" stroke="#111" stroke-width="1.6" stroke-linecap="round" stroke-linejoin="round"/><polyline points="6.56,48.92 6.38,48.92" fill="none" stroke="#111" stroke-width="1.6" stroke-linecap="round" stroke-linejoin="round"/><polyline points="6.56,50.05 6.38,50.05" fill="none" stroke="#111" stroke-width="1.6" stroke-linecap="round" stroke-linejoin="round"/><polyline points="6.56,51.18 6.38,51.18" fill="none" stroke="#111" stroke-width="1.6" stroke-linecap="round" stroke-linejoin="round"/><polyline points="6.56,52.3 6.38,52.3" fill="none" stroke="#111" stroke-width="1.6" stroke-linecap="round" stroke-linejoin="round"/><polyline points="6.56,53.43 6.38,53.43" fill="none" stroke="#111" stroke-width="1.6" stroke-linecap="round" stroke-linejoin="round"/><polyline points="6.56,54.56 6.38,54.56" fill="none" stroke="#111" stroke-width="1.6" stroke-linecap="round" stroke-linejoin="round"/><polyline points="6.56,55.69 6.38,55.69" fill="none" stroke="#111" stroke-width="1.6" stroke-linecap="round" stroke-linejoin="round"/><polyline points="6.56,56.82 6.38,56.82" fill="none" stroke="#111" stroke-width="1.6" stroke-linecap="round" stroke-linejoin="round"/><polyline points="6.56,57.94 6.38,57.94" fill="none" stroke="#111" stroke-width="1.6" stroke-linecap="round" stroke-linejoin="round"/></svg>