<svg xmlns="http://www.w3.org/2000/svg" width="96" height="64" viewBox="0 0 96 64"><rect x="6" y="6" width="1.99" height="51.7" fill="none" stroke="#111" stroke-width="1.6"/><rect x="6" y="6.45" width="0.5" height="0.1" fill="none" stroke="#111" stroke-width="1.6"/><rect x="6" y="7.44" width="0.5" height="0.1" fill="none" stroke="#111" stroke-width="1.6"/><rect x="6" y="8.44" width="0.5" height="0.1" fill="none" stroke="#111" stroke-width="1.6"/><rect x="6" y="9.43" width="0.5" height="0.1" fill="none" stroke="#111" stroke-width="1.6"/><rect x="6" y="10.42" width="0.5" height="0.1" fill="none" stroke="#111" stroke-width="1.6"/><rect x="6" y="11.42" width="0.5" height="0.1" fill="none" stroke="#111" stroke-width="1.6"/><rect x="6" y="12.41" width="0.5" height="0.1" fill="none" stroke="#111" stroke-width="1.6"/><rect x="6" y="13.41" width="0.5" height="0.1" fill="none" stroke="#111" stroke-width="1.6"/><rect x="6" y="14.4" width="0.5" height="0.1" fill="none" stroke="#111" stroke-width="1.6"/><rect x="6" y="15.4" width="0.5" height="0.1" fill="none" stroke="#111" stroke-width="1.6"/><rect x="6" y="16.39" width="0.5" height="0.1" fill="none" stroke="#111" stroke-width="1.6"/><rect x="6" y="17.38" width="0.5" height="0.1" fill="none" stroke="#111" stroke-width="1.6"/><rect x="6" y="18.38" width="0.5" height="0.1" fill="none" stroke="#111" stroke-width="1.6"/><rect x="6" y="19.37" width="0.5" height="0.1" fill="none" stroke="#111" stroke-width="1.6"/><rect x="6" y="20.37" width="0.5" height="0.1" fill="none" stroke="#111" stroke-width="1.6"/><rect x="6" y="21.36" width="0.5" height="0.1" fill="none" stroke="#111" stroke-width="1.6"/><rect x="6" y="22.36" width="0.5" height="0.1" fill="none" stroke="#111" stroke-width="1.6"/><rect x="6" y="23.35" width="0.5" height="0.1" fill="none" stroke="#111" stroke-width="1.6"/><rect x="6" y="24.34" width="0.5" height="0.1" fill="none" stroke="#111" stroke-width="1.6"/><rect x="6" y="25.34" width="0.5" height="0.1" fill="none" stroke="#111" stroke-width="1.6"/><rect x="6" y="26.33" width="0.5" height="0.1" fill="none" stroke="#111" stroke-width="1.6"/><rect x="6" y="27.33" width="0.5" height="0.1" fill="none" stroke="#111" stroke-width="1.6"/><rect x="6" y="28.32" width="0.5" height="0.1" fill="none" stroke="#111" stroke-width="1.6"/><rect x="6" y="29.32" width="0.5" height="0.09" fill="none" stroke="#111" stroke-width="1.6"/><rect x="6" y="30.31" width="0.5" height="0.1" fill="none" stroke="#111" stroke-width="1.6"/><rect x="6" y="31.3" width="0.5" height="0.1" fill="none" stroke="#111" stroke-width="1.6"/><rect x="6" y="32.3" width="0.5" height="0.1" fill="none" stroke="#111" stroke-width="1.6"/><rect x="6" y="33.29" width="0.5" height="0.1" fill="none" stroke="#111" stroke-width="1.6"/><rect x="6" y="34.29" width="0.5" height="0.1" fill="none" stroke="#111" stroke-width="1.6"/><rect x="6" y="35.28" width="0.5" height="0.1" fill="none" stroke="#111" stroke-width="1.6"/><rect x="6" y="36.28" width="0.5" height="0.09" fill="none" stroke="#111" stroke-width="1.6"/><rect x="6" y="37.27" width="0.5" height="0.1" fill="none" stroke="#111" stroke-width="1.6"/><rect x="6" y="38.26" width="0.5" height="0.1" fill="none" stroke="#111" stroke-width="1.6"/><rect x="6" y="39.26" width="0.5" height="0.1" fill="none" stroke="#111" stroke-width="1.6"/><rect x="6" y="40.25" width="0.5" height="0.1" fill="none" stroke="#111" stroke-width="1.6"/><rect x="6" y="41.25" width="0.5" height="0.1" fill="none" stroke="#111" stroke-width="1.6"/><rect x="6" y="42.24" width="0.5" height="0.1" fill="none" stroke="#111" stroke-width="1.6"/><rect x="6" y="43.24" width="0.5" height="0.09" fill="none" stroke="#111" stroke-width="1.6"/><rect x="6" y="44.23" width="0.5" height="0.1" fill="none" stroke="#111" stroke-width="1.6"/><rect x="6" y="45.22" width="0.5" height="0.1" fill="none" stroke="#111" stroke-width="1.6"/><rect x="6" y="46.22" width="0.5" height="0.1" fill="none" stroke="#111" stroke-width="1.6"/><rect x="6" y="47.21" width="0.5" height="0.1" fill="none" stroke="#111" stroke-width="1.6"/><rect x="6" y="48.21" width="0.5" height="0.1" fill="none" stroke="#111" stroke-width="1.6"/><rect x="6" y="49.2" width="0.5" height="0.1" fill="none" stroke="#111" stroke-width="1.6"/><rect x="6" y="50.2" width="0.5" height="0.09" fill="none" stroke="#111" stroke-width="1.6"/><rect x="6" y="51.19" width="0.5" height="0.1" fill="none" stroke="#111" stroke-width="1.6"/><rect x="6" y="52.18" width="0.5" height="0.1" fill="none" stroke="#111" stroke-width="1.6"/><rect x="6" y="53.18" width="0.5" height="0.1" fill="none" stroke="#111" stroke-width="1.6"/><rect x="6" y="54.17" width="0.5" height="0.1" fill="none" stroke="#111" stroke-width="1.6"/><rect x="6" y="55.17" width="0.5" height="0.1" fill="none" stroke="#111" stroke-width="1.6"/><rect x="6" y="56.16" width="0.5" height="0.1" fill="none" stroke="#111" stroke-width="1.6"/><rect x="6" y="57.15" width="0.5" height="0.1" fill="none" stroke="#111" stroke-width="1.6"/><polyline points="6.6,58 7.39,58" fill="none" stroke="#111" stroke-width="1.6" stroke-linecap="round" stroke-linejoin="round"/><rect x="7.49" y="6.45" width="0.5" height="0.1" fill="none" stroke="#111" stroke-width="1.6"/><rect x="7.49" y="7.44" width="0.5" height="0.1" fill="none" stroke="#111" stroke-width="1.6"/><rect x="7.49" y="8.44" width="0.5" height="0.1" fill="none" stroke="#111" stroke-width="1.6"/><rect x="7.49" y="9.43" width="0.5" height="0.1" fill="none" stroke="#111" stroke-width="1.6"/><rect x="7.49" y="10.42" width="0.5" height="0.1" fill="none" stroke="#111" stroke-width="1.6"/><rect x="7.49" y="11.42" width="0.5" height="0.1" fill="none" stroke="#111" stroke-width="1.6"/><rect x="7.49" y="12.41" width="0.5" height="0.1" fill="none" stroke="#111" stroke-width="1.6"/><rect x="7.49" y="13.41" width="0.5" height="0.1" fill="none" stroke="#111" stroke-width="1.6"/><rect x="7.49" y="14.4" width="0.5" height="0.1" fill="none" stroke="#111" stroke-width="1.6"/><rect x="7.49" y="15.4" width="0.5" height="0.1" fill="none" stroke="#111" stroke-width="1.6"/><rect x="7.49" y="16.39" width="0.5" height="0.1" fill="none" stroke="#111" stroke-width="1.6"/><rect x="7.49" y="17.38" width="0.5" height="0.1" fill="none" stroke="#111" stroke-width="1.6"/><rect x="7.49" y="18.38" width="0.5" height="0.1" fill="none" stroke="#111" stroke-width="1.6"/><rect x="7.49" y="19.37" width="0.5" height="0.1" fill="none" stroke="#111" stroke-width="1.6"/><rect x="7.49" y="20.37" width="0.5" height="0.1" fill="none" stroke="#111" stroke-width="1.6"/><rect x="7.49" y="21.36" width="0.5" height="0.1" fill="none" stroke="#111" stroke-width="1.6"/><rect x="7.49" y="22.36" width="0.5" height="0.1" fill="none" stroke="#111" stroke-width="1.6"/><rect x="7.49" y="23.35" width="0.5" height="0.1" fill="none" stroke="#111" stroke-width="1.6"/><rect x="7.49" y="24.34" width="0.5" height="0.1" fill="none" stroke="#111" stroke-width="1.6"/><rect x="7.49" y="25.34" width="0.5" height="0.1" fill="none" stroke="#111" stroke-width="1.6"/><rect x="7.49" y="26.33" width="0.5" height="0.1" fill="none" stroke="#111" stroke-width="1.6"/><rect x="7.49" y="27.33" width="0.5" height="0.1" fill="none" stroke="#111" stroke-width="1.6"/><rect x="7.49" y="28.32" width="0.5" height="0.1" fill="none" stroke="#111" stroke-width="1.6"/><rect x="7.49" y="29.32" width="0.5" height="0.09" fill="none" stroke="#111" stroke-width="1.6"/><rect x="7.49" y="30.31" width="0.5" height="0.1" fill="none" stroke="#111" stroke-width="1.6"/><rect x="7.49" y="31.3" width="0.5" height="0.1" fill="none" stroke="#111" stroke-width="1.6"/><rect x="7.49" y="32.3" width="0.5" height="0.1" fill="none" stroke="#111" stroke-width="1.6"/><rect x="7.49" y="33.29" width="0.5" height="0.1" fill="none" stroke="#111" stroke-width="1.6"/><rect x="7.49" y="34.29" width="0.5" height="0.1" fill="none" stroke="#111" stroke-width="1.6"/><rect x="7.49" y="35.28" width="0.5" height="0.1" fill="none" stroke="#111" stroke-width="1.6"/><rect x="7.49" y="36.28" width="0.5" height="0.09" fill="none" stroke="#111" stroke-width="1.6"/><rect x="7.49" y="37.27" width="0.5" height="0.1" fill="none" stroke="#111" stroke-width="1.6"/><rect x="7.49" y="38.26" width="0.5" height="0.1" fill="none" stroke="#111" stroke-width="1.6"/><rect x="7.49" y="39.26" width="0.5" height="0.1" fill="none" stroke="#111" stroke-width="1.6"/><rect x="7.49" y="40.25" width="0.5" height="0.1" fill="none" stroke="#111" stroke-width="1.6"/><rect x="7.49" y="41.25" width="0.5" height="0.1" fill="none" stroke="#111" stroke-width="1.6"/><rect x="7.49" y="42.24" width="0.5" height="0.1" fill="none" stroke="#111" stroke-width="1.6"/><rect x="7.49" y="43.24" width="0.5" height="0.09" fill="none" stroke="#111" stroke-width="1.6"/><rect x="7.49" y="44.23" width="0.5" height="0.1" fill="none" stroke="#111" stroke-width="1.6"/><rect x="7.49" y="45.22" width="0.5" height="0.1" fill="none" stroke="#111" stroke-width="1.6"/><rect x="7.49" y="46.22" width="0.5" height="0.1" fill="none" stroke="#111" stroke-width="1.6"/><rect x="7.49" y="47.21" width="0.5" height="0.1" fill="none" stroke="#111" stroke-width="1.6"/><rect x="7.49" y="48.21" width="0.5" height="0.1" fill="none" stroke="#111" stroke-width="1.6"/><rect x="7.49" y="49.2" width="0.5" height="0.1" fill="none" stroke="#111" stroke-width="1.6"/><rect x="7.49" y="50.2" width="0.5" height="0.09" fill="none" stroke="#111" stroke-width="1.6"/><rect x="7.49" y="51.19" width="0.5" height="0.1" fill="none" stroke="#111" stroke-width="1.6"/><rect x="7.49" y="52.18" width="0.5" height="0.1" fill="none" stroke="#111" stroke-width="1.6"/><rect x="7.49" y="53.18" width="0.5" height="0.1" fill="none" stroke="#111" stroke-width="1.6"/><rect x="7.49" y="54.17" width="0.5" height="0.1" fill="none" stroke="#111" stroke-width="1.6"/><rect x="7.49" y="55.17" width="0.5" height="0.1" fill="none" stroke="#111" stroke-width="1.6"/><rect x="7.49" y="56.16" width="0.5" height="0.1" fill="none" stroke="#111" stroke-width="1.6"/><rect x="7.49" y="57.15" width="0.5" height="0.1" fill="none" stroke="#111" stroke-width="1.6"/></svg>