<svg xmlns="http://www.w3.org/2000/svg" width="96" height="64" viewBox="0 0 96 64"><rect x="6" y="6" width="20.8" height="52" fill="none" stroke="#111" stroke-width="1.6"/><polyline points="6,7.73 9.47,7.73" fill="none" stroke="#111" stroke-width="1.6" stroke-linecap="round" stroke-linejoin="round"/><polyline points="6,11.2 9.47,11.2" fill="none" stroke="#111" stroke-width="1.6" stroke-linecap="round" stroke-linejoin="round"/><polyline points="6,14.67 9.47,14.67" fill="none" stroke="#111" stroke-width="1.6" stroke-linecap="round" stroke-linejoin="round"/><polyline points="6,21.6 9.47,21.6" fill="none" stroke="#111" stroke-width="1.6" stroke-linecap="round" stroke-linejoin="round"/><polyline points="6,25.07 9.47,25.07" fill="none" stroke="#111" stroke-width="1.6" stroke-linecap="round" stroke-linejoin="round"/><polyline points="6,28.53 9.47,28.53" fill="none" stroke="#111" stroke-width="1.6" stroke-linecap="round" stroke-linejoin="round"/><polyline points="6,35.47 9.47,35.47" fill="none" stroke="#111" stroke-width="1.6" stroke-linecap="round" stroke-linejoin="round"/><polyline points="6,38.93 9.47,38.93" fill="none" stroke="#111" stroke-width="1.6" stroke-linecap="round" stroke-linejoin="round"/><polyline points="6,42.4 9.47,42.4" fill="none" stroke="#111" stroke-width="1.6" stroke-linecap="round" stroke-linejoin="round"/><polyline points="6,49.33 9.47,49.33" fill="none" stroke="#111" stroke-width="1.6" stroke-linecap="round" stroke-linejoin="round"/><polyline points="6,52.8 9.47,52.8" fill="none" stroke="#111" stroke-width="1.6" stroke-linecap="round" stroke-linejoin="round"/><polyline points="6,56.27 9.47,56.27" fill="none" stroke="#111" stroke-width="1.6" stroke-linecap="round" stroke-linejoin="round"/><polyline points="13.8,7.73 15.53,7.73" fill="none" stroke="#111" stroke-width="1.6" stroke-linecap="round" stroke-linejoin="round"/><polyline points="13.8,14.67 15.53,14.67" fill="none" stroke="#111" stroke-width="1.6" stroke-linecap="round" stroke-linejoin="round"/><polyline points="13.8,21.6 15.53,21.6" fill="none" stroke="#111" stroke-width="1.6" stroke-linecap="round" stroke-linejoin="round"/><polyline points="13.8,28.53 15.53,28.53" fill="none" stroke="#111" stroke-width="1.6" stroke-linecap="round" stroke-linejoin="round"/><polyline points="13.8,35.47 15.53,35.47" fill="none" stroke="#111" stroke-width="1.6" stroke-linecap="round" stroke-linejoin="round"/><polyline points="13.8,42.4 15.53,42.4" fill="none" stroke="#111" stroke-width="1.6" stroke-linecap="round" stroke-linejoin="round"/><polyline points="13.8,49.33 15.53,49.33" fill="none" stroke="#111" stroke-width="1.6" stroke-linecap="round" stroke-linejoin="round"/><polyline points="13.8,56.27 15.53,56.27" fill="none" stroke="#111" stroke-width="1.6" stroke-linecap="round" stroke-linejoin="round"/><polyline points="15.53,7.73 15.53,9.47" fill="none" stroke="#111" stroke-width="1.6" stroke-linecap="round" stroke-linejoin="round"/><polyline points="15.53,12.93 15.53,14.67" fill="none" stroke="#111" stroke-width="1.6" stroke-linecap="round" stroke-linejoin="round"/><polyline points="15.53,21.6 15.53,23.33" fill="none" stroke="#111" stroke-width="1.6" stroke-linecap="round" stroke-linejoin="round"/><polyline points="15.53,26.8 15.53,28.53" fill="none" stroke="#111" stroke-width="1.6" stroke-linecap="round" stroke-linejoin="round"/><polyline points="15.53,35.47 15.53,37.2" fill="none" stroke="#111" stroke-width="1.6" stroke-linecap="round" stroke-linejoin="round"/><polyline points="15.53,40.67 15.53,42.4" fill="none" stroke="#111" stroke-width="1.6" stroke-linecap="round" stroke-linejoin="round"/><polyline points="15.53,49.33 15.53,51.07" fill="none" stroke="#111" stroke-width="1.6" stroke-linecap="round" stroke-linejoin="round"/><polyline points="15.53,54.53 15.53,56.27" fill="none" stroke="#111" stroke-width="1.6" stroke-linecap="round" stroke-linejoin="round"/><polyline points="20.73,7.73 26.8,7.73" fill="none" stroke="#111" stroke-width="1.6" stroke-linecap="round" stroke-linejoin="round"/><polyline points="20.73,9.47 20.73,7.73" fill="none" stroke="#111" stroke-width="1.6" stroke-linecap="round" stroke-linejoin="round"/><polyline points="20.73,14.67 20.73,12.93" fill="none" stroke="#111" stroke-width="1.6" stroke-linecap="round" stroke-linejoin="round"/><polyline points="20.73,14.67 26.8,14.67" fill="none" stroke="#111" stroke-width="1.6" stroke-linecap="round" stroke-linejoin="round"/><polyline points="20.73,21.6 26.8,21.6" fill="none" stroke="#111" stroke-width="1.6" stroke-linecap="round" stroke-linejoin="round"/><polyline points="20.73,23.33 20.73,21.6" fill="none" stroke="#111" stroke-width="1.6" stroke-linecap="round" stroke-linejoin="round"/><polyline points="20.73,28.53 20.73,26.8" fill="none" stroke="#111" stroke-width="1.6" stroke-linecap="round" stroke-linejoin="round"/><polyline points="20.73,28.53 26.8,28.53" fill="none" stroke="#111" stroke-width="1.6" stroke-linecap="round" stroke-linejoin="round"/><polyline points="20.73,35.47 26.8,35.47" fill="none" stroke="#111" stroke-width="1.6" stroke-linecap="round" stroke-linejoin="round"/><polyline points="20.73,37.2 20.73,35.47" fill="none" stroke="#111" stroke-width="1.6" stroke-linecap="round" stroke-linejoin="round"/><polyline points="20.73,42.4 20.73,40.67" fill="none" stroke="#111" stroke-width="1.6" stroke-linecap="round" stroke-linejoin="round"/><polyline points="20.73,42.4 26.8,42.4" fill="none" stroke="#111" stroke-width="1.6" stroke-linecap="round" stroke-linejoin="round"/><polyline points="20.73,49.33 26.8,49.33" fill="none" stroke="#111" stroke-width="1.6" stroke-linecap="round" stroke-linejoin="round"/><polyline points="20.73,51.07 20.73,49.33" fill="none" stroke="#111" stroke-width="1.6" stroke-linecap="round" stroke-linejoin="round"/><polyline points="20.73,56.27 20.73,54.53" fill="none" stroke="#111" stroke-width="1.6" stroke-linecap="round" stroke-linejoin="round"/><polyline points="20.73,56.27 26.8,56.27" fill="none" stroke="#111" stroke-width="1.6" stroke-linecap="round" stroke-linejoin="round"/><polyline points="23.33,11.2 26.8,11.2" fill="none" stroke="#111" stroke-width="1.6" stroke-linecap="round" stroke-linejoin="round"/><polyline points="23.33,25.07 26.8,25.07" fill="none" stroke="#111" stroke-width="1.6" stroke-linecap="round" stroke-linejoin="round"/><polyline points="23.33,38.93 26.8,38.93" fill="none" stroke="#111" stroke-width="1.6" stroke-linecap="round" stroke-linejoin="round"/><polyline points="23.33,52.8 26.8,52.8" fill="none" stroke="#111" stroke-width="1.6" stroke-linecap="round" stroke-linejoin="round"/><path d="M 9.47 7.73 Q 10.33 8.6 9.47 9.47" fill="none" stroke="#111" stroke-width="1.6" stroke-linecap="round"/><path d="M 9.47 9.47 Q 10.33 10.33 9.47 11.2" fill="none" stroke="#111" stroke-width="1.6" stroke-linecap="round"/><path d="M 9.47 11.2 Q 10.33 12.07 9.47 12.93" fill="none" stroke="#111" stroke-width="1.6" stroke-linecap="round"/><path d="M 9.47 12.93 Q 10.33 13.8 9.47 14.67" fill="none" stroke="#111" stroke-width="1.6" stroke-linecap="round"/><path d="M 9.47 21.6 Q 10.33 22.47 9.47 23.33" fill="none" stroke="#111" stroke-width="1.6" stroke-linecap="round"/><path d="M 9.47 23.33 Q 10.33 24.2 9.47 25.07" fill="none" stroke="#111" stroke-width="1.6" stroke-linecap="round"/><path d="M 9.47 25.07 Q 10.33 25.93 9.47 26.8" fill="none" stroke="#111" stroke-width="1.6" stroke-linecap="round"/><path d="M 9.47 26.8 Q 10.33 27.67 9.47 28.53" fill="none" stroke="#111" stroke-width="1.6" stroke-linecap="round"/><path d="M 9.47 35.47 Q 10.33 36.33 9.47 37.2" fill="none" stroke="#111" stroke-width="1.6" stroke-linecap="round"/><path d="M 9.47 37.2 Q 10.33 38.07 9.47 38.93" fill="none" stroke="#111" stroke-width="1.6" stroke-linecap="round"/><path d="M 9.47 38.93 Q 10.33 39.8 9.47 40.67" fill="none" stroke="#111" stroke-width="1.6" stroke-linecap="round"/><path d="M 9.47 40.67 Q 10.33 41.53 9.47 42.4" fill="none" stroke="#111" stroke-width="1.6" stroke-linecap="round"/><path d="M 9.47 49.33 Q 10.33 50.2 9.47 51.07" fill="none" stroke="#111" stroke-width="1.6" stroke-linecap="round"/><path d="M 9.47 51.07 Q 10.33 51.93 9.47 52.8" fill="none" stroke="#111" stroke-width="1.6" stroke-linecap="round"/><path d="M 9.47 52.8 Q 10.33 53.67 9.47 54.53" fill="none" stroke="#111" stroke-width="1.6" stroke-linecap="round"/><path d="M 9.47 54.53 Q 10.33 55.4 9.47 56.27" fill="none" stroke="#111" stroke-width="1.6" stroke-linecap="round"/><circle cx="9.47" cy="8.6" r="0.17" fill="none" stroke="#111" stroke-width="1.6"/><circle cx="9.47" cy="12.07" r="0.17" fill="none" stroke="#111" stroke-width="1.6"/><circle cx="9.47" cy="22.47" r="0.17" fill="none" stroke="#111" stroke-width="1.6"/><circle cx="9.47" cy="25.93" r="0.17" fill="none" stroke="#111" stroke-width="1.6"/><circle cx="9.47" cy="36.33" r="0.17" fill="none" stroke="#111" stroke-width="1.6"/><circle cx="9.47" cy="39.8" r="0.17" fill="none" stroke="#111" stroke-width="1.6"/><circle cx="9.47" cy="50.2" r="0.17" fill="none" stroke="#111" stroke-width="1.6"/><circle cx="9.47" cy="53.67" r="0.17" fill="none" stroke="#111" stroke-width="1.6"/><polyline points="11.2,13.8 11.2,8.6" fill="none" stroke="#111" stroke-width="1.6" stroke-linecap="round" stroke-linejoin="round"/><polyline points="11.2,27.67 11.2,22.47" fill="none" stroke="#111" stroke-width="1.6" stroke-linecap="round" stroke-linejoin="round"/><polyline points="11.2,41.53 11.2,36.33" fill="none" stroke="#111" stroke-width="1.6" stroke-linecap="round" stroke-linejoin="round"/><polyline points="11.2,55.4 11.2,50.2" fill="none" stroke="#111" stroke-width="1.6" stroke-linecap="round" stroke-linejoin="round"/><polyline points="12.07,13.8 12.07,8.6" fill="none" stroke="#111" stroke-width="1.6" stroke-linecap="round" stroke-linejoin="round"/><polyline points="12.07,27.67 12.07,22.47" fill="none" stroke="#111" stroke-width="1.6" stroke-linecap="round" stroke-linejoin="round"/><polyline points="12.07,41.53 12.07,36.33" fill="none" stroke="#111" stroke-width="1.6" stroke-linecap="round" stroke-linejoin="round"/><polyline points="12.07,55.4 12.07,50.2" fill="none" stroke="#111" stroke-width="1.6" stroke-linecap="round" stroke-linejoin="round"/><circle cx="13.63" cy="8.6" r="0.17" fill="none" stroke="#111" stroke-width="1.6"/><circle cx="13.63" cy="22.47" r="0.17" fill="none" stroke="#111" stroke-width="1.6"/><circle cx="13.63" cy="36.33" r="0.17" fill="none" stroke="#111" stroke-width="1.6"/><circle cx="13.63" cy="50.2" r="0.17" fill="none" stroke="#111" stroke-width="1.6"/><path d="M 13.8 9.47 Q 12.94 8.6 13.8 7.73" fill="none" stroke="#111" stroke-width="1.6" stroke-linecap="round"/><path d="M 13.8 11.2 Q 12.94 10.33 13.8 9.47" fill="none" stroke="#111" stroke-width="1.6" stroke-linecap="round"/><path d="M 13.8 12.93 Q 12.94 12.07 13.8 11.2" fill="none" stroke="#111" stroke-width="1.6" stroke-linecap="round"/><path d="M 13.8 14.67 Q 12.94 13.8 13.8 12.93" fill="none" stroke="#111" stroke-width="1.6" stroke-linecap="round"/><path d="M 13.8 23.33 Q 12.94 22.47 13.8 21.6" fill="none" stroke="#111" stroke-width="1.6" stroke-linecap="round"/><path d="M 13.8 25.07 Q 12.94 24.2 13.8 23.33" fill="none" stroke="#111" stroke-width="1.6" stroke-linecap="round"/><path d="M 13.8 26.8 Q 12.94 25.93 13.8 25.07" fill="none" stroke="#111" stroke-width="1.6" stroke-linecap="round"/><path d="M 13.8 28.53 Q 12.94 27.67 13.8 26.8" fill="none" stroke="#111" stroke-width="1.6" stroke-linecap="round"/><path d="M 13.8 37.2 Q 12.94 36.33 13.8 35.47" fill="none" stroke="#111" stroke-width="1.6" stroke-linecap="round"/><path d="M 13.8 38.93 Q 12.94 38.07 13.8 37.2" fill="none" stroke="#111" stroke-width="1.6" stroke-linecap="round"/><path d="M 13.8 40.67 Q 12.94 39.8 13.8 38.93" fill="none" stroke="#111" stroke-width="1.6" stroke-linecap="round"/><path d="M 13.8 42.4 Q 12.94 41.53 13.8 40.67" fill="none" stroke="#111" stroke-width="1.6" stroke-linecap="round"/><path d="M 13.8 51.07 Q 12.94 50.2 13.8 49.33" fill="none" stroke="#111" stroke-width="1.6" stroke-linecap="round"/><path d="M 13.8 52.8 Q 12.94 51.93 13.8 51.07" fill="none" stroke="#111" stroke-width="1.6" stroke-linecap="round"/><path d="M 13.8 54.53 Q 12.94 53.67 13.8 52.8" fill="none" stroke="#111" stroke-width="1.6" stroke-linecap="round"/><path d="M 13.8 56.27 Q 12.94 55.4 13.8 54.53" fill="none" stroke="#111" stroke-width="1.6" stroke-linecap="round"/><path d="M 17.27 9.47 Q 16.4 10.33 15.53 9.47" fill="none" stroke="#111" stroke-width="1.6" stroke-linecap="round"/><circle cx="16.4" cy="9.47" r="0.17" fill="none" stroke="#111" stroke-width="1.6"/><circle cx="16.4" cy="12.93" r="0.17" fill="none" stroke="#111" stroke-width="1.6"/><path d="M 15.53 12.93 Q 16.4 12.07 17.27 12.93" fill="none" stroke="#111" stroke-width="1.6" stroke-linecap="round"/><path d="M 17.27 23.33 Q 16.4 24.2 15.53 23.33" fill="none" stroke="#111" stroke-width="1.6" stroke-linecap="round"/><circle cx="16.4" cy="23.33" r="0.17" fill="none" stroke="#111" stroke-width="1.6"/><circle cx="16.4" cy="26.8" r="0.17" fill="none" stroke="#111" stroke-width="1.6"/><path d="M 15.53 26.8 Q 16.4 25.94 17.27 26.8" fill="none" stroke="#111" stroke-width="1.6" stroke-linecap="round"/><path d="M 17.27 37.2 Q 16.4 38.06 15.53 37.2" fill="none" stroke="#111" stroke-width="1.6" stroke-linecap="round"/><circle cx="16.4" cy="37.2" r="0.17" fill="none" stroke="#111" stroke-width="1.6"/><circle cx="16.4" cy="40.67" r="0.17" fill="none" stroke="#111" stroke-width="1.6"/><path d="M 15.53 40.67 Q 16.4 39.8 17.27 40.67" fill="none" stroke="#111" stroke-width="1.6" stroke-linecap="round"/><path d="M 17.27 51.07 Q 16.4 51.93 15.53 51.07" fill="none" stroke="#111" stroke-width="1.6" stroke-linecap="round"/><circle cx="16.4" cy="51.07" r="0.17" fill="none" stroke="#111" stroke-width="1.6"/><circle cx="16.4" cy="54.53" r="0.17" fill="none" stroke="#111" stroke-width="1.6"/><path d="M 15.53 54.53 Q 16.4 53.67 17.27 54.53" fill="none" stroke="#111" stroke-width="1.6" stroke-linecap="round"/><path d="M 19 9.47 Q 18.13 10.33 17.27 9.47" fill="none" stroke="#111" stroke-width="1.6" stroke-linecap="round"/><path d="M 17.27 12.93 Q 18.13 12.07 19 12.93" fill="none" stroke="#111" stroke-width="1.6" stroke-linecap="round"/><path d="M 19 23.33 Q 18.13 24.2 17.27 23.33" fill="none" stroke="#111" stroke-width="1.6" stroke-linecap="round"/><path d="M 17.27 26.8 Q 18.13 25.94 19 26.8" fill="none" stroke="#111" stroke-width="1.6" stroke-linecap="round"/><path d="M 19 37.2 Q 18.13 38.06 17.27 37.2" fill="none" stroke="#111" stroke-width="1.6" stroke-linecap="round"/><path d="M 17.27 40.67 Q 18.13 39.8 19 40.67" fill="none" stroke="#111" stroke-width="1.6" stroke-linecap="round"/><path d="M 19 51.07 Q 18.13 51.93 17.27 51.07" fill="none" stroke="#111" stroke-width="1.6" stroke-linecap="round"/><path d="M 17.27 54.53 Q 18.13 53.67 19 54.53" fill="none" stroke="#111" stroke-width="1.6" stroke-linecap="round"/><path d="M 20.73 9.47 Q 19.87 10.33 19 9.47" fill="none" stroke="#111" stroke-width="1.6" stroke-linecap="round"/><polyline points="19.87,10.85 16.4,10.85" fill="none" stroke="#111" stroke-width="1.6" stroke-linecap="round" stroke-linejoin="round"/><polyline points="19.87,11.55 16.4,11.55" fill="none" stroke="#111" stroke-width="1.6" stroke-linecap="round" stroke-linejoin="round"/><path d="M 19 12.93 Q 19.87 12.07 20.73 12.93" fill="none" stroke="#111" stroke-width="1.6" stroke-linecap="round"/><path d="M 20.73 23.33 Q 19.87 24.2 19 23.33" fill="none" stroke="#111" stroke-width="1.6" stroke-linecap="round"/><polyline points="19.87,24.72 16.4,24.72" fill="none" stroke="#111" stroke-width="1.6" stroke-linecap="round" stroke-linejoin="round"/><polyline points="19.87,25.41 16.4,25.41" fill="none" stroke="#111" stroke-width="1.6" stroke-linecap="round" stroke-linejoin="round"/><path d="M 19 26.8 Q 19.87 25.94 20.73 26.8" fill="none" stroke="#111" stroke-width="1.6" stroke-linecap="round"/><path d="M 20.73 37.2 Q 19.87 38.06 19 37.2" fill="none" stroke="#111" stroke-width="1.6" stroke-linecap="round"/><polyline points="19.87,38.59 16.4,38.59" fill="none" stroke="#111" stroke-width="1.6" stroke-linecap="round" stroke-linejoin="round"/><polyline points="19.87,39.28 16.4,39.28" fill="none" stroke="#111" stroke-width="1.6" stroke-linecap="round" stroke-linejoin="round"/><path d="M 19 40.67 Q 19.87 39.8 20.73 40.67" fill="none" stroke="#111" stroke-width="1.6" stroke-linecap="round"/><path d="M 20.73 51.07 Q 19.87 51.93 19 51.07" fill="none" stroke="#111" stroke-width="1.6" stroke-linecap="round"/><polyline points="19.87,52.45 16.4,52.45" fill="none" stroke="#111" stroke-width="1.6" stroke-linecap="round" stroke-linejoin="round"/><polyline points="19.87,53.15 16.4,53.15" fill="none" stroke="#111" stroke-width="1.6" stroke-linecap="round" stroke-linejoin="round"/><path d="M 19 54.53 Q 19.87 53.67 20.73 54.53" fill="none" stroke="#111" stroke-width="1.6" stroke-linecap="round"/><circle cx="23.33" cy="8.6" r="0.17" fill="none" stroke="#111" stroke-width="1.6"/><circle cx="23.33" cy="12.07" r="0.17" fill="none" stroke="#111" stroke-width="1.6"/><circle cx="23.33" cy="22.47" r="0.17" fill="none" stroke="#111" stroke-width="1.6"/><circle cx="23.33" cy="25.93" r="0.17" fill="none" stroke="#111" stroke-width="1.6"/><circle cx="23.33" cy="36.33" r="0.17" fill="none" stroke="#111" stroke-width="1.6"/><circle cx="23.33" cy="39.8" r="0.17" fill="none" stroke="#111" stroke-width="1.6"/><circle cx="23.33" cy="50.2" r="0.17" fill="none" stroke="#111" stroke-width="1.6"/><circle cx="23.33" cy="53.67" r="0.17" fill="none" stroke="#111" stroke-width="1.6"/><path d="M 23.51 9.47 Q 22.64 8.6 23.51 7.73" fill="none" stroke="#111" stroke-width="1.6" stroke-linecap="round"/><path d="M 23.51 11.2 Q 22.64 10.33 23.51 9.47" fill="none" stroke="#111" stroke-width="1.6" stroke-linecap="round"/><path d="M 23.51 12.93 Q 22.64 12.07 23.51 11.2" fill="none" stroke="#111" stroke-width="1.6" stroke-linecap="round"/><path d="M 23.51 14.67 Q 22.64 13.8 23.51 12.93" fill="none" stroke="#111" stroke-width="1.6" stroke-linecap="round"/><path d="M 23.51 23.33 Q 22.64 22.47 23.51 21.6" fill="none" stroke="#111" stroke-width="1.6" stroke-linecap="round"/><path d="M 23.51 25.07 Q 22.64 24.2 23.51 23.33" fill="none" stroke="#111" stroke-width="1.6" stroke-linecap="round"/><path d="M 23.51 26.8 Q 22.64 25.93 23.51 25.07" fill="none" stroke="#111" stroke-width="1.6" stroke-linecap="round"/><path d="M 23.51 28.53 Q 22.64 27.67 23.51 26.8" fill="none" stroke="#111" stroke-width="1.6" stroke-linecap="round"/><path d="M 23.51 37.2 Q 22.64 36.33 23.51 35.47" fill="none" stroke="#111" stroke-width="1.6" stroke-linecap="round"/><path d="M 23.51 38.93 Q 22.64 38.07 23.51 37.2" fill="none" stroke="#111" stroke-width="1.6" stroke-linecap="round"/><path d="M 23.51 40.67 Q 22.64 39.8 23.51 38.93" fill="none" stroke="#111" stroke-width="1.6" stroke-linecap="round"/><path d="M 23.51 42.4 Q 22.64 41.53 23.51 40.67" fill="none" stroke="#111" stroke-width="1.6" stroke-linecap="round"/><path d="M 23.51 51.07 Q 22.64 50.2 23.51 49.33" fill="none" stroke="#111" stroke-width="1.6" stroke-linecap="round"/><path d="M 23.51 52.8 Q 22.64 51.93 23.51 51.07" fill="none" stroke="#111" stroke-width="1.6" stroke-linecap="round"/><path d="M 23.51 54.53 Q 22.64 53.67 23.51 52.8" fill="none" stroke="#111" stroke-width="1.6" stroke-linecap="round"/><path d="M 23.51 56.27 Q 22.64 55.4 23.51 54.53" fill="none" stroke="#111" stroke-width="1.6" stroke-linecap="round"/></svg>