<svg xmlns="http://www.w3.org/2000/svg" width="96" height="64" viewBox="0 0 96 64"><polyline points="10.88,35.25 10.88,45 14.12,45 14.12,35.25 10.88,35.25" fill="none" stroke="#111" stroke-width="1.6" stroke-linecap="round" stroke-linejoin="round"/><polyline points="12.5,10.87 12.5,17.38 15.75,20.62 12.5,23.88 12.5,30.38 19,30.38 25.5,25.5 25.5,15.75 19,10.87 12.5,10.87" fill="none" stroke="#111" stroke-width="1.6" stroke-linecap="round" stroke-linejoin="round"/><polyline points="14.12,40.12 15.75,40.12 15.75,30.38" fill="none" stroke="#111" stroke-width="1.6" stroke-linecap="round" stroke-linejoin="round"/><polyline points="15.75,30.38 14.94,32 16.56,32" fill="none" stroke="#111" stroke-width="1.6" stroke-linecap="round" stroke-linejoin="round"/><polyline points="20.62,29.24 20.62,41.75 23.06,41.75" fill="none" stroke="#111" stroke-width="1.6" stroke-linecap="round" stroke-linejoin="round"/><polyline points="23.06,38.5 21.92,38.5 21.92,28.26" fill="none" stroke="#111" stroke-width="1.6" stroke-linecap="round" stroke-linejoin="round"/><polyline points="24.69,38.5 23.06,37.69 23.06,39.31 24.69,38.5" fill="none" stroke="#111" stroke-width="1.6" stroke-linecap="round" stroke-linejoin="round"/><polyline points="24.69,41.75 23.06,40.94 23.06,42.56 24.69,41.75" fill="none" stroke="#111" stroke-width="1.6" stroke-linecap="round" stroke-linejoin="round"/><rect x="6" y="6" width="26" height="52" fill="none" stroke="#111" stroke-width="1.6"/></svg>