<svg xmlns="http://www.w3.org/2000/svg" width="96" height="64" viewBox="0 0 96 64"><polyline points="34,11.6 34,17.2" fill="none" stroke="#111" stroke-width="1.6" stroke-linecap="round" stroke-linejoin="round"/><polyline points="34,28.4 34,34" fill="none" stroke="#111" stroke-width="1.6" stroke-linecap="round" stroke-linejoin="round"/><polyline points="35.4,11.6 35.4,17.2" fill="none" stroke="#111" stroke-width="1.6" stroke-linecap="round" stroke-linejoin="round"/><polyline points="35.4,28.4 35.4,34" fill="none" stroke="#111" stroke-width="1.6" stroke-linecap="round" stroke-linejoin="round"/><circle cx="38.2" cy="38.2" r="0" fill="none" stroke="#111" stroke-width="1.6"/><circle cx="41.56" cy="39.32" r="0" fill="none" stroke="#111" stroke-width="1.6"/><circle cx="41.56" cy="48" r="0" fill="none" stroke="#111" stroke-width="1.6"/><circle cx="45.2" cy="37.08" r="0" fill="none" stroke="#111" stroke-width="1.6"/><circle cx="51.92" cy="14.4" r="0" fill="none" stroke="#111" stroke-width="1.6"/><circle cx="51.92" cy="32.6" r="0" fill="none" stroke="#111" stroke-width="1.6"/><polyline points="53.32,13 51.92,13 51.92,15.8 53.32,15.8" fill="none" stroke="#111" stroke-width="1.6" stroke-linecap="round" stroke-linejoin="round"/><polyline points="53.32,29.8 51.92,29.8 51.92,32.6 53.32,32.6" fill="none" stroke="#111" stroke-width="1.6" stroke-linecap="round" stroke-linejoin="round"/><polyline points="64.24,42.12 65.64,42.12 65.64,37.92 64.24,37.92" fill="none" stroke="#111" stroke-width="1.6" stroke-linecap="round" stroke-linejoin="round"/><polyline points="65.64,40.16 67.6,40.16" fill="none" stroke="#111" stroke-width="1.6" stroke-linecap="round" stroke-linejoin="round"/><circle cx="65.64" cy="40.16" r="0" fill="none" stroke="#111" stroke-width="1.6"/><polyline points="83.56,9.92 83.56,8.8 90,8.8" fill="none" stroke="#111" stroke-width="1.6" stroke-linecap="round" stroke-linejoin="round"/><polyline points="83.56,32.32 83.56,31.2 90,31.2" fill="none" stroke="#111" stroke-width="1.6" stroke-linecap="round" stroke-linejoin="round"/><polyline points="90,14.4 83.56,14.4 83.56,13.28" fill="none" stroke="#111" stroke-width="1.6" stroke-linecap="round" stroke-linejoin="round"/><polyline points="90,36.8 83.56,36.8 83.56,35.68" fill="none" stroke="#111" stroke-width="1.6" stroke-linecap="round" stroke-linejoin="round"/><rect x="6" y="6" width="84" height="47.6" fill="none" stroke="#111" stroke-width="1.6"/><polyline points="18.05,8.8 16.65,8.8" fill="none" stroke="#111" stroke-width="1.6" stroke-linecap="round" stroke-linejoin="round"/><polyline points="18.05,14.4 16.65,14.4" fill="none" stroke="#111" stroke-width="1.6" stroke-linecap="round" stroke-linejoin="round"/><polyline points="18.05,20 16.65,20" fill="none" stroke="#111" stroke-width="1.6" stroke-linecap="round" stroke-linejoin="round"/><polyline points="18.05,25.6 16.65,25.6" fill="none" stroke="#111" stroke-width="1.6" stroke-linecap="round" stroke-linejoin="round"/><polyline points="18.05,31.2 16.65,31.2" fill="none" stroke="#111" stroke-width="1.6" stroke-linecap="round" stroke-linejoin="round"/><polyline points="18.05,36.8 16.65,36.8" fill="none" stroke="#111" stroke-width="1.6" stroke-linecap="round" stroke-linejoin="round"/><polyline points="22.8,8.8 25.6,8.8 25.6,10.2" fill="none" stroke="#111" stroke-width="1.6" stroke-linecap="round" stroke-linejoin="round"/><polyline points="22.8,25.6 25.6,25.6 25.6,27" fill="none" stroke="#111" stroke-width="1.6" stroke-linecap="round" stroke-linejoin="round"/><polyline points="25.6,18.6 25.6,20 22.8,20" fill="none" stroke="#111" stroke-width="1.6" stroke-linecap="round" stroke-linejoin="round"/><polyline points="25.6,35.4 25.6,36.8 22.8,36.8" fill="none" stroke="#111" stroke-width="1.6" stroke-linecap="round" stroke-linejoin="round"/><polyline points="31.2,10.2 53.32,10.2" fill="none" stroke="#111" stroke-width="1.6" stroke-linecap="round" stroke-linejoin="round"/><polyline points="31.2,18.6 53.32,18.6" fill="none" stroke="#111" stroke-width="1.6" stroke-linecap="round" stroke-linejoin="round"/><polyline points="31.2,35.4 53.32,35.4" fill="none" stroke="#111" stroke-width="1.6" stroke-linecap="round" stroke-linejoin="round"/><polyline points="31.48,27 53.32,27" fill="none" stroke="#111" stroke-width="1.6" stroke-linecap="round" stroke-linejoin="round"/><polyline points="34,14.4 22.8,14.4" fill="none" stroke="#111" stroke-width="1.6" stroke-linecap="round" stroke-linejoin="round"/><polyline points="34,31.2 22.8,31.2" fill="none" stroke="#111" stroke-width="1.6" stroke-linecap="round" stroke-linejoin="round"/><polyline points="35.4,14.4 45.2,14.4 45.2,43.8" fill="none" stroke="#111" stroke-width="1.6" stroke-linecap="round" stroke-linejoin="round"/><polyline points="35.4,31.2 38.2,31.2 38.2,43.8" fill="none" stroke="#111" stroke-width="1.6" stroke-linecap="round" stroke-linejoin="round"/><polyline points="61.44,18.6 64.24,18.6" fill="none" stroke="#111" stroke-width="1.6" stroke-linecap="round" stroke-linejoin="round"/><polyline points="61.44,21.4 64.24,21.4" fill="none" stroke="#111" stroke-width="1.6" stroke-linecap="round" stroke-linejoin="round"/><polyline points="61.44,24.2 64.24,24.2" fill="none" stroke="#111" stroke-width="1.6" stroke-linecap="round" stroke-linejoin="round"/><polyline points="61.44,27.28 64.24,27.28" fill="none" stroke="#111" stroke-width="1.6" stroke-linecap="round" stroke-linejoin="round"/><polyline points="61.44,30.08 64.24,30.08" fill="none" stroke="#111" stroke-width="1.6" stroke-linecap="round" stroke-linejoin="round"/><polyline points="64.24,13 61.44,13" fill="none" stroke="#111" stroke-width="1.6" stroke-linecap="round" stroke-linejoin="round"/><polyline points="64.24,15.8 61.44,15.8" fill="none" stroke="#111" stroke-width="1.6" stroke-linecap="round" stroke-linejoin="round"/><polyline points="64.24,32.88 61.44,32.88" fill="none" stroke="#111" stroke-width="1.6" stroke-linecap="round" stroke-linejoin="round"/><polyline points="14.4,42.4 36.8,42.4" fill="none" stroke="#111" stroke-width="1.6" stroke-linecap="round" stroke-linejoin="round"/><polyline points="14.4,48 50.24,48" fill="none" stroke="#111" stroke-width="1.6" stroke-linecap="round" stroke-linejoin="round"/><path d="M 18.05 25.6 Q 19.44 27 18.05 28.4" fill="none" stroke="#111" stroke-width="1.6" stroke-linecap="round"/><path d="M 18.05 8.8 Q 19.45 10.2 18.05 11.6" fill="none" stroke="#111" stroke-width="1.6" stroke-linecap="round"/><path d="M 18.05 28.4 Q 19.45 29.8 18.05 31.2" fill="none" stroke="#111" stroke-width="1.6" stroke-linecap="round"/><path d="M 18.05 31.2 Q 19.45 32.6 18.05 34" fill="none" stroke="#111" stroke-width="1.6" stroke-linecap="round"/><path d="M 18.05 34 Q 19.45 35.4 18.05 36.8" fill="none" stroke="#111" stroke-width="1.6" stroke-linecap="round"/><path d="M 18.06 11.6 Q 19.45 13 18.06 14.4" fill="none" stroke="#111" stroke-width="1.6" stroke-linecap="round"/><path d="M 18.06 14.4 Q 19.45 15.8 18.06 17.2" fill="none" stroke="#111" stroke-width="1.6" stroke-linecap="round"/><path d="M 18.06 17.2 Q 19.45 18.6 18.06 20" fill="none" stroke="#111" stroke-width="1.6" stroke-linecap="round"/><path d="M 22.79 11.6 Q 21.39 10.2 22.79 8.8" fill="none" stroke="#111" stroke-width="1.6" stroke-linecap="round"/><path d="M 22.79 14.4 Q 21.39 13 22.79 11.6" fill="none" stroke="#111" stroke-width="1.6" stroke-linecap="round"/><path d="M 22.79 17.2 Q 21.39 15.8 22.79 14.4" fill="none" stroke="#111" stroke-width="1.6" stroke-linecap="round"/><path d="M 22.79 28.4 Q 21.39 27 22.79 25.6" fill="none" stroke="#111" stroke-width="1.6" stroke-linecap="round"/><path d="M 22.79 31.2 Q 21.39 29.8 22.79 28.4" fill="none" stroke="#111" stroke-width="1.6" stroke-linecap="round"/><path d="M 22.79 34 Q 21.39 32.6 22.79 31.2" fill="none" stroke="#111" stroke-width="1.6" stroke-linecap="round"/><path d="M 22.79 20 Q 21.4 18.6 22.79 17.2" fill="none" stroke="#111" stroke-width="1.6" stroke-linecap="round"/><path d="M 22.79 36.8 Q 21.4 35.4 22.79 34" fill="none" stroke="#111" stroke-width="1.6" stroke-linecap="round"/><path d="M 28.4 10.21 Q 27 11.6 25.6 10.21" fill="none" stroke="#111" stroke-width="1.6" stroke-linecap="round"/><path d="M 25.6 18.31 Q 27 16.92 28.4 18.31" fill="none" stroke="#111" stroke-width="1.6" stroke-linecap="round"/><path d="M 25.6 35.11 Q 27 33.72 28.4 35.11" fill="none" stroke="#111" stroke-width="1.6" stroke-linecap="round"/><path d="M 28.54 27.15 Q 27.14 28.54 25.74 27.15" fill="none" stroke="#111" stroke-width="1.6" stroke-linecap="round"/><path d="M 31.2 10.2 Q 29.8 11.59 28.4 10.2" fill="none" stroke="#111" stroke-width="1.6" stroke-linecap="round"/><path d="M 28.4 18.31 Q 29.8 16.91 31.2 18.31" fill="none" stroke="#111" stroke-width="1.6" stroke-linecap="round"/><path d="M 28.4 35.11 Q 29.8 33.71 31.2 35.11" fill="none" stroke="#111" stroke-width="1.6" stroke-linecap="round"/><path d="M 31.34 27.14 Q 29.94 28.53 28.54 27.14" fill="none" stroke="#111" stroke-width="1.6" stroke-linecap="round"/><polyline points="36.8,42.4 36.8,39.32 41.56,39.32" fill="none" stroke="#111" stroke-width="1.6" stroke-linecap="round" stroke-linejoin="round"/><polyline points="40.44,42.68 42.96,42.68" fill="none" stroke="#111" stroke-width="1.6" stroke-linecap="round" stroke-linejoin="round"/><polyline points="40.44,44.92 42.96,44.92 41.56,42.68 40.44,44.92" fill="none" stroke="#111" stroke-width="1.6" stroke-linecap="round" stroke-linejoin="round"/><polyline points="41,39.32 41.56,39.32 41.56,40.44" fill="none" stroke="#111" stroke-width="1.6" stroke-linecap="round" stroke-linejoin="round"/><polyline points="41.56,39.32 50.24,39.32 50.24,40.16" fill="none" stroke="#111" stroke-width="1.6" stroke-linecap="round" stroke-linejoin="round"/><polyline points="41.56,40.44 38.2,43.8 41.56,47.16 45.2,43.8 41.56,40.44" fill="none" stroke="#111" stroke-width="1.6" stroke-linecap="round" stroke-linejoin="round"/><polyline points="41.56,47.16 41.56,47.72" fill="none" stroke="#111" stroke-width="1.6" stroke-linecap="round" stroke-linejoin="round"/><polyline points="48.84,42.68 51.36,42.68" fill="none" stroke="#111" stroke-width="1.6" stroke-linecap="round" stroke-linejoin="round"/><polyline points="48.84,44.92 51.36,44.92 49.96,42.68 48.84,44.92" fill="none" stroke="#111" stroke-width="1.6" stroke-linecap="round" stroke-linejoin="round"/><polyline points="50.24,40.16 46.6,43.52 50.24,46.88 53.6,43.8 50.24,40.16" fill="none" stroke="#111" stroke-width="1.6" stroke-linecap="round" stroke-linejoin="round"/><polyline points="50.24,46.88 50.24,48" fill="none" stroke="#111" stroke-width="1.6" stroke-linecap="round" stroke-linejoin="round"/><polyline points="51.92,14.4 46.6,14.4 46.6,43.52" fill="none" stroke="#111" stroke-width="1.6" stroke-linecap="round" stroke-linejoin="round"/><polyline points="51.92,32.32 51.92,39.32 53.6,39.32 53.6,43.8" fill="none" stroke="#111" stroke-width="1.6" stroke-linecap="round" stroke-linejoin="round"/><polyline points="57.8,38.2 56.4,38.2 56.4,37.08 45.2,37.08" fill="none" stroke="#111" stroke-width="1.6" stroke-linecap="round" stroke-linejoin="round"/><polyline points="57.8,42.12 55.28,42.12 55.28,38.2 38.2,38.2" fill="none" stroke="#111" stroke-width="1.6" stroke-linecap="round" stroke-linejoin="round"/><polyline points="61.44,35.68 61.44,10.2 78.8,10.2 78.8,15.8 81.04,15.8 81.04,18.88 83.84,18.88 83.84,27 81.04,27 81.04,30.08 78.8,30.08 78.8,35.68 61.44,35.68" fill="none" stroke="#111" stroke-width="1.6" stroke-linecap="round" stroke-linejoin="round"/><rect x="57.8" y="36.8" width="6.16" height="2.8" fill="none" stroke="#111" stroke-width="1.6"/><rect x="57.8" y="40.72" width="6.16" height="2.8" fill="none" stroke="#111" stroke-width="1.6"/><polyline points="67.6,40.16 67.6,53.6" fill="none" stroke="#111" stroke-width="1.6" stroke-linecap="round" stroke-linejoin="round"/><polyline points="78.8,53.6 78.8,35.68" fill="none" stroke="#111" stroke-width="1.6" stroke-linecap="round" stroke-linejoin="round"/><polyline points="85.24,13.28 81.88,13.28" fill="none" stroke="#111" stroke-width="1.6" stroke-linecap="round" stroke-linejoin="round"/><polyline points="85.24,35.68 81.88,35.68" fill="none" stroke="#111" stroke-width="1.6" stroke-linecap="round" stroke-linejoin="round"/><polyline points="85.52,9.92 81.32,9.92 83.56,13.28 85.52,9.92" fill="none" stroke="#111" stroke-width="1.6" stroke-linecap="round" stroke-linejoin="round"/><polyline points="85.52,12.44 86.64,13.56 86.08,13.56" fill="none" stroke="#111" stroke-width="1.6" stroke-linecap="round" stroke-linejoin="round"/><polyline points="85.52,32.32 81.32,32.32 83.56,35.68 85.52,32.32" fill="none" stroke="#111" stroke-width="1.6" stroke-linecap="round" stroke-linejoin="round"/><polyline points="85.52,34.84 86.64,35.96 86.08,35.96" fill="none" stroke="#111" stroke-width="1.6" stroke-linecap="round" stroke-linejoin="round"/><polyline points="86.08,11.04 87.2,12.16 86.64,12.16" fill="none" stroke="#111" stroke-width="1.6" stroke-linecap="round" stroke-linejoin="round"/><polyline points="86.08,33.44 87.2,34.56 86.64,34.56" fill="none" stroke="#111" stroke-width="1.6" stroke-linecap="round" stroke-linejoin="round"/><polyline points="86.64,13.56 86.64,13" fill="none" stroke="#111" stroke-width="1.6" stroke-linecap="round" stroke-linejoin="round"/><polyline points="86.64,35.96 86.64,35.4" fill="none" stroke="#111" stroke-width="1.6" stroke-linecap="round" stroke-linejoin="round"/><polyline points="87.2,12.16 87.2,11.6" fill="none" stroke="#111" stroke-width="1.6" stroke-linecap="round" stroke-linejoin="round"/><polyline points="87.2,34.56 87.2,34" fill="none" stroke="#111" stroke-width="1.6" stroke-linecap="round" stroke-linejoin="round"/></svg>