<svg xmlns="http://www.w3.org/2000/svg" width="96" height="64" viewBox="0 0 96 64"><rect x="6" y="6" width="1.86" height="52" fill="none" stroke="#111" stroke-width="1.6"/><rect x="6.09" y="6.09" width="1.67" height="51.82" fill="none" stroke="#111" stroke-width="1.6"/><rect x="6.09" y="6.42" width="0.47" height="0.09" fill="none" stroke="#111" stroke-width="1.6"/><rect x="6.09" y="7.35" width="0.47" height="0.09" fill="none" stroke="#111" stroke-width="1.6"/><rect x="6.09" y="8.27" width="0.47" height="0.1" fill="none" stroke="#111" stroke-width="1.6"/><rect x="6.09" y="9.2" width="0.47" height="0.1" fill="none" stroke="#111" stroke-width="1.6"/><rect x="6.09" y="10.13" width="0.47" height="0.09" fill="none" stroke="#111" stroke-width="1.6"/><rect x="6.09" y="11.06" width="0.47" height="0.09" fill="none" stroke="#111" stroke-width="1.6"/><rect x="6.09" y="11.99" width="0.47" height="0.09" fill="none" stroke="#111" stroke-width="1.6"/><rect x="6.09" y="12.92" width="0.47" height="0.09" fill="none" stroke="#111" stroke-width="1.6"/><rect x="6.09" y="13.85" width="0.47" height="0.09" fill="none" stroke="#111" stroke-width="1.6"/><rect x="6.09" y="14.77" width="0.47" height="0.1" fill="none" stroke="#111" stroke-width="1.6"/><rect x="6.09" y="15.7" width="0.47" height="0.1" fill="none" stroke="#111" stroke-width="1.6"/><rect x="6.09" y="16.63" width="0.47" height="0.09" fill="none" stroke="#111" stroke-width="1.6"/><rect x="6.09" y="17.56" width="0.47" height="0.09" fill="none" stroke="#111" stroke-width="1.6"/><rect x="6.09" y="18.49" width="0.47" height="0.09" fill="none" stroke="#111" stroke-width="1.6"/><rect x="6.09" y="19.42" width="0.47" height="0.09" fill="none" stroke="#111" stroke-width="1.6"/><rect x="6.09" y="20.35" width="0.47" height="0.09" fill="none" stroke="#111" stroke-width="1.6"/><rect x="6.09" y="21.27" width="0.47" height="0.1" fill="none" stroke="#111" stroke-width="1.6"/><rect x="6.09" y="22.2" width="0.47" height="0.1" fill="none" stroke="#111" stroke-width="1.6"/><rect x="6.09" y="23.13" width="0.47" height="0.09" fill="none" stroke="#111" stroke-width="1.6"/><rect x="6.09" y="24.06" width="0.47" height="0.09" fill="none" stroke="#111" stroke-width="1.6"/><rect x="6.09" y="24.99" width="0.47" height="0.09" fill="none" stroke="#111" stroke-width="1.6"/><rect x="6.09" y="25.92" width="0.47" height="0.09" fill="none" stroke="#111" stroke-width="1.6"/><rect x="6.09" y="26.85" width="0.47" height="0.09" fill="none" stroke="#111" stroke-width="1.6"/><rect x="6.09" y="27.77" width="0.47" height="0.1" fill="none" stroke="#111" stroke-width="1.6"/><rect x="6.09" y="28.7" width="0.47" height="0.1" fill="none" stroke="#111" stroke-width="1.6"/><rect x="6.09" y="29.63" width="0.47" height="0.09" fill="none" stroke="#111" stroke-width="1.6"/><rect x="6.09" y="30.56" width="0.47" height="0.09" fill="none" stroke="#111" stroke-width="1.6"/><rect x="6.09" y="31.49" width="0.47" height="0.09" fill="none" stroke="#111" stroke-width="1.6"/><rect x="6.09" y="32.42" width="0.47" height="0.09" fill="none" stroke="#111" stroke-width="1.6"/><rect x="6.09" y="33.35" width="0.47" height="0.09" fill="none" stroke="#111" stroke-width="1.6"/><rect x="6.09" y="34.27" width="0.47" height="0.1" fill="none" stroke="#111" stroke-width="1.6"/><rect x="6.09" y="35.2" width="0.47" height="0.1" fill="none" stroke="#111" stroke-width="1.6"/><rect x="6.09" y="36.13" width="0.47" height="0.09" fill="none" stroke="#111" stroke-width="1.6"/><rect x="6.09" y="37.06" width="0.47" height="0.09" fill="none" stroke="#111" stroke-width="1.6"/><rect x="6.09" y="37.99" width="0.47" height="0.09" fill="none" stroke="#111" stroke-width="1.6"/><rect x="6.09" y="38.92" width="0.47" height="0.09" fill="none" stroke="#111" stroke-width="1.6"/><rect x="6.09" y="39.85" width="0.47" height="0.09" fill="none" stroke="#111" stroke-width="1.6"/><rect x="6.09" y="40.77" width="0.47" height="0.1" fill="none" stroke="#111" stroke-width="1.6"/><rect x="6.09" y="41.7" width="0.47" height="0.1" fill="none" stroke="#111" stroke-width="1.6"/><rect x="6.09" y="42.63" width="0.47" height="0.09" fill="none" stroke="#111" stroke-width="1.6"/><rect x="6.09" y="43.56" width="0.47" height="0.09" fill="none" stroke="#111" stroke-width="1.6"/><rect x="6.09" y="44.49" width="0.47" height="0.09" fill="none" stroke="#111" stroke-width="1.6"/><rect x="6.09" y="45.42" width="0.47" height="0.09" fill="none" stroke="#111" stroke-width="1.6"/><rect x="6.09" y="46.35" width="0.47" height="0.09" fill="none" stroke="#111" stroke-width="1.6"/><rect x="6.09" y="47.27" width="0.47" height="0.1" fill="none" stroke="#111" stroke-width="1.6"/><rect x="6.09" y="48.2" width="0.47" height="0.1" fill="none" stroke="#111" stroke-width="1.6"/><rect x="6.09" y="49.13" width="0.47" height="0.09" fill="none" stroke="#111" stroke-width="1.6"/><rect x="6.09" y="50.06" width="0.47" height="0.09" fill="none" stroke="#111" stroke-width="1.6"/><rect x="6.09" y="50.99" width="0.47" height="0.09" fill="none" stroke="#111" stroke-width="1.6"/><rect x="6.09" y="51.92" width="0.47" height="0.09" fill="none" stroke="#111" stroke-width="1.6"/><rect x="6.09" y="52.85" width="0.47" height="0.09" fill="none" stroke="#111" stroke-width="1.6"/><rect x="6.09" y="53.77" width="0.47" height="0.1" fill="none" stroke="#111" stroke-width="1.6"/><rect x="6.09" y="54.7" width="0.47" height="0.1" fill="none" stroke="#111" stroke-width="1.6"/><rect x="6.09" y="55.63" width="0.47" height="0.09" fill="none" stroke="#111" stroke-width="1.6"/><rect x="6.09" y="56.56" width="0.47" height="0.09" fill="none" stroke="#111" stroke-width="1.6"/><rect x="6.09" y="57.49" width="0.47" height="0.09" fill="none" stroke="#111" stroke-width="1.6"/><rect x="7.3" y="6.42" width="0.46" height="0.09" fill="none" stroke="#111" stroke-width="1.6"/><rect x="7.3" y="7.35" width="0.46" height="0.09" fill="none" stroke="#111" stroke-width="1.6"/><rect x="7.3" y="8.27" width="0.46" height="0.1" fill="none" stroke="#111" stroke-width="1.6"/><rect x="7.3" y="9.2" width="0.46" height="0.1" fill="none" stroke="#111" stroke-width="1.6"/><rect x="7.3" y="10.13" width="0.46" height="0.09" fill="none" stroke="#111" stroke-width="1.6"/><rect x="7.3" y="11.06" width="0.46" height="0.09" fill="none" stroke="#111" stroke-width="1.6"/><rect x="7.3" y="11.99" width="0.46" height="0.09" fill="none" stroke="#111" stroke-width="1.6"/><rect x="7.3" y="12.92" width="0.46" height="0.09" fill="none" stroke="#111" stroke-width="1.6"/><rect x="7.3" y="13.85" width="0.46" height="0.09" fill="none" stroke="#111" stroke-width="1.6"/><rect x="7.3" y="14.77" width="0.46" height="0.1" fill="none" stroke="#111" stroke-width="1.6"/><rect x="7.3" y="15.7" width="0.46" height="0.1" fill="none" stroke="#111" stroke-width="1.6"/><rect x="7.3" y="16.63" width="0.46" height="0.09" fill="none" stroke="#111" stroke-width="1.6"/><rect x="7.3" y="17.56" width="0.46" height="0.09" fill="none" stroke="#111" stroke-width="1.6"/><rect x="7.3" y="18.49" width="0.46" height="0.09" fill="none" stroke="#111" stroke-width="1.6"/><rect x="7.3" y="19.42" width="0.46" height="0.09" fill="none" stroke="#111" stroke-width="1.6"/><rect x="7.3" y="20.35" width="0.46" height="0.09" fill="none" stroke="#111" stroke-width="1.6"/><rect x="7.3" y="21.27" width="0.46" height="0.1" fill="none" stroke="#111" stroke-width="1.6"/><rect x="7.3" y="22.2" width="0.46" height="0.1" fill="none" stroke="#111" stroke-width="1.6"/><rect x="7.3" y="23.13" width="0.46" height="0.09" fill="none" stroke="#111" stroke-width="1.6"/><rect x="7.3" y="24.06" width="0.46" height="0.09" fill="none" stroke="#111" stroke-width="1.6"/><rect x="7.3" y="24.99" width="0.46" height="0.09" fill="none" stroke="#111" stroke-width="1.6"/><rect x="7.3" y="25.92" width="0.46" height="0.09" fill="none" stroke="#111" stroke-width="1.6"/><rect x="7.3" y="26.85" width="0.46" height="0.09" fill="none" stroke="#111" stroke-width="1.6"/><rect x="7.3" y="27.77" width="0.46" height="0.1" fill="none" stroke="#111" stroke-width="1.6"/><rect x="7.3" y="28.7" width="0.46" height="0.1" fill="none" stroke="#111" stroke-width="1.6"/><rect x="7.3" y="29.63" width="0.46" height="0.09" fill="none" stroke="#111" stroke-width="1.6"/><rect x="7.3" y="30.56" width="0.46" height="0.09" fill="none" stroke="#111" stroke-width="1.6"/><rect x="7.3" y="31.49" width="0.46" height="0.09" fill="none" stroke="#111" stroke-width="1.6"/><rect x="7.3" y="32.42" width="0.46" height="0.09" fill="none" stroke="#111" stroke-width="1.6"/><rect x="7.3" y="33.35" width="0.46" height="0.09" fill="none" stroke="#111" stroke-width="1.6"/><rect x="7.3" y="34.27" width="0.46" height="0.1" fill="none" stroke="#111" stroke-width="1.6"/><rect x="7.3" y="35.2" width="0.46" height="0.1" fill="none" stroke="#111" stroke-width="1.6"/><rect x="7.3" y="36.13" width="0.46" height="0.09" fill="none" stroke="#111" stroke-width="1.6"/><rect x="7.3" y="37.06" width="0.46" height="0.09" fill="none" stroke="#111" stroke-width="1.6"/><rect x="7.3" y="37.99" width="0.46" height="0.09" fill="none" stroke="#111" stroke-width="1.6"/><rect x="7.3" y="38.92" width="0.46" height="0.09" fill="none" stroke="#111" stroke-width="1.6"/><rect x="7.3" y="39.85" width="0.46" height="0.09" fill="none" stroke="#111" stroke-width="1.6"/><rect x="7.3" y="40.77" width="0.46" height="0.1" fill="none" stroke="#111" stroke-width="1.6"/><rect x="7.3" y="41.7" width="0.46" height="0.1" fill="none" stroke="#111" stroke-width="1.6"/><rect x="7.3" y="42.63" width="0.46" height="0.09" fill="none" stroke="#111" stroke-width="1.6"/><rect x="7.3" y="43.56" width="0.46" height="0.09" fill="none" stroke="#111" stroke-width="1.6"/><rect x="7.3" y="44.49" width="0.46" height="0.09" fill="none" stroke="#111" stroke-width="1.6"/><rect x="7.3" y="45.42" width="0.46" height="0.09" fill="none" stroke="#111" stroke-width="1.6"/><rect x="7.3" y="46.35" width="0.46" height="0.09" fill="none" stroke="#111" stroke-width="1.6"/><rect x="7.3" y="47.27" width="0.46" height="0.1" fill="none" stroke="#111" stroke-width="1.6"/><rect x="7.3" y="48.2" width="0.46" height="0.1" fill="none" stroke="#111" stroke-width="1.6"/><rect x="7.3" y="49.13" width="0.46" height="0.09" fill="none" stroke="#111" stroke-width="1.6"/><rect x="7.3" y="50.06" width="0.46" height="0.09" fill="none" stroke="#111" stroke-width="1.6"/><rect x="7.3" y="50.99" width="0.46" height="0.09" fill="none" stroke="#111" stroke-width="1.6"/><rect x="7.3" y="51.92" width="0.46" height="0.09" fill="none" stroke="#111" stroke-width="1.6"/><rect x="7.3" y="52.85" width="0.46" height="0.09" fill="none" stroke="#111" stroke-width="1.6"/><rect x="7.3" y="53.77" width="0.46" height="0.1" fill="none" stroke="#111" stroke-width="1.6"/><rect x="7.3" y="54.7" width="0.46" height="0.1" fill="none" stroke="#111" stroke-width="1.6"/><rect x="7.3" y="55.63" width="0.46" height="0.09" fill="none" stroke="#111" stroke-width="1.6"/><rect x="7.3" y="56.56" width="0.46" height="0.09" fill="none" stroke="#111" stroke-width="1.6"/><rect x="7.3" y="57.49" width="0.46" height="0.09" fill="none" stroke="#111" stroke-width="1.6"/></svg>