<svg xmlns="http://www.w3.org/2000/svg" width="96" height="64" viewBox="0 0 96 64"><rect x="6" y="6" width="75.64" height="47.27" fill="none" stroke="#111" stroke-width="1.6"/><rect x="9.78" y="18.29" width="11.35" height="30.26" fill="none" stroke="#111" stroke-width="1.6"/><circle cx="15.45" cy="12.62" r="1.89" fill="none" stroke="#111" stroke-width="1.6"/><polyline points="15.45,18.29 15.45,12.62 34.36,12.62 34.36,18.29" fill="none" stroke="#111" stroke-width="1.6" stroke-linecap="round" stroke-linejoin="round"/><polyline points="15.45,48.55 15.45,58" fill="none" stroke="#111" stroke-width="1.6" stroke-linecap="round" stroke-linejoin="round"/><rect x="28.69" y="18.29" width="11.35" height="30.26" fill="none" stroke="#111" stroke-width="1.6"/><circle cx="34.36" cy="12.62" r="1.89" fill="none" stroke="#111" stroke-width="1.6"/><polyline points="34.36,18.29 34.36,12.62 53.27,12.62 53.27,18.29" fill="none" stroke="#111" stroke-width="1.6" stroke-linecap="round" stroke-linejoin="round"/><polyline points="34.36,48.55 34.36,58" fill="none" stroke="#111" stroke-width="1.6" stroke-linecap="round" stroke-linejoin="round"/><rect x="47.6" y="18.29" width="11.35" height="30.26" fill="none" stroke="#111" stroke-width="1.6"/><circle cx="53.27" cy="12.62" r="1.89" fill="none" stroke="#111" stroke-width="1.6"/><polyline points="53.27,18.29 53.27,12.62 72.18,12.62 72.18,18.29" fill="none" stroke="#111" stroke-width="1.6" stroke-linecap="round" stroke-linejoin="round"/><polyline points="53.27,48.55 53.27,58" fill="none" stroke="#111" stroke-width="1.6" stroke-linecap="round" stroke-linejoin="round"/><rect x="66.51" y="18.29" width="11.34" height="30.26" fill="none" stroke="#111" stroke-width="1.6"/><polyline points="72.18,48.55 72.18,58" fill="none" stroke="#111" stroke-width="1.6" stroke-linecap="round" stroke-linejoin="round"/></svg>