<svg xmlns="http://www.w3.org/2000/svg" width="96" height="64" viewBox="0 0 96 64"><rect x="6" y="6" width="10.1" height="50.49" fill="none" stroke="#111" stroke-width="1.6"/><rect x="6" y="8.27" width="2.52" height="0.51" fill="none" stroke="#111" stroke-width="1.6"/><rect x="6" y="13.32" width="2.52" height="0.51" fill="none" stroke="#111" stroke-width="1.6"/><rect x="6" y="18.37" width="2.52" height="0.5" fill="none" stroke="#111" stroke-width="1.6"/><rect x="6" y="23.42" width="2.52" height="0.5" fill="none" stroke="#111" stroke-width="1.6"/><rect x="6" y="28.47" width="2.52" height="0.5" fill="none" stroke="#111" stroke-width="1.6"/><rect x="6" y="33.51" width="2.52" height="0.51" fill="none" stroke="#111" stroke-width="1.6"/><rect x="6" y="38.56" width="2.52" height="0.51" fill="none" stroke="#111" stroke-width="1.6"/><rect x="6" y="43.61" width="2.52" height="0.51" fill="none" stroke="#111" stroke-width="1.6"/><rect x="6" y="48.66" width="2.52" height="0.51" fill="none" stroke="#111" stroke-width="1.6"/><rect x="6" y="53.71" width="2.52" height="0.5" fill="none" stroke="#111" stroke-width="1.6"/><polyline points="9.03,58 13.07,58" fill="none" stroke="#111" stroke-width="1.6" stroke-linecap="round" stroke-linejoin="round"/><rect x="13.57" y="8.27" width="2.53" height="0.51" fill="none" stroke="#111" stroke-width="1.6"/><rect x="13.57" y="13.32" width="2.53" height="0.51" fill="none" stroke="#111" stroke-width="1.6"/><rect x="13.57" y="18.37" width="2.53" height="0.5" fill="none" stroke="#111" stroke-width="1.6"/><rect x="13.57" y="23.42" width="2.53" height="0.5" fill="none" stroke="#111" stroke-width="1.6"/><rect x="13.57" y="28.47" width="2.53" height="0.5" fill="none" stroke="#111" stroke-width="1.6"/><rect x="13.57" y="33.51" width="2.53" height="0.51" fill="none" stroke="#111" stroke-width="1.6"/><rect x="13.57" y="38.56" width="2.53" height="0.51" fill="none" stroke="#111" stroke-width="1.6"/><rect x="13.57" y="43.61" width="2.53" height="0.51" fill="none" stroke="#111" stroke-width="1.6"/><rect x="13.57" y="48.66" width="2.53" height="0.51" fill="none" stroke="#111" stroke-width="1.6"/><rect x="13.57" y="53.71" width="2.53" height="0.5" fill="none" stroke="#111" stroke-width="1.6"/></svg>