<svg xmlns="http://www.w3.org/2000/svg" width="96" height="64" viewBox="0 0 96 64"><circle cx="16.64" cy="17.82" r="0" fill="none" stroke="#111" stroke-width="1.6"/><circle cx="16.64" cy="27.27" r="0" fill="none" stroke="#111" stroke-width="1.6"/><circle cx="16.64" cy="36.73" r="0" fill="none" stroke="#111" stroke-width="1.6"/><circle cx="16.64" cy="46.18" r="0" fill="none" stroke="#111" stroke-width="1.6"/><circle cx="26.09" cy="15.45" r="0" fill="none" stroke="#111" stroke-width="1.6"/><circle cx="26.09" cy="17.82" r="0" fill="none" stroke="#111" stroke-width="1.6"/><circle cx="26.09" cy="20.18" r="0" fill="none" stroke="#111" stroke-width="1.6"/><circle cx="26.09" cy="24.91" r="0" fill="none" stroke="#111" stroke-width="1.6"/><circle cx="26.09" cy="27.27" r="0" fill="none" stroke="#111" stroke-width="1.6"/><circle cx="26.09" cy="29.64" r="0" fill="none" stroke="#111" stroke-width="1.6"/><circle cx="26.09" cy="34.36" r="0" fill="none" stroke="#111" stroke-width="1.6"/><circle cx="26.09" cy="36.73" r="0" fill="none" stroke="#111" stroke-width="1.6"/><circle cx="26.09" cy="39.09" r="0" fill="none" stroke="#111" stroke-width="1.6"/><circle cx="26.09" cy="43.82" r="0" fill="none" stroke="#111" stroke-width="1.6"/><circle cx="26.09" cy="46.18" r="0" fill="none" stroke="#111" stroke-width="1.6"/><circle cx="26.09" cy="48.55" r="0" fill="none" stroke="#111" stroke-width="1.6"/><rect x="6" y="6" width="28.36" height="52" fill="none" stroke="#111" stroke-width="1.6"/><polyline points="13.09,15.45 16.64,15.45" fill="none" stroke="#111" stroke-width="1.6" stroke-linecap="round" stroke-linejoin="round"/><polyline points="13.09,17.82 14.27,17.82" fill="none" stroke="#111" stroke-width="1.6" stroke-linecap="round" stroke-linejoin="round"/><polyline points="13.09,20.18 16.64,20.18" fill="none" stroke="#111" stroke-width="1.6" stroke-linecap="round" stroke-linejoin="round"/><polyline points="13.09,24.91 16.64,24.91" fill="none" stroke="#111" stroke-width="1.6" stroke-linecap="round" stroke-linejoin="round"/><polyline points="13.09,27.27 14.27,27.27" fill="none" stroke="#111" stroke-width="1.6" stroke-linecap="round" stroke-linejoin="round"/><polyline points="13.09,29.64 16.64,29.64" fill="none" stroke="#111" stroke-width="1.6" stroke-linecap="round" stroke-linejoin="round"/><polyline points="13.09,34.36 16.64,34.36" fill="none" stroke="#111" stroke-width="1.6" stroke-linecap="round" stroke-linejoin="round"/><polyline points="13.09,36.73 14.27,36.73" fill="none" stroke="#111" stroke-width="1.6" stroke-linecap="round" stroke-linejoin="round"/><polyline points="13.09,39.09 16.64,39.09" fill="none" stroke="#111" stroke-width="1.6" stroke-linecap="round" stroke-linejoin="round"/><polyline points="13.09,43.82 16.64,43.82" fill="none" stroke="#111" stroke-width="1.6" stroke-linecap="round" stroke-linejoin="round"/><polyline points="13.09,46.18 14.27,46.18" fill="none" stroke="#111" stroke-width="1.6" stroke-linecap="round" stroke-linejoin="round"/><polyline points="13.09,48.55 16.64,48.55" fill="none" stroke="#111" stroke-width="1.6" stroke-linecap="round" stroke-linejoin="round"/><polyline points="14.27,17.82 16.64,17.82" fill="none" stroke="#111" stroke-width="1.6" stroke-linecap="round" stroke-linejoin="round"/><polyline points="14.27,27.27 16.64,27.27" fill="none" stroke="#111" stroke-width="1.6" stroke-linecap="round" stroke-linejoin="round"/><polyline points="14.27,36.73 16.64,36.73" fill="none" stroke="#111" stroke-width="1.6" stroke-linecap="round" stroke-linejoin="round"/><polyline points="14.27,46.18 16.64,46.18" fill="none" stroke="#111" stroke-width="1.6" stroke-linecap="round" stroke-linejoin="round"/><circle cx="16.4" cy="16.28" r="0.12" fill="none" stroke="#111" stroke-width="1.6"/><circle cx="16.4" cy="18.65" r="0.12" fill="none" stroke="#111" stroke-width="1.6"/><circle cx="16.4" cy="25.74" r="0.12" fill="none" stroke="#111" stroke-width="1.6"/><circle cx="16.4" cy="28.1" r="0.12" fill="none" stroke="#111" stroke-width="1.6"/><circle cx="16.4" cy="35.19" r="0.12" fill="none" stroke="#111" stroke-width="1.6"/><circle cx="16.4" cy="37.55" r="0.12" fill="none" stroke="#111" stroke-width="1.6"/><circle cx="16.4" cy="44.65" r="0.12" fill="none" stroke="#111" stroke-width="1.6"/><circle cx="16.4" cy="47.01" r="0.12" fill="none" stroke="#111" stroke-width="1.6"/><path d="M 16.64 16.05 Q 16.92 16.34 16.64 16.64" fill="none" stroke="#111" stroke-width="1.6" stroke-linecap="round"/><path d="M 16.64 16.64 Q 16.92 16.93 16.64 17.23" fill="none" stroke="#111" stroke-width="1.6" stroke-linecap="round"/><path d="M 16.64 18.41 Q 16.92 18.7 16.64 19" fill="none" stroke="#111" stroke-width="1.6" stroke-linecap="round"/><path d="M 16.64 19 Q 16.92 19.3 16.64 19.59" fill="none" stroke="#111" stroke-width="1.6" stroke-linecap="round"/><path d="M 16.64 25.5 Q 16.92 25.8 16.64 26.09" fill="none" stroke="#111" stroke-width="1.6" stroke-linecap="round"/><path d="M 16.64 26.09 Q 16.92 26.39 16.64 26.68" fill="none" stroke="#111" stroke-width="1.6" stroke-linecap="round"/><path d="M 16.64 27.86 Q 16.92 28.16 16.64 28.45" fill="none" stroke="#111" stroke-width="1.6" stroke-linecap="round"/><path d="M 16.64 28.45 Q 16.92 28.75 16.64 29.05" fill="none" stroke="#111" stroke-width="1.6" stroke-linecap="round"/><path d="M 16.64 34.95 Q 16.92 35.25 16.64 35.55" fill="none" stroke="#111" stroke-width="1.6" stroke-linecap="round"/><path d="M 16.64 35.55 Q 16.92 35.84 16.64 36.14" fill="none" stroke="#111" stroke-width="1.6" stroke-linecap="round"/><path d="M 16.64 37.32 Q 16.92 37.61 16.64 37.91" fill="none" stroke="#111" stroke-width="1.6" stroke-linecap="round"/><path d="M 16.64 37.91 Q 16.92 38.2 16.64 38.5" fill="none" stroke="#111" stroke-width="1.6" stroke-linecap="round"/><path d="M 16.64 44.41 Q 16.92 44.7 16.64 45" fill="none" stroke="#111" stroke-width="1.6" stroke-linecap="round"/><path d="M 16.64 45 Q 16.92 45.3 16.64 45.59" fill="none" stroke="#111" stroke-width="1.6" stroke-linecap="round"/><path d="M 16.64 46.77 Q 16.92 47.07 16.64 47.36" fill="none" stroke="#111" stroke-width="1.6" stroke-linecap="round"/><path d="M 16.64 47.36 Q 16.92 47.66 16.64 47.95" fill="none" stroke="#111" stroke-width="1.6" stroke-linecap="round"/><polyline points="16.64,15.45 16.64,16.05" fill="none" stroke="#111" stroke-width="1.6" stroke-linecap="round" stroke-linejoin="round"/><polyline points="16.64,17.82 16.64,17.23" fill="none" stroke="#111" stroke-width="1.6" stroke-linecap="round" stroke-linejoin="round"/><polyline points="16.64,17.82 16.64,18.41" fill="none" stroke="#111" stroke-width="1.6" stroke-linecap="round" stroke-linejoin="round"/><polyline points="16.64,20.18 16.64,19.59" fill="none" stroke="#111" stroke-width="1.6" stroke-linecap="round" stroke-linejoin="round"/><polyline points="16.64,24.91 16.64,25.5" fill="none" stroke="#111" stroke-width="1.6" stroke-linecap="round" stroke-linejoin="round"/><polyline points="16.64,27.27 16.64,26.68" fill="none" stroke="#111" stroke-width="1.6" stroke-linecap="round" stroke-linejoin="round"/><polyline points="16.64,27.27 16.64,27.86" fill="none" stroke="#111" stroke-width="1.6" stroke-linecap="round" stroke-linejoin="round"/><polyline points="16.64,29.64 16.64,29.05" fill="none" stroke="#111" stroke-width="1.6" stroke-linecap="round" stroke-linejoin="round"/><polyline points="16.64,34.36 16.64,34.95" fill="none" stroke="#111" stroke-width="1.6" stroke-linecap="round" stroke-linejoin="round"/><polyline points="16.64,36.73 16.64,36.14" fill="none" stroke="#111" stroke-width="1.6" stroke-linecap="round" stroke-linejoin="round"/><polyline points="16.64,36.73 16.64,37.32" fill="none" stroke="#111" stroke-width="1.6" stroke-linecap="round" stroke-linejoin="round"/><polyline points="16.64,39.09 16.64,38.5" fill="none" stroke="#111" stroke-width="1.6" stroke-linecap="round" stroke-linejoin="round"/><polyline points="16.64,43.82 16.64,44.41" fill="none" stroke="#111" stroke-width="1.6" stroke-linecap="round" stroke-linejoin="round"/><polyline points="16.64,46.18 16.64,45.59" fill="none" stroke="#111" stroke-width="1.6" stroke-linecap="round" stroke-linejoin="round"/><polyline points="16.64,46.18 16.64,46.77" fill="none" stroke="#111" stroke-width="1.6" stroke-linecap="round" stroke-linejoin="round"/><polyline points="16.64,48.55 16.64,47.95" fill="none" stroke="#111" stroke-width="1.6" stroke-linecap="round" stroke-linejoin="round"/><polyline points="17.35,19.71 17.35,15.93" fill="none" stroke="#111" stroke-width="1.6" stroke-linecap="round" stroke-linejoin="round"/><polyline points="17.35,29.16 17.35,25.38" fill="none" stroke="#111" stroke-width="1.6" stroke-linecap="round" stroke-linejoin="round"/><polyline points="17.35,38.62 17.35,34.84" fill="none" stroke="#111" stroke-width="1.6" stroke-linecap="round" stroke-linejoin="round"/><polyline points="17.35,48.07 17.35,44.29" fill="none" stroke="#111" stroke-width="1.6" stroke-linecap="round" stroke-linejoin="round"/><polyline points="17.82,19.71 17.82,15.93" fill="none" stroke="#111" stroke-width="1.6" stroke-linecap="round" stroke-linejoin="round"/><polyline points="17.82,29.16 17.82,25.38" fill="none" stroke="#111" stroke-width="1.6" stroke-linecap="round" stroke-linejoin="round"/><polyline points="17.82,38.62 17.82,34.84" fill="none" stroke="#111" stroke-width="1.6" stroke-linecap="round" stroke-linejoin="round"/><polyline points="17.82,48.07 17.82,44.29" fill="none" stroke="#111" stroke-width="1.6" stroke-linecap="round" stroke-linejoin="round"/><polyline points="18.41,16.05 18.41,15.45 20.18,15.45" fill="none" stroke="#111" stroke-width="1.6" stroke-linecap="round" stroke-linejoin="round"/><polyline points="18.41,19.59 18.41,20.18 20.18,20.18" fill="none" stroke="#111" stroke-width="1.6" stroke-linecap="round" stroke-linejoin="round"/><polyline points="18.41,25.5 18.41,24.91 20.18,24.91" fill="none" stroke="#111" stroke-width="1.6" stroke-linecap="round" stroke-linejoin="round"/><polyline points="18.41,29.05 18.41,29.64 20.18,29.64" fill="none" stroke="#111" stroke-width="1.6" stroke-linecap="round" stroke-linejoin="round"/><polyline points="18.41,34.95 18.41,34.36 20.18,34.36" fill="none" stroke="#111" stroke-width="1.6" stroke-linecap="round" stroke-linejoin="round"/><polyline points="18.41,38.5 18.41,39.09 20.18,39.09" fill="none" stroke="#111" stroke-width="1.6" stroke-linecap="round" stroke-linejoin="round"/><polyline points="18.41,44.41 18.41,43.82 20.18,43.82" fill="none" stroke="#111" stroke-width="1.6" stroke-linecap="round" stroke-linejoin="round"/><polyline points="18.41,47.95 18.41,48.55 20.18,48.55" fill="none" stroke="#111" stroke-width="1.6" stroke-linecap="round" stroke-linejoin="round"/><path d="M 18.41 16.64 Q 18.13 16.34 18.41 16.05" fill="none" stroke="#111" stroke-width="1.6" stroke-linecap="round"/><path d="M 18.41 17.23 Q 18.13 16.93 18.41 16.64" fill="none" stroke="#111" stroke-width="1.6" stroke-linecap="round"/><path d="M 18.41 17.82 Q 18.13 17.52 18.41 17.23" fill="none" stroke="#111" stroke-width="1.6" stroke-linecap="round"/><path d="M 18.41 18.41 Q 18.13 18.11 18.41 17.82" fill="none" stroke="#111" stroke-width="1.6" stroke-linecap="round"/><path d="M 18.41 19 Q 18.13 18.7 18.41 18.41" fill="none" stroke="#111" stroke-width="1.6" stroke-linecap="round"/><path d="M 18.41 19.59 Q 18.13 19.3 18.41 19" fill="none" stroke="#111" stroke-width="1.6" stroke-linecap="round"/><path d="M 18.41 26.09 Q 18.13 25.8 18.41 25.5" fill="none" stroke="#111" stroke-width="1.6" stroke-linecap="round"/><path d="M 18.41 26.68 Q 18.13 26.39 18.41 26.09" fill="none" stroke="#111" stroke-width="1.6" stroke-linecap="round"/><path d="M 18.41 27.27 Q 18.13 26.98 18.41 26.68" fill="none" stroke="#111" stroke-width="1.6" stroke-linecap="round"/><path d="M 18.41 27.86 Q 18.13 27.57 18.41 27.27" fill="none" stroke="#111" stroke-width="1.6" stroke-linecap="round"/><path d="M 18.41 28.45 Q 18.13 28.16 18.41 27.86" fill="none" stroke="#111" stroke-width="1.6" stroke-linecap="round"/><path d="M 18.41 29.05 Q 18.13 28.75 18.41 28.45" fill="none" stroke="#111" stroke-width="1.6" stroke-linecap="round"/><path d="M 18.41 35.55 Q 18.13 35.25 18.41 34.95" fill="none" stroke="#111" stroke-width="1.6" stroke-linecap="round"/><path d="M 18.41 36.14 Q 18.13 35.84 18.41 35.55" fill="none" stroke="#111" stroke-width="1.6" stroke-linecap="round"/><path d="M 18.41 36.73 Q 18.13 36.43 18.41 36.14" fill="none" stroke="#111" stroke-width="1.6" stroke-linecap="round"/><path d="M 18.41 37.32 Q 18.13 37.02 18.41 36.73" fill="none" stroke="#111" stroke-width="1.6" stroke-linecap="round"/><path d="M 18.41 37.91 Q 18.13 37.61 18.41 37.32" fill="none" stroke="#111" stroke-width="1.6" stroke-linecap="round"/><path d="M 18.41 38.5 Q 18.13 38.2 18.41 37.91" fill="none" stroke="#111" stroke-width="1.6" stroke-linecap="round"/><path d="M 18.41 45 Q 18.13 44.7 18.41 44.41" fill="none" stroke="#111" stroke-width="1.6" stroke-linecap="round"/><path d="M 18.41 45.59 Q 18.13 45.3 18.41 45" fill="none" stroke="#111" stroke-width="1.6" stroke-linecap="round"/><path d="M 18.41 46.18 Q 18.13 45.89 18.41 45.59" fill="none" stroke="#111" stroke-width="1.6" stroke-linecap="round"/><path d="M 18.41 46.77 Q 18.13 46.48 18.41 46.18" fill="none" stroke="#111" stroke-width="1.6" stroke-linecap="round"/><path d="M 18.41 47.36 Q 18.13 47.07 18.41 46.77" fill="none" stroke="#111" stroke-width="1.6" stroke-linecap="round"/><path d="M 18.41 47.95 Q 18.13 47.66 18.41 47.36" fill="none" stroke="#111" stroke-width="1.6" stroke-linecap="round"/><circle cx="18.65" cy="16.28" r="0.12" fill="none" stroke="#111" stroke-width="1.6"/><circle cx="18.65" cy="25.74" r="0.12" fill="none" stroke="#111" stroke-width="1.6"/><circle cx="18.65" cy="35.19" r="0.12" fill="none" stroke="#111" stroke-width="1.6"/><circle cx="18.65" cy="44.65" r="0.12" fill="none" stroke="#111" stroke-width="1.6"/><polyline points="20.18,15.45 20.77,15.45 20.77,17.23" fill="none" stroke="#111" stroke-width="1.6" stroke-linecap="round" stroke-linejoin="round"/><polyline points="20.18,20.18 20.77,20.18 20.77,18.41 21.36,18.41" fill="none" stroke="#111" stroke-width="1.6" stroke-linecap="round" stroke-linejoin="round"/><polyline points="20.18,24.91 20.77,24.91 20.77,26.68" fill="none" stroke="#111" stroke-width="1.6" stroke-linecap="round" stroke-linejoin="round"/><polyline points="20.18,29.64 20.77,29.64 20.77,27.86 21.36,27.86" fill="none" stroke="#111" stroke-width="1.6" stroke-linecap="round" stroke-linejoin="round"/><polyline points="20.18,34.36 20.77,34.36 20.77,36.14" fill="none" stroke="#111" stroke-width="1.6" stroke-linecap="round" stroke-linejoin="round"/><polyline points="20.18,39.09 20.77,39.09 20.77,37.32 21.36,37.32" fill="none" stroke="#111" stroke-width="1.6" stroke-linecap="round" stroke-linejoin="round"/><polyline points="20.18,43.82 20.77,43.82 20.77,45.59" fill="none" stroke="#111" stroke-width="1.6" stroke-linecap="round" stroke-linejoin="round"/><polyline points="20.18,48.55 20.77,48.55 20.77,46.77 21.36,46.77" fill="none" stroke="#111" stroke-width="1.6" stroke-linecap="round" stroke-linejoin="round"/><polyline points="20.77,17.23 21.36,17.23" fill="none" stroke="#111" stroke-width="1.6" stroke-linecap="round" stroke-linejoin="round"/><polyline points="20.77,26.68 21.36,26.68" fill="none" stroke="#111" stroke-width="1.6" stroke-linecap="round" stroke-linejoin="round"/><polyline points="20.77,36.14 21.36,36.14" fill="none" stroke="#111" stroke-width="1.6" stroke-linecap="round" stroke-linejoin="round"/><polyline points="20.77,45.59 21.36,45.59" fill="none" stroke="#111" stroke-width="1.6" stroke-linecap="round" stroke-linejoin="round"/><circle cx="21.6" cy="26.45" r="0.12" fill="none" stroke="#111" stroke-width="1.6"/><circle cx="21.6" cy="28.1" r="0.12" fill="none" stroke="#111" stroke-width="1.6"/><circle cx="21.6" cy="35.9" r="0.12" fill="none" stroke="#111" stroke-width="1.6"/><circle cx="21.6" cy="37.55" r="0.12" fill="none" stroke="#111" stroke-width="1.6"/><circle cx="21.6" cy="45.35" r="0.12" fill="none" stroke="#111" stroke-width="1.6"/><circle cx="21.6" cy="47.01" r="0.12" fill="none" stroke="#111" stroke-width="1.6"/><circle cx="21.62" cy="17.09" r="0.12" fill="none" stroke="#111" stroke-width="1.6"/><circle cx="21.62" cy="18.5" r="0.12" fill="none" stroke="#111" stroke-width="1.6"/><path d="M 21.95 17.23 Q 21.66 17.51 21.36 17.23" fill="none" stroke="#111" stroke-width="1.6" stroke-linecap="round"/><path d="M 21.36 18.41 Q 21.66 18.13 21.95 18.41" fill="none" stroke="#111" stroke-width="1.6" stroke-linecap="round"/><path d="M 21.95 26.68 Q 21.66 26.97 21.36 26.68" fill="none" stroke="#111" stroke-width="1.6" stroke-linecap="round"/><path d="M 21.36 27.86 Q 21.66 27.58 21.95 27.86" fill="none" stroke="#111" stroke-width="1.6" stroke-linecap="round"/><path d="M 21.95 36.14 Q 21.66 36.42 21.36 36.14" fill="none" stroke="#111" stroke-width="1.6" stroke-linecap="round"/><path d="M 21.36 37.32 Q 21.66 37.03 21.95 37.32" fill="none" stroke="#111" stroke-width="1.6" stroke-linecap="round"/><path d="M 21.95 45.59 Q 21.66 45.87 21.36 45.59" fill="none" stroke="#111" stroke-width="1.6" stroke-linecap="round"/><path d="M 21.36 46.77 Q 21.66 46.49 21.95 46.77" fill="none" stroke="#111" stroke-width="1.6" stroke-linecap="round"/><path d="M 22.55 17.23 Q 22.25 17.51 21.95 17.23" fill="none" stroke="#111" stroke-width="1.6" stroke-linecap="round"/><path d="M 21.95 18.41 Q 22.25 18.13 22.55 18.41" fill="none" stroke="#111" stroke-width="1.6" stroke-linecap="round"/><path d="M 22.55 26.68 Q 22.25 26.97 21.95 26.68" fill="none" stroke="#111" stroke-width="1.6" stroke-linecap="round"/><path d="M 21.95 27.86 Q 22.25 27.58 22.55 27.86" fill="none" stroke="#111" stroke-width="1.6" stroke-linecap="round"/><path d="M 22.55 36.14 Q 22.25 36.42 21.95 36.14" fill="none" stroke="#111" stroke-width="1.6" stroke-linecap="round"/><path d="M 21.95 37.32 Q 22.25 37.03 22.55 37.32" fill="none" stroke="#111" stroke-width="1.6" stroke-linecap="round"/><path d="M 22.55 45.59 Q 22.25 45.87 21.95 45.59" fill="none" stroke="#111" stroke-width="1.6" stroke-linecap="round"/><path d="M 21.95 46.77 Q 22.25 46.49 22.55 46.77" fill="none" stroke="#111" stroke-width="1.6" stroke-linecap="round"/><path d="M 23.14 17.23 Q 22.84 17.51 22.55 17.23" fill="none" stroke="#111" stroke-width="1.6" stroke-linecap="round"/><path d="M 22.55 18.41 Q 22.84 18.13 23.14 18.41" fill="none" stroke="#111" stroke-width="1.6" stroke-linecap="round"/><path d="M 23.14 26.68 Q 22.84 26.97 22.55 26.68" fill="none" stroke="#111" stroke-width="1.6" stroke-linecap="round"/><path d="M 22.55 27.86 Q 22.84 27.58 23.14 27.86" fill="none" stroke="#111" stroke-width="1.6" stroke-linecap="round"/><path d="M 23.14 36.14 Q 22.84 36.42 22.55 36.14" fill="none" stroke="#111" stroke-width="1.6" stroke-linecap="round"/><path d="M 22.55 37.32 Q 22.84 37.03 23.14 37.32" fill="none" stroke="#111" stroke-width="1.6" stroke-linecap="round"/><path d="M 23.14 45.59 Q 22.84 45.87 22.55 45.59" fill="none" stroke="#111" stroke-width="1.6" stroke-linecap="round"/><path d="M 22.55 46.77 Q 22.84 46.49 23.14 46.77" fill="none" stroke="#111" stroke-width="1.6" stroke-linecap="round"/><path d="M 23.73 17.23 Q 23.43 17.51 23.14 17.23" fill="none" stroke="#111" stroke-width="1.6" stroke-linecap="round"/><path d="M 23.14 18.41 Q 23.43 18.13 23.73 18.41" fill="none" stroke="#111" stroke-width="1.6" stroke-linecap="round"/><path d="M 23.73 26.68 Q 23.43 26.97 23.14 26.68" fill="none" stroke="#111" stroke-width="1.6" stroke-linecap="round"/><path d="M 23.14 27.86 Q 23.43 27.58 23.73 27.86" fill="none" stroke="#111" stroke-width="1.6" stroke-linecap="round"/><path d="M 23.73 36.14 Q 23.43 36.42 23.14 36.14" fill="none" stroke="#111" stroke-width="1.6" stroke-linecap="round"/><path d="M 23.14 37.32 Q 23.43 37.03 23.73 37.32" fill="none" stroke="#111" stroke-width="1.6" stroke-linecap="round"/><path d="M 23.73 45.59 Q 23.43 45.87 23.14 45.59" fill="none" stroke="#111" stroke-width="1.6" stroke-linecap="round"/><path d="M 23.14 46.77 Q 23.43 46.49 23.73 46.77" fill="none" stroke="#111" stroke-width="1.6" stroke-linecap="round"/><polyline points="23.73,17.23 24.32,17.23 24.32,15.45" fill="none" stroke="#111" stroke-width="1.6" stroke-linecap="round" stroke-linejoin="round"/><polyline points="23.73,18.41 24.32,18.41 24.32,20.18" fill="none" stroke="#111" stroke-width="1.6" stroke-linecap="round" stroke-linejoin="round"/><polyline points="23.73,26.68 24.32,26.68 24.32,24.91" fill="none" stroke="#111" stroke-width="1.6" stroke-linecap="round" stroke-linejoin="round"/><polyline points="23.73,27.86 24.32,27.86 24.32,29.64" fill="none" stroke="#111" stroke-width="1.6" stroke-linecap="round" stroke-linejoin="round"/><polyline points="23.73,36.14 24.32,36.14 24.32,34.36" fill="none" stroke="#111" stroke-width="1.6" stroke-linecap="round" stroke-linejoin="round"/><polyline points="23.73,37.32 24.32,37.32 24.32,39.09" fill="none" stroke="#111" stroke-width="1.6" stroke-linecap="round" stroke-linejoin="round"/><polyline points="23.73,45.59 24.32,45.59 24.32,43.82" fill="none" stroke="#111" stroke-width="1.6" stroke-linecap="round" stroke-linejoin="round"/><polyline points="23.73,46.77 24.32,46.77 24.32,48.55" fill="none" stroke="#111" stroke-width="1.6" stroke-linecap="round" stroke-linejoin="round"/><polyline points="24.32,15.45 25.5,15.45" fill="none" stroke="#111" stroke-width="1.6" stroke-linecap="round" stroke-linejoin="round"/><polyline points="24.32,20.18 25.5,20.18" fill="none" stroke="#111" stroke-width="1.6" stroke-linecap="round" stroke-linejoin="round"/><polyline points="24.32,24.91 25.5,24.91" fill="none" stroke="#111" stroke-width="1.6" stroke-linecap="round" stroke-linejoin="round"/><polyline points="24.32,29.64 25.5,29.64" fill="none" stroke="#111" stroke-width="1.6" stroke-linecap="round" stroke-linejoin="round"/><polyline points="24.32,34.36 25.5,34.36" fill="none" stroke="#111" stroke-width="1.6" stroke-linecap="round" stroke-linejoin="round"/><polyline points="24.32,39.09 25.5,39.09" fill="none" stroke="#111" stroke-width="1.6" stroke-linecap="round" stroke-linejoin="round"/><polyline points="24.32,43.82 25.5,43.82" fill="none" stroke="#111" stroke-width="1.6" stroke-linecap="round" stroke-linejoin="round"/><polyline points="24.32,48.55 25.5,48.55" fill="none" stroke="#111" stroke-width="1.6" stroke-linecap="round" stroke-linejoin="round"/><polyline points="25.5,15.45 26.09,15.45 26.09,16.05" fill="none" stroke="#111" stroke-width="1.6" stroke-linecap="round" stroke-linejoin="round"/><polyline points="25.5,20.18 26.09,20.18 26.09,19.59" fill="none" stroke="#111" stroke-width="1.6" stroke-linecap="round" stroke-linejoin="round"/><polyline points="25.5,24.91 26.09,24.91 26.09,25.5" fill="none" stroke="#111" stroke-width="1.6" stroke-linecap="round" stroke-linejoin="round"/><polyline points="25.5,29.64 26.09,29.64 26.09,29.05" fill="none" stroke="#111" stroke-width="1.6" stroke-linecap="round" stroke-linejoin="round"/><polyline points="25.5,34.36 26.09,34.36 26.09,34.95" fill="none" stroke="#111" stroke-width="1.6" stroke-linecap="round" stroke-linejoin="round"/><polyline points="25.5,39.09 26.09,39.09 26.09,38.5" fill="none" stroke="#111" stroke-width="1.6" stroke-linecap="round" stroke-linejoin="round"/><polyline points="25.5,43.82 26.09,43.82 26.09,44.41" fill="none" stroke="#111" stroke-width="1.6" stroke-linecap="round" stroke-linejoin="round"/><polyline points="25.5,48.55 26.09,48.55 26.09,47.95" fill="none" stroke="#111" stroke-width="1.6" stroke-linecap="round" stroke-linejoin="round"/><circle cx="25.85" cy="16.28" r="0.12" fill="none" stroke="#111" stroke-width="1.6"/><circle cx="25.85" cy="18.65" r="0.12" fill="none" stroke="#111" stroke-width="1.6"/><circle cx="25.85" cy="25.74" r="0.12" fill="none" stroke="#111" stroke-width="1.6"/><circle cx="25.85" cy="28.1" r="0.12" fill="none" stroke="#111" stroke-width="1.6"/><circle cx="25.85" cy="35.19" r="0.12" fill="none" stroke="#111" stroke-width="1.6"/><circle cx="25.85" cy="37.55" r="0.12" fill="none" stroke="#111" stroke-width="1.6"/><circle cx="25.85" cy="44.65" r="0.12" fill="none" stroke="#111" stroke-width="1.6"/><circle cx="25.85" cy="47.01" r="0.12" fill="none" stroke="#111" stroke-width="1.6"/><path d="M 26.09 16.05 Q 26.38 16.34 26.09 16.64" fill="none" stroke="#111" stroke-width="1.6" stroke-linecap="round"/><path d="M 26.09 16.64 Q 26.38 16.93 26.09 17.23" fill="none" stroke="#111" stroke-width="1.6" stroke-linecap="round"/><path d="M 26.09 18.41 Q 26.38 18.71 26.09 19" fill="none" stroke="#111" stroke-width="1.6" stroke-linecap="round"/><path d="M 26.09 19 Q 26.38 19.3 26.09 19.59" fill="none" stroke="#111" stroke-width="1.6" stroke-linecap="round"/><path d="M 26.09 25.5 Q 26.38 25.8 26.09 26.09" fill="none" stroke="#111" stroke-width="1.6" stroke-linecap="round"/><path d="M 26.09 26.09 Q 26.38 26.39 26.09 26.68" fill="none" stroke="#111" stroke-width="1.6" stroke-linecap="round"/><path d="M 26.09 27.86 Q 26.38 28.16 26.09 28.45" fill="none" stroke="#111" stroke-width="1.6" stroke-linecap="round"/><path d="M 26.09 28.45 Q 26.38 28.75 26.09 29.05" fill="none" stroke="#111" stroke-width="1.6" stroke-linecap="round"/><path d="M 26.09 34.95 Q 26.38 35.25 26.09 35.55" fill="none" stroke="#111" stroke-width="1.6" stroke-linecap="round"/><path d="M 26.09 35.55 Q 26.38 35.84 26.09 36.14" fill="none" stroke="#111" stroke-width="1.6" stroke-linecap="round"/><path d="M 26.09 37.32 Q 26.38 37.61 26.09 37.91" fill="none" stroke="#111" stroke-width="1.6" stroke-linecap="round"/><path d="M 26.09 37.91 Q 26.38 38.21 26.09 38.5" fill="none" stroke="#111" stroke-width="1.6" stroke-linecap="round"/><path d="M 26.09 44.41 Q 26.38 44.71 26.09 45" fill="none" stroke="#111" stroke-width="1.6" stroke-linecap="round"/><path d="M 26.09 45 Q 26.38 45.3 26.09 45.59" fill="none" stroke="#111" stroke-width="1.6" stroke-linecap="round"/><path d="M 26.09 46.77 Q 26.38 47.07 26.09 47.36" fill="none" stroke="#111" stroke-width="1.6" stroke-linecap="round"/><path d="M 26.09 47.36 Q 26.38 47.66 26.09 47.95" fill="none" stroke="#111" stroke-width="1.6" stroke-linecap="round"/><polyline points="26.09,17.82 26.09,17.23" fill="none" stroke="#111" stroke-width="1.6" stroke-linecap="round" stroke-linejoin="round"/><polyline points="26.09,17.82 26.09,18.41" fill="none" stroke="#111" stroke-width="1.6" stroke-linecap="round" stroke-linejoin="round"/><polyline points="26.09,27.27 26.09,26.68" fill="none" stroke="#111" stroke-width="1.6" stroke-linecap="round" stroke-linejoin="round"/><polyline points="26.09,27.27 26.09,27.86" fill="none" stroke="#111" stroke-width="1.6" stroke-linecap="round" stroke-linejoin="round"/><polyline points="26.09,36.73 26.09,36.14" fill="none" stroke="#111" stroke-width="1.6" stroke-linecap="round" stroke-linejoin="round"/><polyline points="26.09,36.73 26.09,37.32" fill="none" stroke="#111" stroke-width="1.6" stroke-linecap="round" stroke-linejoin="round"/><polyline points="26.09,46.18 26.09,45.59" fill="none" stroke="#111" stroke-width="1.6" stroke-linecap="round" stroke-linejoin="round"/><polyline points="26.09,46.18 26.09,46.77" fill="none" stroke="#111" stroke-width="1.6" stroke-linecap="round" stroke-linejoin="round"/><polyline points="27.27,15.45 26.09,15.45" fill="none" stroke="#111" stroke-width="1.6" stroke-linecap="round" stroke-linejoin="round"/><polyline points="27.27,15.45 30.11,15.45" fill="none" stroke="#111" stroke-width="1.6" stroke-linecap="round" stroke-linejoin="round"/><rect x="27.27" y="17.58" width="1.42" height="0.47" fill="none" stroke="#111" stroke-width="1.6"/><polyline points="27.27,17.82 26.09,17.82" fill="none" stroke="#111" stroke-width="1.6" stroke-linecap="round" stroke-linejoin="round"/><polyline points="27.27,20.18 26.09,20.18" fill="none" stroke="#111" stroke-width="1.6" stroke-linecap="round" stroke-linejoin="round"/><polyline points="27.27,20.18 30.11,20.18" fill="none" stroke="#111" stroke-width="1.6" stroke-linecap="round" stroke-linejoin="round"/><polyline points="27.27,24.91 26.09,24.91" fill="none" stroke="#111" stroke-width="1.6" stroke-linecap="round" stroke-linejoin="round"/><polyline points="27.27,24.91 30.11,24.91" fill="none" stroke="#111" stroke-width="1.6" stroke-linecap="round" stroke-linejoin="round"/><rect x="27.27" y="27.04" width="1.42" height="0.47" fill="none" stroke="#111" stroke-width="1.6"/><polyline points="27.27,27.27 26.09,27.27" fill="none" stroke="#111" stroke-width="1.6" stroke-linecap="round" stroke-linejoin="round"/><polyline points="27.27,29.64 26.09,29.64" fill="none" stroke="#111" stroke-width="1.6" stroke-linecap="round" stroke-linejoin="round"/><polyline points="27.27,29.64 30.11,29.64" fill="none" stroke="#111" stroke-width="1.6" stroke-linecap="round" stroke-linejoin="round"/><polyline points="27.27,34.36 26.09,34.36" fill="none" stroke="#111" stroke-width="1.6" stroke-linecap="round" stroke-linejoin="round"/><polyline points="27.27,34.36 30.11,34.36" fill="none" stroke="#111" stroke-width="1.6" stroke-linecap="round" stroke-linejoin="round"/><rect x="27.27" y="36.49" width="1.42" height="0.47" fill="none" stroke="#111" stroke-width="1.6"/><polyline points="27.27,36.73 26.09,36.73" fill="none" stroke="#111" stroke-width="1.6" stroke-linecap="round" stroke-linejoin="round"/><polyline points="27.27,39.09 26.09,39.09" fill="none" stroke="#111" stroke-width="1.6" stroke-linecap="round" stroke-linejoin="round"/><polyline points="27.27,39.09 30.11,39.09" fill="none" stroke="#111" stroke-width="1.6" stroke-linecap="round" stroke-linejoin="round"/><polyline points="27.27,43.82 26.09,43.82" fill="none" stroke="#111" stroke-width="1.6" stroke-linecap="round" stroke-linejoin="round"/><polyline points="27.27,43.82 30.11,43.82" fill="none" stroke="#111" stroke-width="1.6" stroke-linecap="round" stroke-linejoin="round"/><rect x="27.27" y="45.95" width="1.42" height="0.47" fill="none" stroke="#111" stroke-width="1.6"/><polyline points="27.27,46.18 26.09,46.18" fill="none" stroke="#111" stroke-width="1.6" stroke-linecap="round" stroke-linejoin="round"/><polyline points="27.27,48.55 26.09,48.55" fill="none" stroke="#111" stroke-width="1.6" stroke-linecap="round" stroke-linejoin="round"/><polyline points="27.27,48.55 30.11,48.55" fill="none" stroke="#111" stroke-width="1.6" stroke-linecap="round" stroke-linejoin="round"/><polyline points="27.39,50.2 27.39,51.62" fill="none" stroke="#111" stroke-width="1.6" stroke-linecap="round" stroke-linejoin="round"/><polyline points="27.39,50.91 20.18,50.91 20.18,58" fill="none" stroke="#111" stroke-width="1.6" stroke-linecap="round" stroke-linejoin="round"/><polyline points="27.86,50.2 27.86,51.62" fill="none" stroke="#111" stroke-width="1.6" stroke-linecap="round" stroke-linejoin="round"/><polyline points="27.86,50.91 32,50.91" fill="none" stroke="#111" stroke-width="1.6" stroke-linecap="round" stroke-linejoin="round"/><polyline points="28.69,27.27 32,27.27" fill="none" stroke="#111" stroke-width="1.6" stroke-linecap="round" stroke-linejoin="round"/><polyline points="28.69,36.73 32,36.73" fill="none" stroke="#111" stroke-width="1.6" stroke-linecap="round" stroke-linejoin="round"/><polyline points="28.69,46.18 32,46.18" fill="none" stroke="#111" stroke-width="1.6" stroke-linecap="round" stroke-linejoin="round"/><circle cx="30.58" cy="15.45" r="0.47" fill="none" stroke="#111" stroke-width="1.6"/><circle cx="30.58" cy="20.18" r="0.47" fill="none" stroke="#111" stroke-width="1.6"/><circle cx="30.58" cy="24.91" r="0.47" fill="none" stroke="#111" stroke-width="1.6"/><circle cx="30.58" cy="29.64" r="0.47" fill="none" stroke="#111" stroke-width="1.6"/><circle cx="30.58" cy="34.36" r="0.47" fill="none" stroke="#111" stroke-width="1.6"/><circle cx="30.58" cy="39.09" r="0.47" fill="none" stroke="#111" stroke-width="1.6"/><circle cx="30.58" cy="43.82" r="0.47" fill="none" stroke="#111" stroke-width="1.6"/><circle cx="30.58" cy="48.55" r="0.47" fill="none" stroke="#111" stroke-width="1.6"/><polyline points="32,17.82 28.69,17.82" fill="none" stroke="#111" stroke-width="1.6" stroke-linecap="round" stroke-linejoin="round"/><polyline points="32,50.91 32,17.82" fill="none" stroke="#111" stroke-width="1.6" stroke-linecap="round" stroke-linejoin="round"/><polyline points="13.09,8.36 14.27,8.36" fill="none" stroke="#111" stroke-width="1.6" stroke-linecap="round" stroke-linejoin="round"/><polyline points="13.09,10.73 14.27,10.73" fill="none" stroke="#111" stroke-width="1.6" stroke-linecap="round" stroke-linejoin="round"/><polyline points="13.09,53.27 14.27,53.27" fill="none" stroke="#111" stroke-width="1.6" stroke-linecap="round" stroke-linejoin="round"/><polyline points="13.09,55.64 14.27,55.64" fill="none" stroke="#111" stroke-width="1.6" stroke-linecap="round" stroke-linejoin="round"/><polyline points="13.8,10.02 14.75,10.02" fill="none" stroke="#111" stroke-width="1.6" stroke-linecap="round" stroke-linejoin="round"/><polyline points="13.8,54.93 14.75,54.93" fill="none" stroke="#111" stroke-width="1.6" stroke-linecap="round" stroke-linejoin="round"/><polyline points="14.27,8.36 14.27,9.07" fill="none" stroke="#111" stroke-width="1.6" stroke-linecap="round" stroke-linejoin="round"/><polyline points="14.27,10.02 13.8,9.07 14.75,9.07 14.27,10.02" fill="none" stroke="#111" stroke-width="1.6" stroke-linecap="round" stroke-linejoin="round"/><polyline points="14.27,10.73 14.27,10.02" fill="none" stroke="#111" stroke-width="1.6" stroke-linecap="round" stroke-linejoin="round"/><polyline points="14.27,53.27 14.27,53.98" fill="none" stroke="#111" stroke-width="1.6" stroke-linecap="round" stroke-linejoin="round"/><polyline points="14.27,54.93 13.8,53.98 14.75,53.98 14.27,54.93" fill="none" stroke="#111" stroke-width="1.6" stroke-linecap="round" stroke-linejoin="round"/><polyline points="14.27,55.64 14.27,54.93" fill="none" stroke="#111" stroke-width="1.6" stroke-linecap="round" stroke-linejoin="round"/><polyline points="14.98,9.19 15.45,9.66 15.1,9.55" fill="none" stroke="#111" stroke-width="1.6" stroke-linecap="round" stroke-linejoin="round"/><polyline points="14.98,9.78 15.45,10.25 15.1,10.14" fill="none" stroke="#111" stroke-width="1.6" stroke-linecap="round" stroke-linejoin="round"/><polyline points="14.98,54.1 15.45,54.57 15.1,54.45" fill="none" stroke="#111" stroke-width="1.6" stroke-linecap="round" stroke-linejoin="round"/><polyline points="14.98,54.69 15.45,55.16 15.1,55.05" fill="none" stroke="#111" stroke-width="1.6" stroke-linecap="round" stroke-linejoin="round"/><polyline points="15.45,9.66 15.34,9.31" fill="none" stroke="#111" stroke-width="1.6" stroke-linecap="round" stroke-linejoin="round"/><polyline points="15.45,10.25 15.34,9.9" fill="none" stroke="#111" stroke-width="1.6" stroke-linecap="round" stroke-linejoin="round"/><polyline points="15.45,54.57 15.34,54.22" fill="none" stroke="#111" stroke-width="1.6" stroke-linecap="round" stroke-linejoin="round"/><polyline points="15.45,55.16 15.34,54.81" fill="none" stroke="#111" stroke-width="1.6" stroke-linecap="round" stroke-linejoin="round"/></svg>