<svg xmlns="http://www.w3.org/2000/svg" width="96" height="64" viewBox="0 0 96 64"><circle cx="12.07" cy="11.2" r="0.87" fill="none" stroke="#111" stroke-width="1.6"/><circle cx="12.07" cy="25.07" r="0.87" fill="none" stroke="#111" stroke-width="1.6"/><circle cx="12.07" cy="38.93" r="0.87" fill="none" stroke="#111" stroke-width="1.6"/><circle cx="12.07" cy="52.8" r="0.87" fill="none" stroke="#111" stroke-width="1.6"/><polyline points="12.93,10.99 24.17,7.94" fill="none" stroke="#111" stroke-width="1.6" stroke-linecap="round" stroke-linejoin="round"/><polyline points="12.93,24.86 24.23,21.88" fill="none" stroke="#111" stroke-width="1.6" stroke-linecap="round" stroke-linejoin="round"/><polyline points="12.93,38.73 24.23,35.74" fill="none" stroke="#111" stroke-width="1.6" stroke-linecap="round" stroke-linejoin="round"/><polyline points="12.93,52.59 24.23,49.61" fill="none" stroke="#111" stroke-width="1.6" stroke-linecap="round" stroke-linejoin="round"/><polyline points="18.13,11.2 18.13,9.61" fill="none" stroke="#111" stroke-width="1.6" stroke-linecap="round" stroke-linejoin="round"/><polyline points="18.13,14.67 18.13,12.93" fill="none" stroke="#111" stroke-width="1.6" stroke-linecap="round" stroke-linejoin="round"/><polyline points="18.13,18.13 18.13,16.4" fill="none" stroke="#111" stroke-width="1.6" stroke-linecap="round" stroke-linejoin="round"/><polyline points="18.13,18.13 18.13,16.4" fill="none" stroke="#111" stroke-width="1.6" stroke-linecap="round" stroke-linejoin="round"/><polyline points="18.13,21.6 18.13,19.87" fill="none" stroke="#111" stroke-width="1.6" stroke-linecap="round" stroke-linejoin="round"/><polyline points="18.13,25.07 18.13,23.33" fill="none" stroke="#111" stroke-width="1.6" stroke-linecap="round" stroke-linejoin="round"/><polyline points="18.13,28.53 18.13,26.8" fill="none" stroke="#111" stroke-width="1.6" stroke-linecap="round" stroke-linejoin="round"/><polyline points="18.13,32 18.13,30.27" fill="none" stroke="#111" stroke-width="1.6" stroke-linecap="round" stroke-linejoin="round"/><polyline points="18.13,32 18.13,30.27" fill="none" stroke="#111" stroke-width="1.6" stroke-linecap="round" stroke-linejoin="round"/><polyline points="18.13,35.47 18.13,33.73" fill="none" stroke="#111" stroke-width="1.6" stroke-linecap="round" stroke-linejoin="round"/><polyline points="18.13,38.93 18.13,37.2" fill="none" stroke="#111" stroke-width="1.6" stroke-linecap="round" stroke-linejoin="round"/><polyline points="18.13,42.4 18.13,40.67" fill="none" stroke="#111" stroke-width="1.6" stroke-linecap="round" stroke-linejoin="round"/><polyline points="18.13,45.87 18.13,44.13" fill="none" stroke="#111" stroke-width="1.6" stroke-linecap="round" stroke-linejoin="round"/><polyline points="18.13,45.87 18.13,44.13" fill="none" stroke="#111" stroke-width="1.6" stroke-linecap="round" stroke-linejoin="round"/><polyline points="18.13,49.33 18.13,47.6" fill="none" stroke="#111" stroke-width="1.6" stroke-linecap="round" stroke-linejoin="round"/><polyline points="18.13,51.21 18.13,50.86" fill="none" stroke="#111" stroke-width="1.6" stroke-linecap="round" stroke-linejoin="round"/><circle cx="25.07" cy="7.73" r="0.87" fill="none" stroke="#111" stroke-width="1.6"/><circle cx="25.07" cy="14.67" r="0.87" fill="none" stroke="#111" stroke-width="1.6"/><circle cx="25.07" cy="21.6" r="0.87" fill="none" stroke="#111" stroke-width="1.6"/><circle cx="25.07" cy="28.53" r="0.87" fill="none" stroke="#111" stroke-width="1.6"/><circle cx="25.07" cy="35.47" r="0.87" fill="none" stroke="#111" stroke-width="1.6"/><circle cx="25.07" cy="42.4" r="0.87" fill="none" stroke="#111" stroke-width="1.6"/><circle cx="25.07" cy="49.33" r="0.87" fill="none" stroke="#111" stroke-width="1.6"/><circle cx="25.07" cy="56.27" r="0.87" fill="none" stroke="#111" stroke-width="1.6"/><polyline points="25.93,7.73 30.27,7.73" fill="none" stroke="#111" stroke-width="1.6" stroke-linecap="round" stroke-linejoin="round"/><circle cx="25.93" cy="11.2" r="0.87" fill="none" stroke="#111" stroke-width="1.6"/><polyline points="25.93,14.67 30.27,14.67" fill="none" stroke="#111" stroke-width="1.6" stroke-linecap="round" stroke-linejoin="round"/><polyline points="25.93,21.6 30.27,21.6" fill="none" stroke="#111" stroke-width="1.6" stroke-linecap="round" stroke-linejoin="round"/><circle cx="25.93" cy="25.07" r="0.87" fill="none" stroke="#111" stroke-width="1.6"/><polyline points="25.93,28.53 30.27,28.53" fill="none" stroke="#111" stroke-width="1.6" stroke-linecap="round" stroke-linejoin="round"/><polyline points="25.93,35.47 30.27,35.47" fill="none" stroke="#111" stroke-width="1.6" stroke-linecap="round" stroke-linejoin="round"/><circle cx="25.93" cy="38.93" r="0.87" fill="none" stroke="#111" stroke-width="1.6"/><polyline points="25.93,42.4 30.27,42.4" fill="none" stroke="#111" stroke-width="1.6" stroke-linecap="round" stroke-linejoin="round"/><polyline points="25.93,49.33 30.27,49.33" fill="none" stroke="#111" stroke-width="1.6" stroke-linecap="round" stroke-linejoin="round"/><circle cx="25.93" cy="52.8" r="0.87" fill="none" stroke="#111" stroke-width="1.6"/><polyline points="25.93,56.27 30.27,56.27" fill="none" stroke="#111" stroke-width="1.6" stroke-linecap="round" stroke-linejoin="round"/><polyline points="26.8,11.2 30.27,11.2" fill="none" stroke="#111" stroke-width="1.6" stroke-linecap="round" stroke-linejoin="round"/><polyline points="26.8,25.07 30.27,25.07" fill="none" stroke="#111" stroke-width="1.6" stroke-linecap="round" stroke-linejoin="round"/><polyline points="26.8,38.93 30.27,38.93" fill="none" stroke="#111" stroke-width="1.6" stroke-linecap="round" stroke-linejoin="round"/><polyline points="26.8,52.8 30.27,52.8" fill="none" stroke="#111" stroke-width="1.6" stroke-linecap="round" stroke-linejoin="round"/><polyline points="11.2,11.2 6,11.2" fill="none" stroke="#111" stroke-width="1.6" stroke-linecap="round" stroke-linejoin="round"/><polyline points="11.2,25.07 6,25.07" fill="none" stroke="#111" stroke-width="1.6" stroke-linecap="round" stroke-linejoin="round"/><polyline points="11.2,38.93 6,38.93" fill="none" stroke="#111" stroke-width="1.6" stroke-linecap="round" stroke-linejoin="round"/><polyline points="11.2,52.8 6,52.8" fill="none" stroke="#111" stroke-width="1.6" stroke-linecap="round" stroke-linejoin="round"/><rect x="6" y="6" width="24.27" height="52" fill="none" stroke="#111" stroke-width="1.6"/></svg>