<svg xmlns="http://www.w3.org/2000/svg" width="96" height="64" viewBox="0 0 96 64"><rect x="6" y="6" width="0.88" height="51.74" fill="none" stroke="#111" stroke-width="1.6"/><rect x="6" y="6.39" width="0.44" height="0.09" fill="none" stroke="#111" stroke-width="1.6"/><rect x="6" y="7.27" width="0.44" height="0.09" fill="none" stroke="#111" stroke-width="1.6"/><rect x="6" y="8.15" width="0.44" height="0.09" fill="none" stroke="#111" stroke-width="1.6"/><rect x="6" y="9.03" width="0.44" height="0.08" fill="none" stroke="#111" stroke-width="1.6"/><rect x="6" y="9.9" width="0.44" height="0.09" fill="none" stroke="#111" stroke-width="1.6"/><rect x="6" y="10.78" width="0.44" height="0.09" fill="none" stroke="#111" stroke-width="1.6"/><rect x="6" y="11.66" width="0.44" height="0.08" fill="none" stroke="#111" stroke-width="1.6"/><rect x="6" y="12.53" width="0.44" height="0.09" fill="none" stroke="#111" stroke-width="1.6"/><rect x="6" y="13.41" width="0.44" height="0.09" fill="none" stroke="#111" stroke-width="1.6"/><rect x="6" y="14.29" width="0.44" height="0.08" fill="none" stroke="#111" stroke-width="1.6"/><rect x="6" y="15.16" width="0.44" height="0.09" fill="none" stroke="#111" stroke-width="1.6"/><rect x="6" y="16.04" width="0.44" height="0.09" fill="none" stroke="#111" stroke-width="1.6"/><rect x="6" y="16.92" width="0.44" height="0.09" fill="none" stroke="#111" stroke-width="1.6"/><rect x="6" y="17.79" width="0.44" height="0.09" fill="none" stroke="#111" stroke-width="1.6"/><rect x="6" y="18.67" width="0.44" height="0.09" fill="none" stroke="#111" stroke-width="1.6"/><rect x="6" y="19.55" width="0.44" height="0.09" fill="none" stroke="#111" stroke-width="1.6"/><rect x="6" y="20.42" width="0.44" height="0.09" fill="none" stroke="#111" stroke-width="1.6"/><rect x="6" y="21.3" width="0.44" height="0.09" fill="none" stroke="#111" stroke-width="1.6"/><rect x="6" y="22.18" width="0.44" height="0.09" fill="none" stroke="#111" stroke-width="1.6"/><rect x="6" y="23.06" width="0.44" height="0.08" fill="none" stroke="#111" stroke-width="1.6"/><rect x="6" y="23.93" width="0.44" height="0.09" fill="none" stroke="#111" stroke-width="1.6"/><rect x="6" y="24.81" width="0.44" height="0.09" fill="none" stroke="#111" stroke-width="1.6"/><rect x="6" y="25.69" width="0.44" height="0.08" fill="none" stroke="#111" stroke-width="1.6"/><rect x="6" y="26.56" width="0.44" height="0.09" fill="none" stroke="#111" stroke-width="1.6"/><rect x="6" y="27.44" width="0.44" height="0.09" fill="none" stroke="#111" stroke-width="1.6"/><rect x="6" y="28.32" width="0.44" height="0.08" fill="none" stroke="#111" stroke-width="1.6"/><rect x="6" y="29.19" width="0.44" height="0.09" fill="none" stroke="#111" stroke-width="1.6"/><rect x="6" y="30.07" width="0.44" height="0.09" fill="none" stroke="#111" stroke-width="1.6"/><rect x="6" y="30.95" width="0.44" height="0.09" fill="none" stroke="#111" stroke-width="1.6"/><rect x="6" y="31.82" width="0.44" height="0.09" fill="none" stroke="#111" stroke-width="1.6"/><rect x="6" y="32.7" width="0.44" height="0.09" fill="none" stroke="#111" stroke-width="1.6"/><rect x="6" y="33.58" width="0.44" height="0.09" fill="none" stroke="#111" stroke-width="1.6"/><rect x="6" y="34.46" width="0.44" height="0.08" fill="none" stroke="#111" stroke-width="1.6"/><rect x="6" y="35.33" width="0.44" height="0.09" fill="none" stroke="#111" stroke-width="1.6"/><rect x="6" y="36.21" width="0.44" height="0.09" fill="none" stroke="#111" stroke-width="1.6"/><rect x="6" y="37.09" width="0.44" height="0.08" fill="none" stroke="#111" stroke-width="1.6"/><rect x="6" y="37.96" width="0.44" height="0.09" fill="none" stroke="#111" stroke-width="1.6"/><rect x="6" y="38.84" width="0.44" height="0.09" fill="none" stroke="#111" stroke-width="1.6"/><rect x="6" y="39.72" width="0.44" height="0.08" fill="none" stroke="#111" stroke-width="1.6"/><rect x="6" y="40.59" width="0.44" height="0.09" fill="none" stroke="#111" stroke-width="1.6"/><rect x="6" y="41.47" width="0.44" height="0.09" fill="none" stroke="#111" stroke-width="1.6"/><rect x="6" y="42.35" width="0.44" height="0.09" fill="none" stroke="#111" stroke-width="1.6"/><rect x="6" y="43.22" width="0.44" height="0.09" fill="none" stroke="#111" stroke-width="1.6"/><rect x="6" y="44.1" width="0.44" height="0.09" fill="none" stroke="#111" stroke-width="1.6"/><rect x="6" y="44.98" width="0.44" height="0.09" fill="none" stroke="#111" stroke-width="1.6"/><rect x="6" y="45.85" width="0.44" height="0.09" fill="none" stroke="#111" stroke-width="1.6"/><rect x="6" y="46.73" width="0.44" height="0.09" fill="none" stroke="#111" stroke-width="1.6"/><rect x="6" y="47.61" width="0.44" height="0.09" fill="none" stroke="#111" stroke-width="1.6"/><rect x="6" y="48.49" width="0.44" height="0.08" fill="none" stroke="#111" stroke-width="1.6"/><rect x="6" y="49.36" width="0.44" height="0.09" fill="none" stroke="#111" stroke-width="1.6"/><rect x="6" y="50.24" width="0.44" height="0.09" fill="none" stroke="#111" stroke-width="1.6"/><rect x="6" y="51.12" width="0.44" height="0.08" fill="none" stroke="#111" stroke-width="1.6"/><rect x="6" y="51.99" width="0.44" height="0.09" fill="none" stroke="#111" stroke-width="1.6"/><rect x="6" y="52.87" width="0.44" height="0.09" fill="none" stroke="#111" stroke-width="1.6"/><rect x="6" y="53.75" width="0.44" height="0.08" fill="none" stroke="#111" stroke-width="1.6"/><rect x="6" y="54.62" width="0.44" height="0.09" fill="none" stroke="#111" stroke-width="1.6"/><rect x="6" y="55.5" width="0.44" height="0.09" fill="none" stroke="#111" stroke-width="1.6"/><rect x="6" y="56.38" width="0.44" height="0.09" fill="none" stroke="#111" stroke-width="1.6"/><rect x="6" y="57.25" width="0.44" height="0.09" fill="none" stroke="#111" stroke-width="1.6"/><polyline points="6.09,58 6.79,58" fill="none" stroke="#111" stroke-width="1.6" stroke-linecap="round" stroke-linejoin="round"/></svg>