<svg xmlns="http://www.w3.org/2000/svg" width="96" height="64" viewBox="0 0 96 64"><polyline points="6,6.72 7.08,6.72" fill="none" stroke="#111" stroke-width="1.6" stroke-linecap="round" stroke-linejoin="round"/><polyline points="6,10.33 7.08,10.33" fill="none" stroke="#111" stroke-width="1.6" stroke-linecap="round" stroke-linejoin="round"/><polyline points="6,13.94 7.08,13.94" fill="none" stroke="#111" stroke-width="1.6" stroke-linecap="round" stroke-linejoin="round"/><polyline points="6,17.56 7.08,17.56" fill="none" stroke="#111" stroke-width="1.6" stroke-linecap="round" stroke-linejoin="round"/><polyline points="6,21.17 7.08,21.17" fill="none" stroke="#111" stroke-width="1.6" stroke-linecap="round" stroke-linejoin="round"/><polyline points="6,24.78 7.08,24.78" fill="none" stroke="#111" stroke-width="1.6" stroke-linecap="round" stroke-linejoin="round"/><polyline points="6,28.39 7.08,28.39" fill="none" stroke="#111" stroke-width="1.6" stroke-linecap="round" stroke-linejoin="round"/><polyline points="6,32 7.08,32" fill="none" stroke="#111" stroke-width="1.6" stroke-linecap="round" stroke-linejoin="round"/><polyline points="6,35.61 7.08,35.61" fill="none" stroke="#111" stroke-width="1.6" stroke-linecap="round" stroke-linejoin="round"/><polyline points="6,39.22 7.08,39.22" fill="none" stroke="#111" stroke-width="1.6" stroke-linecap="round" stroke-linejoin="round"/><polyline points="6,42.83 7.08,42.83" fill="none" stroke="#111" stroke-width="1.6" stroke-linecap="round" stroke-linejoin="round"/><polyline points="6,46.44 7.08,46.44" fill="none" stroke="#111" stroke-width="1.6" stroke-linecap="round" stroke-linejoin="round"/><polyline points="6,50.06 7.08,50.06" fill="none" stroke="#111" stroke-width="1.6" stroke-linecap="round" stroke-linejoin="round"/><polyline points="6,53.67 7.08,53.67" fill="none" stroke="#111" stroke-width="1.6" stroke-linecap="round" stroke-linejoin="round"/><polyline points="6,57.28 7.08,57.28" fill="none" stroke="#111" stroke-width="1.6" stroke-linecap="round" stroke-linejoin="round"/><path d="M 7.81 7.44 Q 7.09 6.72 7.81 6" fill="none" stroke="#111" stroke-width="1.6" stroke-linecap="round"/><path d="M 7.81 11.06 Q 7.09 10.33 7.81 9.61" fill="none" stroke="#111" stroke-width="1.6" stroke-linecap="round"/><path d="M 7.81 14.67 Q 7.09 13.94 7.81 13.22" fill="none" stroke="#111" stroke-width="1.6" stroke-linecap="round"/><path d="M 7.81 18.28 Q 7.09 17.56 7.81 16.83" fill="none" stroke="#111" stroke-width="1.6" stroke-linecap="round"/><path d="M 7.81 21.89 Q 7.09 21.17 7.81 20.44" fill="none" stroke="#111" stroke-width="1.6" stroke-linecap="round"/><path d="M 7.81 25.5 Q 7.09 24.78 7.81 24.06" fill="none" stroke="#111" stroke-width="1.6" stroke-linecap="round"/><path d="M 7.81 29.11 Q 7.09 28.39 7.81 27.67" fill="none" stroke="#111" stroke-width="1.6" stroke-linecap="round"/><path d="M 7.81 32.72 Q 7.09 32 7.81 31.28" fill="none" stroke="#111" stroke-width="1.6" stroke-linecap="round"/><path d="M 7.81 36.33 Q 7.09 35.61 7.81 34.89" fill="none" stroke="#111" stroke-width="1.6" stroke-linecap="round"/><path d="M 7.81 39.94 Q 7.09 39.22 7.81 38.5" fill="none" stroke="#111" stroke-width="1.6" stroke-linecap="round"/><path d="M 7.81 43.56 Q 7.09 42.83 7.81 42.11" fill="none" stroke="#111" stroke-width="1.6" stroke-linecap="round"/><path d="M 7.81 47.17 Q 7.09 46.44 7.81 45.72" fill="none" stroke="#111" stroke-width="1.6" stroke-linecap="round"/><path d="M 7.81 50.78 Q 7.09 50.06 7.81 49.33" fill="none" stroke="#111" stroke-width="1.6" stroke-linecap="round"/><path d="M 7.81 54.39 Q 7.09 53.67 7.81 52.94" fill="none" stroke="#111" stroke-width="1.6" stroke-linecap="round"/><path d="M 7.81 58 Q 7.09 57.28 7.81 56.56" fill="none" stroke="#111" stroke-width="1.6" stroke-linecap="round"/></svg>