<svg xmlns="http://www.w3.org/2000/svg" width="96" height="64" viewBox="0 0 96 64"><rect x="6" y="22.93" width="11.97" height="18.99" fill="none" stroke="#111" stroke-width="1.6"/><rect x="6" y="22.93" width="11.97" height="18.99" fill="none" stroke="#111" stroke-width="1.6"/><rect x="6" y="22.93" width="11.97" height="18.99" fill="none" stroke="#111" stroke-width="1.6"/><rect x="6" y="22.93" width="11.97" height="18.99" fill="none" stroke="#111" stroke-width="1.6"/><rect x="6" y="22.93" width="11.97" height="18.99" fill="none" stroke="#111" stroke-width="1.6"/><rect x="7.71" y="27.89" width="8.55" height="8.22" fill="none" stroke="#111" stroke-width="1.6"/><rect x="7.71" y="27.89" width="8.55" height="8.22" fill="none" stroke="#111" stroke-width="1.6"/><rect x="7.71" y="27.89" width="8.55" height="8.22" fill="none" stroke="#111" stroke-width="1.6"/><rect x="7.71" y="27.89" width="8.55" height="8.22" fill="none" stroke="#111" stroke-width="1.6"/><rect x="7.71" y="27.89" width="8.55" height="8.22" fill="none" stroke="#111" stroke-width="1.6"/><rect x="7.71" y="27.89" width="8.55" height="8.22" fill="none" stroke="#111" stroke-width="1.6"/><rect x="7.71" y="27.89" width="8.55" height="8.22" fill="none" stroke="#111" stroke-width="1.6"/><rect x="7.71" y="27.89" width="8.55" height="8.22" fill="none" stroke="#111" stroke-width="1.6"/><rect x="7.71" y="27.89" width="8.55" height="8.22" fill="none" stroke="#111" stroke-width="1.6"/><rect x="7.71" y="16.61" width="8.55" height="30.78" fill="none" stroke="#111" stroke-width="1.6"/><rect x="7.71" y="27.38" width="8.55" height="10.09" fill="none" stroke="#111" stroke-width="1.6"/><rect x="9.42" y="8.05" width="5.13" height="47.9" fill="none" stroke="#111" stroke-width="1.6"/><rect x="9.42" y="6" width="5.13" height="52" fill="none" stroke="#111" stroke-width="1.6"/><rect x="9.42" y="13.87" width="5.13" height="36.26" fill="none" stroke="#111" stroke-width="1.6"/></svg>