<svg xmlns="http://www.w3.org/2000/svg" width="96" height="64" viewBox="0 0 96 64"><polyline points="7.93,32.96 23.33,32.96" fill="none" stroke="#111" stroke-width="1.6" stroke-linecap="round" stroke-linejoin="round"/><polyline points="7.93,48.37 23.33,48.37" fill="none" stroke="#111" stroke-width="1.6" stroke-linecap="round" stroke-linejoin="round"/><circle cx="9.47" cy="17.56" r="1.54" fill="none" stroke="#111" stroke-width="1.6"/><circle cx="21.79" cy="25.26" r="1.54" fill="none" stroke="#111" stroke-width="1.6"/><polyline points="10.24,36.43 7.16,39.51 9.08,39.51 7.16,39.51 7.16,37.59" fill="none" stroke="#111" stroke-width="1.6" stroke-linecap="round" stroke-linejoin="round"/><polyline points="10.24,51.84 7.16,54.92 9.08,54.92 7.16,54.92 7.16,52.99" fill="none" stroke="#111" stroke-width="1.6" stroke-linecap="round" stroke-linejoin="round"/><polyline points="11.01,16.79 20.41,10.78" fill="none" stroke="#111" stroke-width="1.6" stroke-linecap="round" stroke-linejoin="round"/><polyline points="11.78,36.81 11.78,29.11" fill="none" stroke="#111" stroke-width="1.6" stroke-linecap="round" stroke-linejoin="round"/><polyline points="11.78,52.22 11.78,44.52" fill="none" stroke="#111" stroke-width="1.6" stroke-linecap="round" stroke-linejoin="round"/><polyline points="14.09,36.43 11.01,39.51 12.93,39.51 11.01,39.51 11.01,37.59" fill="none" stroke="#111" stroke-width="1.6" stroke-linecap="round" stroke-linejoin="round"/><polyline points="14.09,51.84 11.01,54.92 12.93,54.92 11.01,54.92 11.01,52.99" fill="none" stroke="#111" stroke-width="1.6" stroke-linecap="round" stroke-linejoin="round"/><circle cx="21.79" cy="9.85" r="1.54" fill="none" stroke="#111" stroke-width="1.6"/><polyline points="23.33,32.96 23.33,48.37" fill="none" stroke="#111" stroke-width="1.6" stroke-linecap="round" stroke-linejoin="round"/><circle cx="23.33" cy="40.67" r="0.77" fill="none" stroke="#111" stroke-width="1.6"/><rect x="6" y="6" width="19.26" height="52" fill="none" stroke="#111" stroke-width="1.6"/><polyline points="19.48,36.81 19.48,29.11 11.78,32.96 19.48,36.81" fill="none" stroke="#111" stroke-width="1.6" stroke-linecap="round" stroke-linejoin="round"/><polyline points="19.48,52.22 19.48,44.52 11.78,48.37 19.48,52.22" fill="none" stroke="#111" stroke-width="1.6" stroke-linecap="round" stroke-linejoin="round"/></svg>