<svg xmlns="http://www.w3.org/2000/svg" width="96" height="64" viewBox="0 0 96 64"><polyline points="6,7.93 8.89,7.93" fill="none" stroke="#111" stroke-width="1.6" stroke-linecap="round" stroke-linejoin="round"/><polyline points="6,17.56 8.89,17.56" fill="none" stroke="#111" stroke-width="1.6" stroke-linecap="round" stroke-linejoin="round"/><polyline points="6,27.19 8.89,27.19" fill="none" stroke="#111" stroke-width="1.6" stroke-linecap="round" stroke-linejoin="round"/><polyline points="6,36.81 8.89,36.81" fill="none" stroke="#111" stroke-width="1.6" stroke-linecap="round" stroke-linejoin="round"/><polyline points="6,46.44 8.89,46.44" fill="none" stroke="#111" stroke-width="1.6" stroke-linecap="round" stroke-linejoin="round"/><polyline points="6,56.07 8.89,56.07" fill="none" stroke="#111" stroke-width="1.6" stroke-linecap="round" stroke-linejoin="round"/><path d="M 10.81 9.85 Q 8.9 7.93 10.81 6" fill="none" stroke="#111" stroke-width="1.6" stroke-linecap="round"/><path d="M 10.81 19.48 Q 8.9 17.56 10.81 15.63" fill="none" stroke="#111" stroke-width="1.6" stroke-linecap="round"/><path d="M 10.81 29.11 Q 8.9 27.19 10.81 25.26" fill="none" stroke="#111" stroke-width="1.6" stroke-linecap="round"/><path d="M 10.81 38.74 Q 8.9 36.81 10.81 34.89" fill="none" stroke="#111" stroke-width="1.6" stroke-linecap="round"/><path d="M 10.81 48.37 Q 8.9 46.44 10.81 44.52" fill="none" stroke="#111" stroke-width="1.6" stroke-linecap="round"/><path d="M 10.81 58 Q 8.9 56.07 10.81 54.15" fill="none" stroke="#111" stroke-width="1.6" stroke-linecap="round"/></svg>