<svg xmlns="http://www.w3.org/2000/svg" width="96" height="64" viewBox="0 0 96 64"><rect x="20.49" y="56.51" width="0.74" height="1.49" fill="none" stroke="#111" stroke-width="1.6"/><rect x="34.23" y="9.34" width="1.48" height="0.75" fill="none" stroke="#111" stroke-width="1.6"/><rect x="34.23" y="16.77" width="1.48" height="0.74" fill="none" stroke="#111" stroke-width="1.6"/><rect x="34.23" y="20.49" width="1.48" height="0.74" fill="none" stroke="#111" stroke-width="1.6"/><rect x="34.23" y="27.91" width="1.48" height="0.75" fill="none" stroke="#111" stroke-width="1.6"/><rect x="34.23" y="31.63" width="1.48" height="0.74" fill="none" stroke="#111" stroke-width="1.6"/><rect x="34.23" y="35.34" width="1.48" height="0.75" fill="none" stroke="#111" stroke-width="1.6"/><rect x="34.23" y="39.06" width="1.48" height="0.74" fill="none" stroke="#111" stroke-width="1.6"/><rect x="6" y="6" width="29.71" height="52" fill="none" stroke="#111" stroke-width="1.6"/><polyline points="7.86,37.57 7.86,26.43" fill="none" stroke="#111" stroke-width="1.6" stroke-linecap="round" stroke-linejoin="round"/><rect x="9.71" y="26.43" width="1.86" height="11.14" fill="none" stroke="#111" stroke-width="1.6"/><path d="M 9.71 26.43 Q 10.64 25.5 11.57 26.43" fill="none" stroke="#111" stroke-width="1.6" stroke-linecap="round"/><path d="M 9.71 26.43 Q 10.64 25.5 11.57 26.43" fill="none" stroke="#111" stroke-width="1.6" stroke-linecap="round"/><path d="M 7.86 26.43 Q 10.64 23.65 13.43 26.43" fill="none" stroke="#111" stroke-width="1.6" stroke-linecap="round"/><path d="M 13.43 37.57 Q 10.64 40.35 7.86 37.57" fill="none" stroke="#111" stroke-width="1.6" stroke-linecap="round"/><path d="M 11.57 37.57 Q 10.64 38.5 9.71 37.57" fill="none" stroke="#111" stroke-width="1.6" stroke-linecap="round"/><path d="M 11.57 37.57 Q 10.64 38.5 9.71 37.57" fill="none" stroke="#111" stroke-width="1.6" stroke-linecap="round"/><polyline points="13.43,26.43 13.43,37.57" fill="none" stroke="#111" stroke-width="1.6" stroke-linecap="round" stroke-linejoin="round"/><circle cx="17.14" cy="30.33" r="0.93" fill="none" stroke="#111" stroke-width="1.6"/><polyline points="19,25.69 20.86,21.97 22.71,25.69 19,25.69" fill="none" stroke="#111" stroke-width="1.6" stroke-linecap="round" stroke-linejoin="round"/><polyline points="20.86,34.97 24.57,31.26 24.57,29.4" fill="none" stroke="#111" stroke-width="1.6" stroke-linecap="round" stroke-linejoin="round"/><polyline points="20.86,36.83 17.14,33.11 17.14,31.26" fill="none" stroke="#111" stroke-width="1.6" stroke-linecap="round" stroke-linejoin="round"/><polyline points="20.86,40.54 20.86,25.69" fill="none" stroke="#111" stroke-width="1.6" stroke-linecap="round" stroke-linejoin="round"/><circle cx="20.86" cy="40.54" r="1.86" fill="none" stroke="#111" stroke-width="1.6"/><rect x="23.64" y="27.54" width="1.86" height="1.86" fill="none" stroke="#111" stroke-width="1.6"/></svg>