<svg xmlns="http://www.w3.org/2000/svg" width="96" height="64" viewBox="0 0 96 64"><polyline points="6,6.24 6.36,6.24" fill="none" stroke="#111" stroke-width="1.6" stroke-linecap="round" stroke-linejoin="round"/><polyline points="6,7.44 6.36,7.44" fill="none" stroke="#111" stroke-width="1.6" stroke-linecap="round" stroke-linejoin="round"/><polyline points="6,8.64 6.36,8.64" fill="none" stroke="#111" stroke-width="1.6" stroke-linecap="round" stroke-linejoin="round"/><polyline points="6,9.83 6.36,9.83" fill="none" stroke="#111" stroke-width="1.6" stroke-linecap="round" stroke-linejoin="round"/><polyline points="6,11.03 6.36,11.03" fill="none" stroke="#111" stroke-width="1.6" stroke-linecap="round" stroke-linejoin="round"/><polyline points="6,12.23 6.36,12.23" fill="none" stroke="#111" stroke-width="1.6" stroke-linecap="round" stroke-linejoin="round"/><polyline points="6,13.43 6.36,13.43" fill="none" stroke="#111" stroke-width="1.6" stroke-linecap="round" stroke-linejoin="round"/><polyline points="6,14.63 6.36,14.63" fill="none" stroke="#111" stroke-width="1.6" stroke-linecap="round" stroke-linejoin="round"/><polyline points="6,15.82 6.36,15.82" fill="none" stroke="#111" stroke-width="1.6" stroke-linecap="round" stroke-linejoin="round"/><polyline points="6,17.02 6.36,17.02" fill="none" stroke="#111" stroke-width="1.6" stroke-linecap="round" stroke-linejoin="round"/><polyline points="6,18.22 6.36,18.22" fill="none" stroke="#111" stroke-width="1.6" stroke-linecap="round" stroke-linejoin="round"/><polyline points="6,19.42 6.36,19.42" fill="none" stroke="#111" stroke-width="1.6" stroke-linecap="round" stroke-linejoin="round"/><polyline points="6,20.62 6.36,20.62" fill="none" stroke="#111" stroke-width="1.6" stroke-linecap="round" stroke-linejoin="round"/><polyline points="6,21.82 6.36,21.82" fill="none" stroke="#111" stroke-width="1.6" stroke-linecap="round" stroke-linejoin="round"/><polyline points="6,23.01 6.36,23.01" fill="none" stroke="#111" stroke-width="1.6" stroke-linecap="round" stroke-linejoin="round"/><polyline points="6,24.21 6.36,24.21" fill="none" stroke="#111" stroke-width="1.6" stroke-linecap="round" stroke-linejoin="round"/><polyline points="6,25.41 6.36,25.41" fill="none" stroke="#111" stroke-width="1.6" stroke-linecap="round" stroke-linejoin="round"/><polyline points="6,26.61 6.36,26.61" fill="none" stroke="#111" stroke-width="1.6" stroke-linecap="round" stroke-linejoin="round"/><polyline points="6,27.81 6.36,27.81" fill="none" stroke="#111" stroke-width="1.6" stroke-linecap="round" stroke-linejoin="round"/><polyline points="6,29 6.36,29" fill="none" stroke="#111" stroke-width="1.6" stroke-linecap="round" stroke-linejoin="round"/><polyline points="6,30.2 6.36,30.2" fill="none" stroke="#111" stroke-width="1.6" stroke-linecap="round" stroke-linejoin="round"/><polyline points="6,31.4 6.36,31.4" fill="none" stroke="#111" stroke-width="1.6" stroke-linecap="round" stroke-linejoin="round"/><polyline points="6,32.6 6.36,32.6" fill="none" stroke="#111" stroke-width="1.6" stroke-linecap="round" stroke-linejoin="round"/><polyline points="6,33.8 6.36,33.8" fill="none" stroke="#111" stroke-width="1.6" stroke-linecap="round" stroke-linejoin="round"/><polyline points="6,35 6.36,35" fill="none" stroke="#111" stroke-width="1.6" stroke-linecap="round" stroke-linejoin="round"/><polyline points="6,36.19 6.36,36.19" fill="none" stroke="#111" stroke-width="1.6" stroke-linecap="round" stroke-linejoin="round"/><polyline points="6,37.39 6.36,37.39" fill="none" stroke="#111" stroke-width="1.6" stroke-linecap="round" stroke-linejoin="round"/><polyline points="6,38.59 6.36,38.59" fill="none" stroke="#111" stroke-width="1.6" stroke-linecap="round" stroke-linejoin="round"/><polyline points="6,39.79 6.36,39.79" fill="none" stroke="#111" stroke-width="1.6" stroke-linecap="round" stroke-linejoin="round"/><polyline points="6,40.99 6.36,40.99" fill="none" stroke="#111" stroke-width="1.6" stroke-linecap="round" stroke-linejoin="round"/><polyline points="6,42.18 6.36,42.18" fill="none" stroke="#111" stroke-width="1.6" stroke-linecap="round" stroke-linejoin="round"/><polyline points="6,43.38 6.36,43.38" fill="none" stroke="#111" stroke-width="1.6" stroke-linecap="round" stroke-linejoin="round"/><polyline points="6,44.58 6.36,44.58" fill="none" stroke="#111" stroke-width="1.6" stroke-linecap="round" stroke-linejoin="round"/><polyline points="6,45.78 6.36,45.78" fill="none" stroke="#111" stroke-width="1.6" stroke-linecap="round" stroke-linejoin="round"/><polyline points="6,46.98 6.36,46.98" fill="none" stroke="#111" stroke-width="1.6" stroke-linecap="round" stroke-linejoin="round"/><polyline points="6,48.18 6.36,48.18" fill="none" stroke="#111" stroke-width="1.6" stroke-linecap="round" stroke-linejoin="round"/><polyline points="6,49.37 6.36,49.37" fill="none" stroke="#111" stroke-width="1.6" stroke-linecap="round" stroke-linejoin="round"/><polyline points="6,50.57 6.36,50.57" fill="none" stroke="#111" stroke-width="1.6" stroke-linecap="round" stroke-linejoin="round"/><polyline points="6,51.77 6.36,51.77" fill="none" stroke="#111" stroke-width="1.6" stroke-linecap="round" stroke-linejoin="round"/><polyline points="6,52.97 6.36,52.97" fill="none" stroke="#111" stroke-width="1.6" stroke-linecap="round" stroke-linejoin="round"/><polyline points="6,54.17 6.36,54.17" fill="none" stroke="#111" stroke-width="1.6" stroke-linecap="round" stroke-linejoin="round"/><polyline points="6,55.36 6.36,55.36" fill="none" stroke="#111" stroke-width="1.6" stroke-linecap="round" stroke-linejoin="round"/><polyline points="6,56.56 6.36,56.56" fill="none" stroke="#111" stroke-width="1.6" stroke-linecap="round" stroke-linejoin="round"/><polyline points="6,57.76 6.36,57.76" fill="none" stroke="#111" stroke-width="1.6" stroke-linecap="round" stroke-linejoin="round"/><path d="M 6.6 6.48 Q 6.36 6.24 6.6 6" fill="none" stroke="#111" stroke-width="1.6" stroke-linecap="round"/><path d="M 6.6 7.68 Q 6.36 7.44 6.6 7.2" fill="none" stroke="#111" stroke-width="1.6" stroke-linecap="round"/><path d="M 6.6 8.88 Q 6.36 8.64 6.6 8.4" fill="none" stroke="#111" stroke-width="1.6" stroke-linecap="round"/><path d="M 6.6 10.07 Q 6.36 9.83 6.6 9.59" fill="none" stroke="#111" stroke-width="1.6" stroke-linecap="round"/><path d="M 6.6 11.27 Q 6.36 11.03 6.6 10.79" fill="none" stroke="#111" stroke-width="1.6" stroke-linecap="round"/><path d="M 6.6 12.47 Q 6.36 12.23 6.6 11.99" fill="none" stroke="#111" stroke-width="1.6" stroke-linecap="round"/><path d="M 6.6 13.67 Q 6.36 13.43 6.6 13.19" fill="none" stroke="#111" stroke-width="1.6" stroke-linecap="round"/><path d="M 6.6 14.87 Q 6.36 14.63 6.6 14.39" fill="none" stroke="#111" stroke-width="1.6" stroke-linecap="round"/><path d="M 6.6 16.06 Q 6.36 15.82 6.6 15.59" fill="none" stroke="#111" stroke-width="1.6" stroke-linecap="round"/><path d="M 6.6 17.26 Q 6.36 17.02 6.6 16.78" fill="none" stroke="#111" stroke-width="1.6" stroke-linecap="round"/><path d="M 6.6 18.46 Q 6.36 18.22 6.6 17.98" fill="none" stroke="#111" stroke-width="1.6" stroke-linecap="round"/><path d="M 6.6 19.66 Q 6.36 19.42 6.6 19.18" fill="none" stroke="#111" stroke-width="1.6" stroke-linecap="round"/><path d="M 6.6 20.86 Q 6.36 20.62 6.6 20.38" fill="none" stroke="#111" stroke-width="1.6" stroke-linecap="round"/><path d="M 6.6 22.06 Q 6.36 21.82 6.6 21.58" fill="none" stroke="#111" stroke-width="1.6" stroke-linecap="round"/><path d="M 6.6 23.25 Q 6.36 23.01 6.6 22.77" fill="none" stroke="#111" stroke-width="1.6" stroke-linecap="round"/><path d="M 6.6 24.45 Q 6.36 24.21 6.6 23.97" fill="none" stroke="#111" stroke-width="1.6" stroke-linecap="round"/><path d="M 6.6 25.65 Q 6.36 25.41 6.6 25.17" fill="none" stroke="#111" stroke-width="1.6" stroke-linecap="round"/><path d="M 6.6 26.85 Q 6.36 26.61 6.6 26.37" fill="none" stroke="#111" stroke-width="1.6" stroke-linecap="round"/><path d="M 6.6 28.05 Q 6.36 27.81 6.6 27.57" fill="none" stroke="#111" stroke-width="1.6" stroke-linecap="round"/><path d="M 6.6 29.24 Q 6.36 29 6.6 28.76" fill="none" stroke="#111" stroke-width="1.6" stroke-linecap="round"/><path d="M 6.6 30.44 Q 6.36 30.2 6.6 29.96" fill="none" stroke="#111" stroke-width="1.6" stroke-linecap="round"/><path d="M 6.6 31.64 Q 6.36 31.4 6.6 31.16" fill="none" stroke="#111" stroke-width="1.6" stroke-linecap="round"/><path d="M 6.6 32.84 Q 6.36 32.6 6.6 32.36" fill="none" stroke="#111" stroke-width="1.6" stroke-linecap="round"/><path d="M 6.6 34.04 Q 6.36 33.8 6.6 33.56" fill="none" stroke="#111" stroke-width="1.6" stroke-linecap="round"/><path d="M 6.6 35.24 Q 6.36 35 6.6 34.76" fill="none" stroke="#111" stroke-width="1.6" stroke-linecap="round"/><path d="M 6.6 36.43 Q 6.36 36.19 6.6 35.95" fill="none" stroke="#111" stroke-width="1.6" stroke-linecap="round"/><path d="M 6.6 37.63 Q 6.36 37.39 6.6 37.15" fill="none" stroke="#111" stroke-width="1.6" stroke-linecap="round"/><path d="M 6.6 38.83 Q 6.36 38.59 6.6 38.35" fill="none" stroke="#111" stroke-width="1.6" stroke-linecap="round"/><path d="M 6.6 40.03 Q 6.36 39.79 6.6 39.55" fill="none" stroke="#111" stroke-width="1.6" stroke-linecap="round"/><path d="M 6.6 41.23 Q 6.36 40.99 6.6 40.75" fill="none" stroke="#111" stroke-width="1.6" stroke-linecap="round"/><path d="M 6.6 42.42 Q 6.36 42.18 6.6 41.94" fill="none" stroke="#111" stroke-width="1.6" stroke-linecap="round"/><path d="M 6.6 43.62 Q 6.36 43.38 6.6 43.14" fill="none" stroke="#111" stroke-width="1.6" stroke-linecap="round"/><path d="M 6.6 44.82 Q 6.36 44.58 6.6 44.34" fill="none" stroke="#111" stroke-width="1.6" stroke-linecap="round"/><path d="M 6.6 46.02 Q 6.36 45.78 6.6 45.54" fill="none" stroke="#111" stroke-width="1.6" stroke-linecap="round"/><path d="M 6.6 47.22 Q 6.36 46.98 6.6 46.74" fill="none" stroke="#111" stroke-width="1.6" stroke-linecap="round"/><path d="M 6.6 48.41 Q 6.36 48.18 6.6 47.94" fill="none" stroke="#111" stroke-width="1.6" stroke-linecap="round"/><path d="M 6.6 49.61 Q 6.36 49.37 6.6 49.13" fill="none" stroke="#111" stroke-width="1.6" stroke-linecap="round"/><path d="M 6.6 50.81 Q 6.36 50.57 6.6 50.33" fill="none" stroke="#111" stroke-width="1.6" stroke-linecap="round"/><path d="M 6.6 52.01 Q 6.36 51.77 6.6 51.53" fill="none" stroke="#111" stroke-width="1.6" stroke-linecap="round"/><path d="M 6.6 53.21 Q 6.36 52.97 6.6 52.73" fill="none" stroke="#111" stroke-width="1.6" stroke-linecap="round"/><path d="M 6.6 54.41 Q 6.36 54.17 6.6 53.93" fill="none" stroke="#111" stroke-width="1.6" stroke-linecap="round"/><path d="M 6.6 55.6 Q 6.36 55.36 6.6 55.12" fill="none" stroke="#111" stroke-width="1.6" stroke-linecap="round"/><path d="M 6.6 56.8 Q 6.36 56.56 6.6 56.32" fill="none" stroke="#111" stroke-width="1.6" stroke-linecap="round"/><path d="M 6.6 58 Q 6.36 57.76 6.6 57.52" fill="none" stroke="#111" stroke-width="1.6" stroke-linecap="round"/></svg>