<svg xmlns="http://www.w3.org/2000/svg" width="96" height="64" viewBox="0 0 96 64"><rect x="6" y="6" width="4.73" height="52" fill="none" stroke="#111" stroke-width="1.6"/><polyline points="7.37,7.75 8.98,9.31" fill="none" stroke="#111" stroke-width="1.6" stroke-linecap="round" stroke-linejoin="round"/><polyline points="7.37,12.48 8.98,14.04" fill="none" stroke="#111" stroke-width="1.6" stroke-linecap="round" stroke-linejoin="round"/><polyline points="7.37,17.2 8.98,18.76" fill="none" stroke="#111" stroke-width="1.6" stroke-linecap="round" stroke-linejoin="round"/><polyline points="7.37,21.93 8.98,23.49" fill="none" stroke="#111" stroke-width="1.6" stroke-linecap="round" stroke-linejoin="round"/><polyline points="7.37,26.66 8.98,28.22" fill="none" stroke="#111" stroke-width="1.6" stroke-linecap="round" stroke-linejoin="round"/><polyline points="7.37,31.39 8.98,32.95" fill="none" stroke="#111" stroke-width="1.6" stroke-linecap="round" stroke-linejoin="round"/><polyline points="7.37,36.11 8.98,37.67" fill="none" stroke="#111" stroke-width="1.6" stroke-linecap="round" stroke-linejoin="round"/><polyline points="7.37,40.84 8.98,42.4" fill="none" stroke="#111" stroke-width="1.6" stroke-linecap="round" stroke-linejoin="round"/><polyline points="7.37,45.57 8.98,47.13" fill="none" stroke="#111" stroke-width="1.6" stroke-linecap="round" stroke-linejoin="round"/><polyline points="7.37,50.29 8.98,51.85" fill="none" stroke="#111" stroke-width="1.6" stroke-linecap="round" stroke-linejoin="round"/><polyline points="7.37,55.02 8.98,56.58" fill="none" stroke="#111" stroke-width="1.6" stroke-linecap="round" stroke-linejoin="round"/><polyline points="7.7,7.42 9.31,8.98" fill="none" stroke="#111" stroke-width="1.6" stroke-linecap="round" stroke-linejoin="round"/><polyline points="7.7,12.15 9.31,13.71" fill="none" stroke="#111" stroke-width="1.6" stroke-linecap="round" stroke-linejoin="round"/><polyline points="7.7,16.87 9.31,18.43" fill="none" stroke="#111" stroke-width="1.6" stroke-linecap="round" stroke-linejoin="round"/><polyline points="7.7,21.6 9.31,23.16" fill="none" stroke="#111" stroke-width="1.6" stroke-linecap="round" stroke-linejoin="round"/><polyline points="7.7,26.33 9.31,27.89" fill="none" stroke="#111" stroke-width="1.6" stroke-linecap="round" stroke-linejoin="round"/><polyline points="7.7,31.05 9.31,32.61" fill="none" stroke="#111" stroke-width="1.6" stroke-linecap="round" stroke-linejoin="round"/><polyline points="7.7,35.78 9.31,37.34" fill="none" stroke="#111" stroke-width="1.6" stroke-linecap="round" stroke-linejoin="round"/><polyline points="7.7,40.51 9.31,42.07" fill="none" stroke="#111" stroke-width="1.6" stroke-linecap="round" stroke-linejoin="round"/><polyline points="7.7,45.24 9.31,46.8" fill="none" stroke="#111" stroke-width="1.6" stroke-linecap="round" stroke-linejoin="round"/><polyline points="7.7,49.96 9.31,51.52" fill="none" stroke="#111" stroke-width="1.6" stroke-linecap="round" stroke-linejoin="round"/><polyline points="7.7,54.69 9.31,56.25" fill="none" stroke="#111" stroke-width="1.6" stroke-linecap="round" stroke-linejoin="round"/><circle cx="8.36" cy="8.36" r="1.18" fill="none" stroke="#111" stroke-width="1.6"/><circle cx="8.36" cy="13.09" r="1.18" fill="none" stroke="#111" stroke-width="1.6"/><circle cx="8.36" cy="17.82" r="1.18" fill="none" stroke="#111" stroke-width="1.6"/><circle cx="8.36" cy="22.55" r="1.18" fill="none" stroke="#111" stroke-width="1.6"/><circle cx="8.36" cy="27.27" r="1.18" fill="none" stroke="#111" stroke-width="1.6"/><circle cx="8.36" cy="32" r="1.18" fill="none" stroke="#111" stroke-width="1.6"/><circle cx="8.36" cy="36.73" r="1.18" fill="none" stroke="#111" stroke-width="1.6"/><circle cx="8.36" cy="41.45" r="1.18" fill="none" stroke="#111" stroke-width="1.6"/><circle cx="8.36" cy="46.18" r="1.18" fill="none" stroke="#111" stroke-width="1.6"/><circle cx="8.36" cy="50.91" r="1.18" fill="none" stroke="#111" stroke-width="1.6"/><circle cx="8.36" cy="55.64" r="1.18" fill="none" stroke="#111" stroke-width="1.6"/></svg>