<svg xmlns="http://www.w3.org/2000/svg" width="96" height="64" viewBox="0 0 96 64"><rect x="6" y="6" width="3.35" height="52" fill="none" stroke="#111" stroke-width="1.6"/><rect x="6" y="6.75" width="0.84" height="0.17" fill="none" stroke="#111" stroke-width="1.6"/><rect x="6" y="8.43" width="0.84" height="0.17" fill="none" stroke="#111" stroke-width="1.6"/><rect x="6" y="10.11" width="0.84" height="0.17" fill="none" stroke="#111" stroke-width="1.6"/><rect x="6" y="11.79" width="0.84" height="0.16" fill="none" stroke="#111" stroke-width="1.6"/><rect x="6" y="13.46" width="0.84" height="0.17" fill="none" stroke="#111" stroke-width="1.6"/><rect x="6" y="15.14" width="0.84" height="0.17" fill="none" stroke="#111" stroke-width="1.6"/><rect x="6" y="16.82" width="0.84" height="0.17" fill="none" stroke="#111" stroke-width="1.6"/><rect x="6" y="18.5" width="0.84" height="0.16" fill="none" stroke="#111" stroke-width="1.6"/><rect x="6" y="20.17" width="0.84" height="0.17" fill="none" stroke="#111" stroke-width="1.6"/><rect x="6" y="21.85" width="0.84" height="0.17" fill="none" stroke="#111" stroke-width="1.6"/><rect x="6" y="23.53" width="0.84" height="0.17" fill="none" stroke="#111" stroke-width="1.6"/><rect x="6" y="25.21" width="0.84" height="0.16" fill="none" stroke="#111" stroke-width="1.6"/><rect x="6" y="26.88" width="0.84" height="0.17" fill="none" stroke="#111" stroke-width="1.6"/><rect x="6" y="28.56" width="0.84" height="0.17" fill="none" stroke="#111" stroke-width="1.6"/><rect x="6" y="30.24" width="0.84" height="0.17" fill="none" stroke="#111" stroke-width="1.6"/><rect x="6" y="31.92" width="0.84" height="0.16" fill="none" stroke="#111" stroke-width="1.6"/><rect x="6" y="33.59" width="0.84" height="0.17" fill="none" stroke="#111" stroke-width="1.6"/><rect x="6" y="35.27" width="0.84" height="0.17" fill="none" stroke="#111" stroke-width="1.6"/><rect x="6" y="36.95" width="0.84" height="0.17" fill="none" stroke="#111" stroke-width="1.6"/><rect x="6" y="38.63" width="0.84" height="0.16" fill="none" stroke="#111" stroke-width="1.6"/><rect x="6" y="40.3" width="0.84" height="0.17" fill="none" stroke="#111" stroke-width="1.6"/><rect x="6" y="41.98" width="0.84" height="0.17" fill="none" stroke="#111" stroke-width="1.6"/><rect x="6" y="43.66" width="0.84" height="0.17" fill="none" stroke="#111" stroke-width="1.6"/><rect x="6" y="45.34" width="0.84" height="0.16" fill="none" stroke="#111" stroke-width="1.6"/><rect x="6" y="47.01" width="0.84" height="0.17" fill="none" stroke="#111" stroke-width="1.6"/><rect x="6" y="48.69" width="0.84" height="0.17" fill="none" stroke="#111" stroke-width="1.6"/><rect x="6" y="50.37" width="0.84" height="0.17" fill="none" stroke="#111" stroke-width="1.6"/><rect x="6" y="52.05" width="0.84" height="0.16" fill="none" stroke="#111" stroke-width="1.6"/><rect x="6" y="53.72" width="0.84" height="0.17" fill="none" stroke="#111" stroke-width="1.6"/><rect x="6" y="55.4" width="0.84" height="0.17" fill="none" stroke="#111" stroke-width="1.6"/><rect x="6" y="57.08" width="0.84" height="0.17" fill="none" stroke="#111" stroke-width="1.6"/><rect x="8.52" y="6.75" width="0.83" height="0.17" fill="none" stroke="#111" stroke-width="1.6"/><rect x="8.52" y="8.43" width="0.83" height="0.17" fill="none" stroke="#111" stroke-width="1.6"/><rect x="8.52" y="10.11" width="0.83" height="0.17" fill="none" stroke="#111" stroke-width="1.6"/><rect x="8.52" y="11.79" width="0.83" height="0.16" fill="none" stroke="#111" stroke-width="1.6"/><rect x="8.52" y="13.46" width="0.83" height="0.17" fill="none" stroke="#111" stroke-width="1.6"/><rect x="8.52" y="15.14" width="0.83" height="0.17" fill="none" stroke="#111" stroke-width="1.6"/><rect x="8.52" y="16.82" width="0.83" height="0.17" fill="none" stroke="#111" stroke-width="1.6"/><rect x="8.52" y="18.5" width="0.83" height="0.16" fill="none" stroke="#111" stroke-width="1.6"/><rect x="8.52" y="20.17" width="0.83" height="0.17" fill="none" stroke="#111" stroke-width="1.6"/><rect x="8.52" y="21.85" width="0.83" height="0.17" fill="none" stroke="#111" stroke-width="1.6"/><rect x="8.52" y="23.53" width="0.83" height="0.17" fill="none" stroke="#111" stroke-width="1.6"/><rect x="8.52" y="25.21" width="0.83" height="0.16" fill="none" stroke="#111" stroke-width="1.6"/><rect x="8.52" y="26.88" width="0.83" height="0.17" fill="none" stroke="#111" stroke-width="1.6"/><rect x="8.52" y="28.56" width="0.83" height="0.17" fill="none" stroke="#111" stroke-width="1.6"/><rect x="8.52" y="30.24" width="0.83" height="0.17" fill="none" stroke="#111" stroke-width="1.6"/><rect x="8.52" y="31.92" width="0.83" height="0.16" fill="none" stroke="#111" stroke-width="1.6"/><rect x="8.52" y="33.59" width="0.83" height="0.17" fill="none" stroke="#111" stroke-width="1.6"/><rect x="8.52" y="35.27" width="0.83" height="0.17" fill="none" stroke="#111" stroke-width="1.6"/><rect x="8.52" y="36.95" width="0.83" height="0.17" fill="none" stroke="#111" stroke-width="1.6"/><rect x="8.52" y="38.63" width="0.83" height="0.16" fill="none" stroke="#111" stroke-width="1.6"/><rect x="8.52" y="40.3" width="0.83" height="0.17" fill="none" stroke="#111" stroke-width="1.6"/><rect x="8.52" y="41.98" width="0.83" height="0.17" fill="none" stroke="#111" stroke-width="1.6"/><rect x="8.52" y="43.66" width="0.83" height="0.17" fill="none" stroke="#111" stroke-width="1.6"/><rect x="8.52" y="45.34" width="0.83" height="0.16" fill="none" stroke="#111" stroke-width="1.6"/><rect x="8.52" y="47.01" width="0.83" height="0.17" fill="none" stroke="#111" stroke-width="1.6"/><rect x="8.52" y="48.69" width="0.83" height="0.17" fill="none" stroke="#111" stroke-width="1.6"/><rect x="8.52" y="50.37" width="0.83" height="0.17" fill="none" stroke="#111" stroke-width="1.6"/><rect x="8.52" y="52.05" width="0.83" height="0.16" fill="none" stroke="#111" stroke-width="1.6"/><rect x="8.52" y="53.72" width="0.83" height="0.17" fill="none" stroke="#111" stroke-width="1.6"/><rect x="8.52" y="55.4" width="0.83" height="0.17" fill="none" stroke="#111" stroke-width="1.6"/><rect x="8.52" y="57.08" width="0.83" height="0.17" fill="none" stroke="#111" stroke-width="1.6"/></svg>