<svg xmlns="http://www.w3.org/2000/svg" width="96" height="64" viewBox="0 0 96 64"><rect x="6" y="25.1" width="11.23" height="14.6" fill="none" stroke="#111" stroke-width="1.6"/><rect x="6" y="25.1" width="11.23" height="14.6" fill="none" stroke="#111" stroke-width="1.6"/><rect x="6" y="25.1" width="11.23" height="14.6" fill="none" stroke="#111" stroke-width="1.6"/><rect x="6" y="25.1" width="11.23" height="14.6" fill="none" stroke="#111" stroke-width="1.6"/><rect x="6" y="25.1" width="11.23" height="14.6" fill="none" stroke="#111" stroke-width="1.6"/><rect x="6" y="25.1" width="11.23" height="14.6" fill="none" stroke="#111" stroke-width="1.6"/><rect x="6" y="25.1" width="11.23" height="14.6" fill="none" stroke="#111" stroke-width="1.6"/><rect x="6" y="25.1" width="11.23" height="14.6" fill="none" stroke="#111" stroke-width="1.6"/><rect x="7.6" y="28.15" width="8.03" height="7.7" fill="none" stroke="#111" stroke-width="1.6"/><rect x="7.6" y="28.15" width="8.03" height="7.7" fill="none" stroke="#111" stroke-width="1.6"/><rect x="7.6" y="28.15" width="8.03" height="7.7" fill="none" stroke="#111" stroke-width="1.6"/><rect x="7.6" y="28.47" width="8.03" height="7.06" fill="none" stroke="#111" stroke-width="1.6"/><rect x="7.6" y="28.15" width="8.03" height="7.7" fill="none" stroke="#111" stroke-width="1.6"/><rect x="7.6" y="28.15" width="8.03" height="7.7" fill="none" stroke="#111" stroke-width="1.6"/><rect x="7.6" y="28.15" width="8.03" height="7.7" fill="none" stroke="#111" stroke-width="1.6"/><rect x="7.6" y="28.15" width="8.03" height="7.7" fill="none" stroke="#111" stroke-width="1.6"/><rect x="7.6" y="28.47" width="8.03" height="7.06" fill="none" stroke="#111" stroke-width="1.6"/><rect x="7.6" y="25.26" width="8.03" height="13.48" fill="none" stroke="#111" stroke-width="1.6"/><rect x="7.6" y="18.84" width="8.03" height="26.32" fill="none" stroke="#111" stroke-width="1.6"/><rect x="7.6" y="26.7" width="8.03" height="11.4" fill="none" stroke="#111" stroke-width="1.6"/><rect x="9.21" y="6" width="4.81" height="52" fill="none" stroke="#111" stroke-width="1.6"/><rect x="9.21" y="7.6" width="4.81" height="48.8" fill="none" stroke="#111" stroke-width="1.6"/><rect x="9.21" y="25.26" width="4.81" height="13.48" fill="none" stroke="#111" stroke-width="1.6"/></svg>