<svg xmlns="http://www.w3.org/2000/svg" width="96" height="64" viewBox="0 0 96 64"><rect x="6" y="6" width="2.97" height="52" fill="none" stroke="#111" stroke-width="1.6"/><rect x="6" y="6.67" width="0.74" height="0.15" fill="none" stroke="#111" stroke-width="1.6"/><rect x="6" y="8.15" width="0.74" height="0.15" fill="none" stroke="#111" stroke-width="1.6"/><rect x="6" y="9.64" width="0.74" height="0.15" fill="none" stroke="#111" stroke-width="1.6"/><rect x="6" y="11.13" width="0.74" height="0.14" fill="none" stroke="#111" stroke-width="1.6"/><rect x="6" y="12.61" width="0.74" height="0.15" fill="none" stroke="#111" stroke-width="1.6"/><rect x="6" y="14.1" width="0.74" height="0.15" fill="none" stroke="#111" stroke-width="1.6"/><rect x="6" y="15.58" width="0.74" height="0.15" fill="none" stroke="#111" stroke-width="1.6"/><rect x="6" y="17.07" width="0.74" height="0.15" fill="none" stroke="#111" stroke-width="1.6"/><rect x="6" y="18.55" width="0.74" height="0.15" fill="none" stroke="#111" stroke-width="1.6"/><rect x="6" y="20.04" width="0.74" height="0.15" fill="none" stroke="#111" stroke-width="1.6"/><rect x="6" y="21.53" width="0.74" height="0.14" fill="none" stroke="#111" stroke-width="1.6"/><rect x="6" y="23.01" width="0.74" height="0.15" fill="none" stroke="#111" stroke-width="1.6"/><rect x="6" y="24.5" width="0.74" height="0.15" fill="none" stroke="#111" stroke-width="1.6"/><rect x="6" y="25.98" width="0.74" height="0.15" fill="none" stroke="#111" stroke-width="1.6"/><rect x="6" y="27.47" width="0.74" height="0.15" fill="none" stroke="#111" stroke-width="1.6"/><rect x="6" y="28.95" width="0.74" height="0.15" fill="none" stroke="#111" stroke-width="1.6"/><rect x="6" y="30.44" width="0.74" height="0.15" fill="none" stroke="#111" stroke-width="1.6"/><rect x="6" y="31.93" width="0.74" height="0.14" fill="none" stroke="#111" stroke-width="1.6"/><rect x="6" y="33.41" width="0.74" height="0.15" fill="none" stroke="#111" stroke-width="1.6"/><rect x="6" y="34.9" width="0.74" height="0.15" fill="none" stroke="#111" stroke-width="1.6"/><rect x="6" y="36.38" width="0.74" height="0.15" fill="none" stroke="#111" stroke-width="1.6"/><rect x="6" y="37.87" width="0.74" height="0.15" fill="none" stroke="#111" stroke-width="1.6"/><rect x="6" y="39.35" width="0.74" height="0.15" fill="none" stroke="#111" stroke-width="1.6"/><rect x="6" y="40.84" width="0.74" height="0.15" fill="none" stroke="#111" stroke-width="1.6"/><rect x="6" y="42.33" width="0.74" height="0.14" fill="none" stroke="#111" stroke-width="1.6"/><rect x="6" y="43.81" width="0.74" height="0.15" fill="none" stroke="#111" stroke-width="1.6"/><rect x="6" y="45.3" width="0.74" height="0.15" fill="none" stroke="#111" stroke-width="1.6"/><rect x="6" y="46.78" width="0.74" height="0.15" fill="none" stroke="#111" stroke-width="1.6"/><rect x="6" y="48.27" width="0.74" height="0.15" fill="none" stroke="#111" stroke-width="1.6"/><rect x="6" y="49.75" width="0.74" height="0.15" fill="none" stroke="#111" stroke-width="1.6"/><rect x="6" y="51.24" width="0.74" height="0.15" fill="none" stroke="#111" stroke-width="1.6"/><rect x="6" y="52.73" width="0.74" height="0.14" fill="none" stroke="#111" stroke-width="1.6"/><rect x="6" y="54.21" width="0.74" height="0.15" fill="none" stroke="#111" stroke-width="1.6"/><rect x="6" y="55.7" width="0.74" height="0.15" fill="none" stroke="#111" stroke-width="1.6"/><rect x="6" y="57.18" width="0.74" height="0.15" fill="none" stroke="#111" stroke-width="1.6"/><rect x="8.23" y="6.67" width="0.74" height="0.15" fill="none" stroke="#111" stroke-width="1.6"/><rect x="8.23" y="8.15" width="0.74" height="0.15" fill="none" stroke="#111" stroke-width="1.6"/><rect x="8.23" y="9.64" width="0.74" height="0.15" fill="none" stroke="#111" stroke-width="1.6"/><rect x="8.23" y="11.13" width="0.74" height="0.14" fill="none" stroke="#111" stroke-width="1.6"/><rect x="8.23" y="12.61" width="0.74" height="0.15" fill="none" stroke="#111" stroke-width="1.6"/><rect x="8.23" y="14.1" width="0.74" height="0.15" fill="none" stroke="#111" stroke-width="1.6"/><rect x="8.23" y="15.58" width="0.74" height="0.15" fill="none" stroke="#111" stroke-width="1.6"/><rect x="8.23" y="17.07" width="0.74" height="0.15" fill="none" stroke="#111" stroke-width="1.6"/><rect x="8.23" y="18.55" width="0.74" height="0.15" fill="none" stroke="#111" stroke-width="1.6"/><rect x="8.23" y="20.04" width="0.74" height="0.15" fill="none" stroke="#111" stroke-width="1.6"/><rect x="8.23" y="21.53" width="0.74" height="0.14" fill="none" stroke="#111" stroke-width="1.6"/><rect x="8.23" y="23.01" width="0.74" height="0.15" fill="none" stroke="#111" stroke-width="1.6"/><rect x="8.23" y="24.5" width="0.74" height="0.15" fill="none" stroke="#111" stroke-width="1.6"/><rect x="8.23" y="25.98" width="0.74" height="0.15" fill="none" stroke="#111" stroke-width="1.6"/><rect x="8.23" y="27.47" width="0.74" height="0.15" fill="none" stroke="#111" stroke-width="1.6"/><rect x="8.23" y="28.95" width="0.74" height="0.15" fill="none" stroke="#111" stroke-width="1.6"/><rect x="8.23" y="30.44" width="0.74" height="0.15" fill="none" stroke="#111" stroke-width="1.6"/><rect x="8.23" y="31.93" width="0.74" height="0.14" fill="none" stroke="#111" stroke-width="1.6"/><rect x="8.23" y="33.41" width="0.74" height="0.15" fill="none" stroke="#111" stroke-width="1.6"/><rect x="8.23" y="34.9" width="0.74" height="0.15" fill="none" stroke="#111" stroke-width="1.6"/><rect x="8.23" y="36.38" width="0.74" height="0.15" fill="none" stroke="#111" stroke-width="1.6"/><rect x="8.23" y="37.87" width="0.74" height="0.15" fill="none" stroke="#111" stroke-width="1.6"/><rect x="8.23" y="39.35" width="0.74" height="0.15" fill="none" stroke="#111" stroke-width="1.6"/><rect x="8.23" y="40.84" width="0.74" height="0.15" fill="none" stroke="#111" stroke-width="1.6"/><rect x="8.23" y="42.33" width="0.74" height="0.14" fill="none" stroke="#111" stroke-width="1.6"/><rect x="8.23" y="43.81" width="0.74" height="0.15" fill="none" stroke="#111" stroke-width="1.6"/><rect x="8.23" y="45.3" width="0.74" height="0.15" fill="none" stroke="#111" stroke-width="1.6"/><rect x="8.23" y="46.78" width="0.74" height="0.15" fill="none" stroke="#111" stroke-width="1.6"/><rect x="8.23" y="48.27" width="0.74" height="0.15" fill="none" stroke="#111" stroke-width="1.6"/><rect x="8.23" y="49.75" width="0.74" height="0.15" fill="none" stroke="#111" stroke-width="1.6"/><rect x="8.23" y="51.24" width="0.74" height="0.15" fill="none" stroke="#111" stroke-width="1.6"/><rect x="8.23" y="52.73" width="0.74" height="0.14" fill="none" stroke="#111" stroke-width="1.6"/><rect x="8.23" y="54.21" width="0.74" height="0.15" fill="none" stroke="#111" stroke-width="1.6"/><rect x="8.23" y="55.7" width="0.74" height="0.15" fill="none" stroke="#111" stroke-width="1.6"/></svg>