<svg xmlns="http://www.w3.org/2000/svg" width="96" height="64" viewBox="0 0 96 64"><rect x="6" y="6" width="6.12" height="52" fill="none" stroke="#111" stroke-width="1.6"/><rect x="6.31" y="6.31" width="5.5" height="51.38" fill="none" stroke="#111" stroke-width="1.6"/><rect x="6.31" y="7.38" width="1.53" height="0.3" fill="none" stroke="#111" stroke-width="1.6"/><rect x="6.31" y="10.44" width="1.53" height="0.3" fill="none" stroke="#111" stroke-width="1.6"/><rect x="6.31" y="13.49" width="1.53" height="0.31" fill="none" stroke="#111" stroke-width="1.6"/><rect x="6.31" y="16.55" width="1.53" height="0.31" fill="none" stroke="#111" stroke-width="1.6"/><rect x="6.31" y="19.61" width="1.53" height="0.31" fill="none" stroke="#111" stroke-width="1.6"/><rect x="6.31" y="22.67" width="1.53" height="0.31" fill="none" stroke="#111" stroke-width="1.6"/><rect x="6.31" y="25.73" width="1.53" height="0.31" fill="none" stroke="#111" stroke-width="1.6"/><rect x="6.31" y="28.79" width="1.53" height="0.3" fill="none" stroke="#111" stroke-width="1.6"/><rect x="6.31" y="31.85" width="1.53" height="0.3" fill="none" stroke="#111" stroke-width="1.6"/><rect x="6.31" y="34.91" width="1.53" height="0.3" fill="none" stroke="#111" stroke-width="1.6"/><rect x="6.31" y="37.96" width="1.53" height="0.31" fill="none" stroke="#111" stroke-width="1.6"/><rect x="6.31" y="41.02" width="1.53" height="0.31" fill="none" stroke="#111" stroke-width="1.6"/><rect x="6.31" y="44.08" width="1.53" height="0.31" fill="none" stroke="#111" stroke-width="1.6"/><rect x="6.31" y="47.14" width="1.53" height="0.31" fill="none" stroke="#111" stroke-width="1.6"/><rect x="6.31" y="50.2" width="1.53" height="0.31" fill="none" stroke="#111" stroke-width="1.6"/><rect x="6.31" y="53.26" width="1.53" height="0.3" fill="none" stroke="#111" stroke-width="1.6"/><rect x="6.31" y="56.32" width="1.53" height="0.3" fill="none" stroke="#111" stroke-width="1.6"/><rect x="10.28" y="7.38" width="1.53" height="0.3" fill="none" stroke="#111" stroke-width="1.6"/><rect x="10.28" y="10.44" width="1.53" height="0.3" fill="none" stroke="#111" stroke-width="1.6"/><rect x="10.28" y="13.49" width="1.53" height="0.31" fill="none" stroke="#111" stroke-width="1.6"/><rect x="10.28" y="16.55" width="1.53" height="0.31" fill="none" stroke="#111" stroke-width="1.6"/><rect x="10.28" y="19.61" width="1.53" height="0.31" fill="none" stroke="#111" stroke-width="1.6"/><rect x="10.28" y="22.67" width="1.53" height="0.31" fill="none" stroke="#111" stroke-width="1.6"/><rect x="10.28" y="25.73" width="1.53" height="0.31" fill="none" stroke="#111" stroke-width="1.6"/><rect x="10.28" y="28.79" width="1.53" height="0.3" fill="none" stroke="#111" stroke-width="1.6"/><rect x="10.28" y="31.85" width="1.53" height="0.3" fill="none" stroke="#111" stroke-width="1.6"/><rect x="10.28" y="34.91" width="1.53" height="0.3" fill="none" stroke="#111" stroke-width="1.6"/><rect x="10.28" y="37.96" width="1.53" height="0.31" fill="none" stroke="#111" stroke-width="1.6"/><rect x="10.28" y="41.02" width="1.53" height="0.31" fill="none" stroke="#111" stroke-width="1.6"/><rect x="10.28" y="44.08" width="1.53" height="0.31" fill="none" stroke="#111" stroke-width="1.6"/><rect x="10.28" y="47.14" width="1.53" height="0.31" fill="none" stroke="#111" stroke-width="1.6"/><rect x="10.28" y="50.2" width="1.53" height="0.31" fill="none" stroke="#111" stroke-width="1.6"/><rect x="10.28" y="53.26" width="1.53" height="0.3" fill="none" stroke="#111" stroke-width="1.6"/><rect x="10.28" y="56.32" width="1.53" height="0.3" fill="none" stroke="#111" stroke-width="1.6"/></svg>