<svg xmlns="http://www.w3.org/2000/svg" width="96" height="64" viewBox="0 0 96 64"><polyline points="6,6.25 6.37,6.25" fill="none" stroke="#111" stroke-width="1.6" stroke-linecap="round" stroke-linejoin="round"/><polyline points="6,7.47 6.37,7.47" fill="none" stroke="#111" stroke-width="1.6" stroke-linecap="round" stroke-linejoin="round"/><polyline points="6,8.7 6.37,8.7" fill="none" stroke="#111" stroke-width="1.6" stroke-linecap="round" stroke-linejoin="round"/><polyline points="6,9.92 6.37,9.92" fill="none" stroke="#111" stroke-width="1.6" stroke-linecap="round" stroke-linejoin="round"/><polyline points="6,11.15 6.37,11.15" fill="none" stroke="#111" stroke-width="1.6" stroke-linecap="round" stroke-linejoin="round"/><polyline points="6,12.38 6.37,12.38" fill="none" stroke="#111" stroke-width="1.6" stroke-linecap="round" stroke-linejoin="round"/><polyline points="6,13.6 6.37,13.6" fill="none" stroke="#111" stroke-width="1.6" stroke-linecap="round" stroke-linejoin="round"/><polyline points="6,14.83 6.37,14.83" fill="none" stroke="#111" stroke-width="1.6" stroke-linecap="round" stroke-linejoin="round"/><polyline points="6,16.06 6.37,16.06" fill="none" stroke="#111" stroke-width="1.6" stroke-linecap="round" stroke-linejoin="round"/><polyline points="6,17.28 6.37,17.28" fill="none" stroke="#111" stroke-width="1.6" stroke-linecap="round" stroke-linejoin="round"/><polyline points="6,18.51 6.37,18.51" fill="none" stroke="#111" stroke-width="1.6" stroke-linecap="round" stroke-linejoin="round"/><polyline points="6,19.74 6.37,19.74" fill="none" stroke="#111" stroke-width="1.6" stroke-linecap="round" stroke-linejoin="round"/><polyline points="6,20.96 6.37,20.96" fill="none" stroke="#111" stroke-width="1.6" stroke-linecap="round" stroke-linejoin="round"/><polyline points="6,22.19 6.37,22.19" fill="none" stroke="#111" stroke-width="1.6" stroke-linecap="round" stroke-linejoin="round"/><polyline points="6,23.42 6.37,23.42" fill="none" stroke="#111" stroke-width="1.6" stroke-linecap="round" stroke-linejoin="round"/><polyline points="6,24.64 6.37,24.64" fill="none" stroke="#111" stroke-width="1.6" stroke-linecap="round" stroke-linejoin="round"/><polyline points="6,25.87 6.37,25.87" fill="none" stroke="#111" stroke-width="1.6" stroke-linecap="round" stroke-linejoin="round"/><polyline points="6,27.09 6.37,27.09" fill="none" stroke="#111" stroke-width="1.6" stroke-linecap="round" stroke-linejoin="round"/><polyline points="6,28.32 6.37,28.32" fill="none" stroke="#111" stroke-width="1.6" stroke-linecap="round" stroke-linejoin="round"/><polyline points="6,29.55 6.37,29.55" fill="none" stroke="#111" stroke-width="1.6" stroke-linecap="round" stroke-linejoin="round"/><polyline points="6,30.77 6.37,30.77" fill="none" stroke="#111" stroke-width="1.6" stroke-linecap="round" stroke-linejoin="round"/><polyline points="6,32 6.37,32" fill="none" stroke="#111" stroke-width="1.6" stroke-linecap="round" stroke-linejoin="round"/><polyline points="6,33.23 6.37,33.23" fill="none" stroke="#111" stroke-width="1.6" stroke-linecap="round" stroke-linejoin="round"/><polyline points="6,34.45 6.37,34.45" fill="none" stroke="#111" stroke-width="1.6" stroke-linecap="round" stroke-linejoin="round"/><polyline points="6,35.68 6.37,35.68" fill="none" stroke="#111" stroke-width="1.6" stroke-linecap="round" stroke-linejoin="round"/><polyline points="6,36.91 6.37,36.91" fill="none" stroke="#111" stroke-width="1.6" stroke-linecap="round" stroke-linejoin="round"/><polyline points="6,38.13 6.37,38.13" fill="none" stroke="#111" stroke-width="1.6" stroke-linecap="round" stroke-linejoin="round"/><polyline points="6,39.36 6.37,39.36" fill="none" stroke="#111" stroke-width="1.6" stroke-linecap="round" stroke-linejoin="round"/><polyline points="6,40.58 6.37,40.58" fill="none" stroke="#111" stroke-width="1.6" stroke-linecap="round" stroke-linejoin="round"/><polyline points="6,41.81 6.37,41.81" fill="none" stroke="#111" stroke-width="1.6" stroke-linecap="round" stroke-linejoin="round"/><polyline points="6,43.04 6.37,43.04" fill="none" stroke="#111" stroke-width="1.6" stroke-linecap="round" stroke-linejoin="round"/><polyline points="6,44.26 6.37,44.26" fill="none" stroke="#111" stroke-width="1.6" stroke-linecap="round" stroke-linejoin="round"/><polyline points="6,45.49 6.37,45.49" fill="none" stroke="#111" stroke-width="1.6" stroke-linecap="round" stroke-linejoin="round"/><polyline points="6,46.72 6.37,46.72" fill="none" stroke="#111" stroke-width="1.6" stroke-linecap="round" stroke-linejoin="round"/><polyline points="6,47.94 6.37,47.94" fill="none" stroke="#111" stroke-width="1.6" stroke-linecap="round" stroke-linejoin="round"/><polyline points="6,49.17 6.37,49.17" fill="none" stroke="#111" stroke-width="1.6" stroke-linecap="round" stroke-linejoin="round"/><polyline points="6,50.4 6.37,50.4" fill="none" stroke="#111" stroke-width="1.6" stroke-linecap="round" stroke-linejoin="round"/><polyline points="6,51.62 6.37,51.62" fill="none" stroke="#111" stroke-width="1.6" stroke-linecap="round" stroke-linejoin="round"/><polyline points="6,52.85 6.37,52.85" fill="none" stroke="#111" stroke-width="1.6" stroke-linecap="round" stroke-linejoin="round"/><polyline points="6,54.08 6.37,54.08" fill="none" stroke="#111" stroke-width="1.6" stroke-linecap="round" stroke-linejoin="round"/><polyline points="6,55.3 6.37,55.3" fill="none" stroke="#111" stroke-width="1.6" stroke-linecap="round" stroke-linejoin="round"/><polyline points="6,56.53 6.37,56.53" fill="none" stroke="#111" stroke-width="1.6" stroke-linecap="round" stroke-linejoin="round"/><polyline points="6,57.75 6.37,57.75" fill="none" stroke="#111" stroke-width="1.6" stroke-linecap="round" stroke-linejoin="round"/><path d="M 6.61 6.49 Q 6.37 6.25 6.61 6" fill="none" stroke="#111" stroke-width="1.6" stroke-linecap="round"/><path d="M 6.61 7.72 Q 6.37 7.47 6.61 7.23" fill="none" stroke="#111" stroke-width="1.6" stroke-linecap="round"/><path d="M 6.61 8.94 Q 6.37 8.7 6.61 8.45" fill="none" stroke="#111" stroke-width="1.6" stroke-linecap="round"/><path d="M 6.61 10.17 Q 6.37 9.92 6.61 9.68" fill="none" stroke="#111" stroke-width="1.6" stroke-linecap="round"/><path d="M 6.61 11.4 Q 6.37 11.15 6.61 10.91" fill="none" stroke="#111" stroke-width="1.6" stroke-linecap="round"/><path d="M 6.61 12.62 Q 6.37 12.38 6.61 12.13" fill="none" stroke="#111" stroke-width="1.6" stroke-linecap="round"/><path d="M 6.61 13.85 Q 6.37 13.6 6.61 13.36" fill="none" stroke="#111" stroke-width="1.6" stroke-linecap="round"/><path d="M 6.61 15.08 Q 6.37 14.83 6.61 14.58" fill="none" stroke="#111" stroke-width="1.6" stroke-linecap="round"/><path d="M 6.61 16.3 Q 6.37 16.06 6.61 15.81" fill="none" stroke="#111" stroke-width="1.6" stroke-linecap="round"/><path d="M 6.61 17.53 Q 6.37 17.28 6.61 17.04" fill="none" stroke="#111" stroke-width="1.6" stroke-linecap="round"/><path d="M 6.61 18.75 Q 6.37 18.51 6.61 18.26" fill="none" stroke="#111" stroke-width="1.6" stroke-linecap="round"/><path d="M 6.61 19.98 Q 6.37 19.74 6.61 19.49" fill="none" stroke="#111" stroke-width="1.6" stroke-linecap="round"/><path d="M 6.61 21.21 Q 6.37 20.96 6.61 20.72" fill="none" stroke="#111" stroke-width="1.6" stroke-linecap="round"/><path d="M 6.61 22.43 Q 6.37 22.19 6.61 21.94" fill="none" stroke="#111" stroke-width="1.6" stroke-linecap="round"/><path d="M 6.61 23.66 Q 6.37 23.42 6.61 23.17" fill="none" stroke="#111" stroke-width="1.6" stroke-linecap="round"/><path d="M 6.61 24.89 Q 6.37 24.64 6.61 24.4" fill="none" stroke="#111" stroke-width="1.6" stroke-linecap="round"/><path d="M 6.61 26.11 Q 6.37 25.87 6.61 25.62" fill="none" stroke="#111" stroke-width="1.6" stroke-linecap="round"/><path d="M 6.61 27.34 Q 6.37 27.09 6.61 26.85" fill="none" stroke="#111" stroke-width="1.6" stroke-linecap="round"/><path d="M 6.61 28.57 Q 6.37 28.32 6.61 28.08" fill="none" stroke="#111" stroke-width="1.6" stroke-linecap="round"/><path d="M 6.61 29.79 Q 6.37 29.55 6.61 29.3" fill="none" stroke="#111" stroke-width="1.6" stroke-linecap="round"/><path d="M 6.61 31.02 Q 6.37 30.77 6.61 30.53" fill="none" stroke="#111" stroke-width="1.6" stroke-linecap="round"/><path d="M 6.61 32.25 Q 6.37 32 6.61 31.75" fill="none" stroke="#111" stroke-width="1.6" stroke-linecap="round"/><path d="M 6.61 33.47 Q 6.37 33.23 6.61 32.98" fill="none" stroke="#111" stroke-width="1.6" stroke-linecap="round"/><path d="M 6.61 34.7 Q 6.37 34.45 6.61 34.21" fill="none" stroke="#111" stroke-width="1.6" stroke-linecap="round"/><path d="M 6.61 35.92 Q 6.37 35.68 6.61 35.43" fill="none" stroke="#111" stroke-width="1.6" stroke-linecap="round"/><path d="M 6.61 37.15 Q 6.37 36.91 6.61 36.66" fill="none" stroke="#111" stroke-width="1.6" stroke-linecap="round"/><path d="M 6.61 38.38 Q 6.37 38.13 6.61 37.89" fill="none" stroke="#111" stroke-width="1.6" stroke-linecap="round"/><path d="M 6.61 39.6 Q 6.37 39.36 6.61 39.11" fill="none" stroke="#111" stroke-width="1.6" stroke-linecap="round"/><path d="M 6.61 40.83 Q 6.37 40.58 6.61 40.34" fill="none" stroke="#111" stroke-width="1.6" stroke-linecap="round"/><path d="M 6.61 42.06 Q 6.37 41.81 6.61 41.57" fill="none" stroke="#111" stroke-width="1.6" stroke-linecap="round"/><path d="M 6.61 43.28 Q 6.37 43.04 6.61 42.79" fill="none" stroke="#111" stroke-width="1.6" stroke-linecap="round"/><path d="M 6.61 44.51 Q 6.37 44.26 6.61 44.02" fill="none" stroke="#111" stroke-width="1.6" stroke-linecap="round"/><path d="M 6.61 45.74 Q 6.37 45.49 6.61 45.25" fill="none" stroke="#111" stroke-width="1.6" stroke-linecap="round"/><path d="M 6.61 46.96 Q 6.37 46.72 6.61 46.47" fill="none" stroke="#111" stroke-width="1.6" stroke-linecap="round"/><path d="M 6.61 48.19 Q 6.37 47.94 6.61 47.7" fill="none" stroke="#111" stroke-width="1.6" stroke-linecap="round"/><path d="M 6.61 49.42 Q 6.37 49.17 6.61 48.92" fill="none" stroke="#111" stroke-width="1.6" stroke-linecap="round"/><path d="M 6.61 50.64 Q 6.37 50.4 6.61 50.15" fill="none" stroke="#111" stroke-width="1.6" stroke-linecap="round"/><path d="M 6.61 51.87 Q 6.37 51.62 6.61 51.38" fill="none" stroke="#111" stroke-width="1.6" stroke-linecap="round"/><path d="M 6.61 53.09 Q 6.37 52.85 6.61 52.6" fill="none" stroke="#111" stroke-width="1.6" stroke-linecap="round"/><path d="M 6.61 54.32 Q 6.37 54.08 6.61 53.83" fill="none" stroke="#111" stroke-width="1.6" stroke-linecap="round"/><path d="M 6.61 55.55 Q 6.37 55.3 6.61 55.06" fill="none" stroke="#111" stroke-width="1.6" stroke-linecap="round"/><path d="M 6.61 56.77 Q 6.37 56.53 6.61 56.28" fill="none" stroke="#111" stroke-width="1.6" stroke-linecap="round"/><path d="M 6.61 58 Q 6.37 57.75 6.61 57.51" fill="none" stroke="#111" stroke-width="1.6" stroke-linecap="round"/></svg>