<svg xmlns="http://www.w3.org/2000/svg" width="96" height="64" viewBox="0 0 96 64"><rect x="6" y="6" width="1.79" height="52" fill="none" stroke="#111" stroke-width="1.6"/><rect x="6" y="6.81" width="0.9" height="0.18" fill="none" stroke="#111" stroke-width="1.6"/><rect x="6" y="8.6" width="0.9" height="0.18" fill="none" stroke="#111" stroke-width="1.6"/><rect x="6" y="10.39" width="0.9" height="0.18" fill="none" stroke="#111" stroke-width="1.6"/><rect x="6" y="12.19" width="0.9" height="0.18" fill="none" stroke="#111" stroke-width="1.6"/><rect x="6" y="13.98" width="0.9" height="0.18" fill="none" stroke="#111" stroke-width="1.6"/><rect x="6" y="15.77" width="0.9" height="0.18" fill="none" stroke="#111" stroke-width="1.6"/><rect x="6" y="17.57" width="0.9" height="0.17" fill="none" stroke="#111" stroke-width="1.6"/><rect x="6" y="19.36" width="0.9" height="0.18" fill="none" stroke="#111" stroke-width="1.6"/><rect x="6" y="21.15" width="0.9" height="0.18" fill="none" stroke="#111" stroke-width="1.6"/><rect x="6" y="22.94" width="0.9" height="0.18" fill="none" stroke="#111" stroke-width="1.6"/><rect x="6" y="24.74" width="0.9" height="0.18" fill="none" stroke="#111" stroke-width="1.6"/><rect x="6" y="26.53" width="0.9" height="0.18" fill="none" stroke="#111" stroke-width="1.6"/><rect x="6" y="28.32" width="0.9" height="0.18" fill="none" stroke="#111" stroke-width="1.6"/><rect x="6" y="30.12" width="0.9" height="0.18" fill="none" stroke="#111" stroke-width="1.6"/><rect x="6" y="31.91" width="0.9" height="0.18" fill="none" stroke="#111" stroke-width="1.6"/><rect x="6" y="33.7" width="0.9" height="0.18" fill="none" stroke="#111" stroke-width="1.6"/><rect x="6" y="35.5" width="0.9" height="0.18" fill="none" stroke="#111" stroke-width="1.6"/><rect x="6" y="37.29" width="0.9" height="0.18" fill="none" stroke="#111" stroke-width="1.6"/><rect x="6" y="39.08" width="0.9" height="0.18" fill="none" stroke="#111" stroke-width="1.6"/><rect x="6" y="40.88" width="0.9" height="0.18" fill="none" stroke="#111" stroke-width="1.6"/><rect x="6" y="42.67" width="0.9" height="0.18" fill="none" stroke="#111" stroke-width="1.6"/><rect x="6" y="44.46" width="0.9" height="0.18" fill="none" stroke="#111" stroke-width="1.6"/><rect x="6" y="46.26" width="0.9" height="0.17" fill="none" stroke="#111" stroke-width="1.6"/><rect x="6" y="48.05" width="0.9" height="0.18" fill="none" stroke="#111" stroke-width="1.6"/><rect x="6" y="49.84" width="0.9" height="0.18" fill="none" stroke="#111" stroke-width="1.6"/><rect x="6" y="51.63" width="0.9" height="0.18" fill="none" stroke="#111" stroke-width="1.6"/><rect x="6" y="53.43" width="0.9" height="0.18" fill="none" stroke="#111" stroke-width="1.6"/><rect x="6" y="55.22" width="0.9" height="0.18" fill="none" stroke="#111" stroke-width="1.6"/><rect x="6" y="57.01" width="0.9" height="0.18" fill="none" stroke="#111" stroke-width="1.6"/></svg>