<svg xmlns="http://www.w3.org/2000/svg" width="96" height="64" viewBox="0 0 96 64"><rect x="6" y="6" width="84" height="16.8" fill="none" stroke="#111" stroke-width="1.6"/><rect x="7.26" y="8.81" width="1.68" height="4.2" fill="none" stroke="#111" stroke-width="1.6"/><polyline points="8.1,6 8.1,8.81" fill="none" stroke="#111" stroke-width="1.6" stroke-linecap="round" stroke-linejoin="round"/><circle cx="8.1" cy="7.43" r="0.42" fill="none" stroke="#111" stroke-width="1.6"/><polyline points="8.1,7.43 16.5,7.43 16.5,8.81" fill="none" stroke="#111" stroke-width="1.6" stroke-linecap="round" stroke-linejoin="round"/><circle cx="8.1" cy="14.4" r="0.42" fill="none" stroke="#111" stroke-width="1.6"/><polyline points="8.1,14.4 10.62,14.4 10.62,15.79" fill="none" stroke="#111" stroke-width="1.6" stroke-linecap="round" stroke-linejoin="round"/><polyline points="8.1,22.8 8.1,13.01" fill="none" stroke="#111" stroke-width="1.6" stroke-linecap="round" stroke-linejoin="round"/><rect x="9.78" y="15.79" width="1.68" height="4.2" fill="none" stroke="#111" stroke-width="1.6"/><polyline points="10.62,19.99 10.62,21.37 87.9,21.37" fill="none" stroke="#111" stroke-width="1.6" stroke-linecap="round" stroke-linejoin="round"/><rect x="15.66" y="8.81" width="1.68" height="4.2" fill="none" stroke="#111" stroke-width="1.6"/><circle cx="16.5" cy="7.43" r="0.42" fill="none" stroke="#111" stroke-width="1.6"/><polyline points="16.5,7.43 24.9,7.43 24.9,8.81" fill="none" stroke="#111" stroke-width="1.6" stroke-linecap="round" stroke-linejoin="round"/><circle cx="16.5" cy="14.4" r="0.42" fill="none" stroke="#111" stroke-width="1.6"/><polyline points="16.5,14.4 19.02,14.4 19.02,15.79" fill="none" stroke="#111" stroke-width="1.6" stroke-linecap="round" stroke-linejoin="round"/><polyline points="16.5,22.8 16.5,13.01" fill="none" stroke="#111" stroke-width="1.6" stroke-linecap="round" stroke-linejoin="round"/><rect x="18.18" y="15.79" width="1.68" height="4.2" fill="none" stroke="#111" stroke-width="1.6"/><polyline points="19.02,19.99 19.02,21.37 87.9,21.37" fill="none" stroke="#111" stroke-width="1.6" stroke-linecap="round" stroke-linejoin="round"/><circle cx="19.02" cy="21.37" r="0.42" fill="none" stroke="#111" stroke-width="1.6"/><rect x="24.06" y="8.81" width="1.68" height="4.2" fill="none" stroke="#111" stroke-width="1.6"/><circle cx="24.9" cy="7.43" r="0.42" fill="none" stroke="#111" stroke-width="1.6"/><polyline points="24.9,7.43 33.3,7.43 33.3,8.81" fill="none" stroke="#111" stroke-width="1.6" stroke-linecap="round" stroke-linejoin="round"/><circle cx="24.9" cy="14.4" r="0.42" fill="none" stroke="#111" stroke-width="1.6"/><polyline points="24.9,14.4 27.42,14.4 27.42,15.79" fill="none" stroke="#111" stroke-width="1.6" stroke-linecap="round" stroke-linejoin="round"/><polyline points="24.9,22.8 24.9,13.01" fill="none" stroke="#111" stroke-width="1.6" stroke-linecap="round" stroke-linejoin="round"/><rect x="26.58" y="15.79" width="1.68" height="4.2" fill="none" stroke="#111" stroke-width="1.6"/><polyline points="27.42,19.99 27.42,21.37 87.9,21.37" fill="none" stroke="#111" stroke-width="1.6" stroke-linecap="round" stroke-linejoin="round"/><circle cx="27.42" cy="21.37" r="0.42" fill="none" stroke="#111" stroke-width="1.6"/><rect x="32.46" y="8.81" width="1.68" height="4.2" fill="none" stroke="#111" stroke-width="1.6"/><circle cx="33.3" cy="7.43" r="0.42" fill="none" stroke="#111" stroke-width="1.6"/><polyline points="33.3,7.43 41.7,7.43 41.7,8.81" fill="none" stroke="#111" stroke-width="1.6" stroke-linecap="round" stroke-linejoin="round"/><circle cx="33.3" cy="14.4" r="0.42" fill="none" stroke="#111" stroke-width="1.6"/><polyline points="33.3,14.4 35.82,14.4 35.82,15.79" fill="none" stroke="#111" stroke-width="1.6" stroke-linecap="round" stroke-linejoin="round"/><polyline points="33.3,22.8 33.3,13.01" fill="none" stroke="#111" stroke-width="1.6" stroke-linecap="round" stroke-linejoin="round"/><rect x="34.98" y="15.79" width="1.68" height="4.2" fill="none" stroke="#111" stroke-width="1.6"/><polyline points="35.82,19.99 35.82,21.37 87.9,21.37" fill="none" stroke="#111" stroke-width="1.6" stroke-linecap="round" stroke-linejoin="round"/><circle cx="35.82" cy="21.37" r="0.42" fill="none" stroke="#111" stroke-width="1.6"/><rect x="40.86" y="8.81" width="1.68" height="4.2" fill="none" stroke="#111" stroke-width="1.6"/><circle cx="41.7" cy="7.43" r="0.42" fill="none" stroke="#111" stroke-width="1.6"/><polyline points="41.7,7.43 50.1,7.43 50.1,8.81" fill="none" stroke="#111" stroke-width="1.6" stroke-linecap="round" stroke-linejoin="round"/><circle cx="41.7" cy="14.4" r="0.42" fill="none" stroke="#111" stroke-width="1.6"/><polyline points="41.7,14.4 44.22,14.4 44.22,15.79" fill="none" stroke="#111" stroke-width="1.6" stroke-linecap="round" stroke-linejoin="round"/><polyline points="41.7,22.8 41.7,13.01" fill="none" stroke="#111" stroke-width="1.6" stroke-linecap="round" stroke-linejoin="round"/><rect x="43.38" y="15.79" width="1.68" height="4.2" fill="none" stroke="#111" stroke-width="1.6"/><polyline points="44.22,19.99 44.22,21.37 87.9,21.37" fill="none" stroke="#111" stroke-width="1.6" stroke-linecap="round" stroke-linejoin="round"/><circle cx="44.22" cy="21.37" r="0.42" fill="none" stroke="#111" stroke-width="1.6"/><rect x="49.26" y="8.81" width="1.68" height="4.2" fill="none" stroke="#111" stroke-width="1.6"/><circle cx="50.1" cy="7.43" r="0.42" fill="none" stroke="#111" stroke-width="1.6"/><polyline points="50.1,7.43 58.5,7.43 58.5,8.81" fill="none" stroke="#111" stroke-width="1.6" stroke-linecap="round" stroke-linejoin="round"/><polyline points="50.1,14.4 52.62,14.4 52.62,15.79" fill="none" stroke="#111" stroke-width="1.6" stroke-linecap="round" stroke-linejoin="round"/><circle cx="50.1" cy="14.4" r="0.42" fill="none" stroke="#111" stroke-width="1.6"/><polyline points="50.1,22.8 50.1,13.01" fill="none" stroke="#111" stroke-width="1.6" stroke-linecap="round" stroke-linejoin="round"/><rect x="51.78" y="15.79" width="1.68" height="4.2" fill="none" stroke="#111" stroke-width="1.6"/><polyline points="52.62,19.99 52.62,21.37 87.9,21.37" fill="none" stroke="#111" stroke-width="1.6" stroke-linecap="round" stroke-linejoin="round"/><circle cx="52.62" cy="21.37" r="0.42" fill="none" stroke="#111" stroke-width="1.6"/><rect x="57.66" y="8.81" width="1.68" height="4.2" fill="none" stroke="#111" stroke-width="1.6"/><polyline points="58.5,7.43 66.9,7.43 66.9,8.81" fill="none" stroke="#111" stroke-width="1.6" stroke-linecap="round" stroke-linejoin="round"/><circle cx="58.5" cy="7.43" r="0.42" fill="none" stroke="#111" stroke-width="1.6"/><polyline points="58.5,14.4 61.02,14.4 61.02,15.79" fill="none" stroke="#111" stroke-width="1.6" stroke-linecap="round" stroke-linejoin="round"/><circle cx="58.5" cy="14.4" r="0.42" fill="none" stroke="#111" stroke-width="1.6"/><polyline points="58.5,22.8 58.5,13.01" fill="none" stroke="#111" stroke-width="1.6" stroke-linecap="round" stroke-linejoin="round"/><rect x="60.18" y="15.79" width="1.68" height="4.2" fill="none" stroke="#111" stroke-width="1.6"/><polyline points="61.02,19.99 61.02,21.37 87.9,21.37" fill="none" stroke="#111" stroke-width="1.6" stroke-linecap="round" stroke-linejoin="round"/><circle cx="61.02" cy="21.37" r="0.42" fill="none" stroke="#111" stroke-width="1.6"/><rect x="66.06" y="8.81" width="1.68" height="4.2" fill="none" stroke="#111" stroke-width="1.6"/><polyline points="66.9,7.43 75.3,7.43 75.3,8.81" fill="none" stroke="#111" stroke-width="1.6" stroke-linecap="round" stroke-linejoin="round"/><circle cx="66.9" cy="7.43" r="0.42" fill="none" stroke="#111" stroke-width="1.6"/><polyline points="66.9,14.4 69.42,14.4 69.42,15.79" fill="none" stroke="#111" stroke-width="1.6" stroke-linecap="round" stroke-linejoin="round"/><circle cx="66.9" cy="14.4" r="0.42" fill="none" stroke="#111" stroke-width="1.6"/><polyline points="66.9,22.8 66.9,13.01" fill="none" stroke="#111" stroke-width="1.6" stroke-linecap="round" stroke-linejoin="round"/><rect x="68.58" y="15.79" width="1.68" height="4.2" fill="none" stroke="#111" stroke-width="1.6"/><polyline points="69.42,19.99 69.42,21.37 87.9,21.37" fill="none" stroke="#111" stroke-width="1.6" stroke-linecap="round" stroke-linejoin="round"/><circle cx="69.42" cy="21.37" r="0.42" fill="none" stroke="#111" stroke-width="1.6"/><rect x="74.46" y="8.81" width="1.68" height="4.2" fill="none" stroke="#111" stroke-width="1.6"/><polyline points="75.3,7.43 83.7,7.43 83.7,8.81" fill="none" stroke="#111" stroke-width="1.6" stroke-linecap="round" stroke-linejoin="round"/><circle cx="75.3" cy="7.43" r="0.42" fill="none" stroke="#111" stroke-width="1.6"/><polyline points="75.3,14.4 77.82,14.4 77.82,15.79" fill="none" stroke="#111" stroke-width="1.6" stroke-linecap="round" stroke-linejoin="round"/><circle cx="75.3" cy="14.4" r="0.42" fill="none" stroke="#111" stroke-width="1.6"/><polyline points="75.3,22.8 75.3,13.01" fill="none" stroke="#111" stroke-width="1.6" stroke-linecap="round" stroke-linejoin="round"/><rect x="76.98" y="15.79" width="1.68" height="4.2" fill="none" stroke="#111" stroke-width="1.6"/><polyline points="77.82,19.99 77.82,21.37 87.9,21.37" fill="none" stroke="#111" stroke-width="1.6" stroke-linecap="round" stroke-linejoin="round"/><circle cx="77.82" cy="21.37" r="0.42" fill="none" stroke="#111" stroke-width="1.6"/><rect x="82.86" y="8.81" width="1.68" height="4.2" fill="none" stroke="#111" stroke-width="1.6"/><polyline points="83.7,14.4 86.22,14.4 86.22,15.79" fill="none" stroke="#111" stroke-width="1.6" stroke-linecap="round" stroke-linejoin="round"/><circle cx="83.7" cy="14.4" r="0.42" fill="none" stroke="#111" stroke-width="1.6"/><polyline points="83.7,22.8 83.7,13.01" fill="none" stroke="#111" stroke-width="1.6" stroke-linecap="round" stroke-linejoin="round"/><rect x="85.38" y="15.79" width="1.68" height="4.2" fill="none" stroke="#111" stroke-width="1.6"/><polyline points="86.22,19.99 86.22,21.37 87.9,21.37" fill="none" stroke="#111" stroke-width="1.6" stroke-linecap="round" stroke-linejoin="round"/><circle cx="86.22" cy="21.37" r="0.42" fill="none" stroke="#111" stroke-width="1.6"/><polyline points="87.9,21.37 87.9,6" fill="none" stroke="#111" stroke-width="1.6" stroke-linecap="round" stroke-linejoin="round"/></svg>