<svg xmlns="http://www.w3.org/2000/svg" width="96" height="64" viewBox="0 0 96 64"><polyline points="78.41,6 78.41,17.59 75.52,14.69 78.41,11.79" fill="none" stroke="#111" stroke-width="1.6" stroke-linecap="round" stroke-linejoin="round"/><rect x="6" y="6" width="84" height="46.34" fill="none" stroke="#111" stroke-width="1.6"/><polyline points="8.9,32.07 14.69,32.07" fill="none" stroke="#111" stroke-width="1.6" stroke-linecap="round" stroke-linejoin="round"/><polyline points="11.79,32.07 14.69,26.28 8.9,26.28 11.79,32.07" fill="none" stroke="#111" stroke-width="1.6" stroke-linecap="round" stroke-linejoin="round"/><rect x="17.59" y="20.48" width="28.96" height="17.38" fill="none" stroke="#111" stroke-width="1.6"/><polyline points="20.48,37.86 43.66,20.48" fill="none" stroke="#111" stroke-width="1.6" stroke-linecap="round" stroke-linejoin="round"/><polyline points="32.07,6 32.07,20.48" fill="none" stroke="#111" stroke-width="1.6" stroke-linecap="round" stroke-linejoin="round"/><circle cx="32.07" cy="11.79" r="1.85" fill="none" stroke="#111" stroke-width="1.6"/><circle cx="32.07" cy="46.55" r="1.85" fill="none" stroke="#111" stroke-width="1.6"/><polyline points="32.07,46.55 11.79,46.55 11.79,11.79 32.07,11.79" fill="none" stroke="#111" stroke-width="1.6" stroke-linecap="round" stroke-linejoin="round"/><polyline points="32.07,52.34 32.07,37.86" fill="none" stroke="#111" stroke-width="1.6" stroke-linecap="round" stroke-linejoin="round"/><polyline points="46.55,29.17 49.45,29.17" fill="none" stroke="#111" stroke-width="1.6" stroke-linecap="round" stroke-linejoin="round"/><polyline points="52.34,29.17 55.24,29.17" fill="none" stroke="#111" stroke-width="1.6" stroke-linecap="round" stroke-linejoin="round"/><polyline points="58.14,29.17 61.03,29.17" fill="none" stroke="#111" stroke-width="1.6" stroke-linecap="round" stroke-linejoin="round"/><polyline points="63.93,29.17 66.83,29.17" fill="none" stroke="#111" stroke-width="1.6" stroke-linecap="round" stroke-linejoin="round"/><polyline points="69.72,29.17 72.62,29.17" fill="none" stroke="#111" stroke-width="1.6" stroke-linecap="round" stroke-linejoin="round"/><polyline points="78.41,40.76 69.72,11.79" fill="none" stroke="#111" stroke-width="1.6" stroke-linecap="round" stroke-linejoin="round"/><polyline points="78.41,40.76 78.41,52.34" fill="none" stroke="#111" stroke-width="1.6" stroke-linecap="round" stroke-linejoin="round"/></svg>