<svg xmlns="http://www.w3.org/2000/svg" width="96" height="64" viewBox="0 0 96 64"><rect x="6" y="6" width="84" height="45.82" fill="none" stroke="#111" stroke-width="1.6"/><polyline points="6,13.64 25.09,13.64 25.09,17.45" fill="none" stroke="#111" stroke-width="1.6" stroke-linecap="round" stroke-linejoin="round"/><polyline points="6,44.18 25.09,44.18 25.09,40.36" fill="none" stroke="#111" stroke-width="1.6" stroke-linecap="round" stroke-linejoin="round"/><polyline points="44.18,17.45 44.18,13.64 74.73,13.64" fill="none" stroke="#111" stroke-width="1.6" stroke-linecap="round" stroke-linejoin="round"/><polyline points="44.18,51.82 44.18,40.36" fill="none" stroke="#111" stroke-width="1.6" stroke-linecap="round" stroke-linejoin="round"/><circle cx="74.73" cy="13.64" r="0.76" fill="none" stroke="#111" stroke-width="1.6"/><rect x="17.45" y="17.45" width="34.37" height="22.91" fill="none" stroke="#111" stroke-width="1.6"/><polyline points="59.45,19.75 59.45,38.07 59.45,38.07" fill="none" stroke="#111" stroke-width="1.6" stroke-linecap="round" stroke-linejoin="round"/><polyline points="59.45,36.55 51.82,36.55" fill="none" stroke="#111" stroke-width="1.6" stroke-linecap="round" stroke-linejoin="round"/><polyline points="63.27,18.98 63.27,22.8" fill="none" stroke="#111" stroke-width="1.6" stroke-linecap="round" stroke-linejoin="round"/><polyline points="63.27,26.62 63.27,31.2" fill="none" stroke="#111" stroke-width="1.6" stroke-linecap="round" stroke-linejoin="round"/><polyline points="63.27,35.02 63.27,38.84" fill="none" stroke="#111" stroke-width="1.6" stroke-linecap="round" stroke-linejoin="round"/><polyline points="64.04,21.27 74.73,21.27 74.73,6 74.73,13.64" fill="none" stroke="#111" stroke-width="1.6" stroke-linecap="round" stroke-linejoin="round"/><polyline points="64.04,28.91 74.73,28.91 74.73,36.55" fill="none" stroke="#111" stroke-width="1.6" stroke-linecap="round" stroke-linejoin="round"/><polyline points="64.04,36.55 74.73,36.55 74.73,51.82" fill="none" stroke="#111" stroke-width="1.6" stroke-linecap="round" stroke-linejoin="round"/><polyline points="64.8,28.91 70.91,26.62 70.91,31.2 64.8,28.91 65.56,28.91 65.56,28.91" fill="none" stroke="#111" stroke-width="1.6" stroke-linecap="round" stroke-linejoin="round"/><circle cx="74.73" cy="21.27" r="0.76" fill="none" stroke="#111" stroke-width="1.6"/><polyline points="74.73,36.55 79.31,36.55 79.31,21.27 74.73,21.27" fill="none" stroke="#111" stroke-width="1.6" stroke-linecap="round" stroke-linejoin="round"/><circle cx="74.73" cy="36.55" r="0.76" fill="none" stroke="#111" stroke-width="1.6"/><polyline points="77.78,26.62 77.02,27.38" fill="none" stroke="#111" stroke-width="1.6" stroke-linecap="round" stroke-linejoin="round"/><polyline points="77.78,26.62 80.84,26.62" fill="none" stroke="#111" stroke-width="1.6" stroke-linecap="round" stroke-linejoin="round"/><polyline points="79.31,27.38 77.78,30.44 80.84,30.44 79.31,27.38" fill="none" stroke="#111" stroke-width="1.6" stroke-linecap="round" stroke-linejoin="round"/><polyline points="80.84,26.62 81.6,25.85" fill="none" stroke="#111" stroke-width="1.6" stroke-linecap="round" stroke-linejoin="round"/></svg>