<svg xmlns="http://www.w3.org/2000/svg" width="96" height="64" viewBox="0 0 96 64"><polyline points="42.4,27.67 40.67,27.67 38.07,23.33 28.53,23.33 28.53,32 38.07,32 40.67,27.67" fill="none" stroke="#111" stroke-width="1.6" stroke-linecap="round" stroke-linejoin="round"/><polyline points="51.85,27.67 51.07,27.67" fill="none" stroke="#111" stroke-width="1.6" stroke-linecap="round" stroke-linejoin="round"/><polyline points="58.43,27.67 58.43,28.97" fill="none" stroke="#111" stroke-width="1.6" stroke-linecap="round" stroke-linejoin="round"/><polyline points="58.43,34.17 58.43,35.47" fill="none" stroke="#111" stroke-width="1.6" stroke-linecap="round" stroke-linejoin="round"/><rect x="6" y="6" width="78" height="52" fill="none" stroke="#111" stroke-width="1.6"/><polyline points="51.07,27.67 42.4,23.33 42.4,32 51.07,27.67" fill="none" stroke="#111" stroke-width="1.6" stroke-linecap="round" stroke-linejoin="round"/><circle cx="52.8" cy="27.67" r="0.87" fill="none" stroke="#111" stroke-width="1.6"/><polyline points="53.49,27.15 55.4,25.5" fill="none" stroke="#111" stroke-width="1.6" stroke-linecap="round" stroke-linejoin="round"/><circle cx="56.27" cy="27.67" r="0.87" fill="none" stroke="#111" stroke-width="1.6"/><polyline points="57.13,27.67 59.73,27.67" fill="none" stroke="#111" stroke-width="1.6" stroke-linecap="round" stroke-linejoin="round"/><polyline points="57.91,32.61 56.27,30.7" fill="none" stroke="#111" stroke-width="1.6" stroke-linecap="round" stroke-linejoin="round"/><circle cx="58.43" cy="29.83" r="0.87" fill="none" stroke="#111" stroke-width="1.6"/><circle cx="58.43" cy="33.3" r="0.87" fill="none" stroke="#111" stroke-width="1.6"/></svg>