<svg xmlns="http://www.w3.org/2000/svg" width="96" height="64" viewBox="0 0 96 64"><rect x="6" y="6" width="44.57" height="52" fill="none" stroke="#111" stroke-width="1.6"/><polyline points="6,9.71 13.43,9.71 13.43,54.29 6,54.29" fill="none" stroke="#111" stroke-width="1.6" stroke-linecap="round" stroke-linejoin="round"/><polyline points="11.57,33.86 15.29,33.86" fill="none" stroke="#111" stroke-width="1.6" stroke-linecap="round" stroke-linejoin="round"/><polyline points="13.43,33.86 11.57,30.14 15.29,30.14 13.43,33.86" fill="none" stroke="#111" stroke-width="1.6" stroke-linecap="round" stroke-linejoin="round"/><polyline points="17.14,30.51 20.86,30.51 19.74,30.89 19.74,30.14 20.86,30.51" fill="none" stroke="#111" stroke-width="1.6" stroke-linecap="round" stroke-linejoin="round"/><polyline points="17.14,33.49 20.86,33.49 19.74,33.86 19.74,33.11 20.86,33.49" fill="none" stroke="#111" stroke-width="1.6" stroke-linecap="round" stroke-linejoin="round"/><polyline points="24.57,30.14 24.57,24.57 28.29,24.57" fill="none" stroke="#111" stroke-width="1.6" stroke-linecap="round" stroke-linejoin="round"/><polyline points="24.57,30.14 26.43,33.86 22.71,33.86 24.57,30.14" fill="none" stroke="#111" stroke-width="1.6" stroke-linecap="round" stroke-linejoin="round"/><polyline points="24.57,33.86 24.57,39.43 28.29,39.43" fill="none" stroke="#111" stroke-width="1.6" stroke-linecap="round" stroke-linejoin="round"/><polyline points="26.43,30.14 22.71,30.14" fill="none" stroke="#111" stroke-width="1.6" stroke-linecap="round" stroke-linejoin="round"/><rect x="30.14" y="9.71" width="0" height="3.72" fill="none" stroke="#111" stroke-width="1.6"/><rect x="30.14" y="13.43" width="0" height="0" fill="none" stroke="#111" stroke-width="1.6"/><polyline points="30.14,50.57 30.14,54.29 50.57,54.29" fill="none" stroke="#111" stroke-width="1.6" stroke-linecap="round" stroke-linejoin="round"/><polyline points="32,13.43 32,50.57 28.29,50.57 28.29,13.43 32,13.43" fill="none" stroke="#111" stroke-width="1.6" stroke-linecap="round" stroke-linejoin="round"/><polyline points="37.2,20.86 32,20.86" fill="none" stroke="#111" stroke-width="1.6" stroke-linecap="round" stroke-linejoin="round"/><polyline points="37.2,43.14 32,43.14" fill="none" stroke="#111" stroke-width="1.6" stroke-linecap="round" stroke-linejoin="round"/><polyline points="37.57,15.29 37.57,26.43 37.57,26.43" fill="none" stroke="#111" stroke-width="1.6" stroke-linecap="round" stroke-linejoin="round"/><polyline points="37.57,19 43.14,13.43" fill="none" stroke="#111" stroke-width="1.6" stroke-linecap="round" stroke-linejoin="round"/><polyline points="37.57,45 43.14,50.57" fill="none" stroke="#111" stroke-width="1.6" stroke-linecap="round" stroke-linejoin="round"/><polyline points="37.57,48.71 37.57,37.57 37.57,37.57" fill="none" stroke="#111" stroke-width="1.6" stroke-linecap="round" stroke-linejoin="round"/><polyline points="39.06,25.69 40.54,24.2 42.03,27.17 39.06,25.69 39.06,25.69" fill="none" stroke="#111" stroke-width="1.6" stroke-linecap="round" stroke-linejoin="round"/><polyline points="42.77,37.57 41.29,36.09 39.8,39.06 42.77,37.57 42.77,37.57" fill="none" stroke="#111" stroke-width="1.6" stroke-linecap="round" stroke-linejoin="round"/><circle cx="43.14" cy="9.71" r="0.74" fill="none" stroke="#111" stroke-width="1.6"/><polyline points="43.14,13.43 43.14,9.71" fill="none" stroke="#111" stroke-width="1.6" stroke-linecap="round" stroke-linejoin="round"/><polyline points="43.14,28.29 37.57,22.71" fill="none" stroke="#111" stroke-width="1.6" stroke-linecap="round" stroke-linejoin="round"/><rect x="43.14" y="28.29" width="0" height="7.42" fill="none" stroke="#111" stroke-width="1.6"/><polyline points="43.14,32 50.57,32" fill="none" stroke="#111" stroke-width="1.6" stroke-linecap="round" stroke-linejoin="round"/><circle cx="43.14" cy="32" r="0.74" fill="none" stroke="#111" stroke-width="1.6"/><polyline points="43.14,35.71 37.57,41.29" fill="none" stroke="#111" stroke-width="1.6" stroke-linecap="round" stroke-linejoin="round"/><polyline points="43.14,50.57 43.14,54.29" fill="none" stroke="#111" stroke-width="1.6" stroke-linecap="round" stroke-linejoin="round"/><circle cx="43.14" cy="54.29" r="0.74" fill="none" stroke="#111" stroke-width="1.6"/><polyline points="50.57,9.71 30.14,9.71" fill="none" stroke="#111" stroke-width="1.6" stroke-linecap="round" stroke-linejoin="round"/></svg>