<svg xmlns="http://www.w3.org/2000/svg" width="96" height="64" viewBox="0 0 96 64"><path d="M 8.26 7.7 Q 9.95 9.39 8.26 11.09" fill="none" stroke="#111" stroke-width="1.6" stroke-linecap="round"/><path d="M 8.26 11.09 Q 9.95 12.78 8.26 14.48" fill="none" stroke="#111" stroke-width="1.6" stroke-linecap="round"/><path d="M 8.26 14.48 Q 9.95 16.17 8.26 17.87" fill="none" stroke="#111" stroke-width="1.6" stroke-linecap="round"/><path d="M 8.26 17.87 Q 9.95 19.57 8.26 21.26" fill="none" stroke="#111" stroke-width="1.6" stroke-linecap="round"/><path d="M 8.26 21.26 Q 9.95 22.96 8.26 24.65" fill="none" stroke="#111" stroke-width="1.6" stroke-linecap="round"/><path d="M 8.26 24.65 Q 9.95 26.35 8.26 28.04" fill="none" stroke="#111" stroke-width="1.6" stroke-linecap="round"/><path d="M 8.26 35.96 Q 9.95 37.65 8.26 39.35" fill="none" stroke="#111" stroke-width="1.6" stroke-linecap="round"/><path d="M 8.26 39.35 Q 9.95 41.04 8.26 42.74" fill="none" stroke="#111" stroke-width="1.6" stroke-linecap="round"/><path d="M 8.26 42.74 Q 9.95 44.43 8.26 46.13" fill="none" stroke="#111" stroke-width="1.6" stroke-linecap="round"/><path d="M 8.26 46.13 Q 9.95 47.83 8.26 49.52" fill="none" stroke="#111" stroke-width="1.6" stroke-linecap="round"/><path d="M 8.26 49.52 Q 9.95 51.22 8.26 52.91" fill="none" stroke="#111" stroke-width="1.6" stroke-linecap="round"/><path d="M 8.26 52.91 Q 9.95 54.61 8.26 56.3" fill="none" stroke="#111" stroke-width="1.6" stroke-linecap="round"/><polyline points="8.26,7.7 8.26,6.57 6,6.57" fill="none" stroke="#111" stroke-width="1.6" stroke-linecap="round" stroke-linejoin="round"/><polyline points="8.26,17.87 6,17.87" fill="none" stroke="#111" stroke-width="1.6" stroke-linecap="round" stroke-linejoin="round"/><polyline points="8.26,28.04 8.26,29.17 6,29.17" fill="none" stroke="#111" stroke-width="1.6" stroke-linecap="round" stroke-linejoin="round"/><polyline points="8.26,35.96 8.26,34.83 6,34.83" fill="none" stroke="#111" stroke-width="1.6" stroke-linecap="round" stroke-linejoin="round"/><polyline points="8.26,46.13 6,46.13" fill="none" stroke="#111" stroke-width="1.6" stroke-linecap="round" stroke-linejoin="round"/><polyline points="8.26,56.3 8.26,57.43 6,57.43" fill="none" stroke="#111" stroke-width="1.6" stroke-linecap="round" stroke-linejoin="round"/><rect x="11.09" y="6" width="1.13" height="52" fill="none" stroke="#111" stroke-width="1.6"/><polyline points="15.04,13.91 15.04,12.22 17.3,12.22" fill="none" stroke="#111" stroke-width="1.6" stroke-linecap="round" stroke-linejoin="round"/><polyline points="15.04,27.48 15.04,29.17 17.3,29.17" fill="none" stroke="#111" stroke-width="1.6" stroke-linecap="round" stroke-linejoin="round"/><polyline points="15.04,36.52 15.04,34.83 17.3,34.83" fill="none" stroke="#111" stroke-width="1.6" stroke-linecap="round" stroke-linejoin="round"/><polyline points="15.04,50.09 15.04,51.78 17.3,51.78" fill="none" stroke="#111" stroke-width="1.6" stroke-linecap="round" stroke-linejoin="round"/><path d="M 15.04 17.3 Q 13.36 15.61 15.04 13.91" fill="none" stroke="#111" stroke-width="1.6" stroke-linecap="round"/><path d="M 15.04 20.7 Q 13.36 19 15.04 17.3" fill="none" stroke="#111" stroke-width="1.6" stroke-linecap="round"/><path d="M 15.04 24.09 Q 13.36 22.39 15.04 20.7" fill="none" stroke="#111" stroke-width="1.6" stroke-linecap="round"/><path d="M 15.04 27.48 Q 13.36 25.78 15.04 24.09" fill="none" stroke="#111" stroke-width="1.6" stroke-linecap="round"/><path d="M 15.04 39.91 Q 13.36 38.22 15.04 36.52" fill="none" stroke="#111" stroke-width="1.6" stroke-linecap="round"/><path d="M 15.04 43.3 Q 13.36 41.61 15.04 39.91" fill="none" stroke="#111" stroke-width="1.6" stroke-linecap="round"/><path d="M 15.04 46.7 Q 13.36 45 15.04 43.3" fill="none" stroke="#111" stroke-width="1.6" stroke-linecap="round"/><path d="M 15.04 50.09 Q 13.36 48.39 15.04 46.7" fill="none" stroke="#111" stroke-width="1.6" stroke-linecap="round"/></svg>