<svg xmlns="http://www.w3.org/2000/svg" width="96" height="64" viewBox="0 0 96 64"><rect x="6" y="6" width="84" height="26.25" fill="none" stroke="#111" stroke-width="1.6"/><circle cx="11.25" cy="9.67" r="1.05" fill="none" stroke="#111" stroke-width="1.6"/><polyline points="11.25,9.67 84.75,9.67" fill="none" stroke="#111" stroke-width="1.6" stroke-linecap="round" stroke-linejoin="round"/><polyline points="11.25,9.67 11.25,12.82 14.4,14.29 8.1,17.02 14.4,19.75 8.1,22.59 14.4,25.42 8.1,28.15 11.25,29.62 11.25,34.88" fill="none" stroke="#111" stroke-width="1.6" stroke-linecap="round" stroke-linejoin="round"/><circle cx="21.75" cy="9.67" r="1.05" fill="none" stroke="#111" stroke-width="1.6"/><polyline points="21.75,9.67 21.75,12.82 24.9,14.29 18.6,17.02 24.9,19.75 18.6,22.59 24.9,25.42 18.6,28.15 21.75,29.62 21.75,34.88" fill="none" stroke="#111" stroke-width="1.6" stroke-linecap="round" stroke-linejoin="round"/><circle cx="32.25" cy="9.67" r="1.05" fill="none" stroke="#111" stroke-width="1.6"/><polyline points="32.25,9.67 32.25,12.82 35.4,14.29 29.1,17.02 35.4,19.75 29.1,22.59 35.4,25.42 29.1,28.15 32.25,29.62 32.25,34.88" fill="none" stroke="#111" stroke-width="1.6" stroke-linecap="round" stroke-linejoin="round"/><circle cx="42.75" cy="9.67" r="1.05" fill="none" stroke="#111" stroke-width="1.6"/><polyline points="42.75,9.67 42.75,12.82 45.9,14.29 39.6,17.02 45.9,19.75 39.6,22.59 45.9,25.42 39.6,28.15 42.75,29.62 42.75,34.88" fill="none" stroke="#111" stroke-width="1.6" stroke-linecap="round" stroke-linejoin="round"/><circle cx="53.25" cy="9.67" r="1.05" fill="none" stroke="#111" stroke-width="1.6"/><polyline points="53.25,9.67 53.25,12.82 56.4,14.29 50.1,17.02 56.4,19.75 50.1,22.59 56.4,25.42 50.1,28.15 53.25,29.62 53.25,34.88" fill="none" stroke="#111" stroke-width="1.6" stroke-linecap="round" stroke-linejoin="round"/><polyline points="63.75,9.67 63.75,12.82 66.9,14.29 60.6,17.02 66.9,19.75 60.6,22.59 66.9,25.42 60.6,28.15 63.75,29.62 63.75,34.88" fill="none" stroke="#111" stroke-width="1.6" stroke-linecap="round" stroke-linejoin="round"/><circle cx="63.75" cy="9.67" r="1.05" fill="none" stroke="#111" stroke-width="1.6"/><polyline points="74.25,9.67 74.25,12.82 77.4,14.29 71.1,17.02 77.4,19.75 71.1,22.59 77.4,25.42 71.1,28.15 74.25,29.62 74.25,34.88" fill="none" stroke="#111" stroke-width="1.6" stroke-linecap="round" stroke-linejoin="round"/><circle cx="74.25" cy="9.67" r="1.05" fill="none" stroke="#111" stroke-width="1.6"/><polyline points="84.75,9.67 84.75,12.82 87.9,14.29 81.6,17.02 87.9,19.75 81.6,22.59 87.9,25.42 81.6,28.15 84.75,29.62 84.75,34.88" fill="none" stroke="#111" stroke-width="1.6" stroke-linecap="round" stroke-linejoin="round"/></svg>