<svg xmlns="http://www.w3.org/2000/svg" width="96" height="64" viewBox="0 0 96 64"><rect x="6" y="6.38" width="84" height="14.51" fill="none" stroke="#111" stroke-width="1.6"/><rect x="7.91" y="7.91" width="3.82" height="11.45" fill="none" stroke="#111" stroke-width="1.6"/><polyline points="9.82,7.91 9.82,6" fill="none" stroke="#111" stroke-width="1.6" stroke-linecap="round" stroke-linejoin="round"/><polyline points="9.82,21.27 9.82,19.36" fill="none" stroke="#111" stroke-width="1.6" stroke-linecap="round" stroke-linejoin="round"/><rect x="15.55" y="7.91" width="3.81" height="11.45" fill="none" stroke="#111" stroke-width="1.6"/><polyline points="17.45,7.91 17.45,6" fill="none" stroke="#111" stroke-width="1.6" stroke-linecap="round" stroke-linejoin="round"/><polyline points="17.45,21.27 17.45,19.36" fill="none" stroke="#111" stroke-width="1.6" stroke-linecap="round" stroke-linejoin="round"/><rect x="23.18" y="7.91" width="3.82" height="11.45" fill="none" stroke="#111" stroke-width="1.6"/><polyline points="25.09,7.91 25.09,6" fill="none" stroke="#111" stroke-width="1.6" stroke-linecap="round" stroke-linejoin="round"/><polyline points="25.09,21.27 25.09,19.36" fill="none" stroke="#111" stroke-width="1.6" stroke-linecap="round" stroke-linejoin="round"/><rect x="30.82" y="7.91" width="3.82" height="11.45" fill="none" stroke="#111" stroke-width="1.6"/><polyline points="32.73,7.91 32.73,6" fill="none" stroke="#111" stroke-width="1.6" stroke-linecap="round" stroke-linejoin="round"/><polyline points="32.73,21.27 32.73,19.36" fill="none" stroke="#111" stroke-width="1.6" stroke-linecap="round" stroke-linejoin="round"/><rect x="38.45" y="7.91" width="3.82" height="11.45" fill="none" stroke="#111" stroke-width="1.6"/><polyline points="40.36,7.91 40.36,6" fill="none" stroke="#111" stroke-width="1.6" stroke-linecap="round" stroke-linejoin="round"/><polyline points="40.36,21.27 40.36,19.36" fill="none" stroke="#111" stroke-width="1.6" stroke-linecap="round" stroke-linejoin="round"/><rect x="46.09" y="7.91" width="3.82" height="11.45" fill="none" stroke="#111" stroke-width="1.6"/><polyline points="48,7.91 48,6" fill="none" stroke="#111" stroke-width="1.6" stroke-linecap="round" stroke-linejoin="round"/><polyline points="48,21.27 48,19.36" fill="none" stroke="#111" stroke-width="1.6" stroke-linecap="round" stroke-linejoin="round"/><rect x="53.73" y="7.91" width="3.82" height="11.45" fill="none" stroke="#111" stroke-width="1.6"/><polyline points="55.64,7.91 55.64,6" fill="none" stroke="#111" stroke-width="1.6" stroke-linecap="round" stroke-linejoin="round"/><polyline points="55.64,21.27 55.64,19.36" fill="none" stroke="#111" stroke-width="1.6" stroke-linecap="round" stroke-linejoin="round"/><rect x="61.36" y="7.91" width="3.82" height="11.45" fill="none" stroke="#111" stroke-width="1.6"/><polyline points="63.27,7.91 63.27,6" fill="none" stroke="#111" stroke-width="1.6" stroke-linecap="round" stroke-linejoin="round"/><polyline points="63.27,21.27 63.27,19.36" fill="none" stroke="#111" stroke-width="1.6" stroke-linecap="round" stroke-linejoin="round"/><rect x="69" y="7.91" width="3.82" height="11.45" fill="none" stroke="#111" stroke-width="1.6"/><polyline points="70.91,7.91 70.91,6" fill="none" stroke="#111" stroke-width="1.6" stroke-linecap="round" stroke-linejoin="round"/><polyline points="70.91,21.27 70.91,19.36" fill="none" stroke="#111" stroke-width="1.6" stroke-linecap="round" stroke-linejoin="round"/><rect x="76.64" y="7.91" width="3.81" height="11.45" fill="none" stroke="#111" stroke-width="1.6"/><polyline points="78.55,7.91 78.55,6" fill="none" stroke="#111" stroke-width="1.6" stroke-linecap="round" stroke-linejoin="round"/><polyline points="78.55,21.27 78.55,19.36" fill="none" stroke="#111" stroke-width="1.6" stroke-linecap="round" stroke-linejoin="round"/><rect x="84.27" y="7.91" width="3.82" height="11.45" fill="none" stroke="#111" stroke-width="1.6"/><polyline points="86.18,7.91 86.18,6" fill="none" stroke="#111" stroke-width="1.6" stroke-linecap="round" stroke-linejoin="round"/><polyline points="86.18,21.27 86.18,19.36" fill="none" stroke="#111" stroke-width="1.6" stroke-linecap="round" stroke-linejoin="round"/></svg>