<svg xmlns="http://www.w3.org/2000/svg" width="96" height="64" viewBox="0 0 96 64"><rect x="6" y="6" width="84" height="16.15" fill="none" stroke="#111" stroke-width="1.6"/><circle cx="9.23" cy="8.26" r="0.65" fill="none" stroke="#111" stroke-width="1.6"/><polyline points="9.23,8.26 86.77,8.26" fill="none" stroke="#111" stroke-width="1.6" stroke-linecap="round" stroke-linejoin="round"/><polyline points="9.23,8.26 9.23,10.2 11.17,11.1 7.29,12.78 11.17,14.46 7.29,16.21 11.17,17.95 7.29,19.63 9.23,20.54 9.23,23.77" fill="none" stroke="#111" stroke-width="1.6" stroke-linecap="round" stroke-linejoin="round"/><circle cx="15.69" cy="8.26" r="0.65" fill="none" stroke="#111" stroke-width="1.6"/><polyline points="15.69,8.26 15.69,10.2 17.63,11.1 13.75,12.78 17.63,14.46 13.75,16.21 17.63,17.95 13.75,19.63 15.69,20.54 15.69,23.77" fill="none" stroke="#111" stroke-width="1.6" stroke-linecap="round" stroke-linejoin="round"/><circle cx="22.15" cy="8.26" r="0.65" fill="none" stroke="#111" stroke-width="1.6"/><polyline points="22.15,8.26 22.15,10.2 24.09,11.1 20.22,12.78 24.09,14.46 20.22,16.21 24.09,17.95 20.22,19.63 22.15,20.54 22.15,23.77" fill="none" stroke="#111" stroke-width="1.6" stroke-linecap="round" stroke-linejoin="round"/><circle cx="28.62" cy="8.26" r="0.65" fill="none" stroke="#111" stroke-width="1.6"/><polyline points="28.62,8.26 28.62,10.2 30.55,11.1 26.68,12.78 30.55,14.46 26.68,16.21 30.55,17.95 26.68,19.63 28.62,20.54 28.62,23.77" fill="none" stroke="#111" stroke-width="1.6" stroke-linecap="round" stroke-linejoin="round"/><circle cx="35.08" cy="8.26" r="0.65" fill="none" stroke="#111" stroke-width="1.6"/><polyline points="35.08,8.26 35.08,10.2 37.02,11.1 33.14,12.78 37.02,14.46 33.14,16.21 37.02,17.95 33.14,19.63 35.08,20.54 35.08,23.77" fill="none" stroke="#111" stroke-width="1.6" stroke-linecap="round" stroke-linejoin="round"/><circle cx="41.54" cy="8.26" r="0.65" fill="none" stroke="#111" stroke-width="1.6"/><polyline points="41.54,8.26 41.54,10.2 43.48,11.1 39.6,12.78 43.48,14.46 39.6,16.21 43.48,17.95 39.6,19.63 41.54,20.54 41.54,23.77" fill="none" stroke="#111" stroke-width="1.6" stroke-linecap="round" stroke-linejoin="round"/><circle cx="48" cy="8.26" r="0.65" fill="none" stroke="#111" stroke-width="1.6"/><polyline points="48,8.26 48,10.2 49.94,11.1 46.06,12.78 49.94,14.46 46.06,16.21 49.94,17.95 46.06,19.63 48,20.54 48,23.77" fill="none" stroke="#111" stroke-width="1.6" stroke-linecap="round" stroke-linejoin="round"/><polyline points="54.46,8.26 54.46,10.2 56.4,11.1 52.52,12.78 56.4,14.46 52.52,16.21 56.4,17.95 52.52,19.63 54.46,20.54 54.46,23.77" fill="none" stroke="#111" stroke-width="1.6" stroke-linecap="round" stroke-linejoin="round"/><circle cx="54.46" cy="8.26" r="0.65" fill="none" stroke="#111" stroke-width="1.6"/><polyline points="60.92,8.26 60.92,10.2 62.86,11.1 58.98,12.78 62.86,14.46 58.98,16.21 62.86,17.95 58.98,19.63 60.92,20.54 60.92,23.77" fill="none" stroke="#111" stroke-width="1.6" stroke-linecap="round" stroke-linejoin="round"/><circle cx="60.92" cy="8.26" r="0.65" fill="none" stroke="#111" stroke-width="1.6"/><polyline points="67.38,8.26 67.38,10.2 69.32,11.1 65.45,12.78 69.32,14.46 65.45,16.21 69.32,17.95 65.45,19.63 67.38,20.54 67.38,23.77" fill="none" stroke="#111" stroke-width="1.6" stroke-linecap="round" stroke-linejoin="round"/><circle cx="67.38" cy="8.26" r="0.65" fill="none" stroke="#111" stroke-width="1.6"/><polyline points="73.85,8.26 73.85,10.2 75.78,11.1 71.91,12.78 75.78,14.46 71.91,16.21 75.78,17.95 71.91,19.63 73.85,20.54 73.85,23.77" fill="none" stroke="#111" stroke-width="1.6" stroke-linecap="round" stroke-linejoin="round"/><circle cx="73.85" cy="8.26" r="0.65" fill="none" stroke="#111" stroke-width="1.6"/><polyline points="80.31,8.26 80.31,10.2 82.25,11.1 78.37,12.78 82.25,14.46 78.37,16.21 82.25,17.95 78.37,19.63 80.31,20.54 80.31,23.77" fill="none" stroke="#111" stroke-width="1.6" stroke-linecap="round" stroke-linejoin="round"/><circle cx="80.31" cy="8.26" r="0.65" fill="none" stroke="#111" stroke-width="1.6"/><polyline points="86.77,8.26 86.77,10.2 88.71,11.1 84.83,12.78 88.71,14.46 84.83,16.21 88.71,17.95 84.83,19.63 86.77,20.54 86.77,23.77" fill="none" stroke="#111" stroke-width="1.6" stroke-linecap="round" stroke-linejoin="round"/></svg>