<svg xmlns="http://www.w3.org/2000/svg" width="96" height="64" viewBox="0 0 96 64"><polyline points="26.22,23.33 24.78,23.33 24.78,14.67 23.33,14.67" fill="none" stroke="#111" stroke-width="1.6" stroke-linecap="round" stroke-linejoin="round"/><polyline points="26.22,23.33 24.78,23.33 24.78,14.67 23.33,14.67" fill="none" stroke="#111" stroke-width="1.6" stroke-linecap="round" stroke-linejoin="round"/><polyline points="26.22,29.11 24.78,29.11 24.78,32 23.33,32" fill="none" stroke="#111" stroke-width="1.6" stroke-linecap="round" stroke-linejoin="round"/><polyline points="26.22,29.11 24.78,29.11 24.78,32 23.33,32" fill="none" stroke="#111" stroke-width="1.6" stroke-linecap="round" stroke-linejoin="round"/><polyline points="26.22,42.11 24.78,42.11 24.78,49.33 23.33,49.33" fill="none" stroke="#111" stroke-width="1.6" stroke-linecap="round" stroke-linejoin="round"/><polyline points="26.22,42.11 24.78,42.11 24.78,49.33 23.33,49.33" fill="none" stroke="#111" stroke-width="1.6" stroke-linecap="round" stroke-linejoin="round"/><polyline points="37.78,32 36.33,32 36.33,26.22 34.89,26.22" fill="none" stroke="#111" stroke-width="1.6" stroke-linecap="round" stroke-linejoin="round"/><polyline points="37.78,32 36.33,32 36.33,26.22 34.89,26.22" fill="none" stroke="#111" stroke-width="1.6" stroke-linecap="round" stroke-linejoin="round"/><polyline points="37.78,37.78 36.33,37.78 36.33,42.11 34.89,42.11" fill="none" stroke="#111" stroke-width="1.6" stroke-linecap="round" stroke-linejoin="round"/><polyline points="37.78,37.78 36.33,37.78 36.33,42.11 34.89,42.11" fill="none" stroke="#111" stroke-width="1.6" stroke-linecap="round" stroke-linejoin="round"/><rect x="6" y="6" width="46.22" height="52" fill="none" stroke="#111" stroke-width="1.6"/><polyline points="13.22,29.11 14.67,29.11" fill="none" stroke="#111" stroke-width="1.6" stroke-linecap="round" stroke-linejoin="round"/><polyline points="13.22,34.89 14.67,34.89" fill="none" stroke="#111" stroke-width="1.6" stroke-linecap="round" stroke-linejoin="round"/><polyline points="13.22,46.44 14.67,46.44" fill="none" stroke="#111" stroke-width="1.6" stroke-linecap="round" stroke-linejoin="round"/><polyline points="13.22,52.22 14.67,52.22" fill="none" stroke="#111" stroke-width="1.6" stroke-linecap="round" stroke-linejoin="round"/><polyline points="13.51,11.78 14.96,11.78" fill="none" stroke="#111" stroke-width="1.6" stroke-linecap="round" stroke-linejoin="round"/><polyline points="13.51,17.56 14.96,17.56" fill="none" stroke="#111" stroke-width="1.6" stroke-linecap="round" stroke-linejoin="round"/><polyline points="14.67,27.67 14.67,36.33 23.33,32 14.67,27.67" fill="none" stroke="#111" stroke-width="1.6" stroke-linecap="round" stroke-linejoin="round"/><polyline points="14.67,45 14.67,53.67 23.33,49.33 14.67,45" fill="none" stroke="#111" stroke-width="1.6" stroke-linecap="round" stroke-linejoin="round"/><polyline points="14.96,10.33 14.96,19 23.62,14.67 14.96,10.33" fill="none" stroke="#111" stroke-width="1.6" stroke-linecap="round" stroke-linejoin="round"/><rect x="26.22" y="17.56" width="8.67" height="17.33" fill="none" stroke="#111" stroke-width="1.6"/><rect x="26.22" y="37.78" width="8.67" height="8.66" fill="none" stroke="#111" stroke-width="1.6"/><polyline points="37.78,30.56 37.78,39.22 45.29,34.89 37.78,30.56" fill="none" stroke="#111" stroke-width="1.6" stroke-linecap="round" stroke-linejoin="round"/></svg>