<svg xmlns="http://www.w3.org/2000/svg" width="96" height="64" viewBox="0 0 96 64"><polyline points="6,49.61 6,58 37.87,58 37.87,49.61" fill="none" stroke="#111" stroke-width="1.6" stroke-linecap="round" stroke-linejoin="round"/><circle cx="9.35" cy="24.45" r="1.17" fill="none" stroke="#111" stroke-width="1.6"/><circle cx="9.35" cy="32.84" r="1.17" fill="none" stroke="#111" stroke-width="1.6"/><circle cx="9.35" cy="41.23" r="1.17" fill="none" stroke="#111" stroke-width="1.6"/><polyline points="9.35,41.23 34.52,41.23" fill="none" stroke="#111" stroke-width="1.6" stroke-linecap="round" stroke-linejoin="round"/><polyline points="9.35,51.29 9.35,9.35 34.52,9.35 34.52,51.29 9.35,51.29" fill="none" stroke="#111" stroke-width="1.6" stroke-linecap="round" stroke-linejoin="round"/><polyline points="11.87,28.65 11.87,20.26" fill="none" stroke="#111" stroke-width="1.6" stroke-linecap="round" stroke-linejoin="round"/><polyline points="11.87,45.42 11.87,37.03" fill="none" stroke="#111" stroke-width="1.6" stroke-linecap="round" stroke-linejoin="round"/><polyline points="13.13,19.84 18.16,14.81 15.65,14.81 18.16,14.81 18.16,17.32" fill="none" stroke="#111" stroke-width="1.6" stroke-linecap="round" stroke-linejoin="round"/><polyline points="13.13,36.61 18.16,31.58 15.65,31.58 18.16,31.58 18.16,34.1" fill="none" stroke="#111" stroke-width="1.6" stroke-linecap="round" stroke-linejoin="round"/><polyline points="17.32,19.84 22.35,14.81 19.84,14.81 22.35,14.81 22.35,17.32" fill="none" stroke="#111" stroke-width="1.6" stroke-linecap="round" stroke-linejoin="round"/><polyline points="17.32,36.61 22.35,31.58 19.84,31.58 22.35,31.58 22.35,34.1" fill="none" stroke="#111" stroke-width="1.6" stroke-linecap="round" stroke-linejoin="round"/><polyline points="17.74,11.87 17.74,6.84 22.77,9.35 17.74,11.87 17.74,11.03" fill="none" stroke="#111" stroke-width="1.6" stroke-linecap="round" stroke-linejoin="round"/><polyline points="19,53.81 19,48.77 24.03,51.29 19,53.81 19,52.97" fill="none" stroke="#111" stroke-width="1.6" stroke-linecap="round" stroke-linejoin="round"/><polyline points="20.26,28.65 20.26,20.26 11.87,24.45 20.26,28.65" fill="none" stroke="#111" stroke-width="1.6" stroke-linecap="round" stroke-linejoin="round"/><polyline points="20.26,45.42 20.26,37.03 11.87,41.23 20.26,45.42" fill="none" stroke="#111" stroke-width="1.6" stroke-linecap="round" stroke-linejoin="round"/><polyline points="21.52,28.65 21.52,20.26" fill="none" stroke="#111" stroke-width="1.6" stroke-linecap="round" stroke-linejoin="round"/><polyline points="21.94,45.42 21.94,37.03" fill="none" stroke="#111" stroke-width="1.6" stroke-linecap="round" stroke-linejoin="round"/><polyline points="22.77,19.84 27.81,14.81 25.29,14.81 27.81,14.81 27.81,17.32" fill="none" stroke="#111" stroke-width="1.6" stroke-linecap="round" stroke-linejoin="round"/><polyline points="23.19,36.61 28.23,31.58 25.71,31.58 28.23,31.58 28.23,34.1" fill="none" stroke="#111" stroke-width="1.6" stroke-linecap="round" stroke-linejoin="round"/><polyline points="23.61,12.71 22.77,11.87 22.77,6.84 21.94,6" fill="none" stroke="#111" stroke-width="1.6" stroke-linecap="round" stroke-linejoin="round"/><polyline points="24.87,54.65 24.03,53.81 24.03,48.77 23.19,47.94" fill="none" stroke="#111" stroke-width="1.6" stroke-linecap="round" stroke-linejoin="round"/><polyline points="26.97,19.84 32,14.81 29.48,14.81 32,14.81 32,17.32" fill="none" stroke="#111" stroke-width="1.6" stroke-linecap="round" stroke-linejoin="round"/><polyline points="27.39,36.61 32.42,31.58 29.9,31.58 32.42,31.58 32.42,34.1" fill="none" stroke="#111" stroke-width="1.6" stroke-linecap="round" stroke-linejoin="round"/><polyline points="29.9,28.65 29.9,20.26 21.52,24.45 29.9,28.65" fill="none" stroke="#111" stroke-width="1.6" stroke-linecap="round" stroke-linejoin="round"/><polyline points="30.32,45.42 30.32,37.03 21.94,41.23 30.32,45.42" fill="none" stroke="#111" stroke-width="1.6" stroke-linecap="round" stroke-linejoin="round"/><polyline points="34.52,24.45 9.35,24.45" fill="none" stroke="#111" stroke-width="1.6" stroke-linecap="round" stroke-linejoin="round"/><circle cx="34.52" cy="24.45" r="1.17" fill="none" stroke="#111" stroke-width="1.6"/><circle cx="34.52" cy="32.84" r="1.17" fill="none" stroke="#111" stroke-width="1.6"/><circle cx="34.52" cy="41.23" r="1.17" fill="none" stroke="#111" stroke-width="1.6"/></svg>