<svg xmlns="http://www.w3.org/2000/svg" width="96" height="64" viewBox="0 0 96 64"><rect x="6" y="6" width="52" height="52" fill="none" stroke="#111" stroke-width="1.6"/><polyline points="6,32 15.75,32" fill="none" stroke="#111" stroke-width="1.6" stroke-linecap="round" stroke-linejoin="round"/><polyline points="12.5,19 19,19" fill="none" stroke="#111" stroke-width="1.6" stroke-linecap="round" stroke-linejoin="round"/><polyline points="12.5,38.5 19,38.5" fill="none" stroke="#111" stroke-width="1.6" stroke-linecap="round" stroke-linejoin="round"/><rect x="15.75" y="12.5" width="32.5" height="39" fill="none" stroke="#111" stroke-width="1.6"/><circle cx="15.75" cy="32" r="1.43" fill="none" stroke="#111" stroke-width="1.6"/><polyline points="19,25.5 12.5,25.5 15.75,19 19,25.5" fill="none" stroke="#111" stroke-width="1.6" stroke-linecap="round" stroke-linejoin="round"/><polyline points="19,45 12.5,45 15.75,38.5 19,45" fill="none" stroke="#111" stroke-width="1.6" stroke-linecap="round" stroke-linejoin="round"/><circle cx="32" cy="12.5" r="1.43" fill="none" stroke="#111" stroke-width="1.6"/><polyline points="32,12.5 32,58" fill="none" stroke="#111" stroke-width="1.6" stroke-linecap="round" stroke-linejoin="round"/><circle cx="32" cy="51.5" r="1.43" fill="none" stroke="#111" stroke-width="1.6"/><polyline points="35.25,34.6 28.75,34.6 32,28.1 35.25,34.6" fill="none" stroke="#111" stroke-width="1.6" stroke-linecap="round" stroke-linejoin="round"/><polyline points="35.9,28.1 28.1,28.1 28.1,29.4" fill="none" stroke="#111" stroke-width="1.6" stroke-linecap="round" stroke-linejoin="round"/><polyline points="45,19 51.5,19" fill="none" stroke="#111" stroke-width="1.6" stroke-linecap="round" stroke-linejoin="round"/><polyline points="45,38.5 51.5,38.5" fill="none" stroke="#111" stroke-width="1.6" stroke-linecap="round" stroke-linejoin="round"/><circle cx="48.25" cy="32" r="1.43" fill="none" stroke="#111" stroke-width="1.6"/><polyline points="51.5,25.5 45,25.5 48.25,19 51.5,25.5" fill="none" stroke="#111" stroke-width="1.6" stroke-linecap="round" stroke-linejoin="round"/><polyline points="51.5,45 45,45 48.25,38.5 51.5,45" fill="none" stroke="#111" stroke-width="1.6" stroke-linecap="round" stroke-linejoin="round"/><polyline points="58,32 48.25,32" fill="none" stroke="#111" stroke-width="1.6" stroke-linecap="round" stroke-linejoin="round"/></svg>