<svg xmlns="http://www.w3.org/2000/svg" width="96" height="64" viewBox="0 0 96 64"><path d="M 6 49.11 Q 8.18 50.8 8.22 53.56" fill="none" stroke="#111" stroke-width="1.6" stroke-linecap="round"/><path d="M 8.22 42.44 Q 9.52 39.3 12.67 38" fill="none" stroke="#111" stroke-width="1.6" stroke-linecap="round"/><path d="M 12.67 38 Q 15.81 39.3 17.11 42.44" fill="none" stroke="#111" stroke-width="1.6" stroke-linecap="round"/><path d="M 12.67 46.89 Q 9.52 45.59 8.22 42.44" fill="none" stroke="#111" stroke-width="1.6" stroke-linecap="round"/><path d="M 12.67 58 Q 9.52 56.7 8.22 53.56" fill="none" stroke="#111" stroke-width="1.6" stroke-linecap="round"/><path d="M 17.11 53.56 Q 15.81 56.7 12.67 58" fill="none" stroke="#111" stroke-width="1.6" stroke-linecap="round"/><path d="M 23.78 42.44 Q 18.97 46.52 12.67 46.89" fill="none" stroke="#111" stroke-width="1.6" stroke-linecap="round"/><polyline points="17.11,53.11 17.11,42.44" fill="none" stroke="#111" stroke-width="1.6" stroke-linecap="round" stroke-linejoin="round"/><polyline points="29.56,6 29.56,50.44" fill="none" stroke="#111" stroke-width="1.6" stroke-linecap="round" stroke-linejoin="round"/><polyline points="74,28.22 29.56,28.22" fill="none" stroke="#111" stroke-width="1.6" stroke-linecap="round" stroke-linejoin="round"/><polyline points="74,50.44 74,6 29.56,28.22 74,50.44" fill="none" stroke="#111" stroke-width="1.6" stroke-linecap="round" stroke-linejoin="round"/></svg>