<svg xmlns="http://www.w3.org/2000/svg" width="96" height="64" viewBox="0 0 96 64"><polyline points="6,6.35 6.53,6.35" fill="none" stroke="#111" stroke-width="1.6" stroke-linecap="round" stroke-linejoin="round"/><polyline points="6,8.12 6.53,8.12" fill="none" stroke="#111" stroke-width="1.6" stroke-linecap="round" stroke-linejoin="round"/><polyline points="6,9.89 6.53,9.89" fill="none" stroke="#111" stroke-width="1.6" stroke-linecap="round" stroke-linejoin="round"/><polyline points="6,11.66 6.53,11.66" fill="none" stroke="#111" stroke-width="1.6" stroke-linecap="round" stroke-linejoin="round"/><polyline points="6,13.43 6.53,13.43" fill="none" stroke="#111" stroke-width="1.6" stroke-linecap="round" stroke-linejoin="round"/><polyline points="6,15.2 6.53,15.2" fill="none" stroke="#111" stroke-width="1.6" stroke-linecap="round" stroke-linejoin="round"/><polyline points="6,16.97 6.53,16.97" fill="none" stroke="#111" stroke-width="1.6" stroke-linecap="round" stroke-linejoin="round"/><polyline points="6,18.73 6.53,18.73" fill="none" stroke="#111" stroke-width="1.6" stroke-linecap="round" stroke-linejoin="round"/><polyline points="6,20.5 6.53,20.5" fill="none" stroke="#111" stroke-width="1.6" stroke-linecap="round" stroke-linejoin="round"/><polyline points="6,22.27 6.53,22.27" fill="none" stroke="#111" stroke-width="1.6" stroke-linecap="round" stroke-linejoin="round"/><polyline points="6,24.04 6.53,24.04" fill="none" stroke="#111" stroke-width="1.6" stroke-linecap="round" stroke-linejoin="round"/><polyline points="6,25.81 6.53,25.81" fill="none" stroke="#111" stroke-width="1.6" stroke-linecap="round" stroke-linejoin="round"/><polyline points="6,27.58 6.53,27.58" fill="none" stroke="#111" stroke-width="1.6" stroke-linecap="round" stroke-linejoin="round"/><polyline points="6,29.35 6.53,29.35" fill="none" stroke="#111" stroke-width="1.6" stroke-linecap="round" stroke-linejoin="round"/><polyline points="6,31.12 6.53,31.12" fill="none" stroke="#111" stroke-width="1.6" stroke-linecap="round" stroke-linejoin="round"/><polyline points="6,32.88 6.53,32.88" fill="none" stroke="#111" stroke-width="1.6" stroke-linecap="round" stroke-linejoin="round"/><polyline points="6,34.65 6.53,34.65" fill="none" stroke="#111" stroke-width="1.6" stroke-linecap="round" stroke-linejoin="round"/><polyline points="6,36.42 6.53,36.42" fill="none" stroke="#111" stroke-width="1.6" stroke-linecap="round" stroke-linejoin="round"/><polyline points="6,38.19 6.53,38.19" fill="none" stroke="#111" stroke-width="1.6" stroke-linecap="round" stroke-linejoin="round"/><polyline points="6,39.96 6.53,39.96" fill="none" stroke="#111" stroke-width="1.6" stroke-linecap="round" stroke-linejoin="round"/><polyline points="6,41.73 6.53,41.73" fill="none" stroke="#111" stroke-width="1.6" stroke-linecap="round" stroke-linejoin="round"/><polyline points="6,43.5 6.53,43.5" fill="none" stroke="#111" stroke-width="1.6" stroke-linecap="round" stroke-linejoin="round"/><polyline points="6,45.27 6.53,45.27" fill="none" stroke="#111" stroke-width="1.6" stroke-linecap="round" stroke-linejoin="round"/><polyline points="6,47.03 6.53,47.03" fill="none" stroke="#111" stroke-width="1.6" stroke-linecap="round" stroke-linejoin="round"/><polyline points="6,48.8 6.53,48.8" fill="none" stroke="#111" stroke-width="1.6" stroke-linecap="round" stroke-linejoin="round"/><polyline points="6,50.57 6.53,50.57" fill="none" stroke="#111" stroke-width="1.6" stroke-linecap="round" stroke-linejoin="round"/><polyline points="6,52.34 6.53,52.34" fill="none" stroke="#111" stroke-width="1.6" stroke-linecap="round" stroke-linejoin="round"/><polyline points="6,54.11 6.53,54.11" fill="none" stroke="#111" stroke-width="1.6" stroke-linecap="round" stroke-linejoin="round"/><polyline points="6,55.88 6.53,55.88" fill="none" stroke="#111" stroke-width="1.6" stroke-linecap="round" stroke-linejoin="round"/><polyline points="6,57.65 6.53,57.65" fill="none" stroke="#111" stroke-width="1.6" stroke-linecap="round" stroke-linejoin="round"/><path d="M 6.88 6.71 Q 6.53 6.35 6.88 6" fill="none" stroke="#111" stroke-width="1.6" stroke-linecap="round"/><path d="M 6.88 8.48 Q 6.53 8.12 6.88 7.77" fill="none" stroke="#111" stroke-width="1.6" stroke-linecap="round"/><path d="M 6.88 10.24 Q 6.53 9.89 6.88 9.54" fill="none" stroke="#111" stroke-width="1.6" stroke-linecap="round"/><path d="M 6.88 12.01 Q 6.53 11.66 6.88 11.31" fill="none" stroke="#111" stroke-width="1.6" stroke-linecap="round"/><path d="M 6.88 13.78 Q 6.53 13.43 6.88 13.07" fill="none" stroke="#111" stroke-width="1.6" stroke-linecap="round"/><path d="M 6.88 15.55 Q 6.53 15.2 6.88 14.84" fill="none" stroke="#111" stroke-width="1.6" stroke-linecap="round"/><path d="M 6.88 17.32 Q 6.53 16.97 6.88 16.61" fill="none" stroke="#111" stroke-width="1.6" stroke-linecap="round"/><path d="M 6.88 19.09 Q 6.53 18.73 6.88 18.38" fill="none" stroke="#111" stroke-width="1.6" stroke-linecap="round"/><path d="M 6.88 20.86 Q 6.53 20.5 6.88 20.15" fill="none" stroke="#111" stroke-width="1.6" stroke-linecap="round"/><path d="M 6.88 22.63 Q 6.53 22.27 6.88 21.92" fill="none" stroke="#111" stroke-width="1.6" stroke-linecap="round"/><path d="M 6.88 24.39 Q 6.53 24.04 6.88 23.69" fill="none" stroke="#111" stroke-width="1.6" stroke-linecap="round"/><path d="M 6.88 26.16 Q 6.53 25.81 6.88 25.46" fill="none" stroke="#111" stroke-width="1.6" stroke-linecap="round"/><path d="M 6.88 27.93 Q 6.53 27.58 6.88 27.22" fill="none" stroke="#111" stroke-width="1.6" stroke-linecap="round"/><path d="M 6.88 29.7 Q 6.53 29.35 6.88 28.99" fill="none" stroke="#111" stroke-width="1.6" stroke-linecap="round"/><path d="M 6.88 31.47 Q 6.53 31.12 6.88 30.76" fill="none" stroke="#111" stroke-width="1.6" stroke-linecap="round"/><path d="M 6.88 33.24 Q 6.53 32.88 6.88 32.53" fill="none" stroke="#111" stroke-width="1.6" stroke-linecap="round"/><path d="M 6.88 35.01 Q 6.53 34.65 6.88 34.3" fill="none" stroke="#111" stroke-width="1.6" stroke-linecap="round"/><path d="M 6.88 36.78 Q 6.53 36.42 6.88 36.07" fill="none" stroke="#111" stroke-width="1.6" stroke-linecap="round"/><path d="M 6.88 38.54 Q 6.53 38.19 6.88 37.84" fill="none" stroke="#111" stroke-width="1.6" stroke-linecap="round"/><path d="M 6.88 40.31 Q 6.53 39.96 6.88 39.61" fill="none" stroke="#111" stroke-width="1.6" stroke-linecap="round"/><path d="M 6.88 42.08 Q 6.53 41.73 6.88 41.37" fill="none" stroke="#111" stroke-width="1.6" stroke-linecap="round"/><path d="M 6.88 43.85 Q 6.53 43.5 6.88 43.14" fill="none" stroke="#111" stroke-width="1.6" stroke-linecap="round"/><path d="M 6.88 45.62 Q 6.53 45.27 6.88 44.91" fill="none" stroke="#111" stroke-width="1.6" stroke-linecap="round"/><path d="M 6.88 47.39 Q 6.53 47.03 6.88 46.68" fill="none" stroke="#111" stroke-width="1.6" stroke-linecap="round"/><path d="M 6.88 49.16 Q 6.53 48.8 6.88 48.45" fill="none" stroke="#111" stroke-width="1.6" stroke-linecap="round"/><path d="M 6.88 50.93 Q 6.53 50.57 6.88 50.22" fill="none" stroke="#111" stroke-width="1.6" stroke-linecap="round"/><path d="M 6.88 52.69 Q 6.53 52.34 6.88 51.99" fill="none" stroke="#111" stroke-width="1.6" stroke-linecap="round"/><path d="M 6.88 54.46 Q 6.53 54.11 6.88 53.76" fill="none" stroke="#111" stroke-width="1.6" stroke-linecap="round"/><path d="M 6.88 56.23 Q 6.53 55.88 6.88 55.52" fill="none" stroke="#111" stroke-width="1.6" stroke-linecap="round"/><path d="M 6.88 58 Q 6.53 57.65 6.88 57.29" fill="none" stroke="#111" stroke-width="1.6" stroke-linecap="round"/></svg>