<svg xmlns="http://www.w3.org/2000/svg" width="96" height="64" viewBox="0 0 96 64"><rect x="6" y="6" width="0.94" height="51.72" fill="none" stroke="#111" stroke-width="1.6"/><rect x="6" y="6.42" width="0.47" height="0.1" fill="none" stroke="#111" stroke-width="1.6"/><rect x="6" y="7.36" width="0.47" height="0.1" fill="none" stroke="#111" stroke-width="1.6"/><rect x="6" y="8.3" width="0.47" height="0.1" fill="none" stroke="#111" stroke-width="1.6"/><rect x="6" y="9.24" width="0.47" height="0.1" fill="none" stroke="#111" stroke-width="1.6"/><rect x="6" y="10.18" width="0.47" height="0.1" fill="none" stroke="#111" stroke-width="1.6"/><rect x="6" y="11.12" width="0.47" height="0.1" fill="none" stroke="#111" stroke-width="1.6"/><rect x="6" y="12.07" width="0.47" height="0.09" fill="none" stroke="#111" stroke-width="1.6"/><rect x="6" y="13.01" width="0.47" height="0.09" fill="none" stroke="#111" stroke-width="1.6"/><rect x="6" y="13.95" width="0.47" height="0.09" fill="none" stroke="#111" stroke-width="1.6"/><rect x="6" y="14.89" width="0.47" height="0.09" fill="none" stroke="#111" stroke-width="1.6"/><rect x="6" y="15.83" width="0.47" height="0.09" fill="none" stroke="#111" stroke-width="1.6"/><rect x="6" y="16.77" width="0.47" height="0.09" fill="none" stroke="#111" stroke-width="1.6"/><rect x="6" y="17.71" width="0.47" height="0.09" fill="none" stroke="#111" stroke-width="1.6"/><rect x="6" y="18.65" width="0.47" height="0.09" fill="none" stroke="#111" stroke-width="1.6"/><rect x="6" y="19.59" width="0.47" height="0.09" fill="none" stroke="#111" stroke-width="1.6"/><rect x="6" y="20.53" width="0.47" height="0.09" fill="none" stroke="#111" stroke-width="1.6"/><rect x="6" y="21.47" width="0.47" height="0.09" fill="none" stroke="#111" stroke-width="1.6"/><rect x="6" y="22.41" width="0.47" height="0.09" fill="none" stroke="#111" stroke-width="1.6"/><rect x="6" y="23.35" width="0.47" height="0.09" fill="none" stroke="#111" stroke-width="1.6"/><rect x="6" y="24.29" width="0.47" height="0.09" fill="none" stroke="#111" stroke-width="1.6"/><rect x="6" y="25.23" width="0.47" height="0.09" fill="none" stroke="#111" stroke-width="1.6"/><rect x="6" y="26.17" width="0.47" height="0.09" fill="none" stroke="#111" stroke-width="1.6"/><rect x="6" y="27.11" width="0.47" height="0.09" fill="none" stroke="#111" stroke-width="1.6"/><rect x="6" y="28.05" width="0.47" height="0.09" fill="none" stroke="#111" stroke-width="1.6"/><rect x="6" y="28.99" width="0.47" height="0.09" fill="none" stroke="#111" stroke-width="1.6"/><rect x="6" y="29.93" width="0.47" height="0.1" fill="none" stroke="#111" stroke-width="1.6"/><rect x="6" y="30.87" width="0.47" height="0.1" fill="none" stroke="#111" stroke-width="1.6"/><rect x="6" y="31.81" width="0.47" height="0.1" fill="none" stroke="#111" stroke-width="1.6"/><rect x="6" y="32.75" width="0.47" height="0.1" fill="none" stroke="#111" stroke-width="1.6"/><rect x="6" y="33.69" width="0.47" height="0.1" fill="none" stroke="#111" stroke-width="1.6"/><rect x="6" y="34.63" width="0.47" height="0.1" fill="none" stroke="#111" stroke-width="1.6"/><rect x="6" y="35.57" width="0.47" height="0.1" fill="none" stroke="#111" stroke-width="1.6"/><rect x="6" y="36.51" width="0.47" height="0.1" fill="none" stroke="#111" stroke-width="1.6"/><rect x="6" y="37.45" width="0.47" height="0.1" fill="none" stroke="#111" stroke-width="1.6"/><rect x="6" y="38.39" width="0.47" height="0.1" fill="none" stroke="#111" stroke-width="1.6"/><rect x="6" y="39.33" width="0.47" height="0.1" fill="none" stroke="#111" stroke-width="1.6"/><rect x="6" y="40.27" width="0.47" height="0.1" fill="none" stroke="#111" stroke-width="1.6"/><rect x="6" y="41.22" width="0.47" height="0.09" fill="none" stroke="#111" stroke-width="1.6"/><rect x="6" y="42.16" width="0.47" height="0.09" fill="none" stroke="#111" stroke-width="1.6"/><rect x="6" y="43.1" width="0.47" height="0.09" fill="none" stroke="#111" stroke-width="1.6"/><rect x="6" y="44.04" width="0.47" height="0.09" fill="none" stroke="#111" stroke-width="1.6"/><rect x="6" y="44.98" width="0.47" height="0.09" fill="none" stroke="#111" stroke-width="1.6"/><rect x="6" y="45.92" width="0.47" height="0.09" fill="none" stroke="#111" stroke-width="1.6"/><rect x="6" y="46.86" width="0.47" height="0.09" fill="none" stroke="#111" stroke-width="1.6"/><rect x="6" y="47.8" width="0.47" height="0.09" fill="none" stroke="#111" stroke-width="1.6"/><rect x="6" y="48.74" width="0.47" height="0.09" fill="none" stroke="#111" stroke-width="1.6"/><rect x="6" y="49.68" width="0.47" height="0.09" fill="none" stroke="#111" stroke-width="1.6"/><rect x="6" y="50.62" width="0.47" height="0.09" fill="none" stroke="#111" stroke-width="1.6"/><rect x="6" y="51.56" width="0.47" height="0.09" fill="none" stroke="#111" stroke-width="1.6"/><rect x="6" y="52.5" width="0.47" height="0.09" fill="none" stroke="#111" stroke-width="1.6"/><rect x="6" y="53.44" width="0.47" height="0.09" fill="none" stroke="#111" stroke-width="1.6"/><rect x="6" y="54.38" width="0.47" height="0.09" fill="none" stroke="#111" stroke-width="1.6"/><rect x="6" y="55.32" width="0.47" height="0.09" fill="none" stroke="#111" stroke-width="1.6"/><rect x="6" y="56.26" width="0.47" height="0.09" fill="none" stroke="#111" stroke-width="1.6"/><rect x="6" y="57.2" width="0.47" height="0.09" fill="none" stroke="#111" stroke-width="1.6"/><polyline points="6.09,58 6.85,58" fill="none" stroke="#111" stroke-width="1.6" stroke-linecap="round" stroke-linejoin="round"/></svg>