<svg xmlns="http://www.w3.org/2000/svg" width="96" height="64" viewBox="0 0 96 64"><polyline points="54.7,23.33 51.4,23.33" fill="none" stroke="#111" stroke-width="1.6" stroke-linecap="round" stroke-linejoin="round"/><polyline points="54.7,23.33 53.87,25.81" fill="none" stroke="#111" stroke-width="1.6" stroke-linecap="round" stroke-linejoin="round"/><polyline points="54.7,46.44 52.22,46.44" fill="none" stroke="#111" stroke-width="1.6" stroke-linecap="round" stroke-linejoin="round"/><polyline points="54.7,46.44 53.87,43.97" fill="none" stroke="#111" stroke-width="1.6" stroke-linecap="round" stroke-linejoin="round"/><path d="M 54.7 46.44 Q 47.08 34.89 54.7 23.33" fill="none" stroke="#111" stroke-width="1.6" stroke-linecap="round"/><circle cx="59.65" cy="34.89" r="1.16" fill="none" stroke="#111" stroke-width="1.6"/><circle cx="59.65" cy="34.89" r="9.24" fill="none" stroke="#111" stroke-width="1.6"/><circle cx="77.81" cy="16.73" r="0.83" fill="none" stroke="#111" stroke-width="1.6"/><polyline points="80.29,6 55.52,26.63" fill="none" stroke="#111" stroke-width="1.6" stroke-linecap="round" stroke-linejoin="round"/><polyline points="80.29,24.98 80.29,58 6,58 6,11.78 72.03,11.78" fill="none" stroke="#111" stroke-width="1.6" stroke-linecap="round" stroke-linejoin="round"/><circle cx="81.11" cy="13.43" r="0.83" fill="none" stroke="#111" stroke-width="1.6"/><path d="M 80.29 6 Q 87.43 7.11 88.54 14.25" fill="none" stroke="#111" stroke-width="1.6" stroke-linecap="round"/><circle cx="84.41" cy="10.13" r="0.83" fill="none" stroke="#111" stroke-width="1.6"/><polyline points="88.54,14.25 66.25,41.49" fill="none" stroke="#111" stroke-width="1.6" stroke-linecap="round" stroke-linejoin="round"/></svg>