<svg xmlns="http://www.w3.org/2000/svg" width="96" height="64" viewBox="0 0 96 64"><rect x="6" y="6" width="0.87" height="52" fill="none" stroke="#111" stroke-width="1.6"/><rect x="6.09" y="6.09" width="0.69" height="51.82" fill="none" stroke="#111" stroke-width="1.6"/><rect x="6.09" y="6.39" width="0.43" height="0.09" fill="none" stroke="#111" stroke-width="1.6"/><rect x="6.09" y="7.26" width="0.43" height="0.08" fill="none" stroke="#111" stroke-width="1.6"/><rect x="6.09" y="8.12" width="0.43" height="0.09" fill="none" stroke="#111" stroke-width="1.6"/><rect x="6.09" y="8.99" width="0.43" height="0.09" fill="none" stroke="#111" stroke-width="1.6"/><rect x="6.09" y="9.86" width="0.43" height="0.08" fill="none" stroke="#111" stroke-width="1.6"/><rect x="6.09" y="10.72" width="0.43" height="0.09" fill="none" stroke="#111" stroke-width="1.6"/><rect x="6.09" y="11.59" width="0.43" height="0.09" fill="none" stroke="#111" stroke-width="1.6"/><rect x="6.09" y="12.46" width="0.43" height="0.08" fill="none" stroke="#111" stroke-width="1.6"/><rect x="6.09" y="13.32" width="0.43" height="0.09" fill="none" stroke="#111" stroke-width="1.6"/><rect x="6.09" y="14.19" width="0.43" height="0.09" fill="none" stroke="#111" stroke-width="1.6"/><rect x="6.09" y="15.06" width="0.43" height="0.08" fill="none" stroke="#111" stroke-width="1.6"/><rect x="6.09" y="15.92" width="0.43" height="0.09" fill="none" stroke="#111" stroke-width="1.6"/><rect x="6.09" y="16.79" width="0.43" height="0.09" fill="none" stroke="#111" stroke-width="1.6"/><rect x="6.09" y="17.66" width="0.43" height="0.08" fill="none" stroke="#111" stroke-width="1.6"/><rect x="6.09" y="18.52" width="0.43" height="0.09" fill="none" stroke="#111" stroke-width="1.6"/><rect x="6.09" y="19.39" width="0.43" height="0.09" fill="none" stroke="#111" stroke-width="1.6"/><rect x="6.09" y="20.26" width="0.43" height="0.08" fill="none" stroke="#111" stroke-width="1.6"/><rect x="6.09" y="21.12" width="0.43" height="0.09" fill="none" stroke="#111" stroke-width="1.6"/><rect x="6.09" y="21.99" width="0.43" height="0.09" fill="none" stroke="#111" stroke-width="1.6"/><rect x="6.09" y="22.86" width="0.43" height="0.08" fill="none" stroke="#111" stroke-width="1.6"/><rect x="6.09" y="23.72" width="0.43" height="0.09" fill="none" stroke="#111" stroke-width="1.6"/><rect x="6.09" y="24.59" width="0.43" height="0.09" fill="none" stroke="#111" stroke-width="1.6"/><rect x="6.09" y="25.46" width="0.43" height="0.08" fill="none" stroke="#111" stroke-width="1.6"/><rect x="6.09" y="26.32" width="0.43" height="0.09" fill="none" stroke="#111" stroke-width="1.6"/><rect x="6.09" y="27.19" width="0.43" height="0.09" fill="none" stroke="#111" stroke-width="1.6"/><rect x="6.09" y="28.06" width="0.43" height="0.08" fill="none" stroke="#111" stroke-width="1.6"/><rect x="6.09" y="28.92" width="0.43" height="0.09" fill="none" stroke="#111" stroke-width="1.6"/><rect x="6.09" y="29.79" width="0.43" height="0.09" fill="none" stroke="#111" stroke-width="1.6"/><rect x="6.09" y="30.66" width="0.43" height="0.08" fill="none" stroke="#111" stroke-width="1.6"/><rect x="6.09" y="31.52" width="0.43" height="0.09" fill="none" stroke="#111" stroke-width="1.6"/><rect x="6.09" y="32.39" width="0.43" height="0.09" fill="none" stroke="#111" stroke-width="1.6"/><rect x="6.09" y="33.26" width="0.43" height="0.08" fill="none" stroke="#111" stroke-width="1.6"/><rect x="6.09" y="34.12" width="0.43" height="0.09" fill="none" stroke="#111" stroke-width="1.6"/><rect x="6.09" y="34.99" width="0.43" height="0.09" fill="none" stroke="#111" stroke-width="1.6"/><rect x="6.09" y="35.86" width="0.43" height="0.08" fill="none" stroke="#111" stroke-width="1.6"/><rect x="6.09" y="36.72" width="0.43" height="0.09" fill="none" stroke="#111" stroke-width="1.6"/><rect x="6.09" y="37.59" width="0.43" height="0.09" fill="none" stroke="#111" stroke-width="1.6"/><rect x="6.09" y="38.46" width="0.43" height="0.08" fill="none" stroke="#111" stroke-width="1.6"/><rect x="6.09" y="39.32" width="0.43" height="0.09" fill="none" stroke="#111" stroke-width="1.6"/><rect x="6.09" y="40.19" width="0.43" height="0.09" fill="none" stroke="#111" stroke-width="1.6"/><rect x="6.09" y="41.06" width="0.43" height="0.08" fill="none" stroke="#111" stroke-width="1.6"/><rect x="6.09" y="41.92" width="0.43" height="0.09" fill="none" stroke="#111" stroke-width="1.6"/><rect x="6.09" y="42.79" width="0.43" height="0.09" fill="none" stroke="#111" stroke-width="1.6"/><rect x="6.09" y="43.66" width="0.43" height="0.08" fill="none" stroke="#111" stroke-width="1.6"/><rect x="6.09" y="44.52" width="0.43" height="0.09" fill="none" stroke="#111" stroke-width="1.6"/><rect x="6.09" y="45.39" width="0.43" height="0.09" fill="none" stroke="#111" stroke-width="1.6"/><rect x="6.09" y="46.26" width="0.43" height="0.08" fill="none" stroke="#111" stroke-width="1.6"/><rect x="6.09" y="47.12" width="0.43" height="0.09" fill="none" stroke="#111" stroke-width="1.6"/><rect x="6.09" y="47.99" width="0.43" height="0.09" fill="none" stroke="#111" stroke-width="1.6"/><rect x="6.09" y="48.86" width="0.43" height="0.08" fill="none" stroke="#111" stroke-width="1.6"/><rect x="6.09" y="49.72" width="0.43" height="0.09" fill="none" stroke="#111" stroke-width="1.6"/><rect x="6.09" y="50.59" width="0.43" height="0.09" fill="none" stroke="#111" stroke-width="1.6"/><rect x="6.09" y="51.46" width="0.43" height="0.08" fill="none" stroke="#111" stroke-width="1.6"/><rect x="6.09" y="52.32" width="0.43" height="0.09" fill="none" stroke="#111" stroke-width="1.6"/><rect x="6.09" y="53.19" width="0.43" height="0.09" fill="none" stroke="#111" stroke-width="1.6"/><rect x="6.09" y="54.06" width="0.43" height="0.08" fill="none" stroke="#111" stroke-width="1.6"/><rect x="6.09" y="54.92" width="0.43" height="0.09" fill="none" stroke="#111" stroke-width="1.6"/><rect x="6.09" y="55.79" width="0.43" height="0.09" fill="none" stroke="#111" stroke-width="1.6"/><rect x="6.09" y="56.66" width="0.43" height="0.08" fill="none" stroke="#111" stroke-width="1.6"/><rect x="6.09" y="57.52" width="0.43" height="0.09" fill="none" stroke="#111" stroke-width="1.6"/></svg>