<svg xmlns="http://www.w3.org/2000/svg" width="96" height="64" viewBox="0 0 96 64"><rect x="6" y="6" width="3.43" height="51.49" fill="none" stroke="#111" stroke-width="1.6"/><rect x="6" y="6.77" width="0.86" height="0.17" fill="none" stroke="#111" stroke-width="1.6"/><rect x="6" y="8.49" width="0.86" height="0.17" fill="none" stroke="#111" stroke-width="1.6"/><rect x="6" y="10.2" width="0.86" height="0.18" fill="none" stroke="#111" stroke-width="1.6"/><rect x="6" y="11.92" width="0.86" height="0.17" fill="none" stroke="#111" stroke-width="1.6"/><rect x="6" y="13.64" width="0.86" height="0.17" fill="none" stroke="#111" stroke-width="1.6"/><rect x="6" y="15.35" width="0.86" height="0.17" fill="none" stroke="#111" stroke-width="1.6"/><rect x="6" y="17.07" width="0.86" height="0.17" fill="none" stroke="#111" stroke-width="1.6"/><rect x="6" y="18.79" width="0.86" height="0.17" fill="none" stroke="#111" stroke-width="1.6"/><rect x="6" y="20.5" width="0.86" height="0.17" fill="none" stroke="#111" stroke-width="1.6"/><rect x="6" y="22.22" width="0.86" height="0.17" fill="none" stroke="#111" stroke-width="1.6"/><rect x="6" y="23.93" width="0.86" height="0.18" fill="none" stroke="#111" stroke-width="1.6"/><rect x="6" y="25.65" width="0.86" height="0.17" fill="none" stroke="#111" stroke-width="1.6"/><rect x="6" y="27.37" width="0.86" height="0.17" fill="none" stroke="#111" stroke-width="1.6"/><rect x="6" y="29.08" width="0.86" height="0.17" fill="none" stroke="#111" stroke-width="1.6"/><rect x="6" y="30.8" width="0.86" height="0.17" fill="none" stroke="#111" stroke-width="1.6"/><rect x="6" y="32.51" width="0.86" height="0.18" fill="none" stroke="#111" stroke-width="1.6"/><rect x="6" y="34.23" width="0.86" height="0.17" fill="none" stroke="#111" stroke-width="1.6"/><rect x="6" y="35.95" width="0.86" height="0.17" fill="none" stroke="#111" stroke-width="1.6"/><rect x="6" y="37.66" width="0.86" height="0.17" fill="none" stroke="#111" stroke-width="1.6"/><rect x="6" y="39.38" width="0.86" height="0.17" fill="none" stroke="#111" stroke-width="1.6"/><rect x="6" y="41.1" width="0.86" height="0.17" fill="none" stroke="#111" stroke-width="1.6"/><rect x="6" y="42.81" width="0.86" height="0.17" fill="none" stroke="#111" stroke-width="1.6"/><rect x="6" y="44.53" width="0.86" height="0.17" fill="none" stroke="#111" stroke-width="1.6"/><rect x="6" y="46.24" width="0.86" height="0.18" fill="none" stroke="#111" stroke-width="1.6"/><rect x="6" y="47.96" width="0.86" height="0.17" fill="none" stroke="#111" stroke-width="1.6"/><rect x="6" y="49.68" width="0.86" height="0.17" fill="none" stroke="#111" stroke-width="1.6"/><rect x="6" y="51.39" width="0.86" height="0.17" fill="none" stroke="#111" stroke-width="1.6"/><rect x="6" y="53.11" width="0.86" height="0.17" fill="none" stroke="#111" stroke-width="1.6"/><rect x="6" y="54.83" width="0.86" height="0.17" fill="none" stroke="#111" stroke-width="1.6"/><rect x="6" y="56.54" width="0.86" height="0.17" fill="none" stroke="#111" stroke-width="1.6"/><polyline points="7.03,58 8.4,58" fill="none" stroke="#111" stroke-width="1.6" stroke-linecap="round" stroke-linejoin="round"/><rect x="8.57" y="6.77" width="0.86" height="0.17" fill="none" stroke="#111" stroke-width="1.6"/><rect x="8.57" y="8.49" width="0.86" height="0.17" fill="none" stroke="#111" stroke-width="1.6"/><rect x="8.57" y="10.2" width="0.86" height="0.18" fill="none" stroke="#111" stroke-width="1.6"/><rect x="8.57" y="11.92" width="0.86" height="0.17" fill="none" stroke="#111" stroke-width="1.6"/><rect x="8.57" y="13.64" width="0.86" height="0.17" fill="none" stroke="#111" stroke-width="1.6"/><rect x="8.57" y="15.35" width="0.86" height="0.17" fill="none" stroke="#111" stroke-width="1.6"/><rect x="8.57" y="17.07" width="0.86" height="0.17" fill="none" stroke="#111" stroke-width="1.6"/><rect x="8.57" y="18.79" width="0.86" height="0.17" fill="none" stroke="#111" stroke-width="1.6"/><rect x="8.57" y="20.5" width="0.86" height="0.17" fill="none" stroke="#111" stroke-width="1.6"/><rect x="8.57" y="22.22" width="0.86" height="0.17" fill="none" stroke="#111" stroke-width="1.6"/><rect x="8.57" y="23.93" width="0.86" height="0.18" fill="none" stroke="#111" stroke-width="1.6"/><rect x="8.57" y="25.65" width="0.86" height="0.17" fill="none" stroke="#111" stroke-width="1.6"/><rect x="8.57" y="27.37" width="0.86" height="0.17" fill="none" stroke="#111" stroke-width="1.6"/><rect x="8.57" y="29.08" width="0.86" height="0.17" fill="none" stroke="#111" stroke-width="1.6"/><rect x="8.57" y="30.8" width="0.86" height="0.17" fill="none" stroke="#111" stroke-width="1.6"/><rect x="8.57" y="32.51" width="0.86" height="0.18" fill="none" stroke="#111" stroke-width="1.6"/><rect x="8.57" y="34.23" width="0.86" height="0.17" fill="none" stroke="#111" stroke-width="1.6"/><rect x="8.57" y="35.95" width="0.86" height="0.17" fill="none" stroke="#111" stroke-width="1.6"/><rect x="8.57" y="37.66" width="0.86" height="0.17" fill="none" stroke="#111" stroke-width="1.6"/><rect x="8.57" y="39.38" width="0.86" height="0.17" fill="none" stroke="#111" stroke-width="1.6"/><rect x="8.57" y="41.1" width="0.86" height="0.17" fill="none" stroke="#111" stroke-width="1.6"/><rect x="8.57" y="42.81" width="0.86" height="0.17" fill="none" stroke="#111" stroke-width="1.6"/><rect x="8.57" y="44.53" width="0.86" height="0.17" fill="none" stroke="#111" stroke-width="1.6"/><rect x="8.57" y="46.24" width="0.86" height="0.18" fill="none" stroke="#111" stroke-width="1.6"/><rect x="8.57" y="47.96" width="0.86" height="0.17" fill="none" stroke="#111" stroke-width="1.6"/><rect x="8.57" y="49.68" width="0.86" height="0.17" fill="none" stroke="#111" stroke-width="1.6"/><rect x="8.57" y="51.39" width="0.86" height="0.17" fill="none" stroke="#111" stroke-width="1.6"/><rect x="8.57" y="53.11" width="0.86" height="0.17" fill="none" stroke="#111" stroke-width="1.6"/><rect x="8.57" y="54.83" width="0.86" height="0.17" fill="none" stroke="#111" stroke-width="1.6"/></svg>