<svg xmlns="http://www.w3.org/2000/svg" width="96" height="64" viewBox="0 0 96 64"><polyline points="6,36.44 11.07,36.44" fill="none" stroke="#111" stroke-width="1.6" stroke-linecap="round" stroke-linejoin="round"/><rect x="7.27" y="6" width="32.97" height="52" fill="none" stroke="#111" stroke-width="1.6"/><polyline points="11.07,9.8 18.68,17.41" fill="none" stroke="#111" stroke-width="1.6" stroke-linecap="round" stroke-linejoin="round"/><polyline points="11.07,12.34 18.68,14.88" fill="none" stroke="#111" stroke-width="1.6" stroke-linecap="round" stroke-linejoin="round"/><polyline points="11.07,14.88 18.68,12.34" fill="none" stroke="#111" stroke-width="1.6" stroke-linecap="round" stroke-linejoin="round"/><polyline points="11.07,17.41 18.68,9.8" fill="none" stroke="#111" stroke-width="1.6" stroke-linecap="round" stroke-linejoin="round"/><circle cx="11.07" cy="36.44" r="1.27" fill="none" stroke="#111" stroke-width="1.6"/><polyline points="13.61,9.8 16.15,17.41" fill="none" stroke="#111" stroke-width="1.6" stroke-linecap="round" stroke-linejoin="round"/><polyline points="14.88,13.61 14.88,8.54" fill="none" stroke="#111" stroke-width="1.6" stroke-linecap="round" stroke-linejoin="round"/><polyline points="14.88,13.61 14.88,18.68" fill="none" stroke="#111" stroke-width="1.6" stroke-linecap="round" stroke-linejoin="round"/><polyline points="15.51,26.29 15.51,30.1 17.41,30.1" fill="none" stroke="#111" stroke-width="1.6" stroke-linecap="round" stroke-linejoin="round"/><polyline points="15.51,43.41 15.51,47.22" fill="none" stroke="#111" stroke-width="1.6" stroke-linecap="round" stroke-linejoin="round"/><path d="M 16.15 43.41 Q 17.04 44.37 16.15 45.32" fill="none" stroke="#111" stroke-width="1.6" stroke-linecap="round"/><polyline points="16.15,9.8 13.61,17.41" fill="none" stroke="#111" stroke-width="1.6" stroke-linecap="round" stroke-linejoin="round"/><path d="M 18.68 26.29 Q 20.58 28.2 18.68 30.1" fill="none" stroke="#111" stroke-width="1.6" stroke-linecap="round"/><path d="M 18.68 43.41 Q 20.58 45.32 18.68 47.22" fill="none" stroke="#111" stroke-width="1.6" stroke-linecap="round"/><polyline points="18.68,26.29 18.68,30.1" fill="none" stroke="#111" stroke-width="1.6" stroke-linecap="round" stroke-linejoin="round"/><polyline points="18.68,43.41 18.68,47.22" fill="none" stroke="#111" stroke-width="1.6" stroke-linecap="round" stroke-linejoin="round"/><polyline points="22.49,13.61 9.8,13.61" fill="none" stroke="#111" stroke-width="1.6" stroke-linecap="round" stroke-linejoin="round"/><polyline points="23.76,16.15 31.37,8.54 31.37,11.07 31.37,8.54 28.83,8.54" fill="none" stroke="#111" stroke-width="1.6" stroke-linecap="round" stroke-linejoin="round"/><polyline points="23.76,17.41 23.76,30.1" fill="none" stroke="#111" stroke-width="1.6" stroke-linecap="round" stroke-linejoin="round"/><polyline points="23.76,40.24 26.29,40.24" fill="none" stroke="#111" stroke-width="1.6" stroke-linecap="round" stroke-linejoin="round"/><polyline points="23.76,42.78 23.76,55.46" fill="none" stroke="#111" stroke-width="1.6" stroke-linecap="round" stroke-linejoin="round"/><polyline points="30.1,16.15 37.71,8.54 37.71,11.07" fill="none" stroke="#111" stroke-width="1.6" stroke-linecap="round" stroke-linejoin="round"/><polyline points="31.37,32.63 23.76,40.24 23.76,37.71" fill="none" stroke="#111" stroke-width="1.6" stroke-linecap="round" stroke-linejoin="round"/><polyline points="37.71,8.54 35.17,8.54" fill="none" stroke="#111" stroke-width="1.6" stroke-linecap="round" stroke-linejoin="round"/><polyline points="37.71,32.63 30.1,40.24 30.1,37.71 30.1,40.24 32.63,40.24" fill="none" stroke="#111" stroke-width="1.6" stroke-linecap="round" stroke-linejoin="round"/><polyline points="44.05,23.76 11.07,23.76 11.07,49.12 44.05,49.12" fill="none" stroke="#111" stroke-width="1.6" stroke-linecap="round" stroke-linejoin="round"/><polyline points="36.44,30.1 36.44,17.41 23.76,23.76 36.44,30.1" fill="none" stroke="#111" stroke-width="1.6" stroke-linecap="round" stroke-linejoin="round"/><polyline points="36.44,55.46 36.44,42.78 23.76,49.12 36.44,55.46" fill="none" stroke="#111" stroke-width="1.6" stroke-linecap="round" stroke-linejoin="round"/></svg>