<svg xmlns="http://www.w3.org/2000/svg" width="96" height="64" viewBox="0 0 96 64"><rect x="6" y="6" width="63.14" height="52" fill="none" stroke="#111" stroke-width="1.6"/><polyline points="26.02,49.46 29.18,46.67 30.77,35.53 28.36,32.74 25.2,35.53 23.61,46.67 26.02,49.46" fill="none" stroke="#111" stroke-width="1.6" stroke-linecap="round" stroke-linejoin="round"/><polyline points="26.65,50.2 29.85,47.41 40.99,47.41 43.37,50.2 40.21,52.99 29.07,52.99 26.65,50.2" fill="none" stroke="#111" stroke-width="1.6" stroke-linecap="round" stroke-linejoin="round"/><polyline points="28.58,31.26 31.74,28.47 33.34,17.33 30.92,14.54 27.77,17.33 26.17,28.47 28.58,31.26" fill="none" stroke="#111" stroke-width="1.6" stroke-linecap="round" stroke-linejoin="round"/><polyline points="29.21,32 32.41,29.21 43.55,29.21 45.93,32 42.73,34.79 31.59,34.79 29.21,32" fill="none" stroke="#111" stroke-width="1.6" stroke-linecap="round" stroke-linejoin="round"/><polyline points="31.78,13.8 34.93,11.01 46.08,11.01 48.49,13.8 45.3,16.59 34.15,16.59 31.78,13.8" fill="none" stroke="#111" stroke-width="1.6" stroke-linecap="round" stroke-linejoin="round"/><polyline points="44.22,49.46 47.38,46.67 48.97,35.53 46.56,32.74 43.4,35.53 41.81,46.67 44.22,49.46" fill="none" stroke="#111" stroke-width="1.6" stroke-linecap="round" stroke-linejoin="round"/><polyline points="46.78,31.26 49.94,28.47 51.54,17.33 49.12,14.54 45.97,17.33 44.37,28.47 46.78,31.26" fill="none" stroke="#111" stroke-width="1.6" stroke-linecap="round" stroke-linejoin="round"/><circle cx="49.46" cy="50.2" r="2.41" fill="none" stroke="#111" stroke-width="1.6"/></svg>