<svg xmlns="http://www.w3.org/2000/svg" width="96" height="64" viewBox="0 0 96 64"><polyline points="6,51.07 6,58 40.67,58 40.67,51.07" fill="none" stroke="#111" stroke-width="1.6" stroke-linecap="round" stroke-linejoin="round"/><circle cx="12.93" cy="23.33" r="0.69" fill="none" stroke="#111" stroke-width="1.6"/><circle cx="12.93" cy="30.27" r="0.69" fill="none" stroke="#111" stroke-width="1.6"/><circle cx="12.93" cy="40.67" r="0.69" fill="none" stroke="#111" stroke-width="1.6"/><polyline points="25.41,13.63 24.72,12.93 24.72,8.77 24.03,8.08" fill="none" stroke="#111" stroke-width="1.6" stroke-linecap="round" stroke-linejoin="round"/><polyline points="25.41,51.76 24.72,51.07 24.72,46.91 24.03,46.21" fill="none" stroke="#111" stroke-width="1.6" stroke-linecap="round" stroke-linejoin="round"/><circle cx="33.73" cy="23.33" r="0.69" fill="none" stroke="#111" stroke-width="1.6"/><circle cx="33.73" cy="30.27" r="0.69" fill="none" stroke="#111" stroke-width="1.6"/><circle cx="33.73" cy="40.67" r="0.69" fill="none" stroke="#111" stroke-width="1.6"/><rect x="9.47" y="6" width="27.73" height="48.53" fill="none" stroke="#111" stroke-width="1.6"/><polyline points="9.47,30.27 12.93,30.27" fill="none" stroke="#111" stroke-width="1.6" stroke-linecap="round" stroke-linejoin="round"/><rect x="12.93" y="10.85" width="20.8" height="38.14" fill="none" stroke="#111" stroke-width="1.6"/><polyline points="12.93,23.33 33.73,23.33" fill="none" stroke="#111" stroke-width="1.6" stroke-linecap="round" stroke-linejoin="round"/><polyline points="12.93,40.67 33.73,40.67" fill="none" stroke="#111" stroke-width="1.6" stroke-linecap="round" stroke-linejoin="round"/><polyline points="15.71,19.87 15.71,26.8" fill="none" stroke="#111" stroke-width="1.6" stroke-linecap="round" stroke-linejoin="round"/><polyline points="15.71,23.33 22.64,19.87 22.64,26.8 15.71,23.33" fill="none" stroke="#111" stroke-width="1.6" stroke-linecap="round" stroke-linejoin="round"/><polyline points="15.71,37.2 15.71,44.13" fill="none" stroke="#111" stroke-width="1.6" stroke-linecap="round" stroke-linejoin="round"/><polyline points="15.71,40.67 22.64,37.2 22.64,44.13 15.71,40.67" fill="none" stroke="#111" stroke-width="1.6" stroke-linecap="round" stroke-linejoin="round"/><polyline points="16.4,19.17 20.56,15.01" fill="none" stroke="#111" stroke-width="1.6" stroke-linecap="round" stroke-linejoin="round"/><polyline points="16.4,36.51 20.56,32.35" fill="none" stroke="#111" stroke-width="1.6" stroke-linecap="round" stroke-linejoin="round"/><polyline points="18.48,15.01 20.56,15.01 20.56,17.09" fill="none" stroke="#111" stroke-width="1.6" stroke-linecap="round" stroke-linejoin="round"/><polyline points="18.48,32.35 20.56,32.35 20.56,34.43" fill="none" stroke="#111" stroke-width="1.6" stroke-linecap="round" stroke-linejoin="round"/><polyline points="19.87,19.17 24.03,15.01" fill="none" stroke="#111" stroke-width="1.6" stroke-linecap="round" stroke-linejoin="round"/><polyline points="19.87,36.51 24.03,32.35" fill="none" stroke="#111" stroke-width="1.6" stroke-linecap="round" stroke-linejoin="round"/><polyline points="20.56,8.77 24.72,10.85 20.56,12.93 20.56,8.77" fill="none" stroke="#111" stroke-width="1.6" stroke-linecap="round" stroke-linejoin="round"/><polyline points="20.56,46.91 24.72,48.99 20.56,51.07 20.56,46.91" fill="none" stroke="#111" stroke-width="1.6" stroke-linecap="round" stroke-linejoin="round"/><polyline points="21.95,15.01 24.03,15.01 24.03,17.09" fill="none" stroke="#111" stroke-width="1.6" stroke-linecap="round" stroke-linejoin="round"/><polyline points="21.95,32.35 24.03,32.35 24.03,34.43" fill="none" stroke="#111" stroke-width="1.6" stroke-linecap="round" stroke-linejoin="round"/><polyline points="24.03,19.87 24.03,26.8" fill="none" stroke="#111" stroke-width="1.6" stroke-linecap="round" stroke-linejoin="round"/><polyline points="24.03,23.33 30.96,19.87 30.96,26.8 24.03,23.33" fill="none" stroke="#111" stroke-width="1.6" stroke-linecap="round" stroke-linejoin="round"/><polyline points="24.03,37.2 24.03,44.13" fill="none" stroke="#111" stroke-width="1.6" stroke-linecap="round" stroke-linejoin="round"/><polyline points="24.03,40.67 30.96,37.2 30.96,44.13 24.03,40.67" fill="none" stroke="#111" stroke-width="1.6" stroke-linecap="round" stroke-linejoin="round"/><polyline points="24.72,19.17 28.88,15.01" fill="none" stroke="#111" stroke-width="1.6" stroke-linecap="round" stroke-linejoin="round"/><polyline points="24.72,36.51 28.88,32.35" fill="none" stroke="#111" stroke-width="1.6" stroke-linecap="round" stroke-linejoin="round"/><polyline points="26.8,15.01 28.88,15.01 28.88,17.09" fill="none" stroke="#111" stroke-width="1.6" stroke-linecap="round" stroke-linejoin="round"/><polyline points="26.8,32.35 28.88,32.35 28.88,34.43" fill="none" stroke="#111" stroke-width="1.6" stroke-linecap="round" stroke-linejoin="round"/><polyline points="28.19,19.17 32.35,15.01" fill="none" stroke="#111" stroke-width="1.6" stroke-linecap="round" stroke-linejoin="round"/><polyline points="28.19,36.51 32.35,32.35" fill="none" stroke="#111" stroke-width="1.6" stroke-linecap="round" stroke-linejoin="round"/><polyline points="30.27,15.01 32.35,15.01 32.35,17.09" fill="none" stroke="#111" stroke-width="1.6" stroke-linecap="round" stroke-linejoin="round"/><polyline points="30.27,32.35 32.35,32.35 32.35,34.43" fill="none" stroke="#111" stroke-width="1.6" stroke-linecap="round" stroke-linejoin="round"/><polyline points="33.73,30.27 37.2,30.27" fill="none" stroke="#111" stroke-width="1.6" stroke-linecap="round" stroke-linejoin="round"/></svg>