<svg xmlns="http://www.w3.org/2000/svg" width="96" height="64" viewBox="0 0 96 64"><polyline points="21.78,32.73 61.94,47.34" fill="none" stroke="#111" stroke-width="1.6" stroke-linecap="round" stroke-linejoin="round"/><polyline points="39.89,57.85 68.08,57.85 68.08,57.71 67.79,57.42 67.49,56.83 67.06,56.1 65.89,54.06 65.16,52.89 64.43,51.57 60.92,45.73 60.04,44.12 57.42,39.74 56.69,38.43 55.96,37.26 55.22,36.24 54.79,35.21 54.35,34.48 53.91,33.9 53.76,33.46 53.47,33.17 53.33,33.31 53.03,33.46 52.01,34.48 51.43,35.36 51.28,36.09 50.99,36.53 50.7,37.4 50.26,38.13 48.51,39.89 47.78,40.47 46.9,41.2 46.02,41.79 45.15,42.52 44.12,43.25 43.25,43.98 42.37,44.56 41.79,45 41.2,45.29 40.62,45.73 39.16,46.9 38.57,47.63 37.99,48.51 37.4,49.53 36.67,50.7 35.8,52.89 34.92,54.64 34.04,55.52 33.61,55.81 33.46,55.96 32.29,55.96 31.85,55.81 31.27,55.22 30.98,54.35 30.69,53.33 30.54,52.01 30.54,48.21 30.83,47.04 31.12,46.02 31.71,45.15 32.29,44.42 34.92,41.79 35.36,41.2 35.94,39.74 36.09,39.45 36.24,38.87 36.38,38.43 36.38,38.28 35.94,37.84 35.65,37.4 35.07,37.11 34.63,36.67 34.19,36.38 33.9,36.09 33.61,36.09 33.31,36.24 32.88,36.53 32.29,36.82 31.56,37.26 30.98,37.55 30.39,37.99 29.52,38.57 27.91,40.18 26.89,41.35 27.18,42.08 27.33,42.37 27.33,42.81 27.47,43.25 27.47,44.85 27.33,45.58 27.18,46.02 27.18,46.17 27.03,46.46 27.33,47.04 27.62,47.48 27.62,47.63 28.35,49.09 28.79,50.55 28.93,52.16 28.93,53.33 28.79,53.76 28.64,54.06 28.49,54.49 28.06,55.22 27.47,55.66 26.89,55.96 26.3,55.96 25.87,55.81 25.57,55.52 25.28,54.93 24.84,54.2 24.4,53.18 23.82,51.87 23.24,50.4 22.65,48.65 22.65,48.51 22.36,47.63 21.92,46.75 21.34,45.29 21.19,45.15 20.75,43.83 20.46,42.52 20.46,41.35 20.75,40.03 21.19,38.72 21.48,38.13 22.07,37.26 22.65,36.24 23.53,35.21 24.4,34.04 24.99,33.46 25.87,32 26.3,31.42 26.45,31.27 27.18,29.96 27.91,28.93 28.79,28.06 29.52,27.47 30.39,27.18 30.69,27.03 31.42,26.89 32.44,26.6 33.75,26.45 35.21,26.3 36.97,26.16 37.26,26.16 38.72,26.01 40.03,25.87 41.06,25.87 41.93,25.72 42.66,25.57 43.25,25.43 43.83,25.13 44.27,24.99 44.71,24.7 45.88,23.82 47.04,22.65 47.04,22.36 46.9,22.07 46.61,21.63 46.31,21.04 45.73,20.17 45.29,19.15 43.83,16.81 43.1,15.49 40.91,11.84 40.03,10.53 39.45,9.36 38.87,8.48 38.43,7.75 37.99,7.17 37.7,6.73 37.4,6.15 37.26,6 36.82,6 36.82,6.15 36.38,6.58 36.24,6.88 35.94,7.31 35.65,7.9 34.78,9.36 34.19,10.24 33.61,11.26 32.88,12.43 31.12,15.35 30.1,17.1 28.93,19 26.3,23.38 24.84,26.01 23.09,28.79 21.34,31.85 20.31,33.46 17.39,38.43 16.08,40.76 14.76,42.96 13.45,45 12.28,47.04 11.11,48.94 10.24,50.7 9.21,52.16 8.48,53.62 7.75,54.79 7.02,55.81 6.29,57.27 6,57.71 6,57.85 33.02,57.85 36.97,58 39.89,57.85" fill="none" stroke="#111" stroke-width="1.6" stroke-linecap="round" stroke-linejoin="round"/><polyline points="6.44,57.56 67.79,57.56 37.11,6.44 6.44,57.56" fill="none" stroke="#111" stroke-width="1.6" stroke-linecap="round" stroke-linejoin="round"/></svg>