<svg xmlns="http://www.w3.org/2000/svg" width="96" height="64" viewBox="0 0 96 64"><polyline points="6,6.23 6.35,6.23" fill="none" stroke="#111" stroke-width="1.6" stroke-linecap="round" stroke-linejoin="round"/><polyline points="6,7.41 6.35,7.41" fill="none" stroke="#111" stroke-width="1.6" stroke-linecap="round" stroke-linejoin="round"/><polyline points="6,8.58 6.35,8.58" fill="none" stroke="#111" stroke-width="1.6" stroke-linecap="round" stroke-linejoin="round"/><polyline points="6,9.75 6.35,9.75" fill="none" stroke="#111" stroke-width="1.6" stroke-linecap="round" stroke-linejoin="round"/><polyline points="6,10.92 6.35,10.92" fill="none" stroke="#111" stroke-width="1.6" stroke-linecap="round" stroke-linejoin="round"/><polyline points="6,12.09 6.35,12.09" fill="none" stroke="#111" stroke-width="1.6" stroke-linecap="round" stroke-linejoin="round"/><polyline points="6,13.26 6.35,13.26" fill="none" stroke="#111" stroke-width="1.6" stroke-linecap="round" stroke-linejoin="round"/><polyline points="6,14.43 6.35,14.43" fill="none" stroke="#111" stroke-width="1.6" stroke-linecap="round" stroke-linejoin="round"/><polyline points="6,15.6 6.35,15.6" fill="none" stroke="#111" stroke-width="1.6" stroke-linecap="round" stroke-linejoin="round"/><polyline points="6,16.77 6.35,16.77" fill="none" stroke="#111" stroke-width="1.6" stroke-linecap="round" stroke-linejoin="round"/><polyline points="6,17.95 6.35,17.95" fill="none" stroke="#111" stroke-width="1.6" stroke-linecap="round" stroke-linejoin="round"/><polyline points="6,19.12 6.35,19.12" fill="none" stroke="#111" stroke-width="1.6" stroke-linecap="round" stroke-linejoin="round"/><polyline points="6,20.29 6.35,20.29" fill="none" stroke="#111" stroke-width="1.6" stroke-linecap="round" stroke-linejoin="round"/><polyline points="6,21.46 6.35,21.46" fill="none" stroke="#111" stroke-width="1.6" stroke-linecap="round" stroke-linejoin="round"/><polyline points="6,22.63 6.35,22.63" fill="none" stroke="#111" stroke-width="1.6" stroke-linecap="round" stroke-linejoin="round"/><polyline points="6,23.8 6.35,23.8" fill="none" stroke="#111" stroke-width="1.6" stroke-linecap="round" stroke-linejoin="round"/><polyline points="6,24.97 6.35,24.97" fill="none" stroke="#111" stroke-width="1.6" stroke-linecap="round" stroke-linejoin="round"/><polyline points="6,26.14 6.35,26.14" fill="none" stroke="#111" stroke-width="1.6" stroke-linecap="round" stroke-linejoin="round"/><polyline points="6,27.32 6.35,27.32" fill="none" stroke="#111" stroke-width="1.6" stroke-linecap="round" stroke-linejoin="round"/><polyline points="6,28.49 6.35,28.49" fill="none" stroke="#111" stroke-width="1.6" stroke-linecap="round" stroke-linejoin="round"/><polyline points="6,29.66 6.35,29.66" fill="none" stroke="#111" stroke-width="1.6" stroke-linecap="round" stroke-linejoin="round"/><polyline points="6,30.83 6.35,30.83" fill="none" stroke="#111" stroke-width="1.6" stroke-linecap="round" stroke-linejoin="round"/><polyline points="6,32 6.35,32" fill="none" stroke="#111" stroke-width="1.6" stroke-linecap="round" stroke-linejoin="round"/><polyline points="6,33.17 6.35,33.17" fill="none" stroke="#111" stroke-width="1.6" stroke-linecap="round" stroke-linejoin="round"/><polyline points="6,34.34 6.35,34.34" fill="none" stroke="#111" stroke-width="1.6" stroke-linecap="round" stroke-linejoin="round"/><polyline points="6,35.51 6.35,35.51" fill="none" stroke="#111" stroke-width="1.6" stroke-linecap="round" stroke-linejoin="round"/><polyline points="6,36.68 6.35,36.68" fill="none" stroke="#111" stroke-width="1.6" stroke-linecap="round" stroke-linejoin="round"/><polyline points="6,37.86 6.35,37.86" fill="none" stroke="#111" stroke-width="1.6" stroke-linecap="round" stroke-linejoin="round"/><polyline points="6,39.03 6.35,39.03" fill="none" stroke="#111" stroke-width="1.6" stroke-linecap="round" stroke-linejoin="round"/><polyline points="6,40.2 6.35,40.2" fill="none" stroke="#111" stroke-width="1.6" stroke-linecap="round" stroke-linejoin="round"/><polyline points="6,41.37 6.35,41.37" fill="none" stroke="#111" stroke-width="1.6" stroke-linecap="round" stroke-linejoin="round"/><polyline points="6,42.54 6.35,42.54" fill="none" stroke="#111" stroke-width="1.6" stroke-linecap="round" stroke-linejoin="round"/><polyline points="6,43.71 6.35,43.71" fill="none" stroke="#111" stroke-width="1.6" stroke-linecap="round" stroke-linejoin="round"/><polyline points="6,44.88 6.35,44.88" fill="none" stroke="#111" stroke-width="1.6" stroke-linecap="round" stroke-linejoin="round"/><polyline points="6,46.05 6.35,46.05" fill="none" stroke="#111" stroke-width="1.6" stroke-linecap="round" stroke-linejoin="round"/><polyline points="6,47.23 6.35,47.23" fill="none" stroke="#111" stroke-width="1.6" stroke-linecap="round" stroke-linejoin="round"/><polyline points="6,48.4 6.35,48.4" fill="none" stroke="#111" stroke-width="1.6" stroke-linecap="round" stroke-linejoin="round"/><polyline points="6,49.57 6.35,49.57" fill="none" stroke="#111" stroke-width="1.6" stroke-linecap="round" stroke-linejoin="round"/><polyline points="6,50.74 6.35,50.74" fill="none" stroke="#111" stroke-width="1.6" stroke-linecap="round" stroke-linejoin="round"/><polyline points="6,51.91 6.35,51.91" fill="none" stroke="#111" stroke-width="1.6" stroke-linecap="round" stroke-linejoin="round"/><polyline points="6,53.08 6.35,53.08" fill="none" stroke="#111" stroke-width="1.6" stroke-linecap="round" stroke-linejoin="round"/><polyline points="6,54.25 6.35,54.25" fill="none" stroke="#111" stroke-width="1.6" stroke-linecap="round" stroke-linejoin="round"/><polyline points="6,55.42 6.35,55.42" fill="none" stroke="#111" stroke-width="1.6" stroke-linecap="round" stroke-linejoin="round"/><polyline points="6,56.59 6.35,56.59" fill="none" stroke="#111" stroke-width="1.6" stroke-linecap="round" stroke-linejoin="round"/><polyline points="6,57.77 6.35,57.77" fill="none" stroke="#111" stroke-width="1.6" stroke-linecap="round" stroke-linejoin="round"/><path d="M 6.59 6.47 Q 6.35 6.23 6.59 6" fill="none" stroke="#111" stroke-width="1.6" stroke-linecap="round"/><path d="M 6.59 7.64 Q 6.35 7.41 6.59 7.17" fill="none" stroke="#111" stroke-width="1.6" stroke-linecap="round"/><path d="M 6.59 8.81 Q 6.35 8.58 6.59 8.34" fill="none" stroke="#111" stroke-width="1.6" stroke-linecap="round"/><path d="M 6.59 9.98 Q 6.35 9.75 6.59 9.51" fill="none" stroke="#111" stroke-width="1.6" stroke-linecap="round"/><path d="M 6.59 11.15 Q 6.35 10.92 6.59 10.68" fill="none" stroke="#111" stroke-width="1.6" stroke-linecap="round"/><path d="M 6.59 12.32 Q 6.35 12.09 6.59 11.86" fill="none" stroke="#111" stroke-width="1.6" stroke-linecap="round"/><path d="M 6.59 13.5 Q 6.35 13.26 6.59 13.03" fill="none" stroke="#111" stroke-width="1.6" stroke-linecap="round"/><path d="M 6.59 14.67 Q 6.35 14.43 6.59 14.2" fill="none" stroke="#111" stroke-width="1.6" stroke-linecap="round"/><path d="M 6.59 15.84 Q 6.35 15.6 6.59 15.37" fill="none" stroke="#111" stroke-width="1.6" stroke-linecap="round"/><path d="M 6.59 17.01 Q 6.35 16.77 6.59 16.54" fill="none" stroke="#111" stroke-width="1.6" stroke-linecap="round"/><path d="M 6.59 18.18 Q 6.35 17.95 6.59 17.71" fill="none" stroke="#111" stroke-width="1.6" stroke-linecap="round"/><path d="M 6.59 19.35 Q 6.35 19.12 6.59 18.88" fill="none" stroke="#111" stroke-width="1.6" stroke-linecap="round"/><path d="M 6.59 20.52 Q 6.35 20.29 6.59 20.05" fill="none" stroke="#111" stroke-width="1.6" stroke-linecap="round"/><path d="M 6.59 21.69 Q 6.35 21.46 6.59 21.23" fill="none" stroke="#111" stroke-width="1.6" stroke-linecap="round"/><path d="M 6.59 22.86 Q 6.35 22.63 6.59 22.4" fill="none" stroke="#111" stroke-width="1.6" stroke-linecap="round"/><path d="M 6.59 24.04 Q 6.35 23.8 6.59 23.57" fill="none" stroke="#111" stroke-width="1.6" stroke-linecap="round"/><path d="M 6.59 25.21 Q 6.35 24.97 6.59 24.74" fill="none" stroke="#111" stroke-width="1.6" stroke-linecap="round"/><path d="M 6.59 26.38 Q 6.35 26.14 6.59 25.91" fill="none" stroke="#111" stroke-width="1.6" stroke-linecap="round"/><path d="M 6.59 27.55 Q 6.35 27.32 6.59 27.08" fill="none" stroke="#111" stroke-width="1.6" stroke-linecap="round"/><path d="M 6.59 28.72 Q 6.35 28.49 6.59 28.25" fill="none" stroke="#111" stroke-width="1.6" stroke-linecap="round"/><path d="M 6.59 29.89 Q 6.35 29.66 6.59 29.42" fill="none" stroke="#111" stroke-width="1.6" stroke-linecap="round"/><path d="M 6.59 31.06 Q 6.35 30.83 6.59 30.59" fill="none" stroke="#111" stroke-width="1.6" stroke-linecap="round"/><path d="M 6.59 32.23 Q 6.35 32 6.59 31.77" fill="none" stroke="#111" stroke-width="1.6" stroke-linecap="round"/><path d="M 6.59 33.41 Q 6.35 33.17 6.59 32.94" fill="none" stroke="#111" stroke-width="1.6" stroke-linecap="round"/><path d="M 6.59 34.58 Q 6.35 34.34 6.59 34.11" fill="none" stroke="#111" stroke-width="1.6" stroke-linecap="round"/><path d="M 6.59 35.75 Q 6.35 35.51 6.59 35.28" fill="none" stroke="#111" stroke-width="1.6" stroke-linecap="round"/><path d="M 6.59 36.92 Q 6.35 36.68 6.59 36.45" fill="none" stroke="#111" stroke-width="1.6" stroke-linecap="round"/><path d="M 6.59 38.09 Q 6.35 37.86 6.59 37.62" fill="none" stroke="#111" stroke-width="1.6" stroke-linecap="round"/><path d="M 6.59 39.26 Q 6.35 39.03 6.59 38.79" fill="none" stroke="#111" stroke-width="1.6" stroke-linecap="round"/><path d="M 6.59 40.43 Q 6.35 40.2 6.59 39.96" fill="none" stroke="#111" stroke-width="1.6" stroke-linecap="round"/><path d="M 6.59 41.6 Q 6.35 41.37 6.59 41.14" fill="none" stroke="#111" stroke-width="1.6" stroke-linecap="round"/><path d="M 6.59 42.77 Q 6.35 42.54 6.59 42.31" fill="none" stroke="#111" stroke-width="1.6" stroke-linecap="round"/><path d="M 6.59 43.95 Q 6.35 43.71 6.59 43.48" fill="none" stroke="#111" stroke-width="1.6" stroke-linecap="round"/><path d="M 6.59 45.12 Q 6.35 44.88 6.59 44.65" fill="none" stroke="#111" stroke-width="1.6" stroke-linecap="round"/><path d="M 6.59 46.29 Q 6.35 46.05 6.59 45.82" fill="none" stroke="#111" stroke-width="1.6" stroke-linecap="round"/><path d="M 6.59 47.46 Q 6.35 47.23 6.59 46.99" fill="none" stroke="#111" stroke-width="1.6" stroke-linecap="round"/><path d="M 6.59 48.63 Q 6.35 48.4 6.59 48.16" fill="none" stroke="#111" stroke-width="1.6" stroke-linecap="round"/><path d="M 6.59 49.8 Q 6.35 49.57 6.59 49.33" fill="none" stroke="#111" stroke-width="1.6" stroke-linecap="round"/><path d="M 6.59 50.97 Q 6.35 50.74 6.59 50.5" fill="none" stroke="#111" stroke-width="1.6" stroke-linecap="round"/><path d="M 6.59 52.14 Q 6.35 51.91 6.59 51.68" fill="none" stroke="#111" stroke-width="1.6" stroke-linecap="round"/><path d="M 6.59 53.32 Q 6.35 53.08 6.59 52.85" fill="none" stroke="#111" stroke-width="1.6" stroke-linecap="round"/><path d="M 6.59 54.49 Q 6.35 54.25 6.59 54.02" fill="none" stroke="#111" stroke-width="1.6" stroke-linecap="round"/><path d="M 6.59 55.66 Q 6.35 55.42 6.59 55.19" fill="none" stroke="#111" stroke-width="1.6" stroke-linecap="round"/><path d="M 6.59 56.83 Q 6.35 56.59 6.59 56.36" fill="none" stroke="#111" stroke-width="1.6" stroke-linecap="round"/><path d="M 6.59 58 Q 6.35 57.77 6.59 57.53" fill="none" stroke="#111" stroke-width="1.6" stroke-linecap="round"/></svg>