<svg xmlns="http://www.w3.org/2000/svg" width="96" height="64" viewBox="0 0 96 64"><polyline points="6,10.67 10.67,10.67" fill="none" stroke="#111" stroke-width="1.6" stroke-linecap="round" stroke-linejoin="round"/><polyline points="6,29.33 10.67,29.33" fill="none" stroke="#111" stroke-width="1.6" stroke-linecap="round" stroke-linejoin="round"/><polyline points="10.67,6 29.33,6" fill="none" stroke="#111" stroke-width="1.6" stroke-linecap="round" stroke-linejoin="round"/><polyline points="10.67,6 10.67,34 29.33,34" fill="none" stroke="#111" stroke-width="1.6" stroke-linecap="round" stroke-linejoin="round"/><path d="M 43.33 10.67 Q 49.88 29.33 43.33 48" fill="none" stroke="#111" stroke-width="1.6" stroke-linecap="round"/><path d="M 29.33 6 Q 43.27 20 29.33 34" fill="none" stroke="#111" stroke-width="1.6" stroke-linecap="round"/><polyline points="43.33,20 48,20" fill="none" stroke="#111" stroke-width="1.6" stroke-linecap="round" stroke-linejoin="round"/><polyline points="43.33,38.67 48,38.67" fill="none" stroke="#111" stroke-width="1.6" stroke-linecap="round" stroke-linejoin="round"/><polyline points="43.33,38.67 38.67,38.67 38.67,43.33 38.67,48 6,48" fill="none" stroke="#111" stroke-width="1.6" stroke-linecap="round" stroke-linejoin="round"/><path d="M 90 29.33 Q 83.1 41.1 71.33 48" fill="none" stroke="#111" stroke-width="1.6" stroke-linecap="round"/><path d="M 71.33 10.67 Q 83.19 17.48 90 29.33" fill="none" stroke="#111" stroke-width="1.6" stroke-linecap="round"/><polyline points="71.33,10.67 43.33,10.67" fill="none" stroke="#111" stroke-width="1.6" stroke-linecap="round" stroke-linejoin="round"/><polyline points="71.33,48 43.33,48" fill="none" stroke="#111" stroke-width="1.6" stroke-linecap="round" stroke-linejoin="round"/></svg>