<svg xmlns="http://www.w3.org/2000/svg" width="96" height="64" viewBox="0 0 96 64"><path d="M 12.21 6 Q 16.52 10.33 12.21 14.67" fill="none" stroke="#111" stroke-width="1.6" stroke-linecap="round"/><path d="M 12.21 18.38 Q 16.52 22.71 12.21 27.05" fill="none" stroke="#111" stroke-width="1.6" stroke-linecap="round"/><path d="M 12.21 36.95 Q 16.52 41.29 12.21 45.62" fill="none" stroke="#111" stroke-width="1.6" stroke-linecap="round"/><path d="M 12.21 49.33 Q 16.52 53.67 12.21 58" fill="none" stroke="#111" stroke-width="1.6" stroke-linecap="round"/><polyline points="12.21,6 7.88,6 7.88,14.67 12.21,14.67" fill="none" stroke="#111" stroke-width="1.6" stroke-linecap="round" stroke-linejoin="round"/><polyline points="12.21,18.38 7.88,18.38 7.88,27.05 12.21,27.05" fill="none" stroke="#111" stroke-width="1.6" stroke-linecap="round" stroke-linejoin="round"/><polyline points="12.21,36.95 7.88,36.95 7.88,45.62 12.21,45.62" fill="none" stroke="#111" stroke-width="1.6" stroke-linecap="round" stroke-linejoin="round"/><polyline points="12.21,49.33 7.88,49.33 7.88,58 12.21,58" fill="none" stroke="#111" stroke-width="1.6" stroke-linecap="round" stroke-linejoin="round"/><polyline points="19.62,29.21 22.1,29.21" fill="none" stroke="#111" stroke-width="1.6" stroke-linecap="round" stroke-linejoin="round"/><polyline points="19.62,29.21 19.62,10.33 16.52,10.33" fill="none" stroke="#111" stroke-width="1.6" stroke-linecap="round" stroke-linejoin="round"/><polyline points="19.62,34.79 22.1,34.79" fill="none" stroke="#111" stroke-width="1.6" stroke-linecap="round" stroke-linejoin="round"/><polyline points="19.62,34.79 19.62,53.67 16.52,53.67" fill="none" stroke="#111" stroke-width="1.6" stroke-linecap="round" stroke-linejoin="round"/><polyline points="21.17,27.67 25.19,27.67" fill="none" stroke="#111" stroke-width="1.6" stroke-linecap="round" stroke-linejoin="round"/><polyline points="21.17,36.33 25.19,36.33" fill="none" stroke="#111" stroke-width="1.6" stroke-linecap="round" stroke-linejoin="round"/><polyline points="22.71,31.07 18.38,31.07 18.38,22.71 16.52,22.71" fill="none" stroke="#111" stroke-width="1.6" stroke-linecap="round" stroke-linejoin="round"/><polyline points="22.71,32.93 18.38,32.93 18.38,41.29 16.52,41.29" fill="none" stroke="#111" stroke-width="1.6" stroke-linecap="round" stroke-linejoin="round"/><path d="M 25.19 27.67 Q 28.65 28.97 30.76 32" fill="none" stroke="#111" stroke-width="1.6" stroke-linecap="round"/><path d="M 30.76 32 Q 28.66 35.04 25.19 36.33" fill="none" stroke="#111" stroke-width="1.6" stroke-linecap="round"/><polyline points="25.19,36.33 21.17,36.33 22.1,35.1 22.71,33.86 23.02,32.62 23.02,32 23.02,31.38 22.71,30.14 22.1,28.9 21.17,27.67 25.19,27.67" fill="none" stroke="#111" stroke-width="1.6" stroke-linecap="round" stroke-linejoin="round"/><polyline points="6,7.24 7.86,7.24" fill="none" stroke="#111" stroke-width="1.6" stroke-linecap="round" stroke-linejoin="round"/><polyline points="6,13.43 7.86,13.43" fill="none" stroke="#111" stroke-width="1.6" stroke-linecap="round" stroke-linejoin="round"/><polyline points="6,19.62 7.86,19.62" fill="none" stroke="#111" stroke-width="1.6" stroke-linecap="round" stroke-linejoin="round"/><polyline points="6,25.81 7.86,25.81" fill="none" stroke="#111" stroke-width="1.6" stroke-linecap="round" stroke-linejoin="round"/><polyline points="6,38.19 7.86,38.19" fill="none" stroke="#111" stroke-width="1.6" stroke-linecap="round" stroke-linejoin="round"/><polyline points="6,44.38 7.86,44.38" fill="none" stroke="#111" stroke-width="1.6" stroke-linecap="round" stroke-linejoin="round"/><polyline points="6,50.57 7.86,50.57" fill="none" stroke="#111" stroke-width="1.6" stroke-linecap="round" stroke-linejoin="round"/><polyline points="6,56.76 7.86,56.76" fill="none" stroke="#111" stroke-width="1.6" stroke-linecap="round" stroke-linejoin="round"/><path d="M 21.17 27.67 Q 22.96 32 21.17 36.33" fill="none" stroke="#111" stroke-width="1.6" stroke-linecap="round"/><rect x="9.1" y="16.52" width="12.38" height="30.96" fill="none" stroke="#111" stroke-width="1.6"/></svg>