<svg xmlns="http://www.w3.org/2000/svg" width="96" height="64" viewBox="0 0 96 64"><rect x="6" y="6" width="1.1" height="51.67" fill="none" stroke="#111" stroke-width="1.6"/><rect x="6" y="6.49" width="0.55" height="0.11" fill="none" stroke="#111" stroke-width="1.6"/><rect x="6" y="7.59" width="0.55" height="0.11" fill="none" stroke="#111" stroke-width="1.6"/><rect x="6" y="8.69" width="0.55" height="0.11" fill="none" stroke="#111" stroke-width="1.6"/><rect x="6" y="9.79" width="0.55" height="0.11" fill="none" stroke="#111" stroke-width="1.6"/><rect x="6" y="10.89" width="0.55" height="0.11" fill="none" stroke="#111" stroke-width="1.6"/><rect x="6" y="11.99" width="0.55" height="0.11" fill="none" stroke="#111" stroke-width="1.6"/><rect x="6" y="13.09" width="0.55" height="0.11" fill="none" stroke="#111" stroke-width="1.6"/><rect x="6" y="14.19" width="0.55" height="0.11" fill="none" stroke="#111" stroke-width="1.6"/><rect x="6" y="15.29" width="0.55" height="0.11" fill="none" stroke="#111" stroke-width="1.6"/><rect x="6" y="16.39" width="0.55" height="0.11" fill="none" stroke="#111" stroke-width="1.6"/><rect x="6" y="17.49" width="0.55" height="0.11" fill="none" stroke="#111" stroke-width="1.6"/><rect x="6" y="18.59" width="0.55" height="0.11" fill="none" stroke="#111" stroke-width="1.6"/><rect x="6" y="19.69" width="0.55" height="0.11" fill="none" stroke="#111" stroke-width="1.6"/><rect x="6" y="20.79" width="0.55" height="0.11" fill="none" stroke="#111" stroke-width="1.6"/><rect x="6" y="21.89" width="0.55" height="0.11" fill="none" stroke="#111" stroke-width="1.6"/><rect x="6" y="22.99" width="0.55" height="0.11" fill="none" stroke="#111" stroke-width="1.6"/><rect x="6" y="24.08" width="0.55" height="0.11" fill="none" stroke="#111" stroke-width="1.6"/><rect x="6" y="25.18" width="0.55" height="0.11" fill="none" stroke="#111" stroke-width="1.6"/><rect x="6" y="26.28" width="0.55" height="0.11" fill="none" stroke="#111" stroke-width="1.6"/><rect x="6" y="27.38" width="0.55" height="0.11" fill="none" stroke="#111" stroke-width="1.6"/><rect x="6" y="28.48" width="0.55" height="0.11" fill="none" stroke="#111" stroke-width="1.6"/><rect x="6" y="29.58" width="0.55" height="0.11" fill="none" stroke="#111" stroke-width="1.6"/><rect x="6" y="30.68" width="0.55" height="0.11" fill="none" stroke="#111" stroke-width="1.6"/><rect x="6" y="31.78" width="0.55" height="0.11" fill="none" stroke="#111" stroke-width="1.6"/><rect x="6" y="32.88" width="0.55" height="0.11" fill="none" stroke="#111" stroke-width="1.6"/><rect x="6" y="33.98" width="0.55" height="0.11" fill="none" stroke="#111" stroke-width="1.6"/><rect x="6" y="35.08" width="0.55" height="0.11" fill="none" stroke="#111" stroke-width="1.6"/><rect x="6" y="36.18" width="0.55" height="0.11" fill="none" stroke="#111" stroke-width="1.6"/><rect x="6" y="37.28" width="0.55" height="0.11" fill="none" stroke="#111" stroke-width="1.6"/><rect x="6" y="38.38" width="0.55" height="0.11" fill="none" stroke="#111" stroke-width="1.6"/><rect x="6" y="39.48" width="0.55" height="0.11" fill="none" stroke="#111" stroke-width="1.6"/><rect x="6" y="40.58" width="0.55" height="0.1" fill="none" stroke="#111" stroke-width="1.6"/><rect x="6" y="41.67" width="0.55" height="0.11" fill="none" stroke="#111" stroke-width="1.6"/><rect x="6" y="42.77" width="0.55" height="0.11" fill="none" stroke="#111" stroke-width="1.6"/><rect x="6" y="43.87" width="0.55" height="0.11" fill="none" stroke="#111" stroke-width="1.6"/><rect x="6" y="44.97" width="0.55" height="0.11" fill="none" stroke="#111" stroke-width="1.6"/><rect x="6" y="46.07" width="0.55" height="0.11" fill="none" stroke="#111" stroke-width="1.6"/><rect x="6" y="47.17" width="0.55" height="0.11" fill="none" stroke="#111" stroke-width="1.6"/><rect x="6" y="48.27" width="0.55" height="0.11" fill="none" stroke="#111" stroke-width="1.6"/><rect x="6" y="49.37" width="0.55" height="0.11" fill="none" stroke="#111" stroke-width="1.6"/><rect x="6" y="50.47" width="0.55" height="0.11" fill="none" stroke="#111" stroke-width="1.6"/><rect x="6" y="51.57" width="0.55" height="0.11" fill="none" stroke="#111" stroke-width="1.6"/><rect x="6" y="52.67" width="0.55" height="0.11" fill="none" stroke="#111" stroke-width="1.6"/><rect x="6" y="53.77" width="0.55" height="0.11" fill="none" stroke="#111" stroke-width="1.6"/><rect x="6" y="54.87" width="0.55" height="0.11" fill="none" stroke="#111" stroke-width="1.6"/><rect x="6" y="55.97" width="0.55" height="0.11" fill="none" stroke="#111" stroke-width="1.6"/><rect x="6" y="57.07" width="0.55" height="0.11" fill="none" stroke="#111" stroke-width="1.6"/><polyline points="6.11,58 6.99,58" fill="none" stroke="#111" stroke-width="1.6" stroke-linecap="round" stroke-linejoin="round"/></svg>