<svg xmlns="http://www.w3.org/2000/svg" width="96" height="64" viewBox="0 0 96 64"><polyline points="15.48,9.06 18.24,9.06 18.24,9.67" fill="none" stroke="#111" stroke-width="1.6" stroke-linecap="round" stroke-linejoin="round"/><polyline points="15.48,15.18 18.24,15.18 18.24,15.79" fill="none" stroke="#111" stroke-width="1.6" stroke-linecap="round" stroke-linejoin="round"/><polyline points="15.48,18.24 18.24,18.24 18.24,17.47" fill="none" stroke="#111" stroke-width="1.6" stroke-linecap="round" stroke-linejoin="round"/><polyline points="18.24,11.35 18.24,12.12 15.48,12.12" fill="none" stroke="#111" stroke-width="1.6" stroke-linecap="round" stroke-linejoin="round"/><polyline points="22.82,27.41 22.82,45.76" fill="none" stroke="#111" stroke-width="1.6" stroke-linecap="round" stroke-linejoin="round"/><polyline points="24.35,48.82 24.35,36.59" fill="none" stroke="#111" stroke-width="1.6" stroke-linecap="round" stroke-linejoin="round"/><polyline points="25.88,51.88 25.88,27.41" fill="none" stroke="#111" stroke-width="1.6" stroke-linecap="round" stroke-linejoin="round"/><polyline points="27.41,54.94 27.41,36.59" fill="none" stroke="#111" stroke-width="1.6" stroke-linecap="round" stroke-linejoin="round"/><polyline points="28.94,27.41 25.88,27.41" fill="none" stroke="#111" stroke-width="1.6" stroke-linecap="round" stroke-linejoin="round"/><circle cx="28.94" cy="27.41" r="0.31" fill="none" stroke="#111" stroke-width="1.6"/><polyline points="28.94,36.59 27.41,36.59" fill="none" stroke="#111" stroke-width="1.6" stroke-linecap="round" stroke-linejoin="round"/><circle cx="28.94" cy="36.59" r="0.31" fill="none" stroke="#111" stroke-width="1.6"/><polyline points="29.71,26.65 28.94,26.65 28.94,28.18 29.71,28.18" fill="none" stroke="#111" stroke-width="1.6" stroke-linecap="round" stroke-linejoin="round"/><polyline points="29.71,35.82 28.94,35.82 28.94,37.35 29.71,37.35" fill="none" stroke="#111" stroke-width="1.6" stroke-linecap="round" stroke-linejoin="round"/><rect x="6" y="6" width="42.82" height="52" fill="none" stroke="#111" stroke-width="1.6"/><polyline points="12.12,45.76 22.82,45.76" fill="none" stroke="#111" stroke-width="1.6" stroke-linecap="round" stroke-linejoin="round"/><polyline points="12.12,48.82 24.35,48.82" fill="none" stroke="#111" stroke-width="1.6" stroke-linecap="round" stroke-linejoin="round"/><polyline points="12.12,51.88 25.88,51.88" fill="none" stroke="#111" stroke-width="1.6" stroke-linecap="round" stroke-linejoin="round"/><polyline points="12.12,54.94 27.41,54.94" fill="none" stroke="#111" stroke-width="1.6" stroke-linecap="round" stroke-linejoin="round"/><path d="M 13.65 24.35 Q 14.41 25.12 13.65 25.88" fill="none" stroke="#111" stroke-width="1.6" stroke-linecap="round"/><path d="M 13.65 25.88 Q 14.41 26.65 13.65 27.41" fill="none" stroke="#111" stroke-width="1.6" stroke-linecap="round"/><path d="M 13.65 27.41 Q 14.41 28.18 13.65 28.94" fill="none" stroke="#111" stroke-width="1.6" stroke-linecap="round"/><path d="M 13.65 28.94 Q 14.41 29.71 13.65 30.47" fill="none" stroke="#111" stroke-width="1.6" stroke-linecap="round"/><path d="M 13.65 33.53 Q 14.41 34.29 13.65 35.06" fill="none" stroke="#111" stroke-width="1.6" stroke-linecap="round"/><path d="M 13.65 35.06 Q 14.41 35.82 13.65 36.59" fill="none" stroke="#111" stroke-width="1.6" stroke-linecap="round"/><path d="M 13.65 36.59 Q 14.41 37.35 13.65 38.12" fill="none" stroke="#111" stroke-width="1.6" stroke-linecap="round"/><path d="M 13.65 38.12 Q 14.41 38.88 13.65 39.65" fill="none" stroke="#111" stroke-width="1.6" stroke-linecap="round"/><polyline points="13.65,24.35 12.12,24.35" fill="none" stroke="#111" stroke-width="1.6" stroke-linecap="round" stroke-linejoin="round"/><polyline points="13.65,27.41 12.12,27.41" fill="none" stroke="#111" stroke-width="1.6" stroke-linecap="round" stroke-linejoin="round"/><polyline points="13.65,30.47 12.12,30.47" fill="none" stroke="#111" stroke-width="1.6" stroke-linecap="round" stroke-linejoin="round"/><polyline points="13.65,33.53 12.12,33.53" fill="none" stroke="#111" stroke-width="1.6" stroke-linecap="round" stroke-linejoin="round"/><polyline points="13.65,36.59 12.12,36.59" fill="none" stroke="#111" stroke-width="1.6" stroke-linecap="round" stroke-linejoin="round"/><polyline points="13.65,39.65 12.12,39.65" fill="none" stroke="#111" stroke-width="1.6" stroke-linecap="round" stroke-linejoin="round"/><polyline points="16.71,24.35 18.24,24.35 18.24,25.12" fill="none" stroke="#111" stroke-width="1.6" stroke-linecap="round" stroke-linejoin="round"/><polyline points="16.71,33.53 18.24,33.53 18.24,34.29" fill="none" stroke="#111" stroke-width="1.6" stroke-linecap="round" stroke-linejoin="round"/><path d="M 16.71 25.88 Q 15.94 25.12 16.71 24.35" fill="none" stroke="#111" stroke-width="1.6" stroke-linecap="round"/><path d="M 16.71 27.41 Q 15.94 26.65 16.71 25.88" fill="none" stroke="#111" stroke-width="1.6" stroke-linecap="round"/><path d="M 16.71 28.94 Q 15.94 28.18 16.71 27.41" fill="none" stroke="#111" stroke-width="1.6" stroke-linecap="round"/><path d="M 16.71 30.47 Q 15.94 29.71 16.71 28.94" fill="none" stroke="#111" stroke-width="1.6" stroke-linecap="round"/><path d="M 16.71 35.06 Q 15.94 34.29 16.71 33.53" fill="none" stroke="#111" stroke-width="1.6" stroke-linecap="round"/><path d="M 16.71 36.59 Q 15.94 35.82 16.71 35.06" fill="none" stroke="#111" stroke-width="1.6" stroke-linecap="round"/><path d="M 16.71 38.12 Q 15.94 37.35 16.71 36.59" fill="none" stroke="#111" stroke-width="1.6" stroke-linecap="round"/><path d="M 16.71 39.65 Q 15.94 38.88 16.71 38.12" fill="none" stroke="#111" stroke-width="1.6" stroke-linecap="round"/><polyline points="18.24,29.71 18.24,30.47 16.71,30.47" fill="none" stroke="#111" stroke-width="1.6" stroke-linecap="round" stroke-linejoin="round"/><polyline points="18.24,38.88 18.24,39.65 16.71,39.65" fill="none" stroke="#111" stroke-width="1.6" stroke-linecap="round" stroke-linejoin="round"/><path d="M 19.76 25.12 Q 19 25.88 18.24 25.12" fill="none" stroke="#111" stroke-width="1.6" stroke-linecap="round"/><path d="M 18.24 29.71 Q 19 28.94 19.76 29.71" fill="none" stroke="#111" stroke-width="1.6" stroke-linecap="round"/><path d="M 19.76 34.29 Q 19 35.06 18.24 34.29" fill="none" stroke="#111" stroke-width="1.6" stroke-linecap="round"/><path d="M 18.24 38.88 Q 19 38.12 19.76 38.88" fill="none" stroke="#111" stroke-width="1.6" stroke-linecap="round"/><path d="M 21.29 25.12 Q 20.53 25.88 19.76 25.12" fill="none" stroke="#111" stroke-width="1.6" stroke-linecap="round"/><path d="M 19.76 29.71 Q 20.53 28.94 21.29 29.71" fill="none" stroke="#111" stroke-width="1.6" stroke-linecap="round"/><path d="M 21.29 34.29 Q 20.53 35.06 19.76 34.29" fill="none" stroke="#111" stroke-width="1.6" stroke-linecap="round"/><path d="M 19.76 38.88 Q 20.53 38.12 21.29 38.88" fill="none" stroke="#111" stroke-width="1.6" stroke-linecap="round"/><polyline points="21.29,25.12 29.71,25.12" fill="none" stroke="#111" stroke-width="1.6" stroke-linecap="round" stroke-linejoin="round"/><polyline points="21.29,29.71 29.71,29.71" fill="none" stroke="#111" stroke-width="1.6" stroke-linecap="round" stroke-linejoin="round"/><polyline points="21.29,34.29 29.71,34.29" fill="none" stroke="#111" stroke-width="1.6" stroke-linecap="round" stroke-linejoin="round"/><polyline points="21.29,38.88 29.71,38.88" fill="none" stroke="#111" stroke-width="1.6" stroke-linecap="round" stroke-linejoin="round"/><polyline points="22.82,27.41 16.71,27.41" fill="none" stroke="#111" stroke-width="1.6" stroke-linecap="round" stroke-linejoin="round"/><polyline points="24.35,36.59 16.71,36.59" fill="none" stroke="#111" stroke-width="1.6" stroke-linecap="round" stroke-linejoin="round"/><polyline points="34.83,28.41 34.83,26.88" fill="none" stroke="#111" stroke-width="1.6" stroke-linecap="round" stroke-linejoin="round"/><polyline points="36.36,26.88 36.36,28.41" fill="none" stroke="#111" stroke-width="1.6" stroke-linecap="round" stroke-linejoin="round"/><polyline points="37.89,26.88 37.89,28.41" fill="none" stroke="#111" stroke-width="1.6" stroke-linecap="round" stroke-linejoin="round"/><polyline points="39.57,26.88 39.57,28.41" fill="none" stroke="#111" stroke-width="1.6" stroke-linecap="round" stroke-linejoin="round"/><polyline points="41.1,26.88 41.1,28.41" fill="none" stroke="#111" stroke-width="1.6" stroke-linecap="round" stroke-linejoin="round"/><polyline points="42.63,26.88 42.63,28.41" fill="none" stroke="#111" stroke-width="1.6" stroke-linecap="round" stroke-linejoin="round"/><polyline points="44.16,28.41 44.16,26.88" fill="none" stroke="#111" stroke-width="1.6" stroke-linecap="round" stroke-linejoin="round"/><polyline points="45.69,28.41 45.69,26.88" fill="none" stroke="#111" stroke-width="1.6" stroke-linecap="round" stroke-linejoin="round"/><polyline points="19.15,11.51 17.32,11.51" fill="none" stroke="#111" stroke-width="1.6" stroke-linecap="round" stroke-linejoin="round"/><polyline points="19.15,17.62 17.32,17.62" fill="none" stroke="#111" stroke-width="1.6" stroke-linecap="round" stroke-linejoin="round"/><polyline points="19.31,9.67 17.01,9.67 18.24,11.51 19.31,9.67" fill="none" stroke="#111" stroke-width="1.6" stroke-linecap="round" stroke-linejoin="round"/><polyline points="19.31,10.89 19.92,11.51 19.61,11.51" fill="none" stroke="#111" stroke-width="1.6" stroke-linecap="round" stroke-linejoin="round"/><polyline points="19.31,15.79 17.01,15.79 18.24,17.62 19.31,15.79" fill="none" stroke="#111" stroke-width="1.6" stroke-linecap="round" stroke-linejoin="round"/><polyline points="19.31,17.01 19.92,17.62 19.61,17.62" fill="none" stroke="#111" stroke-width="1.6" stroke-linecap="round" stroke-linejoin="round"/><polyline points="19.61,10.13 20.22,10.74 19.92,10.74" fill="none" stroke="#111" stroke-width="1.6" stroke-linecap="round" stroke-linejoin="round"/><polyline points="19.61,16.25 20.22,16.86 19.92,16.86" fill="none" stroke="#111" stroke-width="1.6" stroke-linecap="round" stroke-linejoin="round"/><polyline points="19.92,11.51 19.92,11.2" fill="none" stroke="#111" stroke-width="1.6" stroke-linecap="round" stroke-linejoin="round"/><polyline points="19.92,17.62 19.92,17.32" fill="none" stroke="#111" stroke-width="1.6" stroke-linecap="round" stroke-linejoin="round"/><polyline points="20.22,10.74 20.22,10.44" fill="none" stroke="#111" stroke-width="1.6" stroke-linecap="round" stroke-linejoin="round"/><polyline points="20.22,16.86 20.22,16.55" fill="none" stroke="#111" stroke-width="1.6" stroke-linecap="round" stroke-linejoin="round"/><polyline points="33.3,26.88 47.22,26.88 47.22,36.36 44.16,36.36 44.16,37.58 42.48,37.58 42.48,39.11 38.04,39.11 38.04,37.58 36.36,37.58 36.36,36.36 33.3,36.36 33.3,26.88" fill="none" stroke="#111" stroke-width="1.6" stroke-linecap="round" stroke-linejoin="round"/></svg>