<svg xmlns="http://www.w3.org/2000/svg" width="96" height="64" viewBox="0 0 96 64"><rect x="6" y="6" width="84" height="18.67" fill="none" stroke="#111" stroke-width="1.6"/><rect x="7.4" y="9.13" width="1.87" height="4.66" fill="none" stroke="#111" stroke-width="1.6"/><polyline points="8.33,6 8.33,9.13" fill="none" stroke="#111" stroke-width="1.6" stroke-linecap="round" stroke-linejoin="round"/><circle cx="8.33" cy="7.59" r="0.47" fill="none" stroke="#111" stroke-width="1.6"/><polyline points="8.33,7.59 17.67,7.59 17.67,9.13" fill="none" stroke="#111" stroke-width="1.6" stroke-linecap="round" stroke-linejoin="round"/><circle cx="8.33" cy="15.33" r="0.47" fill="none" stroke="#111" stroke-width="1.6"/><polyline points="8.33,15.33 11.13,15.33 11.13,16.87" fill="none" stroke="#111" stroke-width="1.6" stroke-linecap="round" stroke-linejoin="round"/><polyline points="8.33,24.67 8.33,13.79" fill="none" stroke="#111" stroke-width="1.6" stroke-linecap="round" stroke-linejoin="round"/><rect x="10.2" y="16.87" width="1.87" height="4.67" fill="none" stroke="#111" stroke-width="1.6"/><polyline points="11.13,21.54 11.13,23.08 87.67,23.08" fill="none" stroke="#111" stroke-width="1.6" stroke-linecap="round" stroke-linejoin="round"/><rect x="16.73" y="9.13" width="1.87" height="4.66" fill="none" stroke="#111" stroke-width="1.6"/><circle cx="17.67" cy="7.59" r="0.47" fill="none" stroke="#111" stroke-width="1.6"/><polyline points="17.67,7.59 27,7.59 27,9.13" fill="none" stroke="#111" stroke-width="1.6" stroke-linecap="round" stroke-linejoin="round"/><circle cx="17.67" cy="15.33" r="0.47" fill="none" stroke="#111" stroke-width="1.6"/><polyline points="17.67,15.33 20.47,15.33 20.47,16.87" fill="none" stroke="#111" stroke-width="1.6" stroke-linecap="round" stroke-linejoin="round"/><polyline points="17.67,24.67 17.67,13.79" fill="none" stroke="#111" stroke-width="1.6" stroke-linecap="round" stroke-linejoin="round"/><rect x="19.53" y="16.87" width="1.87" height="4.67" fill="none" stroke="#111" stroke-width="1.6"/><polyline points="20.47,21.54 20.47,23.08 87.67,23.08" fill="none" stroke="#111" stroke-width="1.6" stroke-linecap="round" stroke-linejoin="round"/><circle cx="20.47" cy="23.08" r="0.47" fill="none" stroke="#111" stroke-width="1.6"/><rect x="26.07" y="9.13" width="1.86" height="4.66" fill="none" stroke="#111" stroke-width="1.6"/><circle cx="27" cy="7.59" r="0.47" fill="none" stroke="#111" stroke-width="1.6"/><polyline points="27,7.59 36.33,7.59 36.33,9.13" fill="none" stroke="#111" stroke-width="1.6" stroke-linecap="round" stroke-linejoin="round"/><circle cx="27" cy="15.33" r="0.47" fill="none" stroke="#111" stroke-width="1.6"/><polyline points="27,15.33 29.8,15.33 29.8,16.87" fill="none" stroke="#111" stroke-width="1.6" stroke-linecap="round" stroke-linejoin="round"/><polyline points="27,24.67 27,13.79" fill="none" stroke="#111" stroke-width="1.6" stroke-linecap="round" stroke-linejoin="round"/><rect x="28.87" y="16.87" width="1.86" height="4.67" fill="none" stroke="#111" stroke-width="1.6"/><polyline points="29.8,21.54 29.8,23.08 87.67,23.08" fill="none" stroke="#111" stroke-width="1.6" stroke-linecap="round" stroke-linejoin="round"/><circle cx="29.8" cy="23.08" r="0.47" fill="none" stroke="#111" stroke-width="1.6"/><rect x="35.4" y="9.13" width="1.87" height="4.66" fill="none" stroke="#111" stroke-width="1.6"/><circle cx="36.33" cy="7.59" r="0.47" fill="none" stroke="#111" stroke-width="1.6"/><polyline points="36.33,7.59 45.67,7.59 45.67,9.13" fill="none" stroke="#111" stroke-width="1.6" stroke-linecap="round" stroke-linejoin="round"/><circle cx="36.33" cy="15.33" r="0.47" fill="none" stroke="#111" stroke-width="1.6"/><polyline points="36.33,15.33 39.13,15.33 39.13,16.87" fill="none" stroke="#111" stroke-width="1.6" stroke-linecap="round" stroke-linejoin="round"/><polyline points="36.33,24.67 36.33,13.79" fill="none" stroke="#111" stroke-width="1.6" stroke-linecap="round" stroke-linejoin="round"/><rect x="38.2" y="16.87" width="1.87" height="4.67" fill="none" stroke="#111" stroke-width="1.6"/><polyline points="39.13,21.54 39.13,23.08 87.67,23.08" fill="none" stroke="#111" stroke-width="1.6" stroke-linecap="round" stroke-linejoin="round"/><circle cx="39.13" cy="23.08" r="0.47" fill="none" stroke="#111" stroke-width="1.6"/><rect x="44.73" y="9.13" width="1.87" height="4.66" fill="none" stroke="#111" stroke-width="1.6"/><circle cx="45.67" cy="7.59" r="0.47" fill="none" stroke="#111" stroke-width="1.6"/><polyline points="45.67,7.59 55,7.59 55,9.13" fill="none" stroke="#111" stroke-width="1.6" stroke-linecap="round" stroke-linejoin="round"/><polyline points="45.67,15.33 48.47,15.33 48.47,16.87" fill="none" stroke="#111" stroke-width="1.6" stroke-linecap="round" stroke-linejoin="round"/><circle cx="45.67" cy="15.33" r="0.47" fill="none" stroke="#111" stroke-width="1.6"/><polyline points="45.67,24.67 45.67,13.79" fill="none" stroke="#111" stroke-width="1.6" stroke-linecap="round" stroke-linejoin="round"/><rect x="47.53" y="16.87" width="1.87" height="4.67" fill="none" stroke="#111" stroke-width="1.6"/><polyline points="48.47,21.54 48.47,23.08 87.67,23.08" fill="none" stroke="#111" stroke-width="1.6" stroke-linecap="round" stroke-linejoin="round"/><circle cx="48.47" cy="23.08" r="0.47" fill="none" stroke="#111" stroke-width="1.6"/><rect x="54.07" y="9.13" width="1.86" height="4.66" fill="none" stroke="#111" stroke-width="1.6"/><polyline points="55,7.59 64.33,7.59 64.33,9.13" fill="none" stroke="#111" stroke-width="1.6" stroke-linecap="round" stroke-linejoin="round"/><circle cx="55" cy="7.59" r="0.47" fill="none" stroke="#111" stroke-width="1.6"/><polyline points="55,15.33 57.8,15.33 57.8,16.87" fill="none" stroke="#111" stroke-width="1.6" stroke-linecap="round" stroke-linejoin="round"/><circle cx="55" cy="15.33" r="0.47" fill="none" stroke="#111" stroke-width="1.6"/><polyline points="55,24.67 55,13.79" fill="none" stroke="#111" stroke-width="1.6" stroke-linecap="round" stroke-linejoin="round"/><rect x="56.87" y="16.87" width="1.86" height="4.67" fill="none" stroke="#111" stroke-width="1.6"/><polyline points="57.8,21.54 57.8,23.08 87.67,23.08" fill="none" stroke="#111" stroke-width="1.6" stroke-linecap="round" stroke-linejoin="round"/><circle cx="57.8" cy="23.08" r="0.47" fill="none" stroke="#111" stroke-width="1.6"/><rect x="63.4" y="9.13" width="1.87" height="4.66" fill="none" stroke="#111" stroke-width="1.6"/><polyline points="64.33,7.59 73.67,7.59 73.67,9.13" fill="none" stroke="#111" stroke-width="1.6" stroke-linecap="round" stroke-linejoin="round"/><circle cx="64.33" cy="7.59" r="0.47" fill="none" stroke="#111" stroke-width="1.6"/><polyline points="64.33,15.33 67.13,15.33 67.13,16.87" fill="none" stroke="#111" stroke-width="1.6" stroke-linecap="round" stroke-linejoin="round"/><circle cx="64.33" cy="15.33" r="0.47" fill="none" stroke="#111" stroke-width="1.6"/><polyline points="64.33,24.67 64.33,13.79" fill="none" stroke="#111" stroke-width="1.6" stroke-linecap="round" stroke-linejoin="round"/><rect x="66.2" y="16.87" width="1.87" height="4.67" fill="none" stroke="#111" stroke-width="1.6"/><polyline points="67.13,21.54 67.13,23.08 87.67,23.08" fill="none" stroke="#111" stroke-width="1.6" stroke-linecap="round" stroke-linejoin="round"/><circle cx="67.13" cy="23.08" r="0.47" fill="none" stroke="#111" stroke-width="1.6"/><rect x="72.73" y="9.13" width="1.87" height="4.66" fill="none" stroke="#111" stroke-width="1.6"/><polyline points="73.67,7.59 83,7.59 83,9.13" fill="none" stroke="#111" stroke-width="1.6" stroke-linecap="round" stroke-linejoin="round"/><circle cx="73.67" cy="7.59" r="0.47" fill="none" stroke="#111" stroke-width="1.6"/><polyline points="73.67,15.33 76.47,15.33 76.47,16.87" fill="none" stroke="#111" stroke-width="1.6" stroke-linecap="round" stroke-linejoin="round"/><circle cx="73.67" cy="15.33" r="0.47" fill="none" stroke="#111" stroke-width="1.6"/><polyline points="73.67,24.67 73.67,13.79" fill="none" stroke="#111" stroke-width="1.6" stroke-linecap="round" stroke-linejoin="round"/><rect x="75.53" y="16.87" width="1.87" height="4.67" fill="none" stroke="#111" stroke-width="1.6"/><polyline points="76.47,21.54 76.47,23.08 87.67,23.08" fill="none" stroke="#111" stroke-width="1.6" stroke-linecap="round" stroke-linejoin="round"/><circle cx="76.47" cy="23.08" r="0.47" fill="none" stroke="#111" stroke-width="1.6"/><rect x="82.07" y="9.13" width="1.86" height="4.66" fill="none" stroke="#111" stroke-width="1.6"/><polyline points="83,15.33 85.8,15.33 85.8,16.87" fill="none" stroke="#111" stroke-width="1.6" stroke-linecap="round" stroke-linejoin="round"/><circle cx="83" cy="15.33" r="0.47" fill="none" stroke="#111" stroke-width="1.6"/><polyline points="83,24.67 83,13.79" fill="none" stroke="#111" stroke-width="1.6" stroke-linecap="round" stroke-linejoin="round"/><rect x="84.87" y="16.87" width="1.86" height="4.67" fill="none" stroke="#111" stroke-width="1.6"/><polyline points="85.8,21.54 85.8,23.08 87.67,23.08" fill="none" stroke="#111" stroke-width="1.6" stroke-linecap="round" stroke-linejoin="round"/><circle cx="85.8" cy="23.08" r="0.47" fill="none" stroke="#111" stroke-width="1.6"/><polyline points="87.67,23.08 87.67,6" fill="none" stroke="#111" stroke-width="1.6" stroke-linecap="round" stroke-linejoin="round"/></svg>