<svg xmlns="http://www.w3.org/2000/svg" width="96" height="64" viewBox="0 0 96 64"><rect x="6" y="34.89" width="5.78" height="11.55" fill="none" stroke="#111" stroke-width="1.6"/><polyline points="23.33,34.89 26.22,37.78 29.11,34.89 34.89,34.89" fill="none" stroke="#111" stroke-width="1.6" stroke-linecap="round" stroke-linejoin="round"/><polyline points="26.22,12.93 27.38,15.24" fill="none" stroke="#111" stroke-width="1.6" stroke-linecap="round" stroke-linejoin="round"/><polyline points="31.42,36.04 32.58,38.36" fill="none" stroke="#111" stroke-width="1.6" stroke-linecap="round" stroke-linejoin="round"/><rect x="11.78" y="6" width="23.11" height="52" fill="none" stroke="#111" stroke-width="1.6"/><polyline points="34.89,11.78 20.44,11.78 20.44,34.89 17.56,37.78 14.67,34.89" fill="none" stroke="#111" stroke-width="1.6" stroke-linecap="round" stroke-linejoin="round"/><polyline points="34.89,23.33 40.67,23.33" fill="none" stroke="#111" stroke-width="1.6" stroke-linecap="round" stroke-linejoin="round"/><polyline points="34.89,23.33 26.22,23.33 26.22,12.93 25.07,15.24" fill="none" stroke="#111" stroke-width="1.6" stroke-linecap="round" stroke-linejoin="round"/><polyline points="34.89,46.44 40.67,46.44" fill="none" stroke="#111" stroke-width="1.6" stroke-linecap="round" stroke-linejoin="round"/><polyline points="34.89,46.44 31.42,46.44 31.42,36.04 30.27,38.36" fill="none" stroke="#111" stroke-width="1.6" stroke-linecap="round" stroke-linejoin="round"/><polyline points="40.67,11.78 34.89,11.78" fill="none" stroke="#111" stroke-width="1.6" stroke-linecap="round" stroke-linejoin="round"/><polyline points="40.67,34.89 34.89,34.89" fill="none" stroke="#111" stroke-width="1.6" stroke-linecap="round" stroke-linejoin="round"/></svg>