<svg xmlns="http://www.w3.org/2000/svg" width="96" height="64" viewBox="0 0 96 64"><rect x="6" y="6" width="23.11" height="52" fill="none" stroke="#111" stroke-width="1.6"/><polyline points="8.89,29.11 11.78,29.11 11.78,30.56 13.22,30.56" fill="none" stroke="#111" stroke-width="1.6" stroke-linecap="round" stroke-linejoin="round"/><path d="M 12.93 29.98 Q 13.51 32 12.93 34.02" fill="none" stroke="#111" stroke-width="1.6" stroke-linecap="round"/><polyline points="12.36,10.91 12.36,15.53 16.4,13.22 12.36,10.91" fill="none" stroke="#111" stroke-width="1.6" stroke-linecap="round" stroke-linejoin="round"/><polyline points="12.64,33.44 11.78,33.44 11.78,34.89 8.89,34.89" fill="none" stroke="#111" stroke-width="1.6" stroke-linecap="round" stroke-linejoin="round"/><circle cx="12.93" cy="33.44" r="0.29" fill="none" stroke="#111" stroke-width="1.6"/><polyline points="12.93,34.02 14.96,34.02" fill="none" stroke="#111" stroke-width="1.6" stroke-linecap="round" stroke-linejoin="round"/><path d="M 16.98 32 Q 16.26 33.31 14.96 34.02" fill="none" stroke="#111" stroke-width="1.6" stroke-linecap="round"/><path d="M 14.96 29.98 Q 16.26 30.69 16.98 32" fill="none" stroke="#111" stroke-width="1.6" stroke-linecap="round"/><polyline points="14.96,29.98 12.93,29.98" fill="none" stroke="#111" stroke-width="1.6" stroke-linecap="round" stroke-linejoin="round"/><polyline points="16.4,13.22 20.44,13.22" fill="none" stroke="#111" stroke-width="1.6" stroke-linecap="round" stroke-linejoin="round"/><polyline points="16.4,21.89 20.44,21.89" fill="none" stroke="#111" stroke-width="1.6" stroke-linecap="round" stroke-linejoin="round"/><polyline points="16.4,42.11 20.44,42.11" fill="none" stroke="#111" stroke-width="1.6" stroke-linecap="round" stroke-linejoin="round"/><polyline points="16.4,50.78 20.44,50.78" fill="none" stroke="#111" stroke-width="1.6" stroke-linecap="round" stroke-linejoin="round"/><polyline points="16.98,32 17.56,32" fill="none" stroke="#111" stroke-width="1.6" stroke-linecap="round" stroke-linejoin="round"/><circle cx="17.56" cy="24.78" r="0.29" fill="none" stroke="#111" stroke-width="1.6"/><polyline points="17.56,24.78 17.56,32" fill="none" stroke="#111" stroke-width="1.6" stroke-linecap="round" stroke-linejoin="round"/><polyline points="17.56,24.78 14.38,24.78 14.38,23.04" fill="none" stroke="#111" stroke-width="1.6" stroke-linecap="round" stroke-linejoin="round"/><polyline points="17.56,24.78 17.56,16.11 14.38,16.11 14.38,14.38" fill="none" stroke="#111" stroke-width="1.6" stroke-linecap="round" stroke-linejoin="round"/><polyline points="17.56,32 17.56,47.89" fill="none" stroke="#111" stroke-width="1.6" stroke-linecap="round" stroke-linejoin="round"/><circle cx="17.56" cy="32" r="0.29" fill="none" stroke="#111" stroke-width="1.6"/><polyline points="17.56,39.22 14.38,39.22 14.38,40.96" fill="none" stroke="#111" stroke-width="1.6" stroke-linecap="round" stroke-linejoin="round"/><circle cx="17.56" cy="39.22" r="0.29" fill="none" stroke="#111" stroke-width="1.6"/><polyline points="17.56,47.89 14.38,47.89 14.38,49.62" fill="none" stroke="#111" stroke-width="1.6" stroke-linecap="round" stroke-linejoin="round"/><polyline points="20.44,11.78 24.78,11.78" fill="none" stroke="#111" stroke-width="1.6" stroke-linecap="round" stroke-linejoin="round"/><polyline points="20.44,15.39 20.44,11.06" fill="none" stroke="#111" stroke-width="1.6" stroke-linecap="round" stroke-linejoin="round"/><polyline points="20.44,20.44 24.78,20.44" fill="none" stroke="#111" stroke-width="1.6" stroke-linecap="round" stroke-linejoin="round"/><polyline points="20.44,24.06 20.44,19.72" fill="none" stroke="#111" stroke-width="1.6" stroke-linecap="round" stroke-linejoin="round"/><polyline points="20.44,40.67 24.78,40.67" fill="none" stroke="#111" stroke-width="1.6" stroke-linecap="round" stroke-linejoin="round"/><polyline points="20.44,44.28 20.44,39.94" fill="none" stroke="#111" stroke-width="1.6" stroke-linecap="round" stroke-linejoin="round"/><polyline points="20.44,49.33 24.78,49.33" fill="none" stroke="#111" stroke-width="1.6" stroke-linecap="round" stroke-linejoin="round"/><polyline points="20.44,52.94 20.44,48.61" fill="none" stroke="#111" stroke-width="1.6" stroke-linecap="round" stroke-linejoin="round"/><circle cx="20.88" cy="14.67" r="0.29" fill="none" stroke="#111" stroke-width="1.6"/><circle cx="20.88" cy="23.33" r="0.29" fill="none" stroke="#111" stroke-width="1.6"/><circle cx="20.88" cy="43.56" r="0.29" fill="none" stroke="#111" stroke-width="1.6"/><circle cx="20.88" cy="52.22" r="0.29" fill="none" stroke="#111" stroke-width="1.6"/><polyline points="24.78,14.67 21.31,14.67" fill="none" stroke="#111" stroke-width="1.6" stroke-linecap="round" stroke-linejoin="round"/><polyline points="24.78,23.33 21.31,23.33" fill="none" stroke="#111" stroke-width="1.6" stroke-linecap="round" stroke-linejoin="round"/><polyline points="24.78,43.56 21.31,43.56" fill="none" stroke="#111" stroke-width="1.6" stroke-linecap="round" stroke-linejoin="round"/><polyline points="24.78,52.22 21.31,52.22" fill="none" stroke="#111" stroke-width="1.6" stroke-linecap="round" stroke-linejoin="round"/><polyline points="10.33,13.22 12.36,13.22" fill="none" stroke="#111" stroke-width="1.6" stroke-linecap="round" stroke-linejoin="round"/><polyline points="10.33,21.89 12.36,21.89" fill="none" stroke="#111" stroke-width="1.6" stroke-linecap="round" stroke-linejoin="round"/><polyline points="10.33,42.11 12.36,42.11" fill="none" stroke="#111" stroke-width="1.6" stroke-linecap="round" stroke-linejoin="round"/><polyline points="10.33,50.78 12.36,50.78" fill="none" stroke="#111" stroke-width="1.6" stroke-linecap="round" stroke-linejoin="round"/><polyline points="12.36,19.58 12.36,24.2 16.4,21.89 12.36,19.58" fill="none" stroke="#111" stroke-width="1.6" stroke-linecap="round" stroke-linejoin="round"/><polyline points="12.36,39.8 12.36,44.42 16.4,42.11 12.36,39.8" fill="none" stroke="#111" stroke-width="1.6" stroke-linecap="round" stroke-linejoin="round"/><polyline points="12.36,48.47 12.36,53.09 16.4,50.78 12.36,48.47" fill="none" stroke="#111" stroke-width="1.6" stroke-linecap="round" stroke-linejoin="round"/></svg>