<svg xmlns="http://www.w3.org/2000/svg" width="96" height="64" viewBox="0 0 96 64"><rect x="19.11" y="56.19" width="0.91" height="1.81" fill="none" stroke="#111" stroke-width="1.6"/><rect x="23.63" y="56.19" width="0.91" height="1.81" fill="none" stroke="#111" stroke-width="1.6"/><rect x="40.37" y="12.33" width="1.8" height="0.9" fill="none" stroke="#111" stroke-width="1.6"/><rect x="40.37" y="21.37" width="1.8" height="0.91" fill="none" stroke="#111" stroke-width="1.6"/><rect x="40.37" y="25.9" width="1.8" height="0.9" fill="none" stroke="#111" stroke-width="1.6"/><rect x="40.37" y="30.42" width="1.8" height="0.9" fill="none" stroke="#111" stroke-width="1.6"/><rect x="40.37" y="34.94" width="1.8" height="0.9" fill="none" stroke="#111" stroke-width="1.6"/><rect x="40.37" y="39.46" width="1.8" height="0.91" fill="none" stroke="#111" stroke-width="1.6"/><rect x="40.37" y="48.5" width="1.8" height="0.91" fill="none" stroke="#111" stroke-width="1.6"/><rect x="40.37" y="53.03" width="1.8" height="0.9" fill="none" stroke="#111" stroke-width="1.6"/><rect x="6" y="6" width="36.17" height="52" fill="none" stroke="#111" stroke-width="1.6"/><polyline points="10.07,17.76 10.07,35.84 14.59,35.84 14.59,26.8 12.33,26.8 12.33,24.54 14.59,24.54 14.59,17.76 10.07,17.76" fill="none" stroke="#111" stroke-width="1.6" stroke-linecap="round" stroke-linejoin="round"/><rect x="11.43" y="19.11" width="1.8" height="4.07" fill="none" stroke="#111" stroke-width="1.6"/><rect x="11.43" y="28.16" width="1.8" height="6.33" fill="none" stroke="#111" stroke-width="1.6"/><circle cx="19.57" cy="28.83" r="1.13" fill="none" stroke="#111" stroke-width="1.6"/><polyline points="21.83,23.18 24.09,18.66 26.35,23.18 21.83,23.18" fill="none" stroke="#111" stroke-width="1.6" stroke-linecap="round" stroke-linejoin="round"/><polyline points="24.09,34.49 28.61,29.97 28.61,27.7" fill="none" stroke="#111" stroke-width="1.6" stroke-linecap="round" stroke-linejoin="round"/><polyline points="24.09,36.75 19.57,32.23 19.57,29.97" fill="none" stroke="#111" stroke-width="1.6" stroke-linecap="round" stroke-linejoin="round"/><polyline points="24.09,41.27 24.09,23.18" fill="none" stroke="#111" stroke-width="1.6" stroke-linecap="round" stroke-linejoin="round"/><circle cx="24.09" cy="41.27" r="2.26" fill="none" stroke="#111" stroke-width="1.6"/><rect x="27.48" y="25.44" width="2.26" height="2.26" fill="none" stroke="#111" stroke-width="1.6"/></svg>