<svg xmlns="http://www.w3.org/2000/svg" width="96" height="64" viewBox="0 0 96 64"><rect x="6" y="6" width="41.6" height="52" fill="none" stroke="#111" stroke-width="1.6"/><rect x="6" y="6" width="41.6" height="52" fill="none" stroke="#111" stroke-width="1.6"/><rect x="6" y="6" width="41.6" height="52" fill="none" stroke="#111" stroke-width="1.6"/><path d="M 29.4 13.8 Q 30.01 16.4 29.4 19" fill="none" stroke="#111" stroke-width="1.6" stroke-linecap="round"/><path d="M 29.4 13.8 Q 30.01 16.4 29.4 19" fill="none" stroke="#111" stroke-width="1.6" stroke-linecap="round"/><polyline points="26.8,13.8 28.1,15.1 26.8,16.4 28.1,17.7 26.8,19 26.8,13.8" fill="none" stroke="#111" stroke-width="1.6" stroke-linecap="round" stroke-linejoin="round"/><polyline points="26.8,13.8 28.1,15.1 26.8,16.4 28.1,17.7 26.8,19 26.8,13.8" fill="none" stroke="#111" stroke-width="1.6" stroke-linecap="round" stroke-linejoin="round"/><path d="M 24.2 13.8 Q 26.8 12.19 29.4 13.8" fill="none" stroke="#111" stroke-width="1.6" stroke-linecap="round"/><path d="M 24.2 13.8 Q 26.8 12.19 29.4 13.8" fill="none" stroke="#111" stroke-width="1.6" stroke-linecap="round"/><path d="M 24.2 13.8 Q 26.8 12.19 29.4 13.8" fill="none" stroke="#111" stroke-width="1.6" stroke-linecap="round"/><polyline points="26.8,16.4 25.5,15.1" fill="none" stroke="#111" stroke-width="1.6" stroke-linecap="round" stroke-linejoin="round"/><polyline points="26.8,16.4 25.5,15.1" fill="none" stroke="#111" stroke-width="1.6" stroke-linecap="round" stroke-linejoin="round"/><polyline points="26.8,16.4 25.5,17.7" fill="none" stroke="#111" stroke-width="1.6" stroke-linecap="round" stroke-linejoin="round"/><polyline points="26.8,16.4 25.5,17.7" fill="none" stroke="#111" stroke-width="1.6" stroke-linecap="round" stroke-linejoin="round"/><path d="M 29.4 19 Q 26.8 20.61 24.2 19" fill="none" stroke="#111" stroke-width="1.6" stroke-linecap="round"/><path d="M 29.4 19 Q 26.8 20.61 24.2 19" fill="none" stroke="#111" stroke-width="1.6" stroke-linecap="round"/><path d="M 29.4 19 Q 26.8 20.61 24.2 19" fill="none" stroke="#111" stroke-width="1.6" stroke-linecap="round"/><path d="M 24.2 19 Q 23.59 16.4 24.2 13.8" fill="none" stroke="#111" stroke-width="1.6" stroke-linecap="round"/><path d="M 24.2 19 Q 23.59 16.4 24.2 13.8" fill="none" stroke="#111" stroke-width="1.6" stroke-linecap="round"/><path d="M 24.2 19 Q 23.59 16.4 24.2 13.8" fill="none" stroke="#111" stroke-width="1.6" stroke-linecap="round"/></svg>