<svg xmlns="http://www.w3.org/2000/svg" width="96" height="64" viewBox="0 0 96 64"><rect x="6" y="6" width="4" height="52" fill="none" stroke="#111" stroke-width="1.6"/><rect x="6" y="6.9" width="1" height="0.2" fill="none" stroke="#111" stroke-width="1.6"/><rect x="6" y="8.9" width="1" height="0.2" fill="none" stroke="#111" stroke-width="1.6"/><rect x="6" y="10.9" width="1" height="0.2" fill="none" stroke="#111" stroke-width="1.6"/><rect x="6" y="12.9" width="1" height="0.2" fill="none" stroke="#111" stroke-width="1.6"/><rect x="6" y="14.9" width="1" height="0.2" fill="none" stroke="#111" stroke-width="1.6"/><rect x="6" y="16.9" width="1" height="0.2" fill="none" stroke="#111" stroke-width="1.6"/><rect x="6" y="18.9" width="1" height="0.2" fill="none" stroke="#111" stroke-width="1.6"/><rect x="6" y="20.9" width="1" height="0.2" fill="none" stroke="#111" stroke-width="1.6"/><rect x="6" y="22.9" width="1" height="0.2" fill="none" stroke="#111" stroke-width="1.6"/><rect x="6" y="24.9" width="1" height="0.2" fill="none" stroke="#111" stroke-width="1.6"/><rect x="6" y="26.9" width="1" height="0.2" fill="none" stroke="#111" stroke-width="1.6"/><rect x="6" y="28.9" width="1" height="0.2" fill="none" stroke="#111" stroke-width="1.6"/><rect x="6" y="30.9" width="1" height="0.2" fill="none" stroke="#111" stroke-width="1.6"/><rect x="6" y="32.9" width="1" height="0.2" fill="none" stroke="#111" stroke-width="1.6"/><rect x="6" y="34.9" width="1" height="0.2" fill="none" stroke="#111" stroke-width="1.6"/><rect x="6" y="36.9" width="1" height="0.2" fill="none" stroke="#111" stroke-width="1.6"/><rect x="6" y="38.9" width="1" height="0.2" fill="none" stroke="#111" stroke-width="1.6"/><rect x="6" y="40.9" width="1" height="0.2" fill="none" stroke="#111" stroke-width="1.6"/><rect x="6" y="42.9" width="1" height="0.2" fill="none" stroke="#111" stroke-width="1.6"/><rect x="6" y="44.9" width="1" height="0.2" fill="none" stroke="#111" stroke-width="1.6"/><rect x="6" y="46.9" width="1" height="0.2" fill="none" stroke="#111" stroke-width="1.6"/><rect x="6" y="48.9" width="1" height="0.2" fill="none" stroke="#111" stroke-width="1.6"/><rect x="6" y="50.9" width="1" height="0.2" fill="none" stroke="#111" stroke-width="1.6"/><rect x="6" y="52.9" width="1" height="0.2" fill="none" stroke="#111" stroke-width="1.6"/><rect x="6" y="54.9" width="1" height="0.2" fill="none" stroke="#111" stroke-width="1.6"/><rect x="6" y="56.9" width="1" height="0.2" fill="none" stroke="#111" stroke-width="1.6"/><rect x="9" y="6.9" width="1" height="0.2" fill="none" stroke="#111" stroke-width="1.6"/><rect x="9" y="8.9" width="1" height="0.2" fill="none" stroke="#111" stroke-width="1.6"/><rect x="9" y="10.9" width="1" height="0.2" fill="none" stroke="#111" stroke-width="1.6"/><rect x="9" y="12.9" width="1" height="0.2" fill="none" stroke="#111" stroke-width="1.6"/><rect x="9" y="14.9" width="1" height="0.2" fill="none" stroke="#111" stroke-width="1.6"/><rect x="9" y="16.9" width="1" height="0.2" fill="none" stroke="#111" stroke-width="1.6"/><rect x="9" y="18.9" width="1" height="0.2" fill="none" stroke="#111" stroke-width="1.6"/><rect x="9" y="20.9" width="1" height="0.2" fill="none" stroke="#111" stroke-width="1.6"/><rect x="9" y="22.9" width="1" height="0.2" fill="none" stroke="#111" stroke-width="1.6"/><rect x="9" y="24.9" width="1" height="0.2" fill="none" stroke="#111" stroke-width="1.6"/><rect x="9" y="26.9" width="1" height="0.2" fill="none" stroke="#111" stroke-width="1.6"/><rect x="9" y="28.9" width="1" height="0.2" fill="none" stroke="#111" stroke-width="1.6"/><rect x="9" y="30.9" width="1" height="0.2" fill="none" stroke="#111" stroke-width="1.6"/><rect x="9" y="32.9" width="1" height="0.2" fill="none" stroke="#111" stroke-width="1.6"/><rect x="9" y="34.9" width="1" height="0.2" fill="none" stroke="#111" stroke-width="1.6"/><rect x="9" y="36.9" width="1" height="0.2" fill="none" stroke="#111" stroke-width="1.6"/><rect x="9" y="38.9" width="1" height="0.2" fill="none" stroke="#111" stroke-width="1.6"/><rect x="9" y="40.9" width="1" height="0.2" fill="none" stroke="#111" stroke-width="1.6"/><rect x="9" y="42.9" width="1" height="0.2" fill="none" stroke="#111" stroke-width="1.6"/><rect x="9" y="44.9" width="1" height="0.2" fill="none" stroke="#111" stroke-width="1.6"/><rect x="9" y="46.9" width="1" height="0.2" fill="none" stroke="#111" stroke-width="1.6"/><rect x="9" y="48.9" width="1" height="0.2" fill="none" stroke="#111" stroke-width="1.6"/><rect x="9" y="50.9" width="1" height="0.2" fill="none" stroke="#111" stroke-width="1.6"/><rect x="9" y="52.9" width="1" height="0.2" fill="none" stroke="#111" stroke-width="1.6"/><rect x="9" y="54.9" width="1" height="0.2" fill="none" stroke="#111" stroke-width="1.6"/><rect x="9" y="56.9" width="1" height="0.2" fill="none" stroke="#111" stroke-width="1.6"/></svg>