<svg xmlns="http://www.w3.org/2000/svg" width="96" height="64" viewBox="0 0 96 64"><rect x="6" y="6" width="34.67" height="52" fill="none" stroke="#111" stroke-width="1.6"/><polyline points="6,40.67 9.9,40.67 9.9,23.33 6,23.33" fill="none" stroke="#111" stroke-width="1.6" stroke-linecap="round" stroke-linejoin="round"/><polyline points="7.73,34.17 12.07,34.17" fill="none" stroke="#111" stroke-width="1.6" stroke-linecap="round" stroke-linejoin="round"/><polyline points="9.9,34.17 7.73,29.83 12.07,29.83 9.9,34.17" fill="none" stroke="#111" stroke-width="1.6" stroke-linecap="round" stroke-linejoin="round"/><polyline points="13.8,30.27 18.13,30.27 16.83,30.7 16.83,29.83 18.13,30.27" fill="none" stroke="#111" stroke-width="1.6" stroke-linecap="round" stroke-linejoin="round"/><polyline points="13.8,33.73 18.13,33.73 16.83,34.17 16.83,33.3 18.13,33.73" fill="none" stroke="#111" stroke-width="1.6" stroke-linecap="round" stroke-linejoin="round"/><polyline points="24.2,34.17 26.37,38.5 22.03,38.5 24.2,34.17" fill="none" stroke="#111" stroke-width="1.6" stroke-linecap="round" stroke-linejoin="round"/><polyline points="26.37,34.17 22.03,34.17" fill="none" stroke="#111" stroke-width="1.6" stroke-linecap="round" stroke-linejoin="round"/><polyline points="27.67,40.67 24.2,40.67 24.2,14.67 32,14.67" fill="none" stroke="#111" stroke-width="1.6" stroke-linecap="round" stroke-linejoin="round"/><polyline points="28.1,37.2 28.1,44.13" fill="none" stroke="#111" stroke-width="1.6" stroke-linecap="round" stroke-linejoin="round"/><polyline points="28.1,40.23 32,36.33" fill="none" stroke="#111" stroke-width="1.6" stroke-linecap="round" stroke-linejoin="round"/><polyline points="28.1,41.1 32,45" fill="none" stroke="#111" stroke-width="1.6" stroke-linecap="round" stroke-linejoin="round"/><polyline points="31.57,44.57 30.7,42.83 29.83,43.7 31.57,44.57" fill="none" stroke="#111" stroke-width="1.6" stroke-linecap="round" stroke-linejoin="round"/><polyline points="32,36.33 32,14.67 40.67,14.67" fill="none" stroke="#111" stroke-width="1.6" stroke-linecap="round" stroke-linejoin="round"/><polyline points="32,45 34.17,45" fill="none" stroke="#111" stroke-width="1.6" stroke-linecap="round" stroke-linejoin="round"/><polyline points="35.03,41.53 35.03,48.47" fill="none" stroke="#111" stroke-width="1.6" stroke-linecap="round" stroke-linejoin="round"/><polyline points="35.03,44.57 38.93,40.67" fill="none" stroke="#111" stroke-width="1.6" stroke-linecap="round" stroke-linejoin="round"/><polyline points="35.03,45.43 38.93,49.33" fill="none" stroke="#111" stroke-width="1.6" stroke-linecap="round" stroke-linejoin="round"/><polyline points="38.5,48.9 37.63,47.17 36.77,48.03 38.5,48.9" fill="none" stroke="#111" stroke-width="1.6" stroke-linecap="round" stroke-linejoin="round"/><polyline points="38.93,40.67 40.67,40.67" fill="none" stroke="#111" stroke-width="1.6" stroke-linecap="round" stroke-linejoin="round"/><polyline points="38.93,49.33 40.67,49.33" fill="none" stroke="#111" stroke-width="1.6" stroke-linecap="round" stroke-linejoin="round"/><polyline points="40.67,23.33 33.73,23.33 33.73,45" fill="none" stroke="#111" stroke-width="1.6" stroke-linecap="round" stroke-linejoin="round"/></svg>