<svg xmlns="http://www.w3.org/2000/svg" width="96" height="64" viewBox="0 0 96 64"><rect x="6" y="6" width="0.46" height="0.14" fill="none" stroke="#111" stroke-width="1.6"/><rect x="6" y="7.36" width="0.46" height="0.14" fill="none" stroke="#111" stroke-width="1.6"/><rect x="6" y="8.73" width="0.46" height="0.14" fill="none" stroke="#111" stroke-width="1.6"/><rect x="6" y="10.09" width="0.46" height="0.14" fill="none" stroke="#111" stroke-width="1.6"/><rect x="6" y="11.46" width="0.46" height="0.14" fill="none" stroke="#111" stroke-width="1.6"/><rect x="6" y="12.82" width="0.46" height="0.14" fill="none" stroke="#111" stroke-width="1.6"/><rect x="6" y="14.19" width="0.46" height="0.14" fill="none" stroke="#111" stroke-width="1.6"/><rect x="6" y="15.55" width="0.46" height="0.14" fill="none" stroke="#111" stroke-width="1.6"/><rect x="6" y="16.92" width="0.46" height="0.14" fill="none" stroke="#111" stroke-width="1.6"/><rect x="6" y="18.28" width="0.46" height="0.14" fill="none" stroke="#111" stroke-width="1.6"/><rect x="6" y="19.65" width="0.46" height="0.13" fill="none" stroke="#111" stroke-width="1.6"/><rect x="6" y="21.01" width="0.46" height="0.14" fill="none" stroke="#111" stroke-width="1.6"/><rect x="6" y="22.38" width="0.46" height="0.13" fill="none" stroke="#111" stroke-width="1.6"/><rect x="6" y="23.74" width="0.46" height="0.14" fill="none" stroke="#111" stroke-width="1.6"/><rect x="6" y="25.11" width="0.46" height="0.13" fill="none" stroke="#111" stroke-width="1.6"/><rect x="6" y="26.47" width="0.46" height="0.14" fill="none" stroke="#111" stroke-width="1.6"/><rect x="6" y="27.84" width="0.46" height="0.13" fill="none" stroke="#111" stroke-width="1.6"/><rect x="6" y="29.2" width="0.46" height="0.14" fill="none" stroke="#111" stroke-width="1.6"/><rect x="6" y="30.57" width="0.46" height="0.13" fill="none" stroke="#111" stroke-width="1.6"/><rect x="6" y="31.93" width="0.46" height="0.14" fill="none" stroke="#111" stroke-width="1.6"/><rect x="6" y="33.3" width="0.46" height="0.13" fill="none" stroke="#111" stroke-width="1.6"/><rect x="6" y="34.66" width="0.46" height="0.14" fill="none" stroke="#111" stroke-width="1.6"/><rect x="6" y="36.03" width="0.46" height="0.13" fill="none" stroke="#111" stroke-width="1.6"/><rect x="6" y="37.39" width="0.46" height="0.14" fill="none" stroke="#111" stroke-width="1.6"/><rect x="6" y="38.76" width="0.46" height="0.13" fill="none" stroke="#111" stroke-width="1.6"/><rect x="6" y="40.12" width="0.46" height="0.14" fill="none" stroke="#111" stroke-width="1.6"/><rect x="6" y="41.49" width="0.46" height="0.13" fill="none" stroke="#111" stroke-width="1.6"/><rect x="6" y="42.85" width="0.46" height="0.14" fill="none" stroke="#111" stroke-width="1.6"/><rect x="6" y="44.22" width="0.46" height="0.13" fill="none" stroke="#111" stroke-width="1.6"/><rect x="6" y="45.58" width="0.46" height="0.14" fill="none" stroke="#111" stroke-width="1.6"/><rect x="6" y="46.94" width="0.46" height="0.14" fill="none" stroke="#111" stroke-width="1.6"/><rect x="6" y="48.31" width="0.46" height="0.14" fill="none" stroke="#111" stroke-width="1.6"/><rect x="6" y="49.67" width="0.46" height="0.14" fill="none" stroke="#111" stroke-width="1.6"/><rect x="6" y="51.04" width="0.46" height="0.14" fill="none" stroke="#111" stroke-width="1.6"/><rect x="6" y="52.4" width="0.46" height="0.14" fill="none" stroke="#111" stroke-width="1.6"/><rect x="6" y="53.77" width="0.46" height="0.14" fill="none" stroke="#111" stroke-width="1.6"/><rect x="6" y="55.13" width="0.46" height="0.14" fill="none" stroke="#111" stroke-width="1.6"/><rect x="6" y="56.5" width="0.46" height="0.14" fill="none" stroke="#111" stroke-width="1.6"/><rect x="6" y="57.86" width="0.46" height="0.14" fill="none" stroke="#111" stroke-width="1.6"/><polyline points="6.68,6.07 6.46,6.07" fill="none" stroke="#111" stroke-width="1.6" stroke-linecap="round" stroke-linejoin="round"/><polyline points="6.68,7.43 6.46,7.43" fill="none" stroke="#111" stroke-width="1.6" stroke-linecap="round" stroke-linejoin="round"/><polyline points="6.68,8.8 6.46,8.8" fill="none" stroke="#111" stroke-width="1.6" stroke-linecap="round" stroke-linejoin="round"/><polyline points="6.68,10.16 6.46,10.16" fill="none" stroke="#111" stroke-width="1.6" stroke-linecap="round" stroke-linejoin="round"/><polyline points="6.68,11.53 6.46,11.53" fill="none" stroke="#111" stroke-width="1.6" stroke-linecap="round" stroke-linejoin="round"/><polyline points="6.68,12.89 6.46,12.89" fill="none" stroke="#111" stroke-width="1.6" stroke-linecap="round" stroke-linejoin="round"/><polyline points="6.68,14.26 6.46,14.26" fill="none" stroke="#111" stroke-width="1.6" stroke-linecap="round" stroke-linejoin="round"/><polyline points="6.68,15.62 6.46,15.62" fill="none" stroke="#111" stroke-width="1.6" stroke-linecap="round" stroke-linejoin="round"/><polyline points="6.68,16.99 6.46,16.99" fill="none" stroke="#111" stroke-width="1.6" stroke-linecap="round" stroke-linejoin="round"/><polyline points="6.68,18.35 6.46,18.35" fill="none" stroke="#111" stroke-width="1.6" stroke-linecap="round" stroke-linejoin="round"/><polyline points="6.68,19.72 6.46,19.72" fill="none" stroke="#111" stroke-width="1.6" stroke-linecap="round" stroke-linejoin="round"/><polyline points="6.68,21.08 6.46,21.08" fill="none" stroke="#111" stroke-width="1.6" stroke-linecap="round" stroke-linejoin="round"/><polyline points="6.68,22.45 6.46,22.45" fill="none" stroke="#111" stroke-width="1.6" stroke-linecap="round" stroke-linejoin="round"/><polyline points="6.68,23.81 6.46,23.81" fill="none" stroke="#111" stroke-width="1.6" stroke-linecap="round" stroke-linejoin="round"/><polyline points="6.68,25.18 6.46,25.18" fill="none" stroke="#111" stroke-width="1.6" stroke-linecap="round" stroke-linejoin="round"/><polyline points="6.68,26.54 6.46,26.54" fill="none" stroke="#111" stroke-width="1.6" stroke-linecap="round" stroke-linejoin="round"/><polyline points="6.68,27.91 6.46,27.91" fill="none" stroke="#111" stroke-width="1.6" stroke-linecap="round" stroke-linejoin="round"/><polyline points="6.68,29.27 6.46,29.27" fill="none" stroke="#111" stroke-width="1.6" stroke-linecap="round" stroke-linejoin="round"/><polyline points="6.68,30.64 6.46,30.64" fill="none" stroke="#111" stroke-width="1.6" stroke-linecap="round" stroke-linejoin="round"/><polyline points="6.68,32 6.46,32" fill="none" stroke="#111" stroke-width="1.6" stroke-linecap="round" stroke-linejoin="round"/><polyline points="6.68,33.36 6.46,33.36" fill="none" stroke="#111" stroke-width="1.6" stroke-linecap="round" stroke-linejoin="round"/><polyline points="6.68,34.73 6.46,34.73" fill="none" stroke="#111" stroke-width="1.6" stroke-linecap="round" stroke-linejoin="round"/><polyline points="6.68,36.09 6.46,36.09" fill="none" stroke="#111" stroke-width="1.6" stroke-linecap="round" stroke-linejoin="round"/><polyline points="6.68,37.46 6.46,37.46" fill="none" stroke="#111" stroke-width="1.6" stroke-linecap="round" stroke-linejoin="round"/><polyline points="6.68,38.82 6.46,38.82" fill="none" stroke="#111" stroke-width="1.6" stroke-linecap="round" stroke-linejoin="round"/><polyline points="6.68,40.19 6.46,40.19" fill="none" stroke="#111" stroke-width="1.6" stroke-linecap="round" stroke-linejoin="round"/><polyline points="6.68,41.55 6.46,41.55" fill="none" stroke="#111" stroke-width="1.6" stroke-linecap="round" stroke-linejoin="round"/><polyline points="6.68,42.92 6.46,42.92" fill="none" stroke="#111" stroke-width="1.6" stroke-linecap="round" stroke-linejoin="round"/><polyline points="6.68,44.28 6.46,44.28" fill="none" stroke="#111" stroke-width="1.6" stroke-linecap="round" stroke-linejoin="round"/><polyline points="6.68,45.65 6.46,45.65" fill="none" stroke="#111" stroke-width="1.6" stroke-linecap="round" stroke-linejoin="round"/><polyline points="6.68,47.01 6.46,47.01" fill="none" stroke="#111" stroke-width="1.6" stroke-linecap="round" stroke-linejoin="round"/><polyline points="6.68,48.38 6.46,48.38" fill="none" stroke="#111" stroke-width="1.6" stroke-linecap="round" stroke-linejoin="round"/><polyline points="6.68,49.74 6.46,49.74" fill="none" stroke="#111" stroke-width="1.6" stroke-linecap="round" stroke-linejoin="round"/><polyline points="6.68,51.11 6.46,51.11" fill="none" stroke="#111" stroke-width="1.6" stroke-linecap="round" stroke-linejoin="round"/><polyline points="6.68,52.47 6.46,52.47" fill="none" stroke="#111" stroke-width="1.6" stroke-linecap="round" stroke-linejoin="round"/><polyline points="6.68,53.84 6.46,53.84" fill="none" stroke="#111" stroke-width="1.6" stroke-linecap="round" stroke-linejoin="round"/><polyline points="6.68,55.2 6.46,55.2" fill="none" stroke="#111" stroke-width="1.6" stroke-linecap="round" stroke-linejoin="round"/><polyline points="6.68,56.57 6.46,56.57" fill="none" stroke="#111" stroke-width="1.6" stroke-linecap="round" stroke-linejoin="round"/><polyline points="6.68,57.93 6.46,57.93" fill="none" stroke="#111" stroke-width="1.6" stroke-linecap="round" stroke-linejoin="round"/></svg>