<svg xmlns="http://www.w3.org/2000/svg" width="96" height="64" viewBox="0 0 96 64"><rect x="6" y="6" width="0.93" height="0.27" fill="none" stroke="#111" stroke-width="1.6"/><rect x="6" y="8.72" width="0.93" height="0.27" fill="none" stroke="#111" stroke-width="1.6"/><rect x="6" y="11.45" width="0.93" height="0.27" fill="none" stroke="#111" stroke-width="1.6"/><rect x="6" y="14.17" width="0.93" height="0.27" fill="none" stroke="#111" stroke-width="1.6"/><rect x="6" y="16.89" width="0.93" height="0.27" fill="none" stroke="#111" stroke-width="1.6"/><rect x="6" y="19.61" width="0.93" height="0.27" fill="none" stroke="#111" stroke-width="1.6"/><rect x="6" y="22.34" width="0.93" height="0.27" fill="none" stroke="#111" stroke-width="1.6"/><rect x="6" y="25.06" width="0.93" height="0.27" fill="none" stroke="#111" stroke-width="1.6"/><rect x="6" y="27.78" width="0.93" height="0.27" fill="none" stroke="#111" stroke-width="1.6"/><rect x="6" y="30.5" width="0.93" height="0.27" fill="none" stroke="#111" stroke-width="1.6"/><rect x="6" y="33.23" width="0.93" height="0.27" fill="none" stroke="#111" stroke-width="1.6"/><rect x="6" y="35.95" width="0.93" height="0.27" fill="none" stroke="#111" stroke-width="1.6"/><rect x="6" y="38.67" width="0.93" height="0.27" fill="none" stroke="#111" stroke-width="1.6"/><rect x="6" y="41.39" width="0.93" height="0.27" fill="none" stroke="#111" stroke-width="1.6"/><rect x="6" y="44.12" width="0.93" height="0.27" fill="none" stroke="#111" stroke-width="1.6"/><rect x="6" y="46.84" width="0.93" height="0.27" fill="none" stroke="#111" stroke-width="1.6"/><rect x="6" y="49.56" width="0.93" height="0.27" fill="none" stroke="#111" stroke-width="1.6"/><rect x="6" y="52.28" width="0.93" height="0.27" fill="none" stroke="#111" stroke-width="1.6"/><rect x="6" y="55.01" width="0.93" height="0.27" fill="none" stroke="#111" stroke-width="1.6"/><rect x="6" y="57.73" width="0.93" height="0.27" fill="none" stroke="#111" stroke-width="1.6"/><polyline points="7.36,6.14 6.93,6.14" fill="none" stroke="#111" stroke-width="1.6" stroke-linecap="round" stroke-linejoin="round"/><polyline points="7.36,8.86 6.93,8.86" fill="none" stroke="#111" stroke-width="1.6" stroke-linecap="round" stroke-linejoin="round"/><polyline points="7.36,11.58 6.93,11.58" fill="none" stroke="#111" stroke-width="1.6" stroke-linecap="round" stroke-linejoin="round"/><polyline points="7.36,14.3 6.93,14.3" fill="none" stroke="#111" stroke-width="1.6" stroke-linecap="round" stroke-linejoin="round"/><polyline points="7.36,17.03 6.93,17.03" fill="none" stroke="#111" stroke-width="1.6" stroke-linecap="round" stroke-linejoin="round"/><polyline points="7.36,19.75 6.93,19.75" fill="none" stroke="#111" stroke-width="1.6" stroke-linecap="round" stroke-linejoin="round"/><polyline points="7.36,22.47 6.93,22.47" fill="none" stroke="#111" stroke-width="1.6" stroke-linecap="round" stroke-linejoin="round"/><polyline points="7.36,25.19 6.93,25.19" fill="none" stroke="#111" stroke-width="1.6" stroke-linecap="round" stroke-linejoin="round"/><polyline points="7.36,27.92 6.93,27.92" fill="none" stroke="#111" stroke-width="1.6" stroke-linecap="round" stroke-linejoin="round"/><polyline points="7.36,30.64 6.93,30.64" fill="none" stroke="#111" stroke-width="1.6" stroke-linecap="round" stroke-linejoin="round"/><polyline points="7.36,33.36 6.93,33.36" fill="none" stroke="#111" stroke-width="1.6" stroke-linecap="round" stroke-linejoin="round"/><polyline points="7.36,36.08 6.93,36.08" fill="none" stroke="#111" stroke-width="1.6" stroke-linecap="round" stroke-linejoin="round"/><polyline points="7.36,38.81 6.93,38.81" fill="none" stroke="#111" stroke-width="1.6" stroke-linecap="round" stroke-linejoin="round"/><polyline points="7.36,41.53 6.93,41.53" fill="none" stroke="#111" stroke-width="1.6" stroke-linecap="round" stroke-linejoin="round"/><polyline points="7.36,44.25 6.93,44.25" fill="none" stroke="#111" stroke-width="1.6" stroke-linecap="round" stroke-linejoin="round"/><polyline points="7.36,46.97 6.93,46.97" fill="none" stroke="#111" stroke-width="1.6" stroke-linecap="round" stroke-linejoin="round"/><polyline points="7.36,49.7 6.93,49.7" fill="none" stroke="#111" stroke-width="1.6" stroke-linecap="round" stroke-linejoin="round"/><polyline points="7.36,52.42 6.93,52.42" fill="none" stroke="#111" stroke-width="1.6" stroke-linecap="round" stroke-linejoin="round"/><polyline points="7.36,55.14 6.93,55.14" fill="none" stroke="#111" stroke-width="1.6" stroke-linecap="round" stroke-linejoin="round"/><polyline points="7.36,57.86 6.93,57.86" fill="none" stroke="#111" stroke-width="1.6" stroke-linecap="round" stroke-linejoin="round"/></svg>