<svg xmlns="http://www.w3.org/2000/svg" width="96" height="64" viewBox="0 0 96 64"><polyline points="6,10.33 10.33,6 27.67,6 32,10.33 32,53.67 27.67,58 10.33,58 6,53.67 6,10.33" fill="none" stroke="#111" stroke-width="1.6" stroke-linecap="round" stroke-linejoin="round"/><path d="M 14.67 19 Q 13.35 21.99 10.33 23.25" fill="none" stroke="#111" stroke-width="1.6" stroke-linecap="round"/><path d="M 14.67 27.67 Q 13.35 30.66 10.33 31.91" fill="none" stroke="#111" stroke-width="1.6" stroke-linecap="round"/><path d="M 14.67 36.33 Q 13.35 39.32 10.33 40.58" fill="none" stroke="#111" stroke-width="1.6" stroke-linecap="round"/><path d="M 14.67 45 Q 13.35 47.99 10.33 49.25" fill="none" stroke="#111" stroke-width="1.6" stroke-linecap="round"/><path d="M 10.33 14.67 Q 13.4 15.94 14.67 19" fill="none" stroke="#111" stroke-width="1.6" stroke-linecap="round"/><path d="M 10.33 23.33 Q 13.4 24.6 14.67 27.67" fill="none" stroke="#111" stroke-width="1.6" stroke-linecap="round"/><path d="M 10.33 32 Q 13.4 33.27 14.67 36.33" fill="none" stroke="#111" stroke-width="1.6" stroke-linecap="round"/><path d="M 10.33 40.67 Q 13.4 41.94 14.67 45" fill="none" stroke="#111" stroke-width="1.6" stroke-linecap="round"/><polyline points="16.83,14.67 16.83,49.33" fill="none" stroke="#111" stroke-width="1.6" stroke-linecap="round" stroke-linejoin="round"/><polyline points="21.17,49.33 21.17,14.67" fill="none" stroke="#111" stroke-width="1.6" stroke-linecap="round" stroke-linejoin="round"/><path d="M 23.42 19 Q 24.62 15.92 27.67 14.67" fill="none" stroke="#111" stroke-width="1.6" stroke-linecap="round"/><path d="M 23.42 27.67 Q 24.62 24.59 27.67 23.33" fill="none" stroke="#111" stroke-width="1.6" stroke-linecap="round"/><path d="M 23.42 36.33 Q 24.62 33.26 27.67 32" fill="none" stroke="#111" stroke-width="1.6" stroke-linecap="round"/><path d="M 27.67 23.25 Q 24.66 22 23.42 19" fill="none" stroke="#111" stroke-width="1.6" stroke-linecap="round"/><path d="M 27.67 31.91 Q 24.66 30.67 23.42 27.67" fill="none" stroke="#111" stroke-width="1.6" stroke-linecap="round"/><path d="M 27.67 40.58 Q 24.66 39.34 23.42 36.33" fill="none" stroke="#111" stroke-width="1.6" stroke-linecap="round"/><path d="M 23.51 45 Q 24.7 41.92 27.75 40.67" fill="none" stroke="#111" stroke-width="1.6" stroke-linecap="round"/><path d="M 27.75 49.25 Q 24.75 48 23.51 45" fill="none" stroke="#111" stroke-width="1.6" stroke-linecap="round"/></svg>