<svg xmlns="http://www.w3.org/2000/svg" width="96" height="64" viewBox="0 0 96 64"><rect x="6" y="6" width="9.45" height="52" fill="none" stroke="#111" stroke-width="1.6"/><rect x="6.47" y="6.47" width="8.51" height="51.06" fill="none" stroke="#111" stroke-width="1.6"/><rect x="6.47" y="8.13" width="2.37" height="0.47" fill="none" stroke="#111" stroke-width="1.6"/><rect x="6.47" y="12.85" width="2.37" height="0.48" fill="none" stroke="#111" stroke-width="1.6"/><rect x="6.47" y="17.58" width="2.37" height="0.47" fill="none" stroke="#111" stroke-width="1.6"/><rect x="6.47" y="22.31" width="2.37" height="0.47" fill="none" stroke="#111" stroke-width="1.6"/><rect x="6.47" y="27.04" width="2.37" height="0.47" fill="none" stroke="#111" stroke-width="1.6"/><rect x="6.47" y="31.76" width="2.37" height="0.48" fill="none" stroke="#111" stroke-width="1.6"/><rect x="6.47" y="36.49" width="2.37" height="0.47" fill="none" stroke="#111" stroke-width="1.6"/><rect x="6.47" y="41.22" width="2.37" height="0.47" fill="none" stroke="#111" stroke-width="1.6"/><rect x="6.47" y="45.95" width="2.37" height="0.47" fill="none" stroke="#111" stroke-width="1.6"/><rect x="6.47" y="50.67" width="2.37" height="0.48" fill="none" stroke="#111" stroke-width="1.6"/><rect x="6.47" y="55.4" width="2.37" height="0.47" fill="none" stroke="#111" stroke-width="1.6"/><rect x="12.62" y="8.13" width="2.36" height="0.47" fill="none" stroke="#111" stroke-width="1.6"/><rect x="12.62" y="12.85" width="2.36" height="0.48" fill="none" stroke="#111" stroke-width="1.6"/><rect x="12.62" y="17.58" width="2.36" height="0.47" fill="none" stroke="#111" stroke-width="1.6"/><rect x="12.62" y="22.31" width="2.36" height="0.47" fill="none" stroke="#111" stroke-width="1.6"/><rect x="12.62" y="27.04" width="2.36" height="0.47" fill="none" stroke="#111" stroke-width="1.6"/><rect x="12.62" y="31.76" width="2.36" height="0.48" fill="none" stroke="#111" stroke-width="1.6"/><rect x="12.62" y="36.49" width="2.36" height="0.47" fill="none" stroke="#111" stroke-width="1.6"/><rect x="12.62" y="41.22" width="2.36" height="0.47" fill="none" stroke="#111" stroke-width="1.6"/><rect x="12.62" y="45.95" width="2.36" height="0.47" fill="none" stroke="#111" stroke-width="1.6"/><rect x="12.62" y="50.67" width="2.36" height="0.48" fill="none" stroke="#111" stroke-width="1.6"/><rect x="12.62" y="55.4" width="2.36" height="0.47" fill="none" stroke="#111" stroke-width="1.6"/></svg>