<svg xmlns="http://www.w3.org/2000/svg" width="96" height="64" viewBox="0 0 96 64"><rect x="6" y="6" width="1.27" height="52" fill="none" stroke="#111" stroke-width="1.6"/><rect x="6.13" y="6.13" width="1.01" height="51.74" fill="none" stroke="#111" stroke-width="1.6"/><rect x="6.13" y="6.57" width="0.63" height="0.13" fill="none" stroke="#111" stroke-width="1.6"/><rect x="6.13" y="7.84" width="0.63" height="0.13" fill="none" stroke="#111" stroke-width="1.6"/><rect x="6.13" y="9.11" width="0.63" height="0.12" fill="none" stroke="#111" stroke-width="1.6"/><rect x="6.13" y="10.38" width="0.63" height="0.12" fill="none" stroke="#111" stroke-width="1.6"/><rect x="6.13" y="11.64" width="0.63" height="0.13" fill="none" stroke="#111" stroke-width="1.6"/><rect x="6.13" y="12.91" width="0.63" height="0.13" fill="none" stroke="#111" stroke-width="1.6"/><rect x="6.13" y="14.18" width="0.63" height="0.13" fill="none" stroke="#111" stroke-width="1.6"/><rect x="6.13" y="15.45" width="0.63" height="0.13" fill="none" stroke="#111" stroke-width="1.6"/><rect x="6.13" y="16.72" width="0.63" height="0.12" fill="none" stroke="#111" stroke-width="1.6"/><rect x="6.13" y="17.99" width="0.63" height="0.12" fill="none" stroke="#111" stroke-width="1.6"/><rect x="6.13" y="19.25" width="0.63" height="0.13" fill="none" stroke="#111" stroke-width="1.6"/><rect x="6.13" y="20.52" width="0.63" height="0.13" fill="none" stroke="#111" stroke-width="1.6"/><rect x="6.13" y="21.79" width="0.63" height="0.13" fill="none" stroke="#111" stroke-width="1.6"/><rect x="6.13" y="23.06" width="0.63" height="0.13" fill="none" stroke="#111" stroke-width="1.6"/><rect x="6.13" y="24.33" width="0.63" height="0.12" fill="none" stroke="#111" stroke-width="1.6"/><rect x="6.13" y="25.6" width="0.63" height="0.12" fill="none" stroke="#111" stroke-width="1.6"/><rect x="6.13" y="26.86" width="0.63" height="0.13" fill="none" stroke="#111" stroke-width="1.6"/><rect x="6.13" y="28.13" width="0.63" height="0.13" fill="none" stroke="#111" stroke-width="1.6"/><rect x="6.13" y="29.4" width="0.63" height="0.13" fill="none" stroke="#111" stroke-width="1.6"/><rect x="6.13" y="30.67" width="0.63" height="0.13" fill="none" stroke="#111" stroke-width="1.6"/><rect x="6.13" y="31.94" width="0.63" height="0.12" fill="none" stroke="#111" stroke-width="1.6"/><rect x="6.13" y="33.2" width="0.63" height="0.13" fill="none" stroke="#111" stroke-width="1.6"/><rect x="6.13" y="34.47" width="0.63" height="0.13" fill="none" stroke="#111" stroke-width="1.6"/><rect x="6.13" y="35.74" width="0.63" height="0.13" fill="none" stroke="#111" stroke-width="1.6"/><rect x="6.13" y="37.01" width="0.63" height="0.13" fill="none" stroke="#111" stroke-width="1.6"/><rect x="6.13" y="38.28" width="0.63" height="0.12" fill="none" stroke="#111" stroke-width="1.6"/><rect x="6.13" y="39.55" width="0.63" height="0.12" fill="none" stroke="#111" stroke-width="1.6"/><rect x="6.13" y="40.81" width="0.63" height="0.13" fill="none" stroke="#111" stroke-width="1.6"/><rect x="6.13" y="42.08" width="0.63" height="0.13" fill="none" stroke="#111" stroke-width="1.6"/><rect x="6.13" y="43.35" width="0.63" height="0.13" fill="none" stroke="#111" stroke-width="1.6"/><rect x="6.13" y="44.62" width="0.63" height="0.13" fill="none" stroke="#111" stroke-width="1.6"/><rect x="6.13" y="45.89" width="0.63" height="0.12" fill="none" stroke="#111" stroke-width="1.6"/><rect x="6.13" y="47.16" width="0.63" height="0.12" fill="none" stroke="#111" stroke-width="1.6"/><rect x="6.13" y="48.42" width="0.63" height="0.13" fill="none" stroke="#111" stroke-width="1.6"/><rect x="6.13" y="49.69" width="0.63" height="0.13" fill="none" stroke="#111" stroke-width="1.6"/><rect x="6.13" y="50.96" width="0.63" height="0.13" fill="none" stroke="#111" stroke-width="1.6"/><rect x="6.13" y="52.23" width="0.63" height="0.13" fill="none" stroke="#111" stroke-width="1.6"/><rect x="6.13" y="53.5" width="0.63" height="0.12" fill="none" stroke="#111" stroke-width="1.6"/><rect x="6.13" y="54.77" width="0.63" height="0.12" fill="none" stroke="#111" stroke-width="1.6"/><rect x="6.13" y="56.03" width="0.63" height="0.13" fill="none" stroke="#111" stroke-width="1.6"/><rect x="6.13" y="57.3" width="0.63" height="0.13" fill="none" stroke="#111" stroke-width="1.6"/></svg>