<svg xmlns="http://www.w3.org/2000/svg" width="96" height="64" viewBox="0 0 96 64"><rect x="6" y="6" width="0.34" height="0.1" fill="none" stroke="#111" stroke-width="1.6"/><rect x="6" y="7" width="0.34" height="0.1" fill="none" stroke="#111" stroke-width="1.6"/><rect x="6" y="8" width="0.34" height="0.1" fill="none" stroke="#111" stroke-width="1.6"/><rect x="6" y="8.99" width="0.34" height="0.1" fill="none" stroke="#111" stroke-width="1.6"/><rect x="6" y="9.99" width="0.34" height="0.1" fill="none" stroke="#111" stroke-width="1.6"/><rect x="6" y="10.99" width="0.34" height="0.1" fill="none" stroke="#111" stroke-width="1.6"/><rect x="6" y="11.99" width="0.34" height="0.1" fill="none" stroke="#111" stroke-width="1.6"/><rect x="6" y="12.99" width="0.34" height="0.1" fill="none" stroke="#111" stroke-width="1.6"/><rect x="6" y="13.98" width="0.34" height="0.1" fill="none" stroke="#111" stroke-width="1.6"/><rect x="6" y="14.98" width="0.34" height="0.1" fill="none" stroke="#111" stroke-width="1.6"/><rect x="6" y="15.98" width="0.34" height="0.1" fill="none" stroke="#111" stroke-width="1.6"/><rect x="6" y="16.98" width="0.34" height="0.1" fill="none" stroke="#111" stroke-width="1.6"/><rect x="6" y="17.98" width="0.34" height="0.1" fill="none" stroke="#111" stroke-width="1.6"/><rect x="6" y="18.98" width="0.34" height="0.09" fill="none" stroke="#111" stroke-width="1.6"/><rect x="6" y="19.97" width="0.34" height="0.1" fill="none" stroke="#111" stroke-width="1.6"/><rect x="6" y="20.97" width="0.34" height="0.1" fill="none" stroke="#111" stroke-width="1.6"/><rect x="6" y="21.97" width="0.34" height="0.1" fill="none" stroke="#111" stroke-width="1.6"/><rect x="6" y="22.97" width="0.34" height="0.1" fill="none" stroke="#111" stroke-width="1.6"/><rect x="6" y="23.97" width="0.34" height="0.1" fill="none" stroke="#111" stroke-width="1.6"/><rect x="6" y="24.96" width="0.34" height="0.1" fill="none" stroke="#111" stroke-width="1.6"/><rect x="6" y="25.96" width="0.34" height="0.1" fill="none" stroke="#111" stroke-width="1.6"/><rect x="6" y="26.96" width="0.34" height="0.1" fill="none" stroke="#111" stroke-width="1.6"/><rect x="6" y="27.96" width="0.34" height="0.1" fill="none" stroke="#111" stroke-width="1.6"/><rect x="6" y="28.96" width="0.34" height="0.1" fill="none" stroke="#111" stroke-width="1.6"/><rect x="6" y="29.95" width="0.34" height="0.1" fill="none" stroke="#111" stroke-width="1.6"/><rect x="6" y="30.95" width="0.34" height="0.1" fill="none" stroke="#111" stroke-width="1.6"/><rect x="6" y="31.95" width="0.34" height="0.1" fill="none" stroke="#111" stroke-width="1.6"/><rect x="6" y="32.95" width="0.34" height="0.1" fill="none" stroke="#111" stroke-width="1.6"/><rect x="6" y="33.95" width="0.34" height="0.1" fill="none" stroke="#111" stroke-width="1.6"/><rect x="6" y="34.94" width="0.34" height="0.1" fill="none" stroke="#111" stroke-width="1.6"/><rect x="6" y="35.94" width="0.34" height="0.1" fill="none" stroke="#111" stroke-width="1.6"/><rect x="6" y="36.94" width="0.34" height="0.1" fill="none" stroke="#111" stroke-width="1.6"/><rect x="6" y="37.94" width="0.34" height="0.1" fill="none" stroke="#111" stroke-width="1.6"/><rect x="6" y="38.94" width="0.34" height="0.1" fill="none" stroke="#111" stroke-width="1.6"/><rect x="6" y="39.93" width="0.34" height="0.1" fill="none" stroke="#111" stroke-width="1.6"/><rect x="6" y="40.93" width="0.34" height="0.1" fill="none" stroke="#111" stroke-width="1.6"/><rect x="6" y="41.93" width="0.34" height="0.1" fill="none" stroke="#111" stroke-width="1.6"/><rect x="6" y="42.93" width="0.34" height="0.1" fill="none" stroke="#111" stroke-width="1.6"/><rect x="6" y="43.93" width="0.34" height="0.1" fill="none" stroke="#111" stroke-width="1.6"/><rect x="6" y="44.93" width="0.34" height="0.09" fill="none" stroke="#111" stroke-width="1.6"/><rect x="6" y="45.92" width="0.34" height="0.1" fill="none" stroke="#111" stroke-width="1.6"/><rect x="6" y="46.92" width="0.34" height="0.1" fill="none" stroke="#111" stroke-width="1.6"/><rect x="6" y="47.92" width="0.34" height="0.1" fill="none" stroke="#111" stroke-width="1.6"/><rect x="6" y="48.92" width="0.34" height="0.1" fill="none" stroke="#111" stroke-width="1.6"/><rect x="6" y="49.92" width="0.34" height="0.1" fill="none" stroke="#111" stroke-width="1.6"/><rect x="6" y="50.91" width="0.34" height="0.1" fill="none" stroke="#111" stroke-width="1.6"/><rect x="6" y="51.91" width="0.34" height="0.1" fill="none" stroke="#111" stroke-width="1.6"/><rect x="6" y="52.91" width="0.34" height="0.1" fill="none" stroke="#111" stroke-width="1.6"/><rect x="6" y="53.91" width="0.34" height="0.1" fill="none" stroke="#111" stroke-width="1.6"/><rect x="6" y="54.91" width="0.34" height="0.1" fill="none" stroke="#111" stroke-width="1.6"/><rect x="6" y="55.9" width="0.34" height="0.1" fill="none" stroke="#111" stroke-width="1.6"/><rect x="6" y="56.9" width="0.34" height="0.1" fill="none" stroke="#111" stroke-width="1.6"/><rect x="6" y="57.9" width="0.34" height="0.1" fill="none" stroke="#111" stroke-width="1.6"/><polyline points="6.5,6.05 6.34,6.05" fill="none" stroke="#111" stroke-width="1.6" stroke-linecap="round" stroke-linejoin="round"/><polyline points="6.5,7.05 6.34,7.05" fill="none" stroke="#111" stroke-width="1.6" stroke-linecap="round" stroke-linejoin="round"/><polyline points="6.5,8.05 6.34,8.05" fill="none" stroke="#111" stroke-width="1.6" stroke-linecap="round" stroke-linejoin="round"/><polyline points="6.5,9.04 6.34,9.04" fill="none" stroke="#111" stroke-width="1.6" stroke-linecap="round" stroke-linejoin="round"/><polyline points="6.5,10.04 6.34,10.04" fill="none" stroke="#111" stroke-width="1.6" stroke-linecap="round" stroke-linejoin="round"/><polyline points="6.5,11.04 6.34,11.04" fill="none" stroke="#111" stroke-width="1.6" stroke-linecap="round" stroke-linejoin="round"/><polyline points="6.5,12.04 6.34,12.04" fill="none" stroke="#111" stroke-width="1.6" stroke-linecap="round" stroke-linejoin="round"/><polyline points="6.5,13.04 6.34,13.04" fill="none" stroke="#111" stroke-width="1.6" stroke-linecap="round" stroke-linejoin="round"/><polyline points="6.5,14.03 6.34,14.03" fill="none" stroke="#111" stroke-width="1.6" stroke-linecap="round" stroke-linejoin="round"/><polyline points="6.5,15.03 6.34,15.03" fill="none" stroke="#111" stroke-width="1.6" stroke-linecap="round" stroke-linejoin="round"/><polyline points="6.5,16.03 6.34,16.03" fill="none" stroke="#111" stroke-width="1.6" stroke-linecap="round" stroke-linejoin="round"/><polyline points="6.5,17.03 6.34,17.03" fill="none" stroke="#111" stroke-width="1.6" stroke-linecap="round" stroke-linejoin="round"/><polyline points="6.5,18.03 6.34,18.03" fill="none" stroke="#111" stroke-width="1.6" stroke-linecap="round" stroke-linejoin="round"/><polyline points="6.5,19.02 6.34,19.02" fill="none" stroke="#111" stroke-width="1.6" stroke-linecap="round" stroke-linejoin="round"/><polyline points="6.5,20.02 6.34,20.02" fill="none" stroke="#111" stroke-width="1.6" stroke-linecap="round" stroke-linejoin="round"/><polyline points="6.5,21.02 6.34,21.02" fill="none" stroke="#111" stroke-width="1.6" stroke-linecap="round" stroke-linejoin="round"/><polyline points="6.5,22.02 6.34,22.02" fill="none" stroke="#111" stroke-width="1.6" stroke-linecap="round" stroke-linejoin="round"/><polyline points="6.5,23.02 6.34,23.02" fill="none" stroke="#111" stroke-width="1.6" stroke-linecap="round" stroke-linejoin="round"/><polyline points="6.5,24.02 6.34,24.02" fill="none" stroke="#111" stroke-width="1.6" stroke-linecap="round" stroke-linejoin="round"/><polyline points="6.5,25.01 6.34,25.01" fill="none" stroke="#111" stroke-width="1.6" stroke-linecap="round" stroke-linejoin="round"/><polyline points="6.5,26.01 6.34,26.01" fill="none" stroke="#111" stroke-width="1.6" stroke-linecap="round" stroke-linejoin="round"/><polyline points="6.5,27.01 6.34,27.01" fill="none" stroke="#111" stroke-width="1.6" stroke-linecap="round" stroke-linejoin="round"/><polyline points="6.5,28.01 6.34,28.01" fill="none" stroke="#111" stroke-width="1.6" stroke-linecap="round" stroke-linejoin="round"/><polyline points="6.5,29.01 6.34,29.01" fill="none" stroke="#111" stroke-width="1.6" stroke-linecap="round" stroke-linejoin="round"/><polyline points="6.5,30 6.34,30" fill="none" stroke="#111" stroke-width="1.6" stroke-linecap="round" stroke-linejoin="round"/><polyline points="6.5,31 6.34,31" fill="none" stroke="#111" stroke-width="1.6" stroke-linecap="round" stroke-linejoin="round"/><polyline points="6.5,32 6.34,32" fill="none" stroke="#111" stroke-width="1.6" stroke-linecap="round" stroke-linejoin="round"/><polyline points="6.5,33 6.34,33" fill="none" stroke="#111" stroke-width="1.6" stroke-linecap="round" stroke-linejoin="round"/><polyline points="6.5,34 6.34,34" fill="none" stroke="#111" stroke-width="1.6" stroke-linecap="round" stroke-linejoin="round"/><polyline points="6.5,34.99 6.34,34.99" fill="none" stroke="#111" stroke-width="1.6" stroke-linecap="round" stroke-linejoin="round"/><polyline points="6.5,35.99 6.34,35.99" fill="none" stroke="#111" stroke-width="1.6" stroke-linecap="round" stroke-linejoin="round"/><polyline points="6.5,36.99 6.34,36.99" fill="none" stroke="#111" stroke-width="1.6" stroke-linecap="round" stroke-linejoin="round"/><polyline points="6.5,37.99 6.34,37.99" fill="none" stroke="#111" stroke-width="1.6" stroke-linecap="round" stroke-linejoin="round"/><polyline points="6.5,38.99 6.34,38.99" fill="none" stroke="#111" stroke-width="1.6" stroke-linecap="round" stroke-linejoin="round"/><polyline points="6.5,39.98 6.34,39.98" fill="none" stroke="#111" stroke-width="1.6" stroke-linecap="round" stroke-linejoin="round"/><polyline points="6.5,40.98 6.34,40.98" fill="none" stroke="#111" stroke-width="1.6" stroke-linecap="round" stroke-linejoin="round"/><polyline points="6.5,41.98 6.34,41.98" fill="none" stroke="#111" stroke-width="1.6" stroke-linecap="round" stroke-linejoin="round"/><polyline points="6.5,42.98 6.34,42.98" fill="none" stroke="#111" stroke-width="1.6" stroke-linecap="round" stroke-linejoin="round"/><polyline points="6.5,43.98 6.34,43.98" fill="none" stroke="#111" stroke-width="1.6" stroke-linecap="round" stroke-linejoin="round"/><polyline points="6.5,44.98 6.34,44.98" fill="none" stroke="#111" stroke-width="1.6" stroke-linecap="round" stroke-linejoin="round"/><polyline points="6.5,45.97 6.34,45.97" fill="none" stroke="#111" stroke-width="1.6" stroke-linecap="round" stroke-linejoin="round"/><polyline points="6.5,46.97 6.34,46.97" fill="none" stroke="#111" stroke-width="1.6" stroke-linecap="round" stroke-linejoin="round"/><polyline points="6.5,47.97 6.34,47.97" fill="none" stroke="#111" stroke-width="1.6" stroke-linecap="round" stroke-linejoin="round"/><polyline points="6.5,48.97 6.34,48.97" fill="none" stroke="#111" stroke-width="1.6" stroke-linecap="round" stroke-linejoin="round"/><polyline points="6.5,49.97 6.34,49.97" fill="none" stroke="#111" stroke-width="1.6" stroke-linecap="round" stroke-linejoin="round"/><polyline points="6.5,50.96 6.34,50.96" fill="none" stroke="#111" stroke-width="1.6" stroke-linecap="round" stroke-linejoin="round"/><polyline points="6.5,51.96 6.34,51.96" fill="none" stroke="#111" stroke-width="1.6" stroke-linecap="round" stroke-linejoin="round"/><polyline points="6.5,52.96 6.34,52.96" fill="none" stroke="#111" stroke-width="1.6" stroke-linecap="round" stroke-linejoin="round"/><polyline points="6.5,53.96 6.34,53.96" fill="none" stroke="#111" stroke-width="1.6" stroke-linecap="round" stroke-linejoin="round"/><polyline points="6.5,54.96 6.34,54.96" fill="none" stroke="#111" stroke-width="1.6" stroke-linecap="round" stroke-linejoin="round"/><polyline points="6.5,55.95 6.34,55.95" fill="none" stroke="#111" stroke-width="1.6" stroke-linecap="round" stroke-linejoin="round"/><polyline points="6.5,56.95 6.34,56.95" fill="none" stroke="#111" stroke-width="1.6" stroke-linecap="round" stroke-linejoin="round"/><polyline points="6.5,57.95 6.34,57.95" fill="none" stroke="#111" stroke-width="1.6" stroke-linecap="round" stroke-linejoin="round"/></svg>