<svg xmlns="http://www.w3.org/2000/svg" width="96" height="64" viewBox="0 0 96 64"><polyline points="6,7.62 8.44,7.62" fill="none" stroke="#111" stroke-width="1.6" stroke-linecap="round" stroke-linejoin="round"/><polyline points="6,15.75 8.44,15.75" fill="none" stroke="#111" stroke-width="1.6" stroke-linecap="round" stroke-linejoin="round"/><polyline points="6,23.88 8.44,23.88" fill="none" stroke="#111" stroke-width="1.6" stroke-linecap="round" stroke-linejoin="round"/><polyline points="6,32 8.44,32" fill="none" stroke="#111" stroke-width="1.6" stroke-linecap="round" stroke-linejoin="round"/><polyline points="6,40.12 8.44,40.12" fill="none" stroke="#111" stroke-width="1.6" stroke-linecap="round" stroke-linejoin="round"/><polyline points="6,48.25 8.44,48.25" fill="none" stroke="#111" stroke-width="1.6" stroke-linecap="round" stroke-linejoin="round"/><polyline points="6,56.38 8.44,56.38" fill="none" stroke="#111" stroke-width="1.6" stroke-linecap="round" stroke-linejoin="round"/><path d="M 10.06 9.25 Q 8.44 7.62 10.06 6" fill="none" stroke="#111" stroke-width="1.6" stroke-linecap="round"/><path d="M 10.06 17.38 Q 8.44 15.75 10.06 14.12" fill="none" stroke="#111" stroke-width="1.6" stroke-linecap="round"/><path d="M 10.06 25.5 Q 8.44 23.88 10.06 22.25" fill="none" stroke="#111" stroke-width="1.6" stroke-linecap="round"/><path d="M 10.06 33.62 Q 8.44 32 10.06 30.38" fill="none" stroke="#111" stroke-width="1.6" stroke-linecap="round"/><path d="M 10.06 41.75 Q 8.44 40.12 10.06 38.5" fill="none" stroke="#111" stroke-width="1.6" stroke-linecap="round"/><path d="M 10.06 49.88 Q 8.44 48.25 10.06 46.62" fill="none" stroke="#111" stroke-width="1.6" stroke-linecap="round"/><path d="M 10.06 58 Q 8.44 56.38 10.06 54.75" fill="none" stroke="#111" stroke-width="1.6" stroke-linecap="round"/></svg>