<svg xmlns="http://www.w3.org/2000/svg" width="96" height="64" viewBox="0 0 96 64"><rect x="6" y="6" width="78" height="52" fill="none" stroke="#111" stroke-width="1.6"/><rect x="9.9" y="14.71" width="5.2" height="13" fill="none" stroke="#111" stroke-width="1.6"/><polyline points="12.5,6 12.5,14.71" fill="none" stroke="#111" stroke-width="1.6" stroke-linecap="round" stroke-linejoin="round"/><circle cx="12.5" cy="10.42" r="1.3" fill="none" stroke="#111" stroke-width="1.6"/><polyline points="12.5,10.42 38.5,10.42 38.5,14.71" fill="none" stroke="#111" stroke-width="1.6" stroke-linecap="round" stroke-linejoin="round"/><circle cx="12.5" cy="32" r="1.3" fill="none" stroke="#111" stroke-width="1.6"/><polyline points="12.5,32 20.3,32 20.3,36.29" fill="none" stroke="#111" stroke-width="1.6" stroke-linecap="round" stroke-linejoin="round"/><polyline points="12.5,58 12.5,27.71" fill="none" stroke="#111" stroke-width="1.6" stroke-linecap="round" stroke-linejoin="round"/><rect x="17.7" y="36.29" width="5.2" height="13" fill="none" stroke="#111" stroke-width="1.6"/><polyline points="20.3,49.29 20.3,53.58 77.5,53.58" fill="none" stroke="#111" stroke-width="1.6" stroke-linecap="round" stroke-linejoin="round"/><rect x="35.9" y="14.71" width="5.2" height="13" fill="none" stroke="#111" stroke-width="1.6"/><circle cx="38.5" cy="10.42" r="1.3" fill="none" stroke="#111" stroke-width="1.6"/><polyline points="38.5,10.42 64.5,10.42 64.5,14.71" fill="none" stroke="#111" stroke-width="1.6" stroke-linecap="round" stroke-linejoin="round"/><polyline points="38.5,32 46.3,32 46.3,36.29" fill="none" stroke="#111" stroke-width="1.6" stroke-linecap="round" stroke-linejoin="round"/><circle cx="38.5" cy="32" r="1.3" fill="none" stroke="#111" stroke-width="1.6"/><polyline points="38.5,58 38.5,27.71" fill="none" stroke="#111" stroke-width="1.6" stroke-linecap="round" stroke-linejoin="round"/><rect x="43.7" y="36.29" width="5.2" height="13" fill="none" stroke="#111" stroke-width="1.6"/><polyline points="46.3,49.29 46.3,53.58 77.5,53.58" fill="none" stroke="#111" stroke-width="1.6" stroke-linecap="round" stroke-linejoin="round"/><circle cx="46.3" cy="53.58" r="1.3" fill="none" stroke="#111" stroke-width="1.6"/><rect x="61.9" y="14.71" width="5.2" height="13" fill="none" stroke="#111" stroke-width="1.6"/><polyline points="64.5,32 72.3,32 72.3,36.29" fill="none" stroke="#111" stroke-width="1.6" stroke-linecap="round" stroke-linejoin="round"/><circle cx="64.5" cy="32" r="1.3" fill="none" stroke="#111" stroke-width="1.6"/><polyline points="64.5,58 64.5,27.71" fill="none" stroke="#111" stroke-width="1.6" stroke-linecap="round" stroke-linejoin="round"/><rect x="69.7" y="36.29" width="5.2" height="13" fill="none" stroke="#111" stroke-width="1.6"/><polyline points="72.3,49.29 72.3,53.58 77.5,53.58" fill="none" stroke="#111" stroke-width="1.6" stroke-linecap="round" stroke-linejoin="round"/><circle cx="72.3" cy="53.58" r="1.3" fill="none" stroke="#111" stroke-width="1.6"/><polyline points="77.5,53.58 77.5,6" fill="none" stroke="#111" stroke-width="1.6" stroke-linecap="round" stroke-linejoin="round"/></svg>