<svg xmlns="http://www.w3.org/2000/svg" width="96" height="64" viewBox="0 0 96 64"><rect x="6" y="6" width="84" height="30.55" fill="none" stroke="#111" stroke-width="1.6"/><polyline points="12.87,15.16 12.87,13.64 21.27,13.64 22.04,13.64" fill="none" stroke="#111" stroke-width="1.6" stroke-linecap="round" stroke-linejoin="round"/><polyline points="17.45,6 17.45,13.64" fill="none" stroke="#111" stroke-width="1.6" stroke-linecap="round" stroke-linejoin="round"/><polyline points="17.45,13.64 17.45,28.91 32.73,28.91" fill="none" stroke="#111" stroke-width="1.6" stroke-linecap="round" stroke-linejoin="round"/><polyline points="17.45,13.64 21.27,21.27 13.64,21.27 17.45,13.64" fill="none" stroke="#111" stroke-width="1.6" stroke-linecap="round" stroke-linejoin="round"/><polyline points="28.15,15.16 28.15,13.64 36.55,13.64 37.31,13.64" fill="none" stroke="#111" stroke-width="1.6" stroke-linecap="round" stroke-linejoin="round"/><polyline points="32.73,6 32.73,13.64" fill="none" stroke="#111" stroke-width="1.6" stroke-linecap="round" stroke-linejoin="round"/><polyline points="32.73,13.64 32.73,28.91 63.27,28.91 63.27,13.64" fill="none" stroke="#111" stroke-width="1.6" stroke-linecap="round" stroke-linejoin="round"/><polyline points="32.73,13.64 36.55,21.27 28.91,21.27 32.73,13.64" fill="none" stroke="#111" stroke-width="1.6" stroke-linecap="round" stroke-linejoin="round"/><circle cx="32.73" cy="28.91" r="1.53" fill="none" stroke="#111" stroke-width="1.6"/><polyline points="48,6 48,13.64" fill="none" stroke="#111" stroke-width="1.6" stroke-linecap="round" stroke-linejoin="round"/><polyline points="48,28.91 48,13.64" fill="none" stroke="#111" stroke-width="1.6" stroke-linecap="round" stroke-linejoin="round"/><polyline points="48,28.91 48,36.55" fill="none" stroke="#111" stroke-width="1.6" stroke-linecap="round" stroke-linejoin="round"/><circle cx="48" cy="28.91" r="1.53" fill="none" stroke="#111" stroke-width="1.6"/><polyline points="51.82,13.64 52.58,13.64" fill="none" stroke="#111" stroke-width="1.6" stroke-linecap="round" stroke-linejoin="round"/><polyline points="51.82,13.64 43.42,13.64 43.42,15.16" fill="none" stroke="#111" stroke-width="1.6" stroke-linecap="round" stroke-linejoin="round"/><polyline points="51.82,21.27 44.18,21.27 48,13.64 51.82,21.27" fill="none" stroke="#111" stroke-width="1.6" stroke-linecap="round" stroke-linejoin="round"/><polyline points="58.69,15.16 58.69,13.64 67.09,13.64 67.85,13.64" fill="none" stroke="#111" stroke-width="1.6" stroke-linecap="round" stroke-linejoin="round"/><polyline points="63.27,6 63.27,13.64" fill="none" stroke="#111" stroke-width="1.6" stroke-linecap="round" stroke-linejoin="round"/><polyline points="63.27,13.64 59.45,21.27 67.09,21.27 63.27,13.64" fill="none" stroke="#111" stroke-width="1.6" stroke-linecap="round" stroke-linejoin="round"/><circle cx="63.27" cy="28.91" r="1.53" fill="none" stroke="#111" stroke-width="1.6"/><polyline points="73.96,15.16 73.96,13.64 82.36,13.64 83.13,13.64" fill="none" stroke="#111" stroke-width="1.6" stroke-linecap="round" stroke-linejoin="round"/><polyline points="78.55,6 78.55,13.64" fill="none" stroke="#111" stroke-width="1.6" stroke-linecap="round" stroke-linejoin="round"/><polyline points="78.55,13.64 78.55,28.91 63.27,28.91" fill="none" stroke="#111" stroke-width="1.6" stroke-linecap="round" stroke-linejoin="round"/><polyline points="78.55,13.64 74.73,21.27 82.36,21.27 78.55,13.64" fill="none" stroke="#111" stroke-width="1.6" stroke-linecap="round" stroke-linejoin="round"/></svg>