<svg xmlns="http://www.w3.org/2000/svg" width="96" height="64" viewBox="0 0 96 64"><rect x="6" y="6" width="1.53" height="52" fill="none" stroke="#111" stroke-width="1.6"/><rect x="6.15" y="6.15" width="1.23" height="51.7" fill="none" stroke="#111" stroke-width="1.6"/><rect x="6.15" y="6.69" width="0.77" height="0.15" fill="none" stroke="#111" stroke-width="1.6"/><rect x="6.15" y="8.22" width="0.77" height="0.15" fill="none" stroke="#111" stroke-width="1.6"/><rect x="6.15" y="9.75" width="0.77" height="0.15" fill="none" stroke="#111" stroke-width="1.6"/><rect x="6.15" y="11.28" width="0.77" height="0.15" fill="none" stroke="#111" stroke-width="1.6"/><rect x="6.15" y="12.81" width="0.77" height="0.15" fill="none" stroke="#111" stroke-width="1.6"/><rect x="6.15" y="14.34" width="0.77" height="0.15" fill="none" stroke="#111" stroke-width="1.6"/><rect x="6.15" y="15.86" width="0.77" height="0.16" fill="none" stroke="#111" stroke-width="1.6"/><rect x="6.15" y="17.39" width="0.77" height="0.16" fill="none" stroke="#111" stroke-width="1.6"/><rect x="6.15" y="18.92" width="0.77" height="0.16" fill="none" stroke="#111" stroke-width="1.6"/><rect x="6.15" y="20.45" width="0.77" height="0.16" fill="none" stroke="#111" stroke-width="1.6"/><rect x="6.15" y="21.98" width="0.77" height="0.16" fill="none" stroke="#111" stroke-width="1.6"/><rect x="6.15" y="23.51" width="0.77" height="0.15" fill="none" stroke="#111" stroke-width="1.6"/><rect x="6.15" y="25.04" width="0.77" height="0.15" fill="none" stroke="#111" stroke-width="1.6"/><rect x="6.15" y="26.57" width="0.77" height="0.15" fill="none" stroke="#111" stroke-width="1.6"/><rect x="6.15" y="28.1" width="0.77" height="0.15" fill="none" stroke="#111" stroke-width="1.6"/><rect x="6.15" y="29.63" width="0.77" height="0.15" fill="none" stroke="#111" stroke-width="1.6"/><rect x="6.15" y="31.16" width="0.77" height="0.15" fill="none" stroke="#111" stroke-width="1.6"/><rect x="6.15" y="32.69" width="0.77" height="0.15" fill="none" stroke="#111" stroke-width="1.6"/><rect x="6.15" y="34.22" width="0.77" height="0.15" fill="none" stroke="#111" stroke-width="1.6"/><rect x="6.15" y="35.75" width="0.77" height="0.15" fill="none" stroke="#111" stroke-width="1.6"/><rect x="6.15" y="37.28" width="0.77" height="0.15" fill="none" stroke="#111" stroke-width="1.6"/><rect x="6.15" y="38.81" width="0.77" height="0.15" fill="none" stroke="#111" stroke-width="1.6"/><rect x="6.15" y="40.34" width="0.77" height="0.15" fill="none" stroke="#111" stroke-width="1.6"/><rect x="6.15" y="41.86" width="0.77" height="0.16" fill="none" stroke="#111" stroke-width="1.6"/><rect x="6.15" y="43.39" width="0.77" height="0.16" fill="none" stroke="#111" stroke-width="1.6"/><rect x="6.15" y="44.92" width="0.77" height="0.16" fill="none" stroke="#111" stroke-width="1.6"/><rect x="6.15" y="46.45" width="0.77" height="0.16" fill="none" stroke="#111" stroke-width="1.6"/><rect x="6.15" y="47.98" width="0.77" height="0.16" fill="none" stroke="#111" stroke-width="1.6"/><rect x="6.15" y="49.51" width="0.77" height="0.15" fill="none" stroke="#111" stroke-width="1.6"/><rect x="6.15" y="51.04" width="0.77" height="0.15" fill="none" stroke="#111" stroke-width="1.6"/><rect x="6.15" y="52.57" width="0.77" height="0.15" fill="none" stroke="#111" stroke-width="1.6"/><rect x="6.15" y="54.1" width="0.77" height="0.15" fill="none" stroke="#111" stroke-width="1.6"/><rect x="6.15" y="55.63" width="0.77" height="0.15" fill="none" stroke="#111" stroke-width="1.6"/><rect x="6.15" y="57.16" width="0.77" height="0.15" fill="none" stroke="#111" stroke-width="1.6"/></svg>