<svg xmlns="http://www.w3.org/2000/svg" width="96" height="64" viewBox="0 0 96 64"><rect x="6" y="6" width="1.59" height="0.47" fill="none" stroke="#111" stroke-width="1.6"/><rect x="6" y="10.68" width="1.59" height="0.47" fill="none" stroke="#111" stroke-width="1.6"/><rect x="6" y="15.37" width="1.59" height="0.47" fill="none" stroke="#111" stroke-width="1.6"/><rect x="6" y="20.05" width="1.59" height="0.47" fill="none" stroke="#111" stroke-width="1.6"/><rect x="6" y="24.74" width="1.59" height="0.47" fill="none" stroke="#111" stroke-width="1.6"/><rect x="6" y="29.42" width="1.59" height="0.47" fill="none" stroke="#111" stroke-width="1.6"/><rect x="6" y="34.11" width="1.59" height="0.47" fill="none" stroke="#111" stroke-width="1.6"/><rect x="6" y="38.79" width="1.59" height="0.47" fill="none" stroke="#111" stroke-width="1.6"/><rect x="6" y="43.48" width="1.59" height="0.47" fill="none" stroke="#111" stroke-width="1.6"/><rect x="6" y="48.16" width="1.59" height="0.47" fill="none" stroke="#111" stroke-width="1.6"/><rect x="6" y="52.85" width="1.59" height="0.47" fill="none" stroke="#111" stroke-width="1.6"/><rect x="6" y="57.53" width="1.59" height="0.47" fill="none" stroke="#111" stroke-width="1.6"/><polyline points="8.34,6.23 7.59,6.23" fill="none" stroke="#111" stroke-width="1.6" stroke-linecap="round" stroke-linejoin="round"/><polyline points="8.34,10.92 7.59,10.92" fill="none" stroke="#111" stroke-width="1.6" stroke-linecap="round" stroke-linejoin="round"/><polyline points="8.34,15.6 7.59,15.6" fill="none" stroke="#111" stroke-width="1.6" stroke-linecap="round" stroke-linejoin="round"/><polyline points="8.34,20.29 7.59,20.29" fill="none" stroke="#111" stroke-width="1.6" stroke-linecap="round" stroke-linejoin="round"/><polyline points="8.34,24.97 7.59,24.97" fill="none" stroke="#111" stroke-width="1.6" stroke-linecap="round" stroke-linejoin="round"/><polyline points="8.34,29.66 7.59,29.66" fill="none" stroke="#111" stroke-width="1.6" stroke-linecap="round" stroke-linejoin="round"/><polyline points="8.34,34.34 7.59,34.34" fill="none" stroke="#111" stroke-width="1.6" stroke-linecap="round" stroke-linejoin="round"/><polyline points="8.34,39.03 7.59,39.03" fill="none" stroke="#111" stroke-width="1.6" stroke-linecap="round" stroke-linejoin="round"/><polyline points="8.34,43.71 7.59,43.71" fill="none" stroke="#111" stroke-width="1.6" stroke-linecap="round" stroke-linejoin="round"/><polyline points="8.34,48.4 7.59,48.4" fill="none" stroke="#111" stroke-width="1.6" stroke-linecap="round" stroke-linejoin="round"/><polyline points="8.34,53.08 7.59,53.08" fill="none" stroke="#111" stroke-width="1.6" stroke-linecap="round" stroke-linejoin="round"/><polyline points="8.34,57.77 7.59,57.77" fill="none" stroke="#111" stroke-width="1.6" stroke-linecap="round" stroke-linejoin="round"/></svg>