<svg xmlns="http://www.w3.org/2000/svg" width="96" height="64" viewBox="0 0 96 64"><polyline points="34.5,33.01 61.5,33.01" fill="none" stroke="#111" stroke-width="1.6" stroke-linecap="round" stroke-linejoin="round"/><polyline points="48,46.51 48,33.01" fill="none" stroke="#111" stroke-width="1.6" stroke-linecap="round" stroke-linejoin="round"/><polyline points="12.21,22.88 15.59,22.88" fill="none" stroke="#111" stroke-width="1.6" stroke-linecap="round" stroke-linejoin="round"/><polyline points="12.89,19.5 29.09,19.5 29.09,19.5" fill="none" stroke="#111" stroke-width="1.6" stroke-linecap="round" stroke-linejoin="round"/><polyline points="14.24,23.56 14.24,33.01 7.49,33.01 7.49,33.01" fill="none" stroke="#111" stroke-width="1.6" stroke-linecap="round" stroke-linejoin="round"/><circle cx="14.24" cy="33.01" r="0.68" fill="none" stroke="#111" stroke-width="1.6"/><polyline points="14.24,33.01 14.24,37.06 27.74,37.06 27.74,33.01" fill="none" stroke="#111" stroke-width="1.6" stroke-linecap="round" stroke-linejoin="round"/><polyline points="18.96,22.88 23.02,22.88" fill="none" stroke="#111" stroke-width="1.6" stroke-linecap="round" stroke-linejoin="round"/><polyline points="18.96,35.71 18.96,38.41" fill="none" stroke="#111" stroke-width="1.6" stroke-linecap="round" stroke-linejoin="round"/><polyline points="18.96,35.71 19.64,35.04" fill="none" stroke="#111" stroke-width="1.6" stroke-linecap="round" stroke-linejoin="round"/><polyline points="18.96,37.06 22.34,35.71 22.34,38.41 18.96,37.06" fill="none" stroke="#111" stroke-width="1.6" stroke-linecap="round" stroke-linejoin="round"/><polyline points="18.96,38.41 18.29,39.09" fill="none" stroke="#111" stroke-width="1.6" stroke-linecap="round" stroke-linejoin="round"/><polyline points="20.99,19.5 20.99,6" fill="none" stroke="#111" stroke-width="1.6" stroke-linecap="round" stroke-linejoin="round"/><polyline points="20.99,23.56 20.99,26.26 20.99,33.01 27.74,33.01 27.74,33.01" fill="none" stroke="#111" stroke-width="1.6" stroke-linecap="round" stroke-linejoin="round"/><polyline points="20.99,24.23 18.96,29.63 23.02,29.63 20.99,24.23 20.99,24.91 20.99,24.91" fill="none" stroke="#111" stroke-width="1.6" stroke-linecap="round" stroke-linejoin="round"/><circle cx="20.99" cy="26.26" r="14.99" fill="none" stroke="#111" stroke-width="1.6"/><polyline points="26.39,22.88 29.77,22.88" fill="none" stroke="#111" stroke-width="1.6" stroke-linecap="round" stroke-linejoin="round"/><polyline points="27.74,23.56 27.74,33.01 34.5,33.01 34.5,33.01" fill="none" stroke="#111" stroke-width="1.6" stroke-linecap="round" stroke-linejoin="round"/><circle cx="27.74" cy="33.01" r="0.68" fill="none" stroke="#111" stroke-width="1.6"/><polyline points="68.26,23.56 68.26,33.01 61.5,33.01 61.5,33.01" fill="none" stroke="#111" stroke-width="1.6" stroke-linecap="round" stroke-linejoin="round"/><circle cx="68.26" cy="33.01" r="0.68" fill="none" stroke="#111" stroke-width="1.6"/><polyline points="69.61,22.88 66.23,22.88" fill="none" stroke="#111" stroke-width="1.6" stroke-linecap="round" stroke-linejoin="round"/><polyline points="75.01,19.5 75.01,6" fill="none" stroke="#111" stroke-width="1.6" stroke-linecap="round" stroke-linejoin="round"/><polyline points="75.01,23.56 75.01,26.26 75.01,33.01 68.26,33.01 68.26,33.01" fill="none" stroke="#111" stroke-width="1.6" stroke-linecap="round" stroke-linejoin="round"/><polyline points="75.01,24.23 77.04,29.63 72.98,29.63 75.01,24.23 75.01,24.91 75.01,24.91" fill="none" stroke="#111" stroke-width="1.6" stroke-linecap="round" stroke-linejoin="round"/><circle cx="75.01" cy="26.26" r="14.99" fill="none" stroke="#111" stroke-width="1.6"/><polyline points="77.04,22.88 72.98,22.88" fill="none" stroke="#111" stroke-width="1.6" stroke-linecap="round" stroke-linejoin="round"/><polyline points="77.04,35.71 76.36,35.04" fill="none" stroke="#111" stroke-width="1.6" stroke-linecap="round" stroke-linejoin="round"/><polyline points="77.04,35.71 77.04,38.41" fill="none" stroke="#111" stroke-width="1.6" stroke-linecap="round" stroke-linejoin="round"/><polyline points="77.04,37.06 73.66,35.71 73.66,38.41 77.04,37.06" fill="none" stroke="#111" stroke-width="1.6" stroke-linecap="round" stroke-linejoin="round"/><polyline points="77.04,38.41 77.71,39.09" fill="none" stroke="#111" stroke-width="1.6" stroke-linecap="round" stroke-linejoin="round"/><polyline points="81.76,23.56 81.76,33.01 88.51,33.01 88.51,33.01" fill="none" stroke="#111" stroke-width="1.6" stroke-linecap="round" stroke-linejoin="round"/><polyline points="81.76,33.01 81.76,37.06 68.26,37.06 68.26,33.01" fill="none" stroke="#111" stroke-width="1.6" stroke-linecap="round" stroke-linejoin="round"/><circle cx="81.76" cy="33.01" r="0.68" fill="none" stroke="#111" stroke-width="1.6"/><polyline points="83.11,19.5 66.91,19.5 66.91,19.5" fill="none" stroke="#111" stroke-width="1.6" stroke-linecap="round" stroke-linejoin="round"/><polyline points="83.79,22.88 80.41,22.88" fill="none" stroke="#111" stroke-width="1.6" stroke-linecap="round" stroke-linejoin="round"/></svg>