<svg xmlns="http://www.w3.org/2000/svg" width="96" height="64" viewBox="0 0 96 64"><polyline points="6,6.18 6.27,6.18" fill="none" stroke="#111" stroke-width="1.6" stroke-linecap="round" stroke-linejoin="round"/><polyline points="6,7.09 6.27,7.09" fill="none" stroke="#111" stroke-width="1.6" stroke-linecap="round" stroke-linejoin="round"/><polyline points="6,7.99 6.27,7.99" fill="none" stroke="#111" stroke-width="1.6" stroke-linecap="round" stroke-linejoin="round"/><polyline points="6,8.9 6.27,8.9" fill="none" stroke="#111" stroke-width="1.6" stroke-linecap="round" stroke-linejoin="round"/><polyline points="6,9.8 6.27,9.8" fill="none" stroke="#111" stroke-width="1.6" stroke-linecap="round" stroke-linejoin="round"/><polyline points="6,10.71 6.27,10.71" fill="none" stroke="#111" stroke-width="1.6" stroke-linecap="round" stroke-linejoin="round"/><polyline points="6,11.62 6.27,11.62" fill="none" stroke="#111" stroke-width="1.6" stroke-linecap="round" stroke-linejoin="round"/><polyline points="6,12.52 6.27,12.52" fill="none" stroke="#111" stroke-width="1.6" stroke-linecap="round" stroke-linejoin="round"/><polyline points="6,13.43 6.27,13.43" fill="none" stroke="#111" stroke-width="1.6" stroke-linecap="round" stroke-linejoin="round"/><polyline points="6,14.33 6.27,14.33" fill="none" stroke="#111" stroke-width="1.6" stroke-linecap="round" stroke-linejoin="round"/><polyline points="6,15.24 6.27,15.24" fill="none" stroke="#111" stroke-width="1.6" stroke-linecap="round" stroke-linejoin="round"/><polyline points="6,16.15 6.27,16.15" fill="none" stroke="#111" stroke-width="1.6" stroke-linecap="round" stroke-linejoin="round"/><polyline points="6,17.05 6.27,17.05" fill="none" stroke="#111" stroke-width="1.6" stroke-linecap="round" stroke-linejoin="round"/><polyline points="6,17.96 6.27,17.96" fill="none" stroke="#111" stroke-width="1.6" stroke-linecap="round" stroke-linejoin="round"/><polyline points="6,18.86 6.27,18.86" fill="none" stroke="#111" stroke-width="1.6" stroke-linecap="round" stroke-linejoin="round"/><polyline points="6,19.77 6.27,19.77" fill="none" stroke="#111" stroke-width="1.6" stroke-linecap="round" stroke-linejoin="round"/><polyline points="6,20.68 6.27,20.68" fill="none" stroke="#111" stroke-width="1.6" stroke-linecap="round" stroke-linejoin="round"/><polyline points="6,21.58 6.27,21.58" fill="none" stroke="#111" stroke-width="1.6" stroke-linecap="round" stroke-linejoin="round"/><polyline points="6,22.49 6.27,22.49" fill="none" stroke="#111" stroke-width="1.6" stroke-linecap="round" stroke-linejoin="round"/><polyline points="6,23.39 6.27,23.39" fill="none" stroke="#111" stroke-width="1.6" stroke-linecap="round" stroke-linejoin="round"/><polyline points="6,24.3 6.27,24.3" fill="none" stroke="#111" stroke-width="1.6" stroke-linecap="round" stroke-linejoin="round"/><polyline points="6,25.21 6.27,25.21" fill="none" stroke="#111" stroke-width="1.6" stroke-linecap="round" stroke-linejoin="round"/><polyline points="6,26.11 6.27,26.11" fill="none" stroke="#111" stroke-width="1.6" stroke-linecap="round" stroke-linejoin="round"/><polyline points="6,27.02 6.27,27.02" fill="none" stroke="#111" stroke-width="1.6" stroke-linecap="round" stroke-linejoin="round"/><polyline points="6,27.92 6.27,27.92" fill="none" stroke="#111" stroke-width="1.6" stroke-linecap="round" stroke-linejoin="round"/><polyline points="6,28.83 6.27,28.83" fill="none" stroke="#111" stroke-width="1.6" stroke-linecap="round" stroke-linejoin="round"/><polyline points="6,29.74 6.27,29.74" fill="none" stroke="#111" stroke-width="1.6" stroke-linecap="round" stroke-linejoin="round"/><polyline points="6,30.64 6.27,30.64" fill="none" stroke="#111" stroke-width="1.6" stroke-linecap="round" stroke-linejoin="round"/><polyline points="6,31.55 6.27,31.55" fill="none" stroke="#111" stroke-width="1.6" stroke-linecap="round" stroke-linejoin="round"/><polyline points="6,32.45 6.27,32.45" fill="none" stroke="#111" stroke-width="1.6" stroke-linecap="round" stroke-linejoin="round"/><polyline points="6,33.36 6.27,33.36" fill="none" stroke="#111" stroke-width="1.6" stroke-linecap="round" stroke-linejoin="round"/><polyline points="6,34.26 6.27,34.26" fill="none" stroke="#111" stroke-width="1.6" stroke-linecap="round" stroke-linejoin="round"/><polyline points="6,35.17 6.27,35.17" fill="none" stroke="#111" stroke-width="1.6" stroke-linecap="round" stroke-linejoin="round"/><polyline points="6,36.08 6.27,36.08" fill="none" stroke="#111" stroke-width="1.6" stroke-linecap="round" stroke-linejoin="round"/><polyline points="6,36.98 6.27,36.98" fill="none" stroke="#111" stroke-width="1.6" stroke-linecap="round" stroke-linejoin="round"/><polyline points="6,37.89 6.27,37.89" fill="none" stroke="#111" stroke-width="1.6" stroke-linecap="round" stroke-linejoin="round"/><polyline points="6,38.79 6.27,38.79" fill="none" stroke="#111" stroke-width="1.6" stroke-linecap="round" stroke-linejoin="round"/><polyline points="6,39.7 6.27,39.7" fill="none" stroke="#111" stroke-width="1.6" stroke-linecap="round" stroke-linejoin="round"/><polyline points="6,40.61 6.27,40.61" fill="none" stroke="#111" stroke-width="1.6" stroke-linecap="round" stroke-linejoin="round"/><polyline points="6,41.51 6.27,41.51" fill="none" stroke="#111" stroke-width="1.6" stroke-linecap="round" stroke-linejoin="round"/><polyline points="6,42.42 6.27,42.42" fill="none" stroke="#111" stroke-width="1.6" stroke-linecap="round" stroke-linejoin="round"/><polyline points="6,43.32 6.27,43.32" fill="none" stroke="#111" stroke-width="1.6" stroke-linecap="round" stroke-linejoin="round"/><polyline points="6,44.23 6.27,44.23" fill="none" stroke="#111" stroke-width="1.6" stroke-linecap="round" stroke-linejoin="round"/><polyline points="6,45.14 6.27,45.14" fill="none" stroke="#111" stroke-width="1.6" stroke-linecap="round" stroke-linejoin="round"/><polyline points="6,46.04 6.27,46.04" fill="none" stroke="#111" stroke-width="1.6" stroke-linecap="round" stroke-linejoin="round"/><polyline points="6,46.95 6.27,46.95" fill="none" stroke="#111" stroke-width="1.6" stroke-linecap="round" stroke-linejoin="round"/><polyline points="6,47.85 6.27,47.85" fill="none" stroke="#111" stroke-width="1.6" stroke-linecap="round" stroke-linejoin="round"/><polyline points="6,48.76 6.27,48.76" fill="none" stroke="#111" stroke-width="1.6" stroke-linecap="round" stroke-linejoin="round"/><polyline points="6,49.67 6.27,49.67" fill="none" stroke="#111" stroke-width="1.6" stroke-linecap="round" stroke-linejoin="round"/><polyline points="6,50.57 6.27,50.57" fill="none" stroke="#111" stroke-width="1.6" stroke-linecap="round" stroke-linejoin="round"/><polyline points="6,51.48 6.27,51.48" fill="none" stroke="#111" stroke-width="1.6" stroke-linecap="round" stroke-linejoin="round"/><polyline points="6,52.38 6.27,52.38" fill="none" stroke="#111" stroke-width="1.6" stroke-linecap="round" stroke-linejoin="round"/><polyline points="6,53.29 6.27,53.29" fill="none" stroke="#111" stroke-width="1.6" stroke-linecap="round" stroke-linejoin="round"/><polyline points="6,54.2 6.27,54.2" fill="none" stroke="#111" stroke-width="1.6" stroke-linecap="round" stroke-linejoin="round"/><polyline points="6,55.1 6.27,55.1" fill="none" stroke="#111" stroke-width="1.6" stroke-linecap="round" stroke-linejoin="round"/><polyline points="6,56.01 6.27,56.01" fill="none" stroke="#111" stroke-width="1.6" stroke-linecap="round" stroke-linejoin="round"/><polyline points="6,56.91 6.27,56.91" fill="none" stroke="#111" stroke-width="1.6" stroke-linecap="round" stroke-linejoin="round"/><polyline points="6,57.82 6.27,57.82" fill="none" stroke="#111" stroke-width="1.6" stroke-linecap="round" stroke-linejoin="round"/><path d="M 6.45 6.36 Q 6.27 6.18 6.45 6" fill="none" stroke="#111" stroke-width="1.6" stroke-linecap="round"/><path d="M 6.45 7.27 Q 6.27 7.09 6.45 6.91" fill="none" stroke="#111" stroke-width="1.6" stroke-linecap="round"/><path d="M 6.45 8.17 Q 6.27 7.99 6.45 7.81" fill="none" stroke="#111" stroke-width="1.6" stroke-linecap="round"/><path d="M 6.45 9.08 Q 6.27 8.9 6.45 8.72" fill="none" stroke="#111" stroke-width="1.6" stroke-linecap="round"/><path d="M 6.45 9.99 Q 6.27 9.8 6.45 9.62" fill="none" stroke="#111" stroke-width="1.6" stroke-linecap="round"/><path d="M 6.45 10.89 Q 6.27 10.71 6.45 10.53" fill="none" stroke="#111" stroke-width="1.6" stroke-linecap="round"/><path d="M 6.45 11.8 Q 6.27 11.62 6.45 11.44" fill="none" stroke="#111" stroke-width="1.6" stroke-linecap="round"/><path d="M 6.45 12.7 Q 6.27 12.52 6.45 12.34" fill="none" stroke="#111" stroke-width="1.6" stroke-linecap="round"/><path d="M 6.45 13.61 Q 6.27 13.43 6.45 13.25" fill="none" stroke="#111" stroke-width="1.6" stroke-linecap="round"/><path d="M 6.45 14.52 Q 6.27 14.33 6.45 14.15" fill="none" stroke="#111" stroke-width="1.6" stroke-linecap="round"/><path d="M 6.45 15.42 Q 6.27 15.24 6.45 15.06" fill="none" stroke="#111" stroke-width="1.6" stroke-linecap="round"/><path d="M 6.45 16.33 Q 6.27 16.15 6.45 15.97" fill="none" stroke="#111" stroke-width="1.6" stroke-linecap="round"/><path d="M 6.45 17.23 Q 6.27 17.05 6.45 16.87" fill="none" stroke="#111" stroke-width="1.6" stroke-linecap="round"/><path d="M 6.45 18.14 Q 6.27 17.96 6.45 17.78" fill="none" stroke="#111" stroke-width="1.6" stroke-linecap="round"/><path d="M 6.45 19.05 Q 6.27 18.86 6.45 18.68" fill="none" stroke="#111" stroke-width="1.6" stroke-linecap="round"/><path d="M 6.45 19.95 Q 6.27 19.77 6.45 19.59" fill="none" stroke="#111" stroke-width="1.6" stroke-linecap="round"/><path d="M 6.45 20.86 Q 6.27 20.68 6.45 20.49" fill="none" stroke="#111" stroke-width="1.6" stroke-linecap="round"/><path d="M 6.45 21.76 Q 6.27 21.58 6.45 21.4" fill="none" stroke="#111" stroke-width="1.6" stroke-linecap="round"/><path d="M 6.45 22.67 Q 6.27 22.49 6.45 22.31" fill="none" stroke="#111" stroke-width="1.6" stroke-linecap="round"/><path d="M 6.45 23.57 Q 6.27 23.39 6.45 23.21" fill="none" stroke="#111" stroke-width="1.6" stroke-linecap="round"/><path d="M 6.45 24.48 Q 6.27 24.3 6.45 24.12" fill="none" stroke="#111" stroke-width="1.6" stroke-linecap="round"/><path d="M 6.45 25.39 Q 6.27 25.21 6.45 25.02" fill="none" stroke="#111" stroke-width="1.6" stroke-linecap="round"/><path d="M 6.45 26.29 Q 6.27 26.11 6.45 25.93" fill="none" stroke="#111" stroke-width="1.6" stroke-linecap="round"/><path d="M 6.45 27.2 Q 6.27 27.02 6.45 26.84" fill="none" stroke="#111" stroke-width="1.6" stroke-linecap="round"/><path d="M 6.45 28.1 Q 6.27 27.92 6.45 27.74" fill="none" stroke="#111" stroke-width="1.6" stroke-linecap="round"/><path d="M 6.45 29.01 Q 6.27 28.83 6.45 28.65" fill="none" stroke="#111" stroke-width="1.6" stroke-linecap="round"/><path d="M 6.45 29.92 Q 6.27 29.74 6.45 29.55" fill="none" stroke="#111" stroke-width="1.6" stroke-linecap="round"/><path d="M 6.45 30.82 Q 6.27 30.64 6.45 30.46" fill="none" stroke="#111" stroke-width="1.6" stroke-linecap="round"/><path d="M 6.45 31.73 Q 6.27 31.55 6.45 31.37" fill="none" stroke="#111" stroke-width="1.6" stroke-linecap="round"/><path d="M 6.45 32.63 Q 6.27 32.45 6.45 32.27" fill="none" stroke="#111" stroke-width="1.6" stroke-linecap="round"/><path d="M 6.45 33.54 Q 6.27 33.36 6.45 33.18" fill="none" stroke="#111" stroke-width="1.6" stroke-linecap="round"/><path d="M 6.45 34.45 Q 6.27 34.26 6.45 34.08" fill="none" stroke="#111" stroke-width="1.6" stroke-linecap="round"/><path d="M 6.45 35.35 Q 6.27 35.17 6.45 34.99" fill="none" stroke="#111" stroke-width="1.6" stroke-linecap="round"/><path d="M 6.45 36.26 Q 6.27 36.08 6.45 35.9" fill="none" stroke="#111" stroke-width="1.6" stroke-linecap="round"/><path d="M 6.45 37.16 Q 6.27 36.98 6.45 36.8" fill="none" stroke="#111" stroke-width="1.6" stroke-linecap="round"/><path d="M 6.45 38.07 Q 6.27 37.89 6.45 37.71" fill="none" stroke="#111" stroke-width="1.6" stroke-linecap="round"/><path d="M 6.45 38.98 Q 6.27 38.79 6.45 38.61" fill="none" stroke="#111" stroke-width="1.6" stroke-linecap="round"/><path d="M 6.45 39.88 Q 6.27 39.7 6.45 39.52" fill="none" stroke="#111" stroke-width="1.6" stroke-linecap="round"/><path d="M 6.45 40.79 Q 6.27 40.61 6.45 40.43" fill="none" stroke="#111" stroke-width="1.6" stroke-linecap="round"/><path d="M 6.45 41.69 Q 6.27 41.51 6.45 41.33" fill="none" stroke="#111" stroke-width="1.6" stroke-linecap="round"/><path d="M 6.45 42.6 Q 6.27 42.42 6.45 42.24" fill="none" stroke="#111" stroke-width="1.6" stroke-linecap="round"/><path d="M 6.45 43.51 Q 6.27 43.32 6.45 43.14" fill="none" stroke="#111" stroke-width="1.6" stroke-linecap="round"/><path d="M 6.45 44.41 Q 6.27 44.23 6.45 44.05" fill="none" stroke="#111" stroke-width="1.6" stroke-linecap="round"/><path d="M 6.45 45.32 Q 6.27 45.14 6.45 44.95" fill="none" stroke="#111" stroke-width="1.6" stroke-linecap="round"/><path d="M 6.45 46.22 Q 6.27 46.04 6.45 45.86" fill="none" stroke="#111" stroke-width="1.6" stroke-linecap="round"/><path d="M 6.45 47.13 Q 6.27 46.95 6.45 46.77" fill="none" stroke="#111" stroke-width="1.6" stroke-linecap="round"/><path d="M 6.45 48.03 Q 6.27 47.85 6.45 47.67" fill="none" stroke="#111" stroke-width="1.6" stroke-linecap="round"/><path d="M 6.45 48.94 Q 6.27 48.76 6.45 48.58" fill="none" stroke="#111" stroke-width="1.6" stroke-linecap="round"/><path d="M 6.45 49.85 Q 6.27 49.67 6.45 49.48" fill="none" stroke="#111" stroke-width="1.6" stroke-linecap="round"/><path d="M 6.45 50.75 Q 6.27 50.57 6.45 50.39" fill="none" stroke="#111" stroke-width="1.6" stroke-linecap="round"/><path d="M 6.45 51.66 Q 6.27 51.48 6.45 51.3" fill="none" stroke="#111" stroke-width="1.6" stroke-linecap="round"/><path d="M 6.45 52.56 Q 6.27 52.38 6.45 52.2" fill="none" stroke="#111" stroke-width="1.6" stroke-linecap="round"/><path d="M 6.45 53.47 Q 6.27 53.29 6.45 53.11" fill="none" stroke="#111" stroke-width="1.6" stroke-linecap="round"/><path d="M 6.45 54.38 Q 6.27 54.2 6.45 54.01" fill="none" stroke="#111" stroke-width="1.6" stroke-linecap="round"/><path d="M 6.45 55.28 Q 6.27 55.1 6.45 54.92" fill="none" stroke="#111" stroke-width="1.6" stroke-linecap="round"/><path d="M 6.45 56.19 Q 6.27 56.01 6.45 55.83" fill="none" stroke="#111" stroke-width="1.6" stroke-linecap="round"/><path d="M 6.45 57.09 Q 6.27 56.91 6.45 56.73" fill="none" stroke="#111" stroke-width="1.6" stroke-linecap="round"/><path d="M 6.45 58 Q 6.27 57.82 6.45 57.64" fill="none" stroke="#111" stroke-width="1.6" stroke-linecap="round"/></svg>