<svg xmlns="http://www.w3.org/2000/svg" width="96" height="64" viewBox="0 0 96 64"><rect x="6" y="6" width="2.3" height="51.66" fill="none" stroke="#111" stroke-width="1.6"/><rect x="6" y="6.52" width="0.57" height="0.11" fill="none" stroke="#111" stroke-width="1.6"/><rect x="6" y="7.66" width="0.57" height="0.12" fill="none" stroke="#111" stroke-width="1.6"/><rect x="6" y="8.81" width="0.57" height="0.12" fill="none" stroke="#111" stroke-width="1.6"/><rect x="6" y="9.96" width="0.57" height="0.12" fill="none" stroke="#111" stroke-width="1.6"/><rect x="6" y="11.11" width="0.57" height="0.11" fill="none" stroke="#111" stroke-width="1.6"/><rect x="6" y="12.26" width="0.57" height="0.11" fill="none" stroke="#111" stroke-width="1.6"/><rect x="6" y="13.4" width="0.57" height="0.12" fill="none" stroke="#111" stroke-width="1.6"/><rect x="6" y="14.55" width="0.57" height="0.12" fill="none" stroke="#111" stroke-width="1.6"/><rect x="6" y="15.7" width="0.57" height="0.11" fill="none" stroke="#111" stroke-width="1.6"/><rect x="6" y="16.85" width="0.57" height="0.11" fill="none" stroke="#111" stroke-width="1.6"/><rect x="6" y="18" width="0.57" height="0.11" fill="none" stroke="#111" stroke-width="1.6"/><rect x="6" y="19.14" width="0.57" height="0.12" fill="none" stroke="#111" stroke-width="1.6"/><rect x="6" y="20.29" width="0.57" height="0.12" fill="none" stroke="#111" stroke-width="1.6"/><rect x="6" y="21.44" width="0.57" height="0.11" fill="none" stroke="#111" stroke-width="1.6"/><rect x="6" y="22.59" width="0.57" height="0.11" fill="none" stroke="#111" stroke-width="1.6"/><rect x="6" y="23.74" width="0.57" height="0.11" fill="none" stroke="#111" stroke-width="1.6"/><rect x="6" y="24.88" width="0.57" height="0.12" fill="none" stroke="#111" stroke-width="1.6"/><rect x="6" y="26.03" width="0.57" height="0.12" fill="none" stroke="#111" stroke-width="1.6"/><rect x="6" y="27.18" width="0.57" height="0.11" fill="none" stroke="#111" stroke-width="1.6"/><rect x="6" y="28.33" width="0.57" height="0.11" fill="none" stroke="#111" stroke-width="1.6"/><rect x="6" y="29.47" width="0.57" height="0.12" fill="none" stroke="#111" stroke-width="1.6"/><rect x="6" y="30.62" width="0.57" height="0.12" fill="none" stroke="#111" stroke-width="1.6"/><rect x="6" y="31.77" width="0.57" height="0.12" fill="none" stroke="#111" stroke-width="1.6"/><rect x="6" y="32.92" width="0.57" height="0.11" fill="none" stroke="#111" stroke-width="1.6"/><rect x="6" y="34.07" width="0.57" height="0.11" fill="none" stroke="#111" stroke-width="1.6"/><rect x="6" y="35.21" width="0.57" height="0.12" fill="none" stroke="#111" stroke-width="1.6"/><rect x="6" y="36.36" width="0.57" height="0.12" fill="none" stroke="#111" stroke-width="1.6"/><rect x="6" y="37.51" width="0.57" height="0.11" fill="none" stroke="#111" stroke-width="1.6"/><rect x="6" y="38.66" width="0.57" height="0.11" fill="none" stroke="#111" stroke-width="1.6"/><rect x="6" y="39.81" width="0.57" height="0.11" fill="none" stroke="#111" stroke-width="1.6"/><rect x="6" y="40.95" width="0.57" height="0.12" fill="none" stroke="#111" stroke-width="1.6"/><rect x="6" y="42.1" width="0.57" height="0.12" fill="none" stroke="#111" stroke-width="1.6"/><rect x="6" y="43.25" width="0.57" height="0.11" fill="none" stroke="#111" stroke-width="1.6"/><rect x="6" y="44.4" width="0.57" height="0.11" fill="none" stroke="#111" stroke-width="1.6"/><rect x="6" y="45.55" width="0.57" height="0.11" fill="none" stroke="#111" stroke-width="1.6"/><rect x="6" y="46.69" width="0.57" height="0.12" fill="none" stroke="#111" stroke-width="1.6"/><rect x="6" y="47.84" width="0.57" height="0.12" fill="none" stroke="#111" stroke-width="1.6"/><rect x="6" y="48.99" width="0.57" height="0.11" fill="none" stroke="#111" stroke-width="1.6"/><rect x="6" y="50.14" width="0.57" height="0.11" fill="none" stroke="#111" stroke-width="1.6"/><rect x="6" y="51.28" width="0.57" height="0.12" fill="none" stroke="#111" stroke-width="1.6"/><rect x="6" y="52.43" width="0.57" height="0.12" fill="none" stroke="#111" stroke-width="1.6"/><rect x="6" y="53.58" width="0.57" height="0.12" fill="none" stroke="#111" stroke-width="1.6"/><rect x="6" y="54.73" width="0.57" height="0.11" fill="none" stroke="#111" stroke-width="1.6"/><rect x="6" y="55.88" width="0.57" height="0.11" fill="none" stroke="#111" stroke-width="1.6"/><rect x="6" y="57.02" width="0.57" height="0.12" fill="none" stroke="#111" stroke-width="1.6"/><polyline points="6.69,58 7.61,58" fill="none" stroke="#111" stroke-width="1.6" stroke-linecap="round" stroke-linejoin="round"/><rect x="7.72" y="6.52" width="0.58" height="0.11" fill="none" stroke="#111" stroke-width="1.6"/><rect x="7.72" y="7.66" width="0.58" height="0.12" fill="none" stroke="#111" stroke-width="1.6"/><rect x="7.72" y="8.81" width="0.58" height="0.12" fill="none" stroke="#111" stroke-width="1.6"/><rect x="7.72" y="9.96" width="0.58" height="0.12" fill="none" stroke="#111" stroke-width="1.6"/><rect x="7.72" y="11.11" width="0.58" height="0.11" fill="none" stroke="#111" stroke-width="1.6"/><rect x="7.72" y="12.26" width="0.58" height="0.11" fill="none" stroke="#111" stroke-width="1.6"/><rect x="7.72" y="13.4" width="0.58" height="0.12" fill="none" stroke="#111" stroke-width="1.6"/><rect x="7.72" y="14.55" width="0.58" height="0.12" fill="none" stroke="#111" stroke-width="1.6"/><rect x="7.72" y="15.7" width="0.58" height="0.11" fill="none" stroke="#111" stroke-width="1.6"/><rect x="7.72" y="16.85" width="0.58" height="0.11" fill="none" stroke="#111" stroke-width="1.6"/><rect x="7.72" y="18" width="0.58" height="0.11" fill="none" stroke="#111" stroke-width="1.6"/><rect x="7.72" y="19.14" width="0.58" height="0.12" fill="none" stroke="#111" stroke-width="1.6"/><rect x="7.72" y="20.29" width="0.58" height="0.12" fill="none" stroke="#111" stroke-width="1.6"/><rect x="7.72" y="21.44" width="0.58" height="0.11" fill="none" stroke="#111" stroke-width="1.6"/><rect x="7.72" y="22.59" width="0.58" height="0.11" fill="none" stroke="#111" stroke-width="1.6"/><rect x="7.72" y="23.74" width="0.58" height="0.11" fill="none" stroke="#111" stroke-width="1.6"/><rect x="7.72" y="24.88" width="0.58" height="0.12" fill="none" stroke="#111" stroke-width="1.6"/><rect x="7.72" y="26.03" width="0.58" height="0.12" fill="none" stroke="#111" stroke-width="1.6"/><rect x="7.72" y="27.18" width="0.58" height="0.11" fill="none" stroke="#111" stroke-width="1.6"/><rect x="7.72" y="28.33" width="0.58" height="0.11" fill="none" stroke="#111" stroke-width="1.6"/><rect x="7.72" y="29.47" width="0.58" height="0.12" fill="none" stroke="#111" stroke-width="1.6"/><rect x="7.72" y="30.62" width="0.58" height="0.12" fill="none" stroke="#111" stroke-width="1.6"/><rect x="7.72" y="31.77" width="0.58" height="0.12" fill="none" stroke="#111" stroke-width="1.6"/><rect x="7.72" y="32.92" width="0.58" height="0.11" fill="none" stroke="#111" stroke-width="1.6"/><rect x="7.72" y="34.07" width="0.58" height="0.11" fill="none" stroke="#111" stroke-width="1.6"/><rect x="7.72" y="35.21" width="0.58" height="0.12" fill="none" stroke="#111" stroke-width="1.6"/><rect x="7.72" y="36.36" width="0.58" height="0.12" fill="none" stroke="#111" stroke-width="1.6"/><rect x="7.72" y="37.51" width="0.58" height="0.11" fill="none" stroke="#111" stroke-width="1.6"/><rect x="7.72" y="38.66" width="0.58" height="0.11" fill="none" stroke="#111" stroke-width="1.6"/><rect x="7.72" y="39.81" width="0.58" height="0.11" fill="none" stroke="#111" stroke-width="1.6"/><rect x="7.72" y="40.95" width="0.58" height="0.12" fill="none" stroke="#111" stroke-width="1.6"/><rect x="7.72" y="42.1" width="0.58" height="0.12" fill="none" stroke="#111" stroke-width="1.6"/><rect x="7.72" y="43.25" width="0.58" height="0.11" fill="none" stroke="#111" stroke-width="1.6"/><rect x="7.72" y="44.4" width="0.58" height="0.11" fill="none" stroke="#111" stroke-width="1.6"/><rect x="7.72" y="45.55" width="0.58" height="0.11" fill="none" stroke="#111" stroke-width="1.6"/><rect x="7.72" y="46.69" width="0.58" height="0.12" fill="none" stroke="#111" stroke-width="1.6"/><rect x="7.72" y="47.84" width="0.58" height="0.12" fill="none" stroke="#111" stroke-width="1.6"/><rect x="7.72" y="48.99" width="0.58" height="0.11" fill="none" stroke="#111" stroke-width="1.6"/><rect x="7.72" y="50.14" width="0.58" height="0.11" fill="none" stroke="#111" stroke-width="1.6"/><rect x="7.72" y="51.28" width="0.58" height="0.12" fill="none" stroke="#111" stroke-width="1.6"/><rect x="7.72" y="52.43" width="0.58" height="0.12" fill="none" stroke="#111" stroke-width="1.6"/><rect x="7.72" y="53.58" width="0.58" height="0.12" fill="none" stroke="#111" stroke-width="1.6"/><rect x="7.72" y="54.73" width="0.58" height="0.11" fill="none" stroke="#111" stroke-width="1.6"/><rect x="7.72" y="55.88" width="0.58" height="0.11" fill="none" stroke="#111" stroke-width="1.6"/><rect x="7.72" y="57.02" width="0.58" height="0.12" fill="none" stroke="#111" stroke-width="1.6"/></svg>