<svg xmlns="http://www.w3.org/2000/svg" width="96" height="64" viewBox="0 0 96 64"><rect x="6" y="6" width="30.59" height="52" fill="none" stroke="#111" stroke-width="1.6"/><rect x="6" y="7.53" width="11.47" height="32.12" fill="none" stroke="#111" stroke-width="1.6"/><rect x="6" y="46.53" width="11.47" height="9.94" fill="none" stroke="#111" stroke-width="1.6"/><polyline points="17.47,19.76 22.82,19.76" fill="none" stroke="#111" stroke-width="1.6" stroke-linecap="round" stroke-linejoin="round"/><polyline points="17.47,50.05 22.82,50.05" fill="none" stroke="#111" stroke-width="1.6" stroke-linecap="round" stroke-linejoin="round"/><polyline points="22.82,20.99 17.47,20.99" fill="none" stroke="#111" stroke-width="1.6" stroke-linecap="round" stroke-linejoin="round"/><polyline points="22.82,51.27 17.47,51.27" fill="none" stroke="#111" stroke-width="1.6" stroke-linecap="round" stroke-linejoin="round"/><rect x="23.44" y="7.53" width="13.15" height="48.94" fill="none" stroke="#111" stroke-width="1.6"/><polyline points="23.44,20.38 22.21,18.85" fill="none" stroke="#111" stroke-width="1.6" stroke-linecap="round" stroke-linejoin="round"/><polyline points="23.44,20.38 22.21,21.91" fill="none" stroke="#111" stroke-width="1.6" stroke-linecap="round" stroke-linejoin="round"/><polyline points="23.44,50.66 22.21,49.13" fill="none" stroke="#111" stroke-width="1.6" stroke-linecap="round" stroke-linejoin="round"/><polyline points="23.44,50.66 22.21,52.19" fill="none" stroke="#111" stroke-width="1.6" stroke-linecap="round" stroke-linejoin="round"/><polyline points="23.74,10.59 27.11,10.59 26.49,10.28 27.11,10.59 26.49,10.89" fill="none" stroke="#111" stroke-width="1.6" stroke-linecap="round" stroke-linejoin="round"/><polyline points="23.74,12.73 26.19,12.73 25.58,12.42 26.19,12.73 25.58,13.04" fill="none" stroke="#111" stroke-width="1.6" stroke-linecap="round" stroke-linejoin="round"/><rect x="27.11" y="14.56" width="1.22" height="0.31" fill="none" stroke="#111" stroke-width="1.6"/><polyline points="27.72,9.67 27.72,9.06 29.25,9.06" fill="none" stroke="#111" stroke-width="1.6" stroke-linecap="round" stroke-linejoin="round"/><polyline points="27.72,11.51 27.72,11.2 27.11,9.67" fill="none" stroke="#111" stroke-width="1.6" stroke-linecap="round" stroke-linejoin="round"/><polyline points="27.72,12.12 27.72,13.34 27.41,12.73" fill="none" stroke="#111" stroke-width="1.6" stroke-linecap="round" stroke-linejoin="round"/><circle cx="27.72" cy="12.73" r="1.1" fill="none" stroke="#111" stroke-width="1.6"/><polyline points="27.72,13.34 28.02,12.73" fill="none" stroke="#111" stroke-width="1.6" stroke-linecap="round" stroke-linejoin="round"/><polyline points="27.72,13.95 27.72,14.56" fill="none" stroke="#111" stroke-width="1.6" stroke-linecap="round" stroke-linejoin="round"/><circle cx="27.72" cy="16.71" r="0.15" fill="none" stroke="#111" stroke-width="1.6"/><circle cx="27.72" cy="17.47" r="0.15" fill="none" stroke="#111" stroke-width="1.6"/><circle cx="27.72" cy="18.24" r="0.15" fill="none" stroke="#111" stroke-width="1.6"/><circle cx="27.72" cy="19" r="0.15" fill="none" stroke="#111" stroke-width="1.6"/></svg>