<svg xmlns="http://www.w3.org/2000/svg" width="96" height="64" viewBox="0 0 96 64"><polyline points="22,46 22,14 34,14 40,8 42,8 42,10 46,10 48,8 68,8 68,46 22,46" fill="none" stroke="#111" stroke-width="1.6" stroke-linecap="round" stroke-linejoin="round"/><rect x="24" y="15" width="4" height="2" fill="none" stroke="#111" stroke-width="1.6"/><rect x="24" y="19" width="4" height="2" fill="none" stroke="#111" stroke-width="1.6"/><rect x="24" y="23" width="4" height="2" fill="none" stroke="#111" stroke-width="1.6"/><rect x="24" y="27" width="4" height="2" fill="none" stroke="#111" stroke-width="1.6"/><rect x="24" y="31" width="4" height="2" fill="none" stroke="#111" stroke-width="1.6"/><rect x="24" y="35" width="4" height="2" fill="none" stroke="#111" stroke-width="1.6"/><rect x="24" y="39" width="4" height="2" fill="none" stroke="#111" stroke-width="1.6"/><rect x="24" y="43" width="4" height="2" fill="none" stroke="#111" stroke-width="1.6"/><polyline points="62,8 62,6 6,6 6,58 62,58 62,46" fill="none" stroke="#111" stroke-width="1.6" stroke-linecap="round" stroke-linejoin="round"/></svg>