<svg xmlns="http://www.w3.org/2000/svg" width="96" height="64" viewBox="0 0 96 64"><rect x="6" y="6" width="1.76" height="52" fill="none" stroke="#111" stroke-width="1.6"/><rect x="6" y="6.4" width="0.44" height="0.08" fill="none" stroke="#111" stroke-width="1.6"/><rect x="6" y="7.28" width="0.44" height="0.09" fill="none" stroke="#111" stroke-width="1.6"/><rect x="6" y="8.16" width="0.44" height="0.09" fill="none" stroke="#111" stroke-width="1.6"/><rect x="6" y="9.04" width="0.44" height="0.09" fill="none" stroke="#111" stroke-width="1.6"/><rect x="6" y="9.92" width="0.44" height="0.09" fill="none" stroke="#111" stroke-width="1.6"/><rect x="6" y="10.8" width="0.44" height="0.09" fill="none" stroke="#111" stroke-width="1.6"/><rect x="6" y="11.68" width="0.44" height="0.09" fill="none" stroke="#111" stroke-width="1.6"/><rect x="6" y="12.57" width="0.44" height="0.08" fill="none" stroke="#111" stroke-width="1.6"/><rect x="6" y="13.45" width="0.44" height="0.09" fill="none" stroke="#111" stroke-width="1.6"/><rect x="6" y="14.33" width="0.44" height="0.09" fill="none" stroke="#111" stroke-width="1.6"/><rect x="6" y="15.21" width="0.44" height="0.09" fill="none" stroke="#111" stroke-width="1.6"/><rect x="6" y="16.09" width="0.44" height="0.09" fill="none" stroke="#111" stroke-width="1.6"/><rect x="6" y="16.97" width="0.44" height="0.09" fill="none" stroke="#111" stroke-width="1.6"/><rect x="6" y="17.85" width="0.44" height="0.09" fill="none" stroke="#111" stroke-width="1.6"/><rect x="6" y="18.74" width="0.44" height="0.08" fill="none" stroke="#111" stroke-width="1.6"/><rect x="6" y="19.62" width="0.44" height="0.09" fill="none" stroke="#111" stroke-width="1.6"/><rect x="6" y="20.5" width="0.44" height="0.09" fill="none" stroke="#111" stroke-width="1.6"/><rect x="6" y="21.38" width="0.44" height="0.09" fill="none" stroke="#111" stroke-width="1.6"/><rect x="6" y="22.26" width="0.44" height="0.09" fill="none" stroke="#111" stroke-width="1.6"/><rect x="6" y="23.14" width="0.44" height="0.09" fill="none" stroke="#111" stroke-width="1.6"/><rect x="6" y="24.02" width="0.44" height="0.09" fill="none" stroke="#111" stroke-width="1.6"/><rect x="6" y="24.91" width="0.44" height="0.08" fill="none" stroke="#111" stroke-width="1.6"/><rect x="6" y="25.79" width="0.44" height="0.08" fill="none" stroke="#111" stroke-width="1.6"/><rect x="6" y="26.67" width="0.44" height="0.09" fill="none" stroke="#111" stroke-width="1.6"/><rect x="6" y="27.55" width="0.44" height="0.09" fill="none" stroke="#111" stroke-width="1.6"/><rect x="6" y="28.43" width="0.44" height="0.09" fill="none" stroke="#111" stroke-width="1.6"/><rect x="6" y="29.31" width="0.44" height="0.09" fill="none" stroke="#111" stroke-width="1.6"/><rect x="6" y="30.19" width="0.44" height="0.09" fill="none" stroke="#111" stroke-width="1.6"/><rect x="6" y="31.07" width="0.44" height="0.09" fill="none" stroke="#111" stroke-width="1.6"/><rect x="6" y="31.96" width="0.44" height="0.08" fill="none" stroke="#111" stroke-width="1.6"/><rect x="6" y="32.84" width="0.44" height="0.09" fill="none" stroke="#111" stroke-width="1.6"/><rect x="6" y="33.72" width="0.44" height="0.09" fill="none" stroke="#111" stroke-width="1.6"/><rect x="6" y="34.6" width="0.44" height="0.09" fill="none" stroke="#111" stroke-width="1.6"/><rect x="6" y="35.48" width="0.44" height="0.09" fill="none" stroke="#111" stroke-width="1.6"/><rect x="6" y="36.36" width="0.44" height="0.09" fill="none" stroke="#111" stroke-width="1.6"/><rect x="6" y="37.24" width="0.44" height="0.09" fill="none" stroke="#111" stroke-width="1.6"/><rect x="6" y="38.13" width="0.44" height="0.08" fill="none" stroke="#111" stroke-width="1.6"/><rect x="6" y="39.01" width="0.44" height="0.08" fill="none" stroke="#111" stroke-width="1.6"/><rect x="6" y="39.89" width="0.44" height="0.09" fill="none" stroke="#111" stroke-width="1.6"/><rect x="6" y="40.77" width="0.44" height="0.09" fill="none" stroke="#111" stroke-width="1.6"/><rect x="6" y="41.65" width="0.44" height="0.09" fill="none" stroke="#111" stroke-width="1.6"/><rect x="6" y="42.53" width="0.44" height="0.09" fill="none" stroke="#111" stroke-width="1.6"/><rect x="6" y="43.41" width="0.44" height="0.09" fill="none" stroke="#111" stroke-width="1.6"/><rect x="6" y="44.29" width="0.44" height="0.09" fill="none" stroke="#111" stroke-width="1.6"/><rect x="6" y="45.18" width="0.44" height="0.08" fill="none" stroke="#111" stroke-width="1.6"/><rect x="6" y="46.06" width="0.44" height="0.09" fill="none" stroke="#111" stroke-width="1.6"/><rect x="6" y="46.94" width="0.44" height="0.09" fill="none" stroke="#111" stroke-width="1.6"/><rect x="6" y="47.82" width="0.44" height="0.09" fill="none" stroke="#111" stroke-width="1.6"/><rect x="6" y="48.7" width="0.44" height="0.09" fill="none" stroke="#111" stroke-width="1.6"/><rect x="6" y="49.58" width="0.44" height="0.09" fill="none" stroke="#111" stroke-width="1.6"/><rect x="6" y="50.46" width="0.44" height="0.09" fill="none" stroke="#111" stroke-width="1.6"/><rect x="6" y="51.35" width="0.44" height="0.08" fill="none" stroke="#111" stroke-width="1.6"/><rect x="6" y="52.23" width="0.44" height="0.09" fill="none" stroke="#111" stroke-width="1.6"/><rect x="6" y="53.11" width="0.44" height="0.09" fill="none" stroke="#111" stroke-width="1.6"/><rect x="6" y="53.99" width="0.44" height="0.09" fill="none" stroke="#111" stroke-width="1.6"/><rect x="6" y="54.87" width="0.44" height="0.09" fill="none" stroke="#111" stroke-width="1.6"/><rect x="6" y="55.75" width="0.44" height="0.09" fill="none" stroke="#111" stroke-width="1.6"/><rect x="6" y="56.63" width="0.44" height="0.09" fill="none" stroke="#111" stroke-width="1.6"/><rect x="6" y="57.52" width="0.44" height="0.08" fill="none" stroke="#111" stroke-width="1.6"/><rect x="7.32" y="6.4" width="0.44" height="0.08" fill="none" stroke="#111" stroke-width="1.6"/><rect x="7.32" y="7.28" width="0.44" height="0.09" fill="none" stroke="#111" stroke-width="1.6"/><rect x="7.32" y="8.16" width="0.44" height="0.09" fill="none" stroke="#111" stroke-width="1.6"/><rect x="7.32" y="9.04" width="0.44" height="0.09" fill="none" stroke="#111" stroke-width="1.6"/><rect x="7.32" y="9.92" width="0.44" height="0.09" fill="none" stroke="#111" stroke-width="1.6"/><rect x="7.32" y="10.8" width="0.44" height="0.09" fill="none" stroke="#111" stroke-width="1.6"/><rect x="7.32" y="11.68" width="0.44" height="0.09" fill="none" stroke="#111" stroke-width="1.6"/><rect x="7.32" y="12.57" width="0.44" height="0.08" fill="none" stroke="#111" stroke-width="1.6"/><rect x="7.32" y="13.45" width="0.44" height="0.09" fill="none" stroke="#111" stroke-width="1.6"/><rect x="7.32" y="14.33" width="0.44" height="0.09" fill="none" stroke="#111" stroke-width="1.6"/><rect x="7.32" y="15.21" width="0.44" height="0.09" fill="none" stroke="#111" stroke-width="1.6"/><rect x="7.32" y="16.09" width="0.44" height="0.09" fill="none" stroke="#111" stroke-width="1.6"/><rect x="7.32" y="16.97" width="0.44" height="0.09" fill="none" stroke="#111" stroke-width="1.6"/><rect x="7.32" y="17.85" width="0.44" height="0.09" fill="none" stroke="#111" stroke-width="1.6"/><rect x="7.32" y="18.74" width="0.44" height="0.08" fill="none" stroke="#111" stroke-width="1.6"/><rect x="7.32" y="19.62" width="0.44" height="0.09" fill="none" stroke="#111" stroke-width="1.6"/><rect x="7.32" y="20.5" width="0.44" height="0.09" fill="none" stroke="#111" stroke-width="1.6"/><rect x="7.32" y="21.38" width="0.44" height="0.09" fill="none" stroke="#111" stroke-width="1.6"/><rect x="7.32" y="22.26" width="0.44" height="0.09" fill="none" stroke="#111" stroke-width="1.6"/><rect x="7.32" y="23.14" width="0.44" height="0.09" fill="none" stroke="#111" stroke-width="1.6"/><rect x="7.32" y="24.02" width="0.44" height="0.09" fill="none" stroke="#111" stroke-width="1.6"/><rect x="7.32" y="24.91" width="0.44" height="0.08" fill="none" stroke="#111" stroke-width="1.6"/><rect x="7.32" y="25.79" width="0.44" height="0.08" fill="none" stroke="#111" stroke-width="1.6"/><rect x="7.32" y="26.67" width="0.44" height="0.09" fill="none" stroke="#111" stroke-width="1.6"/><rect x="7.32" y="27.55" width="0.44" height="0.09" fill="none" stroke="#111" stroke-width="1.6"/><rect x="7.32" y="28.43" width="0.44" height="0.09" fill="none" stroke="#111" stroke-width="1.6"/><rect x="7.32" y="29.31" width="0.44" height="0.09" fill="none" stroke="#111" stroke-width="1.6"/><rect x="7.32" y="30.19" width="0.44" height="0.09" fill="none" stroke="#111" stroke-width="1.6"/><rect x="7.32" y="31.07" width="0.44" height="0.09" fill="none" stroke="#111" stroke-width="1.6"/><rect x="7.32" y="31.96" width="0.44" height="0.08" fill="none" stroke="#111" stroke-width="1.6"/><rect x="7.32" y="32.84" width="0.44" height="0.09" fill="none" stroke="#111" stroke-width="1.6"/><rect x="7.32" y="33.72" width="0.44" height="0.09" fill="none" stroke="#111" stroke-width="1.6"/><rect x="7.32" y="34.6" width="0.44" height="0.09" fill="none" stroke="#111" stroke-width="1.6"/><rect x="7.32" y="35.48" width="0.44" height="0.09" fill="none" stroke="#111" stroke-width="1.6"/><rect x="7.32" y="36.36" width="0.44" height="0.09" fill="none" stroke="#111" stroke-width="1.6"/><rect x="7.32" y="37.24" width="0.44" height="0.09" fill="none" stroke="#111" stroke-width="1.6"/><rect x="7.32" y="38.13" width="0.44" height="0.08" fill="none" stroke="#111" stroke-width="1.6"/><rect x="7.32" y="39.01" width="0.44" height="0.08" fill="none" stroke="#111" stroke-width="1.6"/><rect x="7.32" y="39.89" width="0.44" height="0.09" fill="none" stroke="#111" stroke-width="1.6"/><rect x="7.32" y="40.77" width="0.44" height="0.09" fill="none" stroke="#111" stroke-width="1.6"/><rect x="7.32" y="41.65" width="0.44" height="0.09" fill="none" stroke="#111" stroke-width="1.6"/><rect x="7.32" y="42.53" width="0.44" height="0.09" fill="none" stroke="#111" stroke-width="1.6"/><rect x="7.32" y="43.41" width="0.44" height="0.09" fill="none" stroke="#111" stroke-width="1.6"/><rect x="7.32" y="44.29" width="0.44" height="0.09" fill="none" stroke="#111" stroke-width="1.6"/><rect x="7.32" y="45.18" width="0.44" height="0.08" fill="none" stroke="#111" stroke-width="1.6"/><rect x="7.32" y="46.06" width="0.44" height="0.09" fill="none" stroke="#111" stroke-width="1.6"/><rect x="7.32" y="46.94" width="0.44" height="0.09" fill="none" stroke="#111" stroke-width="1.6"/><rect x="7.32" y="47.82" width="0.44" height="0.09" fill="none" stroke="#111" stroke-width="1.6"/><rect x="7.32" y="48.7" width="0.44" height="0.09" fill="none" stroke="#111" stroke-width="1.6"/><rect x="7.32" y="49.58" width="0.44" height="0.09" fill="none" stroke="#111" stroke-width="1.6"/><rect x="7.32" y="50.46" width="0.44" height="0.09" fill="none" stroke="#111" stroke-width="1.6"/><rect x="7.32" y="51.35" width="0.44" height="0.08" fill="none" stroke="#111" stroke-width="1.6"/><rect x="7.32" y="52.23" width="0.44" height="0.09" fill="none" stroke="#111" stroke-width="1.6"/><rect x="7.32" y="53.11" width="0.44" height="0.09" fill="none" stroke="#111" stroke-width="1.6"/><rect x="7.32" y="53.99" width="0.44" height="0.09" fill="none" stroke="#111" stroke-width="1.6"/><rect x="7.32" y="54.87" width="0.44" height="0.09" fill="none" stroke="#111" stroke-width="1.6"/><rect x="7.32" y="55.75" width="0.44" height="0.09" fill="none" stroke="#111" stroke-width="1.6"/><rect x="7.32" y="56.63" width="0.44" height="0.09" fill="none" stroke="#111" stroke-width="1.6"/><rect x="7.32" y="57.52" width="0.44" height="0.08" fill="none" stroke="#111" stroke-width="1.6"/></svg>