<svg xmlns="http://www.w3.org/2000/svg" width="96" height="64" viewBox="0 0 96 64"><rect x="6" y="6" width="69.33" height="52" fill="none" stroke="#111" stroke-width="1.6"/><polyline points="6,14.67 12.59,14.67 12.59,49.33 6,49.33" fill="none" stroke="#111" stroke-width="1.6" stroke-linecap="round" stroke-linejoin="round"/><polyline points="9.12,32 16.05,32" fill="none" stroke="#111" stroke-width="1.6" stroke-linecap="round" stroke-linejoin="round"/><polyline points="12.59,32 16.05,25.07 9.12,25.07 12.59,32" fill="none" stroke="#111" stroke-width="1.6" stroke-linecap="round" stroke-linejoin="round"/><polyline points="19.52,32 28.19,32 25.59,32.87 25.59,31.13 28.19,32" fill="none" stroke="#111" stroke-width="1.6" stroke-linecap="round" stroke-linejoin="round"/><polyline points="19.87,25.07 28.53,25.07 25.93,25.93 25.93,24.2 28.53,25.07" fill="none" stroke="#111" stroke-width="1.6" stroke-linecap="round" stroke-linejoin="round"/><polyline points="32,17.27 32,31.13" fill="none" stroke="#111" stroke-width="1.6" stroke-linecap="round" stroke-linejoin="round"/><polyline points="32,23.33 40.67,14.67" fill="none" stroke="#111" stroke-width="1.6" stroke-linecap="round" stroke-linejoin="round"/><polyline points="32,25.07 40.67,33.73" fill="none" stroke="#111" stroke-width="1.6" stroke-linecap="round" stroke-linejoin="round"/><polyline points="38.93,32 37.2,28.53 35.47,30.27 38.93,32" fill="none" stroke="#111" stroke-width="1.6" stroke-linecap="round" stroke-linejoin="round"/><polyline points="40.67,14.67 75.33,14.67" fill="none" stroke="#111" stroke-width="1.6" stroke-linecap="round" stroke-linejoin="round"/><rect x="40.67" y="33.73" width="0" height="15.6" fill="none" stroke="#111" stroke-width="1.6"/><circle cx="40.67" cy="34.6" r="0.87" fill="none" stroke="#111" stroke-width="1.6"/><rect x="40.67" y="49.33" width="3.46" height="0" fill="none" stroke="#111" stroke-width="1.6"/><rect x="44.13" y="47.6" width="6.94" height="3.47" fill="none" stroke="#111" stroke-width="1.6"/><polyline points="47.6,27.67 47.6,41.53" fill="none" stroke="#111" stroke-width="1.6" stroke-linecap="round" stroke-linejoin="round"/><polyline points="47.6,33.73 56.27,25.07" fill="none" stroke="#111" stroke-width="1.6" stroke-linecap="round" stroke-linejoin="round"/><polyline points="47.6,34.6 40.67,34.6" fill="none" stroke="#111" stroke-width="1.6" stroke-linecap="round" stroke-linejoin="round"/><polyline points="47.6,35.47 56.27,44.13" fill="none" stroke="#111" stroke-width="1.6" stroke-linecap="round" stroke-linejoin="round"/><rect x="51.07" y="49.33" width="5.2" height="0" fill="none" stroke="#111" stroke-width="1.6"/><polyline points="54.53,42.4 52.8,38.93 51.07,40.67 54.53,42.4" fill="none" stroke="#111" stroke-width="1.6" stroke-linecap="round" stroke-linejoin="round"/><circle cx="56.27" cy="14.67" r="0.87" fill="none" stroke="#111" stroke-width="1.6"/><polyline points="56.27,25.07 56.27,14.67" fill="none" stroke="#111" stroke-width="1.6" stroke-linecap="round" stroke-linejoin="round"/><polyline points="56.27,44.13 56.27,49.33" fill="none" stroke="#111" stroke-width="1.6" stroke-linecap="round" stroke-linejoin="round"/><polyline points="56.27,49.33 75.33,49.33" fill="none" stroke="#111" stroke-width="1.6" stroke-linecap="round" stroke-linejoin="round"/><circle cx="56.27" cy="49.33" r="0.87" fill="none" stroke="#111" stroke-width="1.6"/><polyline points="59.73,26.8 66.67,26.8" fill="none" stroke="#111" stroke-width="1.6" stroke-linecap="round" stroke-linejoin="round"/><circle cx="63.2" cy="14.67" r="0.87" fill="none" stroke="#111" stroke-width="1.6"/><polyline points="63.2,26.8 59.73,33.73 66.67,33.73 63.2,26.8" fill="none" stroke="#111" stroke-width="1.6" stroke-linecap="round" stroke-linejoin="round"/><polyline points="63.2,27.67 63.2,14.67" fill="none" stroke="#111" stroke-width="1.6" stroke-linecap="round" stroke-linejoin="round"/><polyline points="63.2,49.33 63.2,14.67" fill="none" stroke="#111" stroke-width="1.6" stroke-linecap="round" stroke-linejoin="round"/><circle cx="63.2" cy="49.33" r="0.87" fill="none" stroke="#111" stroke-width="1.6"/></svg>