<svg xmlns="http://www.w3.org/2000/svg" width="96" height="64" viewBox="0 0 96 64"><circle cx="12.5" cy="15.29" r="0.93" fill="none" stroke="#111" stroke-width="1.6"/><circle cx="12.5" cy="33.86" r="0.93" fill="none" stroke="#111" stroke-width="1.6"/><circle cx="12.5" cy="52.43" r="0.93" fill="none" stroke="#111" stroke-width="1.6"/><polyline points="13.28,51.91 23.75,45.52" fill="none" stroke="#111" stroke-width="1.6" stroke-linecap="round" stroke-linejoin="round"/><polyline points="13.35,14.84 23.75,8.38" fill="none" stroke="#111" stroke-width="1.6" stroke-linecap="round" stroke-linejoin="round"/><polyline points="13.35,33.41 23.75,26.95" fill="none" stroke="#111" stroke-width="1.6" stroke-linecap="round" stroke-linejoin="round"/><polyline points="19,15.29 19,13.43" fill="none" stroke="#111" stroke-width="1.6" stroke-linecap="round" stroke-linejoin="round"/><polyline points="19,19 19,17.14" fill="none" stroke="#111" stroke-width="1.6" stroke-linecap="round" stroke-linejoin="round"/><polyline points="19,22.71 19,20.86" fill="none" stroke="#111" stroke-width="1.6" stroke-linecap="round" stroke-linejoin="round"/><polyline points="19,26.43 19,24.57" fill="none" stroke="#111" stroke-width="1.6" stroke-linecap="round" stroke-linejoin="round"/><polyline points="19,30.14 19,28.29" fill="none" stroke="#111" stroke-width="1.6" stroke-linecap="round" stroke-linejoin="round"/><polyline points="19,33.86 19,32" fill="none" stroke="#111" stroke-width="1.6" stroke-linecap="round" stroke-linejoin="round"/><polyline points="19,37.57 19,35.71" fill="none" stroke="#111" stroke-width="1.6" stroke-linecap="round" stroke-linejoin="round"/><polyline points="19,41.29 19,39.43" fill="none" stroke="#111" stroke-width="1.6" stroke-linecap="round" stroke-linejoin="round"/><polyline points="19,45 19,43.14" fill="none" stroke="#111" stroke-width="1.6" stroke-linecap="round" stroke-linejoin="round"/><polyline points="19,48.42 19,46.86" fill="none" stroke="#111" stroke-width="1.6" stroke-linecap="round" stroke-linejoin="round"/><circle cx="24.57" cy="7.86" r="0.93" fill="none" stroke="#111" stroke-width="1.6"/><circle cx="24.57" cy="26.43" r="0.93" fill="none" stroke="#111" stroke-width="1.6"/><circle cx="24.57" cy="45" r="0.93" fill="none" stroke="#111" stroke-width="1.6"/><polyline points="25.5,7.86 32,7.86" fill="none" stroke="#111" stroke-width="1.6" stroke-linecap="round" stroke-linejoin="round"/><polyline points="25.5,26.43 32,26.43" fill="none" stroke="#111" stroke-width="1.6" stroke-linecap="round" stroke-linejoin="round"/><polyline points="25.5,45 32,45" fill="none" stroke="#111" stroke-width="1.6" stroke-linecap="round" stroke-linejoin="round"/><circle cx="26.43" cy="11.57" r="0.93" fill="none" stroke="#111" stroke-width="1.6"/><circle cx="26.43" cy="19" r="0.93" fill="none" stroke="#111" stroke-width="1.6"/><circle cx="26.43" cy="30.14" r="0.93" fill="none" stroke="#111" stroke-width="1.6"/><circle cx="26.43" cy="37.57" r="0.93" fill="none" stroke="#111" stroke-width="1.6"/><circle cx="26.43" cy="48.71" r="0.93" fill="none" stroke="#111" stroke-width="1.6"/><circle cx="26.43" cy="56.14" r="0.93" fill="none" stroke="#111" stroke-width="1.6"/><polyline points="27.36,11.57 32,11.57" fill="none" stroke="#111" stroke-width="1.6" stroke-linecap="round" stroke-linejoin="round"/><circle cx="27.36" cy="15.29" r="0.93" fill="none" stroke="#111" stroke-width="1.6"/><polyline points="27.36,19 32,19" fill="none" stroke="#111" stroke-width="1.6" stroke-linecap="round" stroke-linejoin="round"/><polyline points="27.36,30.14 32,30.14" fill="none" stroke="#111" stroke-width="1.6" stroke-linecap="round" stroke-linejoin="round"/><circle cx="27.36" cy="33.86" r="0.93" fill="none" stroke="#111" stroke-width="1.6"/><polyline points="27.36,37.57 32,37.57" fill="none" stroke="#111" stroke-width="1.6" stroke-linecap="round" stroke-linejoin="round"/><polyline points="27.36,48.71 32,48.71" fill="none" stroke="#111" stroke-width="1.6" stroke-linecap="round" stroke-linejoin="round"/><circle cx="27.36" cy="52.43" r="0.93" fill="none" stroke="#111" stroke-width="1.6"/><polyline points="27.36,56.14 32,56.14" fill="none" stroke="#111" stroke-width="1.6" stroke-linecap="round" stroke-linejoin="round"/><polyline points="28.29,15.29 32,15.29" fill="none" stroke="#111" stroke-width="1.6" stroke-linecap="round" stroke-linejoin="round"/><polyline points="28.29,33.86 32,33.86" fill="none" stroke="#111" stroke-width="1.6" stroke-linecap="round" stroke-linejoin="round"/><polyline points="28.29,52.43 32,52.43" fill="none" stroke="#111" stroke-width="1.6" stroke-linecap="round" stroke-linejoin="round"/><polyline points="11.57,15.29 6,15.29" fill="none" stroke="#111" stroke-width="1.6" stroke-linecap="round" stroke-linejoin="round"/><polyline points="11.57,33.86 6,33.86" fill="none" stroke="#111" stroke-width="1.6" stroke-linecap="round" stroke-linejoin="round"/><polyline points="11.57,52.43 6,52.43" fill="none" stroke="#111" stroke-width="1.6" stroke-linecap="round" stroke-linejoin="round"/><rect x="6" y="6" width="26" height="52" fill="none" stroke="#111" stroke-width="1.6"/></svg>