<svg xmlns="http://www.w3.org/2000/svg" width="96" height="64" viewBox="0 0 96 64"><rect x="6" y="6" width="69.33" height="52" fill="none" stroke="#111" stroke-width="1.6"/><circle cx="32.87" cy="28.53" r="0.87" fill="none" stroke="#111" stroke-width="1.6"/><polyline points="32.87,29.4 32.87,34.6" fill="none" stroke="#111" stroke-width="1.6" stroke-linecap="round" stroke-linejoin="round"/><circle cx="32.87" cy="32" r="0.87" fill="none" stroke="#111" stroke-width="1.6"/><polyline points="32.87,32 21.6,32" fill="none" stroke="#111" stroke-width="1.6" stroke-linecap="round" stroke-linejoin="round"/><circle cx="35.47" cy="23.33" r="0.87" fill="none" stroke="#111" stroke-width="1.6"/><polyline points="35.47,24.2 33.73,29.4" fill="none" stroke="#111" stroke-width="1.6" stroke-linecap="round" stroke-linejoin="round"/><polyline points="35.47,39.8 37.2,34.6" fill="none" stroke="#111" stroke-width="1.6" stroke-linecap="round" stroke-linejoin="round"/><circle cx="35.47" cy="40.67" r="0.87" fill="none" stroke="#111" stroke-width="1.6"/><polyline points="36.33,23.33 58.87,23.33" fill="none" stroke="#111" stroke-width="1.6" stroke-linecap="round" stroke-linejoin="round"/><polyline points="36.33,40.67 59.73,40.67" fill="none" stroke="#111" stroke-width="1.6" stroke-linecap="round" stroke-linejoin="round"/><circle cx="38.07" cy="35.47" r="0.87" fill="none" stroke="#111" stroke-width="1.6"/><polyline points="38.93,28.53 42.4,28.53" fill="none" stroke="#111" stroke-width="1.6" stroke-linecap="round" stroke-linejoin="round"/><polyline points="38.93,35.47 42.4,35.47" fill="none" stroke="#111" stroke-width="1.6" stroke-linecap="round" stroke-linejoin="round"/><rect x="42.4" y="26.8" width="7.8" height="3.47" fill="none" stroke="#111" stroke-width="1.6"/><rect x="42.4" y="33.73" width="7.8" height="3.47" fill="none" stroke="#111" stroke-width="1.6"/><polyline points="52.8,28.53 50.2,28.53" fill="none" stroke="#111" stroke-width="1.6" stroke-linecap="round" stroke-linejoin="round"/><polyline points="52.8,30.27 52.8,26.8" fill="none" stroke="#111" stroke-width="1.6" stroke-linecap="round" stroke-linejoin="round"/><polyline points="52.8,35.47 50.2,35.47" fill="none" stroke="#111" stroke-width="1.6" stroke-linecap="round" stroke-linejoin="round"/><polyline points="52.8,37.2 52.8,33.73" fill="none" stroke="#111" stroke-width="1.6" stroke-linecap="round" stroke-linejoin="round"/><polyline points="54.53,26.8 54.53,30.27" fill="none" stroke="#111" stroke-width="1.6" stroke-linecap="round" stroke-linejoin="round"/><polyline points="54.53,28.53 57.13,28.53 57.13,30.27 59.73,28.53 57.13,26.8 57.13,28.53" fill="none" stroke="#111" stroke-width="1.6" stroke-linecap="round" stroke-linejoin="round"/><polyline points="54.53,33.73 54.53,37.2" fill="none" stroke="#111" stroke-width="1.6" stroke-linecap="round" stroke-linejoin="round"/><polyline points="54.53,35.47 57.13,35.47 57.13,37.2 59.73,35.47 57.13,33.73 57.13,35.47" fill="none" stroke="#111" stroke-width="1.6" stroke-linecap="round" stroke-linejoin="round"/><circle cx="32.87" cy="35.47" r="0.87" fill="none" stroke="#111" stroke-width="1.6"/><circle cx="38.07" cy="28.53" r="0.87" fill="none" stroke="#111" stroke-width="1.6"/></svg>