<svg xmlns="http://www.w3.org/2000/svg" width="96" height="64" viewBox="0 0 96 64"><rect x="6" y="6" width="2.42" height="52" fill="none" stroke="#111" stroke-width="1.6"/><rect x="6.12" y="6.12" width="2.18" height="51.76" fill="none" stroke="#111" stroke-width="1.6"/><rect x="6.12" y="6.54" width="0.61" height="0.13" fill="none" stroke="#111" stroke-width="1.6"/><rect x="6.12" y="7.75" width="0.61" height="0.12" fill="none" stroke="#111" stroke-width="1.6"/><rect x="6.12" y="8.96" width="0.61" height="0.12" fill="none" stroke="#111" stroke-width="1.6"/><rect x="6.12" y="10.17" width="0.61" height="0.12" fill="none" stroke="#111" stroke-width="1.6"/><rect x="6.12" y="11.38" width="0.61" height="0.12" fill="none" stroke="#111" stroke-width="1.6"/><rect x="6.12" y="12.59" width="0.61" height="0.12" fill="none" stroke="#111" stroke-width="1.6"/><rect x="6.12" y="13.8" width="0.61" height="0.12" fill="none" stroke="#111" stroke-width="1.6"/><rect x="6.12" y="15.01" width="0.61" height="0.12" fill="none" stroke="#111" stroke-width="1.6"/><rect x="6.12" y="16.22" width="0.61" height="0.12" fill="none" stroke="#111" stroke-width="1.6"/><rect x="6.12" y="17.43" width="0.61" height="0.12" fill="none" stroke="#111" stroke-width="1.6"/><rect x="6.12" y="18.64" width="0.61" height="0.12" fill="none" stroke="#111" stroke-width="1.6"/><rect x="6.12" y="19.85" width="0.61" height="0.12" fill="none" stroke="#111" stroke-width="1.6"/><rect x="6.12" y="21.06" width="0.61" height="0.12" fill="none" stroke="#111" stroke-width="1.6"/><rect x="6.12" y="22.27" width="0.61" height="0.12" fill="none" stroke="#111" stroke-width="1.6"/><rect x="6.12" y="23.47" width="0.61" height="0.13" fill="none" stroke="#111" stroke-width="1.6"/><rect x="6.12" y="24.68" width="0.61" height="0.12" fill="none" stroke="#111" stroke-width="1.6"/><rect x="6.12" y="25.89" width="0.61" height="0.12" fill="none" stroke="#111" stroke-width="1.6"/><rect x="6.12" y="27.1" width="0.61" height="0.12" fill="none" stroke="#111" stroke-width="1.6"/><rect x="6.12" y="28.31" width="0.61" height="0.12" fill="none" stroke="#111" stroke-width="1.6"/><rect x="6.12" y="29.52" width="0.61" height="0.12" fill="none" stroke="#111" stroke-width="1.6"/><rect x="6.12" y="30.73" width="0.61" height="0.12" fill="none" stroke="#111" stroke-width="1.6"/><rect x="6.12" y="31.94" width="0.61" height="0.12" fill="none" stroke="#111" stroke-width="1.6"/><rect x="6.12" y="33.15" width="0.61" height="0.12" fill="none" stroke="#111" stroke-width="1.6"/><rect x="6.12" y="34.36" width="0.61" height="0.12" fill="none" stroke="#111" stroke-width="1.6"/><rect x="6.12" y="35.57" width="0.61" height="0.12" fill="none" stroke="#111" stroke-width="1.6"/><rect x="6.12" y="36.78" width="0.61" height="0.12" fill="none" stroke="#111" stroke-width="1.6"/><rect x="6.12" y="37.99" width="0.61" height="0.12" fill="none" stroke="#111" stroke-width="1.6"/><rect x="6.12" y="39.2" width="0.61" height="0.12" fill="none" stroke="#111" stroke-width="1.6"/><rect x="6.12" y="40.4" width="0.61" height="0.13" fill="none" stroke="#111" stroke-width="1.6"/><rect x="6.12" y="41.61" width="0.61" height="0.12" fill="none" stroke="#111" stroke-width="1.6"/><rect x="6.12" y="42.82" width="0.61" height="0.12" fill="none" stroke="#111" stroke-width="1.6"/><rect x="6.12" y="44.03" width="0.61" height="0.12" fill="none" stroke="#111" stroke-width="1.6"/><rect x="6.12" y="45.24" width="0.61" height="0.12" fill="none" stroke="#111" stroke-width="1.6"/><rect x="6.12" y="46.45" width="0.61" height="0.12" fill="none" stroke="#111" stroke-width="1.6"/><rect x="6.12" y="47.66" width="0.61" height="0.12" fill="none" stroke="#111" stroke-width="1.6"/><rect x="6.12" y="48.87" width="0.61" height="0.12" fill="none" stroke="#111" stroke-width="1.6"/><rect x="6.12" y="50.08" width="0.61" height="0.12" fill="none" stroke="#111" stroke-width="1.6"/><rect x="6.12" y="51.29" width="0.61" height="0.12" fill="none" stroke="#111" stroke-width="1.6"/><rect x="6.12" y="52.5" width="0.61" height="0.12" fill="none" stroke="#111" stroke-width="1.6"/><rect x="6.12" y="53.71" width="0.61" height="0.12" fill="none" stroke="#111" stroke-width="1.6"/><rect x="6.12" y="54.92" width="0.61" height="0.12" fill="none" stroke="#111" stroke-width="1.6"/><rect x="6.12" y="56.13" width="0.61" height="0.12" fill="none" stroke="#111" stroke-width="1.6"/><rect x="6.12" y="57.33" width="0.61" height="0.13" fill="none" stroke="#111" stroke-width="1.6"/><rect x="7.69" y="6.54" width="0.61" height="0.13" fill="none" stroke="#111" stroke-width="1.6"/><rect x="7.69" y="7.75" width="0.61" height="0.12" fill="none" stroke="#111" stroke-width="1.6"/><rect x="7.69" y="8.96" width="0.61" height="0.12" fill="none" stroke="#111" stroke-width="1.6"/><rect x="7.69" y="10.17" width="0.61" height="0.12" fill="none" stroke="#111" stroke-width="1.6"/><rect x="7.69" y="11.38" width="0.61" height="0.12" fill="none" stroke="#111" stroke-width="1.6"/><rect x="7.69" y="12.59" width="0.61" height="0.12" fill="none" stroke="#111" stroke-width="1.6"/><rect x="7.69" y="13.8" width="0.61" height="0.12" fill="none" stroke="#111" stroke-width="1.6"/><rect x="7.69" y="15.01" width="0.61" height="0.12" fill="none" stroke="#111" stroke-width="1.6"/><rect x="7.69" y="16.22" width="0.61" height="0.12" fill="none" stroke="#111" stroke-width="1.6"/><rect x="7.69" y="17.43" width="0.61" height="0.12" fill="none" stroke="#111" stroke-width="1.6"/><rect x="7.69" y="18.64" width="0.61" height="0.12" fill="none" stroke="#111" stroke-width="1.6"/><rect x="7.69" y="19.85" width="0.61" height="0.12" fill="none" stroke="#111" stroke-width="1.6"/><rect x="7.69" y="21.06" width="0.61" height="0.12" fill="none" stroke="#111" stroke-width="1.6"/><rect x="7.69" y="22.27" width="0.61" height="0.12" fill="none" stroke="#111" stroke-width="1.6"/><rect x="7.69" y="23.47" width="0.61" height="0.13" fill="none" stroke="#111" stroke-width="1.6"/><rect x="7.69" y="24.68" width="0.61" height="0.12" fill="none" stroke="#111" stroke-width="1.6"/><rect x="7.69" y="25.89" width="0.61" height="0.12" fill="none" stroke="#111" stroke-width="1.6"/><rect x="7.69" y="27.1" width="0.61" height="0.12" fill="none" stroke="#111" stroke-width="1.6"/><rect x="7.69" y="28.31" width="0.61" height="0.12" fill="none" stroke="#111" stroke-width="1.6"/><rect x="7.69" y="29.52" width="0.61" height="0.12" fill="none" stroke="#111" stroke-width="1.6"/><rect x="7.69" y="30.73" width="0.61" height="0.12" fill="none" stroke="#111" stroke-width="1.6"/><rect x="7.69" y="31.94" width="0.61" height="0.12" fill="none" stroke="#111" stroke-width="1.6"/><rect x="7.69" y="33.15" width="0.61" height="0.12" fill="none" stroke="#111" stroke-width="1.6"/><rect x="7.69" y="34.36" width="0.61" height="0.12" fill="none" stroke="#111" stroke-width="1.6"/><rect x="7.69" y="35.57" width="0.61" height="0.12" fill="none" stroke="#111" stroke-width="1.6"/><rect x="7.69" y="36.78" width="0.61" height="0.12" fill="none" stroke="#111" stroke-width="1.6"/><rect x="7.69" y="37.99" width="0.61" height="0.12" fill="none" stroke="#111" stroke-width="1.6"/><rect x="7.69" y="39.2" width="0.61" height="0.12" fill="none" stroke="#111" stroke-width="1.6"/><rect x="7.69" y="40.4" width="0.61" height="0.13" fill="none" stroke="#111" stroke-width="1.6"/><rect x="7.69" y="41.61" width="0.61" height="0.12" fill="none" stroke="#111" stroke-width="1.6"/><rect x="7.69" y="42.82" width="0.61" height="0.12" fill="none" stroke="#111" stroke-width="1.6"/><rect x="7.69" y="44.03" width="0.61" height="0.12" fill="none" stroke="#111" stroke-width="1.6"/><rect x="7.69" y="45.24" width="0.61" height="0.12" fill="none" stroke="#111" stroke-width="1.6"/><rect x="7.69" y="46.45" width="0.61" height="0.12" fill="none" stroke="#111" stroke-width="1.6"/><rect x="7.69" y="47.66" width="0.61" height="0.12" fill="none" stroke="#111" stroke-width="1.6"/><rect x="7.69" y="48.87" width="0.61" height="0.12" fill="none" stroke="#111" stroke-width="1.6"/><rect x="7.69" y="50.08" width="0.61" height="0.12" fill="none" stroke="#111" stroke-width="1.6"/><rect x="7.69" y="51.29" width="0.61" height="0.12" fill="none" stroke="#111" stroke-width="1.6"/><rect x="7.69" y="52.5" width="0.61" height="0.12" fill="none" stroke="#111" stroke-width="1.6"/><rect x="7.69" y="53.71" width="0.61" height="0.12" fill="none" stroke="#111" stroke-width="1.6"/><rect x="7.69" y="54.92" width="0.61" height="0.12" fill="none" stroke="#111" stroke-width="1.6"/><rect x="7.69" y="56.13" width="0.61" height="0.12" fill="none" stroke="#111" stroke-width="1.6"/><rect x="7.69" y="57.33" width="0.61" height="0.13" fill="none" stroke="#111" stroke-width="1.6"/></svg>