<svg xmlns="http://www.w3.org/2000/svg" width="96" height="64" viewBox="0 0 96 64"><rect x="6" y="6" width="7.82" height="50.83" fill="none" stroke="#111" stroke-width="1.6"/><rect x="6" y="7.76" width="1.95" height="0.39" fill="none" stroke="#111" stroke-width="1.6"/><rect x="6" y="11.67" width="1.95" height="0.39" fill="none" stroke="#111" stroke-width="1.6"/><rect x="6" y="15.58" width="1.95" height="0.39" fill="none" stroke="#111" stroke-width="1.6"/><rect x="6" y="19.49" width="1.95" height="0.39" fill="none" stroke="#111" stroke-width="1.6"/><rect x="6" y="23.4" width="1.95" height="0.39" fill="none" stroke="#111" stroke-width="1.6"/><rect x="6" y="27.31" width="1.95" height="0.39" fill="none" stroke="#111" stroke-width="1.6"/><rect x="6" y="31.22" width="1.95" height="0.39" fill="none" stroke="#111" stroke-width="1.6"/><rect x="6" y="35.13" width="1.95" height="0.39" fill="none" stroke="#111" stroke-width="1.6"/><rect x="6" y="39.04" width="1.95" height="0.39" fill="none" stroke="#111" stroke-width="1.6"/><rect x="6" y="42.95" width="1.95" height="0.39" fill="none" stroke="#111" stroke-width="1.6"/><rect x="6" y="46.86" width="1.95" height="0.39" fill="none" stroke="#111" stroke-width="1.6"/><rect x="6" y="50.77" width="1.95" height="0.39" fill="none" stroke="#111" stroke-width="1.6"/><rect x="6" y="54.68" width="1.95" height="0.39" fill="none" stroke="#111" stroke-width="1.6"/><polyline points="8.35,58 11.47,58" fill="none" stroke="#111" stroke-width="1.6" stroke-linecap="round" stroke-linejoin="round"/><rect x="11.86" y="7.76" width="1.96" height="0.39" fill="none" stroke="#111" stroke-width="1.6"/><rect x="11.86" y="11.67" width="1.96" height="0.39" fill="none" stroke="#111" stroke-width="1.6"/><rect x="11.86" y="15.58" width="1.96" height="0.39" fill="none" stroke="#111" stroke-width="1.6"/><rect x="11.86" y="19.49" width="1.96" height="0.39" fill="none" stroke="#111" stroke-width="1.6"/><rect x="11.86" y="23.4" width="1.96" height="0.39" fill="none" stroke="#111" stroke-width="1.6"/><rect x="11.86" y="27.31" width="1.96" height="0.39" fill="none" stroke="#111" stroke-width="1.6"/><rect x="11.86" y="31.22" width="1.96" height="0.39" fill="none" stroke="#111" stroke-width="1.6"/><rect x="11.86" y="35.13" width="1.96" height="0.39" fill="none" stroke="#111" stroke-width="1.6"/><rect x="11.86" y="39.04" width="1.96" height="0.39" fill="none" stroke="#111" stroke-width="1.6"/><rect x="11.86" y="42.95" width="1.96" height="0.39" fill="none" stroke="#111" stroke-width="1.6"/><rect x="11.86" y="46.86" width="1.96" height="0.39" fill="none" stroke="#111" stroke-width="1.6"/><rect x="11.86" y="50.77" width="1.96" height="0.39" fill="none" stroke="#111" stroke-width="1.6"/><rect x="11.86" y="54.68" width="1.96" height="0.39" fill="none" stroke="#111" stroke-width="1.6"/></svg>