<svg xmlns="http://www.w3.org/2000/svg" width="96" height="64" viewBox="0 0 96 64"><polyline points="6,29.72 15.12,29.72" fill="none" stroke="#111" stroke-width="1.6" stroke-linecap="round" stroke-linejoin="round"/><polyline points="6,57.09 33.37,57.09 33.37,38.84" fill="none" stroke="#111" stroke-width="1.6" stroke-linecap="round" stroke-linejoin="round"/><circle cx="7.82" cy="57.09" r="0.91" fill="none" stroke="#111" stroke-width="1.6"/><polyline points="15.12,11.47 15.12,47.96" fill="none" stroke="#111" stroke-width="1.6" stroke-linecap="round" stroke-linejoin="round"/><polyline points="15.12,47.96 51.61,29.72 15.12,11.47" fill="none" stroke="#111" stroke-width="1.6" stroke-linecap="round" stroke-linejoin="round"/><polyline points="33.37,14.21 33.37,6 7.82,6 7.82,57.09" fill="none" stroke="#111" stroke-width="1.6" stroke-linecap="round" stroke-linejoin="round"/><circle cx="33.37" cy="16.95" r="2.74" fill="none" stroke="#111" stroke-width="1.6"/><polyline points="51.61,11.47 51.61,47.96" fill="none" stroke="#111" stroke-width="1.6" stroke-linecap="round" stroke-linejoin="round"/><polyline points="51.61,11.47 15.12,29.72 51.61,47.96" fill="none" stroke="#111" stroke-width="1.6" stroke-linecap="round" stroke-linejoin="round"/><polyline points="51.61,29.72 60.74,29.72" fill="none" stroke="#111" stroke-width="1.6" stroke-linecap="round" stroke-linejoin="round"/><polyline points="6,29.72 15.12,29.72" fill="none" stroke="#111" stroke-width="1.6" stroke-linecap="round" stroke-linejoin="round"/><polyline points="6,57.09 33.37,57.09 33.37,38.84" fill="none" stroke="#111" stroke-width="1.6" stroke-linecap="round" stroke-linejoin="round"/><circle cx="7.82" cy="57.09" r="0.91" fill="none" stroke="#111" stroke-width="1.6"/><polyline points="15.12,11.47 15.12,47.96" fill="none" stroke="#111" stroke-width="1.6" stroke-linecap="round" stroke-linejoin="round"/><polyline points="15.12,47.96 51.61,29.72 15.12,11.47" fill="none" stroke="#111" stroke-width="1.6" stroke-linecap="round" stroke-linejoin="round"/><polyline points="33.37,14.21 33.37,6 7.82,6 7.82,57.09" fill="none" stroke="#111" stroke-width="1.6" stroke-linecap="round" stroke-linejoin="round"/><circle cx="33.37" cy="16.95" r="2.74" fill="none" stroke="#111" stroke-width="1.6"/><polyline points="51.61,11.47 51.61,47.96" fill="none" stroke="#111" stroke-width="1.6" stroke-linecap="round" stroke-linejoin="round"/><polyline points="51.61,11.47 15.12,29.72 51.61,47.96" fill="none" stroke="#111" stroke-width="1.6" stroke-linecap="round" stroke-linejoin="round"/><polyline points="51.61,29.72 60.74,29.72" fill="none" stroke="#111" stroke-width="1.6" stroke-linecap="round" stroke-linejoin="round"/><rect x="15.12" y="11.47" width="36.49" height="36.49" fill="none" stroke="#111" stroke-width="1.6"/></svg>