<svg xmlns="http://www.w3.org/2000/svg" width="96" height="64" viewBox="0 0 96 64"><rect x="6" y="6" width="39" height="52" fill="none" stroke="#111" stroke-width="1.6"/><circle cx="12.18" cy="23.88" r="0.46" fill="none" stroke="#111" stroke-width="1.6"/><path d="M 12.5 12.5 Q 14.12 14.12 12.5 15.75" fill="none" stroke="#111" stroke-width="1.6" stroke-linecap="round"/><polyline points="12.5,12.5 6,12.5" fill="none" stroke="#111" stroke-width="1.6" stroke-linecap="round" stroke-linejoin="round"/><polyline points="12.5,19 6,19" fill="none" stroke="#111" stroke-width="1.6" stroke-linecap="round" stroke-linejoin="round"/><polyline points="12.5,25.5 6,25.5" fill="none" stroke="#111" stroke-width="1.6" stroke-linecap="round" stroke-linejoin="round"/><polyline points="16.4,25.5 16.4,12.5" fill="none" stroke="#111" stroke-width="1.6" stroke-linecap="round" stroke-linejoin="round"/><polyline points="16.4,38.5 16.4,51.5" fill="none" stroke="#111" stroke-width="1.6" stroke-linecap="round" stroke-linejoin="round"/><polyline points="18.35,12.5 18.35,25.5" fill="none" stroke="#111" stroke-width="1.6" stroke-linecap="round" stroke-linejoin="round"/><polyline points="18.35,51.5 18.35,38.5" fill="none" stroke="#111" stroke-width="1.6" stroke-linecap="round" stroke-linejoin="round"/><polyline points="22.25,19 25.5,19 25.5,9.25 41.75,9.25 41.75,19 45,19" fill="none" stroke="#111" stroke-width="1.6" stroke-linecap="round" stroke-linejoin="round"/><polyline points="22.25,25.5 28.75,25.5 28.75,23.88" fill="none" stroke="#111" stroke-width="1.6" stroke-linecap="round" stroke-linejoin="round"/><polyline points="28.75,14.12 28.75,12.5 22.25,12.5" fill="none" stroke="#111" stroke-width="1.6" stroke-linecap="round" stroke-linejoin="round"/><polyline points="28.75,18.02 38.5,18.02" fill="none" stroke="#111" stroke-width="1.6" stroke-linecap="round" stroke-linejoin="round"/><polyline points="28.75,19.98 38.5,19.98" fill="none" stroke="#111" stroke-width="1.6" stroke-linecap="round" stroke-linejoin="round"/><polyline points="38.5,14.12 38.5,12.5 45,12.5" fill="none" stroke="#111" stroke-width="1.6" stroke-linecap="round" stroke-linejoin="round"/><polyline points="38.5,23.88 38.5,25.5 45,25.5" fill="none" stroke="#111" stroke-width="1.6" stroke-linecap="round" stroke-linejoin="round"/><circle cx="12.18" cy="49.88" r="0.46" fill="none" stroke="#111" stroke-width="1.6"/><path d="M 12.5 15.75 Q 14.12 17.38 12.5 19" fill="none" stroke="#111" stroke-width="1.6" stroke-linecap="round"/><path d="M 12.5 19 Q 14.12 20.62 12.5 22.25" fill="none" stroke="#111" stroke-width="1.6" stroke-linecap="round"/><path d="M 12.5 22.25 Q 14.12 23.88 12.5 25.5" fill="none" stroke="#111" stroke-width="1.6" stroke-linecap="round"/><path d="M 12.5 38.5 Q 14.12 40.12 12.5 41.75" fill="none" stroke="#111" stroke-width="1.6" stroke-linecap="round"/><path d="M 12.5 41.75 Q 14.12 43.38 12.5 45" fill="none" stroke="#111" stroke-width="1.6" stroke-linecap="round"/><path d="M 12.5 45 Q 14.12 46.62 12.5 48.25" fill="none" stroke="#111" stroke-width="1.6" stroke-linecap="round"/><path d="M 12.5 48.25 Q 14.12 49.88 12.5 51.5" fill="none" stroke="#111" stroke-width="1.6" stroke-linecap="round"/><polyline points="12.5,38.5 6,38.5" fill="none" stroke="#111" stroke-width="1.6" stroke-linecap="round" stroke-linejoin="round"/><polyline points="12.5,45 6,45" fill="none" stroke="#111" stroke-width="1.6" stroke-linecap="round" stroke-linejoin="round"/><polyline points="12.5,51.5 6,51.5" fill="none" stroke="#111" stroke-width="1.6" stroke-linecap="round" stroke-linejoin="round"/><polyline points="22.25,51.5 28.75,51.5 28.75,49.88" fill="none" stroke="#111" stroke-width="1.6" stroke-linecap="round" stroke-linejoin="round"/><path d="M 22.25 15.75 Q 20.63 14.12 22.25 12.5" fill="none" stroke="#111" stroke-width="1.6" stroke-linecap="round"/><path d="M 22.25 19 Q 20.63 17.38 22.25 15.75" fill="none" stroke="#111" stroke-width="1.6" stroke-linecap="round"/><path d="M 22.25 22.25 Q 20.63 20.62 22.25 19" fill="none" stroke="#111" stroke-width="1.6" stroke-linecap="round"/><path d="M 22.25 25.5 Q 20.63 23.88 22.25 22.25" fill="none" stroke="#111" stroke-width="1.6" stroke-linecap="round"/><path d="M 22.25 41.75 Q 20.63 40.12 22.25 38.5" fill="none" stroke="#111" stroke-width="1.6" stroke-linecap="round"/><path d="M 22.25 45 Q 20.63 43.38 22.25 41.75" fill="none" stroke="#111" stroke-width="1.6" stroke-linecap="round"/><path d="M 22.25 48.25 Q 20.63 46.62 22.25 45" fill="none" stroke="#111" stroke-width="1.6" stroke-linecap="round"/><path d="M 22.25 51.5 Q 20.63 49.88 22.25 48.25" fill="none" stroke="#111" stroke-width="1.6" stroke-linecap="round"/><circle cx="22.57" cy="23.88" r="0.46" fill="none" stroke="#111" stroke-width="1.6"/><circle cx="22.57" cy="49.88" r="0.46" fill="none" stroke="#111" stroke-width="1.6"/><polyline points="28.75,40.12 28.75,38.5 22.25,38.5" fill="none" stroke="#111" stroke-width="1.6" stroke-linecap="round" stroke-linejoin="round"/><polyline points="28.75,44.02 38.5,44.02" fill="none" stroke="#111" stroke-width="1.6" stroke-linecap="round" stroke-linejoin="round"/><polyline points="28.75,45.98 38.5,45.98" fill="none" stroke="#111" stroke-width="1.6" stroke-linecap="round" stroke-linejoin="round"/><circle cx="30.38" cy="13.8" r="0.46" fill="none" stroke="#111" stroke-width="1.6"/><path d="M 32 14.12 Q 30.38 15.74 28.75 14.12" fill="none" stroke="#111" stroke-width="1.6" stroke-linecap="round"/><path d="M 28.75 23.88 Q 30.38 22.26 32 23.88" fill="none" stroke="#111" stroke-width="1.6" stroke-linecap="round"/><circle cx="30.38" cy="24.2" r="0.46" fill="none" stroke="#111" stroke-width="1.6"/><circle cx="30.38" cy="39.8" r="0.46" fill="none" stroke="#111" stroke-width="1.6"/><path d="M 32 40.12 Q 30.38 41.74 28.75 40.12" fill="none" stroke="#111" stroke-width="1.6" stroke-linecap="round"/><path d="M 28.75 49.88 Q 30.38 48.26 32 49.88" fill="none" stroke="#111" stroke-width="1.6" stroke-linecap="round"/><circle cx="30.38" cy="50.2" r="0.46" fill="none" stroke="#111" stroke-width="1.6"/><path d="M 35.25 14.12 Q 33.62 15.74 32 14.12" fill="none" stroke="#111" stroke-width="1.6" stroke-linecap="round"/><path d="M 32 23.88 Q 33.62 22.26 35.25 23.88" fill="none" stroke="#111" stroke-width="1.6" stroke-linecap="round"/><path d="M 35.25 40.12 Q 33.62 41.74 32 40.12" fill="none" stroke="#111" stroke-width="1.6" stroke-linecap="round"/><path d="M 32 49.88 Q 33.62 48.26 35.25 49.88" fill="none" stroke="#111" stroke-width="1.6" stroke-linecap="round"/><path d="M 38.5 14.12 Q 36.88 15.74 35.25 14.12" fill="none" stroke="#111" stroke-width="1.6" stroke-linecap="round"/><path d="M 35.25 23.88 Q 36.88 22.26 38.5 23.88" fill="none" stroke="#111" stroke-width="1.6" stroke-linecap="round"/><path d="M 38.5 40.12 Q 36.88 41.74 35.25 40.12" fill="none" stroke="#111" stroke-width="1.6" stroke-linecap="round"/><path d="M 35.25 49.88 Q 36.88 48.26 38.5 49.88" fill="none" stroke="#111" stroke-width="1.6" stroke-linecap="round"/><polyline points="38.5,40.12 38.5,38.5 45,38.5" fill="none" stroke="#111" stroke-width="1.6" stroke-linecap="round" stroke-linejoin="round"/><polyline points="38.5,49.88 38.5,51.5 45,51.5" fill="none" stroke="#111" stroke-width="1.6" stroke-linecap="round" stroke-linejoin="round"/><polyline points="45,45 41.75,45 41.75,54.75 25.5,54.75 25.5,45 22.25,45" fill="none" stroke="#111" stroke-width="1.6" stroke-linecap="round" stroke-linejoin="round"/></svg>