<svg xmlns="http://www.w3.org/2000/svg" width="96" height="64" viewBox="0 0 96 64"><rect x="6" y="6" width="41.6" height="52" fill="none" stroke="#111" stroke-width="1.6"/><polyline points="40.32,11.2 37.72,11.2 36.42,12.5 37.72,13.8 36.42,15.1 37.72,16.4 36.42,17.7 37.72,19 36.42,20.3 37.72,21.6 40.32,21.6" fill="none" stroke="#111" stroke-width="1.6" stroke-linecap="round" stroke-linejoin="round"/><polyline points="40.32,16.4 37.72,16.4 39.02,15.1 39.02,16.4 39.02,17.7 37.72,16.4" fill="none" stroke="#111" stroke-width="1.6" stroke-linecap="round" stroke-linejoin="round"/><polyline points="40.32,32 37.72,32 36.42,33.3 37.72,34.6 36.42,35.9 37.72,37.2 36.42,38.5 37.72,39.8 36.42,41.1 37.72,42.4 40.32,42.4" fill="none" stroke="#111" stroke-width="1.6" stroke-linecap="round" stroke-linejoin="round"/><polyline points="40.32,37.2 37.72,37.2 39.02,35.9 39.02,38.5 37.72,37.2" fill="none" stroke="#111" stroke-width="1.6" stroke-linecap="round" stroke-linejoin="round"/></svg>