<svg xmlns="http://www.w3.org/2000/svg" width="96" height="64" viewBox="0 0 96 64"><rect x="6" y="6" width="6.01" height="51.1" fill="none" stroke="#111" stroke-width="1.6"/><rect x="6" y="7.35" width="1.5" height="0.3" fill="none" stroke="#111" stroke-width="1.6"/><rect x="6" y="10.36" width="1.5" height="0.3" fill="none" stroke="#111" stroke-width="1.6"/><rect x="6" y="13.36" width="1.5" height="0.3" fill="none" stroke="#111" stroke-width="1.6"/><rect x="6" y="16.37" width="1.5" height="0.3" fill="none" stroke="#111" stroke-width="1.6"/><rect x="6" y="19.38" width="1.5" height="0.3" fill="none" stroke="#111" stroke-width="1.6"/><rect x="6" y="22.38" width="1.5" height="0.3" fill="none" stroke="#111" stroke-width="1.6"/><rect x="6" y="25.39" width="1.5" height="0.3" fill="none" stroke="#111" stroke-width="1.6"/><rect x="6" y="28.39" width="1.5" height="0.3" fill="none" stroke="#111" stroke-width="1.6"/><rect x="6" y="31.4" width="1.5" height="0.3" fill="none" stroke="#111" stroke-width="1.6"/><rect x="6" y="34.4" width="1.5" height="0.31" fill="none" stroke="#111" stroke-width="1.6"/><rect x="6" y="37.41" width="1.5" height="0.3" fill="none" stroke="#111" stroke-width="1.6"/><rect x="6" y="40.42" width="1.5" height="0.3" fill="none" stroke="#111" stroke-width="1.6"/><rect x="6" y="43.42" width="1.5" height="0.3" fill="none" stroke="#111" stroke-width="1.6"/><rect x="6" y="46.43" width="1.5" height="0.3" fill="none" stroke="#111" stroke-width="1.6"/><rect x="6" y="49.43" width="1.5" height="0.3" fill="none" stroke="#111" stroke-width="1.6"/><rect x="6" y="52.44" width="1.5" height="0.3" fill="none" stroke="#111" stroke-width="1.6"/><rect x="6" y="55.45" width="1.5" height="0.3" fill="none" stroke="#111" stroke-width="1.6"/><polyline points="7.8,58 10.21,58" fill="none" stroke="#111" stroke-width="1.6" stroke-linecap="round" stroke-linejoin="round"/><rect x="10.51" y="7.35" width="1.5" height="0.3" fill="none" stroke="#111" stroke-width="1.6"/><rect x="10.51" y="10.36" width="1.5" height="0.3" fill="none" stroke="#111" stroke-width="1.6"/><rect x="10.51" y="13.36" width="1.5" height="0.3" fill="none" stroke="#111" stroke-width="1.6"/><rect x="10.51" y="16.37" width="1.5" height="0.3" fill="none" stroke="#111" stroke-width="1.6"/><rect x="10.51" y="19.38" width="1.5" height="0.3" fill="none" stroke="#111" stroke-width="1.6"/><rect x="10.51" y="22.38" width="1.5" height="0.3" fill="none" stroke="#111" stroke-width="1.6"/><rect x="10.51" y="25.39" width="1.5" height="0.3" fill="none" stroke="#111" stroke-width="1.6"/><rect x="10.51" y="28.39" width="1.5" height="0.3" fill="none" stroke="#111" stroke-width="1.6"/><rect x="10.51" y="31.4" width="1.5" height="0.3" fill="none" stroke="#111" stroke-width="1.6"/><rect x="10.51" y="34.4" width="1.5" height="0.31" fill="none" stroke="#111" stroke-width="1.6"/><rect x="10.51" y="37.41" width="1.5" height="0.3" fill="none" stroke="#111" stroke-width="1.6"/><rect x="10.51" y="40.42" width="1.5" height="0.3" fill="none" stroke="#111" stroke-width="1.6"/><rect x="10.51" y="43.42" width="1.5" height="0.3" fill="none" stroke="#111" stroke-width="1.6"/><rect x="10.51" y="46.43" width="1.5" height="0.3" fill="none" stroke="#111" stroke-width="1.6"/><rect x="10.51" y="49.43" width="1.5" height="0.3" fill="none" stroke="#111" stroke-width="1.6"/><rect x="10.51" y="52.44" width="1.5" height="0.3" fill="none" stroke="#111" stroke-width="1.6"/></svg>