<svg xmlns="http://www.w3.org/2000/svg" width="96" height="64" viewBox="0 0 96 64"><polyline points="6,6.31 6.47,6.31" fill="none" stroke="#111" stroke-width="1.6" stroke-linecap="round" stroke-linejoin="round"/><polyline points="6,7.87 6.47,7.87" fill="none" stroke="#111" stroke-width="1.6" stroke-linecap="round" stroke-linejoin="round"/><polyline points="6,9.43 6.47,9.43" fill="none" stroke="#111" stroke-width="1.6" stroke-linecap="round" stroke-linejoin="round"/><polyline points="6,10.98 6.47,10.98" fill="none" stroke="#111" stroke-width="1.6" stroke-linecap="round" stroke-linejoin="round"/><polyline points="6,12.54 6.47,12.54" fill="none" stroke="#111" stroke-width="1.6" stroke-linecap="round" stroke-linejoin="round"/><polyline points="6,14.1 6.47,14.1" fill="none" stroke="#111" stroke-width="1.6" stroke-linecap="round" stroke-linejoin="round"/><polyline points="6,15.65 6.47,15.65" fill="none" stroke="#111" stroke-width="1.6" stroke-linecap="round" stroke-linejoin="round"/><polyline points="6,17.21 6.47,17.21" fill="none" stroke="#111" stroke-width="1.6" stroke-linecap="round" stroke-linejoin="round"/><polyline points="6,18.77 6.47,18.77" fill="none" stroke="#111" stroke-width="1.6" stroke-linecap="round" stroke-linejoin="round"/><polyline points="6,20.32 6.47,20.32" fill="none" stroke="#111" stroke-width="1.6" stroke-linecap="round" stroke-linejoin="round"/><polyline points="6,21.88 6.47,21.88" fill="none" stroke="#111" stroke-width="1.6" stroke-linecap="round" stroke-linejoin="round"/><polyline points="6,23.44 6.47,23.44" fill="none" stroke="#111" stroke-width="1.6" stroke-linecap="round" stroke-linejoin="round"/><polyline points="6,24.99 6.47,24.99" fill="none" stroke="#111" stroke-width="1.6" stroke-linecap="round" stroke-linejoin="round"/><polyline points="6,26.55 6.47,26.55" fill="none" stroke="#111" stroke-width="1.6" stroke-linecap="round" stroke-linejoin="round"/><polyline points="6,28.11 6.47,28.11" fill="none" stroke="#111" stroke-width="1.6" stroke-linecap="round" stroke-linejoin="round"/><polyline points="6,29.66 6.47,29.66" fill="none" stroke="#111" stroke-width="1.6" stroke-linecap="round" stroke-linejoin="round"/><polyline points="6,31.22 6.47,31.22" fill="none" stroke="#111" stroke-width="1.6" stroke-linecap="round" stroke-linejoin="round"/><polyline points="6,32.78 6.47,32.78" fill="none" stroke="#111" stroke-width="1.6" stroke-linecap="round" stroke-linejoin="round"/><polyline points="6,34.34 6.47,34.34" fill="none" stroke="#111" stroke-width="1.6" stroke-linecap="round" stroke-linejoin="round"/><polyline points="6,35.89 6.47,35.89" fill="none" stroke="#111" stroke-width="1.6" stroke-linecap="round" stroke-linejoin="round"/><polyline points="6,37.45 6.47,37.45" fill="none" stroke="#111" stroke-width="1.6" stroke-linecap="round" stroke-linejoin="round"/><polyline points="6,39.01 6.47,39.01" fill="none" stroke="#111" stroke-width="1.6" stroke-linecap="round" stroke-linejoin="round"/><polyline points="6,40.56 6.47,40.56" fill="none" stroke="#111" stroke-width="1.6" stroke-linecap="round" stroke-linejoin="round"/><polyline points="6,42.12 6.47,42.12" fill="none" stroke="#111" stroke-width="1.6" stroke-linecap="round" stroke-linejoin="round"/><polyline points="6,43.68 6.47,43.68" fill="none" stroke="#111" stroke-width="1.6" stroke-linecap="round" stroke-linejoin="round"/><polyline points="6,45.23 6.47,45.23" fill="none" stroke="#111" stroke-width="1.6" stroke-linecap="round" stroke-linejoin="round"/><polyline points="6,46.79 6.47,46.79" fill="none" stroke="#111" stroke-width="1.6" stroke-linecap="round" stroke-linejoin="round"/><polyline points="6,48.35 6.47,48.35" fill="none" stroke="#111" stroke-width="1.6" stroke-linecap="round" stroke-linejoin="round"/><polyline points="6,49.9 6.47,49.9" fill="none" stroke="#111" stroke-width="1.6" stroke-linecap="round" stroke-linejoin="round"/><polyline points="6,51.46 6.47,51.46" fill="none" stroke="#111" stroke-width="1.6" stroke-linecap="round" stroke-linejoin="round"/><polyline points="6,53.02 6.47,53.02" fill="none" stroke="#111" stroke-width="1.6" stroke-linecap="round" stroke-linejoin="round"/><polyline points="6,54.57 6.47,54.57" fill="none" stroke="#111" stroke-width="1.6" stroke-linecap="round" stroke-linejoin="round"/><polyline points="6,56.13 6.47,56.13" fill="none" stroke="#111" stroke-width="1.6" stroke-linecap="round" stroke-linejoin="round"/><polyline points="6,57.69 6.47,57.69" fill="none" stroke="#111" stroke-width="1.6" stroke-linecap="round" stroke-linejoin="round"/><path d="M 6.78 6.62 Q 6.47 6.31 6.78 6" fill="none" stroke="#111" stroke-width="1.6" stroke-linecap="round"/><path d="M 6.78 8.18 Q 6.47 7.87 6.78 7.56" fill="none" stroke="#111" stroke-width="1.6" stroke-linecap="round"/><path d="M 6.78 9.74 Q 6.47 9.43 6.78 9.11" fill="none" stroke="#111" stroke-width="1.6" stroke-linecap="round"/><path d="M 6.78 11.29 Q 6.47 10.98 6.78 10.67" fill="none" stroke="#111" stroke-width="1.6" stroke-linecap="round"/><path d="M 6.78 12.85 Q 6.47 12.54 6.78 12.23" fill="none" stroke="#111" stroke-width="1.6" stroke-linecap="round"/><path d="M 6.78 14.41 Q 6.47 14.1 6.78 13.78" fill="none" stroke="#111" stroke-width="1.6" stroke-linecap="round"/><path d="M 6.78 15.96 Q 6.47 15.65 6.78 15.34" fill="none" stroke="#111" stroke-width="1.6" stroke-linecap="round"/><path d="M 6.78 17.52 Q 6.47 17.21 6.78 16.9" fill="none" stroke="#111" stroke-width="1.6" stroke-linecap="round"/><path d="M 6.78 19.08 Q 6.47 18.77 6.78 18.46" fill="none" stroke="#111" stroke-width="1.6" stroke-linecap="round"/><path d="M 6.78 20.63 Q 6.47 20.32 6.78 20.01" fill="none" stroke="#111" stroke-width="1.6" stroke-linecap="round"/><path d="M 6.78 22.19 Q 6.47 21.88 6.78 21.57" fill="none" stroke="#111" stroke-width="1.6" stroke-linecap="round"/><path d="M 6.78 23.75 Q 6.47 23.44 6.78 23.13" fill="none" stroke="#111" stroke-width="1.6" stroke-linecap="round"/><path d="M 6.78 25.31 Q 6.47 24.99 6.78 24.68" fill="none" stroke="#111" stroke-width="1.6" stroke-linecap="round"/><path d="M 6.78 26.86 Q 6.47 26.55 6.78 26.24" fill="none" stroke="#111" stroke-width="1.6" stroke-linecap="round"/><path d="M 6.78 28.42 Q 6.47 28.11 6.78 27.8" fill="none" stroke="#111" stroke-width="1.6" stroke-linecap="round"/><path d="M 6.78 29.98 Q 6.47 29.66 6.78 29.35" fill="none" stroke="#111" stroke-width="1.6" stroke-linecap="round"/><path d="M 6.78 31.53 Q 6.47 31.22 6.78 30.91" fill="none" stroke="#111" stroke-width="1.6" stroke-linecap="round"/><path d="M 6.78 33.09 Q 6.47 32.78 6.78 32.47" fill="none" stroke="#111" stroke-width="1.6" stroke-linecap="round"/><path d="M 6.78 34.65 Q 6.47 34.34 6.78 34.02" fill="none" stroke="#111" stroke-width="1.6" stroke-linecap="round"/><path d="M 6.78 36.2 Q 6.47 35.89 6.78 35.58" fill="none" stroke="#111" stroke-width="1.6" stroke-linecap="round"/><path d="M 6.78 37.76 Q 6.47 37.45 6.78 37.14" fill="none" stroke="#111" stroke-width="1.6" stroke-linecap="round"/><path d="M 6.78 39.32 Q 6.47 39.01 6.78 38.69" fill="none" stroke="#111" stroke-width="1.6" stroke-linecap="round"/><path d="M 6.78 40.87 Q 6.47 40.56 6.78 40.25" fill="none" stroke="#111" stroke-width="1.6" stroke-linecap="round"/><path d="M 6.78 42.43 Q 6.47 42.12 6.78 41.81" fill="none" stroke="#111" stroke-width="1.6" stroke-linecap="round"/><path d="M 6.78 43.99 Q 6.47 43.68 6.78 43.37" fill="none" stroke="#111" stroke-width="1.6" stroke-linecap="round"/><path d="M 6.78 45.54 Q 6.47 45.23 6.78 44.92" fill="none" stroke="#111" stroke-width="1.6" stroke-linecap="round"/><path d="M 6.78 47.1 Q 6.47 46.79 6.78 46.48" fill="none" stroke="#111" stroke-width="1.6" stroke-linecap="round"/><path d="M 6.78 48.66 Q 6.47 48.35 6.78 48.04" fill="none" stroke="#111" stroke-width="1.6" stroke-linecap="round"/><path d="M 6.78 50.22 Q 6.47 49.9 6.78 49.59" fill="none" stroke="#111" stroke-width="1.6" stroke-linecap="round"/><path d="M 6.78 51.77 Q 6.47 51.46 6.78 51.15" fill="none" stroke="#111" stroke-width="1.6" stroke-linecap="round"/><path d="M 6.78 53.33 Q 6.47 53.02 6.78 52.71" fill="none" stroke="#111" stroke-width="1.6" stroke-linecap="round"/><path d="M 6.78 54.89 Q 6.47 54.57 6.78 54.26" fill="none" stroke="#111" stroke-width="1.6" stroke-linecap="round"/><path d="M 6.78 56.44 Q 6.47 56.13 6.78 55.82" fill="none" stroke="#111" stroke-width="1.6" stroke-linecap="round"/><path d="M 6.78 58 Q 6.47 57.69 6.78 57.38" fill="none" stroke="#111" stroke-width="1.6" stroke-linecap="round"/></svg>