<svg xmlns="http://www.w3.org/2000/svg" width="96" height="64" viewBox="0 0 96 64"><circle cx="7.5" cy="23.25" r="1.5" fill="none" stroke="#111" stroke-width="1.6"/><polyline points="7.5,23.25 7.5,41.25 88.5,41.25 88.5,23.25" fill="none" stroke="#111" stroke-width="1.6" stroke-linecap="round" stroke-linejoin="round"/><polyline points="10.5,23.25 85.5,23.25" fill="none" stroke="#111" stroke-width="1.6" stroke-linecap="round" stroke-linejoin="round"/><polyline points="11.25,30.75 11.25,15.75" fill="none" stroke="#111" stroke-width="1.6" stroke-linecap="round" stroke-linejoin="round"/><polyline points="13.5,15 22.5,6 18,6 22.5,6 22.5,10.5" fill="none" stroke="#111" stroke-width="1.6" stroke-linecap="round" stroke-linejoin="round"/><polyline points="21,15 30,6 25.5,6 30,6 30,10.5" fill="none" stroke="#111" stroke-width="1.6" stroke-linecap="round" stroke-linejoin="round"/><polyline points="24,45.75 24,36.75 33,41.25 24,45.75 24,44.25" fill="none" stroke="#111" stroke-width="1.6" stroke-linecap="round" stroke-linejoin="round"/><polyline points="26.25,30.75 26.25,15.75 11.25,23.25 26.25,30.75" fill="none" stroke="#111" stroke-width="1.6" stroke-linecap="round" stroke-linejoin="round"/><polyline points="29.25,30.75 29.25,15.75" fill="none" stroke="#111" stroke-width="1.6" stroke-linecap="round" stroke-linejoin="round"/><polyline points="31.5,15 40.5,6 36,6 40.5,6 40.5,10.5" fill="none" stroke="#111" stroke-width="1.6" stroke-linecap="round" stroke-linejoin="round"/><polyline points="34.5,47.25 33,45.75 33,36.75 31.5,35.25" fill="none" stroke="#111" stroke-width="1.6" stroke-linecap="round" stroke-linejoin="round"/><polyline points="39,15 48,6 43.5,6 48,6 48,10.5" fill="none" stroke="#111" stroke-width="1.6" stroke-linecap="round" stroke-linejoin="round"/><polyline points="44.25,30.75 44.25,15.75 29.25,23.25 44.25,30.75" fill="none" stroke="#111" stroke-width="1.6" stroke-linecap="round" stroke-linejoin="round"/><polyline points="48,23.25 48,50.25" fill="none" stroke="#111" stroke-width="1.6" stroke-linecap="round" stroke-linejoin="round"/><circle cx="48" cy="23.25" r="2.1" fill="none" stroke="#111" stroke-width="1.6"/><circle cx="48" cy="41.25" r="2.1" fill="none" stroke="#111" stroke-width="1.6"/><polyline points="48,45.75 48,50.25" fill="none" stroke="#111" stroke-width="1.6" stroke-linecap="round" stroke-linejoin="round"/><polyline points="52.5,30.75 52.5,15.75" fill="none" stroke="#111" stroke-width="1.6" stroke-linecap="round" stroke-linejoin="round"/><polyline points="54.75,15 63.75,6 59.25,6 63.75,6 63.75,10.5" fill="none" stroke="#111" stroke-width="1.6" stroke-linecap="round" stroke-linejoin="round"/><polyline points="62.25,15 71.25,6 66.75,6 71.25,6 71.25,10.5" fill="none" stroke="#111" stroke-width="1.6" stroke-linecap="round" stroke-linejoin="round"/><polyline points="63,45.75 63,36.75 72,41.25 63,45.75 63,44.25" fill="none" stroke="#111" stroke-width="1.6" stroke-linecap="round" stroke-linejoin="round"/><polyline points="67.5,30.75 67.5,15.75 52.5,23.25 67.5,30.75" fill="none" stroke="#111" stroke-width="1.6" stroke-linecap="round" stroke-linejoin="round"/><polyline points="69.75,30.75 69.75,15.75" fill="none" stroke="#111" stroke-width="1.6" stroke-linecap="round" stroke-linejoin="round"/><polyline points="72,15 81,6 76.5,6 81,6 81,10.5" fill="none" stroke="#111" stroke-width="1.6" stroke-linecap="round" stroke-linejoin="round"/><polyline points="73.5,47.25 72,45.75 72,36.75 70.5,35.25" fill="none" stroke="#111" stroke-width="1.6" stroke-linecap="round" stroke-linejoin="round"/><polyline points="79.5,15 88.5,6 84,6 88.5,6 88.5,10.5" fill="none" stroke="#111" stroke-width="1.6" stroke-linecap="round" stroke-linejoin="round"/><polyline points="84.75,30.75 84.75,15.75 69.75,23.25 84.75,30.75" fill="none" stroke="#111" stroke-width="1.6" stroke-linecap="round" stroke-linejoin="round"/><circle cx="88.5" cy="23.25" r="1.5" fill="none" stroke="#111" stroke-width="1.6"/></svg>