<svg xmlns="http://www.w3.org/2000/svg" width="96" height="64" viewBox="0 0 96 64"><polyline points="6,6.22 6.33,6.22" fill="none" stroke="#111" stroke-width="1.6" stroke-linecap="round" stroke-linejoin="round"/><polyline points="6,7.32 6.33,7.32" fill="none" stroke="#111" stroke-width="1.6" stroke-linecap="round" stroke-linejoin="round"/><polyline points="6,8.41 6.33,8.41" fill="none" stroke="#111" stroke-width="1.6" stroke-linecap="round" stroke-linejoin="round"/><polyline points="6,9.51 6.33,9.51" fill="none" stroke="#111" stroke-width="1.6" stroke-linecap="round" stroke-linejoin="round"/><polyline points="6,10.61 6.33,10.61" fill="none" stroke="#111" stroke-width="1.6" stroke-linecap="round" stroke-linejoin="round"/><polyline points="6,11.7 6.33,11.7" fill="none" stroke="#111" stroke-width="1.6" stroke-linecap="round" stroke-linejoin="round"/><polyline points="6,12.8 6.33,12.8" fill="none" stroke="#111" stroke-width="1.6" stroke-linecap="round" stroke-linejoin="round"/><polyline points="6,13.9 6.33,13.9" fill="none" stroke="#111" stroke-width="1.6" stroke-linecap="round" stroke-linejoin="round"/><polyline points="6,15 6.33,15" fill="none" stroke="#111" stroke-width="1.6" stroke-linecap="round" stroke-linejoin="round"/><polyline points="6,16.09 6.33,16.09" fill="none" stroke="#111" stroke-width="1.6" stroke-linecap="round" stroke-linejoin="round"/><polyline points="6,17.19 6.33,17.19" fill="none" stroke="#111" stroke-width="1.6" stroke-linecap="round" stroke-linejoin="round"/><polyline points="6,18.29 6.33,18.29" fill="none" stroke="#111" stroke-width="1.6" stroke-linecap="round" stroke-linejoin="round"/><polyline points="6,19.38 6.33,19.38" fill="none" stroke="#111" stroke-width="1.6" stroke-linecap="round" stroke-linejoin="round"/><polyline points="6,20.48 6.33,20.48" fill="none" stroke="#111" stroke-width="1.6" stroke-linecap="round" stroke-linejoin="round"/><polyline points="6,21.58 6.33,21.58" fill="none" stroke="#111" stroke-width="1.6" stroke-linecap="round" stroke-linejoin="round"/><polyline points="6,22.68 6.33,22.68" fill="none" stroke="#111" stroke-width="1.6" stroke-linecap="round" stroke-linejoin="round"/><polyline points="6,23.77 6.33,23.77" fill="none" stroke="#111" stroke-width="1.6" stroke-linecap="round" stroke-linejoin="round"/><polyline points="6,24.87 6.33,24.87" fill="none" stroke="#111" stroke-width="1.6" stroke-linecap="round" stroke-linejoin="round"/><polyline points="6,25.97 6.33,25.97" fill="none" stroke="#111" stroke-width="1.6" stroke-linecap="round" stroke-linejoin="round"/><polyline points="6,27.06 6.33,27.06" fill="none" stroke="#111" stroke-width="1.6" stroke-linecap="round" stroke-linejoin="round"/><polyline points="6,28.16 6.33,28.16" fill="none" stroke="#111" stroke-width="1.6" stroke-linecap="round" stroke-linejoin="round"/><polyline points="6,29.26 6.33,29.26" fill="none" stroke="#111" stroke-width="1.6" stroke-linecap="round" stroke-linejoin="round"/><polyline points="6,30.35 6.33,30.35" fill="none" stroke="#111" stroke-width="1.6" stroke-linecap="round" stroke-linejoin="round"/><polyline points="6,31.45 6.33,31.45" fill="none" stroke="#111" stroke-width="1.6" stroke-linecap="round" stroke-linejoin="round"/><polyline points="6,32.55 6.33,32.55" fill="none" stroke="#111" stroke-width="1.6" stroke-linecap="round" stroke-linejoin="round"/><polyline points="6,33.65 6.33,33.65" fill="none" stroke="#111" stroke-width="1.6" stroke-linecap="round" stroke-linejoin="round"/><polyline points="6,34.74 6.33,34.74" fill="none" stroke="#111" stroke-width="1.6" stroke-linecap="round" stroke-linejoin="round"/><polyline points="6,35.84 6.33,35.84" fill="none" stroke="#111" stroke-width="1.6" stroke-linecap="round" stroke-linejoin="round"/><polyline points="6,36.94 6.33,36.94" fill="none" stroke="#111" stroke-width="1.6" stroke-linecap="round" stroke-linejoin="round"/><polyline points="6,38.03 6.33,38.03" fill="none" stroke="#111" stroke-width="1.6" stroke-linecap="round" stroke-linejoin="round"/><polyline points="6,39.13 6.33,39.13" fill="none" stroke="#111" stroke-width="1.6" stroke-linecap="round" stroke-linejoin="round"/><polyline points="6,40.23 6.33,40.23" fill="none" stroke="#111" stroke-width="1.6" stroke-linecap="round" stroke-linejoin="round"/><polyline points="6,41.32 6.33,41.32" fill="none" stroke="#111" stroke-width="1.6" stroke-linecap="round" stroke-linejoin="round"/><polyline points="6,42.42 6.33,42.42" fill="none" stroke="#111" stroke-width="1.6" stroke-linecap="round" stroke-linejoin="round"/><polyline points="6,43.52 6.33,43.52" fill="none" stroke="#111" stroke-width="1.6" stroke-linecap="round" stroke-linejoin="round"/><polyline points="6,44.62 6.33,44.62" fill="none" stroke="#111" stroke-width="1.6" stroke-linecap="round" stroke-linejoin="round"/><polyline points="6,45.71 6.33,45.71" fill="none" stroke="#111" stroke-width="1.6" stroke-linecap="round" stroke-linejoin="round"/><polyline points="6,46.81 6.33,46.81" fill="none" stroke="#111" stroke-width="1.6" stroke-linecap="round" stroke-linejoin="round"/><polyline points="6,47.91 6.33,47.91" fill="none" stroke="#111" stroke-width="1.6" stroke-linecap="round" stroke-linejoin="round"/><polyline points="6,49 6.33,49" fill="none" stroke="#111" stroke-width="1.6" stroke-linecap="round" stroke-linejoin="round"/><polyline points="6,50.1 6.33,50.1" fill="none" stroke="#111" stroke-width="1.6" stroke-linecap="round" stroke-linejoin="round"/><polyline points="6,51.2 6.33,51.2" fill="none" stroke="#111" stroke-width="1.6" stroke-linecap="round" stroke-linejoin="round"/><polyline points="6,52.3 6.33,52.3" fill="none" stroke="#111" stroke-width="1.6" stroke-linecap="round" stroke-linejoin="round"/><polyline points="6,53.39 6.33,53.39" fill="none" stroke="#111" stroke-width="1.6" stroke-linecap="round" stroke-linejoin="round"/><polyline points="6,54.49 6.33,54.49" fill="none" stroke="#111" stroke-width="1.6" stroke-linecap="round" stroke-linejoin="round"/><polyline points="6,55.59 6.33,55.59" fill="none" stroke="#111" stroke-width="1.6" stroke-linecap="round" stroke-linejoin="round"/><polyline points="6,56.68 6.33,56.68" fill="none" stroke="#111" stroke-width="1.6" stroke-linecap="round" stroke-linejoin="round"/><polyline points="6,57.78 6.33,57.78" fill="none" stroke="#111" stroke-width="1.6" stroke-linecap="round" stroke-linejoin="round"/><path d="M 6.55 6.44 Q 6.33 6.22 6.55 6" fill="none" stroke="#111" stroke-width="1.6" stroke-linecap="round"/><path d="M 6.55 7.54 Q 6.33 7.32 6.55 7.1" fill="none" stroke="#111" stroke-width="1.6" stroke-linecap="round"/><path d="M 6.55 8.63 Q 6.33 8.41 6.55 8.19" fill="none" stroke="#111" stroke-width="1.6" stroke-linecap="round"/><path d="M 6.55 9.73 Q 6.33 9.51 6.55 9.29" fill="none" stroke="#111" stroke-width="1.6" stroke-linecap="round"/><path d="M 6.55 10.83 Q 6.33 10.61 6.55 10.39" fill="none" stroke="#111" stroke-width="1.6" stroke-linecap="round"/><path d="M 6.55 11.92 Q 6.33 11.7 6.55 11.49" fill="none" stroke="#111" stroke-width="1.6" stroke-linecap="round"/><path d="M 6.55 13.02 Q 6.33 12.8 6.55 12.58" fill="none" stroke="#111" stroke-width="1.6" stroke-linecap="round"/><path d="M 6.55 14.12 Q 6.33 13.9 6.55 13.68" fill="none" stroke="#111" stroke-width="1.6" stroke-linecap="round"/><path d="M 6.55 15.22 Q 6.33 15 6.55 14.78" fill="none" stroke="#111" stroke-width="1.6" stroke-linecap="round"/><path d="M 6.55 16.31 Q 6.33 16.09 6.55 15.87" fill="none" stroke="#111" stroke-width="1.6" stroke-linecap="round"/><path d="M 6.55 17.41 Q 6.33 17.19 6.55 16.97" fill="none" stroke="#111" stroke-width="1.6" stroke-linecap="round"/><path d="M 6.55 18.51 Q 6.33 18.29 6.55 18.07" fill="none" stroke="#111" stroke-width="1.6" stroke-linecap="round"/><path d="M 6.55 19.6 Q 6.33 19.38 6.55 19.16" fill="none" stroke="#111" stroke-width="1.6" stroke-linecap="round"/><path d="M 6.55 20.7 Q 6.33 20.48 6.55 20.26" fill="none" stroke="#111" stroke-width="1.6" stroke-linecap="round"/><path d="M 6.55 21.8 Q 6.33 21.58 6.55 21.36" fill="none" stroke="#111" stroke-width="1.6" stroke-linecap="round"/><path d="M 6.55 22.89 Q 6.33 22.68 6.55 22.46" fill="none" stroke="#111" stroke-width="1.6" stroke-linecap="round"/><path d="M 6.55 23.99 Q 6.33 23.77 6.55 23.55" fill="none" stroke="#111" stroke-width="1.6" stroke-linecap="round"/><path d="M 6.55 25.09 Q 6.33 24.87 6.55 24.65" fill="none" stroke="#111" stroke-width="1.6" stroke-linecap="round"/><path d="M 6.55 26.19 Q 6.33 25.97 6.55 25.75" fill="none" stroke="#111" stroke-width="1.6" stroke-linecap="round"/><path d="M 6.55 27.28 Q 6.33 27.06 6.55 26.84" fill="none" stroke="#111" stroke-width="1.6" stroke-linecap="round"/><path d="M 6.55 28.38 Q 6.33 28.16 6.55 27.94" fill="none" stroke="#111" stroke-width="1.6" stroke-linecap="round"/><path d="M 6.55 29.48 Q 6.33 29.26 6.55 29.04" fill="none" stroke="#111" stroke-width="1.6" stroke-linecap="round"/><path d="M 6.55 30.57 Q 6.33 30.35 6.55 30.14" fill="none" stroke="#111" stroke-width="1.6" stroke-linecap="round"/><path d="M 6.55 31.67 Q 6.33 31.45 6.55 31.23" fill="none" stroke="#111" stroke-width="1.6" stroke-linecap="round"/><path d="M 6.55 32.77 Q 6.33 32.55 6.55 32.33" fill="none" stroke="#111" stroke-width="1.6" stroke-linecap="round"/><path d="M 6.55 33.86 Q 6.33 33.65 6.55 33.43" fill="none" stroke="#111" stroke-width="1.6" stroke-linecap="round"/><path d="M 6.55 34.96 Q 6.33 34.74 6.55 34.52" fill="none" stroke="#111" stroke-width="1.6" stroke-linecap="round"/><path d="M 6.55 36.06 Q 6.33 35.84 6.55 35.62" fill="none" stroke="#111" stroke-width="1.6" stroke-linecap="round"/><path d="M 6.55 37.16 Q 6.33 36.94 6.55 36.72" fill="none" stroke="#111" stroke-width="1.6" stroke-linecap="round"/><path d="M 6.55 38.25 Q 6.33 38.03 6.55 37.81" fill="none" stroke="#111" stroke-width="1.6" stroke-linecap="round"/><path d="M 6.55 39.35 Q 6.33 39.13 6.55 38.91" fill="none" stroke="#111" stroke-width="1.6" stroke-linecap="round"/><path d="M 6.55 40.45 Q 6.33 40.23 6.55 40.01" fill="none" stroke="#111" stroke-width="1.6" stroke-linecap="round"/><path d="M 6.55 41.54 Q 6.33 41.32 6.55 41.11" fill="none" stroke="#111" stroke-width="1.6" stroke-linecap="round"/><path d="M 6.55 42.64 Q 6.33 42.42 6.55 42.2" fill="none" stroke="#111" stroke-width="1.6" stroke-linecap="round"/><path d="M 6.55 43.74 Q 6.33 43.52 6.55 43.3" fill="none" stroke="#111" stroke-width="1.6" stroke-linecap="round"/><path d="M 6.55 44.84 Q 6.33 44.62 6.55 44.4" fill="none" stroke="#111" stroke-width="1.6" stroke-linecap="round"/><path d="M 6.55 45.93 Q 6.33 45.71 6.55 45.49" fill="none" stroke="#111" stroke-width="1.6" stroke-linecap="round"/><path d="M 6.55 47.03 Q 6.33 46.81 6.55 46.59" fill="none" stroke="#111" stroke-width="1.6" stroke-linecap="round"/><path d="M 6.55 48.13 Q 6.33 47.91 6.55 47.69" fill="none" stroke="#111" stroke-width="1.6" stroke-linecap="round"/><path d="M 6.55 49.22 Q 6.33 49 6.55 48.78" fill="none" stroke="#111" stroke-width="1.6" stroke-linecap="round"/><path d="M 6.55 50.32 Q 6.33 50.1 6.55 49.88" fill="none" stroke="#111" stroke-width="1.6" stroke-linecap="round"/><path d="M 6.55 51.42 Q 6.33 51.2 6.55 50.98" fill="none" stroke="#111" stroke-width="1.6" stroke-linecap="round"/><path d="M 6.55 52.51 Q 6.33 52.3 6.55 52.08" fill="none" stroke="#111" stroke-width="1.6" stroke-linecap="round"/><path d="M 6.55 53.61 Q 6.33 53.39 6.55 53.17" fill="none" stroke="#111" stroke-width="1.6" stroke-linecap="round"/><path d="M 6.55 54.71 Q 6.33 54.49 6.55 54.27" fill="none" stroke="#111" stroke-width="1.6" stroke-linecap="round"/><path d="M 6.55 55.81 Q 6.33 55.59 6.55 55.37" fill="none" stroke="#111" stroke-width="1.6" stroke-linecap="round"/><path d="M 6.55 56.9 Q 6.33 56.68 6.55 56.46" fill="none" stroke="#111" stroke-width="1.6" stroke-linecap="round"/><path d="M 6.55 58 Q 6.33 57.78 6.55 57.56" fill="none" stroke="#111" stroke-width="1.6" stroke-linecap="round"/></svg>