<svg xmlns="http://www.w3.org/2000/svg" width="96" height="64" viewBox="0 0 96 64"><polyline points="6,6.19 6.29,6.19" fill="none" stroke="#111" stroke-width="1.6" stroke-linecap="round" stroke-linejoin="round"/><polyline points="6,7.17 6.29,7.17" fill="none" stroke="#111" stroke-width="1.6" stroke-linecap="round" stroke-linejoin="round"/><polyline points="6,8.14 6.29,8.14" fill="none" stroke="#111" stroke-width="1.6" stroke-linecap="round" stroke-linejoin="round"/><polyline points="6,9.12 6.29,9.12" fill="none" stroke="#111" stroke-width="1.6" stroke-linecap="round" stroke-linejoin="round"/><polyline points="6,10.09 6.29,10.09" fill="none" stroke="#111" stroke-width="1.6" stroke-linecap="round" stroke-linejoin="round"/><polyline points="6,11.06 6.29,11.06" fill="none" stroke="#111" stroke-width="1.6" stroke-linecap="round" stroke-linejoin="round"/><polyline points="6,12.04 6.29,12.04" fill="none" stroke="#111" stroke-width="1.6" stroke-linecap="round" stroke-linejoin="round"/><polyline points="6,13.01 6.29,13.01" fill="none" stroke="#111" stroke-width="1.6" stroke-linecap="round" stroke-linejoin="round"/><polyline points="6,13.99 6.29,13.99" fill="none" stroke="#111" stroke-width="1.6" stroke-linecap="round" stroke-linejoin="round"/><polyline points="6,14.96 6.29,14.96" fill="none" stroke="#111" stroke-width="1.6" stroke-linecap="round" stroke-linejoin="round"/><polyline points="6,15.93 6.29,15.93" fill="none" stroke="#111" stroke-width="1.6" stroke-linecap="round" stroke-linejoin="round"/><polyline points="6,16.91 6.29,16.91" fill="none" stroke="#111" stroke-width="1.6" stroke-linecap="round" stroke-linejoin="round"/><polyline points="6,17.88 6.29,17.88" fill="none" stroke="#111" stroke-width="1.6" stroke-linecap="round" stroke-linejoin="round"/><polyline points="6,18.85 6.29,18.85" fill="none" stroke="#111" stroke-width="1.6" stroke-linecap="round" stroke-linejoin="round"/><polyline points="6,19.83 6.29,19.83" fill="none" stroke="#111" stroke-width="1.6" stroke-linecap="round" stroke-linejoin="round"/><polyline points="6,20.8 6.29,20.8" fill="none" stroke="#111" stroke-width="1.6" stroke-linecap="round" stroke-linejoin="round"/><polyline points="6,21.78 6.29,21.78" fill="none" stroke="#111" stroke-width="1.6" stroke-linecap="round" stroke-linejoin="round"/><polyline points="6,22.75 6.29,22.75" fill="none" stroke="#111" stroke-width="1.6" stroke-linecap="round" stroke-linejoin="round"/><polyline points="6,23.72 6.29,23.72" fill="none" stroke="#111" stroke-width="1.6" stroke-linecap="round" stroke-linejoin="round"/><polyline points="6,24.7 6.29,24.7" fill="none" stroke="#111" stroke-width="1.6" stroke-linecap="round" stroke-linejoin="round"/><polyline points="6,25.67 6.29,25.67" fill="none" stroke="#111" stroke-width="1.6" stroke-linecap="round" stroke-linejoin="round"/><polyline points="6,26.64 6.29,26.64" fill="none" stroke="#111" stroke-width="1.6" stroke-linecap="round" stroke-linejoin="round"/><polyline points="6,27.62 6.29,27.62" fill="none" stroke="#111" stroke-width="1.6" stroke-linecap="round" stroke-linejoin="round"/><polyline points="6,28.59 6.29,28.59" fill="none" stroke="#111" stroke-width="1.6" stroke-linecap="round" stroke-linejoin="round"/><polyline points="6,29.57 6.29,29.57" fill="none" stroke="#111" stroke-width="1.6" stroke-linecap="round" stroke-linejoin="round"/><polyline points="6,30.54 6.29,30.54" fill="none" stroke="#111" stroke-width="1.6" stroke-linecap="round" stroke-linejoin="round"/><polyline points="6,31.51 6.29,31.51" fill="none" stroke="#111" stroke-width="1.6" stroke-linecap="round" stroke-linejoin="round"/><polyline points="6,32.49 6.29,32.49" fill="none" stroke="#111" stroke-width="1.6" stroke-linecap="round" stroke-linejoin="round"/><polyline points="6,33.46 6.29,33.46" fill="none" stroke="#111" stroke-width="1.6" stroke-linecap="round" stroke-linejoin="round"/><polyline points="6,34.43 6.29,34.43" fill="none" stroke="#111" stroke-width="1.6" stroke-linecap="round" stroke-linejoin="round"/><polyline points="6,35.41 6.29,35.41" fill="none" stroke="#111" stroke-width="1.6" stroke-linecap="round" stroke-linejoin="round"/><polyline points="6,36.38 6.29,36.38" fill="none" stroke="#111" stroke-width="1.6" stroke-linecap="round" stroke-linejoin="round"/><polyline points="6,37.36 6.29,37.36" fill="none" stroke="#111" stroke-width="1.6" stroke-linecap="round" stroke-linejoin="round"/><polyline points="6,38.33 6.29,38.33" fill="none" stroke="#111" stroke-width="1.6" stroke-linecap="round" stroke-linejoin="round"/><polyline points="6,39.3 6.29,39.3" fill="none" stroke="#111" stroke-width="1.6" stroke-linecap="round" stroke-linejoin="round"/><polyline points="6,40.28 6.29,40.28" fill="none" stroke="#111" stroke-width="1.6" stroke-linecap="round" stroke-linejoin="round"/><polyline points="6,41.25 6.29,41.25" fill="none" stroke="#111" stroke-width="1.6" stroke-linecap="round" stroke-linejoin="round"/><polyline points="6,42.22 6.29,42.22" fill="none" stroke="#111" stroke-width="1.6" stroke-linecap="round" stroke-linejoin="round"/><polyline points="6,43.2 6.29,43.2" fill="none" stroke="#111" stroke-width="1.6" stroke-linecap="round" stroke-linejoin="round"/><polyline points="6,44.17 6.29,44.17" fill="none" stroke="#111" stroke-width="1.6" stroke-linecap="round" stroke-linejoin="round"/><polyline points="6,45.15 6.29,45.15" fill="none" stroke="#111" stroke-width="1.6" stroke-linecap="round" stroke-linejoin="round"/><polyline points="6,46.12 6.29,46.12" fill="none" stroke="#111" stroke-width="1.6" stroke-linecap="round" stroke-linejoin="round"/><polyline points="6,47.09 6.29,47.09" fill="none" stroke="#111" stroke-width="1.6" stroke-linecap="round" stroke-linejoin="round"/><polyline points="6,48.07 6.29,48.07" fill="none" stroke="#111" stroke-width="1.6" stroke-linecap="round" stroke-linejoin="round"/><polyline points="6,49.04 6.29,49.04" fill="none" stroke="#111" stroke-width="1.6" stroke-linecap="round" stroke-linejoin="round"/><polyline points="6,50.01 6.29,50.01" fill="none" stroke="#111" stroke-width="1.6" stroke-linecap="round" stroke-linejoin="round"/><polyline points="6,50.99 6.29,50.99" fill="none" stroke="#111" stroke-width="1.6" stroke-linecap="round" stroke-linejoin="round"/><polyline points="6,51.96 6.29,51.96" fill="none" stroke="#111" stroke-width="1.6" stroke-linecap="round" stroke-linejoin="round"/><polyline points="6,52.94 6.29,52.94" fill="none" stroke="#111" stroke-width="1.6" stroke-linecap="round" stroke-linejoin="round"/><polyline points="6,53.91 6.29,53.91" fill="none" stroke="#111" stroke-width="1.6" stroke-linecap="round" stroke-linejoin="round"/><polyline points="6,54.88 6.29,54.88" fill="none" stroke="#111" stroke-width="1.6" stroke-linecap="round" stroke-linejoin="round"/><polyline points="6,55.86 6.29,55.86" fill="none" stroke="#111" stroke-width="1.6" stroke-linecap="round" stroke-linejoin="round"/><polyline points="6,56.83 6.29,56.83" fill="none" stroke="#111" stroke-width="1.6" stroke-linecap="round" stroke-linejoin="round"/><polyline points="6,57.81 6.29,57.81" fill="none" stroke="#111" stroke-width="1.6" stroke-linecap="round" stroke-linejoin="round"/><path d="M 6.49 6.39 Q 6.29 6.19 6.49 6" fill="none" stroke="#111" stroke-width="1.6" stroke-linecap="round"/><path d="M 6.49 7.36 Q 6.29 7.17 6.49 6.97" fill="none" stroke="#111" stroke-width="1.6" stroke-linecap="round"/><path d="M 6.49 8.34 Q 6.29 8.14 6.49 7.95" fill="none" stroke="#111" stroke-width="1.6" stroke-linecap="round"/><path d="M 6.49 9.31 Q 6.29 9.12 6.49 8.92" fill="none" stroke="#111" stroke-width="1.6" stroke-linecap="round"/><path d="M 6.49 10.28 Q 6.29 10.09 6.49 9.9" fill="none" stroke="#111" stroke-width="1.6" stroke-linecap="round"/><path d="M 6.49 11.26 Q 6.29 11.06 6.49 10.87" fill="none" stroke="#111" stroke-width="1.6" stroke-linecap="round"/><path d="M 6.49 12.23 Q 6.29 12.04 6.49 11.84" fill="none" stroke="#111" stroke-width="1.6" stroke-linecap="round"/><path d="M 6.49 13.21 Q 6.29 13.01 6.49 12.82" fill="none" stroke="#111" stroke-width="1.6" stroke-linecap="round"/><path d="M 6.49 14.18 Q 6.29 13.99 6.49 13.79" fill="none" stroke="#111" stroke-width="1.6" stroke-linecap="round"/><path d="M 6.49 15.15 Q 6.29 14.96 6.49 14.76" fill="none" stroke="#111" stroke-width="1.6" stroke-linecap="round"/><path d="M 6.49 16.13 Q 6.29 15.93 6.49 15.74" fill="none" stroke="#111" stroke-width="1.6" stroke-linecap="round"/><path d="M 6.49 17.1 Q 6.29 16.91 6.49 16.71" fill="none" stroke="#111" stroke-width="1.6" stroke-linecap="round"/><path d="M 6.49 18.07 Q 6.29 17.88 6.49 17.69" fill="none" stroke="#111" stroke-width="1.6" stroke-linecap="round"/><path d="M 6.49 19.05 Q 6.29 18.85 6.49 18.66" fill="none" stroke="#111" stroke-width="1.6" stroke-linecap="round"/><path d="M 6.49 20.02 Q 6.29 19.83 6.49 19.63" fill="none" stroke="#111" stroke-width="1.6" stroke-linecap="round"/><path d="M 6.49 21 Q 6.29 20.8 6.49 20.61" fill="none" stroke="#111" stroke-width="1.6" stroke-linecap="round"/><path d="M 6.49 21.97 Q 6.29 21.78 6.49 21.58" fill="none" stroke="#111" stroke-width="1.6" stroke-linecap="round"/><path d="M 6.49 22.94 Q 6.29 22.75 6.49 22.55" fill="none" stroke="#111" stroke-width="1.6" stroke-linecap="round"/><path d="M 6.49 23.92 Q 6.29 23.72 6.49 23.53" fill="none" stroke="#111" stroke-width="1.6" stroke-linecap="round"/><path d="M 6.49 24.89 Q 6.29 24.7 6.49 24.5" fill="none" stroke="#111" stroke-width="1.6" stroke-linecap="round"/><path d="M 6.49 25.87 Q 6.29 25.67 6.49 25.48" fill="none" stroke="#111" stroke-width="1.6" stroke-linecap="round"/><path d="M 6.49 26.84 Q 6.29 26.64 6.49 26.45" fill="none" stroke="#111" stroke-width="1.6" stroke-linecap="round"/><path d="M 6.49 27.81 Q 6.29 27.62 6.49 27.42" fill="none" stroke="#111" stroke-width="1.6" stroke-linecap="round"/><path d="M 6.49 28.79 Q 6.29 28.59 6.49 28.4" fill="none" stroke="#111" stroke-width="1.6" stroke-linecap="round"/><path d="M 6.49 29.76 Q 6.29 29.57 6.49 29.37" fill="none" stroke="#111" stroke-width="1.6" stroke-linecap="round"/><path d="M 6.49 30.73 Q 6.29 30.54 6.49 30.34" fill="none" stroke="#111" stroke-width="1.6" stroke-linecap="round"/><path d="M 6.49 31.71 Q 6.29 31.51 6.49 31.32" fill="none" stroke="#111" stroke-width="1.6" stroke-linecap="round"/><path d="M 6.49 32.68 Q 6.29 32.49 6.49 32.29" fill="none" stroke="#111" stroke-width="1.6" stroke-linecap="round"/><path d="M 6.49 33.66 Q 6.29 33.46 6.49 33.27" fill="none" stroke="#111" stroke-width="1.6" stroke-linecap="round"/><path d="M 6.49 34.63 Q 6.29 34.43 6.49 34.24" fill="none" stroke="#111" stroke-width="1.6" stroke-linecap="round"/><path d="M 6.49 35.6 Q 6.29 35.41 6.49 35.21" fill="none" stroke="#111" stroke-width="1.6" stroke-linecap="round"/><path d="M 6.49 36.58 Q 6.29 36.38 6.49 36.19" fill="none" stroke="#111" stroke-width="1.6" stroke-linecap="round"/><path d="M 6.49 37.55 Q 6.29 37.36 6.49 37.16" fill="none" stroke="#111" stroke-width="1.6" stroke-linecap="round"/><path d="M 6.49 38.52 Q 6.29 38.33 6.49 38.13" fill="none" stroke="#111" stroke-width="1.6" stroke-linecap="round"/><path d="M 6.49 39.5 Q 6.29 39.3 6.49 39.11" fill="none" stroke="#111" stroke-width="1.6" stroke-linecap="round"/><path d="M 6.49 40.47 Q 6.29 40.28 6.49 40.08" fill="none" stroke="#111" stroke-width="1.6" stroke-linecap="round"/><path d="M 6.49 41.45 Q 6.29 41.25 6.49 41.06" fill="none" stroke="#111" stroke-width="1.6" stroke-linecap="round"/><path d="M 6.49 42.42 Q 6.29 42.22 6.49 42.03" fill="none" stroke="#111" stroke-width="1.6" stroke-linecap="round"/><path d="M 6.49 43.39 Q 6.29 43.2 6.49 43" fill="none" stroke="#111" stroke-width="1.6" stroke-linecap="round"/><path d="M 6.49 44.37 Q 6.29 44.17 6.49 43.98" fill="none" stroke="#111" stroke-width="1.6" stroke-linecap="round"/><path d="M 6.49 45.34 Q 6.29 45.15 6.49 44.95" fill="none" stroke="#111" stroke-width="1.6" stroke-linecap="round"/><path d="M 6.49 46.31 Q 6.29 46.12 6.49 45.93" fill="none" stroke="#111" stroke-width="1.6" stroke-linecap="round"/><path d="M 6.49 47.29 Q 6.29 47.09 6.49 46.9" fill="none" stroke="#111" stroke-width="1.6" stroke-linecap="round"/><path d="M 6.49 48.26 Q 6.29 48.07 6.49 47.87" fill="none" stroke="#111" stroke-width="1.6" stroke-linecap="round"/><path d="M 6.49 49.24 Q 6.29 49.04 6.49 48.85" fill="none" stroke="#111" stroke-width="1.6" stroke-linecap="round"/><path d="M 6.49 50.21 Q 6.29 50.01 6.49 49.82" fill="none" stroke="#111" stroke-width="1.6" stroke-linecap="round"/><path d="M 6.49 51.18 Q 6.29 50.99 6.49 50.79" fill="none" stroke="#111" stroke-width="1.6" stroke-linecap="round"/><path d="M 6.49 52.16 Q 6.29 51.96 6.49 51.77" fill="none" stroke="#111" stroke-width="1.6" stroke-linecap="round"/><path d="M 6.49 53.13 Q 6.29 52.94 6.49 52.74" fill="none" stroke="#111" stroke-width="1.6" stroke-linecap="round"/><path d="M 6.49 54.1 Q 6.29 53.91 6.49 53.72" fill="none" stroke="#111" stroke-width="1.6" stroke-linecap="round"/><path d="M 6.49 55.08 Q 6.29 54.88 6.49 54.69" fill="none" stroke="#111" stroke-width="1.6" stroke-linecap="round"/><path d="M 6.49 56.05 Q 6.29 55.86 6.49 55.66" fill="none" stroke="#111" stroke-width="1.6" stroke-linecap="round"/><path d="M 6.49 57.03 Q 6.29 56.83 6.49 56.64" fill="none" stroke="#111" stroke-width="1.6" stroke-linecap="round"/><path d="M 6.49 58 Q 6.29 57.81 6.49 57.61" fill="none" stroke="#111" stroke-width="1.6" stroke-linecap="round"/></svg>