<svg xmlns="http://www.w3.org/2000/svg" width="96" height="64" viewBox="0 0 96 64"><rect x="6" y="6" width="1.72" height="51.74" fill="none" stroke="#111" stroke-width="1.6"/><rect x="6" y="6.39" width="0.43" height="0.08" fill="none" stroke="#111" stroke-width="1.6"/><rect x="6" y="7.25" width="0.43" height="0.09" fill="none" stroke="#111" stroke-width="1.6"/><rect x="6" y="8.11" width="0.43" height="0.09" fill="none" stroke="#111" stroke-width="1.6"/><rect x="6" y="8.98" width="0.43" height="0.08" fill="none" stroke="#111" stroke-width="1.6"/><rect x="6" y="9.84" width="0.43" height="0.08" fill="none" stroke="#111" stroke-width="1.6"/><rect x="6" y="10.7" width="0.43" height="0.09" fill="none" stroke="#111" stroke-width="1.6"/><rect x="6" y="11.56" width="0.43" height="0.09" fill="none" stroke="#111" stroke-width="1.6"/><rect x="6" y="12.42" width="0.43" height="0.09" fill="none" stroke="#111" stroke-width="1.6"/><rect x="6" y="13.29" width="0.43" height="0.08" fill="none" stroke="#111" stroke-width="1.6"/><rect x="6" y="14.15" width="0.43" height="0.09" fill="none" stroke="#111" stroke-width="1.6"/><rect x="6" y="15.01" width="0.43" height="0.09" fill="none" stroke="#111" stroke-width="1.6"/><rect x="6" y="15.87" width="0.43" height="0.09" fill="none" stroke="#111" stroke-width="1.6"/><rect x="6" y="16.74" width="0.43" height="0.08" fill="none" stroke="#111" stroke-width="1.6"/><rect x="6" y="17.6" width="0.43" height="0.08" fill="none" stroke="#111" stroke-width="1.6"/><rect x="6" y="18.46" width="0.43" height="0.09" fill="none" stroke="#111" stroke-width="1.6"/><rect x="6" y="19.32" width="0.43" height="0.09" fill="none" stroke="#111" stroke-width="1.6"/><rect x="6" y="20.19" width="0.43" height="0.08" fill="none" stroke="#111" stroke-width="1.6"/><rect x="6" y="21.05" width="0.43" height="0.08" fill="none" stroke="#111" stroke-width="1.6"/><rect x="6" y="21.91" width="0.43" height="0.09" fill="none" stroke="#111" stroke-width="1.6"/><rect x="6" y="22.77" width="0.43" height="0.09" fill="none" stroke="#111" stroke-width="1.6"/><rect x="6" y="23.64" width="0.43" height="0.08" fill="none" stroke="#111" stroke-width="1.6"/><rect x="6" y="24.5" width="0.43" height="0.08" fill="none" stroke="#111" stroke-width="1.6"/><rect x="6" y="25.36" width="0.43" height="0.09" fill="none" stroke="#111" stroke-width="1.6"/><rect x="6" y="26.22" width="0.43" height="0.09" fill="none" stroke="#111" stroke-width="1.6"/><rect x="6" y="27.08" width="0.43" height="0.09" fill="none" stroke="#111" stroke-width="1.6"/><rect x="6" y="27.95" width="0.43" height="0.08" fill="none" stroke="#111" stroke-width="1.6"/><rect x="6" y="28.81" width="0.43" height="0.09" fill="none" stroke="#111" stroke-width="1.6"/><rect x="6" y="29.67" width="0.43" height="0.09" fill="none" stroke="#111" stroke-width="1.6"/><rect x="6" y="30.53" width="0.43" height="0.09" fill="none" stroke="#111" stroke-width="1.6"/><rect x="6" y="31.4" width="0.43" height="0.08" fill="none" stroke="#111" stroke-width="1.6"/><rect x="6" y="32.26" width="0.43" height="0.08" fill="none" stroke="#111" stroke-width="1.6"/><rect x="6" y="33.12" width="0.43" height="0.09" fill="none" stroke="#111" stroke-width="1.6"/><rect x="6" y="33.98" width="0.43" height="0.09" fill="none" stroke="#111" stroke-width="1.6"/><rect x="6" y="34.85" width="0.43" height="0.08" fill="none" stroke="#111" stroke-width="1.6"/><rect x="6" y="35.71" width="0.43" height="0.08" fill="none" stroke="#111" stroke-width="1.6"/><rect x="6" y="36.57" width="0.43" height="0.09" fill="none" stroke="#111" stroke-width="1.6"/><rect x="6" y="37.43" width="0.43" height="0.09" fill="none" stroke="#111" stroke-width="1.6"/><rect x="6" y="38.3" width="0.43" height="0.08" fill="none" stroke="#111" stroke-width="1.6"/><rect x="6" y="39.16" width="0.43" height="0.08" fill="none" stroke="#111" stroke-width="1.6"/><rect x="6" y="40.02" width="0.43" height="0.09" fill="none" stroke="#111" stroke-width="1.6"/><rect x="6" y="40.88" width="0.43" height="0.09" fill="none" stroke="#111" stroke-width="1.6"/><rect x="6" y="41.74" width="0.43" height="0.09" fill="none" stroke="#111" stroke-width="1.6"/><rect x="6" y="42.61" width="0.43" height="0.08" fill="none" stroke="#111" stroke-width="1.6"/><rect x="6" y="43.47" width="0.43" height="0.09" fill="none" stroke="#111" stroke-width="1.6"/><rect x="6" y="44.33" width="0.43" height="0.09" fill="none" stroke="#111" stroke-width="1.6"/><rect x="6" y="45.19" width="0.43" height="0.09" fill="none" stroke="#111" stroke-width="1.6"/><rect x="6" y="46.06" width="0.43" height="0.08" fill="none" stroke="#111" stroke-width="1.6"/><rect x="6" y="46.92" width="0.43" height="0.08" fill="none" stroke="#111" stroke-width="1.6"/><rect x="6" y="47.78" width="0.43" height="0.09" fill="none" stroke="#111" stroke-width="1.6"/><rect x="6" y="48.64" width="0.43" height="0.09" fill="none" stroke="#111" stroke-width="1.6"/><rect x="6" y="49.51" width="0.43" height="0.08" fill="none" stroke="#111" stroke-width="1.6"/><rect x="6" y="50.37" width="0.43" height="0.08" fill="none" stroke="#111" stroke-width="1.6"/><rect x="6" y="51.23" width="0.43" height="0.09" fill="none" stroke="#111" stroke-width="1.6"/><rect x="6" y="52.09" width="0.43" height="0.09" fill="none" stroke="#111" stroke-width="1.6"/><rect x="6" y="52.96" width="0.43" height="0.08" fill="none" stroke="#111" stroke-width="1.6"/><rect x="6" y="53.82" width="0.43" height="0.08" fill="none" stroke="#111" stroke-width="1.6"/><rect x="6" y="54.68" width="0.43" height="0.09" fill="none" stroke="#111" stroke-width="1.6"/><rect x="6" y="55.54" width="0.43" height="0.09" fill="none" stroke="#111" stroke-width="1.6"/><rect x="6" y="56.4" width="0.43" height="0.09" fill="none" stroke="#111" stroke-width="1.6"/><rect x="6" y="57.27" width="0.43" height="0.08" fill="none" stroke="#111" stroke-width="1.6"/><polyline points="6.52,58 7.21,58" fill="none" stroke="#111" stroke-width="1.6" stroke-linecap="round" stroke-linejoin="round"/><rect x="7.29" y="6.39" width="0.43" height="0.08" fill="none" stroke="#111" stroke-width="1.6"/><rect x="7.29" y="7.25" width="0.43" height="0.09" fill="none" stroke="#111" stroke-width="1.6"/><rect x="7.29" y="8.11" width="0.43" height="0.09" fill="none" stroke="#111" stroke-width="1.6"/><rect x="7.29" y="8.98" width="0.43" height="0.08" fill="none" stroke="#111" stroke-width="1.6"/><rect x="7.29" y="9.84" width="0.43" height="0.08" fill="none" stroke="#111" stroke-width="1.6"/><rect x="7.29" y="10.7" width="0.43" height="0.09" fill="none" stroke="#111" stroke-width="1.6"/><rect x="7.29" y="11.56" width="0.43" height="0.09" fill="none" stroke="#111" stroke-width="1.6"/><rect x="7.29" y="12.42" width="0.43" height="0.09" fill="none" stroke="#111" stroke-width="1.6"/><rect x="7.29" y="13.29" width="0.43" height="0.08" fill="none" stroke="#111" stroke-width="1.6"/><rect x="7.29" y="14.15" width="0.43" height="0.09" fill="none" stroke="#111" stroke-width="1.6"/><rect x="7.29" y="15.01" width="0.43" height="0.09" fill="none" stroke="#111" stroke-width="1.6"/><rect x="7.29" y="15.87" width="0.43" height="0.09" fill="none" stroke="#111" stroke-width="1.6"/><rect x="7.29" y="16.74" width="0.43" height="0.08" fill="none" stroke="#111" stroke-width="1.6"/><rect x="7.29" y="17.6" width="0.43" height="0.08" fill="none" stroke="#111" stroke-width="1.6"/><rect x="7.29" y="18.46" width="0.43" height="0.09" fill="none" stroke="#111" stroke-width="1.6"/><rect x="7.29" y="19.32" width="0.43" height="0.09" fill="none" stroke="#111" stroke-width="1.6"/><rect x="7.29" y="20.19" width="0.43" height="0.08" fill="none" stroke="#111" stroke-width="1.6"/><rect x="7.29" y="21.05" width="0.43" height="0.08" fill="none" stroke="#111" stroke-width="1.6"/><rect x="7.29" y="21.91" width="0.43" height="0.09" fill="none" stroke="#111" stroke-width="1.6"/><rect x="7.29" y="22.77" width="0.43" height="0.09" fill="none" stroke="#111" stroke-width="1.6"/><rect x="7.29" y="23.64" width="0.43" height="0.08" fill="none" stroke="#111" stroke-width="1.6"/><rect x="7.29" y="24.5" width="0.43" height="0.08" fill="none" stroke="#111" stroke-width="1.6"/><rect x="7.29" y="25.36" width="0.43" height="0.09" fill="none" stroke="#111" stroke-width="1.6"/><rect x="7.29" y="26.22" width="0.43" height="0.09" fill="none" stroke="#111" stroke-width="1.6"/><rect x="7.29" y="27.08" width="0.43" height="0.09" fill="none" stroke="#111" stroke-width="1.6"/><rect x="7.29" y="27.95" width="0.43" height="0.08" fill="none" stroke="#111" stroke-width="1.6"/><rect x="7.29" y="28.81" width="0.43" height="0.09" fill="none" stroke="#111" stroke-width="1.6"/><rect x="7.29" y="29.67" width="0.43" height="0.09" fill="none" stroke="#111" stroke-width="1.6"/><rect x="7.29" y="30.53" width="0.43" height="0.09" fill="none" stroke="#111" stroke-width="1.6"/><rect x="7.29" y="31.4" width="0.43" height="0.08" fill="none" stroke="#111" stroke-width="1.6"/><rect x="7.29" y="32.26" width="0.43" height="0.08" fill="none" stroke="#111" stroke-width="1.6"/><rect x="7.29" y="33.12" width="0.43" height="0.09" fill="none" stroke="#111" stroke-width="1.6"/><rect x="7.29" y="33.98" width="0.43" height="0.09" fill="none" stroke="#111" stroke-width="1.6"/><rect x="7.29" y="34.85" width="0.43" height="0.08" fill="none" stroke="#111" stroke-width="1.6"/><rect x="7.29" y="35.71" width="0.43" height="0.08" fill="none" stroke="#111" stroke-width="1.6"/><rect x="7.29" y="36.57" width="0.43" height="0.09" fill="none" stroke="#111" stroke-width="1.6"/><rect x="7.29" y="37.43" width="0.43" height="0.09" fill="none" stroke="#111" stroke-width="1.6"/><rect x="7.29" y="38.3" width="0.43" height="0.08" fill="none" stroke="#111" stroke-width="1.6"/><rect x="7.29" y="39.16" width="0.43" height="0.08" fill="none" stroke="#111" stroke-width="1.6"/><rect x="7.29" y="40.02" width="0.43" height="0.09" fill="none" stroke="#111" stroke-width="1.6"/><rect x="7.29" y="40.88" width="0.43" height="0.09" fill="none" stroke="#111" stroke-width="1.6"/><rect x="7.29" y="41.74" width="0.43" height="0.09" fill="none" stroke="#111" stroke-width="1.6"/><rect x="7.29" y="42.61" width="0.43" height="0.08" fill="none" stroke="#111" stroke-width="1.6"/><rect x="7.29" y="43.47" width="0.43" height="0.09" fill="none" stroke="#111" stroke-width="1.6"/><rect x="7.29" y="44.33" width="0.43" height="0.09" fill="none" stroke="#111" stroke-width="1.6"/><rect x="7.29" y="45.19" width="0.43" height="0.09" fill="none" stroke="#111" stroke-width="1.6"/><rect x="7.29" y="46.06" width="0.43" height="0.08" fill="none" stroke="#111" stroke-width="1.6"/><rect x="7.29" y="46.92" width="0.43" height="0.08" fill="none" stroke="#111" stroke-width="1.6"/><rect x="7.29" y="47.78" width="0.43" height="0.09" fill="none" stroke="#111" stroke-width="1.6"/><rect x="7.29" y="48.64" width="0.43" height="0.09" fill="none" stroke="#111" stroke-width="1.6"/><rect x="7.29" y="49.51" width="0.43" height="0.08" fill="none" stroke="#111" stroke-width="1.6"/><rect x="7.29" y="50.37" width="0.43" height="0.08" fill="none" stroke="#111" stroke-width="1.6"/><rect x="7.29" y="51.23" width="0.43" height="0.09" fill="none" stroke="#111" stroke-width="1.6"/><rect x="7.29" y="52.09" width="0.43" height="0.09" fill="none" stroke="#111" stroke-width="1.6"/><rect x="7.29" y="52.96" width="0.43" height="0.08" fill="none" stroke="#111" stroke-width="1.6"/><rect x="7.29" y="53.82" width="0.43" height="0.08" fill="none" stroke="#111" stroke-width="1.6"/><rect x="7.29" y="54.68" width="0.43" height="0.09" fill="none" stroke="#111" stroke-width="1.6"/><rect x="7.29" y="55.54" width="0.43" height="0.09" fill="none" stroke="#111" stroke-width="1.6"/><rect x="7.29" y="56.4" width="0.43" height="0.09" fill="none" stroke="#111" stroke-width="1.6"/><rect x="7.29" y="57.27" width="0.43" height="0.08" fill="none" stroke="#111" stroke-width="1.6"/></svg>