<svg xmlns="http://www.w3.org/2000/svg" width="96" height="64" viewBox="0 0 96 64"><polyline points="6,16.76 16.76,16.76 16.76,27.52 14.97,27.52 14.97,29.31 14.97,29.31" fill="none" stroke="#111" stroke-width="1.6" stroke-linecap="round" stroke-linejoin="round"/><rect x="6" y="29.31" width="17.93" height="3.59" fill="none" stroke="#111" stroke-width="1.6"/><rect x="6" y="32.9" width="17.93" height="3.58" fill="none" stroke="#111" stroke-width="1.6"/><rect x="6" y="36.48" width="17.93" height="3.59" fill="none" stroke="#111" stroke-width="1.6"/><rect x="6" y="40.07" width="17.93" height="3.59" fill="none" stroke="#111" stroke-width="1.6"/><rect x="6" y="43.66" width="17.93" height="3.58" fill="none" stroke="#111" stroke-width="1.6"/><rect x="6" y="47.24" width="17.93" height="3.59" fill="none" stroke="#111" stroke-width="1.6"/><rect x="6" y="50.83" width="17.93" height="3.58" fill="none" stroke="#111" stroke-width="1.6"/><rect x="6" y="54.41" width="17.93" height="3.59" fill="none" stroke="#111" stroke-width="1.6"/><polyline points="7.79,29.31 7.79,27.52 6,27.52 6,6 23.93,6 23.93,27.52 22.14,27.52 22.14,29.31 22.14,29.31" fill="none" stroke="#111" stroke-width="1.6" stroke-linecap="round" stroke-linejoin="round"/><polyline points="13.17,29.31 13.17,58 13.17,58" fill="none" stroke="#111" stroke-width="1.6" stroke-linecap="round" stroke-linejoin="round"/><polyline points="14.25,30.03 16.4,30.03 15.32,32.18 14.25,30.03 14.25,30.03" fill="none" stroke="#111" stroke-width="1.6" stroke-linecap="round" stroke-linejoin="round"/><polyline points="17.12,30.03 19.27,31.1 17.12,32.18 17.12,30.03 17.12,30.03" fill="none" stroke="#111" stroke-width="1.6" stroke-linecap="round" stroke-linejoin="round"/></svg>