<svg xmlns="http://www.w3.org/2000/svg" width="96" height="64" viewBox="0 0 96 64"><rect x="6" y="11.96" width="9.54" height="40.08" fill="none" stroke="#111" stroke-width="1.6"/><rect x="6.95" y="6" width="7.64" height="52" fill="none" stroke="#111" stroke-width="1.6"/><polyline points="6.95,17.21 14.59,17.21 14.59,17.21" fill="none" stroke="#111" stroke-width="1.6" stroke-linecap="round" stroke-linejoin="round"/><polyline points="6.95,28.42 14.59,28.42 14.59,28.42" fill="none" stroke="#111" stroke-width="1.6" stroke-linecap="round" stroke-linejoin="round"/><polyline points="6.95,35.58 14.59,35.58 14.59,35.58" fill="none" stroke="#111" stroke-width="1.6" stroke-linecap="round" stroke-linejoin="round"/><polyline points="6.95,42.5 14.59,42.5 14.59,42.5" fill="none" stroke="#111" stroke-width="1.6" stroke-linecap="round" stroke-linejoin="round"/><polyline points="6.95,49.41 14.59,49.41 14.59,49.41" fill="none" stroke="#111" stroke-width="1.6" stroke-linecap="round" stroke-linejoin="round"/><polyline points="6.95,56.33 14.59,56.33 14.59,56.33" fill="none" stroke="#111" stroke-width="1.6" stroke-linecap="round" stroke-linejoin="round"/><polyline points="6.95,9.34 14.59,9.34 14.59,9.34" fill="none" stroke="#111" stroke-width="1.6" stroke-linecap="round" stroke-linejoin="round"/><polyline points="6.95,30.33 14.59,30.33 14.59,30.33" fill="none" stroke="#111" stroke-width="1.6" stroke-linecap="round" stroke-linejoin="round"/><polyline points="6.95,37.72 14.59,37.72 14.59,37.72" fill="none" stroke="#111" stroke-width="1.6" stroke-linecap="round" stroke-linejoin="round"/><polyline points="6.95,51.56 14.59,51.56 14.59,51.56" fill="none" stroke="#111" stroke-width="1.6" stroke-linecap="round" stroke-linejoin="round"/><rect x="6.95" y="6.72" width="7.64" height="50.56" fill="none" stroke="#111" stroke-width="1.6"/><rect x="6.48" y="15.78" width="8.11" height="32.44" fill="none" stroke="#111" stroke-width="1.6"/><polyline points="14.59,32 6.48,32 6.48,32" fill="none" stroke="#111" stroke-width="1.6" stroke-linecap="round" stroke-linejoin="round"/><polyline points="14.59,35.58 6.48,35.58 6.48,35.58" fill="none" stroke="#111" stroke-width="1.6" stroke-linecap="round" stroke-linejoin="round"/><polyline points="6.48,28.18 14.59,28.18 14.59,28.18" fill="none" stroke="#111" stroke-width="1.6" stroke-linecap="round" stroke-linejoin="round"/><polyline points="6.48,31.76 9.1,31.76 9.1,28.18 9.1,28.18" fill="none" stroke="#111" stroke-width="1.6" stroke-linecap="round" stroke-linejoin="round"/><polyline points="6.48,48.22 10.53,48.22 10.53,48.22" fill="none" stroke="#111" stroke-width="1.6" stroke-linecap="round" stroke-linejoin="round"/><polyline points="9.1,31.76 9.1,35.34 6.48,35.34 6.48,35.34" fill="none" stroke="#111" stroke-width="1.6" stroke-linecap="round" stroke-linejoin="round"/><polyline points="9.1,35.34 10.53,35.34 10.53,51.56 10.53,51.56" fill="none" stroke="#111" stroke-width="1.6" stroke-linecap="round" stroke-linejoin="round"/><polyline points="10.53,28.18 10.53,12.92 10.53,12.92" fill="none" stroke="#111" stroke-width="1.6" stroke-linecap="round" stroke-linejoin="round"/><polyline points="14.59,37.25 10.53,37.25 10.53,37.25" fill="none" stroke="#111" stroke-width="1.6" stroke-linecap="round" stroke-linejoin="round"/><polyline points="14.59,44.4 10.53,44.4 10.53,44.4" fill="none" stroke="#111" stroke-width="1.6" stroke-linecap="round" stroke-linejoin="round"/><rect x="6.48" y="12.68" width="8.11" height="38.64" fill="none" stroke="#111" stroke-width="1.6"/><rect x="7.43" y="16.02" width="6.68" height="31.96" fill="none" stroke="#111" stroke-width="1.6"/><rect x="6" y="11.96" width="9.54" height="40.08" fill="none" stroke="#111" stroke-width="1.6"/></svg>