<svg xmlns="http://www.w3.org/2000/svg" width="96" height="64" viewBox="0 0 96 64"><rect x="6" y="6" width="0.77" height="0.23" fill="none" stroke="#111" stroke-width="1.6"/><rect x="6" y="8.25" width="0.77" height="0.23" fill="none" stroke="#111" stroke-width="1.6"/><rect x="6" y="10.5" width="0.77" height="0.23" fill="none" stroke="#111" stroke-width="1.6"/><rect x="6" y="12.75" width="0.77" height="0.23" fill="none" stroke="#111" stroke-width="1.6"/><rect x="6" y="15" width="0.77" height="0.23" fill="none" stroke="#111" stroke-width="1.6"/><rect x="6" y="17.26" width="0.77" height="0.22" fill="none" stroke="#111" stroke-width="1.6"/><rect x="6" y="19.51" width="0.77" height="0.22" fill="none" stroke="#111" stroke-width="1.6"/><rect x="6" y="21.76" width="0.77" height="0.22" fill="none" stroke="#111" stroke-width="1.6"/><rect x="6" y="24.01" width="0.77" height="0.22" fill="none" stroke="#111" stroke-width="1.6"/><rect x="6" y="26.26" width="0.77" height="0.22" fill="none" stroke="#111" stroke-width="1.6"/><rect x="6" y="28.51" width="0.77" height="0.23" fill="none" stroke="#111" stroke-width="1.6"/><rect x="6" y="30.76" width="0.77" height="0.23" fill="none" stroke="#111" stroke-width="1.6"/><rect x="6" y="33.01" width="0.77" height="0.23" fill="none" stroke="#111" stroke-width="1.6"/><rect x="6" y="35.26" width="0.77" height="0.23" fill="none" stroke="#111" stroke-width="1.6"/><rect x="6" y="37.52" width="0.77" height="0.22" fill="none" stroke="#111" stroke-width="1.6"/><rect x="6" y="39.77" width="0.77" height="0.22" fill="none" stroke="#111" stroke-width="1.6"/><rect x="6" y="42.02" width="0.77" height="0.22" fill="none" stroke="#111" stroke-width="1.6"/><rect x="6" y="44.27" width="0.77" height="0.22" fill="none" stroke="#111" stroke-width="1.6"/><rect x="6" y="46.52" width="0.77" height="0.22" fill="none" stroke="#111" stroke-width="1.6"/><rect x="6" y="48.77" width="0.77" height="0.23" fill="none" stroke="#111" stroke-width="1.6"/><rect x="6" y="51.02" width="0.77" height="0.23" fill="none" stroke="#111" stroke-width="1.6"/><rect x="6" y="53.27" width="0.77" height="0.23" fill="none" stroke="#111" stroke-width="1.6"/><rect x="6" y="55.52" width="0.77" height="0.23" fill="none" stroke="#111" stroke-width="1.6"/><rect x="6" y="57.77" width="0.77" height="0.23" fill="none" stroke="#111" stroke-width="1.6"/><polyline points="7.13,6.11 6.77,6.11" fill="none" stroke="#111" stroke-width="1.6" stroke-linecap="round" stroke-linejoin="round"/><polyline points="7.13,8.36 6.77,8.36" fill="none" stroke="#111" stroke-width="1.6" stroke-linecap="round" stroke-linejoin="round"/><polyline points="7.13,10.61 6.77,10.61" fill="none" stroke="#111" stroke-width="1.6" stroke-linecap="round" stroke-linejoin="round"/><polyline points="7.13,12.87 6.77,12.87" fill="none" stroke="#111" stroke-width="1.6" stroke-linecap="round" stroke-linejoin="round"/><polyline points="7.13,15.12 6.77,15.12" fill="none" stroke="#111" stroke-width="1.6" stroke-linecap="round" stroke-linejoin="round"/><polyline points="7.13,17.37 6.77,17.37" fill="none" stroke="#111" stroke-width="1.6" stroke-linecap="round" stroke-linejoin="round"/><polyline points="7.13,19.62 6.77,19.62" fill="none" stroke="#111" stroke-width="1.6" stroke-linecap="round" stroke-linejoin="round"/><polyline points="7.13,21.87 6.77,21.87" fill="none" stroke="#111" stroke-width="1.6" stroke-linecap="round" stroke-linejoin="round"/><polyline points="7.13,24.12 6.77,24.12" fill="none" stroke="#111" stroke-width="1.6" stroke-linecap="round" stroke-linejoin="round"/><polyline points="7.13,26.37 6.77,26.37" fill="none" stroke="#111" stroke-width="1.6" stroke-linecap="round" stroke-linejoin="round"/><polyline points="7.13,28.62 6.77,28.62" fill="none" stroke="#111" stroke-width="1.6" stroke-linecap="round" stroke-linejoin="round"/><polyline points="7.13,30.87 6.77,30.87" fill="none" stroke="#111" stroke-width="1.6" stroke-linecap="round" stroke-linejoin="round"/><polyline points="7.13,33.13 6.77,33.13" fill="none" stroke="#111" stroke-width="1.6" stroke-linecap="round" stroke-linejoin="round"/><polyline points="7.13,35.38 6.77,35.38" fill="none" stroke="#111" stroke-width="1.6" stroke-linecap="round" stroke-linejoin="round"/><polyline points="7.13,37.63 6.77,37.63" fill="none" stroke="#111" stroke-width="1.6" stroke-linecap="round" stroke-linejoin="round"/><polyline points="7.13,39.88 6.77,39.88" fill="none" stroke="#111" stroke-width="1.6" stroke-linecap="round" stroke-linejoin="round"/><polyline points="7.13,42.13 6.77,42.13" fill="none" stroke="#111" stroke-width="1.6" stroke-linecap="round" stroke-linejoin="round"/><polyline points="7.13,44.38 6.77,44.38" fill="none" stroke="#111" stroke-width="1.6" stroke-linecap="round" stroke-linejoin="round"/><polyline points="7.13,46.63 6.77,46.63" fill="none" stroke="#111" stroke-width="1.6" stroke-linecap="round" stroke-linejoin="round"/><polyline points="7.13,48.88 6.77,48.88" fill="none" stroke="#111" stroke-width="1.6" stroke-linecap="round" stroke-linejoin="round"/><polyline points="7.13,51.13 6.77,51.13" fill="none" stroke="#111" stroke-width="1.6" stroke-linecap="round" stroke-linejoin="round"/><polyline points="7.13,53.39 6.77,53.39" fill="none" stroke="#111" stroke-width="1.6" stroke-linecap="round" stroke-linejoin="round"/><polyline points="7.13,55.64 6.77,55.64" fill="none" stroke="#111" stroke-width="1.6" stroke-linecap="round" stroke-linejoin="round"/><polyline points="7.13,57.89 6.77,57.89" fill="none" stroke="#111" stroke-width="1.6" stroke-linecap="round" stroke-linejoin="round"/></svg>