<svg xmlns="http://www.w3.org/2000/svg" width="96" height="64" viewBox="0 0 96 64"><polyline points="6,6.29 6.43,6.29" fill="none" stroke="#111" stroke-width="1.6" stroke-linecap="round" stroke-linejoin="round"/><polyline points="6,7.71 6.43,7.71" fill="none" stroke="#111" stroke-width="1.6" stroke-linecap="round" stroke-linejoin="round"/><polyline points="6,9.14 6.43,9.14" fill="none" stroke="#111" stroke-width="1.6" stroke-linecap="round" stroke-linejoin="round"/><polyline points="6,10.57 6.43,10.57" fill="none" stroke="#111" stroke-width="1.6" stroke-linecap="round" stroke-linejoin="round"/><polyline points="6,12 6.43,12" fill="none" stroke="#111" stroke-width="1.6" stroke-linecap="round" stroke-linejoin="round"/><polyline points="6,13.43 6.43,13.43" fill="none" stroke="#111" stroke-width="1.6" stroke-linecap="round" stroke-linejoin="round"/><polyline points="6,14.86 6.43,14.86" fill="none" stroke="#111" stroke-width="1.6" stroke-linecap="round" stroke-linejoin="round"/><polyline points="6,16.29 6.43,16.29" fill="none" stroke="#111" stroke-width="1.6" stroke-linecap="round" stroke-linejoin="round"/><polyline points="6,17.71 6.43,17.71" fill="none" stroke="#111" stroke-width="1.6" stroke-linecap="round" stroke-linejoin="round"/><polyline points="6,19.14 6.43,19.14" fill="none" stroke="#111" stroke-width="1.6" stroke-linecap="round" stroke-linejoin="round"/><polyline points="6,20.57 6.43,20.57" fill="none" stroke="#111" stroke-width="1.6" stroke-linecap="round" stroke-linejoin="round"/><polyline points="6,22 6.43,22" fill="none" stroke="#111" stroke-width="1.6" stroke-linecap="round" stroke-linejoin="round"/><polyline points="6,23.43 6.43,23.43" fill="none" stroke="#111" stroke-width="1.6" stroke-linecap="round" stroke-linejoin="round"/><polyline points="6,24.86 6.43,24.86" fill="none" stroke="#111" stroke-width="1.6" stroke-linecap="round" stroke-linejoin="round"/><polyline points="6,26.29 6.43,26.29" fill="none" stroke="#111" stroke-width="1.6" stroke-linecap="round" stroke-linejoin="round"/><polyline points="6,27.71 6.43,27.71" fill="none" stroke="#111" stroke-width="1.6" stroke-linecap="round" stroke-linejoin="round"/><polyline points="6,29.14 6.43,29.14" fill="none" stroke="#111" stroke-width="1.6" stroke-linecap="round" stroke-linejoin="round"/><polyline points="6,30.57 6.43,30.57" fill="none" stroke="#111" stroke-width="1.6" stroke-linecap="round" stroke-linejoin="round"/><polyline points="6,32 6.43,32" fill="none" stroke="#111" stroke-width="1.6" stroke-linecap="round" stroke-linejoin="round"/><polyline points="6,33.43 6.43,33.43" fill="none" stroke="#111" stroke-width="1.6" stroke-linecap="round" stroke-linejoin="round"/><polyline points="6,34.86 6.43,34.86" fill="none" stroke="#111" stroke-width="1.6" stroke-linecap="round" stroke-linejoin="round"/><polyline points="6,36.29 6.43,36.29" fill="none" stroke="#111" stroke-width="1.6" stroke-linecap="round" stroke-linejoin="round"/><polyline points="6,37.71 6.43,37.71" fill="none" stroke="#111" stroke-width="1.6" stroke-linecap="round" stroke-linejoin="round"/><polyline points="6,39.14 6.43,39.14" fill="none" stroke="#111" stroke-width="1.6" stroke-linecap="round" stroke-linejoin="round"/><polyline points="6,40.57 6.43,40.57" fill="none" stroke="#111" stroke-width="1.6" stroke-linecap="round" stroke-linejoin="round"/><polyline points="6,42 6.43,42" fill="none" stroke="#111" stroke-width="1.6" stroke-linecap="round" stroke-linejoin="round"/><polyline points="6,43.43 6.43,43.43" fill="none" stroke="#111" stroke-width="1.6" stroke-linecap="round" stroke-linejoin="round"/><polyline points="6,44.86 6.43,44.86" fill="none" stroke="#111" stroke-width="1.6" stroke-linecap="round" stroke-linejoin="round"/><polyline points="6,46.29 6.43,46.29" fill="none" stroke="#111" stroke-width="1.6" stroke-linecap="round" stroke-linejoin="round"/><polyline points="6,47.71 6.43,47.71" fill="none" stroke="#111" stroke-width="1.6" stroke-linecap="round" stroke-linejoin="round"/><polyline points="6,49.14 6.43,49.14" fill="none" stroke="#111" stroke-width="1.6" stroke-linecap="round" stroke-linejoin="round"/><polyline points="6,50.57 6.43,50.57" fill="none" stroke="#111" stroke-width="1.6" stroke-linecap="round" stroke-linejoin="round"/><polyline points="6,52 6.43,52" fill="none" stroke="#111" stroke-width="1.6" stroke-linecap="round" stroke-linejoin="round"/><polyline points="6,53.43 6.43,53.43" fill="none" stroke="#111" stroke-width="1.6" stroke-linecap="round" stroke-linejoin="round"/><polyline points="6,54.86 6.43,54.86" fill="none" stroke="#111" stroke-width="1.6" stroke-linecap="round" stroke-linejoin="round"/><polyline points="6,56.29 6.43,56.29" fill="none" stroke="#111" stroke-width="1.6" stroke-linecap="round" stroke-linejoin="round"/><polyline points="6,57.71 6.43,57.71" fill="none" stroke="#111" stroke-width="1.6" stroke-linecap="round" stroke-linejoin="round"/><path d="M 6.71 6.57 Q 6.43 6.29 6.71 6" fill="none" stroke="#111" stroke-width="1.6" stroke-linecap="round"/><path d="M 6.71 8 Q 6.43 7.71 6.71 7.43" fill="none" stroke="#111" stroke-width="1.6" stroke-linecap="round"/><path d="M 6.71 9.43 Q 6.43 9.14 6.71 8.86" fill="none" stroke="#111" stroke-width="1.6" stroke-linecap="round"/><path d="M 6.71 10.86 Q 6.43 10.57 6.71 10.29" fill="none" stroke="#111" stroke-width="1.6" stroke-linecap="round"/><path d="M 6.71 12.29 Q 6.43 12 6.71 11.71" fill="none" stroke="#111" stroke-width="1.6" stroke-linecap="round"/><path d="M 6.71 13.71 Q 6.43 13.43 6.71 13.14" fill="none" stroke="#111" stroke-width="1.6" stroke-linecap="round"/><path d="M 6.71 15.14 Q 6.43 14.86 6.71 14.57" fill="none" stroke="#111" stroke-width="1.6" stroke-linecap="round"/><path d="M 6.71 16.57 Q 6.43 16.29 6.71 16" fill="none" stroke="#111" stroke-width="1.6" stroke-linecap="round"/><path d="M 6.71 18 Q 6.43 17.71 6.71 17.43" fill="none" stroke="#111" stroke-width="1.6" stroke-linecap="round"/><path d="M 6.71 19.43 Q 6.43 19.14 6.71 18.86" fill="none" stroke="#111" stroke-width="1.6" stroke-linecap="round"/><path d="M 6.71 20.86 Q 6.43 20.57 6.71 20.29" fill="none" stroke="#111" stroke-width="1.6" stroke-linecap="round"/><path d="M 6.71 22.29 Q 6.43 22 6.71 21.71" fill="none" stroke="#111" stroke-width="1.6" stroke-linecap="round"/><path d="M 6.71 23.71 Q 6.43 23.43 6.71 23.14" fill="none" stroke="#111" stroke-width="1.6" stroke-linecap="round"/><path d="M 6.71 25.14 Q 6.43 24.86 6.71 24.57" fill="none" stroke="#111" stroke-width="1.6" stroke-linecap="round"/><path d="M 6.71 26.57 Q 6.43 26.29 6.71 26" fill="none" stroke="#111" stroke-width="1.6" stroke-linecap="round"/><path d="M 6.71 28 Q 6.43 27.71 6.71 27.43" fill="none" stroke="#111" stroke-width="1.6" stroke-linecap="round"/><path d="M 6.71 29.43 Q 6.43 29.14 6.71 28.86" fill="none" stroke="#111" stroke-width="1.6" stroke-linecap="round"/><path d="M 6.71 30.86 Q 6.43 30.57 6.71 30.29" fill="none" stroke="#111" stroke-width="1.6" stroke-linecap="round"/><path d="M 6.71 32.29 Q 6.43 32 6.71 31.71" fill="none" stroke="#111" stroke-width="1.6" stroke-linecap="round"/><path d="M 6.71 33.71 Q 6.43 33.43 6.71 33.14" fill="none" stroke="#111" stroke-width="1.6" stroke-linecap="round"/><path d="M 6.71 35.14 Q 6.43 34.86 6.71 34.57" fill="none" stroke="#111" stroke-width="1.6" stroke-linecap="round"/><path d="M 6.71 36.57 Q 6.43 36.29 6.71 36" fill="none" stroke="#111" stroke-width="1.6" stroke-linecap="round"/><path d="M 6.71 38 Q 6.43 37.71 6.71 37.43" fill="none" stroke="#111" stroke-width="1.6" stroke-linecap="round"/><path d="M 6.71 39.43 Q 6.43 39.14 6.71 38.86" fill="none" stroke="#111" stroke-width="1.6" stroke-linecap="round"/><path d="M 6.71 40.86 Q 6.43 40.57 6.71 40.29" fill="none" stroke="#111" stroke-width="1.6" stroke-linecap="round"/><path d="M 6.71 42.29 Q 6.43 42 6.71 41.71" fill="none" stroke="#111" stroke-width="1.6" stroke-linecap="round"/><path d="M 6.71 43.71 Q 6.43 43.43 6.71 43.14" fill="none" stroke="#111" stroke-width="1.6" stroke-linecap="round"/><path d="M 6.71 45.14 Q 6.43 44.86 6.71 44.57" fill="none" stroke="#111" stroke-width="1.6" stroke-linecap="round"/><path d="M 6.71 46.57 Q 6.43 46.29 6.71 46" fill="none" stroke="#111" stroke-width="1.6" stroke-linecap="round"/><path d="M 6.71 48 Q 6.43 47.71 6.71 47.43" fill="none" stroke="#111" stroke-width="1.6" stroke-linecap="round"/><path d="M 6.71 49.43 Q 6.43 49.14 6.71 48.86" fill="none" stroke="#111" stroke-width="1.6" stroke-linecap="round"/><path d="M 6.71 50.86 Q 6.43 50.57 6.71 50.29" fill="none" stroke="#111" stroke-width="1.6" stroke-linecap="round"/><path d="M 6.71 52.29 Q 6.43 52 6.71 51.71" fill="none" stroke="#111" stroke-width="1.6" stroke-linecap="round"/><path d="M 6.71 53.71 Q 6.43 53.43 6.71 53.14" fill="none" stroke="#111" stroke-width="1.6" stroke-linecap="round"/><path d="M 6.71 55.14 Q 6.43 54.86 6.71 54.57" fill="none" stroke="#111" stroke-width="1.6" stroke-linecap="round"/><path d="M 6.71 56.57 Q 6.43 56.29 6.71 56" fill="none" stroke="#111" stroke-width="1.6" stroke-linecap="round"/><path d="M 6.71 58 Q 6.43 57.71 6.71 57.43" fill="none" stroke="#111" stroke-width="1.6" stroke-linecap="round"/></svg>