<svg xmlns="http://www.w3.org/2000/svg" width="96" height="64" viewBox="0 0 96 64"><rect x="6" y="6" width="0.31" height="0.09" fill="none" stroke="#111" stroke-width="1.6"/><rect x="6" y="6.91" width="0.31" height="0.09" fill="none" stroke="#111" stroke-width="1.6"/><rect x="6" y="7.82" width="0.31" height="0.09" fill="none" stroke="#111" stroke-width="1.6"/><rect x="6" y="8.73" width="0.31" height="0.09" fill="none" stroke="#111" stroke-width="1.6"/><rect x="6" y="9.64" width="0.31" height="0.09" fill="none" stroke="#111" stroke-width="1.6"/><rect x="6" y="10.55" width="0.31" height="0.09" fill="none" stroke="#111" stroke-width="1.6"/><rect x="6" y="11.46" width="0.31" height="0.1" fill="none" stroke="#111" stroke-width="1.6"/><rect x="6" y="12.37" width="0.31" height="0.1" fill="none" stroke="#111" stroke-width="1.6"/><rect x="6" y="13.29" width="0.31" height="0.09" fill="none" stroke="#111" stroke-width="1.6"/><rect x="6" y="14.2" width="0.31" height="0.09" fill="none" stroke="#111" stroke-width="1.6"/><rect x="6" y="15.11" width="0.31" height="0.09" fill="none" stroke="#111" stroke-width="1.6"/><rect x="6" y="16.02" width="0.31" height="0.09" fill="none" stroke="#111" stroke-width="1.6"/><rect x="6" y="16.93" width="0.31" height="0.09" fill="none" stroke="#111" stroke-width="1.6"/><rect x="6" y="17.84" width="0.31" height="0.09" fill="none" stroke="#111" stroke-width="1.6"/><rect x="6" y="18.75" width="0.31" height="0.09" fill="none" stroke="#111" stroke-width="1.6"/><rect x="6" y="19.66" width="0.31" height="0.09" fill="none" stroke="#111" stroke-width="1.6"/><rect x="6" y="20.57" width="0.31" height="0.09" fill="none" stroke="#111" stroke-width="1.6"/><rect x="6" y="21.48" width="0.31" height="0.09" fill="none" stroke="#111" stroke-width="1.6"/><rect x="6" y="22.39" width="0.31" height="0.09" fill="none" stroke="#111" stroke-width="1.6"/><rect x="6" y="23.3" width="0.31" height="0.09" fill="none" stroke="#111" stroke-width="1.6"/><rect x="6" y="24.21" width="0.31" height="0.09" fill="none" stroke="#111" stroke-width="1.6"/><rect x="6" y="25.12" width="0.31" height="0.1" fill="none" stroke="#111" stroke-width="1.6"/><rect x="6" y="26.04" width="0.31" height="0.09" fill="none" stroke="#111" stroke-width="1.6"/><rect x="6" y="26.95" width="0.31" height="0.09" fill="none" stroke="#111" stroke-width="1.6"/><rect x="6" y="27.86" width="0.31" height="0.09" fill="none" stroke="#111" stroke-width="1.6"/><rect x="6" y="28.77" width="0.31" height="0.09" fill="none" stroke="#111" stroke-width="1.6"/><rect x="6" y="29.68" width="0.31" height="0.09" fill="none" stroke="#111" stroke-width="1.6"/><rect x="6" y="30.59" width="0.31" height="0.09" fill="none" stroke="#111" stroke-width="1.6"/><rect x="6" y="31.5" width="0.31" height="0.09" fill="none" stroke="#111" stroke-width="1.6"/><rect x="6" y="32.41" width="0.31" height="0.09" fill="none" stroke="#111" stroke-width="1.6"/><rect x="6" y="33.32" width="0.31" height="0.09" fill="none" stroke="#111" stroke-width="1.6"/><rect x="6" y="34.23" width="0.31" height="0.09" fill="none" stroke="#111" stroke-width="1.6"/><rect x="6" y="35.14" width="0.31" height="0.09" fill="none" stroke="#111" stroke-width="1.6"/><rect x="6" y="36.05" width="0.31" height="0.09" fill="none" stroke="#111" stroke-width="1.6"/><rect x="6" y="36.96" width="0.31" height="0.09" fill="none" stroke="#111" stroke-width="1.6"/><rect x="6" y="37.87" width="0.31" height="0.09" fill="none" stroke="#111" stroke-width="1.6"/><rect x="6" y="38.78" width="0.31" height="0.1" fill="none" stroke="#111" stroke-width="1.6"/><rect x="6" y="39.7" width="0.31" height="0.09" fill="none" stroke="#111" stroke-width="1.6"/><rect x="6" y="40.61" width="0.31" height="0.09" fill="none" stroke="#111" stroke-width="1.6"/><rect x="6" y="41.52" width="0.31" height="0.09" fill="none" stroke="#111" stroke-width="1.6"/><rect x="6" y="42.43" width="0.31" height="0.09" fill="none" stroke="#111" stroke-width="1.6"/><rect x="6" y="43.34" width="0.31" height="0.09" fill="none" stroke="#111" stroke-width="1.6"/><rect x="6" y="44.25" width="0.31" height="0.09" fill="none" stroke="#111" stroke-width="1.6"/><rect x="6" y="45.16" width="0.31" height="0.09" fill="none" stroke="#111" stroke-width="1.6"/><rect x="6" y="46.07" width="0.31" height="0.09" fill="none" stroke="#111" stroke-width="1.6"/><rect x="6" y="46.98" width="0.31" height="0.09" fill="none" stroke="#111" stroke-width="1.6"/><rect x="6" y="47.89" width="0.31" height="0.09" fill="none" stroke="#111" stroke-width="1.6"/><rect x="6" y="48.8" width="0.31" height="0.09" fill="none" stroke="#111" stroke-width="1.6"/><rect x="6" y="49.71" width="0.31" height="0.09" fill="none" stroke="#111" stroke-width="1.6"/><rect x="6" y="50.62" width="0.31" height="0.09" fill="none" stroke="#111" stroke-width="1.6"/><rect x="6" y="51.53" width="0.31" height="0.1" fill="none" stroke="#111" stroke-width="1.6"/><rect x="6" y="52.44" width="0.31" height="0.1" fill="none" stroke="#111" stroke-width="1.6"/><rect x="6" y="53.36" width="0.31" height="0.09" fill="none" stroke="#111" stroke-width="1.6"/><rect x="6" y="54.27" width="0.31" height="0.09" fill="none" stroke="#111" stroke-width="1.6"/><rect x="6" y="55.18" width="0.31" height="0.09" fill="none" stroke="#111" stroke-width="1.6"/><rect x="6" y="56.09" width="0.31" height="0.09" fill="none" stroke="#111" stroke-width="1.6"/><rect x="6" y="57" width="0.31" height="0.09" fill="none" stroke="#111" stroke-width="1.6"/><rect x="6" y="57.91" width="0.31" height="0.09" fill="none" stroke="#111" stroke-width="1.6"/><polyline points="6.46,6.05 6.31,6.05" fill="none" stroke="#111" stroke-width="1.6" stroke-linecap="round" stroke-linejoin="round"/><polyline points="6.46,6.96 6.31,6.96" fill="none" stroke="#111" stroke-width="1.6" stroke-linecap="round" stroke-linejoin="round"/><polyline points="6.46,7.87 6.31,7.87" fill="none" stroke="#111" stroke-width="1.6" stroke-linecap="round" stroke-linejoin="round"/><polyline points="6.46,8.78 6.31,8.78" fill="none" stroke="#111" stroke-width="1.6" stroke-linecap="round" stroke-linejoin="round"/><polyline points="6.46,9.69 6.31,9.69" fill="none" stroke="#111" stroke-width="1.6" stroke-linecap="round" stroke-linejoin="round"/><polyline points="6.46,10.6 6.31,10.6" fill="none" stroke="#111" stroke-width="1.6" stroke-linecap="round" stroke-linejoin="round"/><polyline points="6.46,11.51 6.31,11.51" fill="none" stroke="#111" stroke-width="1.6" stroke-linecap="round" stroke-linejoin="round"/><polyline points="6.46,12.42 6.31,12.42" fill="none" stroke="#111" stroke-width="1.6" stroke-linecap="round" stroke-linejoin="round"/><polyline points="6.46,13.33 6.31,13.33" fill="none" stroke="#111" stroke-width="1.6" stroke-linecap="round" stroke-linejoin="round"/><polyline points="6.46,14.24 6.31,14.24" fill="none" stroke="#111" stroke-width="1.6" stroke-linecap="round" stroke-linejoin="round"/><polyline points="6.46,15.15 6.31,15.15" fill="none" stroke="#111" stroke-width="1.6" stroke-linecap="round" stroke-linejoin="round"/><polyline points="6.46,16.06 6.31,16.06" fill="none" stroke="#111" stroke-width="1.6" stroke-linecap="round" stroke-linejoin="round"/><polyline points="6.46,16.97 6.31,16.97" fill="none" stroke="#111" stroke-width="1.6" stroke-linecap="round" stroke-linejoin="round"/><polyline points="6.46,17.88 6.31,17.88" fill="none" stroke="#111" stroke-width="1.6" stroke-linecap="round" stroke-linejoin="round"/><polyline points="6.46,18.8 6.31,18.8" fill="none" stroke="#111" stroke-width="1.6" stroke-linecap="round" stroke-linejoin="round"/><polyline points="6.46,19.71 6.31,19.71" fill="none" stroke="#111" stroke-width="1.6" stroke-linecap="round" stroke-linejoin="round"/><polyline points="6.46,20.62 6.31,20.62" fill="none" stroke="#111" stroke-width="1.6" stroke-linecap="round" stroke-linejoin="round"/><polyline points="6.46,21.53 6.31,21.53" fill="none" stroke="#111" stroke-width="1.6" stroke-linecap="round" stroke-linejoin="round"/><polyline points="6.46,22.44 6.31,22.44" fill="none" stroke="#111" stroke-width="1.6" stroke-linecap="round" stroke-linejoin="round"/><polyline points="6.46,23.35 6.31,23.35" fill="none" stroke="#111" stroke-width="1.6" stroke-linecap="round" stroke-linejoin="round"/><polyline points="6.46,24.26 6.31,24.26" fill="none" stroke="#111" stroke-width="1.6" stroke-linecap="round" stroke-linejoin="round"/><polyline points="6.46,25.17 6.31,25.17" fill="none" stroke="#111" stroke-width="1.6" stroke-linecap="round" stroke-linejoin="round"/><polyline points="6.46,26.08 6.31,26.08" fill="none" stroke="#111" stroke-width="1.6" stroke-linecap="round" stroke-linejoin="round"/><polyline points="6.46,26.99 6.31,26.99" fill="none" stroke="#111" stroke-width="1.6" stroke-linecap="round" stroke-linejoin="round"/><polyline points="6.46,27.9 6.31,27.9" fill="none" stroke="#111" stroke-width="1.6" stroke-linecap="round" stroke-linejoin="round"/><polyline points="6.46,28.81 6.31,28.81" fill="none" stroke="#111" stroke-width="1.6" stroke-linecap="round" stroke-linejoin="round"/><polyline points="6.46,29.72 6.31,29.72" fill="none" stroke="#111" stroke-width="1.6" stroke-linecap="round" stroke-linejoin="round"/><polyline points="6.46,30.63 6.31,30.63" fill="none" stroke="#111" stroke-width="1.6" stroke-linecap="round" stroke-linejoin="round"/><polyline points="6.46,31.54 6.31,31.54" fill="none" stroke="#111" stroke-width="1.6" stroke-linecap="round" stroke-linejoin="round"/><polyline points="6.46,32.46 6.31,32.46" fill="none" stroke="#111" stroke-width="1.6" stroke-linecap="round" stroke-linejoin="round"/><polyline points="6.46,33.37 6.31,33.37" fill="none" stroke="#111" stroke-width="1.6" stroke-linecap="round" stroke-linejoin="round"/><polyline points="6.46,34.28 6.31,34.28" fill="none" stroke="#111" stroke-width="1.6" stroke-linecap="round" stroke-linejoin="round"/><polyline points="6.46,35.19 6.31,35.19" fill="none" stroke="#111" stroke-width="1.6" stroke-linecap="round" stroke-linejoin="round"/><polyline points="6.46,36.1 6.31,36.1" fill="none" stroke="#111" stroke-width="1.6" stroke-linecap="round" stroke-linejoin="round"/><polyline points="6.46,37.01 6.31,37.01" fill="none" stroke="#111" stroke-width="1.6" stroke-linecap="round" stroke-linejoin="round"/><polyline points="6.46,37.92 6.31,37.92" fill="none" stroke="#111" stroke-width="1.6" stroke-linecap="round" stroke-linejoin="round"/><polyline points="6.46,38.83 6.31,38.83" fill="none" stroke="#111" stroke-width="1.6" stroke-linecap="round" stroke-linejoin="round"/><polyline points="6.46,39.74 6.31,39.74" fill="none" stroke="#111" stroke-width="1.6" stroke-linecap="round" stroke-linejoin="round"/><polyline points="6.46,40.65 6.31,40.65" fill="none" stroke="#111" stroke-width="1.6" stroke-linecap="round" stroke-linejoin="round"/><polyline points="6.46,41.56 6.31,41.56" fill="none" stroke="#111" stroke-width="1.6" stroke-linecap="round" stroke-linejoin="round"/><polyline points="6.46,42.47 6.31,42.47" fill="none" stroke="#111" stroke-width="1.6" stroke-linecap="round" stroke-linejoin="round"/><polyline points="6.46,43.38 6.31,43.38" fill="none" stroke="#111" stroke-width="1.6" stroke-linecap="round" stroke-linejoin="round"/><polyline points="6.46,44.29 6.31,44.29" fill="none" stroke="#111" stroke-width="1.6" stroke-linecap="round" stroke-linejoin="round"/><polyline points="6.46,45.2 6.31,45.2" fill="none" stroke="#111" stroke-width="1.6" stroke-linecap="round" stroke-linejoin="round"/><polyline points="6.46,46.12 6.31,46.12" fill="none" stroke="#111" stroke-width="1.6" stroke-linecap="round" stroke-linejoin="round"/><polyline points="6.46,47.03 6.31,47.03" fill="none" stroke="#111" stroke-width="1.6" stroke-linecap="round" stroke-linejoin="round"/><polyline points="6.46,47.94 6.31,47.94" fill="none" stroke="#111" stroke-width="1.6" stroke-linecap="round" stroke-linejoin="round"/><polyline points="6.46,48.85 6.31,48.85" fill="none" stroke="#111" stroke-width="1.6" stroke-linecap="round" stroke-linejoin="round"/><polyline points="6.46,49.76 6.31,49.76" fill="none" stroke="#111" stroke-width="1.6" stroke-linecap="round" stroke-linejoin="round"/><polyline points="6.46,50.67 6.31,50.67" fill="none" stroke="#111" stroke-width="1.6" stroke-linecap="round" stroke-linejoin="round"/><polyline points="6.46,51.58 6.31,51.58" fill="none" stroke="#111" stroke-width="1.6" stroke-linecap="round" stroke-linejoin="round"/><polyline points="6.46,52.49 6.31,52.49" fill="none" stroke="#111" stroke-width="1.6" stroke-linecap="round" stroke-linejoin="round"/><polyline points="6.46,53.4 6.31,53.4" fill="none" stroke="#111" stroke-width="1.6" stroke-linecap="round" stroke-linejoin="round"/><polyline points="6.46,54.31 6.31,54.31" fill="none" stroke="#111" stroke-width="1.6" stroke-linecap="round" stroke-linejoin="round"/><polyline points="6.46,55.22 6.31,55.22" fill="none" stroke="#111" stroke-width="1.6" stroke-linecap="round" stroke-linejoin="round"/><polyline points="6.46,56.13 6.31,56.13" fill="none" stroke="#111" stroke-width="1.6" stroke-linecap="round" stroke-linejoin="round"/><polyline points="6.46,57.04 6.31,57.04" fill="none" stroke="#111" stroke-width="1.6" stroke-linecap="round" stroke-linejoin="round"/><polyline points="6.46,57.95 6.31,57.95" fill="none" stroke="#111" stroke-width="1.6" stroke-linecap="round" stroke-linejoin="round"/></svg>