<svg xmlns="http://www.w3.org/2000/svg" width="96" height="64" viewBox="0 0 96 64"><rect x="6" y="24.83" width="11.67" height="15.17" fill="none" stroke="#111" stroke-width="1.6"/><rect x="6" y="24.83" width="11.67" height="15.17" fill="none" stroke="#111" stroke-width="1.6"/><rect x="6" y="24.83" width="11.67" height="15.17" fill="none" stroke="#111" stroke-width="1.6"/><rect x="6" y="24.83" width="11.67" height="15.17" fill="none" stroke="#111" stroke-width="1.6"/><rect x="6" y="24.83" width="11.67" height="15.17" fill="none" stroke="#111" stroke-width="1.6"/><rect x="6" y="24.83" width="11.67" height="15.17" fill="none" stroke="#111" stroke-width="1.6"/><rect x="6" y="24.83" width="11.67" height="15.17" fill="none" stroke="#111" stroke-width="1.6"/><rect x="6" y="24.83" width="11.67" height="15.17" fill="none" stroke="#111" stroke-width="1.6"/><rect x="6" y="24.83" width="11.67" height="15.17" fill="none" stroke="#111" stroke-width="1.6"/><rect x="6" y="24.83" width="11.67" height="15.17" fill="none" stroke="#111" stroke-width="1.6"/><rect x="6" y="31.5" width="11.67" height="1.83" fill="none" stroke="#111" stroke-width="1.6"/><rect x="7.67" y="28" width="8.33" height="8" fill="none" stroke="#111" stroke-width="1.6"/><rect x="7.67" y="28" width="8.33" height="8" fill="none" stroke="#111" stroke-width="1.6"/><rect x="7.67" y="28" width="8.33" height="8" fill="none" stroke="#111" stroke-width="1.6"/><rect x="7.67" y="26.67" width="8.33" height="10.66" fill="none" stroke="#111" stroke-width="1.6"/><rect x="7.67" y="26.5" width="8.33" height="11.83" fill="none" stroke="#111" stroke-width="1.6"/><rect x="9.33" y="6" width="5" height="52" fill="none" stroke="#111" stroke-width="1.6"/><rect x="9.33" y="6.67" width="5" height="50.66" fill="none" stroke="#111" stroke-width="1.6"/><rect x="9.33" y="29.33" width="5" height="5.34" fill="none" stroke="#111" stroke-width="1.6"/></svg>