<svg xmlns="http://www.w3.org/2000/svg" width="96" height="64" viewBox="0 0 96 64"><polyline points="13.69,22.73 12.33,24.09 13.23,24.99 12.33,24.99 15.04,24.99 14.14,24.99 15.04,24.09 13.69,22.73 13.69,22.73" fill="none" stroke="#111" stroke-width="1.6" stroke-linecap="round" stroke-linejoin="round"/><polyline points="14.59,25.44 15.5,25.44 16.4,22.73 16.85,22.73 15.95,22.73 15.04,25.44 15.04,25.44" fill="none" stroke="#111" stroke-width="1.6" stroke-linecap="round" stroke-linejoin="round"/><polyline points="17.3,22.73 17.3,25.44 20.02,24.09 17.3,22.73 17.3,22.73" fill="none" stroke="#111" stroke-width="1.6" stroke-linecap="round" stroke-linejoin="round"/><polyline points="19.57,22.73 22.28,22.73 20.92,24.99 19.57,22.73 19.57,22.73" fill="none" stroke="#111" stroke-width="1.6" stroke-linecap="round" stroke-linejoin="round"/><rect x="6" y="21.83" width="22.61" height="4.52" fill="none" stroke="#111" stroke-width="1.6"/><rect x="6" y="26.35" width="22.61" height="4.52" fill="none" stroke="#111" stroke-width="1.6"/><rect x="6" y="30.87" width="22.61" height="4.52" fill="none" stroke="#111" stroke-width="1.6"/><rect x="6" y="35.39" width="22.61" height="4.52" fill="none" stroke="#111" stroke-width="1.6"/><rect x="6" y="39.91" width="22.61" height="4.52" fill="none" stroke="#111" stroke-width="1.6"/><rect x="6" y="44.43" width="22.61" height="4.53" fill="none" stroke="#111" stroke-width="1.6"/><rect x="6" y="48.96" width="22.61" height="4.52" fill="none" stroke="#111" stroke-width="1.6"/><rect x="6" y="53.48" width="22.61" height="4.52" fill="none" stroke="#111" stroke-width="1.6"/><polyline points="8.26,21.83 8.26,19.57 6,19.57 6,6 28.61,6 28.61,19.57 26.35,19.57 26.35,21.83 26.35,21.83" fill="none" stroke="#111" stroke-width="1.6" stroke-linecap="round" stroke-linejoin="round"/></svg>