<svg xmlns="http://www.w3.org/2000/svg" width="96" height="64" viewBox="0 0 96 64"><rect x="6" y="6" width="31.2" height="52" fill="none" stroke="#111" stroke-width="1.6"/><polyline points="13.28,26.8 21.6,26.8" fill="none" stroke="#111" stroke-width="1.6" stroke-linecap="round" stroke-linejoin="round"/><polyline points="13.28,32 21.08,32 21.08,36.68" fill="none" stroke="#111" stroke-width="1.6" stroke-linecap="round" stroke-linejoin="round"/><polyline points="17.96,21.6 13.28,21.6" fill="none" stroke="#111" stroke-width="1.6" stroke-linecap="round" stroke-linejoin="round"/><polyline points="17.96,42.4 13.28,42.4" fill="none" stroke="#111" stroke-width="1.6" stroke-linecap="round" stroke-linejoin="round"/><polyline points="17.96,42.4 17.96,34.6 28.36,41.88 17.96,50.2 17.96,42.4" fill="none" stroke="#111" stroke-width="1.6" stroke-linecap="round" stroke-linejoin="round"/><polyline points="21.6,47.6 32.52,47.6" fill="none" stroke="#111" stroke-width="1.6" stroke-linecap="round" stroke-linejoin="round"/><circle cx="23.68" cy="37.2" r="1.04" fill="none" stroke="#111" stroke-width="1.6"/><polyline points="24.72,37.2 32.52,37.2" fill="none" stroke="#111" stroke-width="1.6" stroke-linecap="round" stroke-linejoin="round"/><polyline points="28.36,16.4 32.52,16.4" fill="none" stroke="#111" stroke-width="1.6" stroke-linecap="round" stroke-linejoin="round"/><polyline points="30.44,26.8 32.52,26.8" fill="none" stroke="#111" stroke-width="1.6" stroke-linecap="round" stroke-linejoin="round"/><circle cx="22.64" cy="26.8" r="1.04" fill="none" stroke="#111" stroke-width="1.6"/><polyline points="28.36,22.12 28.36,14.32 17.96,21.6 28.36,29.92 28.36,22.12" fill="none" stroke="#111" stroke-width="1.6" stroke-linecap="round" stroke-linejoin="round"/><circle cx="29.4" cy="26.8" r="1.04" fill="none" stroke="#111" stroke-width="1.6"/></svg>