<svg xmlns="http://www.w3.org/2000/svg" width="96" height="64" viewBox="0 0 96 64"><polyline points="6,19 9.25,19" fill="none" stroke="#111" stroke-width="1.6" stroke-linecap="round" stroke-linejoin="round"/><polyline points="9.25,19 17.05,24.85" fill="none" stroke="#111" stroke-width="1.6" stroke-linecap="round" stroke-linejoin="round"/><polyline points="9.25,45 6,45" fill="none" stroke="#111" stroke-width="1.6" stroke-linecap="round" stroke-linejoin="round"/><polyline points="9.25,45 17.05,39.15" fill="none" stroke="#111" stroke-width="1.6" stroke-linecap="round" stroke-linejoin="round"/><polyline points="12.5,32 51.5,32" fill="none" stroke="#111" stroke-width="1.6" stroke-linecap="round" stroke-linejoin="round"/><circle cx="19" cy="25.5" r="1.95" fill="none" stroke="#111" stroke-width="1.6"/><circle cx="19" cy="38.5" r="1.95" fill="none" stroke="#111" stroke-width="1.6"/><path d="M 31.94 51.5 Q 18.21 45.79 12.5 32.06" fill="none" stroke="#111" stroke-width="1.6" stroke-linecap="round"/><polyline points="32,6 32,17.05" fill="none" stroke="#111" stroke-width="1.6" stroke-linecap="round" stroke-linejoin="round"/><circle cx="32" cy="19" r="1.95" fill="none" stroke="#111" stroke-width="1.6"/><circle cx="32" cy="32" r="26" fill="none" stroke="#111" stroke-width="1.6"/><path d="M 51.5 32.06 Q 45.79 45.79 32.06 51.5" fill="none" stroke="#111" stroke-width="1.6" stroke-linecap="round"/><circle cx="32" cy="45" r="1.95" fill="none" stroke="#111" stroke-width="1.6"/><polyline points="32,58 32,46.95" fill="none" stroke="#111" stroke-width="1.6" stroke-linecap="round" stroke-linejoin="round"/><circle cx="45" cy="25.5" r="1.95" fill="none" stroke="#111" stroke-width="1.6"/><circle cx="45" cy="38.5" r="1.95" fill="none" stroke="#111" stroke-width="1.6"/><polyline points="54.75,19 46.95,24.85" fill="none" stroke="#111" stroke-width="1.6" stroke-linecap="round" stroke-linejoin="round"/><polyline points="54.75,45 46.95,39.15" fill="none" stroke="#111" stroke-width="1.6" stroke-linecap="round" stroke-linejoin="round"/><polyline points="54.75,45 58,45" fill="none" stroke="#111" stroke-width="1.6" stroke-linecap="round" stroke-linejoin="round"/><polyline points="58,19 54.75,19" fill="none" stroke="#111" stroke-width="1.6" stroke-linecap="round" stroke-linejoin="round"/></svg>