<svg xmlns="http://www.w3.org/2000/svg" width="96" height="64" viewBox="0 0 96 64"><rect x="6" y="6" width="84" height="42" fill="none" stroke="#111" stroke-width="1.6"/><polyline points="20.7,13 16.5,13" fill="none" stroke="#111" stroke-width="1.6" stroke-linecap="round" stroke-linejoin="round"/><polyline points="29.8,41 31.9,41" fill="none" stroke="#111" stroke-width="1.6" stroke-linecap="round" stroke-linejoin="round"/><path d="M 31.9 41 Q 34.7 38.21 37.5 41" fill="none" stroke="#111" stroke-width="1.6" stroke-linecap="round"/><path d="M 37.5 41 Q 40.3 38.21 43.1 41" fill="none" stroke="#111" stroke-width="1.6" stroke-linecap="round"/><rect x="45.2" y="22.8" width="11.2" height="1.4" fill="none" stroke="#111" stroke-width="1.6"/><path d="M 43.1 41 Q 45.9 38.21 48.7 41" fill="none" stroke="#111" stroke-width="1.6" stroke-linecap="round"/><polyline points="48.7,41 50.8,41" fill="none" stroke="#111" stroke-width="1.6" stroke-linecap="round" stroke-linejoin="round"/><polyline points="50.1,13 37.5,13" fill="none" stroke="#111" stroke-width="1.6" stroke-linecap="round" stroke-linejoin="round"/><polyline points="50.8,13 50.8,20" fill="none" stroke="#111" stroke-width="1.6" stroke-linecap="round" stroke-linejoin="round"/><circle cx="50.8" cy="13" r="1.4" fill="none" stroke="#111" stroke-width="1.6"/><polyline points="50.8,41 50.8,24.2" fill="none" stroke="#111" stroke-width="1.6" stroke-linecap="round" stroke-linejoin="round"/><polyline points="54.3,13 50.8,13" fill="none" stroke="#111" stroke-width="1.6" stroke-linecap="round" stroke-linejoin="round"/><rect x="45.2" y="19.3" width="11.2" height="1.4" fill="none" stroke="#111" stroke-width="1.6"/><path d="M 54.3 13 Q 57.1 10.21 59.9 13" fill="none" stroke="#111" stroke-width="1.6" stroke-linecap="round"/><path d="M 59.9 13 Q 62.7 10.21 65.5 13" fill="none" stroke="#111" stroke-width="1.6" stroke-linecap="round"/><polyline points="65.5,13 69.7,13" fill="none" stroke="#111" stroke-width="1.6" stroke-linecap="round" stroke-linejoin="round"/><polyline points="69.7,13 69.7,20" fill="none" stroke="#111" stroke-width="1.6" stroke-linecap="round" stroke-linejoin="round"/><polyline points="69.7,13 72.5,13" fill="none" stroke="#111" stroke-width="1.6" stroke-linecap="round" stroke-linejoin="round"/><polyline points="69.7,41 50.8,41" fill="none" stroke="#111" stroke-width="1.6" stroke-linecap="round" stroke-linejoin="round"/><polyline points="69.7,41 69.7,24.2" fill="none" stroke="#111" stroke-width="1.6" stroke-linecap="round" stroke-linejoin="round"/><polyline points="69.7,41 72.5,41" fill="none" stroke="#111" stroke-width="1.6" stroke-linecap="round" stroke-linejoin="round"/><path d="M 20.7 13 Q 23.5 10.21 26.3 13" fill="none" stroke="#111" stroke-width="1.6" stroke-linecap="round"/><path d="M 26.3 13 Q 29.1 10.21 31.9 13" fill="none" stroke="#111" stroke-width="1.6" stroke-linecap="round"/><path d="M 31.9 13 Q 34.7 10.21 37.5 13" fill="none" stroke="#111" stroke-width="1.6" stroke-linecap="round"/><circle cx="50.8" cy="41" r="1.4" fill="none" stroke="#111" stroke-width="1.6"/><rect x="64.1" y="22.8" width="11.2" height="1.4" fill="none" stroke="#111" stroke-width="1.6"/><circle cx="69.7" cy="13" r="1.4" fill="none" stroke="#111" stroke-width="1.6"/><circle cx="69.7" cy="41" r="1.4" fill="none" stroke="#111" stroke-width="1.6"/><rect x="64.1" y="19.3" width="11.2" height="1.4" fill="none" stroke="#111" stroke-width="1.6"/></svg>