<svg xmlns="http://www.w3.org/2000/svg" width="96" height="64" viewBox="0 0 96 64"><rect x="6" y="6" width="20.8" height="52" fill="none" stroke="#111" stroke-width="1.6"/><polyline points="13.8,23.77 13.8,26.37 16.4,25.07 13.8,23.77" fill="none" stroke="#111" stroke-width="1.6" stroke-linecap="round" stroke-linejoin="round"/><polyline points="13.8,25.07 10.77,25.07" fill="none" stroke="#111" stroke-width="1.6" stroke-linecap="round" stroke-linejoin="round"/><polyline points="13.8,27.23 13.8,29.83 16.4,28.53 13.8,27.23" fill="none" stroke="#111" stroke-width="1.6" stroke-linecap="round" stroke-linejoin="round"/><polyline points="13.8,28.53 10.77,28.53" fill="none" stroke="#111" stroke-width="1.6" stroke-linecap="round" stroke-linejoin="round"/><polyline points="13.8,30.7 13.8,33.3 16.4,32 13.8,30.7" fill="none" stroke="#111" stroke-width="1.6" stroke-linecap="round" stroke-linejoin="round"/><polyline points="13.8,32 10.77,32" fill="none" stroke="#111" stroke-width="1.6" stroke-linecap="round" stroke-linejoin="round"/><polyline points="13.8,34.17 13.8,36.77 16.4,35.47 13.8,34.17" fill="none" stroke="#111" stroke-width="1.6" stroke-linecap="round" stroke-linejoin="round"/><polyline points="13.8,35.47 10.77,35.47" fill="none" stroke="#111" stroke-width="1.6" stroke-linecap="round" stroke-linejoin="round"/><polyline points="14.23,38.93 10.77,38.93" fill="none" stroke="#111" stroke-width="1.6" stroke-linecap="round" stroke-linejoin="round"/><polyline points="14.23,42.4 10.77,42.4" fill="none" stroke="#111" stroke-width="1.6" stroke-linecap="round" stroke-linejoin="round"/><polyline points="14.23,45.87 10.77,45.87" fill="none" stroke="#111" stroke-width="1.6" stroke-linecap="round" stroke-linejoin="round"/><polyline points="14.23,49.33 10.77,49.33" fill="none" stroke="#111" stroke-width="1.6" stroke-linecap="round" stroke-linejoin="round"/><circle cx="14.67" cy="38.93" r="0.43" fill="none" stroke="#111" stroke-width="1.6"/><circle cx="14.67" cy="42.4" r="0.43" fill="none" stroke="#111" stroke-width="1.6"/><circle cx="14.67" cy="45.87" r="0.43" fill="none" stroke="#111" stroke-width="1.6"/><circle cx="14.67" cy="49.33" r="0.43" fill="none" stroke="#111" stroke-width="1.6"/><circle cx="16.83" cy="25.07" r="0.43" fill="none" stroke="#111" stroke-width="1.6"/><circle cx="16.83" cy="28.53" r="0.43" fill="none" stroke="#111" stroke-width="1.6"/><circle cx="16.83" cy="32" r="0.43" fill="none" stroke="#111" stroke-width="1.6"/><circle cx="16.83" cy="35.47" r="0.43" fill="none" stroke="#111" stroke-width="1.6"/><polyline points="17.27,25.07 20.73,25.07" fill="none" stroke="#111" stroke-width="1.6" stroke-linecap="round" stroke-linejoin="round"/><polyline points="17.27,28.53 20.73,28.53" fill="none" stroke="#111" stroke-width="1.6" stroke-linecap="round" stroke-linejoin="round"/><polyline points="17.27,32 20.73,32" fill="none" stroke="#111" stroke-width="1.6" stroke-linecap="round" stroke-linejoin="round"/><polyline points="17.27,35.47 20.73,35.47" fill="none" stroke="#111" stroke-width="1.6" stroke-linecap="round" stroke-linejoin="round"/><polyline points="17.7,37.63 17.7,40.23 15.1,38.93 17.7,37.63" fill="none" stroke="#111" stroke-width="1.6" stroke-linecap="round" stroke-linejoin="round"/><polyline points="17.7,38.93 20.73,38.93" fill="none" stroke="#111" stroke-width="1.6" stroke-linecap="round" stroke-linejoin="round"/><polyline points="17.7,41.1 17.7,43.7 15.1,42.4 17.7,41.1" fill="none" stroke="#111" stroke-width="1.6" stroke-linecap="round" stroke-linejoin="round"/><polyline points="17.7,42.4 20.73,42.4" fill="none" stroke="#111" stroke-width="1.6" stroke-linecap="round" stroke-linejoin="round"/><polyline points="17.7,44.57 17.7,47.17 15.1,45.87 17.7,44.57" fill="none" stroke="#111" stroke-width="1.6" stroke-linecap="round" stroke-linejoin="round"/><polyline points="17.7,45.87 20.73,45.87" fill="none" stroke="#111" stroke-width="1.6" stroke-linecap="round" stroke-linejoin="round"/><polyline points="17.7,48.03 17.7,50.63 15.1,49.33 17.7,48.03" fill="none" stroke="#111" stroke-width="1.6" stroke-linecap="round" stroke-linejoin="round"/><polyline points="17.7,49.33 20.73,49.33" fill="none" stroke="#111" stroke-width="1.6" stroke-linecap="round" stroke-linejoin="round"/></svg>