<svg xmlns="http://www.w3.org/2000/svg" width="96" height="64" viewBox="0 0 96 64"><rect x="6" y="6" width="3.25" height="52" fill="none" stroke="#111" stroke-width="1.6"/><rect x="6" y="6.73" width="0.81" height="0.16" fill="none" stroke="#111" stroke-width="1.6"/><rect x="6" y="8.36" width="0.81" height="0.16" fill="none" stroke="#111" stroke-width="1.6"/><rect x="6" y="9.98" width="0.81" height="0.16" fill="none" stroke="#111" stroke-width="1.6"/><rect x="6" y="11.61" width="0.81" height="0.16" fill="none" stroke="#111" stroke-width="1.6"/><rect x="6" y="13.23" width="0.81" height="0.16" fill="none" stroke="#111" stroke-width="1.6"/><rect x="6" y="14.86" width="0.81" height="0.16" fill="none" stroke="#111" stroke-width="1.6"/><rect x="6" y="16.48" width="0.81" height="0.16" fill="none" stroke="#111" stroke-width="1.6"/><rect x="6" y="18.11" width="0.81" height="0.16" fill="none" stroke="#111" stroke-width="1.6"/><rect x="6" y="19.73" width="0.81" height="0.16" fill="none" stroke="#111" stroke-width="1.6"/><rect x="6" y="21.36" width="0.81" height="0.16" fill="none" stroke="#111" stroke-width="1.6"/><rect x="6" y="22.98" width="0.81" height="0.16" fill="none" stroke="#111" stroke-width="1.6"/><rect x="6" y="24.61" width="0.81" height="0.16" fill="none" stroke="#111" stroke-width="1.6"/><rect x="6" y="26.23" width="0.81" height="0.16" fill="none" stroke="#111" stroke-width="1.6"/><rect x="6" y="27.86" width="0.81" height="0.16" fill="none" stroke="#111" stroke-width="1.6"/><rect x="6" y="29.48" width="0.81" height="0.16" fill="none" stroke="#111" stroke-width="1.6"/><rect x="6" y="31.11" width="0.81" height="0.16" fill="none" stroke="#111" stroke-width="1.6"/><rect x="6" y="32.73" width="0.81" height="0.16" fill="none" stroke="#111" stroke-width="1.6"/><rect x="6" y="34.36" width="0.81" height="0.16" fill="none" stroke="#111" stroke-width="1.6"/><rect x="6" y="35.98" width="0.81" height="0.16" fill="none" stroke="#111" stroke-width="1.6"/><rect x="6" y="37.61" width="0.81" height="0.16" fill="none" stroke="#111" stroke-width="1.6"/><rect x="6" y="39.23" width="0.81" height="0.16" fill="none" stroke="#111" stroke-width="1.6"/><rect x="6" y="40.86" width="0.81" height="0.16" fill="none" stroke="#111" stroke-width="1.6"/><rect x="6" y="42.48" width="0.81" height="0.16" fill="none" stroke="#111" stroke-width="1.6"/><rect x="6" y="44.11" width="0.81" height="0.16" fill="none" stroke="#111" stroke-width="1.6"/><rect x="6" y="45.73" width="0.81" height="0.16" fill="none" stroke="#111" stroke-width="1.6"/><rect x="6" y="47.36" width="0.81" height="0.16" fill="none" stroke="#111" stroke-width="1.6"/><rect x="6" y="48.98" width="0.81" height="0.16" fill="none" stroke="#111" stroke-width="1.6"/><rect x="6" y="50.61" width="0.81" height="0.16" fill="none" stroke="#111" stroke-width="1.6"/><rect x="6" y="52.23" width="0.81" height="0.16" fill="none" stroke="#111" stroke-width="1.6"/><rect x="6" y="53.86" width="0.81" height="0.16" fill="none" stroke="#111" stroke-width="1.6"/><rect x="6" y="55.48" width="0.81" height="0.16" fill="none" stroke="#111" stroke-width="1.6"/><rect x="6" y="57.11" width="0.81" height="0.16" fill="none" stroke="#111" stroke-width="1.6"/><rect x="8.44" y="6.73" width="0.81" height="0.16" fill="none" stroke="#111" stroke-width="1.6"/><rect x="8.44" y="8.36" width="0.81" height="0.16" fill="none" stroke="#111" stroke-width="1.6"/><rect x="8.44" y="9.98" width="0.81" height="0.16" fill="none" stroke="#111" stroke-width="1.6"/><rect x="8.44" y="11.61" width="0.81" height="0.16" fill="none" stroke="#111" stroke-width="1.6"/><rect x="8.44" y="13.23" width="0.81" height="0.16" fill="none" stroke="#111" stroke-width="1.6"/><rect x="8.44" y="14.86" width="0.81" height="0.16" fill="none" stroke="#111" stroke-width="1.6"/><rect x="8.44" y="16.48" width="0.81" height="0.16" fill="none" stroke="#111" stroke-width="1.6"/><rect x="8.44" y="18.11" width="0.81" height="0.16" fill="none" stroke="#111" stroke-width="1.6"/><rect x="8.44" y="19.73" width="0.81" height="0.16" fill="none" stroke="#111" stroke-width="1.6"/><rect x="8.44" y="21.36" width="0.81" height="0.16" fill="none" stroke="#111" stroke-width="1.6"/><rect x="8.44" y="22.98" width="0.81" height="0.16" fill="none" stroke="#111" stroke-width="1.6"/><rect x="8.44" y="24.61" width="0.81" height="0.16" fill="none" stroke="#111" stroke-width="1.6"/><rect x="8.44" y="26.23" width="0.81" height="0.16" fill="none" stroke="#111" stroke-width="1.6"/><rect x="8.44" y="27.86" width="0.81" height="0.16" fill="none" stroke="#111" stroke-width="1.6"/><rect x="8.44" y="29.48" width="0.81" height="0.16" fill="none" stroke="#111" stroke-width="1.6"/><rect x="8.44" y="31.11" width="0.81" height="0.16" fill="none" stroke="#111" stroke-width="1.6"/><rect x="8.44" y="32.73" width="0.81" height="0.16" fill="none" stroke="#111" stroke-width="1.6"/><rect x="8.44" y="34.36" width="0.81" height="0.16" fill="none" stroke="#111" stroke-width="1.6"/><rect x="8.44" y="35.98" width="0.81" height="0.16" fill="none" stroke="#111" stroke-width="1.6"/><rect x="8.44" y="37.61" width="0.81" height="0.16" fill="none" stroke="#111" stroke-width="1.6"/><rect x="8.44" y="39.23" width="0.81" height="0.16" fill="none" stroke="#111" stroke-width="1.6"/><rect x="8.44" y="40.86" width="0.81" height="0.16" fill="none" stroke="#111" stroke-width="1.6"/><rect x="8.44" y="42.48" width="0.81" height="0.16" fill="none" stroke="#111" stroke-width="1.6"/><rect x="8.44" y="44.11" width="0.81" height="0.16" fill="none" stroke="#111" stroke-width="1.6"/><rect x="8.44" y="45.73" width="0.81" height="0.16" fill="none" stroke="#111" stroke-width="1.6"/><rect x="8.44" y="47.36" width="0.81" height="0.16" fill="none" stroke="#111" stroke-width="1.6"/><rect x="8.44" y="48.98" width="0.81" height="0.16" fill="none" stroke="#111" stroke-width="1.6"/><rect x="8.44" y="50.61" width="0.81" height="0.16" fill="none" stroke="#111" stroke-width="1.6"/><rect x="8.44" y="52.23" width="0.81" height="0.16" fill="none" stroke="#111" stroke-width="1.6"/><rect x="8.44" y="53.86" width="0.81" height="0.16" fill="none" stroke="#111" stroke-width="1.6"/><rect x="8.44" y="55.48" width="0.81" height="0.16" fill="none" stroke="#111" stroke-width="1.6"/></svg>