<svg xmlns="http://www.w3.org/2000/svg" width="96" height="64" viewBox="0 0 96 64"><rect x="6" y="38.09" width="17.7" height="2.21" fill="none" stroke="#111" stroke-width="1.6"/><rect x="6" y="44.72" width="17.7" height="2.22" fill="none" stroke="#111" stroke-width="1.6"/><polyline points="14.85,11.53 14.85,22.6" fill="none" stroke="#111" stroke-width="1.6" stroke-linecap="round" stroke-linejoin="round"/><circle cx="14.85" cy="22.6" r="2.21" fill="none" stroke="#111" stroke-width="1.6"/><polyline points="14.85,22.6 24.81,22.6" fill="none" stroke="#111" stroke-width="1.6" stroke-linecap="round" stroke-linejoin="round"/><polyline points="14.85,38.09 14.85,22.6" fill="none" stroke="#111" stroke-width="1.6" stroke-linecap="round" stroke-linejoin="round"/><polyline points="25.91,33.66 25.91,11.53" fill="none" stroke="#111" stroke-width="1.6" stroke-linecap="round" stroke-linejoin="round"/><rect x="31.45" y="6" width="11.06" height="33.19" fill="none" stroke="#111" stroke-width="1.6"/><circle cx="36.98" cy="55.79" r="2.21" fill="none" stroke="#111" stroke-width="1.6"/><polyline points="48.04,22.6 59.11,22.6" fill="none" stroke="#111" stroke-width="1.6" stroke-linecap="round" stroke-linejoin="round"/><polyline points="48.04,33.66 48.04,11.53" fill="none" stroke="#111" stroke-width="1.6" stroke-linecap="round" stroke-linejoin="round"/><rect x="50.26" y="38.09" width="17.7" height="2.21" fill="none" stroke="#111" stroke-width="1.6"/><rect x="50.26" y="44.72" width="17.7" height="2.22" fill="none" stroke="#111" stroke-width="1.6"/><polyline points="58,46.94 58,55.79 15.96,55.79 15.96,45.83" fill="none" stroke="#111" stroke-width="1.6" stroke-linecap="round" stroke-linejoin="round"/><polyline points="59.11,11.53 59.11,22.6" fill="none" stroke="#111" stroke-width="1.6" stroke-linecap="round" stroke-linejoin="round"/><polyline points="59.11,22.6 59.11,38.09" fill="none" stroke="#111" stroke-width="1.6" stroke-linecap="round" stroke-linejoin="round"/><circle cx="59.11" cy="22.6" r="2.21" fill="none" stroke="#111" stroke-width="1.6"/></svg>