<svg xmlns="http://www.w3.org/2000/svg" width="96" height="64" viewBox="0 0 96 64"><polyline points="6,6.46 6.7,6.46" fill="none" stroke="#111" stroke-width="1.6" stroke-linecap="round" stroke-linejoin="round"/><polyline points="6,8.79 6.7,8.79" fill="none" stroke="#111" stroke-width="1.6" stroke-linecap="round" stroke-linejoin="round"/><polyline points="6,11.11 6.7,11.11" fill="none" stroke="#111" stroke-width="1.6" stroke-linecap="round" stroke-linejoin="round"/><polyline points="6,13.43 6.7,13.43" fill="none" stroke="#111" stroke-width="1.6" stroke-linecap="round" stroke-linejoin="round"/><polyline points="6,15.75 6.7,15.75" fill="none" stroke="#111" stroke-width="1.6" stroke-linecap="round" stroke-linejoin="round"/><polyline points="6,18.07 6.7,18.07" fill="none" stroke="#111" stroke-width="1.6" stroke-linecap="round" stroke-linejoin="round"/><polyline points="6,20.39 6.7,20.39" fill="none" stroke="#111" stroke-width="1.6" stroke-linecap="round" stroke-linejoin="round"/><polyline points="6,22.71 6.7,22.71" fill="none" stroke="#111" stroke-width="1.6" stroke-linecap="round" stroke-linejoin="round"/><polyline points="6,25.04 6.7,25.04" fill="none" stroke="#111" stroke-width="1.6" stroke-linecap="round" stroke-linejoin="round"/><polyline points="6,27.36 6.7,27.36" fill="none" stroke="#111" stroke-width="1.6" stroke-linecap="round" stroke-linejoin="round"/><polyline points="6,29.68 6.7,29.68" fill="none" stroke="#111" stroke-width="1.6" stroke-linecap="round" stroke-linejoin="round"/><polyline points="6,32 6.7,32" fill="none" stroke="#111" stroke-width="1.6" stroke-linecap="round" stroke-linejoin="round"/><polyline points="6,34.32 6.7,34.32" fill="none" stroke="#111" stroke-width="1.6" stroke-linecap="round" stroke-linejoin="round"/><polyline points="6,36.64 6.7,36.64" fill="none" stroke="#111" stroke-width="1.6" stroke-linecap="round" stroke-linejoin="round"/><polyline points="6,38.96 6.7,38.96" fill="none" stroke="#111" stroke-width="1.6" stroke-linecap="round" stroke-linejoin="round"/><polyline points="6,41.29 6.7,41.29" fill="none" stroke="#111" stroke-width="1.6" stroke-linecap="round" stroke-linejoin="round"/><polyline points="6,43.61 6.7,43.61" fill="none" stroke="#111" stroke-width="1.6" stroke-linecap="round" stroke-linejoin="round"/><polyline points="6,45.93 6.7,45.93" fill="none" stroke="#111" stroke-width="1.6" stroke-linecap="round" stroke-linejoin="round"/><polyline points="6,48.25 6.7,48.25" fill="none" stroke="#111" stroke-width="1.6" stroke-linecap="round" stroke-linejoin="round"/><polyline points="6,50.57 6.7,50.57" fill="none" stroke="#111" stroke-width="1.6" stroke-linecap="round" stroke-linejoin="round"/><polyline points="6,52.89 6.7,52.89" fill="none" stroke="#111" stroke-width="1.6" stroke-linecap="round" stroke-linejoin="round"/><polyline points="6,55.21 6.7,55.21" fill="none" stroke="#111" stroke-width="1.6" stroke-linecap="round" stroke-linejoin="round"/><polyline points="6,57.54 6.7,57.54" fill="none" stroke="#111" stroke-width="1.6" stroke-linecap="round" stroke-linejoin="round"/><path d="M 7.16 6.93 Q 6.7 6.46 7.16 6" fill="none" stroke="#111" stroke-width="1.6" stroke-linecap="round"/><path d="M 7.16 9.25 Q 6.7 8.79 7.16 8.32" fill="none" stroke="#111" stroke-width="1.6" stroke-linecap="round"/><path d="M 7.16 11.57 Q 6.7 11.11 7.16 10.64" fill="none" stroke="#111" stroke-width="1.6" stroke-linecap="round"/><path d="M 7.16 13.89 Q 6.7 13.43 7.16 12.96" fill="none" stroke="#111" stroke-width="1.6" stroke-linecap="round"/><path d="M 7.16 16.21 Q 6.7 15.75 7.16 15.29" fill="none" stroke="#111" stroke-width="1.6" stroke-linecap="round"/><path d="M 7.16 18.54 Q 6.7 18.07 7.16 17.61" fill="none" stroke="#111" stroke-width="1.6" stroke-linecap="round"/><path d="M 7.16 20.86 Q 6.7 20.39 7.16 19.93" fill="none" stroke="#111" stroke-width="1.6" stroke-linecap="round"/><path d="M 7.16 23.18 Q 6.7 22.71 7.16 22.25" fill="none" stroke="#111" stroke-width="1.6" stroke-linecap="round"/><path d="M 7.16 25.5 Q 6.7 25.04 7.16 24.57" fill="none" stroke="#111" stroke-width="1.6" stroke-linecap="round"/><path d="M 7.16 27.82 Q 6.7 27.36 7.16 26.89" fill="none" stroke="#111" stroke-width="1.6" stroke-linecap="round"/><path d="M 7.16 30.14 Q 6.7 29.68 7.16 29.21" fill="none" stroke="#111" stroke-width="1.6" stroke-linecap="round"/><path d="M 7.16 32.46 Q 6.7 32 7.16 31.54" fill="none" stroke="#111" stroke-width="1.6" stroke-linecap="round"/><path d="M 7.16 34.79 Q 6.7 34.32 7.16 33.86" fill="none" stroke="#111" stroke-width="1.6" stroke-linecap="round"/><path d="M 7.16 37.11 Q 6.7 36.64 7.16 36.18" fill="none" stroke="#111" stroke-width="1.6" stroke-linecap="round"/><path d="M 7.16 39.43 Q 6.7 38.96 7.16 38.5" fill="none" stroke="#111" stroke-width="1.6" stroke-linecap="round"/><path d="M 7.16 41.75 Q 6.7 41.29 7.16 40.82" fill="none" stroke="#111" stroke-width="1.6" stroke-linecap="round"/><path d="M 7.16 44.07 Q 6.7 43.61 7.16 43.14" fill="none" stroke="#111" stroke-width="1.6" stroke-linecap="round"/><path d="M 7.16 46.39 Q 6.7 45.93 7.16 45.46" fill="none" stroke="#111" stroke-width="1.6" stroke-linecap="round"/><path d="M 7.16 48.71 Q 6.7 48.25 7.16 47.79" fill="none" stroke="#111" stroke-width="1.6" stroke-linecap="round"/><path d="M 7.16 51.04 Q 6.7 50.57 7.16 50.11" fill="none" stroke="#111" stroke-width="1.6" stroke-linecap="round"/><path d="M 7.16 53.36 Q 6.7 52.89 7.16 52.43" fill="none" stroke="#111" stroke-width="1.6" stroke-linecap="round"/><path d="M 7.16 55.68 Q 6.7 55.21 7.16 54.75" fill="none" stroke="#111" stroke-width="1.6" stroke-linecap="round"/><path d="M 7.16 58 Q 6.7 57.54 7.16 57.07" fill="none" stroke="#111" stroke-width="1.6" stroke-linecap="round"/></svg>