<svg xmlns="http://www.w3.org/2000/svg" width="96" height="64" viewBox="0 0 96 64"><polyline points="8.89,30.56 11.78,30.56 11.78,30.56" fill="none" stroke="#111" stroke-width="1.6" stroke-linecap="round" stroke-linejoin="round"/><polyline points="8.89,33.44 11.78,33.44 11.78,33.44" fill="none" stroke="#111" stroke-width="1.6" stroke-linecap="round" stroke-linejoin="round"/><polyline points="8.89,36.33 11.78,36.33 11.78,36.33" fill="none" stroke="#111" stroke-width="1.6" stroke-linecap="round" stroke-linejoin="round"/><polyline points="8.89,39.22 11.78,39.22 11.78,39.22" fill="none" stroke="#111" stroke-width="1.6" stroke-linecap="round" stroke-linejoin="round"/><polyline points="8.89,42.11 11.78,42.11 11.78,42.11" fill="none" stroke="#111" stroke-width="1.6" stroke-linecap="round" stroke-linejoin="round"/><polyline points="8.89,45 8.89,19 32,19 32,24.78 34.89,24.78 34.89,27.67 37.78,27.67 37.78,36.33 34.89,36.33 34.89,39.22 32,39.22 32,45 8.89,45 8.89,45" fill="none" stroke="#111" stroke-width="1.6" stroke-linecap="round" stroke-linejoin="round"/><polyline points="11.78,21.89 8.89,21.89" fill="none" stroke="#111" stroke-width="1.6" stroke-linecap="round" stroke-linejoin="round"/><polyline points="11.78,24.78 8.89,24.78" fill="none" stroke="#111" stroke-width="1.6" stroke-linecap="round" stroke-linejoin="round"/><polyline points="11.78,27.67 8.89,27.67 8.89,27.67" fill="none" stroke="#111" stroke-width="1.6" stroke-linecap="round" stroke-linejoin="round"/><rect x="6" y="6" width="34.67" height="52" fill="none" stroke="#111" stroke-width="1.6"/></svg>