<svg xmlns="http://www.w3.org/2000/svg" width="96" height="64" viewBox="0 0 96 64"><rect x="6" y="6" width="26" height="52" fill="none" stroke="#111" stroke-width="1.6"/><polyline points="11.72,14.32 12.76,15.36 12.76,33.04 11.72,34.08 11.72,34.08" fill="none" stroke="#111" stroke-width="1.6" stroke-linecap="round" stroke-linejoin="round"/><polyline points="11.72,38.24 12.76,39.28 12.76,55.92 11.72,56.96 11.72,56.96" fill="none" stroke="#111" stroke-width="1.6" stroke-linecap="round" stroke-linejoin="round"/><polyline points="25.24,23.16 23.16,23.16 25.24,24.2 23.16,25.24 25.24,25.24 25.24,25.24" fill="none" stroke="#111" stroke-width="1.6" stroke-linecap="round" stroke-linejoin="round"/><polyline points="27.32,14.32 26.28,15.36 26.28,33.04 27.32,34.08 27.32,34.08" fill="none" stroke="#111" stroke-width="1.6" stroke-linecap="round" stroke-linejoin="round"/><polyline points="28.36,7.04 25.24,7.04 28.36,9.12 25.24,11.2 28.36,11.2 28.36,11.2" fill="none" stroke="#111" stroke-width="1.6" stroke-linecap="round" stroke-linejoin="round"/></svg>