<svg xmlns="http://www.w3.org/2000/svg" width="96" height="64" viewBox="0 0 96 64"><rect x="6" y="6" width="1.46" height="0.43" fill="none" stroke="#111" stroke-width="1.6"/><rect x="6" y="10.3" width="1.46" height="0.43" fill="none" stroke="#111" stroke-width="1.6"/><rect x="6" y="14.6" width="1.46" height="0.42" fill="none" stroke="#111" stroke-width="1.6"/><rect x="6" y="18.89" width="1.46" height="0.43" fill="none" stroke="#111" stroke-width="1.6"/><rect x="6" y="23.19" width="1.46" height="0.43" fill="none" stroke="#111" stroke-width="1.6"/><rect x="6" y="27.49" width="1.46" height="0.43" fill="none" stroke="#111" stroke-width="1.6"/><rect x="6" y="31.79" width="1.46" height="0.42" fill="none" stroke="#111" stroke-width="1.6"/><rect x="6" y="36.08" width="1.46" height="0.43" fill="none" stroke="#111" stroke-width="1.6"/><rect x="6" y="40.38" width="1.46" height="0.43" fill="none" stroke="#111" stroke-width="1.6"/><rect x="6" y="44.68" width="1.46" height="0.43" fill="none" stroke="#111" stroke-width="1.6"/><rect x="6" y="48.98" width="1.46" height="0.42" fill="none" stroke="#111" stroke-width="1.6"/><rect x="6" y="53.27" width="1.46" height="0.43" fill="none" stroke="#111" stroke-width="1.6"/><rect x="6" y="57.57" width="1.46" height="0.43" fill="none" stroke="#111" stroke-width="1.6"/><polyline points="8.15,6.21 7.46,6.21" fill="none" stroke="#111" stroke-width="1.6" stroke-linecap="round" stroke-linejoin="round"/><polyline points="8.15,10.51 7.46,10.51" fill="none" stroke="#111" stroke-width="1.6" stroke-linecap="round" stroke-linejoin="round"/><polyline points="8.15,14.81 7.46,14.81" fill="none" stroke="#111" stroke-width="1.6" stroke-linecap="round" stroke-linejoin="round"/><polyline points="8.15,19.11 7.46,19.11" fill="none" stroke="#111" stroke-width="1.6" stroke-linecap="round" stroke-linejoin="round"/><polyline points="8.15,23.4 7.46,23.4" fill="none" stroke="#111" stroke-width="1.6" stroke-linecap="round" stroke-linejoin="round"/><polyline points="8.15,27.7 7.46,27.7" fill="none" stroke="#111" stroke-width="1.6" stroke-linecap="round" stroke-linejoin="round"/><polyline points="8.15,32 7.46,32" fill="none" stroke="#111" stroke-width="1.6" stroke-linecap="round" stroke-linejoin="round"/><polyline points="8.15,36.3 7.46,36.3" fill="none" stroke="#111" stroke-width="1.6" stroke-linecap="round" stroke-linejoin="round"/><polyline points="8.15,40.6 7.46,40.6" fill="none" stroke="#111" stroke-width="1.6" stroke-linecap="round" stroke-linejoin="round"/><polyline points="8.15,44.89 7.46,44.89" fill="none" stroke="#111" stroke-width="1.6" stroke-linecap="round" stroke-linejoin="round"/><polyline points="8.15,49.19 7.46,49.19" fill="none" stroke="#111" stroke-width="1.6" stroke-linecap="round" stroke-linejoin="round"/><polyline points="8.15,53.49 7.46,53.49" fill="none" stroke="#111" stroke-width="1.6" stroke-linecap="round" stroke-linejoin="round"/><polyline points="8.15,57.79 7.46,57.79" fill="none" stroke="#111" stroke-width="1.6" stroke-linecap="round" stroke-linejoin="round"/></svg>