<svg xmlns="http://www.w3.org/2000/svg" width="96" height="64" viewBox="0 0 96 64"><polyline points="22.64,44.33 28.58,42.85" fill="none" stroke="#111" stroke-width="1.6" stroke-linecap="round" stroke-linejoin="round"/><polyline points="28.29,28.58 31.26,34.53" fill="none" stroke="#111" stroke-width="1.6" stroke-linecap="round" stroke-linejoin="round"/><polyline points="28.58,43.44 29.77,45.82 32.74,47.01 30.96,52.95 26.8,49.98 24.42,47.6 23.23,44.03 28.58,43.44" fill="none" stroke="#111" stroke-width="1.6" stroke-linecap="round" stroke-linejoin="round"/><polyline points="31.55,33.93 34.53,32.74 37.5,32.74 39.87,34.53 42.85,28.58 39.87,27.39 36.9,26.8 33.93,26.8 30.37,27.99 28.58,28.58 30.96,33.93" fill="none" stroke="#111" stroke-width="1.6" stroke-linecap="round" stroke-linejoin="round"/><polyline points="31.55,53.25 33.04,47.3" fill="none" stroke="#111" stroke-width="1.6" stroke-linecap="round" stroke-linejoin="round"/><path d="M 31.55 53.25 Q 25.86 50.02 22.64 44.33" fill="none" stroke="#111" stroke-width="1.6" stroke-linecap="round"/><path d="M 33.04 47.3 Q 30.29 45.6 28.58 42.85" fill="none" stroke="#111" stroke-width="1.6" stroke-linecap="round"/><circle cx="35.42" cy="39.87" r="4.16" fill="none" stroke="#111" stroke-width="1.6"/><path d="M 28.29 28.58 Q 35.71 26.2 43.14 28.58" fill="none" stroke="#111" stroke-width="1.6" stroke-linecap="round"/><path d="M 31.26 34.53 Q 35.71 32.68 40.17 34.53" fill="none" stroke="#111" stroke-width="1.6" stroke-linecap="round"/><path d="M 42.85 42.85 Q 41.14 45.6 38.39 47.3" fill="none" stroke="#111" stroke-width="1.6" stroke-linecap="round"/><path d="M 48.79 44.33 Q 45.57 50.02 39.87 53.25" fill="none" stroke="#111" stroke-width="1.6" stroke-linecap="round"/><polyline points="39.87,53.25 38.39,47.3" fill="none" stroke="#111" stroke-width="1.6" stroke-linecap="round" stroke-linejoin="round"/><polyline points="42.85,42.85 41.06,45.82 38.69,47.6 40.47,52.95 44.03,50.57 46.41,48.19 48.19,44.63 42.85,43.44" fill="none" stroke="#111" stroke-width="1.6" stroke-linecap="round" stroke-linejoin="round"/><polyline points="43.14,28.58 40.17,34.53" fill="none" stroke="#111" stroke-width="1.6" stroke-linecap="round" stroke-linejoin="round"/><polyline points="48.79,44.33 42.85,42.85" fill="none" stroke="#111" stroke-width="1.6" stroke-linecap="round" stroke-linejoin="round"/><polyline points="6,58 65.43,58 35.71,6 6,58" fill="none" stroke="#111" stroke-width="1.6" stroke-linecap="round" stroke-linejoin="round"/></svg>