<svg xmlns="http://www.w3.org/2000/svg" width="96" height="64" viewBox="0 0 96 64"><circle cx="9.64" cy="11.2" r="1.04" fill="none" stroke="#111" stroke-width="1.6"/><circle cx="9.64" cy="16.4" r="1.04" fill="none" stroke="#111" stroke-width="1.6"/><circle cx="9.64" cy="21.6" r="1.04" fill="none" stroke="#111" stroke-width="1.6"/><circle cx="9.64" cy="26.8" r="1.04" fill="none" stroke="#111" stroke-width="1.6"/><circle cx="9.64" cy="32" r="1.04" fill="none" stroke="#111" stroke-width="1.6"/><circle cx="9.64" cy="37.2" r="1.04" fill="none" stroke="#111" stroke-width="1.6"/><circle cx="9.64" cy="42.4" r="1.04" fill="none" stroke="#111" stroke-width="1.6"/><circle cx="9.64" cy="47.6" r="1.04" fill="none" stroke="#111" stroke-width="1.6"/><circle cx="9.64" cy="52.8" r="1.04" fill="none" stroke="#111" stroke-width="1.6"/><polyline points="10.68,10.94 18.64,8.81" fill="none" stroke="#111" stroke-width="1.6" stroke-linecap="round" stroke-linejoin="round"/><polyline points="10.68,16.14 18.64,14.01" fill="none" stroke="#111" stroke-width="1.6" stroke-linecap="round" stroke-linejoin="round"/><polyline points="10.68,21.34 18.64,19.21" fill="none" stroke="#111" stroke-width="1.6" stroke-linecap="round" stroke-linejoin="round"/><polyline points="10.68,26.54 18.64,24.41" fill="none" stroke="#111" stroke-width="1.6" stroke-linecap="round" stroke-linejoin="round"/><polyline points="10.68,31.74 18.64,29.61" fill="none" stroke="#111" stroke-width="1.6" stroke-linecap="round" stroke-linejoin="round"/><polyline points="10.68,36.89 18.64,34.76" fill="none" stroke="#111" stroke-width="1.6" stroke-linecap="round" stroke-linejoin="round"/><polyline points="10.68,42.09 18.64,39.96" fill="none" stroke="#111" stroke-width="1.6" stroke-linecap="round" stroke-linejoin="round"/><polyline points="10.68,47.29 18.64,45.16" fill="none" stroke="#111" stroke-width="1.6" stroke-linecap="round" stroke-linejoin="round"/><polyline points="10.68,52.49 18.64,50.36" fill="none" stroke="#111" stroke-width="1.6" stroke-linecap="round" stroke-linejoin="round"/><circle cx="17.96" cy="11.2" r="1.04" fill="none" stroke="#111" stroke-width="1.6"/><circle cx="17.96" cy="16.4" r="1.04" fill="none" stroke="#111" stroke-width="1.6"/><circle cx="17.96" cy="21.6" r="1.04" fill="none" stroke="#111" stroke-width="1.6"/><circle cx="17.96" cy="26.8" r="1.04" fill="none" stroke="#111" stroke-width="1.6"/><circle cx="17.96" cy="32" r="1.04" fill="none" stroke="#111" stroke-width="1.6"/><circle cx="17.96" cy="37.2" r="1.04" fill="none" stroke="#111" stroke-width="1.6"/><circle cx="17.96" cy="42.4" r="1.04" fill="none" stroke="#111" stroke-width="1.6"/><circle cx="17.96" cy="47.6" r="1.04" fill="none" stroke="#111" stroke-width="1.6"/><circle cx="17.96" cy="52.8" r="1.04" fill="none" stroke="#111" stroke-width="1.6"/><rect x="6" y="6" width="15.6" height="52" fill="none" stroke="#111" stroke-width="1.6"/></svg>