<svg xmlns="http://www.w3.org/2000/svg" width="96" height="64" viewBox="0 0 96 64"><polyline points="6,7.24 7.86,7.24" fill="none" stroke="#111" stroke-width="1.6" stroke-linecap="round" stroke-linejoin="round"/><polyline points="6,13.43 7.86,13.43" fill="none" stroke="#111" stroke-width="1.6" stroke-linecap="round" stroke-linejoin="round"/><polyline points="6,19.62 7.86,19.62" fill="none" stroke="#111" stroke-width="1.6" stroke-linecap="round" stroke-linejoin="round"/><polyline points="6,25.81 7.86,25.81" fill="none" stroke="#111" stroke-width="1.6" stroke-linecap="round" stroke-linejoin="round"/><polyline points="6,32 7.86,32" fill="none" stroke="#111" stroke-width="1.6" stroke-linecap="round" stroke-linejoin="round"/><polyline points="6,38.19 7.86,38.19" fill="none" stroke="#111" stroke-width="1.6" stroke-linecap="round" stroke-linejoin="round"/><polyline points="6,44.38 7.86,44.38" fill="none" stroke="#111" stroke-width="1.6" stroke-linecap="round" stroke-linejoin="round"/><polyline points="6,50.57 7.86,50.57" fill="none" stroke="#111" stroke-width="1.6" stroke-linecap="round" stroke-linejoin="round"/><polyline points="6,56.76 7.86,56.76" fill="none" stroke="#111" stroke-width="1.6" stroke-linecap="round" stroke-linejoin="round"/><path d="M 9.1 8.48 Q 7.86 7.24 9.1 6" fill="none" stroke="#111" stroke-width="1.6" stroke-linecap="round"/><path d="M 9.1 14.67 Q 7.86 13.43 9.1 12.19" fill="none" stroke="#111" stroke-width="1.6" stroke-linecap="round"/><path d="M 9.1 20.86 Q 7.86 19.62 9.1 18.38" fill="none" stroke="#111" stroke-width="1.6" stroke-linecap="round"/><path d="M 9.1 27.05 Q 7.86 25.81 9.1 24.57" fill="none" stroke="#111" stroke-width="1.6" stroke-linecap="round"/><path d="M 9.1 33.24 Q 7.86 32 9.1 30.76" fill="none" stroke="#111" stroke-width="1.6" stroke-linecap="round"/><path d="M 9.1 39.43 Q 7.86 38.19 9.1 36.95" fill="none" stroke="#111" stroke-width="1.6" stroke-linecap="round"/><path d="M 9.1 45.62 Q 7.86 44.38 9.1 43.14" fill="none" stroke="#111" stroke-width="1.6" stroke-linecap="round"/><path d="M 9.1 51.81 Q 7.86 50.57 9.1 49.33" fill="none" stroke="#111" stroke-width="1.6" stroke-linecap="round"/><path d="M 9.1 58 Q 7.86 56.76 9.1 55.52" fill="none" stroke="#111" stroke-width="1.6" stroke-linecap="round"/></svg>