<svg xmlns="http://www.w3.org/2000/svg" width="96" height="64" viewBox="0 0 96 64"><path d="M 10 8 Q 12.99 11 10 14" fill="none" stroke="#111" stroke-width="1.6" stroke-linecap="round"/><path d="M 10 14 Q 12.99 17 10 20" fill="none" stroke="#111" stroke-width="1.6" stroke-linecap="round"/><path d="M 10 20 Q 12.99 23 10 26" fill="none" stroke="#111" stroke-width="1.6" stroke-linecap="round"/><path d="M 10 38 Q 12.99 41 10 44" fill="none" stroke="#111" stroke-width="1.6" stroke-linecap="round"/><path d="M 10 44 Q 12.99 47 10 50" fill="none" stroke="#111" stroke-width="1.6" stroke-linecap="round"/><path d="M 10 50 Q 12.99 53 10 56" fill="none" stroke="#111" stroke-width="1.6" stroke-linecap="round"/><polyline points="10,8 10,7 6,7" fill="none" stroke="#111" stroke-width="1.6" stroke-linecap="round" stroke-linejoin="round"/><polyline points="10,26 10,27 6,27" fill="none" stroke="#111" stroke-width="1.6" stroke-linecap="round" stroke-linejoin="round"/><polyline points="10,38 10,37 6,37" fill="none" stroke="#111" stroke-width="1.6" stroke-linecap="round" stroke-linejoin="round"/><polyline points="10,56 10,57 6,57" fill="none" stroke="#111" stroke-width="1.6" stroke-linecap="round" stroke-linejoin="round"/><rect x="15" y="6" width="2" height="52" fill="none" stroke="#111" stroke-width="1.6"/><polyline points="22,7 22,8" fill="none" stroke="#111" stroke-width="1.6" stroke-linecap="round" stroke-linejoin="round"/><polyline points="22,7 26,7" fill="none" stroke="#111" stroke-width="1.6" stroke-linecap="round" stroke-linejoin="round"/><polyline points="22,27 22,26" fill="none" stroke="#111" stroke-width="1.6" stroke-linecap="round" stroke-linejoin="round"/><polyline points="22,27 26,27" fill="none" stroke="#111" stroke-width="1.6" stroke-linecap="round" stroke-linejoin="round"/><polyline points="22,37 22,38" fill="none" stroke="#111" stroke-width="1.6" stroke-linecap="round" stroke-linejoin="round"/><polyline points="22,37 26,37" fill="none" stroke="#111" stroke-width="1.6" stroke-linecap="round" stroke-linejoin="round"/><polyline points="22,56 22,57" fill="none" stroke="#111" stroke-width="1.6" stroke-linecap="round" stroke-linejoin="round"/><path d="M 22 14 Q 19.01 11 22 8" fill="none" stroke="#111" stroke-width="1.6" stroke-linecap="round"/><path d="M 22 20 Q 19.01 17 22 14" fill="none" stroke="#111" stroke-width="1.6" stroke-linecap="round"/><path d="M 22 26 Q 19.01 23 22 20" fill="none" stroke="#111" stroke-width="1.6" stroke-linecap="round"/><path d="M 22 44 Q 19.01 41 22 38" fill="none" stroke="#111" stroke-width="1.6" stroke-linecap="round"/><path d="M 22 50 Q 19.01 47 22 44" fill="none" stroke="#111" stroke-width="1.6" stroke-linecap="round"/><path d="M 22 56 Q 19.01 53 22 50" fill="none" stroke="#111" stroke-width="1.6" stroke-linecap="round"/><polyline points="26,57 22,57" fill="none" stroke="#111" stroke-width="1.6" stroke-linecap="round" stroke-linejoin="round"/></svg>