<svg xmlns="http://www.w3.org/2000/svg" width="96" height="64" viewBox="0 0 96 64"><rect x="6" y="6" width="8.46" height="50.73" fill="none" stroke="#111" stroke-width="1.6"/><rect x="6" y="7.9" width="2.11" height="0.43" fill="none" stroke="#111" stroke-width="1.6"/><rect x="6" y="12.13" width="2.11" height="0.42" fill="none" stroke="#111" stroke-width="1.6"/><rect x="6" y="16.36" width="2.11" height="0.42" fill="none" stroke="#111" stroke-width="1.6"/><rect x="6" y="20.59" width="2.11" height="0.42" fill="none" stroke="#111" stroke-width="1.6"/><rect x="6" y="24.81" width="2.11" height="0.43" fill="none" stroke="#111" stroke-width="1.6"/><rect x="6" y="29.04" width="2.11" height="0.42" fill="none" stroke="#111" stroke-width="1.6"/><rect x="6" y="33.27" width="2.11" height="0.42" fill="none" stroke="#111" stroke-width="1.6"/><rect x="6" y="37.5" width="2.11" height="0.42" fill="none" stroke="#111" stroke-width="1.6"/><rect x="6" y="41.72" width="2.11" height="0.43" fill="none" stroke="#111" stroke-width="1.6"/><rect x="6" y="45.95" width="2.11" height="0.42" fill="none" stroke="#111" stroke-width="1.6"/><rect x="6" y="50.18" width="2.11" height="0.42" fill="none" stroke="#111" stroke-width="1.6"/><rect x="6" y="54.41" width="2.11" height="0.42" fill="none" stroke="#111" stroke-width="1.6"/><polyline points="8.54,58 11.92,58" fill="none" stroke="#111" stroke-width="1.6" stroke-linecap="round" stroke-linejoin="round"/><rect x="12.34" y="7.9" width="2.12" height="0.43" fill="none" stroke="#111" stroke-width="1.6"/><rect x="12.34" y="12.13" width="2.12" height="0.42" fill="none" stroke="#111" stroke-width="1.6"/><rect x="12.34" y="16.36" width="2.12" height="0.42" fill="none" stroke="#111" stroke-width="1.6"/><rect x="12.34" y="20.59" width="2.12" height="0.42" fill="none" stroke="#111" stroke-width="1.6"/><rect x="12.34" y="24.81" width="2.12" height="0.43" fill="none" stroke="#111" stroke-width="1.6"/><rect x="12.34" y="29.04" width="2.12" height="0.42" fill="none" stroke="#111" stroke-width="1.6"/><rect x="12.34" y="33.27" width="2.12" height="0.42" fill="none" stroke="#111" stroke-width="1.6"/><rect x="12.34" y="37.5" width="2.12" height="0.42" fill="none" stroke="#111" stroke-width="1.6"/><rect x="12.34" y="41.72" width="2.12" height="0.43" fill="none" stroke="#111" stroke-width="1.6"/><rect x="12.34" y="45.95" width="2.12" height="0.42" fill="none" stroke="#111" stroke-width="1.6"/><rect x="12.34" y="50.18" width="2.12" height="0.42" fill="none" stroke="#111" stroke-width="1.6"/></svg>