<svg xmlns="http://www.w3.org/2000/svg" width="96" height="64" viewBox="0 0 96 64"><rect x="6" y="6" width="84" height="24" fill="none" stroke="#111" stroke-width="1.6"/><rect x="7.8" y="10.02" width="2.4" height="6" fill="none" stroke="#111" stroke-width="1.6"/><polyline points="9,6 9,10.02" fill="none" stroke="#111" stroke-width="1.6" stroke-linecap="round" stroke-linejoin="round"/><circle cx="9" cy="8.04" r="0.6" fill="none" stroke="#111" stroke-width="1.6"/><polyline points="9,8.04 21,8.04 21,10.02" fill="none" stroke="#111" stroke-width="1.6" stroke-linecap="round" stroke-linejoin="round"/><circle cx="9" cy="18" r="0.6" fill="none" stroke="#111" stroke-width="1.6"/><polyline points="9,18 12.6,18 12.6,19.98" fill="none" stroke="#111" stroke-width="1.6" stroke-linecap="round" stroke-linejoin="round"/><polyline points="9,30 9,16.02" fill="none" stroke="#111" stroke-width="1.6" stroke-linecap="round" stroke-linejoin="round"/><rect x="11.4" y="19.98" width="2.4" height="6" fill="none" stroke="#111" stroke-width="1.6"/><polyline points="12.6,25.98 12.6,27.96 87,27.96" fill="none" stroke="#111" stroke-width="1.6" stroke-linecap="round" stroke-linejoin="round"/><rect x="19.8" y="10.02" width="2.4" height="6" fill="none" stroke="#111" stroke-width="1.6"/><circle cx="21" cy="8.04" r="0.6" fill="none" stroke="#111" stroke-width="1.6"/><polyline points="21,8.04 33,8.04 33,10.02" fill="none" stroke="#111" stroke-width="1.6" stroke-linecap="round" stroke-linejoin="round"/><circle cx="21" cy="18" r="0.6" fill="none" stroke="#111" stroke-width="1.6"/><polyline points="21,18 24.6,18 24.6,19.98" fill="none" stroke="#111" stroke-width="1.6" stroke-linecap="round" stroke-linejoin="round"/><polyline points="21,30 21,16.02" fill="none" stroke="#111" stroke-width="1.6" stroke-linecap="round" stroke-linejoin="round"/><rect x="23.4" y="19.98" width="2.4" height="6" fill="none" stroke="#111" stroke-width="1.6"/><polyline points="24.6,25.98 24.6,27.96 87,27.96" fill="none" stroke="#111" stroke-width="1.6" stroke-linecap="round" stroke-linejoin="round"/><circle cx="24.6" cy="27.96" r="0.6" fill="none" stroke="#111" stroke-width="1.6"/><rect x="31.8" y="10.02" width="2.4" height="6" fill="none" stroke="#111" stroke-width="1.6"/><circle cx="33" cy="8.04" r="0.6" fill="none" stroke="#111" stroke-width="1.6"/><polyline points="33,8.04 45,8.04 45,10.02" fill="none" stroke="#111" stroke-width="1.6" stroke-linecap="round" stroke-linejoin="round"/><circle cx="33" cy="18" r="0.6" fill="none" stroke="#111" stroke-width="1.6"/><polyline points="33,18 36.6,18 36.6,19.98" fill="none" stroke="#111" stroke-width="1.6" stroke-linecap="round" stroke-linejoin="round"/><polyline points="33,30 33,16.02" fill="none" stroke="#111" stroke-width="1.6" stroke-linecap="round" stroke-linejoin="round"/><rect x="35.4" y="19.98" width="2.4" height="6" fill="none" stroke="#111" stroke-width="1.6"/><polyline points="36.6,25.98 36.6,27.96 87,27.96" fill="none" stroke="#111" stroke-width="1.6" stroke-linecap="round" stroke-linejoin="round"/><circle cx="36.6" cy="27.96" r="0.6" fill="none" stroke="#111" stroke-width="1.6"/><rect x="43.8" y="10.02" width="2.4" height="6" fill="none" stroke="#111" stroke-width="1.6"/><circle cx="45" cy="8.04" r="0.6" fill="none" stroke="#111" stroke-width="1.6"/><polyline points="45,8.04 57,8.04 57,10.02" fill="none" stroke="#111" stroke-width="1.6" stroke-linecap="round" stroke-linejoin="round"/><polyline points="45,18 48.6,18 48.6,19.98" fill="none" stroke="#111" stroke-width="1.6" stroke-linecap="round" stroke-linejoin="round"/><circle cx="45" cy="18" r="0.6" fill="none" stroke="#111" stroke-width="1.6"/><polyline points="45,30 45,16.02" fill="none" stroke="#111" stroke-width="1.6" stroke-linecap="round" stroke-linejoin="round"/><rect x="47.4" y="19.98" width="2.4" height="6" fill="none" stroke="#111" stroke-width="1.6"/><polyline points="48.6,25.98 48.6,27.96 87,27.96" fill="none" stroke="#111" stroke-width="1.6" stroke-linecap="round" stroke-linejoin="round"/><circle cx="48.6" cy="27.96" r="0.6" fill="none" stroke="#111" stroke-width="1.6"/><rect x="55.8" y="10.02" width="2.4" height="6" fill="none" stroke="#111" stroke-width="1.6"/><polyline points="57,8.04 69,8.04 69,10.02" fill="none" stroke="#111" stroke-width="1.6" stroke-linecap="round" stroke-linejoin="round"/><circle cx="57" cy="8.04" r="0.6" fill="none" stroke="#111" stroke-width="1.6"/><polyline points="57,18 60.6,18 60.6,19.98" fill="none" stroke="#111" stroke-width="1.6" stroke-linecap="round" stroke-linejoin="round"/><circle cx="57" cy="18" r="0.6" fill="none" stroke="#111" stroke-width="1.6"/><polyline points="57,30 57,16.02" fill="none" stroke="#111" stroke-width="1.6" stroke-linecap="round" stroke-linejoin="round"/><rect x="59.4" y="19.98" width="2.4" height="6" fill="none" stroke="#111" stroke-width="1.6"/><polyline points="60.6,25.98 60.6,27.96 87,27.96" fill="none" stroke="#111" stroke-width="1.6" stroke-linecap="round" stroke-linejoin="round"/><circle cx="60.6" cy="27.96" r="0.6" fill="none" stroke="#111" stroke-width="1.6"/><rect x="67.8" y="10.02" width="2.4" height="6" fill="none" stroke="#111" stroke-width="1.6"/><polyline points="69,8.04 81,8.04 81,10.02" fill="none" stroke="#111" stroke-width="1.6" stroke-linecap="round" stroke-linejoin="round"/><circle cx="69" cy="8.04" r="0.6" fill="none" stroke="#111" stroke-width="1.6"/><polyline points="69,18 72.6,18 72.6,19.98" fill="none" stroke="#111" stroke-width="1.6" stroke-linecap="round" stroke-linejoin="round"/><circle cx="69" cy="18" r="0.6" fill="none" stroke="#111" stroke-width="1.6"/><polyline points="69,30 69,16.02" fill="none" stroke="#111" stroke-width="1.6" stroke-linecap="round" stroke-linejoin="round"/><rect x="71.4" y="19.98" width="2.4" height="6" fill="none" stroke="#111" stroke-width="1.6"/><polyline points="72.6,25.98 72.6,27.96 87,27.96" fill="none" stroke="#111" stroke-width="1.6" stroke-linecap="round" stroke-linejoin="round"/><circle cx="72.6" cy="27.96" r="0.6" fill="none" stroke="#111" stroke-width="1.6"/><rect x="79.8" y="10.02" width="2.4" height="6" fill="none" stroke="#111" stroke-width="1.6"/><polyline points="81,18 84.6,18 84.6,19.98" fill="none" stroke="#111" stroke-width="1.6" stroke-linecap="round" stroke-linejoin="round"/><circle cx="81" cy="18" r="0.6" fill="none" stroke="#111" stroke-width="1.6"/><polyline points="81,30 81,16.02" fill="none" stroke="#111" stroke-width="1.6" stroke-linecap="round" stroke-linejoin="round"/><rect x="83.4" y="19.98" width="2.4" height="6" fill="none" stroke="#111" stroke-width="1.6"/><polyline points="84.6,25.98 84.6,27.96 87,27.96" fill="none" stroke="#111" stroke-width="1.6" stroke-linecap="round" stroke-linejoin="round"/><circle cx="84.6" cy="27.96" r="0.6" fill="none" stroke="#111" stroke-width="1.6"/><polyline points="87,27.96 87,6" fill="none" stroke="#111" stroke-width="1.6" stroke-linecap="round" stroke-linejoin="round"/></svg>