<svg xmlns="http://www.w3.org/2000/svg" width="96" height="64" viewBox="0 0 96 64"><polyline points="17.7,6 17.7,7.3" fill="none" stroke="#111" stroke-width="1.6" stroke-linecap="round" stroke-linejoin="round"/><path d="M 7.3 11.2 Q 17.7 8.6 28.1 11.2" fill="none" stroke="#111" stroke-width="1.6" stroke-linecap="round"/><polyline points="17.7,58 17.7,56.7" fill="none" stroke="#111" stroke-width="1.6" stroke-linecap="round" stroke-linejoin="round"/><path d="M 26.8 12.5 Q 28.09 13.8 26.8 15.1" fill="none" stroke="#111" stroke-width="1.6" stroke-linecap="round"/><path d="M 26.8 17.7 Q 28.09 19 26.8 20.3" fill="none" stroke="#111" stroke-width="1.6" stroke-linecap="round"/><path d="M 26.8 22.9 Q 28.09 24.2 26.8 25.5" fill="none" stroke="#111" stroke-width="1.6" stroke-linecap="round"/><path d="M 26.8 28.1 Q 28.09 29.4 26.8 30.7" fill="none" stroke="#111" stroke-width="1.6" stroke-linecap="round"/><path d="M 26.8 33.3 Q 28.09 34.6 26.8 35.9" fill="none" stroke="#111" stroke-width="1.6" stroke-linecap="round"/><path d="M 26.8 38.5 Q 28.09 39.8 26.8 41.1" fill="none" stroke="#111" stroke-width="1.6" stroke-linecap="round"/><path d="M 26.8 43.7 Q 28.09 45 26.8 46.3" fill="none" stroke="#111" stroke-width="1.6" stroke-linecap="round"/><path d="M 26.8 48.9 Q 28.09 50.2 26.8 51.5" fill="none" stroke="#111" stroke-width="1.6" stroke-linecap="round"/><polyline points="28.1,55.4 7.3,55.4" fill="none" stroke="#111" stroke-width="1.6" stroke-linecap="round" stroke-linejoin="round"/><polyline points="29.4,24.2 28.1,24.2" fill="none" stroke="#111" stroke-width="1.6" stroke-linecap="round" stroke-linejoin="round"/><polyline points="29.4,29.4 28.1,29.4" fill="none" stroke="#111" stroke-width="1.6" stroke-linecap="round" stroke-linejoin="round"/><polyline points="29.4,34.6 28.1,34.6" fill="none" stroke="#111" stroke-width="1.6" stroke-linecap="round" stroke-linejoin="round"/><polyline points="29.4,39.8 28.1,39.8" fill="none" stroke="#111" stroke-width="1.6" stroke-linecap="round" stroke-linejoin="round"/><polyline points="29.4,45 28.1,45" fill="none" stroke="#111" stroke-width="1.6" stroke-linecap="round" stroke-linejoin="round"/><polyline points="29.4,50.2 28.1,50.2" fill="none" stroke="#111" stroke-width="1.6" stroke-linecap="round" stroke-linejoin="round"/><rect x="6" y="6" width="23.4" height="52" fill="none" stroke="#111" stroke-width="1.6"/><polyline points="30.7,13.8 29.4,13.8" fill="none" stroke="#111" stroke-width="1.6" stroke-linecap="round" stroke-linejoin="round"/><polyline points="30.7,19 29.4,19" fill="none" stroke="#111" stroke-width="1.6" stroke-linecap="round" stroke-linejoin="round"/></svg>