<svg xmlns="http://www.w3.org/2000/svg" width="96" height="64" viewBox="0 0 96 64"><rect x="6" y="6" width="1.82" height="51.73" fill="none" stroke="#111" stroke-width="1.6"/><rect x="6" y="6.41" width="0.45" height="0.09" fill="none" stroke="#111" stroke-width="1.6"/><rect x="6" y="7.32" width="0.45" height="0.09" fill="none" stroke="#111" stroke-width="1.6"/><rect x="6" y="8.22" width="0.45" height="0.09" fill="none" stroke="#111" stroke-width="1.6"/><rect x="6" y="9.13" width="0.45" height="0.09" fill="none" stroke="#111" stroke-width="1.6"/><rect x="6" y="10.04" width="0.45" height="0.09" fill="none" stroke="#111" stroke-width="1.6"/><rect x="6" y="10.95" width="0.45" height="0.09" fill="none" stroke="#111" stroke-width="1.6"/><rect x="6" y="11.85" width="0.45" height="0.09" fill="none" stroke="#111" stroke-width="1.6"/><rect x="6" y="12.76" width="0.45" height="0.09" fill="none" stroke="#111" stroke-width="1.6"/><rect x="6" y="13.67" width="0.45" height="0.09" fill="none" stroke="#111" stroke-width="1.6"/><rect x="6" y="14.58" width="0.45" height="0.09" fill="none" stroke="#111" stroke-width="1.6"/><rect x="6" y="15.48" width="0.45" height="0.09" fill="none" stroke="#111" stroke-width="1.6"/><rect x="6" y="16.39" width="0.45" height="0.09" fill="none" stroke="#111" stroke-width="1.6"/><rect x="6" y="17.3" width="0.45" height="0.09" fill="none" stroke="#111" stroke-width="1.6"/><rect x="6" y="18.21" width="0.45" height="0.09" fill="none" stroke="#111" stroke-width="1.6"/><rect x="6" y="19.11" width="0.45" height="0.09" fill="none" stroke="#111" stroke-width="1.6"/><rect x="6" y="20.02" width="0.45" height="0.09" fill="none" stroke="#111" stroke-width="1.6"/><rect x="6" y="20.93" width="0.45" height="0.09" fill="none" stroke="#111" stroke-width="1.6"/><rect x="6" y="21.84" width="0.45" height="0.09" fill="none" stroke="#111" stroke-width="1.6"/><rect x="6" y="22.74" width="0.45" height="0.09" fill="none" stroke="#111" stroke-width="1.6"/><rect x="6" y="23.65" width="0.45" height="0.09" fill="none" stroke="#111" stroke-width="1.6"/><rect x="6" y="24.56" width="0.45" height="0.09" fill="none" stroke="#111" stroke-width="1.6"/><rect x="6" y="25.47" width="0.45" height="0.09" fill="none" stroke="#111" stroke-width="1.6"/><rect x="6" y="26.37" width="0.45" height="0.09" fill="none" stroke="#111" stroke-width="1.6"/><rect x="6" y="27.28" width="0.45" height="0.09" fill="none" stroke="#111" stroke-width="1.6"/><rect x="6" y="28.19" width="0.45" height="0.09" fill="none" stroke="#111" stroke-width="1.6"/><rect x="6" y="29.1" width="0.45" height="0.09" fill="none" stroke="#111" stroke-width="1.6"/><rect x="6" y="30" width="0.45" height="0.09" fill="none" stroke="#111" stroke-width="1.6"/><rect x="6" y="30.91" width="0.45" height="0.09" fill="none" stroke="#111" stroke-width="1.6"/><rect x="6" y="31.82" width="0.45" height="0.09" fill="none" stroke="#111" stroke-width="1.6"/><rect x="6" y="32.73" width="0.45" height="0.09" fill="none" stroke="#111" stroke-width="1.6"/><rect x="6" y="33.63" width="0.45" height="0.09" fill="none" stroke="#111" stroke-width="1.6"/><rect x="6" y="34.54" width="0.45" height="0.09" fill="none" stroke="#111" stroke-width="1.6"/><rect x="6" y="35.45" width="0.45" height="0.09" fill="none" stroke="#111" stroke-width="1.6"/><rect x="6" y="36.36" width="0.45" height="0.09" fill="none" stroke="#111" stroke-width="1.6"/><rect x="6" y="37.26" width="0.45" height="0.09" fill="none" stroke="#111" stroke-width="1.6"/><rect x="6" y="38.17" width="0.45" height="0.09" fill="none" stroke="#111" stroke-width="1.6"/><rect x="6" y="39.08" width="0.45" height="0.09" fill="none" stroke="#111" stroke-width="1.6"/><rect x="6" y="39.99" width="0.45" height="0.09" fill="none" stroke="#111" stroke-width="1.6"/><rect x="6" y="40.89" width="0.45" height="0.09" fill="none" stroke="#111" stroke-width="1.6"/><rect x="6" y="41.8" width="0.45" height="0.09" fill="none" stroke="#111" stroke-width="1.6"/><rect x="6" y="42.71" width="0.45" height="0.09" fill="none" stroke="#111" stroke-width="1.6"/><rect x="6" y="43.62" width="0.45" height="0.09" fill="none" stroke="#111" stroke-width="1.6"/><rect x="6" y="44.52" width="0.45" height="0.09" fill="none" stroke="#111" stroke-width="1.6"/><rect x="6" y="45.43" width="0.45" height="0.09" fill="none" stroke="#111" stroke-width="1.6"/><rect x="6" y="46.34" width="0.45" height="0.09" fill="none" stroke="#111" stroke-width="1.6"/><rect x="6" y="47.25" width="0.45" height="0.09" fill="none" stroke="#111" stroke-width="1.6"/><rect x="6" y="48.15" width="0.45" height="0.09" fill="none" stroke="#111" stroke-width="1.6"/><rect x="6" y="49.06" width="0.45" height="0.09" fill="none" stroke="#111" stroke-width="1.6"/><rect x="6" y="49.97" width="0.45" height="0.09" fill="none" stroke="#111" stroke-width="1.6"/><rect x="6" y="50.88" width="0.45" height="0.09" fill="none" stroke="#111" stroke-width="1.6"/><rect x="6" y="51.78" width="0.45" height="0.09" fill="none" stroke="#111" stroke-width="1.6"/><rect x="6" y="52.69" width="0.45" height="0.09" fill="none" stroke="#111" stroke-width="1.6"/><rect x="6" y="53.6" width="0.45" height="0.09" fill="none" stroke="#111" stroke-width="1.6"/><rect x="6" y="54.51" width="0.45" height="0.09" fill="none" stroke="#111" stroke-width="1.6"/><rect x="6" y="55.41" width="0.45" height="0.09" fill="none" stroke="#111" stroke-width="1.6"/><rect x="6" y="56.32" width="0.45" height="0.09" fill="none" stroke="#111" stroke-width="1.6"/><rect x="6" y="57.23" width="0.45" height="0.09" fill="none" stroke="#111" stroke-width="1.6"/><polyline points="6.54,58 7.27,58" fill="none" stroke="#111" stroke-width="1.6" stroke-linecap="round" stroke-linejoin="round"/><rect x="7.36" y="6.41" width="0.46" height="0.09" fill="none" stroke="#111" stroke-width="1.6"/><rect x="7.36" y="7.32" width="0.46" height="0.09" fill="none" stroke="#111" stroke-width="1.6"/><rect x="7.36" y="8.22" width="0.46" height="0.09" fill="none" stroke="#111" stroke-width="1.6"/><rect x="7.36" y="9.13" width="0.46" height="0.09" fill="none" stroke="#111" stroke-width="1.6"/><rect x="7.36" y="10.04" width="0.46" height="0.09" fill="none" stroke="#111" stroke-width="1.6"/><rect x="7.36" y="10.95" width="0.46" height="0.09" fill="none" stroke="#111" stroke-width="1.6"/><rect x="7.36" y="11.85" width="0.46" height="0.09" fill="none" stroke="#111" stroke-width="1.6"/><rect x="7.36" y="12.76" width="0.46" height="0.09" fill="none" stroke="#111" stroke-width="1.6"/><rect x="7.36" y="13.67" width="0.46" height="0.09" fill="none" stroke="#111" stroke-width="1.6"/><rect x="7.36" y="14.58" width="0.46" height="0.09" fill="none" stroke="#111" stroke-width="1.6"/><rect x="7.36" y="15.48" width="0.46" height="0.09" fill="none" stroke="#111" stroke-width="1.6"/><rect x="7.36" y="16.39" width="0.46" height="0.09" fill="none" stroke="#111" stroke-width="1.6"/><rect x="7.36" y="17.3" width="0.46" height="0.09" fill="none" stroke="#111" stroke-width="1.6"/><rect x="7.36" y="18.21" width="0.46" height="0.09" fill="none" stroke="#111" stroke-width="1.6"/><rect x="7.36" y="19.11" width="0.46" height="0.09" fill="none" stroke="#111" stroke-width="1.6"/><rect x="7.36" y="20.02" width="0.46" height="0.09" fill="none" stroke="#111" stroke-width="1.6"/><rect x="7.36" y="20.93" width="0.46" height="0.09" fill="none" stroke="#111" stroke-width="1.6"/><rect x="7.36" y="21.84" width="0.46" height="0.09" fill="none" stroke="#111" stroke-width="1.6"/><rect x="7.36" y="22.74" width="0.46" height="0.09" fill="none" stroke="#111" stroke-width="1.6"/><rect x="7.36" y="23.65" width="0.46" height="0.09" fill="none" stroke="#111" stroke-width="1.6"/><rect x="7.36" y="24.56" width="0.46" height="0.09" fill="none" stroke="#111" stroke-width="1.6"/><rect x="7.36" y="25.47" width="0.46" height="0.09" fill="none" stroke="#111" stroke-width="1.6"/><rect x="7.36" y="26.37" width="0.46" height="0.09" fill="none" stroke="#111" stroke-width="1.6"/><rect x="7.36" y="27.28" width="0.46" height="0.09" fill="none" stroke="#111" stroke-width="1.6"/><rect x="7.36" y="28.19" width="0.46" height="0.09" fill="none" stroke="#111" stroke-width="1.6"/><rect x="7.36" y="29.1" width="0.46" height="0.09" fill="none" stroke="#111" stroke-width="1.6"/><rect x="7.36" y="30" width="0.46" height="0.09" fill="none" stroke="#111" stroke-width="1.6"/><rect x="7.36" y="30.91" width="0.46" height="0.09" fill="none" stroke="#111" stroke-width="1.6"/><rect x="7.36" y="31.82" width="0.46" height="0.09" fill="none" stroke="#111" stroke-width="1.6"/><rect x="7.36" y="32.73" width="0.46" height="0.09" fill="none" stroke="#111" stroke-width="1.6"/><rect x="7.36" y="33.63" width="0.46" height="0.09" fill="none" stroke="#111" stroke-width="1.6"/><rect x="7.36" y="34.54" width="0.46" height="0.09" fill="none" stroke="#111" stroke-width="1.6"/><rect x="7.36" y="35.45" width="0.46" height="0.09" fill="none" stroke="#111" stroke-width="1.6"/><rect x="7.36" y="36.36" width="0.46" height="0.09" fill="none" stroke="#111" stroke-width="1.6"/><rect x="7.36" y="37.26" width="0.46" height="0.09" fill="none" stroke="#111" stroke-width="1.6"/><rect x="7.36" y="38.17" width="0.46" height="0.09" fill="none" stroke="#111" stroke-width="1.6"/><rect x="7.36" y="39.08" width="0.46" height="0.09" fill="none" stroke="#111" stroke-width="1.6"/><rect x="7.36" y="39.99" width="0.46" height="0.09" fill="none" stroke="#111" stroke-width="1.6"/><rect x="7.36" y="40.89" width="0.46" height="0.09" fill="none" stroke="#111" stroke-width="1.6"/><rect x="7.36" y="41.8" width="0.46" height="0.09" fill="none" stroke="#111" stroke-width="1.6"/><rect x="7.36" y="42.71" width="0.46" height="0.09" fill="none" stroke="#111" stroke-width="1.6"/><rect x="7.36" y="43.62" width="0.46" height="0.09" fill="none" stroke="#111" stroke-width="1.6"/><rect x="7.36" y="44.52" width="0.46" height="0.09" fill="none" stroke="#111" stroke-width="1.6"/><rect x="7.36" y="45.43" width="0.46" height="0.09" fill="none" stroke="#111" stroke-width="1.6"/><rect x="7.36" y="46.34" width="0.46" height="0.09" fill="none" stroke="#111" stroke-width="1.6"/><rect x="7.36" y="47.25" width="0.46" height="0.09" fill="none" stroke="#111" stroke-width="1.6"/><rect x="7.36" y="48.15" width="0.46" height="0.09" fill="none" stroke="#111" stroke-width="1.6"/><rect x="7.36" y="49.06" width="0.46" height="0.09" fill="none" stroke="#111" stroke-width="1.6"/><rect x="7.36" y="49.97" width="0.46" height="0.09" fill="none" stroke="#111" stroke-width="1.6"/><rect x="7.36" y="50.88" width="0.46" height="0.09" fill="none" stroke="#111" stroke-width="1.6"/><rect x="7.36" y="51.78" width="0.46" height="0.09" fill="none" stroke="#111" stroke-width="1.6"/><rect x="7.36" y="52.69" width="0.46" height="0.09" fill="none" stroke="#111" stroke-width="1.6"/><rect x="7.36" y="53.6" width="0.46" height="0.09" fill="none" stroke="#111" stroke-width="1.6"/><rect x="7.36" y="54.51" width="0.46" height="0.09" fill="none" stroke="#111" stroke-width="1.6"/><rect x="7.36" y="55.41" width="0.46" height="0.09" fill="none" stroke="#111" stroke-width="1.6"/><rect x="7.36" y="56.32" width="0.46" height="0.09" fill="none" stroke="#111" stroke-width="1.6"/><rect x="7.36" y="57.23" width="0.46" height="0.09" fill="none" stroke="#111" stroke-width="1.6"/></svg>