<svg xmlns="http://www.w3.org/2000/svg" width="96" height="64" viewBox="0 0 96 64"><polyline points="6,6.57 6.85,6.57" fill="none" stroke="#111" stroke-width="1.6" stroke-linecap="round" stroke-linejoin="round"/><polyline points="6,9.39 6.85,9.39" fill="none" stroke="#111" stroke-width="1.6" stroke-linecap="round" stroke-linejoin="round"/><polyline points="6,12.22 6.85,12.22" fill="none" stroke="#111" stroke-width="1.6" stroke-linecap="round" stroke-linejoin="round"/><polyline points="6,15.04 6.85,15.04" fill="none" stroke="#111" stroke-width="1.6" stroke-linecap="round" stroke-linejoin="round"/><polyline points="6,17.87 6.85,17.87" fill="none" stroke="#111" stroke-width="1.6" stroke-linecap="round" stroke-linejoin="round"/><polyline points="6,20.7 6.85,20.7" fill="none" stroke="#111" stroke-width="1.6" stroke-linecap="round" stroke-linejoin="round"/><polyline points="6,23.52 6.85,23.52" fill="none" stroke="#111" stroke-width="1.6" stroke-linecap="round" stroke-linejoin="round"/><polyline points="6,26.35 6.85,26.35" fill="none" stroke="#111" stroke-width="1.6" stroke-linecap="round" stroke-linejoin="round"/><polyline points="6,29.17 6.85,29.17" fill="none" stroke="#111" stroke-width="1.6" stroke-linecap="round" stroke-linejoin="round"/><polyline points="6,32 6.85,32" fill="none" stroke="#111" stroke-width="1.6" stroke-linecap="round" stroke-linejoin="round"/><polyline points="6,34.83 6.85,34.83" fill="none" stroke="#111" stroke-width="1.6" stroke-linecap="round" stroke-linejoin="round"/><polyline points="6,37.65 6.85,37.65" fill="none" stroke="#111" stroke-width="1.6" stroke-linecap="round" stroke-linejoin="round"/><polyline points="6,40.48 6.85,40.48" fill="none" stroke="#111" stroke-width="1.6" stroke-linecap="round" stroke-linejoin="round"/><polyline points="6,43.3 6.85,43.3" fill="none" stroke="#111" stroke-width="1.6" stroke-linecap="round" stroke-linejoin="round"/><polyline points="6,46.13 6.85,46.13" fill="none" stroke="#111" stroke-width="1.6" stroke-linecap="round" stroke-linejoin="round"/><polyline points="6,48.96 6.85,48.96" fill="none" stroke="#111" stroke-width="1.6" stroke-linecap="round" stroke-linejoin="round"/><polyline points="6,51.78 6.85,51.78" fill="none" stroke="#111" stroke-width="1.6" stroke-linecap="round" stroke-linejoin="round"/><polyline points="6,54.61 6.85,54.61" fill="none" stroke="#111" stroke-width="1.6" stroke-linecap="round" stroke-linejoin="round"/><polyline points="6,57.43 6.85,57.43" fill="none" stroke="#111" stroke-width="1.6" stroke-linecap="round" stroke-linejoin="round"/><path d="M 7.41 7.13 Q 6.85 6.57 7.41 6" fill="none" stroke="#111" stroke-width="1.6" stroke-linecap="round"/><path d="M 7.41 9.96 Q 6.85 9.39 7.41 8.83" fill="none" stroke="#111" stroke-width="1.6" stroke-linecap="round"/><path d="M 7.41 12.78 Q 6.85 12.22 7.41 11.65" fill="none" stroke="#111" stroke-width="1.6" stroke-linecap="round"/><path d="M 7.41 15.61 Q 6.85 15.04 7.41 14.48" fill="none" stroke="#111" stroke-width="1.6" stroke-linecap="round"/><path d="M 7.41 18.43 Q 6.85 17.87 7.41 17.3" fill="none" stroke="#111" stroke-width="1.6" stroke-linecap="round"/><path d="M 7.41 21.26 Q 6.85 20.7 7.41 20.13" fill="none" stroke="#111" stroke-width="1.6" stroke-linecap="round"/><path d="M 7.41 24.09 Q 6.85 23.52 7.41 22.96" fill="none" stroke="#111" stroke-width="1.6" stroke-linecap="round"/><path d="M 7.41 26.91 Q 6.85 26.35 7.41 25.78" fill="none" stroke="#111" stroke-width="1.6" stroke-linecap="round"/><path d="M 7.41 29.74 Q 6.85 29.17 7.41 28.61" fill="none" stroke="#111" stroke-width="1.6" stroke-linecap="round"/><path d="M 7.41 32.57 Q 6.85 32 7.41 31.43" fill="none" stroke="#111" stroke-width="1.6" stroke-linecap="round"/><path d="M 7.41 35.39 Q 6.85 34.83 7.41 34.26" fill="none" stroke="#111" stroke-width="1.6" stroke-linecap="round"/><path d="M 7.41 38.22 Q 6.85 37.65 7.41 37.09" fill="none" stroke="#111" stroke-width="1.6" stroke-linecap="round"/><path d="M 7.41 41.04 Q 6.85 40.48 7.41 39.91" fill="none" stroke="#111" stroke-width="1.6" stroke-linecap="round"/><path d="M 7.41 43.87 Q 6.85 43.3 7.41 42.74" fill="none" stroke="#111" stroke-width="1.6" stroke-linecap="round"/><path d="M 7.41 46.7 Q 6.85 46.13 7.41 45.57" fill="none" stroke="#111" stroke-width="1.6" stroke-linecap="round"/><path d="M 7.41 49.52 Q 6.85 48.96 7.41 48.39" fill="none" stroke="#111" stroke-width="1.6" stroke-linecap="round"/><path d="M 7.41 52.35 Q 6.85 51.78 7.41 51.22" fill="none" stroke="#111" stroke-width="1.6" stroke-linecap="round"/><path d="M 7.41 55.17 Q 6.85 54.61 7.41 54.04" fill="none" stroke="#111" stroke-width="1.6" stroke-linecap="round"/><path d="M 7.41 58 Q 6.85 57.43 7.41 56.87" fill="none" stroke="#111" stroke-width="1.6" stroke-linecap="round"/></svg>