<svg xmlns="http://www.w3.org/2000/svg" width="96" height="64" viewBox="0 0 96 64"><rect x="6" y="11.78" width="46.22" height="46.22" fill="none" stroke="#111" stroke-width="1.6"/><polyline points="8.89,20.44 18.52,20.44" fill="none" stroke="#111" stroke-width="1.6" stroke-linecap="round" stroke-linejoin="round"/><polyline points="8.89,25.26 18.52,25.26 13.7,20.44 8.89,25.26" fill="none" stroke="#111" stroke-width="1.6" stroke-linecap="round" stroke-linejoin="round"/><polyline points="8.89,44.52 18.52,44.52" fill="none" stroke="#111" stroke-width="1.6" stroke-linecap="round" stroke-linejoin="round"/><polyline points="8.89,44.52 18.52,44.52" fill="none" stroke="#111" stroke-width="1.6" stroke-linecap="round" stroke-linejoin="round"/><polyline points="8.89,49.33 18.52,49.33 13.7,44.52 8.89,49.33" fill="none" stroke="#111" stroke-width="1.6" stroke-linecap="round" stroke-linejoin="round"/><polyline points="9.85,34.89 13.7,34.89" fill="none" stroke="#111" stroke-width="1.6" stroke-linecap="round" stroke-linejoin="round"/><polyline points="13.7,15.63 44.52,15.63" fill="none" stroke="#111" stroke-width="1.6" stroke-linecap="round" stroke-linejoin="round"/><polyline points="13.7,30.07 13.7,15.63" fill="none" stroke="#111" stroke-width="1.6" stroke-linecap="round" stroke-linejoin="round"/><polyline points="13.7,30.07 13.7,39.7" fill="none" stroke="#111" stroke-width="1.6" stroke-linecap="round" stroke-linejoin="round"/><circle cx="13.7" cy="34.89" r="0.96" fill="none" stroke="#111" stroke-width="1.6"/><circle cx="13.7" cy="34.89" r="0.96" fill="none" stroke="#111" stroke-width="1.6"/><polyline points="13.7,54.15 13.7,39.7" fill="none" stroke="#111" stroke-width="1.6" stroke-linecap="round" stroke-linejoin="round"/><polyline points="13.7,54.15 13.7,39.7" fill="none" stroke="#111" stroke-width="1.6" stroke-linecap="round" stroke-linejoin="round"/><polyline points="23.33,32.96 34.89,32.96" fill="none" stroke="#111" stroke-width="1.6" stroke-linecap="round" stroke-linejoin="round"/><polyline points="23.33,38.74 34.89,38.74 29.11,32.96 23.33,38.74" fill="none" stroke="#111" stroke-width="1.6" stroke-linecap="round" stroke-linejoin="round"/><polyline points="23.33,38.74 34.89,38.74 29.11,32.96 23.33,38.74" fill="none" stroke="#111" stroke-width="1.6" stroke-linecap="round" stroke-linejoin="round"/><circle cx="29.11" cy="15.63" r="0.96" fill="none" stroke="#111" stroke-width="1.6"/><polyline points="29.11,27.19 29.11,6" fill="none" stroke="#111" stroke-width="1.6" stroke-linecap="round" stroke-linejoin="round"/><polyline points="29.11,41.63 29.11,27.19" fill="none" stroke="#111" stroke-width="1.6" stroke-linecap="round" stroke-linejoin="round"/><polyline points="29.11,41.63 29.11,27.19" fill="none" stroke="#111" stroke-width="1.6" stroke-linecap="round" stroke-linejoin="round"/><polyline points="29.11,41.63 29.11,54.15" fill="none" stroke="#111" stroke-width="1.6" stroke-linecap="round" stroke-linejoin="round"/><circle cx="29.11" cy="54.15" r="0.96" fill="none" stroke="#111" stroke-width="1.6"/><polyline points="34.89,34.89 34.89,32.96" fill="none" stroke="#111" stroke-width="1.6" stroke-linecap="round" stroke-linejoin="round"/><polyline points="39.7,20.44 49.33,20.44" fill="none" stroke="#111" stroke-width="1.6" stroke-linecap="round" stroke-linejoin="round"/><polyline points="39.7,25.26 49.33,25.26 44.52,20.44 39.7,25.26" fill="none" stroke="#111" stroke-width="1.6" stroke-linecap="round" stroke-linejoin="round"/><polyline points="39.7,44.52 49.33,44.52" fill="none" stroke="#111" stroke-width="1.6" stroke-linecap="round" stroke-linejoin="round"/><polyline points="39.7,44.52 49.33,44.52" fill="none" stroke="#111" stroke-width="1.6" stroke-linecap="round" stroke-linejoin="round"/><polyline points="39.7,49.33 49.33,49.33 44.52,44.52 39.7,49.33" fill="none" stroke="#111" stroke-width="1.6" stroke-linecap="round" stroke-linejoin="round"/><polyline points="44.52,30.07 44.52,15.63" fill="none" stroke="#111" stroke-width="1.6" stroke-linecap="round" stroke-linejoin="round"/><polyline points="44.52,30.07 44.52,39.7" fill="none" stroke="#111" stroke-width="1.6" stroke-linecap="round" stroke-linejoin="round"/><polyline points="44.52,34.89 48.37,34.89" fill="none" stroke="#111" stroke-width="1.6" stroke-linecap="round" stroke-linejoin="round"/><circle cx="44.52" cy="34.89" r="0.96" fill="none" stroke="#111" stroke-width="1.6"/><circle cx="44.52" cy="34.89" r="0.96" fill="none" stroke="#111" stroke-width="1.6"/><polyline points="44.52,54.15 13.7,54.15" fill="none" stroke="#111" stroke-width="1.6" stroke-linecap="round" stroke-linejoin="round"/><polyline points="44.52,54.15 44.52,39.7" fill="none" stroke="#111" stroke-width="1.6" stroke-linecap="round" stroke-linejoin="round"/><polyline points="44.52,54.15 44.52,39.7" fill="none" stroke="#111" stroke-width="1.6" stroke-linecap="round" stroke-linejoin="round"/></svg>