<svg xmlns="http://www.w3.org/2000/svg" width="96" height="64" viewBox="0 0 96 64"><polyline points="6,6.21 6.32,6.21" fill="none" stroke="#111" stroke-width="1.6" stroke-linecap="round" stroke-linejoin="round"/><polyline points="6,7.29 6.32,7.29" fill="none" stroke="#111" stroke-width="1.6" stroke-linecap="round" stroke-linejoin="round"/><polyline points="6,8.36 6.32,8.36" fill="none" stroke="#111" stroke-width="1.6" stroke-linecap="round" stroke-linejoin="round"/><polyline points="6,9.44 6.32,9.44" fill="none" stroke="#111" stroke-width="1.6" stroke-linecap="round" stroke-linejoin="round"/><polyline points="6,10.51 6.32,10.51" fill="none" stroke="#111" stroke-width="1.6" stroke-linecap="round" stroke-linejoin="round"/><polyline points="6,11.59 6.32,11.59" fill="none" stroke="#111" stroke-width="1.6" stroke-linecap="round" stroke-linejoin="round"/><polyline points="6,12.66 6.32,12.66" fill="none" stroke="#111" stroke-width="1.6" stroke-linecap="round" stroke-linejoin="round"/><polyline points="6,13.74 6.32,13.74" fill="none" stroke="#111" stroke-width="1.6" stroke-linecap="round" stroke-linejoin="round"/><polyline points="6,14.81 6.32,14.81" fill="none" stroke="#111" stroke-width="1.6" stroke-linecap="round" stroke-linejoin="round"/><polyline points="6,15.88 6.32,15.88" fill="none" stroke="#111" stroke-width="1.6" stroke-linecap="round" stroke-linejoin="round"/><polyline points="6,16.96 6.32,16.96" fill="none" stroke="#111" stroke-width="1.6" stroke-linecap="round" stroke-linejoin="round"/><polyline points="6,18.03 6.32,18.03" fill="none" stroke="#111" stroke-width="1.6" stroke-linecap="round" stroke-linejoin="round"/><polyline points="6,19.11 6.32,19.11" fill="none" stroke="#111" stroke-width="1.6" stroke-linecap="round" stroke-linejoin="round"/><polyline points="6,20.18 6.32,20.18" fill="none" stroke="#111" stroke-width="1.6" stroke-linecap="round" stroke-linejoin="round"/><polyline points="6,21.26 6.32,21.26" fill="none" stroke="#111" stroke-width="1.6" stroke-linecap="round" stroke-linejoin="round"/><polyline points="6,22.33 6.32,22.33" fill="none" stroke="#111" stroke-width="1.6" stroke-linecap="round" stroke-linejoin="round"/><polyline points="6,23.4 6.32,23.4" fill="none" stroke="#111" stroke-width="1.6" stroke-linecap="round" stroke-linejoin="round"/><polyline points="6,24.48 6.32,24.48" fill="none" stroke="#111" stroke-width="1.6" stroke-linecap="round" stroke-linejoin="round"/><polyline points="6,25.55 6.32,25.55" fill="none" stroke="#111" stroke-width="1.6" stroke-linecap="round" stroke-linejoin="round"/><polyline points="6,26.63 6.32,26.63" fill="none" stroke="#111" stroke-width="1.6" stroke-linecap="round" stroke-linejoin="round"/><polyline points="6,27.7 6.32,27.7" fill="none" stroke="#111" stroke-width="1.6" stroke-linecap="round" stroke-linejoin="round"/><polyline points="6,28.78 6.32,28.78" fill="none" stroke="#111" stroke-width="1.6" stroke-linecap="round" stroke-linejoin="round"/><polyline points="6,29.85 6.32,29.85" fill="none" stroke="#111" stroke-width="1.6" stroke-linecap="round" stroke-linejoin="round"/><polyline points="6,30.93 6.32,30.93" fill="none" stroke="#111" stroke-width="1.6" stroke-linecap="round" stroke-linejoin="round"/><polyline points="6,32 6.32,32" fill="none" stroke="#111" stroke-width="1.6" stroke-linecap="round" stroke-linejoin="round"/><polyline points="6,33.07 6.32,33.07" fill="none" stroke="#111" stroke-width="1.6" stroke-linecap="round" stroke-linejoin="round"/><polyline points="6,34.15 6.32,34.15" fill="none" stroke="#111" stroke-width="1.6" stroke-linecap="round" stroke-linejoin="round"/><polyline points="6,35.22 6.32,35.22" fill="none" stroke="#111" stroke-width="1.6" stroke-linecap="round" stroke-linejoin="round"/><polyline points="6,36.3 6.32,36.3" fill="none" stroke="#111" stroke-width="1.6" stroke-linecap="round" stroke-linejoin="round"/><polyline points="6,37.37 6.32,37.37" fill="none" stroke="#111" stroke-width="1.6" stroke-linecap="round" stroke-linejoin="round"/><polyline points="6,38.45 6.32,38.45" fill="none" stroke="#111" stroke-width="1.6" stroke-linecap="round" stroke-linejoin="round"/><polyline points="6,39.52 6.32,39.52" fill="none" stroke="#111" stroke-width="1.6" stroke-linecap="round" stroke-linejoin="round"/><polyline points="6,40.6 6.32,40.6" fill="none" stroke="#111" stroke-width="1.6" stroke-linecap="round" stroke-linejoin="round"/><polyline points="6,41.67 6.32,41.67" fill="none" stroke="#111" stroke-width="1.6" stroke-linecap="round" stroke-linejoin="round"/><polyline points="6,42.74 6.32,42.74" fill="none" stroke="#111" stroke-width="1.6" stroke-linecap="round" stroke-linejoin="round"/><polyline points="6,43.82 6.32,43.82" fill="none" stroke="#111" stroke-width="1.6" stroke-linecap="round" stroke-linejoin="round"/><polyline points="6,44.89 6.32,44.89" fill="none" stroke="#111" stroke-width="1.6" stroke-linecap="round" stroke-linejoin="round"/><polyline points="6,45.97 6.32,45.97" fill="none" stroke="#111" stroke-width="1.6" stroke-linecap="round" stroke-linejoin="round"/><polyline points="6,47.04 6.32,47.04" fill="none" stroke="#111" stroke-width="1.6" stroke-linecap="round" stroke-linejoin="round"/><polyline points="6,48.12 6.32,48.12" fill="none" stroke="#111" stroke-width="1.6" stroke-linecap="round" stroke-linejoin="round"/><polyline points="6,49.19 6.32,49.19" fill="none" stroke="#111" stroke-width="1.6" stroke-linecap="round" stroke-linejoin="round"/><polyline points="6,50.26 6.32,50.26" fill="none" stroke="#111" stroke-width="1.6" stroke-linecap="round" stroke-linejoin="round"/><polyline points="6,51.34 6.32,51.34" fill="none" stroke="#111" stroke-width="1.6" stroke-linecap="round" stroke-linejoin="round"/><polyline points="6,52.41 6.32,52.41" fill="none" stroke="#111" stroke-width="1.6" stroke-linecap="round" stroke-linejoin="round"/><polyline points="6,53.49 6.32,53.49" fill="none" stroke="#111" stroke-width="1.6" stroke-linecap="round" stroke-linejoin="round"/><polyline points="6,54.56 6.32,54.56" fill="none" stroke="#111" stroke-width="1.6" stroke-linecap="round" stroke-linejoin="round"/><polyline points="6,55.64 6.32,55.64" fill="none" stroke="#111" stroke-width="1.6" stroke-linecap="round" stroke-linejoin="round"/><polyline points="6,56.71 6.32,56.71" fill="none" stroke="#111" stroke-width="1.6" stroke-linecap="round" stroke-linejoin="round"/><polyline points="6,57.79 6.32,57.79" fill="none" stroke="#111" stroke-width="1.6" stroke-linecap="round" stroke-linejoin="round"/><path d="M 6.54 6.43 Q 6.32 6.21 6.54 6" fill="none" stroke="#111" stroke-width="1.6" stroke-linecap="round"/><path d="M 6.54 7.5 Q 6.32 7.29 6.54 7.07" fill="none" stroke="#111" stroke-width="1.6" stroke-linecap="round"/><path d="M 6.54 8.58 Q 6.32 8.36 6.54 8.15" fill="none" stroke="#111" stroke-width="1.6" stroke-linecap="round"/><path d="M 6.54 9.65 Q 6.32 9.44 6.54 9.22" fill="none" stroke="#111" stroke-width="1.6" stroke-linecap="round"/><path d="M 6.54 10.73 Q 6.32 10.51 6.54 10.3" fill="none" stroke="#111" stroke-width="1.6" stroke-linecap="round"/><path d="M 6.54 11.8 Q 6.32 11.59 6.54 11.37" fill="none" stroke="#111" stroke-width="1.6" stroke-linecap="round"/><path d="M 6.54 12.88 Q 6.32 12.66 6.54 12.45" fill="none" stroke="#111" stroke-width="1.6" stroke-linecap="round"/><path d="M 6.54 13.95 Q 6.32 13.74 6.54 13.52" fill="none" stroke="#111" stroke-width="1.6" stroke-linecap="round"/><path d="M 6.54 15.02 Q 6.32 14.81 6.54 14.6" fill="none" stroke="#111" stroke-width="1.6" stroke-linecap="round"/><path d="M 6.54 16.1 Q 6.32 15.88 6.54 15.67" fill="none" stroke="#111" stroke-width="1.6" stroke-linecap="round"/><path d="M 6.54 17.17 Q 6.32 16.96 6.54 16.74" fill="none" stroke="#111" stroke-width="1.6" stroke-linecap="round"/><path d="M 6.54 18.25 Q 6.32 18.03 6.54 17.82" fill="none" stroke="#111" stroke-width="1.6" stroke-linecap="round"/><path d="M 6.54 19.32 Q 6.32 19.11 6.54 18.89" fill="none" stroke="#111" stroke-width="1.6" stroke-linecap="round"/><path d="M 6.54 20.4 Q 6.32 20.18 6.54 19.97" fill="none" stroke="#111" stroke-width="1.6" stroke-linecap="round"/><path d="M 6.54 21.47 Q 6.32 21.26 6.54 21.04" fill="none" stroke="#111" stroke-width="1.6" stroke-linecap="round"/><path d="M 6.54 22.55 Q 6.32 22.33 6.54 22.12" fill="none" stroke="#111" stroke-width="1.6" stroke-linecap="round"/><path d="M 6.54 23.62 Q 6.32 23.4 6.54 23.19" fill="none" stroke="#111" stroke-width="1.6" stroke-linecap="round"/><path d="M 6.54 24.69 Q 6.32 24.48 6.54 24.26" fill="none" stroke="#111" stroke-width="1.6" stroke-linecap="round"/><path d="M 6.54 25.77 Q 6.32 25.55 6.54 25.34" fill="none" stroke="#111" stroke-width="1.6" stroke-linecap="round"/><path d="M 6.54 26.84 Q 6.32 26.63 6.54 26.41" fill="none" stroke="#111" stroke-width="1.6" stroke-linecap="round"/><path d="M 6.54 27.92 Q 6.32 27.7 6.54 27.49" fill="none" stroke="#111" stroke-width="1.6" stroke-linecap="round"/><path d="M 6.54 28.99 Q 6.32 28.78 6.54 28.56" fill="none" stroke="#111" stroke-width="1.6" stroke-linecap="round"/><path d="M 6.54 30.07 Q 6.32 29.85 6.54 29.64" fill="none" stroke="#111" stroke-width="1.6" stroke-linecap="round"/><path d="M 6.54 31.14 Q 6.32 30.93 6.54 30.71" fill="none" stroke="#111" stroke-width="1.6" stroke-linecap="round"/><path d="M 6.54 32.21 Q 6.32 32 6.54 31.79" fill="none" stroke="#111" stroke-width="1.6" stroke-linecap="round"/><path d="M 6.54 33.29 Q 6.32 33.07 6.54 32.86" fill="none" stroke="#111" stroke-width="1.6" stroke-linecap="round"/><path d="M 6.54 34.36 Q 6.32 34.15 6.54 33.93" fill="none" stroke="#111" stroke-width="1.6" stroke-linecap="round"/><path d="M 6.54 35.44 Q 6.32 35.22 6.54 35.01" fill="none" stroke="#111" stroke-width="1.6" stroke-linecap="round"/><path d="M 6.54 36.51 Q 6.32 36.3 6.54 36.08" fill="none" stroke="#111" stroke-width="1.6" stroke-linecap="round"/><path d="M 6.54 37.59 Q 6.32 37.37 6.54 37.16" fill="none" stroke="#111" stroke-width="1.6" stroke-linecap="round"/><path d="M 6.54 38.66 Q 6.32 38.45 6.54 38.23" fill="none" stroke="#111" stroke-width="1.6" stroke-linecap="round"/><path d="M 6.54 39.74 Q 6.32 39.52 6.54 39.31" fill="none" stroke="#111" stroke-width="1.6" stroke-linecap="round"/><path d="M 6.54 40.81 Q 6.32 40.6 6.54 40.38" fill="none" stroke="#111" stroke-width="1.6" stroke-linecap="round"/><path d="M 6.54 41.88 Q 6.32 41.67 6.54 41.45" fill="none" stroke="#111" stroke-width="1.6" stroke-linecap="round"/><path d="M 6.54 42.96 Q 6.32 42.74 6.54 42.53" fill="none" stroke="#111" stroke-width="1.6" stroke-linecap="round"/><path d="M 6.54 44.03 Q 6.32 43.82 6.54 43.6" fill="none" stroke="#111" stroke-width="1.6" stroke-linecap="round"/><path d="M 6.54 45.11 Q 6.32 44.89 6.54 44.68" fill="none" stroke="#111" stroke-width="1.6" stroke-linecap="round"/><path d="M 6.54 46.18 Q 6.32 45.97 6.54 45.75" fill="none" stroke="#111" stroke-width="1.6" stroke-linecap="round"/><path d="M 6.54 47.26 Q 6.32 47.04 6.54 46.83" fill="none" stroke="#111" stroke-width="1.6" stroke-linecap="round"/><path d="M 6.54 48.33 Q 6.32 48.12 6.54 47.9" fill="none" stroke="#111" stroke-width="1.6" stroke-linecap="round"/><path d="M 6.54 49.4 Q 6.32 49.19 6.54 48.98" fill="none" stroke="#111" stroke-width="1.6" stroke-linecap="round"/><path d="M 6.54 50.48 Q 6.32 50.26 6.54 50.05" fill="none" stroke="#111" stroke-width="1.6" stroke-linecap="round"/><path d="M 6.54 51.55 Q 6.32 51.34 6.54 51.12" fill="none" stroke="#111" stroke-width="1.6" stroke-linecap="round"/><path d="M 6.54 52.63 Q 6.32 52.41 6.54 52.2" fill="none" stroke="#111" stroke-width="1.6" stroke-linecap="round"/><path d="M 6.54 53.7 Q 6.32 53.49 6.54 53.27" fill="none" stroke="#111" stroke-width="1.6" stroke-linecap="round"/><path d="M 6.54 54.78 Q 6.32 54.56 6.54 54.35" fill="none" stroke="#111" stroke-width="1.6" stroke-linecap="round"/><path d="M 6.54 55.85 Q 6.32 55.64 6.54 55.42" fill="none" stroke="#111" stroke-width="1.6" stroke-linecap="round"/><path d="M 6.54 56.93 Q 6.32 56.71 6.54 56.5" fill="none" stroke="#111" stroke-width="1.6" stroke-linecap="round"/><path d="M 6.54 58 Q 6.32 57.79 6.54 57.57" fill="none" stroke="#111" stroke-width="1.6" stroke-linecap="round"/></svg>