<svg xmlns="http://www.w3.org/2000/svg" width="96" height="64" viewBox="0 0 96 64"><polyline points="13.23,25.44 12.33,25.44 13.23,25.44 14.14,22.73 14.59,22.73 13.69,22.73 12.78,25.44 12.78,25.44" fill="none" stroke="#111" stroke-width="1.6" stroke-linecap="round" stroke-linejoin="round"/><polyline points="14.59,22.73 14.59,25.44 17.3,24.09 14.59,22.73 14.59,22.73" fill="none" stroke="#111" stroke-width="1.6" stroke-linecap="round" stroke-linejoin="round"/><polyline points="15.04,6 15.04,17.3 6,17.3 6,17.3" fill="none" stroke="#111" stroke-width="1.6" stroke-linecap="round" stroke-linejoin="round"/><polyline points="17.76,22.73 21.37,22.73 19.57,25.44 17.76,22.73 17.76,22.73" fill="none" stroke="#111" stroke-width="1.6" stroke-linecap="round" stroke-linejoin="round"/><rect x="6" y="21.83" width="22.61" height="4.52" fill="none" stroke="#111" stroke-width="1.6"/><rect x="6" y="26.35" width="22.61" height="4.52" fill="none" stroke="#111" stroke-width="1.6"/><rect x="6" y="30.87" width="22.61" height="4.52" fill="none" stroke="#111" stroke-width="1.6"/><rect x="6" y="35.39" width="22.61" height="4.52" fill="none" stroke="#111" stroke-width="1.6"/><rect x="6" y="39.91" width="22.61" height="4.52" fill="none" stroke="#111" stroke-width="1.6"/><rect x="6" y="44.43" width="22.61" height="4.53" fill="none" stroke="#111" stroke-width="1.6"/><rect x="6" y="48.96" width="22.61" height="4.52" fill="none" stroke="#111" stroke-width="1.6"/><rect x="6" y="53.48" width="22.61" height="4.52" fill="none" stroke="#111" stroke-width="1.6"/><polyline points="8.26,21.83 8.26,19.57 6,19.57 6,6 28.61,6 28.61,19.57 26.35,19.57 26.35,21.83 26.35,21.83" fill="none" stroke="#111" stroke-width="1.6" stroke-linecap="round" stroke-linejoin="round"/></svg>