<svg xmlns="http://www.w3.org/2000/svg" width="96" height="64" viewBox="0 0 96 64"><rect x="6" y="6" width="84" height="16.15" fill="none" stroke="#111" stroke-width="1.6"/><rect x="7.29" y="10.2" width="3.88" height="10.34" fill="none" stroke="#111" stroke-width="1.6"/><circle cx="9.23" cy="8.26" r="0.65" fill="none" stroke="#111" stroke-width="1.6"/><polyline points="9.23,10.2 9.23,8.26 15.69,8.26 15.69,10.2" fill="none" stroke="#111" stroke-width="1.6" stroke-linecap="round" stroke-linejoin="round"/><polyline points="9.23,20.54 9.23,23.77" fill="none" stroke="#111" stroke-width="1.6" stroke-linecap="round" stroke-linejoin="round"/><rect x="13.75" y="10.2" width="3.88" height="10.34" fill="none" stroke="#111" stroke-width="1.6"/><circle cx="15.69" cy="8.26" r="0.65" fill="none" stroke="#111" stroke-width="1.6"/><polyline points="15.69,10.2 15.69,8.26 22.15,8.26 22.15,10.2" fill="none" stroke="#111" stroke-width="1.6" stroke-linecap="round" stroke-linejoin="round"/><polyline points="15.69,20.54 15.69,23.77" fill="none" stroke="#111" stroke-width="1.6" stroke-linecap="round" stroke-linejoin="round"/><rect x="20.22" y="10.2" width="3.87" height="10.34" fill="none" stroke="#111" stroke-width="1.6"/><circle cx="22.15" cy="8.26" r="0.65" fill="none" stroke="#111" stroke-width="1.6"/><polyline points="22.15,10.2 22.15,8.26 28.62,8.26 28.62,10.2" fill="none" stroke="#111" stroke-width="1.6" stroke-linecap="round" stroke-linejoin="round"/><polyline points="22.15,20.54 22.15,23.77" fill="none" stroke="#111" stroke-width="1.6" stroke-linecap="round" stroke-linejoin="round"/><rect x="26.68" y="10.2" width="3.87" height="10.34" fill="none" stroke="#111" stroke-width="1.6"/><circle cx="28.62" cy="8.26" r="0.65" fill="none" stroke="#111" stroke-width="1.6"/><polyline points="28.62,10.2 28.62,8.26 35.08,8.26 35.08,10.2" fill="none" stroke="#111" stroke-width="1.6" stroke-linecap="round" stroke-linejoin="round"/><polyline points="28.62,20.54 28.62,23.77" fill="none" stroke="#111" stroke-width="1.6" stroke-linecap="round" stroke-linejoin="round"/><rect x="33.14" y="10.2" width="3.88" height="10.34" fill="none" stroke="#111" stroke-width="1.6"/><circle cx="35.08" cy="8.26" r="0.65" fill="none" stroke="#111" stroke-width="1.6"/><polyline points="35.08,10.2 35.08,8.26 41.54,8.26 41.54,10.2" fill="none" stroke="#111" stroke-width="1.6" stroke-linecap="round" stroke-linejoin="round"/><polyline points="35.08,20.54 35.08,23.77" fill="none" stroke="#111" stroke-width="1.6" stroke-linecap="round" stroke-linejoin="round"/><rect x="39.6" y="10.2" width="3.88" height="10.34" fill="none" stroke="#111" stroke-width="1.6"/><circle cx="41.54" cy="8.26" r="0.65" fill="none" stroke="#111" stroke-width="1.6"/><polyline points="41.54,10.2 41.54,8.26 48,8.26 48,10.2" fill="none" stroke="#111" stroke-width="1.6" stroke-linecap="round" stroke-linejoin="round"/><polyline points="41.54,20.54 41.54,23.77" fill="none" stroke="#111" stroke-width="1.6" stroke-linecap="round" stroke-linejoin="round"/><rect x="46.06" y="10.2" width="3.88" height="10.34" fill="none" stroke="#111" stroke-width="1.6"/><circle cx="48" cy="8.26" r="0.65" fill="none" stroke="#111" stroke-width="1.6"/><polyline points="48,10.2 48,8.26 54.46,8.26 54.46,10.2" fill="none" stroke="#111" stroke-width="1.6" stroke-linecap="round" stroke-linejoin="round"/><polyline points="48,20.54 48,23.77" fill="none" stroke="#111" stroke-width="1.6" stroke-linecap="round" stroke-linejoin="round"/><rect x="52.52" y="10.2" width="3.88" height="10.34" fill="none" stroke="#111" stroke-width="1.6"/><circle cx="54.46" cy="8.26" r="0.65" fill="none" stroke="#111" stroke-width="1.6"/><polyline points="54.46,10.2 54.46,8.26 60.92,8.26 60.92,10.2" fill="none" stroke="#111" stroke-width="1.6" stroke-linecap="round" stroke-linejoin="round"/><polyline points="54.46,20.54 54.46,23.77" fill="none" stroke="#111" stroke-width="1.6" stroke-linecap="round" stroke-linejoin="round"/><rect x="58.98" y="10.2" width="3.88" height="10.34" fill="none" stroke="#111" stroke-width="1.6"/><circle cx="60.92" cy="8.26" r="0.65" fill="none" stroke="#111" stroke-width="1.6"/><polyline points="60.92,10.2 60.92,8.26 67.38,8.26 67.38,10.2" fill="none" stroke="#111" stroke-width="1.6" stroke-linecap="round" stroke-linejoin="round"/><polyline points="60.92,20.54 60.92,23.77" fill="none" stroke="#111" stroke-width="1.6" stroke-linecap="round" stroke-linejoin="round"/><rect x="65.45" y="10.2" width="3.87" height="10.34" fill="none" stroke="#111" stroke-width="1.6"/><circle cx="67.38" cy="8.26" r="0.65" fill="none" stroke="#111" stroke-width="1.6"/><polyline points="67.38,10.2 67.38,8.26 73.85,8.26 73.85,10.2" fill="none" stroke="#111" stroke-width="1.6" stroke-linecap="round" stroke-linejoin="round"/><polyline points="67.38,20.54 67.38,23.77" fill="none" stroke="#111" stroke-width="1.6" stroke-linecap="round" stroke-linejoin="round"/><rect x="71.91" y="10.2" width="3.87" height="10.34" fill="none" stroke="#111" stroke-width="1.6"/><circle cx="73.85" cy="8.26" r="0.65" fill="none" stroke="#111" stroke-width="1.6"/><polyline points="73.85,10.2 73.85,8.26 80.31,8.26 80.31,10.2" fill="none" stroke="#111" stroke-width="1.6" stroke-linecap="round" stroke-linejoin="round"/><polyline points="73.85,20.54 73.85,23.77" fill="none" stroke="#111" stroke-width="1.6" stroke-linecap="round" stroke-linejoin="round"/><rect x="78.37" y="10.2" width="3.88" height="10.34" fill="none" stroke="#111" stroke-width="1.6"/><circle cx="80.31" cy="8.26" r="0.65" fill="none" stroke="#111" stroke-width="1.6"/><polyline points="80.31,10.2 80.31,8.26 86.77,8.26 86.77,10.2" fill="none" stroke="#111" stroke-width="1.6" stroke-linecap="round" stroke-linejoin="round"/><polyline points="80.31,20.54 80.31,23.77" fill="none" stroke="#111" stroke-width="1.6" stroke-linecap="round" stroke-linejoin="round"/><rect x="84.83" y="10.2" width="3.88" height="10.34" fill="none" stroke="#111" stroke-width="1.6"/><polyline points="86.77,20.54 86.77,23.77" fill="none" stroke="#111" stroke-width="1.6" stroke-linecap="round" stroke-linejoin="round"/></svg>