<svg xmlns="http://www.w3.org/2000/svg" width="96" height="64" viewBox="0 0 96 64"><rect x="6" y="6" width="10.4" height="52" fill="none" stroke="#111" stroke-width="1.6"/><polyline points="9.02,9.85 12.55,13.28" fill="none" stroke="#111" stroke-width="1.6" stroke-linecap="round" stroke-linejoin="round"/><polyline points="9.02,20.25 12.55,23.68" fill="none" stroke="#111" stroke-width="1.6" stroke-linecap="round" stroke-linejoin="round"/><polyline points="9.02,30.65 12.55,34.08" fill="none" stroke="#111" stroke-width="1.6" stroke-linecap="round" stroke-linejoin="round"/><polyline points="9.02,41.05 12.55,44.48" fill="none" stroke="#111" stroke-width="1.6" stroke-linecap="round" stroke-linejoin="round"/><polyline points="9.02,51.45 12.55,54.88" fill="none" stroke="#111" stroke-width="1.6" stroke-linecap="round" stroke-linejoin="round"/><polyline points="9.74,9.12 13.28,12.55" fill="none" stroke="#111" stroke-width="1.6" stroke-linecap="round" stroke-linejoin="round"/><polyline points="9.74,19.52 13.28,22.95" fill="none" stroke="#111" stroke-width="1.6" stroke-linecap="round" stroke-linejoin="round"/><polyline points="9.74,29.92 13.28,33.35" fill="none" stroke="#111" stroke-width="1.6" stroke-linecap="round" stroke-linejoin="round"/><polyline points="9.74,40.32 13.28,43.75" fill="none" stroke="#111" stroke-width="1.6" stroke-linecap="round" stroke-linejoin="round"/><polyline points="9.74,50.72 13.28,54.15" fill="none" stroke="#111" stroke-width="1.6" stroke-linecap="round" stroke-linejoin="round"/><circle cx="11.2" cy="11.2" r="2.6" fill="none" stroke="#111" stroke-width="1.6"/><circle cx="11.2" cy="21.6" r="2.6" fill="none" stroke="#111" stroke-width="1.6"/><circle cx="11.2" cy="32" r="2.6" fill="none" stroke="#111" stroke-width="1.6"/><circle cx="11.2" cy="42.4" r="2.6" fill="none" stroke="#111" stroke-width="1.6"/><circle cx="11.2" cy="52.8" r="2.6" fill="none" stroke="#111" stroke-width="1.6"/></svg>