<svg xmlns="http://www.w3.org/2000/svg" width="96" height="64" viewBox="0 0 96 64"><polyline points="18.58,12.29 18.58,18.58 12.29,18.58" fill="none" stroke="#111" stroke-width="1.6" stroke-linecap="round" stroke-linejoin="round"/><polyline points="18.58,18.58 6,6" fill="none" stroke="#111" stroke-width="1.6" stroke-linecap="round" stroke-linejoin="round"/><polyline points="18.58,29.06 18.58,35.35 12.29,35.35" fill="none" stroke="#111" stroke-width="1.6" stroke-linecap="round" stroke-linejoin="round"/><polyline points="18.58,35.35 6,22.77" fill="none" stroke="#111" stroke-width="1.6" stroke-linecap="round" stroke-linejoin="round"/><rect x="22.77" y="22.77" width="33.55" height="2.1" fill="none" stroke="#111" stroke-width="1.6"/><rect x="22.77" y="48.98" width="33.55" height="2.1" fill="none" stroke="#111" stroke-width="1.6"/><rect x="28.65" y="27.6" width="21.38" height="4.19" fill="none" stroke="#111" stroke-width="1.6"/><rect x="28.65" y="53.81" width="21.38" height="4.19" fill="none" stroke="#111" stroke-width="1.6"/><polyline points="39.55,22.77 39.55,16.48" fill="none" stroke="#111" stroke-width="1.6" stroke-linecap="round" stroke-linejoin="round"/><polyline points="39.55,33.26 39.55,31.16" fill="none" stroke="#111" stroke-width="1.6" stroke-linecap="round" stroke-linejoin="round"/><polyline points="39.55,37.45 39.55,35.35" fill="none" stroke="#111" stroke-width="1.6" stroke-linecap="round" stroke-linejoin="round"/><polyline points="39.55,41.65 39.55,39.55" fill="none" stroke="#111" stroke-width="1.6" stroke-linecap="round" stroke-linejoin="round"/><polyline points="39.55,45.84 39.55,43.74" fill="none" stroke="#111" stroke-width="1.6" stroke-linecap="round" stroke-linejoin="round"/><polyline points="39.55,50.03 39.55,47.94" fill="none" stroke="#111" stroke-width="1.6" stroke-linecap="round" stroke-linejoin="round"/><polyline points="41.65,15.44 50.03,15.44" fill="none" stroke="#111" stroke-width="1.6" stroke-linecap="round" stroke-linejoin="round"/><polyline points="45.84,11.24 45.84,19.63" fill="none" stroke="#111" stroke-width="1.6" stroke-linecap="round" stroke-linejoin="round"/></svg>