<svg xmlns="http://www.w3.org/2000/svg" width="96" height="64" viewBox="0 0 96 64"><rect x="6" y="6" width="0.4" height="0.12" fill="none" stroke="#111" stroke-width="1.6"/><rect x="6" y="7.18" width="0.4" height="0.12" fill="none" stroke="#111" stroke-width="1.6"/><rect x="6" y="8.36" width="0.4" height="0.12" fill="none" stroke="#111" stroke-width="1.6"/><rect x="6" y="9.54" width="0.4" height="0.12" fill="none" stroke="#111" stroke-width="1.6"/><rect x="6" y="10.72" width="0.4" height="0.11" fill="none" stroke="#111" stroke-width="1.6"/><rect x="6" y="11.9" width="0.4" height="0.11" fill="none" stroke="#111" stroke-width="1.6"/><rect x="6" y="13.07" width="0.4" height="0.12" fill="none" stroke="#111" stroke-width="1.6"/><rect x="6" y="14.25" width="0.4" height="0.12" fill="none" stroke="#111" stroke-width="1.6"/><rect x="6" y="15.43" width="0.4" height="0.12" fill="none" stroke="#111" stroke-width="1.6"/><rect x="6" y="16.61" width="0.4" height="0.12" fill="none" stroke="#111" stroke-width="1.6"/><rect x="6" y="17.79" width="0.4" height="0.12" fill="none" stroke="#111" stroke-width="1.6"/><rect x="6" y="18.97" width="0.4" height="0.12" fill="none" stroke="#111" stroke-width="1.6"/><rect x="6" y="20.15" width="0.4" height="0.12" fill="none" stroke="#111" stroke-width="1.6"/><rect x="6" y="21.33" width="0.4" height="0.12" fill="none" stroke="#111" stroke-width="1.6"/><rect x="6" y="22.51" width="0.4" height="0.12" fill="none" stroke="#111" stroke-width="1.6"/><rect x="6" y="23.69" width="0.4" height="0.11" fill="none" stroke="#111" stroke-width="1.6"/><rect x="6" y="24.87" width="0.4" height="0.11" fill="none" stroke="#111" stroke-width="1.6"/><rect x="6" y="26.05" width="0.4" height="0.11" fill="none" stroke="#111" stroke-width="1.6"/><rect x="6" y="27.22" width="0.4" height="0.12" fill="none" stroke="#111" stroke-width="1.6"/><rect x="6" y="28.4" width="0.4" height="0.12" fill="none" stroke="#111" stroke-width="1.6"/><rect x="6" y="29.58" width="0.4" height="0.12" fill="none" stroke="#111" stroke-width="1.6"/><rect x="6" y="30.76" width="0.4" height="0.12" fill="none" stroke="#111" stroke-width="1.6"/><rect x="6" y="31.94" width="0.4" height="0.12" fill="none" stroke="#111" stroke-width="1.6"/><rect x="6" y="33.12" width="0.4" height="0.12" fill="none" stroke="#111" stroke-width="1.6"/><rect x="6" y="34.3" width="0.4" height="0.12" fill="none" stroke="#111" stroke-width="1.6"/><rect x="6" y="35.48" width="0.4" height="0.12" fill="none" stroke="#111" stroke-width="1.6"/><rect x="6" y="36.66" width="0.4" height="0.12" fill="none" stroke="#111" stroke-width="1.6"/><rect x="6" y="37.84" width="0.4" height="0.11" fill="none" stroke="#111" stroke-width="1.6"/><rect x="6" y="39.02" width="0.4" height="0.11" fill="none" stroke="#111" stroke-width="1.6"/><rect x="6" y="40.2" width="0.4" height="0.11" fill="none" stroke="#111" stroke-width="1.6"/><rect x="6" y="41.37" width="0.4" height="0.12" fill="none" stroke="#111" stroke-width="1.6"/><rect x="6" y="42.55" width="0.4" height="0.12" fill="none" stroke="#111" stroke-width="1.6"/><rect x="6" y="43.73" width="0.4" height="0.12" fill="none" stroke="#111" stroke-width="1.6"/><rect x="6" y="44.91" width="0.4" height="0.12" fill="none" stroke="#111" stroke-width="1.6"/><rect x="6" y="46.09" width="0.4" height="0.12" fill="none" stroke="#111" stroke-width="1.6"/><rect x="6" y="47.27" width="0.4" height="0.12" fill="none" stroke="#111" stroke-width="1.6"/><rect x="6" y="48.45" width="0.4" height="0.12" fill="none" stroke="#111" stroke-width="1.6"/><rect x="6" y="49.63" width="0.4" height="0.12" fill="none" stroke="#111" stroke-width="1.6"/><rect x="6" y="50.81" width="0.4" height="0.12" fill="none" stroke="#111" stroke-width="1.6"/><rect x="6" y="51.99" width="0.4" height="0.11" fill="none" stroke="#111" stroke-width="1.6"/><rect x="6" y="53.17" width="0.4" height="0.11" fill="none" stroke="#111" stroke-width="1.6"/><rect x="6" y="54.34" width="0.4" height="0.12" fill="none" stroke="#111" stroke-width="1.6"/><rect x="6" y="55.52" width="0.4" height="0.12" fill="none" stroke="#111" stroke-width="1.6"/><rect x="6" y="56.7" width="0.4" height="0.12" fill="none" stroke="#111" stroke-width="1.6"/><rect x="6" y="57.88" width="0.4" height="0.12" fill="none" stroke="#111" stroke-width="1.6"/><polyline points="6.59,6.06 6.4,6.06" fill="none" stroke="#111" stroke-width="1.6" stroke-linecap="round" stroke-linejoin="round"/><polyline points="6.59,7.24 6.4,7.24" fill="none" stroke="#111" stroke-width="1.6" stroke-linecap="round" stroke-linejoin="round"/><polyline points="6.59,8.42 6.4,8.42" fill="none" stroke="#111" stroke-width="1.6" stroke-linecap="round" stroke-linejoin="round"/><polyline points="6.59,9.6 6.4,9.6" fill="none" stroke="#111" stroke-width="1.6" stroke-linecap="round" stroke-linejoin="round"/><polyline points="6.59,10.78 6.4,10.78" fill="none" stroke="#111" stroke-width="1.6" stroke-linecap="round" stroke-linejoin="round"/><polyline points="6.59,11.95 6.4,11.95" fill="none" stroke="#111" stroke-width="1.6" stroke-linecap="round" stroke-linejoin="round"/><polyline points="6.59,13.13 6.4,13.13" fill="none" stroke="#111" stroke-width="1.6" stroke-linecap="round" stroke-linejoin="round"/><polyline points="6.59,14.31 6.4,14.31" fill="none" stroke="#111" stroke-width="1.6" stroke-linecap="round" stroke-linejoin="round"/><polyline points="6.59,15.49 6.4,15.49" fill="none" stroke="#111" stroke-width="1.6" stroke-linecap="round" stroke-linejoin="round"/><polyline points="6.59,16.67 6.4,16.67" fill="none" stroke="#111" stroke-width="1.6" stroke-linecap="round" stroke-linejoin="round"/><polyline points="6.59,17.85 6.4,17.85" fill="none" stroke="#111" stroke-width="1.6" stroke-linecap="round" stroke-linejoin="round"/><polyline points="6.59,19.03 6.4,19.03" fill="none" stroke="#111" stroke-width="1.6" stroke-linecap="round" stroke-linejoin="round"/><polyline points="6.59,20.21 6.4,20.21" fill="none" stroke="#111" stroke-width="1.6" stroke-linecap="round" stroke-linejoin="round"/><polyline points="6.59,21.39 6.4,21.39" fill="none" stroke="#111" stroke-width="1.6" stroke-linecap="round" stroke-linejoin="round"/><polyline points="6.59,22.57 6.4,22.57" fill="none" stroke="#111" stroke-width="1.6" stroke-linecap="round" stroke-linejoin="round"/><polyline points="6.59,23.75 6.4,23.75" fill="none" stroke="#111" stroke-width="1.6" stroke-linecap="round" stroke-linejoin="round"/><polyline points="6.59,24.93 6.4,24.93" fill="none" stroke="#111" stroke-width="1.6" stroke-linecap="round" stroke-linejoin="round"/><polyline points="6.59,26.1 6.4,26.1" fill="none" stroke="#111" stroke-width="1.6" stroke-linecap="round" stroke-linejoin="round"/><polyline points="6.59,27.28 6.4,27.28" fill="none" stroke="#111" stroke-width="1.6" stroke-linecap="round" stroke-linejoin="round"/><polyline points="6.59,28.46 6.4,28.46" fill="none" stroke="#111" stroke-width="1.6" stroke-linecap="round" stroke-linejoin="round"/><polyline points="6.59,29.64 6.4,29.64" fill="none" stroke="#111" stroke-width="1.6" stroke-linecap="round" stroke-linejoin="round"/><polyline points="6.59,30.82 6.4,30.82" fill="none" stroke="#111" stroke-width="1.6" stroke-linecap="round" stroke-linejoin="round"/><polyline points="6.59,32 6.4,32" fill="none" stroke="#111" stroke-width="1.6" stroke-linecap="round" stroke-linejoin="round"/><polyline points="6.59,33.18 6.4,33.18" fill="none" stroke="#111" stroke-width="1.6" stroke-linecap="round" stroke-linejoin="round"/><polyline points="6.59,34.36 6.4,34.36" fill="none" stroke="#111" stroke-width="1.6" stroke-linecap="round" stroke-linejoin="round"/><polyline points="6.59,35.54 6.4,35.54" fill="none" stroke="#111" stroke-width="1.6" stroke-linecap="round" stroke-linejoin="round"/><polyline points="6.59,36.72 6.4,36.72" fill="none" stroke="#111" stroke-width="1.6" stroke-linecap="round" stroke-linejoin="round"/><polyline points="6.59,37.9 6.4,37.9" fill="none" stroke="#111" stroke-width="1.6" stroke-linecap="round" stroke-linejoin="round"/><polyline points="6.59,39.07 6.4,39.07" fill="none" stroke="#111" stroke-width="1.6" stroke-linecap="round" stroke-linejoin="round"/><polyline points="6.59,40.25 6.4,40.25" fill="none" stroke="#111" stroke-width="1.6" stroke-linecap="round" stroke-linejoin="round"/><polyline points="6.59,41.43 6.4,41.43" fill="none" stroke="#111" stroke-width="1.6" stroke-linecap="round" stroke-linejoin="round"/><polyline points="6.59,42.61 6.4,42.61" fill="none" stroke="#111" stroke-width="1.6" stroke-linecap="round" stroke-linejoin="round"/><polyline points="6.59,43.79 6.4,43.79" fill="none" stroke="#111" stroke-width="1.6" stroke-linecap="round" stroke-linejoin="round"/><polyline points="6.59,44.97 6.4,44.97" fill="none" stroke="#111" stroke-width="1.6" stroke-linecap="round" stroke-linejoin="round"/><polyline points="6.59,46.15 6.4,46.15" fill="none" stroke="#111" stroke-width="1.6" stroke-linecap="round" stroke-linejoin="round"/><polyline points="6.59,47.33 6.4,47.33" fill="none" stroke="#111" stroke-width="1.6" stroke-linecap="round" stroke-linejoin="round"/><polyline points="6.59,48.51 6.4,48.51" fill="none" stroke="#111" stroke-width="1.6" stroke-linecap="round" stroke-linejoin="round"/><polyline points="6.59,49.69 6.4,49.69" fill="none" stroke="#111" stroke-width="1.6" stroke-linecap="round" stroke-linejoin="round"/><polyline points="6.59,50.87 6.4,50.87" fill="none" stroke="#111" stroke-width="1.6" stroke-linecap="round" stroke-linejoin="round"/><polyline points="6.59,52.05 6.4,52.05" fill="none" stroke="#111" stroke-width="1.6" stroke-linecap="round" stroke-linejoin="round"/><polyline points="6.59,53.22 6.4,53.22" fill="none" stroke="#111" stroke-width="1.6" stroke-linecap="round" stroke-linejoin="round"/><polyline points="6.59,54.4 6.4,54.4" fill="none" stroke="#111" stroke-width="1.6" stroke-linecap="round" stroke-linejoin="round"/><polyline points="6.59,55.58 6.4,55.58" fill="none" stroke="#111" stroke-width="1.6" stroke-linecap="round" stroke-linejoin="round"/><polyline points="6.59,56.76 6.4,56.76" fill="none" stroke="#111" stroke-width="1.6" stroke-linecap="round" stroke-linejoin="round"/><polyline points="6.59,57.94 6.4,57.94" fill="none" stroke="#111" stroke-width="1.6" stroke-linecap="round" stroke-linejoin="round"/></svg>