<svg xmlns="http://www.w3.org/2000/svg" width="96" height="64" viewBox="0 0 96 64"><rect x="6" y="6" width="1.12" height="51.66" fill="none" stroke="#111" stroke-width="1.6"/><rect x="6" y="6.51" width="0.56" height="0.11" fill="none" stroke="#111" stroke-width="1.6"/><rect x="6" y="7.63" width="0.56" height="0.11" fill="none" stroke="#111" stroke-width="1.6"/><rect x="6" y="8.75" width="0.56" height="0.11" fill="none" stroke="#111" stroke-width="1.6"/><rect x="6" y="9.87" width="0.56" height="0.12" fill="none" stroke="#111" stroke-width="1.6"/><rect x="6" y="11" width="0.56" height="0.11" fill="none" stroke="#111" stroke-width="1.6"/><rect x="6" y="12.12" width="0.56" height="0.11" fill="none" stroke="#111" stroke-width="1.6"/><rect x="6" y="13.24" width="0.56" height="0.12" fill="none" stroke="#111" stroke-width="1.6"/><rect x="6" y="14.37" width="0.56" height="0.11" fill="none" stroke="#111" stroke-width="1.6"/><rect x="6" y="15.49" width="0.56" height="0.11" fill="none" stroke="#111" stroke-width="1.6"/><rect x="6" y="16.61" width="0.56" height="0.12" fill="none" stroke="#111" stroke-width="1.6"/><rect x="6" y="17.74" width="0.56" height="0.11" fill="none" stroke="#111" stroke-width="1.6"/><rect x="6" y="18.86" width="0.56" height="0.11" fill="none" stroke="#111" stroke-width="1.6"/><rect x="6" y="19.98" width="0.56" height="0.12" fill="none" stroke="#111" stroke-width="1.6"/><rect x="6" y="21.11" width="0.56" height="0.11" fill="none" stroke="#111" stroke-width="1.6"/><rect x="6" y="22.23" width="0.56" height="0.11" fill="none" stroke="#111" stroke-width="1.6"/><rect x="6" y="23.35" width="0.56" height="0.11" fill="none" stroke="#111" stroke-width="1.6"/><rect x="6" y="24.48" width="0.56" height="0.11" fill="none" stroke="#111" stroke-width="1.6"/><rect x="6" y="25.6" width="0.56" height="0.11" fill="none" stroke="#111" stroke-width="1.6"/><rect x="6" y="26.72" width="0.56" height="0.11" fill="none" stroke="#111" stroke-width="1.6"/><rect x="6" y="27.84" width="0.56" height="0.12" fill="none" stroke="#111" stroke-width="1.6"/><rect x="6" y="28.97" width="0.56" height="0.11" fill="none" stroke="#111" stroke-width="1.6"/><rect x="6" y="30.09" width="0.56" height="0.11" fill="none" stroke="#111" stroke-width="1.6"/><rect x="6" y="31.21" width="0.56" height="0.12" fill="none" stroke="#111" stroke-width="1.6"/><rect x="6" y="32.34" width="0.56" height="0.11" fill="none" stroke="#111" stroke-width="1.6"/><rect x="6" y="33.46" width="0.56" height="0.11" fill="none" stroke="#111" stroke-width="1.6"/><rect x="6" y="34.58" width="0.56" height="0.12" fill="none" stroke="#111" stroke-width="1.6"/><rect x="6" y="35.71" width="0.56" height="0.11" fill="none" stroke="#111" stroke-width="1.6"/><rect x="6" y="36.83" width="0.56" height="0.11" fill="none" stroke="#111" stroke-width="1.6"/><rect x="6" y="37.95" width="0.56" height="0.11" fill="none" stroke="#111" stroke-width="1.6"/><rect x="6" y="39.08" width="0.56" height="0.11" fill="none" stroke="#111" stroke-width="1.6"/><rect x="6" y="40.2" width="0.56" height="0.11" fill="none" stroke="#111" stroke-width="1.6"/><rect x="6" y="41.32" width="0.56" height="0.11" fill="none" stroke="#111" stroke-width="1.6"/><rect x="6" y="42.44" width="0.56" height="0.12" fill="none" stroke="#111" stroke-width="1.6"/><rect x="6" y="43.57" width="0.56" height="0.11" fill="none" stroke="#111" stroke-width="1.6"/><rect x="6" y="44.69" width="0.56" height="0.11" fill="none" stroke="#111" stroke-width="1.6"/><rect x="6" y="45.81" width="0.56" height="0.12" fill="none" stroke="#111" stroke-width="1.6"/><rect x="6" y="46.94" width="0.56" height="0.11" fill="none" stroke="#111" stroke-width="1.6"/><rect x="6" y="48.06" width="0.56" height="0.11" fill="none" stroke="#111" stroke-width="1.6"/><rect x="6" y="49.18" width="0.56" height="0.12" fill="none" stroke="#111" stroke-width="1.6"/><rect x="6" y="50.31" width="0.56" height="0.11" fill="none" stroke="#111" stroke-width="1.6"/><rect x="6" y="51.43" width="0.56" height="0.11" fill="none" stroke="#111" stroke-width="1.6"/><rect x="6" y="52.55" width="0.56" height="0.12" fill="none" stroke="#111" stroke-width="1.6"/><rect x="6" y="53.68" width="0.56" height="0.11" fill="none" stroke="#111" stroke-width="1.6"/><rect x="6" y="54.8" width="0.56" height="0.11" fill="none" stroke="#111" stroke-width="1.6"/><rect x="6" y="55.92" width="0.56" height="0.11" fill="none" stroke="#111" stroke-width="1.6"/><rect x="6" y="57.05" width="0.56" height="0.11" fill="none" stroke="#111" stroke-width="1.6"/><polyline points="6.11,58 7.01,58" fill="none" stroke="#111" stroke-width="1.6" stroke-linecap="round" stroke-linejoin="round"/></svg>