<svg xmlns="http://www.w3.org/2000/svg" width="96" height="64" viewBox="0 0 96 64"><rect x="6" y="6" width="32.5" height="52" fill="none" stroke="#111" stroke-width="1.6"/><polyline points="12.5,45 14.12,45" fill="none" stroke="#111" stroke-width="1.6" stroke-linecap="round" stroke-linejoin="round"/><polyline points="12.5,48.25 27.12,48.25 27.12,46.62" fill="none" stroke="#111" stroke-width="1.6" stroke-linecap="round" stroke-linejoin="round"/><circle cx="15.75" cy="28.75" r="0.33" fill="none" stroke="#111" stroke-width="1.6"/><circle cx="17.38" cy="32" r="0.33" fill="none" stroke="#111" stroke-width="1.6"/><circle cx="19" cy="19" r="0.33" fill="none" stroke="#111" stroke-width="1.6"/><polyline points="19,48.25 19,46.62" fill="none" stroke="#111" stroke-width="1.6" stroke-linecap="round" stroke-linejoin="round"/><circle cx="20.62" cy="15.75" r="0.33" fill="none" stroke="#111" stroke-width="1.6"/><polyline points="23.87,45 20.62,43.38 20.62,46.62 23.87,45" fill="none" stroke="#111" stroke-width="1.6" stroke-linecap="round" stroke-linejoin="round"/><polyline points="28.75,27.12 25.5,28.75 20.62,28.75 20.62,15.75" fill="none" stroke="#111" stroke-width="1.6" stroke-linecap="round" stroke-linejoin="round"/><polyline points="28.75,30.38 25.5,32 19,32 19,19" fill="none" stroke="#111" stroke-width="1.6" stroke-linecap="round" stroke-linejoin="round"/><polyline points="28.75,33.62 25.5,35.25 15.75,35.25 15.75,28.75" fill="none" stroke="#111" stroke-width="1.6" stroke-linecap="round" stroke-linejoin="round"/><polyline points="28.75,36.88 25.5,38.5 17.38,38.5 17.38,32" fill="none" stroke="#111" stroke-width="1.6" stroke-linecap="round" stroke-linejoin="round"/><polyline points="14.12,15.75 22.25,15.75 25.5,14.12" fill="none" stroke="#111" stroke-width="1.6" stroke-linecap="round" stroke-linejoin="round"/><polyline points="14.12,19 22.25,19 25.5,17.38" fill="none" stroke="#111" stroke-width="1.6" stroke-linecap="round" stroke-linejoin="round"/><polyline points="14.12,28.75 15.75,28.75 15.75,22.25 22.25,22.25 25.5,20.62" fill="none" stroke="#111" stroke-width="1.6" stroke-linecap="round" stroke-linejoin="round"/><polyline points="14.12,32 17.38,32 17.38,25.5 22.25,25.5 25.5,23.88" fill="none" stroke="#111" stroke-width="1.6" stroke-linecap="round" stroke-linejoin="round"/><circle cx="17.38" cy="45" r="0.33" fill="none" stroke="#111" stroke-width="1.6"/><polyline points="17.38,45 14.12,43.38 14.12,46.62 17.38,45" fill="none" stroke="#111" stroke-width="1.6" stroke-linecap="round" stroke-linejoin="round"/><circle cx="19" cy="45" r="0.33" fill="none" stroke="#111" stroke-width="1.6"/><polyline points="19,45 20.62,45" fill="none" stroke="#111" stroke-width="1.6" stroke-linecap="round" stroke-linejoin="round"/><circle cx="22.25" cy="15.75" r="0.33" fill="none" stroke="#111" stroke-width="1.6"/><circle cx="22.25" cy="19" r="0.33" fill="none" stroke="#111" stroke-width="1.6"/><circle cx="22.25" cy="22.25" r="0.33" fill="none" stroke="#111" stroke-width="1.6"/><circle cx="22.25" cy="25.5" r="0.33" fill="none" stroke="#111" stroke-width="1.6"/><polyline points="23.87,15.75 23.87,17.38" fill="none" stroke="#111" stroke-width="1.6" stroke-linecap="round" stroke-linejoin="round"/><polyline points="23.87,19 23.87,20.62" fill="none" stroke="#111" stroke-width="1.6" stroke-linecap="round" stroke-linejoin="round"/><polyline points="23.87,22.25 23.87,23.88" fill="none" stroke="#111" stroke-width="1.6" stroke-linecap="round" stroke-linejoin="round"/><polyline points="23.87,25.5 23.87,27.12" fill="none" stroke="#111" stroke-width="1.6" stroke-linecap="round" stroke-linejoin="round"/><polyline points="23.87,27.12 23.87,40.12 19,40.12 19,45 17.38,45" fill="none" stroke="#111" stroke-width="1.6" stroke-linecap="round" stroke-linejoin="round"/><polyline points="23.87,45 27.12,45 27.12,38.5" fill="none" stroke="#111" stroke-width="1.6" stroke-linecap="round" stroke-linejoin="round"/><circle cx="23.87" cy="45" r="0.33" fill="none" stroke="#111" stroke-width="1.6"/><circle cx="25.5" cy="28.75" r="0.33" fill="none" stroke="#111" stroke-width="1.6"/><circle cx="25.5" cy="32" r="0.33" fill="none" stroke="#111" stroke-width="1.6"/><circle cx="25.5" cy="35.25" r="0.33" fill="none" stroke="#111" stroke-width="1.6"/><circle cx="25.5" cy="38.5" r="0.33" fill="none" stroke="#111" stroke-width="1.6"/><polyline points="27.12,30.38 27.12,28.75" fill="none" stroke="#111" stroke-width="1.6" stroke-linecap="round" stroke-linejoin="round"/><polyline points="27.12,33.62 27.12,32" fill="none" stroke="#111" stroke-width="1.6" stroke-linecap="round" stroke-linejoin="round"/><polyline points="27.12,36.88 27.12,35.25" fill="none" stroke="#111" stroke-width="1.6" stroke-linecap="round" stroke-linejoin="round"/><polyline points="30.37,15.75 25.5,15.75" fill="none" stroke="#111" stroke-width="1.6" stroke-linecap="round" stroke-linejoin="round"/><polyline points="30.37,19 25.5,19" fill="none" stroke="#111" stroke-width="1.6" stroke-linecap="round" stroke-linejoin="round"/><polyline points="30.37,22.25 25.5,22.25" fill="none" stroke="#111" stroke-width="1.6" stroke-linecap="round" stroke-linejoin="round"/><polyline points="30.37,25.5 25.5,25.5" fill="none" stroke="#111" stroke-width="1.6" stroke-linecap="round" stroke-linejoin="round"/><polyline points="30.37,28.75 28.75,28.75" fill="none" stroke="#111" stroke-width="1.6" stroke-linecap="round" stroke-linejoin="round"/><polyline points="30.37,32 28.75,32" fill="none" stroke="#111" stroke-width="1.6" stroke-linecap="round" stroke-linejoin="round"/><polyline points="30.37,35.25 28.75,35.25" fill="none" stroke="#111" stroke-width="1.6" stroke-linecap="round" stroke-linejoin="round"/><polyline points="30.37,38.5 28.75,38.5" fill="none" stroke="#111" stroke-width="1.6" stroke-linecap="round" stroke-linejoin="round"/></svg>