<svg xmlns="http://www.w3.org/2000/svg" width="96" height="64" viewBox="0 0 96 64"><rect x="6" y="6" width="26" height="52" fill="none" stroke="#111" stroke-width="1.6"/><polyline points="16.4,42.83 12.72,42.83" fill="none" stroke="#111" stroke-width="1.6" stroke-linecap="round" stroke-linejoin="round"/><polyline points="16.4,47.17 12.72,47.17" fill="none" stroke="#111" stroke-width="1.6" stroke-linecap="round" stroke-linejoin="round"/><polyline points="16.4,51.5 12.72,51.5" fill="none" stroke="#111" stroke-width="1.6" stroke-linecap="round" stroke-linejoin="round"/><polyline points="16.62,23.88 16.62,27.12 19.87,25.5 16.62,23.88" fill="none" stroke="#111" stroke-width="1.6" stroke-linecap="round" stroke-linejoin="round"/><polyline points="16.62,25.5 12.93,25.5" fill="none" stroke="#111" stroke-width="1.6" stroke-linecap="round" stroke-linejoin="round"/><polyline points="16.62,28.21 16.62,31.46 19.87,29.83 16.62,28.21" fill="none" stroke="#111" stroke-width="1.6" stroke-linecap="round" stroke-linejoin="round"/><polyline points="16.62,29.83 12.83,29.83" fill="none" stroke="#111" stroke-width="1.6" stroke-linecap="round" stroke-linejoin="round"/><polyline points="16.62,32.54 16.62,35.79 19.87,34.17 16.62,32.54" fill="none" stroke="#111" stroke-width="1.6" stroke-linecap="round" stroke-linejoin="round"/><polyline points="16.62,34.17 12.83,34.17" fill="none" stroke="#111" stroke-width="1.6" stroke-linecap="round" stroke-linejoin="round"/><polyline points="16.62,36.88 16.62,40.12 19.87,38.5 16.62,36.88" fill="none" stroke="#111" stroke-width="1.6" stroke-linecap="round" stroke-linejoin="round"/><polyline points="16.62,38.5 12.83,38.5" fill="none" stroke="#111" stroke-width="1.6" stroke-linecap="round" stroke-linejoin="round"/><circle cx="17.05" cy="42.83" r="0.54" fill="none" stroke="#111" stroke-width="1.6"/><circle cx="17.05" cy="47.17" r="0.54" fill="none" stroke="#111" stroke-width="1.6"/><circle cx="17.05" cy="51.5" r="0.54" fill="none" stroke="#111" stroke-width="1.6"/><circle cx="20.41" cy="25.5" r="0.54" fill="none" stroke="#111" stroke-width="1.6"/><circle cx="20.41" cy="29.83" r="0.54" fill="none" stroke="#111" stroke-width="1.6"/><circle cx="20.41" cy="34.17" r="0.54" fill="none" stroke="#111" stroke-width="1.6"/><circle cx="20.41" cy="38.5" r="0.54" fill="none" stroke="#111" stroke-width="1.6"/><polyline points="20.84,41.21 20.84,44.46 17.59,42.83 20.84,41.21" fill="none" stroke="#111" stroke-width="1.6" stroke-linecap="round" stroke-linejoin="round"/><polyline points="20.84,42.83 24.63,42.83" fill="none" stroke="#111" stroke-width="1.6" stroke-linecap="round" stroke-linejoin="round"/><polyline points="20.84,45.54 20.84,48.79 17.59,47.17 20.84,45.54" fill="none" stroke="#111" stroke-width="1.6" stroke-linecap="round" stroke-linejoin="round"/><polyline points="20.84,47.17 24.63,47.17" fill="none" stroke="#111" stroke-width="1.6" stroke-linecap="round" stroke-linejoin="round"/><polyline points="20.84,49.88 20.84,53.13 17.59,51.5 20.84,49.88" fill="none" stroke="#111" stroke-width="1.6" stroke-linecap="round" stroke-linejoin="round"/><polyline points="20.84,51.5 24.63,51.5" fill="none" stroke="#111" stroke-width="1.6" stroke-linecap="round" stroke-linejoin="round"/><polyline points="24.63,25.5 20.95,25.5" fill="none" stroke="#111" stroke-width="1.6" stroke-linecap="round" stroke-linejoin="round"/><polyline points="24.63,29.83 20.95,29.83" fill="none" stroke="#111" stroke-width="1.6" stroke-linecap="round" stroke-linejoin="round"/><polyline points="24.63,34.17 20.95,34.17" fill="none" stroke="#111" stroke-width="1.6" stroke-linecap="round" stroke-linejoin="round"/><polyline points="24.63,38.5 20.95,38.5" fill="none" stroke="#111" stroke-width="1.6" stroke-linecap="round" stroke-linejoin="round"/></svg>