<svg xmlns="http://www.w3.org/2000/svg" width="96" height="64" viewBox="0 0 96 64"><rect x="6" y="6" width="0.32" height="0.09" fill="none" stroke="#111" stroke-width="1.6"/><rect x="6" y="6.93" width="0.32" height="0.09" fill="none" stroke="#111" stroke-width="1.6"/><rect x="6" y="7.85" width="0.32" height="0.1" fill="none" stroke="#111" stroke-width="1.6"/><rect x="6" y="8.78" width="0.32" height="0.09" fill="none" stroke="#111" stroke-width="1.6"/><rect x="6" y="9.71" width="0.32" height="0.09" fill="none" stroke="#111" stroke-width="1.6"/><rect x="6" y="10.63" width="0.32" height="0.1" fill="none" stroke="#111" stroke-width="1.6"/><rect x="6" y="11.56" width="0.32" height="0.09" fill="none" stroke="#111" stroke-width="1.6"/><rect x="6" y="12.49" width="0.32" height="0.09" fill="none" stroke="#111" stroke-width="1.6"/><rect x="6" y="13.42" width="0.32" height="0.09" fill="none" stroke="#111" stroke-width="1.6"/><rect x="6" y="14.34" width="0.32" height="0.09" fill="none" stroke="#111" stroke-width="1.6"/><rect x="6" y="15.27" width="0.32" height="0.09" fill="none" stroke="#111" stroke-width="1.6"/><rect x="6" y="16.2" width="0.32" height="0.09" fill="none" stroke="#111" stroke-width="1.6"/><rect x="6" y="17.12" width="0.32" height="0.1" fill="none" stroke="#111" stroke-width="1.6"/><rect x="6" y="18.05" width="0.32" height="0.09" fill="none" stroke="#111" stroke-width="1.6"/><rect x="6" y="18.98" width="0.32" height="0.09" fill="none" stroke="#111" stroke-width="1.6"/><rect x="6" y="19.9" width="0.32" height="0.1" fill="none" stroke="#111" stroke-width="1.6"/><rect x="6" y="20.83" width="0.32" height="0.09" fill="none" stroke="#111" stroke-width="1.6"/><rect x="6" y="21.76" width="0.32" height="0.09" fill="none" stroke="#111" stroke-width="1.6"/><rect x="6" y="22.68" width="0.32" height="0.1" fill="none" stroke="#111" stroke-width="1.6"/><rect x="6" y="23.61" width="0.32" height="0.09" fill="none" stroke="#111" stroke-width="1.6"/><rect x="6" y="24.54" width="0.32" height="0.09" fill="none" stroke="#111" stroke-width="1.6"/><rect x="6" y="25.47" width="0.32" height="0.09" fill="none" stroke="#111" stroke-width="1.6"/><rect x="6" y="26.39" width="0.32" height="0.09" fill="none" stroke="#111" stroke-width="1.6"/><rect x="6" y="27.32" width="0.32" height="0.09" fill="none" stroke="#111" stroke-width="1.6"/><rect x="6" y="28.25" width="0.32" height="0.09" fill="none" stroke="#111" stroke-width="1.6"/><rect x="6" y="29.17" width="0.32" height="0.1" fill="none" stroke="#111" stroke-width="1.6"/><rect x="6" y="30.1" width="0.32" height="0.09" fill="none" stroke="#111" stroke-width="1.6"/><rect x="6" y="31.03" width="0.32" height="0.09" fill="none" stroke="#111" stroke-width="1.6"/><rect x="6" y="31.95" width="0.32" height="0.1" fill="none" stroke="#111" stroke-width="1.6"/><rect x="6" y="32.88" width="0.32" height="0.09" fill="none" stroke="#111" stroke-width="1.6"/><rect x="6" y="33.81" width="0.32" height="0.09" fill="none" stroke="#111" stroke-width="1.6"/><rect x="6" y="34.73" width="0.32" height="0.1" fill="none" stroke="#111" stroke-width="1.6"/><rect x="6" y="35.66" width="0.32" height="0.09" fill="none" stroke="#111" stroke-width="1.6"/><rect x="6" y="36.59" width="0.32" height="0.09" fill="none" stroke="#111" stroke-width="1.6"/><rect x="6" y="37.52" width="0.32" height="0.09" fill="none" stroke="#111" stroke-width="1.6"/><rect x="6" y="38.44" width="0.32" height="0.09" fill="none" stroke="#111" stroke-width="1.6"/><rect x="6" y="39.37" width="0.32" height="0.09" fill="none" stroke="#111" stroke-width="1.6"/><rect x="6" y="40.3" width="0.32" height="0.09" fill="none" stroke="#111" stroke-width="1.6"/><rect x="6" y="41.22" width="0.32" height="0.1" fill="none" stroke="#111" stroke-width="1.6"/><rect x="6" y="42.15" width="0.32" height="0.09" fill="none" stroke="#111" stroke-width="1.6"/><rect x="6" y="43.08" width="0.32" height="0.09" fill="none" stroke="#111" stroke-width="1.6"/><rect x="6" y="44" width="0.32" height="0.1" fill="none" stroke="#111" stroke-width="1.6"/><rect x="6" y="44.93" width="0.32" height="0.09" fill="none" stroke="#111" stroke-width="1.6"/><rect x="6" y="45.86" width="0.32" height="0.09" fill="none" stroke="#111" stroke-width="1.6"/><rect x="6" y="46.78" width="0.32" height="0.1" fill="none" stroke="#111" stroke-width="1.6"/><rect x="6" y="47.71" width="0.32" height="0.09" fill="none" stroke="#111" stroke-width="1.6"/><rect x="6" y="48.64" width="0.32" height="0.09" fill="none" stroke="#111" stroke-width="1.6"/><rect x="6" y="49.57" width="0.32" height="0.09" fill="none" stroke="#111" stroke-width="1.6"/><rect x="6" y="50.49" width="0.32" height="0.09" fill="none" stroke="#111" stroke-width="1.6"/><rect x="6" y="51.42" width="0.32" height="0.09" fill="none" stroke="#111" stroke-width="1.6"/><rect x="6" y="52.35" width="0.32" height="0.09" fill="none" stroke="#111" stroke-width="1.6"/><rect x="6" y="53.27" width="0.32" height="0.1" fill="none" stroke="#111" stroke-width="1.6"/><rect x="6" y="54.2" width="0.32" height="0.09" fill="none" stroke="#111" stroke-width="1.6"/><rect x="6" y="55.13" width="0.32" height="0.09" fill="none" stroke="#111" stroke-width="1.6"/><rect x="6" y="56.05" width="0.32" height="0.1" fill="none" stroke="#111" stroke-width="1.6"/><rect x="6" y="56.98" width="0.32" height="0.09" fill="none" stroke="#111" stroke-width="1.6"/><rect x="6" y="57.91" width="0.32" height="0.09" fill="none" stroke="#111" stroke-width="1.6"/><polyline points="6.46,6.05 6.32,6.05" fill="none" stroke="#111" stroke-width="1.6" stroke-linecap="round" stroke-linejoin="round"/><polyline points="6.46,6.97 6.32,6.97" fill="none" stroke="#111" stroke-width="1.6" stroke-linecap="round" stroke-linejoin="round"/><polyline points="6.46,7.9 6.32,7.9" fill="none" stroke="#111" stroke-width="1.6" stroke-linecap="round" stroke-linejoin="round"/><polyline points="6.46,8.83 6.32,8.83" fill="none" stroke="#111" stroke-width="1.6" stroke-linecap="round" stroke-linejoin="round"/><polyline points="6.46,9.75 6.32,9.75" fill="none" stroke="#111" stroke-width="1.6" stroke-linecap="round" stroke-linejoin="round"/><polyline points="6.46,10.68 6.32,10.68" fill="none" stroke="#111" stroke-width="1.6" stroke-linecap="round" stroke-linejoin="round"/><polyline points="6.46,11.61 6.32,11.61" fill="none" stroke="#111" stroke-width="1.6" stroke-linecap="round" stroke-linejoin="round"/><polyline points="6.46,12.53 6.32,12.53" fill="none" stroke="#111" stroke-width="1.6" stroke-linecap="round" stroke-linejoin="round"/><polyline points="6.46,13.46 6.32,13.46" fill="none" stroke="#111" stroke-width="1.6" stroke-linecap="round" stroke-linejoin="round"/><polyline points="6.46,14.39 6.32,14.39" fill="none" stroke="#111" stroke-width="1.6" stroke-linecap="round" stroke-linejoin="round"/><polyline points="6.46,15.32 6.32,15.32" fill="none" stroke="#111" stroke-width="1.6" stroke-linecap="round" stroke-linejoin="round"/><polyline points="6.46,16.24 6.32,16.24" fill="none" stroke="#111" stroke-width="1.6" stroke-linecap="round" stroke-linejoin="round"/><polyline points="6.46,17.17 6.32,17.17" fill="none" stroke="#111" stroke-width="1.6" stroke-linecap="round" stroke-linejoin="round"/><polyline points="6.46,18.1 6.32,18.1" fill="none" stroke="#111" stroke-width="1.6" stroke-linecap="round" stroke-linejoin="round"/><polyline points="6.46,19.02 6.32,19.02" fill="none" stroke="#111" stroke-width="1.6" stroke-linecap="round" stroke-linejoin="round"/><polyline points="6.46,19.95 6.32,19.95" fill="none" stroke="#111" stroke-width="1.6" stroke-linecap="round" stroke-linejoin="round"/><polyline points="6.46,20.88 6.32,20.88" fill="none" stroke="#111" stroke-width="1.6" stroke-linecap="round" stroke-linejoin="round"/><polyline points="6.46,21.8 6.32,21.8" fill="none" stroke="#111" stroke-width="1.6" stroke-linecap="round" stroke-linejoin="round"/><polyline points="6.46,22.73 6.32,22.73" fill="none" stroke="#111" stroke-width="1.6" stroke-linecap="round" stroke-linejoin="round"/><polyline points="6.46,23.66 6.32,23.66" fill="none" stroke="#111" stroke-width="1.6" stroke-linecap="round" stroke-linejoin="round"/><polyline points="6.46,24.58 6.32,24.58" fill="none" stroke="#111" stroke-width="1.6" stroke-linecap="round" stroke-linejoin="round"/><polyline points="6.46,25.51 6.32,25.51" fill="none" stroke="#111" stroke-width="1.6" stroke-linecap="round" stroke-linejoin="round"/><polyline points="6.46,26.44 6.32,26.44" fill="none" stroke="#111" stroke-width="1.6" stroke-linecap="round" stroke-linejoin="round"/><polyline points="6.46,27.37 6.32,27.37" fill="none" stroke="#111" stroke-width="1.6" stroke-linecap="round" stroke-linejoin="round"/><polyline points="6.46,28.29 6.32,28.29" fill="none" stroke="#111" stroke-width="1.6" stroke-linecap="round" stroke-linejoin="round"/><polyline points="6.46,29.22 6.32,29.22" fill="none" stroke="#111" stroke-width="1.6" stroke-linecap="round" stroke-linejoin="round"/><polyline points="6.46,30.15 6.32,30.15" fill="none" stroke="#111" stroke-width="1.6" stroke-linecap="round" stroke-linejoin="round"/><polyline points="6.46,31.07 6.32,31.07" fill="none" stroke="#111" stroke-width="1.6" stroke-linecap="round" stroke-linejoin="round"/><polyline points="6.46,32 6.32,32" fill="none" stroke="#111" stroke-width="1.6" stroke-linecap="round" stroke-linejoin="round"/><polyline points="6.46,32.93 6.32,32.93" fill="none" stroke="#111" stroke-width="1.6" stroke-linecap="round" stroke-linejoin="round"/><polyline points="6.46,33.85 6.32,33.85" fill="none" stroke="#111" stroke-width="1.6" stroke-linecap="round" stroke-linejoin="round"/><polyline points="6.46,34.78 6.32,34.78" fill="none" stroke="#111" stroke-width="1.6" stroke-linecap="round" stroke-linejoin="round"/><polyline points="6.46,35.71 6.32,35.71" fill="none" stroke="#111" stroke-width="1.6" stroke-linecap="round" stroke-linejoin="round"/><polyline points="6.46,36.63 6.32,36.63" fill="none" stroke="#111" stroke-width="1.6" stroke-linecap="round" stroke-linejoin="round"/><polyline points="6.46,37.56 6.32,37.56" fill="none" stroke="#111" stroke-width="1.6" stroke-linecap="round" stroke-linejoin="round"/><polyline points="6.46,38.49 6.32,38.49" fill="none" stroke="#111" stroke-width="1.6" stroke-linecap="round" stroke-linejoin="round"/><polyline points="6.46,39.42 6.32,39.42" fill="none" stroke="#111" stroke-width="1.6" stroke-linecap="round" stroke-linejoin="round"/><polyline points="6.46,40.34 6.32,40.34" fill="none" stroke="#111" stroke-width="1.6" stroke-linecap="round" stroke-linejoin="round"/><polyline points="6.46,41.27 6.32,41.27" fill="none" stroke="#111" stroke-width="1.6" stroke-linecap="round" stroke-linejoin="round"/><polyline points="6.46,42.2 6.32,42.2" fill="none" stroke="#111" stroke-width="1.6" stroke-linecap="round" stroke-linejoin="round"/><polyline points="6.46,43.12 6.32,43.12" fill="none" stroke="#111" stroke-width="1.6" stroke-linecap="round" stroke-linejoin="round"/><polyline points="6.46,44.05 6.32,44.05" fill="none" stroke="#111" stroke-width="1.6" stroke-linecap="round" stroke-linejoin="round"/><polyline points="6.46,44.98 6.32,44.98" fill="none" stroke="#111" stroke-width="1.6" stroke-linecap="round" stroke-linejoin="round"/><polyline points="6.46,45.9 6.32,45.9" fill="none" stroke="#111" stroke-width="1.6" stroke-linecap="round" stroke-linejoin="round"/><polyline points="6.46,46.83 6.32,46.83" fill="none" stroke="#111" stroke-width="1.6" stroke-linecap="round" stroke-linejoin="round"/><polyline points="6.46,47.76 6.32,47.76" fill="none" stroke="#111" stroke-width="1.6" stroke-linecap="round" stroke-linejoin="round"/><polyline points="6.46,48.68 6.32,48.68" fill="none" stroke="#111" stroke-width="1.6" stroke-linecap="round" stroke-linejoin="round"/><polyline points="6.46,49.61 6.32,49.61" fill="none" stroke="#111" stroke-width="1.6" stroke-linecap="round" stroke-linejoin="round"/><polyline points="6.46,50.54 6.32,50.54" fill="none" stroke="#111" stroke-width="1.6" stroke-linecap="round" stroke-linejoin="round"/><polyline points="6.46,51.47 6.32,51.47" fill="none" stroke="#111" stroke-width="1.6" stroke-linecap="round" stroke-linejoin="round"/><polyline points="6.46,52.39 6.32,52.39" fill="none" stroke="#111" stroke-width="1.6" stroke-linecap="round" stroke-linejoin="round"/><polyline points="6.46,53.32 6.32,53.32" fill="none" stroke="#111" stroke-width="1.6" stroke-linecap="round" stroke-linejoin="round"/><polyline points="6.46,54.25 6.32,54.25" fill="none" stroke="#111" stroke-width="1.6" stroke-linecap="round" stroke-linejoin="round"/><polyline points="6.46,55.17 6.32,55.17" fill="none" stroke="#111" stroke-width="1.6" stroke-linecap="round" stroke-linejoin="round"/><polyline points="6.46,56.1 6.32,56.1" fill="none" stroke="#111" stroke-width="1.6" stroke-linecap="round" stroke-linejoin="round"/><polyline points="6.46,57.03 6.32,57.03" fill="none" stroke="#111" stroke-width="1.6" stroke-linecap="round" stroke-linejoin="round"/><polyline points="6.46,57.95 6.32,57.95" fill="none" stroke="#111" stroke-width="1.6" stroke-linecap="round" stroke-linejoin="round"/></svg>