<svg xmlns="http://www.w3.org/2000/svg" width="96" height="64" viewBox="0 0 96 64"><rect x="14.11" y="57.17" width="0.42" height="0.83" fill="none" stroke="#111" stroke-width="1.6"/><rect x="21.81" y="7.87" width="0.83" height="0.42" fill="none" stroke="#111" stroke-width="1.6"/><rect x="21.81" y="12.03" width="0.83" height="0.42" fill="none" stroke="#111" stroke-width="1.6"/><rect x="21.81" y="14.11" width="0.83" height="0.42" fill="none" stroke="#111" stroke-width="1.6"/><rect x="21.81" y="18.27" width="0.83" height="0.42" fill="none" stroke="#111" stroke-width="1.6"/><rect x="21.81" y="22.43" width="0.83" height="0.42" fill="none" stroke="#111" stroke-width="1.6"/><rect x="21.81" y="28.67" width="0.83" height="0.42" fill="none" stroke="#111" stroke-width="1.6"/><rect x="21.81" y="30.75" width="0.83" height="0.42" fill="none" stroke="#111" stroke-width="1.6"/><rect x="21.81" y="34.91" width="0.83" height="0.42" fill="none" stroke="#111" stroke-width="1.6"/><rect x="21.81" y="36.99" width="0.83" height="0.42" fill="none" stroke="#111" stroke-width="1.6"/><rect x="21.81" y="41.15" width="0.83" height="0.42" fill="none" stroke="#111" stroke-width="1.6"/><rect x="21.81" y="43.23" width="0.83" height="0.42" fill="none" stroke="#111" stroke-width="1.6"/><rect x="21.81" y="47.39" width="0.83" height="0.42" fill="none" stroke="#111" stroke-width="1.6"/><rect x="21.81" y="49.47" width="0.83" height="0.42" fill="none" stroke="#111" stroke-width="1.6"/><rect x="21.81" y="53.63" width="0.83" height="0.42" fill="none" stroke="#111" stroke-width="1.6"/><rect x="21.81" y="55.71" width="0.83" height="0.42" fill="none" stroke="#111" stroke-width="1.6"/><rect x="6" y="6" width="16.64" height="52" fill="none" stroke="#111" stroke-width="1.6"/><polyline points="7.04,32 7.04,25.76" fill="none" stroke="#111" stroke-width="1.6" stroke-linecap="round" stroke-linejoin="round"/><rect x="8.08" y="25.76" width="1.04" height="6.24" fill="none" stroke="#111" stroke-width="1.6"/><path d="M 8.08 25.76 Q 8.6 25.24 9.12 25.76" fill="none" stroke="#111" stroke-width="1.6" stroke-linecap="round"/><path d="M 8.08 25.76 Q 8.6 25.24 9.12 25.76" fill="none" stroke="#111" stroke-width="1.6" stroke-linecap="round"/><path d="M 7.04 25.76 Q 8.6 24.21 10.16 25.76" fill="none" stroke="#111" stroke-width="1.6" stroke-linecap="round"/><path d="M 10.16 32 Q 8.6 33.55 7.04 32" fill="none" stroke="#111" stroke-width="1.6" stroke-linecap="round"/><path d="M 9.12 32 Q 8.6 32.52 8.08 32" fill="none" stroke="#111" stroke-width="1.6" stroke-linecap="round"/><path d="M 9.12 32 Q 8.6 32.52 8.08 32" fill="none" stroke="#111" stroke-width="1.6" stroke-linecap="round"/><polyline points="10.16,25.76 10.16,32" fill="none" stroke="#111" stroke-width="1.6" stroke-linecap="round" stroke-linejoin="round"/><circle cx="12.24" cy="27.94" r="0.52" fill="none" stroke="#111" stroke-width="1.6"/><polyline points="13.28,25.34 14.32,23.26 15.36,25.34 13.28,25.34" fill="none" stroke="#111" stroke-width="1.6" stroke-linecap="round" stroke-linejoin="round"/><polyline points="14.32,30.54 16.4,28.46 16.4,27.42" fill="none" stroke="#111" stroke-width="1.6" stroke-linecap="round" stroke-linejoin="round"/><polyline points="14.32,31.58 12.24,29.5 12.24,28.46" fill="none" stroke="#111" stroke-width="1.6" stroke-linecap="round" stroke-linejoin="round"/><polyline points="14.32,33.66 14.32,25.34" fill="none" stroke="#111" stroke-width="1.6" stroke-linecap="round" stroke-linejoin="round"/><circle cx="14.32" cy="33.66" r="1.04" fill="none" stroke="#111" stroke-width="1.6"/><rect x="15.88" y="26.38" width="1.04" height="1.04" fill="none" stroke="#111" stroke-width="1.6"/></svg>