<svg xmlns="http://www.w3.org/2000/svg" width="96" height="64" viewBox="0 0 96 64"><rect x="6" y="6" width="84" height="35" fill="none" stroke="#111" stroke-width="1.6"/><circle cx="13" cy="10.9" r="1.4" fill="none" stroke="#111" stroke-width="1.6"/><polyline points="13,10.9 83,10.9" fill="none" stroke="#111" stroke-width="1.6" stroke-linecap="round" stroke-linejoin="round"/><polyline points="13,10.9 13,15.1 17.2,17.06 8.8,20.7 17.2,24.34 8.8,28.12 17.2,31.9 8.8,35.54 13,37.5 13,44.5" fill="none" stroke="#111" stroke-width="1.6" stroke-linecap="round" stroke-linejoin="round"/><circle cx="27" cy="10.9" r="1.4" fill="none" stroke="#111" stroke-width="1.6"/><polyline points="27,10.9 27,15.1 31.2,17.06 22.8,20.7 31.2,24.34 22.8,28.12 31.2,31.9 22.8,35.54 27,37.5 27,44.5" fill="none" stroke="#111" stroke-width="1.6" stroke-linecap="round" stroke-linejoin="round"/><circle cx="41" cy="10.9" r="1.4" fill="none" stroke="#111" stroke-width="1.6"/><polyline points="41,10.9 41,15.1 45.2,17.06 36.8,20.7 45.2,24.34 36.8,28.12 45.2,31.9 36.8,35.54 41,37.5 41,44.5" fill="none" stroke="#111" stroke-width="1.6" stroke-linecap="round" stroke-linejoin="round"/><circle cx="55" cy="10.9" r="1.4" fill="none" stroke="#111" stroke-width="1.6"/><polyline points="55,10.9 55,15.1 59.2,17.06 50.8,20.7 59.2,24.34 50.8,28.12 59.2,31.9 50.8,35.54 55,37.5 55,44.5" fill="none" stroke="#111" stroke-width="1.6" stroke-linecap="round" stroke-linejoin="round"/><polyline points="69,10.9 69,15.1 73.2,17.06 64.8,20.7 73.2,24.34 64.8,28.12 73.2,31.9 64.8,35.54 69,37.5 69,44.5" fill="none" stroke="#111" stroke-width="1.6" stroke-linecap="round" stroke-linejoin="round"/><circle cx="69" cy="10.9" r="1.4" fill="none" stroke="#111" stroke-width="1.6"/><polyline points="83,10.9 83,15.1 87.2,17.06 78.8,20.7 87.2,24.34 78.8,28.12 87.2,31.9 78.8,35.54 83,37.5 83,44.5" fill="none" stroke="#111" stroke-width="1.6" stroke-linecap="round" stroke-linejoin="round"/></svg>