<svg xmlns="http://www.w3.org/2000/svg" width="96" height="64" viewBox="0 0 96 64"><polyline points="6,6.91 7.37,6.91" fill="none" stroke="#111" stroke-width="1.6" stroke-linecap="round" stroke-linejoin="round"/><polyline points="6,11.47 7.37,11.47" fill="none" stroke="#111" stroke-width="1.6" stroke-linecap="round" stroke-linejoin="round"/><polyline points="6,16.04 7.37,16.04" fill="none" stroke="#111" stroke-width="1.6" stroke-linecap="round" stroke-linejoin="round"/><polyline points="6,20.6 7.37,20.6" fill="none" stroke="#111" stroke-width="1.6" stroke-linecap="round" stroke-linejoin="round"/><polyline points="6,25.16 7.37,25.16" fill="none" stroke="#111" stroke-width="1.6" stroke-linecap="round" stroke-linejoin="round"/><polyline points="6,29.72 7.37,29.72" fill="none" stroke="#111" stroke-width="1.6" stroke-linecap="round" stroke-linejoin="round"/><polyline points="6,34.28 7.37,34.28" fill="none" stroke="#111" stroke-width="1.6" stroke-linecap="round" stroke-linejoin="round"/><polyline points="6,38.84 7.37,38.84" fill="none" stroke="#111" stroke-width="1.6" stroke-linecap="round" stroke-linejoin="round"/><polyline points="6,43.4 7.37,43.4" fill="none" stroke="#111" stroke-width="1.6" stroke-linecap="round" stroke-linejoin="round"/><polyline points="6,47.96 7.37,47.96" fill="none" stroke="#111" stroke-width="1.6" stroke-linecap="round" stroke-linejoin="round"/><polyline points="6,52.53 7.37,52.53" fill="none" stroke="#111" stroke-width="1.6" stroke-linecap="round" stroke-linejoin="round"/><polyline points="6,57.09 7.37,57.09" fill="none" stroke="#111" stroke-width="1.6" stroke-linecap="round" stroke-linejoin="round"/><path d="M 8.28 7.82 Q 7.37 6.91 8.28 6" fill="none" stroke="#111" stroke-width="1.6" stroke-linecap="round"/><path d="M 8.28 12.39 Q 7.37 11.47 8.28 10.56" fill="none" stroke="#111" stroke-width="1.6" stroke-linecap="round"/><path d="M 8.28 16.95 Q 7.37 16.04 8.28 15.12" fill="none" stroke="#111" stroke-width="1.6" stroke-linecap="round"/><path d="M 8.28 21.51 Q 7.37 20.6 8.28 19.68" fill="none" stroke="#111" stroke-width="1.6" stroke-linecap="round"/><path d="M 8.28 26.07 Q 7.37 25.16 8.28 24.25" fill="none" stroke="#111" stroke-width="1.6" stroke-linecap="round"/><path d="M 8.28 30.63 Q 7.37 29.72 8.28 28.81" fill="none" stroke="#111" stroke-width="1.6" stroke-linecap="round"/><path d="M 8.28 35.19 Q 7.37 34.28 8.28 33.37" fill="none" stroke="#111" stroke-width="1.6" stroke-linecap="round"/><path d="M 8.28 39.75 Q 7.37 38.84 8.28 37.93" fill="none" stroke="#111" stroke-width="1.6" stroke-linecap="round"/><path d="M 8.28 44.32 Q 7.37 43.4 8.28 42.49" fill="none" stroke="#111" stroke-width="1.6" stroke-linecap="round"/><path d="M 8.28 48.88 Q 7.37 47.96 8.28 47.05" fill="none" stroke="#111" stroke-width="1.6" stroke-linecap="round"/><path d="M 8.28 53.44 Q 7.37 52.53 8.28 51.61" fill="none" stroke="#111" stroke-width="1.6" stroke-linecap="round"/><path d="M 8.28 58 Q 7.37 57.09 8.28 56.18" fill="none" stroke="#111" stroke-width="1.6" stroke-linecap="round"/></svg>