<svg xmlns="http://www.w3.org/2000/svg" width="96" height="64" viewBox="0 0 96 64"><rect x="6" y="6" width="2.81" height="52" fill="none" stroke="#111" stroke-width="1.6"/><rect x="6.14" y="6.14" width="2.53" height="51.72" fill="none" stroke="#111" stroke-width="1.6"/><rect x="6.14" y="6.63" width="0.7" height="0.14" fill="none" stroke="#111" stroke-width="1.6"/><rect x="6.14" y="8.04" width="0.7" height="0.14" fill="none" stroke="#111" stroke-width="1.6"/><rect x="6.14" y="9.44" width="0.7" height="0.14" fill="none" stroke="#111" stroke-width="1.6"/><rect x="6.14" y="10.85" width="0.7" height="0.14" fill="none" stroke="#111" stroke-width="1.6"/><rect x="6.14" y="12.25" width="0.7" height="0.14" fill="none" stroke="#111" stroke-width="1.6"/><rect x="6.14" y="13.66" width="0.7" height="0.14" fill="none" stroke="#111" stroke-width="1.6"/><rect x="6.14" y="15.06" width="0.7" height="0.15" fill="none" stroke="#111" stroke-width="1.6"/><rect x="6.14" y="16.47" width="0.7" height="0.14" fill="none" stroke="#111" stroke-width="1.6"/><rect x="6.14" y="17.88" width="0.7" height="0.14" fill="none" stroke="#111" stroke-width="1.6"/><rect x="6.14" y="19.28" width="0.7" height="0.14" fill="none" stroke="#111" stroke-width="1.6"/><rect x="6.14" y="20.69" width="0.7" height="0.14" fill="none" stroke="#111" stroke-width="1.6"/><rect x="6.14" y="22.09" width="0.7" height="0.14" fill="none" stroke="#111" stroke-width="1.6"/><rect x="6.14" y="23.5" width="0.7" height="0.14" fill="none" stroke="#111" stroke-width="1.6"/><rect x="6.14" y="24.9" width="0.7" height="0.14" fill="none" stroke="#111" stroke-width="1.6"/><rect x="6.14" y="26.31" width="0.7" height="0.14" fill="none" stroke="#111" stroke-width="1.6"/><rect x="6.14" y="27.71" width="0.7" height="0.14" fill="none" stroke="#111" stroke-width="1.6"/><rect x="6.14" y="29.12" width="0.7" height="0.14" fill="none" stroke="#111" stroke-width="1.6"/><rect x="6.14" y="30.52" width="0.7" height="0.14" fill="none" stroke="#111" stroke-width="1.6"/><rect x="6.14" y="31.93" width="0.7" height="0.14" fill="none" stroke="#111" stroke-width="1.6"/><rect x="6.14" y="33.34" width="0.7" height="0.14" fill="none" stroke="#111" stroke-width="1.6"/><rect x="6.14" y="34.74" width="0.7" height="0.14" fill="none" stroke="#111" stroke-width="1.6"/><rect x="6.14" y="36.15" width="0.7" height="0.14" fill="none" stroke="#111" stroke-width="1.6"/><rect x="6.14" y="37.55" width="0.7" height="0.14" fill="none" stroke="#111" stroke-width="1.6"/><rect x="6.14" y="38.96" width="0.7" height="0.14" fill="none" stroke="#111" stroke-width="1.6"/><rect x="6.14" y="40.36" width="0.7" height="0.14" fill="none" stroke="#111" stroke-width="1.6"/><rect x="6.14" y="41.77" width="0.7" height="0.14" fill="none" stroke="#111" stroke-width="1.6"/><rect x="6.14" y="43.17" width="0.7" height="0.14" fill="none" stroke="#111" stroke-width="1.6"/><rect x="6.14" y="44.58" width="0.7" height="0.14" fill="none" stroke="#111" stroke-width="1.6"/><rect x="6.14" y="45.98" width="0.7" height="0.14" fill="none" stroke="#111" stroke-width="1.6"/><rect x="6.14" y="47.39" width="0.7" height="0.14" fill="none" stroke="#111" stroke-width="1.6"/><rect x="6.14" y="48.79" width="0.7" height="0.15" fill="none" stroke="#111" stroke-width="1.6"/><rect x="6.14" y="50.2" width="0.7" height="0.14" fill="none" stroke="#111" stroke-width="1.6"/><rect x="6.14" y="51.61" width="0.7" height="0.14" fill="none" stroke="#111" stroke-width="1.6"/><rect x="6.14" y="53.01" width="0.7" height="0.14" fill="none" stroke="#111" stroke-width="1.6"/><rect x="6.14" y="54.42" width="0.7" height="0.14" fill="none" stroke="#111" stroke-width="1.6"/><rect x="6.14" y="55.82" width="0.7" height="0.14" fill="none" stroke="#111" stroke-width="1.6"/><rect x="6.14" y="57.23" width="0.7" height="0.14" fill="none" stroke="#111" stroke-width="1.6"/><rect x="7.97" y="6.63" width="0.7" height="0.14" fill="none" stroke="#111" stroke-width="1.6"/><rect x="7.97" y="8.04" width="0.7" height="0.14" fill="none" stroke="#111" stroke-width="1.6"/><rect x="7.97" y="9.44" width="0.7" height="0.14" fill="none" stroke="#111" stroke-width="1.6"/><rect x="7.97" y="10.85" width="0.7" height="0.14" fill="none" stroke="#111" stroke-width="1.6"/><rect x="7.97" y="12.25" width="0.7" height="0.14" fill="none" stroke="#111" stroke-width="1.6"/><rect x="7.97" y="13.66" width="0.7" height="0.14" fill="none" stroke="#111" stroke-width="1.6"/><rect x="7.97" y="15.06" width="0.7" height="0.15" fill="none" stroke="#111" stroke-width="1.6"/><rect x="7.97" y="16.47" width="0.7" height="0.14" fill="none" stroke="#111" stroke-width="1.6"/><rect x="7.97" y="17.88" width="0.7" height="0.14" fill="none" stroke="#111" stroke-width="1.6"/><rect x="7.97" y="19.28" width="0.7" height="0.14" fill="none" stroke="#111" stroke-width="1.6"/><rect x="7.97" y="20.69" width="0.7" height="0.14" fill="none" stroke="#111" stroke-width="1.6"/><rect x="7.97" y="22.09" width="0.7" height="0.14" fill="none" stroke="#111" stroke-width="1.6"/><rect x="7.97" y="23.5" width="0.7" height="0.14" fill="none" stroke="#111" stroke-width="1.6"/><rect x="7.97" y="24.9" width="0.7" height="0.14" fill="none" stroke="#111" stroke-width="1.6"/><rect x="7.97" y="26.31" width="0.7" height="0.14" fill="none" stroke="#111" stroke-width="1.6"/><rect x="7.97" y="27.71" width="0.7" height="0.14" fill="none" stroke="#111" stroke-width="1.6"/><rect x="7.97" y="29.12" width="0.7" height="0.14" fill="none" stroke="#111" stroke-width="1.6"/><rect x="7.97" y="30.52" width="0.7" height="0.14" fill="none" stroke="#111" stroke-width="1.6"/><rect x="7.97" y="31.93" width="0.7" height="0.14" fill="none" stroke="#111" stroke-width="1.6"/><rect x="7.97" y="33.34" width="0.7" height="0.14" fill="none" stroke="#111" stroke-width="1.6"/><rect x="7.97" y="34.74" width="0.7" height="0.14" fill="none" stroke="#111" stroke-width="1.6"/><rect x="7.97" y="36.15" width="0.7" height="0.14" fill="none" stroke="#111" stroke-width="1.6"/><rect x="7.97" y="37.55" width="0.7" height="0.14" fill="none" stroke="#111" stroke-width="1.6"/><rect x="7.97" y="38.96" width="0.7" height="0.14" fill="none" stroke="#111" stroke-width="1.6"/><rect x="7.97" y="40.36" width="0.7" height="0.14" fill="none" stroke="#111" stroke-width="1.6"/><rect x="7.97" y="41.77" width="0.7" height="0.14" fill="none" stroke="#111" stroke-width="1.6"/><rect x="7.97" y="43.17" width="0.7" height="0.14" fill="none" stroke="#111" stroke-width="1.6"/><rect x="7.97" y="44.58" width="0.7" height="0.14" fill="none" stroke="#111" stroke-width="1.6"/><rect x="7.97" y="45.98" width="0.7" height="0.14" fill="none" stroke="#111" stroke-width="1.6"/><rect x="7.97" y="47.39" width="0.7" height="0.14" fill="none" stroke="#111" stroke-width="1.6"/><rect x="7.97" y="48.79" width="0.7" height="0.15" fill="none" stroke="#111" stroke-width="1.6"/><rect x="7.97" y="50.2" width="0.7" height="0.14" fill="none" stroke="#111" stroke-width="1.6"/><rect x="7.97" y="51.61" width="0.7" height="0.14" fill="none" stroke="#111" stroke-width="1.6"/><rect x="7.97" y="53.01" width="0.7" height="0.14" fill="none" stroke="#111" stroke-width="1.6"/><rect x="7.97" y="54.42" width="0.7" height="0.14" fill="none" stroke="#111" stroke-width="1.6"/><rect x="7.97" y="55.82" width="0.7" height="0.14" fill="none" stroke="#111" stroke-width="1.6"/><rect x="7.97" y="57.23" width="0.7" height="0.14" fill="none" stroke="#111" stroke-width="1.6"/></svg>