<svg xmlns="http://www.w3.org/2000/svg" width="96" height="64" viewBox="0 0 96 64"><rect x="6" y="6" width="84" height="12.35" fill="none" stroke="#111" stroke-width="1.6"/><rect x="6.99" y="9.21" width="2.96" height="7.91" fill="none" stroke="#111" stroke-width="1.6"/><polyline points="8.47,9.21 8.47,7.73 13.41,7.73 13.41,17.12" fill="none" stroke="#111" stroke-width="1.6" stroke-linecap="round" stroke-linejoin="round"/><rect x="21.81" y="9.21" width="2.97" height="7.91" fill="none" stroke="#111" stroke-width="1.6"/><polyline points="23.29,9.21 23.29,7.73 28.24,7.73 28.24,17.12" fill="none" stroke="#111" stroke-width="1.6" stroke-linecap="round" stroke-linejoin="round"/><rect x="36.64" y="9.21" width="2.96" height="7.91" fill="none" stroke="#111" stroke-width="1.6"/><polyline points="38.12,9.21 38.12,7.73 43.06,7.73 43.06,17.12" fill="none" stroke="#111" stroke-width="1.6" stroke-linecap="round" stroke-linejoin="round"/><rect x="51.46" y="9.21" width="2.96" height="7.91" fill="none" stroke="#111" stroke-width="1.6"/><polyline points="52.94,9.21 52.94,7.73 57.88,7.73 57.88,17.12" fill="none" stroke="#111" stroke-width="1.6" stroke-linecap="round" stroke-linejoin="round"/><rect x="66.28" y="9.21" width="2.97" height="7.91" fill="none" stroke="#111" stroke-width="1.6"/><polyline points="67.76,9.21 67.76,7.73 72.71,7.73 72.71,17.12" fill="none" stroke="#111" stroke-width="1.6" stroke-linecap="round" stroke-linejoin="round"/><rect x="81.11" y="9.21" width="2.96" height="7.91" fill="none" stroke="#111" stroke-width="1.6"/><polyline points="82.59,9.21 82.59,7.73 87.53,7.73 87.53,17.12" fill="none" stroke="#111" stroke-width="1.6" stroke-linecap="round" stroke-linejoin="round"/></svg>