<svg xmlns="http://www.w3.org/2000/svg" width="96" height="64" viewBox="0 0 96 64"><rect x="6" y="6" width="2.69" height="51.19" fill="none" stroke="#111" stroke-width="1.6"/><rect x="6" y="7.21" width="1.35" height="0.27" fill="none" stroke="#111" stroke-width="1.6"/><rect x="6" y="9.91" width="1.35" height="0.27" fill="none" stroke="#111" stroke-width="1.6"/><rect x="6" y="12.6" width="1.35" height="0.27" fill="none" stroke="#111" stroke-width="1.6"/><rect x="6" y="15.3" width="1.35" height="0.26" fill="none" stroke="#111" stroke-width="1.6"/><rect x="6" y="17.99" width="1.35" height="0.27" fill="none" stroke="#111" stroke-width="1.6"/><rect x="6" y="20.68" width="1.35" height="0.27" fill="none" stroke="#111" stroke-width="1.6"/><rect x="6" y="23.38" width="1.35" height="0.27" fill="none" stroke="#111" stroke-width="1.6"/><rect x="6" y="26.07" width="1.35" height="0.27" fill="none" stroke="#111" stroke-width="1.6"/><rect x="6" y="28.77" width="1.35" height="0.27" fill="none" stroke="#111" stroke-width="1.6"/><rect x="6" y="31.46" width="1.35" height="0.27" fill="none" stroke="#111" stroke-width="1.6"/><rect x="6" y="34.16" width="1.35" height="0.26" fill="none" stroke="#111" stroke-width="1.6"/><rect x="6" y="36.85" width="1.35" height="0.27" fill="none" stroke="#111" stroke-width="1.6"/><rect x="6" y="39.54" width="1.35" height="0.27" fill="none" stroke="#111" stroke-width="1.6"/><rect x="6" y="42.24" width="1.35" height="0.27" fill="none" stroke="#111" stroke-width="1.6"/><rect x="6" y="44.93" width="1.35" height="0.27" fill="none" stroke="#111" stroke-width="1.6"/><rect x="6" y="47.63" width="1.35" height="0.27" fill="none" stroke="#111" stroke-width="1.6"/><rect x="6" y="50.32" width="1.35" height="0.27" fill="none" stroke="#111" stroke-width="1.6"/><rect x="6" y="53.02" width="1.35" height="0.26" fill="none" stroke="#111" stroke-width="1.6"/><rect x="6" y="55.71" width="1.35" height="0.27" fill="none" stroke="#111" stroke-width="1.6"/><polyline points="6.27,58 8.42,58" fill="none" stroke="#111" stroke-width="1.6" stroke-linecap="round" stroke-linejoin="round"/></svg>