<svg xmlns="http://www.w3.org/2000/svg" width="96" height="64" viewBox="0 0 96 64"><rect x="6" y="6" width="0.84" height="0.25" fill="none" stroke="#111" stroke-width="1.6"/><rect x="6" y="8.46" width="0.84" height="0.25" fill="none" stroke="#111" stroke-width="1.6"/><rect x="6" y="10.93" width="0.84" height="0.25" fill="none" stroke="#111" stroke-width="1.6"/><rect x="6" y="13.39" width="0.84" height="0.25" fill="none" stroke="#111" stroke-width="1.6"/><rect x="6" y="15.86" width="0.84" height="0.24" fill="none" stroke="#111" stroke-width="1.6"/><rect x="6" y="18.32" width="0.84" height="0.25" fill="none" stroke="#111" stroke-width="1.6"/><rect x="6" y="20.79" width="0.84" height="0.24" fill="none" stroke="#111" stroke-width="1.6"/><rect x="6" y="23.25" width="0.84" height="0.25" fill="none" stroke="#111" stroke-width="1.6"/><rect x="6" y="25.72" width="0.84" height="0.24" fill="none" stroke="#111" stroke-width="1.6"/><rect x="6" y="28.18" width="0.84" height="0.25" fill="none" stroke="#111" stroke-width="1.6"/><rect x="6" y="30.64" width="0.84" height="0.25" fill="none" stroke="#111" stroke-width="1.6"/><rect x="6" y="33.11" width="0.84" height="0.25" fill="none" stroke="#111" stroke-width="1.6"/><rect x="6" y="35.57" width="0.84" height="0.25" fill="none" stroke="#111" stroke-width="1.6"/><rect x="6" y="38.04" width="0.84" height="0.24" fill="none" stroke="#111" stroke-width="1.6"/><rect x="6" y="40.5" width="0.84" height="0.25" fill="none" stroke="#111" stroke-width="1.6"/><rect x="6" y="42.97" width="0.84" height="0.24" fill="none" stroke="#111" stroke-width="1.6"/><rect x="6" y="45.43" width="0.84" height="0.25" fill="none" stroke="#111" stroke-width="1.6"/><rect x="6" y="47.9" width="0.84" height="0.24" fill="none" stroke="#111" stroke-width="1.6"/><rect x="6" y="50.36" width="0.84" height="0.25" fill="none" stroke="#111" stroke-width="1.6"/><rect x="6" y="52.82" width="0.84" height="0.25" fill="none" stroke="#111" stroke-width="1.6"/><rect x="6" y="55.29" width="0.84" height="0.25" fill="none" stroke="#111" stroke-width="1.6"/><rect x="6" y="57.75" width="0.84" height="0.25" fill="none" stroke="#111" stroke-width="1.6"/><polyline points="7.23,6.12 6.84,6.12" fill="none" stroke="#111" stroke-width="1.6" stroke-linecap="round" stroke-linejoin="round"/><polyline points="7.23,8.59 6.84,8.59" fill="none" stroke="#111" stroke-width="1.6" stroke-linecap="round" stroke-linejoin="round"/><polyline points="7.23,11.05 6.84,11.05" fill="none" stroke="#111" stroke-width="1.6" stroke-linecap="round" stroke-linejoin="round"/><polyline points="7.23,13.52 6.84,13.52" fill="none" stroke="#111" stroke-width="1.6" stroke-linecap="round" stroke-linejoin="round"/><polyline points="7.23,15.98 6.84,15.98" fill="none" stroke="#111" stroke-width="1.6" stroke-linecap="round" stroke-linejoin="round"/><polyline points="7.23,18.45 6.84,18.45" fill="none" stroke="#111" stroke-width="1.6" stroke-linecap="round" stroke-linejoin="round"/><polyline points="7.23,20.91 6.84,20.91" fill="none" stroke="#111" stroke-width="1.6" stroke-linecap="round" stroke-linejoin="round"/><polyline points="7.23,23.37 6.84,23.37" fill="none" stroke="#111" stroke-width="1.6" stroke-linecap="round" stroke-linejoin="round"/><polyline points="7.23,25.84 6.84,25.84" fill="none" stroke="#111" stroke-width="1.6" stroke-linecap="round" stroke-linejoin="round"/><polyline points="7.23,28.3 6.84,28.3" fill="none" stroke="#111" stroke-width="1.6" stroke-linecap="round" stroke-linejoin="round"/><polyline points="7.23,30.77 6.84,30.77" fill="none" stroke="#111" stroke-width="1.6" stroke-linecap="round" stroke-linejoin="round"/><polyline points="7.23,33.23 6.84,33.23" fill="none" stroke="#111" stroke-width="1.6" stroke-linecap="round" stroke-linejoin="round"/><polyline points="7.23,35.7 6.84,35.7" fill="none" stroke="#111" stroke-width="1.6" stroke-linecap="round" stroke-linejoin="round"/><polyline points="7.23,38.16 6.84,38.16" fill="none" stroke="#111" stroke-width="1.6" stroke-linecap="round" stroke-linejoin="round"/><polyline points="7.23,40.63 6.84,40.63" fill="none" stroke="#111" stroke-width="1.6" stroke-linecap="round" stroke-linejoin="round"/><polyline points="7.23,43.09 6.84,43.09" fill="none" stroke="#111" stroke-width="1.6" stroke-linecap="round" stroke-linejoin="round"/><polyline points="7.23,45.55 6.84,45.55" fill="none" stroke="#111" stroke-width="1.6" stroke-linecap="round" stroke-linejoin="round"/><polyline points="7.23,48.02 6.84,48.02" fill="none" stroke="#111" stroke-width="1.6" stroke-linecap="round" stroke-linejoin="round"/><polyline points="7.23,50.48 6.84,50.48" fill="none" stroke="#111" stroke-width="1.6" stroke-linecap="round" stroke-linejoin="round"/><polyline points="7.23,52.95 6.84,52.95" fill="none" stroke="#111" stroke-width="1.6" stroke-linecap="round" stroke-linejoin="round"/><polyline points="7.23,55.41 6.84,55.41" fill="none" stroke="#111" stroke-width="1.6" stroke-linecap="round" stroke-linejoin="round"/><polyline points="7.23,57.88 6.84,57.88" fill="none" stroke="#111" stroke-width="1.6" stroke-linecap="round" stroke-linejoin="round"/></svg>