<svg xmlns="http://www.w3.org/2000/svg" width="96" height="64" viewBox="0 0 96 64"><polyline points="6,6 6,58 18,54 18,10 6,6" fill="none" stroke="#111" stroke-width="1.6" stroke-linecap="round" stroke-linejoin="round"/><polyline points="7,42 11,42" fill="none" stroke="#111" stroke-width="1.6" stroke-linecap="round" stroke-linejoin="round"/><circle cx="9" cy="14" r="1" fill="none" stroke="#111" stroke-width="1.6"/><circle cx="9" cy="22" r="1" fill="none" stroke="#111" stroke-width="1.6"/><circle cx="9" cy="30" r="1" fill="none" stroke="#111" stroke-width="1.6"/><circle cx="9" cy="38" r="1" fill="none" stroke="#111" stroke-width="1.6"/><circle cx="9" cy="46" r="1" fill="none" stroke="#111" stroke-width="1.6"/><polyline points="11,18 7,18" fill="none" stroke="#111" stroke-width="1.6" stroke-linecap="round" stroke-linejoin="round"/><polyline points="11,26 7,26" fill="none" stroke="#111" stroke-width="1.6" stroke-linecap="round" stroke-linejoin="round"/><polyline points="11,34 7,34" fill="none" stroke="#111" stroke-width="1.6" stroke-linecap="round" stroke-linejoin="round"/><polyline points="11,50 7,50" fill="none" stroke="#111" stroke-width="1.6" stroke-linecap="round" stroke-linejoin="round"/><circle cx="12" cy="18" r="1" fill="none" stroke="#111" stroke-width="1.6"/><circle cx="12" cy="26" r="1" fill="none" stroke="#111" stroke-width="1.6"/><circle cx="12" cy="34" r="1" fill="none" stroke="#111" stroke-width="1.6"/><circle cx="12" cy="42" r="1" fill="none" stroke="#111" stroke-width="1.6"/><circle cx="12" cy="50" r="1" fill="none" stroke="#111" stroke-width="1.6"/><circle cx="15" cy="14" r="1" fill="none" stroke="#111" stroke-width="1.6"/><circle cx="15" cy="22" r="1" fill="none" stroke="#111" stroke-width="1.6"/><circle cx="15" cy="30" r="1" fill="none" stroke="#111" stroke-width="1.6"/><circle cx="15" cy="38" r="1" fill="none" stroke="#111" stroke-width="1.6"/><circle cx="15" cy="46" r="1" fill="none" stroke="#111" stroke-width="1.6"/></svg>