<svg xmlns="http://www.w3.org/2000/svg" width="96" height="64" viewBox="0 0 96 64"><rect x="6" y="6" width="84" height="45.82" fill="none" stroke="#111" stroke-width="1.6"/><polyline points="13.64,23.56 14.78,20.13 12.49,20.13 13.64,23.56" fill="none" stroke="#111" stroke-width="1.6" stroke-linecap="round" stroke-linejoin="round"/><polyline points="13.64,26.62 13.64,18.22" fill="none" stroke="#111" stroke-width="1.6" stroke-linecap="round" stroke-linejoin="round"/><path d="M 13.64 26.62 Q 15.93 28.91 13.64 31.2" fill="none" stroke="#111" stroke-width="1.6" stroke-linecap="round"/><polyline points="13.64,31.2 13.64,34.25" fill="none" stroke="#111" stroke-width="1.6" stroke-linecap="round" stroke-linejoin="round"/><polyline points="21.27,23.56 22.42,20.13 20.13,20.13 21.27,23.56" fill="none" stroke="#111" stroke-width="1.6" stroke-linecap="round" stroke-linejoin="round"/><polyline points="21.27,26.62 21.27,18.22" fill="none" stroke="#111" stroke-width="1.6" stroke-linecap="round" stroke-linejoin="round"/><path d="M 21.27 26.62 Q 23.56 28.91 21.27 31.2" fill="none" stroke="#111" stroke-width="1.6" stroke-linecap="round"/><polyline points="21.27,31.2 21.27,34.25" fill="none" stroke="#111" stroke-width="1.6" stroke-linecap="round" stroke-linejoin="round"/><polyline points="28.91,23.56 30.05,20.13 27.76,20.13 28.91,23.56" fill="none" stroke="#111" stroke-width="1.6" stroke-linecap="round" stroke-linejoin="round"/><polyline points="28.91,26.62 28.91,18.22" fill="none" stroke="#111" stroke-width="1.6" stroke-linecap="round" stroke-linejoin="round"/><path d="M 28.91 26.62 Q 31.2 28.91 28.91 31.2" fill="none" stroke="#111" stroke-width="1.6" stroke-linecap="round"/><polyline points="28.91,31.2 28.91,34.25" fill="none" stroke="#111" stroke-width="1.6" stroke-linecap="round" stroke-linejoin="round"/><polyline points="36.55,23.56 37.69,20.13 35.4,20.13 36.55,23.56" fill="none" stroke="#111" stroke-width="1.6" stroke-linecap="round" stroke-linejoin="round"/><polyline points="36.55,26.62 36.55,18.22" fill="none" stroke="#111" stroke-width="1.6" stroke-linecap="round" stroke-linejoin="round"/><path d="M 36.55 26.62 Q 38.84 28.91 36.55 31.2" fill="none" stroke="#111" stroke-width="1.6" stroke-linecap="round"/><polyline points="36.55,31.2 36.55,34.25" fill="none" stroke="#111" stroke-width="1.6" stroke-linecap="round" stroke-linejoin="round"/><polyline points="44.18,23.56 45.33,20.13 43.04,20.13 44.18,23.56" fill="none" stroke="#111" stroke-width="1.6" stroke-linecap="round" stroke-linejoin="round"/><polyline points="44.18,26.62 44.18,18.22" fill="none" stroke="#111" stroke-width="1.6" stroke-linecap="round" stroke-linejoin="round"/><path d="M 44.18 26.62 Q 46.47 28.91 44.18 31.2" fill="none" stroke="#111" stroke-width="1.6" stroke-linecap="round"/><polyline points="44.18,31.2 44.18,34.25" fill="none" stroke="#111" stroke-width="1.6" stroke-linecap="round" stroke-linejoin="round"/><polyline points="56.4,17.45 60.22,17.45" fill="none" stroke="#111" stroke-width="1.6" stroke-linecap="round" stroke-linejoin="round"/><path d="M 56.4 22.04 Q 54.11 19.75 56.4 17.45" fill="none" stroke="#111" stroke-width="1.6" stroke-linecap="round"/><path d="M 56.4 26.62 Q 54.11 24.33 56.4 22.04" fill="none" stroke="#111" stroke-width="1.6" stroke-linecap="round"/><path d="M 56.4 31.2 Q 54.11 28.91 56.4 26.62" fill="none" stroke="#111" stroke-width="1.6" stroke-linecap="round"/><path d="M 56.4 35.78 Q 54.11 33.49 56.4 31.2" fill="none" stroke="#111" stroke-width="1.6" stroke-linecap="round"/><path d="M 56.4 40.36 Q 54.11 38.07 56.4 35.78" fill="none" stroke="#111" stroke-width="1.6" stroke-linecap="round"/><polyline points="56.4,40.36 60.22,40.36" fill="none" stroke="#111" stroke-width="1.6" stroke-linecap="round" stroke-linejoin="round"/><polyline points="49.53,17.45 49.53,40.36" fill="none" stroke="#111" stroke-width="1.6" stroke-linecap="round" stroke-linejoin="round"/><polyline points="51.05,40.36 51.05,17.45" fill="none" stroke="#111" stroke-width="1.6" stroke-linecap="round" stroke-linejoin="round"/></svg>