<svg xmlns="http://www.w3.org/2000/svg" width="96" height="64" viewBox="0 0 96 64"><rect x="6" y="6" width="0.55" height="0.16" fill="none" stroke="#111" stroke-width="1.6"/><rect x="6" y="7.62" width="0.55" height="0.16" fill="none" stroke="#111" stroke-width="1.6"/><rect x="6" y="9.24" width="0.55" height="0.16" fill="none" stroke="#111" stroke-width="1.6"/><rect x="6" y="10.86" width="0.55" height="0.16" fill="none" stroke="#111" stroke-width="1.6"/><rect x="6" y="12.48" width="0.55" height="0.16" fill="none" stroke="#111" stroke-width="1.6"/><rect x="6" y="14.1" width="0.55" height="0.16" fill="none" stroke="#111" stroke-width="1.6"/><rect x="6" y="15.72" width="0.55" height="0.16" fill="none" stroke="#111" stroke-width="1.6"/><rect x="6" y="17.34" width="0.55" height="0.16" fill="none" stroke="#111" stroke-width="1.6"/><rect x="6" y="18.96" width="0.55" height="0.16" fill="none" stroke="#111" stroke-width="1.6"/><rect x="6" y="20.58" width="0.55" height="0.16" fill="none" stroke="#111" stroke-width="1.6"/><rect x="6" y="22.2" width="0.55" height="0.16" fill="none" stroke="#111" stroke-width="1.6"/><rect x="6" y="23.82" width="0.55" height="0.16" fill="none" stroke="#111" stroke-width="1.6"/><rect x="6" y="25.44" width="0.55" height="0.16" fill="none" stroke="#111" stroke-width="1.6"/><rect x="6" y="27.06" width="0.55" height="0.16" fill="none" stroke="#111" stroke-width="1.6"/><rect x="6" y="28.68" width="0.55" height="0.16" fill="none" stroke="#111" stroke-width="1.6"/><rect x="6" y="30.3" width="0.55" height="0.16" fill="none" stroke="#111" stroke-width="1.6"/><rect x="6" y="31.92" width="0.55" height="0.16" fill="none" stroke="#111" stroke-width="1.6"/><rect x="6" y="33.54" width="0.55" height="0.16" fill="none" stroke="#111" stroke-width="1.6"/><rect x="6" y="35.16" width="0.55" height="0.16" fill="none" stroke="#111" stroke-width="1.6"/><rect x="6" y="36.78" width="0.55" height="0.16" fill="none" stroke="#111" stroke-width="1.6"/><rect x="6" y="38.4" width="0.55" height="0.16" fill="none" stroke="#111" stroke-width="1.6"/><rect x="6" y="40.02" width="0.55" height="0.16" fill="none" stroke="#111" stroke-width="1.6"/><rect x="6" y="41.64" width="0.55" height="0.16" fill="none" stroke="#111" stroke-width="1.6"/><rect x="6" y="43.26" width="0.55" height="0.16" fill="none" stroke="#111" stroke-width="1.6"/><rect x="6" y="44.88" width="0.55" height="0.16" fill="none" stroke="#111" stroke-width="1.6"/><rect x="6" y="46.5" width="0.55" height="0.16" fill="none" stroke="#111" stroke-width="1.6"/><rect x="6" y="48.12" width="0.55" height="0.16" fill="none" stroke="#111" stroke-width="1.6"/><rect x="6" y="49.74" width="0.55" height="0.16" fill="none" stroke="#111" stroke-width="1.6"/><rect x="6" y="51.36" width="0.55" height="0.16" fill="none" stroke="#111" stroke-width="1.6"/><rect x="6" y="52.98" width="0.55" height="0.16" fill="none" stroke="#111" stroke-width="1.6"/><rect x="6" y="54.6" width="0.55" height="0.16" fill="none" stroke="#111" stroke-width="1.6"/><rect x="6" y="56.22" width="0.55" height="0.16" fill="none" stroke="#111" stroke-width="1.6"/><rect x="6" y="57.84" width="0.55" height="0.16" fill="none" stroke="#111" stroke-width="1.6"/><polyline points="6.81,6.08 6.55,6.08" fill="none" stroke="#111" stroke-width="1.6" stroke-linecap="round" stroke-linejoin="round"/><polyline points="6.81,7.7 6.55,7.7" fill="none" stroke="#111" stroke-width="1.6" stroke-linecap="round" stroke-linejoin="round"/><polyline points="6.81,9.32 6.55,9.32" fill="none" stroke="#111" stroke-width="1.6" stroke-linecap="round" stroke-linejoin="round"/><polyline points="6.81,10.94 6.55,10.94" fill="none" stroke="#111" stroke-width="1.6" stroke-linecap="round" stroke-linejoin="round"/><polyline points="6.81,12.56 6.55,12.56" fill="none" stroke="#111" stroke-width="1.6" stroke-linecap="round" stroke-linejoin="round"/><polyline points="6.81,14.18 6.55,14.18" fill="none" stroke="#111" stroke-width="1.6" stroke-linecap="round" stroke-linejoin="round"/><polyline points="6.81,15.8 6.55,15.8" fill="none" stroke="#111" stroke-width="1.6" stroke-linecap="round" stroke-linejoin="round"/><polyline points="6.81,17.42 6.55,17.42" fill="none" stroke="#111" stroke-width="1.6" stroke-linecap="round" stroke-linejoin="round"/><polyline points="6.81,19.04 6.55,19.04" fill="none" stroke="#111" stroke-width="1.6" stroke-linecap="round" stroke-linejoin="round"/><polyline points="6.81,20.66 6.55,20.66" fill="none" stroke="#111" stroke-width="1.6" stroke-linecap="round" stroke-linejoin="round"/><polyline points="6.81,22.28 6.55,22.28" fill="none" stroke="#111" stroke-width="1.6" stroke-linecap="round" stroke-linejoin="round"/><polyline points="6.81,23.9 6.55,23.9" fill="none" stroke="#111" stroke-width="1.6" stroke-linecap="round" stroke-linejoin="round"/><polyline points="6.81,25.52 6.55,25.52" fill="none" stroke="#111" stroke-width="1.6" stroke-linecap="round" stroke-linejoin="round"/><polyline points="6.81,27.14 6.55,27.14" fill="none" stroke="#111" stroke-width="1.6" stroke-linecap="round" stroke-linejoin="round"/><polyline points="6.81,28.76 6.55,28.76" fill="none" stroke="#111" stroke-width="1.6" stroke-linecap="round" stroke-linejoin="round"/><polyline points="6.81,30.38 6.55,30.38" fill="none" stroke="#111" stroke-width="1.6" stroke-linecap="round" stroke-linejoin="round"/><polyline points="6.81,32 6.55,32" fill="none" stroke="#111" stroke-width="1.6" stroke-linecap="round" stroke-linejoin="round"/><polyline points="6.81,33.62 6.55,33.62" fill="none" stroke="#111" stroke-width="1.6" stroke-linecap="round" stroke-linejoin="round"/><polyline points="6.81,35.24 6.55,35.24" fill="none" stroke="#111" stroke-width="1.6" stroke-linecap="round" stroke-linejoin="round"/><polyline points="6.81,36.86 6.55,36.86" fill="none" stroke="#111" stroke-width="1.6" stroke-linecap="round" stroke-linejoin="round"/><polyline points="6.81,38.48 6.55,38.48" fill="none" stroke="#111" stroke-width="1.6" stroke-linecap="round" stroke-linejoin="round"/><polyline points="6.81,40.1 6.55,40.1" fill="none" stroke="#111" stroke-width="1.6" stroke-linecap="round" stroke-linejoin="round"/><polyline points="6.81,41.72 6.55,41.72" fill="none" stroke="#111" stroke-width="1.6" stroke-linecap="round" stroke-linejoin="round"/><polyline points="6.81,43.34 6.55,43.34" fill="none" stroke="#111" stroke-width="1.6" stroke-linecap="round" stroke-linejoin="round"/><polyline points="6.81,44.96 6.55,44.96" fill="none" stroke="#111" stroke-width="1.6" stroke-linecap="round" stroke-linejoin="round"/><polyline points="6.81,46.58 6.55,46.58" fill="none" stroke="#111" stroke-width="1.6" stroke-linecap="round" stroke-linejoin="round"/><polyline points="6.81,48.2 6.55,48.2" fill="none" stroke="#111" stroke-width="1.6" stroke-linecap="round" stroke-linejoin="round"/><polyline points="6.81,49.82 6.55,49.82" fill="none" stroke="#111" stroke-width="1.6" stroke-linecap="round" stroke-linejoin="round"/><polyline points="6.81,51.44 6.55,51.44" fill="none" stroke="#111" stroke-width="1.6" stroke-linecap="round" stroke-linejoin="round"/><polyline points="6.81,53.06 6.55,53.06" fill="none" stroke="#111" stroke-width="1.6" stroke-linecap="round" stroke-linejoin="round"/><polyline points="6.81,54.68 6.55,54.68" fill="none" stroke="#111" stroke-width="1.6" stroke-linecap="round" stroke-linejoin="round"/><polyline points="6.81,56.3 6.55,56.3" fill="none" stroke="#111" stroke-width="1.6" stroke-linecap="round" stroke-linejoin="round"/><polyline points="6.81,57.92 6.55,57.92" fill="none" stroke="#111" stroke-width="1.6" stroke-linecap="round" stroke-linejoin="round"/></svg>