<svg xmlns="http://www.w3.org/2000/svg" width="96" height="64" viewBox="0 0 96 64"><rect x="12.93" y="9.9" width="39" height="44.63" fill="none" stroke="#111" stroke-width="1.6"/><polyline points="21.6,54.53 21.6,9.9" fill="none" stroke="#111" stroke-width="1.6" stroke-linecap="round" stroke-linejoin="round"/><polyline points="32.43,9.9 32.43,54.53" fill="none" stroke="#111" stroke-width="1.6" stroke-linecap="round" stroke-linejoin="round"/><polyline points="43.27,9.9 43.27,54.53" fill="none" stroke="#111" stroke-width="1.6" stroke-linecap="round" stroke-linejoin="round"/><polyline points="6,23.33 21.6,23.33" fill="none" stroke="#111" stroke-width="1.6" stroke-linecap="round" stroke-linejoin="round"/><rect x="6.43" y="6" width="52" height="52" fill="none" stroke="#111" stroke-width="1.6"/><polyline points="6.43,40.67 12.93,40.67" fill="none" stroke="#111" stroke-width="1.6" stroke-linecap="round" stroke-linejoin="round"/><circle cx="12.93" cy="40.67" r="0.95" fill="none" stroke="#111" stroke-width="1.6"/><polyline points="15.1,14.67 10.77,14.67" fill="none" stroke="#111" stroke-width="1.6" stroke-linecap="round" stroke-linejoin="round"/><polyline points="15.1,19 10.77,19 12.93,14.67 15.1,19" fill="none" stroke="#111" stroke-width="1.6" stroke-linecap="round" stroke-linejoin="round"/><polyline points="15.1,45 10.77,45" fill="none" stroke="#111" stroke-width="1.6" stroke-linecap="round" stroke-linejoin="round"/><polyline points="15.1,49.33 10.77,49.33 12.93,45 15.1,49.33" fill="none" stroke="#111" stroke-width="1.6" stroke-linecap="round" stroke-linejoin="round"/><circle cx="21.6" cy="9.9" r="0.95" fill="none" stroke="#111" stroke-width="1.6"/><circle cx="21.6" cy="23.33" r="0.95" fill="none" stroke="#111" stroke-width="1.6"/><circle cx="21.6" cy="54.53" r="0.95" fill="none" stroke="#111" stroke-width="1.6"/><polyline points="23.77,14.67 19.43,14.67" fill="none" stroke="#111" stroke-width="1.6" stroke-linecap="round" stroke-linejoin="round"/><polyline points="23.77,19 19.43,19 21.6,14.67 23.77,19" fill="none" stroke="#111" stroke-width="1.6" stroke-linecap="round" stroke-linejoin="round"/><polyline points="23.77,45 19.43,45" fill="none" stroke="#111" stroke-width="1.6" stroke-linecap="round" stroke-linejoin="round"/><polyline points="23.77,49.33 19.43,49.33 21.6,45 23.77,49.33" fill="none" stroke="#111" stroke-width="1.6" stroke-linecap="round" stroke-linejoin="round"/><polyline points="30.27,28.97 28.97,29.83" fill="none" stroke="#111" stroke-width="1.6" stroke-linecap="round" stroke-linejoin="round"/><circle cx="32.43" cy="9.9" r="0.95" fill="none" stroke="#111" stroke-width="1.6"/><polyline points="32.43,54.53 32.43,58" fill="none" stroke="#111" stroke-width="1.6" stroke-linecap="round" stroke-linejoin="round"/><circle cx="32.43" cy="54.53" r="0.95" fill="none" stroke="#111" stroke-width="1.6"/><polyline points="34.6,28.97 30.27,28.97" fill="none" stroke="#111" stroke-width="1.6" stroke-linecap="round" stroke-linejoin="round"/><polyline points="34.6,28.97 35.9,28.1" fill="none" stroke="#111" stroke-width="1.6" stroke-linecap="round" stroke-linejoin="round"/><polyline points="34.6,33.3 30.27,33.3 32.43,28.97 34.6,33.3" fill="none" stroke="#111" stroke-width="1.6" stroke-linecap="round" stroke-linejoin="round"/><circle cx="43.27" cy="9.9" r="0.95" fill="none" stroke="#111" stroke-width="1.6"/><circle cx="43.27" cy="40.67" r="0.95" fill="none" stroke="#111" stroke-width="1.6"/><circle cx="43.27" cy="54.53" r="0.95" fill="none" stroke="#111" stroke-width="1.6"/><polyline points="45.43,14.67 41.1,14.67" fill="none" stroke="#111" stroke-width="1.6" stroke-linecap="round" stroke-linejoin="round"/><polyline points="45.43,19 41.1,19 43.27,14.67 45.43,19" fill="none" stroke="#111" stroke-width="1.6" stroke-linecap="round" stroke-linejoin="round"/><polyline points="45.43,45 41.1,45" fill="none" stroke="#111" stroke-width="1.6" stroke-linecap="round" stroke-linejoin="round"/><polyline points="45.43,49.33 41.1,49.33 43.27,45 45.43,49.33" fill="none" stroke="#111" stroke-width="1.6" stroke-linecap="round" stroke-linejoin="round"/><circle cx="51.93" cy="23.33" r="0.95" fill="none" stroke="#111" stroke-width="1.6"/><polyline points="54.1,14.67 49.77,14.67" fill="none" stroke="#111" stroke-width="1.6" stroke-linecap="round" stroke-linejoin="round"/><polyline points="54.1,19 49.77,19 51.93,14.67 54.1,19" fill="none" stroke="#111" stroke-width="1.6" stroke-linecap="round" stroke-linejoin="round"/><polyline points="54.1,45 49.77,45" fill="none" stroke="#111" stroke-width="1.6" stroke-linecap="round" stroke-linejoin="round"/><polyline points="54.1,49.33 49.77,49.33 51.93,45 54.1,49.33" fill="none" stroke="#111" stroke-width="1.6" stroke-linecap="round" stroke-linejoin="round"/><polyline points="58.43,23.33 51.93,23.33" fill="none" stroke="#111" stroke-width="1.6" stroke-linecap="round" stroke-linejoin="round"/><polyline points="58.43,40.67 43.27,40.67" fill="none" stroke="#111" stroke-width="1.6" stroke-linecap="round" stroke-linejoin="round"/></svg>