<svg xmlns="http://www.w3.org/2000/svg" width="96" height="64" viewBox="0 0 96 64"><rect x="6" y="6" width="2.07" height="51.69" fill="none" stroke="#111" stroke-width="1.6"/><rect x="6" y="6.47" width="0.52" height="0.1" fill="none" stroke="#111" stroke-width="1.6"/><rect x="6" y="7.5" width="0.52" height="0.1" fill="none" stroke="#111" stroke-width="1.6"/><rect x="6" y="8.53" width="0.52" height="0.11" fill="none" stroke="#111" stroke-width="1.6"/><rect x="6" y="9.57" width="0.52" height="0.1" fill="none" stroke="#111" stroke-width="1.6"/><rect x="6" y="10.6" width="0.52" height="0.1" fill="none" stroke="#111" stroke-width="1.6"/><rect x="6" y="11.63" width="0.52" height="0.11" fill="none" stroke="#111" stroke-width="1.6"/><rect x="6" y="12.67" width="0.52" height="0.1" fill="none" stroke="#111" stroke-width="1.6"/><rect x="6" y="13.7" width="0.52" height="0.11" fill="none" stroke="#111" stroke-width="1.6"/><rect x="6" y="14.74" width="0.52" height="0.1" fill="none" stroke="#111" stroke-width="1.6"/><rect x="6" y="15.77" width="0.52" height="0.1" fill="none" stroke="#111" stroke-width="1.6"/><rect x="6" y="16.8" width="0.52" height="0.11" fill="none" stroke="#111" stroke-width="1.6"/><rect x="6" y="17.84" width="0.52" height="0.1" fill="none" stroke="#111" stroke-width="1.6"/><rect x="6" y="18.87" width="0.52" height="0.1" fill="none" stroke="#111" stroke-width="1.6"/><rect x="6" y="19.9" width="0.52" height="0.11" fill="none" stroke="#111" stroke-width="1.6"/><rect x="6" y="20.94" width="0.52" height="0.1" fill="none" stroke="#111" stroke-width="1.6"/><rect x="6" y="21.97" width="0.52" height="0.11" fill="none" stroke="#111" stroke-width="1.6"/><rect x="6" y="23.01" width="0.52" height="0.1" fill="none" stroke="#111" stroke-width="1.6"/><rect x="6" y="24.04" width="0.52" height="0.1" fill="none" stroke="#111" stroke-width="1.6"/><rect x="6" y="25.07" width="0.52" height="0.11" fill="none" stroke="#111" stroke-width="1.6"/><rect x="6" y="26.11" width="0.52" height="0.1" fill="none" stroke="#111" stroke-width="1.6"/><rect x="6" y="27.14" width="0.52" height="0.1" fill="none" stroke="#111" stroke-width="1.6"/><rect x="6" y="28.17" width="0.52" height="0.11" fill="none" stroke="#111" stroke-width="1.6"/><rect x="6" y="29.21" width="0.52" height="0.1" fill="none" stroke="#111" stroke-width="1.6"/><rect x="6" y="30.24" width="0.52" height="0.11" fill="none" stroke="#111" stroke-width="1.6"/><rect x="6" y="31.28" width="0.52" height="0.1" fill="none" stroke="#111" stroke-width="1.6"/><rect x="6" y="32.31" width="0.52" height="0.1" fill="none" stroke="#111" stroke-width="1.6"/><rect x="6" y="33.34" width="0.52" height="0.11" fill="none" stroke="#111" stroke-width="1.6"/><rect x="6" y="34.38" width="0.52" height="0.1" fill="none" stroke="#111" stroke-width="1.6"/><rect x="6" y="35.41" width="0.52" height="0.1" fill="none" stroke="#111" stroke-width="1.6"/><rect x="6" y="36.45" width="0.52" height="0.1" fill="none" stroke="#111" stroke-width="1.6"/><rect x="6" y="37.48" width="0.52" height="0.1" fill="none" stroke="#111" stroke-width="1.6"/><rect x="6" y="38.51" width="0.52" height="0.11" fill="none" stroke="#111" stroke-width="1.6"/><rect x="6" y="39.55" width="0.52" height="0.1" fill="none" stroke="#111" stroke-width="1.6"/><rect x="6" y="40.58" width="0.52" height="0.1" fill="none" stroke="#111" stroke-width="1.6"/><rect x="6" y="41.61" width="0.52" height="0.11" fill="none" stroke="#111" stroke-width="1.6"/><rect x="6" y="42.65" width="0.52" height="0.1" fill="none" stroke="#111" stroke-width="1.6"/><rect x="6" y="43.68" width="0.52" height="0.11" fill="none" stroke="#111" stroke-width="1.6"/><rect x="6" y="44.72" width="0.52" height="0.1" fill="none" stroke="#111" stroke-width="1.6"/><rect x="6" y="45.75" width="0.52" height="0.1" fill="none" stroke="#111" stroke-width="1.6"/><rect x="6" y="46.78" width="0.52" height="0.11" fill="none" stroke="#111" stroke-width="1.6"/><rect x="6" y="47.82" width="0.52" height="0.1" fill="none" stroke="#111" stroke-width="1.6"/><rect x="6" y="48.85" width="0.52" height="0.1" fill="none" stroke="#111" stroke-width="1.6"/><rect x="6" y="49.88" width="0.52" height="0.11" fill="none" stroke="#111" stroke-width="1.6"/><rect x="6" y="50.92" width="0.52" height="0.1" fill="none" stroke="#111" stroke-width="1.6"/><rect x="6" y="51.95" width="0.52" height="0.11" fill="none" stroke="#111" stroke-width="1.6"/><rect x="6" y="52.99" width="0.52" height="0.1" fill="none" stroke="#111" stroke-width="1.6"/><rect x="6" y="54.02" width="0.52" height="0.1" fill="none" stroke="#111" stroke-width="1.6"/><rect x="6" y="55.05" width="0.52" height="0.11" fill="none" stroke="#111" stroke-width="1.6"/><rect x="6" y="56.09" width="0.52" height="0.1" fill="none" stroke="#111" stroke-width="1.6"/><rect x="6" y="57.12" width="0.52" height="0.1" fill="none" stroke="#111" stroke-width="1.6"/><polyline points="6.62,58 7.45,58" fill="none" stroke="#111" stroke-width="1.6" stroke-linecap="round" stroke-linejoin="round"/><rect x="7.55" y="6.47" width="0.52" height="0.1" fill="none" stroke="#111" stroke-width="1.6"/><rect x="7.55" y="7.5" width="0.52" height="0.1" fill="none" stroke="#111" stroke-width="1.6"/><rect x="7.55" y="8.53" width="0.52" height="0.11" fill="none" stroke="#111" stroke-width="1.6"/><rect x="7.55" y="9.57" width="0.52" height="0.1" fill="none" stroke="#111" stroke-width="1.6"/><rect x="7.55" y="10.6" width="0.52" height="0.1" fill="none" stroke="#111" stroke-width="1.6"/><rect x="7.55" y="11.63" width="0.52" height="0.11" fill="none" stroke="#111" stroke-width="1.6"/><rect x="7.55" y="12.67" width="0.52" height="0.1" fill="none" stroke="#111" stroke-width="1.6"/><rect x="7.55" y="13.7" width="0.52" height="0.11" fill="none" stroke="#111" stroke-width="1.6"/><rect x="7.55" y="14.74" width="0.52" height="0.1" fill="none" stroke="#111" stroke-width="1.6"/><rect x="7.55" y="15.77" width="0.52" height="0.1" fill="none" stroke="#111" stroke-width="1.6"/><rect x="7.55" y="16.8" width="0.52" height="0.11" fill="none" stroke="#111" stroke-width="1.6"/><rect x="7.55" y="17.84" width="0.52" height="0.1" fill="none" stroke="#111" stroke-width="1.6"/><rect x="7.55" y="18.87" width="0.52" height="0.1" fill="none" stroke="#111" stroke-width="1.6"/><rect x="7.55" y="19.9" width="0.52" height="0.11" fill="none" stroke="#111" stroke-width="1.6"/><rect x="7.55" y="20.94" width="0.52" height="0.1" fill="none" stroke="#111" stroke-width="1.6"/><rect x="7.55" y="21.97" width="0.52" height="0.11" fill="none" stroke="#111" stroke-width="1.6"/><rect x="7.55" y="23.01" width="0.52" height="0.1" fill="none" stroke="#111" stroke-width="1.6"/><rect x="7.55" y="24.04" width="0.52" height="0.1" fill="none" stroke="#111" stroke-width="1.6"/><rect x="7.55" y="25.07" width="0.52" height="0.11" fill="none" stroke="#111" stroke-width="1.6"/><rect x="7.55" y="26.11" width="0.52" height="0.1" fill="none" stroke="#111" stroke-width="1.6"/><rect x="7.55" y="27.14" width="0.52" height="0.1" fill="none" stroke="#111" stroke-width="1.6"/><rect x="7.55" y="28.17" width="0.52" height="0.11" fill="none" stroke="#111" stroke-width="1.6"/><rect x="7.55" y="29.21" width="0.52" height="0.1" fill="none" stroke="#111" stroke-width="1.6"/><rect x="7.55" y="30.24" width="0.52" height="0.11" fill="none" stroke="#111" stroke-width="1.6"/><rect x="7.55" y="31.28" width="0.52" height="0.1" fill="none" stroke="#111" stroke-width="1.6"/><rect x="7.55" y="32.31" width="0.52" height="0.1" fill="none" stroke="#111" stroke-width="1.6"/><rect x="7.55" y="33.34" width="0.52" height="0.11" fill="none" stroke="#111" stroke-width="1.6"/><rect x="7.55" y="34.38" width="0.52" height="0.1" fill="none" stroke="#111" stroke-width="1.6"/><rect x="7.55" y="35.41" width="0.52" height="0.1" fill="none" stroke="#111" stroke-width="1.6"/><rect x="7.55" y="36.45" width="0.52" height="0.1" fill="none" stroke="#111" stroke-width="1.6"/><rect x="7.55" y="37.48" width="0.52" height="0.1" fill="none" stroke="#111" stroke-width="1.6"/><rect x="7.55" y="38.51" width="0.52" height="0.11" fill="none" stroke="#111" stroke-width="1.6"/><rect x="7.55" y="39.55" width="0.52" height="0.1" fill="none" stroke="#111" stroke-width="1.6"/><rect x="7.55" y="40.58" width="0.52" height="0.1" fill="none" stroke="#111" stroke-width="1.6"/><rect x="7.55" y="41.61" width="0.52" height="0.11" fill="none" stroke="#111" stroke-width="1.6"/><rect x="7.55" y="42.65" width="0.52" height="0.1" fill="none" stroke="#111" stroke-width="1.6"/><rect x="7.55" y="43.68" width="0.52" height="0.11" fill="none" stroke="#111" stroke-width="1.6"/><rect x="7.55" y="44.72" width="0.52" height="0.1" fill="none" stroke="#111" stroke-width="1.6"/><rect x="7.55" y="45.75" width="0.52" height="0.1" fill="none" stroke="#111" stroke-width="1.6"/><rect x="7.55" y="46.78" width="0.52" height="0.11" fill="none" stroke="#111" stroke-width="1.6"/><rect x="7.55" y="47.82" width="0.52" height="0.1" fill="none" stroke="#111" stroke-width="1.6"/><rect x="7.55" y="48.85" width="0.52" height="0.1" fill="none" stroke="#111" stroke-width="1.6"/><rect x="7.55" y="49.88" width="0.52" height="0.11" fill="none" stroke="#111" stroke-width="1.6"/><rect x="7.55" y="50.92" width="0.52" height="0.1" fill="none" stroke="#111" stroke-width="1.6"/><rect x="7.55" y="51.95" width="0.52" height="0.11" fill="none" stroke="#111" stroke-width="1.6"/><rect x="7.55" y="52.99" width="0.52" height="0.1" fill="none" stroke="#111" stroke-width="1.6"/><rect x="7.55" y="54.02" width="0.52" height="0.1" fill="none" stroke="#111" stroke-width="1.6"/><rect x="7.55" y="55.05" width="0.52" height="0.11" fill="none" stroke="#111" stroke-width="1.6"/><rect x="7.55" y="56.09" width="0.52" height="0.1" fill="none" stroke="#111" stroke-width="1.6"/><rect x="7.55" y="57.12" width="0.52" height="0.1" fill="none" stroke="#111" stroke-width="1.6"/></svg>