<svg xmlns="http://www.w3.org/2000/svg" width="96" height="64" viewBox="0 0 96 64"><path d="M 45 12.5 Q 49.6 32 45 51.5" fill="none" stroke="#111" stroke-width="1.6" stroke-linecap="round"/><polyline points="23.55,32 28.75,32" fill="none" stroke="#111" stroke-width="1.6" stroke-linecap="round" stroke-linejoin="round"/><polyline points="31.35,32 36.55,32" fill="none" stroke="#111" stroke-width="1.6" stroke-linecap="round" stroke-linejoin="round"/><circle cx="35.25" cy="9.25" r="3.25" fill="none" stroke="#111" stroke-width="1.6"/><circle cx="35.25" cy="54.75" r="3.25" fill="none" stroke="#111" stroke-width="1.6"/><polyline points="39.15,32 44.35,32" fill="none" stroke="#111" stroke-width="1.6" stroke-linecap="round" stroke-linejoin="round"/><polyline points="46.95,32 52.15,32" fill="none" stroke="#111" stroke-width="1.6" stroke-linecap="round" stroke-linejoin="round"/><polyline points="54.75,32 59.95,32" fill="none" stroke="#111" stroke-width="1.6" stroke-linecap="round" stroke-linejoin="round"/><polyline points="62.55,32 67.75,32" fill="none" stroke="#111" stroke-width="1.6" stroke-linecap="round" stroke-linejoin="round"/><polyline points="70.35,32 75.55,32" fill="none" stroke="#111" stroke-width="1.6" stroke-linecap="round" stroke-linejoin="round"/><path d="M 19 12.5 Q 23.6 32 19 51.5" fill="none" stroke="#111" stroke-width="1.6" stroke-linecap="round"/><circle cx="9.25" cy="9.25" r="3.25" fill="none" stroke="#111" stroke-width="1.6"/><circle cx="9.25" cy="54.75" r="3.25" fill="none" stroke="#111" stroke-width="1.6"/><path d="M 71 12.5 Q 75.6 32 71 51.5" fill="none" stroke="#111" stroke-width="1.6" stroke-linecap="round"/><circle cx="61.25" cy="9.25" r="3.25" fill="none" stroke="#111" stroke-width="1.6"/><circle cx="61.25" cy="54.75" r="3.25" fill="none" stroke="#111" stroke-width="1.6"/></svg>