<svg xmlns="http://www.w3.org/2000/svg" width="96" height="64" viewBox="0 0 96 64"><rect x="6" y="6" width="11.18" height="50.32" fill="none" stroke="#111" stroke-width="1.6"/><rect x="6" y="8.52" width="2.8" height="0.56" fill="none" stroke="#111" stroke-width="1.6"/><rect x="6" y="14.11" width="2.8" height="0.56" fill="none" stroke="#111" stroke-width="1.6"/><rect x="6" y="19.7" width="2.8" height="0.56" fill="none" stroke="#111" stroke-width="1.6"/><rect x="6" y="25.29" width="2.8" height="0.56" fill="none" stroke="#111" stroke-width="1.6"/><rect x="6" y="30.88" width="2.8" height="0.56" fill="none" stroke="#111" stroke-width="1.6"/><rect x="6" y="36.47" width="2.8" height="0.56" fill="none" stroke="#111" stroke-width="1.6"/><rect x="6" y="42.06" width="2.8" height="0.56" fill="none" stroke="#111" stroke-width="1.6"/><rect x="6" y="47.66" width="2.8" height="0.56" fill="none" stroke="#111" stroke-width="1.6"/><rect x="6" y="53.25" width="2.8" height="0.56" fill="none" stroke="#111" stroke-width="1.6"/><polyline points="9.35,58 13.83,58" fill="none" stroke="#111" stroke-width="1.6" stroke-linecap="round" stroke-linejoin="round"/><rect x="14.39" y="8.52" width="2.79" height="0.56" fill="none" stroke="#111" stroke-width="1.6"/><rect x="14.39" y="14.11" width="2.79" height="0.56" fill="none" stroke="#111" stroke-width="1.6"/><rect x="14.39" y="19.7" width="2.79" height="0.56" fill="none" stroke="#111" stroke-width="1.6"/><rect x="14.39" y="25.29" width="2.79" height="0.56" fill="none" stroke="#111" stroke-width="1.6"/><rect x="14.39" y="30.88" width="2.79" height="0.56" fill="none" stroke="#111" stroke-width="1.6"/><rect x="14.39" y="36.47" width="2.79" height="0.56" fill="none" stroke="#111" stroke-width="1.6"/><rect x="14.39" y="42.06" width="2.79" height="0.56" fill="none" stroke="#111" stroke-width="1.6"/><rect x="14.39" y="47.66" width="2.79" height="0.56" fill="none" stroke="#111" stroke-width="1.6"/></svg>