<svg xmlns="http://www.w3.org/2000/svg" width="96" height="64" viewBox="0 0 96 64"><rect x="6" y="6" width="1.68" height="52" fill="none" stroke="#111" stroke-width="1.6"/><rect x="6.17" y="6.17" width="1.34" height="51.66" fill="none" stroke="#111" stroke-width="1.6"/><rect x="6.17" y="6.75" width="0.84" height="0.17" fill="none" stroke="#111" stroke-width="1.6"/><rect x="6.17" y="8.43" width="0.84" height="0.17" fill="none" stroke="#111" stroke-width="1.6"/><rect x="6.17" y="10.11" width="0.84" height="0.17" fill="none" stroke="#111" stroke-width="1.6"/><rect x="6.17" y="11.79" width="0.84" height="0.16" fill="none" stroke="#111" stroke-width="1.6"/><rect x="6.17" y="13.46" width="0.84" height="0.17" fill="none" stroke="#111" stroke-width="1.6"/><rect x="6.17" y="15.14" width="0.84" height="0.17" fill="none" stroke="#111" stroke-width="1.6"/><rect x="6.17" y="16.82" width="0.84" height="0.17" fill="none" stroke="#111" stroke-width="1.6"/><rect x="6.17" y="18.5" width="0.84" height="0.16" fill="none" stroke="#111" stroke-width="1.6"/><rect x="6.17" y="20.17" width="0.84" height="0.17" fill="none" stroke="#111" stroke-width="1.6"/><rect x="6.17" y="21.85" width="0.84" height="0.17" fill="none" stroke="#111" stroke-width="1.6"/><rect x="6.17" y="23.53" width="0.84" height="0.17" fill="none" stroke="#111" stroke-width="1.6"/><rect x="6.17" y="25.21" width="0.84" height="0.16" fill="none" stroke="#111" stroke-width="1.6"/><rect x="6.17" y="26.88" width="0.84" height="0.17" fill="none" stroke="#111" stroke-width="1.6"/><rect x="6.17" y="28.56" width="0.84" height="0.17" fill="none" stroke="#111" stroke-width="1.6"/><rect x="6.17" y="30.24" width="0.84" height="0.17" fill="none" stroke="#111" stroke-width="1.6"/><rect x="6.17" y="31.92" width="0.84" height="0.16" fill="none" stroke="#111" stroke-width="1.6"/><rect x="6.17" y="33.59" width="0.84" height="0.17" fill="none" stroke="#111" stroke-width="1.6"/><rect x="6.17" y="35.27" width="0.84" height="0.17" fill="none" stroke="#111" stroke-width="1.6"/><rect x="6.17" y="36.95" width="0.84" height="0.17" fill="none" stroke="#111" stroke-width="1.6"/><rect x="6.17" y="38.63" width="0.84" height="0.16" fill="none" stroke="#111" stroke-width="1.6"/><rect x="6.17" y="40.3" width="0.84" height="0.17" fill="none" stroke="#111" stroke-width="1.6"/><rect x="6.17" y="41.98" width="0.84" height="0.17" fill="none" stroke="#111" stroke-width="1.6"/><rect x="6.17" y="43.66" width="0.84" height="0.17" fill="none" stroke="#111" stroke-width="1.6"/><rect x="6.17" y="45.34" width="0.84" height="0.16" fill="none" stroke="#111" stroke-width="1.6"/><rect x="6.17" y="47.01" width="0.84" height="0.17" fill="none" stroke="#111" stroke-width="1.6"/><rect x="6.17" y="48.69" width="0.84" height="0.17" fill="none" stroke="#111" stroke-width="1.6"/><rect x="6.17" y="50.37" width="0.84" height="0.17" fill="none" stroke="#111" stroke-width="1.6"/><rect x="6.17" y="52.05" width="0.84" height="0.16" fill="none" stroke="#111" stroke-width="1.6"/><rect x="6.17" y="53.72" width="0.84" height="0.17" fill="none" stroke="#111" stroke-width="1.6"/><rect x="6.17" y="55.4" width="0.84" height="0.17" fill="none" stroke="#111" stroke-width="1.6"/><rect x="6.17" y="57.08" width="0.84" height="0.17" fill="none" stroke="#111" stroke-width="1.6"/></svg>