<svg xmlns="http://www.w3.org/2000/svg" width="96" height="64" viewBox="0 0 96 64"><rect x="6" y="6" width="23.11" height="52" fill="none" stroke="#111" stroke-width="1.6"/><path d="M 12.93 29.98 Q 13.51 32 12.93 34.02" fill="none" stroke="#111" stroke-width="1.6" stroke-linecap="round"/><polyline points="10.33,29.11 11.78,29.11 11.78,30.56 13.22,30.56" fill="none" stroke="#111" stroke-width="1.6" stroke-linecap="round" stroke-linejoin="round"/><polyline points="10.91,10.33 12.36,10.33" fill="none" stroke="#111" stroke-width="1.6" stroke-linecap="round" stroke-linejoin="round"/><polyline points="10.91,10.33 10.91,8.89 10.33,8.89" fill="none" stroke="#111" stroke-width="1.6" stroke-linecap="round" stroke-linejoin="round"/><polyline points="10.91,13.22 11.78,13.22" fill="none" stroke="#111" stroke-width="1.6" stroke-linecap="round" stroke-linejoin="round"/><polyline points="10.91,13.22 10.91,14.67 10.62,14.67 10.33,14.67" fill="none" stroke="#111" stroke-width="1.6" stroke-linecap="round" stroke-linejoin="round"/><polyline points="10.91,19 10.91,17.56 10.33,17.56" fill="none" stroke="#111" stroke-width="1.6" stroke-linecap="round" stroke-linejoin="round"/><polyline points="10.91,21.89 10.91,23.33 10.33,23.33" fill="none" stroke="#111" stroke-width="1.6" stroke-linecap="round" stroke-linejoin="round"/><polyline points="10.91,42.11 10.91,40.38 10.33,40.38" fill="none" stroke="#111" stroke-width="1.6" stroke-linecap="round" stroke-linejoin="round"/><polyline points="10.91,45 10.91,46.44 10.33,46.44" fill="none" stroke="#111" stroke-width="1.6" stroke-linecap="round" stroke-linejoin="round"/><polyline points="10.91,50.78 10.91,49.33 10.33,49.33" fill="none" stroke="#111" stroke-width="1.6" stroke-linecap="round" stroke-linejoin="round"/><polyline points="10.91,53.67 10.91,55.11 10.33,55.11" fill="none" stroke="#111" stroke-width="1.6" stroke-linecap="round" stroke-linejoin="round"/><circle cx="12.07" cy="13.22" r="0.29" fill="none" stroke="#111" stroke-width="1.6"/><polyline points="12.36,9.47 12.36,14.09 16.4,11.78 12.36,9.47" fill="none" stroke="#111" stroke-width="1.6" stroke-linecap="round" stroke-linejoin="round"/><polyline points="12.64,33.44 11.78,33.44 11.78,34.89 10.33,34.89" fill="none" stroke="#111" stroke-width="1.6" stroke-linecap="round" stroke-linejoin="round"/><circle cx="12.93" cy="33.44" r="0.29" fill="none" stroke="#111" stroke-width="1.6"/><polyline points="12.93,34.02 14.96,34.02" fill="none" stroke="#111" stroke-width="1.6" stroke-linecap="round" stroke-linejoin="round"/><path d="M 16.98 32 Q 16.26 33.31 14.96 34.02" fill="none" stroke="#111" stroke-width="1.6" stroke-linecap="round"/><path d="M 14.96 29.98 Q 16.26 30.69 16.98 32" fill="none" stroke="#111" stroke-width="1.6" stroke-linecap="round"/><polyline points="14.96,29.98 12.93,29.98" fill="none" stroke="#111" stroke-width="1.6" stroke-linecap="round" stroke-linejoin="round"/><polyline points="16.4,11.78 22.47,11.78" fill="none" stroke="#111" stroke-width="1.6" stroke-linecap="round" stroke-linejoin="round"/><polyline points="16.4,20.44 22.47,20.44" fill="none" stroke="#111" stroke-width="1.6" stroke-linecap="round" stroke-linejoin="round"/><polyline points="16.4,43.56 22.47,43.56" fill="none" stroke="#111" stroke-width="1.6" stroke-linecap="round" stroke-linejoin="round"/><polyline points="16.4,52.22 22.47,52.22" fill="none" stroke="#111" stroke-width="1.6" stroke-linecap="round" stroke-linejoin="round"/><polyline points="16.98,32 17.56,32" fill="none" stroke="#111" stroke-width="1.6" stroke-linecap="round" stroke-linejoin="round"/><circle cx="17.56" cy="23.33" r="0.29" fill="none" stroke="#111" stroke-width="1.6"/><polyline points="17.56,23.33 17.56,32" fill="none" stroke="#111" stroke-width="1.6" stroke-linecap="round" stroke-linejoin="round"/><polyline points="17.56,23.33 14.38,23.33 14.38,21.6" fill="none" stroke="#111" stroke-width="1.6" stroke-linecap="round" stroke-linejoin="round"/><polyline points="17.56,23.33 17.56,14.67 14.38,14.67 14.38,12.93" fill="none" stroke="#111" stroke-width="1.6" stroke-linecap="round" stroke-linejoin="round"/><polyline points="17.56,32 17.56,49.33" fill="none" stroke="#111" stroke-width="1.6" stroke-linecap="round" stroke-linejoin="round"/><circle cx="17.56" cy="32" r="0.29" fill="none" stroke="#111" stroke-width="1.6"/><polyline points="17.56,40.67 14.38,40.67 14.38,42.4" fill="none" stroke="#111" stroke-width="1.6" stroke-linecap="round" stroke-linejoin="round"/><circle cx="17.56" cy="40.67" r="0.29" fill="none" stroke="#111" stroke-width="1.6"/><polyline points="17.56,49.33 14.38,49.33 14.38,51.07" fill="none" stroke="#111" stroke-width="1.6" stroke-linecap="round" stroke-linejoin="round"/><polyline points="10.91,19 12.36,19" fill="none" stroke="#111" stroke-width="1.6" stroke-linecap="round" stroke-linejoin="round"/><polyline points="10.91,21.89 11.78,21.89" fill="none" stroke="#111" stroke-width="1.6" stroke-linecap="round" stroke-linejoin="round"/><polyline points="10.91,42.11 12.36,42.11" fill="none" stroke="#111" stroke-width="1.6" stroke-linecap="round" stroke-linejoin="round"/><polyline points="10.91,45 11.78,45" fill="none" stroke="#111" stroke-width="1.6" stroke-linecap="round" stroke-linejoin="round"/><polyline points="10.91,50.78 12.36,50.78" fill="none" stroke="#111" stroke-width="1.6" stroke-linecap="round" stroke-linejoin="round"/><polyline points="10.91,53.67 11.78,53.67" fill="none" stroke="#111" stroke-width="1.6" stroke-linecap="round" stroke-linejoin="round"/><circle cx="12.07" cy="21.89" r="0.29" fill="none" stroke="#111" stroke-width="1.6"/><circle cx="12.07" cy="45" r="0.29" fill="none" stroke="#111" stroke-width="1.6"/><circle cx="12.07" cy="53.67" r="0.29" fill="none" stroke="#111" stroke-width="1.6"/><polyline points="12.36,18.13 12.36,22.76 16.4,20.44 12.36,18.13" fill="none" stroke="#111" stroke-width="1.6" stroke-linecap="round" stroke-linejoin="round"/><polyline points="12.36,41.24 12.36,45.87 16.4,43.56 12.36,41.24" fill="none" stroke="#111" stroke-width="1.6" stroke-linecap="round" stroke-linejoin="round"/><polyline points="12.36,49.91 12.36,54.53 16.4,52.22 12.36,49.91" fill="none" stroke="#111" stroke-width="1.6" stroke-linecap="round" stroke-linejoin="round"/></svg>