<svg xmlns="http://www.w3.org/2000/svg" width="96" height="64" viewBox="0 0 96 64"><polyline points="12.5,28.75 12.5,17.38" fill="none" stroke="#111" stroke-width="1.6" stroke-linecap="round" stroke-linejoin="round"/><path d="M 12.5 28.75 Q 15.75 32 12.5 35.25" fill="none" stroke="#111" stroke-width="1.6" stroke-linecap="round"/><polyline points="12.5,35.25 12.5,45" fill="none" stroke="#111" stroke-width="1.6" stroke-linecap="round" stroke-linejoin="round"/><polyline points="19,28.75 19,17.38" fill="none" stroke="#111" stroke-width="1.6" stroke-linecap="round" stroke-linejoin="round"/><path d="M 19 28.75 Q 22.25 32 19 35.25" fill="none" stroke="#111" stroke-width="1.6" stroke-linecap="round"/><polyline points="19,35.25 19,45" fill="none" stroke="#111" stroke-width="1.6" stroke-linecap="round" stroke-linejoin="round"/><polyline points="25.5,28.75 25.5,17.38" fill="none" stroke="#111" stroke-width="1.6" stroke-linecap="round" stroke-linejoin="round"/><path d="M 25.5 28.75 Q 28.75 32 25.5 35.25" fill="none" stroke="#111" stroke-width="1.6" stroke-linecap="round"/><polyline points="25.5,35.25 25.5,45" fill="none" stroke="#111" stroke-width="1.6" stroke-linecap="round" stroke-linejoin="round"/><polyline points="32,28.75 32,17.38" fill="none" stroke="#111" stroke-width="1.6" stroke-linecap="round" stroke-linejoin="round"/><path d="M 32 28.75 Q 35.25 32 32 35.25" fill="none" stroke="#111" stroke-width="1.6" stroke-linecap="round"/><polyline points="32,35.25 32,45" fill="none" stroke="#111" stroke-width="1.6" stroke-linecap="round" stroke-linejoin="round"/><polyline points="38.5,28.75 38.5,17.38" fill="none" stroke="#111" stroke-width="1.6" stroke-linecap="round" stroke-linejoin="round"/><path d="M 38.5 28.75 Q 41.75 32 38.5 35.25" fill="none" stroke="#111" stroke-width="1.6" stroke-linecap="round"/><polyline points="38.5,35.25 38.5,45" fill="none" stroke="#111" stroke-width="1.6" stroke-linecap="round" stroke-linejoin="round"/><polyline points="43.37,22.25 43.37,41.75" fill="none" stroke="#111" stroke-width="1.6" stroke-linecap="round" stroke-linejoin="round"/><polyline points="46.62,22.25 46.62,41.75" fill="none" stroke="#111" stroke-width="1.6" stroke-linecap="round" stroke-linejoin="round"/><polyline points="50.2,25.5 51.82,25.5" fill="none" stroke="#111" stroke-width="1.6" stroke-linecap="round" stroke-linejoin="round"/><path d="M 50.2 28.75 Q 48.58 27.12 50.2 25.5" fill="none" stroke="#111" stroke-width="1.6" stroke-linecap="round"/><path d="M 50.2 32 Q 48.58 30.38 50.2 28.75" fill="none" stroke="#111" stroke-width="1.6" stroke-linecap="round"/><path d="M 50.2 35.25 Q 48.58 33.62 50.2 32" fill="none" stroke="#111" stroke-width="1.6" stroke-linecap="round"/><path d="M 50.2 38.5 Q 48.58 36.88 50.2 35.25" fill="none" stroke="#111" stroke-width="1.6" stroke-linecap="round"/><polyline points="50.2,38.5 51.82,38.5" fill="none" stroke="#111" stroke-width="1.6" stroke-linecap="round" stroke-linejoin="round"/><polyline points="53.45,22.9 53.45,41.1 66.45,32 53.45,22.9" fill="none" stroke="#111" stroke-width="1.6" stroke-linecap="round" stroke-linejoin="round"/><polyline points="58,28.75 58,27.12" fill="none" stroke="#111" stroke-width="1.6" stroke-linecap="round" stroke-linejoin="round"/><circle cx="58" cy="32" r="3.25" fill="none" stroke="#111" stroke-width="1.6"/><polyline points="58,35.25 58,36.88" fill="none" stroke="#111" stroke-width="1.6" stroke-linecap="round" stroke-linejoin="round"/><polyline points="61.25,32 54.75,32" fill="none" stroke="#111" stroke-width="1.6" stroke-linecap="round" stroke-linejoin="round"/><rect x="6" y="6" width="65" height="52" fill="none" stroke="#111" stroke-width="1.6"/><polyline points="12.5,23.88 10.87,22.25 14.12,22.25 12.5,23.88" fill="none" stroke="#111" stroke-width="1.6" stroke-linecap="round" stroke-linejoin="round"/><polyline points="19,23.88 17.37,22.25 20.62,22.25 19,23.88" fill="none" stroke="#111" stroke-width="1.6" stroke-linecap="round" stroke-linejoin="round"/><polyline points="25.5,23.88 23.87,22.25 27.12,22.25 25.5,23.88" fill="none" stroke="#111" stroke-width="1.6" stroke-linecap="round" stroke-linejoin="round"/><polyline points="32,23.88 30.37,22.25 33.62,22.25 32,23.88" fill="none" stroke="#111" stroke-width="1.6" stroke-linecap="round" stroke-linejoin="round"/><polyline points="38.5,23.88 36.88,22.25 40.12,22.25 38.5,23.88" fill="none" stroke="#111" stroke-width="1.6" stroke-linecap="round" stroke-linejoin="round"/></svg>