<svg xmlns="http://www.w3.org/2000/svg" width="96" height="64" viewBox="0 0 96 64"><rect x="6" y="6" width="4.16" height="52" fill="none" stroke="#111" stroke-width="1.6"/><rect x="6.21" y="6.21" width="3.74" height="51.58" fill="none" stroke="#111" stroke-width="1.6"/><rect x="6.21" y="6.94" width="1.04" height="0.2" fill="none" stroke="#111" stroke-width="1.6"/><rect x="6.21" y="9.02" width="1.04" height="0.2" fill="none" stroke="#111" stroke-width="1.6"/><rect x="6.21" y="11.1" width="1.04" height="0.2" fill="none" stroke="#111" stroke-width="1.6"/><rect x="6.21" y="13.18" width="1.04" height="0.2" fill="none" stroke="#111" stroke-width="1.6"/><rect x="6.21" y="15.26" width="1.04" height="0.2" fill="none" stroke="#111" stroke-width="1.6"/><rect x="6.21" y="17.34" width="1.04" height="0.2" fill="none" stroke="#111" stroke-width="1.6"/><rect x="6.21" y="19.42" width="1.04" height="0.2" fill="none" stroke="#111" stroke-width="1.6"/><rect x="6.21" y="21.5" width="1.04" height="0.2" fill="none" stroke="#111" stroke-width="1.6"/><rect x="6.21" y="23.58" width="1.04" height="0.2" fill="none" stroke="#111" stroke-width="1.6"/><rect x="6.21" y="25.66" width="1.04" height="0.2" fill="none" stroke="#111" stroke-width="1.6"/><rect x="6.21" y="27.74" width="1.04" height="0.2" fill="none" stroke="#111" stroke-width="1.6"/><rect x="6.21" y="29.82" width="1.04" height="0.2" fill="none" stroke="#111" stroke-width="1.6"/><rect x="6.21" y="31.9" width="1.04" height="0.2" fill="none" stroke="#111" stroke-width="1.6"/><rect x="6.21" y="33.98" width="1.04" height="0.2" fill="none" stroke="#111" stroke-width="1.6"/><rect x="6.21" y="36.06" width="1.04" height="0.2" fill="none" stroke="#111" stroke-width="1.6"/><rect x="6.21" y="38.14" width="1.04" height="0.2" fill="none" stroke="#111" stroke-width="1.6"/><rect x="6.21" y="40.22" width="1.04" height="0.2" fill="none" stroke="#111" stroke-width="1.6"/><rect x="6.21" y="42.3" width="1.04" height="0.2" fill="none" stroke="#111" stroke-width="1.6"/><rect x="6.21" y="44.38" width="1.04" height="0.2" fill="none" stroke="#111" stroke-width="1.6"/><rect x="6.21" y="46.46" width="1.04" height="0.2" fill="none" stroke="#111" stroke-width="1.6"/><rect x="6.21" y="48.54" width="1.04" height="0.2" fill="none" stroke="#111" stroke-width="1.6"/><rect x="6.21" y="50.62" width="1.04" height="0.2" fill="none" stroke="#111" stroke-width="1.6"/><rect x="6.21" y="52.7" width="1.04" height="0.2" fill="none" stroke="#111" stroke-width="1.6"/><rect x="6.21" y="54.78" width="1.04" height="0.2" fill="none" stroke="#111" stroke-width="1.6"/><rect x="6.21" y="56.86" width="1.04" height="0.2" fill="none" stroke="#111" stroke-width="1.6"/><rect x="8.91" y="6.94" width="1.04" height="0.2" fill="none" stroke="#111" stroke-width="1.6"/><rect x="8.91" y="9.02" width="1.04" height="0.2" fill="none" stroke="#111" stroke-width="1.6"/><rect x="8.91" y="11.1" width="1.04" height="0.2" fill="none" stroke="#111" stroke-width="1.6"/><rect x="8.91" y="13.18" width="1.04" height="0.2" fill="none" stroke="#111" stroke-width="1.6"/><rect x="8.91" y="15.26" width="1.04" height="0.2" fill="none" stroke="#111" stroke-width="1.6"/><rect x="8.91" y="17.34" width="1.04" height="0.2" fill="none" stroke="#111" stroke-width="1.6"/><rect x="8.91" y="19.42" width="1.04" height="0.2" fill="none" stroke="#111" stroke-width="1.6"/><rect x="8.91" y="21.5" width="1.04" height="0.2" fill="none" stroke="#111" stroke-width="1.6"/><rect x="8.91" y="23.58" width="1.04" height="0.2" fill="none" stroke="#111" stroke-width="1.6"/><rect x="8.91" y="25.66" width="1.04" height="0.2" fill="none" stroke="#111" stroke-width="1.6"/><rect x="8.91" y="27.74" width="1.04" height="0.2" fill="none" stroke="#111" stroke-width="1.6"/><rect x="8.91" y="29.82" width="1.04" height="0.2" fill="none" stroke="#111" stroke-width="1.6"/><rect x="8.91" y="31.9" width="1.04" height="0.2" fill="none" stroke="#111" stroke-width="1.6"/><rect x="8.91" y="33.98" width="1.04" height="0.2" fill="none" stroke="#111" stroke-width="1.6"/><rect x="8.91" y="36.06" width="1.04" height="0.2" fill="none" stroke="#111" stroke-width="1.6"/><rect x="8.91" y="38.14" width="1.04" height="0.2" fill="none" stroke="#111" stroke-width="1.6"/><rect x="8.91" y="40.22" width="1.04" height="0.2" fill="none" stroke="#111" stroke-width="1.6"/><rect x="8.91" y="42.3" width="1.04" height="0.2" fill="none" stroke="#111" stroke-width="1.6"/><rect x="8.91" y="44.38" width="1.04" height="0.2" fill="none" stroke="#111" stroke-width="1.6"/><rect x="8.91" y="46.46" width="1.04" height="0.2" fill="none" stroke="#111" stroke-width="1.6"/><rect x="8.91" y="48.54" width="1.04" height="0.2" fill="none" stroke="#111" stroke-width="1.6"/><rect x="8.91" y="50.62" width="1.04" height="0.2" fill="none" stroke="#111" stroke-width="1.6"/><rect x="8.91" y="52.7" width="1.04" height="0.2" fill="none" stroke="#111" stroke-width="1.6"/><rect x="8.91" y="54.78" width="1.04" height="0.2" fill="none" stroke="#111" stroke-width="1.6"/><rect x="8.91" y="56.86" width="1.04" height="0.2" fill="none" stroke="#111" stroke-width="1.6"/></svg>