<svg xmlns="http://www.w3.org/2000/svg" width="96" height="64" viewBox="0 0 96 64"><rect x="6" y="6" width="0.37" height="0.11" fill="none" stroke="#111" stroke-width="1.6"/><rect x="6" y="7.08" width="0.37" height="0.11" fill="none" stroke="#111" stroke-width="1.6"/><rect x="6" y="8.16" width="0.37" height="0.11" fill="none" stroke="#111" stroke-width="1.6"/><rect x="6" y="9.24" width="0.37" height="0.11" fill="none" stroke="#111" stroke-width="1.6"/><rect x="6" y="10.32" width="0.37" height="0.11" fill="none" stroke="#111" stroke-width="1.6"/><rect x="6" y="11.41" width="0.37" height="0.1" fill="none" stroke="#111" stroke-width="1.6"/><rect x="6" y="12.49" width="0.37" height="0.1" fill="none" stroke="#111" stroke-width="1.6"/><rect x="6" y="13.57" width="0.37" height="0.11" fill="none" stroke="#111" stroke-width="1.6"/><rect x="6" y="14.65" width="0.37" height="0.11" fill="none" stroke="#111" stroke-width="1.6"/><rect x="6" y="15.73" width="0.37" height="0.11" fill="none" stroke="#111" stroke-width="1.6"/><rect x="6" y="16.81" width="0.37" height="0.11" fill="none" stroke="#111" stroke-width="1.6"/><rect x="6" y="17.89" width="0.37" height="0.11" fill="none" stroke="#111" stroke-width="1.6"/><rect x="6" y="18.97" width="0.37" height="0.11" fill="none" stroke="#111" stroke-width="1.6"/><rect x="6" y="20.05" width="0.37" height="0.11" fill="none" stroke="#111" stroke-width="1.6"/><rect x="6" y="21.14" width="0.37" height="0.1" fill="none" stroke="#111" stroke-width="1.6"/><rect x="6" y="22.22" width="0.37" height="0.1" fill="none" stroke="#111" stroke-width="1.6"/><rect x="6" y="23.3" width="0.37" height="0.11" fill="none" stroke="#111" stroke-width="1.6"/><rect x="6" y="24.38" width="0.37" height="0.11" fill="none" stroke="#111" stroke-width="1.6"/><rect x="6" y="25.46" width="0.37" height="0.11" fill="none" stroke="#111" stroke-width="1.6"/><rect x="6" y="26.54" width="0.37" height="0.11" fill="none" stroke="#111" stroke-width="1.6"/><rect x="6" y="27.62" width="0.37" height="0.11" fill="none" stroke="#111" stroke-width="1.6"/><rect x="6" y="28.7" width="0.37" height="0.11" fill="none" stroke="#111" stroke-width="1.6"/><rect x="6" y="29.78" width="0.37" height="0.11" fill="none" stroke="#111" stroke-width="1.6"/><rect x="6" y="30.86" width="0.37" height="0.11" fill="none" stroke="#111" stroke-width="1.6"/><rect x="6" y="31.95" width="0.37" height="0.1" fill="none" stroke="#111" stroke-width="1.6"/><rect x="6" y="33.03" width="0.37" height="0.11" fill="none" stroke="#111" stroke-width="1.6"/><rect x="6" y="34.11" width="0.37" height="0.11" fill="none" stroke="#111" stroke-width="1.6"/><rect x="6" y="35.19" width="0.37" height="0.11" fill="none" stroke="#111" stroke-width="1.6"/><rect x="6" y="36.27" width="0.37" height="0.11" fill="none" stroke="#111" stroke-width="1.6"/><rect x="6" y="37.35" width="0.37" height="0.11" fill="none" stroke="#111" stroke-width="1.6"/><rect x="6" y="38.43" width="0.37" height="0.11" fill="none" stroke="#111" stroke-width="1.6"/><rect x="6" y="39.51" width="0.37" height="0.11" fill="none" stroke="#111" stroke-width="1.6"/><rect x="6" y="40.59" width="0.37" height="0.11" fill="none" stroke="#111" stroke-width="1.6"/><rect x="6" y="41.68" width="0.37" height="0.1" fill="none" stroke="#111" stroke-width="1.6"/><rect x="6" y="42.76" width="0.37" height="0.1" fill="none" stroke="#111" stroke-width="1.6"/><rect x="6" y="43.84" width="0.37" height="0.11" fill="none" stroke="#111" stroke-width="1.6"/><rect x="6" y="44.92" width="0.37" height="0.11" fill="none" stroke="#111" stroke-width="1.6"/><rect x="6" y="46" width="0.37" height="0.11" fill="none" stroke="#111" stroke-width="1.6"/><rect x="6" y="47.08" width="0.37" height="0.11" fill="none" stroke="#111" stroke-width="1.6"/><rect x="6" y="48.16" width="0.37" height="0.11" fill="none" stroke="#111" stroke-width="1.6"/><rect x="6" y="49.24" width="0.37" height="0.11" fill="none" stroke="#111" stroke-width="1.6"/><rect x="6" y="50.32" width="0.37" height="0.11" fill="none" stroke="#111" stroke-width="1.6"/><rect x="6" y="51.41" width="0.37" height="0.1" fill="none" stroke="#111" stroke-width="1.6"/><rect x="6" y="52.49" width="0.37" height="0.1" fill="none" stroke="#111" stroke-width="1.6"/><rect x="6" y="53.57" width="0.37" height="0.11" fill="none" stroke="#111" stroke-width="1.6"/><rect x="6" y="54.65" width="0.37" height="0.11" fill="none" stroke="#111" stroke-width="1.6"/><rect x="6" y="55.73" width="0.37" height="0.11" fill="none" stroke="#111" stroke-width="1.6"/><rect x="6" y="56.81" width="0.37" height="0.11" fill="none" stroke="#111" stroke-width="1.6"/><rect x="6" y="57.89" width="0.37" height="0.11" fill="none" stroke="#111" stroke-width="1.6"/><polyline points="6.54,6.05 6.37,6.05" fill="none" stroke="#111" stroke-width="1.6" stroke-linecap="round" stroke-linejoin="round"/><polyline points="6.54,7.14 6.37,7.14" fill="none" stroke="#111" stroke-width="1.6" stroke-linecap="round" stroke-linejoin="round"/><polyline points="6.54,8.22 6.37,8.22" fill="none" stroke="#111" stroke-width="1.6" stroke-linecap="round" stroke-linejoin="round"/><polyline points="6.54,9.3 6.37,9.3" fill="none" stroke="#111" stroke-width="1.6" stroke-linecap="round" stroke-linejoin="round"/><polyline points="6.54,10.38 6.37,10.38" fill="none" stroke="#111" stroke-width="1.6" stroke-linecap="round" stroke-linejoin="round"/><polyline points="6.54,11.46 6.37,11.46" fill="none" stroke="#111" stroke-width="1.6" stroke-linecap="round" stroke-linejoin="round"/><polyline points="6.54,12.54 6.37,12.54" fill="none" stroke="#111" stroke-width="1.6" stroke-linecap="round" stroke-linejoin="round"/><polyline points="6.54,13.62 6.37,13.62" fill="none" stroke="#111" stroke-width="1.6" stroke-linecap="round" stroke-linejoin="round"/><polyline points="6.54,14.7 6.37,14.7" fill="none" stroke="#111" stroke-width="1.6" stroke-linecap="round" stroke-linejoin="round"/><polyline points="6.54,15.78 6.37,15.78" fill="none" stroke="#111" stroke-width="1.6" stroke-linecap="round" stroke-linejoin="round"/><polyline points="6.54,16.86 6.37,16.86" fill="none" stroke="#111" stroke-width="1.6" stroke-linecap="round" stroke-linejoin="round"/><polyline points="6.54,17.95 6.37,17.95" fill="none" stroke="#111" stroke-width="1.6" stroke-linecap="round" stroke-linejoin="round"/><polyline points="6.54,19.03 6.37,19.03" fill="none" stroke="#111" stroke-width="1.6" stroke-linecap="round" stroke-linejoin="round"/><polyline points="6.54,20.11 6.37,20.11" fill="none" stroke="#111" stroke-width="1.6" stroke-linecap="round" stroke-linejoin="round"/><polyline points="6.54,21.19 6.37,21.19" fill="none" stroke="#111" stroke-width="1.6" stroke-linecap="round" stroke-linejoin="round"/><polyline points="6.54,22.27 6.37,22.27" fill="none" stroke="#111" stroke-width="1.6" stroke-linecap="round" stroke-linejoin="round"/><polyline points="6.54,23.35 6.37,23.35" fill="none" stroke="#111" stroke-width="1.6" stroke-linecap="round" stroke-linejoin="round"/><polyline points="6.54,24.43 6.37,24.43" fill="none" stroke="#111" stroke-width="1.6" stroke-linecap="round" stroke-linejoin="round"/><polyline points="6.54,25.51 6.37,25.51" fill="none" stroke="#111" stroke-width="1.6" stroke-linecap="round" stroke-linejoin="round"/><polyline points="6.54,26.59 6.37,26.59" fill="none" stroke="#111" stroke-width="1.6" stroke-linecap="round" stroke-linejoin="round"/><polyline points="6.54,27.68 6.37,27.68" fill="none" stroke="#111" stroke-width="1.6" stroke-linecap="round" stroke-linejoin="round"/><polyline points="6.54,28.76 6.37,28.76" fill="none" stroke="#111" stroke-width="1.6" stroke-linecap="round" stroke-linejoin="round"/><polyline points="6.54,29.84 6.37,29.84" fill="none" stroke="#111" stroke-width="1.6" stroke-linecap="round" stroke-linejoin="round"/><polyline points="6.54,30.92 6.37,30.92" fill="none" stroke="#111" stroke-width="1.6" stroke-linecap="round" stroke-linejoin="round"/><polyline points="6.54,32 6.37,32" fill="none" stroke="#111" stroke-width="1.6" stroke-linecap="round" stroke-linejoin="round"/><polyline points="6.54,33.08 6.37,33.08" fill="none" stroke="#111" stroke-width="1.6" stroke-linecap="round" stroke-linejoin="round"/><polyline points="6.54,34.16 6.37,34.16" fill="none" stroke="#111" stroke-width="1.6" stroke-linecap="round" stroke-linejoin="round"/><polyline points="6.54,35.24 6.37,35.24" fill="none" stroke="#111" stroke-width="1.6" stroke-linecap="round" stroke-linejoin="round"/><polyline points="6.54,36.32 6.37,36.32" fill="none" stroke="#111" stroke-width="1.6" stroke-linecap="round" stroke-linejoin="round"/><polyline points="6.54,37.41 6.37,37.41" fill="none" stroke="#111" stroke-width="1.6" stroke-linecap="round" stroke-linejoin="round"/><polyline points="6.54,38.49 6.37,38.49" fill="none" stroke="#111" stroke-width="1.6" stroke-linecap="round" stroke-linejoin="round"/><polyline points="6.54,39.57 6.37,39.57" fill="none" stroke="#111" stroke-width="1.6" stroke-linecap="round" stroke-linejoin="round"/><polyline points="6.54,40.65 6.37,40.65" fill="none" stroke="#111" stroke-width="1.6" stroke-linecap="round" stroke-linejoin="round"/><polyline points="6.54,41.73 6.37,41.73" fill="none" stroke="#111" stroke-width="1.6" stroke-linecap="round" stroke-linejoin="round"/><polyline points="6.54,42.81 6.37,42.81" fill="none" stroke="#111" stroke-width="1.6" stroke-linecap="round" stroke-linejoin="round"/><polyline points="6.54,43.89 6.37,43.89" fill="none" stroke="#111" stroke-width="1.6" stroke-linecap="round" stroke-linejoin="round"/><polyline points="6.54,44.97 6.37,44.97" fill="none" stroke="#111" stroke-width="1.6" stroke-linecap="round" stroke-linejoin="round"/><polyline points="6.54,46.05 6.37,46.05" fill="none" stroke="#111" stroke-width="1.6" stroke-linecap="round" stroke-linejoin="round"/><polyline points="6.54,47.14 6.37,47.14" fill="none" stroke="#111" stroke-width="1.6" stroke-linecap="round" stroke-linejoin="round"/><polyline points="6.54,48.22 6.37,48.22" fill="none" stroke="#111" stroke-width="1.6" stroke-linecap="round" stroke-linejoin="round"/><polyline points="6.54,49.3 6.37,49.3" fill="none" stroke="#111" stroke-width="1.6" stroke-linecap="round" stroke-linejoin="round"/><polyline points="6.54,50.38 6.37,50.38" fill="none" stroke="#111" stroke-width="1.6" stroke-linecap="round" stroke-linejoin="round"/><polyline points="6.54,51.46 6.37,51.46" fill="none" stroke="#111" stroke-width="1.6" stroke-linecap="round" stroke-linejoin="round"/><polyline points="6.54,52.54 6.37,52.54" fill="none" stroke="#111" stroke-width="1.6" stroke-linecap="round" stroke-linejoin="round"/><polyline points="6.54,53.62 6.37,53.62" fill="none" stroke="#111" stroke-width="1.6" stroke-linecap="round" stroke-linejoin="round"/><polyline points="6.54,54.7 6.37,54.7" fill="none" stroke="#111" stroke-width="1.6" stroke-linecap="round" stroke-linejoin="round"/><polyline points="6.54,55.78 6.37,55.78" fill="none" stroke="#111" stroke-width="1.6" stroke-linecap="round" stroke-linejoin="round"/><polyline points="6.54,56.86 6.37,56.86" fill="none" stroke="#111" stroke-width="1.6" stroke-linecap="round" stroke-linejoin="round"/><polyline points="6.54,57.95 6.37,57.95" fill="none" stroke="#111" stroke-width="1.6" stroke-linecap="round" stroke-linejoin="round"/></svg>