<svg xmlns="http://www.w3.org/2000/svg" width="96" height="64" viewBox="0 0 96 64"><rect x="6" y="6" width="84" height="50.4" fill="none" stroke="#111" stroke-width="1.6"/><circle cx="32.04" cy="14.4" r="0.84" fill="none" stroke="#111" stroke-width="1.6"/><polyline points="32.04,14.4 32.04,31.2 37.92,31.2" fill="none" stroke="#111" stroke-width="1.6" stroke-linecap="round" stroke-linejoin="round"/><polyline points="37.92,14.4 26.16,14.4" fill="none" stroke="#111" stroke-width="1.6" stroke-linecap="round" stroke-linejoin="round"/><circle cx="38.76" cy="14.4" r="0.84" fill="none" stroke="#111" stroke-width="1.6"/><circle cx="38.76" cy="31.2" r="0.84" fill="none" stroke="#111" stroke-width="1.6"/><polyline points="39.6,14.4 44.22,13.14" fill="none" stroke="#111" stroke-width="1.6" stroke-linecap="round" stroke-linejoin="round"/><polyline points="39.6,31.2 43.8,29.1" fill="none" stroke="#111" stroke-width="1.6" stroke-linecap="round" stroke-linejoin="round"/><circle cx="43.8" cy="14.4" r="0.84" fill="none" stroke="#111" stroke-width="1.6"/><circle cx="43.8" cy="31.2" r="0.84" fill="none" stroke="#111" stroke-width="1.6"/><polyline points="44.64,14.4 59.76,14.4" fill="none" stroke="#111" stroke-width="1.6" stroke-linecap="round" stroke-linejoin="round"/><polyline points="44.64,31.2 59.76,31.2" fill="none" stroke="#111" stroke-width="1.6" stroke-linecap="round" stroke-linejoin="round"/><circle cx="53.04" cy="31.2" r="0.84" fill="none" stroke="#111" stroke-width="1.6"/><polyline points="53.04,34.56 53.04,31.2" fill="none" stroke="#111" stroke-width="1.6" stroke-linecap="round" stroke-linejoin="round"/><circle cx="53.04" cy="35.4" r="0.84" fill="none" stroke="#111" stroke-width="1.6"/><polyline points="53.04,36.24 54.3,40.86" fill="none" stroke="#111" stroke-width="1.6" stroke-linecap="round" stroke-linejoin="round"/><circle cx="53.04" cy="40.44" r="0.84" fill="none" stroke="#111" stroke-width="1.6"/><polyline points="53.04,41.28 53.04,44.64 51.36,44.64 53.04,47.16 54.72,44.64 53.04,44.64" fill="none" stroke="#111" stroke-width="1.6" stroke-linecap="round" stroke-linejoin="round"/><polyline points="57.24,14.4 57.24,29.52" fill="none" stroke="#111" stroke-width="1.6" stroke-linecap="round" stroke-linejoin="round"/><circle cx="57.24" cy="14.4" r="0.84" fill="none" stroke="#111" stroke-width="1.6"/><polyline points="57.24,32.88 57.24,34.56" fill="none" stroke="#111" stroke-width="1.6" stroke-linecap="round" stroke-linejoin="round"/><circle cx="57.24" cy="35.4" r="0.84" fill="none" stroke="#111" stroke-width="1.6"/><polyline points="57.24,36.24 59.34,40.44" fill="none" stroke="#111" stroke-width="1.6" stroke-linecap="round" stroke-linejoin="round"/><circle cx="57.24" cy="40.44" r="0.84" fill="none" stroke="#111" stroke-width="1.6"/><polyline points="57.24,41.28 57.24,44.64 55.56,44.64 57.24,47.16 58.92,44.64 57.24,44.64" fill="none" stroke="#111" stroke-width="1.6" stroke-linecap="round" stroke-linejoin="round"/><path d="M 57.24 32.88 Q 55.57 31.2 57.24 29.52" fill="none" stroke="#111" stroke-width="1.6" stroke-linecap="round"/></svg>