<svg xmlns="http://www.w3.org/2000/svg" width="96" height="64" viewBox="0 0 96 64"><circle cx="13" cy="20" r="1" fill="none" stroke="#111" stroke-width="1.6"/><circle cx="13" cy="48" r="1" fill="none" stroke="#111" stroke-width="1.6"/><polyline points="13.6,47.2 20.32,38.8" fill="none" stroke="#111" stroke-width="1.6" stroke-linecap="round" stroke-linejoin="round"/><polyline points="13.68,19.2 20.32,10.8" fill="none" stroke="#111" stroke-width="1.6" stroke-linecap="round" stroke-linejoin="round"/><polyline points="16,20 16,18" fill="none" stroke="#111" stroke-width="1.6" stroke-linecap="round" stroke-linejoin="round"/><polyline points="16,24 16,22" fill="none" stroke="#111" stroke-width="1.6" stroke-linecap="round" stroke-linejoin="round"/><polyline points="16,28 16,26" fill="none" stroke="#111" stroke-width="1.6" stroke-linecap="round" stroke-linejoin="round"/><polyline points="16,32 16,30" fill="none" stroke="#111" stroke-width="1.6" stroke-linecap="round" stroke-linejoin="round"/><polyline points="16,36 16,34" fill="none" stroke="#111" stroke-width="1.6" stroke-linecap="round" stroke-linejoin="round"/><polyline points="16,40 16,38" fill="none" stroke="#111" stroke-width="1.6" stroke-linecap="round" stroke-linejoin="round"/><polyline points="16,44 16,42" fill="none" stroke="#111" stroke-width="1.6" stroke-linecap="round" stroke-linejoin="round"/><polyline points="21,9 21,8 34,8" fill="none" stroke="#111" stroke-width="1.6" stroke-linecap="round" stroke-linejoin="round"/><circle cx="21" cy="10" r="1" fill="none" stroke="#111" stroke-width="1.6"/><polyline points="21,37 21,36 34,36" fill="none" stroke="#111" stroke-width="1.6" stroke-linecap="round" stroke-linejoin="round"/><circle cx="21" cy="38" r="1" fill="none" stroke="#111" stroke-width="1.6"/><circle cx="26" cy="12" r="1" fill="none" stroke="#111" stroke-width="1.6"/><circle cx="26" cy="28" r="1" fill="none" stroke="#111" stroke-width="1.6"/><circle cx="26" cy="40" r="1" fill="none" stroke="#111" stroke-width="1.6"/><circle cx="26" cy="56" r="1" fill="none" stroke="#111" stroke-width="1.6"/><polyline points="27,12 34,12" fill="none" stroke="#111" stroke-width="1.6" stroke-linecap="round" stroke-linejoin="round"/><polyline points="27,40 34,40" fill="none" stroke="#111" stroke-width="1.6" stroke-linecap="round" stroke-linejoin="round"/><circle cx="28" cy="16" r="1" fill="none" stroke="#111" stroke-width="1.6"/><circle cx="28" cy="24" r="1" fill="none" stroke="#111" stroke-width="1.6"/><circle cx="28" cy="44" r="1" fill="none" stroke="#111" stroke-width="1.6"/><circle cx="28" cy="52" r="1" fill="none" stroke="#111" stroke-width="1.6"/><polyline points="29,16 34,16" fill="none" stroke="#111" stroke-width="1.6" stroke-linecap="round" stroke-linejoin="round"/><circle cx="29" cy="20" r="1" fill="none" stroke="#111" stroke-width="1.6"/><polyline points="29,24 34,24" fill="none" stroke="#111" stroke-width="1.6" stroke-linecap="round" stroke-linejoin="round"/><polyline points="29,44 34,44" fill="none" stroke="#111" stroke-width="1.6" stroke-linecap="round" stroke-linejoin="round"/><circle cx="29" cy="48" r="1" fill="none" stroke="#111" stroke-width="1.6"/><polyline points="29,52 34,52" fill="none" stroke="#111" stroke-width="1.6" stroke-linecap="round" stroke-linejoin="round"/><polyline points="30,20 34,20" fill="none" stroke="#111" stroke-width="1.6" stroke-linecap="round" stroke-linejoin="round"/><polyline points="30,48 34,48" fill="none" stroke="#111" stroke-width="1.6" stroke-linecap="round" stroke-linejoin="round"/><polyline points="34,28 27,28" fill="none" stroke="#111" stroke-width="1.6" stroke-linecap="round" stroke-linejoin="round"/><polyline points="34,56 27,56" fill="none" stroke="#111" stroke-width="1.6" stroke-linecap="round" stroke-linejoin="round"/><polyline points="11.92,48 6,48" fill="none" stroke="#111" stroke-width="1.6" stroke-linecap="round" stroke-linejoin="round"/><polyline points="12,20 6,20" fill="none" stroke="#111" stroke-width="1.6" stroke-linecap="round" stroke-linejoin="round"/><rect x="6" y="6" width="28" height="52" fill="none" stroke="#111" stroke-width="1.6"/></svg>