<svg xmlns="http://www.w3.org/2000/svg" width="96" height="64" viewBox="0 0 96 64"><rect x="6" y="6" width="5.2" height="52" fill="none" stroke="#111" stroke-width="1.6"/><polyline points="7.51,7.92 9.28,9.64" fill="none" stroke="#111" stroke-width="1.6" stroke-linecap="round" stroke-linejoin="round"/><polyline points="7.51,13.12 9.28,14.84" fill="none" stroke="#111" stroke-width="1.6" stroke-linecap="round" stroke-linejoin="round"/><polyline points="7.51,18.32 9.28,20.04" fill="none" stroke="#111" stroke-width="1.6" stroke-linecap="round" stroke-linejoin="round"/><polyline points="7.51,23.52 9.28,25.24" fill="none" stroke="#111" stroke-width="1.6" stroke-linecap="round" stroke-linejoin="round"/><polyline points="7.51,28.72 9.28,30.44" fill="none" stroke="#111" stroke-width="1.6" stroke-linecap="round" stroke-linejoin="round"/><polyline points="7.51,33.92 9.28,35.64" fill="none" stroke="#111" stroke-width="1.6" stroke-linecap="round" stroke-linejoin="round"/><polyline points="7.51,39.12 9.28,40.84" fill="none" stroke="#111" stroke-width="1.6" stroke-linecap="round" stroke-linejoin="round"/><polyline points="7.51,44.32 9.28,46.04" fill="none" stroke="#111" stroke-width="1.6" stroke-linecap="round" stroke-linejoin="round"/><polyline points="7.51,49.52 9.28,51.24" fill="none" stroke="#111" stroke-width="1.6" stroke-linecap="round" stroke-linejoin="round"/><polyline points="7.51,54.72 9.28,56.44" fill="none" stroke="#111" stroke-width="1.6" stroke-linecap="round" stroke-linejoin="round"/><polyline points="7.87,7.56 9.64,9.28" fill="none" stroke="#111" stroke-width="1.6" stroke-linecap="round" stroke-linejoin="round"/><polyline points="7.87,12.76 9.64,14.48" fill="none" stroke="#111" stroke-width="1.6" stroke-linecap="round" stroke-linejoin="round"/><polyline points="7.87,17.96 9.64,19.68" fill="none" stroke="#111" stroke-width="1.6" stroke-linecap="round" stroke-linejoin="round"/><polyline points="7.87,23.16 9.64,24.88" fill="none" stroke="#111" stroke-width="1.6" stroke-linecap="round" stroke-linejoin="round"/><polyline points="7.87,28.36 9.64,30.08" fill="none" stroke="#111" stroke-width="1.6" stroke-linecap="round" stroke-linejoin="round"/><polyline points="7.87,33.56 9.64,35.28" fill="none" stroke="#111" stroke-width="1.6" stroke-linecap="round" stroke-linejoin="round"/><polyline points="7.87,38.76 9.64,40.48" fill="none" stroke="#111" stroke-width="1.6" stroke-linecap="round" stroke-linejoin="round"/><polyline points="7.87,43.96 9.64,45.68" fill="none" stroke="#111" stroke-width="1.6" stroke-linecap="round" stroke-linejoin="round"/><polyline points="7.87,49.16 9.64,50.88" fill="none" stroke="#111" stroke-width="1.6" stroke-linecap="round" stroke-linejoin="round"/><polyline points="7.87,54.36 9.64,56.08" fill="none" stroke="#111" stroke-width="1.6" stroke-linecap="round" stroke-linejoin="round"/><circle cx="8.6" cy="8.6" r="1.3" fill="none" stroke="#111" stroke-width="1.6"/><circle cx="8.6" cy="13.8" r="1.3" fill="none" stroke="#111" stroke-width="1.6"/><circle cx="8.6" cy="19" r="1.3" fill="none" stroke="#111" stroke-width="1.6"/><circle cx="8.6" cy="24.2" r="1.3" fill="none" stroke="#111" stroke-width="1.6"/><circle cx="8.6" cy="29.4" r="1.3" fill="none" stroke="#111" stroke-width="1.6"/><circle cx="8.6" cy="34.6" r="1.3" fill="none" stroke="#111" stroke-width="1.6"/><circle cx="8.6" cy="39.8" r="1.3" fill="none" stroke="#111" stroke-width="1.6"/><circle cx="8.6" cy="45" r="1.3" fill="none" stroke="#111" stroke-width="1.6"/><circle cx="8.6" cy="50.2" r="1.3" fill="none" stroke="#111" stroke-width="1.6"/><circle cx="8.6" cy="55.4" r="1.3" fill="none" stroke="#111" stroke-width="1.6"/></svg>