<svg xmlns="http://www.w3.org/2000/svg" width="96" height="64" viewBox="0 0 96 64"><polyline points="6,14.67 75.33,14.67" fill="none" stroke="#111" stroke-width="1.6" stroke-linecap="round" stroke-linejoin="round"/><polyline points="6,49.33 75.33,49.33" fill="none" stroke="#111" stroke-width="1.6" stroke-linecap="round" stroke-linejoin="round"/><rect x="12.93" y="20.73" width="43.34" height="22.54" fill="none" stroke="#111" stroke-width="1.6"/><circle cx="12.93" cy="32" r="0.87" fill="none" stroke="#111" stroke-width="1.6"/><polyline points="12.93,32 6,32" fill="none" stroke="#111" stroke-width="1.6" stroke-linecap="round" stroke-linejoin="round"/><polyline points="12.93,32 56.27,32" fill="none" stroke="#111" stroke-width="1.6" stroke-linecap="round" stroke-linejoin="round"/><polyline points="17.27,25.07 17.27,16.4 25.93,20.73 17.27,25.07" fill="none" stroke="#111" stroke-width="1.6" stroke-linecap="round" stroke-linejoin="round"/><polyline points="17.27,38.93 17.27,47.6 25.93,43.27 17.27,38.93" fill="none" stroke="#111" stroke-width="1.6" stroke-linecap="round" stroke-linejoin="round"/><polyline points="25.93,16.4 25.93,25.07" fill="none" stroke="#111" stroke-width="1.6" stroke-linecap="round" stroke-linejoin="round"/><polyline points="25.93,38.93 25.93,47.6" fill="none" stroke="#111" stroke-width="1.6" stroke-linecap="round" stroke-linejoin="round"/><circle cx="34.6" cy="14.67" r="0.87" fill="none" stroke="#111" stroke-width="1.6"/><circle cx="34.6" cy="20.73" r="0.87" fill="none" stroke="#111" stroke-width="1.6"/><polyline points="34.6,20.73 34.6,14.67" fill="none" stroke="#111" stroke-width="1.6" stroke-linecap="round" stroke-linejoin="round"/><circle cx="34.6" cy="43.27" r="0.87" fill="none" stroke="#111" stroke-width="1.6"/><polyline points="34.6,43.27 34.6,48.47" fill="none" stroke="#111" stroke-width="1.6" stroke-linecap="round" stroke-linejoin="round"/><circle cx="34.6" cy="49.33" r="0.87" fill="none" stroke="#111" stroke-width="1.6"/><polyline points="37.2,36.33 37.2,36.33" fill="none" stroke="#111" stroke-width="1.6" stroke-linecap="round" stroke-linejoin="round"/><polyline points="40.67,27.67 38.93,29.4 38.93,34.6 37.2,36.33" fill="none" stroke="#111" stroke-width="1.6" stroke-linecap="round" stroke-linejoin="round"/><polyline points="43.27,25.07 43.27,16.4 51.93,20.73 43.27,25.07" fill="none" stroke="#111" stroke-width="1.6" stroke-linecap="round" stroke-linejoin="round"/><polyline points="43.27,38.93 43.27,47.6 51.93,43.27 43.27,38.93" fill="none" stroke="#111" stroke-width="1.6" stroke-linecap="round" stroke-linejoin="round"/><polyline points="51.93,16.4 51.93,25.07" fill="none" stroke="#111" stroke-width="1.6" stroke-linecap="round" stroke-linejoin="round"/><polyline points="51.93,38.93 51.93,47.6" fill="none" stroke="#111" stroke-width="1.6" stroke-linecap="round" stroke-linejoin="round"/><polyline points="56.27,32 75.33,32" fill="none" stroke="#111" stroke-width="1.6" stroke-linecap="round" stroke-linejoin="round"/><circle cx="56.27" cy="32" r="0.87" fill="none" stroke="#111" stroke-width="1.6"/><rect x="6" y="6" width="69.33" height="52" fill="none" stroke="#111" stroke-width="1.6"/><polyline points="30.27,27.67 30.27,36.33 38.93,32 30.27,27.67" fill="none" stroke="#111" stroke-width="1.6" stroke-linecap="round" stroke-linejoin="round"/><polyline points="62.33,27.67 62.33,36.33" fill="none" stroke="#111" stroke-width="1.6" stroke-linecap="round" stroke-linejoin="round"/><polyline points="71,27.67 71,36.33 62.33,32 71,27.67" fill="none" stroke="#111" stroke-width="1.6" stroke-linecap="round" stroke-linejoin="round"/></svg>