<svg xmlns="http://www.w3.org/2000/svg" width="96" height="64" viewBox="0 0 96 64"><path d="M 6 8.36 Q 11.88 14.27 6 20.18" fill="none" stroke="#111" stroke-width="1.6" stroke-linecap="round"/><path d="M 6 20.18 Q 11.88 26.09 6 32" fill="none" stroke="#111" stroke-width="1.6" stroke-linecap="round"/><path d="M 6 32 Q 11.88 37.91 6 43.82" fill="none" stroke="#111" stroke-width="1.6" stroke-linecap="round"/><path d="M 6 43.82 Q 11.88 49.73 6 55.64" fill="none" stroke="#111" stroke-width="1.6" stroke-linecap="round"/><polyline points="15.45,10.73 15.45,6" fill="none" stroke="#111" stroke-width="1.6" stroke-linecap="round" stroke-linejoin="round"/><polyline points="15.45,20.18 15.45,15.45" fill="none" stroke="#111" stroke-width="1.6" stroke-linecap="round" stroke-linejoin="round"/><polyline points="15.45,29.64 15.45,24.91" fill="none" stroke="#111" stroke-width="1.6" stroke-linecap="round" stroke-linejoin="round"/><polyline points="15.45,39.09 15.45,34.36" fill="none" stroke="#111" stroke-width="1.6" stroke-linecap="round" stroke-linejoin="round"/><polyline points="15.45,48.55 15.45,43.82" fill="none" stroke="#111" stroke-width="1.6" stroke-linecap="round" stroke-linejoin="round"/><polyline points="15.45,58 15.45,53.27" fill="none" stroke="#111" stroke-width="1.6" stroke-linecap="round" stroke-linejoin="round"/><polyline points="20.18,6 20.18,10.73" fill="none" stroke="#111" stroke-width="1.6" stroke-linecap="round" stroke-linejoin="round"/><polyline points="20.18,15.45 20.18,20.18" fill="none" stroke="#111" stroke-width="1.6" stroke-linecap="round" stroke-linejoin="round"/><polyline points="20.18,24.91 20.18,29.64" fill="none" stroke="#111" stroke-width="1.6" stroke-linecap="round" stroke-linejoin="round"/><polyline points="20.18,34.36 20.18,39.09" fill="none" stroke="#111" stroke-width="1.6" stroke-linecap="round" stroke-linejoin="round"/><polyline points="20.18,43.82 20.18,48.55" fill="none" stroke="#111" stroke-width="1.6" stroke-linecap="round" stroke-linejoin="round"/><polyline points="20.18,53.27 20.18,58" fill="none" stroke="#111" stroke-width="1.6" stroke-linecap="round" stroke-linejoin="round"/></svg>