<svg xmlns="http://www.w3.org/2000/svg" width="96" height="64" viewBox="0 0 96 64"><rect x="6" y="6" width="14.86" height="52" fill="none" stroke="#111" stroke-width="1.6"/><rect x="6.74" y="6.74" width="13.37" height="50.52" fill="none" stroke="#111" stroke-width="1.6"/><rect x="6.74" y="9.34" width="3.72" height="0.75" fill="none" stroke="#111" stroke-width="1.6"/><rect x="6.74" y="16.77" width="3.72" height="0.74" fill="none" stroke="#111" stroke-width="1.6"/><rect x="6.74" y="24.2" width="3.72" height="0.74" fill="none" stroke="#111" stroke-width="1.6"/><rect x="6.74" y="31.63" width="3.72" height="0.74" fill="none" stroke="#111" stroke-width="1.6"/><rect x="6.74" y="39.06" width="3.72" height="0.74" fill="none" stroke="#111" stroke-width="1.6"/><rect x="6.74" y="46.49" width="3.72" height="0.74" fill="none" stroke="#111" stroke-width="1.6"/><rect x="6.74" y="53.91" width="3.72" height="0.75" fill="none" stroke="#111" stroke-width="1.6"/><rect x="16.4" y="9.34" width="3.71" height="0.75" fill="none" stroke="#111" stroke-width="1.6"/><rect x="16.4" y="16.77" width="3.71" height="0.74" fill="none" stroke="#111" stroke-width="1.6"/><rect x="16.4" y="24.2" width="3.71" height="0.74" fill="none" stroke="#111" stroke-width="1.6"/><rect x="16.4" y="31.63" width="3.71" height="0.74" fill="none" stroke="#111" stroke-width="1.6"/><rect x="16.4" y="39.06" width="3.71" height="0.74" fill="none" stroke="#111" stroke-width="1.6"/><rect x="16.4" y="46.49" width="3.71" height="0.74" fill="none" stroke="#111" stroke-width="1.6"/><rect x="16.4" y="53.91" width="3.71" height="0.75" fill="none" stroke="#111" stroke-width="1.6"/></svg>