<svg xmlns="http://www.w3.org/2000/svg" width="96" height="64" viewBox="0 0 96 64"><rect x="22.47" y="20.73" width="1.73" height="4.34" fill="none" stroke="#111" stroke-width="1.6"/><polyline points="23.33,32 23.33,37.2" fill="none" stroke="#111" stroke-width="1.6" stroke-linecap="round" stroke-linejoin="round"/><polyline points="25.5,43.27 24.63,42.4 24.2,43.7 25.5,43.27 25.07,43.27" fill="none" stroke="#111" stroke-width="1.6" stroke-linecap="round" stroke-linejoin="round"/><polyline points="26.37,38.5 26.37,42.83" fill="none" stroke="#111" stroke-width="1.6" stroke-linecap="round" stroke-linejoin="round"/><polyline points="26.37,40.02 23.33,37.2" fill="none" stroke="#111" stroke-width="1.6" stroke-linecap="round" stroke-linejoin="round"/><polyline points="26.37,40.67 37.63,40.67 37.63,29.83 36.33,29.83" fill="none" stroke="#111" stroke-width="1.6" stroke-linecap="round" stroke-linejoin="round"/><polyline points="26.37,41.53 23.33,44.57" fill="none" stroke="#111" stroke-width="1.6" stroke-linecap="round" stroke-linejoin="round"/><rect x="6" y="6" width="60.67" height="52" fill="none" stroke="#111" stroke-width="1.6"/><polyline points="22.03,49.77 24.63,49.77" fill="none" stroke="#111" stroke-width="1.6" stroke-linecap="round" stroke-linejoin="round"/><polyline points="22.47,50.2 24.2,50.2" fill="none" stroke="#111" stroke-width="1.6" stroke-linecap="round" stroke-linejoin="round"/><polyline points="22.9,50.63 23.77,50.63" fill="none" stroke="#111" stroke-width="1.6" stroke-linecap="round" stroke-linejoin="round"/><polyline points="23.33,18.13 23.33,20.73" fill="none" stroke="#111" stroke-width="1.6" stroke-linecap="round" stroke-linejoin="round"/><polyline points="23.33,25.07 23.33,27.67" fill="none" stroke="#111" stroke-width="1.6" stroke-linecap="round" stroke-linejoin="round"/><circle cx="23.33" cy="27.67" r="0.31" fill="none" stroke="#111" stroke-width="1.6"/><circle cx="23.33" cy="32" r="0.31" fill="none" stroke="#111" stroke-width="1.6"/><polyline points="23.33,44.57 23.33,49.77" fill="none" stroke="#111" stroke-width="1.6" stroke-linecap="round" stroke-linejoin="round"/><polyline points="26.37,27.67 16.83,27.67" fill="none" stroke="#111" stroke-width="1.6" stroke-linecap="round" stroke-linejoin="round"/><polyline points="26.58,32 16.83,32" fill="none" stroke="#111" stroke-width="1.6" stroke-linecap="round" stroke-linejoin="round"/><polyline points="26.58,35.03 26.58,24.63 36.33,29.83 26.58,35.03" fill="none" stroke="#111" stroke-width="1.6" stroke-linecap="round" stroke-linejoin="round"/><rect x="18.57" y="15.53" width="9.53" height="2.6" fill="none" stroke="#111" stroke-width="1.6"/><polyline points="37.63,40.67 55.83,40.67" fill="none" stroke="#111" stroke-width="1.6" stroke-linecap="round" stroke-linejoin="round"/><circle cx="37.63" cy="40.67" r="0.31" fill="none" stroke="#111" stroke-width="1.6"/><polyline points="45,13.8 45,24.2 54.75,19 45,13.8" fill="none" stroke="#111" stroke-width="1.6" stroke-linecap="round" stroke-linejoin="round"/><polyline points="54.53,19 55.83,19" fill="none" stroke="#111" stroke-width="1.6" stroke-linecap="round" stroke-linejoin="round"/><polyline points="55.83,10.33 39.8,10.33 39.8,16.83 28.32,16.83" fill="none" stroke="#111" stroke-width="1.6" stroke-linecap="round" stroke-linejoin="round"/><polyline points="55.83,27.67 43.27,27.67 43.27,21.17 45,21.17" fill="none" stroke="#111" stroke-width="1.6" stroke-linecap="round" stroke-linejoin="round"/><polyline points="55.83,36.33 41.75,36.33 41.75,16.83 45,16.83" fill="none" stroke="#111" stroke-width="1.6" stroke-linecap="round" stroke-linejoin="round"/></svg>