<svg xmlns="http://www.w3.org/2000/svg" width="96" height="64" viewBox="0 0 96 64"><circle cx="8.6" cy="16.4" r="2.6" fill="none" stroke="#111" stroke-width="1.6"/><polyline points="11.2,26.8 16.4,26.8" fill="none" stroke="#111" stroke-width="1.6" stroke-linecap="round" stroke-linejoin="round"/><polyline points="11.2,37.2 16.4,37.2" fill="none" stroke="#111" stroke-width="1.6" stroke-linecap="round" stroke-linejoin="round"/><polyline points="13.8,11.2 13.8,6" fill="none" stroke="#111" stroke-width="1.6" stroke-linecap="round" stroke-linejoin="round"/><polyline points="13.8,52.8 13.8,58" fill="none" stroke="#111" stroke-width="1.6" stroke-linecap="round" stroke-linejoin="round"/><path d="M 24.2 11.2 Q 19 16.38 13.8 11.2" fill="none" stroke="#111" stroke-width="1.6" stroke-linecap="round"/><path d="M 13.8 52.8 Q 19 47.62 24.2 52.8" fill="none" stroke="#111" stroke-width="1.6" stroke-linecap="round"/><polyline points="21.6,26.8 26.8,26.8" fill="none" stroke="#111" stroke-width="1.6" stroke-linecap="round" stroke-linejoin="round"/><polyline points="21.6,37.2 26.8,37.2" fill="none" stroke="#111" stroke-width="1.6" stroke-linecap="round" stroke-linejoin="round"/><path d="M 34.6 11.2 Q 29.4 16.38 24.2 11.2" fill="none" stroke="#111" stroke-width="1.6" stroke-linecap="round"/><path d="M 24.2 52.8 Q 29.4 47.62 34.6 52.8" fill="none" stroke="#111" stroke-width="1.6" stroke-linecap="round"/><polyline points="32,26.8 37.2,26.8" fill="none" stroke="#111" stroke-width="1.6" stroke-linecap="round" stroke-linejoin="round"/><polyline points="32,37.2 37.2,37.2" fill="none" stroke="#111" stroke-width="1.6" stroke-linecap="round" stroke-linejoin="round"/><path d="M 45 11.2 Q 39.8 16.38 34.6 11.2" fill="none" stroke="#111" stroke-width="1.6" stroke-linecap="round"/><path d="M 34.6 52.8 Q 39.8 47.62 45 52.8" fill="none" stroke="#111" stroke-width="1.6" stroke-linecap="round"/><polyline points="42.4,26.8 47.6,26.8" fill="none" stroke="#111" stroke-width="1.6" stroke-linecap="round" stroke-linejoin="round"/><polyline points="42.4,37.2 47.6,37.2" fill="none" stroke="#111" stroke-width="1.6" stroke-linecap="round" stroke-linejoin="round"/><path d="M 55.4 11.2 Q 50.2 16.38 45 11.2" fill="none" stroke="#111" stroke-width="1.6" stroke-linecap="round"/><path d="M 45 52.8 Q 50.2 47.62 55.4 52.8" fill="none" stroke="#111" stroke-width="1.6" stroke-linecap="round"/><polyline points="52.8,26.8 58,26.8" fill="none" stroke="#111" stroke-width="1.6" stroke-linecap="round" stroke-linejoin="round"/><polyline points="52.8,37.2 58,37.2" fill="none" stroke="#111" stroke-width="1.6" stroke-linecap="round" stroke-linejoin="round"/><path d="M 65.8 11.2 Q 60.6 16.38 55.4 11.2" fill="none" stroke="#111" stroke-width="1.6" stroke-linecap="round"/><path d="M 55.4 52.8 Q 60.6 47.62 65.8 52.8" fill="none" stroke="#111" stroke-width="1.6" stroke-linecap="round"/><polyline points="63.2,26.8 68.4,26.8" fill="none" stroke="#111" stroke-width="1.6" stroke-linecap="round" stroke-linejoin="round"/><polyline points="63.2,37.2 68.4,37.2" fill="none" stroke="#111" stroke-width="1.6" stroke-linecap="round" stroke-linejoin="round"/><polyline points="65.8,6 65.8,11.2" fill="none" stroke="#111" stroke-width="1.6" stroke-linecap="round" stroke-linejoin="round"/><polyline points="65.8,52.8 65.8,58" fill="none" stroke="#111" stroke-width="1.6" stroke-linecap="round" stroke-linejoin="round"/><circle cx="71" cy="16.4" r="2.6" fill="none" stroke="#111" stroke-width="1.6"/></svg>