<svg xmlns="http://www.w3.org/2000/svg" width="96" height="64" viewBox="0 0 96 64"><polyline points="17.7,30.05 20.95,30.05 19,32.65 17.05,30.05" fill="none" stroke="#111" stroke-width="1.6" stroke-linecap="round" stroke-linejoin="round"/><path d="M 19 19 Q 22.24 22.25 19 25.5" fill="none" stroke="#111" stroke-width="1.6" stroke-linecap="round"/><polyline points="19,12.5 19,19" fill="none" stroke="#111" stroke-width="1.6" stroke-linecap="round" stroke-linejoin="round"/><polyline points="19,25.5 19,38.5" fill="none" stroke="#111" stroke-width="1.6" stroke-linecap="round" stroke-linejoin="round"/><polyline points="25.5,45 38.5,45" fill="none" stroke="#111" stroke-width="1.6" stroke-linecap="round" stroke-linejoin="round"/><polyline points="32,19 65.15,19" fill="none" stroke="#111" stroke-width="1.6" stroke-linecap="round" stroke-linejoin="round"/><polyline points="32,38.5 32,31.35" fill="none" stroke="#111" stroke-width="1.6" stroke-linecap="round" stroke-linejoin="round"/><circle cx="32" cy="45" r="6.5" fill="none" stroke="#111" stroke-width="1.6"/><polyline points="32,51.5 32,54.1" fill="none" stroke="#111" stroke-width="1.6" stroke-linecap="round" stroke-linejoin="round"/><path d="M 32 28.1 Q 30.71 26.8 32 25.5" fill="none" stroke="#111" stroke-width="1.6" stroke-linecap="round"/><path d="M 32 22.25 Q 30.44 20.62 32 19" fill="none" stroke="#111" stroke-width="1.6" stroke-linecap="round"/><path d="M 32 25.5 Q 30.44 23.88 32 22.25" fill="none" stroke="#111" stroke-width="1.6" stroke-linecap="round"/><path d="M 32 31.35 Q 30.44 29.73 32 28.1" fill="none" stroke="#111" stroke-width="1.6" stroke-linecap="round"/><polyline points="56.05,19 54.1,17.05 54.1,20.95 56.05,19" fill="none" stroke="#111" stroke-width="1.6" stroke-linecap="round" stroke-linejoin="round"/><rect x="6" y="6" width="78" height="52" fill="none" stroke="#111" stroke-width="1.6"/></svg>