<svg xmlns="http://www.w3.org/2000/svg" width="96" height="64" viewBox="0 0 96 64"><rect x="6" y="6" width="15.17" height="52" fill="none" stroke="#111" stroke-width="1.6"/><rect x="6" y="7.08" width="5.96" height="10.84" fill="none" stroke="#111" stroke-width="1.6"/><polyline points="11.42,21.17 9.9,21.17" fill="none" stroke="#111" stroke-width="1.6" stroke-linecap="round" stroke-linejoin="round"/><polyline points="11.42,23.33 9.9,23.33" fill="none" stroke="#111" stroke-width="1.6" stroke-linecap="round" stroke-linejoin="round"/><polyline points="11.42,25.5 9.9,25.5" fill="none" stroke="#111" stroke-width="1.6" stroke-linecap="round" stroke-linejoin="round"/><polyline points="11.42,27.67 9.9,27.67" fill="none" stroke="#111" stroke-width="1.6" stroke-linecap="round" stroke-linejoin="round"/><polyline points="11.42,29.83 9.9,29.83" fill="none" stroke="#111" stroke-width="1.6" stroke-linecap="round" stroke-linejoin="round"/><polyline points="11.42,32 9.9,32" fill="none" stroke="#111" stroke-width="1.6" stroke-linecap="round" stroke-linejoin="round"/><polyline points="11.42,34.17 9.9,34.17" fill="none" stroke="#111" stroke-width="1.6" stroke-linecap="round" stroke-linejoin="round"/><polyline points="11.42,36.33 9.9,36.33" fill="none" stroke="#111" stroke-width="1.6" stroke-linecap="round" stroke-linejoin="round"/><polyline points="11.42,40.67 9.9,40.67" fill="none" stroke="#111" stroke-width="1.6" stroke-linecap="round" stroke-linejoin="round"/><polyline points="11.42,42.83 9.9,42.83" fill="none" stroke="#111" stroke-width="1.6" stroke-linecap="round" stroke-linejoin="round"/><polyline points="11.42,45 9.9,45" fill="none" stroke="#111" stroke-width="1.6" stroke-linecap="round" stroke-linejoin="round"/><polyline points="11.42,47.17 9.9,47.17" fill="none" stroke="#111" stroke-width="1.6" stroke-linecap="round" stroke-linejoin="round"/><polyline points="11.42,49.33 9.9,49.33" fill="none" stroke="#111" stroke-width="1.6" stroke-linecap="round" stroke-linejoin="round"/><polyline points="11.42,51.5 9.9,51.5" fill="none" stroke="#111" stroke-width="1.6" stroke-linecap="round" stroke-linejoin="round"/><polyline points="11.42,53.67 9.9,53.67" fill="none" stroke="#111" stroke-width="1.6" stroke-linecap="round" stroke-linejoin="round"/><polyline points="11.42,55.83 9.9,55.83" fill="none" stroke="#111" stroke-width="1.6" stroke-linecap="round" stroke-linejoin="round"/><circle cx="11.85" cy="21.17" r="0.43" fill="none" stroke="#111" stroke-width="1.6"/><circle cx="11.85" cy="23.33" r="0.43" fill="none" stroke="#111" stroke-width="1.6"/><circle cx="11.85" cy="25.5" r="0.43" fill="none" stroke="#111" stroke-width="1.6"/><circle cx="11.85" cy="27.67" r="0.43" fill="none" stroke="#111" stroke-width="1.6"/><circle cx="11.85" cy="29.83" r="0.43" fill="none" stroke="#111" stroke-width="1.6"/><circle cx="11.85" cy="32" r="0.43" fill="none" stroke="#111" stroke-width="1.6"/><circle cx="11.85" cy="34.17" r="0.43" fill="none" stroke="#111" stroke-width="1.6"/><circle cx="11.85" cy="36.33" r="0.43" fill="none" stroke="#111" stroke-width="1.6"/><circle cx="11.85" cy="40.67" r="0.43" fill="none" stroke="#111" stroke-width="1.6"/><circle cx="11.85" cy="42.83" r="0.43" fill="none" stroke="#111" stroke-width="1.6"/><circle cx="11.85" cy="45" r="0.43" fill="none" stroke="#111" stroke-width="1.6"/><circle cx="11.85" cy="47.17" r="0.43" fill="none" stroke="#111" stroke-width="1.6"/><circle cx="11.85" cy="49.33" r="0.43" fill="none" stroke="#111" stroke-width="1.6"/><circle cx="11.85" cy="51.5" r="0.43" fill="none" stroke="#111" stroke-width="1.6"/><circle cx="11.85" cy="53.67" r="0.43" fill="none" stroke="#111" stroke-width="1.6"/><circle cx="11.85" cy="55.83" r="0.43" fill="none" stroke="#111" stroke-width="1.6"/><polyline points="12.39,21.17 13.69,31.68" fill="none" stroke="#111" stroke-width="1.6" stroke-linecap="round" stroke-linejoin="round"/><polyline points="12.39,40.67 13.69,51.18" fill="none" stroke="#111" stroke-width="1.6" stroke-linecap="round" stroke-linejoin="round"/><polyline points="12.67,13.6 12.13,13.6" fill="none" stroke="#111" stroke-width="1.6" stroke-linecap="round" stroke-linejoin="round"/><polyline points="12.92,14.49 12.92,13.95" fill="none" stroke="#111" stroke-width="1.6" stroke-linecap="round" stroke-linejoin="round"/><polyline points="12.92,15.57 12.92,15.03" fill="none" stroke="#111" stroke-width="1.6" stroke-linecap="round" stroke-linejoin="round"/><polyline points="12.92,15.57 12.92,15.03" fill="none" stroke="#111" stroke-width="1.6" stroke-linecap="round" stroke-linejoin="round"/><polyline points="12.92,16.65 12.92,16.11" fill="none" stroke="#111" stroke-width="1.6" stroke-linecap="round" stroke-linejoin="round"/><polyline points="12.92,17.74 12.92,17.2" fill="none" stroke="#111" stroke-width="1.6" stroke-linecap="round" stroke-linejoin="round"/><polyline points="12.92,18.82 12.92,18.28" fill="none" stroke="#111" stroke-width="1.6" stroke-linecap="round" stroke-linejoin="round"/><polyline points="12.92,19.9 12.92,19.36" fill="none" stroke="#111" stroke-width="1.6" stroke-linecap="round" stroke-linejoin="round"/><polyline points="12.92,20.99 12.92,20.45" fill="none" stroke="#111" stroke-width="1.6" stroke-linecap="round" stroke-linejoin="round"/><polyline points="12.92,22.07 12.92,21.53" fill="none" stroke="#111" stroke-width="1.6" stroke-linecap="round" stroke-linejoin="round"/><polyline points="12.93,23.14 12.93,22.6" fill="none" stroke="#111" stroke-width="1.6" stroke-linecap="round" stroke-linejoin="round"/><polyline points="12.93,24.22 12.93,23.68" fill="none" stroke="#111" stroke-width="1.6" stroke-linecap="round" stroke-linejoin="round"/><polyline points="12.93,25.3 12.93,24.76" fill="none" stroke="#111" stroke-width="1.6" stroke-linecap="round" stroke-linejoin="round"/><polyline points="12.93,26.39 12.93,25.85" fill="none" stroke="#111" stroke-width="1.6" stroke-linecap="round" stroke-linejoin="round"/><polyline points="12.93,27.47 12.93,26.93" fill="none" stroke="#111" stroke-width="1.6" stroke-linecap="round" stroke-linejoin="round"/><polyline points="12.93,28.55 12.93,28.01" fill="none" stroke="#111" stroke-width="1.6" stroke-linecap="round" stroke-linejoin="round"/><polyline points="12.93,29.64 12.93,29.1" fill="none" stroke="#111" stroke-width="1.6" stroke-linecap="round" stroke-linejoin="round"/><polyline points="12.93,30.94 12.93,30.4" fill="none" stroke="#111" stroke-width="1.6" stroke-linecap="round" stroke-linejoin="round"/><polyline points="12.93,32.02 12.93,31.48" fill="none" stroke="#111" stroke-width="1.6" stroke-linecap="round" stroke-linejoin="round"/><polyline points="12.93,32.02 12.93,31.48" fill="none" stroke="#111" stroke-width="1.6" stroke-linecap="round" stroke-linejoin="round"/><polyline points="12.93,33.1 12.93,32.56" fill="none" stroke="#111" stroke-width="1.6" stroke-linecap="round" stroke-linejoin="round"/><polyline points="12.93,34.19 12.93,33.65" fill="none" stroke="#111" stroke-width="1.6" stroke-linecap="round" stroke-linejoin="round"/><polyline points="12.93,35.27 12.93,34.73" fill="none" stroke="#111" stroke-width="1.6" stroke-linecap="round" stroke-linejoin="round"/><polyline points="12.93,36.35 12.93,35.81" fill="none" stroke="#111" stroke-width="1.6" stroke-linecap="round" stroke-linejoin="round"/><polyline points="12.93,37.44 12.93,36.9" fill="none" stroke="#111" stroke-width="1.6" stroke-linecap="round" stroke-linejoin="round"/><polyline points="12.93,38.52 12.93,37.98" fill="none" stroke="#111" stroke-width="1.6" stroke-linecap="round" stroke-linejoin="round"/><polyline points="12.93,39.58 12.93,39.04" fill="none" stroke="#111" stroke-width="1.6" stroke-linecap="round" stroke-linejoin="round"/><polyline points="12.93,40.67 12.93,40.12" fill="none" stroke="#111" stroke-width="1.6" stroke-linecap="round" stroke-linejoin="round"/><polyline points="12.93,41.75 12.93,41.21" fill="none" stroke="#111" stroke-width="1.6" stroke-linecap="round" stroke-linejoin="round"/><polyline points="12.93,42.83 12.93,42.29" fill="none" stroke="#111" stroke-width="1.6" stroke-linecap="round" stroke-linejoin="round"/><polyline points="12.93,43.92 12.93,43.38" fill="none" stroke="#111" stroke-width="1.6" stroke-linecap="round" stroke-linejoin="round"/><circle cx="14.12" cy="32" r="0.43" fill="none" stroke="#111" stroke-width="1.6"/><circle cx="14.12" cy="51.5" r="0.43" fill="none" stroke="#111" stroke-width="1.6"/><polyline points="14.56,32 17.92,32" fill="none" stroke="#111" stroke-width="1.6" stroke-linecap="round" stroke-linejoin="round"/><polyline points="14.56,51.5 17.92,51.5" fill="none" stroke="#111" stroke-width="1.6" stroke-linecap="round" stroke-linejoin="round"/></svg>