<svg xmlns="http://www.w3.org/2000/svg" width="96" height="64" viewBox="0 0 96 64"><polyline points="6,6.49 6.73,6.49" fill="none" stroke="#111" stroke-width="1.6" stroke-linecap="round" stroke-linejoin="round"/><polyline points="6,8.92 6.73,8.92" fill="none" stroke="#111" stroke-width="1.6" stroke-linecap="round" stroke-linejoin="round"/><polyline points="6,11.35 6.73,11.35" fill="none" stroke="#111" stroke-width="1.6" stroke-linecap="round" stroke-linejoin="round"/><polyline points="6,13.78 6.73,13.78" fill="none" stroke="#111" stroke-width="1.6" stroke-linecap="round" stroke-linejoin="round"/><polyline points="6,16.21 6.73,16.21" fill="none" stroke="#111" stroke-width="1.6" stroke-linecap="round" stroke-linejoin="round"/><polyline points="6,18.64 6.73,18.64" fill="none" stroke="#111" stroke-width="1.6" stroke-linecap="round" stroke-linejoin="round"/><polyline points="6,21.07 6.73,21.07" fill="none" stroke="#111" stroke-width="1.6" stroke-linecap="round" stroke-linejoin="round"/><polyline points="6,23.5 6.73,23.5" fill="none" stroke="#111" stroke-width="1.6" stroke-linecap="round" stroke-linejoin="round"/><polyline points="6,25.93 6.73,25.93" fill="none" stroke="#111" stroke-width="1.6" stroke-linecap="round" stroke-linejoin="round"/><polyline points="6,28.36 6.73,28.36" fill="none" stroke="#111" stroke-width="1.6" stroke-linecap="round" stroke-linejoin="round"/><polyline points="6,30.79 6.73,30.79" fill="none" stroke="#111" stroke-width="1.6" stroke-linecap="round" stroke-linejoin="round"/><polyline points="6,33.21 6.73,33.21" fill="none" stroke="#111" stroke-width="1.6" stroke-linecap="round" stroke-linejoin="round"/><polyline points="6,35.64 6.73,35.64" fill="none" stroke="#111" stroke-width="1.6" stroke-linecap="round" stroke-linejoin="round"/><polyline points="6,38.07 6.73,38.07" fill="none" stroke="#111" stroke-width="1.6" stroke-linecap="round" stroke-linejoin="round"/><polyline points="6,40.5 6.73,40.5" fill="none" stroke="#111" stroke-width="1.6" stroke-linecap="round" stroke-linejoin="round"/><polyline points="6,42.93 6.73,42.93" fill="none" stroke="#111" stroke-width="1.6" stroke-linecap="round" stroke-linejoin="round"/><polyline points="6,45.36 6.73,45.36" fill="none" stroke="#111" stroke-width="1.6" stroke-linecap="round" stroke-linejoin="round"/><polyline points="6,47.79 6.73,47.79" fill="none" stroke="#111" stroke-width="1.6" stroke-linecap="round" stroke-linejoin="round"/><polyline points="6,50.22 6.73,50.22" fill="none" stroke="#111" stroke-width="1.6" stroke-linecap="round" stroke-linejoin="round"/><polyline points="6,52.65 6.73,52.65" fill="none" stroke="#111" stroke-width="1.6" stroke-linecap="round" stroke-linejoin="round"/><polyline points="6,55.08 6.73,55.08" fill="none" stroke="#111" stroke-width="1.6" stroke-linecap="round" stroke-linejoin="round"/><polyline points="6,57.51 6.73,57.51" fill="none" stroke="#111" stroke-width="1.6" stroke-linecap="round" stroke-linejoin="round"/><path d="M 7.21 6.97 Q 6.73 6.49 7.21 6" fill="none" stroke="#111" stroke-width="1.6" stroke-linecap="round"/><path d="M 7.21 9.4 Q 6.73 8.92 7.21 8.43" fill="none" stroke="#111" stroke-width="1.6" stroke-linecap="round"/><path d="M 7.21 11.83 Q 6.73 11.35 7.21 10.86" fill="none" stroke="#111" stroke-width="1.6" stroke-linecap="round"/><path d="M 7.21 14.26 Q 6.73 13.78 7.21 13.29" fill="none" stroke="#111" stroke-width="1.6" stroke-linecap="round"/><path d="M 7.21 16.69 Q 6.73 16.21 7.21 15.72" fill="none" stroke="#111" stroke-width="1.6" stroke-linecap="round"/><path d="M 7.21 19.12 Q 6.73 18.64 7.21 18.15" fill="none" stroke="#111" stroke-width="1.6" stroke-linecap="round"/><path d="M 7.21 21.55 Q 6.73 21.07 7.21 20.58" fill="none" stroke="#111" stroke-width="1.6" stroke-linecap="round"/><path d="M 7.21 23.98 Q 6.73 23.5 7.21 23.01" fill="none" stroke="#111" stroke-width="1.6" stroke-linecap="round"/><path d="M 7.21 26.41 Q 6.73 25.93 7.21 25.44" fill="none" stroke="#111" stroke-width="1.6" stroke-linecap="round"/><path d="M 7.21 28.84 Q 6.73 28.36 7.21 27.87" fill="none" stroke="#111" stroke-width="1.6" stroke-linecap="round"/><path d="M 7.21 31.27 Q 6.73 30.79 7.21 30.3" fill="none" stroke="#111" stroke-width="1.6" stroke-linecap="round"/><path d="M 7.21 33.7 Q 6.73 33.21 7.21 32.73" fill="none" stroke="#111" stroke-width="1.6" stroke-linecap="round"/><path d="M 7.21 36.13 Q 6.73 35.64 7.21 35.16" fill="none" stroke="#111" stroke-width="1.6" stroke-linecap="round"/><path d="M 7.21 38.56 Q 6.73 38.07 7.21 37.59" fill="none" stroke="#111" stroke-width="1.6" stroke-linecap="round"/><path d="M 7.21 40.99 Q 6.73 40.5 7.21 40.02" fill="none" stroke="#111" stroke-width="1.6" stroke-linecap="round"/><path d="M 7.21 43.42 Q 6.73 42.93 7.21 42.45" fill="none" stroke="#111" stroke-width="1.6" stroke-linecap="round"/><path d="M 7.21 45.85 Q 6.73 45.36 7.21 44.88" fill="none" stroke="#111" stroke-width="1.6" stroke-linecap="round"/><path d="M 7.21 48.28 Q 6.73 47.79 7.21 47.31" fill="none" stroke="#111" stroke-width="1.6" stroke-linecap="round"/><path d="M 7.21 50.71 Q 6.73 50.22 7.21 49.74" fill="none" stroke="#111" stroke-width="1.6" stroke-linecap="round"/><path d="M 7.21 53.14 Q 6.73 52.65 7.21 52.17" fill="none" stroke="#111" stroke-width="1.6" stroke-linecap="round"/><path d="M 7.21 55.57 Q 6.73 55.08 7.21 54.6" fill="none" stroke="#111" stroke-width="1.6" stroke-linecap="round"/><path d="M 7.21 58 Q 6.73 57.51 7.21 57.03" fill="none" stroke="#111" stroke-width="1.6" stroke-linecap="round"/></svg>