<svg xmlns="http://www.w3.org/2000/svg" width="96" height="64" viewBox="0 0 96 64"><rect x="6" y="6" width="84" height="42" fill="none" stroke="#111" stroke-width="1.6"/><polyline points="43.8,24.48 43.8,27.84 56.4,27.84 56.4,31.2" fill="none" stroke="#111" stroke-width="1.6" stroke-linecap="round" stroke-linejoin="round"/><polyline points="26.16,14.4 48.84,14.4" fill="none" stroke="#111" stroke-width="1.6" stroke-linecap="round" stroke-linejoin="round"/><circle cx="43.8" cy="14.4" r="0.84" fill="none" stroke="#111" stroke-width="1.6"/><polyline points="43.8,14.4 43.8,17.76" fill="none" stroke="#111" stroke-width="1.6" stroke-linecap="round" stroke-linejoin="round"/><circle cx="43.8" cy="18.6" r="0.84" fill="none" stroke="#111" stroke-width="1.6"/><polyline points="43.8,19.44 45.9,23.64" fill="none" stroke="#111" stroke-width="1.6" stroke-linecap="round" stroke-linejoin="round"/><circle cx="43.8" cy="23.64" r="0.84" fill="none" stroke="#111" stroke-width="1.6"/><circle cx="49.68" cy="14.4" r="0.84" fill="none" stroke="#111" stroke-width="1.6"/><polyline points="50.52,14.4 55.14,13.14" fill="none" stroke="#111" stroke-width="1.6" stroke-linecap="round" stroke-linejoin="round"/><circle cx="54.72" cy="14.4" r="0.84" fill="none" stroke="#111" stroke-width="1.6"/><rect x="54.72" y="31.2" width="3.36" height="7.56" fill="none" stroke="#111" stroke-width="1.6"/><polyline points="55.56,14.4 63.96,14.4" fill="none" stroke="#111" stroke-width="1.6" stroke-linecap="round" stroke-linejoin="round"/><polyline points="56.4,38.76 56.4,42.12 54.72,42.12 56.4,44.64 58.08,42.12 56.4,42.12" fill="none" stroke="#111" stroke-width="1.6" stroke-linecap="round" stroke-linejoin="round"/><rect x="58.92" y="31.2" width="3.36" height="7.56" fill="none" stroke="#111" stroke-width="1.6"/><polyline points="60.6,14.4 60.6,17.76" fill="none" stroke="#111" stroke-width="1.6" stroke-linecap="round" stroke-linejoin="round"/><circle cx="60.6" cy="14.4" r="0.84" fill="none" stroke="#111" stroke-width="1.6"/><circle cx="60.6" cy="18.6" r="0.84" fill="none" stroke="#111" stroke-width="1.6"/><polyline points="60.6,19.44 62.7,23.64" fill="none" stroke="#111" stroke-width="1.6" stroke-linecap="round" stroke-linejoin="round"/><circle cx="60.6" cy="23.64" r="0.84" fill="none" stroke="#111" stroke-width="1.6"/><polyline points="60.6,24.48 60.6,31.2" fill="none" stroke="#111" stroke-width="1.6" stroke-linecap="round" stroke-linejoin="round"/><polyline points="60.6,38.76 60.6,42.12 58.92,42.12 60.6,44.64 62.28,42.12 60.6,42.12" fill="none" stroke="#111" stroke-width="1.6" stroke-linecap="round" stroke-linejoin="round"/></svg>