<svg xmlns="http://www.w3.org/2000/svg" width="96" height="64" viewBox="0 0 96 64"><circle cx="7.24" cy="32" r="1.24" fill="none" stroke="#111" stroke-width="1.6"/><polyline points="7.24,32 32,56.76 56.76,32 32,7.24 7.24,32" fill="none" stroke="#111" stroke-width="1.6" stroke-linecap="round" stroke-linejoin="round"/><polyline points="13.43,19.62 19.62,25.81 22.71,16.52 13.43,19.62" fill="none" stroke="#111" stroke-width="1.6" stroke-linecap="round" stroke-linejoin="round"/><polyline points="19.62,13.43 25.81,19.62" fill="none" stroke="#111" stroke-width="1.6" stroke-linecap="round" stroke-linejoin="round"/><polyline points="19.62,38.19 13.43,44.38 22.71,47.48 19.62,38.19" fill="none" stroke="#111" stroke-width="1.6" stroke-linecap="round" stroke-linejoin="round"/><polyline points="25.81,44.38 19.62,50.57" fill="none" stroke="#111" stroke-width="1.6" stroke-linecap="round" stroke-linejoin="round"/><circle cx="32" cy="7.24" r="1.24" fill="none" stroke="#111" stroke-width="1.6"/><circle cx="32" cy="56.76" r="1.24" fill="none" stroke="#111" stroke-width="1.6"/><polyline points="38.19,19.62 44.38,13.43 47.48,22.71 38.19,19.62" fill="none" stroke="#111" stroke-width="1.6" stroke-linecap="round" stroke-linejoin="round"/><polyline points="44.38,25.81 50.57,19.62" fill="none" stroke="#111" stroke-width="1.6" stroke-linecap="round" stroke-linejoin="round"/><polyline points="44.38,38.19 50.57,44.38" fill="none" stroke="#111" stroke-width="1.6" stroke-linecap="round" stroke-linejoin="round"/><polyline points="47.48,41.29 38.19,44.38 44.38,50.57 47.48,41.29" fill="none" stroke="#111" stroke-width="1.6" stroke-linecap="round" stroke-linejoin="round"/><circle cx="56.76" cy="32" r="1.24" fill="none" stroke="#111" stroke-width="1.6"/></svg>