<svg xmlns="http://www.w3.org/2000/svg" width="96" height="64" viewBox="0 0 96 64"><polyline points="43.14,54.29 7.86,54.29 7.86,26.43" fill="none" stroke="#111" stroke-width="1.6" stroke-linecap="round" stroke-linejoin="round"/><circle cx="7.86" cy="26.43" r="1.86" fill="none" stroke="#111" stroke-width="1.6"/><polyline points="17.14,58 18.07,57.07 18.07,51.5 19,50.57" fill="none" stroke="#111" stroke-width="1.6" stroke-linecap="round" stroke-linejoin="round"/><polyline points="18.07,54.29 22.71,57.07 22.71,51.5 18.07,54.29" fill="none" stroke="#111" stroke-width="1.6" stroke-linecap="round" stroke-linejoin="round"/><polyline points="26.43,12.5 26.43,40.36" fill="none" stroke="#111" stroke-width="1.6" stroke-linecap="round" stroke-linejoin="round"/><polyline points="26.43,26.43 6,26.43" fill="none" stroke="#111" stroke-width="1.6" stroke-linecap="round" stroke-linejoin="round"/><polyline points="30.14,9.71 30.14,17.14" fill="none" stroke="#111" stroke-width="1.6" stroke-linecap="round" stroke-linejoin="round"/><polyline points="30.14,22.71 30.14,30.14" fill="none" stroke="#111" stroke-width="1.6" stroke-linecap="round" stroke-linejoin="round"/><polyline points="30.14,35.71 30.14,43.14" fill="none" stroke="#111" stroke-width="1.6" stroke-linecap="round" stroke-linejoin="round"/><polyline points="30.14,39.43 48.71,39.43 48.71,13.43 30.14,13.43" fill="none" stroke="#111" stroke-width="1.6" stroke-linecap="round" stroke-linejoin="round"/><polyline points="32,26.43 39.43,23.64 39.43,29.21 32,26.43" fill="none" stroke="#111" stroke-width="1.6" stroke-linecap="round" stroke-linejoin="round"/><polyline points="32.93,54.29 28.29,51.5 28.29,57.07 32.93,54.29" fill="none" stroke="#111" stroke-width="1.6" stroke-linecap="round" stroke-linejoin="round"/><polyline points="33.86,50.57 32.93,51.5 32.93,57.07 32,58" fill="none" stroke="#111" stroke-width="1.6" stroke-linecap="round" stroke-linejoin="round"/><circle cx="36.64" cy="26.43" r="20.43" fill="none" stroke="#111" stroke-width="1.6"/><polyline points="43.14,7.86 43.14,13.43" fill="none" stroke="#111" stroke-width="1.6" stroke-linecap="round" stroke-linejoin="round"/><circle cx="43.14" cy="13.43" r="1.86" fill="none" stroke="#111" stroke-width="1.6"/><circle cx="43.14" cy="39.43" r="1.86" fill="none" stroke="#111" stroke-width="1.6"/><polyline points="43.14,45 43.14,26.43 30.14,26.43" fill="none" stroke="#111" stroke-width="1.6" stroke-linecap="round" stroke-linejoin="round"/><circle cx="43.14" cy="54.29" r="1.86" fill="none" stroke="#111" stroke-width="1.6"/><polyline points="45,22.71 45.93,23.64 51.5,23.64 52.43,24.57" fill="none" stroke="#111" stroke-width="1.6" stroke-linecap="round" stroke-linejoin="round"/><polyline points="48.71,23.64 45.93,28.29 51.5,28.29 48.71,23.64" fill="none" stroke="#111" stroke-width="1.6" stroke-linecap="round" stroke-linejoin="round"/></svg>