<svg xmlns="http://www.w3.org/2000/svg" width="96" height="64" viewBox="0 0 96 64"><rect x="6" y="23.05" width="11.82" height="18.74" fill="none" stroke="#111" stroke-width="1.6"/><rect x="6" y="23.05" width="11.82" height="18.74" fill="none" stroke="#111" stroke-width="1.6"/><rect x="6" y="23.05" width="11.82" height="18.74" fill="none" stroke="#111" stroke-width="1.6"/><rect x="7.69" y="27.95" width="8.44" height="8.1" fill="none" stroke="#111" stroke-width="1.6"/><rect x="7.69" y="27.95" width="8.44" height="8.1" fill="none" stroke="#111" stroke-width="1.6"/><rect x="7.69" y="27.95" width="8.44" height="8.1" fill="none" stroke="#111" stroke-width="1.6"/><rect x="7.69" y="27.95" width="8.44" height="8.1" fill="none" stroke="#111" stroke-width="1.6"/><rect x="7.69" y="27.95" width="8.44" height="8.1" fill="none" stroke="#111" stroke-width="1.6"/><rect x="7.69" y="27.95" width="8.44" height="8.1" fill="none" stroke="#111" stroke-width="1.6"/><rect x="7.69" y="27.95" width="8.44" height="8.1" fill="none" stroke="#111" stroke-width="1.6"/><rect x="7.69" y="27.95" width="8.44" height="8.1" fill="none" stroke="#111" stroke-width="1.6"/><rect x="7.69" y="27.95" width="8.44" height="8.1" fill="none" stroke="#111" stroke-width="1.6"/><rect x="7.69" y="19.84" width="8.44" height="24.32" fill="none" stroke="#111" stroke-width="1.6"/><rect x="7.69" y="24.57" width="8.44" height="14.86" fill="none" stroke="#111" stroke-width="1.6"/><rect x="7.69" y="6" width="8.44" height="52" fill="none" stroke="#111" stroke-width="1.6"/><rect x="7.69" y="27.78" width="8.44" height="9.28" fill="none" stroke="#111" stroke-width="1.6"/><rect x="9.38" y="7.35" width="5.06" height="49.3" fill="none" stroke="#111" stroke-width="1.6"/><rect x="9.38" y="6.34" width="5.06" height="51.32" fill="none" stroke="#111" stroke-width="1.6"/><rect x="9.38" y="9.04" width="5.06" height="45.92" fill="none" stroke="#111" stroke-width="1.6"/></svg>