<svg xmlns="http://www.w3.org/2000/svg" width="96" height="64" viewBox="0 0 96 64"><polyline points="6,47.6 16.4,47.6" fill="none" stroke="#111" stroke-width="1.6" stroke-linecap="round" stroke-linejoin="round"/><polyline points="9.47,16.4 9.47,23.33" fill="none" stroke="#111" stroke-width="1.6" stroke-linecap="round" stroke-linejoin="round"/><polyline points="9.47,30.27 9.47,37.2" fill="none" stroke="#111" stroke-width="1.6" stroke-linecap="round" stroke-linejoin="round"/><polyline points="9.47,44.13 9.47,51.07" fill="none" stroke="#111" stroke-width="1.6" stroke-linecap="round" stroke-linejoin="round"/><polyline points="10.16,16.4 14.32,12.24 12.24,12.24 14.32,12.24 14.32,14.32" fill="none" stroke="#111" stroke-width="1.6" stroke-linecap="round" stroke-linejoin="round"/><polyline points="10.16,30.27 14.32,26.11 12.24,26.11 14.32,26.11 14.32,28.19" fill="none" stroke="#111" stroke-width="1.6" stroke-linecap="round" stroke-linejoin="round"/><polyline points="10.16,44.13 14.32,39.97 12.24,39.97 14.32,39.97 14.32,42.05" fill="none" stroke="#111" stroke-width="1.6" stroke-linecap="round" stroke-linejoin="round"/><polyline points="12.93,16.4 17.09,12.24 15.01,12.24 17.09,12.24 17.09,14.32" fill="none" stroke="#111" stroke-width="1.6" stroke-linecap="round" stroke-linejoin="round"/><polyline points="12.93,30.27 17.09,26.11 15.01,26.11 17.09,26.11 17.09,28.19" fill="none" stroke="#111" stroke-width="1.6" stroke-linecap="round" stroke-linejoin="round"/><polyline points="12.93,44.13 17.09,39.97 15.01,39.97 17.09,39.97 17.09,42.05" fill="none" stroke="#111" stroke-width="1.6" stroke-linecap="round" stroke-linejoin="round"/><polyline points="16.4,16.4 16.4,23.33 9.47,19.87 16.4,16.4" fill="none" stroke="#111" stroke-width="1.6" stroke-linecap="round" stroke-linejoin="round"/><rect x="16.4" y="16.4" width="0" height="0" fill="none" stroke="#111" stroke-width="1.6"/><polyline points="16.4,19.87 6,19.87" fill="none" stroke="#111" stroke-width="1.6" stroke-linecap="round" stroke-linejoin="round"/><polyline points="16.4,30.27 16.4,37.2 9.47,33.73 16.4,30.27" fill="none" stroke="#111" stroke-width="1.6" stroke-linecap="round" stroke-linejoin="round"/><polyline points="16.4,44.13 16.4,51.07 9.47,47.6 16.4,44.13" fill="none" stroke="#111" stroke-width="1.6" stroke-linecap="round" stroke-linejoin="round"/><polyline points="16.4,47.6 18.48,47.6 18.48,19.87 16.4,19.87" fill="none" stroke="#111" stroke-width="1.6" stroke-linecap="round" stroke-linejoin="round"/><circle cx="18.48" cy="33.73" r="0.69" fill="none" stroke="#111" stroke-width="1.6"/><polyline points="19.87,33.73 6,33.73" fill="none" stroke="#111" stroke-width="1.6" stroke-linecap="round" stroke-linejoin="round"/><rect x="6" y="6" width="13.87" height="52" fill="none" stroke="#111" stroke-width="1.6"/></svg>