<svg xmlns="http://www.w3.org/2000/svg" width="96" height="64" viewBox="0 0 96 64"><rect x="6" y="6" width="2.23" height="51.33" fill="none" stroke="#111" stroke-width="1.6"/><rect x="6" y="7" width="1.12" height="0.23" fill="none" stroke="#111" stroke-width="1.6"/><rect x="6" y="9.24" width="1.12" height="0.22" fill="none" stroke="#111" stroke-width="1.6"/><rect x="6" y="11.47" width="1.12" height="0.22" fill="none" stroke="#111" stroke-width="1.6"/><rect x="6" y="13.7" width="1.12" height="0.22" fill="none" stroke="#111" stroke-width="1.6"/><rect x="6" y="15.93" width="1.12" height="0.22" fill="none" stroke="#111" stroke-width="1.6"/><rect x="6" y="18.16" width="1.12" height="0.23" fill="none" stroke="#111" stroke-width="1.6"/><rect x="6" y="20.39" width="1.12" height="0.23" fill="none" stroke="#111" stroke-width="1.6"/><rect x="6" y="22.63" width="1.12" height="0.22" fill="none" stroke="#111" stroke-width="1.6"/><rect x="6" y="24.86" width="1.12" height="0.22" fill="none" stroke="#111" stroke-width="1.6"/><rect x="6" y="27.09" width="1.12" height="0.22" fill="none" stroke="#111" stroke-width="1.6"/><rect x="6" y="29.32" width="1.12" height="0.23" fill="none" stroke="#111" stroke-width="1.6"/><rect x="6" y="31.55" width="1.12" height="0.23" fill="none" stroke="#111" stroke-width="1.6"/><rect x="6" y="33.79" width="1.12" height="0.22" fill="none" stroke="#111" stroke-width="1.6"/><rect x="6" y="36.02" width="1.12" height="0.22" fill="none" stroke="#111" stroke-width="1.6"/><rect x="6" y="38.25" width="1.12" height="0.22" fill="none" stroke="#111" stroke-width="1.6"/><rect x="6" y="40.48" width="1.12" height="0.22" fill="none" stroke="#111" stroke-width="1.6"/><rect x="6" y="42.71" width="1.12" height="0.23" fill="none" stroke="#111" stroke-width="1.6"/><rect x="6" y="44.94" width="1.12" height="0.23" fill="none" stroke="#111" stroke-width="1.6"/><rect x="6" y="47.18" width="1.12" height="0.22" fill="none" stroke="#111" stroke-width="1.6"/><rect x="6" y="49.41" width="1.12" height="0.22" fill="none" stroke="#111" stroke-width="1.6"/><rect x="6" y="51.64" width="1.12" height="0.22" fill="none" stroke="#111" stroke-width="1.6"/><rect x="6" y="53.87" width="1.12" height="0.22" fill="none" stroke="#111" stroke-width="1.6"/><rect x="6" y="56.1" width="1.12" height="0.23" fill="none" stroke="#111" stroke-width="1.6"/><polyline points="6.22,58 8.01,58" fill="none" stroke="#111" stroke-width="1.6" stroke-linecap="round" stroke-linejoin="round"/></svg>