<svg xmlns="http://www.w3.org/2000/svg" width="96" height="64" viewBox="0 0 96 64"><rect x="6" y="6" width="1.11" height="52" fill="none" stroke="#111" stroke-width="1.6"/><rect x="6" y="6.5" width="0.55" height="0.11" fill="none" stroke="#111" stroke-width="1.6"/><rect x="6" y="7.6" width="0.55" height="0.11" fill="none" stroke="#111" stroke-width="1.6"/><rect x="6" y="8.71" width="0.55" height="0.11" fill="none" stroke="#111" stroke-width="1.6"/><rect x="6" y="9.82" width="0.55" height="0.11" fill="none" stroke="#111" stroke-width="1.6"/><rect x="6" y="10.92" width="0.55" height="0.11" fill="none" stroke="#111" stroke-width="1.6"/><rect x="6" y="12.03" width="0.55" height="0.11" fill="none" stroke="#111" stroke-width="1.6"/><rect x="6" y="13.14" width="0.55" height="0.11" fill="none" stroke="#111" stroke-width="1.6"/><rect x="6" y="14.24" width="0.55" height="0.11" fill="none" stroke="#111" stroke-width="1.6"/><rect x="6" y="15.35" width="0.55" height="0.11" fill="none" stroke="#111" stroke-width="1.6"/><rect x="6" y="16.46" width="0.55" height="0.11" fill="none" stroke="#111" stroke-width="1.6"/><rect x="6" y="17.56" width="0.55" height="0.11" fill="none" stroke="#111" stroke-width="1.6"/><rect x="6" y="18.67" width="0.55" height="0.11" fill="none" stroke="#111" stroke-width="1.6"/><rect x="6" y="19.77" width="0.55" height="0.12" fill="none" stroke="#111" stroke-width="1.6"/><rect x="6" y="20.88" width="0.55" height="0.11" fill="none" stroke="#111" stroke-width="1.6"/><rect x="6" y="21.99" width="0.55" height="0.11" fill="none" stroke="#111" stroke-width="1.6"/><rect x="6" y="23.09" width="0.55" height="0.11" fill="none" stroke="#111" stroke-width="1.6"/><rect x="6" y="24.2" width="0.55" height="0.11" fill="none" stroke="#111" stroke-width="1.6"/><rect x="6" y="25.31" width="0.55" height="0.11" fill="none" stroke="#111" stroke-width="1.6"/><rect x="6" y="26.41" width="0.55" height="0.11" fill="none" stroke="#111" stroke-width="1.6"/><rect x="6" y="27.52" width="0.55" height="0.11" fill="none" stroke="#111" stroke-width="1.6"/><rect x="6" y="28.63" width="0.55" height="0.11" fill="none" stroke="#111" stroke-width="1.6"/><rect x="6" y="29.73" width="0.55" height="0.11" fill="none" stroke="#111" stroke-width="1.6"/><rect x="6" y="30.84" width="0.55" height="0.11" fill="none" stroke="#111" stroke-width="1.6"/><rect x="6" y="31.94" width="0.55" height="0.12" fill="none" stroke="#111" stroke-width="1.6"/><rect x="6" y="33.05" width="0.55" height="0.11" fill="none" stroke="#111" stroke-width="1.6"/><rect x="6" y="34.16" width="0.55" height="0.11" fill="none" stroke="#111" stroke-width="1.6"/><rect x="6" y="35.26" width="0.55" height="0.11" fill="none" stroke="#111" stroke-width="1.6"/><rect x="6" y="36.37" width="0.55" height="0.11" fill="none" stroke="#111" stroke-width="1.6"/><rect x="6" y="37.48" width="0.55" height="0.11" fill="none" stroke="#111" stroke-width="1.6"/><rect x="6" y="38.58" width="0.55" height="0.11" fill="none" stroke="#111" stroke-width="1.6"/><rect x="6" y="39.69" width="0.55" height="0.11" fill="none" stroke="#111" stroke-width="1.6"/><rect x="6" y="40.8" width="0.55" height="0.11" fill="none" stroke="#111" stroke-width="1.6"/><rect x="6" y="41.9" width="0.55" height="0.11" fill="none" stroke="#111" stroke-width="1.6"/><rect x="6" y="43.01" width="0.55" height="0.11" fill="none" stroke="#111" stroke-width="1.6"/><rect x="6" y="44.11" width="0.55" height="0.12" fill="none" stroke="#111" stroke-width="1.6"/><rect x="6" y="45.22" width="0.55" height="0.11" fill="none" stroke="#111" stroke-width="1.6"/><rect x="6" y="46.33" width="0.55" height="0.11" fill="none" stroke="#111" stroke-width="1.6"/><rect x="6" y="47.43" width="0.55" height="0.11" fill="none" stroke="#111" stroke-width="1.6"/><rect x="6" y="48.54" width="0.55" height="0.11" fill="none" stroke="#111" stroke-width="1.6"/><rect x="6" y="49.65" width="0.55" height="0.11" fill="none" stroke="#111" stroke-width="1.6"/><rect x="6" y="50.75" width="0.55" height="0.11" fill="none" stroke="#111" stroke-width="1.6"/><rect x="6" y="51.86" width="0.55" height="0.11" fill="none" stroke="#111" stroke-width="1.6"/><rect x="6" y="52.97" width="0.55" height="0.11" fill="none" stroke="#111" stroke-width="1.6"/><rect x="6" y="54.07" width="0.55" height="0.11" fill="none" stroke="#111" stroke-width="1.6"/><rect x="6" y="55.18" width="0.55" height="0.11" fill="none" stroke="#111" stroke-width="1.6"/><rect x="6" y="56.29" width="0.55" height="0.11" fill="none" stroke="#111" stroke-width="1.6"/><rect x="6" y="57.39" width="0.55" height="0.11" fill="none" stroke="#111" stroke-width="1.6"/></svg>