<svg xmlns="http://www.w3.org/2000/svg" width="96" height="64" viewBox="0 0 96 64"><rect x="6" y="6" width="1.94" height="0.57" fill="none" stroke="#111" stroke-width="1.6"/><rect x="6" y="11.71" width="1.94" height="0.58" fill="none" stroke="#111" stroke-width="1.6"/><rect x="6" y="17.43" width="1.94" height="0.57" fill="none" stroke="#111" stroke-width="1.6"/><rect x="6" y="23.14" width="1.94" height="0.57" fill="none" stroke="#111" stroke-width="1.6"/><rect x="6" y="28.86" width="1.94" height="0.57" fill="none" stroke="#111" stroke-width="1.6"/><rect x="6" y="34.57" width="1.94" height="0.57" fill="none" stroke="#111" stroke-width="1.6"/><rect x="6" y="40.29" width="1.94" height="0.57" fill="none" stroke="#111" stroke-width="1.6"/><rect x="6" y="46" width="1.94" height="0.57" fill="none" stroke="#111" stroke-width="1.6"/><rect x="6" y="51.71" width="1.94" height="0.58" fill="none" stroke="#111" stroke-width="1.6"/><rect x="6" y="57.43" width="1.94" height="0.57" fill="none" stroke="#111" stroke-width="1.6"/><polyline points="8.86,6.29 7.94,6.29" fill="none" stroke="#111" stroke-width="1.6" stroke-linecap="round" stroke-linejoin="round"/><polyline points="8.86,12 7.94,12" fill="none" stroke="#111" stroke-width="1.6" stroke-linecap="round" stroke-linejoin="round"/><polyline points="8.86,17.71 7.94,17.71" fill="none" stroke="#111" stroke-width="1.6" stroke-linecap="round" stroke-linejoin="round"/><polyline points="8.86,23.43 7.94,23.43" fill="none" stroke="#111" stroke-width="1.6" stroke-linecap="round" stroke-linejoin="round"/><polyline points="8.86,29.14 7.94,29.14" fill="none" stroke="#111" stroke-width="1.6" stroke-linecap="round" stroke-linejoin="round"/><polyline points="8.86,34.86 7.94,34.86" fill="none" stroke="#111" stroke-width="1.6" stroke-linecap="round" stroke-linejoin="round"/><polyline points="8.86,40.57 7.94,40.57" fill="none" stroke="#111" stroke-width="1.6" stroke-linecap="round" stroke-linejoin="round"/><polyline points="8.86,46.29 7.94,46.29" fill="none" stroke="#111" stroke-width="1.6" stroke-linecap="round" stroke-linejoin="round"/><polyline points="8.86,52 7.94,52" fill="none" stroke="#111" stroke-width="1.6" stroke-linecap="round" stroke-linejoin="round"/><polyline points="8.86,57.71 7.94,57.71" fill="none" stroke="#111" stroke-width="1.6" stroke-linecap="round" stroke-linejoin="round"/></svg>