<svg xmlns="http://www.w3.org/2000/svg" width="96" height="64" viewBox="0 0 96 64"><polyline points="10.95,12.6 10.95,20.86" fill="none" stroke="#111" stroke-width="1.6" stroke-linecap="round" stroke-linejoin="round"/><polyline points="10.95,12.6 10.95,20.86 10.95,20.86" fill="none" stroke="#111" stroke-width="1.6" stroke-linecap="round" stroke-linejoin="round"/><polyline points="10.95,16.73 6.83,16.73" fill="none" stroke="#111" stroke-width="1.6" stroke-linecap="round" stroke-linejoin="round"/><polyline points="10.95,16.73 19.21,16.73" fill="none" stroke="#111" stroke-width="1.6" stroke-linecap="round" stroke-linejoin="round"/><polyline points="10.95,29.11 10.95,37.37" fill="none" stroke="#111" stroke-width="1.6" stroke-linecap="round" stroke-linejoin="round"/><polyline points="10.95,29.11 10.95,37.37 10.95,37.37" fill="none" stroke="#111" stroke-width="1.6" stroke-linecap="round" stroke-linejoin="round"/><polyline points="10.95,33.24 6.83,33.24" fill="none" stroke="#111" stroke-width="1.6" stroke-linecap="round" stroke-linejoin="round"/><polyline points="10.95,45.62 10.95,53.87" fill="none" stroke="#111" stroke-width="1.6" stroke-linecap="round" stroke-linejoin="round"/><polyline points="10.95,49.75 6.83,49.75" fill="none" stroke="#111" stroke-width="1.6" stroke-linecap="round" stroke-linejoin="round"/><polyline points="10.95,49.75 19.21,49.75" fill="none" stroke="#111" stroke-width="1.6" stroke-linecap="round" stroke-linejoin="round"/><polyline points="11.78,12.6 16.73,7.65 14.25,7.65 16.73,7.65 16.73,10.13" fill="none" stroke="#111" stroke-width="1.6" stroke-linecap="round" stroke-linejoin="round"/><polyline points="11.78,29.11 16.73,24.16 14.25,24.16 16.73,24.16 16.73,26.63" fill="none" stroke="#111" stroke-width="1.6" stroke-linecap="round" stroke-linejoin="round"/><polyline points="11.78,45.62 16.73,40.67 14.25,40.67 16.73,40.67 16.73,43.14" fill="none" stroke="#111" stroke-width="1.6" stroke-linecap="round" stroke-linejoin="round"/><polyline points="15.08,12.6 20.03,7.65 17.56,7.65 20.03,7.65 20.03,10.13" fill="none" stroke="#111" stroke-width="1.6" stroke-linecap="round" stroke-linejoin="round"/><polyline points="15.08,29.11 20.03,24.16 17.56,24.16 20.03,24.16 20.03,26.63" fill="none" stroke="#111" stroke-width="1.6" stroke-linecap="round" stroke-linejoin="round"/><polyline points="15.08,45.62 20.03,40.67 17.56,40.67 20.03,40.67 20.03,43.14" fill="none" stroke="#111" stroke-width="1.6" stroke-linecap="round" stroke-linejoin="round"/><polyline points="19.21,12.6 19.21,20.86 10.95,16.73 19.21,12.6" fill="none" stroke="#111" stroke-width="1.6" stroke-linecap="round" stroke-linejoin="round"/><rect x="19.21" y="12.6" width="0" height="0" fill="none" stroke="#111" stroke-width="1.6"/><rect x="19.21" y="12.6" width="0" height="8.26" fill="none" stroke="#111" stroke-width="1.6"/><polyline points="19.21,29.11 19.21,37.37 10.95,33.24 19.21,29.11" fill="none" stroke="#111" stroke-width="1.6" stroke-linecap="round" stroke-linejoin="round"/><rect x="19.21" y="29.11" width="0" height="0" fill="none" stroke="#111" stroke-width="1.6"/><polyline points="19.21,33.24 10.95,33.24" fill="none" stroke="#111" stroke-width="1.6" stroke-linecap="round" stroke-linejoin="round"/><polyline points="19.21,33.24 23.33,33.24" fill="none" stroke="#111" stroke-width="1.6" stroke-linecap="round" stroke-linejoin="round"/><rect x="19.21" y="29.11" width="0" height="8.26" fill="none" stroke="#111" stroke-width="1.6"/><polyline points="19.21,45.62 19.21,53.87 10.95,49.75 19.21,45.62" fill="none" stroke="#111" stroke-width="1.6" stroke-linecap="round" stroke-linejoin="round"/><polyline points="19.21,49.75 21.68,49.75 21.68,16.73 19.21,16.73" fill="none" stroke="#111" stroke-width="1.6" stroke-linecap="round" stroke-linejoin="round"/><circle cx="21.68" cy="33.24" r="0.83" fill="none" stroke="#111" stroke-width="1.6"/><rect x="6" y="6" width="18.16" height="52" fill="none" stroke="#111" stroke-width="1.6"/></svg>