<svg xmlns="http://www.w3.org/2000/svg" width="96" height="64" viewBox="0 0 96 64"><rect x="6" y="6" width="2.15" height="51.68" fill="none" stroke="#111" stroke-width="1.6"/><rect x="6" y="6.48" width="0.54" height="0.11" fill="none" stroke="#111" stroke-width="1.6"/><rect x="6" y="7.56" width="0.54" height="0.11" fill="none" stroke="#111" stroke-width="1.6"/><rect x="6" y="8.64" width="0.54" height="0.11" fill="none" stroke="#111" stroke-width="1.6"/><rect x="6" y="9.71" width="0.54" height="0.11" fill="none" stroke="#111" stroke-width="1.6"/><rect x="6" y="10.79" width="0.54" height="0.11" fill="none" stroke="#111" stroke-width="1.6"/><rect x="6" y="11.87" width="0.54" height="0.11" fill="none" stroke="#111" stroke-width="1.6"/><rect x="6" y="12.94" width="0.54" height="0.11" fill="none" stroke="#111" stroke-width="1.6"/><rect x="6" y="14.02" width="0.54" height="0.11" fill="none" stroke="#111" stroke-width="1.6"/><rect x="6" y="15.1" width="0.54" height="0.1" fill="none" stroke="#111" stroke-width="1.6"/><rect x="6" y="16.17" width="0.54" height="0.11" fill="none" stroke="#111" stroke-width="1.6"/><rect x="6" y="17.25" width="0.54" height="0.11" fill="none" stroke="#111" stroke-width="1.6"/><rect x="6" y="18.33" width="0.54" height="0.1" fill="none" stroke="#111" stroke-width="1.6"/><rect x="6" y="19.4" width="0.54" height="0.11" fill="none" stroke="#111" stroke-width="1.6"/><rect x="6" y="20.48" width="0.54" height="0.11" fill="none" stroke="#111" stroke-width="1.6"/><rect x="6" y="21.56" width="0.54" height="0.1" fill="none" stroke="#111" stroke-width="1.6"/><rect x="6" y="22.63" width="0.54" height="0.11" fill="none" stroke="#111" stroke-width="1.6"/><rect x="6" y="23.71" width="0.54" height="0.11" fill="none" stroke="#111" stroke-width="1.6"/><rect x="6" y="24.79" width="0.54" height="0.1" fill="none" stroke="#111" stroke-width="1.6"/><rect x="6" y="25.86" width="0.54" height="0.11" fill="none" stroke="#111" stroke-width="1.6"/><rect x="6" y="26.94" width="0.54" height="0.11" fill="none" stroke="#111" stroke-width="1.6"/><rect x="6" y="28.02" width="0.54" height="0.1" fill="none" stroke="#111" stroke-width="1.6"/><rect x="6" y="29.09" width="0.54" height="0.11" fill="none" stroke="#111" stroke-width="1.6"/><rect x="6" y="30.17" width="0.54" height="0.11" fill="none" stroke="#111" stroke-width="1.6"/><rect x="6" y="31.25" width="0.54" height="0.1" fill="none" stroke="#111" stroke-width="1.6"/><rect x="6" y="32.32" width="0.54" height="0.11" fill="none" stroke="#111" stroke-width="1.6"/><rect x="6" y="33.4" width="0.54" height="0.11" fill="none" stroke="#111" stroke-width="1.6"/><rect x="6" y="34.48" width="0.54" height="0.1" fill="none" stroke="#111" stroke-width="1.6"/><rect x="6" y="35.55" width="0.54" height="0.11" fill="none" stroke="#111" stroke-width="1.6"/><rect x="6" y="36.63" width="0.54" height="0.11" fill="none" stroke="#111" stroke-width="1.6"/><rect x="6" y="37.71" width="0.54" height="0.1" fill="none" stroke="#111" stroke-width="1.6"/><rect x="6" y="38.78" width="0.54" height="0.11" fill="none" stroke="#111" stroke-width="1.6"/><rect x="6" y="39.86" width="0.54" height="0.11" fill="none" stroke="#111" stroke-width="1.6"/><rect x="6" y="40.94" width="0.54" height="0.1" fill="none" stroke="#111" stroke-width="1.6"/><rect x="6" y="42.01" width="0.54" height="0.11" fill="none" stroke="#111" stroke-width="1.6"/><rect x="6" y="43.09" width="0.54" height="0.11" fill="none" stroke="#111" stroke-width="1.6"/><rect x="6" y="44.17" width="0.54" height="0.1" fill="none" stroke="#111" stroke-width="1.6"/><rect x="6" y="45.24" width="0.54" height="0.11" fill="none" stroke="#111" stroke-width="1.6"/><rect x="6" y="46.32" width="0.54" height="0.11" fill="none" stroke="#111" stroke-width="1.6"/><rect x="6" y="47.4" width="0.54" height="0.1" fill="none" stroke="#111" stroke-width="1.6"/><rect x="6" y="48.47" width="0.54" height="0.11" fill="none" stroke="#111" stroke-width="1.6"/><rect x="6" y="49.55" width="0.54" height="0.11" fill="none" stroke="#111" stroke-width="1.6"/><rect x="6" y="50.63" width="0.54" height="0.1" fill="none" stroke="#111" stroke-width="1.6"/><rect x="6" y="51.7" width="0.54" height="0.11" fill="none" stroke="#111" stroke-width="1.6"/><rect x="6" y="52.78" width="0.54" height="0.11" fill="none" stroke="#111" stroke-width="1.6"/><rect x="6" y="53.86" width="0.54" height="0.1" fill="none" stroke="#111" stroke-width="1.6"/><rect x="6" y="54.93" width="0.54" height="0.11" fill="none" stroke="#111" stroke-width="1.6"/><rect x="6" y="56.01" width="0.54" height="0.11" fill="none" stroke="#111" stroke-width="1.6"/><rect x="6" y="57.08" width="0.54" height="0.11" fill="none" stroke="#111" stroke-width="1.6"/><polyline points="6.65,58 7.51,58" fill="none" stroke="#111" stroke-width="1.6" stroke-linecap="round" stroke-linejoin="round"/><rect x="7.61" y="6.48" width="0.54" height="0.11" fill="none" stroke="#111" stroke-width="1.6"/><rect x="7.61" y="7.56" width="0.54" height="0.11" fill="none" stroke="#111" stroke-width="1.6"/><rect x="7.61" y="8.64" width="0.54" height="0.11" fill="none" stroke="#111" stroke-width="1.6"/><rect x="7.61" y="9.71" width="0.54" height="0.11" fill="none" stroke="#111" stroke-width="1.6"/><rect x="7.61" y="10.79" width="0.54" height="0.11" fill="none" stroke="#111" stroke-width="1.6"/><rect x="7.61" y="11.87" width="0.54" height="0.11" fill="none" stroke="#111" stroke-width="1.6"/><rect x="7.61" y="12.94" width="0.54" height="0.11" fill="none" stroke="#111" stroke-width="1.6"/><rect x="7.61" y="14.02" width="0.54" height="0.11" fill="none" stroke="#111" stroke-width="1.6"/><rect x="7.61" y="15.1" width="0.54" height="0.1" fill="none" stroke="#111" stroke-width="1.6"/><rect x="7.61" y="16.17" width="0.54" height="0.11" fill="none" stroke="#111" stroke-width="1.6"/><rect x="7.61" y="17.25" width="0.54" height="0.11" fill="none" stroke="#111" stroke-width="1.6"/><rect x="7.61" y="18.33" width="0.54" height="0.1" fill="none" stroke="#111" stroke-width="1.6"/><rect x="7.61" y="19.4" width="0.54" height="0.11" fill="none" stroke="#111" stroke-width="1.6"/><rect x="7.61" y="20.48" width="0.54" height="0.11" fill="none" stroke="#111" stroke-width="1.6"/><rect x="7.61" y="21.56" width="0.54" height="0.1" fill="none" stroke="#111" stroke-width="1.6"/><rect x="7.61" y="22.63" width="0.54" height="0.11" fill="none" stroke="#111" stroke-width="1.6"/><rect x="7.61" y="23.71" width="0.54" height="0.11" fill="none" stroke="#111" stroke-width="1.6"/><rect x="7.61" y="24.79" width="0.54" height="0.1" fill="none" stroke="#111" stroke-width="1.6"/><rect x="7.61" y="25.86" width="0.54" height="0.11" fill="none" stroke="#111" stroke-width="1.6"/><rect x="7.61" y="26.94" width="0.54" height="0.11" fill="none" stroke="#111" stroke-width="1.6"/><rect x="7.61" y="28.02" width="0.54" height="0.1" fill="none" stroke="#111" stroke-width="1.6"/><rect x="7.61" y="29.09" width="0.54" height="0.11" fill="none" stroke="#111" stroke-width="1.6"/><rect x="7.61" y="30.17" width="0.54" height="0.11" fill="none" stroke="#111" stroke-width="1.6"/><rect x="7.61" y="31.25" width="0.54" height="0.1" fill="none" stroke="#111" stroke-width="1.6"/><rect x="7.61" y="32.32" width="0.54" height="0.11" fill="none" stroke="#111" stroke-width="1.6"/><rect x="7.61" y="33.4" width="0.54" height="0.11" fill="none" stroke="#111" stroke-width="1.6"/><rect x="7.61" y="34.48" width="0.54" height="0.1" fill="none" stroke="#111" stroke-width="1.6"/><rect x="7.61" y="35.55" width="0.54" height="0.11" fill="none" stroke="#111" stroke-width="1.6"/><rect x="7.61" y="36.63" width="0.54" height="0.11" fill="none" stroke="#111" stroke-width="1.6"/><rect x="7.61" y="37.71" width="0.54" height="0.1" fill="none" stroke="#111" stroke-width="1.6"/><rect x="7.61" y="38.78" width="0.54" height="0.11" fill="none" stroke="#111" stroke-width="1.6"/><rect x="7.61" y="39.86" width="0.54" height="0.11" fill="none" stroke="#111" stroke-width="1.6"/><rect x="7.61" y="40.94" width="0.54" height="0.1" fill="none" stroke="#111" stroke-width="1.6"/><rect x="7.61" y="42.01" width="0.54" height="0.11" fill="none" stroke="#111" stroke-width="1.6"/><rect x="7.61" y="43.09" width="0.54" height="0.11" fill="none" stroke="#111" stroke-width="1.6"/><rect x="7.61" y="44.17" width="0.54" height="0.1" fill="none" stroke="#111" stroke-width="1.6"/><rect x="7.61" y="45.24" width="0.54" height="0.11" fill="none" stroke="#111" stroke-width="1.6"/><rect x="7.61" y="46.32" width="0.54" height="0.11" fill="none" stroke="#111" stroke-width="1.6"/><rect x="7.61" y="47.4" width="0.54" height="0.1" fill="none" stroke="#111" stroke-width="1.6"/><rect x="7.61" y="48.47" width="0.54" height="0.11" fill="none" stroke="#111" stroke-width="1.6"/><rect x="7.61" y="49.55" width="0.54" height="0.11" fill="none" stroke="#111" stroke-width="1.6"/><rect x="7.61" y="50.63" width="0.54" height="0.1" fill="none" stroke="#111" stroke-width="1.6"/><rect x="7.61" y="51.7" width="0.54" height="0.11" fill="none" stroke="#111" stroke-width="1.6"/><rect x="7.61" y="52.78" width="0.54" height="0.11" fill="none" stroke="#111" stroke-width="1.6"/><rect x="7.61" y="53.86" width="0.54" height="0.1" fill="none" stroke="#111" stroke-width="1.6"/><rect x="7.61" y="54.93" width="0.54" height="0.11" fill="none" stroke="#111" stroke-width="1.6"/><rect x="7.61" y="56.01" width="0.54" height="0.11" fill="none" stroke="#111" stroke-width="1.6"/><rect x="7.61" y="57.08" width="0.54" height="0.11" fill="none" stroke="#111" stroke-width="1.6"/></svg>