<svg xmlns="http://www.w3.org/2000/svg" width="96" height="64" viewBox="0 0 96 64"><polyline points="52.51,58 52.24,57.87 51.52,57.4 50.59,56.81 49.4,56.02 48.27,55.22 47.35,54.63 46.69,54.16 46.42,54.03 46.22,54.1 45.69,54.36 44.9,54.76 44.44,55.02 43.71,55.29 43.38,55.35 43.31,55.29 43.05,54.76 42.65,53.77 42.06,52.51 41.46,51.05 40.8,49.47 40.07,47.88 39.48,46.29 38.88,44.9 38.42,43.78 38.15,42.98 38.02,42.65 38.09,42.59 38.42,42.25 39.08,41.79 40.4,40.67 41.79,38.95 42.59,37.03 42.92,34.91 42.65,32.93 41.86,31.07 40.53,29.35 38.95,28.1 37.09,27.3 34.98,27.04 32.99,27.24 31.07,28.03 29.35,29.35 28.63,30.15 27.63,31.87 27.04,33.72 26.97,34.18 27.1,36.23 27.7,38.15 28.76,39.87 30.21,41.33 30.41,41.46 31.14,41.99 31.6,42.32 31.93,42.65 29.35,48.87 28.96,49.86 28.23,51.58 27.63,53.04 27.1,54.23 26.77,55.02 26.58,55.29 26.58,55.35 26.38,55.35 25.91,55.22 24.99,54.76 24.46,54.49 23.8,54.16 23.47,54.03 23.2,54.16 22.61,54.56 21.68,55.22 20.55,55.95 19.5,56.68 18.5,57.34 17.78,57.8 17.45,58 17.38,58 17.11,57.8 16.52,57.34 15.66,56.54 14.47,55.35 14.27,55.16 13.28,54.16 12.48,53.3 11.95,52.71 11.76,52.44 11.76,52.44 11.95,52.11 12.42,51.38 13.01,50.39 13.81,49.27 15.92,46.22 14.73,43.38 14.4,42.52 13.94,41.46 13.61,40.73 13.48,40.4 13.15,40.27 12.42,40.14 11.29,39.87 9.9,39.61 8.65,39.41 7.52,39.15 6.66,39.01 6.26,38.95 6.2,38.88 6.13,38.68 6.07,38.28 6.07,37.62 6,36.5 6,34.91 6,34.71 6.07,33.19 6.07,32 6.13,31.27 6.13,30.94 6.13,30.94 6.53,30.88 7.32,30.68 8.51,30.48 9.84,30.21 9.97,30.15 11.29,29.88 12.48,29.68 13.28,29.49 13.61,29.35 13.67,29.29 13.94,28.76 14.34,27.9 14.8,26.84 15.26,25.78 15.66,24.79 15.92,24.06 15.99,23.73 15.99,23.73 15.79,23.4 15.33,22.74 14.67,21.75 13.81,20.55 13.81,20.49 13.01,19.3 12.35,18.31 11.95,17.64 11.76,17.31 11.76,17.31 12.02,16.98 12.62,16.32 13.48,15.39 14.47,14.4 14.8,14.07 15.92,12.95 16.72,12.22 17.18,11.89 17.45,11.76 17.45,11.76 17.78,12.02 18.5,12.48 19.5,13.15 20.69,13.94 20.75,14.01 21.94,14.8 22.87,15.46 23.6,15.92 23.86,16.06 23.93,16.06 24.39,15.92 25.25,15.66 26.24,15.26 27.3,14.8 28.3,14.4 29.02,14.07 29.35,13.87 29.35,13.87 29.49,13.48 29.68,12.62 29.95,11.42 30.21,9.97 30.28,9.77 30.54,8.38 30.74,7.26 30.88,6.46 31.01,6.13 31.21,6.07 31.87,6 32.86,6 34.12,6 35.37,6 36.7,6 37.76,6.07 38.55,6.13 38.88,6.2 38.88,6.2 39.01,6.6 39.21,7.46 39.41,8.71 39.74,10.1 39.74,10.37 40.01,11.76 40.27,12.88 40.4,13.67 40.53,13.94 40.6,14.01 41.2,14.27 42.12,14.67 43.25,15.13 45.89,16.19 49.2,13.94 49.47,13.74 50.66,12.95 51.58,12.28 52.24,11.89 52.58,11.76 52.58,11.76 52.91,12.02 53.57,12.62 54.43,13.48 55.42,14.53 56.21,15.26 57.07,16.19 57.67,16.78 58,17.18 58.07,17.45 58.07,17.58 57.87,17.91 57.4,18.64 56.68,19.63 55.88,20.75 55.29,21.75 54.56,22.8 54.1,23.6 53.96,23.99 53.96,24.13 54.23,24.79 54.56,25.72 55.09,26.91 56.21,29.49 57.87,29.82 58.93,29.95 60.38,30.28 61.7,30.54 63.89,30.94 63.95,38.75 63.62,38.88 63.29,38.95 62.5,39.15 61.37,39.34 60.05,39.61 58.93,39.81 57.74,40.07 56.94,40.2 56.54,40.27 56.48,40.4 56.21,40.93 55.75,41.86 55.35,42.92 54.89,43.97 54.49,45.03 54.16,45.76 54.1,46.22 54.23,46.49 54.69,47.15 55.29,48.14 56.08,49.27 56.88,50.39 57.54,51.38 57.93,52.05 58.13,52.38 58.07,52.64 57.6,53.17 56.74,54.03 55.49,55.29 55.29,55.49 54.23,56.48 53.37,57.27 52.77,57.8 52.51,58" fill="none" stroke="#111" stroke-width="1.6" stroke-linecap="round" stroke-linejoin="round"/></svg>