<svg xmlns="http://www.w3.org/2000/svg" width="96" height="64" viewBox="0 0 96 64"><rect x="6" y="6" width="1.1" height="0.32" fill="none" stroke="#111" stroke-width="1.6"/><rect x="6" y="9.23" width="1.1" height="0.32" fill="none" stroke="#111" stroke-width="1.6"/><rect x="6" y="12.46" width="1.1" height="0.32" fill="none" stroke="#111" stroke-width="1.6"/><rect x="6" y="15.69" width="1.1" height="0.32" fill="none" stroke="#111" stroke-width="1.6"/><rect x="6" y="18.92" width="1.1" height="0.32" fill="none" stroke="#111" stroke-width="1.6"/><rect x="6" y="22.15" width="1.1" height="0.32" fill="none" stroke="#111" stroke-width="1.6"/><rect x="6" y="25.38" width="1.1" height="0.32" fill="none" stroke="#111" stroke-width="1.6"/><rect x="6" y="28.61" width="1.1" height="0.32" fill="none" stroke="#111" stroke-width="1.6"/><rect x="6" y="31.84" width="1.1" height="0.32" fill="none" stroke="#111" stroke-width="1.6"/><rect x="6" y="35.07" width="1.1" height="0.32" fill="none" stroke="#111" stroke-width="1.6"/><rect x="6" y="38.3" width="1.1" height="0.32" fill="none" stroke="#111" stroke-width="1.6"/><rect x="6" y="41.53" width="1.1" height="0.32" fill="none" stroke="#111" stroke-width="1.6"/><rect x="6" y="44.76" width="1.1" height="0.32" fill="none" stroke="#111" stroke-width="1.6"/><rect x="6" y="47.99" width="1.1" height="0.32" fill="none" stroke="#111" stroke-width="1.6"/><rect x="6" y="51.22" width="1.1" height="0.32" fill="none" stroke="#111" stroke-width="1.6"/><rect x="6" y="54.45" width="1.1" height="0.32" fill="none" stroke="#111" stroke-width="1.6"/><rect x="6" y="57.68" width="1.1" height="0.32" fill="none" stroke="#111" stroke-width="1.6"/><polyline points="7.61,6.16 7.1,6.16" fill="none" stroke="#111" stroke-width="1.6" stroke-linecap="round" stroke-linejoin="round"/><polyline points="7.61,9.39 7.1,9.39" fill="none" stroke="#111" stroke-width="1.6" stroke-linecap="round" stroke-linejoin="round"/><polyline points="7.61,12.62 7.1,12.62" fill="none" stroke="#111" stroke-width="1.6" stroke-linecap="round" stroke-linejoin="round"/><polyline points="7.61,15.85 7.1,15.85" fill="none" stroke="#111" stroke-width="1.6" stroke-linecap="round" stroke-linejoin="round"/><polyline points="7.61,19.08 7.1,19.08" fill="none" stroke="#111" stroke-width="1.6" stroke-linecap="round" stroke-linejoin="round"/><polyline points="7.61,22.31 7.1,22.31" fill="none" stroke="#111" stroke-width="1.6" stroke-linecap="round" stroke-linejoin="round"/><polyline points="7.61,25.54 7.1,25.54" fill="none" stroke="#111" stroke-width="1.6" stroke-linecap="round" stroke-linejoin="round"/><polyline points="7.61,28.77 7.1,28.77" fill="none" stroke="#111" stroke-width="1.6" stroke-linecap="round" stroke-linejoin="round"/><polyline points="7.61,32 7.1,32" fill="none" stroke="#111" stroke-width="1.6" stroke-linecap="round" stroke-linejoin="round"/><polyline points="7.61,35.23 7.1,35.23" fill="none" stroke="#111" stroke-width="1.6" stroke-linecap="round" stroke-linejoin="round"/><polyline points="7.61,38.46 7.1,38.46" fill="none" stroke="#111" stroke-width="1.6" stroke-linecap="round" stroke-linejoin="round"/><polyline points="7.61,41.69 7.1,41.69" fill="none" stroke="#111" stroke-width="1.6" stroke-linecap="round" stroke-linejoin="round"/><polyline points="7.61,44.92 7.1,44.92" fill="none" stroke="#111" stroke-width="1.6" stroke-linecap="round" stroke-linejoin="round"/><polyline points="7.61,48.15 7.1,48.15" fill="none" stroke="#111" stroke-width="1.6" stroke-linecap="round" stroke-linejoin="round"/><polyline points="7.61,51.38 7.1,51.38" fill="none" stroke="#111" stroke-width="1.6" stroke-linecap="round" stroke-linejoin="round"/><polyline points="7.61,54.61 7.1,54.61" fill="none" stroke="#111" stroke-width="1.6" stroke-linecap="round" stroke-linejoin="round"/><polyline points="7.61,57.84 7.1,57.84" fill="none" stroke="#111" stroke-width="1.6" stroke-linecap="round" stroke-linejoin="round"/></svg>