<svg xmlns="http://www.w3.org/2000/svg" width="96" height="64" viewBox="0 0 96 64"><rect x="6" y="6" width="0.52" height="0.15" fill="none" stroke="#111" stroke-width="1.6"/><rect x="6" y="7.52" width="0.52" height="0.16" fill="none" stroke="#111" stroke-width="1.6"/><rect x="6" y="9.05" width="0.52" height="0.15" fill="none" stroke="#111" stroke-width="1.6"/><rect x="6" y="10.57" width="0.52" height="0.16" fill="none" stroke="#111" stroke-width="1.6"/><rect x="6" y="12.1" width="0.52" height="0.15" fill="none" stroke="#111" stroke-width="1.6"/><rect x="6" y="13.62" width="0.52" height="0.16" fill="none" stroke="#111" stroke-width="1.6"/><rect x="6" y="15.15" width="0.52" height="0.15" fill="none" stroke="#111" stroke-width="1.6"/><rect x="6" y="16.67" width="0.52" height="0.16" fill="none" stroke="#111" stroke-width="1.6"/><rect x="6" y="18.2" width="0.52" height="0.15" fill="none" stroke="#111" stroke-width="1.6"/><rect x="6" y="19.72" width="0.52" height="0.16" fill="none" stroke="#111" stroke-width="1.6"/><rect x="6" y="21.25" width="0.52" height="0.15" fill="none" stroke="#111" stroke-width="1.6"/><rect x="6" y="22.77" width="0.52" height="0.16" fill="none" stroke="#111" stroke-width="1.6"/><rect x="6" y="24.3" width="0.52" height="0.15" fill="none" stroke="#111" stroke-width="1.6"/><rect x="6" y="25.82" width="0.52" height="0.16" fill="none" stroke="#111" stroke-width="1.6"/><rect x="6" y="27.35" width="0.52" height="0.15" fill="none" stroke="#111" stroke-width="1.6"/><rect x="6" y="28.87" width="0.52" height="0.16" fill="none" stroke="#111" stroke-width="1.6"/><rect x="6" y="30.4" width="0.52" height="0.15" fill="none" stroke="#111" stroke-width="1.6"/><rect x="6" y="31.92" width="0.52" height="0.16" fill="none" stroke="#111" stroke-width="1.6"/><rect x="6" y="33.45" width="0.52" height="0.15" fill="none" stroke="#111" stroke-width="1.6"/><rect x="6" y="34.97" width="0.52" height="0.16" fill="none" stroke="#111" stroke-width="1.6"/><rect x="6" y="36.5" width="0.52" height="0.15" fill="none" stroke="#111" stroke-width="1.6"/><rect x="6" y="38.02" width="0.52" height="0.16" fill="none" stroke="#111" stroke-width="1.6"/><rect x="6" y="39.55" width="0.52" height="0.15" fill="none" stroke="#111" stroke-width="1.6"/><rect x="6" y="41.07" width="0.52" height="0.16" fill="none" stroke="#111" stroke-width="1.6"/><rect x="6" y="42.6" width="0.52" height="0.15" fill="none" stroke="#111" stroke-width="1.6"/><rect x="6" y="44.12" width="0.52" height="0.16" fill="none" stroke="#111" stroke-width="1.6"/><rect x="6" y="45.65" width="0.52" height="0.15" fill="none" stroke="#111" stroke-width="1.6"/><rect x="6" y="47.17" width="0.52" height="0.16" fill="none" stroke="#111" stroke-width="1.6"/><rect x="6" y="48.7" width="0.52" height="0.15" fill="none" stroke="#111" stroke-width="1.6"/><rect x="6" y="50.22" width="0.52" height="0.16" fill="none" stroke="#111" stroke-width="1.6"/><rect x="6" y="51.75" width="0.52" height="0.15" fill="none" stroke="#111" stroke-width="1.6"/><rect x="6" y="53.27" width="0.52" height="0.16" fill="none" stroke="#111" stroke-width="1.6"/><rect x="6" y="54.8" width="0.52" height="0.15" fill="none" stroke="#111" stroke-width="1.6"/><rect x="6" y="56.32" width="0.52" height="0.16" fill="none" stroke="#111" stroke-width="1.6"/><rect x="6" y="57.85" width="0.52" height="0.15" fill="none" stroke="#111" stroke-width="1.6"/><polyline points="6.76,6.08 6.52,6.08" fill="none" stroke="#111" stroke-width="1.6" stroke-linecap="round" stroke-linejoin="round"/><polyline points="6.76,7.6 6.52,7.6" fill="none" stroke="#111" stroke-width="1.6" stroke-linecap="round" stroke-linejoin="round"/><polyline points="6.76,9.13 6.52,9.13" fill="none" stroke="#111" stroke-width="1.6" stroke-linecap="round" stroke-linejoin="round"/><polyline points="6.76,10.65 6.52,10.65" fill="none" stroke="#111" stroke-width="1.6" stroke-linecap="round" stroke-linejoin="round"/><polyline points="6.76,12.18 6.52,12.18" fill="none" stroke="#111" stroke-width="1.6" stroke-linecap="round" stroke-linejoin="round"/><polyline points="6.76,13.7 6.52,13.7" fill="none" stroke="#111" stroke-width="1.6" stroke-linecap="round" stroke-linejoin="round"/><polyline points="6.76,15.23 6.52,15.23" fill="none" stroke="#111" stroke-width="1.6" stroke-linecap="round" stroke-linejoin="round"/><polyline points="6.76,16.75 6.52,16.75" fill="none" stroke="#111" stroke-width="1.6" stroke-linecap="round" stroke-linejoin="round"/><polyline points="6.76,18.28 6.52,18.28" fill="none" stroke="#111" stroke-width="1.6" stroke-linecap="round" stroke-linejoin="round"/><polyline points="6.76,19.8 6.52,19.8" fill="none" stroke="#111" stroke-width="1.6" stroke-linecap="round" stroke-linejoin="round"/><polyline points="6.76,21.33 6.52,21.33" fill="none" stroke="#111" stroke-width="1.6" stroke-linecap="round" stroke-linejoin="round"/><polyline points="6.76,22.85 6.52,22.85" fill="none" stroke="#111" stroke-width="1.6" stroke-linecap="round" stroke-linejoin="round"/><polyline points="6.76,24.38 6.52,24.38" fill="none" stroke="#111" stroke-width="1.6" stroke-linecap="round" stroke-linejoin="round"/><polyline points="6.76,25.9 6.52,25.9" fill="none" stroke="#111" stroke-width="1.6" stroke-linecap="round" stroke-linejoin="round"/><polyline points="6.76,27.43 6.52,27.43" fill="none" stroke="#111" stroke-width="1.6" stroke-linecap="round" stroke-linejoin="round"/><polyline points="6.76,28.95 6.52,28.95" fill="none" stroke="#111" stroke-width="1.6" stroke-linecap="round" stroke-linejoin="round"/><polyline points="6.76,30.48 6.52,30.48" fill="none" stroke="#111" stroke-width="1.6" stroke-linecap="round" stroke-linejoin="round"/><polyline points="6.76,32 6.52,32" fill="none" stroke="#111" stroke-width="1.6" stroke-linecap="round" stroke-linejoin="round"/><polyline points="6.76,33.52 6.52,33.52" fill="none" stroke="#111" stroke-width="1.6" stroke-linecap="round" stroke-linejoin="round"/><polyline points="6.76,35.05 6.52,35.05" fill="none" stroke="#111" stroke-width="1.6" stroke-linecap="round" stroke-linejoin="round"/><polyline points="6.76,36.57 6.52,36.57" fill="none" stroke="#111" stroke-width="1.6" stroke-linecap="round" stroke-linejoin="round"/><polyline points="6.76,38.1 6.52,38.1" fill="none" stroke="#111" stroke-width="1.6" stroke-linecap="round" stroke-linejoin="round"/><polyline points="6.76,39.62 6.52,39.62" fill="none" stroke="#111" stroke-width="1.6" stroke-linecap="round" stroke-linejoin="round"/><polyline points="6.76,41.15 6.52,41.15" fill="none" stroke="#111" stroke-width="1.6" stroke-linecap="round" stroke-linejoin="round"/><polyline points="6.76,42.67 6.52,42.67" fill="none" stroke="#111" stroke-width="1.6" stroke-linecap="round" stroke-linejoin="round"/><polyline points="6.76,44.2 6.52,44.2" fill="none" stroke="#111" stroke-width="1.6" stroke-linecap="round" stroke-linejoin="round"/><polyline points="6.76,45.72 6.52,45.72" fill="none" stroke="#111" stroke-width="1.6" stroke-linecap="round" stroke-linejoin="round"/><polyline points="6.76,47.25 6.52,47.25" fill="none" stroke="#111" stroke-width="1.6" stroke-linecap="round" stroke-linejoin="round"/><polyline points="6.76,48.77 6.52,48.77" fill="none" stroke="#111" stroke-width="1.6" stroke-linecap="round" stroke-linejoin="round"/><polyline points="6.76,50.3 6.52,50.3" fill="none" stroke="#111" stroke-width="1.6" stroke-linecap="round" stroke-linejoin="round"/><polyline points="6.76,51.82 6.52,51.82" fill="none" stroke="#111" stroke-width="1.6" stroke-linecap="round" stroke-linejoin="round"/><polyline points="6.76,53.35 6.52,53.35" fill="none" stroke="#111" stroke-width="1.6" stroke-linecap="round" stroke-linejoin="round"/><polyline points="6.76,54.87 6.52,54.87" fill="none" stroke="#111" stroke-width="1.6" stroke-linecap="round" stroke-linejoin="round"/><polyline points="6.76,56.4 6.52,56.4" fill="none" stroke="#111" stroke-width="1.6" stroke-linecap="round" stroke-linejoin="round"/><polyline points="6.76,57.92 6.52,57.92" fill="none" stroke="#111" stroke-width="1.6" stroke-linecap="round" stroke-linejoin="round"/></svg>