<svg xmlns="http://www.w3.org/2000/svg" width="96" height="64" viewBox="0 0 96 64"><polyline points="6,6.22 6.34,6.22" fill="none" stroke="#111" stroke-width="1.6" stroke-linecap="round" stroke-linejoin="round"/><polyline points="6,7.34 6.34,7.34" fill="none" stroke="#111" stroke-width="1.6" stroke-linecap="round" stroke-linejoin="round"/><polyline points="6,8.47 6.34,8.47" fill="none" stroke="#111" stroke-width="1.6" stroke-linecap="round" stroke-linejoin="round"/><polyline points="6,9.59 6.34,9.59" fill="none" stroke="#111" stroke-width="1.6" stroke-linecap="round" stroke-linejoin="round"/><polyline points="6,10.71 6.34,10.71" fill="none" stroke="#111" stroke-width="1.6" stroke-linecap="round" stroke-linejoin="round"/><polyline points="6,11.83 6.34,11.83" fill="none" stroke="#111" stroke-width="1.6" stroke-linecap="round" stroke-linejoin="round"/><polyline points="6,12.95 6.34,12.95" fill="none" stroke="#111" stroke-width="1.6" stroke-linecap="round" stroke-linejoin="round"/><polyline points="6,14.07 6.34,14.07" fill="none" stroke="#111" stroke-width="1.6" stroke-linecap="round" stroke-linejoin="round"/><polyline points="6,15.19 6.34,15.19" fill="none" stroke="#111" stroke-width="1.6" stroke-linecap="round" stroke-linejoin="round"/><polyline points="6,16.31 6.34,16.31" fill="none" stroke="#111" stroke-width="1.6" stroke-linecap="round" stroke-linejoin="round"/><polyline points="6,17.43 6.34,17.43" fill="none" stroke="#111" stroke-width="1.6" stroke-linecap="round" stroke-linejoin="round"/><polyline points="6,18.55 6.34,18.55" fill="none" stroke="#111" stroke-width="1.6" stroke-linecap="round" stroke-linejoin="round"/><polyline points="6,19.67 6.34,19.67" fill="none" stroke="#111" stroke-width="1.6" stroke-linecap="round" stroke-linejoin="round"/><polyline points="6,20.79 6.34,20.79" fill="none" stroke="#111" stroke-width="1.6" stroke-linecap="round" stroke-linejoin="round"/><polyline points="6,21.91 6.34,21.91" fill="none" stroke="#111" stroke-width="1.6" stroke-linecap="round" stroke-linejoin="round"/><polyline points="6,23.03 6.34,23.03" fill="none" stroke="#111" stroke-width="1.6" stroke-linecap="round" stroke-linejoin="round"/><polyline points="6,24.16 6.34,24.16" fill="none" stroke="#111" stroke-width="1.6" stroke-linecap="round" stroke-linejoin="round"/><polyline points="6,25.28 6.34,25.28" fill="none" stroke="#111" stroke-width="1.6" stroke-linecap="round" stroke-linejoin="round"/><polyline points="6,26.4 6.34,26.4" fill="none" stroke="#111" stroke-width="1.6" stroke-linecap="round" stroke-linejoin="round"/><polyline points="6,27.52 6.34,27.52" fill="none" stroke="#111" stroke-width="1.6" stroke-linecap="round" stroke-linejoin="round"/><polyline points="6,28.64 6.34,28.64" fill="none" stroke="#111" stroke-width="1.6" stroke-linecap="round" stroke-linejoin="round"/><polyline points="6,29.76 6.34,29.76" fill="none" stroke="#111" stroke-width="1.6" stroke-linecap="round" stroke-linejoin="round"/><polyline points="6,30.88 6.34,30.88" fill="none" stroke="#111" stroke-width="1.6" stroke-linecap="round" stroke-linejoin="round"/><polyline points="6,32 6.34,32" fill="none" stroke="#111" stroke-width="1.6" stroke-linecap="round" stroke-linejoin="round"/><polyline points="6,33.12 6.34,33.12" fill="none" stroke="#111" stroke-width="1.6" stroke-linecap="round" stroke-linejoin="round"/><polyline points="6,34.24 6.34,34.24" fill="none" stroke="#111" stroke-width="1.6" stroke-linecap="round" stroke-linejoin="round"/><polyline points="6,35.36 6.34,35.36" fill="none" stroke="#111" stroke-width="1.6" stroke-linecap="round" stroke-linejoin="round"/><polyline points="6,36.48 6.34,36.48" fill="none" stroke="#111" stroke-width="1.6" stroke-linecap="round" stroke-linejoin="round"/><polyline points="6,37.6 6.34,37.6" fill="none" stroke="#111" stroke-width="1.6" stroke-linecap="round" stroke-linejoin="round"/><polyline points="6,38.72 6.34,38.72" fill="none" stroke="#111" stroke-width="1.6" stroke-linecap="round" stroke-linejoin="round"/><polyline points="6,39.84 6.34,39.84" fill="none" stroke="#111" stroke-width="1.6" stroke-linecap="round" stroke-linejoin="round"/><polyline points="6,40.97 6.34,40.97" fill="none" stroke="#111" stroke-width="1.6" stroke-linecap="round" stroke-linejoin="round"/><polyline points="6,42.09 6.34,42.09" fill="none" stroke="#111" stroke-width="1.6" stroke-linecap="round" stroke-linejoin="round"/><polyline points="6,43.21 6.34,43.21" fill="none" stroke="#111" stroke-width="1.6" stroke-linecap="round" stroke-linejoin="round"/><polyline points="6,44.33 6.34,44.33" fill="none" stroke="#111" stroke-width="1.6" stroke-linecap="round" stroke-linejoin="round"/><polyline points="6,45.45 6.34,45.45" fill="none" stroke="#111" stroke-width="1.6" stroke-linecap="round" stroke-linejoin="round"/><polyline points="6,46.57 6.34,46.57" fill="none" stroke="#111" stroke-width="1.6" stroke-linecap="round" stroke-linejoin="round"/><polyline points="6,47.69 6.34,47.69" fill="none" stroke="#111" stroke-width="1.6" stroke-linecap="round" stroke-linejoin="round"/><polyline points="6,48.81 6.34,48.81" fill="none" stroke="#111" stroke-width="1.6" stroke-linecap="round" stroke-linejoin="round"/><polyline points="6,49.93 6.34,49.93" fill="none" stroke="#111" stroke-width="1.6" stroke-linecap="round" stroke-linejoin="round"/><polyline points="6,51.05 6.34,51.05" fill="none" stroke="#111" stroke-width="1.6" stroke-linecap="round" stroke-linejoin="round"/><polyline points="6,52.17 6.34,52.17" fill="none" stroke="#111" stroke-width="1.6" stroke-linecap="round" stroke-linejoin="round"/><polyline points="6,53.29 6.34,53.29" fill="none" stroke="#111" stroke-width="1.6" stroke-linecap="round" stroke-linejoin="round"/><polyline points="6,54.41 6.34,54.41" fill="none" stroke="#111" stroke-width="1.6" stroke-linecap="round" stroke-linejoin="round"/><polyline points="6,55.53 6.34,55.53" fill="none" stroke="#111" stroke-width="1.6" stroke-linecap="round" stroke-linejoin="round"/><polyline points="6,56.66 6.34,56.66" fill="none" stroke="#111" stroke-width="1.6" stroke-linecap="round" stroke-linejoin="round"/><polyline points="6,57.78 6.34,57.78" fill="none" stroke="#111" stroke-width="1.6" stroke-linecap="round" stroke-linejoin="round"/><path d="M 6.56 6.45 Q 6.34 6.22 6.56 6" fill="none" stroke="#111" stroke-width="1.6" stroke-linecap="round"/><path d="M 6.56 7.57 Q 6.34 7.34 6.56 7.12" fill="none" stroke="#111" stroke-width="1.6" stroke-linecap="round"/><path d="M 6.56 8.69 Q 6.34 8.47 6.56 8.24" fill="none" stroke="#111" stroke-width="1.6" stroke-linecap="round"/><path d="M 6.56 9.81 Q 6.34 9.59 6.56 9.36" fill="none" stroke="#111" stroke-width="1.6" stroke-linecap="round"/><path d="M 6.56 10.93 Q 6.34 10.71 6.56 10.48" fill="none" stroke="#111" stroke-width="1.6" stroke-linecap="round"/><path d="M 6.56 12.05 Q 6.34 11.83 6.56 11.6" fill="none" stroke="#111" stroke-width="1.6" stroke-linecap="round"/><path d="M 6.56 13.17 Q 6.34 12.95 6.56 12.72" fill="none" stroke="#111" stroke-width="1.6" stroke-linecap="round"/><path d="M 6.56 14.29 Q 6.34 14.07 6.56 13.84" fill="none" stroke="#111" stroke-width="1.6" stroke-linecap="round"/><path d="M 6.56 15.41 Q 6.34 15.19 6.56 14.97" fill="none" stroke="#111" stroke-width="1.6" stroke-linecap="round"/><path d="M 6.56 16.53 Q 6.34 16.31 6.56 16.09" fill="none" stroke="#111" stroke-width="1.6" stroke-linecap="round"/><path d="M 6.56 17.66 Q 6.34 17.43 6.56 17.21" fill="none" stroke="#111" stroke-width="1.6" stroke-linecap="round"/><path d="M 6.56 18.78 Q 6.34 18.55 6.56 18.33" fill="none" stroke="#111" stroke-width="1.6" stroke-linecap="round"/><path d="M 6.56 19.9 Q 6.34 19.67 6.56 19.45" fill="none" stroke="#111" stroke-width="1.6" stroke-linecap="round"/><path d="M 6.56 21.02 Q 6.34 20.79 6.56 20.57" fill="none" stroke="#111" stroke-width="1.6" stroke-linecap="round"/><path d="M 6.56 22.14 Q 6.34 21.91 6.56 21.69" fill="none" stroke="#111" stroke-width="1.6" stroke-linecap="round"/><path d="M 6.56 23.26 Q 6.34 23.03 6.56 22.81" fill="none" stroke="#111" stroke-width="1.6" stroke-linecap="round"/><path d="M 6.56 24.38 Q 6.34 24.16 6.56 23.93" fill="none" stroke="#111" stroke-width="1.6" stroke-linecap="round"/><path d="M 6.56 25.5 Q 6.34 25.28 6.56 25.05" fill="none" stroke="#111" stroke-width="1.6" stroke-linecap="round"/><path d="M 6.56 26.62 Q 6.34 26.4 6.56 26.17" fill="none" stroke="#111" stroke-width="1.6" stroke-linecap="round"/><path d="M 6.56 27.74 Q 6.34 27.52 6.56 27.29" fill="none" stroke="#111" stroke-width="1.6" stroke-linecap="round"/><path d="M 6.56 28.86 Q 6.34 28.64 6.56 28.41" fill="none" stroke="#111" stroke-width="1.6" stroke-linecap="round"/><path d="M 6.56 29.98 Q 6.34 29.76 6.56 29.53" fill="none" stroke="#111" stroke-width="1.6" stroke-linecap="round"/><path d="M 6.56 31.1 Q 6.34 30.88 6.56 30.66" fill="none" stroke="#111" stroke-width="1.6" stroke-linecap="round"/><path d="M 6.56 32.22 Q 6.34 32 6.56 31.78" fill="none" stroke="#111" stroke-width="1.6" stroke-linecap="round"/><path d="M 6.56 33.34 Q 6.34 33.12 6.56 32.9" fill="none" stroke="#111" stroke-width="1.6" stroke-linecap="round"/><path d="M 6.56 34.47 Q 6.34 34.24 6.56 34.02" fill="none" stroke="#111" stroke-width="1.6" stroke-linecap="round"/><path d="M 6.56 35.59 Q 6.34 35.36 6.56 35.14" fill="none" stroke="#111" stroke-width="1.6" stroke-linecap="round"/><path d="M 6.56 36.71 Q 6.34 36.48 6.56 36.26" fill="none" stroke="#111" stroke-width="1.6" stroke-linecap="round"/><path d="M 6.56 37.83 Q 6.34 37.6 6.56 37.38" fill="none" stroke="#111" stroke-width="1.6" stroke-linecap="round"/><path d="M 6.56 38.95 Q 6.34 38.72 6.56 38.5" fill="none" stroke="#111" stroke-width="1.6" stroke-linecap="round"/><path d="M 6.56 40.07 Q 6.34 39.84 6.56 39.62" fill="none" stroke="#111" stroke-width="1.6" stroke-linecap="round"/><path d="M 6.56 41.19 Q 6.34 40.97 6.56 40.74" fill="none" stroke="#111" stroke-width="1.6" stroke-linecap="round"/><path d="M 6.56 42.31 Q 6.34 42.09 6.56 41.86" fill="none" stroke="#111" stroke-width="1.6" stroke-linecap="round"/><path d="M 6.56 43.43 Q 6.34 43.21 6.56 42.98" fill="none" stroke="#111" stroke-width="1.6" stroke-linecap="round"/><path d="M 6.56 44.55 Q 6.34 44.33 6.56 44.1" fill="none" stroke="#111" stroke-width="1.6" stroke-linecap="round"/><path d="M 6.56 45.67 Q 6.34 45.45 6.56 45.22" fill="none" stroke="#111" stroke-width="1.6" stroke-linecap="round"/><path d="M 6.56 46.79 Q 6.34 46.57 6.56 46.34" fill="none" stroke="#111" stroke-width="1.6" stroke-linecap="round"/><path d="M 6.56 47.91 Q 6.34 47.69 6.56 47.47" fill="none" stroke="#111" stroke-width="1.6" stroke-linecap="round"/><path d="M 6.56 49.03 Q 6.34 48.81 6.56 48.59" fill="none" stroke="#111" stroke-width="1.6" stroke-linecap="round"/><path d="M 6.56 50.16 Q 6.34 49.93 6.56 49.71" fill="none" stroke="#111" stroke-width="1.6" stroke-linecap="round"/><path d="M 6.56 51.28 Q 6.34 51.05 6.56 50.83" fill="none" stroke="#111" stroke-width="1.6" stroke-linecap="round"/><path d="M 6.56 52.4 Q 6.34 52.17 6.56 51.95" fill="none" stroke="#111" stroke-width="1.6" stroke-linecap="round"/><path d="M 6.56 53.52 Q 6.34 53.29 6.56 53.07" fill="none" stroke="#111" stroke-width="1.6" stroke-linecap="round"/><path d="M 6.56 54.64 Q 6.34 54.41 6.56 54.19" fill="none" stroke="#111" stroke-width="1.6" stroke-linecap="round"/><path d="M 6.56 55.76 Q 6.34 55.53 6.56 55.31" fill="none" stroke="#111" stroke-width="1.6" stroke-linecap="round"/><path d="M 6.56 56.88 Q 6.34 56.66 6.56 56.43" fill="none" stroke="#111" stroke-width="1.6" stroke-linecap="round"/><path d="M 6.56 58 Q 6.34 57.78 6.56 57.55" fill="none" stroke="#111" stroke-width="1.6" stroke-linecap="round"/></svg>