<svg xmlns="http://www.w3.org/2000/svg" width="96" height="64" viewBox="0 0 96 64"><rect x="6" y="6" width="1.18" height="52" fill="none" stroke="#111" stroke-width="1.6"/><rect x="6.12" y="6.12" width="0.94" height="51.76" fill="none" stroke="#111" stroke-width="1.6"/><rect x="6.12" y="6.53" width="0.59" height="0.12" fill="none" stroke="#111" stroke-width="1.6"/><rect x="6.12" y="7.71" width="0.59" height="0.12" fill="none" stroke="#111" stroke-width="1.6"/><rect x="6.12" y="8.9" width="0.59" height="0.11" fill="none" stroke="#111" stroke-width="1.6"/><rect x="6.12" y="10.08" width="0.59" height="0.12" fill="none" stroke="#111" stroke-width="1.6"/><rect x="6.12" y="11.26" width="0.59" height="0.12" fill="none" stroke="#111" stroke-width="1.6"/><rect x="6.12" y="12.44" width="0.59" height="0.12" fill="none" stroke="#111" stroke-width="1.6"/><rect x="6.12" y="13.62" width="0.59" height="0.12" fill="none" stroke="#111" stroke-width="1.6"/><rect x="6.12" y="14.8" width="0.59" height="0.12" fill="none" stroke="#111" stroke-width="1.6"/><rect x="6.12" y="15.99" width="0.59" height="0.11" fill="none" stroke="#111" stroke-width="1.6"/><rect x="6.12" y="17.17" width="0.59" height="0.12" fill="none" stroke="#111" stroke-width="1.6"/><rect x="6.12" y="18.35" width="0.59" height="0.12" fill="none" stroke="#111" stroke-width="1.6"/><rect x="6.12" y="19.53" width="0.59" height="0.12" fill="none" stroke="#111" stroke-width="1.6"/><rect x="6.12" y="20.71" width="0.59" height="0.12" fill="none" stroke="#111" stroke-width="1.6"/><rect x="6.12" y="21.9" width="0.59" height="0.11" fill="none" stroke="#111" stroke-width="1.6"/><rect x="6.12" y="23.08" width="0.59" height="0.12" fill="none" stroke="#111" stroke-width="1.6"/><rect x="6.12" y="24.26" width="0.59" height="0.12" fill="none" stroke="#111" stroke-width="1.6"/><rect x="6.12" y="25.44" width="0.59" height="0.12" fill="none" stroke="#111" stroke-width="1.6"/><rect x="6.12" y="26.62" width="0.59" height="0.12" fill="none" stroke="#111" stroke-width="1.6"/><rect x="6.12" y="27.8" width="0.59" height="0.12" fill="none" stroke="#111" stroke-width="1.6"/><rect x="6.12" y="28.99" width="0.59" height="0.11" fill="none" stroke="#111" stroke-width="1.6"/><rect x="6.12" y="30.17" width="0.59" height="0.12" fill="none" stroke="#111" stroke-width="1.6"/><rect x="6.12" y="31.35" width="0.59" height="0.12" fill="none" stroke="#111" stroke-width="1.6"/><rect x="6.12" y="32.53" width="0.59" height="0.12" fill="none" stroke="#111" stroke-width="1.6"/><rect x="6.12" y="33.71" width="0.59" height="0.12" fill="none" stroke="#111" stroke-width="1.6"/><rect x="6.12" y="34.9" width="0.59" height="0.11" fill="none" stroke="#111" stroke-width="1.6"/><rect x="6.12" y="36.08" width="0.59" height="0.12" fill="none" stroke="#111" stroke-width="1.6"/><rect x="6.12" y="37.26" width="0.59" height="0.12" fill="none" stroke="#111" stroke-width="1.6"/><rect x="6.12" y="38.44" width="0.59" height="0.12" fill="none" stroke="#111" stroke-width="1.6"/><rect x="6.12" y="39.62" width="0.59" height="0.12" fill="none" stroke="#111" stroke-width="1.6"/><rect x="6.12" y="40.8" width="0.59" height="0.12" fill="none" stroke="#111" stroke-width="1.6"/><rect x="6.12" y="41.99" width="0.59" height="0.11" fill="none" stroke="#111" stroke-width="1.6"/><rect x="6.12" y="43.17" width="0.59" height="0.12" fill="none" stroke="#111" stroke-width="1.6"/><rect x="6.12" y="44.35" width="0.59" height="0.12" fill="none" stroke="#111" stroke-width="1.6"/><rect x="6.12" y="45.53" width="0.59" height="0.12" fill="none" stroke="#111" stroke-width="1.6"/><rect x="6.12" y="46.71" width="0.59" height="0.12" fill="none" stroke="#111" stroke-width="1.6"/><rect x="6.12" y="47.9" width="0.59" height="0.11" fill="none" stroke="#111" stroke-width="1.6"/><rect x="6.12" y="49.08" width="0.59" height="0.12" fill="none" stroke="#111" stroke-width="1.6"/><rect x="6.12" y="50.26" width="0.59" height="0.12" fill="none" stroke="#111" stroke-width="1.6"/><rect x="6.12" y="51.44" width="0.59" height="0.12" fill="none" stroke="#111" stroke-width="1.6"/><rect x="6.12" y="52.62" width="0.59" height="0.12" fill="none" stroke="#111" stroke-width="1.6"/><rect x="6.12" y="53.8" width="0.59" height="0.12" fill="none" stroke="#111" stroke-width="1.6"/><rect x="6.12" y="54.99" width="0.59" height="0.11" fill="none" stroke="#111" stroke-width="1.6"/><rect x="6.12" y="56.17" width="0.59" height="0.12" fill="none" stroke="#111" stroke-width="1.6"/><rect x="6.12" y="57.35" width="0.59" height="0.12" fill="none" stroke="#111" stroke-width="1.6"/></svg>