<svg xmlns="http://www.w3.org/2000/svg" width="96" height="64" viewBox="0 0 96 64"><polyline points="6,14.97 14.97,14.97 14.97,23.93 13.17,23.93 13.17,25.72 13.17,25.72" fill="none" stroke="#111" stroke-width="1.6" stroke-linecap="round" stroke-linejoin="round"/><rect x="6" y="25.72" width="17.93" height="32.28" fill="none" stroke="#111" stroke-width="1.6"/><polyline points="7.79,25.72 7.79,23.93 6,23.93 6,6 23.93,6 23.93,23.93 22.14,23.93 22.14,25.72 22.14,25.72" fill="none" stroke="#111" stroke-width="1.6" stroke-linecap="round" stroke-linejoin="round"/><polyline points="11.74,56.21 9.59,55.13 9.59,57.28 11.74,56.21 11.74,56.21" fill="none" stroke="#111" stroke-width="1.6" stroke-linecap="round" stroke-linejoin="round"/><rect x="14.97" y="25.72" width="8.96" height="3.59" fill="none" stroke="#111" stroke-width="1.6"/><rect x="14.97" y="29.31" width="8.96" height="3.59" fill="none" stroke="#111" stroke-width="1.6"/><rect x="14.97" y="32.9" width="8.96" height="3.58" fill="none" stroke="#111" stroke-width="1.6"/><rect x="14.97" y="36.48" width="8.96" height="3.59" fill="none" stroke="#111" stroke-width="1.6"/><rect x="14.97" y="40.07" width="8.96" height="3.59" fill="none" stroke="#111" stroke-width="1.6"/><rect x="14.97" y="43.66" width="8.96" height="3.58" fill="none" stroke="#111" stroke-width="1.6"/><rect x="14.97" y="47.24" width="8.96" height="3.59" fill="none" stroke="#111" stroke-width="1.6"/><rect x="14.97" y="50.83" width="8.96" height="3.58" fill="none" stroke="#111" stroke-width="1.6"/><polyline points="15.68,26.44 15.68,28.59 17.83,27.52 15.68,26.44 15.68,26.44" fill="none" stroke="#111" stroke-width="1.6" stroke-linecap="round" stroke-linejoin="round"/></svg>