<svg xmlns="http://www.w3.org/2000/svg" width="96" height="64" viewBox="0 0 96 64"><circle cx="8.8" cy="10" r="0.8" fill="none" stroke="#111" stroke-width="1.6"/><circle cx="8.8" cy="14" r="0.8" fill="none" stroke="#111" stroke-width="1.6"/><circle cx="8.8" cy="18" r="0.8" fill="none" stroke="#111" stroke-width="1.6"/><circle cx="8.8" cy="22" r="0.8" fill="none" stroke="#111" stroke-width="1.6"/><circle cx="8.8" cy="26" r="0.8" fill="none" stroke="#111" stroke-width="1.6"/><circle cx="8.8" cy="30" r="0.8" fill="none" stroke="#111" stroke-width="1.6"/><circle cx="8.8" cy="34" r="0.8" fill="none" stroke="#111" stroke-width="1.6"/><circle cx="8.8" cy="38" r="0.8" fill="none" stroke="#111" stroke-width="1.6"/><circle cx="8.8" cy="42" r="0.8" fill="none" stroke="#111" stroke-width="1.6"/><circle cx="8.8" cy="46" r="0.8" fill="none" stroke="#111" stroke-width="1.6"/><circle cx="8.8" cy="50" r="0.8" fill="none" stroke="#111" stroke-width="1.6"/><circle cx="8.8" cy="54" r="0.8" fill="none" stroke="#111" stroke-width="1.6"/><polyline points="9.6,9.8 15.72,8.16" fill="none" stroke="#111" stroke-width="1.6" stroke-linecap="round" stroke-linejoin="round"/><polyline points="9.6,13.8 15.72,12.16" fill="none" stroke="#111" stroke-width="1.6" stroke-linecap="round" stroke-linejoin="round"/><polyline points="9.6,17.8 15.72,16.16" fill="none" stroke="#111" stroke-width="1.6" stroke-linecap="round" stroke-linejoin="round"/><polyline points="9.6,21.8 15.72,20.16" fill="none" stroke="#111" stroke-width="1.6" stroke-linecap="round" stroke-linejoin="round"/><polyline points="9.6,25.8 15.72,24.16" fill="none" stroke="#111" stroke-width="1.6" stroke-linecap="round" stroke-linejoin="round"/><polyline points="9.6,29.8 15.72,28.16" fill="none" stroke="#111" stroke-width="1.6" stroke-linecap="round" stroke-linejoin="round"/><polyline points="9.6,33.8 15.72,32.16" fill="none" stroke="#111" stroke-width="1.6" stroke-linecap="round" stroke-linejoin="round"/><polyline points="9.6,37.76 15.72,36.12" fill="none" stroke="#111" stroke-width="1.6" stroke-linecap="round" stroke-linejoin="round"/><polyline points="9.6,41.76 15.72,40.12" fill="none" stroke="#111" stroke-width="1.6" stroke-linecap="round" stroke-linejoin="round"/><polyline points="9.6,45.76 15.72,44.12" fill="none" stroke="#111" stroke-width="1.6" stroke-linecap="round" stroke-linejoin="round"/><polyline points="9.6,49.76 15.72,48.12" fill="none" stroke="#111" stroke-width="1.6" stroke-linecap="round" stroke-linejoin="round"/><polyline points="9.6,53.76 15.72,52.12" fill="none" stroke="#111" stroke-width="1.6" stroke-linecap="round" stroke-linejoin="round"/><circle cx="15.2" cy="10" r="0.8" fill="none" stroke="#111" stroke-width="1.6"/><circle cx="15.2" cy="14" r="0.8" fill="none" stroke="#111" stroke-width="1.6"/><circle cx="15.2" cy="18" r="0.8" fill="none" stroke="#111" stroke-width="1.6"/><circle cx="15.2" cy="22" r="0.8" fill="none" stroke="#111" stroke-width="1.6"/><circle cx="15.2" cy="26" r="0.8" fill="none" stroke="#111" stroke-width="1.6"/><circle cx="15.2" cy="30" r="0.8" fill="none" stroke="#111" stroke-width="1.6"/><circle cx="15.2" cy="34" r="0.8" fill="none" stroke="#111" stroke-width="1.6"/><circle cx="15.2" cy="38" r="0.8" fill="none" stroke="#111" stroke-width="1.6"/><circle cx="15.2" cy="42" r="0.8" fill="none" stroke="#111" stroke-width="1.6"/><circle cx="15.2" cy="46" r="0.8" fill="none" stroke="#111" stroke-width="1.6"/><circle cx="15.2" cy="50" r="0.8" fill="none" stroke="#111" stroke-width="1.6"/><circle cx="15.2" cy="54" r="0.8" fill="none" stroke="#111" stroke-width="1.6"/><rect x="6" y="6" width="12" height="52" fill="none" stroke="#111" stroke-width="1.6"/></svg>