<svg xmlns="http://www.w3.org/2000/svg" width="96" height="64" viewBox="0 0 96 64"><polyline points="19,6 6,6" fill="none" stroke="#111" stroke-width="1.6" stroke-linecap="round" stroke-linejoin="round"/><polyline points="19,58 6,58" fill="none" stroke="#111" stroke-width="1.6" stroke-linecap="round" stroke-linejoin="round"/><polyline points="45,6 58,6" fill="none" stroke="#111" stroke-width="1.6" stroke-linecap="round" stroke-linejoin="round"/><polyline points="45,58 58,58" fill="none" stroke="#111" stroke-width="1.6" stroke-linecap="round" stroke-linejoin="round"/><path d="M 19 6 Q 25.47 12.5 19 19" fill="none" stroke="#111" stroke-width="1.6" stroke-linecap="round"/><path d="M 19 19 Q 25.47 25.5 19 32" fill="none" stroke="#111" stroke-width="1.6" stroke-linecap="round"/><path d="M 19 32 Q 25.47 38.5 19 45" fill="none" stroke="#111" stroke-width="1.6" stroke-linecap="round"/><path d="M 19 45 Q 25.47 51.5 19 58" fill="none" stroke="#111" stroke-width="1.6" stroke-linecap="round"/><circle cx="20.3" cy="12.5" r="1.3" fill="none" stroke="#111" stroke-width="1.6"/><rect x="29.4" y="6" width="5.2" height="52" fill="none" stroke="#111" stroke-width="1.6"/><circle cx="45" cy="51.5" r="1.3" fill="none" stroke="#111" stroke-width="1.6"/><path d="M 45 19 Q 38.53 12.5 45 6" fill="none" stroke="#111" stroke-width="1.6" stroke-linecap="round"/><path d="M 45 32 Q 38.53 25.5 45 19" fill="none" stroke="#111" stroke-width="1.6" stroke-linecap="round"/><path d="M 45 45 Q 38.53 38.5 45 32" fill="none" stroke="#111" stroke-width="1.6" stroke-linecap="round"/><path d="M 45 58 Q 38.53 51.5 45 45" fill="none" stroke="#111" stroke-width="1.6" stroke-linecap="round"/></svg>