<svg xmlns="http://www.w3.org/2000/svg" width="96" height="64" viewBox="0 0 96 64"><rect x="6" y="6" width="0.8" height="0.24" fill="none" stroke="#111" stroke-width="1.6"/><rect x="6" y="8.35" width="0.8" height="0.24" fill="none" stroke="#111" stroke-width="1.6"/><rect x="6" y="10.71" width="0.8" height="0.23" fill="none" stroke="#111" stroke-width="1.6"/><rect x="6" y="13.06" width="0.8" height="0.23" fill="none" stroke="#111" stroke-width="1.6"/><rect x="6" y="15.41" width="0.8" height="0.24" fill="none" stroke="#111" stroke-width="1.6"/><rect x="6" y="17.76" width="0.8" height="0.24" fill="none" stroke="#111" stroke-width="1.6"/><rect x="6" y="20.12" width="0.8" height="0.23" fill="none" stroke="#111" stroke-width="1.6"/><rect x="6" y="22.47" width="0.8" height="0.24" fill="none" stroke="#111" stroke-width="1.6"/><rect x="6" y="24.82" width="0.8" height="0.24" fill="none" stroke="#111" stroke-width="1.6"/><rect x="6" y="27.18" width="0.8" height="0.23" fill="none" stroke="#111" stroke-width="1.6"/><rect x="6" y="29.53" width="0.8" height="0.23" fill="none" stroke="#111" stroke-width="1.6"/><rect x="6" y="31.88" width="0.8" height="0.24" fill="none" stroke="#111" stroke-width="1.6"/><rect x="6" y="34.24" width="0.8" height="0.23" fill="none" stroke="#111" stroke-width="1.6"/><rect x="6" y="36.59" width="0.8" height="0.23" fill="none" stroke="#111" stroke-width="1.6"/><rect x="6" y="38.94" width="0.8" height="0.24" fill="none" stroke="#111" stroke-width="1.6"/><rect x="6" y="41.29" width="0.8" height="0.24" fill="none" stroke="#111" stroke-width="1.6"/><rect x="6" y="43.65" width="0.8" height="0.23" fill="none" stroke="#111" stroke-width="1.6"/><rect x="6" y="46" width="0.8" height="0.24" fill="none" stroke="#111" stroke-width="1.6"/><rect x="6" y="48.35" width="0.8" height="0.24" fill="none" stroke="#111" stroke-width="1.6"/><rect x="6" y="50.71" width="0.8" height="0.23" fill="none" stroke="#111" stroke-width="1.6"/><rect x="6" y="53.06" width="0.8" height="0.23" fill="none" stroke="#111" stroke-width="1.6"/><rect x="6" y="55.41" width="0.8" height="0.24" fill="none" stroke="#111" stroke-width="1.6"/><rect x="6" y="57.76" width="0.8" height="0.24" fill="none" stroke="#111" stroke-width="1.6"/><polyline points="7.18,6.12 6.8,6.12" fill="none" stroke="#111" stroke-width="1.6" stroke-linecap="round" stroke-linejoin="round"/><polyline points="7.18,8.47 6.8,8.47" fill="none" stroke="#111" stroke-width="1.6" stroke-linecap="round" stroke-linejoin="round"/><polyline points="7.18,10.82 6.8,10.82" fill="none" stroke="#111" stroke-width="1.6" stroke-linecap="round" stroke-linejoin="round"/><polyline points="7.18,13.18 6.8,13.18" fill="none" stroke="#111" stroke-width="1.6" stroke-linecap="round" stroke-linejoin="round"/><polyline points="7.18,15.53 6.8,15.53" fill="none" stroke="#111" stroke-width="1.6" stroke-linecap="round" stroke-linejoin="round"/><polyline points="7.18,17.88 6.8,17.88" fill="none" stroke="#111" stroke-width="1.6" stroke-linecap="round" stroke-linejoin="round"/><polyline points="7.18,20.24 6.8,20.24" fill="none" stroke="#111" stroke-width="1.6" stroke-linecap="round" stroke-linejoin="round"/><polyline points="7.18,22.59 6.8,22.59" fill="none" stroke="#111" stroke-width="1.6" stroke-linecap="round" stroke-linejoin="round"/><polyline points="7.18,24.94 6.8,24.94" fill="none" stroke="#111" stroke-width="1.6" stroke-linecap="round" stroke-linejoin="round"/><polyline points="7.18,27.29 6.8,27.29" fill="none" stroke="#111" stroke-width="1.6" stroke-linecap="round" stroke-linejoin="round"/><polyline points="7.18,29.65 6.8,29.65" fill="none" stroke="#111" stroke-width="1.6" stroke-linecap="round" stroke-linejoin="round"/><polyline points="7.18,32 6.8,32" fill="none" stroke="#111" stroke-width="1.6" stroke-linecap="round" stroke-linejoin="round"/><polyline points="7.18,34.35 6.8,34.35" fill="none" stroke="#111" stroke-width="1.6" stroke-linecap="round" stroke-linejoin="round"/><polyline points="7.18,36.71 6.8,36.71" fill="none" stroke="#111" stroke-width="1.6" stroke-linecap="round" stroke-linejoin="round"/><polyline points="7.18,39.06 6.8,39.06" fill="none" stroke="#111" stroke-width="1.6" stroke-linecap="round" stroke-linejoin="round"/><polyline points="7.18,41.41 6.8,41.41" fill="none" stroke="#111" stroke-width="1.6" stroke-linecap="round" stroke-linejoin="round"/><polyline points="7.18,43.76 6.8,43.76" fill="none" stroke="#111" stroke-width="1.6" stroke-linecap="round" stroke-linejoin="round"/><polyline points="7.18,46.12 6.8,46.12" fill="none" stroke="#111" stroke-width="1.6" stroke-linecap="round" stroke-linejoin="round"/><polyline points="7.18,48.47 6.8,48.47" fill="none" stroke="#111" stroke-width="1.6" stroke-linecap="round" stroke-linejoin="round"/><polyline points="7.18,50.82 6.8,50.82" fill="none" stroke="#111" stroke-width="1.6" stroke-linecap="round" stroke-linejoin="round"/><polyline points="7.18,53.18 6.8,53.18" fill="none" stroke="#111" stroke-width="1.6" stroke-linecap="round" stroke-linejoin="round"/><polyline points="7.18,55.53 6.8,55.53" fill="none" stroke="#111" stroke-width="1.6" stroke-linecap="round" stroke-linejoin="round"/><polyline points="7.18,57.88 6.8,57.88" fill="none" stroke="#111" stroke-width="1.6" stroke-linecap="round" stroke-linejoin="round"/></svg>