<svg xmlns="http://www.w3.org/2000/svg" width="96" height="64" viewBox="0 0 96 64"><rect x="6" y="6" width="3.71" height="52" fill="none" stroke="#111" stroke-width="1.6"/><rect x="6.19" y="6.19" width="3.34" height="51.62" fill="none" stroke="#111" stroke-width="1.6"/><rect x="6.19" y="6.84" width="0.92" height="0.18" fill="none" stroke="#111" stroke-width="1.6"/><rect x="6.19" y="8.69" width="0.92" height="0.19" fill="none" stroke="#111" stroke-width="1.6"/><rect x="6.19" y="10.55" width="0.92" height="0.19" fill="none" stroke="#111" stroke-width="1.6"/><rect x="6.19" y="12.41" width="0.92" height="0.18" fill="none" stroke="#111" stroke-width="1.6"/><rect x="6.19" y="14.26" width="0.92" height="0.19" fill="none" stroke="#111" stroke-width="1.6"/><rect x="6.19" y="16.12" width="0.92" height="0.19" fill="none" stroke="#111" stroke-width="1.6"/><rect x="6.19" y="17.98" width="0.92" height="0.18" fill="none" stroke="#111" stroke-width="1.6"/><rect x="6.19" y="19.84" width="0.92" height="0.18" fill="none" stroke="#111" stroke-width="1.6"/><rect x="6.19" y="21.69" width="0.92" height="0.19" fill="none" stroke="#111" stroke-width="1.6"/><rect x="6.19" y="23.55" width="0.92" height="0.19" fill="none" stroke="#111" stroke-width="1.6"/><rect x="6.19" y="25.41" width="0.92" height="0.18" fill="none" stroke="#111" stroke-width="1.6"/><rect x="6.19" y="27.26" width="0.92" height="0.19" fill="none" stroke="#111" stroke-width="1.6"/><rect x="6.19" y="29.12" width="0.92" height="0.19" fill="none" stroke="#111" stroke-width="1.6"/><rect x="6.19" y="30.98" width="0.92" height="0.18" fill="none" stroke="#111" stroke-width="1.6"/><rect x="6.19" y="32.84" width="0.92" height="0.18" fill="none" stroke="#111" stroke-width="1.6"/><rect x="6.19" y="34.69" width="0.92" height="0.19" fill="none" stroke="#111" stroke-width="1.6"/><rect x="6.19" y="36.55" width="0.92" height="0.19" fill="none" stroke="#111" stroke-width="1.6"/><rect x="6.19" y="38.41" width="0.92" height="0.18" fill="none" stroke="#111" stroke-width="1.6"/><rect x="6.19" y="40.26" width="0.92" height="0.19" fill="none" stroke="#111" stroke-width="1.6"/><rect x="6.19" y="42.12" width="0.92" height="0.19" fill="none" stroke="#111" stroke-width="1.6"/><rect x="6.19" y="43.98" width="0.92" height="0.18" fill="none" stroke="#111" stroke-width="1.6"/><rect x="6.19" y="45.84" width="0.92" height="0.18" fill="none" stroke="#111" stroke-width="1.6"/><rect x="6.19" y="47.69" width="0.92" height="0.19" fill="none" stroke="#111" stroke-width="1.6"/><rect x="6.19" y="49.55" width="0.92" height="0.19" fill="none" stroke="#111" stroke-width="1.6"/><rect x="6.19" y="51.41" width="0.92" height="0.18" fill="none" stroke="#111" stroke-width="1.6"/><rect x="6.19" y="53.26" width="0.92" height="0.19" fill="none" stroke="#111" stroke-width="1.6"/><rect x="6.19" y="55.12" width="0.92" height="0.19" fill="none" stroke="#111" stroke-width="1.6"/><rect x="6.19" y="56.98" width="0.92" height="0.18" fill="none" stroke="#111" stroke-width="1.6"/><rect x="8.6" y="6.84" width="0.93" height="0.18" fill="none" stroke="#111" stroke-width="1.6"/><rect x="8.6" y="8.69" width="0.93" height="0.19" fill="none" stroke="#111" stroke-width="1.6"/><rect x="8.6" y="10.55" width="0.93" height="0.19" fill="none" stroke="#111" stroke-width="1.6"/><rect x="8.6" y="12.41" width="0.93" height="0.18" fill="none" stroke="#111" stroke-width="1.6"/><rect x="8.6" y="14.26" width="0.93" height="0.19" fill="none" stroke="#111" stroke-width="1.6"/><rect x="8.6" y="16.12" width="0.93" height="0.19" fill="none" stroke="#111" stroke-width="1.6"/><rect x="8.6" y="17.98" width="0.93" height="0.18" fill="none" stroke="#111" stroke-width="1.6"/><rect x="8.6" y="19.84" width="0.93" height="0.18" fill="none" stroke="#111" stroke-width="1.6"/><rect x="8.6" y="21.69" width="0.93" height="0.19" fill="none" stroke="#111" stroke-width="1.6"/><rect x="8.6" y="23.55" width="0.93" height="0.19" fill="none" stroke="#111" stroke-width="1.6"/><rect x="8.6" y="25.41" width="0.93" height="0.18" fill="none" stroke="#111" stroke-width="1.6"/><rect x="8.6" y="27.26" width="0.93" height="0.19" fill="none" stroke="#111" stroke-width="1.6"/><rect x="8.6" y="29.12" width="0.93" height="0.19" fill="none" stroke="#111" stroke-width="1.6"/><rect x="8.6" y="30.98" width="0.93" height="0.18" fill="none" stroke="#111" stroke-width="1.6"/><rect x="8.6" y="32.84" width="0.93" height="0.18" fill="none" stroke="#111" stroke-width="1.6"/><rect x="8.6" y="34.69" width="0.93" height="0.19" fill="none" stroke="#111" stroke-width="1.6"/><rect x="8.6" y="36.55" width="0.93" height="0.19" fill="none" stroke="#111" stroke-width="1.6"/><rect x="8.6" y="38.41" width="0.93" height="0.18" fill="none" stroke="#111" stroke-width="1.6"/><rect x="8.6" y="40.26" width="0.93" height="0.19" fill="none" stroke="#111" stroke-width="1.6"/><rect x="8.6" y="42.12" width="0.93" height="0.19" fill="none" stroke="#111" stroke-width="1.6"/><rect x="8.6" y="43.98" width="0.93" height="0.18" fill="none" stroke="#111" stroke-width="1.6"/><rect x="8.6" y="45.84" width="0.93" height="0.18" fill="none" stroke="#111" stroke-width="1.6"/><rect x="8.6" y="47.69" width="0.93" height="0.19" fill="none" stroke="#111" stroke-width="1.6"/><rect x="8.6" y="49.55" width="0.93" height="0.19" fill="none" stroke="#111" stroke-width="1.6"/><rect x="8.6" y="51.41" width="0.93" height="0.18" fill="none" stroke="#111" stroke-width="1.6"/><rect x="8.6" y="53.26" width="0.93" height="0.19" fill="none" stroke="#111" stroke-width="1.6"/><rect x="8.6" y="55.12" width="0.93" height="0.19" fill="none" stroke="#111" stroke-width="1.6"/></svg>