<svg xmlns="http://www.w3.org/2000/svg" width="96" height="64" viewBox="0 0 96 64"><polyline points="6,6.38 6.57,6.38" fill="none" stroke="#111" stroke-width="1.6" stroke-linecap="round" stroke-linejoin="round"/><polyline points="6,8.28 6.57,8.28" fill="none" stroke="#111" stroke-width="1.6" stroke-linecap="round" stroke-linejoin="round"/><polyline points="6,10.18 6.57,10.18" fill="none" stroke="#111" stroke-width="1.6" stroke-linecap="round" stroke-linejoin="round"/><polyline points="6,12.07 6.57,12.07" fill="none" stroke="#111" stroke-width="1.6" stroke-linecap="round" stroke-linejoin="round"/><polyline points="6,13.97 6.57,13.97" fill="none" stroke="#111" stroke-width="1.6" stroke-linecap="round" stroke-linejoin="round"/><polyline points="6,15.87 6.57,15.87" fill="none" stroke="#111" stroke-width="1.6" stroke-linecap="round" stroke-linejoin="round"/><polyline points="6,17.77 6.57,17.77" fill="none" stroke="#111" stroke-width="1.6" stroke-linecap="round" stroke-linejoin="round"/><polyline points="6,19.66 6.57,19.66" fill="none" stroke="#111" stroke-width="1.6" stroke-linecap="round" stroke-linejoin="round"/><polyline points="6,21.56 6.57,21.56" fill="none" stroke="#111" stroke-width="1.6" stroke-linecap="round" stroke-linejoin="round"/><polyline points="6,23.46 6.57,23.46" fill="none" stroke="#111" stroke-width="1.6" stroke-linecap="round" stroke-linejoin="round"/><polyline points="6,25.36 6.57,25.36" fill="none" stroke="#111" stroke-width="1.6" stroke-linecap="round" stroke-linejoin="round"/><polyline points="6,27.26 6.57,27.26" fill="none" stroke="#111" stroke-width="1.6" stroke-linecap="round" stroke-linejoin="round"/><polyline points="6,29.15 6.57,29.15" fill="none" stroke="#111" stroke-width="1.6" stroke-linecap="round" stroke-linejoin="round"/><polyline points="6,31.05 6.57,31.05" fill="none" stroke="#111" stroke-width="1.6" stroke-linecap="round" stroke-linejoin="round"/><polyline points="6,32.95 6.57,32.95" fill="none" stroke="#111" stroke-width="1.6" stroke-linecap="round" stroke-linejoin="round"/><polyline points="6,34.85 6.57,34.85" fill="none" stroke="#111" stroke-width="1.6" stroke-linecap="round" stroke-linejoin="round"/><polyline points="6,36.74 6.57,36.74" fill="none" stroke="#111" stroke-width="1.6" stroke-linecap="round" stroke-linejoin="round"/><polyline points="6,38.64 6.57,38.64" fill="none" stroke="#111" stroke-width="1.6" stroke-linecap="round" stroke-linejoin="round"/><polyline points="6,40.54 6.57,40.54" fill="none" stroke="#111" stroke-width="1.6" stroke-linecap="round" stroke-linejoin="round"/><polyline points="6,42.44 6.57,42.44" fill="none" stroke="#111" stroke-width="1.6" stroke-linecap="round" stroke-linejoin="round"/><polyline points="6,44.34 6.57,44.34" fill="none" stroke="#111" stroke-width="1.6" stroke-linecap="round" stroke-linejoin="round"/><polyline points="6,46.23 6.57,46.23" fill="none" stroke="#111" stroke-width="1.6" stroke-linecap="round" stroke-linejoin="round"/><polyline points="6,48.13 6.57,48.13" fill="none" stroke="#111" stroke-width="1.6" stroke-linecap="round" stroke-linejoin="round"/><polyline points="6,50.03 6.57,50.03" fill="none" stroke="#111" stroke-width="1.6" stroke-linecap="round" stroke-linejoin="round"/><polyline points="6,51.93 6.57,51.93" fill="none" stroke="#111" stroke-width="1.6" stroke-linecap="round" stroke-linejoin="round"/><polyline points="6,53.82 6.57,53.82" fill="none" stroke="#111" stroke-width="1.6" stroke-linecap="round" stroke-linejoin="round"/><polyline points="6,55.72 6.57,55.72" fill="none" stroke="#111" stroke-width="1.6" stroke-linecap="round" stroke-linejoin="round"/><polyline points="6,57.62 6.57,57.62" fill="none" stroke="#111" stroke-width="1.6" stroke-linecap="round" stroke-linejoin="round"/><path d="M 6.95 6.76 Q 6.57 6.38 6.95 6" fill="none" stroke="#111" stroke-width="1.6" stroke-linecap="round"/><path d="M 6.95 8.66 Q 6.57 8.28 6.95 7.9" fill="none" stroke="#111" stroke-width="1.6" stroke-linecap="round"/><path d="M 6.95 10.55 Q 6.57 10.18 6.95 9.8" fill="none" stroke="#111" stroke-width="1.6" stroke-linecap="round"/><path d="M 6.95 12.45 Q 6.57 12.07 6.95 11.69" fill="none" stroke="#111" stroke-width="1.6" stroke-linecap="round"/><path d="M 6.95 14.35 Q 6.57 13.97 6.95 13.59" fill="none" stroke="#111" stroke-width="1.6" stroke-linecap="round"/><path d="M 6.95 16.25 Q 6.57 15.87 6.95 15.49" fill="none" stroke="#111" stroke-width="1.6" stroke-linecap="round"/><path d="M 6.95 18.15 Q 6.57 17.77 6.95 17.39" fill="none" stroke="#111" stroke-width="1.6" stroke-linecap="round"/><path d="M 6.95 20.04 Q 6.57 19.66 6.95 19.28" fill="none" stroke="#111" stroke-width="1.6" stroke-linecap="round"/><path d="M 6.95 21.94 Q 6.57 21.56 6.95 21.18" fill="none" stroke="#111" stroke-width="1.6" stroke-linecap="round"/><path d="M 6.95 23.84 Q 6.57 23.46 6.95 23.08" fill="none" stroke="#111" stroke-width="1.6" stroke-linecap="round"/><path d="M 6.95 25.74 Q 6.57 25.36 6.95 24.98" fill="none" stroke="#111" stroke-width="1.6" stroke-linecap="round"/><path d="M 6.95 27.64 Q 6.57 27.26 6.95 26.88" fill="none" stroke="#111" stroke-width="1.6" stroke-linecap="round"/><path d="M 6.95 29.53 Q 6.57 29.15 6.95 28.77" fill="none" stroke="#111" stroke-width="1.6" stroke-linecap="round"/><path d="M 6.95 31.43 Q 6.57 31.05 6.95 30.67" fill="none" stroke="#111" stroke-width="1.6" stroke-linecap="round"/><path d="M 6.95 33.33 Q 6.57 32.95 6.95 32.57" fill="none" stroke="#111" stroke-width="1.6" stroke-linecap="round"/><path d="M 6.95 35.23 Q 6.57 34.85 6.95 34.47" fill="none" stroke="#111" stroke-width="1.6" stroke-linecap="round"/><path d="M 6.95 37.12 Q 6.57 36.74 6.95 36.36" fill="none" stroke="#111" stroke-width="1.6" stroke-linecap="round"/><path d="M 6.95 39.02 Q 6.57 38.64 6.95 38.26" fill="none" stroke="#111" stroke-width="1.6" stroke-linecap="round"/><path d="M 6.95 40.92 Q 6.57 40.54 6.95 40.16" fill="none" stroke="#111" stroke-width="1.6" stroke-linecap="round"/><path d="M 6.95 42.82 Q 6.57 42.44 6.95 42.06" fill="none" stroke="#111" stroke-width="1.6" stroke-linecap="round"/><path d="M 6.95 44.72 Q 6.57 44.34 6.95 43.96" fill="none" stroke="#111" stroke-width="1.6" stroke-linecap="round"/><path d="M 6.95 46.61 Q 6.57 46.23 6.95 45.85" fill="none" stroke="#111" stroke-width="1.6" stroke-linecap="round"/><path d="M 6.95 48.51 Q 6.57 48.13 6.95 47.75" fill="none" stroke="#111" stroke-width="1.6" stroke-linecap="round"/><path d="M 6.95 50.41 Q 6.57 50.03 6.95 49.65" fill="none" stroke="#111" stroke-width="1.6" stroke-linecap="round"/><path d="M 6.95 52.31 Q 6.57 51.93 6.95 51.55" fill="none" stroke="#111" stroke-width="1.6" stroke-linecap="round"/><path d="M 6.95 54.2 Q 6.57 53.82 6.95 53.45" fill="none" stroke="#111" stroke-width="1.6" stroke-linecap="round"/><path d="M 6.95 56.1 Q 6.57 55.72 6.95 55.34" fill="none" stroke="#111" stroke-width="1.6" stroke-linecap="round"/><path d="M 6.95 58 Q 6.57 57.62 6.95 57.24" fill="none" stroke="#111" stroke-width="1.6" stroke-linecap="round"/></svg>