<svg xmlns="http://www.w3.org/2000/svg" width="96" height="64" viewBox="0 0 96 64"><polyline points="52.85,20.29 52.85,43.71 52.85,32 76.27,32" fill="none" stroke="#111" stroke-width="1.6" stroke-linecap="round" stroke-linejoin="round"/><polyline points="35.28,14.43 35.28,49.57 35.28,49.57" fill="none" stroke="#111" stroke-width="1.6" stroke-linecap="round" stroke-linejoin="round"/><polyline points="35.28,26.14 52.85,8.58" fill="none" stroke="#111" stroke-width="1.6" stroke-linecap="round" stroke-linejoin="round"/><polyline points="35.28,32 6,32" fill="none" stroke="#111" stroke-width="1.6" stroke-linecap="round" stroke-linejoin="round"/><polyline points="35.28,37.86 52.85,55.42 52.85,55.42" fill="none" stroke="#111" stroke-width="1.6" stroke-linecap="round" stroke-linejoin="round"/><circle cx="41.14" cy="32" r="26" fill="none" stroke="#111" stroke-width="1.6"/><polyline points="50.5,48.4 45.82,53.08 41.14,43.71 50.5,48.4 50.5,48.4" fill="none" stroke="#111" stroke-width="1.6" stroke-linecap="round" stroke-linejoin="round"/><polyline points="35.28,14.43 35.28,49.57 35.28,49.57" fill="none" stroke="#111" stroke-width="1.6" stroke-linecap="round" stroke-linejoin="round"/><polyline points="35.28,26.14 52.85,8.58" fill="none" stroke="#111" stroke-width="1.6" stroke-linecap="round" stroke-linejoin="round"/><polyline points="35.28,32 6,32" fill="none" stroke="#111" stroke-width="1.6" stroke-linecap="round" stroke-linejoin="round"/><polyline points="35.28,37.86 52.85,55.42 52.85,55.42" fill="none" stroke="#111" stroke-width="1.6" stroke-linecap="round" stroke-linejoin="round"/><circle cx="41.14" cy="32" r="26" fill="none" stroke="#111" stroke-width="1.6"/><polyline points="50.5,48.4 45.82,53.08 41.14,43.71 50.5,48.4 50.5,48.4" fill="none" stroke="#111" stroke-width="1.6" stroke-linecap="round" stroke-linejoin="round"/><polyline points="35.28,14.43 35.28,49.57 35.28,49.57" fill="none" stroke="#111" stroke-width="1.6" stroke-linecap="round" stroke-linejoin="round"/><polyline points="35.28,26.14 52.85,8.58" fill="none" stroke="#111" stroke-width="1.6" stroke-linecap="round" stroke-linejoin="round"/><polyline points="35.28,32 6,32" fill="none" stroke="#111" stroke-width="1.6" stroke-linecap="round" stroke-linejoin="round"/><polyline points="35.28,37.86 52.85,55.42 52.85,55.42" fill="none" stroke="#111" stroke-width="1.6" stroke-linecap="round" stroke-linejoin="round"/><circle cx="41.14" cy="32" r="26" fill="none" stroke="#111" stroke-width="1.6"/><polyline points="50.5,48.4 45.82,53.08 41.14,43.71 50.5,48.4 50.5,48.4" fill="none" stroke="#111" stroke-width="1.6" stroke-linecap="round" stroke-linejoin="round"/><polyline points="35.28,14.43 35.28,49.57 35.28,49.57" fill="none" stroke="#111" stroke-width="1.6" stroke-linecap="round" stroke-linejoin="round"/><polyline points="35.28,26.14 52.85,8.58" fill="none" stroke="#111" stroke-width="1.6" stroke-linecap="round" stroke-linejoin="round"/><polyline points="35.28,32 6,32" fill="none" stroke="#111" stroke-width="1.6" stroke-linecap="round" stroke-linejoin="round"/><polyline points="35.28,37.86 52.85,55.42 52.85,55.42" fill="none" stroke="#111" stroke-width="1.6" stroke-linecap="round" stroke-linejoin="round"/><circle cx="41.14" cy="32" r="26" fill="none" stroke="#111" stroke-width="1.6"/><polyline points="50.5,48.4 45.82,53.08 41.14,43.71 50.5,48.4 50.5,48.4" fill="none" stroke="#111" stroke-width="1.6" stroke-linecap="round" stroke-linejoin="round"/></svg>