<svg xmlns="http://www.w3.org/2000/svg" width="96" height="64" viewBox="0 0 96 64"><rect x="6" y="6" width="0.98" height="0.29" fill="none" stroke="#111" stroke-width="1.6"/><rect x="6" y="8.87" width="0.98" height="0.29" fill="none" stroke="#111" stroke-width="1.6"/><rect x="6" y="11.75" width="0.98" height="0.28" fill="none" stroke="#111" stroke-width="1.6"/><rect x="6" y="14.62" width="0.98" height="0.29" fill="none" stroke="#111" stroke-width="1.6"/><rect x="6" y="17.49" width="0.98" height="0.29" fill="none" stroke="#111" stroke-width="1.6"/><rect x="6" y="20.36" width="0.98" height="0.29" fill="none" stroke="#111" stroke-width="1.6"/><rect x="6" y="23.24" width="0.98" height="0.28" fill="none" stroke="#111" stroke-width="1.6"/><rect x="6" y="26.11" width="0.98" height="0.29" fill="none" stroke="#111" stroke-width="1.6"/><rect x="6" y="28.98" width="0.98" height="0.29" fill="none" stroke="#111" stroke-width="1.6"/><rect x="6" y="31.86" width="0.98" height="0.28" fill="none" stroke="#111" stroke-width="1.6"/><rect x="6" y="34.73" width="0.98" height="0.29" fill="none" stroke="#111" stroke-width="1.6"/><rect x="6" y="37.6" width="0.98" height="0.29" fill="none" stroke="#111" stroke-width="1.6"/><rect x="6" y="40.48" width="0.98" height="0.28" fill="none" stroke="#111" stroke-width="1.6"/><rect x="6" y="43.35" width="0.98" height="0.29" fill="none" stroke="#111" stroke-width="1.6"/><rect x="6" y="46.22" width="0.98" height="0.29" fill="none" stroke="#111" stroke-width="1.6"/><rect x="6" y="49.09" width="0.98" height="0.29" fill="none" stroke="#111" stroke-width="1.6"/><rect x="6" y="51.97" width="0.98" height="0.28" fill="none" stroke="#111" stroke-width="1.6"/><rect x="6" y="54.84" width="0.98" height="0.29" fill="none" stroke="#111" stroke-width="1.6"/><rect x="6" y="57.71" width="0.98" height="0.29" fill="none" stroke="#111" stroke-width="1.6"/><polyline points="7.44,6.14 6.98,6.14" fill="none" stroke="#111" stroke-width="1.6" stroke-linecap="round" stroke-linejoin="round"/><polyline points="7.44,9.02 6.98,9.02" fill="none" stroke="#111" stroke-width="1.6" stroke-linecap="round" stroke-linejoin="round"/><polyline points="7.44,11.89 6.98,11.89" fill="none" stroke="#111" stroke-width="1.6" stroke-linecap="round" stroke-linejoin="round"/><polyline points="7.44,14.76 6.98,14.76" fill="none" stroke="#111" stroke-width="1.6" stroke-linecap="round" stroke-linejoin="round"/><polyline points="7.44,17.64 6.98,17.64" fill="none" stroke="#111" stroke-width="1.6" stroke-linecap="round" stroke-linejoin="round"/><polyline points="7.44,20.51 6.98,20.51" fill="none" stroke="#111" stroke-width="1.6" stroke-linecap="round" stroke-linejoin="round"/><polyline points="7.44,23.38 6.98,23.38" fill="none" stroke="#111" stroke-width="1.6" stroke-linecap="round" stroke-linejoin="round"/><polyline points="7.44,26.25 6.98,26.25" fill="none" stroke="#111" stroke-width="1.6" stroke-linecap="round" stroke-linejoin="round"/><polyline points="7.44,29.13 6.98,29.13" fill="none" stroke="#111" stroke-width="1.6" stroke-linecap="round" stroke-linejoin="round"/><polyline points="7.44,32 6.98,32" fill="none" stroke="#111" stroke-width="1.6" stroke-linecap="round" stroke-linejoin="round"/><polyline points="7.44,34.87 6.98,34.87" fill="none" stroke="#111" stroke-width="1.6" stroke-linecap="round" stroke-linejoin="round"/><polyline points="7.44,37.75 6.98,37.75" fill="none" stroke="#111" stroke-width="1.6" stroke-linecap="round" stroke-linejoin="round"/><polyline points="7.44,40.62 6.98,40.62" fill="none" stroke="#111" stroke-width="1.6" stroke-linecap="round" stroke-linejoin="round"/><polyline points="7.44,43.49 6.98,43.49" fill="none" stroke="#111" stroke-width="1.6" stroke-linecap="round" stroke-linejoin="round"/><polyline points="7.44,46.36 6.98,46.36" fill="none" stroke="#111" stroke-width="1.6" stroke-linecap="round" stroke-linejoin="round"/><polyline points="7.44,49.24 6.98,49.24" fill="none" stroke="#111" stroke-width="1.6" stroke-linecap="round" stroke-linejoin="round"/><polyline points="7.44,52.11 6.98,52.11" fill="none" stroke="#111" stroke-width="1.6" stroke-linecap="round" stroke-linejoin="round"/><polyline points="7.44,54.98 6.98,54.98" fill="none" stroke="#111" stroke-width="1.6" stroke-linecap="round" stroke-linejoin="round"/><polyline points="7.44,57.86 6.98,57.86" fill="none" stroke="#111" stroke-width="1.6" stroke-linecap="round" stroke-linejoin="round"/></svg>