<svg xmlns="http://www.w3.org/2000/svg" width="96" height="64" viewBox="0 0 96 64"><polyline points="6,6 11.2,6 11.2,16.4" fill="none" stroke="#111" stroke-width="1.6" stroke-linecap="round" stroke-linejoin="round"/><path d="M 11.2 16.4 Q 15.08 20.3 11.2 24.2" fill="none" stroke="#111" stroke-width="1.6" stroke-linecap="round"/><path d="M 11.2 24.2 Q 15.08 28.1 11.2 32" fill="none" stroke="#111" stroke-width="1.6" stroke-linecap="round"/><path d="M 11.2 32 Q 15.08 35.9 11.2 39.8" fill="none" stroke="#111" stroke-width="1.6" stroke-linecap="round"/><path d="M 11.2 39.8 Q 15.08 43.7 11.2 47.6" fill="none" stroke="#111" stroke-width="1.6" stroke-linecap="round"/><polyline points="11.2,47.6 11.2,58 6,58" fill="none" stroke="#111" stroke-width="1.6" stroke-linecap="round" stroke-linejoin="round"/><rect x="17.7" y="17.05" width="2.6" height="6.5" fill="none" stroke="#111" stroke-width="1.6"/><rect x="17.7" y="24.85" width="2.6" height="6.5" fill="none" stroke="#111" stroke-width="1.6"/><rect x="17.7" y="32.65" width="2.6" height="6.5" fill="none" stroke="#111" stroke-width="1.6"/><rect x="17.7" y="40.45" width="2.6" height="6.5" fill="none" stroke="#111" stroke-width="1.6"/><polyline points="26.8,16.4 26.8,6 32,6" fill="none" stroke="#111" stroke-width="1.6" stroke-linecap="round" stroke-linejoin="round"/><path d="M 26.8 24.2 Q 22.92 20.3 26.8 16.4" fill="none" stroke="#111" stroke-width="1.6" stroke-linecap="round"/><path d="M 26.8 32 Q 22.92 28.1 26.8 24.2" fill="none" stroke="#111" stroke-width="1.6" stroke-linecap="round"/><path d="M 26.8 39.8 Q 22.92 35.9 26.8 32" fill="none" stroke="#111" stroke-width="1.6" stroke-linecap="round"/><path d="M 26.8 47.6 Q 22.92 43.7 26.8 39.8" fill="none" stroke="#111" stroke-width="1.6" stroke-linecap="round"/><polyline points="32,58 26.8,58 26.8,47.6" fill="none" stroke="#111" stroke-width="1.6" stroke-linecap="round" stroke-linejoin="round"/></svg>