<svg xmlns="http://www.w3.org/2000/svg" width="96" height="64" viewBox="0 0 96 64"><rect x="6" y="6" width="0.57" height="0.17" fill="none" stroke="#111" stroke-width="1.6"/><rect x="6" y="7.67" width="0.57" height="0.17" fill="none" stroke="#111" stroke-width="1.6"/><rect x="6" y="9.34" width="0.57" height="0.17" fill="none" stroke="#111" stroke-width="1.6"/><rect x="6" y="11.02" width="0.57" height="0.16" fill="none" stroke="#111" stroke-width="1.6"/><rect x="6" y="12.69" width="0.57" height="0.17" fill="none" stroke="#111" stroke-width="1.6"/><rect x="6" y="14.36" width="0.57" height="0.17" fill="none" stroke="#111" stroke-width="1.6"/><rect x="6" y="16.03" width="0.57" height="0.17" fill="none" stroke="#111" stroke-width="1.6"/><rect x="6" y="17.7" width="0.57" height="0.17" fill="none" stroke="#111" stroke-width="1.6"/><rect x="6" y="19.38" width="0.57" height="0.16" fill="none" stroke="#111" stroke-width="1.6"/><rect x="6" y="21.05" width="0.57" height="0.17" fill="none" stroke="#111" stroke-width="1.6"/><rect x="6" y="22.72" width="0.57" height="0.17" fill="none" stroke="#111" stroke-width="1.6"/><rect x="6" y="24.39" width="0.57" height="0.17" fill="none" stroke="#111" stroke-width="1.6"/><rect x="6" y="26.06" width="0.57" height="0.17" fill="none" stroke="#111" stroke-width="1.6"/><rect x="6" y="27.74" width="0.57" height="0.16" fill="none" stroke="#111" stroke-width="1.6"/><rect x="6" y="29.41" width="0.57" height="0.17" fill="none" stroke="#111" stroke-width="1.6"/><rect x="6" y="31.08" width="0.57" height="0.17" fill="none" stroke="#111" stroke-width="1.6"/><rect x="6" y="32.75" width="0.57" height="0.17" fill="none" stroke="#111" stroke-width="1.6"/><rect x="6" y="34.42" width="0.57" height="0.17" fill="none" stroke="#111" stroke-width="1.6"/><rect x="6" y="36.1" width="0.57" height="0.16" fill="none" stroke="#111" stroke-width="1.6"/><rect x="6" y="37.77" width="0.57" height="0.17" fill="none" stroke="#111" stroke-width="1.6"/><rect x="6" y="39.44" width="0.57" height="0.17" fill="none" stroke="#111" stroke-width="1.6"/><rect x="6" y="41.11" width="0.57" height="0.17" fill="none" stroke="#111" stroke-width="1.6"/><rect x="6" y="42.78" width="0.57" height="0.17" fill="none" stroke="#111" stroke-width="1.6"/><rect x="6" y="44.46" width="0.57" height="0.16" fill="none" stroke="#111" stroke-width="1.6"/><rect x="6" y="46.13" width="0.57" height="0.17" fill="none" stroke="#111" stroke-width="1.6"/><rect x="6" y="47.8" width="0.57" height="0.17" fill="none" stroke="#111" stroke-width="1.6"/><rect x="6" y="49.47" width="0.57" height="0.17" fill="none" stroke="#111" stroke-width="1.6"/><rect x="6" y="51.14" width="0.57" height="0.17" fill="none" stroke="#111" stroke-width="1.6"/><rect x="6" y="52.82" width="0.57" height="0.16" fill="none" stroke="#111" stroke-width="1.6"/><rect x="6" y="54.49" width="0.57" height="0.17" fill="none" stroke="#111" stroke-width="1.6"/><rect x="6" y="56.16" width="0.57" height="0.17" fill="none" stroke="#111" stroke-width="1.6"/><rect x="6" y="57.83" width="0.57" height="0.17" fill="none" stroke="#111" stroke-width="1.6"/><polyline points="6.84,6.08 6.57,6.08" fill="none" stroke="#111" stroke-width="1.6" stroke-linecap="round" stroke-linejoin="round"/><polyline points="6.84,7.76 6.57,7.76" fill="none" stroke="#111" stroke-width="1.6" stroke-linecap="round" stroke-linejoin="round"/><polyline points="6.84,9.43 6.57,9.43" fill="none" stroke="#111" stroke-width="1.6" stroke-linecap="round" stroke-linejoin="round"/><polyline points="6.84,11.1 6.57,11.1" fill="none" stroke="#111" stroke-width="1.6" stroke-linecap="round" stroke-linejoin="round"/><polyline points="6.84,12.77 6.57,12.77" fill="none" stroke="#111" stroke-width="1.6" stroke-linecap="round" stroke-linejoin="round"/><polyline points="6.84,14.44 6.57,14.44" fill="none" stroke="#111" stroke-width="1.6" stroke-linecap="round" stroke-linejoin="round"/><polyline points="6.84,16.12 6.57,16.12" fill="none" stroke="#111" stroke-width="1.6" stroke-linecap="round" stroke-linejoin="round"/><polyline points="6.84,17.79 6.57,17.79" fill="none" stroke="#111" stroke-width="1.6" stroke-linecap="round" stroke-linejoin="round"/><polyline points="6.84,19.46 6.57,19.46" fill="none" stroke="#111" stroke-width="1.6" stroke-linecap="round" stroke-linejoin="round"/><polyline points="6.84,21.13 6.57,21.13" fill="none" stroke="#111" stroke-width="1.6" stroke-linecap="round" stroke-linejoin="round"/><polyline points="6.84,22.8 6.57,22.8" fill="none" stroke="#111" stroke-width="1.6" stroke-linecap="round" stroke-linejoin="round"/><polyline points="6.84,24.48 6.57,24.48" fill="none" stroke="#111" stroke-width="1.6" stroke-linecap="round" stroke-linejoin="round"/><polyline points="6.84,26.15 6.57,26.15" fill="none" stroke="#111" stroke-width="1.6" stroke-linecap="round" stroke-linejoin="round"/><polyline points="6.84,27.82 6.57,27.82" fill="none" stroke="#111" stroke-width="1.6" stroke-linecap="round" stroke-linejoin="round"/><polyline points="6.84,29.49 6.57,29.49" fill="none" stroke="#111" stroke-width="1.6" stroke-linecap="round" stroke-linejoin="round"/><polyline points="6.84,31.16 6.57,31.16" fill="none" stroke="#111" stroke-width="1.6" stroke-linecap="round" stroke-linejoin="round"/><polyline points="6.84,32.84 6.57,32.84" fill="none" stroke="#111" stroke-width="1.6" stroke-linecap="round" stroke-linejoin="round"/><polyline points="6.84,34.51 6.57,34.51" fill="none" stroke="#111" stroke-width="1.6" stroke-linecap="round" stroke-linejoin="round"/><polyline points="6.84,36.18 6.57,36.18" fill="none" stroke="#111" stroke-width="1.6" stroke-linecap="round" stroke-linejoin="round"/><polyline points="6.84,37.85 6.57,37.85" fill="none" stroke="#111" stroke-width="1.6" stroke-linecap="round" stroke-linejoin="round"/><polyline points="6.84,39.52 6.57,39.52" fill="none" stroke="#111" stroke-width="1.6" stroke-linecap="round" stroke-linejoin="round"/><polyline points="6.84,41.2 6.57,41.2" fill="none" stroke="#111" stroke-width="1.6" stroke-linecap="round" stroke-linejoin="round"/><polyline points="6.84,42.87 6.57,42.87" fill="none" stroke="#111" stroke-width="1.6" stroke-linecap="round" stroke-linejoin="round"/><polyline points="6.84,44.54 6.57,44.54" fill="none" stroke="#111" stroke-width="1.6" stroke-linecap="round" stroke-linejoin="round"/><polyline points="6.84,46.21 6.57,46.21" fill="none" stroke="#111" stroke-width="1.6" stroke-linecap="round" stroke-linejoin="round"/><polyline points="6.84,47.88 6.57,47.88" fill="none" stroke="#111" stroke-width="1.6" stroke-linecap="round" stroke-linejoin="round"/><polyline points="6.84,49.56 6.57,49.56" fill="none" stroke="#111" stroke-width="1.6" stroke-linecap="round" stroke-linejoin="round"/><polyline points="6.84,51.23 6.57,51.23" fill="none" stroke="#111" stroke-width="1.6" stroke-linecap="round" stroke-linejoin="round"/><polyline points="6.84,52.9 6.57,52.9" fill="none" stroke="#111" stroke-width="1.6" stroke-linecap="round" stroke-linejoin="round"/><polyline points="6.84,54.57 6.57,54.57" fill="none" stroke="#111" stroke-width="1.6" stroke-linecap="round" stroke-linejoin="round"/><polyline points="6.84,56.24 6.57,56.24" fill="none" stroke="#111" stroke-width="1.6" stroke-linecap="round" stroke-linejoin="round"/><polyline points="6.84,57.92 6.57,57.92" fill="none" stroke="#111" stroke-width="1.6" stroke-linecap="round" stroke-linejoin="round"/></svg>