<svg xmlns="http://www.w3.org/2000/svg" width="96" height="64" viewBox="0 0 96 64"><polyline points="6,6.43 9.41,6.43 9.41,21.77" fill="none" stroke="#111" stroke-width="1.6" stroke-linecap="round" stroke-linejoin="round"/><polyline points="6,57.57 9.41,57.57 9.41,42.23" fill="none" stroke="#111" stroke-width="1.6" stroke-linecap="round" stroke-linejoin="round"/><path d="M 9.41 21.77 Q 11.96 24.33 9.41 26.89" fill="none" stroke="#111" stroke-width="1.6" stroke-linecap="round"/><path d="M 9.41 26.89 Q 11.96 29.44 9.41 32" fill="none" stroke="#111" stroke-width="1.6" stroke-linecap="round"/><path d="M 9.41 32 Q 11.96 34.56 9.41 37.11" fill="none" stroke="#111" stroke-width="1.6" stroke-linecap="round"/><path d="M 9.41 37.11 Q 11.96 39.67 9.41 42.23" fill="none" stroke="#111" stroke-width="1.6" stroke-linecap="round"/><polyline points="9.41,32 6,32" fill="none" stroke="#111" stroke-width="1.6" stroke-linecap="round" stroke-linejoin="round"/><rect x="13.67" y="6" width="1.71" height="52" fill="none" stroke="#111" stroke-width="1.6"/><polyline points="19.64,6.43 19.64,7.28" fill="none" stroke="#111" stroke-width="1.6" stroke-linecap="round" stroke-linejoin="round"/><polyline points="19.64,6.43 23.05,6.43" fill="none" stroke="#111" stroke-width="1.6" stroke-linecap="round" stroke-linejoin="round"/><polyline points="19.64,23.48 19.64,22.62" fill="none" stroke="#111" stroke-width="1.6" stroke-linecap="round" stroke-linejoin="round"/><polyline points="19.64,23.48 23.05,23.48" fill="none" stroke="#111" stroke-width="1.6" stroke-linecap="round" stroke-linejoin="round"/><polyline points="19.64,40.52 19.64,41.38" fill="none" stroke="#111" stroke-width="1.6" stroke-linecap="round" stroke-linejoin="round"/><polyline points="19.64,40.52 23.05,40.52" fill="none" stroke="#111" stroke-width="1.6" stroke-linecap="round" stroke-linejoin="round"/><polyline points="19.64,56.72 19.64,57.57" fill="none" stroke="#111" stroke-width="1.6" stroke-linecap="round" stroke-linejoin="round"/><path d="M 19.64 12.39 Q 17.09 9.84 19.64 7.28" fill="none" stroke="#111" stroke-width="1.6" stroke-linecap="round"/><path d="M 19.64 17.51 Q 17.09 14.95 19.64 12.39" fill="none" stroke="#111" stroke-width="1.6" stroke-linecap="round"/><path d="M 19.64 22.62 Q 17.09 20.07 19.64 17.51" fill="none" stroke="#111" stroke-width="1.6" stroke-linecap="round"/><path d="M 19.64 46.49 Q 17.09 43.93 19.64 41.38" fill="none" stroke="#111" stroke-width="1.6" stroke-linecap="round"/><path d="M 19.64 51.61 Q 17.09 49.05 19.64 46.49" fill="none" stroke="#111" stroke-width="1.6" stroke-linecap="round"/><path d="M 19.64 56.72 Q 17.09 54.16 19.64 51.61" fill="none" stroke="#111" stroke-width="1.6" stroke-linecap="round"/><polyline points="23.05,57.57 19.64,57.57" fill="none" stroke="#111" stroke-width="1.6" stroke-linecap="round" stroke-linejoin="round"/></svg>