<svg xmlns="http://www.w3.org/2000/svg" width="96" height="64" viewBox="0 0 96 64"><polyline points="9.71,26.43 13.43,26.43 13.43,26.43" fill="none" stroke="#111" stroke-width="1.6" stroke-linecap="round" stroke-linejoin="round"/><polyline points="9.71,30.14 13.43,30.14 13.43,30.14" fill="none" stroke="#111" stroke-width="1.6" stroke-linecap="round" stroke-linejoin="round"/><polyline points="9.71,33.86 13.43,33.86 13.43,33.86" fill="none" stroke="#111" stroke-width="1.6" stroke-linecap="round" stroke-linejoin="round"/><polyline points="9.71,37.57 13.43,37.57 13.43,37.57" fill="none" stroke="#111" stroke-width="1.6" stroke-linecap="round" stroke-linejoin="round"/><polyline points="9.71,41.29 13.43,41.29 13.43,41.29" fill="none" stroke="#111" stroke-width="1.6" stroke-linecap="round" stroke-linejoin="round"/><polyline points="9.71,48.71 9.71,15.29 39.43,15.29 39.43,22.71 43.14,22.71 43.14,26.43 46.86,26.43 46.86,37.57 43.14,37.57 43.14,41.29 39.43,41.29 39.43,48.71 9.71,48.71 9.71,48.71" fill="none" stroke="#111" stroke-width="1.6" stroke-linecap="round" stroke-linejoin="round"/><polyline points="13.43,22.71 9.71,22.71 9.71,22.71" fill="none" stroke="#111" stroke-width="1.6" stroke-linecap="round" stroke-linejoin="round"/><rect x="6" y="6" width="44.57" height="52" fill="none" stroke="#111" stroke-width="1.6"/></svg>