<svg xmlns="http://www.w3.org/2000/svg" width="96" height="64" viewBox="0 0 96 64"><polyline points="6,6.21 6.32,6.21" fill="none" stroke="#111" stroke-width="1.6" stroke-linecap="round" stroke-linejoin="round"/><polyline points="6,7.26 6.32,7.26" fill="none" stroke="#111" stroke-width="1.6" stroke-linecap="round" stroke-linejoin="round"/><polyline points="6,8.32 6.32,8.32" fill="none" stroke="#111" stroke-width="1.6" stroke-linecap="round" stroke-linejoin="round"/><polyline points="6,9.37 6.32,9.37" fill="none" stroke="#111" stroke-width="1.6" stroke-linecap="round" stroke-linejoin="round"/><polyline points="6,10.42 6.32,10.42" fill="none" stroke="#111" stroke-width="1.6" stroke-linecap="round" stroke-linejoin="round"/><polyline points="6,11.47 6.32,11.47" fill="none" stroke="#111" stroke-width="1.6" stroke-linecap="round" stroke-linejoin="round"/><polyline points="6,12.53 6.32,12.53" fill="none" stroke="#111" stroke-width="1.6" stroke-linecap="round" stroke-linejoin="round"/><polyline points="6,13.58 6.32,13.58" fill="none" stroke="#111" stroke-width="1.6" stroke-linecap="round" stroke-linejoin="round"/><polyline points="6,14.63 6.32,14.63" fill="none" stroke="#111" stroke-width="1.6" stroke-linecap="round" stroke-linejoin="round"/><polyline points="6,15.68 6.32,15.68" fill="none" stroke="#111" stroke-width="1.6" stroke-linecap="round" stroke-linejoin="round"/><polyline points="6,16.74 6.32,16.74" fill="none" stroke="#111" stroke-width="1.6" stroke-linecap="round" stroke-linejoin="round"/><polyline points="6,17.79 6.32,17.79" fill="none" stroke="#111" stroke-width="1.6" stroke-linecap="round" stroke-linejoin="round"/><polyline points="6,18.84 6.32,18.84" fill="none" stroke="#111" stroke-width="1.6" stroke-linecap="round" stroke-linejoin="round"/><polyline points="6,19.89 6.32,19.89" fill="none" stroke="#111" stroke-width="1.6" stroke-linecap="round" stroke-linejoin="round"/><polyline points="6,20.95 6.32,20.95" fill="none" stroke="#111" stroke-width="1.6" stroke-linecap="round" stroke-linejoin="round"/><polyline points="6,22 6.32,22" fill="none" stroke="#111" stroke-width="1.6" stroke-linecap="round" stroke-linejoin="round"/><polyline points="6,23.05 6.32,23.05" fill="none" stroke="#111" stroke-width="1.6" stroke-linecap="round" stroke-linejoin="round"/><polyline points="6,24.11 6.32,24.11" fill="none" stroke="#111" stroke-width="1.6" stroke-linecap="round" stroke-linejoin="round"/><polyline points="6,25.16 6.32,25.16" fill="none" stroke="#111" stroke-width="1.6" stroke-linecap="round" stroke-linejoin="round"/><polyline points="6,26.21 6.32,26.21" fill="none" stroke="#111" stroke-width="1.6" stroke-linecap="round" stroke-linejoin="round"/><polyline points="6,27.26 6.32,27.26" fill="none" stroke="#111" stroke-width="1.6" stroke-linecap="round" stroke-linejoin="round"/><polyline points="6,28.32 6.32,28.32" fill="none" stroke="#111" stroke-width="1.6" stroke-linecap="round" stroke-linejoin="round"/><polyline points="6,29.37 6.32,29.37" fill="none" stroke="#111" stroke-width="1.6" stroke-linecap="round" stroke-linejoin="round"/><polyline points="6,30.42 6.32,30.42" fill="none" stroke="#111" stroke-width="1.6" stroke-linecap="round" stroke-linejoin="round"/><polyline points="6,31.47 6.32,31.47" fill="none" stroke="#111" stroke-width="1.6" stroke-linecap="round" stroke-linejoin="round"/><polyline points="6,32.53 6.32,32.53" fill="none" stroke="#111" stroke-width="1.6" stroke-linecap="round" stroke-linejoin="round"/><polyline points="6,33.58 6.32,33.58" fill="none" stroke="#111" stroke-width="1.6" stroke-linecap="round" stroke-linejoin="round"/><polyline points="6,34.63 6.32,34.63" fill="none" stroke="#111" stroke-width="1.6" stroke-linecap="round" stroke-linejoin="round"/><polyline points="6,35.68 6.32,35.68" fill="none" stroke="#111" stroke-width="1.6" stroke-linecap="round" stroke-linejoin="round"/><polyline points="6,36.74 6.32,36.74" fill="none" stroke="#111" stroke-width="1.6" stroke-linecap="round" stroke-linejoin="round"/><polyline points="6,37.79 6.32,37.79" fill="none" stroke="#111" stroke-width="1.6" stroke-linecap="round" stroke-linejoin="round"/><polyline points="6,38.84 6.32,38.84" fill="none" stroke="#111" stroke-width="1.6" stroke-linecap="round" stroke-linejoin="round"/><polyline points="6,39.89 6.32,39.89" fill="none" stroke="#111" stroke-width="1.6" stroke-linecap="round" stroke-linejoin="round"/><polyline points="6,40.95 6.32,40.95" fill="none" stroke="#111" stroke-width="1.6" stroke-linecap="round" stroke-linejoin="round"/><polyline points="6,42 6.32,42" fill="none" stroke="#111" stroke-width="1.6" stroke-linecap="round" stroke-linejoin="round"/><polyline points="6,43.05 6.32,43.05" fill="none" stroke="#111" stroke-width="1.6" stroke-linecap="round" stroke-linejoin="round"/><polyline points="6,44.11 6.32,44.11" fill="none" stroke="#111" stroke-width="1.6" stroke-linecap="round" stroke-linejoin="round"/><polyline points="6,45.16 6.32,45.16" fill="none" stroke="#111" stroke-width="1.6" stroke-linecap="round" stroke-linejoin="round"/><polyline points="6,46.21 6.32,46.21" fill="none" stroke="#111" stroke-width="1.6" stroke-linecap="round" stroke-linejoin="round"/><polyline points="6,47.26 6.32,47.26" fill="none" stroke="#111" stroke-width="1.6" stroke-linecap="round" stroke-linejoin="round"/><polyline points="6,48.32 6.32,48.32" fill="none" stroke="#111" stroke-width="1.6" stroke-linecap="round" stroke-linejoin="round"/><polyline points="6,49.37 6.32,49.37" fill="none" stroke="#111" stroke-width="1.6" stroke-linecap="round" stroke-linejoin="round"/><polyline points="6,50.42 6.32,50.42" fill="none" stroke="#111" stroke-width="1.6" stroke-linecap="round" stroke-linejoin="round"/><polyline points="6,51.47 6.32,51.47" fill="none" stroke="#111" stroke-width="1.6" stroke-linecap="round" stroke-linejoin="round"/><polyline points="6,52.53 6.32,52.53" fill="none" stroke="#111" stroke-width="1.6" stroke-linecap="round" stroke-linejoin="round"/><polyline points="6,53.58 6.32,53.58" fill="none" stroke="#111" stroke-width="1.6" stroke-linecap="round" stroke-linejoin="round"/><polyline points="6,54.63 6.32,54.63" fill="none" stroke="#111" stroke-width="1.6" stroke-linecap="round" stroke-linejoin="round"/><polyline points="6,55.68 6.32,55.68" fill="none" stroke="#111" stroke-width="1.6" stroke-linecap="round" stroke-linejoin="round"/><polyline points="6,56.74 6.32,56.74" fill="none" stroke="#111" stroke-width="1.6" stroke-linecap="round" stroke-linejoin="round"/><polyline points="6,57.79 6.32,57.79" fill="none" stroke="#111" stroke-width="1.6" stroke-linecap="round" stroke-linejoin="round"/><path d="M 6.53 6.42 Q 6.32 6.21 6.53 6" fill="none" stroke="#111" stroke-width="1.6" stroke-linecap="round"/><path d="M 6.53 7.47 Q 6.32 7.26 6.53 7.05" fill="none" stroke="#111" stroke-width="1.6" stroke-linecap="round"/><path d="M 6.53 8.53 Q 6.32 8.32 6.53 8.11" fill="none" stroke="#111" stroke-width="1.6" stroke-linecap="round"/><path d="M 6.53 9.58 Q 6.32 9.37 6.53 9.16" fill="none" stroke="#111" stroke-width="1.6" stroke-linecap="round"/><path d="M 6.53 10.63 Q 6.32 10.42 6.53 10.21" fill="none" stroke="#111" stroke-width="1.6" stroke-linecap="round"/><path d="M 6.53 11.68 Q 6.32 11.47 6.53 11.26" fill="none" stroke="#111" stroke-width="1.6" stroke-linecap="round"/><path d="M 6.53 12.74 Q 6.32 12.53 6.53 12.32" fill="none" stroke="#111" stroke-width="1.6" stroke-linecap="round"/><path d="M 6.53 13.79 Q 6.32 13.58 6.53 13.37" fill="none" stroke="#111" stroke-width="1.6" stroke-linecap="round"/><path d="M 6.53 14.84 Q 6.32 14.63 6.53 14.42" fill="none" stroke="#111" stroke-width="1.6" stroke-linecap="round"/><path d="M 6.53 15.89 Q 6.32 15.68 6.53 15.47" fill="none" stroke="#111" stroke-width="1.6" stroke-linecap="round"/><path d="M 6.53 16.95 Q 6.32 16.74 6.53 16.53" fill="none" stroke="#111" stroke-width="1.6" stroke-linecap="round"/><path d="M 6.53 18 Q 6.32 17.79 6.53 17.58" fill="none" stroke="#111" stroke-width="1.6" stroke-linecap="round"/><path d="M 6.53 19.05 Q 6.32 18.84 6.53 18.63" fill="none" stroke="#111" stroke-width="1.6" stroke-linecap="round"/><path d="M 6.53 20.11 Q 6.32 19.89 6.53 19.68" fill="none" stroke="#111" stroke-width="1.6" stroke-linecap="round"/><path d="M 6.53 21.16 Q 6.32 20.95 6.53 20.74" fill="none" stroke="#111" stroke-width="1.6" stroke-linecap="round"/><path d="M 6.53 22.21 Q 6.32 22 6.53 21.79" fill="none" stroke="#111" stroke-width="1.6" stroke-linecap="round"/><path d="M 6.53 23.26 Q 6.32 23.05 6.53 22.84" fill="none" stroke="#111" stroke-width="1.6" stroke-linecap="round"/><path d="M 6.53 24.32 Q 6.32 24.11 6.53 23.89" fill="none" stroke="#111" stroke-width="1.6" stroke-linecap="round"/><path d="M 6.53 25.37 Q 6.32 25.16 6.53 24.95" fill="none" stroke="#111" stroke-width="1.6" stroke-linecap="round"/><path d="M 6.53 26.42 Q 6.32 26.21 6.53 26" fill="none" stroke="#111" stroke-width="1.6" stroke-linecap="round"/><path d="M 6.53 27.47 Q 6.32 27.26 6.53 27.05" fill="none" stroke="#111" stroke-width="1.6" stroke-linecap="round"/><path d="M 6.53 28.53 Q 6.32 28.32 6.53 28.11" fill="none" stroke="#111" stroke-width="1.6" stroke-linecap="round"/><path d="M 6.53 29.58 Q 6.32 29.37 6.53 29.16" fill="none" stroke="#111" stroke-width="1.6" stroke-linecap="round"/><path d="M 6.53 30.63 Q 6.32 30.42 6.53 30.21" fill="none" stroke="#111" stroke-width="1.6" stroke-linecap="round"/><path d="M 6.53 31.68 Q 6.32 31.47 6.53 31.26" fill="none" stroke="#111" stroke-width="1.6" stroke-linecap="round"/><path d="M 6.53 32.74 Q 6.32 32.53 6.53 32.32" fill="none" stroke="#111" stroke-width="1.6" stroke-linecap="round"/><path d="M 6.53 33.79 Q 6.32 33.58 6.53 33.37" fill="none" stroke="#111" stroke-width="1.6" stroke-linecap="round"/><path d="M 6.53 34.84 Q 6.32 34.63 6.53 34.42" fill="none" stroke="#111" stroke-width="1.6" stroke-linecap="round"/><path d="M 6.53 35.89 Q 6.32 35.68 6.53 35.47" fill="none" stroke="#111" stroke-width="1.6" stroke-linecap="round"/><path d="M 6.53 36.95 Q 6.32 36.74 6.53 36.53" fill="none" stroke="#111" stroke-width="1.6" stroke-linecap="round"/><path d="M 6.53 38 Q 6.32 37.79 6.53 37.58" fill="none" stroke="#111" stroke-width="1.6" stroke-linecap="round"/><path d="M 6.53 39.05 Q 6.32 38.84 6.53 38.63" fill="none" stroke="#111" stroke-width="1.6" stroke-linecap="round"/><path d="M 6.53 40.11 Q 6.32 39.89 6.53 39.68" fill="none" stroke="#111" stroke-width="1.6" stroke-linecap="round"/><path d="M 6.53 41.16 Q 6.32 40.95 6.53 40.74" fill="none" stroke="#111" stroke-width="1.6" stroke-linecap="round"/><path d="M 6.53 42.21 Q 6.32 42 6.53 41.79" fill="none" stroke="#111" stroke-width="1.6" stroke-linecap="round"/><path d="M 6.53 43.26 Q 6.32 43.05 6.53 42.84" fill="none" stroke="#111" stroke-width="1.6" stroke-linecap="round"/><path d="M 6.53 44.32 Q 6.32 44.11 6.53 43.89" fill="none" stroke="#111" stroke-width="1.6" stroke-linecap="round"/><path d="M 6.53 45.37 Q 6.32 45.16 6.53 44.95" fill="none" stroke="#111" stroke-width="1.6" stroke-linecap="round"/><path d="M 6.53 46.42 Q 6.32 46.21 6.53 46" fill="none" stroke="#111" stroke-width="1.6" stroke-linecap="round"/><path d="M 6.53 47.47 Q 6.32 47.26 6.53 47.05" fill="none" stroke="#111" stroke-width="1.6" stroke-linecap="round"/><path d="M 6.53 48.53 Q 6.32 48.32 6.53 48.11" fill="none" stroke="#111" stroke-width="1.6" stroke-linecap="round"/><path d="M 6.53 49.58 Q 6.32 49.37 6.53 49.16" fill="none" stroke="#111" stroke-width="1.6" stroke-linecap="round"/><path d="M 6.53 50.63 Q 6.32 50.42 6.53 50.21" fill="none" stroke="#111" stroke-width="1.6" stroke-linecap="round"/><path d="M 6.53 51.68 Q 6.32 51.47 6.53 51.26" fill="none" stroke="#111" stroke-width="1.6" stroke-linecap="round"/><path d="M 6.53 52.74 Q 6.32 52.53 6.53 52.32" fill="none" stroke="#111" stroke-width="1.6" stroke-linecap="round"/><path d="M 6.53 53.79 Q 6.32 53.58 6.53 53.37" fill="none" stroke="#111" stroke-width="1.6" stroke-linecap="round"/><path d="M 6.53 54.84 Q 6.32 54.63 6.53 54.42" fill="none" stroke="#111" stroke-width="1.6" stroke-linecap="round"/><path d="M 6.53 55.89 Q 6.32 55.68 6.53 55.47" fill="none" stroke="#111" stroke-width="1.6" stroke-linecap="round"/><path d="M 6.53 56.95 Q 6.32 56.74 6.53 56.53" fill="none" stroke="#111" stroke-width="1.6" stroke-linecap="round"/><path d="M 6.53 58 Q 6.32 57.79 6.53 57.58" fill="none" stroke="#111" stroke-width="1.6" stroke-linecap="round"/></svg>