<svg xmlns="http://www.w3.org/2000/svg" width="96" height="64" viewBox="0 0 96 64"><rect x="6" y="6" width="1.36" height="51.59" fill="none" stroke="#111" stroke-width="1.6"/><rect x="6" y="6.61" width="0.68" height="0.14" fill="none" stroke="#111" stroke-width="1.6"/><rect x="6" y="7.97" width="0.68" height="0.13" fill="none" stroke="#111" stroke-width="1.6"/><rect x="6" y="9.33" width="0.68" height="0.13" fill="none" stroke="#111" stroke-width="1.6"/><rect x="6" y="10.68" width="0.68" height="0.14" fill="none" stroke="#111" stroke-width="1.6"/><rect x="6" y="12.04" width="0.68" height="0.14" fill="none" stroke="#111" stroke-width="1.6"/><rect x="6" y="13.4" width="0.68" height="0.14" fill="none" stroke="#111" stroke-width="1.6"/><rect x="6" y="14.76" width="0.68" height="0.13" fill="none" stroke="#111" stroke-width="1.6"/><rect x="6" y="16.11" width="0.68" height="0.14" fill="none" stroke="#111" stroke-width="1.6"/><rect x="6" y="17.47" width="0.68" height="0.14" fill="none" stroke="#111" stroke-width="1.6"/><rect x="6" y="18.83" width="0.68" height="0.14" fill="none" stroke="#111" stroke-width="1.6"/><rect x="6" y="20.19" width="0.68" height="0.13" fill="none" stroke="#111" stroke-width="1.6"/><rect x="6" y="21.55" width="0.68" height="0.13" fill="none" stroke="#111" stroke-width="1.6"/><rect x="6" y="22.9" width="0.68" height="0.14" fill="none" stroke="#111" stroke-width="1.6"/><rect x="6" y="24.26" width="0.68" height="0.14" fill="none" stroke="#111" stroke-width="1.6"/><rect x="6" y="25.62" width="0.68" height="0.13" fill="none" stroke="#111" stroke-width="1.6"/><rect x="6" y="26.98" width="0.68" height="0.13" fill="none" stroke="#111" stroke-width="1.6"/><rect x="6" y="28.33" width="0.68" height="0.14" fill="none" stroke="#111" stroke-width="1.6"/><rect x="6" y="29.69" width="0.68" height="0.14" fill="none" stroke="#111" stroke-width="1.6"/><rect x="6" y="31.05" width="0.68" height="0.14" fill="none" stroke="#111" stroke-width="1.6"/><rect x="6" y="32.41" width="0.68" height="0.13" fill="none" stroke="#111" stroke-width="1.6"/><rect x="6" y="33.77" width="0.68" height="0.13" fill="none" stroke="#111" stroke-width="1.6"/><rect x="6" y="35.12" width="0.68" height="0.14" fill="none" stroke="#111" stroke-width="1.6"/><rect x="6" y="36.48" width="0.68" height="0.14" fill="none" stroke="#111" stroke-width="1.6"/><rect x="6" y="37.84" width="0.68" height="0.13" fill="none" stroke="#111" stroke-width="1.6"/><rect x="6" y="39.2" width="0.68" height="0.13" fill="none" stroke="#111" stroke-width="1.6"/><rect x="6" y="40.55" width="0.68" height="0.14" fill="none" stroke="#111" stroke-width="1.6"/><rect x="6" y="41.91" width="0.68" height="0.14" fill="none" stroke="#111" stroke-width="1.6"/><rect x="6" y="43.27" width="0.68" height="0.13" fill="none" stroke="#111" stroke-width="1.6"/><rect x="6" y="44.63" width="0.68" height="0.13" fill="none" stroke="#111" stroke-width="1.6"/><rect x="6" y="45.98" width="0.68" height="0.14" fill="none" stroke="#111" stroke-width="1.6"/><rect x="6" y="47.34" width="0.68" height="0.14" fill="none" stroke="#111" stroke-width="1.6"/><rect x="6" y="48.7" width="0.68" height="0.14" fill="none" stroke="#111" stroke-width="1.6"/><rect x="6" y="50.06" width="0.68" height="0.13" fill="none" stroke="#111" stroke-width="1.6"/><rect x="6" y="51.42" width="0.68" height="0.13" fill="none" stroke="#111" stroke-width="1.6"/><rect x="6" y="52.77" width="0.68" height="0.14" fill="none" stroke="#111" stroke-width="1.6"/><rect x="6" y="54.13" width="0.68" height="0.14" fill="none" stroke="#111" stroke-width="1.6"/><rect x="6" y="55.49" width="0.68" height="0.13" fill="none" stroke="#111" stroke-width="1.6"/><rect x="6" y="56.85" width="0.68" height="0.13" fill="none" stroke="#111" stroke-width="1.6"/><polyline points="6.14,58 7.22,58" fill="none" stroke="#111" stroke-width="1.6" stroke-linecap="round" stroke-linejoin="round"/></svg>