<svg xmlns="http://www.w3.org/2000/svg" width="96" height="64" viewBox="0 0 96 64"><circle cx="8.6" cy="19" r="2.6" fill="none" stroke="#111" stroke-width="1.6"/><polyline points="8.6,28.1 13.8,28.1" fill="none" stroke="#111" stroke-width="1.6" stroke-linecap="round" stroke-linejoin="round"/><polyline points="8.6,35.9 13.8,35.9" fill="none" stroke="#111" stroke-width="1.6" stroke-linecap="round" stroke-linejoin="round"/><circle cx="8.6" cy="45" r="2.6" fill="none" stroke="#111" stroke-width="1.6"/><polyline points="11.2,11.2 11.2,6" fill="none" stroke="#111" stroke-width="1.6" stroke-linecap="round" stroke-linejoin="round"/><polyline points="11.2,52.8 11.2,58" fill="none" stroke="#111" stroke-width="1.6" stroke-linecap="round" stroke-linejoin="round"/><path d="M 21.6 11.2 Q 16.4 16.38 11.2 11.2" fill="none" stroke="#111" stroke-width="1.6" stroke-linecap="round"/><path d="M 11.2 52.8 Q 16.4 47.62 21.6 52.8" fill="none" stroke="#111" stroke-width="1.6" stroke-linecap="round"/><polyline points="19,28.1 24.2,28.1" fill="none" stroke="#111" stroke-width="1.6" stroke-linecap="round" stroke-linejoin="round"/><polyline points="19,35.9 24.2,35.9" fill="none" stroke="#111" stroke-width="1.6" stroke-linecap="round" stroke-linejoin="round"/><path d="M 32 11.2 Q 26.8 16.38 21.6 11.2" fill="none" stroke="#111" stroke-width="1.6" stroke-linecap="round"/><path d="M 21.6 52.8 Q 26.8 47.62 32 52.8" fill="none" stroke="#111" stroke-width="1.6" stroke-linecap="round"/><polyline points="29.4,28.1 34.6,28.1" fill="none" stroke="#111" stroke-width="1.6" stroke-linecap="round" stroke-linejoin="round"/><polyline points="29.4,35.9 34.6,35.9" fill="none" stroke="#111" stroke-width="1.6" stroke-linecap="round" stroke-linejoin="round"/><path d="M 42.4 11.2 Q 37.2 16.38 32 11.2" fill="none" stroke="#111" stroke-width="1.6" stroke-linecap="round"/><path d="M 32 52.8 Q 37.2 47.62 42.4 52.8" fill="none" stroke="#111" stroke-width="1.6" stroke-linecap="round"/><polyline points="39.8,28.1 45,28.1" fill="none" stroke="#111" stroke-width="1.6" stroke-linecap="round" stroke-linejoin="round"/><polyline points="39.8,35.9 45,35.9" fill="none" stroke="#111" stroke-width="1.6" stroke-linecap="round" stroke-linejoin="round"/><path d="M 52.8 11.2 Q 47.6 16.38 42.4 11.2" fill="none" stroke="#111" stroke-width="1.6" stroke-linecap="round"/><path d="M 42.4 52.8 Q 47.6 47.62 52.8 52.8" fill="none" stroke="#111" stroke-width="1.6" stroke-linecap="round"/><polyline points="50.2,28.1 55.4,28.1" fill="none" stroke="#111" stroke-width="1.6" stroke-linecap="round" stroke-linejoin="round"/><polyline points="50.2,35.9 55.4,35.9" fill="none" stroke="#111" stroke-width="1.6" stroke-linecap="round" stroke-linejoin="round"/><path d="M 63.2 11.2 Q 58 16.38 52.8 11.2" fill="none" stroke="#111" stroke-width="1.6" stroke-linecap="round"/><path d="M 52.8 52.8 Q 58 47.62 63.2 52.8" fill="none" stroke="#111" stroke-width="1.6" stroke-linecap="round"/><polyline points="60.6,28.1 65.8,28.1" fill="none" stroke="#111" stroke-width="1.6" stroke-linecap="round" stroke-linejoin="round"/><polyline points="60.6,35.9 65.8,35.9" fill="none" stroke="#111" stroke-width="1.6" stroke-linecap="round" stroke-linejoin="round"/><polyline points="63.2,6 63.2,11.2" fill="none" stroke="#111" stroke-width="1.6" stroke-linecap="round" stroke-linejoin="round"/><polyline points="63.2,52.8 63.2,58" fill="none" stroke="#111" stroke-width="1.6" stroke-linecap="round" stroke-linejoin="round"/></svg>