<svg xmlns="http://www.w3.org/2000/svg" width="96" height="64" viewBox="0 0 96 64"><polyline points="16.64,20.18 15.45,20.18" fill="none" stroke="#111" stroke-width="1.6" stroke-linecap="round" stroke-linejoin="round"/><polyline points="16.64,24.91 15.45,24.91" fill="none" stroke="#111" stroke-width="1.6" stroke-linecap="round" stroke-linejoin="round"/><polyline points="16.64,29.64 15.45,29.64" fill="none" stroke="#111" stroke-width="1.6" stroke-linecap="round" stroke-linejoin="round"/><polyline points="16.64,34.36 15.45,34.36" fill="none" stroke="#111" stroke-width="1.6" stroke-linecap="round" stroke-linejoin="round"/><polyline points="21.36,33.18 21.36,30.82" fill="none" stroke="#111" stroke-width="1.6" stroke-linecap="round" stroke-linejoin="round"/><polyline points="21.36,36.73 21.36,35.55" fill="none" stroke="#111" stroke-width="1.6" stroke-linecap="round" stroke-linejoin="round"/><polyline points="21.36,36.73 21.36,43.82 19,43.82" fill="none" stroke="#111" stroke-width="1.6" stroke-linecap="round" stroke-linejoin="round"/><polyline points="26.09,20.18 27.27,20.18" fill="none" stroke="#111" stroke-width="1.6" stroke-linecap="round" stroke-linejoin="round"/><polyline points="26.09,24.91 27.27,24.91" fill="none" stroke="#111" stroke-width="1.6" stroke-linecap="round" stroke-linejoin="round"/><polyline points="26.09,29.64 27.27,29.64" fill="none" stroke="#111" stroke-width="1.6" stroke-linecap="round" stroke-linejoin="round"/><rect x="16.64" y="33.18" width="9.45" height="2.37" fill="none" stroke="#111" stroke-width="1.6"/><polyline points="26.09,34.36 27.27,34.36" fill="none" stroke="#111" stroke-width="1.6" stroke-linecap="round" stroke-linejoin="round"/><rect x="27.27" y="18.29" width="4.73" height="3.78" fill="none" stroke="#111" stroke-width="1.6"/><polyline points="27.27,18.76 28.69,18.76" fill="none" stroke="#111" stroke-width="1.6" stroke-linecap="round" stroke-linejoin="round"/><polyline points="27.27,21.6 28.69,21.6" fill="none" stroke="#111" stroke-width="1.6" stroke-linecap="round" stroke-linejoin="round"/><rect x="27.27" y="23.02" width="4.73" height="3.78" fill="none" stroke="#111" stroke-width="1.6"/><polyline points="27.27,23.49 28.69,23.49" fill="none" stroke="#111" stroke-width="1.6" stroke-linecap="round" stroke-linejoin="round"/><polyline points="27.27,26.33 28.69,26.33" fill="none" stroke="#111" stroke-width="1.6" stroke-linecap="round" stroke-linejoin="round"/><rect x="27.27" y="27.75" width="4.73" height="3.78" fill="none" stroke="#111" stroke-width="1.6"/><polyline points="27.27,28.22 28.69,28.22" fill="none" stroke="#111" stroke-width="1.6" stroke-linecap="round" stroke-linejoin="round"/><polyline points="27.27,31.05 28.69,31.05" fill="none" stroke="#111" stroke-width="1.6" stroke-linecap="round" stroke-linejoin="round"/><rect x="27.27" y="32.47" width="4.73" height="3.78" fill="none" stroke="#111" stroke-width="1.6"/><polyline points="27.27,32.95 28.69,32.95" fill="none" stroke="#111" stroke-width="1.6" stroke-linecap="round" stroke-linejoin="round"/><polyline points="27.27,35.78 28.69,35.78" fill="none" stroke="#111" stroke-width="1.6" stroke-linecap="round" stroke-linejoin="round"/><path d="M 28.69 18.76 Q 29.16 19.24 28.69 19.71" fill="none" stroke="#111" stroke-width="1.6" stroke-linecap="round"/><path d="M 28.69 19.71 Q 29.16 20.18 28.69 20.65" fill="none" stroke="#111" stroke-width="1.6" stroke-linecap="round"/><path d="M 28.69 20.65 Q 29.16 21.13 28.69 21.6" fill="none" stroke="#111" stroke-width="1.6" stroke-linecap="round"/><path d="M 28.69 23.49 Q 29.16 23.96 28.69 24.44" fill="none" stroke="#111" stroke-width="1.6" stroke-linecap="round"/><path d="M 28.69 24.44 Q 29.16 24.91 28.69 25.38" fill="none" stroke="#111" stroke-width="1.6" stroke-linecap="round"/><path d="M 28.69 25.38 Q 29.16 25.85 28.69 26.33" fill="none" stroke="#111" stroke-width="1.6" stroke-linecap="round"/><path d="M 28.69 28.22 Q 29.16 28.69 28.69 29.16" fill="none" stroke="#111" stroke-width="1.6" stroke-linecap="round"/><path d="M 28.69 29.16 Q 29.16 29.64 28.69 30.11" fill="none" stroke="#111" stroke-width="1.6" stroke-linecap="round"/><path d="M 28.69 30.11 Q 29.16 30.58 28.69 31.05" fill="none" stroke="#111" stroke-width="1.6" stroke-linecap="round"/><path d="M 28.69 32.95 Q 29.16 33.42 28.69 33.89" fill="none" stroke="#111" stroke-width="1.6" stroke-linecap="round"/><path d="M 28.69 33.89 Q 29.16 34.36 28.69 34.84" fill="none" stroke="#111" stroke-width="1.6" stroke-linecap="round"/><path d="M 28.69 34.84 Q 29.16 35.31 28.69 35.78" fill="none" stroke="#111" stroke-width="1.6" stroke-linecap="round"/><polyline points="29.64,6 29.64,7.18" fill="none" stroke="#111" stroke-width="1.6" stroke-linecap="round" stroke-linejoin="round"/><polyline points="29.64,10.73 29.64,8.36" fill="none" stroke="#111" stroke-width="1.6" stroke-linecap="round" stroke-linejoin="round"/><polyline points="29.64,14.27 29.64,11.91" fill="none" stroke="#111" stroke-width="1.6" stroke-linecap="round" stroke-linejoin="round"/><polyline points="29.64,17.82 29.64,15.45" fill="none" stroke="#111" stroke-width="1.6" stroke-linecap="round" stroke-linejoin="round"/><polyline points="29.64,36.73 29.64,39.09" fill="none" stroke="#111" stroke-width="1.6" stroke-linecap="round" stroke-linejoin="round"/><polyline points="29.64,40.27 29.64,42.64" fill="none" stroke="#111" stroke-width="1.6" stroke-linecap="round" stroke-linejoin="round"/><polyline points="29.64,43.82 29.64,46.18" fill="none" stroke="#111" stroke-width="1.6" stroke-linecap="round" stroke-linejoin="round"/><polyline points="29.64,47.36 29.64,49.73" fill="none" stroke="#111" stroke-width="1.6" stroke-linecap="round" stroke-linejoin="round"/><polyline points="29.64,50.91 29.64,53.27" fill="none" stroke="#111" stroke-width="1.6" stroke-linecap="round" stroke-linejoin="round"/><polyline points="29.64,54.45 29.64,56.82" fill="none" stroke="#111" stroke-width="1.6" stroke-linecap="round" stroke-linejoin="round"/><path d="M 30.58 19.71 Q 30.11 19.24 30.58 18.76" fill="none" stroke="#111" stroke-width="1.6" stroke-linecap="round"/><path d="M 30.58 20.65 Q 30.11 20.18 30.58 19.71" fill="none" stroke="#111" stroke-width="1.6" stroke-linecap="round"/><path d="M 30.58 21.6 Q 30.11 21.13 30.58 20.65" fill="none" stroke="#111" stroke-width="1.6" stroke-linecap="round"/><path d="M 30.58 24.44 Q 30.11 23.96 30.58 23.49" fill="none" stroke="#111" stroke-width="1.6" stroke-linecap="round"/><path d="M 30.58 25.38 Q 30.11 24.91 30.58 24.44" fill="none" stroke="#111" stroke-width="1.6" stroke-linecap="round"/><path d="M 30.58 26.33 Q 30.11 25.85 30.58 25.38" fill="none" stroke="#111" stroke-width="1.6" stroke-linecap="round"/><path d="M 30.58 29.16 Q 30.11 28.69 30.58 28.22" fill="none" stroke="#111" stroke-width="1.6" stroke-linecap="round"/><path d="M 30.58 30.11 Q 30.11 29.64 30.58 29.16" fill="none" stroke="#111" stroke-width="1.6" stroke-linecap="round"/><path d="M 30.58 31.05 Q 30.11 30.58 30.58 30.11" fill="none" stroke="#111" stroke-width="1.6" stroke-linecap="round"/><path d="M 30.58 33.89 Q 30.11 33.42 30.58 32.95" fill="none" stroke="#111" stroke-width="1.6" stroke-linecap="round"/><path d="M 30.58 34.84 Q 30.11 34.36 30.58 33.89" fill="none" stroke="#111" stroke-width="1.6" stroke-linecap="round"/><path d="M 30.58 35.78 Q 30.11 35.31 30.58 34.84" fill="none" stroke="#111" stroke-width="1.6" stroke-linecap="round"/><polyline points="32,18.76 30.58,18.76" fill="none" stroke="#111" stroke-width="1.6" stroke-linecap="round" stroke-linejoin="round"/><polyline points="32,21.6 30.58,21.6" fill="none" stroke="#111" stroke-width="1.6" stroke-linecap="round" stroke-linejoin="round"/><polyline points="32,23.49 30.58,23.49" fill="none" stroke="#111" stroke-width="1.6" stroke-linecap="round" stroke-linejoin="round"/><polyline points="32,26.33 30.58,26.33" fill="none" stroke="#111" stroke-width="1.6" stroke-linecap="round" stroke-linejoin="round"/><polyline points="32,28.22 30.58,28.22" fill="none" stroke="#111" stroke-width="1.6" stroke-linecap="round" stroke-linejoin="round"/><polyline points="32,31.05 30.58,31.05" fill="none" stroke="#111" stroke-width="1.6" stroke-linecap="round" stroke-linejoin="round"/><polyline points="32,32.95 30.58,32.95" fill="none" stroke="#111" stroke-width="1.6" stroke-linecap="round" stroke-linejoin="round"/><polyline points="32,35.78 30.58,35.78" fill="none" stroke="#111" stroke-width="1.6" stroke-linecap="round" stroke-linejoin="round"/><rect x="33.18" y="19" width="9.46" height="2.36" fill="none" stroke="#111" stroke-width="1.6"/><polyline points="33.18,20.18 32,20.18" fill="none" stroke="#111" stroke-width="1.6" stroke-linecap="round" stroke-linejoin="round"/><rect x="33.18" y="23.73" width="9.46" height="2.36" fill="none" stroke="#111" stroke-width="1.6"/><polyline points="33.18,24.91 32,24.91" fill="none" stroke="#111" stroke-width="1.6" stroke-linecap="round" stroke-linejoin="round"/><rect x="33.18" y="28.45" width="9.46" height="2.37" fill="none" stroke="#111" stroke-width="1.6"/><polyline points="33.18,29.64 32,29.64" fill="none" stroke="#111" stroke-width="1.6" stroke-linecap="round" stroke-linejoin="round"/><rect x="33.18" y="33.18" width="9.46" height="2.37" fill="none" stroke="#111" stroke-width="1.6"/><polyline points="33.18,34.36 32,34.36" fill="none" stroke="#111" stroke-width="1.6" stroke-linecap="round" stroke-linejoin="round"/><polyline points="37.91,23.73 37.91,21.36" fill="none" stroke="#111" stroke-width="1.6" stroke-linecap="round" stroke-linejoin="round"/><polyline points="37.91,28.45 37.91,26.09" fill="none" stroke="#111" stroke-width="1.6" stroke-linecap="round" stroke-linejoin="round"/><polyline points="37.91,33.18 37.91,30.82" fill="none" stroke="#111" stroke-width="1.6" stroke-linecap="round" stroke-linejoin="round"/><polyline points="40.27,43.82 37.91,43.82 37.91,35.55" fill="none" stroke="#111" stroke-width="1.6" stroke-linecap="round" stroke-linejoin="round"/><polyline points="42.64,20.18 43.82,20.18" fill="none" stroke="#111" stroke-width="1.6" stroke-linecap="round" stroke-linejoin="round"/><polyline points="42.64,24.91 43.82,24.91" fill="none" stroke="#111" stroke-width="1.6" stroke-linecap="round" stroke-linejoin="round"/><polyline points="42.64,29.64 43.82,29.64" fill="none" stroke="#111" stroke-width="1.6" stroke-linecap="round" stroke-linejoin="round"/><polyline points="42.64,34.36 43.82,34.36" fill="none" stroke="#111" stroke-width="1.6" stroke-linecap="round" stroke-linejoin="round"/><rect x="6" y="6" width="47.27" height="52" fill="none" stroke="#111" stroke-width="1.6"/><rect x="16.64" y="19" width="9.45" height="2.36" fill="none" stroke="#111" stroke-width="1.6"/><rect x="16.64" y="23.73" width="9.45" height="2.36" fill="none" stroke="#111" stroke-width="1.6"/><rect x="16.64" y="28.45" width="9.45" height="2.37" fill="none" stroke="#111" stroke-width="1.6"/></svg>