<svg xmlns="http://www.w3.org/2000/svg" width="96" height="64" viewBox="0 0 96 64"><polyline points="9.9,45 16.4,45 16.4,52.8" fill="none" stroke="#111" stroke-width="1.6" stroke-linecap="round" stroke-linejoin="round"/><polyline points="12.5,32 6,32" fill="none" stroke="#111" stroke-width="1.6" stroke-linecap="round" stroke-linejoin="round"/><circle cx="15.1" cy="32" r="2.6" fill="none" stroke="#111" stroke-width="1.6"/><polyline points="26.8,6 26.8,11.2 37.2,11.2 37.2,6" fill="none" stroke="#111" stroke-width="1.6" stroke-linecap="round" stroke-linejoin="round"/><rect x="28.1" y="34.6" width="7.8" height="13" fill="none" stroke="#111" stroke-width="1.6"/><polyline points="32,12.5 32,6" fill="none" stroke="#111" stroke-width="1.6" stroke-linecap="round" stroke-linejoin="round"/><circle cx="32" cy="15.1" r="2.6" fill="none" stroke="#111" stroke-width="1.6"/><path d="M 47.6 52.8 Q 32 58 16.4 52.8" fill="none" stroke="#111" stroke-width="1.6" stroke-linecap="round"/><path d="M 37.2 6 Q 55.87 21.07 54.1 45" fill="none" stroke="#111" stroke-width="1.6" stroke-linecap="round"/><path d="M 9.9 45 Q 8.33 21.16 26.8 6" fill="none" stroke="#111" stroke-width="1.6" stroke-linecap="round"/><circle cx="48.9" cy="32" r="2.6" fill="none" stroke="#111" stroke-width="1.6"/><polyline points="54.1,45 47.6,45 47.6,52.8" fill="none" stroke="#111" stroke-width="1.6" stroke-linecap="round" stroke-linejoin="round"/><polyline points="58,32 51.5,32" fill="none" stroke="#111" stroke-width="1.6" stroke-linecap="round" stroke-linejoin="round"/></svg>