<svg xmlns="http://www.w3.org/2000/svg" width="96" height="64" viewBox="0 0 96 64"><polyline points="26.8,27.6 31.6,27.6 29.2,32.4 26.8,27.6 26.8,27.6" fill="none" stroke="#111" stroke-width="1.6" stroke-linecap="round" stroke-linejoin="round"/><rect x="6" y="26" width="40" height="32" fill="none" stroke="#111" stroke-width="1.6"/><polyline points="6,42 46,42 46,42" fill="none" stroke="#111" stroke-width="1.6" stroke-linecap="round" stroke-linejoin="round"/><polyline points="10,26 10,22 6,22 6,6 46,6 46,22 42,22 42,26 42,26" fill="none" stroke="#111" stroke-width="1.6" stroke-linecap="round" stroke-linejoin="round"/><polyline points="22,27.6 22,32.4 25.2,30 22,27.6 22,27.6" fill="none" stroke="#111" stroke-width="1.6" stroke-linecap="round" stroke-linejoin="round"/><polyline points="46,34 6,34 6,34" fill="none" stroke="#111" stroke-width="1.6" stroke-linecap="round" stroke-linejoin="round"/><polyline points="46,50 6,50 6,50" fill="none" stroke="#111" stroke-width="1.6" stroke-linecap="round" stroke-linejoin="round"/></svg>