<svg xmlns="http://www.w3.org/2000/svg" width="96" height="64" viewBox="0 0 96 64"><rect x="6" y="6" width="1.82" height="52" fill="none" stroke="#111" stroke-width="1.6"/><rect x="6" y="6.41" width="0.46" height="0.09" fill="none" stroke="#111" stroke-width="1.6"/><rect x="6" y="7.32" width="0.46" height="0.09" fill="none" stroke="#111" stroke-width="1.6"/><rect x="6" y="8.24" width="0.46" height="0.09" fill="none" stroke="#111" stroke-width="1.6"/><rect x="6" y="9.15" width="0.46" height="0.09" fill="none" stroke="#111" stroke-width="1.6"/><rect x="6" y="10.06" width="0.46" height="0.09" fill="none" stroke="#111" stroke-width="1.6"/><rect x="6" y="10.97" width="0.46" height="0.09" fill="none" stroke="#111" stroke-width="1.6"/><rect x="6" y="11.88" width="0.46" height="0.1" fill="none" stroke="#111" stroke-width="1.6"/><rect x="6" y="12.8" width="0.46" height="0.09" fill="none" stroke="#111" stroke-width="1.6"/><rect x="6" y="13.71" width="0.46" height="0.09" fill="none" stroke="#111" stroke-width="1.6"/><rect x="6" y="14.62" width="0.46" height="0.09" fill="none" stroke="#111" stroke-width="1.6"/><rect x="6" y="15.53" width="0.46" height="0.09" fill="none" stroke="#111" stroke-width="1.6"/><rect x="6" y="16.45" width="0.46" height="0.09" fill="none" stroke="#111" stroke-width="1.6"/><rect x="6" y="17.36" width="0.46" height="0.09" fill="none" stroke="#111" stroke-width="1.6"/><rect x="6" y="18.27" width="0.46" height="0.09" fill="none" stroke="#111" stroke-width="1.6"/><rect x="6" y="19.18" width="0.46" height="0.09" fill="none" stroke="#111" stroke-width="1.6"/><rect x="6" y="20.09" width="0.46" height="0.1" fill="none" stroke="#111" stroke-width="1.6"/><rect x="6" y="21.01" width="0.46" height="0.09" fill="none" stroke="#111" stroke-width="1.6"/><rect x="6" y="21.92" width="0.46" height="0.09" fill="none" stroke="#111" stroke-width="1.6"/><rect x="6" y="22.83" width="0.46" height="0.09" fill="none" stroke="#111" stroke-width="1.6"/><rect x="6" y="23.74" width="0.46" height="0.1" fill="none" stroke="#111" stroke-width="1.6"/><rect x="6" y="24.66" width="0.46" height="0.09" fill="none" stroke="#111" stroke-width="1.6"/><rect x="6" y="25.57" width="0.46" height="0.09" fill="none" stroke="#111" stroke-width="1.6"/><rect x="6" y="26.48" width="0.46" height="0.09" fill="none" stroke="#111" stroke-width="1.6"/><rect x="6" y="27.39" width="0.46" height="0.09" fill="none" stroke="#111" stroke-width="1.6"/><rect x="6" y="28.31" width="0.46" height="0.09" fill="none" stroke="#111" stroke-width="1.6"/><rect x="6" y="29.22" width="0.46" height="0.09" fill="none" stroke="#111" stroke-width="1.6"/><rect x="6" y="30.13" width="0.46" height="0.09" fill="none" stroke="#111" stroke-width="1.6"/><rect x="6" y="31.04" width="0.46" height="0.09" fill="none" stroke="#111" stroke-width="1.6"/><rect x="6" y="31.95" width="0.46" height="0.1" fill="none" stroke="#111" stroke-width="1.6"/><rect x="6" y="32.87" width="0.46" height="0.09" fill="none" stroke="#111" stroke-width="1.6"/><rect x="6" y="33.78" width="0.46" height="0.09" fill="none" stroke="#111" stroke-width="1.6"/><rect x="6" y="34.69" width="0.46" height="0.09" fill="none" stroke="#111" stroke-width="1.6"/><rect x="6" y="35.6" width="0.46" height="0.09" fill="none" stroke="#111" stroke-width="1.6"/><rect x="6" y="36.52" width="0.46" height="0.09" fill="none" stroke="#111" stroke-width="1.6"/><rect x="6" y="37.43" width="0.46" height="0.09" fill="none" stroke="#111" stroke-width="1.6"/><rect x="6" y="38.34" width="0.46" height="0.09" fill="none" stroke="#111" stroke-width="1.6"/><rect x="6" y="39.25" width="0.46" height="0.09" fill="none" stroke="#111" stroke-width="1.6"/><rect x="6" y="40.16" width="0.46" height="0.1" fill="none" stroke="#111" stroke-width="1.6"/><rect x="6" y="41.08" width="0.46" height="0.09" fill="none" stroke="#111" stroke-width="1.6"/><rect x="6" y="41.99" width="0.46" height="0.09" fill="none" stroke="#111" stroke-width="1.6"/><rect x="6" y="42.9" width="0.46" height="0.09" fill="none" stroke="#111" stroke-width="1.6"/><rect x="6" y="43.81" width="0.46" height="0.1" fill="none" stroke="#111" stroke-width="1.6"/><rect x="6" y="44.73" width="0.46" height="0.09" fill="none" stroke="#111" stroke-width="1.6"/><rect x="6" y="45.64" width="0.46" height="0.09" fill="none" stroke="#111" stroke-width="1.6"/><rect x="6" y="46.55" width="0.46" height="0.09" fill="none" stroke="#111" stroke-width="1.6"/><rect x="6" y="47.46" width="0.46" height="0.09" fill="none" stroke="#111" stroke-width="1.6"/><rect x="6" y="48.38" width="0.46" height="0.09" fill="none" stroke="#111" stroke-width="1.6"/><rect x="6" y="49.29" width="0.46" height="0.09" fill="none" stroke="#111" stroke-width="1.6"/><rect x="6" y="50.2" width="0.46" height="0.09" fill="none" stroke="#111" stroke-width="1.6"/><rect x="6" y="51.11" width="0.46" height="0.09" fill="none" stroke="#111" stroke-width="1.6"/><rect x="6" y="52.02" width="0.46" height="0.1" fill="none" stroke="#111" stroke-width="1.6"/><rect x="6" y="52.94" width="0.46" height="0.09" fill="none" stroke="#111" stroke-width="1.6"/><rect x="6" y="53.85" width="0.46" height="0.09" fill="none" stroke="#111" stroke-width="1.6"/><rect x="6" y="54.76" width="0.46" height="0.09" fill="none" stroke="#111" stroke-width="1.6"/><rect x="6" y="55.67" width="0.46" height="0.09" fill="none" stroke="#111" stroke-width="1.6"/><rect x="6" y="56.59" width="0.46" height="0.09" fill="none" stroke="#111" stroke-width="1.6"/><rect x="6" y="57.5" width="0.46" height="0.09" fill="none" stroke="#111" stroke-width="1.6"/><rect x="7.37" y="6.41" width="0.45" height="0.09" fill="none" stroke="#111" stroke-width="1.6"/><rect x="7.37" y="7.32" width="0.45" height="0.09" fill="none" stroke="#111" stroke-width="1.6"/><rect x="7.37" y="8.24" width="0.45" height="0.09" fill="none" stroke="#111" stroke-width="1.6"/><rect x="7.37" y="9.15" width="0.45" height="0.09" fill="none" stroke="#111" stroke-width="1.6"/><rect x="7.37" y="10.06" width="0.45" height="0.09" fill="none" stroke="#111" stroke-width="1.6"/><rect x="7.37" y="10.97" width="0.45" height="0.09" fill="none" stroke="#111" stroke-width="1.6"/><rect x="7.37" y="11.88" width="0.45" height="0.1" fill="none" stroke="#111" stroke-width="1.6"/><rect x="7.37" y="12.8" width="0.45" height="0.09" fill="none" stroke="#111" stroke-width="1.6"/><rect x="7.37" y="13.71" width="0.45" height="0.09" fill="none" stroke="#111" stroke-width="1.6"/><rect x="7.37" y="14.62" width="0.45" height="0.09" fill="none" stroke="#111" stroke-width="1.6"/><rect x="7.37" y="15.53" width="0.45" height="0.09" fill="none" stroke="#111" stroke-width="1.6"/><rect x="7.37" y="16.45" width="0.45" height="0.09" fill="none" stroke="#111" stroke-width="1.6"/><rect x="7.37" y="17.36" width="0.45" height="0.09" fill="none" stroke="#111" stroke-width="1.6"/><rect x="7.37" y="18.27" width="0.45" height="0.09" fill="none" stroke="#111" stroke-width="1.6"/><rect x="7.37" y="19.18" width="0.45" height="0.09" fill="none" stroke="#111" stroke-width="1.6"/><rect x="7.37" y="20.09" width="0.45" height="0.1" fill="none" stroke="#111" stroke-width="1.6"/><rect x="7.37" y="21.01" width="0.45" height="0.09" fill="none" stroke="#111" stroke-width="1.6"/><rect x="7.37" y="21.92" width="0.45" height="0.09" fill="none" stroke="#111" stroke-width="1.6"/><rect x="7.37" y="22.83" width="0.45" height="0.09" fill="none" stroke="#111" stroke-width="1.6"/><rect x="7.37" y="23.74" width="0.45" height="0.1" fill="none" stroke="#111" stroke-width="1.6"/><rect x="7.37" y="24.66" width="0.45" height="0.09" fill="none" stroke="#111" stroke-width="1.6"/><rect x="7.37" y="25.57" width="0.45" height="0.09" fill="none" stroke="#111" stroke-width="1.6"/><rect x="7.37" y="26.48" width="0.45" height="0.09" fill="none" stroke="#111" stroke-width="1.6"/><rect x="7.37" y="27.39" width="0.45" height="0.09" fill="none" stroke="#111" stroke-width="1.6"/><rect x="7.37" y="28.31" width="0.45" height="0.09" fill="none" stroke="#111" stroke-width="1.6"/><rect x="7.37" y="29.22" width="0.45" height="0.09" fill="none" stroke="#111" stroke-width="1.6"/><rect x="7.37" y="30.13" width="0.45" height="0.09" fill="none" stroke="#111" stroke-width="1.6"/><rect x="7.37" y="31.04" width="0.45" height="0.09" fill="none" stroke="#111" stroke-width="1.6"/><rect x="7.37" y="31.95" width="0.45" height="0.1" fill="none" stroke="#111" stroke-width="1.6"/><rect x="7.37" y="32.87" width="0.45" height="0.09" fill="none" stroke="#111" stroke-width="1.6"/><rect x="7.37" y="33.78" width="0.45" height="0.09" fill="none" stroke="#111" stroke-width="1.6"/><rect x="7.37" y="34.69" width="0.45" height="0.09" fill="none" stroke="#111" stroke-width="1.6"/><rect x="7.37" y="35.6" width="0.45" height="0.09" fill="none" stroke="#111" stroke-width="1.6"/><rect x="7.37" y="36.52" width="0.45" height="0.09" fill="none" stroke="#111" stroke-width="1.6"/><rect x="7.37" y="37.43" width="0.45" height="0.09" fill="none" stroke="#111" stroke-width="1.6"/><rect x="7.37" y="38.34" width="0.45" height="0.09" fill="none" stroke="#111" stroke-width="1.6"/><rect x="7.37" y="39.25" width="0.45" height="0.09" fill="none" stroke="#111" stroke-width="1.6"/><rect x="7.37" y="40.16" width="0.45" height="0.1" fill="none" stroke="#111" stroke-width="1.6"/><rect x="7.37" y="41.08" width="0.45" height="0.09" fill="none" stroke="#111" stroke-width="1.6"/><rect x="7.37" y="41.99" width="0.45" height="0.09" fill="none" stroke="#111" stroke-width="1.6"/><rect x="7.37" y="42.9" width="0.45" height="0.09" fill="none" stroke="#111" stroke-width="1.6"/><rect x="7.37" y="43.81" width="0.45" height="0.1" fill="none" stroke="#111" stroke-width="1.6"/><rect x="7.37" y="44.73" width="0.45" height="0.09" fill="none" stroke="#111" stroke-width="1.6"/><rect x="7.37" y="45.64" width="0.45" height="0.09" fill="none" stroke="#111" stroke-width="1.6"/><rect x="7.37" y="46.55" width="0.45" height="0.09" fill="none" stroke="#111" stroke-width="1.6"/><rect x="7.37" y="47.46" width="0.45" height="0.09" fill="none" stroke="#111" stroke-width="1.6"/><rect x="7.37" y="48.38" width="0.45" height="0.09" fill="none" stroke="#111" stroke-width="1.6"/><rect x="7.37" y="49.29" width="0.45" height="0.09" fill="none" stroke="#111" stroke-width="1.6"/><rect x="7.37" y="50.2" width="0.45" height="0.09" fill="none" stroke="#111" stroke-width="1.6"/><rect x="7.37" y="51.11" width="0.45" height="0.09" fill="none" stroke="#111" stroke-width="1.6"/><rect x="7.37" y="52.02" width="0.45" height="0.1" fill="none" stroke="#111" stroke-width="1.6"/><rect x="7.37" y="52.94" width="0.45" height="0.09" fill="none" stroke="#111" stroke-width="1.6"/><rect x="7.37" y="53.85" width="0.45" height="0.09" fill="none" stroke="#111" stroke-width="1.6"/><rect x="7.37" y="54.76" width="0.45" height="0.09" fill="none" stroke="#111" stroke-width="1.6"/><rect x="7.37" y="55.67" width="0.45" height="0.09" fill="none" stroke="#111" stroke-width="1.6"/><rect x="7.37" y="56.59" width="0.45" height="0.09" fill="none" stroke="#111" stroke-width="1.6"/><rect x="7.37" y="57.5" width="0.45" height="0.09" fill="none" stroke="#111" stroke-width="1.6"/></svg>