<svg xmlns="http://www.w3.org/2000/svg" width="96" height="64" viewBox="0 0 96 64"><rect x="6" y="6" width="2.89" height="52" fill="none" stroke="#111" stroke-width="1.6"/><rect x="6.14" y="6.14" width="2.6" height="51.72" fill="none" stroke="#111" stroke-width="1.6"/><rect x="6.14" y="6.65" width="0.73" height="0.14" fill="none" stroke="#111" stroke-width="1.6"/><rect x="6.14" y="8.09" width="0.73" height="0.15" fill="none" stroke="#111" stroke-width="1.6"/><rect x="6.14" y="9.54" width="0.73" height="0.14" fill="none" stroke="#111" stroke-width="1.6"/><rect x="6.14" y="10.98" width="0.73" height="0.15" fill="none" stroke="#111" stroke-width="1.6"/><rect x="6.14" y="12.43" width="0.73" height="0.14" fill="none" stroke="#111" stroke-width="1.6"/><rect x="6.14" y="13.87" width="0.73" height="0.15" fill="none" stroke="#111" stroke-width="1.6"/><rect x="6.14" y="15.32" width="0.73" height="0.14" fill="none" stroke="#111" stroke-width="1.6"/><rect x="6.14" y="16.76" width="0.73" height="0.15" fill="none" stroke="#111" stroke-width="1.6"/><rect x="6.14" y="18.21" width="0.73" height="0.14" fill="none" stroke="#111" stroke-width="1.6"/><rect x="6.14" y="19.65" width="0.73" height="0.14" fill="none" stroke="#111" stroke-width="1.6"/><rect x="6.14" y="21.09" width="0.73" height="0.15" fill="none" stroke="#111" stroke-width="1.6"/><rect x="6.14" y="22.54" width="0.73" height="0.14" fill="none" stroke="#111" stroke-width="1.6"/><rect x="6.14" y="23.98" width="0.73" height="0.15" fill="none" stroke="#111" stroke-width="1.6"/><rect x="6.14" y="25.43" width="0.73" height="0.14" fill="none" stroke="#111" stroke-width="1.6"/><rect x="6.14" y="26.87" width="0.73" height="0.15" fill="none" stroke="#111" stroke-width="1.6"/><rect x="6.14" y="28.32" width="0.73" height="0.14" fill="none" stroke="#111" stroke-width="1.6"/><rect x="6.14" y="29.76" width="0.73" height="0.15" fill="none" stroke="#111" stroke-width="1.6"/><rect x="6.14" y="31.21" width="0.73" height="0.14" fill="none" stroke="#111" stroke-width="1.6"/><rect x="6.14" y="32.65" width="0.73" height="0.14" fill="none" stroke="#111" stroke-width="1.6"/><rect x="6.14" y="34.09" width="0.73" height="0.15" fill="none" stroke="#111" stroke-width="1.6"/><rect x="6.14" y="35.54" width="0.73" height="0.14" fill="none" stroke="#111" stroke-width="1.6"/><rect x="6.14" y="36.98" width="0.73" height="0.15" fill="none" stroke="#111" stroke-width="1.6"/><rect x="6.14" y="38.43" width="0.73" height="0.14" fill="none" stroke="#111" stroke-width="1.6"/><rect x="6.14" y="39.87" width="0.73" height="0.15" fill="none" stroke="#111" stroke-width="1.6"/><rect x="6.14" y="41.32" width="0.73" height="0.14" fill="none" stroke="#111" stroke-width="1.6"/><rect x="6.14" y="42.76" width="0.73" height="0.15" fill="none" stroke="#111" stroke-width="1.6"/><rect x="6.14" y="44.21" width="0.73" height="0.14" fill="none" stroke="#111" stroke-width="1.6"/><rect x="6.14" y="45.65" width="0.73" height="0.14" fill="none" stroke="#111" stroke-width="1.6"/><rect x="6.14" y="47.09" width="0.73" height="0.15" fill="none" stroke="#111" stroke-width="1.6"/><rect x="6.14" y="48.54" width="0.73" height="0.14" fill="none" stroke="#111" stroke-width="1.6"/><rect x="6.14" y="49.98" width="0.73" height="0.15" fill="none" stroke="#111" stroke-width="1.6"/><rect x="6.14" y="51.43" width="0.73" height="0.14" fill="none" stroke="#111" stroke-width="1.6"/><rect x="6.14" y="52.87" width="0.73" height="0.15" fill="none" stroke="#111" stroke-width="1.6"/><rect x="6.14" y="54.32" width="0.73" height="0.14" fill="none" stroke="#111" stroke-width="1.6"/><rect x="6.14" y="55.76" width="0.73" height="0.15" fill="none" stroke="#111" stroke-width="1.6"/><rect x="6.14" y="57.21" width="0.73" height="0.14" fill="none" stroke="#111" stroke-width="1.6"/><rect x="8.02" y="6.65" width="0.72" height="0.14" fill="none" stroke="#111" stroke-width="1.6"/><rect x="8.02" y="8.09" width="0.72" height="0.15" fill="none" stroke="#111" stroke-width="1.6"/><rect x="8.02" y="9.54" width="0.72" height="0.14" fill="none" stroke="#111" stroke-width="1.6"/><rect x="8.02" y="10.98" width="0.72" height="0.15" fill="none" stroke="#111" stroke-width="1.6"/><rect x="8.02" y="12.43" width="0.72" height="0.14" fill="none" stroke="#111" stroke-width="1.6"/><rect x="8.02" y="13.87" width="0.72" height="0.15" fill="none" stroke="#111" stroke-width="1.6"/><rect x="8.02" y="15.32" width="0.72" height="0.14" fill="none" stroke="#111" stroke-width="1.6"/><rect x="8.02" y="16.76" width="0.72" height="0.15" fill="none" stroke="#111" stroke-width="1.6"/><rect x="8.02" y="18.21" width="0.72" height="0.14" fill="none" stroke="#111" stroke-width="1.6"/><rect x="8.02" y="19.65" width="0.72" height="0.14" fill="none" stroke="#111" stroke-width="1.6"/><rect x="8.02" y="21.09" width="0.72" height="0.15" fill="none" stroke="#111" stroke-width="1.6"/><rect x="8.02" y="22.54" width="0.72" height="0.14" fill="none" stroke="#111" stroke-width="1.6"/><rect x="8.02" y="23.98" width="0.72" height="0.15" fill="none" stroke="#111" stroke-width="1.6"/><rect x="8.02" y="25.43" width="0.72" height="0.14" fill="none" stroke="#111" stroke-width="1.6"/><rect x="8.02" y="26.87" width="0.72" height="0.15" fill="none" stroke="#111" stroke-width="1.6"/><rect x="8.02" y="28.32" width="0.72" height="0.14" fill="none" stroke="#111" stroke-width="1.6"/><rect x="8.02" y="29.76" width="0.72" height="0.15" fill="none" stroke="#111" stroke-width="1.6"/><rect x="8.02" y="31.21" width="0.72" height="0.14" fill="none" stroke="#111" stroke-width="1.6"/><rect x="8.02" y="32.65" width="0.72" height="0.14" fill="none" stroke="#111" stroke-width="1.6"/><rect x="8.02" y="34.09" width="0.72" height="0.15" fill="none" stroke="#111" stroke-width="1.6"/><rect x="8.02" y="35.54" width="0.72" height="0.14" fill="none" stroke="#111" stroke-width="1.6"/><rect x="8.02" y="36.98" width="0.72" height="0.15" fill="none" stroke="#111" stroke-width="1.6"/><rect x="8.02" y="38.43" width="0.72" height="0.14" fill="none" stroke="#111" stroke-width="1.6"/><rect x="8.02" y="39.87" width="0.72" height="0.15" fill="none" stroke="#111" stroke-width="1.6"/><rect x="8.02" y="41.32" width="0.72" height="0.14" fill="none" stroke="#111" stroke-width="1.6"/><rect x="8.02" y="42.76" width="0.72" height="0.15" fill="none" stroke="#111" stroke-width="1.6"/><rect x="8.02" y="44.21" width="0.72" height="0.14" fill="none" stroke="#111" stroke-width="1.6"/><rect x="8.02" y="45.65" width="0.72" height="0.14" fill="none" stroke="#111" stroke-width="1.6"/><rect x="8.02" y="47.09" width="0.72" height="0.15" fill="none" stroke="#111" stroke-width="1.6"/><rect x="8.02" y="48.54" width="0.72" height="0.14" fill="none" stroke="#111" stroke-width="1.6"/><rect x="8.02" y="49.98" width="0.72" height="0.15" fill="none" stroke="#111" stroke-width="1.6"/><rect x="8.02" y="51.43" width="0.72" height="0.14" fill="none" stroke="#111" stroke-width="1.6"/><rect x="8.02" y="52.87" width="0.72" height="0.15" fill="none" stroke="#111" stroke-width="1.6"/><rect x="8.02" y="54.32" width="0.72" height="0.14" fill="none" stroke="#111" stroke-width="1.6"/><rect x="8.02" y="55.76" width="0.72" height="0.15" fill="none" stroke="#111" stroke-width="1.6"/><rect x="8.02" y="57.21" width="0.72" height="0.14" fill="none" stroke="#111" stroke-width="1.6"/></svg>