<svg xmlns="http://www.w3.org/2000/svg" width="96" height="64" viewBox="0 0 96 64"><rect x="6" y="6" width="0.41" height="0.12" fill="none" stroke="#111" stroke-width="1.6"/><rect x="6" y="7.21" width="0.41" height="0.12" fill="none" stroke="#111" stroke-width="1.6"/><rect x="6" y="8.41" width="0.41" height="0.12" fill="none" stroke="#111" stroke-width="1.6"/><rect x="6" y="9.62" width="0.41" height="0.12" fill="none" stroke="#111" stroke-width="1.6"/><rect x="6" y="10.83" width="0.41" height="0.12" fill="none" stroke="#111" stroke-width="1.6"/><rect x="6" y="12.03" width="0.41" height="0.12" fill="none" stroke="#111" stroke-width="1.6"/><rect x="6" y="13.24" width="0.41" height="0.12" fill="none" stroke="#111" stroke-width="1.6"/><rect x="6" y="14.45" width="0.41" height="0.12" fill="none" stroke="#111" stroke-width="1.6"/><rect x="6" y="15.65" width="0.41" height="0.12" fill="none" stroke="#111" stroke-width="1.6"/><rect x="6" y="16.86" width="0.41" height="0.12" fill="none" stroke="#111" stroke-width="1.6"/><rect x="6" y="18.06" width="0.41" height="0.13" fill="none" stroke="#111" stroke-width="1.6"/><rect x="6" y="19.27" width="0.41" height="0.12" fill="none" stroke="#111" stroke-width="1.6"/><rect x="6" y="20.48" width="0.41" height="0.12" fill="none" stroke="#111" stroke-width="1.6"/><rect x="6" y="21.68" width="0.41" height="0.13" fill="none" stroke="#111" stroke-width="1.6"/><rect x="6" y="22.89" width="0.41" height="0.12" fill="none" stroke="#111" stroke-width="1.6"/><rect x="6" y="24.1" width="0.41" height="0.12" fill="none" stroke="#111" stroke-width="1.6"/><rect x="6" y="25.3" width="0.41" height="0.12" fill="none" stroke="#111" stroke-width="1.6"/><rect x="6" y="26.51" width="0.41" height="0.12" fill="none" stroke="#111" stroke-width="1.6"/><rect x="6" y="27.72" width="0.41" height="0.12" fill="none" stroke="#111" stroke-width="1.6"/><rect x="6" y="28.92" width="0.41" height="0.12" fill="none" stroke="#111" stroke-width="1.6"/><rect x="6" y="30.13" width="0.41" height="0.12" fill="none" stroke="#111" stroke-width="1.6"/><rect x="6" y="31.34" width="0.41" height="0.12" fill="none" stroke="#111" stroke-width="1.6"/><rect x="6" y="32.54" width="0.41" height="0.12" fill="none" stroke="#111" stroke-width="1.6"/><rect x="6" y="33.75" width="0.41" height="0.12" fill="none" stroke="#111" stroke-width="1.6"/><rect x="6" y="34.96" width="0.41" height="0.12" fill="none" stroke="#111" stroke-width="1.6"/><rect x="6" y="36.16" width="0.41" height="0.12" fill="none" stroke="#111" stroke-width="1.6"/><rect x="6" y="37.37" width="0.41" height="0.12" fill="none" stroke="#111" stroke-width="1.6"/><rect x="6" y="38.58" width="0.41" height="0.12" fill="none" stroke="#111" stroke-width="1.6"/><rect x="6" y="39.78" width="0.41" height="0.12" fill="none" stroke="#111" stroke-width="1.6"/><rect x="6" y="40.99" width="0.41" height="0.12" fill="none" stroke="#111" stroke-width="1.6"/><rect x="6" y="42.19" width="0.41" height="0.13" fill="none" stroke="#111" stroke-width="1.6"/><rect x="6" y="43.4" width="0.41" height="0.12" fill="none" stroke="#111" stroke-width="1.6"/><rect x="6" y="44.61" width="0.41" height="0.12" fill="none" stroke="#111" stroke-width="1.6"/><rect x="6" y="45.81" width="0.41" height="0.13" fill="none" stroke="#111" stroke-width="1.6"/><rect x="6" y="47.02" width="0.41" height="0.12" fill="none" stroke="#111" stroke-width="1.6"/><rect x="6" y="48.23" width="0.41" height="0.12" fill="none" stroke="#111" stroke-width="1.6"/><rect x="6" y="49.43" width="0.41" height="0.12" fill="none" stroke="#111" stroke-width="1.6"/><rect x="6" y="50.64" width="0.41" height="0.12" fill="none" stroke="#111" stroke-width="1.6"/><rect x="6" y="51.85" width="0.41" height="0.12" fill="none" stroke="#111" stroke-width="1.6"/><rect x="6" y="53.05" width="0.41" height="0.12" fill="none" stroke="#111" stroke-width="1.6"/><rect x="6" y="54.26" width="0.41" height="0.12" fill="none" stroke="#111" stroke-width="1.6"/><rect x="6" y="55.47" width="0.41" height="0.12" fill="none" stroke="#111" stroke-width="1.6"/><rect x="6" y="56.67" width="0.41" height="0.12" fill="none" stroke="#111" stroke-width="1.6"/><rect x="6" y="57.88" width="0.41" height="0.12" fill="none" stroke="#111" stroke-width="1.6"/><polyline points="6.6,6.06 6.41,6.06" fill="none" stroke="#111" stroke-width="1.6" stroke-linecap="round" stroke-linejoin="round"/><polyline points="6.6,7.27 6.41,7.27" fill="none" stroke="#111" stroke-width="1.6" stroke-linecap="round" stroke-linejoin="round"/><polyline points="6.6,8.47 6.41,8.47" fill="none" stroke="#111" stroke-width="1.6" stroke-linecap="round" stroke-linejoin="round"/><polyline points="6.6,9.68 6.41,9.68" fill="none" stroke="#111" stroke-width="1.6" stroke-linecap="round" stroke-linejoin="round"/><polyline points="6.6,10.89 6.41,10.89" fill="none" stroke="#111" stroke-width="1.6" stroke-linecap="round" stroke-linejoin="round"/><polyline points="6.6,12.09 6.41,12.09" fill="none" stroke="#111" stroke-width="1.6" stroke-linecap="round" stroke-linejoin="round"/><polyline points="6.6,13.3 6.41,13.3" fill="none" stroke="#111" stroke-width="1.6" stroke-linecap="round" stroke-linejoin="round"/><polyline points="6.6,14.51 6.41,14.51" fill="none" stroke="#111" stroke-width="1.6" stroke-linecap="round" stroke-linejoin="round"/><polyline points="6.6,15.71 6.41,15.71" fill="none" stroke="#111" stroke-width="1.6" stroke-linecap="round" stroke-linejoin="round"/><polyline points="6.6,16.92 6.41,16.92" fill="none" stroke="#111" stroke-width="1.6" stroke-linecap="round" stroke-linejoin="round"/><polyline points="6.6,18.13 6.41,18.13" fill="none" stroke="#111" stroke-width="1.6" stroke-linecap="round" stroke-linejoin="round"/><polyline points="6.6,19.33 6.41,19.33" fill="none" stroke="#111" stroke-width="1.6" stroke-linecap="round" stroke-linejoin="round"/><polyline points="6.6,20.54 6.41,20.54" fill="none" stroke="#111" stroke-width="1.6" stroke-linecap="round" stroke-linejoin="round"/><polyline points="6.6,21.74 6.41,21.74" fill="none" stroke="#111" stroke-width="1.6" stroke-linecap="round" stroke-linejoin="round"/><polyline points="6.6,22.95 6.41,22.95" fill="none" stroke="#111" stroke-width="1.6" stroke-linecap="round" stroke-linejoin="round"/><polyline points="6.6,24.16 6.41,24.16" fill="none" stroke="#111" stroke-width="1.6" stroke-linecap="round" stroke-linejoin="round"/><polyline points="6.6,25.36 6.41,25.36" fill="none" stroke="#111" stroke-width="1.6" stroke-linecap="round" stroke-linejoin="round"/><polyline points="6.6,26.57 6.41,26.57" fill="none" stroke="#111" stroke-width="1.6" stroke-linecap="round" stroke-linejoin="round"/><polyline points="6.6,27.78 6.41,27.78" fill="none" stroke="#111" stroke-width="1.6" stroke-linecap="round" stroke-linejoin="round"/><polyline points="6.6,28.98 6.41,28.98" fill="none" stroke="#111" stroke-width="1.6" stroke-linecap="round" stroke-linejoin="round"/><polyline points="6.6,30.19 6.41,30.19" fill="none" stroke="#111" stroke-width="1.6" stroke-linecap="round" stroke-linejoin="round"/><polyline points="6.6,31.4 6.41,31.4" fill="none" stroke="#111" stroke-width="1.6" stroke-linecap="round" stroke-linejoin="round"/><polyline points="6.6,32.6 6.41,32.6" fill="none" stroke="#111" stroke-width="1.6" stroke-linecap="round" stroke-linejoin="round"/><polyline points="6.6,33.81 6.41,33.81" fill="none" stroke="#111" stroke-width="1.6" stroke-linecap="round" stroke-linejoin="round"/><polyline points="6.6,35.02 6.41,35.02" fill="none" stroke="#111" stroke-width="1.6" stroke-linecap="round" stroke-linejoin="round"/><polyline points="6.6,36.22 6.41,36.22" fill="none" stroke="#111" stroke-width="1.6" stroke-linecap="round" stroke-linejoin="round"/><polyline points="6.6,37.43 6.41,37.43" fill="none" stroke="#111" stroke-width="1.6" stroke-linecap="round" stroke-linejoin="round"/><polyline points="6.6,38.64 6.41,38.64" fill="none" stroke="#111" stroke-width="1.6" stroke-linecap="round" stroke-linejoin="round"/><polyline points="6.6,39.84 6.41,39.84" fill="none" stroke="#111" stroke-width="1.6" stroke-linecap="round" stroke-linejoin="round"/><polyline points="6.6,41.05 6.41,41.05" fill="none" stroke="#111" stroke-width="1.6" stroke-linecap="round" stroke-linejoin="round"/><polyline points="6.6,42.26 6.41,42.26" fill="none" stroke="#111" stroke-width="1.6" stroke-linecap="round" stroke-linejoin="round"/><polyline points="6.6,43.46 6.41,43.46" fill="none" stroke="#111" stroke-width="1.6" stroke-linecap="round" stroke-linejoin="round"/><polyline points="6.6,44.67 6.41,44.67" fill="none" stroke="#111" stroke-width="1.6" stroke-linecap="round" stroke-linejoin="round"/><polyline points="6.6,45.87 6.41,45.87" fill="none" stroke="#111" stroke-width="1.6" stroke-linecap="round" stroke-linejoin="round"/><polyline points="6.6,47.08 6.41,47.08" fill="none" stroke="#111" stroke-width="1.6" stroke-linecap="round" stroke-linejoin="round"/><polyline points="6.6,48.29 6.41,48.29" fill="none" stroke="#111" stroke-width="1.6" stroke-linecap="round" stroke-linejoin="round"/><polyline points="6.6,49.49 6.41,49.49" fill="none" stroke="#111" stroke-width="1.6" stroke-linecap="round" stroke-linejoin="round"/><polyline points="6.6,50.7 6.41,50.7" fill="none" stroke="#111" stroke-width="1.6" stroke-linecap="round" stroke-linejoin="round"/><polyline points="6.6,51.91 6.41,51.91" fill="none" stroke="#111" stroke-width="1.6" stroke-linecap="round" stroke-linejoin="round"/><polyline points="6.6,53.11 6.41,53.11" fill="none" stroke="#111" stroke-width="1.6" stroke-linecap="round" stroke-linejoin="round"/><polyline points="6.6,54.32 6.41,54.32" fill="none" stroke="#111" stroke-width="1.6" stroke-linecap="round" stroke-linejoin="round"/><polyline points="6.6,55.53 6.41,55.53" fill="none" stroke="#111" stroke-width="1.6" stroke-linecap="round" stroke-linejoin="round"/><polyline points="6.6,56.73 6.41,56.73" fill="none" stroke="#111" stroke-width="1.6" stroke-linecap="round" stroke-linejoin="round"/><polyline points="6.6,57.94 6.41,57.94" fill="none" stroke="#111" stroke-width="1.6" stroke-linecap="round" stroke-linejoin="round"/></svg>