<svg xmlns="http://www.w3.org/2000/svg" width="96" height="64" viewBox="0 0 96 64"><polyline points="6,7 7.5,7" fill="none" stroke="#111" stroke-width="1.6" stroke-linecap="round" stroke-linejoin="round"/><polyline points="6,12 7.5,12" fill="none" stroke="#111" stroke-width="1.6" stroke-linecap="round" stroke-linejoin="round"/><polyline points="6,17 7.5,17" fill="none" stroke="#111" stroke-width="1.6" stroke-linecap="round" stroke-linejoin="round"/><polyline points="6,22 7.5,22" fill="none" stroke="#111" stroke-width="1.6" stroke-linecap="round" stroke-linejoin="round"/><polyline points="6,27 7.5,27" fill="none" stroke="#111" stroke-width="1.6" stroke-linecap="round" stroke-linejoin="round"/><polyline points="6,32 7.5,32" fill="none" stroke="#111" stroke-width="1.6" stroke-linecap="round" stroke-linejoin="round"/><polyline points="6,37 7.5,37" fill="none" stroke="#111" stroke-width="1.6" stroke-linecap="round" stroke-linejoin="round"/><polyline points="6,42 7.5,42" fill="none" stroke="#111" stroke-width="1.6" stroke-linecap="round" stroke-linejoin="round"/><polyline points="6,47 7.5,47" fill="none" stroke="#111" stroke-width="1.6" stroke-linecap="round" stroke-linejoin="round"/><polyline points="6,52 7.5,52" fill="none" stroke="#111" stroke-width="1.6" stroke-linecap="round" stroke-linejoin="round"/><polyline points="6,57 7.5,57" fill="none" stroke="#111" stroke-width="1.6" stroke-linecap="round" stroke-linejoin="round"/><path d="M 8.5 8 Q 7.5 7 8.5 6" fill="none" stroke="#111" stroke-width="1.6" stroke-linecap="round"/><path d="M 8.5 13 Q 7.5 12 8.5 11" fill="none" stroke="#111" stroke-width="1.6" stroke-linecap="round"/><path d="M 8.5 18 Q 7.5 17 8.5 16" fill="none" stroke="#111" stroke-width="1.6" stroke-linecap="round"/><path d="M 8.5 23 Q 7.5 22 8.5 21" fill="none" stroke="#111" stroke-width="1.6" stroke-linecap="round"/><path d="M 8.5 28 Q 7.5 27 8.5 26" fill="none" stroke="#111" stroke-width="1.6" stroke-linecap="round"/><path d="M 8.5 33 Q 7.5 32 8.5 31" fill="none" stroke="#111" stroke-width="1.6" stroke-linecap="round"/><path d="M 8.5 38 Q 7.5 37 8.5 36" fill="none" stroke="#111" stroke-width="1.6" stroke-linecap="round"/><path d="M 8.5 43 Q 7.5 42 8.5 41" fill="none" stroke="#111" stroke-width="1.6" stroke-linecap="round"/><path d="M 8.5 48 Q 7.5 47 8.5 46" fill="none" stroke="#111" stroke-width="1.6" stroke-linecap="round"/><path d="M 8.5 53 Q 7.5 52 8.5 51" fill="none" stroke="#111" stroke-width="1.6" stroke-linecap="round"/><path d="M 8.5 58 Q 7.5 57 8.5 56" fill="none" stroke="#111" stroke-width="1.6" stroke-linecap="round"/></svg>