<svg xmlns="http://www.w3.org/2000/svg" width="96" height="64" viewBox="0 0 96 64"><rect x="6" y="6" width="2.06" height="51.38" fill="none" stroke="#111" stroke-width="1.6"/><rect x="6" y="6.92" width="1.03" height="0.21" fill="none" stroke="#111" stroke-width="1.6"/><rect x="6" y="8.98" width="1.03" height="0.21" fill="none" stroke="#111" stroke-width="1.6"/><rect x="6" y="11.04" width="1.03" height="0.2" fill="none" stroke="#111" stroke-width="1.6"/><rect x="6" y="13.09" width="1.03" height="0.21" fill="none" stroke="#111" stroke-width="1.6"/><rect x="6" y="15.15" width="1.03" height="0.2" fill="none" stroke="#111" stroke-width="1.6"/><rect x="6" y="17.2" width="1.03" height="0.21" fill="none" stroke="#111" stroke-width="1.6"/><rect x="6" y="19.26" width="1.03" height="0.2" fill="none" stroke="#111" stroke-width="1.6"/><rect x="6" y="21.31" width="1.03" height="0.21" fill="none" stroke="#111" stroke-width="1.6"/><rect x="6" y="23.37" width="1.03" height="0.2" fill="none" stroke="#111" stroke-width="1.6"/><rect x="6" y="25.42" width="1.03" height="0.21" fill="none" stroke="#111" stroke-width="1.6"/><rect x="6" y="27.48" width="1.03" height="0.2" fill="none" stroke="#111" stroke-width="1.6"/><rect x="6" y="29.53" width="1.03" height="0.21" fill="none" stroke="#111" stroke-width="1.6"/><rect x="6" y="31.59" width="1.03" height="0.2" fill="none" stroke="#111" stroke-width="1.6"/><rect x="6" y="33.64" width="1.03" height="0.21" fill="none" stroke="#111" stroke-width="1.6"/><rect x="6" y="35.7" width="1.03" height="0.21" fill="none" stroke="#111" stroke-width="1.6"/><rect x="6" y="37.75" width="1.03" height="0.21" fill="none" stroke="#111" stroke-width="1.6"/><rect x="6" y="39.81" width="1.03" height="0.21" fill="none" stroke="#111" stroke-width="1.6"/><rect x="6" y="41.87" width="1.03" height="0.2" fill="none" stroke="#111" stroke-width="1.6"/><rect x="6" y="43.92" width="1.03" height="0.21" fill="none" stroke="#111" stroke-width="1.6"/><rect x="6" y="45.98" width="1.03" height="0.2" fill="none" stroke="#111" stroke-width="1.6"/><rect x="6" y="48.03" width="1.03" height="0.21" fill="none" stroke="#111" stroke-width="1.6"/><rect x="6" y="50.09" width="1.03" height="0.2" fill="none" stroke="#111" stroke-width="1.6"/><rect x="6" y="52.14" width="1.03" height="0.21" fill="none" stroke="#111" stroke-width="1.6"/><rect x="6" y="54.2" width="1.03" height="0.2" fill="none" stroke="#111" stroke-width="1.6"/><rect x="6" y="56.25" width="1.03" height="0.21" fill="none" stroke="#111" stroke-width="1.6"/><polyline points="6.21,58 7.85,58" fill="none" stroke="#111" stroke-width="1.6" stroke-linecap="round" stroke-linejoin="round"/></svg>