<svg xmlns="http://www.w3.org/2000/svg" width="96" height="64" viewBox="0 0 96 64"><polyline points="36.33,36.77 36.33,34.17 36.33,32" fill="none" stroke="#111" stroke-width="1.6" stroke-linecap="round" stroke-linejoin="round"/><polyline points="36.33,51.93 12.93,51.93 12.93,32 18.13,32" fill="none" stroke="#111" stroke-width="1.6" stroke-linecap="round" stroke-linejoin="round"/><polyline points="49.33,32 49.33,19 66.67,19" fill="none" stroke="#111" stroke-width="1.6" stroke-linecap="round" stroke-linejoin="round"/><polyline points="66.67,22.9 66.67,6" fill="none" stroke="#111" stroke-width="1.6" stroke-linecap="round" stroke-linejoin="round"/><polyline points="66.67,41.1 66.67,58" fill="none" stroke="#111" stroke-width="1.6" stroke-linecap="round" stroke-linejoin="round"/><polyline points="66.67,51.93 36.33,51.93 36.33,47.6" fill="none" stroke="#111" stroke-width="1.6" stroke-linecap="round" stroke-linejoin="round"/><polyline points="12.93,32 6,32" fill="none" stroke="#111" stroke-width="1.6" stroke-linecap="round" stroke-linejoin="round"/><rect x="23.33" y="36.77" width="26" height="10.83" fill="none" stroke="#111" stroke-width="1.6"/><polyline points="66.67,45.43 49.33,45.43" fill="none" stroke="#111" stroke-width="1.6" stroke-linecap="round" stroke-linejoin="round"/><rect x="6" y="6" width="69.33" height="52" fill="none" stroke="#111" stroke-width="1.6"/><polyline points="11.2,40.23 11.63,40.67 14.23,40.67 14.67,41.1" fill="none" stroke="#111" stroke-width="1.6" stroke-linecap="round" stroke-linejoin="round"/><circle cx="12.93" cy="32" r="0.95" fill="none" stroke="#111" stroke-width="1.6"/><polyline points="12.93,40.67 11.63,42.83 14.23,42.83 12.93,40.67" fill="none" stroke="#111" stroke-width="1.6" stroke-linecap="round" stroke-linejoin="round"/><rect x="18.13" y="23.33" width="12.57" height="11.27" fill="none" stroke="#111" stroke-width="1.6"/><circle cx="36.33" cy="32" r="0.95" fill="none" stroke="#111" stroke-width="1.6"/><circle cx="36.33" cy="51.93" r="0.95" fill="none" stroke="#111" stroke-width="1.6"/><polyline points="47.6,21.17 48.03,21.6 50.63,21.6 51.07,22.03" fill="none" stroke="#111" stroke-width="1.6" stroke-linecap="round" stroke-linejoin="round"/><polyline points="49.33,21.6 48.03,23.77 50.63,23.77 49.33,21.6" fill="none" stroke="#111" stroke-width="1.6" stroke-linecap="round" stroke-linejoin="round"/><polyline points="49.33,28.53 50.63,26.37 48.03,26.37 49.33,28.53" fill="none" stroke="#111" stroke-width="1.6" stroke-linecap="round" stroke-linejoin="round"/><polyline points="49.33,32 30.7,32" fill="none" stroke="#111" stroke-width="1.6" stroke-linecap="round" stroke-linejoin="round"/><polyline points="49.33,32 58.87,32" fill="none" stroke="#111" stroke-width="1.6" stroke-linecap="round" stroke-linejoin="round"/><circle cx="49.33" cy="32" r="0.95" fill="none" stroke="#111" stroke-width="1.6"/><polyline points="50.63,28.53 48.03,28.53" fill="none" stroke="#111" stroke-width="1.6" stroke-linecap="round" stroke-linejoin="round"/><polyline points="58.87,25.5 58.87,38.5" fill="none" stroke="#111" stroke-width="1.6" stroke-linecap="round" stroke-linejoin="round"/><polyline points="60.6,24.2 60.6,27.67" fill="none" stroke="#111" stroke-width="1.6" stroke-linecap="round" stroke-linejoin="round"/><polyline points="60.6,25.93 66.67,25.93" fill="none" stroke="#111" stroke-width="1.6" stroke-linecap="round" stroke-linejoin="round"/><polyline points="60.6,30.27 60.6,33.73" fill="none" stroke="#111" stroke-width="1.6" stroke-linecap="round" stroke-linejoin="round"/><polyline points="60.6,32 66.67,32" fill="none" stroke="#111" stroke-width="1.6" stroke-linecap="round" stroke-linejoin="round"/><polyline points="60.6,36.33 60.6,39.8" fill="none" stroke="#111" stroke-width="1.6" stroke-linecap="round" stroke-linejoin="round"/><polyline points="60.6,38.07 66.67,38.07" fill="none" stroke="#111" stroke-width="1.6" stroke-linecap="round" stroke-linejoin="round"/><polyline points="61.47,32 64.93,30.7 64.93,33.3 61.47,32" fill="none" stroke="#111" stroke-width="1.6" stroke-linecap="round" stroke-linejoin="round"/><circle cx="63.63" cy="32" r="9.62" fill="none" stroke="#111" stroke-width="1.6"/><circle cx="66.67" cy="19" r="0.95" fill="none" stroke="#111" stroke-width="1.6"/><polyline points="66.67,23.33 66.67,25.93" fill="none" stroke="#111" stroke-width="1.6" stroke-linecap="round" stroke-linejoin="round"/><circle cx="66.67" cy="25.93" r="0.95" fill="none" stroke="#111" stroke-width="1.6"/><polyline points="66.67,38.07 66.67,32" fill="none" stroke="#111" stroke-width="1.6" stroke-linecap="round" stroke-linejoin="round"/><polyline points="66.67,38.07 66.67,40.67" fill="none" stroke="#111" stroke-width="1.6" stroke-linecap="round" stroke-linejoin="round"/><polyline points="66.67,38.07 69.27,38.07 69.27,25.93 66.67,25.93" fill="none" stroke="#111" stroke-width="1.6" stroke-linecap="round" stroke-linejoin="round"/><circle cx="66.67" cy="38.07" r="0.95" fill="none" stroke="#111" stroke-width="1.6"/><circle cx="66.67" cy="45.43" r="0.95" fill="none" stroke="#111" stroke-width="1.6"/><circle cx="66.67" cy="51.93" r="0.95" fill="none" stroke="#111" stroke-width="1.6"/><polyline points="67.97,30.7 70.57,30.7" fill="none" stroke="#111" stroke-width="1.6" stroke-linecap="round" stroke-linejoin="round"/><polyline points="69.27,30.7 67.97,32.87 70.57,32.87 69.27,30.7" fill="none" stroke="#111" stroke-width="1.6" stroke-linecap="round" stroke-linejoin="round"/></svg>