<svg xmlns="http://www.w3.org/2000/svg" width="96" height="64" viewBox="0 0 96 64"><rect x="6" y="6" width="13.68" height="52" fill="none" stroke="#111" stroke-width="1.6"/><polyline points="14.48,11.2 14.48,12.84 16.13,12.02 14.48,11.2 14.48,11.2" fill="none" stroke="#111" stroke-width="1.6" stroke-linecap="round" stroke-linejoin="round"/><polyline points="17.49,23.24 18.32,24.06 17.77,24.61 18.32,24.61 16.67,24.61 17.22,24.61 16.67,24.06 17.49,23.24 17.49,23.24" fill="none" stroke="#111" stroke-width="1.6" stroke-linecap="round" stroke-linejoin="round"/><polyline points="18.04,48.42 18.86,49.24 18.32,49.79 18.86,49.79 17.22,49.79 17.77,49.79 17.22,49.24 18.04,48.42 18.04,48.42" fill="none" stroke="#111" stroke-width="1.6" stroke-linecap="round" stroke-linejoin="round"/><polyline points="9.56,11.75 10.11,12.29 10.11,32.55 9.56,33.09 9.56,33.09" fill="none" stroke="#111" stroke-width="1.6" stroke-linecap="round" stroke-linejoin="round"/><polyline points="9.56,36.38 10.11,36.93 10.11,57.18 9.56,57.73 9.56,57.73" fill="none" stroke="#111" stroke-width="1.6" stroke-linecap="round" stroke-linejoin="round"/></svg>