<svg xmlns="http://www.w3.org/2000/svg" width="96" height="64" viewBox="0 0 96 64"><polyline points="6,7.68 6.67,7.68" fill="none" stroke="#111" stroke-width="1.6" stroke-linecap="round" stroke-linejoin="round"/><polyline points="6,9.02 8.28,9.02" fill="none" stroke="#111" stroke-width="1.6" stroke-linecap="round" stroke-linejoin="round"/><polyline points="6,10.36 6.67,10.36" fill="none" stroke="#111" stroke-width="1.6" stroke-linecap="round" stroke-linejoin="round"/><polyline points="6,11.7 8.28,11.7" fill="none" stroke="#111" stroke-width="1.6" stroke-linecap="round" stroke-linejoin="round"/><polyline points="6,13.05 6.67,13.05" fill="none" stroke="#111" stroke-width="1.6" stroke-linecap="round" stroke-linejoin="round"/><polyline points="6,14.39 8.28,14.39" fill="none" stroke="#111" stroke-width="1.6" stroke-linecap="round" stroke-linejoin="round"/><polyline points="6,15.73 6.67,15.73" fill="none" stroke="#111" stroke-width="1.6" stroke-linecap="round" stroke-linejoin="round"/><polyline points="6,17.07 8.28,17.07" fill="none" stroke="#111" stroke-width="1.6" stroke-linecap="round" stroke-linejoin="round"/><polyline points="6,18.41 6.67,18.41" fill="none" stroke="#111" stroke-width="1.6" stroke-linecap="round" stroke-linejoin="round"/><polyline points="6,19.75 8.28,19.75" fill="none" stroke="#111" stroke-width="1.6" stroke-linecap="round" stroke-linejoin="round"/><polyline points="6,21.1 6.67,21.1" fill="none" stroke="#111" stroke-width="1.6" stroke-linecap="round" stroke-linejoin="round"/><polyline points="6,22.44 8.28,22.44" fill="none" stroke="#111" stroke-width="1.6" stroke-linecap="round" stroke-linejoin="round"/><polyline points="6,23.78 6.67,23.78" fill="none" stroke="#111" stroke-width="1.6" stroke-linecap="round" stroke-linejoin="round"/><polyline points="6,25.12 8.28,25.12" fill="none" stroke="#111" stroke-width="1.6" stroke-linecap="round" stroke-linejoin="round"/><polyline points="6,26.46 6.67,26.46" fill="none" stroke="#111" stroke-width="1.6" stroke-linecap="round" stroke-linejoin="round"/><polyline points="6,27.81 8.28,27.81" fill="none" stroke="#111" stroke-width="1.6" stroke-linecap="round" stroke-linejoin="round"/><polyline points="6,29.15 6.67,29.15" fill="none" stroke="#111" stroke-width="1.6" stroke-linecap="round" stroke-linejoin="round"/><polyline points="6,30.49 8.28,30.49" fill="none" stroke="#111" stroke-width="1.6" stroke-linecap="round" stroke-linejoin="round"/><polyline points="6,31.83 6.67,31.83" fill="none" stroke="#111" stroke-width="1.6" stroke-linecap="round" stroke-linejoin="round"/><polyline points="6,33.17 8.28,33.17" fill="none" stroke="#111" stroke-width="1.6" stroke-linecap="round" stroke-linejoin="round"/><polyline points="6,34.52 6.67,34.52" fill="none" stroke="#111" stroke-width="1.6" stroke-linecap="round" stroke-linejoin="round"/><polyline points="6,35.86 8.28,35.86" fill="none" stroke="#111" stroke-width="1.6" stroke-linecap="round" stroke-linejoin="round"/><polyline points="6,37.2 6.67,37.2" fill="none" stroke="#111" stroke-width="1.6" stroke-linecap="round" stroke-linejoin="round"/><polyline points="6,38.54 8.28,38.54" fill="none" stroke="#111" stroke-width="1.6" stroke-linecap="round" stroke-linejoin="round"/><polyline points="6,39.88 6.67,39.88" fill="none" stroke="#111" stroke-width="1.6" stroke-linecap="round" stroke-linejoin="round"/><polyline points="6,41.23 8.28,41.23" fill="none" stroke="#111" stroke-width="1.6" stroke-linecap="round" stroke-linejoin="round"/><polyline points="6,42.57 6.67,42.57" fill="none" stroke="#111" stroke-width="1.6" stroke-linecap="round" stroke-linejoin="round"/><polyline points="6,43.91 8.28,43.91" fill="none" stroke="#111" stroke-width="1.6" stroke-linecap="round" stroke-linejoin="round"/><polyline points="6,45.25 6.67,45.25" fill="none" stroke="#111" stroke-width="1.6" stroke-linecap="round" stroke-linejoin="round"/><polyline points="6,46.59 8.28,46.59" fill="none" stroke="#111" stroke-width="1.6" stroke-linecap="round" stroke-linejoin="round"/><polyline points="6,47.94 6.67,47.94" fill="none" stroke="#111" stroke-width="1.6" stroke-linecap="round" stroke-linejoin="round"/><polyline points="6,49.28 8.28,49.28" fill="none" stroke="#111" stroke-width="1.6" stroke-linecap="round" stroke-linejoin="round"/><polyline points="6,50.62 6.67,50.62" fill="none" stroke="#111" stroke-width="1.6" stroke-linecap="round" stroke-linejoin="round"/><polyline points="6,51.96 8.28,51.96" fill="none" stroke="#111" stroke-width="1.6" stroke-linecap="round" stroke-linejoin="round"/><polyline points="6,53.3 6.67,53.3" fill="none" stroke="#111" stroke-width="1.6" stroke-linecap="round" stroke-linejoin="round"/><polyline points="6,54.65 8.28,54.65" fill="none" stroke="#111" stroke-width="1.6" stroke-linecap="round" stroke-linejoin="round"/><polyline points="6,55.99 6.67,55.99" fill="none" stroke="#111" stroke-width="1.6" stroke-linecap="round" stroke-linejoin="round"/><polyline points="6,58 10.03,55.65 10.03,8.01 6,6 6,58" fill="none" stroke="#111" stroke-width="1.6" stroke-linecap="round" stroke-linejoin="round"/><circle cx="7.07" cy="7.68" r="0.4" fill="none" stroke="#111" stroke-width="1.6"/><circle cx="7.07" cy="10.36" r="0.4" fill="none" stroke="#111" stroke-width="1.6"/><circle cx="7.07" cy="13.05" r="0.4" fill="none" stroke="#111" stroke-width="1.6"/><circle cx="7.07" cy="15.73" r="0.4" fill="none" stroke="#111" stroke-width="1.6"/><circle cx="7.07" cy="18.41" r="0.4" fill="none" stroke="#111" stroke-width="1.6"/><circle cx="7.07" cy="21.1" r="0.4" fill="none" stroke="#111" stroke-width="1.6"/><circle cx="7.07" cy="23.78" r="0.4" fill="none" stroke="#111" stroke-width="1.6"/><circle cx="7.07" cy="26.46" r="0.4" fill="none" stroke="#111" stroke-width="1.6"/><circle cx="7.07" cy="29.15" r="0.4" fill="none" stroke="#111" stroke-width="1.6"/><circle cx="7.07" cy="31.83" r="0.4" fill="none" stroke="#111" stroke-width="1.6"/><circle cx="7.07" cy="34.52" r="0.4" fill="none" stroke="#111" stroke-width="1.6"/><circle cx="7.07" cy="37.2" r="0.4" fill="none" stroke="#111" stroke-width="1.6"/><circle cx="7.07" cy="39.88" r="0.4" fill="none" stroke="#111" stroke-width="1.6"/><circle cx="7.07" cy="42.57" r="0.4" fill="none" stroke="#111" stroke-width="1.6"/><circle cx="7.07" cy="45.25" r="0.4" fill="none" stroke="#111" stroke-width="1.6"/><circle cx="7.07" cy="47.94" r="0.4" fill="none" stroke="#111" stroke-width="1.6"/><circle cx="7.07" cy="50.62" r="0.4" fill="none" stroke="#111" stroke-width="1.6"/><circle cx="7.07" cy="53.3" r="0.4" fill="none" stroke="#111" stroke-width="1.6"/><circle cx="7.07" cy="55.99" r="0.4" fill="none" stroke="#111" stroke-width="1.6"/><circle cx="8.68" cy="9.02" r="0.4" fill="none" stroke="#111" stroke-width="1.6"/><circle cx="8.68" cy="11.7" r="0.4" fill="none" stroke="#111" stroke-width="1.6"/><circle cx="8.68" cy="14.39" r="0.4" fill="none" stroke="#111" stroke-width="1.6"/><circle cx="8.68" cy="17.07" r="0.4" fill="none" stroke="#111" stroke-width="1.6"/><circle cx="8.68" cy="19.75" r="0.4" fill="none" stroke="#111" stroke-width="1.6"/><circle cx="8.68" cy="22.44" r="0.4" fill="none" stroke="#111" stroke-width="1.6"/><circle cx="8.68" cy="25.12" r="0.4" fill="none" stroke="#111" stroke-width="1.6"/><circle cx="8.68" cy="27.81" r="0.4" fill="none" stroke="#111" stroke-width="1.6"/><circle cx="8.68" cy="30.49" r="0.4" fill="none" stroke="#111" stroke-width="1.6"/><circle cx="8.68" cy="33.17" r="0.4" fill="none" stroke="#111" stroke-width="1.6"/><circle cx="8.68" cy="35.86" r="0.4" fill="none" stroke="#111" stroke-width="1.6"/><circle cx="8.68" cy="38.54" r="0.4" fill="none" stroke="#111" stroke-width="1.6"/><circle cx="8.68" cy="41.23" r="0.4" fill="none" stroke="#111" stroke-width="1.6"/><circle cx="8.68" cy="43.91" r="0.4" fill="none" stroke="#111" stroke-width="1.6"/><circle cx="8.68" cy="46.59" r="0.4" fill="none" stroke="#111" stroke-width="1.6"/><circle cx="8.68" cy="49.28" r="0.4" fill="none" stroke="#111" stroke-width="1.6"/><circle cx="8.68" cy="51.96" r="0.4" fill="none" stroke="#111" stroke-width="1.6"/><circle cx="8.68" cy="54.65" r="0.4" fill="none" stroke="#111" stroke-width="1.6"/></svg>