<svg xmlns="http://www.w3.org/2000/svg" width="96" height="64" viewBox="0 0 96 64"><rect x="6" y="6" width="3.81" height="51.43" fill="none" stroke="#111" stroke-width="1.6"/><rect x="6" y="6.86" width="0.95" height="0.19" fill="none" stroke="#111" stroke-width="1.6"/><rect x="6" y="8.76" width="0.95" height="0.19" fill="none" stroke="#111" stroke-width="1.6"/><rect x="6" y="10.67" width="0.95" height="0.19" fill="none" stroke="#111" stroke-width="1.6"/><rect x="6" y="12.57" width="0.95" height="0.19" fill="none" stroke="#111" stroke-width="1.6"/><rect x="6" y="14.48" width="0.95" height="0.19" fill="none" stroke="#111" stroke-width="1.6"/><rect x="6" y="16.38" width="0.95" height="0.19" fill="none" stroke="#111" stroke-width="1.6"/><rect x="6" y="18.29" width="0.95" height="0.19" fill="none" stroke="#111" stroke-width="1.6"/><rect x="6" y="20.19" width="0.95" height="0.19" fill="none" stroke="#111" stroke-width="1.6"/><rect x="6" y="22.1" width="0.95" height="0.19" fill="none" stroke="#111" stroke-width="1.6"/><rect x="6" y="24" width="0.95" height="0.19" fill="none" stroke="#111" stroke-width="1.6"/><rect x="6" y="25.9" width="0.95" height="0.2" fill="none" stroke="#111" stroke-width="1.6"/><rect x="6" y="27.81" width="0.95" height="0.19" fill="none" stroke="#111" stroke-width="1.6"/><rect x="6" y="29.71" width="0.95" height="0.19" fill="none" stroke="#111" stroke-width="1.6"/><rect x="6" y="31.62" width="0.95" height="0.19" fill="none" stroke="#111" stroke-width="1.6"/><rect x="6" y="33.52" width="0.95" height="0.19" fill="none" stroke="#111" stroke-width="1.6"/><rect x="6" y="35.43" width="0.95" height="0.19" fill="none" stroke="#111" stroke-width="1.6"/><rect x="6" y="37.33" width="0.95" height="0.19" fill="none" stroke="#111" stroke-width="1.6"/><rect x="6" y="39.24" width="0.95" height="0.19" fill="none" stroke="#111" stroke-width="1.6"/><rect x="6" y="41.14" width="0.95" height="0.19" fill="none" stroke="#111" stroke-width="1.6"/><rect x="6" y="43.05" width="0.95" height="0.19" fill="none" stroke="#111" stroke-width="1.6"/><rect x="6" y="44.95" width="0.95" height="0.19" fill="none" stroke="#111" stroke-width="1.6"/><rect x="6" y="46.86" width="0.95" height="0.19" fill="none" stroke="#111" stroke-width="1.6"/><rect x="6" y="48.76" width="0.95" height="0.19" fill="none" stroke="#111" stroke-width="1.6"/><rect x="6" y="50.67" width="0.95" height="0.19" fill="none" stroke="#111" stroke-width="1.6"/><rect x="6" y="52.57" width="0.95" height="0.19" fill="none" stroke="#111" stroke-width="1.6"/><rect x="6" y="54.48" width="0.95" height="0.19" fill="none" stroke="#111" stroke-width="1.6"/><rect x="6" y="56.38" width="0.95" height="0.19" fill="none" stroke="#111" stroke-width="1.6"/><polyline points="7.14,58 8.67,58" fill="none" stroke="#111" stroke-width="1.6" stroke-linecap="round" stroke-linejoin="round"/><rect x="8.86" y="6.86" width="0.95" height="0.19" fill="none" stroke="#111" stroke-width="1.6"/><rect x="8.86" y="8.76" width="0.95" height="0.19" fill="none" stroke="#111" stroke-width="1.6"/><rect x="8.86" y="10.67" width="0.95" height="0.19" fill="none" stroke="#111" stroke-width="1.6"/><rect x="8.86" y="12.57" width="0.95" height="0.19" fill="none" stroke="#111" stroke-width="1.6"/><rect x="8.86" y="14.48" width="0.95" height="0.19" fill="none" stroke="#111" stroke-width="1.6"/><rect x="8.86" y="16.38" width="0.95" height="0.19" fill="none" stroke="#111" stroke-width="1.6"/><rect x="8.86" y="18.29" width="0.95" height="0.19" fill="none" stroke="#111" stroke-width="1.6"/><rect x="8.86" y="20.19" width="0.95" height="0.19" fill="none" stroke="#111" stroke-width="1.6"/><rect x="8.86" y="22.1" width="0.95" height="0.19" fill="none" stroke="#111" stroke-width="1.6"/><rect x="8.86" y="24" width="0.95" height="0.19" fill="none" stroke="#111" stroke-width="1.6"/><rect x="8.86" y="25.9" width="0.95" height="0.2" fill="none" stroke="#111" stroke-width="1.6"/><rect x="8.86" y="27.81" width="0.95" height="0.19" fill="none" stroke="#111" stroke-width="1.6"/><rect x="8.86" y="29.71" width="0.95" height="0.19" fill="none" stroke="#111" stroke-width="1.6"/><rect x="8.86" y="31.62" width="0.95" height="0.19" fill="none" stroke="#111" stroke-width="1.6"/><rect x="8.86" y="33.52" width="0.95" height="0.19" fill="none" stroke="#111" stroke-width="1.6"/><rect x="8.86" y="35.43" width="0.95" height="0.19" fill="none" stroke="#111" stroke-width="1.6"/><rect x="8.86" y="37.33" width="0.95" height="0.19" fill="none" stroke="#111" stroke-width="1.6"/><rect x="8.86" y="39.24" width="0.95" height="0.19" fill="none" stroke="#111" stroke-width="1.6"/><rect x="8.86" y="41.14" width="0.95" height="0.19" fill="none" stroke="#111" stroke-width="1.6"/><rect x="8.86" y="43.05" width="0.95" height="0.19" fill="none" stroke="#111" stroke-width="1.6"/><rect x="8.86" y="44.95" width="0.95" height="0.19" fill="none" stroke="#111" stroke-width="1.6"/><rect x="8.86" y="46.86" width="0.95" height="0.19" fill="none" stroke="#111" stroke-width="1.6"/><rect x="8.86" y="48.76" width="0.95" height="0.19" fill="none" stroke="#111" stroke-width="1.6"/><rect x="8.86" y="50.67" width="0.95" height="0.19" fill="none" stroke="#111" stroke-width="1.6"/><rect x="8.86" y="52.57" width="0.95" height="0.19" fill="none" stroke="#111" stroke-width="1.6"/><rect x="8.86" y="54.48" width="0.95" height="0.19" fill="none" stroke="#111" stroke-width="1.6"/><rect x="8.86" y="56.38" width="0.95" height="0.19" fill="none" stroke="#111" stroke-width="1.6"/></svg>