<svg xmlns="http://www.w3.org/2000/svg" width="96" height="64" viewBox="0 0 96 64"><rect x="6" y="6" width="2.12" height="52" fill="none" stroke="#111" stroke-width="1.6"/><rect x="6.11" y="6.11" width="1.91" height="51.78" fill="none" stroke="#111" stroke-width="1.6"/><rect x="6.11" y="6.48" width="0.53" height="0.1" fill="none" stroke="#111" stroke-width="1.6"/><rect x="6.11" y="7.54" width="0.53" height="0.1" fill="none" stroke="#111" stroke-width="1.6"/><rect x="6.11" y="8.6" width="0.53" height="0.11" fill="none" stroke="#111" stroke-width="1.6"/><rect x="6.11" y="9.66" width="0.53" height="0.11" fill="none" stroke="#111" stroke-width="1.6"/><rect x="6.11" y="10.72" width="0.53" height="0.11" fill="none" stroke="#111" stroke-width="1.6"/><rect x="6.11" y="11.78" width="0.53" height="0.11" fill="none" stroke="#111" stroke-width="1.6"/><rect x="6.11" y="12.84" width="0.53" height="0.11" fill="none" stroke="#111" stroke-width="1.6"/><rect x="6.11" y="13.91" width="0.53" height="0.1" fill="none" stroke="#111" stroke-width="1.6"/><rect x="6.11" y="14.97" width="0.53" height="0.1" fill="none" stroke="#111" stroke-width="1.6"/><rect x="6.11" y="16.03" width="0.53" height="0.1" fill="none" stroke="#111" stroke-width="1.6"/><rect x="6.11" y="17.09" width="0.53" height="0.11" fill="none" stroke="#111" stroke-width="1.6"/><rect x="6.11" y="18.15" width="0.53" height="0.11" fill="none" stroke="#111" stroke-width="1.6"/><rect x="6.11" y="19.21" width="0.53" height="0.11" fill="none" stroke="#111" stroke-width="1.6"/><rect x="6.11" y="20.27" width="0.53" height="0.11" fill="none" stroke="#111" stroke-width="1.6"/><rect x="6.11" y="21.33" width="0.53" height="0.11" fill="none" stroke="#111" stroke-width="1.6"/><rect x="6.11" y="22.4" width="0.53" height="0.1" fill="none" stroke="#111" stroke-width="1.6"/><rect x="6.11" y="23.46" width="0.53" height="0.1" fill="none" stroke="#111" stroke-width="1.6"/><rect x="6.11" y="24.52" width="0.53" height="0.1" fill="none" stroke="#111" stroke-width="1.6"/><rect x="6.11" y="25.58" width="0.53" height="0.11" fill="none" stroke="#111" stroke-width="1.6"/><rect x="6.11" y="26.64" width="0.53" height="0.11" fill="none" stroke="#111" stroke-width="1.6"/><rect x="6.11" y="27.7" width="0.53" height="0.11" fill="none" stroke="#111" stroke-width="1.6"/><rect x="6.11" y="28.76" width="0.53" height="0.11" fill="none" stroke="#111" stroke-width="1.6"/><rect x="6.11" y="29.82" width="0.53" height="0.11" fill="none" stroke="#111" stroke-width="1.6"/><rect x="6.11" y="30.89" width="0.53" height="0.1" fill="none" stroke="#111" stroke-width="1.6"/><rect x="6.11" y="31.95" width="0.53" height="0.1" fill="none" stroke="#111" stroke-width="1.6"/><rect x="6.11" y="33.01" width="0.53" height="0.1" fill="none" stroke="#111" stroke-width="1.6"/><rect x="6.11" y="34.07" width="0.53" height="0.11" fill="none" stroke="#111" stroke-width="1.6"/><rect x="6.11" y="35.13" width="0.53" height="0.11" fill="none" stroke="#111" stroke-width="1.6"/><rect x="6.11" y="36.19" width="0.53" height="0.11" fill="none" stroke="#111" stroke-width="1.6"/><rect x="6.11" y="37.25" width="0.53" height="0.11" fill="none" stroke="#111" stroke-width="1.6"/><rect x="6.11" y="38.31" width="0.53" height="0.11" fill="none" stroke="#111" stroke-width="1.6"/><rect x="6.11" y="39.38" width="0.53" height="0.1" fill="none" stroke="#111" stroke-width="1.6"/><rect x="6.11" y="40.44" width="0.53" height="0.1" fill="none" stroke="#111" stroke-width="1.6"/><rect x="6.11" y="41.5" width="0.53" height="0.1" fill="none" stroke="#111" stroke-width="1.6"/><rect x="6.11" y="42.56" width="0.53" height="0.11" fill="none" stroke="#111" stroke-width="1.6"/><rect x="6.11" y="43.62" width="0.53" height="0.11" fill="none" stroke="#111" stroke-width="1.6"/><rect x="6.11" y="44.68" width="0.53" height="0.11" fill="none" stroke="#111" stroke-width="1.6"/><rect x="6.11" y="45.74" width="0.53" height="0.11" fill="none" stroke="#111" stroke-width="1.6"/><rect x="6.11" y="46.8" width="0.53" height="0.11" fill="none" stroke="#111" stroke-width="1.6"/><rect x="6.11" y="47.87" width="0.53" height="0.1" fill="none" stroke="#111" stroke-width="1.6"/><rect x="6.11" y="48.93" width="0.53" height="0.1" fill="none" stroke="#111" stroke-width="1.6"/><rect x="6.11" y="49.99" width="0.53" height="0.1" fill="none" stroke="#111" stroke-width="1.6"/><rect x="6.11" y="51.05" width="0.53" height="0.11" fill="none" stroke="#111" stroke-width="1.6"/><rect x="6.11" y="52.11" width="0.53" height="0.11" fill="none" stroke="#111" stroke-width="1.6"/><rect x="6.11" y="53.17" width="0.53" height="0.11" fill="none" stroke="#111" stroke-width="1.6"/><rect x="6.11" y="54.23" width="0.53" height="0.11" fill="none" stroke="#111" stroke-width="1.6"/><rect x="6.11" y="55.29" width="0.53" height="0.11" fill="none" stroke="#111" stroke-width="1.6"/><rect x="6.11" y="56.36" width="0.53" height="0.1" fill="none" stroke="#111" stroke-width="1.6"/><rect x="6.11" y="57.42" width="0.53" height="0.1" fill="none" stroke="#111" stroke-width="1.6"/><rect x="7.49" y="6.48" width="0.53" height="0.1" fill="none" stroke="#111" stroke-width="1.6"/><rect x="7.49" y="7.54" width="0.53" height="0.1" fill="none" stroke="#111" stroke-width="1.6"/><rect x="7.49" y="8.6" width="0.53" height="0.11" fill="none" stroke="#111" stroke-width="1.6"/><rect x="7.49" y="9.66" width="0.53" height="0.11" fill="none" stroke="#111" stroke-width="1.6"/><rect x="7.49" y="10.72" width="0.53" height="0.11" fill="none" stroke="#111" stroke-width="1.6"/><rect x="7.49" y="11.78" width="0.53" height="0.11" fill="none" stroke="#111" stroke-width="1.6"/><rect x="7.49" y="12.84" width="0.53" height="0.11" fill="none" stroke="#111" stroke-width="1.6"/><rect x="7.49" y="13.91" width="0.53" height="0.1" fill="none" stroke="#111" stroke-width="1.6"/><rect x="7.49" y="14.97" width="0.53" height="0.1" fill="none" stroke="#111" stroke-width="1.6"/><rect x="7.49" y="16.03" width="0.53" height="0.1" fill="none" stroke="#111" stroke-width="1.6"/><rect x="7.49" y="17.09" width="0.53" height="0.11" fill="none" stroke="#111" stroke-width="1.6"/><rect x="7.49" y="18.15" width="0.53" height="0.11" fill="none" stroke="#111" stroke-width="1.6"/><rect x="7.49" y="19.21" width="0.53" height="0.11" fill="none" stroke="#111" stroke-width="1.6"/><rect x="7.49" y="20.27" width="0.53" height="0.11" fill="none" stroke="#111" stroke-width="1.6"/><rect x="7.49" y="21.33" width="0.53" height="0.11" fill="none" stroke="#111" stroke-width="1.6"/><rect x="7.49" y="22.4" width="0.53" height="0.1" fill="none" stroke="#111" stroke-width="1.6"/><rect x="7.49" y="23.46" width="0.53" height="0.1" fill="none" stroke="#111" stroke-width="1.6"/><rect x="7.49" y="24.52" width="0.53" height="0.1" fill="none" stroke="#111" stroke-width="1.6"/><rect x="7.49" y="25.58" width="0.53" height="0.11" fill="none" stroke="#111" stroke-width="1.6"/><rect x="7.49" y="26.64" width="0.53" height="0.11" fill="none" stroke="#111" stroke-width="1.6"/><rect x="7.49" y="27.7" width="0.53" height="0.11" fill="none" stroke="#111" stroke-width="1.6"/><rect x="7.49" y="28.76" width="0.53" height="0.11" fill="none" stroke="#111" stroke-width="1.6"/><rect x="7.49" y="29.82" width="0.53" height="0.11" fill="none" stroke="#111" stroke-width="1.6"/><rect x="7.49" y="30.89" width="0.53" height="0.1" fill="none" stroke="#111" stroke-width="1.6"/><rect x="7.49" y="31.95" width="0.53" height="0.1" fill="none" stroke="#111" stroke-width="1.6"/><rect x="7.49" y="33.01" width="0.53" height="0.1" fill="none" stroke="#111" stroke-width="1.6"/><rect x="7.49" y="34.07" width="0.53" height="0.11" fill="none" stroke="#111" stroke-width="1.6"/><rect x="7.49" y="35.13" width="0.53" height="0.11" fill="none" stroke="#111" stroke-width="1.6"/><rect x="7.49" y="36.19" width="0.53" height="0.11" fill="none" stroke="#111" stroke-width="1.6"/><rect x="7.49" y="37.25" width="0.53" height="0.11" fill="none" stroke="#111" stroke-width="1.6"/><rect x="7.49" y="38.31" width="0.53" height="0.11" fill="none" stroke="#111" stroke-width="1.6"/><rect x="7.49" y="39.38" width="0.53" height="0.1" fill="none" stroke="#111" stroke-width="1.6"/><rect x="7.49" y="40.44" width="0.53" height="0.1" fill="none" stroke="#111" stroke-width="1.6"/><rect x="7.49" y="41.5" width="0.53" height="0.1" fill="none" stroke="#111" stroke-width="1.6"/><rect x="7.49" y="42.56" width="0.53" height="0.11" fill="none" stroke="#111" stroke-width="1.6"/><rect x="7.49" y="43.62" width="0.53" height="0.11" fill="none" stroke="#111" stroke-width="1.6"/><rect x="7.49" y="44.68" width="0.53" height="0.11" fill="none" stroke="#111" stroke-width="1.6"/><rect x="7.49" y="45.74" width="0.53" height="0.11" fill="none" stroke="#111" stroke-width="1.6"/><rect x="7.49" y="46.8" width="0.53" height="0.11" fill="none" stroke="#111" stroke-width="1.6"/><rect x="7.49" y="47.87" width="0.53" height="0.1" fill="none" stroke="#111" stroke-width="1.6"/><rect x="7.49" y="48.93" width="0.53" height="0.1" fill="none" stroke="#111" stroke-width="1.6"/><rect x="7.49" y="49.99" width="0.53" height="0.1" fill="none" stroke="#111" stroke-width="1.6"/><rect x="7.49" y="51.05" width="0.53" height="0.11" fill="none" stroke="#111" stroke-width="1.6"/><rect x="7.49" y="52.11" width="0.53" height="0.11" fill="none" stroke="#111" stroke-width="1.6"/><rect x="7.49" y="53.17" width="0.53" height="0.11" fill="none" stroke="#111" stroke-width="1.6"/><rect x="7.49" y="54.23" width="0.53" height="0.11" fill="none" stroke="#111" stroke-width="1.6"/><rect x="7.49" y="55.29" width="0.53" height="0.11" fill="none" stroke="#111" stroke-width="1.6"/><rect x="7.49" y="56.36" width="0.53" height="0.1" fill="none" stroke="#111" stroke-width="1.6"/><rect x="7.49" y="57.42" width="0.53" height="0.1" fill="none" stroke="#111" stroke-width="1.6"/></svg>