<svg xmlns="http://www.w3.org/2000/svg" width="96" height="64" viewBox="0 0 96 64"><rect x="6" y="6" width="2.26" height="52" fill="none" stroke="#111" stroke-width="1.6"/><rect x="6.23" y="6.23" width="1.8" height="51.54" fill="none" stroke="#111" stroke-width="1.6"/><rect x="6.23" y="7.02" width="1.13" height="0.22" fill="none" stroke="#111" stroke-width="1.6"/><rect x="6.23" y="9.28" width="1.13" height="0.22" fill="none" stroke="#111" stroke-width="1.6"/><rect x="6.23" y="11.54" width="1.13" height="0.23" fill="none" stroke="#111" stroke-width="1.6"/><rect x="6.23" y="13.8" width="1.13" height="0.23" fill="none" stroke="#111" stroke-width="1.6"/><rect x="6.23" y="16.06" width="1.13" height="0.23" fill="none" stroke="#111" stroke-width="1.6"/><rect x="6.23" y="18.32" width="1.13" height="0.23" fill="none" stroke="#111" stroke-width="1.6"/><rect x="6.23" y="20.58" width="1.13" height="0.23" fill="none" stroke="#111" stroke-width="1.6"/><rect x="6.23" y="22.84" width="1.13" height="0.23" fill="none" stroke="#111" stroke-width="1.6"/><rect x="6.23" y="25.1" width="1.13" height="0.23" fill="none" stroke="#111" stroke-width="1.6"/><rect x="6.23" y="27.37" width="1.13" height="0.22" fill="none" stroke="#111" stroke-width="1.6"/><rect x="6.23" y="29.63" width="1.13" height="0.22" fill="none" stroke="#111" stroke-width="1.6"/><rect x="6.23" y="31.89" width="1.13" height="0.22" fill="none" stroke="#111" stroke-width="1.6"/><rect x="6.23" y="34.15" width="1.13" height="0.22" fill="none" stroke="#111" stroke-width="1.6"/><rect x="6.23" y="36.41" width="1.13" height="0.22" fill="none" stroke="#111" stroke-width="1.6"/><rect x="6.23" y="38.67" width="1.13" height="0.23" fill="none" stroke="#111" stroke-width="1.6"/><rect x="6.23" y="40.93" width="1.13" height="0.23" fill="none" stroke="#111" stroke-width="1.6"/><rect x="6.23" y="43.19" width="1.13" height="0.23" fill="none" stroke="#111" stroke-width="1.6"/><rect x="6.23" y="45.45" width="1.13" height="0.23" fill="none" stroke="#111" stroke-width="1.6"/><rect x="6.23" y="47.71" width="1.13" height="0.23" fill="none" stroke="#111" stroke-width="1.6"/><rect x="6.23" y="49.97" width="1.13" height="0.23" fill="none" stroke="#111" stroke-width="1.6"/><rect x="6.23" y="52.23" width="1.13" height="0.23" fill="none" stroke="#111" stroke-width="1.6"/><rect x="6.23" y="54.5" width="1.13" height="0.22" fill="none" stroke="#111" stroke-width="1.6"/><rect x="6.23" y="56.76" width="1.13" height="0.22" fill="none" stroke="#111" stroke-width="1.6"/></svg>