<svg xmlns="http://www.w3.org/2000/svg" width="96" height="64" viewBox="0 0 96 64"><rect x="6" y="6" width="2.52" height="51.62" fill="none" stroke="#111" stroke-width="1.6"/><rect x="6" y="6.57" width="0.63" height="0.12" fill="none" stroke="#111" stroke-width="1.6"/><rect x="6" y="7.83" width="0.63" height="0.12" fill="none" stroke="#111" stroke-width="1.6"/><rect x="6" y="9.08" width="0.63" height="0.13" fill="none" stroke="#111" stroke-width="1.6"/><rect x="6" y="10.34" width="0.63" height="0.13" fill="none" stroke="#111" stroke-width="1.6"/><rect x="6" y="11.6" width="0.63" height="0.13" fill="none" stroke="#111" stroke-width="1.6"/><rect x="6" y="12.86" width="0.63" height="0.13" fill="none" stroke="#111" stroke-width="1.6"/><rect x="6" y="14.12" width="0.63" height="0.13" fill="none" stroke="#111" stroke-width="1.6"/><rect x="6" y="15.38" width="0.63" height="0.13" fill="none" stroke="#111" stroke-width="1.6"/><rect x="6" y="16.64" width="0.63" height="0.13" fill="none" stroke="#111" stroke-width="1.6"/><rect x="6" y="17.9" width="0.63" height="0.12" fill="none" stroke="#111" stroke-width="1.6"/><rect x="6" y="19.16" width="0.63" height="0.12" fill="none" stroke="#111" stroke-width="1.6"/><rect x="6" y="20.42" width="0.63" height="0.12" fill="none" stroke="#111" stroke-width="1.6"/><rect x="6" y="21.68" width="0.63" height="0.12" fill="none" stroke="#111" stroke-width="1.6"/><rect x="6" y="22.93" width="0.63" height="0.13" fill="none" stroke="#111" stroke-width="1.6"/><rect x="6" y="24.19" width="0.63" height="0.13" fill="none" stroke="#111" stroke-width="1.6"/><rect x="6" y="25.45" width="0.63" height="0.13" fill="none" stroke="#111" stroke-width="1.6"/><rect x="6" y="26.71" width="0.63" height="0.13" fill="none" stroke="#111" stroke-width="1.6"/><rect x="6" y="27.97" width="0.63" height="0.13" fill="none" stroke="#111" stroke-width="1.6"/><rect x="6" y="29.23" width="0.63" height="0.13" fill="none" stroke="#111" stroke-width="1.6"/><rect x="6" y="30.49" width="0.63" height="0.13" fill="none" stroke="#111" stroke-width="1.6"/><rect x="6" y="31.75" width="0.63" height="0.12" fill="none" stroke="#111" stroke-width="1.6"/><rect x="6" y="33.01" width="0.63" height="0.12" fill="none" stroke="#111" stroke-width="1.6"/><rect x="6" y="34.27" width="0.63" height="0.12" fill="none" stroke="#111" stroke-width="1.6"/><rect x="6" y="35.53" width="0.63" height="0.12" fill="none" stroke="#111" stroke-width="1.6"/><rect x="6" y="36.78" width="0.63" height="0.13" fill="none" stroke="#111" stroke-width="1.6"/><rect x="6" y="38.04" width="0.63" height="0.13" fill="none" stroke="#111" stroke-width="1.6"/><rect x="6" y="39.3" width="0.63" height="0.13" fill="none" stroke="#111" stroke-width="1.6"/><rect x="6" y="40.56" width="0.63" height="0.13" fill="none" stroke="#111" stroke-width="1.6"/><rect x="6" y="41.82" width="0.63" height="0.13" fill="none" stroke="#111" stroke-width="1.6"/><rect x="6" y="43.08" width="0.63" height="0.13" fill="none" stroke="#111" stroke-width="1.6"/><rect x="6" y="44.34" width="0.63" height="0.12" fill="none" stroke="#111" stroke-width="1.6"/><rect x="6" y="45.6" width="0.63" height="0.12" fill="none" stroke="#111" stroke-width="1.6"/><rect x="6" y="46.86" width="0.63" height="0.12" fill="none" stroke="#111" stroke-width="1.6"/><rect x="6" y="48.12" width="0.63" height="0.12" fill="none" stroke="#111" stroke-width="1.6"/><rect x="6" y="49.38" width="0.63" height="0.12" fill="none" stroke="#111" stroke-width="1.6"/><rect x="6" y="50.63" width="0.63" height="0.13" fill="none" stroke="#111" stroke-width="1.6"/><rect x="6" y="51.89" width="0.63" height="0.13" fill="none" stroke="#111" stroke-width="1.6"/><rect x="6" y="53.15" width="0.63" height="0.13" fill="none" stroke="#111" stroke-width="1.6"/><rect x="6" y="54.41" width="0.63" height="0.13" fill="none" stroke="#111" stroke-width="1.6"/><rect x="6" y="55.67" width="0.63" height="0.13" fill="none" stroke="#111" stroke-width="1.6"/><rect x="6" y="56.93" width="0.63" height="0.13" fill="none" stroke="#111" stroke-width="1.6"/><polyline points="6.76,58 7.76,58" fill="none" stroke="#111" stroke-width="1.6" stroke-linecap="round" stroke-linejoin="round"/><rect x="7.89" y="6.57" width="0.63" height="0.12" fill="none" stroke="#111" stroke-width="1.6"/><rect x="7.89" y="7.83" width="0.63" height="0.12" fill="none" stroke="#111" stroke-width="1.6"/><rect x="7.89" y="9.08" width="0.63" height="0.13" fill="none" stroke="#111" stroke-width="1.6"/><rect x="7.89" y="10.34" width="0.63" height="0.13" fill="none" stroke="#111" stroke-width="1.6"/><rect x="7.89" y="11.6" width="0.63" height="0.13" fill="none" stroke="#111" stroke-width="1.6"/><rect x="7.89" y="12.86" width="0.63" height="0.13" fill="none" stroke="#111" stroke-width="1.6"/><rect x="7.89" y="14.12" width="0.63" height="0.13" fill="none" stroke="#111" stroke-width="1.6"/><rect x="7.89" y="15.38" width="0.63" height="0.13" fill="none" stroke="#111" stroke-width="1.6"/><rect x="7.89" y="16.64" width="0.63" height="0.13" fill="none" stroke="#111" stroke-width="1.6"/><rect x="7.89" y="17.9" width="0.63" height="0.12" fill="none" stroke="#111" stroke-width="1.6"/><rect x="7.89" y="19.16" width="0.63" height="0.12" fill="none" stroke="#111" stroke-width="1.6"/><rect x="7.89" y="20.42" width="0.63" height="0.12" fill="none" stroke="#111" stroke-width="1.6"/><rect x="7.89" y="21.68" width="0.63" height="0.12" fill="none" stroke="#111" stroke-width="1.6"/><rect x="7.89" y="22.93" width="0.63" height="0.13" fill="none" stroke="#111" stroke-width="1.6"/><rect x="7.89" y="24.19" width="0.63" height="0.13" fill="none" stroke="#111" stroke-width="1.6"/><rect x="7.89" y="25.45" width="0.63" height="0.13" fill="none" stroke="#111" stroke-width="1.6"/><rect x="7.89" y="26.71" width="0.63" height="0.13" fill="none" stroke="#111" stroke-width="1.6"/><rect x="7.89" y="27.97" width="0.63" height="0.13" fill="none" stroke="#111" stroke-width="1.6"/><rect x="7.89" y="29.23" width="0.63" height="0.13" fill="none" stroke="#111" stroke-width="1.6"/><rect x="7.89" y="30.49" width="0.63" height="0.13" fill="none" stroke="#111" stroke-width="1.6"/><rect x="7.89" y="31.75" width="0.63" height="0.12" fill="none" stroke="#111" stroke-width="1.6"/><rect x="7.89" y="33.01" width="0.63" height="0.12" fill="none" stroke="#111" stroke-width="1.6"/><rect x="7.89" y="34.27" width="0.63" height="0.12" fill="none" stroke="#111" stroke-width="1.6"/><rect x="7.89" y="35.53" width="0.63" height="0.12" fill="none" stroke="#111" stroke-width="1.6"/><rect x="7.89" y="36.78" width="0.63" height="0.13" fill="none" stroke="#111" stroke-width="1.6"/><rect x="7.89" y="38.04" width="0.63" height="0.13" fill="none" stroke="#111" stroke-width="1.6"/><rect x="7.89" y="39.3" width="0.63" height="0.13" fill="none" stroke="#111" stroke-width="1.6"/><rect x="7.89" y="40.56" width="0.63" height="0.13" fill="none" stroke="#111" stroke-width="1.6"/><rect x="7.89" y="41.82" width="0.63" height="0.13" fill="none" stroke="#111" stroke-width="1.6"/><rect x="7.89" y="43.08" width="0.63" height="0.13" fill="none" stroke="#111" stroke-width="1.6"/><rect x="7.89" y="44.34" width="0.63" height="0.12" fill="none" stroke="#111" stroke-width="1.6"/><rect x="7.89" y="45.6" width="0.63" height="0.12" fill="none" stroke="#111" stroke-width="1.6"/><rect x="7.89" y="46.86" width="0.63" height="0.12" fill="none" stroke="#111" stroke-width="1.6"/><rect x="7.89" y="48.12" width="0.63" height="0.12" fill="none" stroke="#111" stroke-width="1.6"/><rect x="7.89" y="49.38" width="0.63" height="0.12" fill="none" stroke="#111" stroke-width="1.6"/><rect x="7.89" y="50.63" width="0.63" height="0.13" fill="none" stroke="#111" stroke-width="1.6"/><rect x="7.89" y="51.89" width="0.63" height="0.13" fill="none" stroke="#111" stroke-width="1.6"/><rect x="7.89" y="53.15" width="0.63" height="0.13" fill="none" stroke="#111" stroke-width="1.6"/><rect x="7.89" y="54.41" width="0.63" height="0.13" fill="none" stroke="#111" stroke-width="1.6"/><rect x="7.89" y="55.67" width="0.63" height="0.13" fill="none" stroke="#111" stroke-width="1.6"/><rect x="7.89" y="56.93" width="0.63" height="0.13" fill="none" stroke="#111" stroke-width="1.6"/></svg>