<svg xmlns="http://www.w3.org/2000/svg" width="96" height="64" viewBox="0 0 96 64"><circle cx="14.67" cy="13.43" r="0" fill="none" stroke="#111" stroke-width="1.6"/><circle cx="37.45" cy="43.64" r="0" fill="none" stroke="#111" stroke-width="1.6"/><circle cx="39.68" cy="40.67" r="0" fill="none" stroke="#111" stroke-width="1.6"/><circle cx="41.9" cy="37.7" r="0" fill="none" stroke="#111" stroke-width="1.6"/><polyline points="44.38,36.46 44.38,38.93" fill="none" stroke="#111" stroke-width="1.6" stroke-linecap="round" stroke-linejoin="round"/><polyline points="44.38,42.4 44.38,44.88" fill="none" stroke="#111" stroke-width="1.6" stroke-linecap="round" stroke-linejoin="round"/><circle cx="44.63" cy="29.52" r="0" fill="none" stroke="#111" stroke-width="1.6"/><circle cx="44.63" cy="34.72" r="0" fill="none" stroke="#111" stroke-width="1.6"/><polyline points="45.62,36.46 45.62,38.93" fill="none" stroke="#111" stroke-width="1.6" stroke-linecap="round" stroke-linejoin="round"/><polyline points="45.62,42.4 45.62,44.88" fill="none" stroke="#111" stroke-width="1.6" stroke-linecap="round" stroke-linejoin="round"/><circle cx="46.61" cy="13.43" r="0" fill="none" stroke="#111" stroke-width="1.6"/><polyline points="47.85,12.19 46.61,12.19 46.61,14.67 47.85,14.67" fill="none" stroke="#111" stroke-width="1.6" stroke-linecap="round" stroke-linejoin="round"/><polyline points="47.85,27.05 44.63,27.05 44.63,29.52 47.85,29.52" fill="none" stroke="#111" stroke-width="1.6" stroke-linecap="round" stroke-linejoin="round"/><polyline points="48.1,33.49 48.1,35.96" fill="none" stroke="#111" stroke-width="1.6" stroke-linecap="round" stroke-linejoin="round"/><polyline points="48.34,39.43 48.34,41.9" fill="none" stroke="#111" stroke-width="1.6" stroke-linecap="round" stroke-linejoin="round"/><polyline points="49.33,33.49 49.33,35.96" fill="none" stroke="#111" stroke-width="1.6" stroke-linecap="round" stroke-linejoin="round"/><polyline points="49.58,39.43 49.58,41.9" fill="none" stroke="#111" stroke-width="1.6" stroke-linecap="round" stroke-linejoin="round"/><polyline points="57.5,37.7 58.25,37.7 58.25,34.72 57.5,34.72" fill="none" stroke="#111" stroke-width="1.6" stroke-linecap="round" stroke-linejoin="round"/><polyline points="57.5,43.64 58.25,43.64 58.25,40.67 57.5,40.67" fill="none" stroke="#111" stroke-width="1.6" stroke-linecap="round" stroke-linejoin="round"/><circle cx="58.25" cy="37.7" r="0" fill="none" stroke="#111" stroke-width="1.6"/><polyline points="58.25,40.67 60.48,40.67" fill="none" stroke="#111" stroke-width="1.6" stroke-linecap="round" stroke-linejoin="round"/><circle cx="58.25" cy="40.67" r="0" fill="none" stroke="#111" stroke-width="1.6"/><polyline points="59.24,42.15 61.71,42.15" fill="none" stroke="#111" stroke-width="1.6" stroke-linecap="round" stroke-linejoin="round"/><polyline points="59.24,43.39 61.71,43.39" fill="none" stroke="#111" stroke-width="1.6" stroke-linecap="round" stroke-linejoin="round"/><rect x="6" y="6" width="71.81" height="52" fill="none" stroke="#111" stroke-width="1.6"/><polyline points="16.65,8.48 15.41,8.48" fill="none" stroke="#111" stroke-width="1.6" stroke-linecap="round" stroke-linejoin="round"/><polyline points="16.65,13.43 15.41,13.43" fill="none" stroke="#111" stroke-width="1.6" stroke-linecap="round" stroke-linejoin="round"/><polyline points="16.65,18.38 15.41,18.38" fill="none" stroke="#111" stroke-width="1.6" stroke-linecap="round" stroke-linejoin="round"/><polyline points="16.65,23.33 15.41,23.33" fill="none" stroke="#111" stroke-width="1.6" stroke-linecap="round" stroke-linejoin="round"/><polyline points="16.65,28.29 15.41,28.29" fill="none" stroke="#111" stroke-width="1.6" stroke-linecap="round" stroke-linejoin="round"/><polyline points="16.65,33.24 15.41,33.24" fill="none" stroke="#111" stroke-width="1.6" stroke-linecap="round" stroke-linejoin="round"/><polyline points="20.86,8.48 23.33,8.48 23.33,9.71" fill="none" stroke="#111" stroke-width="1.6" stroke-linecap="round" stroke-linejoin="round"/><polyline points="20.86,23.33 23.33,23.33 23.33,24.57" fill="none" stroke="#111" stroke-width="1.6" stroke-linecap="round" stroke-linejoin="round"/><polyline points="23.33,17.14 23.33,18.38 20.86,18.38" fill="none" stroke="#111" stroke-width="1.6" stroke-linecap="round" stroke-linejoin="round"/><polyline points="23.33,32 23.33,33.24 20.86,33.24" fill="none" stroke="#111" stroke-width="1.6" stroke-linecap="round" stroke-linejoin="round"/><polyline points="28.29,9.71 47.85,9.71" fill="none" stroke="#111" stroke-width="1.6" stroke-linecap="round" stroke-linejoin="round"/><polyline points="28.29,17.14 47.85,17.14" fill="none" stroke="#111" stroke-width="1.6" stroke-linecap="round" stroke-linejoin="round"/><polyline points="28.29,32 47.85,32" fill="none" stroke="#111" stroke-width="1.6" stroke-linecap="round" stroke-linejoin="round"/><polyline points="28.53,24.57 47.85,24.57" fill="none" stroke="#111" stroke-width="1.6" stroke-linecap="round" stroke-linejoin="round"/><polyline points="30.76,13.43 20.86,13.43" fill="none" stroke="#111" stroke-width="1.6" stroke-linecap="round" stroke-linejoin="round"/><polyline points="30.76,13.43 39.68,13.43 39.68,40.67" fill="none" stroke="#111" stroke-width="1.6" stroke-linecap="round" stroke-linejoin="round"/><polyline points="30.76,28.29 20.86,28.29" fill="none" stroke="#111" stroke-width="1.6" stroke-linecap="round" stroke-linejoin="round"/><polyline points="30.76,28.29 37.45,28.29 37.45,43.64" fill="none" stroke="#111" stroke-width="1.6" stroke-linecap="round" stroke-linejoin="round"/><polyline points="55.03,17.14 57.5,17.14" fill="none" stroke="#111" stroke-width="1.6" stroke-linecap="round" stroke-linejoin="round"/><polyline points="55.03,19.62 57.5,19.62" fill="none" stroke="#111" stroke-width="1.6" stroke-linecap="round" stroke-linejoin="round"/><polyline points="55.03,22.1 57.5,22.1" fill="none" stroke="#111" stroke-width="1.6" stroke-linecap="round" stroke-linejoin="round"/><polyline points="55.03,24.82 57.5,24.82" fill="none" stroke="#111" stroke-width="1.6" stroke-linecap="round" stroke-linejoin="round"/><polyline points="55.03,27.3 57.5,27.3" fill="none" stroke="#111" stroke-width="1.6" stroke-linecap="round" stroke-linejoin="round"/><polyline points="57.5,12.19 55.03,12.19" fill="none" stroke="#111" stroke-width="1.6" stroke-linecap="round" stroke-linejoin="round"/><polyline points="57.5,14.67 55.03,14.67" fill="none" stroke="#111" stroke-width="1.6" stroke-linecap="round" stroke-linejoin="round"/><polyline points="57.5,29.77 55.03,29.77" fill="none" stroke="#111" stroke-width="1.6" stroke-linecap="round" stroke-linejoin="round"/><polyline points="12.19,13.43 15.9,13.43" fill="none" stroke="#111" stroke-width="1.6" stroke-linecap="round" stroke-linejoin="round"/><polyline points="13.68,53.05 37.45,53.05 37.45,43.64" fill="none" stroke="#111" stroke-width="1.6" stroke-linecap="round" stroke-linejoin="round"/><polyline points="14.67,13.43 14.67,28.29 15.9,28.29" fill="none" stroke="#111" stroke-width="1.6" stroke-linecap="round" stroke-linejoin="round"/><polyline points="14.67,43.14 35.71,43.14 35.71,37.7 41.9,37.7" fill="none" stroke="#111" stroke-width="1.6" stroke-linecap="round" stroke-linejoin="round"/><polyline points="14.67,48.1 39.68,48.1 39.68,40.67" fill="none" stroke="#111" stroke-width="1.6" stroke-linecap="round" stroke-linejoin="round"/><polyline points="44.63,34.72 33.24,34.72 33.24,38.19" fill="none" stroke="#111" stroke-width="1.6" stroke-linecap="round" stroke-linejoin="round"/><polyline points="46.86,40.67 39.68,40.67" fill="none" stroke="#111" stroke-width="1.6" stroke-linecap="round" stroke-linejoin="round"/><polyline points="14.67,38.19 33.24,38.19" fill="none" stroke="#111" stroke-width="1.6" stroke-linecap="round" stroke-linejoin="round"/><path d="M 16.65 23.33 Q 17.89 24.57 16.65 25.81" fill="none" stroke="#111" stroke-width="1.6" stroke-linecap="round"/><path d="M 16.66 8.48 Q 17.89 9.71 16.66 10.95" fill="none" stroke="#111" stroke-width="1.6" stroke-linecap="round"/><path d="M 16.66 25.81 Q 17.89 27.05 16.66 28.29" fill="none" stroke="#111" stroke-width="1.6" stroke-linecap="round"/><path d="M 16.66 28.29 Q 17.89 29.52 16.66 30.76" fill="none" stroke="#111" stroke-width="1.6" stroke-linecap="round"/><path d="M 16.66 30.76 Q 17.89 32 16.66 33.24" fill="none" stroke="#111" stroke-width="1.6" stroke-linecap="round"/><path d="M 16.66 10.95 Q 17.9 12.19 16.66 13.43" fill="none" stroke="#111" stroke-width="1.6" stroke-linecap="round"/><path d="M 16.66 13.43 Q 17.9 14.67 16.66 15.9" fill="none" stroke="#111" stroke-width="1.6" stroke-linecap="round"/><path d="M 16.66 15.9 Q 17.9 17.14 16.66 18.38" fill="none" stroke="#111" stroke-width="1.6" stroke-linecap="round"/><path d="M 20.85 10.95 Q 19.61 9.71 20.85 8.48" fill="none" stroke="#111" stroke-width="1.6" stroke-linecap="round"/><path d="M 20.85 13.43 Q 19.61 12.19 20.85 10.95" fill="none" stroke="#111" stroke-width="1.6" stroke-linecap="round"/><path d="M 20.85 15.9 Q 19.61 14.67 20.85 13.43" fill="none" stroke="#111" stroke-width="1.6" stroke-linecap="round"/><path d="M 20.85 25.81 Q 19.61 24.57 20.85 23.33" fill="none" stroke="#111" stroke-width="1.6" stroke-linecap="round"/><path d="M 20.85 28.29 Q 19.61 27.05 20.85 25.81" fill="none" stroke="#111" stroke-width="1.6" stroke-linecap="round"/><path d="M 20.85 30.76 Q 19.61 29.52 20.85 28.29" fill="none" stroke="#111" stroke-width="1.6" stroke-linecap="round"/><path d="M 20.85 18.38 Q 19.62 17.14 20.85 15.9" fill="none" stroke="#111" stroke-width="1.6" stroke-linecap="round"/><path d="M 20.85 33.24 Q 19.62 32 20.85 30.76" fill="none" stroke="#111" stroke-width="1.6" stroke-linecap="round"/><path d="M 25.81 9.72 Q 24.57 10.95 23.33 9.72" fill="none" stroke="#111" stroke-width="1.6" stroke-linecap="round"/><path d="M 23.33 16.89 Q 24.57 15.66 25.81 16.89" fill="none" stroke="#111" stroke-width="1.6" stroke-linecap="round"/><path d="M 23.33 31.75 Q 24.57 30.51 25.81 31.75" fill="none" stroke="#111" stroke-width="1.6" stroke-linecap="round"/><path d="M 25.93 24.7 Q 24.7 25.93 23.46 24.7" fill="none" stroke="#111" stroke-width="1.6" stroke-linecap="round"/><path d="M 28.29 9.71 Q 27.05 10.95 25.81 9.71" fill="none" stroke="#111" stroke-width="1.6" stroke-linecap="round"/><path d="M 25.81 16.88 Q 27.05 15.65 28.29 16.88" fill="none" stroke="#111" stroke-width="1.6" stroke-linecap="round"/><path d="M 25.81 31.74 Q 27.05 30.51 28.29 31.74" fill="none" stroke="#111" stroke-width="1.6" stroke-linecap="round"/><path d="M 28.41 24.7 Q 27.17 25.93 25.93 24.7" fill="none" stroke="#111" stroke-width="1.6" stroke-linecap="round"/><polyline points="37.45,43.64 44.38,43.64" fill="none" stroke="#111" stroke-width="1.6" stroke-linecap="round" stroke-linejoin="round"/><polyline points="44.38,37.7 41.9,37.7" fill="none" stroke="#111" stroke-width="1.6" stroke-linecap="round" stroke-linejoin="round"/><polyline points="44.63,29.52 44.63,34.72" fill="none" stroke="#111" stroke-width="1.6" stroke-linecap="round" stroke-linejoin="round"/><polyline points="44.63,34.72 47.85,34.72" fill="none" stroke="#111" stroke-width="1.6" stroke-linecap="round" stroke-linejoin="round"/><polyline points="45.62,43.64 51.81,43.64" fill="none" stroke="#111" stroke-width="1.6" stroke-linecap="round" stroke-linejoin="round"/><polyline points="46.61,13.43 41.9,13.43 41.9,37.7" fill="none" stroke="#111" stroke-width="1.6" stroke-linecap="round" stroke-linejoin="round"/><polyline points="46.86,40.67 48.1,40.67" fill="none" stroke="#111" stroke-width="1.6" stroke-linecap="round" stroke-linejoin="round"/><polyline points="49.58,34.72 51.56,34.72" fill="none" stroke="#111" stroke-width="1.6" stroke-linecap="round" stroke-linejoin="round"/><polyline points="49.83,40.67 51.81,40.67" fill="none" stroke="#111" stroke-width="1.6" stroke-linecap="round" stroke-linejoin="round"/><polyline points="51.56,37.7 45.62,37.7" fill="none" stroke="#111" stroke-width="1.6" stroke-linecap="round" stroke-linejoin="round"/><rect x="51.81" y="33.73" width="5.45" height="1.98" fill="none" stroke="#111" stroke-width="1.6"/><rect x="51.81" y="36.7" width="5.45" height="1.99" fill="none" stroke="#111" stroke-width="1.6"/><rect x="51.81" y="39.68" width="5.45" height="1.98" fill="none" stroke="#111" stroke-width="1.6"/><rect x="51.81" y="42.65" width="5.45" height="1.98" fill="none" stroke="#111" stroke-width="1.6"/><polyline points="55.03,32.25 55.03,9.71 70.38,9.71 70.38,14.67 72.36,14.67 72.36,17.39 74.84,17.39 74.84,24.57 72.36,24.57 72.36,27.3 70.38,27.3 70.38,32.25 55.03,32.25" fill="none" stroke="#111" stroke-width="1.6" stroke-linecap="round" stroke-linejoin="round"/><polyline points="58.25,37.7 58.25,40.67" fill="none" stroke="#111" stroke-width="1.6" stroke-linecap="round" stroke-linejoin="round"/><polyline points="60.48,40.67 60.48,42.15" fill="none" stroke="#111" stroke-width="1.6" stroke-linecap="round" stroke-linejoin="round"/><polyline points="60.48,43.64 60.48,58" fill="none" stroke="#111" stroke-width="1.6" stroke-linecap="round" stroke-linejoin="round"/></svg>