<svg xmlns="http://www.w3.org/2000/svg" width="96" height="64" viewBox="0 0 96 64"><circle cx="11.2" cy="21.6" r="1.04" fill="none" stroke="#111" stroke-width="1.6"/><circle cx="14.32" cy="32" r="1.04" fill="none" stroke="#111" stroke-width="1.6"/><polyline points="19.52,19 19.52,23.68" fill="none" stroke="#111" stroke-width="1.6" stroke-linecap="round" stroke-linejoin="round"/><polyline points="19.52,21.6 8.08,21.6" fill="none" stroke="#111" stroke-width="1.6" stroke-linecap="round" stroke-linejoin="round"/><polyline points="19.52,29.92 19.52,35.12" fill="none" stroke="#111" stroke-width="1.6" stroke-linecap="round" stroke-linejoin="round"/><polyline points="19.52,32 8.08,32" fill="none" stroke="#111" stroke-width="1.6" stroke-linecap="round" stroke-linejoin="round"/><polyline points="19.52,41.36 19.52,45.52" fill="none" stroke="#111" stroke-width="1.6" stroke-linecap="round" stroke-linejoin="round"/><polyline points="19.52,43.44 17.44,41.36 17.44,45.52 19.52,43.44" fill="none" stroke="#111" stroke-width="1.6" stroke-linecap="round" stroke-linejoin="round"/><polyline points="19.52,45.52 19,46.04" fill="none" stroke="#111" stroke-width="1.6" stroke-linecap="round" stroke-linejoin="round"/><polyline points="19.52,48.64 19.52,52.8" fill="none" stroke="#111" stroke-width="1.6" stroke-linecap="round" stroke-linejoin="round"/><polyline points="19.52,50.72 17.44,48.64 17.44,52.8 19.52,50.72" fill="none" stroke="#111" stroke-width="1.6" stroke-linecap="round" stroke-linejoin="round"/><polyline points="19.52,52.8 19,53.32" fill="none" stroke="#111" stroke-width="1.6" stroke-linecap="round" stroke-linejoin="round"/><polyline points="20.04,40.84 19.52,41.36" fill="none" stroke="#111" stroke-width="1.6" stroke-linecap="round" stroke-linejoin="round"/><polyline points="20.04,48.12 19.52,48.64" fill="none" stroke="#111" stroke-width="1.6" stroke-linecap="round" stroke-linejoin="round"/><polyline points="21.6,17.44 21.6,36.16" fill="none" stroke="#111" stroke-width="1.6" stroke-linecap="round" stroke-linejoin="round"/><polyline points="21.6,19.52 28.88,19.52" fill="none" stroke="#111" stroke-width="1.6" stroke-linecap="round" stroke-linejoin="round"/><polyline points="21.6,34.08 28.88,34.08" fill="none" stroke="#111" stroke-width="1.6" stroke-linecap="round" stroke-linejoin="round"/><polyline points="22.64,26.8 26.8,25.24 26.8,28.36 22.64,26.8" fill="none" stroke="#111" stroke-width="1.6" stroke-linecap="round" stroke-linejoin="round"/><polyline points="23.68,41.36 23.68,45.52" fill="none" stroke="#111" stroke-width="1.6" stroke-linecap="round" stroke-linejoin="round"/><polyline points="23.68,43.44 25.76,41.36 25.76,45.52 23.68,43.44" fill="none" stroke="#111" stroke-width="1.6" stroke-linecap="round" stroke-linejoin="round"/><polyline points="23.68,45.52 23.16,46.04" fill="none" stroke="#111" stroke-width="1.6" stroke-linecap="round" stroke-linejoin="round"/><polyline points="23.68,48.64 23.68,52.8" fill="none" stroke="#111" stroke-width="1.6" stroke-linecap="round" stroke-linejoin="round"/><polyline points="23.68,50.72 25.76,48.64 25.76,52.8 23.68,50.72" fill="none" stroke="#111" stroke-width="1.6" stroke-linecap="round" stroke-linejoin="round"/><polyline points="23.68,52.8 23.16,53.32" fill="none" stroke="#111" stroke-width="1.6" stroke-linecap="round" stroke-linejoin="round"/><polyline points="24.2,40.84 23.68,41.36" fill="none" stroke="#111" stroke-width="1.6" stroke-linecap="round" stroke-linejoin="round"/><polyline points="24.2,48.12 23.68,48.64" fill="none" stroke="#111" stroke-width="1.6" stroke-linecap="round" stroke-linejoin="round"/><polyline points="28.88,6 28.88,19.52" fill="none" stroke="#111" stroke-width="1.6" stroke-linecap="round" stroke-linejoin="round"/><circle cx="28.88" cy="16.4" r="1.04" fill="none" stroke="#111" stroke-width="1.6"/><circle cx="28.88" cy="34.08" r="1.04" fill="none" stroke="#111" stroke-width="1.6"/><polyline points="28.88,43.44 14.32,43.44 14.32,32" fill="none" stroke="#111" stroke-width="1.6" stroke-linecap="round" stroke-linejoin="round"/><circle cx="28.88" cy="43.44" r="1.04" fill="none" stroke="#111" stroke-width="1.6"/><circle cx="28.88" cy="50.72" r="1.04" fill="none" stroke="#111" stroke-width="1.6"/><polyline points="28.88,58 28.88,26.8 21.6,26.8" fill="none" stroke="#111" stroke-width="1.6" stroke-linecap="round" stroke-linejoin="round"/><polyline points="29.92,50.72 33.56,50.72 33.56,16.4 29.92,16.4" fill="none" stroke="#111" stroke-width="1.6" stroke-linecap="round" stroke-linejoin="round"/><polyline points="33.56,31.48 35.64,33.56 31.48,33.56 33.56,31.48" fill="none" stroke="#111" stroke-width="1.6" stroke-linecap="round" stroke-linejoin="round"/><polyline points="35.64,31.48 36.16,32" fill="none" stroke="#111" stroke-width="1.6" stroke-linecap="round" stroke-linejoin="round"/><polyline points="35.64,31.48 31.48,31.48 30.96,30.96" fill="none" stroke="#111" stroke-width="1.6" stroke-linecap="round" stroke-linejoin="round"/><polyline points="6,44.48 6,23.68" fill="none" stroke="#111" stroke-width="1.6" stroke-linecap="round" stroke-linejoin="round"/><path d="M 21.6 58 Q 11 54.47 6 44.48" fill="none" stroke="#111" stroke-width="1.6" stroke-linecap="round"/><path d="M 6 23.68 Q 10.79 13.17 21.6 9.12" fill="none" stroke="#111" stroke-width="1.6" stroke-linecap="round"/><path d="M 21.6 9.12 Q 32.41 13.17 37.2 23.68" fill="none" stroke="#111" stroke-width="1.6" stroke-linecap="round"/><path d="M 37.2 44.48 Q 32.2 54.47 21.6 58" fill="none" stroke="#111" stroke-width="1.6" stroke-linecap="round"/><polyline points="28.88,50.72 11.2,50.72 11.2,21.6" fill="none" stroke="#111" stroke-width="1.6" stroke-linecap="round" stroke-linejoin="round"/><polyline points="37.2,23.68 37.2,44.48" fill="none" stroke="#111" stroke-width="1.6" stroke-linecap="round" stroke-linejoin="round"/></svg>