<svg xmlns="http://www.w3.org/2000/svg" width="96" height="64" viewBox="0 0 96 64"><polyline points="6,36.73 15.45,36.73" fill="none" stroke="#111" stroke-width="1.6" stroke-linecap="round" stroke-linejoin="round"/><circle cx="15.45" cy="36.73" r="1.3" fill="none" stroke="#111" stroke-width="1.6"/><polyline points="21.36,19 21.36,30.82 33.18,24.91 21.36,19" fill="none" stroke="#111" stroke-width="1.6" stroke-linecap="round" stroke-linejoin="round"/><polyline points="21.36,42.64 21.36,54.45 33.18,48.55 21.36,42.64" fill="none" stroke="#111" stroke-width="1.6" stroke-linecap="round" stroke-linejoin="round"/><circle cx="27.27" cy="36.73" r="21.27" fill="none" stroke="#111" stroke-width="1.6"/><polyline points="33.18,19 33.18,30.82" fill="none" stroke="#111" stroke-width="1.6" stroke-linecap="round" stroke-linejoin="round"/><polyline points="33.18,42.64 33.18,54.45" fill="none" stroke="#111" stroke-width="1.6" stroke-linecap="round" stroke-linejoin="round"/><polyline points="36.73,13.09 43.82,6 40.27,6 43.82,6 43.82,9.55" fill="none" stroke="#111" stroke-width="1.6" stroke-linecap="round" stroke-linejoin="round"/><polyline points="36.73,24.91 15.45,24.91 15.45,48.55 36.73,48.55" fill="none" stroke="#111" stroke-width="1.6" stroke-linecap="round" stroke-linejoin="round"/><polyline points="42.64,17.82 49.73,10.73 46.18,10.73 49.73,10.73 49.73,14.27" fill="none" stroke="#111" stroke-width="1.6" stroke-linecap="round" stroke-linejoin="round"/><polyline points="45,24.91 36.14,24.91" fill="none" stroke="#111" stroke-width="1.6" stroke-linecap="round" stroke-linejoin="round"/><polyline points="45,48.55 36.14,48.55" fill="none" stroke="#111" stroke-width="1.6" stroke-linecap="round" stroke-linejoin="round"/></svg>