<svg xmlns="http://www.w3.org/2000/svg" width="96" height="64" viewBox="0 0 96 64"><rect x="6" y="6" width="4.33" height="52" fill="none" stroke="#111" stroke-width="1.6"/><polyline points="7.26,7.6 8.73,9.03" fill="none" stroke="#111" stroke-width="1.6" stroke-linecap="round" stroke-linejoin="round"/><polyline points="7.26,11.94 8.73,13.37" fill="none" stroke="#111" stroke-width="1.6" stroke-linecap="round" stroke-linejoin="round"/><polyline points="7.26,16.27 8.73,17.7" fill="none" stroke="#111" stroke-width="1.6" stroke-linecap="round" stroke-linejoin="round"/><polyline points="7.26,20.6 8.73,22.03" fill="none" stroke="#111" stroke-width="1.6" stroke-linecap="round" stroke-linejoin="round"/><polyline points="7.26,24.94 8.73,26.37" fill="none" stroke="#111" stroke-width="1.6" stroke-linecap="round" stroke-linejoin="round"/><polyline points="7.26,29.27 8.73,30.7" fill="none" stroke="#111" stroke-width="1.6" stroke-linecap="round" stroke-linejoin="round"/><polyline points="7.26,33.6 8.73,35.03" fill="none" stroke="#111" stroke-width="1.6" stroke-linecap="round" stroke-linejoin="round"/><polyline points="7.26,37.94 8.73,39.37" fill="none" stroke="#111" stroke-width="1.6" stroke-linecap="round" stroke-linejoin="round"/><polyline points="7.26,42.27 8.73,43.7" fill="none" stroke="#111" stroke-width="1.6" stroke-linecap="round" stroke-linejoin="round"/><polyline points="7.26,46.6 8.73,48.03" fill="none" stroke="#111" stroke-width="1.6" stroke-linecap="round" stroke-linejoin="round"/><polyline points="7.26,50.94 8.73,52.37" fill="none" stroke="#111" stroke-width="1.6" stroke-linecap="round" stroke-linejoin="round"/><polyline points="7.26,55.27 8.73,56.7" fill="none" stroke="#111" stroke-width="1.6" stroke-linecap="round" stroke-linejoin="round"/><polyline points="7.56,7.3 9.03,8.73" fill="none" stroke="#111" stroke-width="1.6" stroke-linecap="round" stroke-linejoin="round"/><polyline points="7.56,11.63 9.03,13.06" fill="none" stroke="#111" stroke-width="1.6" stroke-linecap="round" stroke-linejoin="round"/><polyline points="7.56,15.97 9.03,17.4" fill="none" stroke="#111" stroke-width="1.6" stroke-linecap="round" stroke-linejoin="round"/><polyline points="7.56,20.3 9.03,21.73" fill="none" stroke="#111" stroke-width="1.6" stroke-linecap="round" stroke-linejoin="round"/><polyline points="7.56,24.63 9.03,26.06" fill="none" stroke="#111" stroke-width="1.6" stroke-linecap="round" stroke-linejoin="round"/><polyline points="7.56,28.97 9.03,30.4" fill="none" stroke="#111" stroke-width="1.6" stroke-linecap="round" stroke-linejoin="round"/><polyline points="7.56,33.3 9.03,34.73" fill="none" stroke="#111" stroke-width="1.6" stroke-linecap="round" stroke-linejoin="round"/><polyline points="7.56,37.63 9.03,39.06" fill="none" stroke="#111" stroke-width="1.6" stroke-linecap="round" stroke-linejoin="round"/><polyline points="7.56,41.97 9.03,43.4" fill="none" stroke="#111" stroke-width="1.6" stroke-linecap="round" stroke-linejoin="round"/><polyline points="7.56,46.3 9.03,47.73" fill="none" stroke="#111" stroke-width="1.6" stroke-linecap="round" stroke-linejoin="round"/><polyline points="7.56,50.63 9.03,52.06" fill="none" stroke="#111" stroke-width="1.6" stroke-linecap="round" stroke-linejoin="round"/><polyline points="7.56,54.97 9.03,56.4" fill="none" stroke="#111" stroke-width="1.6" stroke-linecap="round" stroke-linejoin="round"/><circle cx="8.17" cy="8.17" r="1.08" fill="none" stroke="#111" stroke-width="1.6"/><circle cx="8.17" cy="12.5" r="1.08" fill="none" stroke="#111" stroke-width="1.6"/><circle cx="8.17" cy="16.83" r="1.08" fill="none" stroke="#111" stroke-width="1.6"/><circle cx="8.17" cy="21.17" r="1.08" fill="none" stroke="#111" stroke-width="1.6"/><circle cx="8.17" cy="25.5" r="1.08" fill="none" stroke="#111" stroke-width="1.6"/><circle cx="8.17" cy="29.83" r="1.08" fill="none" stroke="#111" stroke-width="1.6"/><circle cx="8.17" cy="34.17" r="1.08" fill="none" stroke="#111" stroke-width="1.6"/><circle cx="8.17" cy="38.5" r="1.08" fill="none" stroke="#111" stroke-width="1.6"/><circle cx="8.17" cy="42.83" r="1.08" fill="none" stroke="#111" stroke-width="1.6"/><circle cx="8.17" cy="47.17" r="1.08" fill="none" stroke="#111" stroke-width="1.6"/><circle cx="8.17" cy="51.5" r="1.08" fill="none" stroke="#111" stroke-width="1.6"/><circle cx="8.17" cy="55.83" r="1.08" fill="none" stroke="#111" stroke-width="1.6"/></svg>