<svg xmlns="http://www.w3.org/2000/svg" width="96" height="64" viewBox="0 0 96 64"><rect x="6" y="6" width="84" height="30" fill="none" stroke="#111" stroke-width="1.6"/><circle cx="12" cy="10.2" r="1.2" fill="none" stroke="#111" stroke-width="1.6"/><polyline points="12,10.2 84,10.2" fill="none" stroke="#111" stroke-width="1.6" stroke-linecap="round" stroke-linejoin="round"/><polyline points="12,10.2 12,13.8 15.6,15.48 8.4,18.6 15.6,21.72 8.4,24.96 15.6,28.2 8.4,31.32 12,33 12,39" fill="none" stroke="#111" stroke-width="1.6" stroke-linecap="round" stroke-linejoin="round"/><circle cx="24" cy="10.2" r="1.2" fill="none" stroke="#111" stroke-width="1.6"/><polyline points="24,10.2 24,13.8 27.6,15.48 20.4,18.6 27.6,21.72 20.4,24.96 27.6,28.2 20.4,31.32 24,33 24,39" fill="none" stroke="#111" stroke-width="1.6" stroke-linecap="round" stroke-linejoin="round"/><circle cx="36" cy="10.2" r="1.2" fill="none" stroke="#111" stroke-width="1.6"/><polyline points="36,10.2 36,13.8 39.6,15.48 32.4,18.6 39.6,21.72 32.4,24.96 39.6,28.2 32.4,31.32 36,33 36,39" fill="none" stroke="#111" stroke-width="1.6" stroke-linecap="round" stroke-linejoin="round"/><circle cx="48" cy="10.2" r="1.2" fill="none" stroke="#111" stroke-width="1.6"/><polyline points="48,10.2 48,13.8 51.6,15.48 44.4,18.6 51.6,21.72 44.4,24.96 51.6,28.2 44.4,31.32 48,33 48,39" fill="none" stroke="#111" stroke-width="1.6" stroke-linecap="round" stroke-linejoin="round"/><polyline points="60,10.2 60,13.8 63.6,15.48 56.4,18.6 63.6,21.72 56.4,24.96 63.6,28.2 56.4,31.32 60,33 60,39" fill="none" stroke="#111" stroke-width="1.6" stroke-linecap="round" stroke-linejoin="round"/><circle cx="60" cy="10.2" r="1.2" fill="none" stroke="#111" stroke-width="1.6"/><polyline points="72,10.2 72,13.8 75.6,15.48 68.4,18.6 75.6,21.72 68.4,24.96 75.6,28.2 68.4,31.32 72,33 72,39" fill="none" stroke="#111" stroke-width="1.6" stroke-linecap="round" stroke-linejoin="round"/><circle cx="72" cy="10.2" r="1.2" fill="none" stroke="#111" stroke-width="1.6"/><polyline points="84,10.2 84,13.8 87.6,15.48 80.4,18.6 87.6,21.72 80.4,24.96 87.6,28.2 80.4,31.32 84,33 84,39" fill="none" stroke="#111" stroke-width="1.6" stroke-linecap="round" stroke-linejoin="round"/></svg>