<svg xmlns="http://www.w3.org/2000/svg" width="96" height="64" viewBox="0 0 96 64"><rect x="6" y="6" width="84" height="19.09" fill="none" stroke="#111" stroke-width="1.6"/><rect x="7.53" y="10.96" width="4.58" height="12.22" fill="none" stroke="#111" stroke-width="1.6"/><circle cx="9.82" cy="8.67" r="0.76" fill="none" stroke="#111" stroke-width="1.6"/><polyline points="9.82,10.96 9.82,8.67 17.45,8.67 17.45,10.96" fill="none" stroke="#111" stroke-width="1.6" stroke-linecap="round" stroke-linejoin="round"/><polyline points="9.82,23.18 9.82,27" fill="none" stroke="#111" stroke-width="1.6" stroke-linecap="round" stroke-linejoin="round"/><rect x="15.16" y="10.96" width="4.59" height="12.22" fill="none" stroke="#111" stroke-width="1.6"/><circle cx="17.45" cy="8.67" r="0.76" fill="none" stroke="#111" stroke-width="1.6"/><polyline points="17.45,10.96 17.45,8.67 25.09,8.67 25.09,10.96" fill="none" stroke="#111" stroke-width="1.6" stroke-linecap="round" stroke-linejoin="round"/><polyline points="17.45,23.18 17.45,27" fill="none" stroke="#111" stroke-width="1.6" stroke-linecap="round" stroke-linejoin="round"/><rect x="22.8" y="10.96" width="4.58" height="12.22" fill="none" stroke="#111" stroke-width="1.6"/><circle cx="25.09" cy="8.67" r="0.76" fill="none" stroke="#111" stroke-width="1.6"/><polyline points="25.09,10.96 25.09,8.67 32.73,8.67 32.73,10.96" fill="none" stroke="#111" stroke-width="1.6" stroke-linecap="round" stroke-linejoin="round"/><polyline points="25.09,23.18 25.09,27" fill="none" stroke="#111" stroke-width="1.6" stroke-linecap="round" stroke-linejoin="round"/><rect x="30.44" y="10.96" width="4.58" height="12.22" fill="none" stroke="#111" stroke-width="1.6"/><circle cx="32.73" cy="8.67" r="0.76" fill="none" stroke="#111" stroke-width="1.6"/><polyline points="32.73,10.96 32.73,8.67 40.36,8.67 40.36,10.96" fill="none" stroke="#111" stroke-width="1.6" stroke-linecap="round" stroke-linejoin="round"/><polyline points="32.73,23.18 32.73,27" fill="none" stroke="#111" stroke-width="1.6" stroke-linecap="round" stroke-linejoin="round"/><rect x="38.07" y="10.96" width="4.58" height="12.22" fill="none" stroke="#111" stroke-width="1.6"/><circle cx="40.36" cy="8.67" r="0.76" fill="none" stroke="#111" stroke-width="1.6"/><polyline points="40.36,10.96 40.36,8.67 48,8.67 48,10.96" fill="none" stroke="#111" stroke-width="1.6" stroke-linecap="round" stroke-linejoin="round"/><polyline points="40.36,23.18 40.36,27" fill="none" stroke="#111" stroke-width="1.6" stroke-linecap="round" stroke-linejoin="round"/><rect x="45.71" y="10.96" width="4.58" height="12.22" fill="none" stroke="#111" stroke-width="1.6"/><circle cx="48" cy="8.67" r="0.76" fill="none" stroke="#111" stroke-width="1.6"/><polyline points="48,10.96 48,8.67 55.64,8.67 55.64,10.96" fill="none" stroke="#111" stroke-width="1.6" stroke-linecap="round" stroke-linejoin="round"/><polyline points="48,23.18 48,27" fill="none" stroke="#111" stroke-width="1.6" stroke-linecap="round" stroke-linejoin="round"/><rect x="53.35" y="10.96" width="4.58" height="12.22" fill="none" stroke="#111" stroke-width="1.6"/><circle cx="55.64" cy="8.67" r="0.76" fill="none" stroke="#111" stroke-width="1.6"/><polyline points="55.64,10.96 55.64,8.67 63.27,8.67 63.27,10.96" fill="none" stroke="#111" stroke-width="1.6" stroke-linecap="round" stroke-linejoin="round"/><polyline points="55.64,23.18 55.64,27" fill="none" stroke="#111" stroke-width="1.6" stroke-linecap="round" stroke-linejoin="round"/><rect x="60.98" y="10.96" width="4.58" height="12.22" fill="none" stroke="#111" stroke-width="1.6"/><circle cx="63.27" cy="8.67" r="0.76" fill="none" stroke="#111" stroke-width="1.6"/><polyline points="63.27,10.96 63.27,8.67 70.91,8.67 70.91,10.96" fill="none" stroke="#111" stroke-width="1.6" stroke-linecap="round" stroke-linejoin="round"/><polyline points="63.27,23.18 63.27,27" fill="none" stroke="#111" stroke-width="1.6" stroke-linecap="round" stroke-linejoin="round"/><rect x="68.62" y="10.96" width="4.58" height="12.22" fill="none" stroke="#111" stroke-width="1.6"/><circle cx="70.91" cy="8.67" r="0.76" fill="none" stroke="#111" stroke-width="1.6"/><polyline points="70.91,10.96 70.91,8.67 78.55,8.67 78.55,10.96" fill="none" stroke="#111" stroke-width="1.6" stroke-linecap="round" stroke-linejoin="round"/><polyline points="70.91,23.18 70.91,27" fill="none" stroke="#111" stroke-width="1.6" stroke-linecap="round" stroke-linejoin="round"/><rect x="76.25" y="10.96" width="4.59" height="12.22" fill="none" stroke="#111" stroke-width="1.6"/><circle cx="78.55" cy="8.67" r="0.76" fill="none" stroke="#111" stroke-width="1.6"/><polyline points="78.55,10.96 78.55,8.67 86.18,8.67 86.18,10.96" fill="none" stroke="#111" stroke-width="1.6" stroke-linecap="round" stroke-linejoin="round"/><polyline points="78.55,23.18 78.55,27" fill="none" stroke="#111" stroke-width="1.6" stroke-linecap="round" stroke-linejoin="round"/><rect x="83.89" y="10.96" width="4.58" height="12.22" fill="none" stroke="#111" stroke-width="1.6"/><polyline points="86.18,23.18 86.18,27" fill="none" stroke="#111" stroke-width="1.6" stroke-linecap="round" stroke-linejoin="round"/></svg>