<svg xmlns="http://www.w3.org/2000/svg" width="96" height="64" viewBox="0 0 96 64"><polyline points="6,26.35 6,26.35" fill="none" stroke="#111" stroke-width="1.6" stroke-linecap="round" stroke-linejoin="round"/><polyline points="8.26,12.78 15.04,12.78 15.04,21.83 8.26,21.83 15.04,21.83 15.04,35.39 8.26,35.39 8.26,35.39" fill="none" stroke="#111" stroke-width="1.6" stroke-linecap="round" stroke-linejoin="round"/><polyline points="21.83,40.82 21.83,43.53 24.54,42.17 21.83,40.82 21.83,40.82" fill="none" stroke="#111" stroke-width="1.6" stroke-linecap="round" stroke-linejoin="round"/><polyline points="28.16,40.82 25.44,40.82 26.8,43.53 28.16,40.82 28.16,40.82" fill="none" stroke="#111" stroke-width="1.6" stroke-linecap="round" stroke-linejoin="round"/><rect x="8.26" y="39.91" width="27.13" height="4.52" fill="none" stroke="#111" stroke-width="1.6"/><rect x="8.26" y="44.43" width="27.13" height="4.53" fill="none" stroke="#111" stroke-width="1.6"/><rect x="8.26" y="48.96" width="27.13" height="4.52" fill="none" stroke="#111" stroke-width="1.6"/><rect x="8.26" y="53.48" width="27.13" height="4.52" fill="none" stroke="#111" stroke-width="1.6"/><polyline points="10.52,39.91 10.52,37.65 8.26,37.65 8.26,6 35.39,6 35.39,37.65 33.13,37.65 33.13,39.91 33.13,39.91" fill="none" stroke="#111" stroke-width="1.6" stroke-linecap="round" stroke-linejoin="round"/></svg>