<svg xmlns="http://www.w3.org/2000/svg" width="96" height="64" viewBox="0 0 96 64"><path d="M 29.4 32 Q 32.46 43.7 29.4 55.4" fill="none" stroke="#111" stroke-width="1.6" stroke-linecap="round"/><path d="M 29.4 32 Q 29.25 44.37 21.6 54.1" fill="none" stroke="#111" stroke-width="1.6" stroke-linecap="round"/><path d="M 29.4 32 Q 17.7 35.06 6 32" fill="none" stroke="#111" stroke-width="1.6" stroke-linecap="round"/><path d="M 29.4 32 Q 17.03 31.85 7.3 24.2" fill="none" stroke="#111" stroke-width="1.6" stroke-linecap="round"/><polyline points="29.4,8.6 29.4,6" fill="none" stroke="#111" stroke-width="1.6" stroke-linecap="round" stroke-linejoin="round"/><circle cx="29.4" cy="32" r="23.4" fill="none" stroke="#111" stroke-width="1.6"/><polyline points="29.4,58 29.4,55.4" fill="none" stroke="#111" stroke-width="1.6" stroke-linecap="round" stroke-linejoin="round"/><path d="M 29.4 32 Q 41.77 32.15 51.5 39.8" fill="none" stroke="#111" stroke-width="1.6" stroke-linecap="round"/><path d="M 29.4 32 Q 41.1 28.94 52.8 32" fill="none" stroke="#111" stroke-width="1.6" stroke-linecap="round"/><path d="M 29.4 32 Q 29.57 19.64 37.2 9.9" fill="none" stroke="#111" stroke-width="1.6" stroke-linecap="round"/><path d="M 29.4 32 Q 26.34 20.3 29.4 8.6" fill="none" stroke="#111" stroke-width="1.6" stroke-linecap="round"/></svg>