<svg xmlns="http://www.w3.org/2000/svg" width="96" height="64" viewBox="0 0 96 64"><rect x="6" y="6" width="52" height="52" fill="none" stroke="#111" stroke-width="1.6"/><polyline points="20.95,35.9 20.95,41.1 25.5,38.5 20.95,35.9" fill="none" stroke="#111" stroke-width="1.6" stroke-linecap="round" stroke-linejoin="round"/><polyline points="20.95,38.5 19.65,38.5" fill="none" stroke="#111" stroke-width="1.6" stroke-linecap="round" stroke-linejoin="round"/><circle cx="22.25" cy="25.5" r="0.65" fill="none" stroke="#111" stroke-width="1.6"/><polyline points="22.25,25.5 17.7,25.5" fill="none" stroke="#111" stroke-width="1.6" stroke-linecap="round" stroke-linejoin="round"/><polyline points="24.85,32 22.25,32 22.25,19 24.85,19" fill="none" stroke="#111" stroke-width="1.6" stroke-linecap="round" stroke-linejoin="round"/><circle cx="26.15" cy="38.5" r="0.65" fill="none" stroke="#111" stroke-width="1.6"/><polyline points="28.75,19 28.75,20.95" fill="none" stroke="#111" stroke-width="1.6" stroke-linecap="round" stroke-linejoin="round"/><polyline points="28.75,22.25 28.75,24.2" fill="none" stroke="#111" stroke-width="1.6" stroke-linecap="round" stroke-linejoin="round"/><polyline points="28.75,25.5 28.75,27.45" fill="none" stroke="#111" stroke-width="1.6" stroke-linecap="round" stroke-linejoin="round"/><polyline points="28.75,28.75 28.75,30.7" fill="none" stroke="#111" stroke-width="1.6" stroke-linecap="round" stroke-linejoin="round"/><polyline points="28.75,35.25 28.75,33.3" fill="none" stroke="#111" stroke-width="1.6" stroke-linecap="round" stroke-linejoin="round"/><polyline points="28.75,38.5 26.8,38.5" fill="none" stroke="#111" stroke-width="1.6" stroke-linecap="round" stroke-linejoin="round"/><polyline points="28.75,38.5 28.75,36.55" fill="none" stroke="#111" stroke-width="1.6" stroke-linecap="round" stroke-linejoin="round"/><polyline points="32.65,19 46.3,19" fill="none" stroke="#111" stroke-width="1.6" stroke-linecap="round" stroke-linejoin="round"/><polyline points="32.65,32 46.3,32" fill="none" stroke="#111" stroke-width="1.6" stroke-linecap="round" stroke-linejoin="round"/><circle cx="25.5" cy="19" r="0.65" fill="none" stroke="#111" stroke-width="1.6"/><circle cx="25.5" cy="32" r="0.65" fill="none" stroke="#111" stroke-width="1.6"/><polyline points="26.15,19 31.35,17.05" fill="none" stroke="#111" stroke-width="1.6" stroke-linecap="round" stroke-linejoin="round"/><polyline points="26.15,32 32.33,31.02" fill="none" stroke="#111" stroke-width="1.6" stroke-linecap="round" stroke-linejoin="round"/><circle cx="32" cy="19" r="0.65" fill="none" stroke="#111" stroke-width="1.6"/><circle cx="32" cy="32" r="0.65" fill="none" stroke="#111" stroke-width="1.6"/></svg>