<svg xmlns="http://www.w3.org/2000/svg" width="96" height="64" viewBox="0 0 96 64"><polyline points="42.4,31.63 42.4,33.86" fill="none" stroke="#111" stroke-width="1.6" stroke-linecap="round" stroke-linejoin="round"/><polyline points="56.14,24.57 63.57,24.57 63.57,20.86 65.43,20.86" fill="none" stroke="#111" stroke-width="1.6" stroke-linecap="round" stroke-linejoin="round"/><polyline points="56.14,39.43 63.57,39.43 63.57,43.14 65.43,43.14" fill="none" stroke="#111" stroke-width="1.6" stroke-linecap="round" stroke-linejoin="round"/><polyline points="57.63,32 42.4,32 42.4,30.14" fill="none" stroke="#111" stroke-width="1.6" stroke-linecap="round" stroke-linejoin="round"/><polyline points="59.86,30.89 61.34,32.37 58.37,32.37 59.86,30.89" fill="none" stroke="#111" stroke-width="1.6" stroke-linecap="round" stroke-linejoin="round"/><polyline points="59.86,33.49 59.86,30.14" fill="none" stroke="#111" stroke-width="1.6" stroke-linecap="round" stroke-linejoin="round"/><polyline points="60.97,30.89 61.34,30.51" fill="none" stroke="#111" stroke-width="1.6" stroke-linecap="round" stroke-linejoin="round"/><polyline points="60.97,30.89 58.74,30.89 58.37,31.26" fill="none" stroke="#111" stroke-width="1.6" stroke-linecap="round" stroke-linejoin="round"/><rect x="57.63" y="29.4" width="4.46" height="4.83" fill="none" stroke="#111" stroke-width="1.6"/><rect x="6" y="6" width="59.43" height="52" fill="none" stroke="#111" stroke-width="1.6"/><polyline points="30.14,17.14 22.34,17.14 22.34,39.43 27.17,39.43 27.17,46.86 30.14,46.86 30.14,17.14" fill="none" stroke="#111" stroke-width="1.6" stroke-linecap="round" stroke-linejoin="round"/><polyline points="39.43,24.57 30.14,24.57" fill="none" stroke="#111" stroke-width="1.6" stroke-linecap="round" stroke-linejoin="round"/><polyline points="39.43,39.43 30.14,39.43" fill="none" stroke="#111" stroke-width="1.6" stroke-linecap="round" stroke-linejoin="round"/><polyline points="56.14,24.57 52.43,19 39.43,19 39.43,30.14 52.43,30.14 56.14,24.57" fill="none" stroke="#111" stroke-width="1.6" stroke-linecap="round" stroke-linejoin="round"/><polyline points="56.14,39.43 52.43,33.86 39.43,33.86 39.43,45 52.43,45 56.14,39.43" fill="none" stroke="#111" stroke-width="1.6" stroke-linecap="round" stroke-linejoin="round"/></svg>