<svg xmlns="http://www.w3.org/2000/svg" width="96" height="64" viewBox="0 0 96 64"><polyline points="6,6.41 6.61,6.41" fill="none" stroke="#111" stroke-width="1.6" stroke-linecap="round" stroke-linejoin="round"/><polyline points="6,8.46 6.61,8.46" fill="none" stroke="#111" stroke-width="1.6" stroke-linecap="round" stroke-linejoin="round"/><polyline points="6,10.5 6.61,10.5" fill="none" stroke="#111" stroke-width="1.6" stroke-linecap="round" stroke-linejoin="round"/><polyline points="6,12.55 6.61,12.55" fill="none" stroke="#111" stroke-width="1.6" stroke-linecap="round" stroke-linejoin="round"/><polyline points="6,14.6 6.61,14.6" fill="none" stroke="#111" stroke-width="1.6" stroke-linecap="round" stroke-linejoin="round"/><polyline points="6,16.65 6.61,16.65" fill="none" stroke="#111" stroke-width="1.6" stroke-linecap="round" stroke-linejoin="round"/><polyline points="6,18.69 6.61,18.69" fill="none" stroke="#111" stroke-width="1.6" stroke-linecap="round" stroke-linejoin="round"/><polyline points="6,20.74 6.61,20.74" fill="none" stroke="#111" stroke-width="1.6" stroke-linecap="round" stroke-linejoin="round"/><polyline points="6,22.79 6.61,22.79" fill="none" stroke="#111" stroke-width="1.6" stroke-linecap="round" stroke-linejoin="round"/><polyline points="6,24.83 6.61,24.83" fill="none" stroke="#111" stroke-width="1.6" stroke-linecap="round" stroke-linejoin="round"/><polyline points="6,26.88 6.61,26.88" fill="none" stroke="#111" stroke-width="1.6" stroke-linecap="round" stroke-linejoin="round"/><polyline points="6,28.93 6.61,28.93" fill="none" stroke="#111" stroke-width="1.6" stroke-linecap="round" stroke-linejoin="round"/><polyline points="6,30.98 6.61,30.98" fill="none" stroke="#111" stroke-width="1.6" stroke-linecap="round" stroke-linejoin="round"/><polyline points="6,33.02 6.61,33.02" fill="none" stroke="#111" stroke-width="1.6" stroke-linecap="round" stroke-linejoin="round"/><polyline points="6,35.07 6.61,35.07" fill="none" stroke="#111" stroke-width="1.6" stroke-linecap="round" stroke-linejoin="round"/><polyline points="6,37.12 6.61,37.12" fill="none" stroke="#111" stroke-width="1.6" stroke-linecap="round" stroke-linejoin="round"/><polyline points="6,39.17 6.61,39.17" fill="none" stroke="#111" stroke-width="1.6" stroke-linecap="round" stroke-linejoin="round"/><polyline points="6,41.21 6.61,41.21" fill="none" stroke="#111" stroke-width="1.6" stroke-linecap="round" stroke-linejoin="round"/><polyline points="6,43.26 6.61,43.26" fill="none" stroke="#111" stroke-width="1.6" stroke-linecap="round" stroke-linejoin="round"/><polyline points="6,45.31 6.61,45.31" fill="none" stroke="#111" stroke-width="1.6" stroke-linecap="round" stroke-linejoin="round"/><polyline points="6,47.35 6.61,47.35" fill="none" stroke="#111" stroke-width="1.6" stroke-linecap="round" stroke-linejoin="round"/><polyline points="6,49.4 6.61,49.4" fill="none" stroke="#111" stroke-width="1.6" stroke-linecap="round" stroke-linejoin="round"/><polyline points="6,51.45 6.61,51.45" fill="none" stroke="#111" stroke-width="1.6" stroke-linecap="round" stroke-linejoin="round"/><polyline points="6,53.5 6.61,53.5" fill="none" stroke="#111" stroke-width="1.6" stroke-linecap="round" stroke-linejoin="round"/><polyline points="6,55.54 6.61,55.54" fill="none" stroke="#111" stroke-width="1.6" stroke-linecap="round" stroke-linejoin="round"/><polyline points="6,57.59 6.61,57.59" fill="none" stroke="#111" stroke-width="1.6" stroke-linecap="round" stroke-linejoin="round"/><path d="M 7.02 6.82 Q 6.62 6.41 7.02 6" fill="none" stroke="#111" stroke-width="1.6" stroke-linecap="round"/><path d="M 7.02 8.87 Q 6.62 8.46 7.02 8.05" fill="none" stroke="#111" stroke-width="1.6" stroke-linecap="round"/><path d="M 7.02 10.91 Q 6.62 10.5 7.02 10.09" fill="none" stroke="#111" stroke-width="1.6" stroke-linecap="round"/><path d="M 7.02 12.96 Q 6.62 12.55 7.02 12.14" fill="none" stroke="#111" stroke-width="1.6" stroke-linecap="round"/><path d="M 7.02 15.01 Q 6.62 14.6 7.02 14.19" fill="none" stroke="#111" stroke-width="1.6" stroke-linecap="round"/><path d="M 7.02 17.06 Q 6.62 16.65 7.02 16.24" fill="none" stroke="#111" stroke-width="1.6" stroke-linecap="round"/><path d="M 7.02 19.1 Q 6.62 18.69 7.02 18.28" fill="none" stroke="#111" stroke-width="1.6" stroke-linecap="round"/><path d="M 7.02 21.15 Q 6.62 20.74 7.02 20.33" fill="none" stroke="#111" stroke-width="1.6" stroke-linecap="round"/><path d="M 7.02 23.2 Q 6.62 22.79 7.02 22.38" fill="none" stroke="#111" stroke-width="1.6" stroke-linecap="round"/><path d="M 7.02 25.24 Q 6.62 24.83 7.02 24.43" fill="none" stroke="#111" stroke-width="1.6" stroke-linecap="round"/><path d="M 7.02 27.29 Q 6.62 26.88 7.02 26.47" fill="none" stroke="#111" stroke-width="1.6" stroke-linecap="round"/><path d="M 7.02 29.34 Q 6.62 28.93 7.02 28.52" fill="none" stroke="#111" stroke-width="1.6" stroke-linecap="round"/><path d="M 7.02 31.39 Q 6.62 30.98 7.02 30.57" fill="none" stroke="#111" stroke-width="1.6" stroke-linecap="round"/><path d="M 7.02 33.43 Q 6.62 33.02 7.02 32.61" fill="none" stroke="#111" stroke-width="1.6" stroke-linecap="round"/><path d="M 7.02 35.48 Q 6.62 35.07 7.02 34.66" fill="none" stroke="#111" stroke-width="1.6" stroke-linecap="round"/><path d="M 7.02 37.53 Q 6.62 37.12 7.02 36.71" fill="none" stroke="#111" stroke-width="1.6" stroke-linecap="round"/><path d="M 7.02 39.57 Q 6.62 39.17 7.02 38.76" fill="none" stroke="#111" stroke-width="1.6" stroke-linecap="round"/><path d="M 7.02 41.62 Q 6.62 41.21 7.02 40.8" fill="none" stroke="#111" stroke-width="1.6" stroke-linecap="round"/><path d="M 7.02 43.67 Q 6.62 43.26 7.02 42.85" fill="none" stroke="#111" stroke-width="1.6" stroke-linecap="round"/><path d="M 7.02 45.72 Q 6.62 45.31 7.02 44.9" fill="none" stroke="#111" stroke-width="1.6" stroke-linecap="round"/><path d="M 7.02 47.76 Q 6.62 47.35 7.02 46.94" fill="none" stroke="#111" stroke-width="1.6" stroke-linecap="round"/><path d="M 7.02 49.81 Q 6.62 49.4 7.02 48.99" fill="none" stroke="#111" stroke-width="1.6" stroke-linecap="round"/><path d="M 7.02 51.86 Q 6.62 51.45 7.02 51.04" fill="none" stroke="#111" stroke-width="1.6" stroke-linecap="round"/><path d="M 7.02 53.91 Q 6.62 53.5 7.02 53.09" fill="none" stroke="#111" stroke-width="1.6" stroke-linecap="round"/><path d="M 7.02 55.95 Q 6.62 55.54 7.02 55.13" fill="none" stroke="#111" stroke-width="1.6" stroke-linecap="round"/><path d="M 7.02 58 Q 6.62 57.59 7.02 57.18" fill="none" stroke="#111" stroke-width="1.6" stroke-linecap="round"/></svg>