<svg xmlns="http://www.w3.org/2000/svg" width="96" height="64" viewBox="0 0 96 64"><rect x="6" y="6" width="2.84" height="51.15" fill="none" stroke="#111" stroke-width="1.6"/><rect x="6" y="7.28" width="1.42" height="0.28" fill="none" stroke="#111" stroke-width="1.6"/><rect x="6" y="10.12" width="1.42" height="0.28" fill="none" stroke="#111" stroke-width="1.6"/><rect x="6" y="12.96" width="1.42" height="0.29" fill="none" stroke="#111" stroke-width="1.6"/><rect x="6" y="15.8" width="1.42" height="0.29" fill="none" stroke="#111" stroke-width="1.6"/><rect x="6" y="18.64" width="1.42" height="0.29" fill="none" stroke="#111" stroke-width="1.6"/><rect x="6" y="21.49" width="1.42" height="0.28" fill="none" stroke="#111" stroke-width="1.6"/><rect x="6" y="24.33" width="1.42" height="0.28" fill="none" stroke="#111" stroke-width="1.6"/><rect x="6" y="27.17" width="1.42" height="0.28" fill="none" stroke="#111" stroke-width="1.6"/><rect x="6" y="30.01" width="1.42" height="0.29" fill="none" stroke="#111" stroke-width="1.6"/><rect x="6" y="32.85" width="1.42" height="0.29" fill="none" stroke="#111" stroke-width="1.6"/><rect x="6" y="35.69" width="1.42" height="0.29" fill="none" stroke="#111" stroke-width="1.6"/><rect x="6" y="38.54" width="1.42" height="0.28" fill="none" stroke="#111" stroke-width="1.6"/><rect x="6" y="41.38" width="1.42" height="0.28" fill="none" stroke="#111" stroke-width="1.6"/><rect x="6" y="44.22" width="1.42" height="0.28" fill="none" stroke="#111" stroke-width="1.6"/><rect x="6" y="47.06" width="1.42" height="0.28" fill="none" stroke="#111" stroke-width="1.6"/><rect x="6" y="49.9" width="1.42" height="0.29" fill="none" stroke="#111" stroke-width="1.6"/><rect x="6" y="52.74" width="1.42" height="0.29" fill="none" stroke="#111" stroke-width="1.6"/><rect x="6" y="55.58" width="1.42" height="0.29" fill="none" stroke="#111" stroke-width="1.6"/><polyline points="6.28,58 8.56,58" fill="none" stroke="#111" stroke-width="1.6" stroke-linecap="round" stroke-linejoin="round"/></svg>