<svg xmlns="http://www.w3.org/2000/svg" width="96" height="64" viewBox="0 0 96 64"><rect x="6" y="6" width="3.71" height="52" fill="none" stroke="#111" stroke-width="1.6"/><polyline points="7.08,7.37 8.34,8.6" fill="none" stroke="#111" stroke-width="1.6" stroke-linecap="round" stroke-linejoin="round"/><polyline points="7.08,11.09 8.34,12.31" fill="none" stroke="#111" stroke-width="1.6" stroke-linecap="round" stroke-linejoin="round"/><polyline points="7.08,14.8 8.34,16.03" fill="none" stroke="#111" stroke-width="1.6" stroke-linecap="round" stroke-linejoin="round"/><polyline points="7.08,18.52 8.34,19.74" fill="none" stroke="#111" stroke-width="1.6" stroke-linecap="round" stroke-linejoin="round"/><polyline points="7.08,22.23 8.34,23.46" fill="none" stroke="#111" stroke-width="1.6" stroke-linecap="round" stroke-linejoin="round"/><polyline points="7.08,25.95 8.34,27.17" fill="none" stroke="#111" stroke-width="1.6" stroke-linecap="round" stroke-linejoin="round"/><polyline points="7.08,29.66 8.34,30.89" fill="none" stroke="#111" stroke-width="1.6" stroke-linecap="round" stroke-linejoin="round"/><polyline points="7.08,33.37 8.34,34.6" fill="none" stroke="#111" stroke-width="1.6" stroke-linecap="round" stroke-linejoin="round"/><polyline points="7.08,37.09 8.34,38.31" fill="none" stroke="#111" stroke-width="1.6" stroke-linecap="round" stroke-linejoin="round"/><polyline points="7.08,40.8 8.34,42.03" fill="none" stroke="#111" stroke-width="1.6" stroke-linecap="round" stroke-linejoin="round"/><polyline points="7.08,44.52 8.34,45.74" fill="none" stroke="#111" stroke-width="1.6" stroke-linecap="round" stroke-linejoin="round"/><polyline points="7.08,48.23 8.34,49.46" fill="none" stroke="#111" stroke-width="1.6" stroke-linecap="round" stroke-linejoin="round"/><polyline points="7.08,51.95 8.34,53.17" fill="none" stroke="#111" stroke-width="1.6" stroke-linecap="round" stroke-linejoin="round"/><polyline points="7.08,55.66 8.34,56.89" fill="none" stroke="#111" stroke-width="1.6" stroke-linecap="round" stroke-linejoin="round"/><polyline points="7.34,7.11 8.6,8.34" fill="none" stroke="#111" stroke-width="1.6" stroke-linecap="round" stroke-linejoin="round"/><polyline points="7.34,10.83 8.6,12.05" fill="none" stroke="#111" stroke-width="1.6" stroke-linecap="round" stroke-linejoin="round"/><polyline points="7.34,14.54 8.6,15.77" fill="none" stroke="#111" stroke-width="1.6" stroke-linecap="round" stroke-linejoin="round"/><polyline points="7.34,18.26 8.6,19.48" fill="none" stroke="#111" stroke-width="1.6" stroke-linecap="round" stroke-linejoin="round"/><polyline points="7.34,21.97 8.6,23.2" fill="none" stroke="#111" stroke-width="1.6" stroke-linecap="round" stroke-linejoin="round"/><polyline points="7.34,25.69 8.6,26.91" fill="none" stroke="#111" stroke-width="1.6" stroke-linecap="round" stroke-linejoin="round"/><polyline points="7.34,29.4 8.6,30.63" fill="none" stroke="#111" stroke-width="1.6" stroke-linecap="round" stroke-linejoin="round"/><polyline points="7.34,33.11 8.6,34.34" fill="none" stroke="#111" stroke-width="1.6" stroke-linecap="round" stroke-linejoin="round"/><polyline points="7.34,36.83 8.6,38.05" fill="none" stroke="#111" stroke-width="1.6" stroke-linecap="round" stroke-linejoin="round"/><polyline points="7.34,40.54 8.6,41.77" fill="none" stroke="#111" stroke-width="1.6" stroke-linecap="round" stroke-linejoin="round"/><polyline points="7.34,44.26 8.6,45.48" fill="none" stroke="#111" stroke-width="1.6" stroke-linecap="round" stroke-linejoin="round"/><polyline points="7.34,47.97 8.6,49.2" fill="none" stroke="#111" stroke-width="1.6" stroke-linecap="round" stroke-linejoin="round"/><polyline points="7.34,51.69 8.6,52.91" fill="none" stroke="#111" stroke-width="1.6" stroke-linecap="round" stroke-linejoin="round"/><polyline points="7.34,55.4 8.6,56.63" fill="none" stroke="#111" stroke-width="1.6" stroke-linecap="round" stroke-linejoin="round"/><circle cx="7.86" cy="7.86" r="0.93" fill="none" stroke="#111" stroke-width="1.6"/><circle cx="7.86" cy="11.57" r="0.93" fill="none" stroke="#111" stroke-width="1.6"/><circle cx="7.86" cy="15.29" r="0.93" fill="none" stroke="#111" stroke-width="1.6"/><circle cx="7.86" cy="19" r="0.93" fill="none" stroke="#111" stroke-width="1.6"/><circle cx="7.86" cy="22.71" r="0.93" fill="none" stroke="#111" stroke-width="1.6"/><circle cx="7.86" cy="26.43" r="0.93" fill="none" stroke="#111" stroke-width="1.6"/><circle cx="7.86" cy="30.14" r="0.93" fill="none" stroke="#111" stroke-width="1.6"/><circle cx="7.86" cy="33.86" r="0.93" fill="none" stroke="#111" stroke-width="1.6"/><circle cx="7.86" cy="37.57" r="0.93" fill="none" stroke="#111" stroke-width="1.6"/><circle cx="7.86" cy="41.29" r="0.93" fill="none" stroke="#111" stroke-width="1.6"/><circle cx="7.86" cy="45" r="0.93" fill="none" stroke="#111" stroke-width="1.6"/><circle cx="7.86" cy="48.71" r="0.93" fill="none" stroke="#111" stroke-width="1.6"/><circle cx="7.86" cy="52.43" r="0.93" fill="none" stroke="#111" stroke-width="1.6"/><circle cx="7.86" cy="56.14" r="0.93" fill="none" stroke="#111" stroke-width="1.6"/></svg>