<svg xmlns="http://www.w3.org/2000/svg" width="96" height="64" viewBox="0 0 96 64"><rect x="6" y="6" width="1.73" height="52" fill="none" stroke="#111" stroke-width="1.6"/><rect x="6" y="6.78" width="0.87" height="0.17" fill="none" stroke="#111" stroke-width="1.6"/><rect x="6" y="8.51" width="0.87" height="0.18" fill="none" stroke="#111" stroke-width="1.6"/><rect x="6" y="10.25" width="0.87" height="0.17" fill="none" stroke="#111" stroke-width="1.6"/><rect x="6" y="11.98" width="0.87" height="0.17" fill="none" stroke="#111" stroke-width="1.6"/><rect x="6" y="13.71" width="0.87" height="0.18" fill="none" stroke="#111" stroke-width="1.6"/><rect x="6" y="15.45" width="0.87" height="0.17" fill="none" stroke="#111" stroke-width="1.6"/><rect x="6" y="17.18" width="0.87" height="0.17" fill="none" stroke="#111" stroke-width="1.6"/><rect x="6" y="18.91" width="0.87" height="0.18" fill="none" stroke="#111" stroke-width="1.6"/><rect x="6" y="20.65" width="0.87" height="0.17" fill="none" stroke="#111" stroke-width="1.6"/><rect x="6" y="22.38" width="0.87" height="0.17" fill="none" stroke="#111" stroke-width="1.6"/><rect x="6" y="24.11" width="0.87" height="0.18" fill="none" stroke="#111" stroke-width="1.6"/><rect x="6" y="25.85" width="0.87" height="0.17" fill="none" stroke="#111" stroke-width="1.6"/><rect x="6" y="27.58" width="0.87" height="0.17" fill="none" stroke="#111" stroke-width="1.6"/><rect x="6" y="29.31" width="0.87" height="0.18" fill="none" stroke="#111" stroke-width="1.6"/><rect x="6" y="31.05" width="0.87" height="0.17" fill="none" stroke="#111" stroke-width="1.6"/><rect x="6" y="32.78" width="0.87" height="0.17" fill="none" stroke="#111" stroke-width="1.6"/><rect x="6" y="34.51" width="0.87" height="0.18" fill="none" stroke="#111" stroke-width="1.6"/><rect x="6" y="36.25" width="0.87" height="0.17" fill="none" stroke="#111" stroke-width="1.6"/><rect x="6" y="37.98" width="0.87" height="0.17" fill="none" stroke="#111" stroke-width="1.6"/><rect x="6" y="39.71" width="0.87" height="0.18" fill="none" stroke="#111" stroke-width="1.6"/><rect x="6" y="41.45" width="0.87" height="0.17" fill="none" stroke="#111" stroke-width="1.6"/><rect x="6" y="43.18" width="0.87" height="0.17" fill="none" stroke="#111" stroke-width="1.6"/><rect x="6" y="44.91" width="0.87" height="0.18" fill="none" stroke="#111" stroke-width="1.6"/><rect x="6" y="46.65" width="0.87" height="0.17" fill="none" stroke="#111" stroke-width="1.6"/><rect x="6" y="48.38" width="0.87" height="0.17" fill="none" stroke="#111" stroke-width="1.6"/><rect x="6" y="50.11" width="0.87" height="0.18" fill="none" stroke="#111" stroke-width="1.6"/><rect x="6" y="51.85" width="0.87" height="0.17" fill="none" stroke="#111" stroke-width="1.6"/><rect x="6" y="53.58" width="0.87" height="0.17" fill="none" stroke="#111" stroke-width="1.6"/><rect x="6" y="55.31" width="0.87" height="0.18" fill="none" stroke="#111" stroke-width="1.6"/><rect x="6" y="57.05" width="0.87" height="0.17" fill="none" stroke="#111" stroke-width="1.6"/></svg>