<svg xmlns="http://www.w3.org/2000/svg" width="96" height="64" viewBox="0 0 96 64"><rect x="6" y="6" width="0.73" height="0.22" fill="none" stroke="#111" stroke-width="1.6"/><rect x="6" y="8.16" width="0.73" height="0.21" fill="none" stroke="#111" stroke-width="1.6"/><rect x="6" y="10.32" width="0.73" height="0.21" fill="none" stroke="#111" stroke-width="1.6"/><rect x="6" y="12.47" width="0.73" height="0.22" fill="none" stroke="#111" stroke-width="1.6"/><rect x="6" y="14.63" width="0.73" height="0.22" fill="none" stroke="#111" stroke-width="1.6"/><rect x="6" y="16.79" width="0.73" height="0.21" fill="none" stroke="#111" stroke-width="1.6"/><rect x="6" y="18.95" width="0.73" height="0.21" fill="none" stroke="#111" stroke-width="1.6"/><rect x="6" y="21.1" width="0.73" height="0.22" fill="none" stroke="#111" stroke-width="1.6"/><rect x="6" y="23.26" width="0.73" height="0.22" fill="none" stroke="#111" stroke-width="1.6"/><rect x="6" y="25.42" width="0.73" height="0.21" fill="none" stroke="#111" stroke-width="1.6"/><rect x="6" y="27.58" width="0.73" height="0.21" fill="none" stroke="#111" stroke-width="1.6"/><rect x="6" y="29.73" width="0.73" height="0.22" fill="none" stroke="#111" stroke-width="1.6"/><rect x="6" y="31.89" width="0.73" height="0.22" fill="none" stroke="#111" stroke-width="1.6"/><rect x="6" y="34.05" width="0.73" height="0.22" fill="none" stroke="#111" stroke-width="1.6"/><rect x="6" y="36.21" width="0.73" height="0.21" fill="none" stroke="#111" stroke-width="1.6"/><rect x="6" y="38.37" width="0.73" height="0.21" fill="none" stroke="#111" stroke-width="1.6"/><rect x="6" y="40.52" width="0.73" height="0.22" fill="none" stroke="#111" stroke-width="1.6"/><rect x="6" y="42.68" width="0.73" height="0.22" fill="none" stroke="#111" stroke-width="1.6"/><rect x="6" y="44.84" width="0.73" height="0.21" fill="none" stroke="#111" stroke-width="1.6"/><rect x="6" y="47" width="0.73" height="0.21" fill="none" stroke="#111" stroke-width="1.6"/><rect x="6" y="49.15" width="0.73" height="0.22" fill="none" stroke="#111" stroke-width="1.6"/><rect x="6" y="51.31" width="0.73" height="0.22" fill="none" stroke="#111" stroke-width="1.6"/><rect x="6" y="53.47" width="0.73" height="0.21" fill="none" stroke="#111" stroke-width="1.6"/><rect x="6" y="55.63" width="0.73" height="0.21" fill="none" stroke="#111" stroke-width="1.6"/><rect x="6" y="57.78" width="0.73" height="0.22" fill="none" stroke="#111" stroke-width="1.6"/><polyline points="7.08,6.11 6.73,6.11" fill="none" stroke="#111" stroke-width="1.6" stroke-linecap="round" stroke-linejoin="round"/><polyline points="7.08,8.27 6.73,8.27" fill="none" stroke="#111" stroke-width="1.6" stroke-linecap="round" stroke-linejoin="round"/><polyline points="7.08,10.42 6.73,10.42" fill="none" stroke="#111" stroke-width="1.6" stroke-linecap="round" stroke-linejoin="round"/><polyline points="7.08,12.58 6.73,12.58" fill="none" stroke="#111" stroke-width="1.6" stroke-linecap="round" stroke-linejoin="round"/><polyline points="7.08,14.74 6.73,14.74" fill="none" stroke="#111" stroke-width="1.6" stroke-linecap="round" stroke-linejoin="round"/><polyline points="7.08,16.9 6.73,16.9" fill="none" stroke="#111" stroke-width="1.6" stroke-linecap="round" stroke-linejoin="round"/><polyline points="7.08,19.05 6.73,19.05" fill="none" stroke="#111" stroke-width="1.6" stroke-linecap="round" stroke-linejoin="round"/><polyline points="7.08,21.21 6.73,21.21" fill="none" stroke="#111" stroke-width="1.6" stroke-linecap="round" stroke-linejoin="round"/><polyline points="7.08,23.37 6.73,23.37" fill="none" stroke="#111" stroke-width="1.6" stroke-linecap="round" stroke-linejoin="round"/><polyline points="7.08,25.53 6.73,25.53" fill="none" stroke="#111" stroke-width="1.6" stroke-linecap="round" stroke-linejoin="round"/><polyline points="7.08,27.68 6.73,27.68" fill="none" stroke="#111" stroke-width="1.6" stroke-linecap="round" stroke-linejoin="round"/><polyline points="7.08,29.84 6.73,29.84" fill="none" stroke="#111" stroke-width="1.6" stroke-linecap="round" stroke-linejoin="round"/><polyline points="7.08,32 6.73,32" fill="none" stroke="#111" stroke-width="1.6" stroke-linecap="round" stroke-linejoin="round"/><polyline points="7.08,34.16 6.73,34.16" fill="none" stroke="#111" stroke-width="1.6" stroke-linecap="round" stroke-linejoin="round"/><polyline points="7.08,36.32 6.73,36.32" fill="none" stroke="#111" stroke-width="1.6" stroke-linecap="round" stroke-linejoin="round"/><polyline points="7.08,38.47 6.73,38.47" fill="none" stroke="#111" stroke-width="1.6" stroke-linecap="round" stroke-linejoin="round"/><polyline points="7.08,40.63 6.73,40.63" fill="none" stroke="#111" stroke-width="1.6" stroke-linecap="round" stroke-linejoin="round"/><polyline points="7.08,42.79 6.73,42.79" fill="none" stroke="#111" stroke-width="1.6" stroke-linecap="round" stroke-linejoin="round"/><polyline points="7.08,44.95 6.73,44.95" fill="none" stroke="#111" stroke-width="1.6" stroke-linecap="round" stroke-linejoin="round"/><polyline points="7.08,47.1 6.73,47.1" fill="none" stroke="#111" stroke-width="1.6" stroke-linecap="round" stroke-linejoin="round"/><polyline points="7.08,49.26 6.73,49.26" fill="none" stroke="#111" stroke-width="1.6" stroke-linecap="round" stroke-linejoin="round"/><polyline points="7.08,51.42 6.73,51.42" fill="none" stroke="#111" stroke-width="1.6" stroke-linecap="round" stroke-linejoin="round"/><polyline points="7.08,53.58 6.73,53.58" fill="none" stroke="#111" stroke-width="1.6" stroke-linecap="round" stroke-linejoin="round"/><polyline points="7.08,55.73 6.73,55.73" fill="none" stroke="#111" stroke-width="1.6" stroke-linecap="round" stroke-linejoin="round"/><polyline points="7.08,57.89 6.73,57.89" fill="none" stroke="#111" stroke-width="1.6" stroke-linecap="round" stroke-linejoin="round"/></svg>