<svg xmlns="http://www.w3.org/2000/svg" width="96" height="64" viewBox="0 0 96 64"><rect x="6" y="6" width="84" height="23.33" fill="none" stroke="#111" stroke-width="1.6"/><circle cx="10.67" cy="9.27" r="0.93" fill="none" stroke="#111" stroke-width="1.6"/><polyline points="10.67,9.27 85.33,9.27" fill="none" stroke="#111" stroke-width="1.6" stroke-linecap="round" stroke-linejoin="round"/><polyline points="10.67,9.27 10.67,12.07 13.47,13.37 7.87,15.8 13.47,18.23 7.87,20.75 13.47,23.27 7.87,25.69 10.67,27 10.67,31.67" fill="none" stroke="#111" stroke-width="1.6" stroke-linecap="round" stroke-linejoin="round"/><circle cx="20" cy="9.27" r="0.93" fill="none" stroke="#111" stroke-width="1.6"/><polyline points="20,9.27 20,12.07 22.8,13.37 17.2,15.8 22.8,18.23 17.2,20.75 22.8,23.27 17.2,25.69 20,27 20,31.67" fill="none" stroke="#111" stroke-width="1.6" stroke-linecap="round" stroke-linejoin="round"/><circle cx="29.33" cy="9.27" r="0.93" fill="none" stroke="#111" stroke-width="1.6"/><polyline points="29.33,9.27 29.33,12.07 32.13,13.37 26.53,15.8 32.13,18.23 26.53,20.75 32.13,23.27 26.53,25.69 29.33,27 29.33,31.67" fill="none" stroke="#111" stroke-width="1.6" stroke-linecap="round" stroke-linejoin="round"/><circle cx="38.67" cy="9.27" r="0.93" fill="none" stroke="#111" stroke-width="1.6"/><polyline points="38.67,9.27 38.67,12.07 41.47,13.37 35.87,15.8 41.47,18.23 35.87,20.75 41.47,23.27 35.87,25.69 38.67,27 38.67,31.67" fill="none" stroke="#111" stroke-width="1.6" stroke-linecap="round" stroke-linejoin="round"/><circle cx="48" cy="9.27" r="0.93" fill="none" stroke="#111" stroke-width="1.6"/><polyline points="48,9.27 48,12.07 50.8,13.37 45.2,15.8 50.8,18.23 45.2,20.75 50.8,23.27 45.2,25.69 48,27 48,31.67" fill="none" stroke="#111" stroke-width="1.6" stroke-linecap="round" stroke-linejoin="round"/><polyline points="57.33,9.27 57.33,12.07 60.13,13.37 54.53,15.8 60.13,18.23 54.53,20.75 60.13,23.27 54.53,25.69 57.33,27 57.33,31.67" fill="none" stroke="#111" stroke-width="1.6" stroke-linecap="round" stroke-linejoin="round"/><circle cx="57.33" cy="9.27" r="0.93" fill="none" stroke="#111" stroke-width="1.6"/><polyline points="66.67,9.27 66.67,12.07 69.47,13.37 63.87,15.8 69.47,18.23 63.87,20.75 69.47,23.27 63.87,25.69 66.67,27 66.67,31.67" fill="none" stroke="#111" stroke-width="1.6" stroke-linecap="round" stroke-linejoin="round"/><circle cx="66.67" cy="9.27" r="0.93" fill="none" stroke="#111" stroke-width="1.6"/><polyline points="76,9.27 76,12.07 78.8,13.37 73.2,15.8 78.8,18.23 73.2,20.75 78.8,23.27 73.2,25.69 76,27 76,31.67" fill="none" stroke="#111" stroke-width="1.6" stroke-linecap="round" stroke-linejoin="round"/><circle cx="76" cy="9.27" r="0.93" fill="none" stroke="#111" stroke-width="1.6"/><polyline points="85.33,9.27 85.33,12.07 88.13,13.37 82.53,15.8 88.13,18.23 82.53,20.75 88.13,23.27 82.53,25.69 85.33,27 85.33,31.67" fill="none" stroke="#111" stroke-width="1.6" stroke-linecap="round" stroke-linejoin="round"/></svg>