<svg xmlns="http://www.w3.org/2000/svg" width="96" height="64" viewBox="0 0 96 64"><rect x="6" y="6" width="34.67" height="52" fill="none" stroke="#111" stroke-width="1.6"/><rect x="8.17" y="20.3" width="2.6" height="5.63" fill="none" stroke="#111" stroke-width="1.6"/><rect x="8.17" y="30.7" width="2.6" height="5.63" fill="none" stroke="#111" stroke-width="1.6"/><polyline points="8.17,45 10.77,45" fill="none" stroke="#111" stroke-width="1.6" stroke-linecap="round" stroke-linejoin="round"/><polyline points="8.6,45.87 10.33,45.87" fill="none" stroke="#111" stroke-width="1.6" stroke-linecap="round" stroke-linejoin="round"/><polyline points="9.47,16.83 9.47,16.4" fill="none" stroke="#111" stroke-width="1.6" stroke-linecap="round" stroke-linejoin="round"/><polyline points="9.47,18.13 9.47,17.7" fill="none" stroke="#111" stroke-width="1.6" stroke-linecap="round" stroke-linejoin="round"/><polyline points="9.47,20.3 9.47,19" fill="none" stroke="#111" stroke-width="1.6" stroke-linecap="round" stroke-linejoin="round"/><circle cx="9.47" cy="28.53" r="0.61" fill="none" stroke="#111" stroke-width="1.6"/><polyline points="9.47,28.53 9.47,30.7" fill="none" stroke="#111" stroke-width="1.6" stroke-linecap="round" stroke-linejoin="round"/><polyline points="9.47,36.33 9.47,43.27 13.8,43.27" fill="none" stroke="#111" stroke-width="1.6" stroke-linecap="round" stroke-linejoin="round"/><polyline points="9.47,43.27 9.47,45" fill="none" stroke="#111" stroke-width="1.6" stroke-linecap="round" stroke-linejoin="round"/><polyline points="12.5,40.23 15.1,40.23" fill="none" stroke="#111" stroke-width="1.6" stroke-linecap="round" stroke-linejoin="round"/><polyline points="13.8,30.7 13.8,30.27" fill="none" stroke="#111" stroke-width="1.6" stroke-linecap="round" stroke-linejoin="round"/><polyline points="13.8,32 13.8,31.57" fill="none" stroke="#111" stroke-width="1.6" stroke-linecap="round" stroke-linejoin="round"/><circle cx="13.8" cy="35.47" r="0.61" fill="none" stroke="#111" stroke-width="1.6"/><polyline points="13.8,35.47 13.8,33.3 13.8,32.87" fill="none" stroke="#111" stroke-width="1.6" stroke-linecap="round" stroke-linejoin="round"/><polyline points="15.1,38.07 12.5,38.07 13.8,40.23 15.1,38.07" fill="none" stroke="#111" stroke-width="1.6" stroke-linecap="round" stroke-linejoin="round"/><polyline points="16.83,28.53 9.47,28.53 9.47,25.93" fill="none" stroke="#111" stroke-width="1.6" stroke-linecap="round" stroke-linejoin="round"/><polyline points="16.83,35.47 13.8,35.47 13.8,43.27" fill="none" stroke="#111" stroke-width="1.6" stroke-linecap="round" stroke-linejoin="round"/><polyline points="19,30.27 20.73,30.27 21.6,33.73 22.47,33.73" fill="none" stroke="#111" stroke-width="1.6" stroke-linecap="round" stroke-linejoin="round"/><polyline points="19.87,30.27 20.73,33.73 21.6,33.73" fill="none" stroke="#111" stroke-width="1.6" stroke-linecap="round" stroke-linejoin="round"/><polyline points="27.23,32 28.97,32" fill="none" stroke="#111" stroke-width="1.6" stroke-linecap="round" stroke-linejoin="round"/><polyline points="27.67,32 16.83,25.5 16.83,38.5 27.67,32" fill="none" stroke="#111" stroke-width="1.6" stroke-linecap="round" stroke-linejoin="round"/><polyline points="31.57,20.3 31.57,25.5 22.03,25.5 22.03,28.53" fill="none" stroke="#111" stroke-width="1.6" stroke-linecap="round" stroke-linejoin="round"/></svg>