<svg xmlns="http://www.w3.org/2000/svg" width="96" height="64" viewBox="0 0 96 64"><rect x="6" y="6" width="84" height="30" fill="none" stroke="#111" stroke-width="1.6"/><rect x="8.4" y="13.8" width="7.2" height="19.2" fill="none" stroke="#111" stroke-width="1.6"/><circle cx="12" cy="10.2" r="1.2" fill="none" stroke="#111" stroke-width="1.6"/><polyline points="12,13.8 12,10.2 24,10.2 24,13.8" fill="none" stroke="#111" stroke-width="1.6" stroke-linecap="round" stroke-linejoin="round"/><polyline points="12,33 12,39" fill="none" stroke="#111" stroke-width="1.6" stroke-linecap="round" stroke-linejoin="round"/><rect x="20.4" y="13.8" width="7.2" height="19.2" fill="none" stroke="#111" stroke-width="1.6"/><circle cx="24" cy="10.2" r="1.2" fill="none" stroke="#111" stroke-width="1.6"/><polyline points="24,13.8 24,10.2 36,10.2 36,13.8" fill="none" stroke="#111" stroke-width="1.6" stroke-linecap="round" stroke-linejoin="round"/><polyline points="24,33 24,39" fill="none" stroke="#111" stroke-width="1.6" stroke-linecap="round" stroke-linejoin="round"/><rect x="32.4" y="13.8" width="7.2" height="19.2" fill="none" stroke="#111" stroke-width="1.6"/><circle cx="36" cy="10.2" r="1.2" fill="none" stroke="#111" stroke-width="1.6"/><polyline points="36,13.8 36,10.2 48,10.2 48,13.8" fill="none" stroke="#111" stroke-width="1.6" stroke-linecap="round" stroke-linejoin="round"/><polyline points="36,33 36,39" fill="none" stroke="#111" stroke-width="1.6" stroke-linecap="round" stroke-linejoin="round"/><rect x="44.4" y="13.8" width="7.2" height="19.2" fill="none" stroke="#111" stroke-width="1.6"/><circle cx="48" cy="10.2" r="1.2" fill="none" stroke="#111" stroke-width="1.6"/><polyline points="48,13.8 48,10.2 60,10.2 60,13.8" fill="none" stroke="#111" stroke-width="1.6" stroke-linecap="round" stroke-linejoin="round"/><polyline points="48,33 48,39" fill="none" stroke="#111" stroke-width="1.6" stroke-linecap="round" stroke-linejoin="round"/><rect x="56.4" y="13.8" width="7.2" height="19.2" fill="none" stroke="#111" stroke-width="1.6"/><circle cx="60" cy="10.2" r="1.2" fill="none" stroke="#111" stroke-width="1.6"/><polyline points="60,13.8 60,10.2 72,10.2 72,13.8" fill="none" stroke="#111" stroke-width="1.6" stroke-linecap="round" stroke-linejoin="round"/><polyline points="60,33 60,39" fill="none" stroke="#111" stroke-width="1.6" stroke-linecap="round" stroke-linejoin="round"/><rect x="68.4" y="13.8" width="7.2" height="19.2" fill="none" stroke="#111" stroke-width="1.6"/><circle cx="72" cy="10.2" r="1.2" fill="none" stroke="#111" stroke-width="1.6"/><polyline points="72,13.8 72,10.2 84,10.2 84,13.8" fill="none" stroke="#111" stroke-width="1.6" stroke-linecap="round" stroke-linejoin="round"/><polyline points="72,33 72,39" fill="none" stroke="#111" stroke-width="1.6" stroke-linecap="round" stroke-linejoin="round"/><rect x="80.4" y="13.8" width="7.2" height="19.2" fill="none" stroke="#111" stroke-width="1.6"/><polyline points="84,33 84,39" fill="none" stroke="#111" stroke-width="1.6" stroke-linecap="round" stroke-linejoin="round"/></svg>