<svg xmlns="http://www.w3.org/2000/svg" width="96" height="64" viewBox="0 0 96 64"><rect x="6" y="6.7" width="84" height="26.6" fill="none" stroke="#111" stroke-width="1.6"/><rect x="9.5" y="9.5" width="7" height="21" fill="none" stroke="#111" stroke-width="1.6"/><polyline points="13,9.5 13,6" fill="none" stroke="#111" stroke-width="1.6" stroke-linecap="round" stroke-linejoin="round"/><polyline points="13,34 13,30.5" fill="none" stroke="#111" stroke-width="1.6" stroke-linecap="round" stroke-linejoin="round"/><rect x="23.5" y="9.5" width="7" height="21" fill="none" stroke="#111" stroke-width="1.6"/><polyline points="27,9.5 27,6" fill="none" stroke="#111" stroke-width="1.6" stroke-linecap="round" stroke-linejoin="round"/><polyline points="27,34 27,30.5" fill="none" stroke="#111" stroke-width="1.6" stroke-linecap="round" stroke-linejoin="round"/><rect x="37.5" y="9.5" width="7" height="21" fill="none" stroke="#111" stroke-width="1.6"/><polyline points="41,9.5 41,6" fill="none" stroke="#111" stroke-width="1.6" stroke-linecap="round" stroke-linejoin="round"/><polyline points="41,34 41,30.5" fill="none" stroke="#111" stroke-width="1.6" stroke-linecap="round" stroke-linejoin="round"/><rect x="51.5" y="9.5" width="7" height="21" fill="none" stroke="#111" stroke-width="1.6"/><polyline points="55,9.5 55,6" fill="none" stroke="#111" stroke-width="1.6" stroke-linecap="round" stroke-linejoin="round"/><polyline points="55,34 55,30.5" fill="none" stroke="#111" stroke-width="1.6" stroke-linecap="round" stroke-linejoin="round"/><rect x="65.5" y="9.5" width="7" height="21" fill="none" stroke="#111" stroke-width="1.6"/><polyline points="69,9.5 69,6" fill="none" stroke="#111" stroke-width="1.6" stroke-linecap="round" stroke-linejoin="round"/><polyline points="69,34 69,30.5" fill="none" stroke="#111" stroke-width="1.6" stroke-linecap="round" stroke-linejoin="round"/><rect x="79.5" y="9.5" width="7" height="21" fill="none" stroke="#111" stroke-width="1.6"/><polyline points="83,9.5 83,6" fill="none" stroke="#111" stroke-width="1.6" stroke-linecap="round" stroke-linejoin="round"/><polyline points="83,34 83,30.5" fill="none" stroke="#111" stroke-width="1.6" stroke-linecap="round" stroke-linejoin="round"/></svg>