<svg xmlns="http://www.w3.org/2000/svg" width="96" height="64" viewBox="0 0 96 64"><rect x="6" y="6" width="2.18" height="0.64" fill="none" stroke="#111" stroke-width="1.6"/><rect x="6" y="12.42" width="2.18" height="0.64" fill="none" stroke="#111" stroke-width="1.6"/><rect x="6" y="18.84" width="2.18" height="0.64" fill="none" stroke="#111" stroke-width="1.6"/><rect x="6" y="25.26" width="2.18" height="0.64" fill="none" stroke="#111" stroke-width="1.6"/><rect x="6" y="31.68" width="2.18" height="0.64" fill="none" stroke="#111" stroke-width="1.6"/><rect x="6" y="38.1" width="2.18" height="0.64" fill="none" stroke="#111" stroke-width="1.6"/><rect x="6" y="44.52" width="2.18" height="0.64" fill="none" stroke="#111" stroke-width="1.6"/><rect x="6" y="50.94" width="2.18" height="0.64" fill="none" stroke="#111" stroke-width="1.6"/><rect x="6" y="57.36" width="2.18" height="0.64" fill="none" stroke="#111" stroke-width="1.6"/><polyline points="9.21,6.32 8.18,6.32" fill="none" stroke="#111" stroke-width="1.6" stroke-linecap="round" stroke-linejoin="round"/><polyline points="9.21,12.74 8.18,12.74" fill="none" stroke="#111" stroke-width="1.6" stroke-linecap="round" stroke-linejoin="round"/><polyline points="9.21,19.16 8.18,19.16" fill="none" stroke="#111" stroke-width="1.6" stroke-linecap="round" stroke-linejoin="round"/><polyline points="9.21,25.58 8.18,25.58" fill="none" stroke="#111" stroke-width="1.6" stroke-linecap="round" stroke-linejoin="round"/><polyline points="9.21,32 8.18,32" fill="none" stroke="#111" stroke-width="1.6" stroke-linecap="round" stroke-linejoin="round"/><polyline points="9.21,38.42 8.18,38.42" fill="none" stroke="#111" stroke-width="1.6" stroke-linecap="round" stroke-linejoin="round"/><polyline points="9.21,44.84 8.18,44.84" fill="none" stroke="#111" stroke-width="1.6" stroke-linecap="round" stroke-linejoin="round"/><polyline points="9.21,51.26 8.18,51.26" fill="none" stroke="#111" stroke-width="1.6" stroke-linecap="round" stroke-linejoin="round"/><polyline points="9.21,57.68 8.18,57.68" fill="none" stroke="#111" stroke-width="1.6" stroke-linecap="round" stroke-linejoin="round"/></svg>