<svg xmlns="http://www.w3.org/2000/svg" width="96" height="64" viewBox="0 0 96 64"><polyline points="19,51.5 28.75,51.5 28.75,46.62" fill="none" stroke="#111" stroke-width="1.6" stroke-linecap="round" stroke-linejoin="round"/><polyline points="27.12,48.25 28.75,46.62 30.38,48.25" fill="none" stroke="#111" stroke-width="1.6" stroke-linecap="round" stroke-linejoin="round"/><polyline points="38.5,12.5 36.88,12.5 36.88,22.57" fill="none" stroke="#111" stroke-width="1.6" stroke-linecap="round" stroke-linejoin="round"/><polyline points="41.75,19 38.5,19 38.5,22.9" fill="none" stroke="#111" stroke-width="1.6" stroke-linecap="round" stroke-linejoin="round"/><polyline points="23.88,32 25.5,32" fill="none" stroke="#111" stroke-width="1.6" stroke-linecap="round" stroke-linejoin="round"/><rect x="12.18" y="28.75" width="11.7" height="6.5" fill="none" stroke="#111" stroke-width="1.6"/><polyline points="25.5,28.75 27.12,28.75" fill="none" stroke="#111" stroke-width="1.6" stroke-linecap="round" stroke-linejoin="round"/><polyline points="26.15,23.22 26.8,23.88 26.15,24.53" fill="none" stroke="#111" stroke-width="1.6" stroke-linecap="round" stroke-linejoin="round"/><polyline points="26.15,28.1 26.8,28.75 26.15,29.4" fill="none" stroke="#111" stroke-width="1.6" stroke-linecap="round" stroke-linejoin="round"/><polyline points="26.15,44.35 26.8,45 26.15,45.65" fill="none" stroke="#111" stroke-width="1.6" stroke-linecap="round" stroke-linejoin="round"/><polyline points="27.12,23.88 25.5,23.88 25.5,45 27.12,45" fill="none" stroke="#111" stroke-width="1.6" stroke-linecap="round" stroke-linejoin="round"/><rect x="27.12" y="27.12" width="6.5" height="3.26" fill="none" stroke="#111" stroke-width="1.6"/><rect x="27.12" y="43.38" width="6.5" height="3.24" fill="none" stroke="#111" stroke-width="1.6"/><circle cx="30.38" cy="32.33" r="0.65" fill="none" stroke="#111" stroke-width="1.6"/><circle cx="30.38" cy="34.6" r="0.65" fill="none" stroke="#111" stroke-width="1.6"/><circle cx="30.38" cy="36.88" r="0.65" fill="none" stroke="#111" stroke-width="1.6"/><polyline points="33.62,23.88 35.25,23.88" fill="none" stroke="#111" stroke-width="1.6" stroke-linecap="round" stroke-linejoin="round"/><rect x="27.12" y="22.25" width="6.5" height="3.25" fill="none" stroke="#111" stroke-width="1.6"/><polyline points="33.62,28.75 35.25,28.75" fill="none" stroke="#111" stroke-width="1.6" stroke-linecap="round" stroke-linejoin="round"/><polyline points="33.62,45 35.25,45" fill="none" stroke="#111" stroke-width="1.6" stroke-linecap="round" stroke-linejoin="round"/><polyline points="34.27,23.22 34.92,23.88 34.27,24.53" fill="none" stroke="#111" stroke-width="1.6" stroke-linecap="round" stroke-linejoin="round"/><polyline points="34.27,28.1 34.92,28.75 34.27,29.4" fill="none" stroke="#111" stroke-width="1.6" stroke-linecap="round" stroke-linejoin="round"/><polyline points="34.27,44.35 34.92,45 34.27,45.65" fill="none" stroke="#111" stroke-width="1.6" stroke-linecap="round" stroke-linejoin="round"/><polyline points="35.25,22.25 35.25,46.62 41.75,45 41.75,23.88 35.25,22.25" fill="none" stroke="#111" stroke-width="1.6" stroke-linecap="round" stroke-linejoin="round"/><polyline points="41.75,38.5 46.62,38.5" fill="none" stroke="#111" stroke-width="1.6" stroke-linecap="round" stroke-linejoin="round"/><polyline points="46.62,38.5 45.65,37.52" fill="none" stroke="#111" stroke-width="1.6" stroke-linecap="round" stroke-linejoin="round"/><polyline points="46.62,38.5 45.65,39.47" fill="none" stroke="#111" stroke-width="1.6" stroke-linecap="round" stroke-linejoin="round"/><rect x="6" y="6" width="52" height="52" fill="none" stroke="#111" stroke-width="1.6"/></svg>