<svg xmlns="http://www.w3.org/2000/svg" width="96" height="64" viewBox="0 0 96 64"><circle cx="14.67" cy="32" r="1.73" fill="none" stroke="#111" stroke-width="1.6"/><polyline points="14.67,32 6,32" fill="none" stroke="#111" stroke-width="1.6" stroke-linecap="round" stroke-linejoin="round"/><polyline points="19.87,42.4 19.87,40.67 23.33,40.67 23.33,58 26.8,58 26.8,56.27" fill="none" stroke="#111" stroke-width="1.6" stroke-linecap="round" stroke-linejoin="round"/><polyline points="23.33,6 40.67,14.67 23.33,23.33 23.33,6 23.33,6 23.33,6" fill="none" stroke="#111" stroke-width="1.6" stroke-linecap="round" stroke-linejoin="round"/><polyline points="40.67,14.67 14.67,14.67 14.67,49.33 40.67,49.33" fill="none" stroke="#111" stroke-width="1.6" stroke-linecap="round" stroke-linejoin="round"/><polyline points="40.67,40.67 23.33,49.33 40.67,58 40.67,40.67 40.67,40.67 40.67,40.67" fill="none" stroke="#111" stroke-width="1.6" stroke-linecap="round" stroke-linejoin="round"/><polyline points="44.13,7.73 44.13,6 40.67,6 40.67,23.33 37.2,23.33 37.2,21.6" fill="none" stroke="#111" stroke-width="1.6" stroke-linecap="round" stroke-linejoin="round"/></svg>