<svg xmlns="http://www.w3.org/2000/svg" width="96" height="64" viewBox="0 0 96 64"><rect x="6" y="6" width="0.53" height="0.16" fill="none" stroke="#111" stroke-width="1.6"/><rect x="6" y="7.57" width="0.53" height="0.16" fill="none" stroke="#111" stroke-width="1.6"/><rect x="6" y="9.14" width="0.53" height="0.16" fill="none" stroke="#111" stroke-width="1.6"/><rect x="6" y="10.71" width="0.53" height="0.16" fill="none" stroke="#111" stroke-width="1.6"/><rect x="6" y="12.28" width="0.53" height="0.16" fill="none" stroke="#111" stroke-width="1.6"/><rect x="6" y="13.85" width="0.53" height="0.16" fill="none" stroke="#111" stroke-width="1.6"/><rect x="6" y="15.43" width="0.53" height="0.15" fill="none" stroke="#111" stroke-width="1.6"/><rect x="6" y="17" width="0.53" height="0.15" fill="none" stroke="#111" stroke-width="1.6"/><rect x="6" y="18.57" width="0.53" height="0.16" fill="none" stroke="#111" stroke-width="1.6"/><rect x="6" y="20.14" width="0.53" height="0.16" fill="none" stroke="#111" stroke-width="1.6"/><rect x="6" y="21.71" width="0.53" height="0.16" fill="none" stroke="#111" stroke-width="1.6"/><rect x="6" y="23.28" width="0.53" height="0.16" fill="none" stroke="#111" stroke-width="1.6"/><rect x="6" y="24.85" width="0.53" height="0.16" fill="none" stroke="#111" stroke-width="1.6"/><rect x="6" y="26.42" width="0.53" height="0.16" fill="none" stroke="#111" stroke-width="1.6"/><rect x="6" y="27.99" width="0.53" height="0.16" fill="none" stroke="#111" stroke-width="1.6"/><rect x="6" y="29.56" width="0.53" height="0.16" fill="none" stroke="#111" stroke-width="1.6"/><rect x="6" y="31.14" width="0.53" height="0.15" fill="none" stroke="#111" stroke-width="1.6"/><rect x="6" y="32.71" width="0.53" height="0.15" fill="none" stroke="#111" stroke-width="1.6"/><rect x="6" y="34.28" width="0.53" height="0.16" fill="none" stroke="#111" stroke-width="1.6"/><rect x="6" y="35.85" width="0.53" height="0.16" fill="none" stroke="#111" stroke-width="1.6"/><rect x="6" y="37.42" width="0.53" height="0.16" fill="none" stroke="#111" stroke-width="1.6"/><rect x="6" y="38.99" width="0.53" height="0.16" fill="none" stroke="#111" stroke-width="1.6"/><rect x="6" y="40.56" width="0.53" height="0.16" fill="none" stroke="#111" stroke-width="1.6"/><rect x="6" y="42.13" width="0.53" height="0.16" fill="none" stroke="#111" stroke-width="1.6"/><rect x="6" y="43.7" width="0.53" height="0.16" fill="none" stroke="#111" stroke-width="1.6"/><rect x="6" y="45.27" width="0.53" height="0.16" fill="none" stroke="#111" stroke-width="1.6"/><rect x="6" y="46.85" width="0.53" height="0.15" fill="none" stroke="#111" stroke-width="1.6"/><rect x="6" y="48.42" width="0.53" height="0.15" fill="none" stroke="#111" stroke-width="1.6"/><rect x="6" y="49.99" width="0.53" height="0.16" fill="none" stroke="#111" stroke-width="1.6"/><rect x="6" y="51.56" width="0.53" height="0.16" fill="none" stroke="#111" stroke-width="1.6"/><rect x="6" y="53.13" width="0.53" height="0.16" fill="none" stroke="#111" stroke-width="1.6"/><rect x="6" y="54.7" width="0.53" height="0.16" fill="none" stroke="#111" stroke-width="1.6"/><rect x="6" y="56.27" width="0.53" height="0.16" fill="none" stroke="#111" stroke-width="1.6"/><rect x="6" y="57.84" width="0.53" height="0.16" fill="none" stroke="#111" stroke-width="1.6"/><polyline points="6.79,6.08 6.53,6.08" fill="none" stroke="#111" stroke-width="1.6" stroke-linecap="round" stroke-linejoin="round"/><polyline points="6.79,7.65 6.53,7.65" fill="none" stroke="#111" stroke-width="1.6" stroke-linecap="round" stroke-linejoin="round"/><polyline points="6.79,9.22 6.53,9.22" fill="none" stroke="#111" stroke-width="1.6" stroke-linecap="round" stroke-linejoin="round"/><polyline points="6.79,10.79 6.53,10.79" fill="none" stroke="#111" stroke-width="1.6" stroke-linecap="round" stroke-linejoin="round"/><polyline points="6.79,12.36 6.53,12.36" fill="none" stroke="#111" stroke-width="1.6" stroke-linecap="round" stroke-linejoin="round"/><polyline points="6.79,13.93 6.53,13.93" fill="none" stroke="#111" stroke-width="1.6" stroke-linecap="round" stroke-linejoin="round"/><polyline points="6.79,15.5 6.53,15.5" fill="none" stroke="#111" stroke-width="1.6" stroke-linecap="round" stroke-linejoin="round"/><polyline points="6.79,17.08 6.53,17.08" fill="none" stroke="#111" stroke-width="1.6" stroke-linecap="round" stroke-linejoin="round"/><polyline points="6.79,18.65 6.53,18.65" fill="none" stroke="#111" stroke-width="1.6" stroke-linecap="round" stroke-linejoin="round"/><polyline points="6.79,20.22 6.53,20.22" fill="none" stroke="#111" stroke-width="1.6" stroke-linecap="round" stroke-linejoin="round"/><polyline points="6.79,21.79 6.53,21.79" fill="none" stroke="#111" stroke-width="1.6" stroke-linecap="round" stroke-linejoin="round"/><polyline points="6.79,23.36 6.53,23.36" fill="none" stroke="#111" stroke-width="1.6" stroke-linecap="round" stroke-linejoin="round"/><polyline points="6.79,24.93 6.53,24.93" fill="none" stroke="#111" stroke-width="1.6" stroke-linecap="round" stroke-linejoin="round"/><polyline points="6.79,26.5 6.53,26.5" fill="none" stroke="#111" stroke-width="1.6" stroke-linecap="round" stroke-linejoin="round"/><polyline points="6.79,28.07 6.53,28.07" fill="none" stroke="#111" stroke-width="1.6" stroke-linecap="round" stroke-linejoin="round"/><polyline points="6.79,29.64 6.53,29.64" fill="none" stroke="#111" stroke-width="1.6" stroke-linecap="round" stroke-linejoin="round"/><polyline points="6.79,31.21 6.53,31.21" fill="none" stroke="#111" stroke-width="1.6" stroke-linecap="round" stroke-linejoin="round"/><polyline points="6.79,32.79 6.53,32.79" fill="none" stroke="#111" stroke-width="1.6" stroke-linecap="round" stroke-linejoin="round"/><polyline points="6.79,34.36 6.53,34.36" fill="none" stroke="#111" stroke-width="1.6" stroke-linecap="round" stroke-linejoin="round"/><polyline points="6.79,35.93 6.53,35.93" fill="none" stroke="#111" stroke-width="1.6" stroke-linecap="round" stroke-linejoin="round"/><polyline points="6.79,37.5 6.53,37.5" fill="none" stroke="#111" stroke-width="1.6" stroke-linecap="round" stroke-linejoin="round"/><polyline points="6.79,39.07 6.53,39.07" fill="none" stroke="#111" stroke-width="1.6" stroke-linecap="round" stroke-linejoin="round"/><polyline points="6.79,40.64 6.53,40.64" fill="none" stroke="#111" stroke-width="1.6" stroke-linecap="round" stroke-linejoin="round"/><polyline points="6.79,42.21 6.53,42.21" fill="none" stroke="#111" stroke-width="1.6" stroke-linecap="round" stroke-linejoin="round"/><polyline points="6.79,43.78 6.53,43.78" fill="none" stroke="#111" stroke-width="1.6" stroke-linecap="round" stroke-linejoin="round"/><polyline points="6.79,45.35 6.53,45.35" fill="none" stroke="#111" stroke-width="1.6" stroke-linecap="round" stroke-linejoin="round"/><polyline points="6.79,46.92 6.53,46.92" fill="none" stroke="#111" stroke-width="1.6" stroke-linecap="round" stroke-linejoin="round"/><polyline points="6.79,48.5 6.53,48.5" fill="none" stroke="#111" stroke-width="1.6" stroke-linecap="round" stroke-linejoin="round"/><polyline points="6.79,50.07 6.53,50.07" fill="none" stroke="#111" stroke-width="1.6" stroke-linecap="round" stroke-linejoin="round"/><polyline points="6.79,51.64 6.53,51.64" fill="none" stroke="#111" stroke-width="1.6" stroke-linecap="round" stroke-linejoin="round"/><polyline points="6.79,53.21 6.53,53.21" fill="none" stroke="#111" stroke-width="1.6" stroke-linecap="round" stroke-linejoin="round"/><polyline points="6.79,54.78 6.53,54.78" fill="none" stroke="#111" stroke-width="1.6" stroke-linecap="round" stroke-linejoin="round"/><polyline points="6.79,56.35 6.53,56.35" fill="none" stroke="#111" stroke-width="1.6" stroke-linecap="round" stroke-linejoin="round"/><polyline points="6.79,57.92 6.53,57.92" fill="none" stroke="#111" stroke-width="1.6" stroke-linecap="round" stroke-linejoin="round"/></svg>