<svg xmlns="http://www.w3.org/2000/svg" width="96" height="64" viewBox="0 0 96 64"><circle cx="9.03" cy="10.33" r="0.87" fill="none" stroke="#111" stroke-width="1.6"/><circle cx="9.03" cy="14.67" r="0.87" fill="none" stroke="#111" stroke-width="1.6"/><circle cx="9.03" cy="19" r="0.87" fill="none" stroke="#111" stroke-width="1.6"/><circle cx="9.03" cy="23.33" r="0.87" fill="none" stroke="#111" stroke-width="1.6"/><circle cx="9.03" cy="27.67" r="0.87" fill="none" stroke="#111" stroke-width="1.6"/><circle cx="9.03" cy="32" r="0.87" fill="none" stroke="#111" stroke-width="1.6"/><circle cx="9.03" cy="36.33" r="0.87" fill="none" stroke="#111" stroke-width="1.6"/><circle cx="9.03" cy="40.67" r="0.87" fill="none" stroke="#111" stroke-width="1.6"/><circle cx="9.03" cy="45" r="0.87" fill="none" stroke="#111" stroke-width="1.6"/><circle cx="9.03" cy="49.33" r="0.87" fill="none" stroke="#111" stroke-width="1.6"/><circle cx="9.03" cy="53.67" r="0.87" fill="none" stroke="#111" stroke-width="1.6"/><polyline points="9.9,10.12 16.53,8.34" fill="none" stroke="#111" stroke-width="1.6" stroke-linecap="round" stroke-linejoin="round"/><polyline points="9.9,14.45 16.53,12.67" fill="none" stroke="#111" stroke-width="1.6" stroke-linecap="round" stroke-linejoin="round"/><polyline points="9.9,18.78 16.53,17.01" fill="none" stroke="#111" stroke-width="1.6" stroke-linecap="round" stroke-linejoin="round"/><polyline points="9.9,23.12 16.53,21.34" fill="none" stroke="#111" stroke-width="1.6" stroke-linecap="round" stroke-linejoin="round"/><polyline points="9.9,27.45 16.53,25.67" fill="none" stroke="#111" stroke-width="1.6" stroke-linecap="round" stroke-linejoin="round"/><polyline points="9.9,31.78 16.53,30.01" fill="none" stroke="#111" stroke-width="1.6" stroke-linecap="round" stroke-linejoin="round"/><polyline points="9.9,36.12 16.53,34.34" fill="none" stroke="#111" stroke-width="1.6" stroke-linecap="round" stroke-linejoin="round"/><polyline points="9.9,40.41 16.53,38.63" fill="none" stroke="#111" stroke-width="1.6" stroke-linecap="round" stroke-linejoin="round"/><polyline points="9.9,44.74 16.53,42.96" fill="none" stroke="#111" stroke-width="1.6" stroke-linecap="round" stroke-linejoin="round"/><polyline points="9.9,49.07 16.53,47.3" fill="none" stroke="#111" stroke-width="1.6" stroke-linecap="round" stroke-linejoin="round"/><polyline points="9.9,53.41 16.53,51.63" fill="none" stroke="#111" stroke-width="1.6" stroke-linecap="round" stroke-linejoin="round"/><circle cx="15.97" cy="10.33" r="0.87" fill="none" stroke="#111" stroke-width="1.6"/><circle cx="15.97" cy="14.67" r="0.87" fill="none" stroke="#111" stroke-width="1.6"/><circle cx="15.97" cy="19" r="0.87" fill="none" stroke="#111" stroke-width="1.6"/><circle cx="15.97" cy="23.33" r="0.87" fill="none" stroke="#111" stroke-width="1.6"/><circle cx="15.97" cy="27.67" r="0.87" fill="none" stroke="#111" stroke-width="1.6"/><circle cx="15.97" cy="32" r="0.87" fill="none" stroke="#111" stroke-width="1.6"/><circle cx="15.97" cy="36.33" r="0.87" fill="none" stroke="#111" stroke-width="1.6"/><circle cx="15.97" cy="40.67" r="0.87" fill="none" stroke="#111" stroke-width="1.6"/><circle cx="15.97" cy="45" r="0.87" fill="none" stroke="#111" stroke-width="1.6"/><circle cx="15.97" cy="49.33" r="0.87" fill="none" stroke="#111" stroke-width="1.6"/><circle cx="15.97" cy="53.67" r="0.87" fill="none" stroke="#111" stroke-width="1.6"/><rect x="6" y="6" width="13" height="52" fill="none" stroke="#111" stroke-width="1.6"/></svg>