<svg xmlns="http://www.w3.org/2000/svg" width="96" height="64" viewBox="0 0 96 64"><rect x="6" y="22.43" width="12.64" height="20.04" fill="none" stroke="#111" stroke-width="1.6"/><rect x="6" y="22.43" width="12.64" height="20.04" fill="none" stroke="#111" stroke-width="1.6"/><rect x="6" y="22.43" width="12.64" height="20.04" fill="none" stroke="#111" stroke-width="1.6"/><rect x="6" y="22.43" width="12.64" height="20.04" fill="none" stroke="#111" stroke-width="1.6"/><rect x="6" y="22.43" width="12.64" height="20.04" fill="none" stroke="#111" stroke-width="1.6"/><rect x="6" y="22.43" width="12.64" height="20.04" fill="none" stroke="#111" stroke-width="1.6"/><rect x="6" y="22.43" width="12.64" height="20.04" fill="none" stroke="#111" stroke-width="1.6"/><rect x="6" y="22.43" width="12.64" height="20.04" fill="none" stroke="#111" stroke-width="1.6"/><rect x="6" y="22.43" width="12.64" height="20.04" fill="none" stroke="#111" stroke-width="1.6"/><rect x="6" y="22.43" width="12.64" height="20.04" fill="none" stroke="#111" stroke-width="1.6"/><rect x="6" y="22.43" width="12.64" height="20.04" fill="none" stroke="#111" stroke-width="1.6"/><rect x="7.81" y="27.67" width="9.02" height="8.66" fill="none" stroke="#111" stroke-width="1.6"/><rect x="7.81" y="27.67" width="9.02" height="8.66" fill="none" stroke="#111" stroke-width="1.6"/><rect x="7.81" y="27.67" width="9.02" height="8.66" fill="none" stroke="#111" stroke-width="1.6"/><rect x="7.81" y="27.67" width="9.02" height="8.66" fill="none" stroke="#111" stroke-width="1.6"/><rect x="7.81" y="27.13" width="9.02" height="10.65" fill="none" stroke="#111" stroke-width="1.6"/><rect x="9.61" y="8.53" width="5.42" height="46.94" fill="none" stroke="#111" stroke-width="1.6"/><rect x="9.61" y="6" width="5.42" height="52" fill="none" stroke="#111" stroke-width="1.6"/></svg>