<svg xmlns="http://www.w3.org/2000/svg" width="96" height="64" viewBox="0 0 96 64"><rect x="6" y="6" width="34.67" height="52" fill="none" stroke="#111" stroke-width="1.6"/><rect x="6" y="8.17" width="8.67" height="13" fill="none" stroke="#111" stroke-width="1.6"/><polyline points="9.9,27.67 12.07,27.67" fill="none" stroke="#111" stroke-width="1.6" stroke-linecap="round" stroke-linejoin="round"/><circle cx="12.93" cy="27.67" r="0.87" fill="none" stroke="#111" stroke-width="1.6"/><polyline points="13.8,27.23 17.7,25.93" fill="none" stroke="#111" stroke-width="1.6" stroke-linecap="round" stroke-linejoin="round"/><polyline points="15.53,14.67 14.67,14.67" fill="none" stroke="#111" stroke-width="1.6" stroke-linecap="round" stroke-linejoin="round"/><polyline points="15.53,29.4 15.53,28.32" fill="none" stroke="#111" stroke-width="1.6" stroke-linecap="round" stroke-linejoin="round"/><polyline points="15.53,31.57 15.53,30.48" fill="none" stroke="#111" stroke-width="1.6" stroke-linecap="round" stroke-linejoin="round"/><polyline points="15.53,32 14.45,32" fill="none" stroke="#111" stroke-width="1.6" stroke-linecap="round" stroke-linejoin="round"/><polyline points="16.83,14.67 17.92,14.67" fill="none" stroke="#111" stroke-width="1.6" stroke-linecap="round" stroke-linejoin="round"/><circle cx="19.43" cy="27.67" r="0.87" fill="none" stroke="#111" stroke-width="1.6"/><polyline points="20.3,14.67 19.43,14.67" fill="none" stroke="#111" stroke-width="1.6" stroke-linecap="round" stroke-linejoin="round"/><polyline points="20.3,27.23 27.23,23.33" fill="none" stroke="#111" stroke-width="1.6" stroke-linecap="round" stroke-linejoin="round"/><polyline points="22.47,14.67 21.6,14.67" fill="none" stroke="#111" stroke-width="1.6" stroke-linecap="round" stroke-linejoin="round"/><polyline points="22.47,15.53 22.47,14.67" fill="none" stroke="#111" stroke-width="1.6" stroke-linecap="round" stroke-linejoin="round"/><polyline points="22.47,17.27 22.47,16.4" fill="none" stroke="#111" stroke-width="1.6" stroke-linecap="round" stroke-linejoin="round"/><polyline points="22.47,19 22.47,17.92" fill="none" stroke="#111" stroke-width="1.6" stroke-linecap="round" stroke-linejoin="round"/><polyline points="22.47,21.17 22.47,20.08" fill="none" stroke="#111" stroke-width="1.6" stroke-linecap="round" stroke-linejoin="round"/><polyline points="22.47,23.33 22.47,22.25" fill="none" stroke="#111" stroke-width="1.6" stroke-linecap="round" stroke-linejoin="round"/><polyline points="22.47,25.5 22.47,24.42" fill="none" stroke="#111" stroke-width="1.6" stroke-linecap="round" stroke-linejoin="round"/><circle cx="29.4" cy="23.33" r="0.87" fill="none" stroke="#111" stroke-width="1.6"/><circle cx="29.4" cy="27.67" r="0.87" fill="none" stroke="#111" stroke-width="1.6"/><circle cx="29.4" cy="32" r="0.87" fill="none" stroke="#111" stroke-width="1.6"/><circle cx="29.4" cy="36.33" r="0.87" fill="none" stroke="#111" stroke-width="1.6"/><circle cx="29.4" cy="40.67" r="0.87" fill="none" stroke="#111" stroke-width="1.6"/><circle cx="29.4" cy="45" r="0.87" fill="none" stroke="#111" stroke-width="1.6"/><circle cx="29.4" cy="49.33" r="0.87" fill="none" stroke="#111" stroke-width="1.6"/><circle cx="29.4" cy="53.67" r="0.87" fill="none" stroke="#111" stroke-width="1.6"/><polyline points="30.27,23.33 34.6,23.33" fill="none" stroke="#111" stroke-width="1.6" stroke-linecap="round" stroke-linejoin="round"/><polyline points="30.27,27.67 34.6,27.67" fill="none" stroke="#111" stroke-width="1.6" stroke-linecap="round" stroke-linejoin="round"/><polyline points="30.27,32 34.6,32" fill="none" stroke="#111" stroke-width="1.6" stroke-linecap="round" stroke-linejoin="round"/><polyline points="30.27,36.33 34.6,36.33" fill="none" stroke="#111" stroke-width="1.6" stroke-linecap="round" stroke-linejoin="round"/><polyline points="30.27,40.67 34.6,40.67" fill="none" stroke="#111" stroke-width="1.6" stroke-linecap="round" stroke-linejoin="round"/><polyline points="30.27,45 34.6,45" fill="none" stroke="#111" stroke-width="1.6" stroke-linecap="round" stroke-linejoin="round"/><polyline points="30.27,49.33 34.6,49.33" fill="none" stroke="#111" stroke-width="1.6" stroke-linecap="round" stroke-linejoin="round"/><polyline points="30.27,53.67 34.6,53.67" fill="none" stroke="#111" stroke-width="1.6" stroke-linecap="round" stroke-linejoin="round"/></svg>