<svg xmlns="http://www.w3.org/2000/svg" width="96" height="64" viewBox="0 0 96 64"><polyline points="6,6.25 6.38,6.25" fill="none" stroke="#111" stroke-width="1.6" stroke-linecap="round" stroke-linejoin="round"/><polyline points="6,7.51 6.38,7.51" fill="none" stroke="#111" stroke-width="1.6" stroke-linecap="round" stroke-linejoin="round"/><polyline points="6,8.76 6.38,8.76" fill="none" stroke="#111" stroke-width="1.6" stroke-linecap="round" stroke-linejoin="round"/><polyline points="6,10.02 6.38,10.02" fill="none" stroke="#111" stroke-width="1.6" stroke-linecap="round" stroke-linejoin="round"/><polyline points="6,11.28 6.38,11.28" fill="none" stroke="#111" stroke-width="1.6" stroke-linecap="round" stroke-linejoin="round"/><polyline points="6,12.53 6.38,12.53" fill="none" stroke="#111" stroke-width="1.6" stroke-linecap="round" stroke-linejoin="round"/><polyline points="6,13.79 6.38,13.79" fill="none" stroke="#111" stroke-width="1.6" stroke-linecap="round" stroke-linejoin="round"/><polyline points="6,15.04 6.38,15.04" fill="none" stroke="#111" stroke-width="1.6" stroke-linecap="round" stroke-linejoin="round"/><polyline points="6,16.3 6.38,16.3" fill="none" stroke="#111" stroke-width="1.6" stroke-linecap="round" stroke-linejoin="round"/><polyline points="6,17.56 6.38,17.56" fill="none" stroke="#111" stroke-width="1.6" stroke-linecap="round" stroke-linejoin="round"/><polyline points="6,18.81 6.38,18.81" fill="none" stroke="#111" stroke-width="1.6" stroke-linecap="round" stroke-linejoin="round"/><polyline points="6,20.07 6.38,20.07" fill="none" stroke="#111" stroke-width="1.6" stroke-linecap="round" stroke-linejoin="round"/><polyline points="6,21.32 6.38,21.32" fill="none" stroke="#111" stroke-width="1.6" stroke-linecap="round" stroke-linejoin="round"/><polyline points="6,22.58 6.38,22.58" fill="none" stroke="#111" stroke-width="1.6" stroke-linecap="round" stroke-linejoin="round"/><polyline points="6,23.84 6.38,23.84" fill="none" stroke="#111" stroke-width="1.6" stroke-linecap="round" stroke-linejoin="round"/><polyline points="6,25.09 6.38,25.09" fill="none" stroke="#111" stroke-width="1.6" stroke-linecap="round" stroke-linejoin="round"/><polyline points="6,26.35 6.38,26.35" fill="none" stroke="#111" stroke-width="1.6" stroke-linecap="round" stroke-linejoin="round"/><polyline points="6,27.6 6.38,27.6" fill="none" stroke="#111" stroke-width="1.6" stroke-linecap="round" stroke-linejoin="round"/><polyline points="6,28.86 6.38,28.86" fill="none" stroke="#111" stroke-width="1.6" stroke-linecap="round" stroke-linejoin="round"/><polyline points="6,30.12 6.38,30.12" fill="none" stroke="#111" stroke-width="1.6" stroke-linecap="round" stroke-linejoin="round"/><polyline points="6,31.37 6.38,31.37" fill="none" stroke="#111" stroke-width="1.6" stroke-linecap="round" stroke-linejoin="round"/><polyline points="6,32.63 6.38,32.63" fill="none" stroke="#111" stroke-width="1.6" stroke-linecap="round" stroke-linejoin="round"/><polyline points="6,33.88 6.38,33.88" fill="none" stroke="#111" stroke-width="1.6" stroke-linecap="round" stroke-linejoin="round"/><polyline points="6,35.14 6.38,35.14" fill="none" stroke="#111" stroke-width="1.6" stroke-linecap="round" stroke-linejoin="round"/><polyline points="6,36.4 6.38,36.4" fill="none" stroke="#111" stroke-width="1.6" stroke-linecap="round" stroke-linejoin="round"/><polyline points="6,37.65 6.38,37.65" fill="none" stroke="#111" stroke-width="1.6" stroke-linecap="round" stroke-linejoin="round"/><polyline points="6,38.91 6.38,38.91" fill="none" stroke="#111" stroke-width="1.6" stroke-linecap="round" stroke-linejoin="round"/><polyline points="6,40.16 6.38,40.16" fill="none" stroke="#111" stroke-width="1.6" stroke-linecap="round" stroke-linejoin="round"/><polyline points="6,41.42 6.38,41.42" fill="none" stroke="#111" stroke-width="1.6" stroke-linecap="round" stroke-linejoin="round"/><polyline points="6,42.68 6.38,42.68" fill="none" stroke="#111" stroke-width="1.6" stroke-linecap="round" stroke-linejoin="round"/><polyline points="6,43.93 6.38,43.93" fill="none" stroke="#111" stroke-width="1.6" stroke-linecap="round" stroke-linejoin="round"/><polyline points="6,45.19 6.38,45.19" fill="none" stroke="#111" stroke-width="1.6" stroke-linecap="round" stroke-linejoin="round"/><polyline points="6,46.44 6.38,46.44" fill="none" stroke="#111" stroke-width="1.6" stroke-linecap="round" stroke-linejoin="round"/><polyline points="6,47.7 6.38,47.7" fill="none" stroke="#111" stroke-width="1.6" stroke-linecap="round" stroke-linejoin="round"/><polyline points="6,48.96 6.38,48.96" fill="none" stroke="#111" stroke-width="1.6" stroke-linecap="round" stroke-linejoin="round"/><polyline points="6,50.21 6.38,50.21" fill="none" stroke="#111" stroke-width="1.6" stroke-linecap="round" stroke-linejoin="round"/><polyline points="6,51.47 6.38,51.47" fill="none" stroke="#111" stroke-width="1.6" stroke-linecap="round" stroke-linejoin="round"/><polyline points="6,52.72 6.38,52.72" fill="none" stroke="#111" stroke-width="1.6" stroke-linecap="round" stroke-linejoin="round"/><polyline points="6,53.98 6.38,53.98" fill="none" stroke="#111" stroke-width="1.6" stroke-linecap="round" stroke-linejoin="round"/><polyline points="6,55.24 6.38,55.24" fill="none" stroke="#111" stroke-width="1.6" stroke-linecap="round" stroke-linejoin="round"/><polyline points="6,56.49 6.38,56.49" fill="none" stroke="#111" stroke-width="1.6" stroke-linecap="round" stroke-linejoin="round"/><polyline points="6,57.75 6.38,57.75" fill="none" stroke="#111" stroke-width="1.6" stroke-linecap="round" stroke-linejoin="round"/><path d="M 6.63 6.5 Q 6.38 6.25 6.63 6" fill="none" stroke="#111" stroke-width="1.6" stroke-linecap="round"/><path d="M 6.63 7.76 Q 6.38 7.51 6.63 7.26" fill="none" stroke="#111" stroke-width="1.6" stroke-linecap="round"/><path d="M 6.63 9.01 Q 6.38 8.76 6.63 8.51" fill="none" stroke="#111" stroke-width="1.6" stroke-linecap="round"/><path d="M 6.63 10.27 Q 6.38 10.02 6.63 9.77" fill="none" stroke="#111" stroke-width="1.6" stroke-linecap="round"/><path d="M 6.63 11.53 Q 6.38 11.28 6.63 11.02" fill="none" stroke="#111" stroke-width="1.6" stroke-linecap="round"/><path d="M 6.63 12.78 Q 6.38 12.53 6.63 12.28" fill="none" stroke="#111" stroke-width="1.6" stroke-linecap="round"/><path d="M 6.63 14.04 Q 6.38 13.79 6.63 13.54" fill="none" stroke="#111" stroke-width="1.6" stroke-linecap="round"/><path d="M 6.63 15.29 Q 6.38 15.04 6.63 14.79" fill="none" stroke="#111" stroke-width="1.6" stroke-linecap="round"/><path d="M 6.63 16.55 Q 6.38 16.3 6.63 16.05" fill="none" stroke="#111" stroke-width="1.6" stroke-linecap="round"/><path d="M 6.63 17.81 Q 6.38 17.56 6.63 17.3" fill="none" stroke="#111" stroke-width="1.6" stroke-linecap="round"/><path d="M 6.63 19.06 Q 6.38 18.81 6.63 18.56" fill="none" stroke="#111" stroke-width="1.6" stroke-linecap="round"/><path d="M 6.63 20.32 Q 6.38 20.07 6.63 19.82" fill="none" stroke="#111" stroke-width="1.6" stroke-linecap="round"/><path d="M 6.63 21.57 Q 6.38 21.32 6.63 21.07" fill="none" stroke="#111" stroke-width="1.6" stroke-linecap="round"/><path d="M 6.63 22.83 Q 6.38 22.58 6.63 22.33" fill="none" stroke="#111" stroke-width="1.6" stroke-linecap="round"/><path d="M 6.63 24.09 Q 6.38 23.84 6.63 23.58" fill="none" stroke="#111" stroke-width="1.6" stroke-linecap="round"/><path d="M 6.63 25.34 Q 6.38 25.09 6.63 24.84" fill="none" stroke="#111" stroke-width="1.6" stroke-linecap="round"/><path d="M 6.63 26.6 Q 6.38 26.35 6.63 26.1" fill="none" stroke="#111" stroke-width="1.6" stroke-linecap="round"/><path d="M 6.63 27.86 Q 6.38 27.6 6.63 27.35" fill="none" stroke="#111" stroke-width="1.6" stroke-linecap="round"/><path d="M 6.63 29.11 Q 6.38 28.86 6.63 28.61" fill="none" stroke="#111" stroke-width="1.6" stroke-linecap="round"/><path d="M 6.63 30.37 Q 6.38 30.12 6.63 29.86" fill="none" stroke="#111" stroke-width="1.6" stroke-linecap="round"/><path d="M 6.63 31.62 Q 6.38 31.37 6.63 31.12" fill="none" stroke="#111" stroke-width="1.6" stroke-linecap="round"/><path d="M 6.63 32.88 Q 6.38 32.63 6.63 32.38" fill="none" stroke="#111" stroke-width="1.6" stroke-linecap="round"/><path d="M 6.63 34.14 Q 6.38 33.88 6.63 33.63" fill="none" stroke="#111" stroke-width="1.6" stroke-linecap="round"/><path d="M 6.63 35.39 Q 6.38 35.14 6.63 34.89" fill="none" stroke="#111" stroke-width="1.6" stroke-linecap="round"/><path d="M 6.63 36.65 Q 6.38 36.4 6.63 36.14" fill="none" stroke="#111" stroke-width="1.6" stroke-linecap="round"/><path d="M 6.63 37.9 Q 6.38 37.65 6.63 37.4" fill="none" stroke="#111" stroke-width="1.6" stroke-linecap="round"/><path d="M 6.63 39.16 Q 6.38 38.91 6.63 38.66" fill="none" stroke="#111" stroke-width="1.6" stroke-linecap="round"/><path d="M 6.63 40.42 Q 6.38 40.16 6.63 39.91" fill="none" stroke="#111" stroke-width="1.6" stroke-linecap="round"/><path d="M 6.63 41.67 Q 6.38 41.42 6.63 41.17" fill="none" stroke="#111" stroke-width="1.6" stroke-linecap="round"/><path d="M 6.63 42.93 Q 6.38 42.68 6.63 42.43" fill="none" stroke="#111" stroke-width="1.6" stroke-linecap="round"/><path d="M 6.63 44.18 Q 6.38 43.93 6.63 43.68" fill="none" stroke="#111" stroke-width="1.6" stroke-linecap="round"/><path d="M 6.63 45.44 Q 6.38 45.19 6.63 44.94" fill="none" stroke="#111" stroke-width="1.6" stroke-linecap="round"/><path d="M 6.63 46.7 Q 6.38 46.44 6.63 46.19" fill="none" stroke="#111" stroke-width="1.6" stroke-linecap="round"/><path d="M 6.63 47.95 Q 6.38 47.7 6.63 47.45" fill="none" stroke="#111" stroke-width="1.6" stroke-linecap="round"/><path d="M 6.63 49.21 Q 6.38 48.96 6.63 48.71" fill="none" stroke="#111" stroke-width="1.6" stroke-linecap="round"/><path d="M 6.63 50.46 Q 6.38 50.21 6.63 49.96" fill="none" stroke="#111" stroke-width="1.6" stroke-linecap="round"/><path d="M 6.63 51.72 Q 6.38 51.47 6.63 51.22" fill="none" stroke="#111" stroke-width="1.6" stroke-linecap="round"/><path d="M 6.63 52.98 Q 6.38 52.72 6.63 52.47" fill="none" stroke="#111" stroke-width="1.6" stroke-linecap="round"/><path d="M 6.63 54.23 Q 6.38 53.98 6.63 53.73" fill="none" stroke="#111" stroke-width="1.6" stroke-linecap="round"/><path d="M 6.63 55.49 Q 6.38 55.24 6.63 54.99" fill="none" stroke="#111" stroke-width="1.6" stroke-linecap="round"/><path d="M 6.63 56.74 Q 6.38 56.49 6.63 56.24" fill="none" stroke="#111" stroke-width="1.6" stroke-linecap="round"/><path d="M 6.63 58 Q 6.38 57.75 6.63 57.5" fill="none" stroke="#111" stroke-width="1.6" stroke-linecap="round"/></svg>