<svg xmlns="http://www.w3.org/2000/svg" width="96" height="64" viewBox="0 0 96 64"><rect x="6" y="6" width="39" height="52" fill="none" stroke="#111" stroke-width="1.6"/><rect x="12.5" y="12.5" width="0" height="0" fill="none" stroke="#111" stroke-width="1.6"/><rect x="27.52" y="15.56" width="2.6" height="7.14" fill="none" stroke="#111" stroke-width="1.6"/><rect x="27.77" y="34.73" width="2.61" height="7.15" fill="none" stroke="#111" stroke-width="1.6"/><polyline points="28.75,12.5 28.75,13.15 28.75,13.15" fill="none" stroke="#111" stroke-width="1.6" stroke-linecap="round" stroke-linejoin="round"/><polyline points="28.75,12.5 34.6,12.5 34.6,12.5" fill="none" stroke="#111" stroke-width="1.6" stroke-linecap="round" stroke-linejoin="round"/><polyline points="28.75,13.09 28.75,15.49" fill="none" stroke="#111" stroke-width="1.6" stroke-linecap="round" stroke-linejoin="round"/><polyline points="28.75,24.85 28.75,22.7" fill="none" stroke="#111" stroke-width="1.6" stroke-linecap="round" stroke-linejoin="round"/><polyline points="28.75,25.5 28.75,24.85 28.75,24.85" fill="none" stroke="#111" stroke-width="1.6" stroke-linecap="round" stroke-linejoin="round"/><polyline points="28.75,25.5 34.6,25.5 34.6,25.5" fill="none" stroke="#111" stroke-width="1.6" stroke-linecap="round" stroke-linejoin="round"/><polyline points="29.01,31.67 29.01,32.33 29.01,32.33" fill="none" stroke="#111" stroke-width="1.6" stroke-linecap="round" stroke-linejoin="round"/><polyline points="29.01,31.67 34.86,31.67 34.86,31.67" fill="none" stroke="#111" stroke-width="1.6" stroke-linecap="round" stroke-linejoin="round"/><polyline points="29.01,32.26 29.01,34.66" fill="none" stroke="#111" stroke-width="1.6" stroke-linecap="round" stroke-linejoin="round"/><polyline points="29.01,44.02 29.01,41.88" fill="none" stroke="#111" stroke-width="1.6" stroke-linecap="round" stroke-linejoin="round"/><polyline points="29.01,44.67 29.01,44.02 29.01,44.02" fill="none" stroke="#111" stroke-width="1.6" stroke-linecap="round" stroke-linejoin="round"/><polyline points="29.01,44.67 34.86,44.67 34.86,44.67" fill="none" stroke="#111" stroke-width="1.6" stroke-linecap="round" stroke-linejoin="round"/><polyline points="32.78,17.7 32.78,20.3 30.18,19 32.78,17.7 32.78,17.7" fill="none" stroke="#111" stroke-width="1.6" stroke-linecap="round" stroke-linejoin="round"/><polyline points="32.78,18.93 34.6,18.93" fill="none" stroke="#111" stroke-width="1.6" stroke-linecap="round" stroke-linejoin="round"/><polyline points="33.04,36.88 33.04,39.47 30.44,38.17 33.04,36.88 33.04,36.88" fill="none" stroke="#111" stroke-width="1.6" stroke-linecap="round" stroke-linejoin="round"/><polyline points="33.04,38.11 34.86,38.11" fill="none" stroke="#111" stroke-width="1.6" stroke-linecap="round" stroke-linejoin="round"/></svg>