<svg xmlns="http://www.w3.org/2000/svg" width="96" height="64" viewBox="0 0 96 64"><path d="M 11.02 6 Q 14.5 9.5 11.02 13" fill="none" stroke="#111" stroke-width="1.6" stroke-linecap="round"/><path d="M 11.02 18.5 Q 14.5 22 11.02 25.5" fill="none" stroke="#111" stroke-width="1.6" stroke-linecap="round"/><path d="M 11.02 38.5 Q 14.5 42 11.02 45.5" fill="none" stroke="#111" stroke-width="1.6" stroke-linecap="round"/><path d="M 11.02 51 Q 14.5 54.5 11.02 58" fill="none" stroke="#111" stroke-width="1.6" stroke-linecap="round"/><polyline points="11.02,6 7.52,6 7.52,13 11.02,13" fill="none" stroke="#111" stroke-width="1.6" stroke-linecap="round" stroke-linejoin="round"/><polyline points="11.02,18.5 7.52,18.5 7.52,25.5 11.02,25.5" fill="none" stroke="#111" stroke-width="1.6" stroke-linecap="round" stroke-linejoin="round"/><polyline points="11.02,45.5 7.52,45.5 7.52,38.5 11.02,38.5" fill="none" stroke="#111" stroke-width="1.6" stroke-linecap="round" stroke-linejoin="round"/><polyline points="11.02,58 7.52,58 7.52,51 11.02,51" fill="none" stroke="#111" stroke-width="1.6" stroke-linecap="round" stroke-linejoin="round"/><polyline points="17,29.75 19,29.75" fill="none" stroke="#111" stroke-width="1.6" stroke-linecap="round" stroke-linejoin="round"/><polyline points="17,29.75 17,9.5 14.5,9.5" fill="none" stroke="#111" stroke-width="1.6" stroke-linecap="round" stroke-linejoin="round"/><polyline points="17,34.25 19,34.25" fill="none" stroke="#111" stroke-width="1.6" stroke-linecap="round" stroke-linejoin="round"/><polyline points="17,34.25 17,54.5 14.5,54.5" fill="none" stroke="#111" stroke-width="1.6" stroke-linecap="round" stroke-linejoin="round"/><polyline points="18.25,28.5 21.5,28.5" fill="none" stroke="#111" stroke-width="1.6" stroke-linecap="round" stroke-linejoin="round"/><polyline points="18.25,35.5 21.5,35.5" fill="none" stroke="#111" stroke-width="1.6" stroke-linecap="round" stroke-linejoin="round"/><polyline points="19.5,31.25 16,31.25 16,22 14.5,22" fill="none" stroke="#111" stroke-width="1.6" stroke-linecap="round" stroke-linejoin="round"/><polyline points="19.5,32.75 16,32.75 16,42 14.5,42" fill="none" stroke="#111" stroke-width="1.6" stroke-linecap="round" stroke-linejoin="round"/><path d="M 21.5 28.5 Q 24.29 29.55 26 32" fill="none" stroke="#111" stroke-width="1.6" stroke-linecap="round"/><path d="M 26 32 Q 24.3 34.46 21.5 35.5" fill="none" stroke="#111" stroke-width="1.6" stroke-linecap="round"/><polyline points="21.5,28.5 21.5,35.5 18.25,35.5 19,34.5 19.5,33.5 19.75,32.5 19.75,32 19.75,31.5 19.5,30.5 19,29.5 18.25,28.5 22.25,28.5" fill="none" stroke="#111" stroke-width="1.6" stroke-linecap="round" stroke-linejoin="round"/><polyline points="6,7 7.5,7" fill="none" stroke="#111" stroke-width="1.6" stroke-linecap="round" stroke-linejoin="round"/><polyline points="6,12 7.5,12" fill="none" stroke="#111" stroke-width="1.6" stroke-linecap="round" stroke-linejoin="round"/><polyline points="6,17 6,19.5 7.5,19.5" fill="none" stroke="#111" stroke-width="1.6" stroke-linecap="round" stroke-linejoin="round"/><polyline points="6,22 7.5,22" fill="none" stroke="#111" stroke-width="1.6" stroke-linecap="round" stroke-linejoin="round"/><polyline points="6,27 6,24.5 7.5,24.5" fill="none" stroke="#111" stroke-width="1.6" stroke-linecap="round" stroke-linejoin="round"/><polyline points="6,37 6,39.5 7.5,39.5" fill="none" stroke="#111" stroke-width="1.6" stroke-linecap="round" stroke-linejoin="round"/><polyline points="6,42 7.5,42" fill="none" stroke="#111" stroke-width="1.6" stroke-linecap="round" stroke-linejoin="round"/><polyline points="6,47 6,44.5 7.5,44.5" fill="none" stroke="#111" stroke-width="1.6" stroke-linecap="round" stroke-linejoin="round"/><polyline points="6,52 7.5,52" fill="none" stroke="#111" stroke-width="1.6" stroke-linecap="round" stroke-linejoin="round"/><polyline points="6,57 7.5,57" fill="none" stroke="#111" stroke-width="1.6" stroke-linecap="round" stroke-linejoin="round"/><path d="M 18.25 28.5 Q 19.7 32 18.25 35.5" fill="none" stroke="#111" stroke-width="1.6" stroke-linecap="round"/><rect x="8.5" y="19.5" width="10" height="25" fill="none" stroke="#111" stroke-width="1.6"/></svg>