<svg xmlns="http://www.w3.org/2000/svg" width="96" height="64" viewBox="0 0 96 64"><rect x="6" y="6" width="26" height="52" fill="none" stroke="#111" stroke-width="1.6"/><polyline points="15.1,19.22 15.1,17.48 18.13,17.48" fill="none" stroke="#111" stroke-width="1.6" stroke-linecap="round" stroke-linejoin="round"/><polyline points="15.1,27.88 15.1,26.15 18.13,26.15" fill="none" stroke="#111" stroke-width="1.6" stroke-linecap="round" stroke-linejoin="round"/><polyline points="15.1,36.55 15.1,34.82 18.13,34.82" fill="none" stroke="#111" stroke-width="1.6" stroke-linecap="round" stroke-linejoin="round"/><polyline points="15.1,45.22 15.1,43.48 18.13,43.48" fill="none" stroke="#111" stroke-width="1.6" stroke-linecap="round" stroke-linejoin="round"/><polyline points="18.13,20.95 15.1,20.95 15.1,19.22 11.63,19.22" fill="none" stroke="#111" stroke-width="1.6" stroke-linecap="round" stroke-linejoin="round"/><polyline points="18.13,20.95 21.17,19.22 21.17,22.68 18.13,20.95" fill="none" stroke="#111" stroke-width="1.6" stroke-linecap="round" stroke-linejoin="round"/><polyline points="18.13,29.62 15.1,29.62 15.1,27.88 12.07,27.88" fill="none" stroke="#111" stroke-width="1.6" stroke-linecap="round" stroke-linejoin="round"/><polyline points="18.13,29.62 21.17,27.88 21.17,31.35 18.13,29.62" fill="none" stroke="#111" stroke-width="1.6" stroke-linecap="round" stroke-linejoin="round"/><polyline points="18.13,38.28 15.1,38.28 15.1,36.55 12.07,36.55" fill="none" stroke="#111" stroke-width="1.6" stroke-linecap="round" stroke-linejoin="round"/><polyline points="18.13,38.28 21.17,36.55 21.17,40.02 18.13,38.28" fill="none" stroke="#111" stroke-width="1.6" stroke-linecap="round" stroke-linejoin="round"/><polyline points="18.13,46.95 15.1,46.95 15.1,45.22 12.07,45.22" fill="none" stroke="#111" stroke-width="1.6" stroke-linecap="round" stroke-linejoin="round"/><polyline points="18.13,46.95 21.17,45.22 21.17,48.68 18.13,46.95" fill="none" stroke="#111" stroke-width="1.6" stroke-linecap="round" stroke-linejoin="round"/><polyline points="21.17,17.48 18.13,19.22 18.13,15.75 21.17,17.48" fill="none" stroke="#111" stroke-width="1.6" stroke-linecap="round" stroke-linejoin="round"/><polyline points="21.17,17.48 24.2,17.48 24.2,19.22 26.37,19.22" fill="none" stroke="#111" stroke-width="1.6" stroke-linecap="round" stroke-linejoin="round"/><polyline points="21.17,26.15 18.13,27.88 18.13,24.42 21.17,26.15" fill="none" stroke="#111" stroke-width="1.6" stroke-linecap="round" stroke-linejoin="round"/><polyline points="21.17,26.15 24.2,26.15 24.2,27.88 26.37,27.88" fill="none" stroke="#111" stroke-width="1.6" stroke-linecap="round" stroke-linejoin="round"/><polyline points="21.17,34.82 18.13,36.55 18.13,33.08 21.17,34.82" fill="none" stroke="#111" stroke-width="1.6" stroke-linecap="round" stroke-linejoin="round"/><polyline points="21.17,34.82 24.2,34.82 24.2,36.55 26.37,36.55" fill="none" stroke="#111" stroke-width="1.6" stroke-linecap="round" stroke-linejoin="round"/><polyline points="21.17,43.48 18.13,45.22 18.13,41.75 21.17,43.48" fill="none" stroke="#111" stroke-width="1.6" stroke-linecap="round" stroke-linejoin="round"/><polyline points="21.17,43.48 24.2,43.48 24.2,45.22 26.37,45.22" fill="none" stroke="#111" stroke-width="1.6" stroke-linecap="round" stroke-linejoin="round"/><polyline points="24.2,19.22 24.2,20.95 21.17,20.95" fill="none" stroke="#111" stroke-width="1.6" stroke-linecap="round" stroke-linejoin="round"/><polyline points="24.2,27.88 24.2,29.62 21.17,29.62" fill="none" stroke="#111" stroke-width="1.6" stroke-linecap="round" stroke-linejoin="round"/><polyline points="24.2,36.55 24.2,38.28 21.17,38.28" fill="none" stroke="#111" stroke-width="1.6" stroke-linecap="round" stroke-linejoin="round"/><polyline points="24.2,45.22 24.2,46.95 21.17,46.95" fill="none" stroke="#111" stroke-width="1.6" stroke-linecap="round" stroke-linejoin="round"/></svg>