<svg xmlns="http://www.w3.org/2000/svg" width="96" height="64" viewBox="0 0 96 64"><rect x="6" y="6" width="1.58" height="52" fill="none" stroke="#111" stroke-width="1.6"/><rect x="6.16" y="6.16" width="1.26" height="51.68" fill="none" stroke="#111" stroke-width="1.6"/><rect x="6.16" y="6.71" width="0.79" height="0.16" fill="none" stroke="#111" stroke-width="1.6"/><rect x="6.16" y="8.28" width="0.79" height="0.16" fill="none" stroke="#111" stroke-width="1.6"/><rect x="6.16" y="9.86" width="0.79" height="0.16" fill="none" stroke="#111" stroke-width="1.6"/><rect x="6.16" y="11.44" width="0.79" height="0.15" fill="none" stroke="#111" stroke-width="1.6"/><rect x="6.16" y="13.01" width="0.79" height="0.16" fill="none" stroke="#111" stroke-width="1.6"/><rect x="6.16" y="14.59" width="0.79" height="0.16" fill="none" stroke="#111" stroke-width="1.6"/><rect x="6.16" y="16.16" width="0.79" height="0.16" fill="none" stroke="#111" stroke-width="1.6"/><rect x="6.16" y="17.74" width="0.79" height="0.16" fill="none" stroke="#111" stroke-width="1.6"/><rect x="6.16" y="19.32" width="0.79" height="0.15" fill="none" stroke="#111" stroke-width="1.6"/><rect x="6.16" y="20.89" width="0.79" height="0.16" fill="none" stroke="#111" stroke-width="1.6"/><rect x="6.16" y="22.47" width="0.79" height="0.15" fill="none" stroke="#111" stroke-width="1.6"/><rect x="6.16" y="24.04" width="0.79" height="0.16" fill="none" stroke="#111" stroke-width="1.6"/><rect x="6.16" y="25.62" width="0.79" height="0.16" fill="none" stroke="#111" stroke-width="1.6"/><rect x="6.16" y="27.19" width="0.79" height="0.16" fill="none" stroke="#111" stroke-width="1.6"/><rect x="6.16" y="28.77" width="0.79" height="0.16" fill="none" stroke="#111" stroke-width="1.6"/><rect x="6.16" y="30.35" width="0.79" height="0.15" fill="none" stroke="#111" stroke-width="1.6"/><rect x="6.16" y="31.92" width="0.79" height="0.16" fill="none" stroke="#111" stroke-width="1.6"/><rect x="6.16" y="33.5" width="0.79" height="0.15" fill="none" stroke="#111" stroke-width="1.6"/><rect x="6.16" y="35.07" width="0.79" height="0.16" fill="none" stroke="#111" stroke-width="1.6"/><rect x="6.16" y="36.65" width="0.79" height="0.16" fill="none" stroke="#111" stroke-width="1.6"/><rect x="6.16" y="38.22" width="0.79" height="0.16" fill="none" stroke="#111" stroke-width="1.6"/><rect x="6.16" y="39.8" width="0.79" height="0.16" fill="none" stroke="#111" stroke-width="1.6"/><rect x="6.16" y="41.38" width="0.79" height="0.15" fill="none" stroke="#111" stroke-width="1.6"/><rect x="6.16" y="42.95" width="0.79" height="0.16" fill="none" stroke="#111" stroke-width="1.6"/><rect x="6.16" y="44.53" width="0.79" height="0.15" fill="none" stroke="#111" stroke-width="1.6"/><rect x="6.16" y="46.1" width="0.79" height="0.16" fill="none" stroke="#111" stroke-width="1.6"/><rect x="6.16" y="47.68" width="0.79" height="0.16" fill="none" stroke="#111" stroke-width="1.6"/><rect x="6.16" y="49.25" width="0.79" height="0.16" fill="none" stroke="#111" stroke-width="1.6"/><rect x="6.16" y="50.83" width="0.79" height="0.16" fill="none" stroke="#111" stroke-width="1.6"/><rect x="6.16" y="52.41" width="0.79" height="0.15" fill="none" stroke="#111" stroke-width="1.6"/><rect x="6.16" y="53.98" width="0.79" height="0.16" fill="none" stroke="#111" stroke-width="1.6"/><rect x="6.16" y="55.56" width="0.79" height="0.16" fill="none" stroke="#111" stroke-width="1.6"/><rect x="6.16" y="57.13" width="0.79" height="0.16" fill="none" stroke="#111" stroke-width="1.6"/></svg>