<svg xmlns="http://www.w3.org/2000/svg" width="96" height="64" viewBox="0 0 96 64"><rect x="6" y="6" width="39" height="52" fill="none" stroke="#111" stroke-width="1.6"/><rect x="13.8" y="9.9" width="18.2" height="44.2" fill="none" stroke="#111" stroke-width="1.6"/><polyline points="13.8,12.5 11.2,16.4 16.4,16.4 13.8,12.5" fill="none" stroke="#111" stroke-width="1.6" stroke-linecap="round" stroke-linejoin="round"/><circle cx="13.8" cy="19" r="1.3" fill="none" stroke="#111" stroke-width="1.6"/><polyline points="13.8,19 6,19" fill="none" stroke="#111" stroke-width="1.6" stroke-linecap="round" stroke-linejoin="round"/><polyline points="13.8,21.6 11.2,25.5 16.4,25.5 13.8,21.6" fill="none" stroke="#111" stroke-width="1.6" stroke-linecap="round" stroke-linejoin="round"/><polyline points="16.4,12.5 11.2,12.5" fill="none" stroke="#111" stroke-width="1.6" stroke-linecap="round" stroke-linejoin="round"/><polyline points="16.4,21.6 11.2,21.6" fill="none" stroke="#111" stroke-width="1.6" stroke-linecap="round" stroke-linejoin="round"/><circle cx="21.6" cy="9.9" r="1.3" fill="none" stroke="#111" stroke-width="1.6"/><polyline points="21.6,38.5 19,42.4 24.2,42.4 21.6,38.5" fill="none" stroke="#111" stroke-width="1.6" stroke-linecap="round" stroke-linejoin="round"/><circle cx="21.6" cy="45" r="1.3" fill="none" stroke="#111" stroke-width="1.6"/><polyline points="21.6,45 6,45" fill="none" stroke="#111" stroke-width="1.6" stroke-linecap="round" stroke-linejoin="round"/><polyline points="21.6,47.6 19,51.5 24.2,51.5 21.6,47.6" fill="none" stroke="#111" stroke-width="1.6" stroke-linecap="round" stroke-linejoin="round"/><circle cx="21.6" cy="54.1" r="1.3" fill="none" stroke="#111" stroke-width="1.6"/><polyline points="21.6,54.1 21.6,9.9" fill="none" stroke="#111" stroke-width="1.6" stroke-linecap="round" stroke-linejoin="round"/><polyline points="24.2,38.5 19,38.5" fill="none" stroke="#111" stroke-width="1.6" stroke-linecap="round" stroke-linejoin="round"/><polyline points="24.2,47.6 19,47.6" fill="none" stroke="#111" stroke-width="1.6" stroke-linecap="round" stroke-linejoin="round"/><polyline points="32,26.8 37.2,37.2 26.8,37.2 32,26.8" fill="none" stroke="#111" stroke-width="1.6" stroke-linecap="round" stroke-linejoin="round"/><polyline points="32,54.1 32,58" fill="none" stroke="#111" stroke-width="1.6" stroke-linecap="round" stroke-linejoin="round"/><circle cx="32" cy="54.1" r="1.3" fill="none" stroke="#111" stroke-width="1.6"/><polyline points="37.2,26.8 26.8,26.8 26.8,29.4" fill="none" stroke="#111" stroke-width="1.6" stroke-linecap="round" stroke-linejoin="round"/></svg>