<svg xmlns="http://www.w3.org/2000/svg" width="96" height="64" viewBox="0 0 96 64"><polyline points="6,57.71 68.81,57.71 36.67,6.58 6,57.71" fill="none" stroke="#111" stroke-width="1.6" stroke-linecap="round" stroke-linejoin="round"/><polyline points="22.07,31.42 61.51,47.48" fill="none" stroke="#111" stroke-width="1.6" stroke-linecap="round" stroke-linejoin="round"/><polyline points="68.22,57.71 67.93,57.42 66.76,55.08 66.18,54.2 65.3,53.03 64.72,51.57 56.83,38.43 56.25,37.26 55.37,36.38 55.08,35.21 54.49,34.63 53.91,33.46 53.62,33.17 53.62,33.46 53.33,33.46 51.87,34.92 51.57,35.51 51.57,36.09 51.28,36.67 50.99,37.55 49.82,38.72 49.24,39.6 48.65,39.89 47.19,41.35 45.44,42.52 44.27,43.39 42.52,44.56 41.93,45.15 40.76,45.73 40.18,46.31 39.3,46.9 37.55,49.53 36.97,50.7 36.38,52.16 36.09,53.03 35.51,53.91 35.21,54.79 34.63,55.08 34.34,55.66 33.75,55.96 32,55.96 32,55.66 31.42,55.37 31.12,54.49 30.83,53.33 30.83,48.36 31.42,46.02 32,45.15 33.75,43.39 34.34,42.52 35.21,41.93 35.51,41.35 35.8,40.47 36.09,39.89 36.38,39.6 36.38,39.01 36.67,38.43 35.8,37.55 35.21,37.26 34.92,36.67 34.34,36.38 34.04,36.09 33.75,36.09 33.17,36.67 32.58,36.97 31.71,37.26 31.12,37.55 30.25,38.43 29.66,38.72 27.03,41.35 27.33,42.22 27.62,42.52 27.62,45.73 27.33,46.02 27.33,46.9 27.91,47.48 27.91,47.78 29.08,50.7 29.08,53.91 28.79,54.2 28.79,54.49 28.2,55.37 27.03,55.96 26.16,55.96 25.87,55.66 25.57,55.08 24.99,54.2 24.7,53.33 23.53,50.4 22.65,47.78 22.07,46.9 21.78,46.02 21.48,45.44 21.48,45.15 20.9,43.98 20.61,42.52 20.61,41.35 20.9,40.18 21.48,38.72 21.78,38.13 22.94,36.38 24.7,34.04 25.28,33.46 25.57,32.88 26.16,32 26.45,31.42 26.74,31.42 27.33,29.96 29.66,27.62 30.54,27.33 30.83,27.03 31.71,27.03 32.58,26.74 34.04,26.45 35.51,26.45 37.26,26.16 39.01,26.16 40.18,25.87 42.22,25.87 42.81,25.57 43.39,25.57 44.56,24.99 44.85,24.7 45.44,24.4 46.02,23.82 46.61,23.53 46.9,22.94 47.19,22.65 47.19,22.07 46.9,21.78 46.61,21.19 46.02,20.31 44.85,17.98 43.98,16.81 43.39,15.64 42.52,14.18 41.93,13.3 41.06,11.84 40.18,10.67 39.6,9.51 39.01,8.63 38.72,7.75 37.84,6.88 37.84,6.58 37.55,6.29 37.55,6 36.97,6 36.97,6.29 36.38,6.88 35.51,8.63 33.75,11.26 33.17,12.43 31.42,15.35 30.25,17.1 27.91,21.19 26.45,23.53 24.99,26.16 23.24,28.79 21.48,32 20.61,33.46 19.15,36.09 16.22,40.76 15.06,43.1 13.6,45.15 12.43,47.19 11.26,48.94 10.38,50.7 8.63,53.62 8.04,54.79 7.17,55.96 6.88,56.83 6.58,57.42 6.29,57.71 6.29,58 68.22,58 68.22,57.71" fill="none" stroke="#111" stroke-width="1.6" stroke-linecap="round" stroke-linejoin="round"/></svg>