<svg xmlns="http://www.w3.org/2000/svg" width="96" height="64" viewBox="0 0 96 64"><polyline points="6,32 11.85,32" fill="none" stroke="#111" stroke-width="1.6" stroke-linecap="round" stroke-linejoin="round"/><rect x="9.25" y="20.62" width="19.5" height="22.76" fill="none" stroke="#111" stroke-width="1.6"/><circle cx="13.48" cy="32" r="1.3" fill="none" stroke="#111" stroke-width="1.6"/><polyline points="14.78,31.67 25.5,27.12" fill="none" stroke="#111" stroke-width="1.6" stroke-linecap="round" stroke-linejoin="round"/><polyline points="19,31.35 19,30.7" fill="none" stroke="#111" stroke-width="1.6" stroke-linecap="round" stroke-linejoin="round"/><polyline points="19,31.35 19,30.7" fill="none" stroke="#111" stroke-width="1.6" stroke-linecap="round" stroke-linejoin="round"/><polyline points="19,32.65 19,32" fill="none" stroke="#111" stroke-width="1.6" stroke-linecap="round" stroke-linejoin="round"/><polyline points="19,33.95 19,33.3" fill="none" stroke="#111" stroke-width="1.6" stroke-linecap="round" stroke-linejoin="round"/><polyline points="19,35.25 19,34.6" fill="none" stroke="#111" stroke-width="1.6" stroke-linecap="round" stroke-linejoin="round"/><polyline points="19,36.55 19,35.9" fill="none" stroke="#111" stroke-width="1.6" stroke-linecap="round" stroke-linejoin="round"/><polyline points="19,37.85 19,37.2" fill="none" stroke="#111" stroke-width="1.6" stroke-linecap="round" stroke-linejoin="round"/><polyline points="19,39.15 19,38.5" fill="none" stroke="#111" stroke-width="1.6" stroke-linecap="round" stroke-linejoin="round"/><polyline points="19,40.45 19,39.8" fill="none" stroke="#111" stroke-width="1.6" stroke-linecap="round" stroke-linejoin="round"/><polyline points="19,41.75 19,41.1" fill="none" stroke="#111" stroke-width="1.6" stroke-linecap="round" stroke-linejoin="round"/><polyline points="19,43.05 19,42.4" fill="none" stroke="#111" stroke-width="1.6" stroke-linecap="round" stroke-linejoin="round"/><polyline points="19,45 19,43.7" fill="none" stroke="#111" stroke-width="1.6" stroke-linecap="round" stroke-linejoin="round"/><circle cx="24.52" cy="25.5" r="1.3" fill="none" stroke="#111" stroke-width="1.6"/><circle cx="24.52" cy="38.5" r="1.3" fill="none" stroke="#111" stroke-width="1.6"/><polyline points="32,25.5 26.15,25.5" fill="none" stroke="#111" stroke-width="1.6" stroke-linecap="round" stroke-linejoin="round"/><polyline points="32,38.5 26.15,38.5" fill="none" stroke="#111" stroke-width="1.6" stroke-linecap="round" stroke-linejoin="round"/><polyline points="6,32 11.85,32" fill="none" stroke="#111" stroke-width="1.6" stroke-linecap="round" stroke-linejoin="round"/><rect x="9.25" y="20.62" width="19.5" height="22.76" fill="none" stroke="#111" stroke-width="1.6"/><circle cx="13.48" cy="32" r="1.3" fill="none" stroke="#111" stroke-width="1.6"/><polyline points="14.78,31.67 25.5,27.12" fill="none" stroke="#111" stroke-width="1.6" stroke-linecap="round" stroke-linejoin="round"/><polyline points="19,31.35 19,30.7" fill="none" stroke="#111" stroke-width="1.6" stroke-linecap="round" stroke-linejoin="round"/><polyline points="19,31.35 19,30.7" fill="none" stroke="#111" stroke-width="1.6" stroke-linecap="round" stroke-linejoin="round"/><polyline points="19,32.65 19,32" fill="none" stroke="#111" stroke-width="1.6" stroke-linecap="round" stroke-linejoin="round"/><polyline points="19,33.95 19,33.3" fill="none" stroke="#111" stroke-width="1.6" stroke-linecap="round" stroke-linejoin="round"/><polyline points="19,35.25 19,34.6" fill="none" stroke="#111" stroke-width="1.6" stroke-linecap="round" stroke-linejoin="round"/><polyline points="19,36.55 19,35.9" fill="none" stroke="#111" stroke-width="1.6" stroke-linecap="round" stroke-linejoin="round"/><polyline points="19,37.85 19,37.2" fill="none" stroke="#111" stroke-width="1.6" stroke-linecap="round" stroke-linejoin="round"/><polyline points="19,39.15 19,38.5" fill="none" stroke="#111" stroke-width="1.6" stroke-linecap="round" stroke-linejoin="round"/><polyline points="19,40.45 19,39.8" fill="none" stroke="#111" stroke-width="1.6" stroke-linecap="round" stroke-linejoin="round"/><polyline points="19,41.75 19,41.1" fill="none" stroke="#111" stroke-width="1.6" stroke-linecap="round" stroke-linejoin="round"/><polyline points="19,43.05 19,42.4" fill="none" stroke="#111" stroke-width="1.6" stroke-linecap="round" stroke-linejoin="round"/><polyline points="19,45 19,43.7" fill="none" stroke="#111" stroke-width="1.6" stroke-linecap="round" stroke-linejoin="round"/><polyline points="19,51.5 19,50.2" fill="none" stroke="#111" stroke-width="1.6" stroke-linecap="round" stroke-linejoin="round"/><circle cx="24.52" cy="25.5" r="1.3" fill="none" stroke="#111" stroke-width="1.6"/><circle cx="24.52" cy="38.5" r="1.3" fill="none" stroke="#111" stroke-width="1.6"/><polyline points="32,25.5 26.15,25.5" fill="none" stroke="#111" stroke-width="1.6" stroke-linecap="round" stroke-linejoin="round"/><polyline points="32,38.5 26.15,38.5" fill="none" stroke="#111" stroke-width="1.6" stroke-linecap="round" stroke-linejoin="round"/><polyline points="6,32 11.85,32" fill="none" stroke="#111" stroke-width="1.6" stroke-linecap="round" stroke-linejoin="round"/><rect x="9.25" y="20.62" width="19.5" height="22.76" fill="none" stroke="#111" stroke-width="1.6"/><circle cx="13.48" cy="32" r="1.3" fill="none" stroke="#111" stroke-width="1.6"/><polyline points="14.78,31.67 25.5,27.12" fill="none" stroke="#111" stroke-width="1.6" stroke-linecap="round" stroke-linejoin="round"/><polyline points="19,31.35 19,30.7" fill="none" stroke="#111" stroke-width="1.6" stroke-linecap="round" stroke-linejoin="round"/><polyline points="19,31.35 19,30.7" fill="none" stroke="#111" stroke-width="1.6" stroke-linecap="round" stroke-linejoin="round"/><polyline points="19,32.65 19,32" fill="none" stroke="#111" stroke-width="1.6" stroke-linecap="round" stroke-linejoin="round"/><polyline points="19,33.95 19,33.3" fill="none" stroke="#111" stroke-width="1.6" stroke-linecap="round" stroke-linejoin="round"/><polyline points="19,35.25 19,34.6" fill="none" stroke="#111" stroke-width="1.6" stroke-linecap="round" stroke-linejoin="round"/><polyline points="19,36.55 19,35.9" fill="none" stroke="#111" stroke-width="1.6" stroke-linecap="round" stroke-linejoin="round"/><polyline points="19,37.85 19,37.2" fill="none" stroke="#111" stroke-width="1.6" stroke-linecap="round" stroke-linejoin="round"/><polyline points="19,39.15 19,38.5" fill="none" stroke="#111" stroke-width="1.6" stroke-linecap="round" stroke-linejoin="round"/><polyline points="19,40.45 19,39.8" fill="none" stroke="#111" stroke-width="1.6" stroke-linecap="round" stroke-linejoin="round"/><polyline points="19,41.75 19,41.1" fill="none" stroke="#111" stroke-width="1.6" stroke-linecap="round" stroke-linejoin="round"/><polyline points="19,43.05 19,42.4" fill="none" stroke="#111" stroke-width="1.6" stroke-linecap="round" stroke-linejoin="round"/><polyline points="19,45 19,43.7" fill="none" stroke="#111" stroke-width="1.6" stroke-linecap="round" stroke-linejoin="round"/><circle cx="24.52" cy="25.5" r="1.3" fill="none" stroke="#111" stroke-width="1.6"/><circle cx="24.52" cy="38.5" r="1.3" fill="none" stroke="#111" stroke-width="1.6"/><polyline points="32,25.5 26.15,25.5" fill="none" stroke="#111" stroke-width="1.6" stroke-linecap="round" stroke-linejoin="round"/><polyline points="32,38.5 26.15,38.5" fill="none" stroke="#111" stroke-width="1.6" stroke-linecap="round" stroke-linejoin="round"/><rect x="6" y="6" width="32.5" height="52" fill="none" stroke="#111" stroke-width="1.6"/></svg>