<svg xmlns="http://www.w3.org/2000/svg" width="96" height="64" viewBox="0 0 96 64"><polyline points="6,6.37 6.55,6.37" fill="none" stroke="#111" stroke-width="1.6" stroke-linecap="round" stroke-linejoin="round"/><polyline points="6,8.2 6.55,8.2" fill="none" stroke="#111" stroke-width="1.6" stroke-linecap="round" stroke-linejoin="round"/><polyline points="6,10.03 6.55,10.03" fill="none" stroke="#111" stroke-width="1.6" stroke-linecap="round" stroke-linejoin="round"/><polyline points="6,11.86 6.55,11.86" fill="none" stroke="#111" stroke-width="1.6" stroke-linecap="round" stroke-linejoin="round"/><polyline points="6,13.69 6.55,13.69" fill="none" stroke="#111" stroke-width="1.6" stroke-linecap="round" stroke-linejoin="round"/><polyline points="6,15.52 6.55,15.52" fill="none" stroke="#111" stroke-width="1.6" stroke-linecap="round" stroke-linejoin="round"/><polyline points="6,17.35 6.55,17.35" fill="none" stroke="#111" stroke-width="1.6" stroke-linecap="round" stroke-linejoin="round"/><polyline points="6,19.18 6.55,19.18" fill="none" stroke="#111" stroke-width="1.6" stroke-linecap="round" stroke-linejoin="round"/><polyline points="6,21.01 6.55,21.01" fill="none" stroke="#111" stroke-width="1.6" stroke-linecap="round" stroke-linejoin="round"/><polyline points="6,22.85 6.55,22.85" fill="none" stroke="#111" stroke-width="1.6" stroke-linecap="round" stroke-linejoin="round"/><polyline points="6,24.68 6.55,24.68" fill="none" stroke="#111" stroke-width="1.6" stroke-linecap="round" stroke-linejoin="round"/><polyline points="6,26.51 6.55,26.51" fill="none" stroke="#111" stroke-width="1.6" stroke-linecap="round" stroke-linejoin="round"/><polyline points="6,28.34 6.55,28.34" fill="none" stroke="#111" stroke-width="1.6" stroke-linecap="round" stroke-linejoin="round"/><polyline points="6,30.17 6.55,30.17" fill="none" stroke="#111" stroke-width="1.6" stroke-linecap="round" stroke-linejoin="round"/><polyline points="6,32 6.55,32" fill="none" stroke="#111" stroke-width="1.6" stroke-linecap="round" stroke-linejoin="round"/><polyline points="6,33.83 6.55,33.83" fill="none" stroke="#111" stroke-width="1.6" stroke-linecap="round" stroke-linejoin="round"/><polyline points="6,35.66 6.55,35.66" fill="none" stroke="#111" stroke-width="1.6" stroke-linecap="round" stroke-linejoin="round"/><polyline points="6,37.49 6.55,37.49" fill="none" stroke="#111" stroke-width="1.6" stroke-linecap="round" stroke-linejoin="round"/><polyline points="6,39.32 6.55,39.32" fill="none" stroke="#111" stroke-width="1.6" stroke-linecap="round" stroke-linejoin="round"/><polyline points="6,41.15 6.55,41.15" fill="none" stroke="#111" stroke-width="1.6" stroke-linecap="round" stroke-linejoin="round"/><polyline points="6,42.99 6.55,42.99" fill="none" stroke="#111" stroke-width="1.6" stroke-linecap="round" stroke-linejoin="round"/><polyline points="6,44.82 6.55,44.82" fill="none" stroke="#111" stroke-width="1.6" stroke-linecap="round" stroke-linejoin="round"/><polyline points="6,46.65 6.55,46.65" fill="none" stroke="#111" stroke-width="1.6" stroke-linecap="round" stroke-linejoin="round"/><polyline points="6,48.48 6.55,48.48" fill="none" stroke="#111" stroke-width="1.6" stroke-linecap="round" stroke-linejoin="round"/><polyline points="6,50.31 6.55,50.31" fill="none" stroke="#111" stroke-width="1.6" stroke-linecap="round" stroke-linejoin="round"/><polyline points="6,52.14 6.55,52.14" fill="none" stroke="#111" stroke-width="1.6" stroke-linecap="round" stroke-linejoin="round"/><polyline points="6,53.97 6.55,53.97" fill="none" stroke="#111" stroke-width="1.6" stroke-linecap="round" stroke-linejoin="round"/><polyline points="6,55.8 6.55,55.8" fill="none" stroke="#111" stroke-width="1.6" stroke-linecap="round" stroke-linejoin="round"/><polyline points="6,57.63 6.55,57.63" fill="none" stroke="#111" stroke-width="1.6" stroke-linecap="round" stroke-linejoin="round"/><path d="M 6.92 6.73 Q 6.55 6.37 6.92 6" fill="none" stroke="#111" stroke-width="1.6" stroke-linecap="round"/><path d="M 6.92 8.56 Q 6.55 8.2 6.92 7.83" fill="none" stroke="#111" stroke-width="1.6" stroke-linecap="round"/><path d="M 6.92 10.39 Q 6.55 10.03 6.92 9.66" fill="none" stroke="#111" stroke-width="1.6" stroke-linecap="round"/><path d="M 6.92 12.23 Q 6.55 11.86 6.92 11.49" fill="none" stroke="#111" stroke-width="1.6" stroke-linecap="round"/><path d="M 6.92 14.06 Q 6.55 13.69 6.92 13.32" fill="none" stroke="#111" stroke-width="1.6" stroke-linecap="round"/><path d="M 6.92 15.89 Q 6.55 15.52 6.92 15.15" fill="none" stroke="#111" stroke-width="1.6" stroke-linecap="round"/><path d="M 6.92 17.72 Q 6.55 17.35 6.92 16.99" fill="none" stroke="#111" stroke-width="1.6" stroke-linecap="round"/><path d="M 6.92 19.55 Q 6.55 19.18 6.92 18.82" fill="none" stroke="#111" stroke-width="1.6" stroke-linecap="round"/><path d="M 6.92 21.38 Q 6.55 21.01 6.92 20.65" fill="none" stroke="#111" stroke-width="1.6" stroke-linecap="round"/><path d="M 6.92 23.21 Q 6.55 22.85 6.92 22.48" fill="none" stroke="#111" stroke-width="1.6" stroke-linecap="round"/><path d="M 6.92 25.04 Q 6.55 24.68 6.92 24.31" fill="none" stroke="#111" stroke-width="1.6" stroke-linecap="round"/><path d="M 6.92 26.87 Q 6.55 26.51 6.92 26.14" fill="none" stroke="#111" stroke-width="1.6" stroke-linecap="round"/><path d="M 6.92 28.7 Q 6.55 28.34 6.92 27.97" fill="none" stroke="#111" stroke-width="1.6" stroke-linecap="round"/><path d="M 6.92 30.54 Q 6.55 30.17 6.92 29.8" fill="none" stroke="#111" stroke-width="1.6" stroke-linecap="round"/><path d="M 6.92 32.37 Q 6.55 32 6.92 31.63" fill="none" stroke="#111" stroke-width="1.6" stroke-linecap="round"/><path d="M 6.92 34.2 Q 6.55 33.83 6.92 33.46" fill="none" stroke="#111" stroke-width="1.6" stroke-linecap="round"/><path d="M 6.92 36.03 Q 6.55 35.66 6.92 35.3" fill="none" stroke="#111" stroke-width="1.6" stroke-linecap="round"/><path d="M 6.92 37.86 Q 6.55 37.49 6.92 37.13" fill="none" stroke="#111" stroke-width="1.6" stroke-linecap="round"/><path d="M 6.92 39.69 Q 6.55 39.32 6.92 38.96" fill="none" stroke="#111" stroke-width="1.6" stroke-linecap="round"/><path d="M 6.92 41.52 Q 6.55 41.15 6.92 40.79" fill="none" stroke="#111" stroke-width="1.6" stroke-linecap="round"/><path d="M 6.92 43.35 Q 6.55 42.99 6.92 42.62" fill="none" stroke="#111" stroke-width="1.6" stroke-linecap="round"/><path d="M 6.92 45.18 Q 6.55 44.82 6.92 44.45" fill="none" stroke="#111" stroke-width="1.6" stroke-linecap="round"/><path d="M 6.92 47.01 Q 6.55 46.65 6.92 46.28" fill="none" stroke="#111" stroke-width="1.6" stroke-linecap="round"/><path d="M 6.92 48.85 Q 6.55 48.48 6.92 48.11" fill="none" stroke="#111" stroke-width="1.6" stroke-linecap="round"/><path d="M 6.92 50.68 Q 6.55 50.31 6.92 49.94" fill="none" stroke="#111" stroke-width="1.6" stroke-linecap="round"/><path d="M 6.92 52.51 Q 6.55 52.14 6.92 51.77" fill="none" stroke="#111" stroke-width="1.6" stroke-linecap="round"/><path d="M 6.92 54.34 Q 6.55 53.97 6.92 53.61" fill="none" stroke="#111" stroke-width="1.6" stroke-linecap="round"/><path d="M 6.92 56.17 Q 6.55 55.8 6.92 55.44" fill="none" stroke="#111" stroke-width="1.6" stroke-linecap="round"/><path d="M 6.92 58 Q 6.55 57.63 6.92 57.27" fill="none" stroke="#111" stroke-width="1.6" stroke-linecap="round"/></svg>