<svg xmlns="http://www.w3.org/2000/svg" width="96" height="64" viewBox="0 0 96 64"><rect x="6" y="6" width="1.24" height="52" fill="none" stroke="#111" stroke-width="1.6"/><rect x="6" y="6.56" width="0.62" height="0.12" fill="none" stroke="#111" stroke-width="1.6"/><rect x="6" y="7.8" width="0.62" height="0.12" fill="none" stroke="#111" stroke-width="1.6"/><rect x="6" y="9.03" width="0.62" height="0.13" fill="none" stroke="#111" stroke-width="1.6"/><rect x="6" y="10.27" width="0.62" height="0.13" fill="none" stroke="#111" stroke-width="1.6"/><rect x="6" y="11.51" width="0.62" height="0.12" fill="none" stroke="#111" stroke-width="1.6"/><rect x="6" y="12.75" width="0.62" height="0.12" fill="none" stroke="#111" stroke-width="1.6"/><rect x="6" y="13.99" width="0.62" height="0.12" fill="none" stroke="#111" stroke-width="1.6"/><rect x="6" y="15.22" width="0.62" height="0.13" fill="none" stroke="#111" stroke-width="1.6"/><rect x="6" y="16.46" width="0.62" height="0.13" fill="none" stroke="#111" stroke-width="1.6"/><rect x="6" y="17.7" width="0.62" height="0.12" fill="none" stroke="#111" stroke-width="1.6"/><rect x="6" y="18.94" width="0.62" height="0.12" fill="none" stroke="#111" stroke-width="1.6"/><rect x="6" y="20.18" width="0.62" height="0.12" fill="none" stroke="#111" stroke-width="1.6"/><rect x="6" y="21.41" width="0.62" height="0.13" fill="none" stroke="#111" stroke-width="1.6"/><rect x="6" y="22.65" width="0.62" height="0.13" fill="none" stroke="#111" stroke-width="1.6"/><rect x="6" y="23.89" width="0.62" height="0.12" fill="none" stroke="#111" stroke-width="1.6"/><rect x="6" y="25.13" width="0.62" height="0.12" fill="none" stroke="#111" stroke-width="1.6"/><rect x="6" y="26.37" width="0.62" height="0.12" fill="none" stroke="#111" stroke-width="1.6"/><rect x="6" y="27.6" width="0.62" height="0.13" fill="none" stroke="#111" stroke-width="1.6"/><rect x="6" y="28.84" width="0.62" height="0.13" fill="none" stroke="#111" stroke-width="1.6"/><rect x="6" y="30.08" width="0.62" height="0.12" fill="none" stroke="#111" stroke-width="1.6"/><rect x="6" y="31.32" width="0.62" height="0.12" fill="none" stroke="#111" stroke-width="1.6"/><rect x="6" y="32.56" width="0.62" height="0.12" fill="none" stroke="#111" stroke-width="1.6"/><rect x="6" y="33.8" width="0.62" height="0.12" fill="none" stroke="#111" stroke-width="1.6"/><rect x="6" y="35.03" width="0.62" height="0.13" fill="none" stroke="#111" stroke-width="1.6"/><rect x="6" y="36.27" width="0.62" height="0.13" fill="none" stroke="#111" stroke-width="1.6"/><rect x="6" y="37.51" width="0.62" height="0.12" fill="none" stroke="#111" stroke-width="1.6"/><rect x="6" y="38.75" width="0.62" height="0.12" fill="none" stroke="#111" stroke-width="1.6"/><rect x="6" y="39.99" width="0.62" height="0.12" fill="none" stroke="#111" stroke-width="1.6"/><rect x="6" y="41.22" width="0.62" height="0.13" fill="none" stroke="#111" stroke-width="1.6"/><rect x="6" y="42.46" width="0.62" height="0.13" fill="none" stroke="#111" stroke-width="1.6"/><rect x="6" y="43.7" width="0.62" height="0.12" fill="none" stroke="#111" stroke-width="1.6"/><rect x="6" y="44.94" width="0.62" height="0.12" fill="none" stroke="#111" stroke-width="1.6"/><rect x="6" y="46.18" width="0.62" height="0.12" fill="none" stroke="#111" stroke-width="1.6"/><rect x="6" y="47.41" width="0.62" height="0.13" fill="none" stroke="#111" stroke-width="1.6"/><rect x="6" y="48.65" width="0.62" height="0.13" fill="none" stroke="#111" stroke-width="1.6"/><rect x="6" y="49.89" width="0.62" height="0.12" fill="none" stroke="#111" stroke-width="1.6"/><rect x="6" y="51.13" width="0.62" height="0.12" fill="none" stroke="#111" stroke-width="1.6"/><rect x="6" y="52.37" width="0.62" height="0.12" fill="none" stroke="#111" stroke-width="1.6"/><rect x="6" y="53.6" width="0.62" height="0.13" fill="none" stroke="#111" stroke-width="1.6"/><rect x="6" y="54.84" width="0.62" height="0.13" fill="none" stroke="#111" stroke-width="1.6"/><rect x="6" y="56.08" width="0.62" height="0.12" fill="none" stroke="#111" stroke-width="1.6"/><rect x="6" y="57.32" width="0.62" height="0.12" fill="none" stroke="#111" stroke-width="1.6"/></svg>