<svg xmlns="http://www.w3.org/2000/svg" width="96" height="64" viewBox="0 0 96 64"><rect x="6" y="14.67" width="34.67" height="34.66" fill="none" stroke="#111" stroke-width="1.6"/><polyline points="12.93,28.53 19.87,28.53" fill="none" stroke="#111" stroke-width="1.6" stroke-linecap="round" stroke-linejoin="round"/><polyline points="16.4,28.53 12.93,35.47 19.87,35.47 16.4,28.53" fill="none" stroke="#111" stroke-width="1.6" stroke-linecap="round" stroke-linejoin="round"/><polyline points="16.4,35.47 16.4,45.87 30.27,45.87 30.27,40.67" fill="none" stroke="#111" stroke-width="1.6" stroke-linecap="round" stroke-linejoin="round"/><polyline points="23.33,11.2 23.33,6" fill="none" stroke="#111" stroke-width="1.6" stroke-linecap="round" stroke-linejoin="round"/><circle cx="23.33" cy="18.13" r="0.87" fill="none" stroke="#111" stroke-width="1.6"/><polyline points="23.33,18.13 23.33,14.67" fill="none" stroke="#111" stroke-width="1.6" stroke-linecap="round" stroke-linejoin="round"/><polyline points="23.33,45.87 23.33,49.33" fill="none" stroke="#111" stroke-width="1.6" stroke-linecap="round" stroke-linejoin="round"/><circle cx="23.33" cy="45.87" r="0.87" fill="none" stroke="#111" stroke-width="1.6"/><polyline points="23.33,52.8 23.33,58" fill="none" stroke="#111" stroke-width="1.6" stroke-linecap="round" stroke-linejoin="round"/><polyline points="30.27,23.33 30.27,18.13 16.4,18.13 16.4,28.53" fill="none" stroke="#111" stroke-width="1.6" stroke-linecap="round" stroke-linejoin="round"/><polyline points="30.27,26.8 30.27,38.93 28.53,35.47 32,35.47 30.27,38.93" fill="none" stroke="#111" stroke-width="1.6" stroke-linecap="round" stroke-linejoin="round"/><circle cx="30.27" cy="28.53" r="5.2" fill="none" stroke="#111" stroke-width="1.6"/><circle cx="30.27" cy="35.47" r="5.2" fill="none" stroke="#111" stroke-width="1.6"/></svg>