<svg xmlns="http://www.w3.org/2000/svg" width="96" height="64" viewBox="0 0 96 64"><polyline points="6,6 14.67,10.73 14.67,53.27 6,58 6,6" fill="none" stroke="#111" stroke-width="1.6" stroke-linecap="round" stroke-linejoin="round"/><polyline points="6,9.94 7.58,9.94" fill="none" stroke="#111" stroke-width="1.6" stroke-linecap="round" stroke-linejoin="round"/><polyline points="6,13.09 11.36,13.09" fill="none" stroke="#111" stroke-width="1.6" stroke-linecap="round" stroke-linejoin="round"/><polyline points="6,16.24 7.58,16.24" fill="none" stroke="#111" stroke-width="1.6" stroke-linecap="round" stroke-linejoin="round"/><polyline points="6,19.39 11.36,19.39" fill="none" stroke="#111" stroke-width="1.6" stroke-linecap="round" stroke-linejoin="round"/><polyline points="6,22.55 7.58,22.55" fill="none" stroke="#111" stroke-width="1.6" stroke-linecap="round" stroke-linejoin="round"/><polyline points="6,25.7 11.36,25.7" fill="none" stroke="#111" stroke-width="1.6" stroke-linecap="round" stroke-linejoin="round"/><polyline points="6,28.85 7.58,28.85" fill="none" stroke="#111" stroke-width="1.6" stroke-linecap="round" stroke-linejoin="round"/><polyline points="6,32 11.36,32" fill="none" stroke="#111" stroke-width="1.6" stroke-linecap="round" stroke-linejoin="round"/><polyline points="6,35.15 7.58,35.15" fill="none" stroke="#111" stroke-width="1.6" stroke-linecap="round" stroke-linejoin="round"/><polyline points="6,38.3 11.36,38.3" fill="none" stroke="#111" stroke-width="1.6" stroke-linecap="round" stroke-linejoin="round"/><polyline points="6,41.45 7.58,41.45" fill="none" stroke="#111" stroke-width="1.6" stroke-linecap="round" stroke-linejoin="round"/><polyline points="6,44.61 11.36,44.61" fill="none" stroke="#111" stroke-width="1.6" stroke-linecap="round" stroke-linejoin="round"/><polyline points="6,47.76 7.58,47.76" fill="none" stroke="#111" stroke-width="1.6" stroke-linecap="round" stroke-linejoin="round"/><polyline points="6,50.91 11.36,50.91" fill="none" stroke="#111" stroke-width="1.6" stroke-linecap="round" stroke-linejoin="round"/><polyline points="6,54.06 7.58,54.06" fill="none" stroke="#111" stroke-width="1.6" stroke-linecap="round" stroke-linejoin="round"/><circle cx="8.52" cy="9.94" r="0.95" fill="none" stroke="#111" stroke-width="1.6"/><circle cx="8.52" cy="16.24" r="0.95" fill="none" stroke="#111" stroke-width="1.6"/><circle cx="8.52" cy="22.55" r="0.95" fill="none" stroke="#111" stroke-width="1.6"/><circle cx="8.52" cy="28.85" r="0.95" fill="none" stroke="#111" stroke-width="1.6"/><circle cx="8.52" cy="35.15" r="0.95" fill="none" stroke="#111" stroke-width="1.6"/><circle cx="8.52" cy="41.45" r="0.95" fill="none" stroke="#111" stroke-width="1.6"/><circle cx="8.52" cy="47.76" r="0.95" fill="none" stroke="#111" stroke-width="1.6"/><circle cx="8.52" cy="54.06" r="0.95" fill="none" stroke="#111" stroke-width="1.6"/><circle cx="12.3" cy="13.09" r="0.95" fill="none" stroke="#111" stroke-width="1.6"/><circle cx="12.3" cy="19.39" r="0.95" fill="none" stroke="#111" stroke-width="1.6"/><circle cx="12.3" cy="25.7" r="0.95" fill="none" stroke="#111" stroke-width="1.6"/><circle cx="12.3" cy="32" r="0.95" fill="none" stroke="#111" stroke-width="1.6"/><circle cx="12.3" cy="38.3" r="0.95" fill="none" stroke="#111" stroke-width="1.6"/><circle cx="12.3" cy="44.61" r="0.95" fill="none" stroke="#111" stroke-width="1.6"/><circle cx="12.3" cy="50.91" r="0.95" fill="none" stroke="#111" stroke-width="1.6"/></svg>