<svg xmlns="http://www.w3.org/2000/svg" width="96" height="64" viewBox="0 0 96 64"><rect x="6" y="31.51" width="11.38" height="1.79" fill="none" stroke="#111" stroke-width="1.6"/><rect x="6" y="25.01" width="11.38" height="14.79" fill="none" stroke="#111" stroke-width="1.6"/><rect x="6" y="25.01" width="11.38" height="14.79" fill="none" stroke="#111" stroke-width="1.6"/><rect x="6" y="25.01" width="11.38" height="14.79" fill="none" stroke="#111" stroke-width="1.6"/><rect x="6" y="25.01" width="11.38" height="14.79" fill="none" stroke="#111" stroke-width="1.6"/><rect x="6" y="31.51" width="11.38" height="1.79" fill="none" stroke="#111" stroke-width="1.6"/><rect x="6" y="25.01" width="11.38" height="14.79" fill="none" stroke="#111" stroke-width="1.6"/><rect x="6" y="25.01" width="11.38" height="14.79" fill="none" stroke="#111" stroke-width="1.6"/><rect x="6" y="25.01" width="11.38" height="14.79" fill="none" stroke="#111" stroke-width="1.6"/><rect x="7.62" y="28.1" width="8.13" height="7.8" fill="none" stroke="#111" stroke-width="1.6"/><rect x="7.62" y="28.1" width="8.13" height="7.8" fill="none" stroke="#111" stroke-width="1.6"/><rect x="7.62" y="28.42" width="8.13" height="7.15" fill="none" stroke="#111" stroke-width="1.6"/><rect x="7.62" y="28.1" width="8.13" height="7.8" fill="none" stroke="#111" stroke-width="1.6"/><rect x="7.62" y="28.1" width="8.13" height="7.8" fill="none" stroke="#111" stroke-width="1.6"/><rect x="7.62" y="28.42" width="8.13" height="7.15" fill="none" stroke="#111" stroke-width="1.6"/><rect x="7.62" y="26.47" width="8.13" height="11.05" fill="none" stroke="#111" stroke-width="1.6"/><rect x="7.62" y="18.67" width="8.13" height="26.65" fill="none" stroke="#111" stroke-width="1.6"/><rect x="7.62" y="26.64" width="8.13" height="11.53" fill="none" stroke="#111" stroke-width="1.6"/><rect x="9.25" y="6" width="4.87" height="52" fill="none" stroke="#111" stroke-width="1.6"/><rect x="9.25" y="7.3" width="4.87" height="49.4" fill="none" stroke="#111" stroke-width="1.6"/><rect x="9.25" y="27.45" width="4.87" height="9.1" fill="none" stroke="#111" stroke-width="1.6"/></svg>