<svg xmlns="http://www.w3.org/2000/svg" width="96" height="64" viewBox="0 0 96 64"><rect x="6" y="6" width="1.92" height="51.71" fill="none" stroke="#111" stroke-width="1.6"/><rect x="6" y="6.43" width="0.48" height="0.1" fill="none" stroke="#111" stroke-width="1.6"/><rect x="6" y="7.39" width="0.48" height="0.09" fill="none" stroke="#111" stroke-width="1.6"/><rect x="6" y="8.35" width="0.48" height="0.09" fill="none" stroke="#111" stroke-width="1.6"/><rect x="6" y="9.3" width="0.48" height="0.1" fill="none" stroke="#111" stroke-width="1.6"/><rect x="6" y="10.26" width="0.48" height="0.1" fill="none" stroke="#111" stroke-width="1.6"/><rect x="6" y="11.22" width="0.48" height="0.09" fill="none" stroke="#111" stroke-width="1.6"/><rect x="6" y="12.18" width="0.48" height="0.09" fill="none" stroke="#111" stroke-width="1.6"/><rect x="6" y="13.13" width="0.48" height="0.1" fill="none" stroke="#111" stroke-width="1.6"/><rect x="6" y="14.09" width="0.48" height="0.1" fill="none" stroke="#111" stroke-width="1.6"/><rect x="6" y="15.05" width="0.48" height="0.1" fill="none" stroke="#111" stroke-width="1.6"/><rect x="6" y="16.01" width="0.48" height="0.09" fill="none" stroke="#111" stroke-width="1.6"/><rect x="6" y="16.97" width="0.48" height="0.09" fill="none" stroke="#111" stroke-width="1.6"/><rect x="6" y="17.92" width="0.48" height="0.1" fill="none" stroke="#111" stroke-width="1.6"/><rect x="6" y="18.88" width="0.48" height="0.1" fill="none" stroke="#111" stroke-width="1.6"/><rect x="6" y="19.84" width="0.48" height="0.09" fill="none" stroke="#111" stroke-width="1.6"/><rect x="6" y="20.8" width="0.48" height="0.09" fill="none" stroke="#111" stroke-width="1.6"/><rect x="6" y="21.75" width="0.48" height="0.1" fill="none" stroke="#111" stroke-width="1.6"/><rect x="6" y="22.71" width="0.48" height="0.1" fill="none" stroke="#111" stroke-width="1.6"/><rect x="6" y="23.67" width="0.48" height="0.09" fill="none" stroke="#111" stroke-width="1.6"/><rect x="6" y="24.63" width="0.48" height="0.09" fill="none" stroke="#111" stroke-width="1.6"/><rect x="6" y="25.58" width="0.48" height="0.1" fill="none" stroke="#111" stroke-width="1.6"/><rect x="6" y="26.54" width="0.48" height="0.1" fill="none" stroke="#111" stroke-width="1.6"/><rect x="6" y="27.5" width="0.48" height="0.09" fill="none" stroke="#111" stroke-width="1.6"/><rect x="6" y="28.46" width="0.48" height="0.09" fill="none" stroke="#111" stroke-width="1.6"/><rect x="6" y="29.41" width="0.48" height="0.1" fill="none" stroke="#111" stroke-width="1.6"/><rect x="6" y="30.37" width="0.48" height="0.1" fill="none" stroke="#111" stroke-width="1.6"/><rect x="6" y="31.33" width="0.48" height="0.1" fill="none" stroke="#111" stroke-width="1.6"/><rect x="6" y="32.29" width="0.48" height="0.09" fill="none" stroke="#111" stroke-width="1.6"/><rect x="6" y="33.24" width="0.48" height="0.1" fill="none" stroke="#111" stroke-width="1.6"/><rect x="6" y="34.2" width="0.48" height="0.1" fill="none" stroke="#111" stroke-width="1.6"/><rect x="6" y="35.16" width="0.48" height="0.1" fill="none" stroke="#111" stroke-width="1.6"/><rect x="6" y="36.12" width="0.48" height="0.09" fill="none" stroke="#111" stroke-width="1.6"/><rect x="6" y="37.08" width="0.48" height="0.09" fill="none" stroke="#111" stroke-width="1.6"/><rect x="6" y="38.03" width="0.48" height="0.1" fill="none" stroke="#111" stroke-width="1.6"/><rect x="6" y="38.99" width="0.48" height="0.1" fill="none" stroke="#111" stroke-width="1.6"/><rect x="6" y="39.95" width="0.48" height="0.09" fill="none" stroke="#111" stroke-width="1.6"/><rect x="6" y="40.91" width="0.48" height="0.09" fill="none" stroke="#111" stroke-width="1.6"/><rect x="6" y="41.86" width="0.48" height="0.1" fill="none" stroke="#111" stroke-width="1.6"/><rect x="6" y="42.82" width="0.48" height="0.1" fill="none" stroke="#111" stroke-width="1.6"/><rect x="6" y="43.78" width="0.48" height="0.09" fill="none" stroke="#111" stroke-width="1.6"/><rect x="6" y="44.74" width="0.48" height="0.09" fill="none" stroke="#111" stroke-width="1.6"/><rect x="6" y="45.69" width="0.48" height="0.1" fill="none" stroke="#111" stroke-width="1.6"/><rect x="6" y="46.65" width="0.48" height="0.1" fill="none" stroke="#111" stroke-width="1.6"/><rect x="6" y="47.61" width="0.48" height="0.1" fill="none" stroke="#111" stroke-width="1.6"/><rect x="6" y="48.57" width="0.48" height="0.09" fill="none" stroke="#111" stroke-width="1.6"/><rect x="6" y="49.52" width="0.48" height="0.1" fill="none" stroke="#111" stroke-width="1.6"/><rect x="6" y="50.48" width="0.48" height="0.1" fill="none" stroke="#111" stroke-width="1.6"/><rect x="6" y="51.44" width="0.48" height="0.1" fill="none" stroke="#111" stroke-width="1.6"/><rect x="6" y="52.4" width="0.48" height="0.09" fill="none" stroke="#111" stroke-width="1.6"/><rect x="6" y="53.36" width="0.48" height="0.09" fill="none" stroke="#111" stroke-width="1.6"/><rect x="6" y="54.31" width="0.48" height="0.1" fill="none" stroke="#111" stroke-width="1.6"/><rect x="6" y="55.27" width="0.48" height="0.1" fill="none" stroke="#111" stroke-width="1.6"/><rect x="6" y="56.23" width="0.48" height="0.09" fill="none" stroke="#111" stroke-width="1.6"/><rect x="6" y="57.19" width="0.48" height="0.09" fill="none" stroke="#111" stroke-width="1.6"/><polyline points="6.57,58 7.34,58" fill="none" stroke="#111" stroke-width="1.6" stroke-linecap="round" stroke-linejoin="round"/><rect x="7.44" y="6.43" width="0.48" height="0.1" fill="none" stroke="#111" stroke-width="1.6"/><rect x="7.44" y="7.39" width="0.48" height="0.09" fill="none" stroke="#111" stroke-width="1.6"/><rect x="7.44" y="8.35" width="0.48" height="0.09" fill="none" stroke="#111" stroke-width="1.6"/><rect x="7.44" y="9.3" width="0.48" height="0.1" fill="none" stroke="#111" stroke-width="1.6"/><rect x="7.44" y="10.26" width="0.48" height="0.1" fill="none" stroke="#111" stroke-width="1.6"/><rect x="7.44" y="11.22" width="0.48" height="0.09" fill="none" stroke="#111" stroke-width="1.6"/><rect x="7.44" y="12.18" width="0.48" height="0.09" fill="none" stroke="#111" stroke-width="1.6"/><rect x="7.44" y="13.13" width="0.48" height="0.1" fill="none" stroke="#111" stroke-width="1.6"/><rect x="7.44" y="14.09" width="0.48" height="0.1" fill="none" stroke="#111" stroke-width="1.6"/><rect x="7.44" y="15.05" width="0.48" height="0.1" fill="none" stroke="#111" stroke-width="1.6"/><rect x="7.44" y="16.01" width="0.48" height="0.09" fill="none" stroke="#111" stroke-width="1.6"/><rect x="7.44" y="16.97" width="0.48" height="0.09" fill="none" stroke="#111" stroke-width="1.6"/><rect x="7.44" y="17.92" width="0.48" height="0.1" fill="none" stroke="#111" stroke-width="1.6"/><rect x="7.44" y="18.88" width="0.48" height="0.1" fill="none" stroke="#111" stroke-width="1.6"/><rect x="7.44" y="19.84" width="0.48" height="0.09" fill="none" stroke="#111" stroke-width="1.6"/><rect x="7.44" y="20.8" width="0.48" height="0.09" fill="none" stroke="#111" stroke-width="1.6"/><rect x="7.44" y="21.75" width="0.48" height="0.1" fill="none" stroke="#111" stroke-width="1.6"/><rect x="7.44" y="22.71" width="0.48" height="0.1" fill="none" stroke="#111" stroke-width="1.6"/><rect x="7.44" y="23.67" width="0.48" height="0.09" fill="none" stroke="#111" stroke-width="1.6"/><rect x="7.44" y="24.63" width="0.48" height="0.09" fill="none" stroke="#111" stroke-width="1.6"/><rect x="7.44" y="25.58" width="0.48" height="0.1" fill="none" stroke="#111" stroke-width="1.6"/><rect x="7.44" y="26.54" width="0.48" height="0.1" fill="none" stroke="#111" stroke-width="1.6"/><rect x="7.44" y="27.5" width="0.48" height="0.09" fill="none" stroke="#111" stroke-width="1.6"/><rect x="7.44" y="28.46" width="0.48" height="0.09" fill="none" stroke="#111" stroke-width="1.6"/><rect x="7.44" y="29.41" width="0.48" height="0.1" fill="none" stroke="#111" stroke-width="1.6"/><rect x="7.44" y="30.37" width="0.48" height="0.1" fill="none" stroke="#111" stroke-width="1.6"/><rect x="7.44" y="31.33" width="0.48" height="0.1" fill="none" stroke="#111" stroke-width="1.6"/><rect x="7.44" y="32.29" width="0.48" height="0.09" fill="none" stroke="#111" stroke-width="1.6"/><rect x="7.44" y="33.24" width="0.48" height="0.1" fill="none" stroke="#111" stroke-width="1.6"/><rect x="7.44" y="34.2" width="0.48" height="0.1" fill="none" stroke="#111" stroke-width="1.6"/><rect x="7.44" y="35.16" width="0.48" height="0.1" fill="none" stroke="#111" stroke-width="1.6"/><rect x="7.44" y="36.12" width="0.48" height="0.09" fill="none" stroke="#111" stroke-width="1.6"/><rect x="7.44" y="37.08" width="0.48" height="0.09" fill="none" stroke="#111" stroke-width="1.6"/><rect x="7.44" y="38.03" width="0.48" height="0.1" fill="none" stroke="#111" stroke-width="1.6"/><rect x="7.44" y="38.99" width="0.48" height="0.1" fill="none" stroke="#111" stroke-width="1.6"/><rect x="7.44" y="39.95" width="0.48" height="0.09" fill="none" stroke="#111" stroke-width="1.6"/><rect x="7.44" y="40.91" width="0.48" height="0.09" fill="none" stroke="#111" stroke-width="1.6"/><rect x="7.44" y="41.86" width="0.48" height="0.1" fill="none" stroke="#111" stroke-width="1.6"/><rect x="7.44" y="42.82" width="0.48" height="0.1" fill="none" stroke="#111" stroke-width="1.6"/><rect x="7.44" y="43.78" width="0.48" height="0.09" fill="none" stroke="#111" stroke-width="1.6"/><rect x="7.44" y="44.74" width="0.48" height="0.09" fill="none" stroke="#111" stroke-width="1.6"/><rect x="7.44" y="45.69" width="0.48" height="0.1" fill="none" stroke="#111" stroke-width="1.6"/><rect x="7.44" y="46.65" width="0.48" height="0.1" fill="none" stroke="#111" stroke-width="1.6"/><rect x="7.44" y="47.61" width="0.48" height="0.1" fill="none" stroke="#111" stroke-width="1.6"/><rect x="7.44" y="48.57" width="0.48" height="0.09" fill="none" stroke="#111" stroke-width="1.6"/><rect x="7.44" y="49.52" width="0.48" height="0.1" fill="none" stroke="#111" stroke-width="1.6"/><rect x="7.44" y="50.48" width="0.48" height="0.1" fill="none" stroke="#111" stroke-width="1.6"/><rect x="7.44" y="51.44" width="0.48" height="0.1" fill="none" stroke="#111" stroke-width="1.6"/><rect x="7.44" y="52.4" width="0.48" height="0.09" fill="none" stroke="#111" stroke-width="1.6"/><rect x="7.44" y="53.36" width="0.48" height="0.09" fill="none" stroke="#111" stroke-width="1.6"/><rect x="7.44" y="54.31" width="0.48" height="0.1" fill="none" stroke="#111" stroke-width="1.6"/><rect x="7.44" y="55.27" width="0.48" height="0.1" fill="none" stroke="#111" stroke-width="1.6"/><rect x="7.44" y="56.23" width="0.48" height="0.09" fill="none" stroke="#111" stroke-width="1.6"/><rect x="7.44" y="57.19" width="0.48" height="0.09" fill="none" stroke="#111" stroke-width="1.6"/></svg>