<svg xmlns="http://www.w3.org/2000/svg" width="96" height="64" viewBox="0 0 96 64"><rect x="6" y="6" width="0.7" height="0.21" fill="none" stroke="#111" stroke-width="1.6"/><rect x="6" y="8.07" width="0.7" height="0.21" fill="none" stroke="#111" stroke-width="1.6"/><rect x="6" y="10.14" width="0.7" height="0.21" fill="none" stroke="#111" stroke-width="1.6"/><rect x="6" y="12.22" width="0.7" height="0.2" fill="none" stroke="#111" stroke-width="1.6"/><rect x="6" y="14.29" width="0.7" height="0.2" fill="none" stroke="#111" stroke-width="1.6"/><rect x="6" y="16.36" width="0.7" height="0.21" fill="none" stroke="#111" stroke-width="1.6"/><rect x="6" y="18.43" width="0.7" height="0.21" fill="none" stroke="#111" stroke-width="1.6"/><rect x="6" y="20.5" width="0.7" height="0.21" fill="none" stroke="#111" stroke-width="1.6"/><rect x="6" y="22.57" width="0.7" height="0.21" fill="none" stroke="#111" stroke-width="1.6"/><rect x="6" y="24.65" width="0.7" height="0.2" fill="none" stroke="#111" stroke-width="1.6"/><rect x="6" y="26.72" width="0.7" height="0.2" fill="none" stroke="#111" stroke-width="1.6"/><rect x="6" y="28.79" width="0.7" height="0.21" fill="none" stroke="#111" stroke-width="1.6"/><rect x="6" y="30.86" width="0.7" height="0.21" fill="none" stroke="#111" stroke-width="1.6"/><rect x="6" y="32.93" width="0.7" height="0.21" fill="none" stroke="#111" stroke-width="1.6"/><rect x="6" y="35" width="0.7" height="0.21" fill="none" stroke="#111" stroke-width="1.6"/><rect x="6" y="37.08" width="0.7" height="0.2" fill="none" stroke="#111" stroke-width="1.6"/><rect x="6" y="39.15" width="0.7" height="0.2" fill="none" stroke="#111" stroke-width="1.6"/><rect x="6" y="41.22" width="0.7" height="0.21" fill="none" stroke="#111" stroke-width="1.6"/><rect x="6" y="43.29" width="0.7" height="0.21" fill="none" stroke="#111" stroke-width="1.6"/><rect x="6" y="45.36" width="0.7" height="0.21" fill="none" stroke="#111" stroke-width="1.6"/><rect x="6" y="47.43" width="0.7" height="0.21" fill="none" stroke="#111" stroke-width="1.6"/><rect x="6" y="49.51" width="0.7" height="0.2" fill="none" stroke="#111" stroke-width="1.6"/><rect x="6" y="51.58" width="0.7" height="0.2" fill="none" stroke="#111" stroke-width="1.6"/><rect x="6" y="53.65" width="0.7" height="0.21" fill="none" stroke="#111" stroke-width="1.6"/><rect x="6" y="55.72" width="0.7" height="0.21" fill="none" stroke="#111" stroke-width="1.6"/><rect x="6" y="57.79" width="0.7" height="0.21" fill="none" stroke="#111" stroke-width="1.6"/><polyline points="7.04,6.1 6.7,6.1" fill="none" stroke="#111" stroke-width="1.6" stroke-linecap="round" stroke-linejoin="round"/><polyline points="7.04,8.18 6.7,8.18" fill="none" stroke="#111" stroke-width="1.6" stroke-linecap="round" stroke-linejoin="round"/><polyline points="7.04,10.25 6.7,10.25" fill="none" stroke="#111" stroke-width="1.6" stroke-linecap="round" stroke-linejoin="round"/><polyline points="7.04,12.32 6.7,12.32" fill="none" stroke="#111" stroke-width="1.6" stroke-linecap="round" stroke-linejoin="round"/><polyline points="7.04,14.39 6.7,14.39" fill="none" stroke="#111" stroke-width="1.6" stroke-linecap="round" stroke-linejoin="round"/><polyline points="7.04,16.46 6.7,16.46" fill="none" stroke="#111" stroke-width="1.6" stroke-linecap="round" stroke-linejoin="round"/><polyline points="7.04,18.53 6.7,18.53" fill="none" stroke="#111" stroke-width="1.6" stroke-linecap="round" stroke-linejoin="round"/><polyline points="7.04,20.61 6.7,20.61" fill="none" stroke="#111" stroke-width="1.6" stroke-linecap="round" stroke-linejoin="round"/><polyline points="7.04,22.68 6.7,22.68" fill="none" stroke="#111" stroke-width="1.6" stroke-linecap="round" stroke-linejoin="round"/><polyline points="7.04,24.75 6.7,24.75" fill="none" stroke="#111" stroke-width="1.6" stroke-linecap="round" stroke-linejoin="round"/><polyline points="7.04,26.82 6.7,26.82" fill="none" stroke="#111" stroke-width="1.6" stroke-linecap="round" stroke-linejoin="round"/><polyline points="7.04,28.89 6.7,28.89" fill="none" stroke="#111" stroke-width="1.6" stroke-linecap="round" stroke-linejoin="round"/><polyline points="7.04,30.96 6.7,30.96" fill="none" stroke="#111" stroke-width="1.6" stroke-linecap="round" stroke-linejoin="round"/><polyline points="7.04,33.04 6.7,33.04" fill="none" stroke="#111" stroke-width="1.6" stroke-linecap="round" stroke-linejoin="round"/><polyline points="7.04,35.11 6.7,35.11" fill="none" stroke="#111" stroke-width="1.6" stroke-linecap="round" stroke-linejoin="round"/><polyline points="7.04,37.18 6.7,37.18" fill="none" stroke="#111" stroke-width="1.6" stroke-linecap="round" stroke-linejoin="round"/><polyline points="7.04,39.25 6.7,39.25" fill="none" stroke="#111" stroke-width="1.6" stroke-linecap="round" stroke-linejoin="round"/><polyline points="7.04,41.32 6.7,41.32" fill="none" stroke="#111" stroke-width="1.6" stroke-linecap="round" stroke-linejoin="round"/><polyline points="7.04,43.39 6.7,43.39" fill="none" stroke="#111" stroke-width="1.6" stroke-linecap="round" stroke-linejoin="round"/><polyline points="7.04,45.47 6.7,45.47" fill="none" stroke="#111" stroke-width="1.6" stroke-linecap="round" stroke-linejoin="round"/><polyline points="7.04,47.54 6.7,47.54" fill="none" stroke="#111" stroke-width="1.6" stroke-linecap="round" stroke-linejoin="round"/><polyline points="7.04,49.61 6.7,49.61" fill="none" stroke="#111" stroke-width="1.6" stroke-linecap="round" stroke-linejoin="round"/><polyline points="7.04,51.68 6.7,51.68" fill="none" stroke="#111" stroke-width="1.6" stroke-linecap="round" stroke-linejoin="round"/><polyline points="7.04,53.75 6.7,53.75" fill="none" stroke="#111" stroke-width="1.6" stroke-linecap="round" stroke-linejoin="round"/><polyline points="7.04,55.82 6.7,55.82" fill="none" stroke="#111" stroke-width="1.6" stroke-linecap="round" stroke-linejoin="round"/><polyline points="7.04,57.9 6.7,57.9" fill="none" stroke="#111" stroke-width="1.6" stroke-linecap="round" stroke-linejoin="round"/></svg>