<svg xmlns="http://www.w3.org/2000/svg" width="96" height="64" viewBox="0 0 96 64"><rect x="6" y="6" width="0.48" height="0.14" fill="none" stroke="#111" stroke-width="1.6"/><rect x="6" y="7.4" width="0.48" height="0.14" fill="none" stroke="#111" stroke-width="1.6"/><rect x="6" y="8.8" width="0.48" height="0.14" fill="none" stroke="#111" stroke-width="1.6"/><rect x="6" y="10.2" width="0.48" height="0.15" fill="none" stroke="#111" stroke-width="1.6"/><rect x="6" y="11.61" width="0.48" height="0.14" fill="none" stroke="#111" stroke-width="1.6"/><rect x="6" y="13.01" width="0.48" height="0.14" fill="none" stroke="#111" stroke-width="1.6"/><rect x="6" y="14.41" width="0.48" height="0.14" fill="none" stroke="#111" stroke-width="1.6"/><rect x="6" y="15.81" width="0.48" height="0.14" fill="none" stroke="#111" stroke-width="1.6"/><rect x="6" y="17.21" width="0.48" height="0.14" fill="none" stroke="#111" stroke-width="1.6"/><rect x="6" y="18.61" width="0.48" height="0.14" fill="none" stroke="#111" stroke-width="1.6"/><rect x="6" y="20.02" width="0.48" height="0.14" fill="none" stroke="#111" stroke-width="1.6"/><rect x="6" y="21.42" width="0.48" height="0.14" fill="none" stroke="#111" stroke-width="1.6"/><rect x="6" y="22.82" width="0.48" height="0.14" fill="none" stroke="#111" stroke-width="1.6"/><rect x="6" y="24.22" width="0.48" height="0.14" fill="none" stroke="#111" stroke-width="1.6"/><rect x="6" y="25.62" width="0.48" height="0.14" fill="none" stroke="#111" stroke-width="1.6"/><rect x="6" y="27.02" width="0.48" height="0.14" fill="none" stroke="#111" stroke-width="1.6"/><rect x="6" y="28.43" width="0.48" height="0.14" fill="none" stroke="#111" stroke-width="1.6"/><rect x="6" y="29.83" width="0.48" height="0.14" fill="none" stroke="#111" stroke-width="1.6"/><rect x="6" y="31.23" width="0.48" height="0.14" fill="none" stroke="#111" stroke-width="1.6"/><rect x="6" y="32.63" width="0.48" height="0.14" fill="none" stroke="#111" stroke-width="1.6"/><rect x="6" y="34.03" width="0.48" height="0.14" fill="none" stroke="#111" stroke-width="1.6"/><rect x="6" y="35.43" width="0.48" height="0.14" fill="none" stroke="#111" stroke-width="1.6"/><rect x="6" y="36.84" width="0.48" height="0.14" fill="none" stroke="#111" stroke-width="1.6"/><rect x="6" y="38.24" width="0.48" height="0.14" fill="none" stroke="#111" stroke-width="1.6"/><rect x="6" y="39.64" width="0.48" height="0.14" fill="none" stroke="#111" stroke-width="1.6"/><rect x="6" y="41.04" width="0.48" height="0.14" fill="none" stroke="#111" stroke-width="1.6"/><rect x="6" y="42.44" width="0.48" height="0.14" fill="none" stroke="#111" stroke-width="1.6"/><rect x="6" y="43.84" width="0.48" height="0.14" fill="none" stroke="#111" stroke-width="1.6"/><rect x="6" y="45.25" width="0.48" height="0.14" fill="none" stroke="#111" stroke-width="1.6"/><rect x="6" y="46.65" width="0.48" height="0.14" fill="none" stroke="#111" stroke-width="1.6"/><rect x="6" y="48.05" width="0.48" height="0.14" fill="none" stroke="#111" stroke-width="1.6"/><rect x="6" y="49.45" width="0.48" height="0.14" fill="none" stroke="#111" stroke-width="1.6"/><rect x="6" y="50.85" width="0.48" height="0.14" fill="none" stroke="#111" stroke-width="1.6"/><rect x="6" y="52.25" width="0.48" height="0.14" fill="none" stroke="#111" stroke-width="1.6"/><rect x="6" y="53.65" width="0.48" height="0.15" fill="none" stroke="#111" stroke-width="1.6"/><rect x="6" y="55.06" width="0.48" height="0.14" fill="none" stroke="#111" stroke-width="1.6"/><rect x="6" y="56.46" width="0.48" height="0.14" fill="none" stroke="#111" stroke-width="1.6"/><rect x="6" y="57.86" width="0.48" height="0.14" fill="none" stroke="#111" stroke-width="1.6"/><polyline points="6.7,6.07 6.48,6.07" fill="none" stroke="#111" stroke-width="1.6" stroke-linecap="round" stroke-linejoin="round"/><polyline points="6.7,7.47 6.48,7.47" fill="none" stroke="#111" stroke-width="1.6" stroke-linecap="round" stroke-linejoin="round"/><polyline points="6.7,8.87 6.48,8.87" fill="none" stroke="#111" stroke-width="1.6" stroke-linecap="round" stroke-linejoin="round"/><polyline points="6.7,10.27 6.48,10.27" fill="none" stroke="#111" stroke-width="1.6" stroke-linecap="round" stroke-linejoin="round"/><polyline points="6.7,11.68 6.48,11.68" fill="none" stroke="#111" stroke-width="1.6" stroke-linecap="round" stroke-linejoin="round"/><polyline points="6.7,13.08 6.48,13.08" fill="none" stroke="#111" stroke-width="1.6" stroke-linecap="round" stroke-linejoin="round"/><polyline points="6.7,14.48 6.48,14.48" fill="none" stroke="#111" stroke-width="1.6" stroke-linecap="round" stroke-linejoin="round"/><polyline points="6.7,15.88 6.48,15.88" fill="none" stroke="#111" stroke-width="1.6" stroke-linecap="round" stroke-linejoin="round"/><polyline points="6.7,17.28 6.48,17.28" fill="none" stroke="#111" stroke-width="1.6" stroke-linecap="round" stroke-linejoin="round"/><polyline points="6.7,18.68 6.48,18.68" fill="none" stroke="#111" stroke-width="1.6" stroke-linecap="round" stroke-linejoin="round"/><polyline points="6.7,20.09 6.48,20.09" fill="none" stroke="#111" stroke-width="1.6" stroke-linecap="round" stroke-linejoin="round"/><polyline points="6.7,21.49 6.48,21.49" fill="none" stroke="#111" stroke-width="1.6" stroke-linecap="round" stroke-linejoin="round"/><polyline points="6.7,22.89 6.48,22.89" fill="none" stroke="#111" stroke-width="1.6" stroke-linecap="round" stroke-linejoin="round"/><polyline points="6.7,24.29 6.48,24.29" fill="none" stroke="#111" stroke-width="1.6" stroke-linecap="round" stroke-linejoin="round"/><polyline points="6.7,25.69 6.48,25.69" fill="none" stroke="#111" stroke-width="1.6" stroke-linecap="round" stroke-linejoin="round"/><polyline points="6.7,27.09 6.48,27.09" fill="none" stroke="#111" stroke-width="1.6" stroke-linecap="round" stroke-linejoin="round"/><polyline points="6.7,28.5 6.48,28.5" fill="none" stroke="#111" stroke-width="1.6" stroke-linecap="round" stroke-linejoin="round"/><polyline points="6.7,29.9 6.48,29.9" fill="none" stroke="#111" stroke-width="1.6" stroke-linecap="round" stroke-linejoin="round"/><polyline points="6.7,31.3 6.48,31.3" fill="none" stroke="#111" stroke-width="1.6" stroke-linecap="round" stroke-linejoin="round"/><polyline points="6.7,32.7 6.48,32.7" fill="none" stroke="#111" stroke-width="1.6" stroke-linecap="round" stroke-linejoin="round"/><polyline points="6.7,34.1 6.48,34.1" fill="none" stroke="#111" stroke-width="1.6" stroke-linecap="round" stroke-linejoin="round"/><polyline points="6.7,35.5 6.48,35.5" fill="none" stroke="#111" stroke-width="1.6" stroke-linecap="round" stroke-linejoin="round"/><polyline points="6.7,36.91 6.48,36.91" fill="none" stroke="#111" stroke-width="1.6" stroke-linecap="round" stroke-linejoin="round"/><polyline points="6.7,38.31 6.48,38.31" fill="none" stroke="#111" stroke-width="1.6" stroke-linecap="round" stroke-linejoin="round"/><polyline points="6.7,39.71 6.48,39.71" fill="none" stroke="#111" stroke-width="1.6" stroke-linecap="round" stroke-linejoin="round"/><polyline points="6.7,41.11 6.48,41.11" fill="none" stroke="#111" stroke-width="1.6" stroke-linecap="round" stroke-linejoin="round"/><polyline points="6.7,42.51 6.48,42.51" fill="none" stroke="#111" stroke-width="1.6" stroke-linecap="round" stroke-linejoin="round"/><polyline points="6.7,43.91 6.48,43.91" fill="none" stroke="#111" stroke-width="1.6" stroke-linecap="round" stroke-linejoin="round"/><polyline points="6.7,45.32 6.48,45.32" fill="none" stroke="#111" stroke-width="1.6" stroke-linecap="round" stroke-linejoin="round"/><polyline points="6.7,46.72 6.48,46.72" fill="none" stroke="#111" stroke-width="1.6" stroke-linecap="round" stroke-linejoin="round"/><polyline points="6.7,48.12 6.48,48.12" fill="none" stroke="#111" stroke-width="1.6" stroke-linecap="round" stroke-linejoin="round"/><polyline points="6.7,49.52 6.48,49.52" fill="none" stroke="#111" stroke-width="1.6" stroke-linecap="round" stroke-linejoin="round"/><polyline points="6.7,50.92 6.48,50.92" fill="none" stroke="#111" stroke-width="1.6" stroke-linecap="round" stroke-linejoin="round"/><polyline points="6.7,52.32 6.48,52.32" fill="none" stroke="#111" stroke-width="1.6" stroke-linecap="round" stroke-linejoin="round"/><polyline points="6.7,53.73 6.48,53.73" fill="none" stroke="#111" stroke-width="1.6" stroke-linecap="round" stroke-linejoin="round"/><polyline points="6.7,55.13 6.48,55.13" fill="none" stroke="#111" stroke-width="1.6" stroke-linecap="round" stroke-linejoin="round"/><polyline points="6.7,56.53 6.48,56.53" fill="none" stroke="#111" stroke-width="1.6" stroke-linecap="round" stroke-linejoin="round"/><polyline points="6.7,57.93 6.48,57.93" fill="none" stroke="#111" stroke-width="1.6" stroke-linecap="round" stroke-linejoin="round"/></svg>