<svg xmlns="http://www.w3.org/2000/svg" width="96" height="64" viewBox="0 0 96 64"><polyline points="13.8,37.2 6,32" fill="none" stroke="#111" stroke-width="1.6" stroke-linecap="round" stroke-linejoin="round"/><circle cx="16.4" cy="37.2" r="2.6" fill="none" stroke="#111" stroke-width="1.6"/><polyline points="19,6 19,9.9 20.3,16.4" fill="none" stroke="#111" stroke-width="1.6" stroke-linecap="round" stroke-linejoin="round"/><circle cx="21.6" cy="19" r="2.6" fill="none" stroke="#111" stroke-width="1.6"/><polyline points="28.1,57.35 28.1,53.45 35.9,53.45 35.9,57.35" fill="none" stroke="#111" stroke-width="1.6" stroke-linecap="round" stroke-linejoin="round"/><path d="M 58 32 Q 51.79 49.12 35.9 58" fill="none" stroke="#111" stroke-width="1.6" stroke-linecap="round"/><path d="M 6 32 Q 32 6.11 58 32" fill="none" stroke="#111" stroke-width="1.6" stroke-linecap="round"/><path d="M 28.1 58 Q 12.25 49.08 6 32" fill="none" stroke="#111" stroke-width="1.6" stroke-linecap="round"/><circle cx="42.4" cy="19" r="2.6" fill="none" stroke="#111" stroke-width="1.6"/><polyline points="45,6 45,9.9 43.7,16.4" fill="none" stroke="#111" stroke-width="1.6" stroke-linecap="round" stroke-linejoin="round"/><circle cx="47.6" cy="37.2" r="2.6" fill="none" stroke="#111" stroke-width="1.6"/><polyline points="58,32 50.2,37.2" fill="none" stroke="#111" stroke-width="1.6" stroke-linecap="round" stroke-linejoin="round"/></svg>