<svg xmlns="http://www.w3.org/2000/svg" width="96" height="64" viewBox="0 0 96 64"><rect x="6" y="6" width="31.2" height="52" fill="none" stroke="#111" stroke-width="1.6"/><circle cx="17.18" cy="28.1" r="0.78" fill="none" stroke="#111" stroke-width="1.6"/><polyline points="18.48,25.5 21.08,25.5 19.78,22.9 18.48,25.5" fill="none" stroke="#111" stroke-width="1.6" stroke-linecap="round" stroke-linejoin="round"/><polyline points="19.78,32 19.78,30.7 22.38,29.4 22.38,26.8" fill="none" stroke="#111" stroke-width="1.6" stroke-linecap="round" stroke-linejoin="round"/><polyline points="19.78,33.3 19.78,32 17.18,29.4 17.18,28.1" fill="none" stroke="#111" stroke-width="1.6" stroke-linecap="round" stroke-linejoin="round"/><circle cx="19.78" cy="34.6" r="1.3" fill="none" stroke="#111" stroke-width="1.6"/><rect x="15.36" y="10.68" width="5.72" height="1.04" fill="none" stroke="#111" stroke-width="1.6"/><rect x="15.36" y="15.88" width="5.72" height="1.04" fill="none" stroke="#111" stroke-width="1.6"/><rect x="21.34" y="56.44" width="0.52" height="1.56" fill="none" stroke="#111" stroke-width="1.6"/><rect x="14.84" y="9.64" width="6.76" height="2.6" fill="none" stroke="#111" stroke-width="1.6"/><rect x="14.84" y="14.84" width="6.76" height="2.6" fill="none" stroke="#111" stroke-width="1.6"/><rect x="21.6" y="26.28" width="1.56" height="1.56" fill="none" stroke="#111" stroke-width="1.6"/><rect x="26.54" y="56.44" width="0.52" height="1.56" fill="none" stroke="#111" stroke-width="1.6"/><rect x="35.64" y="10.94" width="1.56" height="0.52" fill="none" stroke="#111" stroke-width="1.6"/><rect x="35.64" y="16.14" width="1.56" height="0.52" fill="none" stroke="#111" stroke-width="1.6"/><rect x="35.64" y="26.54" width="1.56" height="0.52" fill="none" stroke="#111" stroke-width="1.6"/><rect x="35.64" y="31.74" width="1.56" height="0.52" fill="none" stroke="#111" stroke-width="1.6"/><rect x="35.64" y="36.94" width="1.56" height="0.52" fill="none" stroke="#111" stroke-width="1.6"/><rect x="35.64" y="42.14" width="1.56" height="0.52" fill="none" stroke="#111" stroke-width="1.6"/><polyline points="19.78,30.7 19.78,25.5" fill="none" stroke="#111" stroke-width="1.6" stroke-linecap="round" stroke-linejoin="round"/></svg>