<svg xmlns="http://www.w3.org/2000/svg" width="96" height="64" viewBox="0 0 96 64"><polyline points="9.47,6 9.47,30.27" fill="none" stroke="#111" stroke-width="1.6" stroke-linecap="round" stroke-linejoin="round"/><polyline points="9.47,33.73 9.47,58" fill="none" stroke="#111" stroke-width="1.6" stroke-linecap="round" stroke-linejoin="round"/><path d="M 14.32 13.28 Q 19.15 18.13 14.32 22.99" fill="none" stroke="#111" stroke-width="1.6" stroke-linecap="round"/><path d="M 14.32 41.01 Q 19.15 45.87 14.32 50.72" fill="none" stroke="#111" stroke-width="1.6" stroke-linecap="round"/><polyline points="14.32,13.28 9.47,13.28 9.47,22.99 14.32,22.99" fill="none" stroke="#111" stroke-width="1.6" stroke-linecap="round" stroke-linejoin="round"/><polyline points="14.32,41.01 9.47,41.01 9.47,50.72 14.32,50.72" fill="none" stroke="#111" stroke-width="1.6" stroke-linecap="round" stroke-linejoin="round"/><polyline points="19.17,18.13 19.87,18.13 19.87,29.92 21.6,29.92" fill="none" stroke="#111" stroke-width="1.6" stroke-linecap="round" stroke-linejoin="round"/><polyline points="21.6,34.08 19.87,34.08 19.87,45.87 19.17,45.87" fill="none" stroke="#111" stroke-width="1.6" stroke-linecap="round" stroke-linejoin="round"/><path d="M 24.65 27.15 Q 28.2 28.71 30.27 32" fill="none" stroke="#111" stroke-width="1.6" stroke-linecap="round"/><path d="M 30.27 32 Q 28.22 35.31 24.65 36.85" fill="none" stroke="#111" stroke-width="1.6" stroke-linecap="round"/><polyline points="24.65,27.15 20.56,27.15 20.56,27.15 20.7,27.42 20.91,27.7 21.05,28.05 21.18,28.33 21.39,28.67 21.46,28.95 21.6,29.3 21.74,29.64 21.81,29.92 21.88,30.27 21.95,30.61 22.02,30.96 22.02,31.31 22.09,31.65 22.09,32 22.09,32.35 22.09,32.69 22.02,33.04 21.95,33.39 21.88,33.73 21.81,34.08 21.74,34.43 21.6,34.7 21.53,35.05 21.39,35.4 21.25,35.67 21.05,36.02 20.91,36.3 20.7,36.58 20.56,36.85 20.56,36.85 24.65,36.85" fill="none" stroke="#111" stroke-width="1.6" stroke-linecap="round" stroke-linejoin="round"/><rect x="6" y="7.73" width="27.73" height="41.6" fill="none" stroke="#111" stroke-width="1.6"/></svg>