<svg xmlns="http://www.w3.org/2000/svg" width="96" height="64" viewBox="0 0 96 64"><polyline points="21.6,40.17 29.03,40.17" fill="none" stroke="#111" stroke-width="1.6" stroke-linecap="round" stroke-linejoin="round"/><polyline points="21.6,40.17 29.03,40.17 29.03,41.66 29.77,43.14 31.26,45.37 32.74,46.11 29.77,52.06 27.54,50.57 25.31,48.34 23.09,45.37 21.6,40.17" fill="none" stroke="#111" stroke-width="1.6" stroke-linecap="round" stroke-linejoin="round"/><polyline points="28.29,28.29 33.49,34.23" fill="none" stroke="#111" stroke-width="1.6" stroke-linecap="round" stroke-linejoin="round"/><polyline points="29.77,52.06 32.74,46.11" fill="none" stroke="#111" stroke-width="1.6" stroke-linecap="round" stroke-linejoin="round"/><polyline points="33.49,34.23 29.77,29.03 28.29,28.29 32,26.8 37.2,27.54 39.43,27.54 40.17,28.29 42.4,29.03 38.69,34.23 36.46,33.49 34.97,33.49 33.49,34.23" fill="none" stroke="#111" stroke-width="1.6" stroke-linecap="round" stroke-linejoin="round"/><path d="M 42.4 40.17 Q 41.62 43.49 39.43 46.11" fill="none" stroke="#111" stroke-width="1.6" stroke-linecap="round"/><path d="M 29.77 52.06 Q 24.05 47.24 21.6 40.17" fill="none" stroke="#111" stroke-width="1.6" stroke-linecap="round"/><circle cx="35.71" cy="40.17" r="4.75" fill="none" stroke="#111" stroke-width="1.6"/><path d="M 28.29 28.29 Q 35.71 26.26 43.14 28.29" fill="none" stroke="#111" stroke-width="1.6" stroke-linecap="round"/><path d="M 33.49 34.23 Q 36.09 33.71 38.69 34.23" fill="none" stroke="#111" stroke-width="1.6" stroke-linecap="round"/><path d="M 32.74 46.11 Q 30.11 43.63 29.03 40.17" fill="none" stroke="#111" stroke-width="1.6" stroke-linecap="round"/><path d="M 49.83 40.17 Q 48.21 47.09 43.14 52.06" fill="none" stroke="#111" stroke-width="1.6" stroke-linecap="round"/><polyline points="38.69,34.23 43.14,28.29" fill="none" stroke="#111" stroke-width="1.6" stroke-linecap="round" stroke-linejoin="round"/><polyline points="39.43,46.11 43.14,52.06" fill="none" stroke="#111" stroke-width="1.6" stroke-linecap="round" stroke-linejoin="round"/><polyline points="39.43,46.11 43.14,52.06 46.11,49.83 48.34,46.11 49.09,42.4 49.83,40.17 42.4,40.17 42.4,42.4 40.91,44.63 39.43,46.11" fill="none" stroke="#111" stroke-width="1.6" stroke-linecap="round" stroke-linejoin="round"/><polyline points="42.4,40.17 49.83,40.17" fill="none" stroke="#111" stroke-width="1.6" stroke-linecap="round" stroke-linejoin="round"/><polyline points="6,58 65.43,58 35.71,6 6,58" fill="none" stroke="#111" stroke-width="1.6" stroke-linecap="round" stroke-linejoin="round"/></svg>