<svg xmlns="http://www.w3.org/2000/svg" width="96" height="64" viewBox="0 0 96 64"><polyline points="58.5,6 58.5,16.5 61.12,13.88 58.5,11.25" fill="none" stroke="#111" stroke-width="1.6" stroke-linecap="round" stroke-linejoin="round"/><polyline points="79.5,6 79.5,16.5 76.88,13.88 79.5,11.25" fill="none" stroke="#111" stroke-width="1.6" stroke-linecap="round" stroke-linejoin="round"/><polyline points="13.87,40.12 8.62,40.12" fill="none" stroke="#111" stroke-width="1.6" stroke-linecap="round" stroke-linejoin="round"/><polyline points="16.5,6 16.5,19.12" fill="none" stroke="#111" stroke-width="1.6" stroke-linecap="round" stroke-linejoin="round"/><polyline points="16.5,48 16.5,34.88" fill="none" stroke="#111" stroke-width="1.6" stroke-linecap="round" stroke-linejoin="round"/><circle cx="21.75" cy="13.88" r="1.17" fill="none" stroke="#111" stroke-width="1.6"/><circle cx="21.75" cy="13.88" r="2.62" fill="none" stroke="#111" stroke-width="1.6"/><polyline points="34.88,40.12 29.62,40.12" fill="none" stroke="#111" stroke-width="1.6" stroke-linecap="round" stroke-linejoin="round"/><polyline points="37.5,6 37.5,19.12" fill="none" stroke="#111" stroke-width="1.6" stroke-linecap="round" stroke-linejoin="round"/><polyline points="37.5,48 37.5,34.88" fill="none" stroke="#111" stroke-width="1.6" stroke-linecap="round" stroke-linejoin="round"/><polyline points="40.12,27 42.75,27" fill="none" stroke="#111" stroke-width="1.6" stroke-linecap="round" stroke-linejoin="round"/><circle cx="42.75" cy="13.88" r="2.62" fill="none" stroke="#111" stroke-width="1.6"/><polyline points="45.38,27 48,27" fill="none" stroke="#111" stroke-width="1.6" stroke-linecap="round" stroke-linejoin="round"/><polyline points="50.62,27 53.25,27" fill="none" stroke="#111" stroke-width="1.6" stroke-linecap="round" stroke-linejoin="round"/><circle cx="53.25" cy="13.88" r="1.17" fill="none" stroke="#111" stroke-width="1.6"/><circle cx="53.25" cy="13.88" r="2.62" fill="none" stroke="#111" stroke-width="1.6"/><polyline points="55.87,27 58.5,27" fill="none" stroke="#111" stroke-width="1.6" stroke-linecap="round" stroke-linejoin="round"/><polyline points="61.12,27 63.75,27" fill="none" stroke="#111" stroke-width="1.6" stroke-linecap="round" stroke-linejoin="round"/><polyline points="69,37.5 61.12,11.25" fill="none" stroke="#111" stroke-width="1.6" stroke-linecap="round" stroke-linejoin="round"/><polyline points="69,37.5 69,48" fill="none" stroke="#111" stroke-width="1.6" stroke-linecap="round" stroke-linejoin="round"/><circle cx="84.75" cy="13.88" r="2.62" fill="none" stroke="#111" stroke-width="1.6"/><rect x="6" y="6" width="84" height="42" fill="none" stroke="#111" stroke-width="1.6"/><rect x="13.87" y="19.12" width="26.25" height="15.76" fill="none" stroke="#111" stroke-width="1.6"/><polyline points="13.87,24.38 16.5,24.38 16.5,29.62 13.87,29.62 13.87,34.88 19.12,34.88 19.12,19.12 13.87,19.12 13.87,24.38" fill="none" stroke="#111" stroke-width="1.6" stroke-linecap="round" stroke-linejoin="round"/><rect x="19.12" y="19.12" width="7.88" height="15.76" fill="none" stroke="#111" stroke-width="1.6"/><polyline points="27,24.38 29.62,24.38 29.62,29.62 27,29.62 27,34.88 32.25,34.88 32.25,19.12 27,19.12 27,24.38" fill="none" stroke="#111" stroke-width="1.6" stroke-linecap="round" stroke-linejoin="round"/></svg>