<svg xmlns="http://www.w3.org/2000/svg" width="96" height="64" viewBox="0 0 96 64"><rect x="6" y="6" width="7.8" height="16.03" fill="none" stroke="#111" stroke-width="1.6"/><rect x="6" y="6" width="26" height="52" fill="none" stroke="#111" stroke-width="1.6"/><polyline points="12.07,40.67 13.8,40.67" fill="none" stroke="#111" stroke-width="1.6" stroke-linecap="round" stroke-linejoin="round"/><polyline points="12.07,49.33 13.8,49.33" fill="none" stroke="#111" stroke-width="1.6" stroke-linecap="round" stroke-linejoin="round"/><polyline points="13.8,26.37 24.2,25.07" fill="none" stroke="#111" stroke-width="1.6" stroke-linecap="round" stroke-linejoin="round"/><polyline points="13.8,27.67 12.07,27.67" fill="none" stroke="#111" stroke-width="1.6" stroke-linecap="round" stroke-linejoin="round"/><polyline points="13.8,36.33 12.07,36.33" fill="none" stroke="#111" stroke-width="1.6" stroke-linecap="round" stroke-linejoin="round"/><polyline points="13.8,45 12.07,45" fill="none" stroke="#111" stroke-width="1.6" stroke-linecap="round" stroke-linejoin="round"/><circle cx="14.67" cy="27.67" r="0.95" fill="none" stroke="#111" stroke-width="1.6"/><circle cx="14.67" cy="36.33" r="0.95" fill="none" stroke="#111" stroke-width="1.6"/><circle cx="14.67" cy="40.67" r="0.95" fill="none" stroke="#111" stroke-width="1.6"/><circle cx="14.67" cy="45" r="0.95" fill="none" stroke="#111" stroke-width="1.6"/><circle cx="14.67" cy="49.33" r="0.95" fill="none" stroke="#111" stroke-width="1.6"/><polyline points="22.47,39.8 15.53,36.33" fill="none" stroke="#111" stroke-width="1.6" stroke-linecap="round" stroke-linejoin="round"/><circle cx="23.33" cy="27.67" r="0.95" fill="none" stroke="#111" stroke-width="1.6"/><circle cx="23.33" cy="40.67" r="0.95" fill="none" stroke="#111" stroke-width="1.6"/><polyline points="24.2,27.67 25.07,27.67" fill="none" stroke="#111" stroke-width="1.6" stroke-linecap="round" stroke-linejoin="round"/><polyline points="24.2,40.67 25.07,40.67" fill="none" stroke="#111" stroke-width="1.6" stroke-linecap="round" stroke-linejoin="round"/></svg>