<svg xmlns="http://www.w3.org/2000/svg" width="96" height="64" viewBox="0 0 96 64"><rect x="6" y="6" width="8" height="52" fill="none" stroke="#111" stroke-width="1.6"/><rect x="6" y="7.8" width="2" height="0.4" fill="none" stroke="#111" stroke-width="1.6"/><rect x="6" y="11.8" width="2" height="0.4" fill="none" stroke="#111" stroke-width="1.6"/><rect x="6" y="15.8" width="2" height="0.4" fill="none" stroke="#111" stroke-width="1.6"/><rect x="6" y="19.8" width="2" height="0.4" fill="none" stroke="#111" stroke-width="1.6"/><rect x="6" y="23.8" width="2" height="0.4" fill="none" stroke="#111" stroke-width="1.6"/><rect x="6" y="27.8" width="2" height="0.4" fill="none" stroke="#111" stroke-width="1.6"/><rect x="6" y="31.8" width="2" height="0.4" fill="none" stroke="#111" stroke-width="1.6"/><rect x="6" y="35.8" width="2" height="0.4" fill="none" stroke="#111" stroke-width="1.6"/><rect x="6" y="39.8" width="2" height="0.4" fill="none" stroke="#111" stroke-width="1.6"/><rect x="6" y="43.8" width="2" height="0.4" fill="none" stroke="#111" stroke-width="1.6"/><rect x="6" y="47.8" width="2" height="0.4" fill="none" stroke="#111" stroke-width="1.6"/><rect x="6" y="51.8" width="2" height="0.4" fill="none" stroke="#111" stroke-width="1.6"/><rect x="6" y="55.8" width="2" height="0.4" fill="none" stroke="#111" stroke-width="1.6"/><rect x="12" y="7.8" width="2" height="0.4" fill="none" stroke="#111" stroke-width="1.6"/><rect x="12" y="11.8" width="2" height="0.4" fill="none" stroke="#111" stroke-width="1.6"/><rect x="12" y="15.8" width="2" height="0.4" fill="none" stroke="#111" stroke-width="1.6"/><rect x="12" y="19.8" width="2" height="0.4" fill="none" stroke="#111" stroke-width="1.6"/><rect x="12" y="23.8" width="2" height="0.4" fill="none" stroke="#111" stroke-width="1.6"/><rect x="12" y="27.8" width="2" height="0.4" fill="none" stroke="#111" stroke-width="1.6"/><rect x="12" y="31.8" width="2" height="0.4" fill="none" stroke="#111" stroke-width="1.6"/><rect x="12" y="35.8" width="2" height="0.4" fill="none" stroke="#111" stroke-width="1.6"/><rect x="12" y="39.8" width="2" height="0.4" fill="none" stroke="#111" stroke-width="1.6"/><rect x="12" y="43.8" width="2" height="0.4" fill="none" stroke="#111" stroke-width="1.6"/><rect x="12" y="47.8" width="2" height="0.4" fill="none" stroke="#111" stroke-width="1.6"/><rect x="12" y="51.8" width="2" height="0.4" fill="none" stroke="#111" stroke-width="1.6"/><rect x="12" y="55.8" width="2" height="0.4" fill="none" stroke="#111" stroke-width="1.6"/></svg>