<svg xmlns="http://www.w3.org/2000/svg" width="96" height="64" viewBox="0 0 96 64"><circle cx="12" cy="17" r="0" fill="none" stroke="#111" stroke-width="1.6"/><circle cx="19" cy="9" r="0" fill="none" stroke="#111" stroke-width="1.6"/><circle cx="19" cy="27" r="0" fill="none" stroke="#111" stroke-width="1.6"/><circle cx="19" cy="55" r="0" fill="none" stroke="#111" stroke-width="1.6"/><circle cx="24" cy="9" r="0" fill="none" stroke="#111" stroke-width="1.6"/><circle cx="24" cy="55" r="0" fill="none" stroke="#111" stroke-width="1.6"/><circle cx="26" cy="37" r="0" fill="none" stroke="#111" stroke-width="1.6"/><circle cx="28" cy="9" r="0" fill="none" stroke="#111" stroke-width="1.6"/><circle cx="28" cy="55" r="0" fill="none" stroke="#111" stroke-width="1.6"/><circle cx="33" cy="9" r="0" fill="none" stroke="#111" stroke-width="1.6"/><circle cx="33" cy="47" r="0" fill="none" stroke="#111" stroke-width="1.6"/><circle cx="33" cy="55" r="0" fill="none" stroke="#111" stroke-width="1.6"/><polyline points="6,17 12,17" fill="none" stroke="#111" stroke-width="1.6" stroke-linecap="round" stroke-linejoin="round"/><polyline points="6,27 19,27" fill="none" stroke="#111" stroke-width="1.6" stroke-linecap="round" stroke-linejoin="round"/><polyline points="6,37 26,37" fill="none" stroke="#111" stroke-width="1.6" stroke-linecap="round" stroke-linejoin="round"/><polyline points="6,47 33,47" fill="none" stroke="#111" stroke-width="1.6" stroke-linecap="round" stroke-linejoin="round"/><polyline points="10,15 14,15 12,11 10,15" fill="none" stroke="#111" stroke-width="1.6" stroke-linecap="round" stroke-linejoin="round"/><polyline points="10,49 14,49" fill="none" stroke="#111" stroke-width="1.6" stroke-linecap="round" stroke-linejoin="round"/><polyline points="14,11 10,11" fill="none" stroke="#111" stroke-width="1.6" stroke-linecap="round" stroke-linejoin="round"/><polyline points="14,53 10,53 12,49 14,53" fill="none" stroke="#111" stroke-width="1.6" stroke-linecap="round" stroke-linejoin="round"/><polyline points="17,11 21,11" fill="none" stroke="#111" stroke-width="1.6" stroke-linecap="round" stroke-linejoin="round"/><polyline points="17,49 21,49" fill="none" stroke="#111" stroke-width="1.6" stroke-linecap="round" stroke-linejoin="round"/><polyline points="21,15 17,15 19,11 21,15" fill="none" stroke="#111" stroke-width="1.6" stroke-linecap="round" stroke-linejoin="round"/><polyline points="21,53 17,53 19,49 21,53" fill="none" stroke="#111" stroke-width="1.6" stroke-linecap="round" stroke-linejoin="round"/><polyline points="24,15 28,15 26,11 24,15" fill="none" stroke="#111" stroke-width="1.6" stroke-linecap="round" stroke-linejoin="round"/><polyline points="24,49 28,49" fill="none" stroke="#111" stroke-width="1.6" stroke-linecap="round" stroke-linejoin="round"/><polyline points="24,53 28,53 26,49 24,53" fill="none" stroke="#111" stroke-width="1.6" stroke-linecap="round" stroke-linejoin="round"/><polyline points="26,7 28,9" fill="none" stroke="#111" stroke-width="1.6" stroke-linecap="round" stroke-linejoin="round"/><polyline points="28,11 24,11" fill="none" stroke="#111" stroke-width="1.6" stroke-linecap="round" stroke-linejoin="round"/><polyline points="28,55 24,55" fill="none" stroke="#111" stroke-width="1.6" stroke-linecap="round" stroke-linejoin="round"/><polyline points="31,11 35,11" fill="none" stroke="#111" stroke-width="1.6" stroke-linecap="round" stroke-linejoin="round"/><polyline points="31,53 35,53 33,49 31,53" fill="none" stroke="#111" stroke-width="1.6" stroke-linecap="round" stroke-linejoin="round"/><polyline points="33,9 39,9 39,55 33,55" fill="none" stroke="#111" stroke-width="1.6" stroke-linecap="round" stroke-linejoin="round"/><polyline points="35,15 31,15 33,11 35,15" fill="none" stroke="#111" stroke-width="1.6" stroke-linecap="round" stroke-linejoin="round"/><polyline points="35,49 31,49" fill="none" stroke="#111" stroke-width="1.6" stroke-linecap="round" stroke-linejoin="round"/><polyline points="37,30 37,28.5 41,28.5" fill="none" stroke="#111" stroke-width="1.6" stroke-linecap="round" stroke-linejoin="round"/><polyline points="41,33 37,33 39,29 41,33" fill="none" stroke="#111" stroke-width="1.6" stroke-linecap="round" stroke-linejoin="round"/><rect x="6" y="6" width="40" height="52" fill="none" stroke="#111" stroke-width="1.6"/><polyline points="19,9 12,9 12,55 19,55" fill="none" stroke="#111" stroke-width="1.6" stroke-linecap="round" stroke-linejoin="round"/><polyline points="24,9 33,9 33,55 28,55" fill="none" stroke="#111" stroke-width="1.6" stroke-linecap="round" stroke-linejoin="round"/><polyline points="26,57 24,55 19,55 19,9 24,9" fill="none" stroke="#111" stroke-width="1.6" stroke-linecap="round" stroke-linejoin="round"/><polyline points="28,55 26,53 26,11 24,9" fill="none" stroke="#111" stroke-width="1.6" stroke-linecap="round" stroke-linejoin="round"/></svg>