<svg xmlns="http://www.w3.org/2000/svg" width="96" height="64" viewBox="0 0 96 64"><rect x="6" y="6" width="0.61" height="0.18" fill="none" stroke="#111" stroke-width="1.6"/><rect x="6" y="7.79" width="0.61" height="0.18" fill="none" stroke="#111" stroke-width="1.6"/><rect x="6" y="9.57" width="0.61" height="0.18" fill="none" stroke="#111" stroke-width="1.6"/><rect x="6" y="11.36" width="0.61" height="0.18" fill="none" stroke="#111" stroke-width="1.6"/><rect x="6" y="13.15" width="0.61" height="0.18" fill="none" stroke="#111" stroke-width="1.6"/><rect x="6" y="14.93" width="0.61" height="0.18" fill="none" stroke="#111" stroke-width="1.6"/><rect x="6" y="16.72" width="0.61" height="0.18" fill="none" stroke="#111" stroke-width="1.6"/><rect x="6" y="18.51" width="0.61" height="0.18" fill="none" stroke="#111" stroke-width="1.6"/><rect x="6" y="20.3" width="0.61" height="0.17" fill="none" stroke="#111" stroke-width="1.6"/><rect x="6" y="22.08" width="0.61" height="0.18" fill="none" stroke="#111" stroke-width="1.6"/><rect x="6" y="23.87" width="0.61" height="0.18" fill="none" stroke="#111" stroke-width="1.6"/><rect x="6" y="25.66" width="0.61" height="0.18" fill="none" stroke="#111" stroke-width="1.6"/><rect x="6" y="27.44" width="0.61" height="0.18" fill="none" stroke="#111" stroke-width="1.6"/><rect x="6" y="29.23" width="0.61" height="0.18" fill="none" stroke="#111" stroke-width="1.6"/><rect x="6" y="31.02" width="0.61" height="0.18" fill="none" stroke="#111" stroke-width="1.6"/><rect x="6" y="32.8" width="0.61" height="0.18" fill="none" stroke="#111" stroke-width="1.6"/><rect x="6" y="34.59" width="0.61" height="0.18" fill="none" stroke="#111" stroke-width="1.6"/><rect x="6" y="36.38" width="0.61" height="0.18" fill="none" stroke="#111" stroke-width="1.6"/><rect x="6" y="38.16" width="0.61" height="0.18" fill="none" stroke="#111" stroke-width="1.6"/><rect x="6" y="39.95" width="0.61" height="0.18" fill="none" stroke="#111" stroke-width="1.6"/><rect x="6" y="41.74" width="0.61" height="0.18" fill="none" stroke="#111" stroke-width="1.6"/><rect x="6" y="43.53" width="0.61" height="0.17" fill="none" stroke="#111" stroke-width="1.6"/><rect x="6" y="45.31" width="0.61" height="0.18" fill="none" stroke="#111" stroke-width="1.6"/><rect x="6" y="47.1" width="0.61" height="0.18" fill="none" stroke="#111" stroke-width="1.6"/><rect x="6" y="48.89" width="0.61" height="0.18" fill="none" stroke="#111" stroke-width="1.6"/><rect x="6" y="50.67" width="0.61" height="0.18" fill="none" stroke="#111" stroke-width="1.6"/><rect x="6" y="52.46" width="0.61" height="0.18" fill="none" stroke="#111" stroke-width="1.6"/><rect x="6" y="54.25" width="0.61" height="0.18" fill="none" stroke="#111" stroke-width="1.6"/><rect x="6" y="56.03" width="0.61" height="0.18" fill="none" stroke="#111" stroke-width="1.6"/><rect x="6" y="57.82" width="0.61" height="0.18" fill="none" stroke="#111" stroke-width="1.6"/><polyline points="6.89,6.09 6.61,6.09" fill="none" stroke="#111" stroke-width="1.6" stroke-linecap="round" stroke-linejoin="round"/><polyline points="6.89,7.88 6.61,7.88" fill="none" stroke="#111" stroke-width="1.6" stroke-linecap="round" stroke-linejoin="round"/><polyline points="6.89,9.66 6.61,9.66" fill="none" stroke="#111" stroke-width="1.6" stroke-linecap="round" stroke-linejoin="round"/><polyline points="6.89,11.45 6.61,11.45" fill="none" stroke="#111" stroke-width="1.6" stroke-linecap="round" stroke-linejoin="round"/><polyline points="6.89,13.24 6.61,13.24" fill="none" stroke="#111" stroke-width="1.6" stroke-linecap="round" stroke-linejoin="round"/><polyline points="6.89,15.02 6.61,15.02" fill="none" stroke="#111" stroke-width="1.6" stroke-linecap="round" stroke-linejoin="round"/><polyline points="6.89,16.81 6.61,16.81" fill="none" stroke="#111" stroke-width="1.6" stroke-linecap="round" stroke-linejoin="round"/><polyline points="6.89,18.6 6.61,18.6" fill="none" stroke="#111" stroke-width="1.6" stroke-linecap="round" stroke-linejoin="round"/><polyline points="6.89,20.38 6.61,20.38" fill="none" stroke="#111" stroke-width="1.6" stroke-linecap="round" stroke-linejoin="round"/><polyline points="6.89,22.17 6.61,22.17" fill="none" stroke="#111" stroke-width="1.6" stroke-linecap="round" stroke-linejoin="round"/><polyline points="6.89,23.96 6.61,23.96" fill="none" stroke="#111" stroke-width="1.6" stroke-linecap="round" stroke-linejoin="round"/><polyline points="6.89,25.75 6.61,25.75" fill="none" stroke="#111" stroke-width="1.6" stroke-linecap="round" stroke-linejoin="round"/><polyline points="6.89,27.53 6.61,27.53" fill="none" stroke="#111" stroke-width="1.6" stroke-linecap="round" stroke-linejoin="round"/><polyline points="6.89,29.32 6.61,29.32" fill="none" stroke="#111" stroke-width="1.6" stroke-linecap="round" stroke-linejoin="round"/><polyline points="6.89,31.11 6.61,31.11" fill="none" stroke="#111" stroke-width="1.6" stroke-linecap="round" stroke-linejoin="round"/><polyline points="6.89,32.89 6.61,32.89" fill="none" stroke="#111" stroke-width="1.6" stroke-linecap="round" stroke-linejoin="round"/><polyline points="6.89,34.68 6.61,34.68" fill="none" stroke="#111" stroke-width="1.6" stroke-linecap="round" stroke-linejoin="round"/><polyline points="6.89,36.47 6.61,36.47" fill="none" stroke="#111" stroke-width="1.6" stroke-linecap="round" stroke-linejoin="round"/><polyline points="6.89,38.25 6.61,38.25" fill="none" stroke="#111" stroke-width="1.6" stroke-linecap="round" stroke-linejoin="round"/><polyline points="6.89,40.04 6.61,40.04" fill="none" stroke="#111" stroke-width="1.6" stroke-linecap="round" stroke-linejoin="round"/><polyline points="6.89,41.83 6.61,41.83" fill="none" stroke="#111" stroke-width="1.6" stroke-linecap="round" stroke-linejoin="round"/><polyline points="6.89,43.62 6.61,43.62" fill="none" stroke="#111" stroke-width="1.6" stroke-linecap="round" stroke-linejoin="round"/><polyline points="6.89,45.4 6.61,45.4" fill="none" stroke="#111" stroke-width="1.6" stroke-linecap="round" stroke-linejoin="round"/><polyline points="6.89,47.19 6.61,47.19" fill="none" stroke="#111" stroke-width="1.6" stroke-linecap="round" stroke-linejoin="round"/><polyline points="6.89,48.98 6.61,48.98" fill="none" stroke="#111" stroke-width="1.6" stroke-linecap="round" stroke-linejoin="round"/><polyline points="6.89,50.76 6.61,50.76" fill="none" stroke="#111" stroke-width="1.6" stroke-linecap="round" stroke-linejoin="round"/><polyline points="6.89,52.55 6.61,52.55" fill="none" stroke="#111" stroke-width="1.6" stroke-linecap="round" stroke-linejoin="round"/><polyline points="6.89,54.34 6.61,54.34" fill="none" stroke="#111" stroke-width="1.6" stroke-linecap="round" stroke-linejoin="round"/><polyline points="6.89,56.12 6.61,56.12" fill="none" stroke="#111" stroke-width="1.6" stroke-linecap="round" stroke-linejoin="round"/><polyline points="6.89,57.91 6.61,57.91" fill="none" stroke="#111" stroke-width="1.6" stroke-linecap="round" stroke-linejoin="round"/></svg>