<svg xmlns="http://www.w3.org/2000/svg" width="96" height="64" viewBox="0 0 96 64"><rect x="6" y="27.37" width="11.4" height="7.12" fill="none" stroke="#111" stroke-width="1.6"/><rect x="6" y="29.51" width="11.4" height="2.85" fill="none" stroke="#111" stroke-width="1.6"/><rect x="6" y="28.79" width="11.4" height="4.28" fill="none" stroke="#111" stroke-width="1.6"/><rect x="6" y="27.37" width="11.4" height="7.12" fill="none" stroke="#111" stroke-width="1.6"/><rect x="6" y="26.66" width="11.4" height="8.55" fill="none" stroke="#111" stroke-width="1.6"/><rect x="6" y="26.66" width="11.4" height="8.55" fill="none" stroke="#111" stroke-width="1.6"/><rect x="6" y="25.23" width="11.4" height="11.4" fill="none" stroke="#111" stroke-width="1.6"/><rect x="6" y="18.82" width="11.4" height="24.22" fill="none" stroke="#111" stroke-width="1.6"/><rect x="6" y="28.08" width="11.4" height="5.7" fill="none" stroke="#111" stroke-width="1.6"/><rect x="6" y="25.23" width="11.4" height="11.4" fill="none" stroke="#111" stroke-width="1.6"/><rect x="6" y="26.66" width="11.4" height="8.55" fill="none" stroke="#111" stroke-width="1.6"/><rect x="6" y="28.08" width="11.4" height="5.7" fill="none" stroke="#111" stroke-width="1.6"/><rect x="6" y="25.23" width="11.4" height="11.4" fill="none" stroke="#111" stroke-width="1.6"/><rect x="6" y="23.81" width="11.4" height="14.24" fill="none" stroke="#111" stroke-width="1.6"/><rect x="6" y="28.79" width="11.4" height="4.28" fill="none" stroke="#111" stroke-width="1.6"/><rect x="6" y="28.79" width="11.4" height="4.28" fill="none" stroke="#111" stroke-width="1.6"/><rect x="6" y="28.08" width="11.4" height="5.7" fill="none" stroke="#111" stroke-width="1.6"/><rect x="6" y="28.08" width="11.4" height="5.7" fill="none" stroke="#111" stroke-width="1.6"/><rect x="6" y="28.08" width="11.4" height="5.7" fill="none" stroke="#111" stroke-width="1.6"/><rect x="6" y="25.95" width="11.4" height="9.97" fill="none" stroke="#111" stroke-width="1.6"/><rect x="6" y="6" width="11.4" height="52" fill="none" stroke="#111" stroke-width="1.6"/><rect x="6" y="29.51" width="11.4" height="2.85" fill="none" stroke="#111" stroke-width="1.6"/><rect x="6" y="29.51" width="11.4" height="2.85" fill="none" stroke="#111" stroke-width="1.6"/><rect x="6" y="28.79" width="11.4" height="4.28" fill="none" stroke="#111" stroke-width="1.6"/></svg>