<svg xmlns="http://www.w3.org/2000/svg" width="96" height="64" viewBox="0 0 96 64"><polyline points="6,6.34 6.51,6.34" fill="none" stroke="#111" stroke-width="1.6" stroke-linecap="round" stroke-linejoin="round"/><polyline points="6,8.05 6.51,8.05" fill="none" stroke="#111" stroke-width="1.6" stroke-linecap="round" stroke-linejoin="round"/><polyline points="6,9.76 6.51,9.76" fill="none" stroke="#111" stroke-width="1.6" stroke-linecap="round" stroke-linejoin="round"/><polyline points="6,11.47 6.51,11.47" fill="none" stroke="#111" stroke-width="1.6" stroke-linecap="round" stroke-linejoin="round"/><polyline points="6,13.18 6.51,13.18" fill="none" stroke="#111" stroke-width="1.6" stroke-linecap="round" stroke-linejoin="round"/><polyline points="6,14.89 6.51,14.89" fill="none" stroke="#111" stroke-width="1.6" stroke-linecap="round" stroke-linejoin="round"/><polyline points="6,16.61 6.51,16.61" fill="none" stroke="#111" stroke-width="1.6" stroke-linecap="round" stroke-linejoin="round"/><polyline points="6,18.32 6.51,18.32" fill="none" stroke="#111" stroke-width="1.6" stroke-linecap="round" stroke-linejoin="round"/><polyline points="6,20.03 6.51,20.03" fill="none" stroke="#111" stroke-width="1.6" stroke-linecap="round" stroke-linejoin="round"/><polyline points="6,21.74 6.51,21.74" fill="none" stroke="#111" stroke-width="1.6" stroke-linecap="round" stroke-linejoin="round"/><polyline points="6,23.45 6.51,23.45" fill="none" stroke="#111" stroke-width="1.6" stroke-linecap="round" stroke-linejoin="round"/><polyline points="6,25.16 6.51,25.16" fill="none" stroke="#111" stroke-width="1.6" stroke-linecap="round" stroke-linejoin="round"/><polyline points="6,26.87 6.51,26.87" fill="none" stroke="#111" stroke-width="1.6" stroke-linecap="round" stroke-linejoin="round"/><polyline points="6,28.58 6.51,28.58" fill="none" stroke="#111" stroke-width="1.6" stroke-linecap="round" stroke-linejoin="round"/><polyline points="6,30.29 6.51,30.29" fill="none" stroke="#111" stroke-width="1.6" stroke-linecap="round" stroke-linejoin="round"/><polyline points="6,32 6.51,32" fill="none" stroke="#111" stroke-width="1.6" stroke-linecap="round" stroke-linejoin="round"/><polyline points="6,33.71 6.51,33.71" fill="none" stroke="#111" stroke-width="1.6" stroke-linecap="round" stroke-linejoin="round"/><polyline points="6,35.42 6.51,35.42" fill="none" stroke="#111" stroke-width="1.6" stroke-linecap="round" stroke-linejoin="round"/><polyline points="6,37.13 6.51,37.13" fill="none" stroke="#111" stroke-width="1.6" stroke-linecap="round" stroke-linejoin="round"/><polyline points="6,38.84 6.51,38.84" fill="none" stroke="#111" stroke-width="1.6" stroke-linecap="round" stroke-linejoin="round"/><polyline points="6,40.55 6.51,40.55" fill="none" stroke="#111" stroke-width="1.6" stroke-linecap="round" stroke-linejoin="round"/><polyline points="6,42.26 6.51,42.26" fill="none" stroke="#111" stroke-width="1.6" stroke-linecap="round" stroke-linejoin="round"/><polyline points="6,43.97 6.51,43.97" fill="none" stroke="#111" stroke-width="1.6" stroke-linecap="round" stroke-linejoin="round"/><polyline points="6,45.68 6.51,45.68" fill="none" stroke="#111" stroke-width="1.6" stroke-linecap="round" stroke-linejoin="round"/><polyline points="6,47.39 6.51,47.39" fill="none" stroke="#111" stroke-width="1.6" stroke-linecap="round" stroke-linejoin="round"/><polyline points="6,49.11 6.51,49.11" fill="none" stroke="#111" stroke-width="1.6" stroke-linecap="round" stroke-linejoin="round"/><polyline points="6,50.82 6.51,50.82" fill="none" stroke="#111" stroke-width="1.6" stroke-linecap="round" stroke-linejoin="round"/><polyline points="6,52.53 6.51,52.53" fill="none" stroke="#111" stroke-width="1.6" stroke-linecap="round" stroke-linejoin="round"/><polyline points="6,54.24 6.51,54.24" fill="none" stroke="#111" stroke-width="1.6" stroke-linecap="round" stroke-linejoin="round"/><polyline points="6,55.95 6.51,55.95" fill="none" stroke="#111" stroke-width="1.6" stroke-linecap="round" stroke-linejoin="round"/><polyline points="6,57.66 6.51,57.66" fill="none" stroke="#111" stroke-width="1.6" stroke-linecap="round" stroke-linejoin="round"/><path d="M 6.86 6.68 Q 6.51 6.34 6.86 6" fill="none" stroke="#111" stroke-width="1.6" stroke-linecap="round"/><path d="M 6.86 8.39 Q 6.51 8.05 6.86 7.71" fill="none" stroke="#111" stroke-width="1.6" stroke-linecap="round"/><path d="M 6.86 10.11 Q 6.51 9.76 6.86 9.42" fill="none" stroke="#111" stroke-width="1.6" stroke-linecap="round"/><path d="M 6.86 11.82 Q 6.51 11.47 6.86 11.13" fill="none" stroke="#111" stroke-width="1.6" stroke-linecap="round"/><path d="M 6.86 13.53 Q 6.51 13.18 6.86 12.84" fill="none" stroke="#111" stroke-width="1.6" stroke-linecap="round"/><path d="M 6.86 15.24 Q 6.51 14.89 6.86 14.55" fill="none" stroke="#111" stroke-width="1.6" stroke-linecap="round"/><path d="M 6.86 16.95 Q 6.51 16.61 6.86 16.26" fill="none" stroke="#111" stroke-width="1.6" stroke-linecap="round"/><path d="M 6.86 18.66 Q 6.51 18.32 6.86 17.97" fill="none" stroke="#111" stroke-width="1.6" stroke-linecap="round"/><path d="M 6.86 20.37 Q 6.51 20.03 6.86 19.68" fill="none" stroke="#111" stroke-width="1.6" stroke-linecap="round"/><path d="M 6.86 22.08 Q 6.51 21.74 6.86 21.39" fill="none" stroke="#111" stroke-width="1.6" stroke-linecap="round"/><path d="M 6.86 23.79 Q 6.51 23.45 6.86 23.11" fill="none" stroke="#111" stroke-width="1.6" stroke-linecap="round"/><path d="M 6.86 25.5 Q 6.51 25.16 6.86 24.82" fill="none" stroke="#111" stroke-width="1.6" stroke-linecap="round"/><path d="M 6.86 27.21 Q 6.51 26.87 6.86 26.53" fill="none" stroke="#111" stroke-width="1.6" stroke-linecap="round"/><path d="M 6.86 28.92 Q 6.51 28.58 6.86 28.24" fill="none" stroke="#111" stroke-width="1.6" stroke-linecap="round"/><path d="M 6.86 30.63 Q 6.51 30.29 6.86 29.95" fill="none" stroke="#111" stroke-width="1.6" stroke-linecap="round"/><path d="M 6.86 32.34 Q 6.51 32 6.86 31.66" fill="none" stroke="#111" stroke-width="1.6" stroke-linecap="round"/><path d="M 6.86 34.05 Q 6.51 33.71 6.86 33.37" fill="none" stroke="#111" stroke-width="1.6" stroke-linecap="round"/><path d="M 6.86 35.76 Q 6.51 35.42 6.86 35.08" fill="none" stroke="#111" stroke-width="1.6" stroke-linecap="round"/><path d="M 6.86 37.47 Q 6.51 37.13 6.86 36.79" fill="none" stroke="#111" stroke-width="1.6" stroke-linecap="round"/><path d="M 6.86 39.18 Q 6.51 38.84 6.86 38.5" fill="none" stroke="#111" stroke-width="1.6" stroke-linecap="round"/><path d="M 6.86 40.89 Q 6.51 40.55 6.86 40.21" fill="none" stroke="#111" stroke-width="1.6" stroke-linecap="round"/><path d="M 6.86 42.61 Q 6.51 42.26 6.86 41.92" fill="none" stroke="#111" stroke-width="1.6" stroke-linecap="round"/><path d="M 6.86 44.32 Q 6.51 43.97 6.86 43.63" fill="none" stroke="#111" stroke-width="1.6" stroke-linecap="round"/><path d="M 6.86 46.03 Q 6.51 45.68 6.86 45.34" fill="none" stroke="#111" stroke-width="1.6" stroke-linecap="round"/><path d="M 6.86 47.74 Q 6.51 47.39 6.86 47.05" fill="none" stroke="#111" stroke-width="1.6" stroke-linecap="round"/><path d="M 6.86 49.45 Q 6.51 49.11 6.86 48.76" fill="none" stroke="#111" stroke-width="1.6" stroke-linecap="round"/><path d="M 6.86 51.16 Q 6.51 50.82 6.86 50.47" fill="none" stroke="#111" stroke-width="1.6" stroke-linecap="round"/><path d="M 6.86 52.87 Q 6.51 52.53 6.86 52.18" fill="none" stroke="#111" stroke-width="1.6" stroke-linecap="round"/><path d="M 6.86 54.58 Q 6.51 54.24 6.86 53.89" fill="none" stroke="#111" stroke-width="1.6" stroke-linecap="round"/><path d="M 6.86 56.29 Q 6.51 55.95 6.86 55.61" fill="none" stroke="#111" stroke-width="1.6" stroke-linecap="round"/><path d="M 6.86 58 Q 6.51 57.66 6.86 57.32" fill="none" stroke="#111" stroke-width="1.6" stroke-linecap="round"/></svg>