<svg xmlns="http://www.w3.org/2000/svg" width="96" height="64" viewBox="0 0 96 64"><polyline points="16.4,11.51 16.4,13.34 18.24,12.42 16.4,11.51 16.4,11.51" fill="none" stroke="#111" stroke-width="1.6" stroke-linecap="round" stroke-linejoin="round"/><polyline points="18.85,19.46 19.76,20.38 19.15,20.99 19.76,20.99 17.93,20.99 18.54,20.99 17.93,20.38 18.85,19.46 18.85,19.46" fill="none" stroke="#111" stroke-width="1.6" stroke-linecap="round" stroke-linejoin="round"/><polyline points="19.46,46.99 20.38,47.91 19.76,48.52 20.38,48.52 18.54,48.52 19.15,48.52 18.54,47.91 19.46,46.99 19.46,46.99" fill="none" stroke="#111" stroke-width="1.6" stroke-linecap="round" stroke-linejoin="round"/><rect x="6" y="6" width="15.29" height="52" fill="none" stroke="#111" stroke-width="1.6"/><polyline points="9.98,6.31 10.59,6.92 10.59,29.55 9.98,30.16 9.98,30.16" fill="none" stroke="#111" stroke-width="1.6" stroke-linecap="round" stroke-linejoin="round"/><polyline points="9.98,33.84 10.59,34.45 10.59,57.08 9.98,57.69 9.98,57.69" fill="none" stroke="#111" stroke-width="1.6" stroke-linecap="round" stroke-linejoin="round"/></svg>