<svg xmlns="http://www.w3.org/2000/svg" width="96" height="64" viewBox="0 0 96 64"><rect x="6" y="6" width="3.32" height="51.5" fill="none" stroke="#111" stroke-width="1.6"/><rect x="6" y="6.75" width="0.83" height="0.16" fill="none" stroke="#111" stroke-width="1.6"/><rect x="6" y="8.41" width="0.83" height="0.17" fill="none" stroke="#111" stroke-width="1.6"/><rect x="6" y="10.07" width="0.83" height="0.17" fill="none" stroke="#111" stroke-width="1.6"/><rect x="6" y="11.73" width="0.83" height="0.17" fill="none" stroke="#111" stroke-width="1.6"/><rect x="6" y="13.39" width="0.83" height="0.17" fill="none" stroke="#111" stroke-width="1.6"/><rect x="6" y="15.05" width="0.83" height="0.17" fill="none" stroke="#111" stroke-width="1.6"/><rect x="6" y="16.72" width="0.83" height="0.16" fill="none" stroke="#111" stroke-width="1.6"/><rect x="6" y="18.38" width="0.83" height="0.16" fill="none" stroke="#111" stroke-width="1.6"/><rect x="6" y="20.04" width="0.83" height="0.16" fill="none" stroke="#111" stroke-width="1.6"/><rect x="6" y="21.7" width="0.83" height="0.17" fill="none" stroke="#111" stroke-width="1.6"/><rect x="6" y="23.36" width="0.83" height="0.17" fill="none" stroke="#111" stroke-width="1.6"/><rect x="6" y="25.02" width="0.83" height="0.17" fill="none" stroke="#111" stroke-width="1.6"/><rect x="6" y="26.68" width="0.83" height="0.17" fill="none" stroke="#111" stroke-width="1.6"/><rect x="6" y="28.35" width="0.83" height="0.16" fill="none" stroke="#111" stroke-width="1.6"/><rect x="6" y="30.01" width="0.83" height="0.16" fill="none" stroke="#111" stroke-width="1.6"/><rect x="6" y="31.67" width="0.83" height="0.16" fill="none" stroke="#111" stroke-width="1.6"/><rect x="6" y="33.33" width="0.83" height="0.17" fill="none" stroke="#111" stroke-width="1.6"/><rect x="6" y="34.99" width="0.83" height="0.17" fill="none" stroke="#111" stroke-width="1.6"/><rect x="6" y="36.65" width="0.83" height="0.17" fill="none" stroke="#111" stroke-width="1.6"/><rect x="6" y="38.31" width="0.83" height="0.17" fill="none" stroke="#111" stroke-width="1.6"/><rect x="6" y="39.97" width="0.83" height="0.17" fill="none" stroke="#111" stroke-width="1.6"/><rect x="6" y="41.64" width="0.83" height="0.16" fill="none" stroke="#111" stroke-width="1.6"/><rect x="6" y="43.3" width="0.83" height="0.16" fill="none" stroke="#111" stroke-width="1.6"/><rect x="6" y="44.96" width="0.83" height="0.16" fill="none" stroke="#111" stroke-width="1.6"/><rect x="6" y="46.62" width="0.83" height="0.17" fill="none" stroke="#111" stroke-width="1.6"/><rect x="6" y="48.28" width="0.83" height="0.17" fill="none" stroke="#111" stroke-width="1.6"/><rect x="6" y="49.94" width="0.83" height="0.17" fill="none" stroke="#111" stroke-width="1.6"/><rect x="6" y="51.6" width="0.83" height="0.17" fill="none" stroke="#111" stroke-width="1.6"/><rect x="6" y="53.27" width="0.83" height="0.16" fill="none" stroke="#111" stroke-width="1.6"/><rect x="6" y="54.93" width="0.83" height="0.16" fill="none" stroke="#111" stroke-width="1.6"/><rect x="6" y="56.59" width="0.83" height="0.16" fill="none" stroke="#111" stroke-width="1.6"/><polyline points="7,58 8.33,58" fill="none" stroke="#111" stroke-width="1.6" stroke-linecap="round" stroke-linejoin="round"/><rect x="8.49" y="6.75" width="0.83" height="0.16" fill="none" stroke="#111" stroke-width="1.6"/><rect x="8.49" y="8.41" width="0.83" height="0.17" fill="none" stroke="#111" stroke-width="1.6"/><rect x="8.49" y="10.07" width="0.83" height="0.17" fill="none" stroke="#111" stroke-width="1.6"/><rect x="8.49" y="11.73" width="0.83" height="0.17" fill="none" stroke="#111" stroke-width="1.6"/><rect x="8.49" y="13.39" width="0.83" height="0.17" fill="none" stroke="#111" stroke-width="1.6"/><rect x="8.49" y="15.05" width="0.83" height="0.17" fill="none" stroke="#111" stroke-width="1.6"/><rect x="8.49" y="16.72" width="0.83" height="0.16" fill="none" stroke="#111" stroke-width="1.6"/><rect x="8.49" y="18.38" width="0.83" height="0.16" fill="none" stroke="#111" stroke-width="1.6"/><rect x="8.49" y="20.04" width="0.83" height="0.16" fill="none" stroke="#111" stroke-width="1.6"/><rect x="8.49" y="21.7" width="0.83" height="0.17" fill="none" stroke="#111" stroke-width="1.6"/><rect x="8.49" y="23.36" width="0.83" height="0.17" fill="none" stroke="#111" stroke-width="1.6"/><rect x="8.49" y="25.02" width="0.83" height="0.17" fill="none" stroke="#111" stroke-width="1.6"/><rect x="8.49" y="26.68" width="0.83" height="0.17" fill="none" stroke="#111" stroke-width="1.6"/><rect x="8.49" y="28.35" width="0.83" height="0.16" fill="none" stroke="#111" stroke-width="1.6"/><rect x="8.49" y="30.01" width="0.83" height="0.16" fill="none" stroke="#111" stroke-width="1.6"/><rect x="8.49" y="31.67" width="0.83" height="0.16" fill="none" stroke="#111" stroke-width="1.6"/><rect x="8.49" y="33.33" width="0.83" height="0.17" fill="none" stroke="#111" stroke-width="1.6"/><rect x="8.49" y="34.99" width="0.83" height="0.17" fill="none" stroke="#111" stroke-width="1.6"/><rect x="8.49" y="36.65" width="0.83" height="0.17" fill="none" stroke="#111" stroke-width="1.6"/><rect x="8.49" y="38.31" width="0.83" height="0.17" fill="none" stroke="#111" stroke-width="1.6"/><rect x="8.49" y="39.97" width="0.83" height="0.17" fill="none" stroke="#111" stroke-width="1.6"/><rect x="8.49" y="41.64" width="0.83" height="0.16" fill="none" stroke="#111" stroke-width="1.6"/><rect x="8.49" y="43.3" width="0.83" height="0.16" fill="none" stroke="#111" stroke-width="1.6"/><rect x="8.49" y="44.96" width="0.83" height="0.16" fill="none" stroke="#111" stroke-width="1.6"/><rect x="8.49" y="46.62" width="0.83" height="0.17" fill="none" stroke="#111" stroke-width="1.6"/><rect x="8.49" y="48.28" width="0.83" height="0.17" fill="none" stroke="#111" stroke-width="1.6"/><rect x="8.49" y="49.94" width="0.83" height="0.17" fill="none" stroke="#111" stroke-width="1.6"/><rect x="8.49" y="51.6" width="0.83" height="0.17" fill="none" stroke="#111" stroke-width="1.6"/><rect x="8.49" y="53.27" width="0.83" height="0.16" fill="none" stroke="#111" stroke-width="1.6"/><rect x="8.49" y="54.93" width="0.83" height="0.16" fill="none" stroke="#111" stroke-width="1.6"/></svg>