<svg xmlns="http://www.w3.org/2000/svg" width="96" height="64" viewBox="0 0 96 64"><rect x="6" y="6" width="5.12" height="51.23" fill="none" stroke="#111" stroke-width="1.6"/><rect x="6" y="7.15" width="1.28" height="0.26" fill="none" stroke="#111" stroke-width="1.6"/><rect x="6" y="9.71" width="1.28" height="0.26" fill="none" stroke="#111" stroke-width="1.6"/><rect x="6" y="12.28" width="1.28" height="0.25" fill="none" stroke="#111" stroke-width="1.6"/><rect x="6" y="14.84" width="1.28" height="0.25" fill="none" stroke="#111" stroke-width="1.6"/><rect x="6" y="17.4" width="1.28" height="0.26" fill="none" stroke="#111" stroke-width="1.6"/><rect x="6" y="19.96" width="1.28" height="0.26" fill="none" stroke="#111" stroke-width="1.6"/><rect x="6" y="22.52" width="1.28" height="0.26" fill="none" stroke="#111" stroke-width="1.6"/><rect x="6" y="25.08" width="1.28" height="0.26" fill="none" stroke="#111" stroke-width="1.6"/><rect x="6" y="27.65" width="1.28" height="0.25" fill="none" stroke="#111" stroke-width="1.6"/><rect x="6" y="30.21" width="1.28" height="0.25" fill="none" stroke="#111" stroke-width="1.6"/><rect x="6" y="32.77" width="1.28" height="0.25" fill="none" stroke="#111" stroke-width="1.6"/><rect x="6" y="35.33" width="1.28" height="0.26" fill="none" stroke="#111" stroke-width="1.6"/><rect x="6" y="37.89" width="1.28" height="0.26" fill="none" stroke="#111" stroke-width="1.6"/><rect x="6" y="40.45" width="1.28" height="0.26" fill="none" stroke="#111" stroke-width="1.6"/><rect x="6" y="43.01" width="1.28" height="0.26" fill="none" stroke="#111" stroke-width="1.6"/><rect x="6" y="45.58" width="1.28" height="0.25" fill="none" stroke="#111" stroke-width="1.6"/><rect x="6" y="48.14" width="1.28" height="0.25" fill="none" stroke="#111" stroke-width="1.6"/><rect x="6" y="50.7" width="1.28" height="0.26" fill="none" stroke="#111" stroke-width="1.6"/><rect x="6" y="53.26" width="1.28" height="0.26" fill="none" stroke="#111" stroke-width="1.6"/><rect x="6" y="55.82" width="1.28" height="0.26" fill="none" stroke="#111" stroke-width="1.6"/><polyline points="7.54,58 9.59,58" fill="none" stroke="#111" stroke-width="1.6" stroke-linecap="round" stroke-linejoin="round"/><rect x="9.84" y="7.15" width="1.28" height="0.26" fill="none" stroke="#111" stroke-width="1.6"/><rect x="9.84" y="9.71" width="1.28" height="0.26" fill="none" stroke="#111" stroke-width="1.6"/><rect x="9.84" y="12.28" width="1.28" height="0.25" fill="none" stroke="#111" stroke-width="1.6"/><rect x="9.84" y="14.84" width="1.28" height="0.25" fill="none" stroke="#111" stroke-width="1.6"/><rect x="9.84" y="17.4" width="1.28" height="0.26" fill="none" stroke="#111" stroke-width="1.6"/><rect x="9.84" y="19.96" width="1.28" height="0.26" fill="none" stroke="#111" stroke-width="1.6"/><rect x="9.84" y="22.52" width="1.28" height="0.26" fill="none" stroke="#111" stroke-width="1.6"/><rect x="9.84" y="25.08" width="1.28" height="0.26" fill="none" stroke="#111" stroke-width="1.6"/><rect x="9.84" y="27.65" width="1.28" height="0.25" fill="none" stroke="#111" stroke-width="1.6"/><rect x="9.84" y="30.21" width="1.28" height="0.25" fill="none" stroke="#111" stroke-width="1.6"/><rect x="9.84" y="32.77" width="1.28" height="0.25" fill="none" stroke="#111" stroke-width="1.6"/><rect x="9.84" y="35.33" width="1.28" height="0.26" fill="none" stroke="#111" stroke-width="1.6"/><rect x="9.84" y="37.89" width="1.28" height="0.26" fill="none" stroke="#111" stroke-width="1.6"/><rect x="9.84" y="40.45" width="1.28" height="0.26" fill="none" stroke="#111" stroke-width="1.6"/><rect x="9.84" y="43.01" width="1.28" height="0.26" fill="none" stroke="#111" stroke-width="1.6"/><rect x="9.84" y="45.58" width="1.28" height="0.25" fill="none" stroke="#111" stroke-width="1.6"/><rect x="9.84" y="48.14" width="1.28" height="0.25" fill="none" stroke="#111" stroke-width="1.6"/><rect x="9.84" y="50.7" width="1.28" height="0.26" fill="none" stroke="#111" stroke-width="1.6"/><rect x="9.84" y="53.26" width="1.28" height="0.26" fill="none" stroke="#111" stroke-width="1.6"/></svg>