<svg xmlns="http://www.w3.org/2000/svg" width="96" height="64" viewBox="0 0 96 64"><rect x="6" y="6" width="2.46" height="51.63" fill="none" stroke="#111" stroke-width="1.6"/><rect x="6" y="6.55" width="0.61" height="0.13" fill="none" stroke="#111" stroke-width="1.6"/><rect x="6" y="7.78" width="0.61" height="0.13" fill="none" stroke="#111" stroke-width="1.6"/><rect x="6" y="9.01" width="0.61" height="0.12" fill="none" stroke="#111" stroke-width="1.6"/><rect x="6" y="10.24" width="0.61" height="0.12" fill="none" stroke="#111" stroke-width="1.6"/><rect x="6" y="11.47" width="0.61" height="0.12" fill="none" stroke="#111" stroke-width="1.6"/><rect x="6" y="12.7" width="0.61" height="0.12" fill="none" stroke="#111" stroke-width="1.6"/><rect x="6" y="13.93" width="0.61" height="0.12" fill="none" stroke="#111" stroke-width="1.6"/><rect x="6" y="15.16" width="0.61" height="0.12" fill="none" stroke="#111" stroke-width="1.6"/><rect x="6" y="16.39" width="0.61" height="0.12" fill="none" stroke="#111" stroke-width="1.6"/><rect x="6" y="17.62" width="0.61" height="0.12" fill="none" stroke="#111" stroke-width="1.6"/><rect x="6" y="18.85" width="0.61" height="0.12" fill="none" stroke="#111" stroke-width="1.6"/><rect x="6" y="20.08" width="0.61" height="0.12" fill="none" stroke="#111" stroke-width="1.6"/><rect x="6" y="21.3" width="0.61" height="0.13" fill="none" stroke="#111" stroke-width="1.6"/><rect x="6" y="22.53" width="0.61" height="0.13" fill="none" stroke="#111" stroke-width="1.6"/><rect x="6" y="23.76" width="0.61" height="0.13" fill="none" stroke="#111" stroke-width="1.6"/><rect x="6" y="24.99" width="0.61" height="0.13" fill="none" stroke="#111" stroke-width="1.6"/><rect x="6" y="26.22" width="0.61" height="0.13" fill="none" stroke="#111" stroke-width="1.6"/><rect x="6" y="27.45" width="0.61" height="0.12" fill="none" stroke="#111" stroke-width="1.6"/><rect x="6" y="28.68" width="0.61" height="0.12" fill="none" stroke="#111" stroke-width="1.6"/><rect x="6" y="29.91" width="0.61" height="0.12" fill="none" stroke="#111" stroke-width="1.6"/><rect x="6" y="31.14" width="0.61" height="0.12" fill="none" stroke="#111" stroke-width="1.6"/><rect x="6" y="32.37" width="0.61" height="0.12" fill="none" stroke="#111" stroke-width="1.6"/><rect x="6" y="33.6" width="0.61" height="0.12" fill="none" stroke="#111" stroke-width="1.6"/><rect x="6" y="34.83" width="0.61" height="0.12" fill="none" stroke="#111" stroke-width="1.6"/><rect x="6" y="36.06" width="0.61" height="0.12" fill="none" stroke="#111" stroke-width="1.6"/><rect x="6" y="37.29" width="0.61" height="0.12" fill="none" stroke="#111" stroke-width="1.6"/><rect x="6" y="38.52" width="0.61" height="0.12" fill="none" stroke="#111" stroke-width="1.6"/><rect x="6" y="39.74" width="0.61" height="0.13" fill="none" stroke="#111" stroke-width="1.6"/><rect x="6" y="40.97" width="0.61" height="0.13" fill="none" stroke="#111" stroke-width="1.6"/><rect x="6" y="42.2" width="0.61" height="0.13" fill="none" stroke="#111" stroke-width="1.6"/><rect x="6" y="43.43" width="0.61" height="0.13" fill="none" stroke="#111" stroke-width="1.6"/><rect x="6" y="44.66" width="0.61" height="0.12" fill="none" stroke="#111" stroke-width="1.6"/><rect x="6" y="45.89" width="0.61" height="0.12" fill="none" stroke="#111" stroke-width="1.6"/><rect x="6" y="47.12" width="0.61" height="0.12" fill="none" stroke="#111" stroke-width="1.6"/><rect x="6" y="48.35" width="0.61" height="0.12" fill="none" stroke="#111" stroke-width="1.6"/><rect x="6" y="49.58" width="0.61" height="0.12" fill="none" stroke="#111" stroke-width="1.6"/><rect x="6" y="50.81" width="0.61" height="0.12" fill="none" stroke="#111" stroke-width="1.6"/><rect x="6" y="52.04" width="0.61" height="0.12" fill="none" stroke="#111" stroke-width="1.6"/><rect x="6" y="53.27" width="0.61" height="0.12" fill="none" stroke="#111" stroke-width="1.6"/><rect x="6" y="54.5" width="0.61" height="0.12" fill="none" stroke="#111" stroke-width="1.6"/><rect x="6" y="55.73" width="0.61" height="0.12" fill="none" stroke="#111" stroke-width="1.6"/><rect x="6" y="56.96" width="0.61" height="0.12" fill="none" stroke="#111" stroke-width="1.6"/><polyline points="6.74,58 7.72,58" fill="none" stroke="#111" stroke-width="1.6" stroke-linecap="round" stroke-linejoin="round"/><rect x="7.84" y="6.55" width="0.62" height="0.13" fill="none" stroke="#111" stroke-width="1.6"/><rect x="7.84" y="7.78" width="0.62" height="0.13" fill="none" stroke="#111" stroke-width="1.6"/><rect x="7.84" y="9.01" width="0.62" height="0.12" fill="none" stroke="#111" stroke-width="1.6"/><rect x="7.84" y="10.24" width="0.62" height="0.12" fill="none" stroke="#111" stroke-width="1.6"/><rect x="7.84" y="11.47" width="0.62" height="0.12" fill="none" stroke="#111" stroke-width="1.6"/><rect x="7.84" y="12.7" width="0.62" height="0.12" fill="none" stroke="#111" stroke-width="1.6"/><rect x="7.84" y="13.93" width="0.62" height="0.12" fill="none" stroke="#111" stroke-width="1.6"/><rect x="7.84" y="15.16" width="0.62" height="0.12" fill="none" stroke="#111" stroke-width="1.6"/><rect x="7.84" y="16.39" width="0.62" height="0.12" fill="none" stroke="#111" stroke-width="1.6"/><rect x="7.84" y="17.62" width="0.62" height="0.12" fill="none" stroke="#111" stroke-width="1.6"/><rect x="7.84" y="18.85" width="0.62" height="0.12" fill="none" stroke="#111" stroke-width="1.6"/><rect x="7.84" y="20.08" width="0.62" height="0.12" fill="none" stroke="#111" stroke-width="1.6"/><rect x="7.84" y="21.3" width="0.62" height="0.13" fill="none" stroke="#111" stroke-width="1.6"/><rect x="7.84" y="22.53" width="0.62" height="0.13" fill="none" stroke="#111" stroke-width="1.6"/><rect x="7.84" y="23.76" width="0.62" height="0.13" fill="none" stroke="#111" stroke-width="1.6"/><rect x="7.84" y="24.99" width="0.62" height="0.13" fill="none" stroke="#111" stroke-width="1.6"/><rect x="7.84" y="26.22" width="0.62" height="0.13" fill="none" stroke="#111" stroke-width="1.6"/><rect x="7.84" y="27.45" width="0.62" height="0.12" fill="none" stroke="#111" stroke-width="1.6"/><rect x="7.84" y="28.68" width="0.62" height="0.12" fill="none" stroke="#111" stroke-width="1.6"/><rect x="7.84" y="29.91" width="0.62" height="0.12" fill="none" stroke="#111" stroke-width="1.6"/><rect x="7.84" y="31.14" width="0.62" height="0.12" fill="none" stroke="#111" stroke-width="1.6"/><rect x="7.84" y="32.37" width="0.62" height="0.12" fill="none" stroke="#111" stroke-width="1.6"/><rect x="7.84" y="33.6" width="0.62" height="0.12" fill="none" stroke="#111" stroke-width="1.6"/><rect x="7.84" y="34.83" width="0.62" height="0.12" fill="none" stroke="#111" stroke-width="1.6"/><rect x="7.84" y="36.06" width="0.62" height="0.12" fill="none" stroke="#111" stroke-width="1.6"/><rect x="7.84" y="37.29" width="0.62" height="0.12" fill="none" stroke="#111" stroke-width="1.6"/><rect x="7.84" y="38.52" width="0.62" height="0.12" fill="none" stroke="#111" stroke-width="1.6"/><rect x="7.84" y="39.74" width="0.62" height="0.13" fill="none" stroke="#111" stroke-width="1.6"/><rect x="7.84" y="40.97" width="0.62" height="0.13" fill="none" stroke="#111" stroke-width="1.6"/><rect x="7.84" y="42.2" width="0.62" height="0.13" fill="none" stroke="#111" stroke-width="1.6"/><rect x="7.84" y="43.43" width="0.62" height="0.13" fill="none" stroke="#111" stroke-width="1.6"/><rect x="7.84" y="44.66" width="0.62" height="0.12" fill="none" stroke="#111" stroke-width="1.6"/><rect x="7.84" y="45.89" width="0.62" height="0.12" fill="none" stroke="#111" stroke-width="1.6"/><rect x="7.84" y="47.12" width="0.62" height="0.12" fill="none" stroke="#111" stroke-width="1.6"/><rect x="7.84" y="48.35" width="0.62" height="0.12" fill="none" stroke="#111" stroke-width="1.6"/><rect x="7.84" y="49.58" width="0.62" height="0.12" fill="none" stroke="#111" stroke-width="1.6"/><rect x="7.84" y="50.81" width="0.62" height="0.12" fill="none" stroke="#111" stroke-width="1.6"/><rect x="7.84" y="52.04" width="0.62" height="0.12" fill="none" stroke="#111" stroke-width="1.6"/><rect x="7.84" y="53.27" width="0.62" height="0.12" fill="none" stroke="#111" stroke-width="1.6"/><rect x="7.84" y="54.5" width="0.62" height="0.12" fill="none" stroke="#111" stroke-width="1.6"/><rect x="7.84" y="55.73" width="0.62" height="0.12" fill="none" stroke="#111" stroke-width="1.6"/><rect x="7.84" y="56.96" width="0.62" height="0.12" fill="none" stroke="#111" stroke-width="1.6"/></svg>