<svg xmlns="http://www.w3.org/2000/svg" width="96" height="64" viewBox="0 0 96 64"><rect x="6" y="6" width="84" height="42" fill="none" stroke="#111" stroke-width="1.6"/><path d="M 16.5 16.5 Q 11.27 11.25 16.5 6" fill="none" stroke="#111" stroke-width="1.6" stroke-linecap="round"/><path d="M 16.5 27 Q 11.27 21.75 16.5 16.5" fill="none" stroke="#111" stroke-width="1.6" stroke-linecap="round"/><path d="M 16.5 37.5 Q 11.27 32.25 16.5 27" fill="none" stroke="#111" stroke-width="1.6" stroke-linecap="round"/><path d="M 16.5 48 Q 11.27 42.75 16.5 37.5" fill="none" stroke="#111" stroke-width="1.6" stroke-linecap="round"/><path d="M 37.5 16.5 Q 32.27 11.25 37.5 6" fill="none" stroke="#111" stroke-width="1.6" stroke-linecap="round"/><path d="M 37.5 27 Q 32.27 21.75 37.5 16.5" fill="none" stroke="#111" stroke-width="1.6" stroke-linecap="round"/><path d="M 37.5 37.5 Q 32.27 32.25 37.5 27" fill="none" stroke="#111" stroke-width="1.6" stroke-linecap="round"/><path d="M 37.5 48 Q 32.27 42.75 37.5 37.5" fill="none" stroke="#111" stroke-width="1.6" stroke-linecap="round"/><path d="M 58.5 16.5 Q 53.27 11.25 58.5 6" fill="none" stroke="#111" stroke-width="1.6" stroke-linecap="round"/><path d="M 58.5 27 Q 53.27 21.75 58.5 16.5" fill="none" stroke="#111" stroke-width="1.6" stroke-linecap="round"/><path d="M 58.5 37.5 Q 53.27 32.25 58.5 27" fill="none" stroke="#111" stroke-width="1.6" stroke-linecap="round"/><path d="M 58.5 48 Q 53.27 42.75 58.5 37.5" fill="none" stroke="#111" stroke-width="1.6" stroke-linecap="round"/><path d="M 79.5 16.5 Q 74.27 11.25 79.5 6" fill="none" stroke="#111" stroke-width="1.6" stroke-linecap="round"/><path d="M 79.5 27 Q 74.27 21.75 79.5 16.5" fill="none" stroke="#111" stroke-width="1.6" stroke-linecap="round"/><path d="M 79.5 37.5 Q 74.27 32.25 79.5 27" fill="none" stroke="#111" stroke-width="1.6" stroke-linecap="round"/><path d="M 79.5 48 Q 74.27 42.75 79.5 37.5" fill="none" stroke="#111" stroke-width="1.6" stroke-linecap="round"/></svg>