<svg xmlns="http://www.w3.org/2000/svg" width="96" height="64" viewBox="0 0 96 64"><rect x="6" y="6" width="26" height="52" fill="none" stroke="#111" stroke-width="1.6"/><polyline points="11.53,12.5 14.12,12.5" fill="none" stroke="#111" stroke-width="1.6" stroke-linecap="round" stroke-linejoin="round"/><polyline points="11.53,22.25 14.12,22.25" fill="none" stroke="#111" stroke-width="1.6" stroke-linecap="round" stroke-linejoin="round"/><polyline points="11.53,41.75 14.12,41.75" fill="none" stroke="#111" stroke-width="1.6" stroke-linecap="round" stroke-linejoin="round"/><polyline points="11.53,51.5 14.12,51.5" fill="none" stroke="#111" stroke-width="1.6" stroke-linecap="round" stroke-linejoin="round"/><polyline points="16.4,20.95 22.25,20.95 22.25,19 24.2,19" fill="none" stroke="#111" stroke-width="1.6" stroke-linecap="round" stroke-linejoin="round"/><polyline points="16.4,40.45 22.25,40.45 22.25,38.5 24.2,38.5" fill="none" stroke="#111" stroke-width="1.6" stroke-linecap="round" stroke-linejoin="round"/><polyline points="16.4,50.2 22.25,50.2 22.25,48.25 24.2,48.25" fill="none" stroke="#111" stroke-width="1.6" stroke-linecap="round" stroke-linejoin="round"/><polyline points="17.05,11.53 20.95,11.53 20.95,12.5 23.22,12.5 23.22,9.25 23.88,9.25" fill="none" stroke="#111" stroke-width="1.6" stroke-linecap="round" stroke-linejoin="round"/><polyline points="19,32 19.98,32" fill="none" stroke="#111" stroke-width="1.6" stroke-linecap="round" stroke-linejoin="round"/><polyline points="19.98,25.82 14.78,25.82 14.78,24.53" fill="none" stroke="#111" stroke-width="1.6" stroke-linecap="round" stroke-linejoin="round"/><circle cx="19.98" cy="25.82" r="0.33" fill="none" stroke="#111" stroke-width="1.6"/><polyline points="19.98,32 19.98,28.75 19.98,16.08 14.78,16.08 14.78,14.78" fill="none" stroke="#111" stroke-width="1.6" stroke-linecap="round" stroke-linejoin="round"/><polyline points="19.98,32 19.98,35.25 19.98,47.92 14.78,47.92 14.78,49.22" fill="none" stroke="#111" stroke-width="1.6" stroke-linecap="round" stroke-linejoin="round"/><circle cx="19.98" cy="32" r="0.33" fill="none" stroke="#111" stroke-width="1.6"/><polyline points="19.98,38.17 14.78,38.17 14.78,39.47" fill="none" stroke="#111" stroke-width="1.6" stroke-linecap="round" stroke-linejoin="round"/><circle cx="19.98" cy="38.17" r="0.33" fill="none" stroke="#111" stroke-width="1.6"/><path d="M 14.45 29.73 Q 15.1 32 14.45 34.27" fill="none" stroke="#111" stroke-width="1.6" stroke-linecap="round"/><polyline points="11.53,28.75 13.15,28.75 13.15,30.38 14.78,30.38" fill="none" stroke="#111" stroke-width="1.6" stroke-linecap="round" stroke-linejoin="round"/><polyline points="14.12,9.9 14.12,15.1 18.68,12.5 14.12,9.9" fill="none" stroke="#111" stroke-width="1.6" stroke-linecap="round" stroke-linejoin="round"/><polyline points="14.12,19.65 14.12,24.85 18.68,22.25 14.12,19.65" fill="none" stroke="#111" stroke-width="1.6" stroke-linecap="round" stroke-linejoin="round"/><polyline points="14.12,33.62 13.15,33.62 13.15,35.25 11.53,35.25" fill="none" stroke="#111" stroke-width="1.6" stroke-linecap="round" stroke-linejoin="round"/><polyline points="14.12,39.15 14.12,44.35 18.68,41.75 14.12,39.15" fill="none" stroke="#111" stroke-width="1.6" stroke-linecap="round" stroke-linejoin="round"/><polyline points="14.12,48.9 14.12,54.1 18.68,51.5 14.12,48.9" fill="none" stroke="#111" stroke-width="1.6" stroke-linecap="round" stroke-linejoin="round"/><circle cx="14.45" cy="33.62" r="0.33" fill="none" stroke="#111" stroke-width="1.6"/><polyline points="14.45,34.27 16.73,34.27" fill="none" stroke="#111" stroke-width="1.6" stroke-linecap="round" stroke-linejoin="round"/><path d="M 19 32 Q 18.19 33.47 16.73 34.27" fill="none" stroke="#111" stroke-width="1.6" stroke-linecap="round"/><path d="M 16.73 29.73 Q 18.19 30.53 19 32" fill="none" stroke="#111" stroke-width="1.6" stroke-linecap="round"/><polyline points="16.73,29.73 14.45,29.73" fill="none" stroke="#111" stroke-width="1.6" stroke-linecap="round" stroke-linejoin="round"/><circle cx="17.05" cy="13.8" r="0.33" fill="none" stroke="#111" stroke-width="1.6"/><circle cx="17.05" cy="23.55" r="0.33" fill="none" stroke="#111" stroke-width="1.6"/><circle cx="17.05" cy="43.05" r="0.33" fill="none" stroke="#111" stroke-width="1.6"/><circle cx="17.05" cy="52.8" r="0.33" fill="none" stroke="#111" stroke-width="1.6"/><polyline points="17.38,13.8 22.25,13.8 22.25,15.75 23.88,15.75" fill="none" stroke="#111" stroke-width="1.6" stroke-linecap="round" stroke-linejoin="round"/><polyline points="17.38,23.55 22.25,23.55 22.25,25.5 23.88,25.5" fill="none" stroke="#111" stroke-width="1.6" stroke-linecap="round" stroke-linejoin="round"/><polyline points="17.38,43.05 22.25,43.05 22.25,45 23.88,45" fill="none" stroke="#111" stroke-width="1.6" stroke-linecap="round" stroke-linejoin="round"/><polyline points="17.38,52.8 20.95,52.8 20.95,51.5 23.55,51.5 23.55,54.75 23.88,54.75" fill="none" stroke="#111" stroke-width="1.6" stroke-linecap="round" stroke-linejoin="round"/></svg>