<svg xmlns="http://www.w3.org/2000/svg" width="96" height="64" viewBox="0 0 96 64"><polyline points="9.11,30.44 26.89,30.44 26.89,39.33" fill="none" stroke="#111" stroke-width="1.6" stroke-linecap="round" stroke-linejoin="round"/><polyline points="18.89,41.56 18.89,54.89" fill="none" stroke="#111" stroke-width="1.6" stroke-linecap="round" stroke-linejoin="round"/><polyline points="18.89,48.22 9.11,48.22" fill="none" stroke="#111" stroke-width="1.6" stroke-linecap="round" stroke-linejoin="round"/><polyline points="20.67,40.22 20.67,43.78" fill="none" stroke="#111" stroke-width="1.6" stroke-linecap="round" stroke-linejoin="round"/><polyline points="20.67,46.44 20.67,50" fill="none" stroke="#111" stroke-width="1.6" stroke-linecap="round" stroke-linejoin="round"/><polyline points="20.67,52.67 20.67,56.22" fill="none" stroke="#111" stroke-width="1.6" stroke-linecap="round" stroke-linejoin="round"/><polyline points="20.67,54.44 29.56,54.44 29.56,42 20.67,42" fill="none" stroke="#111" stroke-width="1.6" stroke-linecap="round" stroke-linejoin="round"/><circle cx="23.78" cy="48.22" r="9.78" fill="none" stroke="#111" stroke-width="1.6"/><polyline points="26.89,39.33 26.89,42" fill="none" stroke="#111" stroke-width="1.6" stroke-linecap="round" stroke-linejoin="round"/><circle cx="26.89" cy="42" r="0.89" fill="none" stroke="#111" stroke-width="1.6"/><circle cx="26.89" cy="54.44" r="0.89" fill="none" stroke="#111" stroke-width="1.6"/><polyline points="26.89,57.11 26.89,48.22 20.67,48.22" fill="none" stroke="#111" stroke-width="1.6" stroke-linecap="round" stroke-linejoin="round"/><polyline points="44.67,12.67 32.67,12.67" fill="none" stroke="#111" stroke-width="1.6" stroke-linecap="round" stroke-linejoin="round"/><polyline points="14.89,12.67 23.78,12.67 23.78,18.89" fill="none" stroke="#111" stroke-width="1.6" stroke-linecap="round" stroke-linejoin="round"/><polyline points="15.78,12.67 6,12.67" fill="none" stroke="#111" stroke-width="1.6" stroke-linecap="round" stroke-linejoin="round"/><circle cx="17.56" cy="12.67" r="0.89" fill="none" stroke="#111" stroke-width="1.6"/><polyline points="17.56,18.89 17.56,10 30,10 30,18.89" fill="none" stroke="#111" stroke-width="1.6" stroke-linecap="round" stroke-linejoin="round"/><polyline points="19.33,18.89 15.78,18.89" fill="none" stroke="#111" stroke-width="1.6" stroke-linecap="round" stroke-linejoin="round"/><polyline points="21.56,48.22 25.11,46.89 25.11,49.56 21.56,48.22" fill="none" stroke="#111" stroke-width="1.6" stroke-linecap="round" stroke-linejoin="round"/><polyline points="22,11.78 22.44,11.33 22.44,8.67 22.89,8.22" fill="none" stroke="#111" stroke-width="1.6" stroke-linecap="round" stroke-linejoin="round"/><polyline points="22.44,10 24.67,11.33 24.67,8.67 22.44,10" fill="none" stroke="#111" stroke-width="1.6" stroke-linecap="round" stroke-linejoin="round"/><polyline points="23.78,13.56 25.11,17.11 22.44,17.11 23.78,13.56" fill="none" stroke="#111" stroke-width="1.6" stroke-linecap="round" stroke-linejoin="round"/><circle cx="23.78" cy="15.78" r="9.78" fill="none" stroke="#111" stroke-width="1.6"/><polyline points="23.78,20.67 23.78,30.44" fill="none" stroke="#111" stroke-width="1.6" stroke-linecap="round" stroke-linejoin="round"/><circle cx="23.78" cy="30.44" r="0.89" fill="none" stroke="#111" stroke-width="1.6"/><polyline points="25.56,18.89 22,18.89" fill="none" stroke="#111" stroke-width="1.6" stroke-linecap="round" stroke-linejoin="round"/><polyline points="27.78,46.44 28.22,46.89 30.89,46.89 31.33,47.33" fill="none" stroke="#111" stroke-width="1.6" stroke-linecap="round" stroke-linejoin="round"/><polyline points="29.56,46.89 28.22,49.11 30.89,49.11 29.56,46.89" fill="none" stroke="#111" stroke-width="1.6" stroke-linecap="round" stroke-linejoin="round"/><circle cx="30" cy="12.67" r="0.89" fill="none" stroke="#111" stroke-width="1.6"/><polyline points="30.44,20.67 17.11,20.67" fill="none" stroke="#111" stroke-width="1.6" stroke-linecap="round" stroke-linejoin="round"/><polyline points="31.78,18.89 28.22,18.89" fill="none" stroke="#111" stroke-width="1.6" stroke-linecap="round" stroke-linejoin="round"/><polyline points="32.67,12.67 30,12.67" fill="none" stroke="#111" stroke-width="1.6" stroke-linecap="round" stroke-linejoin="round"/></svg>