<svg xmlns="http://www.w3.org/2000/svg" width="96" height="64" viewBox="0 0 96 64"><rect x="6" y="25.18" width="11.1" height="14.43" fill="none" stroke="#111" stroke-width="1.6"/><rect x="6" y="25.18" width="11.1" height="14.43" fill="none" stroke="#111" stroke-width="1.6"/><rect x="6" y="25.18" width="11.1" height="14.43" fill="none" stroke="#111" stroke-width="1.6"/><rect x="6" y="25.18" width="11.1" height="14.43" fill="none" stroke="#111" stroke-width="1.6"/><rect x="6" y="25.18" width="11.1" height="14.43" fill="none" stroke="#111" stroke-width="1.6"/><rect x="6" y="25.18" width="11.1" height="14.43" fill="none" stroke="#111" stroke-width="1.6"/><rect x="6" y="25.18" width="11.1" height="14.43" fill="none" stroke="#111" stroke-width="1.6"/><rect x="6" y="25.18" width="11.1" height="14.43" fill="none" stroke="#111" stroke-width="1.6"/><rect x="6" y="25.18" width="11.1" height="14.43" fill="none" stroke="#111" stroke-width="1.6"/><rect x="6" y="25.18" width="11.1" height="14.43" fill="none" stroke="#111" stroke-width="1.6"/><rect x="7.59" y="29.78" width="7.92" height="4.44" fill="none" stroke="#111" stroke-width="1.6"/><rect x="7.59" y="29.78" width="7.92" height="4.44" fill="none" stroke="#111" stroke-width="1.6"/><rect x="7.59" y="29.78" width="7.92" height="4.44" fill="none" stroke="#111" stroke-width="1.6"/><rect x="7.59" y="29.78" width="7.92" height="4.44" fill="none" stroke="#111" stroke-width="1.6"/><rect x="7.59" y="26.29" width="7.92" height="11.42" fill="none" stroke="#111" stroke-width="1.6"/><rect x="7.59" y="26.77" width="7.92" height="11.25" fill="none" stroke="#111" stroke-width="1.6"/><rect x="9.17" y="6" width="4.76" height="52" fill="none" stroke="#111" stroke-width="1.6"/><rect x="9.17" y="12.02" width="4.76" height="39.96" fill="none" stroke="#111" stroke-width="1.6"/></svg>