<svg xmlns="http://www.w3.org/2000/svg" width="96" height="64" viewBox="0 0 96 64"><rect x="6" y="6" width="31.2" height="52" fill="none" stroke="#111" stroke-width="1.6"/><polyline points="17.7,32.65 17.7,36.55 21.6,34.6 17.7,32.65" fill="none" stroke="#111" stroke-width="1.6" stroke-linecap="round" stroke-linejoin="round"/><polyline points="17.7,34.6 13.15,34.6" fill="none" stroke="#111" stroke-width="1.6" stroke-linecap="round" stroke-linejoin="round"/><polyline points="17.7,37.85 17.7,41.75 21.6,39.8 17.7,37.85" fill="none" stroke="#111" stroke-width="1.6" stroke-linecap="round" stroke-linejoin="round"/><polyline points="17.7,39.8 13.15,39.8" fill="none" stroke="#111" stroke-width="1.6" stroke-linecap="round" stroke-linejoin="round"/><polyline points="18.35,45 13.15,45" fill="none" stroke="#111" stroke-width="1.6" stroke-linecap="round" stroke-linejoin="round"/><polyline points="18.35,50.2 13.15,50.2" fill="none" stroke="#111" stroke-width="1.6" stroke-linecap="round" stroke-linejoin="round"/><circle cx="19" cy="45" r="0.65" fill="none" stroke="#111" stroke-width="1.6"/><circle cx="19" cy="50.2" r="0.65" fill="none" stroke="#111" stroke-width="1.6"/><circle cx="22.25" cy="34.6" r="0.65" fill="none" stroke="#111" stroke-width="1.6"/><circle cx="22.25" cy="39.8" r="0.65" fill="none" stroke="#111" stroke-width="1.6"/><polyline points="22.9,34.6 28.1,34.6" fill="none" stroke="#111" stroke-width="1.6" stroke-linecap="round" stroke-linejoin="round"/><polyline points="22.9,39.8 28.1,39.8" fill="none" stroke="#111" stroke-width="1.6" stroke-linecap="round" stroke-linejoin="round"/><polyline points="23.55,43.05 23.55,46.95 19.65,45 23.55,43.05" fill="none" stroke="#111" stroke-width="1.6" stroke-linecap="round" stroke-linejoin="round"/><polyline points="23.55,45 28.1,45" fill="none" stroke="#111" stroke-width="1.6" stroke-linecap="round" stroke-linejoin="round"/><polyline points="23.55,48.25 23.55,52.15 19.65,50.2 23.55,48.25" fill="none" stroke="#111" stroke-width="1.6" stroke-linecap="round" stroke-linejoin="round"/><polyline points="23.55,50.2 28.1,50.2" fill="none" stroke="#111" stroke-width="1.6" stroke-linecap="round" stroke-linejoin="round"/></svg>