<svg xmlns="http://www.w3.org/2000/svg" width="96" height="64" viewBox="0 0 96 64"><rect x="6" y="6" width="26" height="52" fill="none" stroke="#111" stroke-width="1.6"/><polyline points="6,38.5 15.1,38.5 15.1,29.4" fill="none" stroke="#111" stroke-width="1.6" stroke-linecap="round" stroke-linejoin="round"/><polyline points="12.5,20.3 12.5,30.7 22.9,25.5 12.5,20.3" fill="none" stroke="#111" stroke-width="1.6" stroke-linecap="round" stroke-linejoin="round"/><polyline points="12.5,25.5 6,25.5" fill="none" stroke="#111" stroke-width="1.6" stroke-linecap="round" stroke-linejoin="round"/><polyline points="12.5,51.5 6,51.5" fill="none" stroke="#111" stroke-width="1.6" stroke-linecap="round" stroke-linejoin="round"/><polyline points="12.5,51.5 22.25,46.62 22.25,56.38 12.5,51.5" fill="none" stroke="#111" stroke-width="1.6" stroke-linecap="round" stroke-linejoin="round"/><polyline points="15.75,9.25 15.75,15.75 28.75,15.75 28.75,9.25 15.75,9.25" fill="none" stroke="#111" stroke-width="1.6" stroke-linecap="round" stroke-linejoin="round"/><polyline points="16.4,22.25 28.75,22.25 28.75,54.75 22.25,54.75" fill="none" stroke="#111" stroke-width="1.6" stroke-linecap="round" stroke-linejoin="round"/><polyline points="16.4,28.75 24.85,28.75 24.85,48.9 22.25,48.9" fill="none" stroke="#111" stroke-width="1.6" stroke-linecap="round" stroke-linejoin="round"/><polyline points="24.85,32 32,32" fill="none" stroke="#111" stroke-width="1.6" stroke-linecap="round" stroke-linejoin="round"/><circle cx="24.85" cy="32" r="0.33" fill="none" stroke="#111" stroke-width="1.6"/><polyline points="28.75,12.5 32,12.5" fill="none" stroke="#111" stroke-width="1.6" stroke-linecap="round" stroke-linejoin="round"/><polyline points="28.75,25.5 32,25.5" fill="none" stroke="#111" stroke-width="1.6" stroke-linecap="round" stroke-linejoin="round"/><circle cx="28.75" cy="25.5" r="0.33" fill="none" stroke="#111" stroke-width="1.6"/></svg>