<svg xmlns="http://www.w3.org/2000/svg" width="96" height="64" viewBox="0 0 96 64"><polyline points="16,17 16,8 42,8" fill="none" stroke="#111" stroke-width="1.6" stroke-linecap="round" stroke-linejoin="round"/><circle cx="16" cy="18" r="1" fill="none" stroke="#111" stroke-width="1.6"/><circle cx="16" cy="46" r="1" fill="none" stroke="#111" stroke-width="1.6"/><polyline points="16,47 16,56 42,56" fill="none" stroke="#111" stroke-width="1.6" stroke-linecap="round" stroke-linejoin="round"/><polyline points="20.64,31.04 16.4,18.96" fill="none" stroke="#111" stroke-width="1.6" stroke-linecap="round" stroke-linejoin="round"/><path d="M 19 24 Q 29.48 30.51 23 41" fill="none" stroke="#111" stroke-width="1.6" stroke-linecap="round"/><polyline points="21,16 21,12 42,12" fill="none" stroke="#111" stroke-width="1.6" stroke-linecap="round" stroke-linejoin="round"/><circle cx="21" cy="17" r="1" fill="none" stroke="#111" stroke-width="1.6"/><circle cx="21" cy="32" r="1" fill="none" stroke="#111" stroke-width="1.6"/><circle cx="21" cy="47" r="1" fill="none" stroke="#111" stroke-width="1.6"/><polyline points="21,48 21,52 42,52" fill="none" stroke="#111" stroke-width="1.6" stroke-linecap="round" stroke-linejoin="round"/><polyline points="23,41 24,38" fill="none" stroke="#111" stroke-width="1.6" stroke-linecap="round" stroke-linejoin="round"/><polyline points="23,41 26,42" fill="none" stroke="#111" stroke-width="1.6" stroke-linecap="round" stroke-linejoin="round"/><circle cx="26" cy="18" r="1" fill="none" stroke="#111" stroke-width="1.6"/><circle cx="26" cy="46" r="1" fill="none" stroke="#111" stroke-width="1.6"/><polyline points="27,18 37,18 37,16 42,16" fill="none" stroke="#111" stroke-width="1.6" stroke-linecap="round" stroke-linejoin="round"/><polyline points="27,46 37,46 37,48 42,48" fill="none" stroke="#111" stroke-width="1.6" stroke-linecap="round" stroke-linejoin="round"/><circle cx="31" cy="21" r="1" fill="none" stroke="#111" stroke-width="1.6"/><circle cx="31" cy="43" r="1" fill="none" stroke="#111" stroke-width="1.6"/><polyline points="32,21 39,21 39,20 42,20" fill="none" stroke="#111" stroke-width="1.6" stroke-linecap="round" stroke-linejoin="round"/><polyline points="32,43 39,43 39,44 42,44" fill="none" stroke="#111" stroke-width="1.6" stroke-linecap="round" stroke-linejoin="round"/><circle cx="34" cy="24" r="1" fill="none" stroke="#111" stroke-width="1.6"/><circle cx="34" cy="40" r="1" fill="none" stroke="#111" stroke-width="1.6"/><polyline points="35,24 42,24" fill="none" stroke="#111" stroke-width="1.6" stroke-linecap="round" stroke-linejoin="round"/><polyline points="35,40 42,40" fill="none" stroke="#111" stroke-width="1.6" stroke-linecap="round" stroke-linejoin="round"/><circle cx="36" cy="29" r="1" fill="none" stroke="#111" stroke-width="1.6"/><circle cx="36" cy="35" r="1" fill="none" stroke="#111" stroke-width="1.6"/><polyline points="37,29 39,29 39,28 42,28" fill="none" stroke="#111" stroke-width="1.6" stroke-linecap="round" stroke-linejoin="round"/><polyline points="37,35 39,35 39,36 42,36" fill="none" stroke="#111" stroke-width="1.6" stroke-linecap="round" stroke-linejoin="round"/><rect x="6" y="6" width="36" height="52" fill="none" stroke="#111" stroke-width="1.6"/><polyline points="6,32 20,32" fill="none" stroke="#111" stroke-width="1.6" stroke-linecap="round" stroke-linejoin="round"/></svg>