<svg xmlns="http://www.w3.org/2000/svg" width="96" height="64" viewBox="0 0 96 64"><rect x="6" y="6" width="26" height="52" fill="none" stroke="#111" stroke-width="1.6"/><polyline points="32,48.25 30.38,48.25" fill="none" stroke="#111" stroke-width="1.6" stroke-linecap="round" stroke-linejoin="round"/><polyline points="32,51.5 30.38,51.5" fill="none" stroke="#111" stroke-width="1.6" stroke-linecap="round" stroke-linejoin="round"/><polyline points="32,54.75 30.38,54.75" fill="none" stroke="#111" stroke-width="1.6" stroke-linecap="round" stroke-linejoin="round"/><polyline points="6,9.25 7.62,9.25" fill="none" stroke="#111" stroke-width="1.6" stroke-linecap="round" stroke-linejoin="round"/><polyline points="6,12.5 7.62,12.5" fill="none" stroke="#111" stroke-width="1.6" stroke-linecap="round" stroke-linejoin="round"/><polyline points="6,15.75 7.62,15.75" fill="none" stroke="#111" stroke-width="1.6" stroke-linecap="round" stroke-linejoin="round"/><polyline points="6,22.25 7.62,22.25" fill="none" stroke="#111" stroke-width="1.6" stroke-linecap="round" stroke-linejoin="round"/><polyline points="6,25.5 7.62,25.5" fill="none" stroke="#111" stroke-width="1.6" stroke-linecap="round" stroke-linejoin="round"/><polyline points="6,28.75 7.62,28.75" fill="none" stroke="#111" stroke-width="1.6" stroke-linecap="round" stroke-linejoin="round"/><polyline points="6,35.25 7.62,35.25" fill="none" stroke="#111" stroke-width="1.6" stroke-linecap="round" stroke-linejoin="round"/><polyline points="6,38.5 7.62,38.5" fill="none" stroke="#111" stroke-width="1.6" stroke-linecap="round" stroke-linejoin="round"/><polyline points="6,41.75 7.62,41.75" fill="none" stroke="#111" stroke-width="1.6" stroke-linecap="round" stroke-linejoin="round"/><polyline points="6,48.25 7.62,48.25" fill="none" stroke="#111" stroke-width="1.6" stroke-linecap="round" stroke-linejoin="round"/><polyline points="6,51.5 7.62,51.5" fill="none" stroke="#111" stroke-width="1.6" stroke-linecap="round" stroke-linejoin="round"/><polyline points="6,54.75 7.62,54.75" fill="none" stroke="#111" stroke-width="1.6" stroke-linecap="round" stroke-linejoin="round"/><circle cx="8.44" cy="9.25" r="0.16" fill="none" stroke="#111" stroke-width="1.6"/><path d="M 7.62 9.25 Q 8.44 8.44 9.25 9.25" fill="none" stroke="#111" stroke-width="1.6" stroke-linecap="round"/><polyline points="8.44,10.06 11.69,10.06" fill="none" stroke="#111" stroke-width="1.6" stroke-linecap="round" stroke-linejoin="round"/><polyline points="8.44,10.87 11.69,10.87" fill="none" stroke="#111" stroke-width="1.6" stroke-linecap="round" stroke-linejoin="round"/><circle cx="8.44" cy="12.5" r="0.16" fill="none" stroke="#111" stroke-width="1.6"/><path d="M 7.62 12.5 Q 8.44 11.69 9.25 12.5" fill="none" stroke="#111" stroke-width="1.6" stroke-linecap="round"/><polyline points="8.44,13.31 11.69,13.31" fill="none" stroke="#111" stroke-width="1.6" stroke-linecap="round" stroke-linejoin="round"/><polyline points="8.44,14.12 11.69,14.12" fill="none" stroke="#111" stroke-width="1.6" stroke-linecap="round" stroke-linejoin="round"/><circle cx="8.44" cy="15.75" r="0.16" fill="none" stroke="#111" stroke-width="1.6"/><path d="M 7.62 15.75 Q 8.44 14.94 9.25 15.75" fill="none" stroke="#111" stroke-width="1.6" stroke-linecap="round"/><circle cx="8.44" cy="22.25" r="0.16" fill="none" stroke="#111" stroke-width="1.6"/><path d="M 7.62 22.25 Q 8.44 21.44 9.25 22.25" fill="none" stroke="#111" stroke-width="1.6" stroke-linecap="round"/><polyline points="8.44,23.06 11.69,23.06" fill="none" stroke="#111" stroke-width="1.6" stroke-linecap="round" stroke-linejoin="round"/><polyline points="8.44,23.88 11.69,23.88" fill="none" stroke="#111" stroke-width="1.6" stroke-linecap="round" stroke-linejoin="round"/><circle cx="8.44" cy="25.5" r="0.16" fill="none" stroke="#111" stroke-width="1.6"/><path d="M 7.62 25.5 Q 8.44 24.69 9.25 25.5" fill="none" stroke="#111" stroke-width="1.6" stroke-linecap="round"/><polyline points="8.44,26.31 11.69,26.31" fill="none" stroke="#111" stroke-width="1.6" stroke-linecap="round" stroke-linejoin="round"/><polyline points="8.44,27.12 11.69,27.12" fill="none" stroke="#111" stroke-width="1.6" stroke-linecap="round" stroke-linejoin="round"/><circle cx="8.44" cy="28.75" r="0.16" fill="none" stroke="#111" stroke-width="1.6"/><path d="M 7.62 28.75 Q 8.44 27.94 9.25 28.75" fill="none" stroke="#111" stroke-width="1.6" stroke-linecap="round"/><circle cx="8.44" cy="35.25" r="0.16" fill="none" stroke="#111" stroke-width="1.6"/><path d="M 7.62 35.25 Q 8.44 34.44 9.25 35.25" fill="none" stroke="#111" stroke-width="1.6" stroke-linecap="round"/><polyline points="8.44,36.06 11.69,36.06" fill="none" stroke="#111" stroke-width="1.6" stroke-linecap="round" stroke-linejoin="round"/><polyline points="8.44,36.88 11.69,36.88" fill="none" stroke="#111" stroke-width="1.6" stroke-linecap="round" stroke-linejoin="round"/><circle cx="8.44" cy="38.5" r="0.16" fill="none" stroke="#111" stroke-width="1.6"/><path d="M 7.62 38.5 Q 8.44 37.69 9.25 38.5" fill="none" stroke="#111" stroke-width="1.6" stroke-linecap="round"/><polyline points="8.44,39.31 11.69,39.31" fill="none" stroke="#111" stroke-width="1.6" stroke-linecap="round" stroke-linejoin="round"/><polyline points="8.44,40.12 11.69,40.12" fill="none" stroke="#111" stroke-width="1.6" stroke-linecap="round" stroke-linejoin="round"/><circle cx="8.44" cy="41.75" r="0.16" fill="none" stroke="#111" stroke-width="1.6"/><path d="M 7.62 41.75 Q 8.44 40.94 9.25 41.75" fill="none" stroke="#111" stroke-width="1.6" stroke-linecap="round"/><circle cx="8.44" cy="48.25" r="0.16" fill="none" stroke="#111" stroke-width="1.6"/><path d="M 7.62 48.25 Q 8.44 47.44 9.25 48.25" fill="none" stroke="#111" stroke-width="1.6" stroke-linecap="round"/><polyline points="8.44,49.06 11.69,49.06" fill="none" stroke="#111" stroke-width="1.6" stroke-linecap="round" stroke-linejoin="round"/><polyline points="8.44,49.88 11.69,49.88" fill="none" stroke="#111" stroke-width="1.6" stroke-linecap="round" stroke-linejoin="round"/><circle cx="8.44" cy="51.5" r="0.16" fill="none" stroke="#111" stroke-width="1.6"/><path d="M 7.62 51.5 Q 8.44 50.69 9.25 51.5" fill="none" stroke="#111" stroke-width="1.6" stroke-linecap="round"/><polyline points="8.44,52.31 11.69,52.31" fill="none" stroke="#111" stroke-width="1.6" stroke-linecap="round" stroke-linejoin="round"/><polyline points="8.44,53.12 11.69,53.12" fill="none" stroke="#111" stroke-width="1.6" stroke-linecap="round" stroke-linejoin="round"/><circle cx="8.44" cy="54.75" r="0.16" fill="none" stroke="#111" stroke-width="1.6"/><path d="M 7.62 54.75 Q 8.44 53.94 9.25 54.75" fill="none" stroke="#111" stroke-width="1.6" stroke-linecap="round"/><path d="M 9.25 9.25 Q 10.06 8.44 10.88 9.25" fill="none" stroke="#111" stroke-width="1.6" stroke-linecap="round"/><path d="M 9.25 12.5 Q 10.06 11.69 10.88 12.5" fill="none" stroke="#111" stroke-width="1.6" stroke-linecap="round"/><path d="M 9.25 15.75 Q 10.06 14.94 10.88 15.75" fill="none" stroke="#111" stroke-width="1.6" stroke-linecap="round"/><path d="M 9.25 22.25 Q 10.06 21.44 10.88 22.25" fill="none" stroke="#111" stroke-width="1.6" stroke-linecap="round"/><path d="M 9.25 25.5 Q 10.06 24.69 10.88 25.5" fill="none" stroke="#111" stroke-width="1.6" stroke-linecap="round"/><path d="M 9.25 28.75 Q 10.06 27.94 10.88 28.75" fill="none" stroke="#111" stroke-width="1.6" stroke-linecap="round"/><path d="M 9.25 35.25 Q 10.06 34.44 10.88 35.25" fill="none" stroke="#111" stroke-width="1.6" stroke-linecap="round"/><path d="M 9.25 38.5 Q 10.06 37.69 10.88 38.5" fill="none" stroke="#111" stroke-width="1.6" stroke-linecap="round"/><path d="M 9.25 41.75 Q 10.06 40.94 10.88 41.75" fill="none" stroke="#111" stroke-width="1.6" stroke-linecap="round"/><path d="M 9.25 48.25 Q 10.06 47.44 10.88 48.25" fill="none" stroke="#111" stroke-width="1.6" stroke-linecap="round"/><path d="M 9.25 51.5 Q 10.06 50.69 10.88 51.5" fill="none" stroke="#111" stroke-width="1.6" stroke-linecap="round"/><path d="M 9.25 54.75 Q 10.06 53.94 10.88 54.75" fill="none" stroke="#111" stroke-width="1.6" stroke-linecap="round"/><path d="M 10.88 9.25 Q 11.69 8.44 12.5 9.25" fill="none" stroke="#111" stroke-width="1.6" stroke-linecap="round"/><path d="M 10.88 12.5 Q 11.69 11.69 12.5 12.5" fill="none" stroke="#111" stroke-width="1.6" stroke-linecap="round"/><path d="M 10.88 15.75 Q 11.69 14.94 12.5 15.75" fill="none" stroke="#111" stroke-width="1.6" stroke-linecap="round"/><path d="M 10.88 22.25 Q 11.69 21.44 12.5 22.25" fill="none" stroke="#111" stroke-width="1.6" stroke-linecap="round"/><path d="M 10.88 25.5 Q 11.69 24.69 12.5 25.5" fill="none" stroke="#111" stroke-width="1.6" stroke-linecap="round"/><path d="M 10.88 28.75 Q 11.69 27.94 12.5 28.75" fill="none" stroke="#111" stroke-width="1.6" stroke-linecap="round"/><path d="M 10.88 35.25 Q 11.69 34.44 12.5 35.25" fill="none" stroke="#111" stroke-width="1.6" stroke-linecap="round"/><path d="M 10.88 38.5 Q 11.69 37.69 12.5 38.5" fill="none" stroke="#111" stroke-width="1.6" stroke-linecap="round"/><path d="M 10.88 41.75 Q 11.69 40.94 12.5 41.75" fill="none" stroke="#111" stroke-width="1.6" stroke-linecap="round"/><path d="M 10.88 48.25 Q 11.69 47.44 12.5 48.25" fill="none" stroke="#111" stroke-width="1.6" stroke-linecap="round"/><path d="M 10.88 51.5 Q 11.69 50.69 12.5 51.5" fill="none" stroke="#111" stroke-width="1.6" stroke-linecap="round"/><path d="M 10.88 54.75 Q 11.69 53.94 12.5 54.75" fill="none" stroke="#111" stroke-width="1.6" stroke-linecap="round"/><polyline points="12.5,9.25 24.69,9.25" fill="none" stroke="#111" stroke-width="1.6" stroke-linecap="round" stroke-linejoin="round"/><polyline points="12.5,12.5 24.69,12.5" fill="none" stroke="#111" stroke-width="1.6" stroke-linecap="round" stroke-linejoin="round"/><polyline points="12.5,15.75 24.69,15.75" fill="none" stroke="#111" stroke-width="1.6" stroke-linecap="round" stroke-linejoin="round"/><polyline points="12.5,22.25 24.69,22.25" fill="none" stroke="#111" stroke-width="1.6" stroke-linecap="round" stroke-linejoin="round"/><polyline points="12.5,25.5 24.69,25.5" fill="none" stroke="#111" stroke-width="1.6" stroke-linecap="round" stroke-linejoin="round"/><polyline points="12.5,28.75 24.69,28.75" fill="none" stroke="#111" stroke-width="1.6" stroke-linecap="round" stroke-linejoin="round"/><polyline points="12.5,35.25 24.69,35.25" fill="none" stroke="#111" stroke-width="1.6" stroke-linecap="round" stroke-linejoin="round"/><polyline points="12.5,38.5 24.69,38.5" fill="none" stroke="#111" stroke-width="1.6" stroke-linecap="round" stroke-linejoin="round"/><polyline points="12.5,41.75 24.69,41.75" fill="none" stroke="#111" stroke-width="1.6" stroke-linecap="round" stroke-linejoin="round"/><polyline points="12.5,48.25 24.69,48.25" fill="none" stroke="#111" stroke-width="1.6" stroke-linecap="round" stroke-linejoin="round"/><polyline points="12.5,51.5 24.69,51.5" fill="none" stroke="#111" stroke-width="1.6" stroke-linecap="round" stroke-linejoin="round"/><polyline points="12.5,54.75 24.69,54.75" fill="none" stroke="#111" stroke-width="1.6" stroke-linecap="round" stroke-linejoin="round"/><path d="M 24.69 9.25 Q 25.5 10.06 24.69 10.87" fill="none" stroke="#111" stroke-width="1.6" stroke-linecap="round"/><path d="M 24.69 10.87 Q 25.5 11.69 24.69 12.5" fill="none" stroke="#111" stroke-width="1.6" stroke-linecap="round"/><path d="M 24.69 12.5 Q 25.5 13.31 24.69 14.12" fill="none" stroke="#111" stroke-width="1.6" stroke-linecap="round"/><path d="M 24.69 14.12 Q 25.5 14.94 24.69 15.75" fill="none" stroke="#111" stroke-width="1.6" stroke-linecap="round"/><path d="M 24.69 22.25 Q 25.5 23.06 24.69 23.88" fill="none" stroke="#111" stroke-width="1.6" stroke-linecap="round"/><path d="M 24.69 23.88 Q 25.5 24.69 24.69 25.5" fill="none" stroke="#111" stroke-width="1.6" stroke-linecap="round"/><path d="M 24.69 25.5 Q 25.5 26.31 24.69 27.12" fill="none" stroke="#111" stroke-width="1.6" stroke-linecap="round"/><path d="M 24.69 27.12 Q 25.5 27.94 24.69 28.75" fill="none" stroke="#111" stroke-width="1.6" stroke-linecap="round"/><path d="M 24.69 35.25 Q 25.5 36.06 24.69 36.88" fill="none" stroke="#111" stroke-width="1.6" stroke-linecap="round"/><path d="M 24.69 36.88 Q 25.5 37.69 24.69 38.5" fill="none" stroke="#111" stroke-width="1.6" stroke-linecap="round"/><path d="M 24.69 38.5 Q 25.5 39.31 24.69 40.12" fill="none" stroke="#111" stroke-width="1.6" stroke-linecap="round"/><path d="M 24.69 40.12 Q 25.5 40.94 24.69 41.75" fill="none" stroke="#111" stroke-width="1.6" stroke-linecap="round"/><path d="M 24.69 48.25 Q 25.5 49.06 24.69 49.88" fill="none" stroke="#111" stroke-width="1.6" stroke-linecap="round"/><path d="M 24.69 49.88 Q 25.5 50.69 24.69 51.5" fill="none" stroke="#111" stroke-width="1.6" stroke-linecap="round"/><path d="M 24.69 51.5 Q 25.5 52.31 24.69 53.12" fill="none" stroke="#111" stroke-width="1.6" stroke-linecap="round"/><path d="M 24.69 53.12 Q 25.5 53.94 24.69 54.75" fill="none" stroke="#111" stroke-width="1.6" stroke-linecap="round"/><circle cx="24.85" cy="14.94" r="0.16" fill="none" stroke="#111" stroke-width="1.6"/><circle cx="24.85" cy="27.94" r="0.16" fill="none" stroke="#111" stroke-width="1.6"/><circle cx="24.85" cy="40.94" r="0.16" fill="none" stroke="#111" stroke-width="1.6"/><circle cx="24.85" cy="53.94" r="0.16" fill="none" stroke="#111" stroke-width="1.6"/><polyline points="26.31,10.06 26.31,14.94" fill="none" stroke="#111" stroke-width="1.6" stroke-linecap="round" stroke-linejoin="round"/><polyline points="26.31,23.06 26.31,27.94" fill="none" stroke="#111" stroke-width="1.6" stroke-linecap="round" stroke-linejoin="round"/><polyline points="26.31,36.06 26.31,40.94" fill="none" stroke="#111" stroke-width="1.6" stroke-linecap="round" stroke-linejoin="round"/><polyline points="26.31,49.06 26.31,53.94" fill="none" stroke="#111" stroke-width="1.6" stroke-linecap="round" stroke-linejoin="round"/><polyline points="27.12,10.06 27.12,14.94" fill="none" stroke="#111" stroke-width="1.6" stroke-linecap="round" stroke-linejoin="round"/><polyline points="27.12,23.06 27.12,27.94" fill="none" stroke="#111" stroke-width="1.6" stroke-linecap="round" stroke-linejoin="round"/><polyline points="27.12,36.06 27.12,40.94" fill="none" stroke="#111" stroke-width="1.6" stroke-linecap="round" stroke-linejoin="round"/><polyline points="27.12,49.06 27.12,53.94" fill="none" stroke="#111" stroke-width="1.6" stroke-linecap="round" stroke-linejoin="round"/><circle cx="28.75" cy="14.94" r="0.16" fill="none" stroke="#111" stroke-width="1.6"/><circle cx="28.75" cy="27.94" r="0.16" fill="none" stroke="#111" stroke-width="1.6"/><circle cx="28.75" cy="40.94" r="0.16" fill="none" stroke="#111" stroke-width="1.6"/><circle cx="28.75" cy="53.94" r="0.16" fill="none" stroke="#111" stroke-width="1.6"/><path d="M 28.75 10.87 Q 27.94 10.06 28.75 9.25" fill="none" stroke="#111" stroke-width="1.6" stroke-linecap="round"/><path d="M 28.75 12.5 Q 27.94 11.69 28.75 10.87" fill="none" stroke="#111" stroke-width="1.6" stroke-linecap="round"/><path d="M 28.75 14.12 Q 27.94 13.31 28.75 12.5" fill="none" stroke="#111" stroke-width="1.6" stroke-linecap="round"/><path d="M 28.75 15.75 Q 27.94 14.94 28.75 14.12" fill="none" stroke="#111" stroke-width="1.6" stroke-linecap="round"/><path d="M 28.75 23.88 Q 27.94 23.06 28.75 22.25" fill="none" stroke="#111" stroke-width="1.6" stroke-linecap="round"/><path d="M 28.75 25.5 Q 27.94 24.69 28.75 23.88" fill="none" stroke="#111" stroke-width="1.6" stroke-linecap="round"/><path d="M 28.75 27.12 Q 27.94 26.31 28.75 25.5" fill="none" stroke="#111" stroke-width="1.6" stroke-linecap="round"/><path d="M 28.75 28.75 Q 27.94 27.94 28.75 27.12" fill="none" stroke="#111" stroke-width="1.6" stroke-linecap="round"/><path d="M 28.75 36.88 Q 27.94 36.06 28.75 35.25" fill="none" stroke="#111" stroke-width="1.6" stroke-linecap="round"/><path d="M 28.75 38.5 Q 27.94 37.69 28.75 36.88" fill="none" stroke="#111" stroke-width="1.6" stroke-linecap="round"/><path d="M 28.75 40.12 Q 27.94 39.31 28.75 38.5" fill="none" stroke="#111" stroke-width="1.6" stroke-linecap="round"/><path d="M 28.75 41.75 Q 27.94 40.94 28.75 40.12" fill="none" stroke="#111" stroke-width="1.6" stroke-linecap="round"/><path d="M 28.75 49.88 Q 27.94 49.06 28.75 48.25" fill="none" stroke="#111" stroke-width="1.6" stroke-linecap="round"/><path d="M 28.75 51.5 Q 27.94 50.69 28.75 49.88" fill="none" stroke="#111" stroke-width="1.6" stroke-linecap="round"/><path d="M 28.75 53.12 Q 27.94 52.31 28.75 51.5" fill="none" stroke="#111" stroke-width="1.6" stroke-linecap="round"/><path d="M 28.75 54.75 Q 27.94 53.94 28.75 53.12" fill="none" stroke="#111" stroke-width="1.6" stroke-linecap="round"/><polyline points="30.38,9.25 28.75,9.25" fill="none" stroke="#111" stroke-width="1.6" stroke-linecap="round" stroke-linejoin="round"/><polyline points="30.38,12.5 28.75,12.5" fill="none" stroke="#111" stroke-width="1.6" stroke-linecap="round" stroke-linejoin="round"/><polyline points="30.38,15.75 28.75,15.75" fill="none" stroke="#111" stroke-width="1.6" stroke-linecap="round" stroke-linejoin="round"/><polyline points="30.38,22.25 28.75,22.25" fill="none" stroke="#111" stroke-width="1.6" stroke-linecap="round" stroke-linejoin="round"/><polyline points="30.38,25.5 28.75,25.5" fill="none" stroke="#111" stroke-width="1.6" stroke-linecap="round" stroke-linejoin="round"/><polyline points="30.38,28.75 28.75,28.75" fill="none" stroke="#111" stroke-width="1.6" stroke-linecap="round" stroke-linejoin="round"/><polyline points="30.38,35.25 28.75,35.25" fill="none" stroke="#111" stroke-width="1.6" stroke-linecap="round" stroke-linejoin="round"/><polyline points="30.38,38.5 28.75,38.5" fill="none" stroke="#111" stroke-width="1.6" stroke-linecap="round" stroke-linejoin="round"/><polyline points="30.38,41.75 28.75,41.75" fill="none" stroke="#111" stroke-width="1.6" stroke-linecap="round" stroke-linejoin="round"/><polyline points="30.38,48.25 28.75,48.25" fill="none" stroke="#111" stroke-width="1.6" stroke-linecap="round" stroke-linejoin="round"/><polyline points="30.38,51.5 28.75,51.5" fill="none" stroke="#111" stroke-width="1.6" stroke-linecap="round" stroke-linejoin="round"/><polyline points="30.38,54.75 28.75,54.75" fill="none" stroke="#111" stroke-width="1.6" stroke-linecap="round" stroke-linejoin="round"/><polyline points="32,9.25 30.38,9.25" fill="none" stroke="#111" stroke-width="1.6" stroke-linecap="round" stroke-linejoin="round"/><polyline points="32,12.5 30.38,12.5" fill="none" stroke="#111" stroke-width="1.6" stroke-linecap="round" stroke-linejoin="round"/><polyline points="32,15.75 30.38,15.75" fill="none" stroke="#111" stroke-width="1.6" stroke-linecap="round" stroke-linejoin="round"/><polyline points="32,22.25 30.38,22.25" fill="none" stroke="#111" stroke-width="1.6" stroke-linecap="round" stroke-linejoin="round"/><polyline points="32,25.5 30.38,25.5" fill="none" stroke="#111" stroke-width="1.6" stroke-linecap="round" stroke-linejoin="round"/><polyline points="32,28.75 30.38,28.75" fill="none" stroke="#111" stroke-width="1.6" stroke-linecap="round" stroke-linejoin="round"/><polyline points="32,35.25 30.38,35.25" fill="none" stroke="#111" stroke-width="1.6" stroke-linecap="round" stroke-linejoin="round"/><polyline points="32,38.5 30.38,38.5" fill="none" stroke="#111" stroke-width="1.6" stroke-linecap="round" stroke-linejoin="round"/><polyline points="32,41.75 30.38,41.75" fill="none" stroke="#111" stroke-width="1.6" stroke-linecap="round" stroke-linejoin="round"/></svg>