<svg xmlns="http://www.w3.org/2000/svg" width="96" height="64" viewBox="0 0 96 64"><polyline points="6,7.69 6.68,7.69" fill="none" stroke="#111" stroke-width="1.6" stroke-linecap="round" stroke-linejoin="round"/><polyline points="6,9.04 8.3,9.04" fill="none" stroke="#111" stroke-width="1.6" stroke-linecap="round" stroke-linejoin="round"/><polyline points="6,10.39 6.68,10.39" fill="none" stroke="#111" stroke-width="1.6" stroke-linecap="round" stroke-linejoin="round"/><polyline points="6,11.74 8.3,11.74" fill="none" stroke="#111" stroke-width="1.6" stroke-linecap="round" stroke-linejoin="round"/><polyline points="6,13.09 6.68,13.09" fill="none" stroke="#111" stroke-width="1.6" stroke-linecap="round" stroke-linejoin="round"/><polyline points="6,14.44 8.3,14.44" fill="none" stroke="#111" stroke-width="1.6" stroke-linecap="round" stroke-linejoin="round"/><polyline points="6,15.79 6.68,15.79" fill="none" stroke="#111" stroke-width="1.6" stroke-linecap="round" stroke-linejoin="round"/><polyline points="6,17.14 8.3,17.14" fill="none" stroke="#111" stroke-width="1.6" stroke-linecap="round" stroke-linejoin="round"/><polyline points="6,18.49 6.68,18.49" fill="none" stroke="#111" stroke-width="1.6" stroke-linecap="round" stroke-linejoin="round"/><polyline points="6,19.84 8.3,19.84" fill="none" stroke="#111" stroke-width="1.6" stroke-linecap="round" stroke-linejoin="round"/><polyline points="6,21.19 6.68,21.19" fill="none" stroke="#111" stroke-width="1.6" stroke-linecap="round" stroke-linejoin="round"/><polyline points="6,22.55 8.3,22.55" fill="none" stroke="#111" stroke-width="1.6" stroke-linecap="round" stroke-linejoin="round"/><polyline points="6,23.9 6.68,23.9" fill="none" stroke="#111" stroke-width="1.6" stroke-linecap="round" stroke-linejoin="round"/><polyline points="6,25.25 8.3,25.25" fill="none" stroke="#111" stroke-width="1.6" stroke-linecap="round" stroke-linejoin="round"/><polyline points="6,26.6 6.68,26.6" fill="none" stroke="#111" stroke-width="1.6" stroke-linecap="round" stroke-linejoin="round"/><polyline points="6,27.95 8.3,27.95" fill="none" stroke="#111" stroke-width="1.6" stroke-linecap="round" stroke-linejoin="round"/><polyline points="6,29.3 6.68,29.3" fill="none" stroke="#111" stroke-width="1.6" stroke-linecap="round" stroke-linejoin="round"/><polyline points="6,30.65 8.3,30.65" fill="none" stroke="#111" stroke-width="1.6" stroke-linecap="round" stroke-linejoin="round"/><polyline points="6,32 6.68,32" fill="none" stroke="#111" stroke-width="1.6" stroke-linecap="round" stroke-linejoin="round"/><polyline points="6,33.35 8.3,33.35" fill="none" stroke="#111" stroke-width="1.6" stroke-linecap="round" stroke-linejoin="round"/><polyline points="6,34.7 6.68,34.7" fill="none" stroke="#111" stroke-width="1.6" stroke-linecap="round" stroke-linejoin="round"/><polyline points="6,36.05 8.3,36.05" fill="none" stroke="#111" stroke-width="1.6" stroke-linecap="round" stroke-linejoin="round"/><polyline points="6,37.4 6.68,37.4" fill="none" stroke="#111" stroke-width="1.6" stroke-linecap="round" stroke-linejoin="round"/><polyline points="6,38.75 8.3,38.75" fill="none" stroke="#111" stroke-width="1.6" stroke-linecap="round" stroke-linejoin="round"/><polyline points="6,40.1 6.68,40.1" fill="none" stroke="#111" stroke-width="1.6" stroke-linecap="round" stroke-linejoin="round"/><polyline points="6,41.45 8.3,41.45" fill="none" stroke="#111" stroke-width="1.6" stroke-linecap="round" stroke-linejoin="round"/><polyline points="6,42.81 6.68,42.81" fill="none" stroke="#111" stroke-width="1.6" stroke-linecap="round" stroke-linejoin="round"/><polyline points="6,44.16 8.3,44.16" fill="none" stroke="#111" stroke-width="1.6" stroke-linecap="round" stroke-linejoin="round"/><polyline points="6,45.51 6.68,45.51" fill="none" stroke="#111" stroke-width="1.6" stroke-linecap="round" stroke-linejoin="round"/><polyline points="6,46.86 8.3,46.86" fill="none" stroke="#111" stroke-width="1.6" stroke-linecap="round" stroke-linejoin="round"/><polyline points="6,48.21 6.68,48.21" fill="none" stroke="#111" stroke-width="1.6" stroke-linecap="round" stroke-linejoin="round"/><polyline points="6,49.56 8.3,49.56" fill="none" stroke="#111" stroke-width="1.6" stroke-linecap="round" stroke-linejoin="round"/><polyline points="6,50.91 6.68,50.91" fill="none" stroke="#111" stroke-width="1.6" stroke-linecap="round" stroke-linejoin="round"/><polyline points="6,52.26 8.3,52.26" fill="none" stroke="#111" stroke-width="1.6" stroke-linecap="round" stroke-linejoin="round"/><polyline points="6,53.61 6.68,53.61" fill="none" stroke="#111" stroke-width="1.6" stroke-linecap="round" stroke-linejoin="round"/><polyline points="6,54.96 8.3,54.96" fill="none" stroke="#111" stroke-width="1.6" stroke-linecap="round" stroke-linejoin="round"/><polyline points="6,56.31 6.68,56.31" fill="none" stroke="#111" stroke-width="1.6" stroke-linecap="round" stroke-linejoin="round"/><polyline points="6,58 10.05,55.97 10.05,8.03 6,6 6,58" fill="none" stroke="#111" stroke-width="1.6" stroke-linecap="round" stroke-linejoin="round"/><circle cx="7.08" cy="7.69" r="0.41" fill="none" stroke="#111" stroke-width="1.6"/><circle cx="7.08" cy="10.39" r="0.41" fill="none" stroke="#111" stroke-width="1.6"/><circle cx="7.08" cy="13.09" r="0.41" fill="none" stroke="#111" stroke-width="1.6"/><circle cx="7.08" cy="15.79" r="0.41" fill="none" stroke="#111" stroke-width="1.6"/><circle cx="7.08" cy="18.49" r="0.41" fill="none" stroke="#111" stroke-width="1.6"/><circle cx="7.08" cy="21.19" r="0.41" fill="none" stroke="#111" stroke-width="1.6"/><circle cx="7.08" cy="23.9" r="0.41" fill="none" stroke="#111" stroke-width="1.6"/><circle cx="7.08" cy="26.6" r="0.41" fill="none" stroke="#111" stroke-width="1.6"/><circle cx="7.08" cy="29.3" r="0.41" fill="none" stroke="#111" stroke-width="1.6"/><circle cx="7.08" cy="32" r="0.41" fill="none" stroke="#111" stroke-width="1.6"/><circle cx="7.08" cy="34.7" r="0.41" fill="none" stroke="#111" stroke-width="1.6"/><circle cx="7.08" cy="37.4" r="0.41" fill="none" stroke="#111" stroke-width="1.6"/><circle cx="7.08" cy="40.1" r="0.41" fill="none" stroke="#111" stroke-width="1.6"/><circle cx="7.08" cy="42.81" r="0.41" fill="none" stroke="#111" stroke-width="1.6"/><circle cx="7.08" cy="45.51" r="0.41" fill="none" stroke="#111" stroke-width="1.6"/><circle cx="7.08" cy="48.21" r="0.41" fill="none" stroke="#111" stroke-width="1.6"/><circle cx="7.08" cy="50.91" r="0.41" fill="none" stroke="#111" stroke-width="1.6"/><circle cx="7.08" cy="53.61" r="0.41" fill="none" stroke="#111" stroke-width="1.6"/><circle cx="7.08" cy="56.31" r="0.41" fill="none" stroke="#111" stroke-width="1.6"/><circle cx="8.7" cy="9.04" r="0.41" fill="none" stroke="#111" stroke-width="1.6"/><circle cx="8.7" cy="11.74" r="0.41" fill="none" stroke="#111" stroke-width="1.6"/><circle cx="8.7" cy="14.44" r="0.41" fill="none" stroke="#111" stroke-width="1.6"/><circle cx="8.7" cy="17.14" r="0.41" fill="none" stroke="#111" stroke-width="1.6"/><circle cx="8.7" cy="19.84" r="0.41" fill="none" stroke="#111" stroke-width="1.6"/><circle cx="8.7" cy="22.55" r="0.41" fill="none" stroke="#111" stroke-width="1.6"/><circle cx="8.7" cy="25.25" r="0.41" fill="none" stroke="#111" stroke-width="1.6"/><circle cx="8.7" cy="27.95" r="0.41" fill="none" stroke="#111" stroke-width="1.6"/><circle cx="8.7" cy="30.65" r="0.41" fill="none" stroke="#111" stroke-width="1.6"/><circle cx="8.7" cy="33.35" r="0.41" fill="none" stroke="#111" stroke-width="1.6"/><circle cx="8.7" cy="36.05" r="0.41" fill="none" stroke="#111" stroke-width="1.6"/><circle cx="8.7" cy="38.75" r="0.41" fill="none" stroke="#111" stroke-width="1.6"/><circle cx="8.7" cy="41.45" r="0.41" fill="none" stroke="#111" stroke-width="1.6"/><circle cx="8.7" cy="44.16" r="0.41" fill="none" stroke="#111" stroke-width="1.6"/><circle cx="8.7" cy="46.86" r="0.41" fill="none" stroke="#111" stroke-width="1.6"/><circle cx="8.7" cy="49.56" r="0.41" fill="none" stroke="#111" stroke-width="1.6"/><circle cx="8.7" cy="52.26" r="0.41" fill="none" stroke="#111" stroke-width="1.6"/><circle cx="8.7" cy="54.96" r="0.41" fill="none" stroke="#111" stroke-width="1.6"/></svg>