<svg xmlns="http://www.w3.org/2000/svg" width="96" height="64" viewBox="0 0 96 64"><circle cx="13.43" cy="29.03" r="0" fill="none" stroke="#111" stroke-width="1.6"/><circle cx="13.43" cy="40.17" r="0" fill="none" stroke="#111" stroke-width="1.6"/><circle cx="13.43" cy="51.31" r="0" fill="none" stroke="#111" stroke-width="1.6"/><polyline points="16.4,51.31 13.43,51.31" fill="none" stroke="#111" stroke-width="1.6" stroke-linecap="round" stroke-linejoin="round"/><polyline points="17.14,14.17 11.57,14.17" fill="none" stroke="#111" stroke-width="1.6" stroke-linecap="round" stroke-linejoin="round"/><polyline points="17.14,16.4 11.57,16.4" fill="none" stroke="#111" stroke-width="1.6" stroke-linecap="round" stroke-linejoin="round"/><polyline points="17.14,25.31 11.57,25.31" fill="none" stroke="#111" stroke-width="1.6" stroke-linecap="round" stroke-linejoin="round"/><polyline points="17.14,27.54 11.57,27.54" fill="none" stroke="#111" stroke-width="1.6" stroke-linecap="round" stroke-linejoin="round"/><polyline points="17.14,36.46 11.57,36.46" fill="none" stroke="#111" stroke-width="1.6" stroke-linecap="round" stroke-linejoin="round"/><polyline points="17.14,38.69 11.57,38.69" fill="none" stroke="#111" stroke-width="1.6" stroke-linecap="round" stroke-linejoin="round"/><polyline points="17.14,47.6 11.57,47.6" fill="none" stroke="#111" stroke-width="1.6" stroke-linecap="round" stroke-linejoin="round"/><polyline points="17.14,49.83 11.57,49.83" fill="none" stroke="#111" stroke-width="1.6" stroke-linecap="round" stroke-linejoin="round"/><polyline points="20.11,17.89 22.71,17.89 22.71,15.29 24.57,15.29" fill="none" stroke="#111" stroke-width="1.6" stroke-linecap="round" stroke-linejoin="round"/><polyline points="20.11,29.03 22.71,29.03 22.71,26.43 24.57,26.43" fill="none" stroke="#111" stroke-width="1.6" stroke-linecap="round" stroke-linejoin="round"/><polyline points="20.11,40.17 22.71,40.17 22.71,37.57 24.57,37.57" fill="none" stroke="#111" stroke-width="1.6" stroke-linecap="round" stroke-linejoin="round"/><polyline points="20.11,51.31 22.71,51.31 22.71,48.71 24.57,48.71" fill="none" stroke="#111" stroke-width="1.6" stroke-linecap="round" stroke-linejoin="round"/><polyline points="26.43,26.43 28.29,26.43" fill="none" stroke="#111" stroke-width="1.6" stroke-linecap="round" stroke-linejoin="round"/><polyline points="28.29,15.29 26.43,15.29" fill="none" stroke="#111" stroke-width="1.6" stroke-linecap="round" stroke-linejoin="round"/><circle cx="28.29" cy="15.29" r="0" fill="none" stroke="#111" stroke-width="1.6"/><circle cx="28.29" cy="26.43" r="0" fill="none" stroke="#111" stroke-width="1.6"/><polyline points="28.29,37.57 26.43,37.57" fill="none" stroke="#111" stroke-width="1.6" stroke-linecap="round" stroke-linejoin="round"/><circle cx="28.29" cy="37.57" r="0" fill="none" stroke="#111" stroke-width="1.6"/><rect x="6" y="6" width="24.14" height="52" fill="none" stroke="#111" stroke-width="1.6"/><rect x="7.86" y="11.94" width="3.71" height="39.75" fill="none" stroke="#111" stroke-width="1.6"/><polyline points="12.31,53.54 14.54,53.54" fill="none" stroke="#111" stroke-width="1.6" stroke-linecap="round" stroke-linejoin="round"/><polyline points="12.31,54.29 14.54,54.29" fill="none" stroke="#111" stroke-width="1.6" stroke-linecap="round" stroke-linejoin="round"/><polyline points="13.43,6 13.43,7.67 14.54,7.67" fill="none" stroke="#111" stroke-width="1.6" stroke-linecap="round" stroke-linejoin="round"/><polyline points="13.43,29.03 16.4,29.03" fill="none" stroke="#111" stroke-width="1.6" stroke-linecap="round" stroke-linejoin="round"/><polyline points="13.43,53.54 13.43,17.89 16.4,17.89" fill="none" stroke="#111" stroke-width="1.6" stroke-linecap="round" stroke-linejoin="round"/><polyline points="13.43,58 13.43,54.29" fill="none" stroke="#111" stroke-width="1.6" stroke-linecap="round" stroke-linejoin="round"/><polyline points="15.66,9.16 15.66,9.53 15.29,9.53" fill="none" stroke="#111" stroke-width="1.6" stroke-linecap="round" stroke-linejoin="round"/><polyline points="15.66,9.53 14.91,8.79" fill="none" stroke="#111" stroke-width="1.6" stroke-linecap="round" stroke-linejoin="round"/><polyline points="16.03,6.93 16.03,8.41" fill="none" stroke="#111" stroke-width="1.6" stroke-linecap="round" stroke-linejoin="round"/><polyline points="16.03,7.67 14.54,6.93 14.54,8.41 16.03,7.67" fill="none" stroke="#111" stroke-width="1.6" stroke-linecap="round" stroke-linejoin="round"/><polyline points="16.4,9.16 16.4,9.53 16.03,9.53" fill="none" stroke="#111" stroke-width="1.6" stroke-linecap="round" stroke-linejoin="round"/><polyline points="16.4,9.53 15.66,8.79" fill="none" stroke="#111" stroke-width="1.6" stroke-linecap="round" stroke-linejoin="round"/><rect x="16.4" y="17.14" width="3.71" height="1.49" fill="none" stroke="#111" stroke-width="1.6"/><rect x="16.4" y="28.29" width="3.71" height="1.48" fill="none" stroke="#111" stroke-width="1.6"/><polyline points="16.4,40.17 13.43,40.17" fill="none" stroke="#111" stroke-width="1.6" stroke-linecap="round" stroke-linejoin="round"/><rect x="16.4" y="39.43" width="3.71" height="1.48" fill="none" stroke="#111" stroke-width="1.6"/><rect x="16.4" y="50.57" width="3.71" height="1.49" fill="none" stroke="#111" stroke-width="1.6"/><polyline points="17.14,6 17.14,7.67 16.03,7.67" fill="none" stroke="#111" stroke-width="1.6" stroke-linecap="round" stroke-linejoin="round"/><polyline points="17.14,15.66 20.11,15.66" fill="none" stroke="#111" stroke-width="1.6" stroke-linecap="round" stroke-linejoin="round"/><polyline points="17.14,26.8 20.11,26.8" fill="none" stroke="#111" stroke-width="1.6" stroke-linecap="round" stroke-linejoin="round"/><polyline points="17.14,37.94 20.11,37.94" fill="none" stroke="#111" stroke-width="1.6" stroke-linecap="round" stroke-linejoin="round"/><polyline points="17.14,49.09 20.11,49.09" fill="none" stroke="#111" stroke-width="1.6" stroke-linecap="round" stroke-linejoin="round"/><path d="M 17.89 14.17 Q 17.51 14.54 17.14 14.17" fill="none" stroke="#111" stroke-width="1.6" stroke-linecap="round"/><path d="M 17.14 16.4 Q 17.51 16.03 17.89 16.4" fill="none" stroke="#111" stroke-width="1.6" stroke-linecap="round"/><path d="M 17.89 25.31 Q 17.51 25.68 17.14 25.31" fill="none" stroke="#111" stroke-width="1.6" stroke-linecap="round"/><path d="M 17.14 27.54 Q 17.51 27.17 17.89 27.54" fill="none" stroke="#111" stroke-width="1.6" stroke-linecap="round"/><path d="M 17.89 36.46 Q 17.51 36.83 17.14 36.46" fill="none" stroke="#111" stroke-width="1.6" stroke-linecap="round"/><path d="M 17.14 38.69 Q 17.51 38.32 17.89 38.69" fill="none" stroke="#111" stroke-width="1.6" stroke-linecap="round"/><path d="M 17.89 47.6 Q 17.51 47.97 17.14 47.6" fill="none" stroke="#111" stroke-width="1.6" stroke-linecap="round"/><path d="M 17.14 49.83 Q 17.51 49.46 17.89 49.83" fill="none" stroke="#111" stroke-width="1.6" stroke-linecap="round"/><path d="M 18.63 14.17 Q 18.26 14.54 17.89 14.17" fill="none" stroke="#111" stroke-width="1.6" stroke-linecap="round"/><path d="M 17.89 16.4 Q 18.26 16.03 18.63 16.4" fill="none" stroke="#111" stroke-width="1.6" stroke-linecap="round"/><path d="M 18.63 25.31 Q 18.26 25.68 17.89 25.31" fill="none" stroke="#111" stroke-width="1.6" stroke-linecap="round"/><path d="M 17.89 27.54 Q 18.26 27.17 18.63 27.54" fill="none" stroke="#111" stroke-width="1.6" stroke-linecap="round"/><path d="M 18.63 36.46 Q 18.26 36.83 17.89 36.46" fill="none" stroke="#111" stroke-width="1.6" stroke-linecap="round"/><path d="M 17.89 38.69 Q 18.26 38.32 18.63 38.69" fill="none" stroke="#111" stroke-width="1.6" stroke-linecap="round"/><path d="M 18.63 47.6 Q 18.26 47.97 17.89 47.6" fill="none" stroke="#111" stroke-width="1.6" stroke-linecap="round"/><path d="M 17.89 49.83 Q 18.26 49.46 18.63 49.83" fill="none" stroke="#111" stroke-width="1.6" stroke-linecap="round"/><path d="M 19.37 14.17 Q 19 14.54 18.63 14.17" fill="none" stroke="#111" stroke-width="1.6" stroke-linecap="round"/><path d="M 18.63 16.4 Q 19 16.03 19.37 16.4" fill="none" stroke="#111" stroke-width="1.6" stroke-linecap="round"/><path d="M 19.37 25.31 Q 19 25.68 18.63 25.31" fill="none" stroke="#111" stroke-width="1.6" stroke-linecap="round"/><path d="M 18.63 27.54 Q 19 27.17 19.37 27.54" fill="none" stroke="#111" stroke-width="1.6" stroke-linecap="round"/><path d="M 19.37 36.46 Q 19 36.83 18.63 36.46" fill="none" stroke="#111" stroke-width="1.6" stroke-linecap="round"/><path d="M 18.63 38.69 Q 19 38.32 19.37 38.69" fill="none" stroke="#111" stroke-width="1.6" stroke-linecap="round"/><path d="M 19.37 47.6 Q 19 47.97 18.63 47.6" fill="none" stroke="#111" stroke-width="1.6" stroke-linecap="round"/><path d="M 18.63 49.83 Q 19 49.46 19.37 49.83" fill="none" stroke="#111" stroke-width="1.6" stroke-linecap="round"/><circle cx="19.74" cy="14.13" r="0.11" fill="none" stroke="#111" stroke-width="1.6"/><path d="M 20.11 14.17 Q 19.74 14.54 19.37 14.17" fill="none" stroke="#111" stroke-width="1.6" stroke-linecap="round"/><path d="M 19.37 16.4 Q 19.74 16.03 20.11 16.4" fill="none" stroke="#111" stroke-width="1.6" stroke-linecap="round"/><circle cx="19.74" cy="16.44" r="0.11" fill="none" stroke="#111" stroke-width="1.6"/><circle cx="19.74" cy="25.28" r="0.11" fill="none" stroke="#111" stroke-width="1.6"/><path d="M 20.11 25.31 Q 19.74 25.68 19.37 25.31" fill="none" stroke="#111" stroke-width="1.6" stroke-linecap="round"/><path d="M 19.37 27.54 Q 19.74 27.17 20.11 27.54" fill="none" stroke="#111" stroke-width="1.6" stroke-linecap="round"/><circle cx="19.74" cy="27.58" r="0.11" fill="none" stroke="#111" stroke-width="1.6"/><circle cx="19.74" cy="36.42" r="0.11" fill="none" stroke="#111" stroke-width="1.6"/><path d="M 20.11 36.46 Q 19.74 36.83 19.37 36.46" fill="none" stroke="#111" stroke-width="1.6" stroke-linecap="round"/><path d="M 19.37 38.69 Q 19.74 38.32 20.11 38.69" fill="none" stroke="#111" stroke-width="1.6" stroke-linecap="round"/><circle cx="19.74" cy="38.72" r="0.11" fill="none" stroke="#111" stroke-width="1.6"/><circle cx="19.74" cy="47.56" r="0.11" fill="none" stroke="#111" stroke-width="1.6"/><path d="M 20.11 47.6 Q 19.74 47.97 19.37 47.6" fill="none" stroke="#111" stroke-width="1.6" stroke-linecap="round"/><path d="M 19.37 49.83 Q 19.74 49.46 20.11 49.83" fill="none" stroke="#111" stroke-width="1.6" stroke-linecap="round"/><circle cx="19.74" cy="49.87" r="0.11" fill="none" stroke="#111" stroke-width="1.6"/><polyline points="20.11,14.17 20.86,14.17 20.86,11.57 24.57,11.57 24.57,12.31" fill="none" stroke="#111" stroke-width="1.6" stroke-linecap="round" stroke-linejoin="round"/><polyline points="20.11,14.91 17.14,14.91" fill="none" stroke="#111" stroke-width="1.6" stroke-linecap="round" stroke-linejoin="round"/><polyline points="20.11,25.31 20.86,25.31 20.86,22.71 24.57,22.71 24.57,23.46" fill="none" stroke="#111" stroke-width="1.6" stroke-linecap="round" stroke-linejoin="round"/><polyline points="20.11,26.06 17.14,26.06" fill="none" stroke="#111" stroke-width="1.6" stroke-linecap="round" stroke-linejoin="round"/><polyline points="20.11,36.46 20.86,36.46 20.86,33.86 24.57,33.86 24.57,34.6" fill="none" stroke="#111" stroke-width="1.6" stroke-linecap="round" stroke-linejoin="round"/><polyline points="20.11,37.2 17.14,37.2" fill="none" stroke="#111" stroke-width="1.6" stroke-linecap="round" stroke-linejoin="round"/><polyline points="20.11,47.6 20.86,47.6 20.86,45 24.57,45 24.57,45.74" fill="none" stroke="#111" stroke-width="1.6" stroke-linecap="round" stroke-linejoin="round"/><polyline points="20.11,48.34 17.14,48.34" fill="none" stroke="#111" stroke-width="1.6" stroke-linecap="round" stroke-linejoin="round"/><polyline points="20.86,6 20.86,7.67 21.97,7.67" fill="none" stroke="#111" stroke-width="1.6" stroke-linecap="round" stroke-linejoin="round"/><polyline points="23.09,9.16 23.09,9.53 22.71,9.53" fill="none" stroke="#111" stroke-width="1.6" stroke-linecap="round" stroke-linejoin="round"/><polyline points="23.09,9.53 22.34,8.79" fill="none" stroke="#111" stroke-width="1.6" stroke-linecap="round" stroke-linejoin="round"/><polyline points="23.46,6.93 23.46,8.41" fill="none" stroke="#111" stroke-width="1.6" stroke-linecap="round" stroke-linejoin="round"/><polyline points="23.46,7.67 21.97,6.93 21.97,8.41 23.46,7.67" fill="none" stroke="#111" stroke-width="1.6" stroke-linecap="round" stroke-linejoin="round"/><polyline points="23.83,9.16 23.83,9.53 23.46,9.53" fill="none" stroke="#111" stroke-width="1.6" stroke-linecap="round" stroke-linejoin="round"/><polyline points="23.83,9.53 23.09,8.79" fill="none" stroke="#111" stroke-width="1.6" stroke-linecap="round" stroke-linejoin="round"/><circle cx="24.53" cy="12.69" r="0.11" fill="none" stroke="#111" stroke-width="1.6"/><circle cx="24.53" cy="15.66" r="0.11" fill="none" stroke="#111" stroke-width="1.6"/><circle cx="24.53" cy="23.83" r="0.11" fill="none" stroke="#111" stroke-width="1.6"/><circle cx="24.53" cy="26.8" r="0.11" fill="none" stroke="#111" stroke-width="1.6"/><circle cx="24.53" cy="34.97" r="0.11" fill="none" stroke="#111" stroke-width="1.6"/><circle cx="24.53" cy="37.94" r="0.11" fill="none" stroke="#111" stroke-width="1.6"/><circle cx="24.53" cy="46.11" r="0.11" fill="none" stroke="#111" stroke-width="1.6"/><circle cx="24.53" cy="49.09" r="0.11" fill="none" stroke="#111" stroke-width="1.6"/><path d="M 24.57 12.31 Q 24.94 12.69 24.57 13.06" fill="none" stroke="#111" stroke-width="1.6" stroke-linecap="round"/><path d="M 24.57 13.8 Q 24.94 14.17 24.57 14.54" fill="none" stroke="#111" stroke-width="1.6" stroke-linecap="round"/><path d="M 24.57 14.54 Q 24.94 14.91 24.57 15.29" fill="none" stroke="#111" stroke-width="1.6" stroke-linecap="round"/><path d="M 24.57 15.29 Q 24.94 15.66 24.57 16.03" fill="none" stroke="#111" stroke-width="1.6" stroke-linecap="round"/><path d="M 24.57 16.03 Q 24.94 16.4 24.57 16.77" fill="none" stroke="#111" stroke-width="1.6" stroke-linecap="round"/><path d="M 24.57 17.51 Q 24.94 17.89 24.57 18.26" fill="none" stroke="#111" stroke-width="1.6" stroke-linecap="round"/><path d="M 24.57 23.46 Q 24.94 23.83 24.57 24.2" fill="none" stroke="#111" stroke-width="1.6" stroke-linecap="round"/><path d="M 24.57 24.94 Q 24.94 25.31 24.57 25.69" fill="none" stroke="#111" stroke-width="1.6" stroke-linecap="round"/><path d="M 24.57 25.69 Q 24.94 26.06 24.57 26.43" fill="none" stroke="#111" stroke-width="1.6" stroke-linecap="round"/><path d="M 24.57 26.43 Q 24.94 26.8 24.57 27.17" fill="none" stroke="#111" stroke-width="1.6" stroke-linecap="round"/><path d="M 24.57 27.17 Q 24.94 27.54 24.57 27.91" fill="none" stroke="#111" stroke-width="1.6" stroke-linecap="round"/><path d="M 24.57 28.66 Q 24.94 29.03 24.57 29.4" fill="none" stroke="#111" stroke-width="1.6" stroke-linecap="round"/><path d="M 24.57 34.6 Q 24.94 34.97 24.57 35.34" fill="none" stroke="#111" stroke-width="1.6" stroke-linecap="round"/><path d="M 24.57 36.09 Q 24.94 36.46 24.57 36.83" fill="none" stroke="#111" stroke-width="1.6" stroke-linecap="round"/><path d="M 24.57 36.83 Q 24.94 37.2 24.57 37.57" fill="none" stroke="#111" stroke-width="1.6" stroke-linecap="round"/><path d="M 24.57 37.57 Q 24.94 37.94 24.57 38.31" fill="none" stroke="#111" stroke-width="1.6" stroke-linecap="round"/><path d="M 24.57 38.31 Q 24.94 38.69 24.57 39.06" fill="none" stroke="#111" stroke-width="1.6" stroke-linecap="round"/><path d="M 24.57 39.8 Q 24.94 40.17 24.57 40.54" fill="none" stroke="#111" stroke-width="1.6" stroke-linecap="round"/><path d="M 24.57 45.74 Q 24.94 46.11 24.57 46.49" fill="none" stroke="#111" stroke-width="1.6" stroke-linecap="round"/><path d="M 24.57 47.23 Q 24.94 47.6 24.57 47.97" fill="none" stroke="#111" stroke-width="1.6" stroke-linecap="round"/><path d="M 24.57 47.97 Q 24.94 48.34 24.57 48.71" fill="none" stroke="#111" stroke-width="1.6" stroke-linecap="round"/><path d="M 24.57 48.71 Q 24.94 49.09 24.57 49.46" fill="none" stroke="#111" stroke-width="1.6" stroke-linecap="round"/><path d="M 24.57 49.46 Q 24.94 49.83 24.57 50.2" fill="none" stroke="#111" stroke-width="1.6" stroke-linecap="round"/><path d="M 24.57 50.94 Q 24.94 51.31 24.57 51.69" fill="none" stroke="#111" stroke-width="1.6" stroke-linecap="round"/><polyline points="24.57,6 24.57,7.67 23.46,7.67" fill="none" stroke="#111" stroke-width="1.6" stroke-linecap="round" stroke-linejoin="round"/><path d="M 24.57 13.06 Q 24.94 13.43 24.57 13.8" fill="none" stroke="#111" stroke-width="1.6" stroke-linecap="round"/><path d="M 24.57 16.77 Q 24.94 17.14 24.57 17.51" fill="none" stroke="#111" stroke-width="1.6" stroke-linecap="round"/><polyline points="24.57,18.26 24.57,19 20.86,19 20.86,16.4 20.11,16.4" fill="none" stroke="#111" stroke-width="1.6" stroke-linecap="round" stroke-linejoin="round"/><path d="M 24.57 24.2 Q 24.94 24.57 24.57 24.94" fill="none" stroke="#111" stroke-width="1.6" stroke-linecap="round"/><path d="M 24.57 27.91 Q 24.94 28.29 24.57 28.66" fill="none" stroke="#111" stroke-width="1.6" stroke-linecap="round"/><polyline points="24.57,29.4 24.57,30.14 20.86,30.14 20.86,27.54 20.11,27.54" fill="none" stroke="#111" stroke-width="1.6" stroke-linecap="round" stroke-linejoin="round"/><path d="M 24.57 35.34 Q 24.94 35.71 24.57 36.09" fill="none" stroke="#111" stroke-width="1.6" stroke-linecap="round"/><path d="M 24.57 39.06 Q 24.94 39.43 24.57 39.8" fill="none" stroke="#111" stroke-width="1.6" stroke-linecap="round"/><polyline points="24.57,40.54 24.57,41.29 20.86,41.29 20.86,38.69 20.11,38.69" fill="none" stroke="#111" stroke-width="1.6" stroke-linecap="round" stroke-linejoin="round"/><path d="M 24.57 46.49 Q 24.94 46.86 24.57 47.23" fill="none" stroke="#111" stroke-width="1.6" stroke-linecap="round"/><path d="M 24.57 50.2 Q 24.94 50.57 24.57 50.94" fill="none" stroke="#111" stroke-width="1.6" stroke-linecap="round"/><polyline points="24.57,51.69 24.57,52.43 20.86,52.43 20.86,49.83 20.11,49.83" fill="none" stroke="#111" stroke-width="1.6" stroke-linecap="round" stroke-linejoin="round"/><polyline points="25.31,12.31 25.31,18.26" fill="none" stroke="#111" stroke-width="1.6" stroke-linecap="round" stroke-linejoin="round"/><polyline points="25.31,23.46 25.31,29.4" fill="none" stroke="#111" stroke-width="1.6" stroke-linecap="round" stroke-linejoin="round"/><polyline points="25.31,34.6 25.31,40.54" fill="none" stroke="#111" stroke-width="1.6" stroke-linecap="round" stroke-linejoin="round"/><polyline points="25.31,45.74 25.31,51.69" fill="none" stroke="#111" stroke-width="1.6" stroke-linecap="round" stroke-linejoin="round"/><polyline points="25.69,18.26 25.69,12.31" fill="none" stroke="#111" stroke-width="1.6" stroke-linecap="round" stroke-linejoin="round"/><polyline points="25.69,29.4 25.69,23.46" fill="none" stroke="#111" stroke-width="1.6" stroke-linecap="round" stroke-linejoin="round"/><polyline points="25.69,40.54 25.69,34.6" fill="none" stroke="#111" stroke-width="1.6" stroke-linecap="round" stroke-linejoin="round"/><polyline points="25.69,51.69 25.69,45.74" fill="none" stroke="#111" stroke-width="1.6" stroke-linecap="round" stroke-linejoin="round"/><polyline points="26.43,12.31 26.43,11.57 30.14,11.57" fill="none" stroke="#111" stroke-width="1.6" stroke-linecap="round" stroke-linejoin="round"/><path d="M 26.43 13.8 Q 26.06 13.43 26.43 13.06" fill="none" stroke="#111" stroke-width="1.6" stroke-linecap="round"/><path d="M 26.43 17.51 Q 26.06 17.14 26.43 16.77" fill="none" stroke="#111" stroke-width="1.6" stroke-linecap="round"/><polyline points="26.43,18.26 26.43,19 30.14,19" fill="none" stroke="#111" stroke-width="1.6" stroke-linecap="round" stroke-linejoin="round"/><polyline points="26.43,23.46 26.43,22.71 30.14,22.71" fill="none" stroke="#111" stroke-width="1.6" stroke-linecap="round" stroke-linejoin="round"/><path d="M 26.43 24.94 Q 26.06 24.57 26.43 24.2" fill="none" stroke="#111" stroke-width="1.6" stroke-linecap="round"/><path d="M 26.43 28.66 Q 26.06 28.29 26.43 27.91" fill="none" stroke="#111" stroke-width="1.6" stroke-linecap="round"/><polyline points="26.43,29.4 26.43,30.14 30.14,30.14" fill="none" stroke="#111" stroke-width="1.6" stroke-linecap="round" stroke-linejoin="round"/><polyline points="26.43,34.6 26.43,33.86 30.14,33.86" fill="none" stroke="#111" stroke-width="1.6" stroke-linecap="round" stroke-linejoin="round"/><path d="M 26.43 36.09 Q 26.06 35.71 26.43 35.34" fill="none" stroke="#111" stroke-width="1.6" stroke-linecap="round"/><path d="M 26.43 39.8 Q 26.06 39.43 26.43 39.06" fill="none" stroke="#111" stroke-width="1.6" stroke-linecap="round"/><polyline points="26.43,40.54 26.43,41.29 30.14,41.29" fill="none" stroke="#111" stroke-width="1.6" stroke-linecap="round" stroke-linejoin="round"/><polyline points="26.43,45.74 26.43,45 30.14,45" fill="none" stroke="#111" stroke-width="1.6" stroke-linecap="round" stroke-linejoin="round"/><path d="M 26.43 47.23 Q 26.06 46.86 26.43 46.49" fill="none" stroke="#111" stroke-width="1.6" stroke-linecap="round"/><path d="M 26.43 50.94 Q 26.06 50.57 26.43 50.2" fill="none" stroke="#111" stroke-width="1.6" stroke-linecap="round"/><polyline points="26.43,51.69 26.43,52.43 30.14,52.43" fill="none" stroke="#111" stroke-width="1.6" stroke-linecap="round" stroke-linejoin="round"/><path d="M 26.43 13.06 Q 26.06 12.69 26.43 12.31" fill="none" stroke="#111" stroke-width="1.6" stroke-linecap="round"/><path d="M 26.43 14.54 Q 26.06 14.17 26.43 13.8" fill="none" stroke="#111" stroke-width="1.6" stroke-linecap="round"/><path d="M 26.43 15.29 Q 26.06 14.91 26.43 14.54" fill="none" stroke="#111" stroke-width="1.6" stroke-linecap="round"/><path d="M 26.43 16.03 Q 26.06 15.66 26.43 15.29" fill="none" stroke="#111" stroke-width="1.6" stroke-linecap="round"/><path d="M 26.43 16.77 Q 26.06 16.4 26.43 16.03" fill="none" stroke="#111" stroke-width="1.6" stroke-linecap="round"/><path d="M 26.43 18.26 Q 26.06 17.89 26.43 17.51" fill="none" stroke="#111" stroke-width="1.6" stroke-linecap="round"/><path d="M 26.43 24.2 Q 26.06 23.83 26.43 23.46" fill="none" stroke="#111" stroke-width="1.6" stroke-linecap="round"/><path d="M 26.43 25.69 Q 26.06 25.31 26.43 24.94" fill="none" stroke="#111" stroke-width="1.6" stroke-linecap="round"/><path d="M 26.43 26.43 Q 26.06 26.06 26.43 25.69" fill="none" stroke="#111" stroke-width="1.6" stroke-linecap="round"/><path d="M 26.43 27.17 Q 26.06 26.8 26.43 26.43" fill="none" stroke="#111" stroke-width="1.6" stroke-linecap="round"/><path d="M 26.43 27.91 Q 26.06 27.54 26.43 27.17" fill="none" stroke="#111" stroke-width="1.6" stroke-linecap="round"/><path d="M 26.43 29.4 Q 26.06 29.03 26.43 28.66" fill="none" stroke="#111" stroke-width="1.6" stroke-linecap="round"/><path d="M 26.43 35.34 Q 26.06 34.97 26.43 34.6" fill="none" stroke="#111" stroke-width="1.6" stroke-linecap="round"/><path d="M 26.43 36.83 Q 26.06 36.46 26.43 36.09" fill="none" stroke="#111" stroke-width="1.6" stroke-linecap="round"/><path d="M 26.43 37.57 Q 26.06 37.2 26.43 36.83" fill="none" stroke="#111" stroke-width="1.6" stroke-linecap="round"/><path d="M 26.43 38.31 Q 26.06 37.94 26.43 37.57" fill="none" stroke="#111" stroke-width="1.6" stroke-linecap="round"/><path d="M 26.43 39.06 Q 26.06 38.69 26.43 38.31" fill="none" stroke="#111" stroke-width="1.6" stroke-linecap="round"/><path d="M 26.43 40.54 Q 26.06 40.17 26.43 39.8" fill="none" stroke="#111" stroke-width="1.6" stroke-linecap="round"/><path d="M 26.43 46.49 Q 26.06 46.11 26.43 45.74" fill="none" stroke="#111" stroke-width="1.6" stroke-linecap="round"/><path d="M 26.43 47.97 Q 26.06 47.6 26.43 47.23" fill="none" stroke="#111" stroke-width="1.6" stroke-linecap="round"/><path d="M 26.43 48.71 Q 26.06 48.34 26.43 47.97" fill="none" stroke="#111" stroke-width="1.6" stroke-linecap="round"/><path d="M 26.43 49.46 Q 26.06 49.09 26.43 48.71" fill="none" stroke="#111" stroke-width="1.6" stroke-linecap="round"/><path d="M 26.43 50.2 Q 26.06 49.83 26.43 49.46" fill="none" stroke="#111" stroke-width="1.6" stroke-linecap="round"/><path d="M 26.43 51.69 Q 26.06 51.31 26.43 50.94" fill="none" stroke="#111" stroke-width="1.6" stroke-linecap="round"/><circle cx="26.47" cy="12.69" r="0.11" fill="none" stroke="#111" stroke-width="1.6"/><circle cx="26.47" cy="15.66" r="0.11" fill="none" stroke="#111" stroke-width="1.6"/><circle cx="26.47" cy="23.83" r="0.11" fill="none" stroke="#111" stroke-width="1.6"/><circle cx="26.47" cy="26.8" r="0.11" fill="none" stroke="#111" stroke-width="1.6"/><circle cx="26.47" cy="34.97" r="0.11" fill="none" stroke="#111" stroke-width="1.6"/><circle cx="26.47" cy="37.94" r="0.11" fill="none" stroke="#111" stroke-width="1.6"/><circle cx="26.47" cy="46.11" r="0.11" fill="none" stroke="#111" stroke-width="1.6"/><circle cx="26.47" cy="49.09" r="0.11" fill="none" stroke="#111" stroke-width="1.6"/><polyline points="30.14,7.86 28.29,7.86 28.29,48.71 26.43,48.71" fill="none" stroke="#111" stroke-width="1.6" stroke-linecap="round" stroke-linejoin="round"/></svg>