<svg xmlns="http://www.w3.org/2000/svg" width="96" height="64" viewBox="0 0 96 64"><rect x="6" y="6" width="84" height="35.37" fill="none" stroke="#111" stroke-width="1.6"/><polyline points="9.98,22.36 9.98,21.47 14.84,21.47 15.28,21.47" fill="none" stroke="#111" stroke-width="1.6" stroke-linecap="round" stroke-linejoin="round"/><polyline points="9.98,22.36 9.98,21.47 14.84,21.47 15.28,21.47" fill="none" stroke="#111" stroke-width="1.6" stroke-linecap="round" stroke-linejoin="round"/><polyline points="12.63,10.42 12.63,21.47" fill="none" stroke="#111" stroke-width="1.6" stroke-linecap="round" stroke-linejoin="round"/><polyline points="12.63,17.05 12.63,21.47" fill="none" stroke="#111" stroke-width="1.6" stroke-linecap="round" stroke-linejoin="round"/><polyline points="12.63,21.47 12.63,36.95" fill="none" stroke="#111" stroke-width="1.6" stroke-linecap="round" stroke-linejoin="round"/><polyline points="12.63,21.47 14.84,25.89 10.42,25.89 12.63,21.47" fill="none" stroke="#111" stroke-width="1.6" stroke-linecap="round" stroke-linejoin="round"/><polyline points="12.63,21.47 14.84,25.89 10.42,25.89 12.63,21.47" fill="none" stroke="#111" stroke-width="1.6" stroke-linecap="round" stroke-linejoin="round"/><polyline points="17.05,6 17.05,23.68 21.47,23.68" fill="none" stroke="#111" stroke-width="1.6" stroke-linecap="round" stroke-linejoin="round"/><polyline points="18.82,15.73 18.82,14.84 23.68,14.84 24.13,14.84" fill="none" stroke="#111" stroke-width="1.6" stroke-linecap="round" stroke-linejoin="round"/><polyline points="18.82,15.73 18.82,14.84 23.68,14.84 24.13,14.84" fill="none" stroke="#111" stroke-width="1.6" stroke-linecap="round" stroke-linejoin="round"/><polyline points="18.82,28.99 18.82,28.11 23.68,28.11 24.13,28.11" fill="none" stroke="#111" stroke-width="1.6" stroke-linecap="round" stroke-linejoin="round"/><polyline points="18.82,28.99 18.82,28.11 23.68,28.11 24.13,28.11" fill="none" stroke="#111" stroke-width="1.6" stroke-linecap="round" stroke-linejoin="round"/><circle cx="21.47" cy="10.42" r="0.88" fill="none" stroke="#111" stroke-width="1.6"/><polyline points="21.47,10.42 21.47,14.84" fill="none" stroke="#111" stroke-width="1.6" stroke-linecap="round" stroke-linejoin="round"/><polyline points="21.47,10.42 21.47,14.84" fill="none" stroke="#111" stroke-width="1.6" stroke-linecap="round" stroke-linejoin="round"/><polyline points="21.47,14.84 21.47,28.11" fill="none" stroke="#111" stroke-width="1.6" stroke-linecap="round" stroke-linejoin="round"/><polyline points="21.47,14.84 23.68,19.26 19.26,19.26 21.47,14.84" fill="none" stroke="#111" stroke-width="1.6" stroke-linecap="round" stroke-linejoin="round"/><polyline points="21.47,14.84 23.68,19.26 19.26,19.26 21.47,14.84" fill="none" stroke="#111" stroke-width="1.6" stroke-linecap="round" stroke-linejoin="round"/><circle cx="21.47" cy="23.68" r="0.88" fill="none" stroke="#111" stroke-width="1.6"/><polyline points="21.47,23.68 21.47,28.11" fill="none" stroke="#111" stroke-width="1.6" stroke-linecap="round" stroke-linejoin="round"/><polyline points="21.47,28.11 21.47,36.95 30.32,36.95" fill="none" stroke="#111" stroke-width="1.6" stroke-linecap="round" stroke-linejoin="round"/><polyline points="21.47,28.11 23.68,32.53 19.26,32.53 21.47,28.11" fill="none" stroke="#111" stroke-width="1.6" stroke-linecap="round" stroke-linejoin="round"/><polyline points="21.47,28.11 23.68,32.53 19.26,32.53 21.47,28.11" fill="none" stroke="#111" stroke-width="1.6" stroke-linecap="round" stroke-linejoin="round"/><circle cx="21.47" cy="36.95" r="0.88" fill="none" stroke="#111" stroke-width="1.6"/><polyline points="21.47,36.95 12.63,36.95" fill="none" stroke="#111" stroke-width="1.6" stroke-linecap="round" stroke-linejoin="round"/><polyline points="25.89,6 25.89,23.68 30.32,23.68" fill="none" stroke="#111" stroke-width="1.6" stroke-linecap="round" stroke-linejoin="round"/><polyline points="27.66,15.73 27.66,14.84 32.53,14.84 32.97,14.84" fill="none" stroke="#111" stroke-width="1.6" stroke-linecap="round" stroke-linejoin="round"/><polyline points="27.66,15.73 27.66,14.84 32.53,14.84 32.97,14.84" fill="none" stroke="#111" stroke-width="1.6" stroke-linecap="round" stroke-linejoin="round"/><polyline points="27.66,28.99 27.66,28.11 32.53,28.11 32.97,28.11" fill="none" stroke="#111" stroke-width="1.6" stroke-linecap="round" stroke-linejoin="round"/><polyline points="27.66,28.99 27.66,28.11 32.53,28.11 32.97,28.11" fill="none" stroke="#111" stroke-width="1.6" stroke-linecap="round" stroke-linejoin="round"/><circle cx="30.32" cy="10.42" r="0.88" fill="none" stroke="#111" stroke-width="1.6"/><polyline points="30.32,10.42 30.32,14.84" fill="none" stroke="#111" stroke-width="1.6" stroke-linecap="round" stroke-linejoin="round"/><polyline points="30.32,10.42 30.32,14.84" fill="none" stroke="#111" stroke-width="1.6" stroke-linecap="round" stroke-linejoin="round"/><polyline points="30.32,14.84 30.32,28.11" fill="none" stroke="#111" stroke-width="1.6" stroke-linecap="round" stroke-linejoin="round"/><polyline points="30.32,14.84 32.53,19.26 28.11,19.26 30.32,14.84" fill="none" stroke="#111" stroke-width="1.6" stroke-linecap="round" stroke-linejoin="round"/><polyline points="30.32,14.84 32.53,19.26 28.11,19.26 30.32,14.84" fill="none" stroke="#111" stroke-width="1.6" stroke-linecap="round" stroke-linejoin="round"/><circle cx="30.32" cy="23.68" r="0.88" fill="none" stroke="#111" stroke-width="1.6"/><polyline points="30.32,23.68 30.32,28.11" fill="none" stroke="#111" stroke-width="1.6" stroke-linecap="round" stroke-linejoin="round"/><polyline points="30.32,28.11 30.32,36.95 39.16,36.95" fill="none" stroke="#111" stroke-width="1.6" stroke-linecap="round" stroke-linejoin="round"/><polyline points="30.32,28.11 32.53,32.53 28.11,32.53 30.32,28.11" fill="none" stroke="#111" stroke-width="1.6" stroke-linecap="round" stroke-linejoin="round"/><polyline points="30.32,28.11 32.53,32.53 28.11,32.53 30.32,28.11" fill="none" stroke="#111" stroke-width="1.6" stroke-linecap="round" stroke-linejoin="round"/><circle cx="30.32" cy="36.95" r="0.88" fill="none" stroke="#111" stroke-width="1.6"/><polyline points="34.74,6 34.74,23.68 39.16,23.68" fill="none" stroke="#111" stroke-width="1.6" stroke-linecap="round" stroke-linejoin="round"/><polyline points="36.51,15.73 36.51,14.84 41.37,14.84 41.81,14.84" fill="none" stroke="#111" stroke-width="1.6" stroke-linecap="round" stroke-linejoin="round"/><polyline points="36.51,15.73 36.51,14.84 41.37,14.84 41.81,14.84" fill="none" stroke="#111" stroke-width="1.6" stroke-linecap="round" stroke-linejoin="round"/><polyline points="36.51,28.99 36.51,28.11 41.37,28.11 41.81,28.11" fill="none" stroke="#111" stroke-width="1.6" stroke-linecap="round" stroke-linejoin="round"/><polyline points="36.51,28.99 36.51,28.11 41.37,28.11 41.81,28.11" fill="none" stroke="#111" stroke-width="1.6" stroke-linecap="round" stroke-linejoin="round"/><circle cx="39.16" cy="10.42" r="0.88" fill="none" stroke="#111" stroke-width="1.6"/><polyline points="39.16,10.42 39.16,14.84" fill="none" stroke="#111" stroke-width="1.6" stroke-linecap="round" stroke-linejoin="round"/><polyline points="39.16,10.42 39.16,14.84" fill="none" stroke="#111" stroke-width="1.6" stroke-linecap="round" stroke-linejoin="round"/><polyline points="39.16,14.84 39.16,28.11" fill="none" stroke="#111" stroke-width="1.6" stroke-linecap="round" stroke-linejoin="round"/><polyline points="39.16,14.84 41.37,19.26 36.95,19.26 39.16,14.84" fill="none" stroke="#111" stroke-width="1.6" stroke-linecap="round" stroke-linejoin="round"/><polyline points="39.16,14.84 41.37,19.26 36.95,19.26 39.16,14.84" fill="none" stroke="#111" stroke-width="1.6" stroke-linecap="round" stroke-linejoin="round"/><circle cx="39.16" cy="23.68" r="0.88" fill="none" stroke="#111" stroke-width="1.6"/><polyline points="39.16,23.68 39.16,28.11" fill="none" stroke="#111" stroke-width="1.6" stroke-linecap="round" stroke-linejoin="round"/><polyline points="39.16,28.11 39.16,36.95 56.84,36.95 56.84,28.11" fill="none" stroke="#111" stroke-width="1.6" stroke-linecap="round" stroke-linejoin="round"/><polyline points="39.16,28.11 39.16,36.95 56.84,36.95 56.84,28.11" fill="none" stroke="#111" stroke-width="1.6" stroke-linecap="round" stroke-linejoin="round"/><polyline points="39.16,28.11 41.37,32.53 36.95,32.53 39.16,28.11" fill="none" stroke="#111" stroke-width="1.6" stroke-linecap="round" stroke-linejoin="round"/><polyline points="39.16,28.11 41.37,32.53 36.95,32.53 39.16,28.11" fill="none" stroke="#111" stroke-width="1.6" stroke-linecap="round" stroke-linejoin="round"/><circle cx="39.16" cy="36.95" r="0.88" fill="none" stroke="#111" stroke-width="1.6"/><polyline points="43.58,6 43.58,23.68 48,23.68" fill="none" stroke="#111" stroke-width="1.6" stroke-linecap="round" stroke-linejoin="round"/><circle cx="43.58" cy="36.95" r="0.88" fill="none" stroke="#111" stroke-width="1.6"/><polyline points="43.58,41.37 43.58,36.95" fill="none" stroke="#111" stroke-width="1.6" stroke-linecap="round" stroke-linejoin="round"/><polyline points="48,10.42 48,14.84" fill="none" stroke="#111" stroke-width="1.6" stroke-linecap="round" stroke-linejoin="round"/><circle cx="48" cy="10.42" r="0.88" fill="none" stroke="#111" stroke-width="1.6"/><circle cx="48" cy="23.68" r="0.88" fill="none" stroke="#111" stroke-width="1.6"/><polyline points="48,36.95 48,14.84" fill="none" stroke="#111" stroke-width="1.6" stroke-linecap="round" stroke-linejoin="round"/><circle cx="48" cy="36.95" r="0.88" fill="none" stroke="#111" stroke-width="1.6"/><polyline points="50.21,14.84 50.65,14.84" fill="none" stroke="#111" stroke-width="1.6" stroke-linecap="round" stroke-linejoin="round"/><polyline points="50.21,14.84 45.35,14.84 45.35,15.73" fill="none" stroke="#111" stroke-width="1.6" stroke-linecap="round" stroke-linejoin="round"/><polyline points="50.21,19.26 45.79,19.26 48,14.84 50.21,19.26" fill="none" stroke="#111" stroke-width="1.6" stroke-linecap="round" stroke-linejoin="round"/><polyline points="50.21,28.11 50.65,28.11" fill="none" stroke="#111" stroke-width="1.6" stroke-linecap="round" stroke-linejoin="round"/><polyline points="50.21,28.11 45.35,28.11 45.35,28.99" fill="none" stroke="#111" stroke-width="1.6" stroke-linecap="round" stroke-linejoin="round"/><polyline points="50.21,32.53 45.79,32.53 48,28.11 50.21,32.53" fill="none" stroke="#111" stroke-width="1.6" stroke-linecap="round" stroke-linejoin="round"/><polyline points="52.42,6 52.42,23.68 56.84,23.68" fill="none" stroke="#111" stroke-width="1.6" stroke-linecap="round" stroke-linejoin="round"/><polyline points="54.19,15.73 54.19,14.84 59.05,14.84 59.49,14.84" fill="none" stroke="#111" stroke-width="1.6" stroke-linecap="round" stroke-linejoin="round"/><polyline points="54.19,15.73 54.19,14.84 59.05,14.84 59.49,14.84" fill="none" stroke="#111" stroke-width="1.6" stroke-linecap="round" stroke-linejoin="round"/><polyline points="54.19,28.99 54.19,28.11 59.05,28.11 59.49,28.11" fill="none" stroke="#111" stroke-width="1.6" stroke-linecap="round" stroke-linejoin="round"/><polyline points="54.19,28.99 54.19,28.11 59.05,28.11 59.49,28.11" fill="none" stroke="#111" stroke-width="1.6" stroke-linecap="round" stroke-linejoin="round"/><polyline points="56.84,10.42 56.84,14.84" fill="none" stroke="#111" stroke-width="1.6" stroke-linecap="round" stroke-linejoin="round"/><circle cx="56.84" cy="10.42" r="0.88" fill="none" stroke="#111" stroke-width="1.6"/><polyline points="56.84,14.84 56.84,28.11" fill="none" stroke="#111" stroke-width="1.6" stroke-linecap="round" stroke-linejoin="round"/><polyline points="56.84,14.84 54.63,19.26 59.05,19.26 56.84,14.84" fill="none" stroke="#111" stroke-width="1.6" stroke-linecap="round" stroke-linejoin="round"/><polyline points="56.84,14.84 54.63,19.26 59.05,19.26 56.84,14.84" fill="none" stroke="#111" stroke-width="1.6" stroke-linecap="round" stroke-linejoin="round"/><circle cx="56.84" cy="23.68" r="0.88" fill="none" stroke="#111" stroke-width="1.6"/><polyline points="56.84,28.11 54.63,32.53 59.05,32.53 56.84,28.11" fill="none" stroke="#111" stroke-width="1.6" stroke-linecap="round" stroke-linejoin="round"/><polyline points="56.84,28.11 54.63,32.53 59.05,32.53 56.84,28.11" fill="none" stroke="#111" stroke-width="1.6" stroke-linecap="round" stroke-linejoin="round"/><circle cx="56.84" cy="36.95" r="0.88" fill="none" stroke="#111" stroke-width="1.6"/><polyline points="61.26,6 61.26,23.68 65.68,23.68" fill="none" stroke="#111" stroke-width="1.6" stroke-linecap="round" stroke-linejoin="round"/><polyline points="63.03,15.73 63.03,14.84 67.89,14.84 68.34,14.84" fill="none" stroke="#111" stroke-width="1.6" stroke-linecap="round" stroke-linejoin="round"/><polyline points="63.03,15.73 63.03,14.84 67.89,14.84 68.34,14.84" fill="none" stroke="#111" stroke-width="1.6" stroke-linecap="round" stroke-linejoin="round"/><polyline points="63.03,28.99 63.03,28.11 67.89,28.11 68.34,28.11" fill="none" stroke="#111" stroke-width="1.6" stroke-linecap="round" stroke-linejoin="round"/><polyline points="63.03,28.99 63.03,28.11 67.89,28.11 68.34,28.11" fill="none" stroke="#111" stroke-width="1.6" stroke-linecap="round" stroke-linejoin="round"/><polyline points="65.68,10.42 65.68,14.84" fill="none" stroke="#111" stroke-width="1.6" stroke-linecap="round" stroke-linejoin="round"/><polyline points="65.68,10.42 65.68,14.84" fill="none" stroke="#111" stroke-width="1.6" stroke-linecap="round" stroke-linejoin="round"/><circle cx="65.68" cy="10.42" r="0.88" fill="none" stroke="#111" stroke-width="1.6"/><polyline points="65.68,14.84 65.68,28.11" fill="none" stroke="#111" stroke-width="1.6" stroke-linecap="round" stroke-linejoin="round"/><polyline points="65.68,14.84 63.47,19.26 67.89,19.26 65.68,14.84" fill="none" stroke="#111" stroke-width="1.6" stroke-linecap="round" stroke-linejoin="round"/><polyline points="65.68,14.84 63.47,19.26 67.89,19.26 65.68,14.84" fill="none" stroke="#111" stroke-width="1.6" stroke-linecap="round" stroke-linejoin="round"/><circle cx="65.68" cy="23.68" r="0.88" fill="none" stroke="#111" stroke-width="1.6"/><polyline points="65.68,28.11 65.68,36.95 56.84,36.95" fill="none" stroke="#111" stroke-width="1.6" stroke-linecap="round" stroke-linejoin="round"/><polyline points="65.68,28.11 65.68,36.95 56.84,36.95" fill="none" stroke="#111" stroke-width="1.6" stroke-linecap="round" stroke-linejoin="round"/><polyline points="65.68,28.11 63.47,32.53 67.89,32.53 65.68,28.11" fill="none" stroke="#111" stroke-width="1.6" stroke-linecap="round" stroke-linejoin="round"/><polyline points="65.68,28.11 63.47,32.53 67.89,32.53 65.68,28.11" fill="none" stroke="#111" stroke-width="1.6" stroke-linecap="round" stroke-linejoin="round"/><circle cx="65.68" cy="36.95" r="0.88" fill="none" stroke="#111" stroke-width="1.6"/><polyline points="70.11,6 70.11,23.68 74.53,23.68" fill="none" stroke="#111" stroke-width="1.6" stroke-linecap="round" stroke-linejoin="round"/><polyline points="71.87,15.73 71.87,14.84 76.74,14.84 77.18,14.84" fill="none" stroke="#111" stroke-width="1.6" stroke-linecap="round" stroke-linejoin="round"/><polyline points="71.87,15.73 71.87,14.84 76.74,14.84 77.18,14.84" fill="none" stroke="#111" stroke-width="1.6" stroke-linecap="round" stroke-linejoin="round"/><polyline points="71.87,28.99 71.87,28.11 76.74,28.11 77.18,28.11" fill="none" stroke="#111" stroke-width="1.6" stroke-linecap="round" stroke-linejoin="round"/><polyline points="71.87,28.99 71.87,28.11 76.74,28.11 77.18,28.11" fill="none" stroke="#111" stroke-width="1.6" stroke-linecap="round" stroke-linejoin="round"/><polyline points="74.53,10.42 74.53,14.84" fill="none" stroke="#111" stroke-width="1.6" stroke-linecap="round" stroke-linejoin="round"/><polyline points="74.53,10.42 74.53,14.84" fill="none" stroke="#111" stroke-width="1.6" stroke-linecap="round" stroke-linejoin="round"/><circle cx="74.53" cy="10.42" r="0.88" fill="none" stroke="#111" stroke-width="1.6"/><polyline points="74.53,14.84 74.53,28.11" fill="none" stroke="#111" stroke-width="1.6" stroke-linecap="round" stroke-linejoin="round"/><polyline points="74.53,14.84 72.32,19.26 76.74,19.26 74.53,14.84" fill="none" stroke="#111" stroke-width="1.6" stroke-linecap="round" stroke-linejoin="round"/><polyline points="74.53,14.84 72.32,19.26 76.74,19.26 74.53,14.84" fill="none" stroke="#111" stroke-width="1.6" stroke-linecap="round" stroke-linejoin="round"/><circle cx="74.53" cy="23.68" r="0.88" fill="none" stroke="#111" stroke-width="1.6"/><polyline points="74.53,28.11 74.53,36.95 65.68,36.95" fill="none" stroke="#111" stroke-width="1.6" stroke-linecap="round" stroke-linejoin="round"/><polyline points="74.53,28.11 74.53,36.95 65.68,36.95" fill="none" stroke="#111" stroke-width="1.6" stroke-linecap="round" stroke-linejoin="round"/><polyline points="74.53,28.11 72.32,32.53 76.74,32.53 74.53,28.11" fill="none" stroke="#111" stroke-width="1.6" stroke-linecap="round" stroke-linejoin="round"/><polyline points="74.53,28.11 72.32,32.53 76.74,32.53 74.53,28.11" fill="none" stroke="#111" stroke-width="1.6" stroke-linecap="round" stroke-linejoin="round"/><circle cx="74.53" cy="36.95" r="0.88" fill="none" stroke="#111" stroke-width="1.6"/><polyline points="78.95,6 78.95,23.68 83.37,23.68" fill="none" stroke="#111" stroke-width="1.6" stroke-linecap="round" stroke-linejoin="round"/><polyline points="80.72,15.73 80.72,14.84 85.58,14.84 86.02,14.84" fill="none" stroke="#111" stroke-width="1.6" stroke-linecap="round" stroke-linejoin="round"/><polyline points="80.72,15.73 80.72,14.84 85.58,14.84 86.02,14.84" fill="none" stroke="#111" stroke-width="1.6" stroke-linecap="round" stroke-linejoin="round"/><polyline points="80.72,28.99 80.72,28.11 85.58,28.11 86.02,28.11" fill="none" stroke="#111" stroke-width="1.6" stroke-linecap="round" stroke-linejoin="round"/><polyline points="80.72,28.99 80.72,28.11 85.58,28.11 86.02,28.11" fill="none" stroke="#111" stroke-width="1.6" stroke-linecap="round" stroke-linejoin="round"/><polyline points="83.37,10.42 12.63,10.42" fill="none" stroke="#111" stroke-width="1.6" stroke-linecap="round" stroke-linejoin="round"/><polyline points="83.37,10.42 83.37,14.84" fill="none" stroke="#111" stroke-width="1.6" stroke-linecap="round" stroke-linejoin="round"/><polyline points="83.37,10.42 83.37,14.84" fill="none" stroke="#111" stroke-width="1.6" stroke-linecap="round" stroke-linejoin="round"/><polyline points="83.37,14.84 83.37,28.11" fill="none" stroke="#111" stroke-width="1.6" stroke-linecap="round" stroke-linejoin="round"/><polyline points="83.37,14.84 81.16,19.26 85.58,19.26 83.37,14.84" fill="none" stroke="#111" stroke-width="1.6" stroke-linecap="round" stroke-linejoin="round"/><polyline points="83.37,14.84 81.16,19.26 85.58,19.26 83.37,14.84" fill="none" stroke="#111" stroke-width="1.6" stroke-linecap="round" stroke-linejoin="round"/><circle cx="83.37" cy="23.68" r="0.88" fill="none" stroke="#111" stroke-width="1.6"/><polyline points="83.37,28.11 83.37,36.95 74.53,36.95" fill="none" stroke="#111" stroke-width="1.6" stroke-linecap="round" stroke-linejoin="round"/><polyline points="83.37,28.11 83.37,36.95 74.53,36.95" fill="none" stroke="#111" stroke-width="1.6" stroke-linecap="round" stroke-linejoin="round"/><polyline points="83.37,28.11 81.16,32.53 85.58,32.53 83.37,28.11" fill="none" stroke="#111" stroke-width="1.6" stroke-linecap="round" stroke-linejoin="round"/><polyline points="83.37,28.11 81.16,32.53 85.58,32.53 83.37,28.11" fill="none" stroke="#111" stroke-width="1.6" stroke-linecap="round" stroke-linejoin="round"/></svg>