<svg xmlns="http://www.w3.org/2000/svg" width="96" height="64" viewBox="0 0 96 64"><rect x="6" y="6" width="22.29" height="52" fill="none" stroke="#111" stroke-width="1.6"/><polyline points="14.91,37.57 11.76,37.57" fill="none" stroke="#111" stroke-width="1.6" stroke-linecap="round" stroke-linejoin="round"/><polyline points="14.91,41.29 11.76,41.29" fill="none" stroke="#111" stroke-width="1.6" stroke-linecap="round" stroke-linejoin="round"/><polyline points="14.91,45 11.76,45" fill="none" stroke="#111" stroke-width="1.6" stroke-linecap="round" stroke-linejoin="round"/><polyline points="14.91,48.71 11.76,48.71" fill="none" stroke="#111" stroke-width="1.6" stroke-linecap="round" stroke-linejoin="round"/><polyline points="14.91,52.43 11.76,52.43" fill="none" stroke="#111" stroke-width="1.6" stroke-linecap="round" stroke-linejoin="round"/><polyline points="15.1,21.32 15.1,24.11 17.89,22.71 15.1,21.32" fill="none" stroke="#111" stroke-width="1.6" stroke-linecap="round" stroke-linejoin="round"/><polyline points="15.1,22.71 11.94,22.71" fill="none" stroke="#111" stroke-width="1.6" stroke-linecap="round" stroke-linejoin="round"/><polyline points="15.1,25.04 15.1,27.82 17.89,26.43 15.1,25.04" fill="none" stroke="#111" stroke-width="1.6" stroke-linecap="round" stroke-linejoin="round"/><polyline points="15.1,26.43 11.85,26.43" fill="none" stroke="#111" stroke-width="1.6" stroke-linecap="round" stroke-linejoin="round"/><polyline points="15.1,28.75 15.1,31.54 17.89,30.14 15.1,28.75" fill="none" stroke="#111" stroke-width="1.6" stroke-linecap="round" stroke-linejoin="round"/><polyline points="15.1,30.14 11.85,30.14" fill="none" stroke="#111" stroke-width="1.6" stroke-linecap="round" stroke-linejoin="round"/><polyline points="15.1,32.46 15.1,35.25 17.89,33.86 15.1,32.46" fill="none" stroke="#111" stroke-width="1.6" stroke-linecap="round" stroke-linejoin="round"/><polyline points="15.1,33.86 11.85,33.86" fill="none" stroke="#111" stroke-width="1.6" stroke-linecap="round" stroke-linejoin="round"/><circle cx="15.47" cy="37.57" r="0.46" fill="none" stroke="#111" stroke-width="1.6"/><circle cx="15.47" cy="41.29" r="0.46" fill="none" stroke="#111" stroke-width="1.6"/><circle cx="15.47" cy="45" r="0.46" fill="none" stroke="#111" stroke-width="1.6"/><circle cx="15.47" cy="48.71" r="0.46" fill="none" stroke="#111" stroke-width="1.6"/><circle cx="15.47" cy="52.43" r="0.46" fill="none" stroke="#111" stroke-width="1.6"/><circle cx="18.35" cy="22.71" r="0.46" fill="none" stroke="#111" stroke-width="1.6"/><circle cx="18.35" cy="26.43" r="0.46" fill="none" stroke="#111" stroke-width="1.6"/><circle cx="18.35" cy="30.14" r="0.46" fill="none" stroke="#111" stroke-width="1.6"/><circle cx="18.35" cy="33.86" r="0.46" fill="none" stroke="#111" stroke-width="1.6"/><polyline points="18.72,36.18 18.72,38.96 15.94,37.57 18.72,36.18" fill="none" stroke="#111" stroke-width="1.6" stroke-linecap="round" stroke-linejoin="round"/><polyline points="18.72,37.57 21.97,37.57" fill="none" stroke="#111" stroke-width="1.6" stroke-linecap="round" stroke-linejoin="round"/><polyline points="18.72,39.89 18.72,42.68 15.94,41.29 18.72,39.89" fill="none" stroke="#111" stroke-width="1.6" stroke-linecap="round" stroke-linejoin="round"/><polyline points="18.72,41.29 21.97,41.29" fill="none" stroke="#111" stroke-width="1.6" stroke-linecap="round" stroke-linejoin="round"/><polyline points="18.72,43.61 18.72,46.39 15.94,45 18.72,43.61" fill="none" stroke="#111" stroke-width="1.6" stroke-linecap="round" stroke-linejoin="round"/><polyline points="18.72,45 21.97,45" fill="none" stroke="#111" stroke-width="1.6" stroke-linecap="round" stroke-linejoin="round"/><polyline points="18.72,47.32 18.72,50.11 15.94,48.71 18.72,47.32" fill="none" stroke="#111" stroke-width="1.6" stroke-linecap="round" stroke-linejoin="round"/><polyline points="18.72,48.71 21.97,48.71" fill="none" stroke="#111" stroke-width="1.6" stroke-linecap="round" stroke-linejoin="round"/><polyline points="18.72,51.04 18.72,53.82 15.94,52.43 18.72,51.04" fill="none" stroke="#111" stroke-width="1.6" stroke-linecap="round" stroke-linejoin="round"/><polyline points="18.72,52.43 21.97,52.43" fill="none" stroke="#111" stroke-width="1.6" stroke-linecap="round" stroke-linejoin="round"/><polyline points="21.97,22.71 18.81,22.71" fill="none" stroke="#111" stroke-width="1.6" stroke-linecap="round" stroke-linejoin="round"/><polyline points="21.97,26.43 18.81,26.43" fill="none" stroke="#111" stroke-width="1.6" stroke-linecap="round" stroke-linejoin="round"/><polyline points="21.97,30.14 18.81,30.14" fill="none" stroke="#111" stroke-width="1.6" stroke-linecap="round" stroke-linejoin="round"/><polyline points="21.97,33.86 18.81,33.86" fill="none" stroke="#111" stroke-width="1.6" stroke-linecap="round" stroke-linejoin="round"/></svg>