<svg xmlns="http://www.w3.org/2000/svg" width="96" height="64" viewBox="0 0 96 64"><polyline points="6,12.93 14.67,12.93 14.67,21.6 12.93,21.6 12.93,23.33 12.93,23.33" fill="none" stroke="#111" stroke-width="1.6" stroke-linecap="round" stroke-linejoin="round"/><rect x="6" y="23.33" width="17.33" height="6.94" fill="none" stroke="#111" stroke-width="1.6"/><rect x="6" y="30.27" width="17.33" height="3.46" fill="none" stroke="#111" stroke-width="1.6"/><rect x="6" y="33.73" width="17.33" height="3.47" fill="none" stroke="#111" stroke-width="1.6"/><rect x="6" y="37.2" width="17.33" height="3.47" fill="none" stroke="#111" stroke-width="1.6"/><rect x="6" y="40.67" width="17.33" height="3.46" fill="none" stroke="#111" stroke-width="1.6"/><rect x="6" y="44.13" width="17.33" height="3.47" fill="none" stroke="#111" stroke-width="1.6"/><rect x="6" y="47.6" width="17.33" height="3.47" fill="none" stroke="#111" stroke-width="1.6"/><rect x="6" y="51.07" width="0" height="0" fill="none" stroke="#111" stroke-width="1.6"/><rect x="6" y="51.07" width="17.33" height="6.93" fill="none" stroke="#111" stroke-width="1.6"/><polyline points="7.73,23.33 7.73,21.6 6,21.6 6,6 23.33,6 23.33,21.6 21.6,21.6 21.6,23.33 21.6,23.33" fill="none" stroke="#111" stroke-width="1.6" stroke-linecap="round" stroke-linejoin="round"/><polyline points="8.77,15.71 9.81,16.75 8.77,17.79 8.77,17.79" fill="none" stroke="#111" stroke-width="1.6" stroke-linecap="round" stroke-linejoin="round"/><polyline points="8.77,18.13 9.81,17.09 9.81,17.09" fill="none" stroke="#111" stroke-width="1.6" stroke-linecap="round" stroke-linejoin="round"/><polyline points="14.67,14.67 16.4,16.4 14.67,18.13 14.67,18.13" fill="none" stroke="#111" stroke-width="1.6" stroke-linecap="round" stroke-linejoin="round"/></svg>