<svg xmlns="http://www.w3.org/2000/svg" width="96" height="64" viewBox="0 0 96 64"><rect x="6" y="6" width="84" height="21" fill="none" stroke="#111" stroke-width="1.6"/><rect x="7.68" y="11.46" width="5.04" height="13.44" fill="none" stroke="#111" stroke-width="1.6"/><circle cx="10.2" cy="8.94" r="0.84" fill="none" stroke="#111" stroke-width="1.6"/><polyline points="10.2,11.46 10.2,8.94 18.6,8.94 18.6,11.46" fill="none" stroke="#111" stroke-width="1.6" stroke-linecap="round" stroke-linejoin="round"/><polyline points="10.2,24.9 10.2,29.1" fill="none" stroke="#111" stroke-width="1.6" stroke-linecap="round" stroke-linejoin="round"/><rect x="16.08" y="11.46" width="5.04" height="13.44" fill="none" stroke="#111" stroke-width="1.6"/><circle cx="18.6" cy="8.94" r="0.84" fill="none" stroke="#111" stroke-width="1.6"/><polyline points="18.6,11.46 18.6,8.94 27,8.94 27,11.46" fill="none" stroke="#111" stroke-width="1.6" stroke-linecap="round" stroke-linejoin="round"/><polyline points="18.6,24.9 18.6,29.1" fill="none" stroke="#111" stroke-width="1.6" stroke-linecap="round" stroke-linejoin="round"/><rect x="24.48" y="11.46" width="5.04" height="13.44" fill="none" stroke="#111" stroke-width="1.6"/><circle cx="27" cy="8.94" r="0.84" fill="none" stroke="#111" stroke-width="1.6"/><polyline points="27,11.46 27,8.94 35.4,8.94 35.4,11.46" fill="none" stroke="#111" stroke-width="1.6" stroke-linecap="round" stroke-linejoin="round"/><polyline points="27,24.9 27,29.1" fill="none" stroke="#111" stroke-width="1.6" stroke-linecap="round" stroke-linejoin="round"/><rect x="32.88" y="11.46" width="5.04" height="13.44" fill="none" stroke="#111" stroke-width="1.6"/><circle cx="35.4" cy="8.94" r="0.84" fill="none" stroke="#111" stroke-width="1.6"/><polyline points="35.4,11.46 35.4,8.94 43.8,8.94 43.8,11.46" fill="none" stroke="#111" stroke-width="1.6" stroke-linecap="round" stroke-linejoin="round"/><polyline points="35.4,24.9 35.4,29.1" fill="none" stroke="#111" stroke-width="1.6" stroke-linecap="round" stroke-linejoin="round"/><rect x="41.28" y="11.46" width="5.04" height="13.44" fill="none" stroke="#111" stroke-width="1.6"/><circle cx="43.8" cy="8.94" r="0.84" fill="none" stroke="#111" stroke-width="1.6"/><polyline points="43.8,11.46 43.8,8.94 52.2,8.94 52.2,11.46" fill="none" stroke="#111" stroke-width="1.6" stroke-linecap="round" stroke-linejoin="round"/><polyline points="43.8,24.9 43.8,29.1" fill="none" stroke="#111" stroke-width="1.6" stroke-linecap="round" stroke-linejoin="round"/><rect x="49.68" y="11.46" width="5.04" height="13.44" fill="none" stroke="#111" stroke-width="1.6"/><circle cx="52.2" cy="8.94" r="0.84" fill="none" stroke="#111" stroke-width="1.6"/><polyline points="52.2,11.46 52.2,8.94 60.6,8.94 60.6,11.46" fill="none" stroke="#111" stroke-width="1.6" stroke-linecap="round" stroke-linejoin="round"/><polyline points="52.2,24.9 52.2,29.1" fill="none" stroke="#111" stroke-width="1.6" stroke-linecap="round" stroke-linejoin="round"/><rect x="58.08" y="11.46" width="5.04" height="13.44" fill="none" stroke="#111" stroke-width="1.6"/><circle cx="60.6" cy="8.94" r="0.84" fill="none" stroke="#111" stroke-width="1.6"/><polyline points="60.6,11.46 60.6,8.94 69,8.94 69,11.46" fill="none" stroke="#111" stroke-width="1.6" stroke-linecap="round" stroke-linejoin="round"/><polyline points="60.6,24.9 60.6,29.1" fill="none" stroke="#111" stroke-width="1.6" stroke-linecap="round" stroke-linejoin="round"/><rect x="66.48" y="11.46" width="5.04" height="13.44" fill="none" stroke="#111" stroke-width="1.6"/><circle cx="69" cy="8.94" r="0.84" fill="none" stroke="#111" stroke-width="1.6"/><polyline points="69,11.46 69,8.94 77.4,8.94 77.4,11.46" fill="none" stroke="#111" stroke-width="1.6" stroke-linecap="round" stroke-linejoin="round"/><polyline points="69,24.9 69,29.1" fill="none" stroke="#111" stroke-width="1.6" stroke-linecap="round" stroke-linejoin="round"/><rect x="74.88" y="11.46" width="5.04" height="13.44" fill="none" stroke="#111" stroke-width="1.6"/><circle cx="77.4" cy="8.94" r="0.84" fill="none" stroke="#111" stroke-width="1.6"/><polyline points="77.4,11.46 77.4,8.94 85.8,8.94 85.8,11.46" fill="none" stroke="#111" stroke-width="1.6" stroke-linecap="round" stroke-linejoin="round"/><polyline points="77.4,24.9 77.4,29.1" fill="none" stroke="#111" stroke-width="1.6" stroke-linecap="round" stroke-linejoin="round"/><rect x="83.28" y="11.46" width="5.04" height="13.44" fill="none" stroke="#111" stroke-width="1.6"/><polyline points="85.8,24.9 85.8,29.1" fill="none" stroke="#111" stroke-width="1.6" stroke-linecap="round" stroke-linejoin="round"/></svg>