<svg xmlns="http://www.w3.org/2000/svg" width="96" height="64" viewBox="0 0 96 64"><polyline points="6,50.39 6,55.67 48.28,55.67" fill="none" stroke="#111" stroke-width="1.6" stroke-linecap="round" stroke-linejoin="round"/><polyline points="29.25,13.4 29.25,45.11" fill="none" stroke="#111" stroke-width="1.6" stroke-linecap="round" stroke-linejoin="round"/><polyline points="29.25,29.25 6,29.25" fill="none" stroke="#111" stroke-width="1.6" stroke-linecap="round" stroke-linejoin="round"/><polyline points="33.48,10.23 33.48,18.68" fill="none" stroke="#111" stroke-width="1.6" stroke-linecap="round" stroke-linejoin="round"/><polyline points="33.48,25.02 33.48,33.48" fill="none" stroke="#111" stroke-width="1.6" stroke-linecap="round" stroke-linejoin="round"/><polyline points="33.48,39.82 33.48,48.28" fill="none" stroke="#111" stroke-width="1.6" stroke-linecap="round" stroke-linejoin="round"/><polyline points="33.48,44.05 54.62,44.05 54.62,14.46 33.48,14.46" fill="none" stroke="#111" stroke-width="1.6" stroke-linecap="round" stroke-linejoin="round"/><polyline points="35.59,29.25 44.05,26.08 44.05,32.42 35.59,29.25" fill="none" stroke="#111" stroke-width="1.6" stroke-linecap="round" stroke-linejoin="round"/><circle cx="40.88" cy="29.25" r="23.25" fill="none" stroke="#111" stroke-width="1.6"/><polyline points="48.28,8.11 48.28,14.46" fill="none" stroke="#111" stroke-width="1.6" stroke-linecap="round" stroke-linejoin="round"/><circle cx="48.28" cy="14.46" r="2.11" fill="none" stroke="#111" stroke-width="1.6"/><circle cx="48.28" cy="44.05" r="2.11" fill="none" stroke="#111" stroke-width="1.6"/><polyline points="48.28,50.39 48.28,29.25 33.48,29.25" fill="none" stroke="#111" stroke-width="1.6" stroke-linecap="round" stroke-linejoin="round"/><circle cx="48.28" cy="55.67" r="2.33" fill="none" stroke="#111" stroke-width="1.6"/><polyline points="50.39,25.02 51.45,26.08 57.79,26.08 58.85,27.14" fill="none" stroke="#111" stroke-width="1.6" stroke-linecap="round" stroke-linejoin="round"/><polyline points="54.62,26.08 51.45,31.37 57.79,31.37 54.62,26.08" fill="none" stroke="#111" stroke-width="1.6" stroke-linecap="round" stroke-linejoin="round"/></svg>