<svg xmlns="http://www.w3.org/2000/svg" width="96" height="64" viewBox="0 0 96 64"><path d="M 10.33 16.83 Q 14.49 32 10.33 47.17" fill="none" stroke="#111" stroke-width="1.6" stroke-linecap="round"/><polyline points="10.33,16.83 21.17,16.83" fill="none" stroke="#111" stroke-width="1.6" stroke-linecap="round" stroke-linejoin="round"/><polyline points="10.33,47.17 21.17,47.17" fill="none" stroke="#111" stroke-width="1.6" stroke-linecap="round" stroke-linejoin="round"/><path d="M 21.25 16.83 Q 30.91 22.31 36.33 32" fill="none" stroke="#111" stroke-width="1.6" stroke-linecap="round"/><path d="M 36.33 32 Q 30.92 41.7 21.25 47.17" fill="none" stroke="#111" stroke-width="1.6" stroke-linecap="round"/><polyline points="21.17,16.83 10.33,16.83 10.33,16.83 10.94,18.05 12.76,22.03 13.89,26.28 14.41,30.53 14.32,34.95 13.54,39.19 12.24,43.35 10.33,47.17 10.33,47.17 21.17,47.17" fill="none" stroke="#111" stroke-width="1.6" stroke-linecap="round" stroke-linejoin="round"/><path d="M 21.17 16.83 Q 36.27 32 21.17 47.17" fill="none" stroke="#111" stroke-width="1.6" stroke-linecap="round"/><polyline points="21.17,16.83 10.33,16.83 10.33,47.17 21.17,47.17" fill="none" stroke="#111" stroke-width="1.6" stroke-linecap="round" stroke-linejoin="round"/><path d="M 10.33 16.83 Q 14.49 32 10.33 47.17" fill="none" stroke="#111" stroke-width="1.6" stroke-linecap="round"/><polyline points="10.33,16.83 21.17,16.83" fill="none" stroke="#111" stroke-width="1.6" stroke-linecap="round" stroke-linejoin="round"/><polyline points="10.33,47.17 21.17,47.17" fill="none" stroke="#111" stroke-width="1.6" stroke-linecap="round" stroke-linejoin="round"/><path d="M 21.25 16.83 Q 30.91 22.31 36.33 32" fill="none" stroke="#111" stroke-width="1.6" stroke-linecap="round"/><path d="M 36.33 32 Q 30.92 41.7 21.25 47.17" fill="none" stroke="#111" stroke-width="1.6" stroke-linecap="round"/><polyline points="21.17,16.83 10.33,16.83 10.33,16.83 10.94,18.05 12.76,22.03 13.89,26.28 14.41,30.53 14.32,34.95 13.54,39.19 12.24,43.35 10.33,47.17 10.33,47.17 21.17,47.17" fill="none" stroke="#111" stroke-width="1.6" stroke-linecap="round" stroke-linejoin="round"/><path d="M 21.17 16.83 Q 36.27 32 21.17 47.17" fill="none" stroke="#111" stroke-width="1.6" stroke-linecap="round"/><polyline points="21.17,16.83 10.33,16.83 10.33,47.17 21.17,47.17" fill="none" stroke="#111" stroke-width="1.6" stroke-linecap="round" stroke-linejoin="round"/><rect x="6" y="6" width="34.67" height="52" fill="none" stroke="#111" stroke-width="1.6"/></svg>