<svg xmlns="http://www.w3.org/2000/svg" width="96" height="64" viewBox="0 0 96 64"><polyline points="12.5,15.29 16.59,15.29 18.44,16.21 18.44,32.19 16.59,33.11 12.5,33.11 12.5,15.29" fill="none" stroke="#111" stroke-width="1.6" stroke-linecap="round" stroke-linejoin="round"/><rect x="6" y="6" width="14.86" height="52" fill="none" stroke="#111" stroke-width="1.6"/><rect x="13.61" y="20.49" width="0.75" height="0.74" fill="none" stroke="#111" stroke-width="1.6"/><rect x="13.61" y="21.97" width="0.75" height="0.74" fill="none" stroke="#111" stroke-width="1.6"/><rect x="13.61" y="23.46" width="0.75" height="0.74" fill="none" stroke="#111" stroke-width="1.6"/><rect x="13.61" y="24.94" width="0.75" height="0.75" fill="none" stroke="#111" stroke-width="1.6"/><rect x="13.61" y="26.43" width="0.75" height="0.74" fill="none" stroke="#111" stroke-width="1.6"/><rect x="13.61" y="27.91" width="0.75" height="0.75" fill="none" stroke="#111" stroke-width="1.6"/><rect x="13.61" y="29.4" width="0.75" height="0.74" fill="none" stroke="#111" stroke-width="1.6"/><rect x="13.61" y="30.89" width="0.75" height="0.74" fill="none" stroke="#111" stroke-width="1.6"/><polyline points="14.17,17.89 16.77,17.89" fill="none" stroke="#111" stroke-width="1.6" stroke-linecap="round" stroke-linejoin="round"/><rect x="14.36" y="16.77" width="0.74" height="0.74" fill="none" stroke="#111" stroke-width="1.6"/><rect x="14.36" y="18.26" width="0.74" height="0.74" fill="none" stroke="#111" stroke-width="1.6"/><rect x="15.1" y="20.49" width="0.74" height="0.74" fill="none" stroke="#111" stroke-width="1.6"/><rect x="15.1" y="21.97" width="0.74" height="0.74" fill="none" stroke="#111" stroke-width="1.6"/><rect x="15.1" y="23.46" width="0.74" height="0.74" fill="none" stroke="#111" stroke-width="1.6"/><rect x="15.1" y="24.94" width="0.74" height="0.75" fill="none" stroke="#111" stroke-width="1.6"/><rect x="15.1" y="26.43" width="0.74" height="0.74" fill="none" stroke="#111" stroke-width="1.6"/><rect x="15.1" y="27.91" width="0.74" height="0.75" fill="none" stroke="#111" stroke-width="1.6"/><rect x="15.1" y="29.4" width="0.74" height="0.74" fill="none" stroke="#111" stroke-width="1.6"/><rect x="15.1" y="30.89" width="0.74" height="0.74" fill="none" stroke="#111" stroke-width="1.6"/><polyline points="15.47,16.59 15.47,19.19" fill="none" stroke="#111" stroke-width="1.6" stroke-linecap="round" stroke-linejoin="round"/><rect x="15.84" y="16.77" width="0.75" height="0.74" fill="none" stroke="#111" stroke-width="1.6"/><rect x="15.84" y="18.26" width="0.75" height="0.74" fill="none" stroke="#111" stroke-width="1.6"/><rect x="16.59" y="20.49" width="0.74" height="0.74" fill="none" stroke="#111" stroke-width="1.6"/><rect x="16.59" y="21.97" width="0.74" height="0.74" fill="none" stroke="#111" stroke-width="1.6"/><rect x="16.59" y="23.46" width="0.74" height="0.74" fill="none" stroke="#111" stroke-width="1.6"/><rect x="16.59" y="24.94" width="0.74" height="0.75" fill="none" stroke="#111" stroke-width="1.6"/><rect x="16.59" y="26.43" width="0.74" height="0.74" fill="none" stroke="#111" stroke-width="1.6"/><rect x="16.59" y="27.91" width="0.74" height="0.75" fill="none" stroke="#111" stroke-width="1.6"/><rect x="16.59" y="29.4" width="0.74" height="0.74" fill="none" stroke="#111" stroke-width="1.6"/><rect x="16.59" y="30.89" width="0.74" height="0.74" fill="none" stroke="#111" stroke-width="1.6"/></svg>