<svg xmlns="http://www.w3.org/2000/svg" width="96" height="64" viewBox="0 0 96 64"><rect x="6" y="6" width="19.5" height="52" fill="none" stroke="#111" stroke-width="1.6"/><polyline points="16.56,12.5 16.56,17.38 24.69,17.38 24.69,12.5 25.5,12.5" fill="none" stroke="#111" stroke-width="1.6" stroke-linecap="round" stroke-linejoin="round"/><polyline points="16.56,25.5 16.56,30.38 24.69,30.38 24.69,25.5 25.5,25.5" fill="none" stroke="#111" stroke-width="1.6" stroke-linecap="round" stroke-linejoin="round"/><polyline points="16.56,38.5 16.56,43.38 24.69,43.38 24.69,38.5 25.5,38.5" fill="none" stroke="#111" stroke-width="1.6" stroke-linecap="round" stroke-linejoin="round"/><polyline points="16.56,51.5 16.56,56.38 24.69,56.38 24.69,51.5 25.5,51.5" fill="none" stroke="#111" stroke-width="1.6" stroke-linecap="round" stroke-linejoin="round"/><polyline points="19,9.25 19,10.87" fill="none" stroke="#111" stroke-width="1.6" stroke-linecap="round" stroke-linejoin="round"/><polyline points="19,14.12 19,15.75" fill="none" stroke="#111" stroke-width="1.6" stroke-linecap="round" stroke-linejoin="round"/><polyline points="19,22.25 19,23.88" fill="none" stroke="#111" stroke-width="1.6" stroke-linecap="round" stroke-linejoin="round"/><polyline points="19,27.12 19,28.75" fill="none" stroke="#111" stroke-width="1.6" stroke-linecap="round" stroke-linejoin="round"/><polyline points="19,35.25 19,36.88" fill="none" stroke="#111" stroke-width="1.6" stroke-linecap="round" stroke-linejoin="round"/><polyline points="19,40.12 19,41.75" fill="none" stroke="#111" stroke-width="1.6" stroke-linecap="round" stroke-linejoin="round"/><polyline points="19,48.25 19,49.88" fill="none" stroke="#111" stroke-width="1.6" stroke-linecap="round" stroke-linejoin="round"/><polyline points="19,53.12 19,54.75" fill="none" stroke="#111" stroke-width="1.6" stroke-linecap="round" stroke-linejoin="round"/><polyline points="23.87,10.87 23.87,9.25" fill="none" stroke="#111" stroke-width="1.6" stroke-linecap="round" stroke-linejoin="round"/><polyline points="23.87,15.75 23.87,14.12" fill="none" stroke="#111" stroke-width="1.6" stroke-linecap="round" stroke-linejoin="round"/><polyline points="23.87,23.88 23.87,22.25" fill="none" stroke="#111" stroke-width="1.6" stroke-linecap="round" stroke-linejoin="round"/><polyline points="23.87,28.75 23.87,27.12" fill="none" stroke="#111" stroke-width="1.6" stroke-linecap="round" stroke-linejoin="round"/><polyline points="23.87,36.88 23.87,35.25" fill="none" stroke="#111" stroke-width="1.6" stroke-linecap="round" stroke-linejoin="round"/><polyline points="23.87,41.75 23.87,40.12" fill="none" stroke="#111" stroke-width="1.6" stroke-linecap="round" stroke-linejoin="round"/><polyline points="23.87,49.88 23.87,48.25" fill="none" stroke="#111" stroke-width="1.6" stroke-linecap="round" stroke-linejoin="round"/><polyline points="23.87,54.75 23.87,53.12" fill="none" stroke="#111" stroke-width="1.6" stroke-linecap="round" stroke-linejoin="round"/><polyline points="6,9.25 7.62,9.25" fill="none" stroke="#111" stroke-width="1.6" stroke-linecap="round" stroke-linejoin="round"/><polyline points="6,12.5 7.62,12.5" fill="none" stroke="#111" stroke-width="1.6" stroke-linecap="round" stroke-linejoin="round"/><polyline points="6,15.75 7.62,15.75" fill="none" stroke="#111" stroke-width="1.6" stroke-linecap="round" stroke-linejoin="round"/><polyline points="6,22.25 7.62,22.25" fill="none" stroke="#111" stroke-width="1.6" stroke-linecap="round" stroke-linejoin="round"/><polyline points="6,25.5 7.62,25.5" fill="none" stroke="#111" stroke-width="1.6" stroke-linecap="round" stroke-linejoin="round"/><polyline points="6,28.75 7.62,28.75" fill="none" stroke="#111" stroke-width="1.6" stroke-linecap="round" stroke-linejoin="round"/><polyline points="6,35.25 7.62,35.25" fill="none" stroke="#111" stroke-width="1.6" stroke-linecap="round" stroke-linejoin="round"/><polyline points="6,38.5 7.62,38.5" fill="none" stroke="#111" stroke-width="1.6" stroke-linecap="round" stroke-linejoin="round"/><polyline points="6,41.75 7.62,41.75" fill="none" stroke="#111" stroke-width="1.6" stroke-linecap="round" stroke-linejoin="round"/><polyline points="6,48.25 7.62,48.25" fill="none" stroke="#111" stroke-width="1.6" stroke-linecap="round" stroke-linejoin="round"/><polyline points="6,51.5 7.62,51.5" fill="none" stroke="#111" stroke-width="1.6" stroke-linecap="round" stroke-linejoin="round"/><polyline points="6,54.75 7.62,54.75" fill="none" stroke="#111" stroke-width="1.6" stroke-linecap="round" stroke-linejoin="round"/><polyline points="7.62,9.25 9.25,9.25" fill="none" stroke="#111" stroke-width="1.6" stroke-linecap="round" stroke-linejoin="round"/><polyline points="7.62,12.5 9.25,12.5" fill="none" stroke="#111" stroke-width="1.6" stroke-linecap="round" stroke-linejoin="round"/><polyline points="7.62,15.75 9.25,15.75" fill="none" stroke="#111" stroke-width="1.6" stroke-linecap="round" stroke-linejoin="round"/><polyline points="7.62,22.25 9.25,22.25" fill="none" stroke="#111" stroke-width="1.6" stroke-linecap="round" stroke-linejoin="round"/><polyline points="7.62,25.5 9.25,25.5" fill="none" stroke="#111" stroke-width="1.6" stroke-linecap="round" stroke-linejoin="round"/><polyline points="7.62,28.75 9.25,28.75" fill="none" stroke="#111" stroke-width="1.6" stroke-linecap="round" stroke-linejoin="round"/><polyline points="7.62,35.25 9.25,35.25" fill="none" stroke="#111" stroke-width="1.6" stroke-linecap="round" stroke-linejoin="round"/><polyline points="7.62,38.5 9.25,38.5" fill="none" stroke="#111" stroke-width="1.6" stroke-linecap="round" stroke-linejoin="round"/><polyline points="7.62,41.75 9.25,41.75" fill="none" stroke="#111" stroke-width="1.6" stroke-linecap="round" stroke-linejoin="round"/><polyline points="7.62,48.25 9.25,48.25" fill="none" stroke="#111" stroke-width="1.6" stroke-linecap="round" stroke-linejoin="round"/><polyline points="7.62,51.5 9.25,51.5" fill="none" stroke="#111" stroke-width="1.6" stroke-linecap="round" stroke-linejoin="round"/><polyline points="7.62,54.75 9.25,54.75" fill="none" stroke="#111" stroke-width="1.6" stroke-linecap="round" stroke-linejoin="round"/><path d="M 9.25 9.25 Q 10.06 10.06 9.25 10.87" fill="none" stroke="#111" stroke-width="1.6" stroke-linecap="round"/><path d="M 9.25 10.87 Q 10.06 11.69 9.25 12.5" fill="none" stroke="#111" stroke-width="1.6" stroke-linecap="round"/><path d="M 9.25 12.5 Q 10.06 13.31 9.25 14.12" fill="none" stroke="#111" stroke-width="1.6" stroke-linecap="round"/><path d="M 9.25 14.12 Q 10.06 14.94 9.25 15.75" fill="none" stroke="#111" stroke-width="1.6" stroke-linecap="round"/><path d="M 9.25 22.25 Q 10.06 23.06 9.25 23.88" fill="none" stroke="#111" stroke-width="1.6" stroke-linecap="round"/><path d="M 9.25 23.88 Q 10.06 24.69 9.25 25.5" fill="none" stroke="#111" stroke-width="1.6" stroke-linecap="round"/><path d="M 9.25 25.5 Q 10.06 26.31 9.25 27.12" fill="none" stroke="#111" stroke-width="1.6" stroke-linecap="round"/><path d="M 9.25 27.12 Q 10.06 27.94 9.25 28.75" fill="none" stroke="#111" stroke-width="1.6" stroke-linecap="round"/><path d="M 9.25 35.25 Q 10.06 36.06 9.25 36.88" fill="none" stroke="#111" stroke-width="1.6" stroke-linecap="round"/><path d="M 9.25 36.88 Q 10.06 37.69 9.25 38.5" fill="none" stroke="#111" stroke-width="1.6" stroke-linecap="round"/><path d="M 9.25 38.5 Q 10.06 39.31 9.25 40.12" fill="none" stroke="#111" stroke-width="1.6" stroke-linecap="round"/><path d="M 9.25 40.12 Q 10.06 40.94 9.25 41.75" fill="none" stroke="#111" stroke-width="1.6" stroke-linecap="round"/><path d="M 9.25 48.25 Q 10.06 49.06 9.25 49.88" fill="none" stroke="#111" stroke-width="1.6" stroke-linecap="round"/><path d="M 9.25 49.88 Q 10.06 50.69 9.25 51.5" fill="none" stroke="#111" stroke-width="1.6" stroke-linecap="round"/><path d="M 9.25 51.5 Q 10.06 52.31 9.25 53.12" fill="none" stroke="#111" stroke-width="1.6" stroke-linecap="round"/><path d="M 9.25 53.12 Q 10.06 53.94 9.25 54.75" fill="none" stroke="#111" stroke-width="1.6" stroke-linecap="round"/><circle cx="9.25" cy="10.06" r="0.16" fill="none" stroke="#111" stroke-width="1.6"/><circle cx="9.25" cy="13.31" r="0.16" fill="none" stroke="#111" stroke-width="1.6"/><circle cx="9.25" cy="23.06" r="0.16" fill="none" stroke="#111" stroke-width="1.6"/><circle cx="9.25" cy="26.31" r="0.16" fill="none" stroke="#111" stroke-width="1.6"/><circle cx="9.25" cy="36.06" r="0.16" fill="none" stroke="#111" stroke-width="1.6"/><circle cx="9.25" cy="39.31" r="0.16" fill="none" stroke="#111" stroke-width="1.6"/><circle cx="9.25" cy="49.06" r="0.16" fill="none" stroke="#111" stroke-width="1.6"/><circle cx="9.25" cy="52.31" r="0.16" fill="none" stroke="#111" stroke-width="1.6"/><polyline points="10.88,14.94 10.88,10.06" fill="none" stroke="#111" stroke-width="1.6" stroke-linecap="round" stroke-linejoin="round"/><polyline points="10.88,27.94 10.88,23.06" fill="none" stroke="#111" stroke-width="1.6" stroke-linecap="round" stroke-linejoin="round"/><polyline points="10.88,40.94 10.88,36.06" fill="none" stroke="#111" stroke-width="1.6" stroke-linecap="round" stroke-linejoin="round"/><polyline points="10.88,53.94 10.88,49.06" fill="none" stroke="#111" stroke-width="1.6" stroke-linecap="round" stroke-linejoin="round"/><polyline points="11.69,14.94 11.69,10.06" fill="none" stroke="#111" stroke-width="1.6" stroke-linecap="round" stroke-linejoin="round"/><polyline points="11.69,27.94 11.69,23.06" fill="none" stroke="#111" stroke-width="1.6" stroke-linecap="round" stroke-linejoin="round"/><polyline points="11.69,40.94 11.69,36.06" fill="none" stroke="#111" stroke-width="1.6" stroke-linecap="round" stroke-linejoin="round"/><polyline points="11.69,53.94 11.69,49.06" fill="none" stroke="#111" stroke-width="1.6" stroke-linecap="round" stroke-linejoin="round"/><circle cx="13.15" cy="10.06" r="0.16" fill="none" stroke="#111" stroke-width="1.6"/><circle cx="13.15" cy="13.31" r="0.16" fill="none" stroke="#111" stroke-width="1.6"/><circle cx="13.15" cy="23.06" r="0.16" fill="none" stroke="#111" stroke-width="1.6"/><circle cx="13.15" cy="26.31" r="0.16" fill="none" stroke="#111" stroke-width="1.6"/><circle cx="13.15" cy="36.06" r="0.16" fill="none" stroke="#111" stroke-width="1.6"/><circle cx="13.15" cy="39.31" r="0.16" fill="none" stroke="#111" stroke-width="1.6"/><circle cx="13.15" cy="49.06" r="0.16" fill="none" stroke="#111" stroke-width="1.6"/><circle cx="13.15" cy="52.31" r="0.16" fill="none" stroke="#111" stroke-width="1.6"/><path d="M 13.31 10.87 Q 12.5 10.06 13.31 9.25" fill="none" stroke="#111" stroke-width="1.6" stroke-linecap="round"/><path d="M 13.31 12.5 Q 12.5 11.69 13.31 10.87" fill="none" stroke="#111" stroke-width="1.6" stroke-linecap="round"/><path d="M 13.31 14.12 Q 12.5 13.31 13.31 12.5" fill="none" stroke="#111" stroke-width="1.6" stroke-linecap="round"/><path d="M 13.31 15.75 Q 12.5 14.94 13.31 14.12" fill="none" stroke="#111" stroke-width="1.6" stroke-linecap="round"/><path d="M 13.31 23.88 Q 12.5 23.06 13.31 22.25" fill="none" stroke="#111" stroke-width="1.6" stroke-linecap="round"/><path d="M 13.31 25.5 Q 12.5 24.69 13.31 23.88" fill="none" stroke="#111" stroke-width="1.6" stroke-linecap="round"/><path d="M 13.31 27.12 Q 12.5 26.31 13.31 25.5" fill="none" stroke="#111" stroke-width="1.6" stroke-linecap="round"/><path d="M 13.31 28.75 Q 12.5 27.94 13.31 27.12" fill="none" stroke="#111" stroke-width="1.6" stroke-linecap="round"/><path d="M 13.31 36.88 Q 12.5 36.06 13.31 35.25" fill="none" stroke="#111" stroke-width="1.6" stroke-linecap="round"/><path d="M 13.31 38.5 Q 12.5 37.69 13.31 36.88" fill="none" stroke="#111" stroke-width="1.6" stroke-linecap="round"/><path d="M 13.31 40.12 Q 12.5 39.31 13.31 38.5" fill="none" stroke="#111" stroke-width="1.6" stroke-linecap="round"/><path d="M 13.31 41.75 Q 12.5 40.94 13.31 40.12" fill="none" stroke="#111" stroke-width="1.6" stroke-linecap="round"/><path d="M 13.31 49.88 Q 12.5 49.06 13.31 48.25" fill="none" stroke="#111" stroke-width="1.6" stroke-linecap="round"/><path d="M 13.31 51.5 Q 12.5 50.69 13.31 49.88" fill="none" stroke="#111" stroke-width="1.6" stroke-linecap="round"/><path d="M 13.31 53.12 Q 12.5 52.31 13.31 51.5" fill="none" stroke="#111" stroke-width="1.6" stroke-linecap="round"/><path d="M 13.31 54.75 Q 12.5 53.94 13.31 53.12" fill="none" stroke="#111" stroke-width="1.6" stroke-linecap="round"/><polyline points="16.56,12.5 13.31,12.5" fill="none" stroke="#111" stroke-width="1.6" stroke-linecap="round" stroke-linejoin="round"/><polyline points="16.56,25.5 13.31,25.5" fill="none" stroke="#111" stroke-width="1.6" stroke-linecap="round" stroke-linejoin="round"/><polyline points="16.56,38.5 13.31,38.5" fill="none" stroke="#111" stroke-width="1.6" stroke-linecap="round" stroke-linejoin="round"/><polyline points="16.56,51.5 13.31,51.5" fill="none" stroke="#111" stroke-width="1.6" stroke-linecap="round" stroke-linejoin="round"/><polyline points="19,9.25 13.31,9.25" fill="none" stroke="#111" stroke-width="1.6" stroke-linecap="round" stroke-linejoin="round"/><polyline points="19,15.75 13.31,15.75" fill="none" stroke="#111" stroke-width="1.6" stroke-linecap="round" stroke-linejoin="round"/><polyline points="19,22.25 13.31,22.25" fill="none" stroke="#111" stroke-width="1.6" stroke-linecap="round" stroke-linejoin="round"/><polyline points="19,28.75 13.31,28.75" fill="none" stroke="#111" stroke-width="1.6" stroke-linecap="round" stroke-linejoin="round"/><polyline points="19,35.25 13.31,35.25" fill="none" stroke="#111" stroke-width="1.6" stroke-linecap="round" stroke-linejoin="round"/><polyline points="19,41.75 13.31,41.75" fill="none" stroke="#111" stroke-width="1.6" stroke-linecap="round" stroke-linejoin="round"/><polyline points="19,48.25 13.31,48.25" fill="none" stroke="#111" stroke-width="1.6" stroke-linecap="round" stroke-linejoin="round"/><polyline points="19,54.75 13.31,54.75" fill="none" stroke="#111" stroke-width="1.6" stroke-linecap="round" stroke-linejoin="round"/><path d="M 20.62 10.87 Q 19.81 11.68 19 10.87" fill="none" stroke="#111" stroke-width="1.6" stroke-linecap="round"/><circle cx="19.81" cy="10.87" r="0.16" fill="none" stroke="#111" stroke-width="1.6"/><circle cx="19.81" cy="14.12" r="0.16" fill="none" stroke="#111" stroke-width="1.6"/><path d="M 19 14.12 Q 19.81 13.32 20.62 14.12" fill="none" stroke="#111" stroke-width="1.6" stroke-linecap="round"/><path d="M 20.62 23.88 Q 19.81 24.68 19 23.88" fill="none" stroke="#111" stroke-width="1.6" stroke-linecap="round"/><circle cx="19.81" cy="23.88" r="0.16" fill="none" stroke="#111" stroke-width="1.6"/><circle cx="19.81" cy="27.12" r="0.16" fill="none" stroke="#111" stroke-width="1.6"/><path d="M 19 27.12 Q 19.81 26.32 20.62 27.12" fill="none" stroke="#111" stroke-width="1.6" stroke-linecap="round"/><path d="M 20.62 36.88 Q 19.81 37.68 19 36.88" fill="none" stroke="#111" stroke-width="1.6" stroke-linecap="round"/><circle cx="19.81" cy="36.88" r="0.16" fill="none" stroke="#111" stroke-width="1.6"/><circle cx="19.81" cy="40.12" r="0.16" fill="none" stroke="#111" stroke-width="1.6"/><path d="M 19 40.12 Q 19.81 39.32 20.62 40.12" fill="none" stroke="#111" stroke-width="1.6" stroke-linecap="round"/><path d="M 20.62 49.88 Q 19.81 50.68 19 49.88" fill="none" stroke="#111" stroke-width="1.6" stroke-linecap="round"/><circle cx="19.81" cy="49.88" r="0.16" fill="none" stroke="#111" stroke-width="1.6"/><circle cx="19.81" cy="53.12" r="0.16" fill="none" stroke="#111" stroke-width="1.6"/><path d="M 19 53.12 Q 19.81 52.32 20.62 53.12" fill="none" stroke="#111" stroke-width="1.6" stroke-linecap="round"/><path d="M 22.25 10.87 Q 21.44 11.68 20.62 10.87" fill="none" stroke="#111" stroke-width="1.6" stroke-linecap="round"/><path d="M 20.62 14.12 Q 21.44 13.32 22.25 14.12" fill="none" stroke="#111" stroke-width="1.6" stroke-linecap="round"/><path d="M 22.25 23.88 Q 21.44 24.68 20.62 23.88" fill="none" stroke="#111" stroke-width="1.6" stroke-linecap="round"/><path d="M 20.62 27.12 Q 21.44 26.32 22.25 27.12" fill="none" stroke="#111" stroke-width="1.6" stroke-linecap="round"/><path d="M 22.25 36.88 Q 21.44 37.68 20.62 36.88" fill="none" stroke="#111" stroke-width="1.6" stroke-linecap="round"/><path d="M 20.62 40.12 Q 21.44 39.32 22.25 40.12" fill="none" stroke="#111" stroke-width="1.6" stroke-linecap="round"/><path d="M 22.25 49.88 Q 21.44 50.68 20.62 49.88" fill="none" stroke="#111" stroke-width="1.6" stroke-linecap="round"/><path d="M 20.62 53.12 Q 21.44 52.32 22.25 53.12" fill="none" stroke="#111" stroke-width="1.6" stroke-linecap="round"/><path d="M 23.87 10.87 Q 23.06 11.68 22.25 10.87" fill="none" stroke="#111" stroke-width="1.6" stroke-linecap="round"/><polyline points="23.06,12.18 19.81,12.18" fill="none" stroke="#111" stroke-width="1.6" stroke-linecap="round" stroke-linejoin="round"/><polyline points="23.06,12.82 19.81,12.82" fill="none" stroke="#111" stroke-width="1.6" stroke-linecap="round" stroke-linejoin="round"/><path d="M 22.25 14.12 Q 23.06 13.32 23.87 14.12" fill="none" stroke="#111" stroke-width="1.6" stroke-linecap="round"/><path d="M 23.87 23.88 Q 23.06 24.68 22.25 23.88" fill="none" stroke="#111" stroke-width="1.6" stroke-linecap="round"/><polyline points="23.06,25.18 19.81,25.18" fill="none" stroke="#111" stroke-width="1.6" stroke-linecap="round" stroke-linejoin="round"/><polyline points="23.06,25.82 19.81,25.82" fill="none" stroke="#111" stroke-width="1.6" stroke-linecap="round" stroke-linejoin="round"/><path d="M 22.25 27.12 Q 23.06 26.32 23.87 27.12" fill="none" stroke="#111" stroke-width="1.6" stroke-linecap="round"/><path d="M 23.87 36.88 Q 23.06 37.68 22.25 36.88" fill="none" stroke="#111" stroke-width="1.6" stroke-linecap="round"/><polyline points="23.06,38.17 19.81,38.17" fill="none" stroke="#111" stroke-width="1.6" stroke-linecap="round" stroke-linejoin="round"/><polyline points="23.06,38.82 19.81,38.82" fill="none" stroke="#111" stroke-width="1.6" stroke-linecap="round" stroke-linejoin="round"/><path d="M 22.25 40.12 Q 23.06 39.32 23.87 40.12" fill="none" stroke="#111" stroke-width="1.6" stroke-linecap="round"/><path d="M 23.87 49.88 Q 23.06 50.68 22.25 49.88" fill="none" stroke="#111" stroke-width="1.6" stroke-linecap="round"/><polyline points="23.06,51.17 19.81,51.17" fill="none" stroke="#111" stroke-width="1.6" stroke-linecap="round" stroke-linejoin="round"/><polyline points="23.06,51.82 19.81,51.82" fill="none" stroke="#111" stroke-width="1.6" stroke-linecap="round" stroke-linejoin="round"/><path d="M 22.25 53.12 Q 23.06 52.32 23.87 53.12" fill="none" stroke="#111" stroke-width="1.6" stroke-linecap="round"/><polyline points="25.5,9.25 23.87,9.25" fill="none" stroke="#111" stroke-width="1.6" stroke-linecap="round" stroke-linejoin="round"/><polyline points="25.5,15.75 23.87,15.75" fill="none" stroke="#111" stroke-width="1.6" stroke-linecap="round" stroke-linejoin="round"/><polyline points="25.5,22.25 23.87,22.25" fill="none" stroke="#111" stroke-width="1.6" stroke-linecap="round" stroke-linejoin="round"/><polyline points="25.5,28.75 23.87,28.75" fill="none" stroke="#111" stroke-width="1.6" stroke-linecap="round" stroke-linejoin="round"/><polyline points="25.5,35.25 23.87,35.25" fill="none" stroke="#111" stroke-width="1.6" stroke-linecap="round" stroke-linejoin="round"/><polyline points="25.5,41.75 23.87,41.75" fill="none" stroke="#111" stroke-width="1.6" stroke-linecap="round" stroke-linejoin="round"/><polyline points="25.5,48.25 23.87,48.25" fill="none" stroke="#111" stroke-width="1.6" stroke-linecap="round" stroke-linejoin="round"/><polyline points="25.5,54.75 23.87,54.75" fill="none" stroke="#111" stroke-width="1.6" stroke-linecap="round" stroke-linejoin="round"/></svg>