<svg xmlns="http://www.w3.org/2000/svg" width="96" height="64" viewBox="0 0 96 64"><polyline points="30.62,49.08 30.62,26 38.31,41.38 46,26 46,49.08" fill="none" stroke="#111" stroke-width="1.6" stroke-linecap="round" stroke-linejoin="round"/><circle cx="7.54" cy="7.54" r="0" fill="none" stroke="#111" stroke-width="1.6"/><circle cx="7.54" cy="7.54" r="1.54" fill="none" stroke="#111" stroke-width="1.6"/><polyline points="7.54,7.54 7.54,38.31 11.38,38.31" fill="none" stroke="#111" stroke-width="1.6" stroke-linecap="round" stroke-linejoin="round"/><polyline points="7.54,22.92 11.38,22.92" fill="none" stroke="#111" stroke-width="1.6" stroke-linecap="round" stroke-linejoin="round"/><polyline points="7.54,53.69 11.38,53.69" fill="none" stroke="#111" stroke-width="1.6" stroke-linecap="round" stroke-linejoin="round"/><path d="M 11.38 22.92 Q 15.21 26.77 11.38 30.62" fill="none" stroke="#111" stroke-width="1.6" stroke-linecap="round"/><path d="M 11.38 30.62 Q 15.21 34.46 11.38 38.31" fill="none" stroke="#111" stroke-width="1.6" stroke-linecap="round"/><path d="M 11.38 38.31 Q 15.21 42.15 11.38 46" fill="none" stroke="#111" stroke-width="1.6" stroke-linecap="round"/><path d="M 11.38 46 Q 15.21 49.85 11.38 53.69" fill="none" stroke="#111" stroke-width="1.6" stroke-linecap="round"/><polyline points="22.92,11.38 22.92,7.54" fill="none" stroke="#111" stroke-width="1.6" stroke-linecap="round" stroke-linejoin="round"/><path d="M 30.62 11.38 Q 26.77 15.21 22.92 11.38" fill="none" stroke="#111" stroke-width="1.6" stroke-linecap="round"/><path d="M 38.31 11.38 Q 34.46 15.21 30.62 11.38" fill="none" stroke="#111" stroke-width="1.6" stroke-linecap="round"/><polyline points="38.31,11.38 38.31,7.54 7.54,7.54" fill="none" stroke="#111" stroke-width="1.6" stroke-linecap="round" stroke-linejoin="round"/><circle cx="38.31" cy="38.31" r="19.69" fill="none" stroke="#111" stroke-width="1.6"/><path d="M 46 11.38 Q 42.15 15.21 38.31 11.38" fill="none" stroke="#111" stroke-width="1.6" stroke-linecap="round"/><path d="M 53.69 11.38 Q 49.85 15.21 46 11.38" fill="none" stroke="#111" stroke-width="1.6" stroke-linecap="round"/><polyline points="53.69,11.38 53.69,7.54" fill="none" stroke="#111" stroke-width="1.6" stroke-linecap="round" stroke-linejoin="round"/></svg>