<svg xmlns="http://www.w3.org/2000/svg" width="96" height="64" viewBox="0 0 96 64"><rect x="6" y="6" width="1.33" height="52" fill="none" stroke="#111" stroke-width="1.6"/><rect x="6.13" y="6.13" width="1.07" height="51.74" fill="none" stroke="#111" stroke-width="1.6"/><rect x="6.13" y="6.6" width="0.67" height="0.13" fill="none" stroke="#111" stroke-width="1.6"/><rect x="6.13" y="7.93" width="0.67" height="0.14" fill="none" stroke="#111" stroke-width="1.6"/><rect x="6.13" y="9.27" width="0.67" height="0.13" fill="none" stroke="#111" stroke-width="1.6"/><rect x="6.13" y="10.6" width="0.67" height="0.13" fill="none" stroke="#111" stroke-width="1.6"/><rect x="6.13" y="11.93" width="0.67" height="0.14" fill="none" stroke="#111" stroke-width="1.6"/><rect x="6.13" y="13.27" width="0.67" height="0.13" fill="none" stroke="#111" stroke-width="1.6"/><rect x="6.13" y="14.6" width="0.67" height="0.13" fill="none" stroke="#111" stroke-width="1.6"/><rect x="6.13" y="15.93" width="0.67" height="0.14" fill="none" stroke="#111" stroke-width="1.6"/><rect x="6.13" y="17.27" width="0.67" height="0.13" fill="none" stroke="#111" stroke-width="1.6"/><rect x="6.13" y="18.6" width="0.67" height="0.13" fill="none" stroke="#111" stroke-width="1.6"/><rect x="6.13" y="19.93" width="0.67" height="0.14" fill="none" stroke="#111" stroke-width="1.6"/><rect x="6.13" y="21.27" width="0.67" height="0.13" fill="none" stroke="#111" stroke-width="1.6"/><rect x="6.13" y="22.6" width="0.67" height="0.13" fill="none" stroke="#111" stroke-width="1.6"/><rect x="6.13" y="23.93" width="0.67" height="0.14" fill="none" stroke="#111" stroke-width="1.6"/><rect x="6.13" y="25.27" width="0.67" height="0.13" fill="none" stroke="#111" stroke-width="1.6"/><rect x="6.13" y="26.6" width="0.67" height="0.13" fill="none" stroke="#111" stroke-width="1.6"/><rect x="6.13" y="27.93" width="0.67" height="0.14" fill="none" stroke="#111" stroke-width="1.6"/><rect x="6.13" y="29.27" width="0.67" height="0.13" fill="none" stroke="#111" stroke-width="1.6"/><rect x="6.13" y="30.6" width="0.67" height="0.13" fill="none" stroke="#111" stroke-width="1.6"/><rect x="6.13" y="31.93" width="0.67" height="0.14" fill="none" stroke="#111" stroke-width="1.6"/><rect x="6.13" y="33.27" width="0.67" height="0.13" fill="none" stroke="#111" stroke-width="1.6"/><rect x="6.13" y="34.6" width="0.67" height="0.13" fill="none" stroke="#111" stroke-width="1.6"/><rect x="6.13" y="35.93" width="0.67" height="0.14" fill="none" stroke="#111" stroke-width="1.6"/><rect x="6.13" y="37.27" width="0.67" height="0.13" fill="none" stroke="#111" stroke-width="1.6"/><rect x="6.13" y="38.6" width="0.67" height="0.13" fill="none" stroke="#111" stroke-width="1.6"/><rect x="6.13" y="39.93" width="0.67" height="0.14" fill="none" stroke="#111" stroke-width="1.6"/><rect x="6.13" y="41.27" width="0.67" height="0.13" fill="none" stroke="#111" stroke-width="1.6"/><rect x="6.13" y="42.6" width="0.67" height="0.13" fill="none" stroke="#111" stroke-width="1.6"/><rect x="6.13" y="43.93" width="0.67" height="0.14" fill="none" stroke="#111" stroke-width="1.6"/><rect x="6.13" y="45.27" width="0.67" height="0.13" fill="none" stroke="#111" stroke-width="1.6"/><rect x="6.13" y="46.6" width="0.67" height="0.13" fill="none" stroke="#111" stroke-width="1.6"/><rect x="6.13" y="47.93" width="0.67" height="0.14" fill="none" stroke="#111" stroke-width="1.6"/><rect x="6.13" y="49.27" width="0.67" height="0.13" fill="none" stroke="#111" stroke-width="1.6"/><rect x="6.13" y="50.6" width="0.67" height="0.13" fill="none" stroke="#111" stroke-width="1.6"/><rect x="6.13" y="51.93" width="0.67" height="0.14" fill="none" stroke="#111" stroke-width="1.6"/><rect x="6.13" y="53.27" width="0.67" height="0.13" fill="none" stroke="#111" stroke-width="1.6"/><rect x="6.13" y="54.6" width="0.67" height="0.13" fill="none" stroke="#111" stroke-width="1.6"/><rect x="6.13" y="55.93" width="0.67" height="0.14" fill="none" stroke="#111" stroke-width="1.6"/><rect x="6.13" y="57.27" width="0.67" height="0.13" fill="none" stroke="#111" stroke-width="1.6"/></svg>