<svg xmlns="http://www.w3.org/2000/svg" width="96" height="64" viewBox="0 0 96 64"><polyline points="6,7.41 8.11,7.41" fill="none" stroke="#111" stroke-width="1.6" stroke-linecap="round" stroke-linejoin="round"/><polyline points="6,14.43 8.11,14.43" fill="none" stroke="#111" stroke-width="1.6" stroke-linecap="round" stroke-linejoin="round"/><polyline points="6,21.46 8.11,21.46" fill="none" stroke="#111" stroke-width="1.6" stroke-linecap="round" stroke-linejoin="round"/><polyline points="6,28.49 8.11,28.49" fill="none" stroke="#111" stroke-width="1.6" stroke-linecap="round" stroke-linejoin="round"/><polyline points="6,35.51 8.11,35.51" fill="none" stroke="#111" stroke-width="1.6" stroke-linecap="round" stroke-linejoin="round"/><polyline points="6,42.54 8.11,42.54" fill="none" stroke="#111" stroke-width="1.6" stroke-linecap="round" stroke-linejoin="round"/><polyline points="6,49.57 8.11,49.57" fill="none" stroke="#111" stroke-width="1.6" stroke-linecap="round" stroke-linejoin="round"/><polyline points="6,56.59 8.11,56.59" fill="none" stroke="#111" stroke-width="1.6" stroke-linecap="round" stroke-linejoin="round"/><path d="M 9.51 8.81 Q 8.11 7.41 9.51 6" fill="none" stroke="#111" stroke-width="1.6" stroke-linecap="round"/><path d="M 9.51 15.84 Q 8.11 14.43 9.51 13.03" fill="none" stroke="#111" stroke-width="1.6" stroke-linecap="round"/><path d="M 9.51 22.86 Q 8.11 21.46 9.51 20.05" fill="none" stroke="#111" stroke-width="1.6" stroke-linecap="round"/><path d="M 9.51 29.89 Q 8.11 28.49 9.51 27.08" fill="none" stroke="#111" stroke-width="1.6" stroke-linecap="round"/><path d="M 9.51 36.92 Q 8.11 35.51 9.51 34.11" fill="none" stroke="#111" stroke-width="1.6" stroke-linecap="round"/><path d="M 9.51 43.95 Q 8.11 42.54 9.51 41.14" fill="none" stroke="#111" stroke-width="1.6" stroke-linecap="round"/><path d="M 9.51 50.97 Q 8.11 49.57 9.51 48.16" fill="none" stroke="#111" stroke-width="1.6" stroke-linecap="round"/><path d="M 9.51 58 Q 8.11 56.59 9.51 55.19" fill="none" stroke="#111" stroke-width="1.6" stroke-linecap="round"/></svg>