<svg xmlns="http://www.w3.org/2000/svg" width="96" height="64" viewBox="0 0 96 64"><rect x="6" y="6" width="1.01" height="51.7" fill="none" stroke="#111" stroke-width="1.6"/><rect x="6" y="6.46" width="0.51" height="0.1" fill="none" stroke="#111" stroke-width="1.6"/><rect x="6" y="7.47" width="0.51" height="0.1" fill="none" stroke="#111" stroke-width="1.6"/><rect x="6" y="8.48" width="0.51" height="0.1" fill="none" stroke="#111" stroke-width="1.6"/><rect x="6" y="9.5" width="0.51" height="0.1" fill="none" stroke="#111" stroke-width="1.6"/><rect x="6" y="10.51" width="0.51" height="0.1" fill="none" stroke="#111" stroke-width="1.6"/><rect x="6" y="11.52" width="0.51" height="0.11" fill="none" stroke="#111" stroke-width="1.6"/><rect x="6" y="12.54" width="0.51" height="0.1" fill="none" stroke="#111" stroke-width="1.6"/><rect x="6" y="13.55" width="0.51" height="0.1" fill="none" stroke="#111" stroke-width="1.6"/><rect x="6" y="14.57" width="0.51" height="0.1" fill="none" stroke="#111" stroke-width="1.6"/><rect x="6" y="15.58" width="0.51" height="0.1" fill="none" stroke="#111" stroke-width="1.6"/><rect x="6" y="16.59" width="0.51" height="0.1" fill="none" stroke="#111" stroke-width="1.6"/><rect x="6" y="17.61" width="0.51" height="0.1" fill="none" stroke="#111" stroke-width="1.6"/><rect x="6" y="18.62" width="0.51" height="0.1" fill="none" stroke="#111" stroke-width="1.6"/><rect x="6" y="19.63" width="0.51" height="0.1" fill="none" stroke="#111" stroke-width="1.6"/><rect x="6" y="20.65" width="0.51" height="0.1" fill="none" stroke="#111" stroke-width="1.6"/><rect x="6" y="21.66" width="0.51" height="0.1" fill="none" stroke="#111" stroke-width="1.6"/><rect x="6" y="22.67" width="0.51" height="0.11" fill="none" stroke="#111" stroke-width="1.6"/><rect x="6" y="23.69" width="0.51" height="0.1" fill="none" stroke="#111" stroke-width="1.6"/><rect x="6" y="24.7" width="0.51" height="0.1" fill="none" stroke="#111" stroke-width="1.6"/><rect x="6" y="25.72" width="0.51" height="0.1" fill="none" stroke="#111" stroke-width="1.6"/><rect x="6" y="26.73" width="0.51" height="0.1" fill="none" stroke="#111" stroke-width="1.6"/><rect x="6" y="27.74" width="0.51" height="0.1" fill="none" stroke="#111" stroke-width="1.6"/><rect x="6" y="28.76" width="0.51" height="0.1" fill="none" stroke="#111" stroke-width="1.6"/><rect x="6" y="29.77" width="0.51" height="0.1" fill="none" stroke="#111" stroke-width="1.6"/><rect x="6" y="30.78" width="0.51" height="0.1" fill="none" stroke="#111" stroke-width="1.6"/><rect x="6" y="31.8" width="0.51" height="0.1" fill="none" stroke="#111" stroke-width="1.6"/><rect x="6" y="32.81" width="0.51" height="0.1" fill="none" stroke="#111" stroke-width="1.6"/><rect x="6" y="33.82" width="0.51" height="0.11" fill="none" stroke="#111" stroke-width="1.6"/><rect x="6" y="34.84" width="0.51" height="0.1" fill="none" stroke="#111" stroke-width="1.6"/><rect x="6" y="35.85" width="0.51" height="0.1" fill="none" stroke="#111" stroke-width="1.6"/><rect x="6" y="36.87" width="0.51" height="0.1" fill="none" stroke="#111" stroke-width="1.6"/><rect x="6" y="37.88" width="0.51" height="0.1" fill="none" stroke="#111" stroke-width="1.6"/><rect x="6" y="38.89" width="0.51" height="0.1" fill="none" stroke="#111" stroke-width="1.6"/><rect x="6" y="39.91" width="0.51" height="0.1" fill="none" stroke="#111" stroke-width="1.6"/><rect x="6" y="40.92" width="0.51" height="0.1" fill="none" stroke="#111" stroke-width="1.6"/><rect x="6" y="41.93" width="0.51" height="0.11" fill="none" stroke="#111" stroke-width="1.6"/><rect x="6" y="42.95" width="0.51" height="0.1" fill="none" stroke="#111" stroke-width="1.6"/><rect x="6" y="43.96" width="0.51" height="0.1" fill="none" stroke="#111" stroke-width="1.6"/><rect x="6" y="44.97" width="0.51" height="0.11" fill="none" stroke="#111" stroke-width="1.6"/><rect x="6" y="45.99" width="0.51" height="0.1" fill="none" stroke="#111" stroke-width="1.6"/><rect x="6" y="47" width="0.51" height="0.1" fill="none" stroke="#111" stroke-width="1.6"/><rect x="6" y="48.02" width="0.51" height="0.1" fill="none" stroke="#111" stroke-width="1.6"/><rect x="6" y="49.03" width="0.51" height="0.1" fill="none" stroke="#111" stroke-width="1.6"/><rect x="6" y="50.04" width="0.51" height="0.1" fill="none" stroke="#111" stroke-width="1.6"/><rect x="6" y="51.06" width="0.51" height="0.1" fill="none" stroke="#111" stroke-width="1.6"/><rect x="6" y="52.07" width="0.51" height="0.1" fill="none" stroke="#111" stroke-width="1.6"/><rect x="6" y="53.08" width="0.51" height="0.11" fill="none" stroke="#111" stroke-width="1.6"/><rect x="6" y="54.1" width="0.51" height="0.1" fill="none" stroke="#111" stroke-width="1.6"/><rect x="6" y="55.11" width="0.51" height="0.1" fill="none" stroke="#111" stroke-width="1.6"/><rect x="6" y="56.12" width="0.51" height="0.11" fill="none" stroke="#111" stroke-width="1.6"/><rect x="6" y="57.14" width="0.51" height="0.1" fill="none" stroke="#111" stroke-width="1.6"/><polyline points="6.1,58 6.91,58" fill="none" stroke="#111" stroke-width="1.6" stroke-linecap="round" stroke-linejoin="round"/></svg>