<svg xmlns="http://www.w3.org/2000/svg" width="96" height="64" viewBox="0 0 96 64"><polyline points="6,32 32,32" fill="none" stroke="#111" stroke-width="1.6" stroke-linecap="round" stroke-linejoin="round"/><polyline points="32,14.27 32,49.73" fill="none" stroke="#111" stroke-width="1.6" stroke-linecap="round" stroke-linejoin="round"/><polyline points="36.73,10.73 36.73,20.18" fill="none" stroke="#111" stroke-width="1.6" stroke-linecap="round" stroke-linejoin="round"/><polyline points="36.73,27.27 36.73,36.73" fill="none" stroke="#111" stroke-width="1.6" stroke-linecap="round" stroke-linejoin="round"/><polyline points="36.73,43.82 36.73,53.27" fill="none" stroke="#111" stroke-width="1.6" stroke-linecap="round" stroke-linejoin="round"/><polyline points="36.73,48.55 60.36,48.55 60.36,15.45 36.73,15.45" fill="none" stroke="#111" stroke-width="1.6" stroke-linecap="round" stroke-linejoin="round"/><polyline points="39.09,32 48.55,28.45 48.55,35.55 39.09,32" fill="none" stroke="#111" stroke-width="1.6" stroke-linecap="round" stroke-linejoin="round"/><circle cx="45" cy="32" r="26" fill="none" stroke="#111" stroke-width="1.6"/><polyline points="53.27,8.36 53.27,15.45" fill="none" stroke="#111" stroke-width="1.6" stroke-linecap="round" stroke-linejoin="round"/><circle cx="53.27" cy="15.45" r="2.36" fill="none" stroke="#111" stroke-width="1.6"/><circle cx="53.27" cy="48.55" r="2.36" fill="none" stroke="#111" stroke-width="1.6"/><polyline points="53.27,55.64 53.27,32 36.73,32" fill="none" stroke="#111" stroke-width="1.6" stroke-linecap="round" stroke-linejoin="round"/><polyline points="55.64,27.27 56.82,28.45 63.91,28.45 65.09,29.64" fill="none" stroke="#111" stroke-width="1.6" stroke-linecap="round" stroke-linejoin="round"/><polyline points="60.36,28.45 56.82,34.36 63.91,34.36 60.36,28.45" fill="none" stroke="#111" stroke-width="1.6" stroke-linecap="round" stroke-linejoin="round"/></svg>