<svg xmlns="http://www.w3.org/2000/svg" width="96" height="64" viewBox="0 0 96 64"><rect x="6" y="6" width="84" height="42" fill="none" stroke="#111" stroke-width="1.6"/><polyline points="16.5,48 16.5,39.6 20.7,39.6 20.7,35.4 12.3,35.4 12.3,31.2 20.7,31.2 20.7,27 12.3,27 12.3,22.8 20.7,22.8 20.7,18.6 12.3,18.6 12.3,14.4 16.5,14.4 16.5,6" fill="none" stroke="#111" stroke-width="1.6" stroke-linecap="round" stroke-linejoin="round"/><circle cx="58.5" cy="16.5" r="2.1" fill="none" stroke="#111" stroke-width="1.6"/><circle cx="58.5" cy="37.5" r="2.1" fill="none" stroke="#111" stroke-width="1.6"/><polyline points="79.5,6 79.5,16.5 58.5,16.5" fill="none" stroke="#111" stroke-width="1.6" stroke-linecap="round" stroke-linejoin="round"/><polyline points="79.5,48 79.5,37.5 58.5,37.5" fill="none" stroke="#111" stroke-width="1.6" stroke-linecap="round" stroke-linejoin="round"/><polyline points="52.2,20.7 64.8,20.7 64.8,22.8" fill="none" stroke="#111" stroke-width="1.6" stroke-linecap="round" stroke-linejoin="round"/><polyline points="52.2,33.3 64.8,33.3 58.5,20.7 52.2,33.3" fill="none" stroke="#111" stroke-width="1.6" stroke-linecap="round" stroke-linejoin="round"/><polyline points="58.5,6 58.5,48" fill="none" stroke="#111" stroke-width="1.6" stroke-linecap="round" stroke-linejoin="round"/></svg>