<svg xmlns="http://www.w3.org/2000/svg" width="96" height="64" viewBox="0 0 96 64"><rect x="6" y="23.17" width="11.67" height="18.5" fill="none" stroke="#111" stroke-width="1.6"/><rect x="6" y="23.17" width="11.67" height="18.5" fill="none" stroke="#111" stroke-width="1.6"/><rect x="6" y="23.17" width="11.67" height="18.5" fill="none" stroke="#111" stroke-width="1.6"/><rect x="6" y="23.17" width="11.67" height="18.5" fill="none" stroke="#111" stroke-width="1.6"/><rect x="6" y="23.17" width="11.67" height="18.5" fill="none" stroke="#111" stroke-width="1.6"/><rect x="6" y="23.17" width="11.67" height="18.5" fill="none" stroke="#111" stroke-width="1.6"/><rect x="6" y="23.17" width="11.67" height="18.5" fill="none" stroke="#111" stroke-width="1.6"/><rect x="7.67" y="28" width="8.33" height="8" fill="none" stroke="#111" stroke-width="1.6"/><rect x="7.67" y="28" width="8.33" height="8" fill="none" stroke="#111" stroke-width="1.6"/><rect x="7.67" y="28" width="8.33" height="8" fill="none" stroke="#111" stroke-width="1.6"/><rect x="7.67" y="28" width="8.33" height="8" fill="none" stroke="#111" stroke-width="1.6"/><rect x="7.67" y="28" width="8.33" height="8" fill="none" stroke="#111" stroke-width="1.6"/><rect x="7.67" y="28" width="8.33" height="8" fill="none" stroke="#111" stroke-width="1.6"/><rect x="7.67" y="24" width="8.33" height="16" fill="none" stroke="#111" stroke-width="1.6"/><rect x="7.67" y="24.67" width="8.33" height="14.66" fill="none" stroke="#111" stroke-width="1.6"/><rect x="7.67" y="19" width="8.33" height="26" fill="none" stroke="#111" stroke-width="1.6"/><rect x="7.67" y="27.83" width="8.33" height="9.17" fill="none" stroke="#111" stroke-width="1.6"/><rect x="9.33" y="6" width="5" height="52" fill="none" stroke="#111" stroke-width="1.6"/><rect x="9.33" y="6.67" width="5" height="50.66" fill="none" stroke="#111" stroke-width="1.6"/><rect x="9.33" y="18" width="5" height="28" fill="none" stroke="#111" stroke-width="1.6"/></svg>