<svg xmlns="http://www.w3.org/2000/svg" width="96" height="64" viewBox="0 0 96 64"><rect x="6" y="6" width="2.95" height="51.56" fill="none" stroke="#111" stroke-width="1.6"/><rect x="6" y="6.66" width="0.74" height="0.15" fill="none" stroke="#111" stroke-width="1.6"/><rect x="6" y="8.14" width="0.74" height="0.14" fill="none" stroke="#111" stroke-width="1.6"/><rect x="6" y="9.61" width="0.74" height="0.15" fill="none" stroke="#111" stroke-width="1.6"/><rect x="6" y="11.08" width="0.74" height="0.15" fill="none" stroke="#111" stroke-width="1.6"/><rect x="6" y="12.56" width="0.74" height="0.14" fill="none" stroke="#111" stroke-width="1.6"/><rect x="6" y="14.03" width="0.74" height="0.15" fill="none" stroke="#111" stroke-width="1.6"/><rect x="6" y="15.5" width="0.74" height="0.15" fill="none" stroke="#111" stroke-width="1.6"/><rect x="6" y="16.97" width="0.74" height="0.15" fill="none" stroke="#111" stroke-width="1.6"/><rect x="6" y="18.45" width="0.74" height="0.14" fill="none" stroke="#111" stroke-width="1.6"/><rect x="6" y="19.92" width="0.74" height="0.15" fill="none" stroke="#111" stroke-width="1.6"/><rect x="6" y="21.39" width="0.74" height="0.15" fill="none" stroke="#111" stroke-width="1.6"/><rect x="6" y="22.87" width="0.74" height="0.14" fill="none" stroke="#111" stroke-width="1.6"/><rect x="6" y="24.34" width="0.74" height="0.15" fill="none" stroke="#111" stroke-width="1.6"/><rect x="6" y="25.81" width="0.74" height="0.15" fill="none" stroke="#111" stroke-width="1.6"/><rect x="6" y="27.29" width="0.74" height="0.14" fill="none" stroke="#111" stroke-width="1.6"/><rect x="6" y="28.76" width="0.74" height="0.15" fill="none" stroke="#111" stroke-width="1.6"/><rect x="6" y="30.23" width="0.74" height="0.15" fill="none" stroke="#111" stroke-width="1.6"/><rect x="6" y="31.71" width="0.74" height="0.14" fill="none" stroke="#111" stroke-width="1.6"/><rect x="6" y="33.18" width="0.74" height="0.15" fill="none" stroke="#111" stroke-width="1.6"/><rect x="6" y="34.65" width="0.74" height="0.15" fill="none" stroke="#111" stroke-width="1.6"/><rect x="6" y="36.12" width="0.74" height="0.15" fill="none" stroke="#111" stroke-width="1.6"/><rect x="6" y="37.6" width="0.74" height="0.15" fill="none" stroke="#111" stroke-width="1.6"/><rect x="6" y="39.07" width="0.74" height="0.15" fill="none" stroke="#111" stroke-width="1.6"/><rect x="6" y="40.54" width="0.74" height="0.15" fill="none" stroke="#111" stroke-width="1.6"/><rect x="6" y="42.02" width="0.74" height="0.14" fill="none" stroke="#111" stroke-width="1.6"/><rect x="6" y="43.49" width="0.74" height="0.15" fill="none" stroke="#111" stroke-width="1.6"/><rect x="6" y="44.96" width="0.74" height="0.15" fill="none" stroke="#111" stroke-width="1.6"/><rect x="6" y="46.44" width="0.74" height="0.14" fill="none" stroke="#111" stroke-width="1.6"/><rect x="6" y="47.91" width="0.74" height="0.15" fill="none" stroke="#111" stroke-width="1.6"/><rect x="6" y="49.38" width="0.74" height="0.15" fill="none" stroke="#111" stroke-width="1.6"/><rect x="6" y="50.86" width="0.74" height="0.14" fill="none" stroke="#111" stroke-width="1.6"/><rect x="6" y="52.33" width="0.74" height="0.15" fill="none" stroke="#111" stroke-width="1.6"/><rect x="6" y="53.8" width="0.74" height="0.15" fill="none" stroke="#111" stroke-width="1.6"/><rect x="6" y="55.27" width="0.74" height="0.15" fill="none" stroke="#111" stroke-width="1.6"/><rect x="6" y="56.75" width="0.74" height="0.15" fill="none" stroke="#111" stroke-width="1.6"/><polyline points="6.88,58 8.06,58" fill="none" stroke="#111" stroke-width="1.6" stroke-linecap="round" stroke-linejoin="round"/><rect x="8.21" y="6.66" width="0.74" height="0.15" fill="none" stroke="#111" stroke-width="1.6"/><rect x="8.21" y="8.14" width="0.74" height="0.14" fill="none" stroke="#111" stroke-width="1.6"/><rect x="8.21" y="9.61" width="0.74" height="0.15" fill="none" stroke="#111" stroke-width="1.6"/><rect x="8.21" y="11.08" width="0.74" height="0.15" fill="none" stroke="#111" stroke-width="1.6"/><rect x="8.21" y="12.56" width="0.74" height="0.14" fill="none" stroke="#111" stroke-width="1.6"/><rect x="8.21" y="14.03" width="0.74" height="0.15" fill="none" stroke="#111" stroke-width="1.6"/><rect x="8.21" y="15.5" width="0.74" height="0.15" fill="none" stroke="#111" stroke-width="1.6"/><rect x="8.21" y="16.97" width="0.74" height="0.15" fill="none" stroke="#111" stroke-width="1.6"/><rect x="8.21" y="18.45" width="0.74" height="0.14" fill="none" stroke="#111" stroke-width="1.6"/><rect x="8.21" y="19.92" width="0.74" height="0.15" fill="none" stroke="#111" stroke-width="1.6"/><rect x="8.21" y="21.39" width="0.74" height="0.15" fill="none" stroke="#111" stroke-width="1.6"/><rect x="8.21" y="22.87" width="0.74" height="0.14" fill="none" stroke="#111" stroke-width="1.6"/><rect x="8.21" y="24.34" width="0.74" height="0.15" fill="none" stroke="#111" stroke-width="1.6"/><rect x="8.21" y="25.81" width="0.74" height="0.15" fill="none" stroke="#111" stroke-width="1.6"/><rect x="8.21" y="27.29" width="0.74" height="0.14" fill="none" stroke="#111" stroke-width="1.6"/><rect x="8.21" y="28.76" width="0.74" height="0.15" fill="none" stroke="#111" stroke-width="1.6"/><rect x="8.21" y="30.23" width="0.74" height="0.15" fill="none" stroke="#111" stroke-width="1.6"/><rect x="8.21" y="31.71" width="0.74" height="0.14" fill="none" stroke="#111" stroke-width="1.6"/><rect x="8.21" y="33.18" width="0.74" height="0.15" fill="none" stroke="#111" stroke-width="1.6"/><rect x="8.21" y="34.65" width="0.74" height="0.15" fill="none" stroke="#111" stroke-width="1.6"/><rect x="8.21" y="36.12" width="0.74" height="0.15" fill="none" stroke="#111" stroke-width="1.6"/><rect x="8.21" y="37.6" width="0.74" height="0.15" fill="none" stroke="#111" stroke-width="1.6"/><rect x="8.21" y="39.07" width="0.74" height="0.15" fill="none" stroke="#111" stroke-width="1.6"/><rect x="8.21" y="40.54" width="0.74" height="0.15" fill="none" stroke="#111" stroke-width="1.6"/><rect x="8.21" y="42.02" width="0.74" height="0.14" fill="none" stroke="#111" stroke-width="1.6"/><rect x="8.21" y="43.49" width="0.74" height="0.15" fill="none" stroke="#111" stroke-width="1.6"/><rect x="8.21" y="44.96" width="0.74" height="0.15" fill="none" stroke="#111" stroke-width="1.6"/><rect x="8.21" y="46.44" width="0.74" height="0.14" fill="none" stroke="#111" stroke-width="1.6"/><rect x="8.21" y="47.91" width="0.74" height="0.15" fill="none" stroke="#111" stroke-width="1.6"/><rect x="8.21" y="49.38" width="0.74" height="0.15" fill="none" stroke="#111" stroke-width="1.6"/><rect x="8.21" y="50.86" width="0.74" height="0.14" fill="none" stroke="#111" stroke-width="1.6"/><rect x="8.21" y="52.33" width="0.74" height="0.15" fill="none" stroke="#111" stroke-width="1.6"/><rect x="8.21" y="53.8" width="0.74" height="0.15" fill="none" stroke="#111" stroke-width="1.6"/><rect x="8.21" y="55.27" width="0.74" height="0.15" fill="none" stroke="#111" stroke-width="1.6"/></svg>