<svg xmlns="http://www.w3.org/2000/svg" width="96" height="64" viewBox="0 0 96 64"><path d="M 12.5 12.5 Q 10.52 16.99 6 18.87" fill="none" stroke="#111" stroke-width="1.6" stroke-linecap="round"/><path d="M 12.5 25.5 Q 10.52 29.99 6 31.87" fill="none" stroke="#111" stroke-width="1.6" stroke-linecap="round"/><path d="M 12.5 38.5 Q 10.52 42.99 6 44.87" fill="none" stroke="#111" stroke-width="1.6" stroke-linecap="round"/><path d="M 12.5 51.5 Q 10.52 55.99 6 57.87" fill="none" stroke="#111" stroke-width="1.6" stroke-linecap="round"/><path d="M 6 6 Q 10.6 7.9 12.5 12.5" fill="none" stroke="#111" stroke-width="1.6" stroke-linecap="round"/><path d="M 6 19 Q 10.6 20.9 12.5 25.5" fill="none" stroke="#111" stroke-width="1.6" stroke-linecap="round"/><path d="M 6 32 Q 10.6 33.9 12.5 38.5" fill="none" stroke="#111" stroke-width="1.6" stroke-linecap="round"/><path d="M 6 45 Q 10.6 46.9 12.5 51.5" fill="none" stroke="#111" stroke-width="1.6" stroke-linecap="round"/><polyline points="15.75,6 15.75,58" fill="none" stroke="#111" stroke-width="1.6" stroke-linecap="round" stroke-linejoin="round"/><polyline points="22.25,58 22.25,6" fill="none" stroke="#111" stroke-width="1.6" stroke-linecap="round" stroke-linejoin="round"/><path d="M 25.63 12.5 Q 27.42 7.88 32 6" fill="none" stroke="#111" stroke-width="1.6" stroke-linecap="round"/><path d="M 25.63 25.5 Q 27.42 20.88 32 19" fill="none" stroke="#111" stroke-width="1.6" stroke-linecap="round"/><path d="M 25.63 38.5 Q 27.42 33.88 32 32" fill="none" stroke="#111" stroke-width="1.6" stroke-linecap="round"/><path d="M 32 18.87 Q 27.5 17 25.63 12.5" fill="none" stroke="#111" stroke-width="1.6" stroke-linecap="round"/><path d="M 32 31.87 Q 27.5 30 25.63 25.5" fill="none" stroke="#111" stroke-width="1.6" stroke-linecap="round"/><path d="M 32 44.87 Q 27.5 43 25.63 38.5" fill="none" stroke="#111" stroke-width="1.6" stroke-linecap="round"/><path d="M 25.76 51.5 Q 27.55 46.89 32.13 45" fill="none" stroke="#111" stroke-width="1.6" stroke-linecap="round"/><path d="M 32.13 57.87 Q 27.62 56 25.76 51.5" fill="none" stroke="#111" stroke-width="1.6" stroke-linecap="round"/></svg>