<svg xmlns="http://www.w3.org/2000/svg" width="96" height="64" viewBox="0 0 96 64"><circle cx="12.5" cy="23.88" r="0" fill="none" stroke="#111" stroke-width="1.6"/><circle cx="19" cy="10.88" r="0" fill="none" stroke="#111" stroke-width="1.6"/><circle cx="19" cy="53.12" r="0" fill="none" stroke="#111" stroke-width="1.6"/><circle cx="25.5" cy="10.88" r="0" fill="none" stroke="#111" stroke-width="1.6"/><circle cx="25.5" cy="53.12" r="0" fill="none" stroke="#111" stroke-width="1.6"/><circle cx="32" cy="40.12" r="0" fill="none" stroke="#111" stroke-width="1.6"/><polyline points="6,23.88 38.5,23.88" fill="none" stroke="#111" stroke-width="1.6" stroke-linecap="round" stroke-linejoin="round"/><polyline points="6,40.12 38.5,40.12" fill="none" stroke="#111" stroke-width="1.6" stroke-linecap="round" stroke-linejoin="round"/><polyline points="9.25,20.62 15.75,20.62 12.5,14.12 9.25,20.62" fill="none" stroke="#111" stroke-width="1.6" stroke-linecap="round" stroke-linejoin="round"/><polyline points="9.25,43.38 15.75,43.38" fill="none" stroke="#111" stroke-width="1.6" stroke-linecap="round" stroke-linejoin="round"/><polyline points="15.75,14.12 9.25,14.12" fill="none" stroke="#111" stroke-width="1.6" stroke-linecap="round" stroke-linejoin="round"/><polyline points="15.75,49.88 9.25,49.88 12.5,43.38 15.75,49.88" fill="none" stroke="#111" stroke-width="1.6" stroke-linecap="round" stroke-linejoin="round"/><polyline points="19,31.19 19,28.75 25.5,28.75" fill="none" stroke="#111" stroke-width="1.6" stroke-linecap="round" stroke-linejoin="round"/><polyline points="22.25,7.62 19,10.88 25.5,10.88 22.25,14.12 22.25,49.88 19,53.12 25.5,53.12 22.25,56.38" fill="none" stroke="#111" stroke-width="1.6" stroke-linecap="round" stroke-linejoin="round"/><polyline points="25.5,35.25 19,35.25 22.25,28.75 25.5,35.25" fill="none" stroke="#111" stroke-width="1.6" stroke-linecap="round" stroke-linejoin="round"/><polyline points="28.75,14.12 35.25,14.12" fill="none" stroke="#111" stroke-width="1.6" stroke-linecap="round" stroke-linejoin="round"/><polyline points="28.75,43.38 35.25,43.38" fill="none" stroke="#111" stroke-width="1.6" stroke-linecap="round" stroke-linejoin="round"/><polyline points="35.25,20.62 28.75,20.62 32,14.12 35.25,20.62" fill="none" stroke="#111" stroke-width="1.6" stroke-linecap="round" stroke-linejoin="round"/><polyline points="35.25,49.88 28.75,49.88 32,43.38 35.25,49.88" fill="none" stroke="#111" stroke-width="1.6" stroke-linecap="round" stroke-linejoin="round"/><rect x="6" y="6" width="32.5" height="52" fill="none" stroke="#111" stroke-width="1.6"/><polyline points="19,10.88 12.5,10.88 12.5,53.12 19,53.12" fill="none" stroke="#111" stroke-width="1.6" stroke-linecap="round" stroke-linejoin="round"/><polyline points="25.5,53.12 32,53.12 32,10.88 25.5,10.88" fill="none" stroke="#111" stroke-width="1.6" stroke-linecap="round" stroke-linejoin="round"/></svg>