<svg xmlns="http://www.w3.org/2000/svg" width="96" height="64" viewBox="0 0 96 64"><rect x="6" y="6" width="2.26" height="52" fill="none" stroke="#111" stroke-width="1.6"/><rect x="6" y="6.51" width="0.57" height="0.11" fill="none" stroke="#111" stroke-width="1.6"/><rect x="6" y="7.64" width="0.57" height="0.11" fill="none" stroke="#111" stroke-width="1.6"/><rect x="6" y="8.77" width="0.57" height="0.11" fill="none" stroke="#111" stroke-width="1.6"/><rect x="6" y="9.9" width="0.57" height="0.11" fill="none" stroke="#111" stroke-width="1.6"/><rect x="6" y="11.03" width="0.57" height="0.11" fill="none" stroke="#111" stroke-width="1.6"/><rect x="6" y="12.16" width="0.57" height="0.11" fill="none" stroke="#111" stroke-width="1.6"/><rect x="6" y="13.29" width="0.57" height="0.11" fill="none" stroke="#111" stroke-width="1.6"/><rect x="6" y="14.42" width="0.57" height="0.11" fill="none" stroke="#111" stroke-width="1.6"/><rect x="6" y="15.55" width="0.57" height="0.12" fill="none" stroke="#111" stroke-width="1.6"/><rect x="6" y="16.68" width="0.57" height="0.12" fill="none" stroke="#111" stroke-width="1.6"/><rect x="6" y="17.81" width="0.57" height="0.12" fill="none" stroke="#111" stroke-width="1.6"/><rect x="6" y="18.94" width="0.57" height="0.12" fill="none" stroke="#111" stroke-width="1.6"/><rect x="6" y="20.07" width="0.57" height="0.12" fill="none" stroke="#111" stroke-width="1.6"/><rect x="6" y="21.2" width="0.57" height="0.12" fill="none" stroke="#111" stroke-width="1.6"/><rect x="6" y="22.33" width="0.57" height="0.12" fill="none" stroke="#111" stroke-width="1.6"/><rect x="6" y="23.47" width="0.57" height="0.11" fill="none" stroke="#111" stroke-width="1.6"/><rect x="6" y="24.6" width="0.57" height="0.11" fill="none" stroke="#111" stroke-width="1.6"/><rect x="6" y="25.73" width="0.57" height="0.11" fill="none" stroke="#111" stroke-width="1.6"/><rect x="6" y="26.86" width="0.57" height="0.11" fill="none" stroke="#111" stroke-width="1.6"/><rect x="6" y="27.99" width="0.57" height="0.11" fill="none" stroke="#111" stroke-width="1.6"/><rect x="6" y="29.12" width="0.57" height="0.11" fill="none" stroke="#111" stroke-width="1.6"/><rect x="6" y="30.25" width="0.57" height="0.11" fill="none" stroke="#111" stroke-width="1.6"/><rect x="6" y="31.38" width="0.57" height="0.11" fill="none" stroke="#111" stroke-width="1.6"/><rect x="6" y="32.51" width="0.57" height="0.11" fill="none" stroke="#111" stroke-width="1.6"/><rect x="6" y="33.64" width="0.57" height="0.11" fill="none" stroke="#111" stroke-width="1.6"/><rect x="6" y="34.77" width="0.57" height="0.11" fill="none" stroke="#111" stroke-width="1.6"/><rect x="6" y="35.9" width="0.57" height="0.11" fill="none" stroke="#111" stroke-width="1.6"/><rect x="6" y="37.03" width="0.57" height="0.11" fill="none" stroke="#111" stroke-width="1.6"/><rect x="6" y="38.16" width="0.57" height="0.11" fill="none" stroke="#111" stroke-width="1.6"/><rect x="6" y="39.29" width="0.57" height="0.11" fill="none" stroke="#111" stroke-width="1.6"/><rect x="6" y="40.42" width="0.57" height="0.11" fill="none" stroke="#111" stroke-width="1.6"/><rect x="6" y="41.55" width="0.57" height="0.12" fill="none" stroke="#111" stroke-width="1.6"/><rect x="6" y="42.68" width="0.57" height="0.12" fill="none" stroke="#111" stroke-width="1.6"/><rect x="6" y="43.81" width="0.57" height="0.12" fill="none" stroke="#111" stroke-width="1.6"/><rect x="6" y="44.94" width="0.57" height="0.12" fill="none" stroke="#111" stroke-width="1.6"/><rect x="6" y="46.07" width="0.57" height="0.12" fill="none" stroke="#111" stroke-width="1.6"/><rect x="6" y="47.2" width="0.57" height="0.12" fill="none" stroke="#111" stroke-width="1.6"/><rect x="6" y="48.33" width="0.57" height="0.12" fill="none" stroke="#111" stroke-width="1.6"/><rect x="6" y="49.47" width="0.57" height="0.11" fill="none" stroke="#111" stroke-width="1.6"/><rect x="6" y="50.6" width="0.57" height="0.11" fill="none" stroke="#111" stroke-width="1.6"/><rect x="6" y="51.73" width="0.57" height="0.11" fill="none" stroke="#111" stroke-width="1.6"/><rect x="6" y="52.86" width="0.57" height="0.11" fill="none" stroke="#111" stroke-width="1.6"/><rect x="6" y="53.99" width="0.57" height="0.11" fill="none" stroke="#111" stroke-width="1.6"/><rect x="6" y="55.12" width="0.57" height="0.11" fill="none" stroke="#111" stroke-width="1.6"/><rect x="6" y="56.25" width="0.57" height="0.11" fill="none" stroke="#111" stroke-width="1.6"/><rect x="6" y="57.38" width="0.57" height="0.11" fill="none" stroke="#111" stroke-width="1.6"/><rect x="7.7" y="6.51" width="0.56" height="0.11" fill="none" stroke="#111" stroke-width="1.6"/><rect x="7.7" y="7.64" width="0.56" height="0.11" fill="none" stroke="#111" stroke-width="1.6"/><rect x="7.7" y="8.77" width="0.56" height="0.11" fill="none" stroke="#111" stroke-width="1.6"/><rect x="7.7" y="9.9" width="0.56" height="0.11" fill="none" stroke="#111" stroke-width="1.6"/><rect x="7.7" y="11.03" width="0.56" height="0.11" fill="none" stroke="#111" stroke-width="1.6"/><rect x="7.7" y="12.16" width="0.56" height="0.11" fill="none" stroke="#111" stroke-width="1.6"/><rect x="7.7" y="13.29" width="0.56" height="0.11" fill="none" stroke="#111" stroke-width="1.6"/><rect x="7.7" y="14.42" width="0.56" height="0.11" fill="none" stroke="#111" stroke-width="1.6"/><rect x="7.7" y="15.55" width="0.56" height="0.12" fill="none" stroke="#111" stroke-width="1.6"/><rect x="7.7" y="16.68" width="0.56" height="0.12" fill="none" stroke="#111" stroke-width="1.6"/><rect x="7.7" y="17.81" width="0.56" height="0.12" fill="none" stroke="#111" stroke-width="1.6"/><rect x="7.7" y="18.94" width="0.56" height="0.12" fill="none" stroke="#111" stroke-width="1.6"/><rect x="7.7" y="20.07" width="0.56" height="0.12" fill="none" stroke="#111" stroke-width="1.6"/><rect x="7.7" y="21.2" width="0.56" height="0.12" fill="none" stroke="#111" stroke-width="1.6"/><rect x="7.7" y="22.33" width="0.56" height="0.12" fill="none" stroke="#111" stroke-width="1.6"/><rect x="7.7" y="23.47" width="0.56" height="0.11" fill="none" stroke="#111" stroke-width="1.6"/><rect x="7.7" y="24.6" width="0.56" height="0.11" fill="none" stroke="#111" stroke-width="1.6"/><rect x="7.7" y="25.73" width="0.56" height="0.11" fill="none" stroke="#111" stroke-width="1.6"/><rect x="7.7" y="26.86" width="0.56" height="0.11" fill="none" stroke="#111" stroke-width="1.6"/><rect x="7.7" y="27.99" width="0.56" height="0.11" fill="none" stroke="#111" stroke-width="1.6"/><rect x="7.7" y="29.12" width="0.56" height="0.11" fill="none" stroke="#111" stroke-width="1.6"/><rect x="7.7" y="30.25" width="0.56" height="0.11" fill="none" stroke="#111" stroke-width="1.6"/><rect x="7.7" y="31.38" width="0.56" height="0.11" fill="none" stroke="#111" stroke-width="1.6"/><rect x="7.7" y="32.51" width="0.56" height="0.11" fill="none" stroke="#111" stroke-width="1.6"/><rect x="7.7" y="33.64" width="0.56" height="0.11" fill="none" stroke="#111" stroke-width="1.6"/><rect x="7.7" y="34.77" width="0.56" height="0.11" fill="none" stroke="#111" stroke-width="1.6"/><rect x="7.7" y="35.9" width="0.56" height="0.11" fill="none" stroke="#111" stroke-width="1.6"/><rect x="7.7" y="37.03" width="0.56" height="0.11" fill="none" stroke="#111" stroke-width="1.6"/><rect x="7.7" y="38.16" width="0.56" height="0.11" fill="none" stroke="#111" stroke-width="1.6"/><rect x="7.7" y="39.29" width="0.56" height="0.11" fill="none" stroke="#111" stroke-width="1.6"/><rect x="7.7" y="40.42" width="0.56" height="0.11" fill="none" stroke="#111" stroke-width="1.6"/><rect x="7.7" y="41.55" width="0.56" height="0.12" fill="none" stroke="#111" stroke-width="1.6"/><rect x="7.7" y="42.68" width="0.56" height="0.12" fill="none" stroke="#111" stroke-width="1.6"/><rect x="7.7" y="43.81" width="0.56" height="0.12" fill="none" stroke="#111" stroke-width="1.6"/><rect x="7.7" y="44.94" width="0.56" height="0.12" fill="none" stroke="#111" stroke-width="1.6"/><rect x="7.7" y="46.07" width="0.56" height="0.12" fill="none" stroke="#111" stroke-width="1.6"/><rect x="7.7" y="47.2" width="0.56" height="0.12" fill="none" stroke="#111" stroke-width="1.6"/><rect x="7.7" y="48.33" width="0.56" height="0.12" fill="none" stroke="#111" stroke-width="1.6"/><rect x="7.7" y="49.47" width="0.56" height="0.11" fill="none" stroke="#111" stroke-width="1.6"/><rect x="7.7" y="50.6" width="0.56" height="0.11" fill="none" stroke="#111" stroke-width="1.6"/><rect x="7.7" y="51.73" width="0.56" height="0.11" fill="none" stroke="#111" stroke-width="1.6"/><rect x="7.7" y="52.86" width="0.56" height="0.11" fill="none" stroke="#111" stroke-width="1.6"/><rect x="7.7" y="53.99" width="0.56" height="0.11" fill="none" stroke="#111" stroke-width="1.6"/><rect x="7.7" y="55.12" width="0.56" height="0.11" fill="none" stroke="#111" stroke-width="1.6"/><rect x="7.7" y="56.25" width="0.56" height="0.11" fill="none" stroke="#111" stroke-width="1.6"/><rect x="7.7" y="57.38" width="0.56" height="0.11" fill="none" stroke="#111" stroke-width="1.6"/></svg>