<svg xmlns="http://www.w3.org/2000/svg" width="96" height="64" viewBox="0 0 96 64"><rect x="6" y="6" width="1.73" height="52" fill="none" stroke="#111" stroke-width="1.6"/><rect x="6" y="6.39" width="0.43" height="0.09" fill="none" stroke="#111" stroke-width="1.6"/><rect x="6" y="7.26" width="0.43" height="0.08" fill="none" stroke="#111" stroke-width="1.6"/><rect x="6" y="8.12" width="0.43" height="0.09" fill="none" stroke="#111" stroke-width="1.6"/><rect x="6" y="8.99" width="0.43" height="0.09" fill="none" stroke="#111" stroke-width="1.6"/><rect x="6" y="9.86" width="0.43" height="0.08" fill="none" stroke="#111" stroke-width="1.6"/><rect x="6" y="10.72" width="0.43" height="0.09" fill="none" stroke="#111" stroke-width="1.6"/><rect x="6" y="11.59" width="0.43" height="0.09" fill="none" stroke="#111" stroke-width="1.6"/><rect x="6" y="12.46" width="0.43" height="0.08" fill="none" stroke="#111" stroke-width="1.6"/><rect x="6" y="13.32" width="0.43" height="0.09" fill="none" stroke="#111" stroke-width="1.6"/><rect x="6" y="14.19" width="0.43" height="0.09" fill="none" stroke="#111" stroke-width="1.6"/><rect x="6" y="15.06" width="0.43" height="0.08" fill="none" stroke="#111" stroke-width="1.6"/><rect x="6" y="15.92" width="0.43" height="0.09" fill="none" stroke="#111" stroke-width="1.6"/><rect x="6" y="16.79" width="0.43" height="0.09" fill="none" stroke="#111" stroke-width="1.6"/><rect x="6" y="17.66" width="0.43" height="0.08" fill="none" stroke="#111" stroke-width="1.6"/><rect x="6" y="18.52" width="0.43" height="0.09" fill="none" stroke="#111" stroke-width="1.6"/><rect x="6" y="19.39" width="0.43" height="0.09" fill="none" stroke="#111" stroke-width="1.6"/><rect x="6" y="20.26" width="0.43" height="0.08" fill="none" stroke="#111" stroke-width="1.6"/><rect x="6" y="21.12" width="0.43" height="0.09" fill="none" stroke="#111" stroke-width="1.6"/><rect x="6" y="21.99" width="0.43" height="0.09" fill="none" stroke="#111" stroke-width="1.6"/><rect x="6" y="22.86" width="0.43" height="0.08" fill="none" stroke="#111" stroke-width="1.6"/><rect x="6" y="23.72" width="0.43" height="0.09" fill="none" stroke="#111" stroke-width="1.6"/><rect x="6" y="24.59" width="0.43" height="0.09" fill="none" stroke="#111" stroke-width="1.6"/><rect x="6" y="25.46" width="0.43" height="0.08" fill="none" stroke="#111" stroke-width="1.6"/><rect x="6" y="26.32" width="0.43" height="0.09" fill="none" stroke="#111" stroke-width="1.6"/><rect x="6" y="27.19" width="0.43" height="0.09" fill="none" stroke="#111" stroke-width="1.6"/><rect x="6" y="28.06" width="0.43" height="0.08" fill="none" stroke="#111" stroke-width="1.6"/><rect x="6" y="28.92" width="0.43" height="0.09" fill="none" stroke="#111" stroke-width="1.6"/><rect x="6" y="29.79" width="0.43" height="0.09" fill="none" stroke="#111" stroke-width="1.6"/><rect x="6" y="30.66" width="0.43" height="0.08" fill="none" stroke="#111" stroke-width="1.6"/><rect x="6" y="31.52" width="0.43" height="0.09" fill="none" stroke="#111" stroke-width="1.6"/><rect x="6" y="32.39" width="0.43" height="0.09" fill="none" stroke="#111" stroke-width="1.6"/><rect x="6" y="33.26" width="0.43" height="0.08" fill="none" stroke="#111" stroke-width="1.6"/><rect x="6" y="34.12" width="0.43" height="0.09" fill="none" stroke="#111" stroke-width="1.6"/><rect x="6" y="34.99" width="0.43" height="0.09" fill="none" stroke="#111" stroke-width="1.6"/><rect x="6" y="35.86" width="0.43" height="0.08" fill="none" stroke="#111" stroke-width="1.6"/><rect x="6" y="36.72" width="0.43" height="0.09" fill="none" stroke="#111" stroke-width="1.6"/><rect x="6" y="37.59" width="0.43" height="0.09" fill="none" stroke="#111" stroke-width="1.6"/><rect x="6" y="38.46" width="0.43" height="0.08" fill="none" stroke="#111" stroke-width="1.6"/><rect x="6" y="39.32" width="0.43" height="0.09" fill="none" stroke="#111" stroke-width="1.6"/><rect x="6" y="40.19" width="0.43" height="0.09" fill="none" stroke="#111" stroke-width="1.6"/><rect x="6" y="41.06" width="0.43" height="0.08" fill="none" stroke="#111" stroke-width="1.6"/><rect x="6" y="41.92" width="0.43" height="0.09" fill="none" stroke="#111" stroke-width="1.6"/><rect x="6" y="42.79" width="0.43" height="0.09" fill="none" stroke="#111" stroke-width="1.6"/><rect x="6" y="43.66" width="0.43" height="0.08" fill="none" stroke="#111" stroke-width="1.6"/><rect x="6" y="44.52" width="0.43" height="0.09" fill="none" stroke="#111" stroke-width="1.6"/><rect x="6" y="45.39" width="0.43" height="0.09" fill="none" stroke="#111" stroke-width="1.6"/><rect x="6" y="46.26" width="0.43" height="0.08" fill="none" stroke="#111" stroke-width="1.6"/><rect x="6" y="47.12" width="0.43" height="0.09" fill="none" stroke="#111" stroke-width="1.6"/><rect x="6" y="47.99" width="0.43" height="0.09" fill="none" stroke="#111" stroke-width="1.6"/><rect x="6" y="48.86" width="0.43" height="0.08" fill="none" stroke="#111" stroke-width="1.6"/><rect x="6" y="49.72" width="0.43" height="0.09" fill="none" stroke="#111" stroke-width="1.6"/><rect x="6" y="50.59" width="0.43" height="0.09" fill="none" stroke="#111" stroke-width="1.6"/><rect x="6" y="51.46" width="0.43" height="0.08" fill="none" stroke="#111" stroke-width="1.6"/><rect x="6" y="52.32" width="0.43" height="0.09" fill="none" stroke="#111" stroke-width="1.6"/><rect x="6" y="53.19" width="0.43" height="0.09" fill="none" stroke="#111" stroke-width="1.6"/><rect x="6" y="54.06" width="0.43" height="0.08" fill="none" stroke="#111" stroke-width="1.6"/><rect x="6" y="54.92" width="0.43" height="0.09" fill="none" stroke="#111" stroke-width="1.6"/><rect x="6" y="55.79" width="0.43" height="0.09" fill="none" stroke="#111" stroke-width="1.6"/><rect x="6" y="56.66" width="0.43" height="0.08" fill="none" stroke="#111" stroke-width="1.6"/><rect x="6" y="57.52" width="0.43" height="0.09" fill="none" stroke="#111" stroke-width="1.6"/><rect x="7.3" y="6.39" width="0.43" height="0.09" fill="none" stroke="#111" stroke-width="1.6"/><rect x="7.3" y="7.26" width="0.43" height="0.08" fill="none" stroke="#111" stroke-width="1.6"/><rect x="7.3" y="8.12" width="0.43" height="0.09" fill="none" stroke="#111" stroke-width="1.6"/><rect x="7.3" y="8.99" width="0.43" height="0.09" fill="none" stroke="#111" stroke-width="1.6"/><rect x="7.3" y="9.86" width="0.43" height="0.08" fill="none" stroke="#111" stroke-width="1.6"/><rect x="7.3" y="10.72" width="0.43" height="0.09" fill="none" stroke="#111" stroke-width="1.6"/><rect x="7.3" y="11.59" width="0.43" height="0.09" fill="none" stroke="#111" stroke-width="1.6"/><rect x="7.3" y="12.46" width="0.43" height="0.08" fill="none" stroke="#111" stroke-width="1.6"/><rect x="7.3" y="13.32" width="0.43" height="0.09" fill="none" stroke="#111" stroke-width="1.6"/><rect x="7.3" y="14.19" width="0.43" height="0.09" fill="none" stroke="#111" stroke-width="1.6"/><rect x="7.3" y="15.06" width="0.43" height="0.08" fill="none" stroke="#111" stroke-width="1.6"/><rect x="7.3" y="15.92" width="0.43" height="0.09" fill="none" stroke="#111" stroke-width="1.6"/><rect x="7.3" y="16.79" width="0.43" height="0.09" fill="none" stroke="#111" stroke-width="1.6"/><rect x="7.3" y="17.66" width="0.43" height="0.08" fill="none" stroke="#111" stroke-width="1.6"/><rect x="7.3" y="18.52" width="0.43" height="0.09" fill="none" stroke="#111" stroke-width="1.6"/><rect x="7.3" y="19.39" width="0.43" height="0.09" fill="none" stroke="#111" stroke-width="1.6"/><rect x="7.3" y="20.26" width="0.43" height="0.08" fill="none" stroke="#111" stroke-width="1.6"/><rect x="7.3" y="21.12" width="0.43" height="0.09" fill="none" stroke="#111" stroke-width="1.6"/><rect x="7.3" y="21.99" width="0.43" height="0.09" fill="none" stroke="#111" stroke-width="1.6"/><rect x="7.3" y="22.86" width="0.43" height="0.08" fill="none" stroke="#111" stroke-width="1.6"/><rect x="7.3" y="23.72" width="0.43" height="0.09" fill="none" stroke="#111" stroke-width="1.6"/><rect x="7.3" y="24.59" width="0.43" height="0.09" fill="none" stroke="#111" stroke-width="1.6"/><rect x="7.3" y="25.46" width="0.43" height="0.08" fill="none" stroke="#111" stroke-width="1.6"/><rect x="7.3" y="26.32" width="0.43" height="0.09" fill="none" stroke="#111" stroke-width="1.6"/><rect x="7.3" y="27.19" width="0.43" height="0.09" fill="none" stroke="#111" stroke-width="1.6"/><rect x="7.3" y="28.06" width="0.43" height="0.08" fill="none" stroke="#111" stroke-width="1.6"/><rect x="7.3" y="28.92" width="0.43" height="0.09" fill="none" stroke="#111" stroke-width="1.6"/><rect x="7.3" y="29.79" width="0.43" height="0.09" fill="none" stroke="#111" stroke-width="1.6"/><rect x="7.3" y="30.66" width="0.43" height="0.08" fill="none" stroke="#111" stroke-width="1.6"/><rect x="7.3" y="31.52" width="0.43" height="0.09" fill="none" stroke="#111" stroke-width="1.6"/><rect x="7.3" y="32.39" width="0.43" height="0.09" fill="none" stroke="#111" stroke-width="1.6"/><rect x="7.3" y="33.26" width="0.43" height="0.08" fill="none" stroke="#111" stroke-width="1.6"/><rect x="7.3" y="34.12" width="0.43" height="0.09" fill="none" stroke="#111" stroke-width="1.6"/><rect x="7.3" y="34.99" width="0.43" height="0.09" fill="none" stroke="#111" stroke-width="1.6"/><rect x="7.3" y="35.86" width="0.43" height="0.08" fill="none" stroke="#111" stroke-width="1.6"/><rect x="7.3" y="36.72" width="0.43" height="0.09" fill="none" stroke="#111" stroke-width="1.6"/><rect x="7.3" y="37.59" width="0.43" height="0.09" fill="none" stroke="#111" stroke-width="1.6"/><rect x="7.3" y="38.46" width="0.43" height="0.08" fill="none" stroke="#111" stroke-width="1.6"/><rect x="7.3" y="39.32" width="0.43" height="0.09" fill="none" stroke="#111" stroke-width="1.6"/><rect x="7.3" y="40.19" width="0.43" height="0.09" fill="none" stroke="#111" stroke-width="1.6"/><rect x="7.3" y="41.06" width="0.43" height="0.08" fill="none" stroke="#111" stroke-width="1.6"/><rect x="7.3" y="41.92" width="0.43" height="0.09" fill="none" stroke="#111" stroke-width="1.6"/><rect x="7.3" y="42.79" width="0.43" height="0.09" fill="none" stroke="#111" stroke-width="1.6"/><rect x="7.3" y="43.66" width="0.43" height="0.08" fill="none" stroke="#111" stroke-width="1.6"/><rect x="7.3" y="44.52" width="0.43" height="0.09" fill="none" stroke="#111" stroke-width="1.6"/><rect x="7.3" y="45.39" width="0.43" height="0.09" fill="none" stroke="#111" stroke-width="1.6"/><rect x="7.3" y="46.26" width="0.43" height="0.08" fill="none" stroke="#111" stroke-width="1.6"/><rect x="7.3" y="47.12" width="0.43" height="0.09" fill="none" stroke="#111" stroke-width="1.6"/><rect x="7.3" y="47.99" width="0.43" height="0.09" fill="none" stroke="#111" stroke-width="1.6"/><rect x="7.3" y="48.86" width="0.43" height="0.08" fill="none" stroke="#111" stroke-width="1.6"/><rect x="7.3" y="49.72" width="0.43" height="0.09" fill="none" stroke="#111" stroke-width="1.6"/><rect x="7.3" y="50.59" width="0.43" height="0.09" fill="none" stroke="#111" stroke-width="1.6"/><rect x="7.3" y="51.46" width="0.43" height="0.08" fill="none" stroke="#111" stroke-width="1.6"/><rect x="7.3" y="52.32" width="0.43" height="0.09" fill="none" stroke="#111" stroke-width="1.6"/><rect x="7.3" y="53.19" width="0.43" height="0.09" fill="none" stroke="#111" stroke-width="1.6"/><rect x="7.3" y="54.06" width="0.43" height="0.08" fill="none" stroke="#111" stroke-width="1.6"/><rect x="7.3" y="54.92" width="0.43" height="0.09" fill="none" stroke="#111" stroke-width="1.6"/><rect x="7.3" y="55.79" width="0.43" height="0.09" fill="none" stroke="#111" stroke-width="1.6"/><rect x="7.3" y="56.66" width="0.43" height="0.08" fill="none" stroke="#111" stroke-width="1.6"/><rect x="7.3" y="57.52" width="0.43" height="0.09" fill="none" stroke="#111" stroke-width="1.6"/></svg>