<svg xmlns="http://www.w3.org/2000/svg" width="96" height="64" viewBox="0 0 96 64"><path d="M 6 10.91 Q 6.96 11.65 6.98 12.87" fill="none" stroke="#111" stroke-width="1.6" stroke-linecap="round"/><path d="M 6.98 7.96 Q 7.56 6.57 8.94 6" fill="none" stroke="#111" stroke-width="1.6" stroke-linecap="round"/><path d="M 8.94 6 Q 10.33 6.57 10.91 7.96" fill="none" stroke="#111" stroke-width="1.6" stroke-linecap="round"/><path d="M 8.94 9.92 Q 7.56 9.35 6.98 7.96" fill="none" stroke="#111" stroke-width="1.6" stroke-linecap="round"/><path d="M 8.94 14.83 Q 7.56 14.26 6.98 12.87" fill="none" stroke="#111" stroke-width="1.6" stroke-linecap="round"/><path d="M 10.91 12.87 Q 10.33 14.26 8.94 14.83" fill="none" stroke="#111" stroke-width="1.6" stroke-linecap="round"/><path d="M 13.85 7.96 Q 11.72 9.76 8.94 9.92" fill="none" stroke="#111" stroke-width="1.6" stroke-linecap="round"/><polyline points="10.91,12.87 10.91,7.96" fill="none" stroke="#111" stroke-width="1.6" stroke-linecap="round" stroke-linejoin="round"/><polyline points="10.91,58 10.91,40.34 8.94,46.23 12.87,46.23 10.91,40.34 10.91,42.3" fill="none" stroke="#111" stroke-width="1.6" stroke-linecap="round" stroke-linejoin="round"/><polyline points="16.79,9.92 16.79,17.77 44.26,41.32 44.26,49.17" fill="none" stroke="#111" stroke-width="1.6" stroke-linecap="round" stroke-linejoin="round"/><polyline points="16.79,58 16.79,40.34 14.83,46.23 18.75,46.23 16.79,40.34 16.79,42.3" fill="none" stroke="#111" stroke-width="1.6" stroke-linecap="round" stroke-linejoin="round"/><polyline points="30.53,11.89 30.53,9.92" fill="none" stroke="#111" stroke-width="1.6" stroke-linecap="round" stroke-linejoin="round"/><polyline points="30.53,11.89 38.38,14.83 30.53,17.77 22.68,20.72 30.53,23.66" fill="none" stroke="#111" stroke-width="1.6" stroke-linecap="round" stroke-linejoin="round"/><polyline points="30.53,23.66 38.38,26.6 30.53,29.55 22.68,32.49 30.53,35.43" fill="none" stroke="#111" stroke-width="1.6" stroke-linecap="round" stroke-linejoin="round"/><polyline points="30.53,35.43 38.38,38.38 30.53,41.32 22.68,44.26 30.53,47.21" fill="none" stroke="#111" stroke-width="1.6" stroke-linecap="round" stroke-linejoin="round"/><polyline points="30.53,47.21 30.53,49.17" fill="none" stroke="#111" stroke-width="1.6" stroke-linecap="round" stroke-linejoin="round"/></svg>