<svg xmlns="http://www.w3.org/2000/svg" width="96" height="64" viewBox="0 0 96 64"><polyline points="12.5,27.67 16.83,27.67" fill="none" stroke="#111" stroke-width="1.6" stroke-linecap="round" stroke-linejoin="round"/><path d="M 23.33 10.33 Q 14.67 18.96 6 10.33" fill="none" stroke="#111" stroke-width="1.6" stroke-linecap="round"/><circle cx="14.67" cy="10.33" r="4.33" fill="none" stroke="#111" stroke-width="1.6"/><circle cx="14.67" cy="53.67" r="4.33" fill="none" stroke="#111" stroke-width="1.6"/><path d="M 6 53.67 Q 14.67 45.04 23.33 53.67" fill="none" stroke="#111" stroke-width="1.6" stroke-linecap="round"/><polyline points="16.83,36.33 12.5,36.33" fill="none" stroke="#111" stroke-width="1.6" stroke-linecap="round" stroke-linejoin="round"/><polyline points="21.17,27.67 25.5,27.67" fill="none" stroke="#111" stroke-width="1.6" stroke-linecap="round" stroke-linejoin="round"/><polyline points="25.5,36.33 21.17,36.33" fill="none" stroke="#111" stroke-width="1.6" stroke-linecap="round" stroke-linejoin="round"/><polyline points="29.83,27.67 34.17,27.67" fill="none" stroke="#111" stroke-width="1.6" stroke-linecap="round" stroke-linejoin="round"/><path d="M 40.67 10.33 Q 32 18.96 23.33 10.33" fill="none" stroke="#111" stroke-width="1.6" stroke-linecap="round"/><path d="M 23.33 53.67 Q 32 45.04 40.67 53.67" fill="none" stroke="#111" stroke-width="1.6" stroke-linecap="round"/><polyline points="34.17,36.33 29.83,36.33" fill="none" stroke="#111" stroke-width="1.6" stroke-linecap="round" stroke-linejoin="round"/><polyline points="38.5,27.67 42.83,27.67" fill="none" stroke="#111" stroke-width="1.6" stroke-linecap="round" stroke-linejoin="round"/><polyline points="42.83,36.33 38.5,36.33" fill="none" stroke="#111" stroke-width="1.6" stroke-linecap="round" stroke-linejoin="round"/><polyline points="47.17,27.67 51.5,27.67" fill="none" stroke="#111" stroke-width="1.6" stroke-linecap="round" stroke-linejoin="round"/><path d="M 58 10.33 Q 49.33 18.96 40.67 10.33" fill="none" stroke="#111" stroke-width="1.6" stroke-linecap="round"/><path d="M 40.67 53.67 Q 49.33 45.04 58 53.67" fill="none" stroke="#111" stroke-width="1.6" stroke-linecap="round"/><polyline points="51.5,36.33 47.17,36.33" fill="none" stroke="#111" stroke-width="1.6" stroke-linecap="round" stroke-linejoin="round"/><polyline points="55.83,27.67 60.17,27.67" fill="none" stroke="#111" stroke-width="1.6" stroke-linecap="round" stroke-linejoin="round"/><polyline points="60.17,36.33 55.83,36.33" fill="none" stroke="#111" stroke-width="1.6" stroke-linecap="round" stroke-linejoin="round"/><polyline points="64.5,27.67 68.83,27.67" fill="none" stroke="#111" stroke-width="1.6" stroke-linecap="round" stroke-linejoin="round"/><path d="M 75.33 10.33 Q 66.67 18.96 58 10.33" fill="none" stroke="#111" stroke-width="1.6" stroke-linecap="round"/><path d="M 58 53.67 Q 66.67 45.04 75.33 53.67" fill="none" stroke="#111" stroke-width="1.6" stroke-linecap="round"/><polyline points="68.83,36.33 64.5,36.33" fill="none" stroke="#111" stroke-width="1.6" stroke-linecap="round" stroke-linejoin="round"/></svg>