<svg xmlns="http://www.w3.org/2000/svg" width="96" height="64" viewBox="0 0 96 64"><path d="M 19.82 12.91 Q 22.62 13.57 23.28 16.37" fill="none" stroke="#111" stroke-width="1.6" stroke-linecap="round"/><polyline points="25,14.64 21.55,18.09 28.46,21.55 25,14.64" fill="none" stroke="#111" stroke-width="1.6" stroke-linecap="round" stroke-linejoin="round"/><polyline points="34.5,28.46 50.05,28.46" fill="none" stroke="#111" stroke-width="1.6" stroke-linecap="round" stroke-linejoin="round"/><polyline points="34.5,49.19 50.05,49.19" fill="none" stroke="#111" stroke-width="1.6" stroke-linecap="round" stroke-linejoin="round"/><polyline points="42.28,21.55 42.28,28.46" fill="none" stroke="#111" stroke-width="1.6" stroke-linecap="round" stroke-linejoin="round"/><circle cx="42.28" cy="38.82" r="19.18" fill="none" stroke="#111" stroke-width="1.6"/><polyline points="42.28,49.19 42.28,56.1" fill="none" stroke="#111" stroke-width="1.6" stroke-linecap="round" stroke-linejoin="round"/><circle cx="51.78" cy="44.87" r="1.73" fill="none" stroke="#111" stroke-width="1.6"/><path d="M 6 12.91 Q 8.8 13.57 9.46 16.37" fill="none" stroke="#111" stroke-width="1.6" stroke-linecap="round"/><path d="M 12.91 19.82 Q 10.11 19.16 9.46 16.37" fill="none" stroke="#111" stroke-width="1.6" stroke-linecap="round"/><path d="M 12.91 6 Q 15.71 6.66 16.37 9.46" fill="none" stroke="#111" stroke-width="1.6" stroke-linecap="round"/><path d="M 12.91 19.82 Q 15.71 20.48 16.37 23.28" fill="none" stroke="#111" stroke-width="1.6" stroke-linecap="round"/><polyline points="18.09,21.55 14.64,25 21.55,28.46 18.09,21.55" fill="none" stroke="#111" stroke-width="1.6" stroke-linecap="round" stroke-linejoin="round"/><path d="M 19.82 12.91 Q 17.03 12.25 16.37 9.46" fill="none" stroke="#111" stroke-width="1.6" stroke-linecap="round"/></svg>