<svg xmlns="http://www.w3.org/2000/svg" width="96" height="64" viewBox="0 0 96 64"><polyline points="6,34.89 11.78,34.89" fill="none" stroke="#111" stroke-width="1.6" stroke-linecap="round" stroke-linejoin="round"/><circle cx="14.67" cy="34.89" r="2.89" fill="none" stroke="#111" stroke-width="1.6"/><polyline points="16.63,32.58 30.04,16.86" fill="none" stroke="#111" stroke-width="1.6" stroke-linecap="round" stroke-linejoin="round"/><path d="M 24.78 24.78 Q 29.81 32.85 27.67 42.11" fill="none" stroke="#111" stroke-width="1.6" stroke-linecap="round"/><polyline points="27.67,42.11 27.67,38.07" fill="none" stroke="#111" stroke-width="1.6" stroke-linecap="round" stroke-linejoin="round"/><polyline points="27.67,42.11 27.67,42.11" fill="none" stroke="#111" stroke-width="1.6" stroke-linecap="round" stroke-linejoin="round"/><polyline points="27.67,42.11 31.13,39.8" fill="none" stroke="#111" stroke-width="1.6" stroke-linecap="round" stroke-linejoin="round"/><polyline points="30.56,42.11 30.56,42.11" fill="none" stroke="#111" stroke-width="1.6" stroke-linecap="round" stroke-linejoin="round"/><circle cx="32" cy="14.67" r="2.89" fill="none" stroke="#111" stroke-width="1.6"/><circle cx="40.67" cy="23.33" r="2.89" fill="none" stroke="#111" stroke-width="1.6"/><circle cx="40.67" cy="46.44" r="2.89" fill="none" stroke="#111" stroke-width="1.6"/><circle cx="43.56" cy="34.89" r="2.89" fill="none" stroke="#111" stroke-width="1.6"/><polyline points="52.22,11.78 40.67,11.78 40.67,14.67 34.89,14.67" fill="none" stroke="#111" stroke-width="1.6" stroke-linecap="round" stroke-linejoin="round"/><polyline points="52.22,23.33 43.56,23.33" fill="none" stroke="#111" stroke-width="1.6" stroke-linecap="round" stroke-linejoin="round"/><polyline points="52.22,34.89 46.44,34.89" fill="none" stroke="#111" stroke-width="1.6" stroke-linecap="round" stroke-linejoin="round"/><polyline points="52.22,46.44 43.56,46.44" fill="none" stroke="#111" stroke-width="1.6" stroke-linecap="round" stroke-linejoin="round"/><polyline points="6,6 52.22,6 52.22,58 6,58 6,6 6,6" fill="none" stroke="#111" stroke-width="1.6" stroke-linecap="round" stroke-linejoin="round"/></svg>