<svg xmlns="http://www.w3.org/2000/svg" width="96" height="64" viewBox="0 0 96 64"><path d="M 6 15.53 Q 6.85 16.19 6.87 17.27" fill="none" stroke="#111" stroke-width="1.6" stroke-linecap="round"/><path d="M 6.87 12.93 Q 7.37 11.71 8.6 11.2" fill="none" stroke="#111" stroke-width="1.6" stroke-linecap="round"/><path d="M 8.6 11.2 Q 9.83 11.71 10.33 12.93" fill="none" stroke="#111" stroke-width="1.6" stroke-linecap="round"/><path d="M 8.6 14.67 Q 7.37 14.16 6.87 12.93" fill="none" stroke="#111" stroke-width="1.6" stroke-linecap="round"/><path d="M 8.6 19 Q 7.37 18.49 6.87 17.27" fill="none" stroke="#111" stroke-width="1.6" stroke-linecap="round"/><path d="M 10.33 17.27 Q 9.83 18.49 8.6 19" fill="none" stroke="#111" stroke-width="1.6" stroke-linecap="round"/><path d="M 12.93 12.93 Q 11.06 14.52 8.6 14.67" fill="none" stroke="#111" stroke-width="1.6" stroke-linecap="round"/><polyline points="10.33,17.27 10.33,12.93" fill="none" stroke="#111" stroke-width="1.6" stroke-linecap="round" stroke-linejoin="round"/><polyline points="10.33,57.13 10.33,41.53 8.6,46.73 12.07,46.73 10.33,41.53 10.33,43.27" fill="none" stroke="#111" stroke-width="1.6" stroke-linecap="round" stroke-linejoin="round"/><polyline points="15.53,14.67 15.53,21.6 39.8,42.4 39.8,49.33" fill="none" stroke="#111" stroke-width="1.6" stroke-linecap="round" stroke-linejoin="round"/><polyline points="15.53,41.53 15.53,57.13 13.8,51.93 17.27,51.93 15.53,57.13 15.53,55.4" fill="none" stroke="#111" stroke-width="1.6" stroke-linecap="round" stroke-linejoin="round"/><rect x="20.73" y="14.67" width="13.87" height="34.66" fill="none" stroke="#111" stroke-width="1.6"/><polyline points="27.67,6 27.67,14.67" fill="none" stroke="#111" stroke-width="1.6" stroke-linecap="round" stroke-linejoin="round"/><circle cx="27.67" cy="10.33" r="1.91" fill="none" stroke="#111" stroke-width="1.6"/><polyline points="27.67,58 27.67,49.33" fill="none" stroke="#111" stroke-width="1.6" stroke-linecap="round" stroke-linejoin="round"/><polyline points="45,6 32,6 27.67,10.33" fill="none" stroke="#111" stroke-width="1.6" stroke-linecap="round" stroke-linejoin="round"/></svg>