<svg xmlns="http://www.w3.org/2000/svg" width="96" height="64" viewBox="0 0 96 64"><rect x="6" y="6" width="84" height="21" fill="none" stroke="#111" stroke-width="1.6"/><circle cx="10.2" cy="8.94" r="0.84" fill="none" stroke="#111" stroke-width="1.6"/><polyline points="10.2,8.94 85.8,8.94" fill="none" stroke="#111" stroke-width="1.6" stroke-linecap="round" stroke-linejoin="round"/><polyline points="10.2,8.94 10.2,11.46 12.72,12.64 7.68,14.82 12.72,17 7.68,19.27 12.72,21.54 7.68,23.72 10.2,24.9 10.2,29.1" fill="none" stroke="#111" stroke-width="1.6" stroke-linecap="round" stroke-linejoin="round"/><circle cx="18.6" cy="8.94" r="0.84" fill="none" stroke="#111" stroke-width="1.6"/><polyline points="18.6,8.94 18.6,11.46 21.12,12.64 16.08,14.82 21.12,17 16.08,19.27 21.12,21.54 16.08,23.72 18.6,24.9 18.6,29.1" fill="none" stroke="#111" stroke-width="1.6" stroke-linecap="round" stroke-linejoin="round"/><circle cx="27" cy="8.94" r="0.84" fill="none" stroke="#111" stroke-width="1.6"/><polyline points="27,8.94 27,11.46 29.52,12.64 24.48,14.82 29.52,17 24.48,19.27 29.52,21.54 24.48,23.72 27,24.9 27,29.1" fill="none" stroke="#111" stroke-width="1.6" stroke-linecap="round" stroke-linejoin="round"/><circle cx="35.4" cy="8.94" r="0.84" fill="none" stroke="#111" stroke-width="1.6"/><polyline points="35.4,8.94 35.4,11.46 37.92,12.64 32.88,14.82 37.92,17 32.88,19.27 37.92,21.54 32.88,23.72 35.4,24.9 35.4,29.1" fill="none" stroke="#111" stroke-width="1.6" stroke-linecap="round" stroke-linejoin="round"/><circle cx="43.8" cy="8.94" r="0.84" fill="none" stroke="#111" stroke-width="1.6"/><polyline points="43.8,8.94 43.8,11.46 46.32,12.64 41.28,14.82 46.32,17 41.28,19.27 46.32,21.54 41.28,23.72 43.8,24.9 43.8,29.1" fill="none" stroke="#111" stroke-width="1.6" stroke-linecap="round" stroke-linejoin="round"/><circle cx="52.2" cy="8.94" r="0.84" fill="none" stroke="#111" stroke-width="1.6"/><polyline points="52.2,8.94 52.2,11.46 54.72,12.64 49.68,14.82 54.72,17 49.68,19.27 54.72,21.54 49.68,23.72 52.2,24.9 52.2,29.1" fill="none" stroke="#111" stroke-width="1.6" stroke-linecap="round" stroke-linejoin="round"/><polyline points="60.6,8.94 60.6,11.46 63.12,12.64 58.08,14.82 63.12,17 58.08,19.27 63.12,21.54 58.08,23.72 60.6,24.9 60.6,29.1" fill="none" stroke="#111" stroke-width="1.6" stroke-linecap="round" stroke-linejoin="round"/><circle cx="60.6" cy="8.94" r="0.84" fill="none" stroke="#111" stroke-width="1.6"/><polyline points="69,8.94 69,11.46 71.52,12.64 66.48,14.82 71.52,17 66.48,19.27 71.52,21.54 66.48,23.72 69,24.9 69,29.1" fill="none" stroke="#111" stroke-width="1.6" stroke-linecap="round" stroke-linejoin="round"/><circle cx="69" cy="8.94" r="0.84" fill="none" stroke="#111" stroke-width="1.6"/><polyline points="77.4,8.94 77.4,11.46 79.92,12.64 74.88,14.82 79.92,17 74.88,19.27 79.92,21.54 74.88,23.72 77.4,24.9 77.4,29.1" fill="none" stroke="#111" stroke-width="1.6" stroke-linecap="round" stroke-linejoin="round"/><circle cx="77.4" cy="8.94" r="0.84" fill="none" stroke="#111" stroke-width="1.6"/><polyline points="85.8,8.94 85.8,11.46 88.32,12.64 83.28,14.82 88.32,17 83.28,19.27 88.32,21.54 83.28,23.72 85.8,24.9 85.8,29.1" fill="none" stroke="#111" stroke-width="1.6" stroke-linecap="round" stroke-linejoin="round"/></svg>