<svg xmlns="http://www.w3.org/2000/svg" width="96" height="64" viewBox="0 0 96 64"><polyline points="6,6.2 6.3,6.2" fill="none" stroke="#111" stroke-width="1.6" stroke-linecap="round" stroke-linejoin="round"/><polyline points="6,7.21 6.3,7.21" fill="none" stroke="#111" stroke-width="1.6" stroke-linecap="round" stroke-linejoin="round"/><polyline points="6,8.23 6.3,8.23" fill="none" stroke="#111" stroke-width="1.6" stroke-linecap="round" stroke-linejoin="round"/><polyline points="6,9.24 6.3,9.24" fill="none" stroke="#111" stroke-width="1.6" stroke-linecap="round" stroke-linejoin="round"/><polyline points="6,10.25 6.3,10.25" fill="none" stroke="#111" stroke-width="1.6" stroke-linecap="round" stroke-linejoin="round"/><polyline points="6,11.26 6.3,11.26" fill="none" stroke="#111" stroke-width="1.6" stroke-linecap="round" stroke-linejoin="round"/><polyline points="6,12.27 6.3,12.27" fill="none" stroke="#111" stroke-width="1.6" stroke-linecap="round" stroke-linejoin="round"/><polyline points="6,13.28 6.3,13.28" fill="none" stroke="#111" stroke-width="1.6" stroke-linecap="round" stroke-linejoin="round"/><polyline points="6,14.3 6.3,14.3" fill="none" stroke="#111" stroke-width="1.6" stroke-linecap="round" stroke-linejoin="round"/><polyline points="6,15.31 6.3,15.31" fill="none" stroke="#111" stroke-width="1.6" stroke-linecap="round" stroke-linejoin="round"/><polyline points="6,16.32 6.3,16.32" fill="none" stroke="#111" stroke-width="1.6" stroke-linecap="round" stroke-linejoin="round"/><polyline points="6,17.33 6.3,17.33" fill="none" stroke="#111" stroke-width="1.6" stroke-linecap="round" stroke-linejoin="round"/><polyline points="6,18.34 6.3,18.34" fill="none" stroke="#111" stroke-width="1.6" stroke-linecap="round" stroke-linejoin="round"/><polyline points="6,19.35 6.3,19.35" fill="none" stroke="#111" stroke-width="1.6" stroke-linecap="round" stroke-linejoin="round"/><polyline points="6,20.37 6.3,20.37" fill="none" stroke="#111" stroke-width="1.6" stroke-linecap="round" stroke-linejoin="round"/><polyline points="6,21.38 6.3,21.38" fill="none" stroke="#111" stroke-width="1.6" stroke-linecap="round" stroke-linejoin="round"/><polyline points="6,22.39 6.3,22.39" fill="none" stroke="#111" stroke-width="1.6" stroke-linecap="round" stroke-linejoin="round"/><polyline points="6,23.4 6.3,23.4" fill="none" stroke="#111" stroke-width="1.6" stroke-linecap="round" stroke-linejoin="round"/><polyline points="6,24.41 6.3,24.41" fill="none" stroke="#111" stroke-width="1.6" stroke-linecap="round" stroke-linejoin="round"/><polyline points="6,25.42 6.3,25.42" fill="none" stroke="#111" stroke-width="1.6" stroke-linecap="round" stroke-linejoin="round"/><polyline points="6,26.44 6.3,26.44" fill="none" stroke="#111" stroke-width="1.6" stroke-linecap="round" stroke-linejoin="round"/><polyline points="6,27.45 6.3,27.45" fill="none" stroke="#111" stroke-width="1.6" stroke-linecap="round" stroke-linejoin="round"/><polyline points="6,28.46 6.3,28.46" fill="none" stroke="#111" stroke-width="1.6" stroke-linecap="round" stroke-linejoin="round"/><polyline points="6,29.47 6.3,29.47" fill="none" stroke="#111" stroke-width="1.6" stroke-linecap="round" stroke-linejoin="round"/><polyline points="6,30.48 6.3,30.48" fill="none" stroke="#111" stroke-width="1.6" stroke-linecap="round" stroke-linejoin="round"/><polyline points="6,31.49 6.3,31.49" fill="none" stroke="#111" stroke-width="1.6" stroke-linecap="round" stroke-linejoin="round"/><polyline points="6,32.51 6.3,32.51" fill="none" stroke="#111" stroke-width="1.6" stroke-linecap="round" stroke-linejoin="round"/><polyline points="6,33.52 6.3,33.52" fill="none" stroke="#111" stroke-width="1.6" stroke-linecap="round" stroke-linejoin="round"/><polyline points="6,34.53 6.3,34.53" fill="none" stroke="#111" stroke-width="1.6" stroke-linecap="round" stroke-linejoin="round"/><polyline points="6,35.54 6.3,35.54" fill="none" stroke="#111" stroke-width="1.6" stroke-linecap="round" stroke-linejoin="round"/><polyline points="6,36.55 6.3,36.55" fill="none" stroke="#111" stroke-width="1.6" stroke-linecap="round" stroke-linejoin="round"/><polyline points="6,37.56 6.3,37.56" fill="none" stroke="#111" stroke-width="1.6" stroke-linecap="round" stroke-linejoin="round"/><polyline points="6,38.58 6.3,38.58" fill="none" stroke="#111" stroke-width="1.6" stroke-linecap="round" stroke-linejoin="round"/><polyline points="6,39.59 6.3,39.59" fill="none" stroke="#111" stroke-width="1.6" stroke-linecap="round" stroke-linejoin="round"/><polyline points="6,40.6 6.3,40.6" fill="none" stroke="#111" stroke-width="1.6" stroke-linecap="round" stroke-linejoin="round"/><polyline points="6,41.61 6.3,41.61" fill="none" stroke="#111" stroke-width="1.6" stroke-linecap="round" stroke-linejoin="round"/><polyline points="6,42.62 6.3,42.62" fill="none" stroke="#111" stroke-width="1.6" stroke-linecap="round" stroke-linejoin="round"/><polyline points="6,43.63 6.3,43.63" fill="none" stroke="#111" stroke-width="1.6" stroke-linecap="round" stroke-linejoin="round"/><polyline points="6,44.65 6.3,44.65" fill="none" stroke="#111" stroke-width="1.6" stroke-linecap="round" stroke-linejoin="round"/><polyline points="6,45.66 6.3,45.66" fill="none" stroke="#111" stroke-width="1.6" stroke-linecap="round" stroke-linejoin="round"/><polyline points="6,46.67 6.3,46.67" fill="none" stroke="#111" stroke-width="1.6" stroke-linecap="round" stroke-linejoin="round"/><polyline points="6,47.68 6.3,47.68" fill="none" stroke="#111" stroke-width="1.6" stroke-linecap="round" stroke-linejoin="round"/><polyline points="6,48.69 6.3,48.69" fill="none" stroke="#111" stroke-width="1.6" stroke-linecap="round" stroke-linejoin="round"/><polyline points="6,49.7 6.3,49.7" fill="none" stroke="#111" stroke-width="1.6" stroke-linecap="round" stroke-linejoin="round"/><polyline points="6,50.72 6.3,50.72" fill="none" stroke="#111" stroke-width="1.6" stroke-linecap="round" stroke-linejoin="round"/><polyline points="6,51.73 6.3,51.73" fill="none" stroke="#111" stroke-width="1.6" stroke-linecap="round" stroke-linejoin="round"/><polyline points="6,52.74 6.3,52.74" fill="none" stroke="#111" stroke-width="1.6" stroke-linecap="round" stroke-linejoin="round"/><polyline points="6,53.75 6.3,53.75" fill="none" stroke="#111" stroke-width="1.6" stroke-linecap="round" stroke-linejoin="round"/><polyline points="6,54.76 6.3,54.76" fill="none" stroke="#111" stroke-width="1.6" stroke-linecap="round" stroke-linejoin="round"/><polyline points="6,55.77 6.3,55.77" fill="none" stroke="#111" stroke-width="1.6" stroke-linecap="round" stroke-linejoin="round"/><polyline points="6,56.79 6.3,56.79" fill="none" stroke="#111" stroke-width="1.6" stroke-linecap="round" stroke-linejoin="round"/><polyline points="6,57.8 6.3,57.8" fill="none" stroke="#111" stroke-width="1.6" stroke-linecap="round" stroke-linejoin="round"/><path d="M 6.51 6.4 Q 6.3 6.2 6.51 6" fill="none" stroke="#111" stroke-width="1.6" stroke-linecap="round"/><path d="M 6.51 7.42 Q 6.3 7.21 6.51 7.01" fill="none" stroke="#111" stroke-width="1.6" stroke-linecap="round"/><path d="M 6.51 8.43 Q 6.3 8.23 6.51 8.02" fill="none" stroke="#111" stroke-width="1.6" stroke-linecap="round"/><path d="M 6.51 9.44 Q 6.3 9.24 6.51 9.04" fill="none" stroke="#111" stroke-width="1.6" stroke-linecap="round"/><path d="M 6.51 10.45 Q 6.3 10.25 6.51 10.05" fill="none" stroke="#111" stroke-width="1.6" stroke-linecap="round"/><path d="M 6.51 11.46 Q 6.3 11.26 6.51 11.06" fill="none" stroke="#111" stroke-width="1.6" stroke-linecap="round"/><path d="M 6.51 12.47 Q 6.3 12.27 6.51 12.07" fill="none" stroke="#111" stroke-width="1.6" stroke-linecap="round"/><path d="M 6.51 13.49 Q 6.3 13.28 6.51 13.08" fill="none" stroke="#111" stroke-width="1.6" stroke-linecap="round"/><path d="M 6.51 14.5 Q 6.3 14.3 6.51 14.09" fill="none" stroke="#111" stroke-width="1.6" stroke-linecap="round"/><path d="M 6.51 15.51 Q 6.3 15.31 6.51 15.11" fill="none" stroke="#111" stroke-width="1.6" stroke-linecap="round"/><path d="M 6.51 16.52 Q 6.3 16.32 6.51 16.12" fill="none" stroke="#111" stroke-width="1.6" stroke-linecap="round"/><path d="M 6.51 17.53 Q 6.3 17.33 6.51 17.13" fill="none" stroke="#111" stroke-width="1.6" stroke-linecap="round"/><path d="M 6.51 18.54 Q 6.3 18.34 6.51 18.14" fill="none" stroke="#111" stroke-width="1.6" stroke-linecap="round"/><path d="M 6.51 19.56 Q 6.3 19.35 6.51 19.15" fill="none" stroke="#111" stroke-width="1.6" stroke-linecap="round"/><path d="M 6.51 20.57 Q 6.3 20.37 6.51 20.16" fill="none" stroke="#111" stroke-width="1.6" stroke-linecap="round"/><path d="M 6.51 21.58 Q 6.3 21.38 6.51 21.18" fill="none" stroke="#111" stroke-width="1.6" stroke-linecap="round"/><path d="M 6.51 22.59 Q 6.3 22.39 6.51 22.19" fill="none" stroke="#111" stroke-width="1.6" stroke-linecap="round"/><path d="M 6.51 23.6 Q 6.3 23.4 6.51 23.2" fill="none" stroke="#111" stroke-width="1.6" stroke-linecap="round"/><path d="M 6.51 24.61 Q 6.3 24.41 6.51 24.21" fill="none" stroke="#111" stroke-width="1.6" stroke-linecap="round"/><path d="M 6.51 25.63 Q 6.3 25.42 6.51 25.22" fill="none" stroke="#111" stroke-width="1.6" stroke-linecap="round"/><path d="M 6.51 26.64 Q 6.3 26.44 6.51 26.23" fill="none" stroke="#111" stroke-width="1.6" stroke-linecap="round"/><path d="M 6.51 27.65 Q 6.3 27.45 6.51 27.25" fill="none" stroke="#111" stroke-width="1.6" stroke-linecap="round"/><path d="M 6.51 28.66 Q 6.3 28.46 6.51 28.26" fill="none" stroke="#111" stroke-width="1.6" stroke-linecap="round"/><path d="M 6.51 29.67 Q 6.3 29.47 6.51 29.27" fill="none" stroke="#111" stroke-width="1.6" stroke-linecap="round"/><path d="M 6.51 30.68 Q 6.3 30.48 6.51 30.28" fill="none" stroke="#111" stroke-width="1.6" stroke-linecap="round"/><path d="M 6.51 31.7 Q 6.3 31.49 6.51 31.29" fill="none" stroke="#111" stroke-width="1.6" stroke-linecap="round"/><path d="M 6.51 32.71 Q 6.3 32.51 6.51 32.3" fill="none" stroke="#111" stroke-width="1.6" stroke-linecap="round"/><path d="M 6.51 33.72 Q 6.3 33.52 6.51 33.32" fill="none" stroke="#111" stroke-width="1.6" stroke-linecap="round"/><path d="M 6.51 34.73 Q 6.3 34.53 6.51 34.33" fill="none" stroke="#111" stroke-width="1.6" stroke-linecap="round"/><path d="M 6.51 35.74 Q 6.3 35.54 6.51 35.34" fill="none" stroke="#111" stroke-width="1.6" stroke-linecap="round"/><path d="M 6.51 36.75 Q 6.3 36.55 6.51 36.35" fill="none" stroke="#111" stroke-width="1.6" stroke-linecap="round"/><path d="M 6.51 37.77 Q 6.3 37.56 6.51 37.36" fill="none" stroke="#111" stroke-width="1.6" stroke-linecap="round"/><path d="M 6.51 38.78 Q 6.3 38.58 6.51 38.37" fill="none" stroke="#111" stroke-width="1.6" stroke-linecap="round"/><path d="M 6.51 39.79 Q 6.3 39.59 6.51 39.39" fill="none" stroke="#111" stroke-width="1.6" stroke-linecap="round"/><path d="M 6.51 40.8 Q 6.3 40.6 6.51 40.4" fill="none" stroke="#111" stroke-width="1.6" stroke-linecap="round"/><path d="M 6.51 41.81 Q 6.3 41.61 6.51 41.41" fill="none" stroke="#111" stroke-width="1.6" stroke-linecap="round"/><path d="M 6.51 42.82 Q 6.3 42.62 6.51 42.42" fill="none" stroke="#111" stroke-width="1.6" stroke-linecap="round"/><path d="M 6.51 43.84 Q 6.3 43.63 6.51 43.43" fill="none" stroke="#111" stroke-width="1.6" stroke-linecap="round"/><path d="M 6.51 44.85 Q 6.3 44.65 6.51 44.44" fill="none" stroke="#111" stroke-width="1.6" stroke-linecap="round"/><path d="M 6.51 45.86 Q 6.3 45.66 6.51 45.46" fill="none" stroke="#111" stroke-width="1.6" stroke-linecap="round"/><path d="M 6.51 46.87 Q 6.3 46.67 6.51 46.47" fill="none" stroke="#111" stroke-width="1.6" stroke-linecap="round"/><path d="M 6.51 47.88 Q 6.3 47.68 6.51 47.48" fill="none" stroke="#111" stroke-width="1.6" stroke-linecap="round"/><path d="M 6.51 48.89 Q 6.3 48.69 6.51 48.49" fill="none" stroke="#111" stroke-width="1.6" stroke-linecap="round"/><path d="M 6.51 49.91 Q 6.3 49.7 6.51 49.5" fill="none" stroke="#111" stroke-width="1.6" stroke-linecap="round"/><path d="M 6.51 50.92 Q 6.3 50.72 6.51 50.51" fill="none" stroke="#111" stroke-width="1.6" stroke-linecap="round"/><path d="M 6.51 51.93 Q 6.3 51.73 6.51 51.53" fill="none" stroke="#111" stroke-width="1.6" stroke-linecap="round"/><path d="M 6.51 52.94 Q 6.3 52.74 6.51 52.54" fill="none" stroke="#111" stroke-width="1.6" stroke-linecap="round"/><path d="M 6.51 53.95 Q 6.3 53.75 6.51 53.55" fill="none" stroke="#111" stroke-width="1.6" stroke-linecap="round"/><path d="M 6.51 54.96 Q 6.3 54.76 6.51 54.56" fill="none" stroke="#111" stroke-width="1.6" stroke-linecap="round"/><path d="M 6.51 55.98 Q 6.3 55.77 6.51 55.57" fill="none" stroke="#111" stroke-width="1.6" stroke-linecap="round"/><path d="M 6.51 56.99 Q 6.3 56.79 6.51 56.58" fill="none" stroke="#111" stroke-width="1.6" stroke-linecap="round"/><path d="M 6.51 58 Q 6.3 57.8 6.51 57.6" fill="none" stroke="#111" stroke-width="1.6" stroke-linecap="round"/></svg>