<svg xmlns="http://www.w3.org/2000/svg" width="96" height="64" viewBox="0 0 96 64"><rect x="6" y="6" width="3.55" height="51.47" fill="none" stroke="#111" stroke-width="1.6"/><rect x="6" y="6.8" width="0.89" height="0.18" fill="none" stroke="#111" stroke-width="1.6"/><rect x="6" y="8.57" width="0.89" height="0.18" fill="none" stroke="#111" stroke-width="1.6"/><rect x="6" y="10.35" width="0.89" height="0.18" fill="none" stroke="#111" stroke-width="1.6"/><rect x="6" y="12.12" width="0.89" height="0.18" fill="none" stroke="#111" stroke-width="1.6"/><rect x="6" y="13.9" width="0.89" height="0.18" fill="none" stroke="#111" stroke-width="1.6"/><rect x="6" y="15.67" width="0.89" height="0.18" fill="none" stroke="#111" stroke-width="1.6"/><rect x="6" y="17.45" width="0.89" height="0.17" fill="none" stroke="#111" stroke-width="1.6"/><rect x="6" y="19.22" width="0.89" height="0.18" fill="none" stroke="#111" stroke-width="1.6"/><rect x="6" y="21" width="0.89" height="0.17" fill="none" stroke="#111" stroke-width="1.6"/><rect x="6" y="22.77" width="0.89" height="0.18" fill="none" stroke="#111" stroke-width="1.6"/><rect x="6" y="24.55" width="0.89" height="0.17" fill="none" stroke="#111" stroke-width="1.6"/><rect x="6" y="26.32" width="0.89" height="0.18" fill="none" stroke="#111" stroke-width="1.6"/><rect x="6" y="28.1" width="0.89" height="0.17" fill="none" stroke="#111" stroke-width="1.6"/><rect x="6" y="29.87" width="0.89" height="0.18" fill="none" stroke="#111" stroke-width="1.6"/><rect x="6" y="31.65" width="0.89" height="0.17" fill="none" stroke="#111" stroke-width="1.6"/><rect x="6" y="33.42" width="0.89" height="0.18" fill="none" stroke="#111" stroke-width="1.6"/><rect x="6" y="35.19" width="0.89" height="0.18" fill="none" stroke="#111" stroke-width="1.6"/><rect x="6" y="36.97" width="0.89" height="0.18" fill="none" stroke="#111" stroke-width="1.6"/><rect x="6" y="38.74" width="0.89" height="0.18" fill="none" stroke="#111" stroke-width="1.6"/><rect x="6" y="40.52" width="0.89" height="0.18" fill="none" stroke="#111" stroke-width="1.6"/><rect x="6" y="42.29" width="0.89" height="0.18" fill="none" stroke="#111" stroke-width="1.6"/><rect x="6" y="44.07" width="0.89" height="0.18" fill="none" stroke="#111" stroke-width="1.6"/><rect x="6" y="45.84" width="0.89" height="0.18" fill="none" stroke="#111" stroke-width="1.6"/><rect x="6" y="47.62" width="0.89" height="0.18" fill="none" stroke="#111" stroke-width="1.6"/><rect x="6" y="49.39" width="0.89" height="0.18" fill="none" stroke="#111" stroke-width="1.6"/><rect x="6" y="51.17" width="0.89" height="0.17" fill="none" stroke="#111" stroke-width="1.6"/><rect x="6" y="52.94" width="0.89" height="0.18" fill="none" stroke="#111" stroke-width="1.6"/><rect x="6" y="54.72" width="0.89" height="0.17" fill="none" stroke="#111" stroke-width="1.6"/><rect x="6" y="56.49" width="0.89" height="0.18" fill="none" stroke="#111" stroke-width="1.6"/><polyline points="7.06,58 8.48,58" fill="none" stroke="#111" stroke-width="1.6" stroke-linecap="round" stroke-linejoin="round"/><rect x="8.66" y="6.8" width="0.89" height="0.18" fill="none" stroke="#111" stroke-width="1.6"/><rect x="8.66" y="8.57" width="0.89" height="0.18" fill="none" stroke="#111" stroke-width="1.6"/><rect x="8.66" y="10.35" width="0.89" height="0.18" fill="none" stroke="#111" stroke-width="1.6"/><rect x="8.66" y="12.12" width="0.89" height="0.18" fill="none" stroke="#111" stroke-width="1.6"/><rect x="8.66" y="13.9" width="0.89" height="0.18" fill="none" stroke="#111" stroke-width="1.6"/><rect x="8.66" y="15.67" width="0.89" height="0.18" fill="none" stroke="#111" stroke-width="1.6"/><rect x="8.66" y="17.45" width="0.89" height="0.17" fill="none" stroke="#111" stroke-width="1.6"/><rect x="8.66" y="19.22" width="0.89" height="0.18" fill="none" stroke="#111" stroke-width="1.6"/><rect x="8.66" y="21" width="0.89" height="0.17" fill="none" stroke="#111" stroke-width="1.6"/><rect x="8.66" y="22.77" width="0.89" height="0.18" fill="none" stroke="#111" stroke-width="1.6"/><rect x="8.66" y="24.55" width="0.89" height="0.17" fill="none" stroke="#111" stroke-width="1.6"/><rect x="8.66" y="26.32" width="0.89" height="0.18" fill="none" stroke="#111" stroke-width="1.6"/><rect x="8.66" y="28.1" width="0.89" height="0.17" fill="none" stroke="#111" stroke-width="1.6"/><rect x="8.66" y="29.87" width="0.89" height="0.18" fill="none" stroke="#111" stroke-width="1.6"/><rect x="8.66" y="31.65" width="0.89" height="0.17" fill="none" stroke="#111" stroke-width="1.6"/><rect x="8.66" y="33.42" width="0.89" height="0.18" fill="none" stroke="#111" stroke-width="1.6"/><rect x="8.66" y="35.19" width="0.89" height="0.18" fill="none" stroke="#111" stroke-width="1.6"/><rect x="8.66" y="36.97" width="0.89" height="0.18" fill="none" stroke="#111" stroke-width="1.6"/><rect x="8.66" y="38.74" width="0.89" height="0.18" fill="none" stroke="#111" stroke-width="1.6"/><rect x="8.66" y="40.52" width="0.89" height="0.18" fill="none" stroke="#111" stroke-width="1.6"/><rect x="8.66" y="42.29" width="0.89" height="0.18" fill="none" stroke="#111" stroke-width="1.6"/><rect x="8.66" y="44.07" width="0.89" height="0.18" fill="none" stroke="#111" stroke-width="1.6"/><rect x="8.66" y="45.84" width="0.89" height="0.18" fill="none" stroke="#111" stroke-width="1.6"/><rect x="8.66" y="47.62" width="0.89" height="0.18" fill="none" stroke="#111" stroke-width="1.6"/><rect x="8.66" y="49.39" width="0.89" height="0.18" fill="none" stroke="#111" stroke-width="1.6"/><rect x="8.66" y="51.17" width="0.89" height="0.17" fill="none" stroke="#111" stroke-width="1.6"/><rect x="8.66" y="52.94" width="0.89" height="0.18" fill="none" stroke="#111" stroke-width="1.6"/><rect x="8.66" y="54.72" width="0.89" height="0.17" fill="none" stroke="#111" stroke-width="1.6"/><rect x="8.66" y="56.49" width="0.89" height="0.18" fill="none" stroke="#111" stroke-width="1.6"/></svg>