<svg xmlns="http://www.w3.org/2000/svg" width="96" height="64" viewBox="0 0 96 64"><polyline points="6,6.39 6.59,6.39" fill="none" stroke="#111" stroke-width="1.6" stroke-linecap="round" stroke-linejoin="round"/><polyline points="6,8.36 6.59,8.36" fill="none" stroke="#111" stroke-width="1.6" stroke-linecap="round" stroke-linejoin="round"/><polyline points="6,10.33 6.59,10.33" fill="none" stroke="#111" stroke-width="1.6" stroke-linecap="round" stroke-linejoin="round"/><polyline points="6,12.3 6.59,12.3" fill="none" stroke="#111" stroke-width="1.6" stroke-linecap="round" stroke-linejoin="round"/><polyline points="6,14.27 6.59,14.27" fill="none" stroke="#111" stroke-width="1.6" stroke-linecap="round" stroke-linejoin="round"/><polyline points="6,16.24 6.59,16.24" fill="none" stroke="#111" stroke-width="1.6" stroke-linecap="round" stroke-linejoin="round"/><polyline points="6,18.21 6.59,18.21" fill="none" stroke="#111" stroke-width="1.6" stroke-linecap="round" stroke-linejoin="round"/><polyline points="6,20.18 6.59,20.18" fill="none" stroke="#111" stroke-width="1.6" stroke-linecap="round" stroke-linejoin="round"/><polyline points="6,22.15 6.59,22.15" fill="none" stroke="#111" stroke-width="1.6" stroke-linecap="round" stroke-linejoin="round"/><polyline points="6,24.12 6.59,24.12" fill="none" stroke="#111" stroke-width="1.6" stroke-linecap="round" stroke-linejoin="round"/><polyline points="6,26.09 6.59,26.09" fill="none" stroke="#111" stroke-width="1.6" stroke-linecap="round" stroke-linejoin="round"/><polyline points="6,28.06 6.59,28.06" fill="none" stroke="#111" stroke-width="1.6" stroke-linecap="round" stroke-linejoin="round"/><polyline points="6,30.03 6.59,30.03" fill="none" stroke="#111" stroke-width="1.6" stroke-linecap="round" stroke-linejoin="round"/><polyline points="6,32 6.59,32" fill="none" stroke="#111" stroke-width="1.6" stroke-linecap="round" stroke-linejoin="round"/><polyline points="6,33.97 6.59,33.97" fill="none" stroke="#111" stroke-width="1.6" stroke-linecap="round" stroke-linejoin="round"/><polyline points="6,35.94 6.59,35.94" fill="none" stroke="#111" stroke-width="1.6" stroke-linecap="round" stroke-linejoin="round"/><polyline points="6,37.91 6.59,37.91" fill="none" stroke="#111" stroke-width="1.6" stroke-linecap="round" stroke-linejoin="round"/><polyline points="6,39.88 6.59,39.88" fill="none" stroke="#111" stroke-width="1.6" stroke-linecap="round" stroke-linejoin="round"/><polyline points="6,41.85 6.59,41.85" fill="none" stroke="#111" stroke-width="1.6" stroke-linecap="round" stroke-linejoin="round"/><polyline points="6,43.82 6.59,43.82" fill="none" stroke="#111" stroke-width="1.6" stroke-linecap="round" stroke-linejoin="round"/><polyline points="6,45.79 6.59,45.79" fill="none" stroke="#111" stroke-width="1.6" stroke-linecap="round" stroke-linejoin="round"/><polyline points="6,47.76 6.59,47.76" fill="none" stroke="#111" stroke-width="1.6" stroke-linecap="round" stroke-linejoin="round"/><polyline points="6,49.73 6.59,49.73" fill="none" stroke="#111" stroke-width="1.6" stroke-linecap="round" stroke-linejoin="round"/><polyline points="6,51.7 6.59,51.7" fill="none" stroke="#111" stroke-width="1.6" stroke-linecap="round" stroke-linejoin="round"/><polyline points="6,53.67 6.59,53.67" fill="none" stroke="#111" stroke-width="1.6" stroke-linecap="round" stroke-linejoin="round"/><polyline points="6,55.64 6.59,55.64" fill="none" stroke="#111" stroke-width="1.6" stroke-linecap="round" stroke-linejoin="round"/><polyline points="6,57.61 6.59,57.61" fill="none" stroke="#111" stroke-width="1.6" stroke-linecap="round" stroke-linejoin="round"/><path d="M 6.98 6.79 Q 6.59 6.39 6.98 6" fill="none" stroke="#111" stroke-width="1.6" stroke-linecap="round"/><path d="M 6.98 8.76 Q 6.59 8.36 6.98 7.97" fill="none" stroke="#111" stroke-width="1.6" stroke-linecap="round"/><path d="M 6.98 10.73 Q 6.59 10.33 6.98 9.94" fill="none" stroke="#111" stroke-width="1.6" stroke-linecap="round"/><path d="M 6.98 12.7 Q 6.59 12.3 6.98 11.91" fill="none" stroke="#111" stroke-width="1.6" stroke-linecap="round"/><path d="M 6.98 14.67 Q 6.59 14.27 6.98 13.88" fill="none" stroke="#111" stroke-width="1.6" stroke-linecap="round"/><path d="M 6.98 16.64 Q 6.59 16.24 6.98 15.85" fill="none" stroke="#111" stroke-width="1.6" stroke-linecap="round"/><path d="M 6.98 18.61 Q 6.59 18.21 6.98 17.82" fill="none" stroke="#111" stroke-width="1.6" stroke-linecap="round"/><path d="M 6.98 20.58 Q 6.59 20.18 6.98 19.79" fill="none" stroke="#111" stroke-width="1.6" stroke-linecap="round"/><path d="M 6.98 22.55 Q 6.59 22.15 6.98 21.76" fill="none" stroke="#111" stroke-width="1.6" stroke-linecap="round"/><path d="M 6.98 24.52 Q 6.59 24.12 6.98 23.73" fill="none" stroke="#111" stroke-width="1.6" stroke-linecap="round"/><path d="M 6.98 26.48 Q 6.59 26.09 6.98 25.7" fill="none" stroke="#111" stroke-width="1.6" stroke-linecap="round"/><path d="M 6.98 28.45 Q 6.59 28.06 6.98 27.67" fill="none" stroke="#111" stroke-width="1.6" stroke-linecap="round"/><path d="M 6.98 30.42 Q 6.59 30.03 6.98 29.64" fill="none" stroke="#111" stroke-width="1.6" stroke-linecap="round"/><path d="M 6.98 32.39 Q 6.59 32 6.98 31.61" fill="none" stroke="#111" stroke-width="1.6" stroke-linecap="round"/><path d="M 6.98 34.36 Q 6.59 33.97 6.98 33.58" fill="none" stroke="#111" stroke-width="1.6" stroke-linecap="round"/><path d="M 6.98 36.33 Q 6.59 35.94 6.98 35.55" fill="none" stroke="#111" stroke-width="1.6" stroke-linecap="round"/><path d="M 6.98 38.3 Q 6.59 37.91 6.98 37.52" fill="none" stroke="#111" stroke-width="1.6" stroke-linecap="round"/><path d="M 6.98 40.27 Q 6.59 39.88 6.98 39.48" fill="none" stroke="#111" stroke-width="1.6" stroke-linecap="round"/><path d="M 6.98 42.24 Q 6.59 41.85 6.98 41.45" fill="none" stroke="#111" stroke-width="1.6" stroke-linecap="round"/><path d="M 6.98 44.21 Q 6.59 43.82 6.98 43.42" fill="none" stroke="#111" stroke-width="1.6" stroke-linecap="round"/><path d="M 6.98 46.18 Q 6.59 45.79 6.98 45.39" fill="none" stroke="#111" stroke-width="1.6" stroke-linecap="round"/><path d="M 6.98 48.15 Q 6.59 47.76 6.98 47.36" fill="none" stroke="#111" stroke-width="1.6" stroke-linecap="round"/><path d="M 6.98 50.12 Q 6.59 49.73 6.98 49.33" fill="none" stroke="#111" stroke-width="1.6" stroke-linecap="round"/><path d="M 6.98 52.09 Q 6.59 51.7 6.98 51.3" fill="none" stroke="#111" stroke-width="1.6" stroke-linecap="round"/><path d="M 6.98 54.06 Q 6.59 53.67 6.98 53.27" fill="none" stroke="#111" stroke-width="1.6" stroke-linecap="round"/><path d="M 6.98 56.03 Q 6.59 55.64 6.98 55.24" fill="none" stroke="#111" stroke-width="1.6" stroke-linecap="round"/><path d="M 6.98 58 Q 6.59 57.61 6.98 57.21" fill="none" stroke="#111" stroke-width="1.6" stroke-linecap="round"/></svg>