<svg xmlns="http://www.w3.org/2000/svg" width="96" height="64" viewBox="0 0 96 64"><polyline points="22.06,18.69 25.12,18.69" fill="none" stroke="#111" stroke-width="1.6" stroke-linecap="round" stroke-linejoin="round"/><polyline points="22.21,33.99 25.27,33.99" fill="none" stroke="#111" stroke-width="1.6" stroke-linecap="round" stroke-linejoin="round"/><polyline points="23.13,18.69 21.6,17.01" fill="none" stroke="#111" stroke-width="1.6" stroke-linecap="round" stroke-linejoin="round"/><polyline points="23.28,33.99 21.75,32.31" fill="none" stroke="#111" stroke-width="1.6" stroke-linecap="round" stroke-linejoin="round"/><polyline points="24.2,18.69 25.88,17.01" fill="none" stroke="#111" stroke-width="1.6" stroke-linecap="round" stroke-linejoin="round"/><polyline points="24.35,33.99 26.04,32.31" fill="none" stroke="#111" stroke-width="1.6" stroke-linecap="round" stroke-linejoin="round"/><polyline points="25.12,18.08 24.81,17.78 25.42,17.47 25.12,18.08 25.12,18.08" fill="none" stroke="#111" stroke-width="1.6" stroke-linecap="round" stroke-linejoin="round"/><polyline points="25.27,33.38 24.96,33.07 25.58,32.76 25.27,33.38 25.27,33.38" fill="none" stroke="#111" stroke-width="1.6" stroke-linecap="round" stroke-linejoin="round"/><rect x="28.18" y="22.21" width="3.06" height="1.23" fill="none" stroke="#111" stroke-width="1.6"/><rect x="28.33" y="37.51" width="3.06" height="1.22" fill="none" stroke="#111" stroke-width="1.6"/><rect x="33.68" y="22.21" width="3.06" height="1.23" fill="none" stroke="#111" stroke-width="1.6"/><rect x="33.84" y="37.51" width="3.05" height="1.22" fill="none" stroke="#111" stroke-width="1.6"/><rect x="6" y="6" width="55.06" height="52" fill="none" stroke="#111" stroke-width="1.6"/><polyline points="13.8,24.35 12.73,24.35" fill="none" stroke="#111" stroke-width="1.6" stroke-linecap="round" stroke-linejoin="round"/><circle cx="13.95" cy="24.35" r="0.22" fill="none" stroke="#111" stroke-width="1.6"/><circle cx="15.18" cy="21.29" r="0.22" fill="none" stroke="#111" stroke-width="1.6"/><polyline points="15.18,21.29 8.91,21.29" fill="none" stroke="#111" stroke-width="1.6" stroke-linecap="round" stroke-linejoin="round"/><circle cx="15.33" cy="36.59" r="0.22" fill="none" stroke="#111" stroke-width="1.6"/><polyline points="15.33,36.59 8.91,36.59" fill="none" stroke="#111" stroke-width="1.6" stroke-linecap="round" stroke-linejoin="round"/><polyline points="17.47,24.35 13.95,24.35 13.95,39.8 17.62,39.8" fill="none" stroke="#111" stroke-width="1.6" stroke-linecap="round" stroke-linejoin="round"/><polyline points="17.47,26.49 17.47,19.15 24.35,22.82 17.47,26.49" fill="none" stroke="#111" stroke-width="1.6" stroke-linecap="round" stroke-linejoin="round"/><polyline points="17.62,41.79 17.62,34.45 24.51,38.12 17.62,41.79" fill="none" stroke="#111" stroke-width="1.6" stroke-linecap="round" stroke-linejoin="round"/><rect x="18.08" y="44.69" width="6.73" height="2.15" fill="none" stroke="#111" stroke-width="1.6"/><polyline points="18.08,45.76 11.96,45.76" fill="none" stroke="#111" stroke-width="1.6" stroke-linecap="round" stroke-linejoin="round"/><circle cx="20.68" cy="17.01" r="0.22" fill="none" stroke="#111" stroke-width="1.6"/><polyline points="20.68,17.01 15.18,17.01 15.18,21.29 17.47,21.29" fill="none" stroke="#111" stroke-width="1.6" stroke-linecap="round" stroke-linejoin="round"/><circle cx="20.84" cy="32.31" r="0.22" fill="none" stroke="#111" stroke-width="1.6"/><polyline points="20.84,32.31 15.33,32.31 15.33,36.59 17.62,36.59" fill="none" stroke="#111" stroke-width="1.6" stroke-linecap="round" stroke-linejoin="round"/><polyline points="21.6,46.84 21.6,48.67" fill="none" stroke="#111" stroke-width="1.6" stroke-linecap="round" stroke-linejoin="round"/><polyline points="23.59,18.85 23.59,19.76 20.68,19.76 20.68,17.01 21.6,17.01" fill="none" stroke="#111" stroke-width="1.6" stroke-linecap="round" stroke-linejoin="round"/><polyline points="23.74,34.14 23.74,35.06 20.84,35.06 20.84,32.31 21.75,32.31" fill="none" stroke="#111" stroke-width="1.6" stroke-linecap="round" stroke-linejoin="round"/><polyline points="24.35,22.82 26.95,22.82 26.95,17.01 25.88,17.01" fill="none" stroke="#111" stroke-width="1.6" stroke-linecap="round" stroke-linejoin="round"/><polyline points="24.51,38.12 27.11,38.12 27.11,32.31 26.04,32.31" fill="none" stroke="#111" stroke-width="1.6" stroke-linecap="round" stroke-linejoin="round"/><circle cx="26.95" cy="22.82" r="0.22" fill="none" stroke="#111" stroke-width="1.6"/><polyline points="26.95,22.82 28.18,22.82" fill="none" stroke="#111" stroke-width="1.6" stroke-linecap="round" stroke-linejoin="round"/><circle cx="27.11" cy="38.12" r="0.22" fill="none" stroke="#111" stroke-width="1.6"/><polyline points="27.11,38.12 28.33,38.12" fill="none" stroke="#111" stroke-width="1.6" stroke-linecap="round" stroke-linejoin="round"/><polyline points="31.24,22.82 33.53,22.82" fill="none" stroke="#111" stroke-width="1.6" stroke-linecap="round" stroke-linejoin="round"/><polyline points="31.54,38.12 33.84,38.12" fill="none" stroke="#111" stroke-width="1.6" stroke-linecap="round" stroke-linejoin="round"/><circle cx="32.46" cy="22.82" r="0.22" fill="none" stroke="#111" stroke-width="1.6"/><polyline points="32.46,22.82 32.46,28.94 33.99,28.94" fill="none" stroke="#111" stroke-width="1.6" stroke-linecap="round" stroke-linejoin="round"/><circle cx="32.61" cy="38.12" r="0.22" fill="none" stroke="#111" stroke-width="1.6"/><polyline points="32.61,38.12 32.61,32.15 33.99,32.15" fill="none" stroke="#111" stroke-width="1.6" stroke-linecap="round" stroke-linejoin="round"/><polyline points="33.99,34.14 33.99,26.8 40.87,30.47 33.99,34.14" fill="none" stroke="#111" stroke-width="1.6" stroke-linecap="round" stroke-linejoin="round"/><polyline points="36.74,22.82 41.64,22.82 41.64,30.47 40.87,30.47" fill="none" stroke="#111" stroke-width="1.6" stroke-linecap="round" stroke-linejoin="round"/><polyline points="36.89,38.12 39.65,38.12 39.65,42.71 11.96,42.71" fill="none" stroke="#111" stroke-width="1.6" stroke-linecap="round" stroke-linejoin="round"/><polyline points="41.64,30.47 51.42,30.47" fill="none" stroke="#111" stroke-width="1.6" stroke-linecap="round" stroke-linejoin="round"/><circle cx="41.64" cy="30.47" r="0.22" fill="none" stroke="#111" stroke-width="1.6"/><polyline points="45.76,8.45 45.76,15.79 52.65,12.12 45.76,8.45" fill="none" stroke="#111" stroke-width="1.6" stroke-linecap="round" stroke-linejoin="round"/><polyline points="45.76,32.92 45.76,40.26 52.65,36.59 45.76,32.92" fill="none" stroke="#111" stroke-width="1.6" stroke-linecap="round" stroke-linejoin="round"/><polyline points="52.49,12.12 55.86,12.12" fill="none" stroke="#111" stroke-width="1.6" stroke-linecap="round" stroke-linejoin="round"/><polyline points="52.49,36.59 55.86,36.59" fill="none" stroke="#111" stroke-width="1.6" stroke-linecap="round" stroke-linejoin="round"/><polyline points="54.18,18.24 45,18.24 45,13.65 45.76,13.65" fill="none" stroke="#111" stroke-width="1.6" stroke-linecap="round" stroke-linejoin="round"/><polyline points="54.18,24.35 44.24,24.35 44.24,10.59 45.76,10.59" fill="none" stroke="#111" stroke-width="1.6" stroke-linecap="round" stroke-linejoin="round"/><polyline points="54.18,42.71 45,42.71 45,38.12 45.76,38.12" fill="none" stroke="#111" stroke-width="1.6" stroke-linecap="round" stroke-linejoin="round"/><polyline points="54.18,48.82 44.24,48.82 44.24,35.06 45.76,35.06" fill="none" stroke="#111" stroke-width="1.6" stroke-linecap="round" stroke-linejoin="round"/></svg>