<svg xmlns="http://www.w3.org/2000/svg" width="96" height="64" viewBox="0 0 96 64"><rect x="6" y="6" width="3.03" height="51.55" fill="none" stroke="#111" stroke-width="1.6"/><rect x="6" y="6.68" width="0.76" height="0.15" fill="none" stroke="#111" stroke-width="1.6"/><rect x="6" y="8.2" width="0.76" height="0.15" fill="none" stroke="#111" stroke-width="1.6"/><rect x="6" y="9.71" width="0.76" height="0.16" fill="none" stroke="#111" stroke-width="1.6"/><rect x="6" y="11.23" width="0.76" height="0.15" fill="none" stroke="#111" stroke-width="1.6"/><rect x="6" y="12.75" width="0.76" height="0.15" fill="none" stroke="#111" stroke-width="1.6"/><rect x="6" y="14.26" width="0.76" height="0.15" fill="none" stroke="#111" stroke-width="1.6"/><rect x="6" y="15.78" width="0.76" height="0.15" fill="none" stroke="#111" stroke-width="1.6"/><rect x="6" y="17.29" width="0.76" height="0.16" fill="none" stroke="#111" stroke-width="1.6"/><rect x="6" y="18.81" width="0.76" height="0.15" fill="none" stroke="#111" stroke-width="1.6"/><rect x="6" y="20.33" width="0.76" height="0.15" fill="none" stroke="#111" stroke-width="1.6"/><rect x="6" y="21.84" width="0.76" height="0.15" fill="none" stroke="#111" stroke-width="1.6"/><rect x="6" y="23.36" width="0.76" height="0.15" fill="none" stroke="#111" stroke-width="1.6"/><rect x="6" y="24.87" width="0.76" height="0.16" fill="none" stroke="#111" stroke-width="1.6"/><rect x="6" y="26.39" width="0.76" height="0.15" fill="none" stroke="#111" stroke-width="1.6"/><rect x="6" y="27.91" width="0.76" height="0.15" fill="none" stroke="#111" stroke-width="1.6"/><rect x="6" y="29.42" width="0.76" height="0.15" fill="none" stroke="#111" stroke-width="1.6"/><rect x="6" y="30.94" width="0.76" height="0.15" fill="none" stroke="#111" stroke-width="1.6"/><rect x="6" y="32.45" width="0.76" height="0.16" fill="none" stroke="#111" stroke-width="1.6"/><rect x="6" y="33.97" width="0.76" height="0.15" fill="none" stroke="#111" stroke-width="1.6"/><rect x="6" y="35.49" width="0.76" height="0.15" fill="none" stroke="#111" stroke-width="1.6"/><rect x="6" y="37" width="0.76" height="0.15" fill="none" stroke="#111" stroke-width="1.6"/><rect x="6" y="38.52" width="0.76" height="0.15" fill="none" stroke="#111" stroke-width="1.6"/><rect x="6" y="40.03" width="0.76" height="0.16" fill="none" stroke="#111" stroke-width="1.6"/><rect x="6" y="41.55" width="0.76" height="0.15" fill="none" stroke="#111" stroke-width="1.6"/><rect x="6" y="43.07" width="0.76" height="0.15" fill="none" stroke="#111" stroke-width="1.6"/><rect x="6" y="44.58" width="0.76" height="0.15" fill="none" stroke="#111" stroke-width="1.6"/><rect x="6" y="46.1" width="0.76" height="0.15" fill="none" stroke="#111" stroke-width="1.6"/><rect x="6" y="47.62" width="0.76" height="0.15" fill="none" stroke="#111" stroke-width="1.6"/><rect x="6" y="49.13" width="0.76" height="0.15" fill="none" stroke="#111" stroke-width="1.6"/><rect x="6" y="50.65" width="0.76" height="0.15" fill="none" stroke="#111" stroke-width="1.6"/><rect x="6" y="52.16" width="0.76" height="0.15" fill="none" stroke="#111" stroke-width="1.6"/><rect x="6" y="53.68" width="0.76" height="0.15" fill="none" stroke="#111" stroke-width="1.6"/><rect x="6" y="55.2" width="0.76" height="0.15" fill="none" stroke="#111" stroke-width="1.6"/><rect x="6" y="56.71" width="0.76" height="0.15" fill="none" stroke="#111" stroke-width="1.6"/><polyline points="6.91,58 8.12,58" fill="none" stroke="#111" stroke-width="1.6" stroke-linecap="round" stroke-linejoin="round"/><rect x="8.27" y="6.68" width="0.76" height="0.15" fill="none" stroke="#111" stroke-width="1.6"/><rect x="8.27" y="8.2" width="0.76" height="0.15" fill="none" stroke="#111" stroke-width="1.6"/><rect x="8.27" y="9.71" width="0.76" height="0.16" fill="none" stroke="#111" stroke-width="1.6"/><rect x="8.27" y="11.23" width="0.76" height="0.15" fill="none" stroke="#111" stroke-width="1.6"/><rect x="8.27" y="12.75" width="0.76" height="0.15" fill="none" stroke="#111" stroke-width="1.6"/><rect x="8.27" y="14.26" width="0.76" height="0.15" fill="none" stroke="#111" stroke-width="1.6"/><rect x="8.27" y="15.78" width="0.76" height="0.15" fill="none" stroke="#111" stroke-width="1.6"/><rect x="8.27" y="17.29" width="0.76" height="0.16" fill="none" stroke="#111" stroke-width="1.6"/><rect x="8.27" y="18.81" width="0.76" height="0.15" fill="none" stroke="#111" stroke-width="1.6"/><rect x="8.27" y="20.33" width="0.76" height="0.15" fill="none" stroke="#111" stroke-width="1.6"/><rect x="8.27" y="21.84" width="0.76" height="0.15" fill="none" stroke="#111" stroke-width="1.6"/><rect x="8.27" y="23.36" width="0.76" height="0.15" fill="none" stroke="#111" stroke-width="1.6"/><rect x="8.27" y="24.87" width="0.76" height="0.16" fill="none" stroke="#111" stroke-width="1.6"/><rect x="8.27" y="26.39" width="0.76" height="0.15" fill="none" stroke="#111" stroke-width="1.6"/><rect x="8.27" y="27.91" width="0.76" height="0.15" fill="none" stroke="#111" stroke-width="1.6"/><rect x="8.27" y="29.42" width="0.76" height="0.15" fill="none" stroke="#111" stroke-width="1.6"/><rect x="8.27" y="30.94" width="0.76" height="0.15" fill="none" stroke="#111" stroke-width="1.6"/><rect x="8.27" y="32.45" width="0.76" height="0.16" fill="none" stroke="#111" stroke-width="1.6"/><rect x="8.27" y="33.97" width="0.76" height="0.15" fill="none" stroke="#111" stroke-width="1.6"/><rect x="8.27" y="35.49" width="0.76" height="0.15" fill="none" stroke="#111" stroke-width="1.6"/><rect x="8.27" y="37" width="0.76" height="0.15" fill="none" stroke="#111" stroke-width="1.6"/><rect x="8.27" y="38.52" width="0.76" height="0.15" fill="none" stroke="#111" stroke-width="1.6"/><rect x="8.27" y="40.03" width="0.76" height="0.16" fill="none" stroke="#111" stroke-width="1.6"/><rect x="8.27" y="41.55" width="0.76" height="0.15" fill="none" stroke="#111" stroke-width="1.6"/><rect x="8.27" y="43.07" width="0.76" height="0.15" fill="none" stroke="#111" stroke-width="1.6"/><rect x="8.27" y="44.58" width="0.76" height="0.15" fill="none" stroke="#111" stroke-width="1.6"/><rect x="8.27" y="46.1" width="0.76" height="0.15" fill="none" stroke="#111" stroke-width="1.6"/><rect x="8.27" y="47.62" width="0.76" height="0.15" fill="none" stroke="#111" stroke-width="1.6"/><rect x="8.27" y="49.13" width="0.76" height="0.15" fill="none" stroke="#111" stroke-width="1.6"/><rect x="8.27" y="50.65" width="0.76" height="0.15" fill="none" stroke="#111" stroke-width="1.6"/><rect x="8.27" y="52.16" width="0.76" height="0.15" fill="none" stroke="#111" stroke-width="1.6"/><rect x="8.27" y="53.68" width="0.76" height="0.15" fill="none" stroke="#111" stroke-width="1.6"/><rect x="8.27" y="55.2" width="0.76" height="0.15" fill="none" stroke="#111" stroke-width="1.6"/><rect x="8.27" y="56.71" width="0.76" height="0.15" fill="none" stroke="#111" stroke-width="1.6"/></svg>