<svg xmlns="http://www.w3.org/2000/svg" width="96" height="64" viewBox="0 0 96 64"><polyline points="6,18.91 9.91,18.91 19.03,18.91" fill="none" stroke="#111" stroke-width="1.6" stroke-linecap="round" stroke-linejoin="round"/><polyline points="6,31.94 12.51,31.94" fill="none" stroke="#111" stroke-width="1.6" stroke-linecap="round" stroke-linejoin="round"/><polyline points="6,44.97 9.91,44.97 19.03,44.97" fill="none" stroke="#111" stroke-width="1.6" stroke-linecap="round" stroke-linejoin="round"/><circle cx="15.12" cy="31.94" r="2.61" fill="none" stroke="#111" stroke-width="1.6"/><circle cx="21.63" cy="18.91" r="2.61" fill="none" stroke="#111" stroke-width="1.6"/><circle cx="21.63" cy="44.97" r="2.61" fill="none" stroke="#111" stroke-width="1.6"/><polyline points="28.15,57.35 28.15,53.44 35.97,53.44 35.97,57.35" fill="none" stroke="#111" stroke-width="1.6" stroke-linecap="round" stroke-linejoin="round"/><path d="M 58.11 31.94 Q 51.89 49.1 35.97 58" fill="none" stroke="#111" stroke-width="1.6" stroke-linecap="round"/><circle cx="32.06" cy="31.94" r="2.61" fill="none" stroke="#111" stroke-width="1.6"/><path d="M 6 31.94 Q 32.06 6 58.11 31.94" fill="none" stroke="#111" stroke-width="1.6" stroke-linecap="round"/><polyline points="32.06,34.55 32.06,58" fill="none" stroke="#111" stroke-width="1.6" stroke-linecap="round" stroke-linejoin="round"/><path d="M 28.15 58 Q 12.26 49.06 6 31.94" fill="none" stroke="#111" stroke-width="1.6" stroke-linecap="round"/><circle cx="42.48" cy="18.91" r="2.61" fill="none" stroke="#111" stroke-width="1.6"/><circle cx="42.48" cy="44.97" r="2.61" fill="none" stroke="#111" stroke-width="1.6"/><circle cx="48.99" cy="31.94" r="2.61" fill="none" stroke="#111" stroke-width="1.6"/><polyline points="58.11,18.91 54.2,18.91 45.09,18.91" fill="none" stroke="#111" stroke-width="1.6" stroke-linecap="round" stroke-linejoin="round"/><polyline points="58.11,31.94 51.6,31.94" fill="none" stroke="#111" stroke-width="1.6" stroke-linecap="round" stroke-linejoin="round"/><polyline points="58.11,44.97 54.2,44.97 45.09,44.97" fill="none" stroke="#111" stroke-width="1.6" stroke-linecap="round" stroke-linejoin="round"/></svg>