<svg xmlns="http://www.w3.org/2000/svg" width="96" height="64" viewBox="0 0 96 64"><rect x="6" y="21.45" width="17.17" height="22.32" fill="none" stroke="#111" stroke-width="1.6"/><rect x="6" y="21.45" width="17.17" height="22.32" fill="none" stroke="#111" stroke-width="1.6"/><rect x="6" y="21.45" width="17.17" height="22.32" fill="none" stroke="#111" stroke-width="1.6"/><rect x="6" y="21.45" width="17.17" height="22.32" fill="none" stroke="#111" stroke-width="1.6"/><rect x="6" y="21.45" width="17.17" height="22.32" fill="none" stroke="#111" stroke-width="1.6"/><rect x="6" y="21.45" width="17.17" height="22.32" fill="none" stroke="#111" stroke-width="1.6"/><rect x="6" y="21.45" width="17.17" height="22.32" fill="none" stroke="#111" stroke-width="1.6"/><rect x="6" y="26.36" width="17.17" height="12.51" fill="none" stroke="#111" stroke-width="1.6"/><rect x="6" y="21.45" width="17.17" height="22.32" fill="none" stroke="#111" stroke-width="1.6"/><rect x="8.45" y="28.57" width="12.27" height="6.86" fill="none" stroke="#111" stroke-width="1.6"/><rect x="8.45" y="28.57" width="12.27" height="6.86" fill="none" stroke="#111" stroke-width="1.6"/><rect x="8.45" y="28.57" width="12.27" height="6.86" fill="none" stroke="#111" stroke-width="1.6"/><rect x="8.45" y="28.57" width="12.27" height="6.86" fill="none" stroke="#111" stroke-width="1.6"/><rect x="8.45" y="23.17" width="12.27" height="17.66" fill="none" stroke="#111" stroke-width="1.6"/><rect x="8.45" y="23.91" width="12.27" height="17.41" fill="none" stroke="#111" stroke-width="1.6"/><rect x="10.91" y="6" width="7.35" height="52" fill="none" stroke="#111" stroke-width="1.6"/><rect x="10.91" y="16.79" width="7.35" height="30.42" fill="none" stroke="#111" stroke-width="1.6"/></svg>