<svg xmlns="http://www.w3.org/2000/svg" width="96" height="64" viewBox="0 0 96 64"><rect x="6" y="6" width="84" height="35.8" fill="none" stroke="#111" stroke-width="1.6"/><rect x="11.73" y="23.66" width="15.27" height="1.91" fill="none" stroke="#111" stroke-width="1.6"/><rect x="11.73" y="30.34" width="15.27" height="1.91" fill="none" stroke="#111" stroke-width="1.6"/><circle cx="19.36" cy="17.93" r="1.91" fill="none" stroke="#111" stroke-width="1.6"/><polyline points="19.36,17.93 6,17.93" fill="none" stroke="#111" stroke-width="1.6" stroke-linecap="round" stroke-linejoin="round"/><polyline points="19.36,32.25 19.36,37.02 76.64,37.02 76.64,31.3" fill="none" stroke="#111" stroke-width="1.6" stroke-linecap="round" stroke-linejoin="round"/><rect x="44.18" y="10.3" width="1.91" height="15.27" fill="none" stroke="#111" stroke-width="1.6"/><polyline points="44.18,17.93 19.36,17.93 19.36,23.66" fill="none" stroke="#111" stroke-width="1.6" stroke-linecap="round" stroke-linejoin="round"/><circle cx="48" cy="37.02" r="1.91" fill="none" stroke="#111" stroke-width="1.6"/><rect x="49.91" y="10.3" width="1.91" height="15.27" fill="none" stroke="#111" stroke-width="1.6"/><polyline points="51.82,17.93 76.64,17.93 76.64,23.66" fill="none" stroke="#111" stroke-width="1.6" stroke-linecap="round" stroke-linejoin="round"/><rect x="69" y="29.39" width="15.27" height="1.91" fill="none" stroke="#111" stroke-width="1.6"/><polyline points="76.64,17.93 90,17.93" fill="none" stroke="#111" stroke-width="1.6" stroke-linecap="round" stroke-linejoin="round"/><circle cx="76.64" cy="17.93" r="1.91" fill="none" stroke="#111" stroke-width="1.6"/><rect x="69" y="23.66" width="15.27" height="1.91" fill="none" stroke="#111" stroke-width="1.6"/></svg>