<svg xmlns="http://www.w3.org/2000/svg" width="96" height="64" viewBox="0 0 96 64"><polyline points="6,6.3 6.45,6.3" fill="none" stroke="#111" stroke-width="1.6" stroke-linecap="round" stroke-linejoin="round"/><polyline points="6,7.81 6.45,7.81" fill="none" stroke="#111" stroke-width="1.6" stroke-linecap="round" stroke-linejoin="round"/><polyline points="6,9.33 6.45,9.33" fill="none" stroke="#111" stroke-width="1.6" stroke-linecap="round" stroke-linejoin="round"/><polyline points="6,10.84 6.45,10.84" fill="none" stroke="#111" stroke-width="1.6" stroke-linecap="round" stroke-linejoin="round"/><polyline points="6,12.35 6.45,12.35" fill="none" stroke="#111" stroke-width="1.6" stroke-linecap="round" stroke-linejoin="round"/><polyline points="6,13.86 6.45,13.86" fill="none" stroke="#111" stroke-width="1.6" stroke-linecap="round" stroke-linejoin="round"/><polyline points="6,15.37 6.45,15.37" fill="none" stroke="#111" stroke-width="1.6" stroke-linecap="round" stroke-linejoin="round"/><polyline points="6,16.88 6.45,16.88" fill="none" stroke="#111" stroke-width="1.6" stroke-linecap="round" stroke-linejoin="round"/><polyline points="6,18.4 6.45,18.4" fill="none" stroke="#111" stroke-width="1.6" stroke-linecap="round" stroke-linejoin="round"/><polyline points="6,19.91 6.45,19.91" fill="none" stroke="#111" stroke-width="1.6" stroke-linecap="round" stroke-linejoin="round"/><polyline points="6,21.42 6.45,21.42" fill="none" stroke="#111" stroke-width="1.6" stroke-linecap="round" stroke-linejoin="round"/><polyline points="6,22.93 6.45,22.93" fill="none" stroke="#111" stroke-width="1.6" stroke-linecap="round" stroke-linejoin="round"/><polyline points="6,24.44 6.45,24.44" fill="none" stroke="#111" stroke-width="1.6" stroke-linecap="round" stroke-linejoin="round"/><polyline points="6,25.95 6.45,25.95" fill="none" stroke="#111" stroke-width="1.6" stroke-linecap="round" stroke-linejoin="round"/><polyline points="6,27.47 6.45,27.47" fill="none" stroke="#111" stroke-width="1.6" stroke-linecap="round" stroke-linejoin="round"/><polyline points="6,28.98 6.45,28.98" fill="none" stroke="#111" stroke-width="1.6" stroke-linecap="round" stroke-linejoin="round"/><polyline points="6,30.49 6.45,30.49" fill="none" stroke="#111" stroke-width="1.6" stroke-linecap="round" stroke-linejoin="round"/><polyline points="6,32 6.45,32" fill="none" stroke="#111" stroke-width="1.6" stroke-linecap="round" stroke-linejoin="round"/><polyline points="6,33.51 6.45,33.51" fill="none" stroke="#111" stroke-width="1.6" stroke-linecap="round" stroke-linejoin="round"/><polyline points="6,35.02 6.45,35.02" fill="none" stroke="#111" stroke-width="1.6" stroke-linecap="round" stroke-linejoin="round"/><polyline points="6,36.53 6.45,36.53" fill="none" stroke="#111" stroke-width="1.6" stroke-linecap="round" stroke-linejoin="round"/><polyline points="6,38.05 6.45,38.05" fill="none" stroke="#111" stroke-width="1.6" stroke-linecap="round" stroke-linejoin="round"/><polyline points="6,39.56 6.45,39.56" fill="none" stroke="#111" stroke-width="1.6" stroke-linecap="round" stroke-linejoin="round"/><polyline points="6,41.07 6.45,41.07" fill="none" stroke="#111" stroke-width="1.6" stroke-linecap="round" stroke-linejoin="round"/><polyline points="6,42.58 6.45,42.58" fill="none" stroke="#111" stroke-width="1.6" stroke-linecap="round" stroke-linejoin="round"/><polyline points="6,44.09 6.45,44.09" fill="none" stroke="#111" stroke-width="1.6" stroke-linecap="round" stroke-linejoin="round"/><polyline points="6,45.6 6.45,45.6" fill="none" stroke="#111" stroke-width="1.6" stroke-linecap="round" stroke-linejoin="round"/><polyline points="6,47.12 6.45,47.12" fill="none" stroke="#111" stroke-width="1.6" stroke-linecap="round" stroke-linejoin="round"/><polyline points="6,48.63 6.45,48.63" fill="none" stroke="#111" stroke-width="1.6" stroke-linecap="round" stroke-linejoin="round"/><polyline points="6,50.14 6.45,50.14" fill="none" stroke="#111" stroke-width="1.6" stroke-linecap="round" stroke-linejoin="round"/><polyline points="6,51.65 6.45,51.65" fill="none" stroke="#111" stroke-width="1.6" stroke-linecap="round" stroke-linejoin="round"/><polyline points="6,53.16 6.45,53.16" fill="none" stroke="#111" stroke-width="1.6" stroke-linecap="round" stroke-linejoin="round"/><polyline points="6,54.67 6.45,54.67" fill="none" stroke="#111" stroke-width="1.6" stroke-linecap="round" stroke-linejoin="round"/><polyline points="6,56.19 6.45,56.19" fill="none" stroke="#111" stroke-width="1.6" stroke-linecap="round" stroke-linejoin="round"/><polyline points="6,57.7 6.45,57.7" fill="none" stroke="#111" stroke-width="1.6" stroke-linecap="round" stroke-linejoin="round"/><path d="M 6.76 6.6 Q 6.45 6.3 6.76 6" fill="none" stroke="#111" stroke-width="1.6" stroke-linecap="round"/><path d="M 6.76 8.12 Q 6.45 7.81 6.76 7.51" fill="none" stroke="#111" stroke-width="1.6" stroke-linecap="round"/><path d="M 6.76 9.63 Q 6.45 9.33 6.76 9.02" fill="none" stroke="#111" stroke-width="1.6" stroke-linecap="round"/><path d="M 6.76 11.14 Q 6.45 10.84 6.76 10.53" fill="none" stroke="#111" stroke-width="1.6" stroke-linecap="round"/><path d="M 6.76 12.65 Q 6.45 12.35 6.76 12.05" fill="none" stroke="#111" stroke-width="1.6" stroke-linecap="round"/><path d="M 6.76 14.16 Q 6.45 13.86 6.76 13.56" fill="none" stroke="#111" stroke-width="1.6" stroke-linecap="round"/><path d="M 6.76 15.67 Q 6.45 15.37 6.76 15.07" fill="none" stroke="#111" stroke-width="1.6" stroke-linecap="round"/><path d="M 6.76 17.19 Q 6.45 16.88 6.76 16.58" fill="none" stroke="#111" stroke-width="1.6" stroke-linecap="round"/><path d="M 6.76 18.7 Q 6.45 18.4 6.76 18.09" fill="none" stroke="#111" stroke-width="1.6" stroke-linecap="round"/><path d="M 6.76 20.21 Q 6.45 19.91 6.76 19.6" fill="none" stroke="#111" stroke-width="1.6" stroke-linecap="round"/><path d="M 6.76 21.72 Q 6.45 21.42 6.76 21.12" fill="none" stroke="#111" stroke-width="1.6" stroke-linecap="round"/><path d="M 6.76 23.23 Q 6.45 22.93 6.76 22.63" fill="none" stroke="#111" stroke-width="1.6" stroke-linecap="round"/><path d="M 6.76 24.74 Q 6.45 24.44 6.76 24.14" fill="none" stroke="#111" stroke-width="1.6" stroke-linecap="round"/><path d="M 6.76 26.26 Q 6.45 25.95 6.76 25.65" fill="none" stroke="#111" stroke-width="1.6" stroke-linecap="round"/><path d="M 6.76 27.77 Q 6.45 27.47 6.76 27.16" fill="none" stroke="#111" stroke-width="1.6" stroke-linecap="round"/><path d="M 6.76 29.28 Q 6.45 28.98 6.76 28.67" fill="none" stroke="#111" stroke-width="1.6" stroke-linecap="round"/><path d="M 6.76 30.79 Q 6.45 30.49 6.76 30.19" fill="none" stroke="#111" stroke-width="1.6" stroke-linecap="round"/><path d="M 6.76 32.3 Q 6.45 32 6.76 31.7" fill="none" stroke="#111" stroke-width="1.6" stroke-linecap="round"/><path d="M 6.76 33.81 Q 6.45 33.51 6.76 33.21" fill="none" stroke="#111" stroke-width="1.6" stroke-linecap="round"/><path d="M 6.76 35.33 Q 6.45 35.02 6.76 34.72" fill="none" stroke="#111" stroke-width="1.6" stroke-linecap="round"/><path d="M 6.76 36.84 Q 6.45 36.53 6.76 36.23" fill="none" stroke="#111" stroke-width="1.6" stroke-linecap="round"/><path d="M 6.76 38.35 Q 6.45 38.05 6.76 37.74" fill="none" stroke="#111" stroke-width="1.6" stroke-linecap="round"/><path d="M 6.76 39.86 Q 6.45 39.56 6.76 39.26" fill="none" stroke="#111" stroke-width="1.6" stroke-linecap="round"/><path d="M 6.76 41.37 Q 6.45 41.07 6.76 40.77" fill="none" stroke="#111" stroke-width="1.6" stroke-linecap="round"/><path d="M 6.76 42.88 Q 6.45 42.58 6.76 42.28" fill="none" stroke="#111" stroke-width="1.6" stroke-linecap="round"/><path d="M 6.76 44.4 Q 6.45 44.09 6.76 43.79" fill="none" stroke="#111" stroke-width="1.6" stroke-linecap="round"/><path d="M 6.76 45.91 Q 6.45 45.6 6.76 45.3" fill="none" stroke="#111" stroke-width="1.6" stroke-linecap="round"/><path d="M 6.76 47.42 Q 6.45 47.12 6.76 46.81" fill="none" stroke="#111" stroke-width="1.6" stroke-linecap="round"/><path d="M 6.76 48.93 Q 6.45 48.63 6.76 48.33" fill="none" stroke="#111" stroke-width="1.6" stroke-linecap="round"/><path d="M 6.76 50.44 Q 6.45 50.14 6.76 49.84" fill="none" stroke="#111" stroke-width="1.6" stroke-linecap="round"/><path d="M 6.76 51.95 Q 6.45 51.65 6.76 51.35" fill="none" stroke="#111" stroke-width="1.6" stroke-linecap="round"/><path d="M 6.76 53.47 Q 6.45 53.16 6.76 52.86" fill="none" stroke="#111" stroke-width="1.6" stroke-linecap="round"/><path d="M 6.76 54.98 Q 6.45 54.67 6.76 54.37" fill="none" stroke="#111" stroke-width="1.6" stroke-linecap="round"/><path d="M 6.76 56.49 Q 6.45 56.19 6.76 55.88" fill="none" stroke="#111" stroke-width="1.6" stroke-linecap="round"/><path d="M 6.76 58 Q 6.45 57.7 6.76 57.4" fill="none" stroke="#111" stroke-width="1.6" stroke-linecap="round"/></svg>