<svg xmlns="http://www.w3.org/2000/svg" width="96" height="64" viewBox="0 0 96 64"><rect x="6" y="6" width="1.2" height="51.64" fill="none" stroke="#111" stroke-width="1.6"/><rect x="6" y="6.54" width="0.6" height="0.12" fill="none" stroke="#111" stroke-width="1.6"/><rect x="6" y="7.74" width="0.6" height="0.12" fill="none" stroke="#111" stroke-width="1.6"/><rect x="6" y="8.94" width="0.6" height="0.12" fill="none" stroke="#111" stroke-width="1.6"/><rect x="6" y="10.14" width="0.6" height="0.12" fill="none" stroke="#111" stroke-width="1.6"/><rect x="6" y="11.34" width="0.6" height="0.12" fill="none" stroke="#111" stroke-width="1.6"/><rect x="6" y="12.55" width="0.6" height="0.12" fill="none" stroke="#111" stroke-width="1.6"/><rect x="6" y="13.75" width="0.6" height="0.12" fill="none" stroke="#111" stroke-width="1.6"/><rect x="6" y="14.95" width="0.6" height="0.12" fill="none" stroke="#111" stroke-width="1.6"/><rect x="6" y="16.15" width="0.6" height="0.12" fill="none" stroke="#111" stroke-width="1.6"/><rect x="6" y="17.35" width="0.6" height="0.12" fill="none" stroke="#111" stroke-width="1.6"/><rect x="6" y="18.55" width="0.6" height="0.12" fill="none" stroke="#111" stroke-width="1.6"/><rect x="6" y="19.75" width="0.6" height="0.12" fill="none" stroke="#111" stroke-width="1.6"/><rect x="6" y="20.95" width="0.6" height="0.12" fill="none" stroke="#111" stroke-width="1.6"/><rect x="6" y="22.15" width="0.6" height="0.12" fill="none" stroke="#111" stroke-width="1.6"/><rect x="6" y="23.35" width="0.6" height="0.12" fill="none" stroke="#111" stroke-width="1.6"/><rect x="6" y="24.55" width="0.6" height="0.12" fill="none" stroke="#111" stroke-width="1.6"/><rect x="6" y="25.76" width="0.6" height="0.12" fill="none" stroke="#111" stroke-width="1.6"/><rect x="6" y="26.96" width="0.6" height="0.12" fill="none" stroke="#111" stroke-width="1.6"/><rect x="6" y="28.16" width="0.6" height="0.12" fill="none" stroke="#111" stroke-width="1.6"/><rect x="6" y="29.36" width="0.6" height="0.12" fill="none" stroke="#111" stroke-width="1.6"/><rect x="6" y="30.56" width="0.6" height="0.12" fill="none" stroke="#111" stroke-width="1.6"/><rect x="6" y="31.76" width="0.6" height="0.12" fill="none" stroke="#111" stroke-width="1.6"/><rect x="6" y="32.96" width="0.6" height="0.12" fill="none" stroke="#111" stroke-width="1.6"/><rect x="6" y="34.16" width="0.6" height="0.12" fill="none" stroke="#111" stroke-width="1.6"/><rect x="6" y="35.36" width="0.6" height="0.12" fill="none" stroke="#111" stroke-width="1.6"/><rect x="6" y="36.56" width="0.6" height="0.12" fill="none" stroke="#111" stroke-width="1.6"/><rect x="6" y="37.76" width="0.6" height="0.12" fill="none" stroke="#111" stroke-width="1.6"/><rect x="6" y="38.97" width="0.6" height="0.12" fill="none" stroke="#111" stroke-width="1.6"/><rect x="6" y="40.17" width="0.6" height="0.12" fill="none" stroke="#111" stroke-width="1.6"/><rect x="6" y="41.37" width="0.6" height="0.12" fill="none" stroke="#111" stroke-width="1.6"/><rect x="6" y="42.57" width="0.6" height="0.12" fill="none" stroke="#111" stroke-width="1.6"/><rect x="6" y="43.77" width="0.6" height="0.12" fill="none" stroke="#111" stroke-width="1.6"/><rect x="6" y="44.97" width="0.6" height="0.12" fill="none" stroke="#111" stroke-width="1.6"/><rect x="6" y="46.17" width="0.6" height="0.12" fill="none" stroke="#111" stroke-width="1.6"/><rect x="6" y="47.37" width="0.6" height="0.12" fill="none" stroke="#111" stroke-width="1.6"/><rect x="6" y="48.57" width="0.6" height="0.12" fill="none" stroke="#111" stroke-width="1.6"/><rect x="6" y="49.77" width="0.6" height="0.12" fill="none" stroke="#111" stroke-width="1.6"/><rect x="6" y="50.97" width="0.6" height="0.12" fill="none" stroke="#111" stroke-width="1.6"/><rect x="6" y="52.18" width="0.6" height="0.12" fill="none" stroke="#111" stroke-width="1.6"/><rect x="6" y="53.38" width="0.6" height="0.12" fill="none" stroke="#111" stroke-width="1.6"/><rect x="6" y="54.58" width="0.6" height="0.12" fill="none" stroke="#111" stroke-width="1.6"/><rect x="6" y="55.78" width="0.6" height="0.12" fill="none" stroke="#111" stroke-width="1.6"/><rect x="6" y="56.98" width="0.6" height="0.12" fill="none" stroke="#111" stroke-width="1.6"/><polyline points="6.12,58 7.08,58" fill="none" stroke="#111" stroke-width="1.6" stroke-linecap="round" stroke-linejoin="round"/></svg>