<svg xmlns="http://www.w3.org/2000/svg" width="96" height="64" viewBox="0 0 96 64"><rect x="6" y="6" width="39" height="52" fill="none" stroke="#111" stroke-width="1.6"/><polyline points="15.1,19 22.25,19" fill="none" stroke="#111" stroke-width="1.6" stroke-linecap="round" stroke-linejoin="round"/><polyline points="15.1,38.5 22.25,38.5 22.25,40.12" fill="none" stroke="#111" stroke-width="1.6" stroke-linecap="round" stroke-linejoin="round"/><polyline points="15.1,45 20.62,45" fill="none" stroke="#111" stroke-width="1.6" stroke-linecap="round" stroke-linejoin="round"/><polyline points="20.62,40.12 20.62,46.62 27.12,43.38 20.62,40.12" fill="none" stroke="#111" stroke-width="1.6" stroke-linecap="round" stroke-linejoin="round"/><polyline points="22.25,19 28.75,15.75 28.75,22.25 22.25,19" fill="none" stroke="#111" stroke-width="1.6" stroke-linecap="round" stroke-linejoin="round"/><polyline points="22.25,40.19 22.25,40.84" fill="none" stroke="#111" stroke-width="1.6" stroke-linecap="round" stroke-linejoin="round"/><polyline points="24.2,45 35.25,45 35.25,38.5 39.8,38.5" fill="none" stroke="#111" stroke-width="1.6" stroke-linecap="round" stroke-linejoin="round"/><circle cx="24.72" cy="41.42" r="0.91" fill="none" stroke="#111" stroke-width="1.6"/><circle cx="25.43" cy="21.66" r="0.91" fill="none" stroke="#111" stroke-width="1.6"/><polyline points="25.5,22.25 25.5,25.5 15.1,25.5" fill="none" stroke="#111" stroke-width="1.6" stroke-linecap="round" stroke-linejoin="round"/><polyline points="28.75,17.38 35.25,17.38 35.25,38.5" fill="none" stroke="#111" stroke-width="1.6" stroke-linecap="round" stroke-linejoin="round"/><rect x="28.75" y="23.88" width="0" height="0" fill="none" stroke="#111" stroke-width="1.6"/><circle cx="30.05" cy="20.95" r="0.91" fill="none" stroke="#111" stroke-width="1.6"/><polyline points="30.7,20.95 37.2,20.95 37.2,25.5 39.8,25.5" fill="none" stroke="#111" stroke-width="1.6" stroke-linecap="round" stroke-linejoin="round"/><polyline points="32,20.95 32,41.1 24.85,41.1" fill="none" stroke="#111" stroke-width="1.6" stroke-linecap="round" stroke-linejoin="round"/></svg>