<svg xmlns="http://www.w3.org/2000/svg" width="96" height="64" viewBox="0 0 96 64"><rect x="6" y="6.47" width="84" height="17.73" fill="none" stroke="#111" stroke-width="1.6"/><rect x="8.33" y="8.33" width="4.67" height="14" fill="none" stroke="#111" stroke-width="1.6"/><polyline points="10.67,8.33 10.67,6" fill="none" stroke="#111" stroke-width="1.6" stroke-linecap="round" stroke-linejoin="round"/><polyline points="10.67,24.67 10.67,22.33" fill="none" stroke="#111" stroke-width="1.6" stroke-linecap="round" stroke-linejoin="round"/><rect x="17.67" y="8.33" width="4.66" height="14" fill="none" stroke="#111" stroke-width="1.6"/><polyline points="20,8.33 20,6" fill="none" stroke="#111" stroke-width="1.6" stroke-linecap="round" stroke-linejoin="round"/><polyline points="20,24.67 20,22.33" fill="none" stroke="#111" stroke-width="1.6" stroke-linecap="round" stroke-linejoin="round"/><rect x="27" y="8.33" width="4.67" height="14" fill="none" stroke="#111" stroke-width="1.6"/><polyline points="29.33,8.33 29.33,6" fill="none" stroke="#111" stroke-width="1.6" stroke-linecap="round" stroke-linejoin="round"/><polyline points="29.33,24.67 29.33,22.33" fill="none" stroke="#111" stroke-width="1.6" stroke-linecap="round" stroke-linejoin="round"/><rect x="36.33" y="8.33" width="4.67" height="14" fill="none" stroke="#111" stroke-width="1.6"/><polyline points="38.67,8.33 38.67,6" fill="none" stroke="#111" stroke-width="1.6" stroke-linecap="round" stroke-linejoin="round"/><polyline points="38.67,24.67 38.67,22.33" fill="none" stroke="#111" stroke-width="1.6" stroke-linecap="round" stroke-linejoin="round"/><rect x="45.67" y="8.33" width="4.66" height="14" fill="none" stroke="#111" stroke-width="1.6"/><polyline points="48,8.33 48,6" fill="none" stroke="#111" stroke-width="1.6" stroke-linecap="round" stroke-linejoin="round"/><polyline points="48,24.67 48,22.33" fill="none" stroke="#111" stroke-width="1.6" stroke-linecap="round" stroke-linejoin="round"/><rect x="55" y="8.33" width="4.67" height="14" fill="none" stroke="#111" stroke-width="1.6"/><polyline points="57.33,8.33 57.33,6" fill="none" stroke="#111" stroke-width="1.6" stroke-linecap="round" stroke-linejoin="round"/><polyline points="57.33,24.67 57.33,22.33" fill="none" stroke="#111" stroke-width="1.6" stroke-linecap="round" stroke-linejoin="round"/><rect x="64.33" y="8.33" width="4.67" height="14" fill="none" stroke="#111" stroke-width="1.6"/><polyline points="66.67,8.33 66.67,6" fill="none" stroke="#111" stroke-width="1.6" stroke-linecap="round" stroke-linejoin="round"/><polyline points="66.67,24.67 66.67,22.33" fill="none" stroke="#111" stroke-width="1.6" stroke-linecap="round" stroke-linejoin="round"/><rect x="73.67" y="8.33" width="4.66" height="14" fill="none" stroke="#111" stroke-width="1.6"/><polyline points="76,8.33 76,6" fill="none" stroke="#111" stroke-width="1.6" stroke-linecap="round" stroke-linejoin="round"/><polyline points="76,24.67 76,22.33" fill="none" stroke="#111" stroke-width="1.6" stroke-linecap="round" stroke-linejoin="round"/><rect x="83" y="8.33" width="4.67" height="14" fill="none" stroke="#111" stroke-width="1.6"/><polyline points="85.33,8.33 85.33,6" fill="none" stroke="#111" stroke-width="1.6" stroke-linecap="round" stroke-linejoin="round"/><polyline points="85.33,24.67 85.33,22.33" fill="none" stroke="#111" stroke-width="1.6" stroke-linecap="round" stroke-linejoin="round"/></svg>