<svg xmlns="http://www.w3.org/2000/svg" width="96" height="64" viewBox="0 0 96 64"><path d="M 7.3 24.2 Q 11.18 28.1 7.3 32" fill="none" stroke="#111" stroke-width="1.6" stroke-linecap="round"/><path d="M 7.3 32 Q 11.18 35.9 7.3 39.8" fill="none" stroke="#111" stroke-width="1.6" stroke-linecap="round"/><path d="M 7.3 39.8 Q 11.18 43.7 7.3 47.6" fill="none" stroke="#111" stroke-width="1.6" stroke-linecap="round"/><polyline points="7.3,6 7.3,16.4" fill="none" stroke="#111" stroke-width="1.6" stroke-linecap="round" stroke-linejoin="round"/><circle cx="7.3" cy="20.3" r="1.3" fill="none" stroke="#111" stroke-width="1.6"/><polyline points="7.3,47.6 7.3,58" fill="none" stroke="#111" stroke-width="1.6" stroke-linecap="round" stroke-linejoin="round"/><polyline points="17.05,15.75 17.05,48.25" fill="none" stroke="#111" stroke-width="1.6" stroke-linecap="round" stroke-linejoin="round"/><polyline points="23.55,15.75 23.55,48.25" fill="none" stroke="#111" stroke-width="1.6" stroke-linecap="round" stroke-linejoin="round"/><polyline points="33.3,6 33.3,16.4" fill="none" stroke="#111" stroke-width="1.6" stroke-linecap="round" stroke-linejoin="round"/><circle cx="33.3" cy="20.3" r="1.3" fill="none" stroke="#111" stroke-width="1.6"/><polyline points="33.3,47.6 33.3,58" fill="none" stroke="#111" stroke-width="1.6" stroke-linecap="round" stroke-linejoin="round"/><path d="M 33.3 24.2 Q 29.42 20.3 33.3 16.4" fill="none" stroke="#111" stroke-width="1.6" stroke-linecap="round"/><path d="M 33.3 32 Q 29.42 28.1 33.3 24.2" fill="none" stroke="#111" stroke-width="1.6" stroke-linecap="round"/><path d="M 33.3 39.8 Q 29.42 35.9 33.3 32" fill="none" stroke="#111" stroke-width="1.6" stroke-linecap="round"/><path d="M 33.3 47.6 Q 29.42 43.7 33.3 39.8" fill="none" stroke="#111" stroke-width="1.6" stroke-linecap="round"/><path d="M 7.3 16.4 Q 11.18 20.3 7.3 24.2" fill="none" stroke="#111" stroke-width="1.6" stroke-linecap="round"/></svg>