<svg xmlns="http://www.w3.org/2000/svg" width="96" height="64" viewBox="0 0 96 64"><polyline points="6,6.33 6.5,6.33" fill="none" stroke="#111" stroke-width="1.6" stroke-linecap="round" stroke-linejoin="round"/><polyline points="6,7.99 6.5,7.99" fill="none" stroke="#111" stroke-width="1.6" stroke-linecap="round" stroke-linejoin="round"/><polyline points="6,9.64 6.5,9.64" fill="none" stroke="#111" stroke-width="1.6" stroke-linecap="round" stroke-linejoin="round"/><polyline points="6,11.3 6.5,11.3" fill="none" stroke="#111" stroke-width="1.6" stroke-linecap="round" stroke-linejoin="round"/><polyline points="6,12.96 6.5,12.96" fill="none" stroke="#111" stroke-width="1.6" stroke-linecap="round" stroke-linejoin="round"/><polyline points="6,14.61 6.5,14.61" fill="none" stroke="#111" stroke-width="1.6" stroke-linecap="round" stroke-linejoin="round"/><polyline points="6,16.27 6.5,16.27" fill="none" stroke="#111" stroke-width="1.6" stroke-linecap="round" stroke-linejoin="round"/><polyline points="6,17.92 6.5,17.92" fill="none" stroke="#111" stroke-width="1.6" stroke-linecap="round" stroke-linejoin="round"/><polyline points="6,19.58 6.5,19.58" fill="none" stroke="#111" stroke-width="1.6" stroke-linecap="round" stroke-linejoin="round"/><polyline points="6,21.24 6.5,21.24" fill="none" stroke="#111" stroke-width="1.6" stroke-linecap="round" stroke-linejoin="round"/><polyline points="6,22.89 6.5,22.89" fill="none" stroke="#111" stroke-width="1.6" stroke-linecap="round" stroke-linejoin="round"/><polyline points="6,24.55 6.5,24.55" fill="none" stroke="#111" stroke-width="1.6" stroke-linecap="round" stroke-linejoin="round"/><polyline points="6,26.2 6.5,26.2" fill="none" stroke="#111" stroke-width="1.6" stroke-linecap="round" stroke-linejoin="round"/><polyline points="6,27.86 6.5,27.86" fill="none" stroke="#111" stroke-width="1.6" stroke-linecap="round" stroke-linejoin="round"/><polyline points="6,29.52 6.5,29.52" fill="none" stroke="#111" stroke-width="1.6" stroke-linecap="round" stroke-linejoin="round"/><polyline points="6,31.17 6.5,31.17" fill="none" stroke="#111" stroke-width="1.6" stroke-linecap="round" stroke-linejoin="round"/><polyline points="6,32.83 6.5,32.83" fill="none" stroke="#111" stroke-width="1.6" stroke-linecap="round" stroke-linejoin="round"/><polyline points="6,34.48 6.5,34.48" fill="none" stroke="#111" stroke-width="1.6" stroke-linecap="round" stroke-linejoin="round"/><polyline points="6,36.14 6.5,36.14" fill="none" stroke="#111" stroke-width="1.6" stroke-linecap="round" stroke-linejoin="round"/><polyline points="6,37.8 6.5,37.8" fill="none" stroke="#111" stroke-width="1.6" stroke-linecap="round" stroke-linejoin="round"/><polyline points="6,39.45 6.5,39.45" fill="none" stroke="#111" stroke-width="1.6" stroke-linecap="round" stroke-linejoin="round"/><polyline points="6,41.11 6.5,41.11" fill="none" stroke="#111" stroke-width="1.6" stroke-linecap="round" stroke-linejoin="round"/><polyline points="6,42.76 6.5,42.76" fill="none" stroke="#111" stroke-width="1.6" stroke-linecap="round" stroke-linejoin="round"/><polyline points="6,44.42 6.5,44.42" fill="none" stroke="#111" stroke-width="1.6" stroke-linecap="round" stroke-linejoin="round"/><polyline points="6,46.08 6.5,46.08" fill="none" stroke="#111" stroke-width="1.6" stroke-linecap="round" stroke-linejoin="round"/><polyline points="6,47.73 6.5,47.73" fill="none" stroke="#111" stroke-width="1.6" stroke-linecap="round" stroke-linejoin="round"/><polyline points="6,49.39 6.5,49.39" fill="none" stroke="#111" stroke-width="1.6" stroke-linecap="round" stroke-linejoin="round"/><polyline points="6,51.04 6.5,51.04" fill="none" stroke="#111" stroke-width="1.6" stroke-linecap="round" stroke-linejoin="round"/><polyline points="6,52.7 6.5,52.7" fill="none" stroke="#111" stroke-width="1.6" stroke-linecap="round" stroke-linejoin="round"/><polyline points="6,54.36 6.5,54.36" fill="none" stroke="#111" stroke-width="1.6" stroke-linecap="round" stroke-linejoin="round"/><polyline points="6,56.01 6.5,56.01" fill="none" stroke="#111" stroke-width="1.6" stroke-linecap="round" stroke-linejoin="round"/><polyline points="6,57.67 6.5,57.67" fill="none" stroke="#111" stroke-width="1.6" stroke-linecap="round" stroke-linejoin="round"/><path d="M 6.83 6.66 Q 6.5 6.33 6.83 6" fill="none" stroke="#111" stroke-width="1.6" stroke-linecap="round"/><path d="M 6.83 8.32 Q 6.5 7.99 6.83 7.66" fill="none" stroke="#111" stroke-width="1.6" stroke-linecap="round"/><path d="M 6.83 9.97 Q 6.5 9.64 6.83 9.31" fill="none" stroke="#111" stroke-width="1.6" stroke-linecap="round"/><path d="M 6.83 11.63 Q 6.5 11.3 6.83 10.97" fill="none" stroke="#111" stroke-width="1.6" stroke-linecap="round"/><path d="M 6.83 13.29 Q 6.5 12.96 6.83 12.62" fill="none" stroke="#111" stroke-width="1.6" stroke-linecap="round"/><path d="M 6.83 14.94 Q 6.5 14.61 6.83 14.28" fill="none" stroke="#111" stroke-width="1.6" stroke-linecap="round"/><path d="M 6.83 16.6 Q 6.5 16.27 6.83 15.94" fill="none" stroke="#111" stroke-width="1.6" stroke-linecap="round"/><path d="M 6.83 18.25 Q 6.5 17.92 6.83 17.59" fill="none" stroke="#111" stroke-width="1.6" stroke-linecap="round"/><path d="M 6.83 19.91 Q 6.5 19.58 6.83 19.25" fill="none" stroke="#111" stroke-width="1.6" stroke-linecap="round"/><path d="M 6.83 21.57 Q 6.5 21.24 6.83 20.9" fill="none" stroke="#111" stroke-width="1.6" stroke-linecap="round"/><path d="M 6.83 23.22 Q 6.5 22.89 6.83 22.56" fill="none" stroke="#111" stroke-width="1.6" stroke-linecap="round"/><path d="M 6.83 24.88 Q 6.5 24.55 6.83 24.22" fill="none" stroke="#111" stroke-width="1.6" stroke-linecap="round"/><path d="M 6.83 26.54 Q 6.5 26.2 6.83 25.87" fill="none" stroke="#111" stroke-width="1.6" stroke-linecap="round"/><path d="M 6.83 28.19 Q 6.5 27.86 6.83 27.53" fill="none" stroke="#111" stroke-width="1.6" stroke-linecap="round"/><path d="M 6.83 29.85 Q 6.5 29.52 6.83 29.18" fill="none" stroke="#111" stroke-width="1.6" stroke-linecap="round"/><path d="M 6.83 31.5 Q 6.5 31.17 6.83 30.84" fill="none" stroke="#111" stroke-width="1.6" stroke-linecap="round"/><path d="M 6.83 33.16 Q 6.5 32.83 6.83 32.5" fill="none" stroke="#111" stroke-width="1.6" stroke-linecap="round"/><path d="M 6.83 34.82 Q 6.5 34.48 6.83 34.15" fill="none" stroke="#111" stroke-width="1.6" stroke-linecap="round"/><path d="M 6.83 36.47 Q 6.5 36.14 6.83 35.81" fill="none" stroke="#111" stroke-width="1.6" stroke-linecap="round"/><path d="M 6.83 38.13 Q 6.5 37.8 6.83 37.46" fill="none" stroke="#111" stroke-width="1.6" stroke-linecap="round"/><path d="M 6.83 39.78 Q 6.5 39.45 6.83 39.12" fill="none" stroke="#111" stroke-width="1.6" stroke-linecap="round"/><path d="M 6.83 41.44 Q 6.5 41.11 6.83 40.78" fill="none" stroke="#111" stroke-width="1.6" stroke-linecap="round"/><path d="M 6.83 43.1 Q 6.5 42.76 6.83 42.43" fill="none" stroke="#111" stroke-width="1.6" stroke-linecap="round"/><path d="M 6.83 44.75 Q 6.5 44.42 6.83 44.09" fill="none" stroke="#111" stroke-width="1.6" stroke-linecap="round"/><path d="M 6.83 46.41 Q 6.5 46.08 6.83 45.75" fill="none" stroke="#111" stroke-width="1.6" stroke-linecap="round"/><path d="M 6.83 48.06 Q 6.5 47.73 6.83 47.4" fill="none" stroke="#111" stroke-width="1.6" stroke-linecap="round"/><path d="M 6.83 49.72 Q 6.5 49.39 6.83 49.06" fill="none" stroke="#111" stroke-width="1.6" stroke-linecap="round"/><path d="M 6.83 51.38 Q 6.5 51.04 6.83 50.71" fill="none" stroke="#111" stroke-width="1.6" stroke-linecap="round"/><path d="M 6.83 53.03 Q 6.5 52.7 6.83 52.37" fill="none" stroke="#111" stroke-width="1.6" stroke-linecap="round"/><path d="M 6.83 54.69 Q 6.5 54.36 6.83 54.03" fill="none" stroke="#111" stroke-width="1.6" stroke-linecap="round"/><path d="M 6.83 56.34 Q 6.5 56.01 6.83 55.68" fill="none" stroke="#111" stroke-width="1.6" stroke-linecap="round"/><path d="M 6.83 58 Q 6.5 57.67 6.83 57.34" fill="none" stroke="#111" stroke-width="1.6" stroke-linecap="round"/></svg>