<svg xmlns="http://www.w3.org/2000/svg" width="96" height="64" viewBox="0 0 96 64"><rect x="6" y="6" width="65" height="52" fill="none" stroke="#111" stroke-width="1.6"/><circle cx="58" cy="19" r="0.43" fill="none" stroke="#111" stroke-width="1.6"/><circle cx="66.67" cy="19" r="0.43" fill="none" stroke="#111" stroke-width="1.6"/><circle cx="66.67" cy="36.33" r="0.43" fill="none" stroke="#111" stroke-width="1.6"/><rect x="27.67" y="25.5" width="26" height="13" fill="none" stroke="#111" stroke-width="1.6"/><polyline points="58,19 58,14.67" fill="none" stroke="#111" stroke-width="1.6" stroke-linecap="round" stroke-linejoin="round"/><polyline points="58,26.8 58,37.2" fill="none" stroke="#111" stroke-width="1.6" stroke-linecap="round" stroke-linejoin="round"/><polyline points="58,32 53.67,32" fill="none" stroke="#111" stroke-width="1.6" stroke-linecap="round" stroke-linejoin="round"/><polyline points="60.17,26.37 60.17,28.53" fill="none" stroke="#111" stroke-width="1.6" stroke-linecap="round" stroke-linejoin="round"/><polyline points="60.17,27.67 63.63,27.67 66.67,27.67 66.67,14.67" fill="none" stroke="#111" stroke-width="1.6" stroke-linecap="round" stroke-linejoin="round"/><polyline points="60.17,30.7 60.17,33.3" fill="none" stroke="#111" stroke-width="1.6" stroke-linecap="round" stroke-linejoin="round"/><polyline points="60.17,35.47 60.17,37.63" fill="none" stroke="#111" stroke-width="1.6" stroke-linecap="round" stroke-linejoin="round"/><polyline points="60.17,36.33 66.67,36.33 66.67,40.67" fill="none" stroke="#111" stroke-width="1.6" stroke-linecap="round" stroke-linejoin="round"/><polyline points="60.6,32 62.33,32 66.67,32 66.67,36.33" fill="none" stroke="#111" stroke-width="1.6" stroke-linecap="round" stroke-linejoin="round"/><polyline points="61.03,32 64.5,30.7 64.5,33.3 61.03,32 61.47,32" fill="none" stroke="#111" stroke-width="1.6" stroke-linecap="round" stroke-linejoin="round"/><polyline points="66.67,19 49.33,19 49.33,14.67" fill="none" stroke="#111" stroke-width="1.6" stroke-linecap="round" stroke-linejoin="round"/></svg>