<svg xmlns="http://www.w3.org/2000/svg" width="96" height="64" viewBox="0 0 96 64"><rect x="26.28" y="55.92" width="1.04" height="2.08" fill="none" stroke="#111" stroke-width="1.6"/><rect x="45.52" y="15.88" width="2.08" height="1.04" fill="none" stroke="#111" stroke-width="1.6"/><rect x="45.52" y="41.88" width="2.08" height="1.04" fill="none" stroke="#111" stroke-width="1.6"/><rect x="45.52" y="47.08" width="2.08" height="1.04" fill="none" stroke="#111" stroke-width="1.6"/><rect x="6" y="6" width="41.6" height="52" fill="none" stroke="#111" stroke-width="1.6"/><polyline points="8.6,34.6 8.6,19" fill="none" stroke="#111" stroke-width="1.6" stroke-linecap="round" stroke-linejoin="round"/><rect x="11.2" y="19" width="2.6" height="15.6" fill="none" stroke="#111" stroke-width="1.6"/><path d="M 11.2 19 Q 12.5 17.71 13.8 19" fill="none" stroke="#111" stroke-width="1.6" stroke-linecap="round"/><path d="M 11.2 19 Q 12.5 17.71 13.8 19" fill="none" stroke="#111" stroke-width="1.6" stroke-linecap="round"/><path d="M 8.6 19 Q 12.5 15.12 16.4 19" fill="none" stroke="#111" stroke-width="1.6" stroke-linecap="round"/><path d="M 16.4 34.6 Q 12.5 38.48 8.6 34.6" fill="none" stroke="#111" stroke-width="1.6" stroke-linecap="round"/><path d="M 13.8 34.6 Q 12.5 35.89 11.2 34.6" fill="none" stroke="#111" stroke-width="1.6" stroke-linecap="round"/><path d="M 13.8 34.6 Q 12.5 35.89 11.2 34.6" fill="none" stroke="#111" stroke-width="1.6" stroke-linecap="round"/><polyline points="16.4,19 16.4,34.6" fill="none" stroke="#111" stroke-width="1.6" stroke-linecap="round" stroke-linejoin="round"/><circle cx="21.6" cy="24.46" r="1.3" fill="none" stroke="#111" stroke-width="1.6"/><polyline points="24.2,17.96 26.8,12.76 29.4,17.96 24.2,17.96" fill="none" stroke="#111" stroke-width="1.6" stroke-linecap="round" stroke-linejoin="round"/><polyline points="26.8,30.96 32,25.76 32,23.16" fill="none" stroke="#111" stroke-width="1.6" stroke-linecap="round" stroke-linejoin="round"/><polyline points="26.8,33.56 21.6,28.36 21.6,25.76" fill="none" stroke="#111" stroke-width="1.6" stroke-linecap="round" stroke-linejoin="round"/><polyline points="26.8,38.76 26.8,17.96" fill="none" stroke="#111" stroke-width="1.6" stroke-linecap="round" stroke-linejoin="round"/><circle cx="26.8" cy="38.76" r="2.6" fill="none" stroke="#111" stroke-width="1.6"/><rect x="30.7" y="20.56" width="2.6" height="2.6" fill="none" stroke="#111" stroke-width="1.6"/></svg>