<svg xmlns="http://www.w3.org/2000/svg" width="96" height="64" viewBox="0 0 96 64"><polyline points="11.2,24.2 16.4,24.2 16.4,24.2" fill="none" stroke="#111" stroke-width="1.6" stroke-linecap="round" stroke-linejoin="round"/><polyline points="11.2,29.4 16.4,29.4 16.4,29.4" fill="none" stroke="#111" stroke-width="1.6" stroke-linecap="round" stroke-linejoin="round"/><polyline points="11.2,34.6 16.4,34.6 16.4,34.6" fill="none" stroke="#111" stroke-width="1.6" stroke-linecap="round" stroke-linejoin="round"/><polyline points="11.2,39.8 16.4,39.8 16.4,39.8" fill="none" stroke="#111" stroke-width="1.6" stroke-linecap="round" stroke-linejoin="round"/><polyline points="11.2,50.2 11.2,13.8 32,13.8 52.8,13.8 52.8,19 58,19 58,24.2 63.2,24.2 63.2,39.8 58,39.8 58,45 52.8,45 52.8,50.2 11.2,50.2 11.2,50.2" fill="none" stroke="#111" stroke-width="1.6" stroke-linecap="round" stroke-linejoin="round"/><rect x="6" y="6" width="62.4" height="52" fill="none" stroke="#111" stroke-width="1.6"/></svg>