<svg xmlns="http://www.w3.org/2000/svg" width="96" height="64" viewBox="0 0 96 64"><polyline points="6,7.11 7.66,7.11" fill="none" stroke="#111" stroke-width="1.6" stroke-linecap="round" stroke-linejoin="round"/><polyline points="6,12.64 7.66,12.64" fill="none" stroke="#111" stroke-width="1.6" stroke-linecap="round" stroke-linejoin="round"/><polyline points="6,18.17 7.66,18.17" fill="none" stroke="#111" stroke-width="1.6" stroke-linecap="round" stroke-linejoin="round"/><polyline points="6,23.7 7.66,23.7" fill="none" stroke="#111" stroke-width="1.6" stroke-linecap="round" stroke-linejoin="round"/><polyline points="6,29.23 7.66,29.23" fill="none" stroke="#111" stroke-width="1.6" stroke-linecap="round" stroke-linejoin="round"/><polyline points="6,34.77 7.66,34.77" fill="none" stroke="#111" stroke-width="1.6" stroke-linecap="round" stroke-linejoin="round"/><polyline points="6,40.3 7.66,40.3" fill="none" stroke="#111" stroke-width="1.6" stroke-linecap="round" stroke-linejoin="round"/><polyline points="6,45.83 7.66,45.83" fill="none" stroke="#111" stroke-width="1.6" stroke-linecap="round" stroke-linejoin="round"/><polyline points="6,51.36 7.66,51.36" fill="none" stroke="#111" stroke-width="1.6" stroke-linecap="round" stroke-linejoin="round"/><polyline points="6,56.89 7.66,56.89" fill="none" stroke="#111" stroke-width="1.6" stroke-linecap="round" stroke-linejoin="round"/><path d="M 8.77 8.21 Q 7.66 7.11 8.77 6" fill="none" stroke="#111" stroke-width="1.6" stroke-linecap="round"/><path d="M 8.77 13.74 Q 7.66 12.64 8.77 11.53" fill="none" stroke="#111" stroke-width="1.6" stroke-linecap="round"/><path d="M 8.77 19.28 Q 7.66 18.17 8.77 17.06" fill="none" stroke="#111" stroke-width="1.6" stroke-linecap="round"/><path d="M 8.77 24.81 Q 7.66 23.7 8.77 22.6" fill="none" stroke="#111" stroke-width="1.6" stroke-linecap="round"/><path d="M 8.77 30.34 Q 7.66 29.23 8.77 28.13" fill="none" stroke="#111" stroke-width="1.6" stroke-linecap="round"/><path d="M 8.77 35.87 Q 7.66 34.77 8.77 33.66" fill="none" stroke="#111" stroke-width="1.6" stroke-linecap="round"/><path d="M 8.77 41.4 Q 7.66 40.3 8.77 39.19" fill="none" stroke="#111" stroke-width="1.6" stroke-linecap="round"/><path d="M 8.77 46.94 Q 7.66 45.83 8.77 44.72" fill="none" stroke="#111" stroke-width="1.6" stroke-linecap="round"/><path d="M 8.77 52.47 Q 7.66 51.36 8.77 50.26" fill="none" stroke="#111" stroke-width="1.6" stroke-linecap="round"/><path d="M 8.77 58 Q 7.66 56.89 8.77 55.79" fill="none" stroke="#111" stroke-width="1.6" stroke-linecap="round"/></svg>