<svg xmlns="http://www.w3.org/2000/svg" width="96" height="64" viewBox="0 0 96 64"><path d="M 14 6 Q 23.96 16 14 26" fill="none" stroke="#111" stroke-width="1.6" stroke-linecap="round"/><path d="M 14 38 Q 23.96 48 14 58" fill="none" stroke="#111" stroke-width="1.6" stroke-linecap="round"/><polyline points="14,26 6,26 6,6 14,6" fill="none" stroke="#111" stroke-width="1.6" stroke-linecap="round" stroke-linejoin="round"/><polyline points="14,38 6,38 6,58 14,58" fill="none" stroke="#111" stroke-width="1.6" stroke-linecap="round" stroke-linejoin="round"/><polyline points="24,16 28,16 28,26 33.2,26" fill="none" stroke="#111" stroke-width="1.6" stroke-linecap="round" stroke-linejoin="round"/><polyline points="24,48 28,48 28,38 33.2,38" fill="none" stroke="#111" stroke-width="1.6" stroke-linecap="round" stroke-linejoin="round"/><path d="M 39.36 22.96 Q 45.99 25.87 49.84 32" fill="none" stroke="#111" stroke-width="1.6" stroke-linecap="round"/><path d="M 49.84 32 Q 46 38.12 39.36 40.96" fill="none" stroke="#111" stroke-width="1.6" stroke-linecap="round"/><polyline points="39.36,22.96 31.84,22.96 31.84,23.04 32,23.36 32.24,23.68 32.4,24 32.64,24.32 32.8,24.72 33.04,25.04 33.2,25.44 33.36,25.76 33.52,26.16 33.68,26.48 33.84,26.88 33.92,27.28 34.08,27.68 34.16,28 34.24,28.4 34.32,28.8 34.4,29.2 34.48,29.6 34.56,30 34.56,30.4 34.64,30.8 34.64,31.2 34.64,31.6 34.64,32 34.64,32.4 34.64,32.8 34.64,33.2 34.64,33.6 34.56,34 34.48,34.4 34.4,34.8 34.4,35.2 34.24,35.6 34.16,35.92 34.08,36.32 33.92,36.72 33.84,37.12 33.68,37.44 33.52,37.84 33.36,38.24 33.2,38.56 33.04,38.96 32.88,39.28 32.72,39.68 32.48,40 32.24,40.32 32.08,40.64 31.84,40.96 31.84,40.96 39.36,40.96" fill="none" stroke="#111" stroke-width="1.6" stroke-linecap="round" stroke-linejoin="round"/><circle cx="52" cy="32" r="2" fill="none" stroke="#111" stroke-width="1.6"/><path d="M 14 6 Q 23.96 16 14 26" fill="none" stroke="#111" stroke-width="1.6" stroke-linecap="round"/><path d="M 14 38 Q 23.96 48 14 58" fill="none" stroke="#111" stroke-width="1.6" stroke-linecap="round"/><polyline points="14,26 6,26 6,6 14,6" fill="none" stroke="#111" stroke-width="1.6" stroke-linecap="round" stroke-linejoin="round"/><polyline points="14,38 6,38 6,58 14,58" fill="none" stroke="#111" stroke-width="1.6" stroke-linecap="round" stroke-linejoin="round"/><polyline points="24,16 28,16 28,26 33.2,26" fill="none" stroke="#111" stroke-width="1.6" stroke-linecap="round" stroke-linejoin="round"/><polyline points="24,48 28,48 28,38 33.2,38" fill="none" stroke="#111" stroke-width="1.6" stroke-linecap="round" stroke-linejoin="round"/><path d="M 39.36 22.96 Q 45.99 25.87 49.84 32" fill="none" stroke="#111" stroke-width="1.6" stroke-linecap="round"/><path d="M 49.84 32 Q 46 38.12 39.36 40.96" fill="none" stroke="#111" stroke-width="1.6" stroke-linecap="round"/><polyline points="39.36,22.96 31.84,22.96 31.84,23.04 32,23.36 32.24,23.68 32.4,24 32.64,24.32 32.8,24.72 33.04,25.04 33.2,25.44 33.36,25.76 33.52,26.16 33.68,26.48 33.84,26.88 33.92,27.28 34.08,27.68 34.16,28 34.24,28.4 34.32,28.8 34.4,29.2 34.48,29.6 34.56,30 34.56,30.4 34.64,30.8 34.64,31.2 34.64,31.6 34.64,32 34.64,32.4 34.64,32.8 34.64,33.2 34.64,33.6 34.56,34 34.48,34.4 34.4,34.8 34.4,35.2 34.24,35.6 34.16,35.92 34.08,36.32 33.92,36.72 33.84,37.12 33.68,37.44 33.52,37.84 33.36,38.24 33.2,38.56 33.04,38.96 32.88,39.28 32.72,39.68 32.48,40 32.24,40.32 32.08,40.64 31.84,40.96 31.84,40.96 39.36,40.96" fill="none" stroke="#111" stroke-width="1.6" stroke-linecap="round" stroke-linejoin="round"/><circle cx="52" cy="32" r="2" fill="none" stroke="#111" stroke-width="1.6"/><rect x="14" y="8" width="32" height="48" fill="none" stroke="#111" stroke-width="1.6"/></svg>