<svg xmlns="http://www.w3.org/2000/svg" width="96" height="64" viewBox="0 0 96 64"><rect x="6" y="6" width="0.42" height="0.12" fill="none" stroke="#111" stroke-width="1.6"/><rect x="6" y="7.24" width="0.42" height="0.12" fill="none" stroke="#111" stroke-width="1.6"/><rect x="6" y="8.47" width="0.42" height="0.12" fill="none" stroke="#111" stroke-width="1.6"/><rect x="6" y="9.71" width="0.42" height="0.12" fill="none" stroke="#111" stroke-width="1.6"/><rect x="6" y="10.94" width="0.42" height="0.12" fill="none" stroke="#111" stroke-width="1.6"/><rect x="6" y="12.18" width="0.42" height="0.12" fill="none" stroke="#111" stroke-width="1.6"/><rect x="6" y="13.41" width="0.42" height="0.12" fill="none" stroke="#111" stroke-width="1.6"/><rect x="6" y="14.65" width="0.42" height="0.12" fill="none" stroke="#111" stroke-width="1.6"/><rect x="6" y="15.88" width="0.42" height="0.12" fill="none" stroke="#111" stroke-width="1.6"/><rect x="6" y="17.12" width="0.42" height="0.12" fill="none" stroke="#111" stroke-width="1.6"/><rect x="6" y="18.35" width="0.42" height="0.13" fill="none" stroke="#111" stroke-width="1.6"/><rect x="6" y="19.59" width="0.42" height="0.12" fill="none" stroke="#111" stroke-width="1.6"/><rect x="6" y="20.82" width="0.42" height="0.13" fill="none" stroke="#111" stroke-width="1.6"/><rect x="6" y="22.06" width="0.42" height="0.12" fill="none" stroke="#111" stroke-width="1.6"/><rect x="6" y="23.29" width="0.42" height="0.13" fill="none" stroke="#111" stroke-width="1.6"/><rect x="6" y="24.53" width="0.42" height="0.12" fill="none" stroke="#111" stroke-width="1.6"/><rect x="6" y="25.76" width="0.42" height="0.13" fill="none" stroke="#111" stroke-width="1.6"/><rect x="6" y="27" width="0.42" height="0.12" fill="none" stroke="#111" stroke-width="1.6"/><rect x="6" y="28.23" width="0.42" height="0.13" fill="none" stroke="#111" stroke-width="1.6"/><rect x="6" y="29.47" width="0.42" height="0.12" fill="none" stroke="#111" stroke-width="1.6"/><rect x="6" y="30.7" width="0.42" height="0.13" fill="none" stroke="#111" stroke-width="1.6"/><rect x="6" y="31.94" width="0.42" height="0.12" fill="none" stroke="#111" stroke-width="1.6"/><rect x="6" y="33.17" width="0.42" height="0.13" fill="none" stroke="#111" stroke-width="1.6"/><rect x="6" y="34.41" width="0.42" height="0.12" fill="none" stroke="#111" stroke-width="1.6"/><rect x="6" y="35.64" width="0.42" height="0.13" fill="none" stroke="#111" stroke-width="1.6"/><rect x="6" y="36.88" width="0.42" height="0.12" fill="none" stroke="#111" stroke-width="1.6"/><rect x="6" y="38.11" width="0.42" height="0.13" fill="none" stroke="#111" stroke-width="1.6"/><rect x="6" y="39.35" width="0.42" height="0.12" fill="none" stroke="#111" stroke-width="1.6"/><rect x="6" y="40.58" width="0.42" height="0.13" fill="none" stroke="#111" stroke-width="1.6"/><rect x="6" y="41.82" width="0.42" height="0.12" fill="none" stroke="#111" stroke-width="1.6"/><rect x="6" y="43.05" width="0.42" height="0.13" fill="none" stroke="#111" stroke-width="1.6"/><rect x="6" y="44.29" width="0.42" height="0.12" fill="none" stroke="#111" stroke-width="1.6"/><rect x="6" y="45.52" width="0.42" height="0.13" fill="none" stroke="#111" stroke-width="1.6"/><rect x="6" y="46.76" width="0.42" height="0.12" fill="none" stroke="#111" stroke-width="1.6"/><rect x="6" y="48" width="0.42" height="0.12" fill="none" stroke="#111" stroke-width="1.6"/><rect x="6" y="49.23" width="0.42" height="0.12" fill="none" stroke="#111" stroke-width="1.6"/><rect x="6" y="50.47" width="0.42" height="0.12" fill="none" stroke="#111" stroke-width="1.6"/><rect x="6" y="51.7" width="0.42" height="0.12" fill="none" stroke="#111" stroke-width="1.6"/><rect x="6" y="52.94" width="0.42" height="0.12" fill="none" stroke="#111" stroke-width="1.6"/><rect x="6" y="54.17" width="0.42" height="0.12" fill="none" stroke="#111" stroke-width="1.6"/><rect x="6" y="55.41" width="0.42" height="0.12" fill="none" stroke="#111" stroke-width="1.6"/><rect x="6" y="56.64" width="0.42" height="0.12" fill="none" stroke="#111" stroke-width="1.6"/><rect x="6" y="57.88" width="0.42" height="0.12" fill="none" stroke="#111" stroke-width="1.6"/><polyline points="6.62,6.06 6.42,6.06" fill="none" stroke="#111" stroke-width="1.6" stroke-linecap="round" stroke-linejoin="round"/><polyline points="6.62,7.3 6.42,7.3" fill="none" stroke="#111" stroke-width="1.6" stroke-linecap="round" stroke-linejoin="round"/><polyline points="6.62,8.53 6.42,8.53" fill="none" stroke="#111" stroke-width="1.6" stroke-linecap="round" stroke-linejoin="round"/><polyline points="6.62,9.77 6.42,9.77" fill="none" stroke="#111" stroke-width="1.6" stroke-linecap="round" stroke-linejoin="round"/><polyline points="6.62,11 6.42,11" fill="none" stroke="#111" stroke-width="1.6" stroke-linecap="round" stroke-linejoin="round"/><polyline points="6.62,12.24 6.42,12.24" fill="none" stroke="#111" stroke-width="1.6" stroke-linecap="round" stroke-linejoin="round"/><polyline points="6.62,13.47 6.42,13.47" fill="none" stroke="#111" stroke-width="1.6" stroke-linecap="round" stroke-linejoin="round"/><polyline points="6.62,14.71 6.42,14.71" fill="none" stroke="#111" stroke-width="1.6" stroke-linecap="round" stroke-linejoin="round"/><polyline points="6.62,15.94 6.42,15.94" fill="none" stroke="#111" stroke-width="1.6" stroke-linecap="round" stroke-linejoin="round"/><polyline points="6.62,17.18 6.42,17.18" fill="none" stroke="#111" stroke-width="1.6" stroke-linecap="round" stroke-linejoin="round"/><polyline points="6.62,18.41 6.42,18.41" fill="none" stroke="#111" stroke-width="1.6" stroke-linecap="round" stroke-linejoin="round"/><polyline points="6.62,19.65 6.42,19.65" fill="none" stroke="#111" stroke-width="1.6" stroke-linecap="round" stroke-linejoin="round"/><polyline points="6.62,20.88 6.42,20.88" fill="none" stroke="#111" stroke-width="1.6" stroke-linecap="round" stroke-linejoin="round"/><polyline points="6.62,22.12 6.42,22.12" fill="none" stroke="#111" stroke-width="1.6" stroke-linecap="round" stroke-linejoin="round"/><polyline points="6.62,23.35 6.42,23.35" fill="none" stroke="#111" stroke-width="1.6" stroke-linecap="round" stroke-linejoin="round"/><polyline points="6.62,24.59 6.42,24.59" fill="none" stroke="#111" stroke-width="1.6" stroke-linecap="round" stroke-linejoin="round"/><polyline points="6.62,25.82 6.42,25.82" fill="none" stroke="#111" stroke-width="1.6" stroke-linecap="round" stroke-linejoin="round"/><polyline points="6.62,27.06 6.42,27.06" fill="none" stroke="#111" stroke-width="1.6" stroke-linecap="round" stroke-linejoin="round"/><polyline points="6.62,28.29 6.42,28.29" fill="none" stroke="#111" stroke-width="1.6" stroke-linecap="round" stroke-linejoin="round"/><polyline points="6.62,29.53 6.42,29.53" fill="none" stroke="#111" stroke-width="1.6" stroke-linecap="round" stroke-linejoin="round"/><polyline points="6.62,30.76 6.42,30.76" fill="none" stroke="#111" stroke-width="1.6" stroke-linecap="round" stroke-linejoin="round"/><polyline points="6.62,32 6.42,32" fill="none" stroke="#111" stroke-width="1.6" stroke-linecap="round" stroke-linejoin="round"/><polyline points="6.62,33.24 6.42,33.24" fill="none" stroke="#111" stroke-width="1.6" stroke-linecap="round" stroke-linejoin="round"/><polyline points="6.62,34.47 6.42,34.47" fill="none" stroke="#111" stroke-width="1.6" stroke-linecap="round" stroke-linejoin="round"/><polyline points="6.62,35.71 6.42,35.71" fill="none" stroke="#111" stroke-width="1.6" stroke-linecap="round" stroke-linejoin="round"/><polyline points="6.62,36.94 6.42,36.94" fill="none" stroke="#111" stroke-width="1.6" stroke-linecap="round" stroke-linejoin="round"/><polyline points="6.62,38.18 6.42,38.18" fill="none" stroke="#111" stroke-width="1.6" stroke-linecap="round" stroke-linejoin="round"/><polyline points="6.62,39.41 6.42,39.41" fill="none" stroke="#111" stroke-width="1.6" stroke-linecap="round" stroke-linejoin="round"/><polyline points="6.62,40.65 6.42,40.65" fill="none" stroke="#111" stroke-width="1.6" stroke-linecap="round" stroke-linejoin="round"/><polyline points="6.62,41.88 6.42,41.88" fill="none" stroke="#111" stroke-width="1.6" stroke-linecap="round" stroke-linejoin="round"/><polyline points="6.62,43.12 6.42,43.12" fill="none" stroke="#111" stroke-width="1.6" stroke-linecap="round" stroke-linejoin="round"/><polyline points="6.62,44.35 6.42,44.35" fill="none" stroke="#111" stroke-width="1.6" stroke-linecap="round" stroke-linejoin="round"/><polyline points="6.62,45.59 6.42,45.59" fill="none" stroke="#111" stroke-width="1.6" stroke-linecap="round" stroke-linejoin="round"/><polyline points="6.62,46.82 6.42,46.82" fill="none" stroke="#111" stroke-width="1.6" stroke-linecap="round" stroke-linejoin="round"/><polyline points="6.62,48.06 6.42,48.06" fill="none" stroke="#111" stroke-width="1.6" stroke-linecap="round" stroke-linejoin="round"/><polyline points="6.62,49.29 6.42,49.29" fill="none" stroke="#111" stroke-width="1.6" stroke-linecap="round" stroke-linejoin="round"/><polyline points="6.62,50.53 6.42,50.53" fill="none" stroke="#111" stroke-width="1.6" stroke-linecap="round" stroke-linejoin="round"/><polyline points="6.62,51.76 6.42,51.76" fill="none" stroke="#111" stroke-width="1.6" stroke-linecap="round" stroke-linejoin="round"/><polyline points="6.62,53 6.42,53" fill="none" stroke="#111" stroke-width="1.6" stroke-linecap="round" stroke-linejoin="round"/><polyline points="6.62,54.23 6.42,54.23" fill="none" stroke="#111" stroke-width="1.6" stroke-linecap="round" stroke-linejoin="round"/><polyline points="6.62,55.47 6.42,55.47" fill="none" stroke="#111" stroke-width="1.6" stroke-linecap="round" stroke-linejoin="round"/><polyline points="6.62,56.7 6.42,56.7" fill="none" stroke="#111" stroke-width="1.6" stroke-linecap="round" stroke-linejoin="round"/><polyline points="6.62,57.94 6.42,57.94" fill="none" stroke="#111" stroke-width="1.6" stroke-linecap="round" stroke-linejoin="round"/></svg>