<svg xmlns="http://www.w3.org/2000/svg" width="96" height="64" viewBox="0 0 96 64"><rect x="6" y="6" width="20.8" height="52" fill="none" stroke="#111" stroke-width="1.6"/><polyline points="11.2,50.2 14.45,50.2" fill="none" stroke="#111" stroke-width="1.6" stroke-linecap="round" stroke-linejoin="round"/><polyline points="13.8,11.72 13.8,15.62 17.7,13.67 13.8,11.72" fill="none" stroke="#111" stroke-width="1.6" stroke-linecap="round" stroke-linejoin="round"/><polyline points="13.8,13.67 11.2,13.67" fill="none" stroke="#111" stroke-width="1.6" stroke-linecap="round" stroke-linejoin="round"/><polyline points="13.8,17.05 13.8,20.95 17.7,19 13.8,17.05" fill="none" stroke="#111" stroke-width="1.6" stroke-linecap="round" stroke-linejoin="round"/><polyline points="13.8,19 11.2,19" fill="none" stroke="#111" stroke-width="1.6" stroke-linecap="round" stroke-linejoin="round"/><polyline points="13.8,22.25 13.8,26.15 17.7,24.2 13.8,22.25" fill="none" stroke="#111" stroke-width="1.6" stroke-linecap="round" stroke-linejoin="round"/><polyline points="13.8,24.2 11.2,24.2" fill="none" stroke="#111" stroke-width="1.6" stroke-linecap="round" stroke-linejoin="round"/><polyline points="13.8,37.85 13.8,41.75 17.7,39.8 13.8,37.85" fill="none" stroke="#111" stroke-width="1.6" stroke-linecap="round" stroke-linejoin="round"/><polyline points="13.8,39.8 11.2,39.8" fill="none" stroke="#111" stroke-width="1.6" stroke-linecap="round" stroke-linejoin="round"/><polyline points="14.45,29.4 11.2,29.4" fill="none" stroke="#111" stroke-width="1.6" stroke-linecap="round" stroke-linejoin="round"/><polyline points="14.45,34.6 11.2,34.6" fill="none" stroke="#111" stroke-width="1.6" stroke-linecap="round" stroke-linejoin="round"/><polyline points="14.45,45 11.2,45" fill="none" stroke="#111" stroke-width="1.6" stroke-linecap="round" stroke-linejoin="round"/><polyline points="14.45,48.25 14.45,52.15 18.35,50.2 14.45,48.25" fill="none" stroke="#111" stroke-width="1.6" stroke-linecap="round" stroke-linejoin="round"/><circle cx="15.1" cy="29.4" r="0.65" fill="none" stroke="#111" stroke-width="1.6"/><circle cx="15.1" cy="34.6" r="0.65" fill="none" stroke="#111" stroke-width="1.6"/><circle cx="15.1" cy="45" r="0.65" fill="none" stroke="#111" stroke-width="1.6"/><circle cx="18.35" cy="13.67" r="0.65" fill="none" stroke="#111" stroke-width="1.6"/><circle cx="18.35" cy="19" r="0.65" fill="none" stroke="#111" stroke-width="1.6"/><circle cx="18.35" cy="24.2" r="0.65" fill="none" stroke="#111" stroke-width="1.6"/><circle cx="18.35" cy="39.8" r="0.65" fill="none" stroke="#111" stroke-width="1.6"/><polyline points="19,13.67 22.12,13.67" fill="none" stroke="#111" stroke-width="1.6" stroke-linecap="round" stroke-linejoin="round"/><polyline points="19,19 22.12,19" fill="none" stroke="#111" stroke-width="1.6" stroke-linecap="round" stroke-linejoin="round"/><polyline points="19,24.2 22.12,24.2" fill="none" stroke="#111" stroke-width="1.6" stroke-linecap="round" stroke-linejoin="round"/><polyline points="19,39.8 22.12,39.8" fill="none" stroke="#111" stroke-width="1.6" stroke-linecap="round" stroke-linejoin="round"/><circle cx="19" cy="50.2" r="0.65" fill="none" stroke="#111" stroke-width="1.6"/><polyline points="19.65,27.45 19.65,31.35 15.75,29.4 19.65,27.45" fill="none" stroke="#111" stroke-width="1.6" stroke-linecap="round" stroke-linejoin="round"/><polyline points="19.65,29.4 22.12,29.4" fill="none" stroke="#111" stroke-width="1.6" stroke-linecap="round" stroke-linejoin="round"/><polyline points="19.65,32.65 19.65,36.55 15.75,34.6 19.65,32.65" fill="none" stroke="#111" stroke-width="1.6" stroke-linecap="round" stroke-linejoin="round"/><polyline points="19.65,34.6 22.12,34.6" fill="none" stroke="#111" stroke-width="1.6" stroke-linecap="round" stroke-linejoin="round"/><polyline points="19.65,43.05 19.65,46.95 15.75,45 19.65,43.05" fill="none" stroke="#111" stroke-width="1.6" stroke-linecap="round" stroke-linejoin="round"/><polyline points="19.65,45 22.12,45" fill="none" stroke="#111" stroke-width="1.6" stroke-linecap="round" stroke-linejoin="round"/><polyline points="19.65,50.2 22.12,50.2" fill="none" stroke="#111" stroke-width="1.6" stroke-linecap="round" stroke-linejoin="round"/></svg>