<svg xmlns="http://www.w3.org/2000/svg" width="96" height="64" viewBox="0 0 96 64"><rect x="6" y="6" width="11.56" height="52" fill="none" stroke="#111" stroke-width="1.6"/><rect x="6.58" y="6.58" width="10.4" height="50.84" fill="none" stroke="#111" stroke-width="1.6"/><rect x="6.58" y="8.6" width="2.89" height="0.58" fill="none" stroke="#111" stroke-width="1.6"/><rect x="6.58" y="14.38" width="2.89" height="0.58" fill="none" stroke="#111" stroke-width="1.6"/><rect x="6.58" y="20.16" width="2.89" height="0.57" fill="none" stroke="#111" stroke-width="1.6"/><rect x="6.58" y="25.93" width="2.89" height="0.58" fill="none" stroke="#111" stroke-width="1.6"/><rect x="6.58" y="31.71" width="2.89" height="0.58" fill="none" stroke="#111" stroke-width="1.6"/><rect x="6.58" y="37.49" width="2.89" height="0.58" fill="none" stroke="#111" stroke-width="1.6"/><rect x="6.58" y="43.27" width="2.89" height="0.57" fill="none" stroke="#111" stroke-width="1.6"/><rect x="6.58" y="49.04" width="2.89" height="0.58" fill="none" stroke="#111" stroke-width="1.6"/><rect x="6.58" y="54.82" width="2.89" height="0.58" fill="none" stroke="#111" stroke-width="1.6"/><rect x="14.09" y="8.6" width="2.89" height="0.58" fill="none" stroke="#111" stroke-width="1.6"/><rect x="14.09" y="14.38" width="2.89" height="0.58" fill="none" stroke="#111" stroke-width="1.6"/><rect x="14.09" y="20.16" width="2.89" height="0.57" fill="none" stroke="#111" stroke-width="1.6"/><rect x="14.09" y="25.93" width="2.89" height="0.58" fill="none" stroke="#111" stroke-width="1.6"/><rect x="14.09" y="31.71" width="2.89" height="0.58" fill="none" stroke="#111" stroke-width="1.6"/><rect x="14.09" y="37.49" width="2.89" height="0.58" fill="none" stroke="#111" stroke-width="1.6"/><rect x="14.09" y="43.27" width="2.89" height="0.57" fill="none" stroke="#111" stroke-width="1.6"/><rect x="14.09" y="49.04" width="2.89" height="0.58" fill="none" stroke="#111" stroke-width="1.6"/></svg>