<svg xmlns="http://www.w3.org/2000/svg" width="96" height="64" viewBox="0 0 96 64"><rect x="6" y="6" width="78" height="52" fill="none" stroke="#111" stroke-width="1.6"/><polyline points="14.67,25.93 15.97,22.03 13.37,22.03 14.67,25.93" fill="none" stroke="#111" stroke-width="1.6" stroke-linecap="round" stroke-linejoin="round"/><polyline points="14.67,29.4 14.67,19.87" fill="none" stroke="#111" stroke-width="1.6" stroke-linecap="round" stroke-linejoin="round"/><path d="M 14.67 29.4 Q 17.27 32 14.67 34.6" fill="none" stroke="#111" stroke-width="1.6" stroke-linecap="round"/><polyline points="14.67,34.6 14.67,38.07" fill="none" stroke="#111" stroke-width="1.6" stroke-linecap="round" stroke-linejoin="round"/><polyline points="23.33,25.93 24.63,22.03 22.03,22.03 23.33,25.93" fill="none" stroke="#111" stroke-width="1.6" stroke-linecap="round" stroke-linejoin="round"/><polyline points="23.33,29.4 23.33,19.87" fill="none" stroke="#111" stroke-width="1.6" stroke-linecap="round" stroke-linejoin="round"/><path d="M 23.33 29.4 Q 25.93 32 23.33 34.6" fill="none" stroke="#111" stroke-width="1.6" stroke-linecap="round"/><polyline points="23.33,34.6 23.33,38.07" fill="none" stroke="#111" stroke-width="1.6" stroke-linecap="round" stroke-linejoin="round"/><polyline points="32,25.93 33.3,22.03 30.7,22.03 32,25.93" fill="none" stroke="#111" stroke-width="1.6" stroke-linecap="round" stroke-linejoin="round"/><polyline points="32,29.4 32,19.87" fill="none" stroke="#111" stroke-width="1.6" stroke-linecap="round" stroke-linejoin="round"/><path d="M 32 29.4 Q 34.6 32 32 34.6" fill="none" stroke="#111" stroke-width="1.6" stroke-linecap="round"/><polyline points="32,34.6 32,38.07" fill="none" stroke="#111" stroke-width="1.6" stroke-linecap="round" stroke-linejoin="round"/><polyline points="45.87,19 50.2,19" fill="none" stroke="#111" stroke-width="1.6" stroke-linecap="round" stroke-linejoin="round"/><path d="M 45.87 24.2 Q 43.27 21.6 45.87 19" fill="none" stroke="#111" stroke-width="1.6" stroke-linecap="round"/><path d="M 45.87 29.4 Q 43.27 26.8 45.87 24.2" fill="none" stroke="#111" stroke-width="1.6" stroke-linecap="round"/><path d="M 45.87 34.6 Q 43.27 32 45.87 29.4" fill="none" stroke="#111" stroke-width="1.6" stroke-linecap="round"/><path d="M 45.87 39.8 Q 43.27 37.2 45.87 34.6" fill="none" stroke="#111" stroke-width="1.6" stroke-linecap="round"/><path d="M 45.87 45 Q 43.27 42.4 45.87 39.8" fill="none" stroke="#111" stroke-width="1.6" stroke-linecap="round"/><polyline points="45.87,45 50.2,45" fill="none" stroke="#111" stroke-width="1.6" stroke-linecap="round" stroke-linejoin="round"/><polyline points="38.07,19 38.07,45" fill="none" stroke="#111" stroke-width="1.6" stroke-linecap="round" stroke-linejoin="round"/><polyline points="39.8,45 39.8,19" fill="none" stroke="#111" stroke-width="1.6" stroke-linecap="round" stroke-linejoin="round"/></svg>