<svg xmlns="http://www.w3.org/2000/svg" width="96" height="64" viewBox="0 0 96 64"><rect x="6" y="22.93" width="11.97" height="18.99" fill="none" stroke="#111" stroke-width="1.6"/><rect x="6" y="22.93" width="11.97" height="18.99" fill="none" stroke="#111" stroke-width="1.6"/><rect x="6" y="22.93" width="11.97" height="18.99" fill="none" stroke="#111" stroke-width="1.6"/><rect x="6" y="22.93" width="11.97" height="18.99" fill="none" stroke="#111" stroke-width="1.6"/><rect x="6" y="31.49" width="11.97" height="1.88" fill="none" stroke="#111" stroke-width="1.6"/><rect x="6" y="22.93" width="11.97" height="18.99" fill="none" stroke="#111" stroke-width="1.6"/><rect x="6" y="22.93" width="11.97" height="18.99" fill="none" stroke="#111" stroke-width="1.6"/><rect x="6" y="22.93" width="11.97" height="18.99" fill="none" stroke="#111" stroke-width="1.6"/><rect x="6" y="22.93" width="11.97" height="18.99" fill="none" stroke="#111" stroke-width="1.6"/><rect x="7.71" y="27.89" width="8.55" height="8.22" fill="none" stroke="#111" stroke-width="1.6"/><rect x="7.71" y="27.89" width="8.55" height="8.22" fill="none" stroke="#111" stroke-width="1.6"/><rect x="7.71" y="27.89" width="8.55" height="8.22" fill="none" stroke="#111" stroke-width="1.6"/><rect x="7.71" y="27.89" width="8.55" height="8.22" fill="none" stroke="#111" stroke-width="1.6"/><rect x="7.71" y="26.53" width="8.55" height="10.94" fill="none" stroke="#111" stroke-width="1.6"/><rect x="7.71" y="27.38" width="8.55" height="10.09" fill="none" stroke="#111" stroke-width="1.6"/><rect x="9.42" y="8.39" width="5.13" height="47.22" fill="none" stroke="#111" stroke-width="1.6"/><rect x="9.42" y="6" width="5.13" height="52" fill="none" stroke="#111" stroke-width="1.6"/><rect x="9.42" y="29.95" width="5.13" height="4.1" fill="none" stroke="#111" stroke-width="1.6"/></svg>