<svg xmlns="http://www.w3.org/2000/svg" width="96" height="64" viewBox="0 0 96 64"><rect x="6" y="6" width="84" height="35" fill="none" stroke="#111" stroke-width="1.6"/><rect x="8.8" y="15.1" width="8.4" height="22.4" fill="none" stroke="#111" stroke-width="1.6"/><circle cx="13" cy="10.9" r="1.4" fill="none" stroke="#111" stroke-width="1.6"/><polyline points="13,15.1 13,10.9 27,10.9 27,15.1" fill="none" stroke="#111" stroke-width="1.6" stroke-linecap="round" stroke-linejoin="round"/><polyline points="13,37.5 13,44.5" fill="none" stroke="#111" stroke-width="1.6" stroke-linecap="round" stroke-linejoin="round"/><rect x="22.8" y="15.1" width="8.4" height="22.4" fill="none" stroke="#111" stroke-width="1.6"/><circle cx="27" cy="10.9" r="1.4" fill="none" stroke="#111" stroke-width="1.6"/><polyline points="27,15.1 27,10.9 41,10.9 41,15.1" fill="none" stroke="#111" stroke-width="1.6" stroke-linecap="round" stroke-linejoin="round"/><polyline points="27,37.5 27,44.5" fill="none" stroke="#111" stroke-width="1.6" stroke-linecap="round" stroke-linejoin="round"/><rect x="36.8" y="15.1" width="8.4" height="22.4" fill="none" stroke="#111" stroke-width="1.6"/><circle cx="41" cy="10.9" r="1.4" fill="none" stroke="#111" stroke-width="1.6"/><polyline points="41,15.1 41,10.9 55,10.9 55,15.1" fill="none" stroke="#111" stroke-width="1.6" stroke-linecap="round" stroke-linejoin="round"/><polyline points="41,37.5 41,44.5" fill="none" stroke="#111" stroke-width="1.6" stroke-linecap="round" stroke-linejoin="round"/><rect x="50.8" y="15.1" width="8.4" height="22.4" fill="none" stroke="#111" stroke-width="1.6"/><circle cx="55" cy="10.9" r="1.4" fill="none" stroke="#111" stroke-width="1.6"/><polyline points="55,15.1 55,10.9 69,10.9 69,15.1" fill="none" stroke="#111" stroke-width="1.6" stroke-linecap="round" stroke-linejoin="round"/><polyline points="55,37.5 55,44.5" fill="none" stroke="#111" stroke-width="1.6" stroke-linecap="round" stroke-linejoin="round"/><rect x="64.8" y="15.1" width="8.4" height="22.4" fill="none" stroke="#111" stroke-width="1.6"/><circle cx="69" cy="10.9" r="1.4" fill="none" stroke="#111" stroke-width="1.6"/><polyline points="69,15.1 69,10.9 83,10.9 83,15.1" fill="none" stroke="#111" stroke-width="1.6" stroke-linecap="round" stroke-linejoin="round"/><polyline points="69,37.5 69,44.5" fill="none" stroke="#111" stroke-width="1.6" stroke-linecap="round" stroke-linejoin="round"/><rect x="78.8" y="15.1" width="8.4" height="22.4" fill="none" stroke="#111" stroke-width="1.6"/><polyline points="83,37.5 83,44.5" fill="none" stroke="#111" stroke-width="1.6" stroke-linecap="round" stroke-linejoin="round"/></svg>