<svg xmlns="http://www.w3.org/2000/svg" width="96" height="64" viewBox="0 0 96 64"><rect x="6" y="6" width="0.88" height="0.26" fill="none" stroke="#111" stroke-width="1.6"/><rect x="6" y="8.59" width="0.88" height="0.26" fill="none" stroke="#111" stroke-width="1.6"/><rect x="6" y="11.17" width="0.88" height="0.26" fill="none" stroke="#111" stroke-width="1.6"/><rect x="6" y="13.76" width="0.88" height="0.26" fill="none" stroke="#111" stroke-width="1.6"/><rect x="6" y="16.35" width="0.88" height="0.26" fill="none" stroke="#111" stroke-width="1.6"/><rect x="6" y="18.94" width="0.88" height="0.25" fill="none" stroke="#111" stroke-width="1.6"/><rect x="6" y="21.52" width="0.88" height="0.26" fill="none" stroke="#111" stroke-width="1.6"/><rect x="6" y="24.11" width="0.88" height="0.26" fill="none" stroke="#111" stroke-width="1.6"/><rect x="6" y="26.7" width="0.88" height="0.26" fill="none" stroke="#111" stroke-width="1.6"/><rect x="6" y="29.28" width="0.88" height="0.26" fill="none" stroke="#111" stroke-width="1.6"/><rect x="6" y="31.87" width="0.88" height="0.26" fill="none" stroke="#111" stroke-width="1.6"/><rect x="6" y="34.46" width="0.88" height="0.26" fill="none" stroke="#111" stroke-width="1.6"/><rect x="6" y="37.04" width="0.88" height="0.26" fill="none" stroke="#111" stroke-width="1.6"/><rect x="6" y="39.63" width="0.88" height="0.26" fill="none" stroke="#111" stroke-width="1.6"/><rect x="6" y="42.22" width="0.88" height="0.26" fill="none" stroke="#111" stroke-width="1.6"/><rect x="6" y="44.81" width="0.88" height="0.25" fill="none" stroke="#111" stroke-width="1.6"/><rect x="6" y="47.39" width="0.88" height="0.26" fill="none" stroke="#111" stroke-width="1.6"/><rect x="6" y="49.98" width="0.88" height="0.26" fill="none" stroke="#111" stroke-width="1.6"/><rect x="6" y="52.57" width="0.88" height="0.26" fill="none" stroke="#111" stroke-width="1.6"/><rect x="6" y="55.15" width="0.88" height="0.26" fill="none" stroke="#111" stroke-width="1.6"/><rect x="6" y="57.74" width="0.88" height="0.26" fill="none" stroke="#111" stroke-width="1.6"/><polyline points="7.29,6.13 6.88,6.13" fill="none" stroke="#111" stroke-width="1.6" stroke-linecap="round" stroke-linejoin="round"/><polyline points="7.29,8.72 6.88,8.72" fill="none" stroke="#111" stroke-width="1.6" stroke-linecap="round" stroke-linejoin="round"/><polyline points="7.29,11.3 6.88,11.3" fill="none" stroke="#111" stroke-width="1.6" stroke-linecap="round" stroke-linejoin="round"/><polyline points="7.29,13.89 6.88,13.89" fill="none" stroke="#111" stroke-width="1.6" stroke-linecap="round" stroke-linejoin="round"/><polyline points="7.29,16.48 6.88,16.48" fill="none" stroke="#111" stroke-width="1.6" stroke-linecap="round" stroke-linejoin="round"/><polyline points="7.29,19.06 6.88,19.06" fill="none" stroke="#111" stroke-width="1.6" stroke-linecap="round" stroke-linejoin="round"/><polyline points="7.29,21.65 6.88,21.65" fill="none" stroke="#111" stroke-width="1.6" stroke-linecap="round" stroke-linejoin="round"/><polyline points="7.29,24.24 6.88,24.24" fill="none" stroke="#111" stroke-width="1.6" stroke-linecap="round" stroke-linejoin="round"/><polyline points="7.29,26.83 6.88,26.83" fill="none" stroke="#111" stroke-width="1.6" stroke-linecap="round" stroke-linejoin="round"/><polyline points="7.29,29.41 6.88,29.41" fill="none" stroke="#111" stroke-width="1.6" stroke-linecap="round" stroke-linejoin="round"/><polyline points="7.29,32 6.88,32" fill="none" stroke="#111" stroke-width="1.6" stroke-linecap="round" stroke-linejoin="round"/><polyline points="7.29,34.59 6.88,34.59" fill="none" stroke="#111" stroke-width="1.6" stroke-linecap="round" stroke-linejoin="round"/><polyline points="7.29,37.17 6.88,37.17" fill="none" stroke="#111" stroke-width="1.6" stroke-linecap="round" stroke-linejoin="round"/><polyline points="7.29,39.76 6.88,39.76" fill="none" stroke="#111" stroke-width="1.6" stroke-linecap="round" stroke-linejoin="round"/><polyline points="7.29,42.35 6.88,42.35" fill="none" stroke="#111" stroke-width="1.6" stroke-linecap="round" stroke-linejoin="round"/><polyline points="7.29,44.94 6.88,44.94" fill="none" stroke="#111" stroke-width="1.6" stroke-linecap="round" stroke-linejoin="round"/><polyline points="7.29,47.52 6.88,47.52" fill="none" stroke="#111" stroke-width="1.6" stroke-linecap="round" stroke-linejoin="round"/><polyline points="7.29,50.11 6.88,50.11" fill="none" stroke="#111" stroke-width="1.6" stroke-linecap="round" stroke-linejoin="round"/><polyline points="7.29,52.7 6.88,52.7" fill="none" stroke="#111" stroke-width="1.6" stroke-linecap="round" stroke-linejoin="round"/><polyline points="7.29,55.28 6.88,55.28" fill="none" stroke="#111" stroke-width="1.6" stroke-linecap="round" stroke-linejoin="round"/><polyline points="7.29,57.87 6.88,57.87" fill="none" stroke="#111" stroke-width="1.6" stroke-linecap="round" stroke-linejoin="round"/></svg>