<svg xmlns="http://www.w3.org/2000/svg" width="96" height="64" viewBox="0 0 96 64"><polyline points="6,6.27 6.41,6.27" fill="none" stroke="#111" stroke-width="1.6" stroke-linecap="round" stroke-linejoin="round"/><polyline points="6,7.63 6.41,7.63" fill="none" stroke="#111" stroke-width="1.6" stroke-linecap="round" stroke-linejoin="round"/><polyline points="6,8.98 6.41,8.98" fill="none" stroke="#111" stroke-width="1.6" stroke-linecap="round" stroke-linejoin="round"/><polyline points="6,10.33 6.41,10.33" fill="none" stroke="#111" stroke-width="1.6" stroke-linecap="round" stroke-linejoin="round"/><polyline points="6,11.69 6.41,11.69" fill="none" stroke="#111" stroke-width="1.6" stroke-linecap="round" stroke-linejoin="round"/><polyline points="6,13.04 6.41,13.04" fill="none" stroke="#111" stroke-width="1.6" stroke-linecap="round" stroke-linejoin="round"/><polyline points="6,14.4 6.41,14.4" fill="none" stroke="#111" stroke-width="1.6" stroke-linecap="round" stroke-linejoin="round"/><polyline points="6,15.75 6.41,15.75" fill="none" stroke="#111" stroke-width="1.6" stroke-linecap="round" stroke-linejoin="round"/><polyline points="6,17.1 6.41,17.1" fill="none" stroke="#111" stroke-width="1.6" stroke-linecap="round" stroke-linejoin="round"/><polyline points="6,18.46 6.41,18.46" fill="none" stroke="#111" stroke-width="1.6" stroke-linecap="round" stroke-linejoin="round"/><polyline points="6,19.81 6.41,19.81" fill="none" stroke="#111" stroke-width="1.6" stroke-linecap="round" stroke-linejoin="round"/><polyline points="6,21.17 6.41,21.17" fill="none" stroke="#111" stroke-width="1.6" stroke-linecap="round" stroke-linejoin="round"/><polyline points="6,22.52 6.41,22.52" fill="none" stroke="#111" stroke-width="1.6" stroke-linecap="round" stroke-linejoin="round"/><polyline points="6,23.88 6.41,23.88" fill="none" stroke="#111" stroke-width="1.6" stroke-linecap="round" stroke-linejoin="round"/><polyline points="6,25.23 6.41,25.23" fill="none" stroke="#111" stroke-width="1.6" stroke-linecap="round" stroke-linejoin="round"/><polyline points="6,26.58 6.41,26.58" fill="none" stroke="#111" stroke-width="1.6" stroke-linecap="round" stroke-linejoin="round"/><polyline points="6,27.94 6.41,27.94" fill="none" stroke="#111" stroke-width="1.6" stroke-linecap="round" stroke-linejoin="round"/><polyline points="6,29.29 6.41,29.29" fill="none" stroke="#111" stroke-width="1.6" stroke-linecap="round" stroke-linejoin="round"/><polyline points="6,30.65 6.41,30.65" fill="none" stroke="#111" stroke-width="1.6" stroke-linecap="round" stroke-linejoin="round"/><polyline points="6,32 6.41,32" fill="none" stroke="#111" stroke-width="1.6" stroke-linecap="round" stroke-linejoin="round"/><polyline points="6,33.35 6.41,33.35" fill="none" stroke="#111" stroke-width="1.6" stroke-linecap="round" stroke-linejoin="round"/><polyline points="6,34.71 6.41,34.71" fill="none" stroke="#111" stroke-width="1.6" stroke-linecap="round" stroke-linejoin="round"/><polyline points="6,36.06 6.41,36.06" fill="none" stroke="#111" stroke-width="1.6" stroke-linecap="round" stroke-linejoin="round"/><polyline points="6,37.42 6.41,37.42" fill="none" stroke="#111" stroke-width="1.6" stroke-linecap="round" stroke-linejoin="round"/><polyline points="6,38.77 6.41,38.77" fill="none" stroke="#111" stroke-width="1.6" stroke-linecap="round" stroke-linejoin="round"/><polyline points="6,40.12 6.41,40.12" fill="none" stroke="#111" stroke-width="1.6" stroke-linecap="round" stroke-linejoin="round"/><polyline points="6,41.48 6.41,41.48" fill="none" stroke="#111" stroke-width="1.6" stroke-linecap="round" stroke-linejoin="round"/><polyline points="6,42.83 6.41,42.83" fill="none" stroke="#111" stroke-width="1.6" stroke-linecap="round" stroke-linejoin="round"/><polyline points="6,44.19 6.41,44.19" fill="none" stroke="#111" stroke-width="1.6" stroke-linecap="round" stroke-linejoin="round"/><polyline points="6,45.54 6.41,45.54" fill="none" stroke="#111" stroke-width="1.6" stroke-linecap="round" stroke-linejoin="round"/><polyline points="6,46.9 6.41,46.9" fill="none" stroke="#111" stroke-width="1.6" stroke-linecap="round" stroke-linejoin="round"/><polyline points="6,48.25 6.41,48.25" fill="none" stroke="#111" stroke-width="1.6" stroke-linecap="round" stroke-linejoin="round"/><polyline points="6,49.6 6.41,49.6" fill="none" stroke="#111" stroke-width="1.6" stroke-linecap="round" stroke-linejoin="round"/><polyline points="6,50.96 6.41,50.96" fill="none" stroke="#111" stroke-width="1.6" stroke-linecap="round" stroke-linejoin="round"/><polyline points="6,52.31 6.41,52.31" fill="none" stroke="#111" stroke-width="1.6" stroke-linecap="round" stroke-linejoin="round"/><polyline points="6,53.67 6.41,53.67" fill="none" stroke="#111" stroke-width="1.6" stroke-linecap="round" stroke-linejoin="round"/><polyline points="6,55.02 6.41,55.02" fill="none" stroke="#111" stroke-width="1.6" stroke-linecap="round" stroke-linejoin="round"/><polyline points="6,56.38 6.41,56.38" fill="none" stroke="#111" stroke-width="1.6" stroke-linecap="round" stroke-linejoin="round"/><polyline points="6,57.73 6.41,57.73" fill="none" stroke="#111" stroke-width="1.6" stroke-linecap="round" stroke-linejoin="round"/><path d="M 6.68 6.54 Q 6.41 6.27 6.68 6" fill="none" stroke="#111" stroke-width="1.6" stroke-linecap="round"/><path d="M 6.68 7.9 Q 6.41 7.63 6.68 7.35" fill="none" stroke="#111" stroke-width="1.6" stroke-linecap="round"/><path d="M 6.68 9.25 Q 6.41 8.98 6.68 8.71" fill="none" stroke="#111" stroke-width="1.6" stroke-linecap="round"/><path d="M 6.68 10.6 Q 6.41 10.33 6.68 10.06" fill="none" stroke="#111" stroke-width="1.6" stroke-linecap="round"/><path d="M 6.68 11.96 Q 6.41 11.69 6.68 11.42" fill="none" stroke="#111" stroke-width="1.6" stroke-linecap="round"/><path d="M 6.68 13.31 Q 6.41 13.04 6.68 12.77" fill="none" stroke="#111" stroke-width="1.6" stroke-linecap="round"/><path d="M 6.68 14.67 Q 6.41 14.4 6.68 14.13" fill="none" stroke="#111" stroke-width="1.6" stroke-linecap="round"/><path d="M 6.68 16.02 Q 6.41 15.75 6.68 15.48" fill="none" stroke="#111" stroke-width="1.6" stroke-linecap="round"/><path d="M 6.68 17.38 Q 6.41 17.1 6.68 16.83" fill="none" stroke="#111" stroke-width="1.6" stroke-linecap="round"/><path d="M 6.68 18.73 Q 6.41 18.46 6.68 18.19" fill="none" stroke="#111" stroke-width="1.6" stroke-linecap="round"/><path d="M 6.68 20.08 Q 6.41 19.81 6.68 19.54" fill="none" stroke="#111" stroke-width="1.6" stroke-linecap="round"/><path d="M 6.68 21.44 Q 6.41 21.17 6.68 20.9" fill="none" stroke="#111" stroke-width="1.6" stroke-linecap="round"/><path d="M 6.68 22.79 Q 6.41 22.52 6.68 22.25" fill="none" stroke="#111" stroke-width="1.6" stroke-linecap="round"/><path d="M 6.68 24.15 Q 6.41 23.88 6.68 23.6" fill="none" stroke="#111" stroke-width="1.6" stroke-linecap="round"/><path d="M 6.68 25.5 Q 6.41 25.23 6.68 24.96" fill="none" stroke="#111" stroke-width="1.6" stroke-linecap="round"/><path d="M 6.68 26.85 Q 6.41 26.58 6.68 26.31" fill="none" stroke="#111" stroke-width="1.6" stroke-linecap="round"/><path d="M 6.68 28.21 Q 6.41 27.94 6.68 27.67" fill="none" stroke="#111" stroke-width="1.6" stroke-linecap="round"/><path d="M 6.68 29.56 Q 6.41 29.29 6.68 29.02" fill="none" stroke="#111" stroke-width="1.6" stroke-linecap="round"/><path d="M 6.68 30.92 Q 6.41 30.65 6.68 30.38" fill="none" stroke="#111" stroke-width="1.6" stroke-linecap="round"/><path d="M 6.68 32.27 Q 6.41 32 6.68 31.73" fill="none" stroke="#111" stroke-width="1.6" stroke-linecap="round"/><path d="M 6.68 33.62 Q 6.41 33.35 6.68 33.08" fill="none" stroke="#111" stroke-width="1.6" stroke-linecap="round"/><path d="M 6.68 34.98 Q 6.41 34.71 6.68 34.44" fill="none" stroke="#111" stroke-width="1.6" stroke-linecap="round"/><path d="M 6.68 36.33 Q 6.41 36.06 6.68 35.79" fill="none" stroke="#111" stroke-width="1.6" stroke-linecap="round"/><path d="M 6.68 37.69 Q 6.41 37.42 6.68 37.15" fill="none" stroke="#111" stroke-width="1.6" stroke-linecap="round"/><path d="M 6.68 39.04 Q 6.41 38.77 6.68 38.5" fill="none" stroke="#111" stroke-width="1.6" stroke-linecap="round"/><path d="M 6.68 40.4 Q 6.41 40.12 6.68 39.85" fill="none" stroke="#111" stroke-width="1.6" stroke-linecap="round"/><path d="M 6.68 41.75 Q 6.41 41.48 6.68 41.21" fill="none" stroke="#111" stroke-width="1.6" stroke-linecap="round"/><path d="M 6.68 43.1 Q 6.41 42.83 6.68 42.56" fill="none" stroke="#111" stroke-width="1.6" stroke-linecap="round"/><path d="M 6.68 44.46 Q 6.41 44.19 6.68 43.92" fill="none" stroke="#111" stroke-width="1.6" stroke-linecap="round"/><path d="M 6.68 45.81 Q 6.41 45.54 6.68 45.27" fill="none" stroke="#111" stroke-width="1.6" stroke-linecap="round"/><path d="M 6.68 47.17 Q 6.41 46.9 6.68 46.62" fill="none" stroke="#111" stroke-width="1.6" stroke-linecap="round"/><path d="M 6.68 48.52 Q 6.41 48.25 6.68 47.98" fill="none" stroke="#111" stroke-width="1.6" stroke-linecap="round"/><path d="M 6.68 49.88 Q 6.41 49.6 6.68 49.33" fill="none" stroke="#111" stroke-width="1.6" stroke-linecap="round"/><path d="M 6.68 51.23 Q 6.41 50.96 6.68 50.69" fill="none" stroke="#111" stroke-width="1.6" stroke-linecap="round"/><path d="M 6.68 52.58 Q 6.41 52.31 6.68 52.04" fill="none" stroke="#111" stroke-width="1.6" stroke-linecap="round"/><path d="M 6.68 53.94 Q 6.41 53.67 6.68 53.4" fill="none" stroke="#111" stroke-width="1.6" stroke-linecap="round"/><path d="M 6.68 55.29 Q 6.41 55.02 6.68 54.75" fill="none" stroke="#111" stroke-width="1.6" stroke-linecap="round"/><path d="M 6.68 56.65 Q 6.41 56.38 6.68 56.1" fill="none" stroke="#111" stroke-width="1.6" stroke-linecap="round"/><path d="M 6.68 58 Q 6.41 57.73 6.68 57.46" fill="none" stroke="#111" stroke-width="1.6" stroke-linecap="round"/></svg>