<svg xmlns="http://www.w3.org/2000/svg" width="96" height="64" viewBox="0 0 96 64"><polyline points="6,6 6,58 18,54 18,10 6,6" fill="none" stroke="#111" stroke-width="1.6" stroke-linecap="round" stroke-linejoin="round"/><polyline points="7,22 11,22" fill="none" stroke="#111" stroke-width="1.6" stroke-linecap="round" stroke-linejoin="round"/><circle cx="9" cy="18" r="1" fill="none" stroke="#111" stroke-width="1.6"/><circle cx="9" cy="26" r="1" fill="none" stroke="#111" stroke-width="1.6"/><circle cx="9" cy="34" r="1" fill="none" stroke="#111" stroke-width="1.6"/><circle cx="9" cy="42" r="1" fill="none" stroke="#111" stroke-width="1.6"/><circle cx="9" cy="50" r="1" fill="none" stroke="#111" stroke-width="1.6"/><polyline points="11,14 7,14" fill="none" stroke="#111" stroke-width="1.6" stroke-linecap="round" stroke-linejoin="round"/><polyline points="11,30 7,30" fill="none" stroke="#111" stroke-width="1.6" stroke-linecap="round" stroke-linejoin="round"/><polyline points="11,38 7,38" fill="none" stroke="#111" stroke-width="1.6" stroke-linecap="round" stroke-linejoin="round"/><polyline points="11,46 7,46" fill="none" stroke="#111" stroke-width="1.6" stroke-linecap="round" stroke-linejoin="round"/><circle cx="12" cy="14" r="1" fill="none" stroke="#111" stroke-width="1.6"/><circle cx="12" cy="22" r="1" fill="none" stroke="#111" stroke-width="1.6"/><circle cx="12" cy="30" r="1" fill="none" stroke="#111" stroke-width="1.6"/><circle cx="12" cy="38" r="1" fill="none" stroke="#111" stroke-width="1.6"/><circle cx="12" cy="46" r="1" fill="none" stroke="#111" stroke-width="1.6"/><circle cx="15" cy="18" r="1" fill="none" stroke="#111" stroke-width="1.6"/><circle cx="15" cy="26" r="1" fill="none" stroke="#111" stroke-width="1.6"/><circle cx="15" cy="34" r="1" fill="none" stroke="#111" stroke-width="1.6"/><circle cx="15" cy="42" r="1" fill="none" stroke="#111" stroke-width="1.6"/><circle cx="15" cy="50" r="1" fill="none" stroke="#111" stroke-width="1.6"/></svg>