<svg xmlns="http://www.w3.org/2000/svg" width="96" height="64" viewBox="0 0 96 64"><polyline points="25.93,23.33 20.73,23.33" fill="none" stroke="#111" stroke-width="1.6" stroke-linecap="round" stroke-linejoin="round"/><polyline points="32.87,26.8 38.93,26.8" fill="none" stroke="#111" stroke-width="1.6" stroke-linecap="round" stroke-linejoin="round"/><polyline points="38.93,19.87 32.87,19.87" fill="none" stroke="#111" stroke-width="1.6" stroke-linecap="round" stroke-linejoin="round"/><rect x="6" y="6" width="69.33" height="52" fill="none" stroke="#111" stroke-width="1.6"/><circle cx="26.8" cy="23.33" r="0.87" fill="none" stroke="#111" stroke-width="1.6"/><polyline points="27.67,23.33 32.87,20.73" fill="none" stroke="#111" stroke-width="1.6" stroke-linecap="round" stroke-linejoin="round"/><circle cx="32" cy="19.87" r="0.87" fill="none" stroke="#111" stroke-width="1.6"/><circle cx="32" cy="26.8" r="0.87" fill="none" stroke="#111" stroke-width="1.6"/><circle cx="39.8" cy="19.87" r="0.87" fill="none" stroke="#111" stroke-width="1.6"/><circle cx="39.8" cy="26.8" r="0.87" fill="none" stroke="#111" stroke-width="1.6"/><circle cx="42.4" cy="14.67" r="0.87" fill="none" stroke="#111" stroke-width="1.6"/><polyline points="42.4,15.53 40.67,20.73" fill="none" stroke="#111" stroke-width="1.6" stroke-linecap="round" stroke-linejoin="round"/><polyline points="42.4,31.13 44.13,25.93" fill="none" stroke="#111" stroke-width="1.6" stroke-linecap="round" stroke-linejoin="round"/><circle cx="42.4" cy="32" r="0.87" fill="none" stroke="#111" stroke-width="1.6"/><polyline points="43.27,14.67 58,14.67" fill="none" stroke="#111" stroke-width="1.6" stroke-linecap="round" stroke-linejoin="round"/><polyline points="43.27,32 58,32" fill="none" stroke="#111" stroke-width="1.6" stroke-linecap="round" stroke-linejoin="round"/><circle cx="45" cy="19.87" r="0.87" fill="none" stroke="#111" stroke-width="1.6"/><circle cx="45" cy="26.8" r="0.87" fill="none" stroke="#111" stroke-width="1.6"/><polyline points="45.87,19.87 49.33,19.87" fill="none" stroke="#111" stroke-width="1.6" stroke-linecap="round" stroke-linejoin="round"/><polyline points="45.87,26.8 49.33,26.8" fill="none" stroke="#111" stroke-width="1.6" stroke-linecap="round" stroke-linejoin="round"/><rect x="49.33" y="18.13" width="7.8" height="3.47" fill="none" stroke="#111" stroke-width="1.6"/><rect x="49.33" y="25.07" width="7.8" height="3.46" fill="none" stroke="#111" stroke-width="1.6"/><polyline points="57.13,19.87 59.73,19.87 59.73,21.6 62.33,19.87 59.73,18.13 59.73,19.87" fill="none" stroke="#111" stroke-width="1.6" stroke-linecap="round" stroke-linejoin="round"/><polyline points="57.13,26.8 59.73,26.8 59.73,28.53 62.33,26.8 59.73,25.07 59.73,26.8" fill="none" stroke="#111" stroke-width="1.6" stroke-linecap="round" stroke-linejoin="round"/></svg>