<svg xmlns="http://www.w3.org/2000/svg" width="96" height="64" viewBox="0 0 96 64"><rect x="6" y="6" width="52" height="52" fill="none" stroke="#111" stroke-width="1.6"/><polyline points="19.65,45 22.25,45" fill="none" stroke="#111" stroke-width="1.6" stroke-linecap="round" stroke-linejoin="round"/><polyline points="22.25,42.4 22.25,47.6 26.8,45 22.25,42.4" fill="none" stroke="#111" stroke-width="1.6" stroke-linecap="round" stroke-linejoin="round"/><polyline points="25.5,24.2 23.55,24.2" fill="none" stroke="#111" stroke-width="1.6" stroke-linecap="round" stroke-linejoin="round"/><polyline points="26.8,24.2 28.75,24.2" fill="none" stroke="#111" stroke-width="1.6" stroke-linecap="round" stroke-linejoin="round"/><polyline points="29.4,45 26.8,45" fill="none" stroke="#111" stroke-width="1.6" stroke-linecap="round" stroke-linejoin="round"/><polyline points="32,20.95 32,19" fill="none" stroke="#111" stroke-width="1.6" stroke-linecap="round" stroke-linejoin="round"/><circle cx="32" cy="24.2" r="0.65" fill="none" stroke="#111" stroke-width="1.6"/><polyline points="32,24.2 30.05,24.2" fill="none" stroke="#111" stroke-width="1.6" stroke-linecap="round" stroke-linejoin="round"/><polyline points="32,24.2 32,22.25" fill="none" stroke="#111" stroke-width="1.6" stroke-linecap="round" stroke-linejoin="round"/><polyline points="32,24.2 32,26.15" fill="none" stroke="#111" stroke-width="1.6" stroke-linecap="round" stroke-linejoin="round"/><polyline points="32,24.2 33.95,24.2" fill="none" stroke="#111" stroke-width="1.6" stroke-linecap="round" stroke-linejoin="round"/><polyline points="32,27.45 32,29.4" fill="none" stroke="#111" stroke-width="1.6" stroke-linecap="round" stroke-linejoin="round"/><polyline points="32,30.7 32,32.65" fill="none" stroke="#111" stroke-width="1.6" stroke-linecap="round" stroke-linejoin="round"/><polyline points="32,33.95 32,35.9" fill="none" stroke="#111" stroke-width="1.6" stroke-linecap="round" stroke-linejoin="round"/><polyline points="32,37.2 32,39.15" fill="none" stroke="#111" stroke-width="1.6" stroke-linecap="round" stroke-linejoin="round"/><polyline points="32,40.45 32,42.4" fill="none" stroke="#111" stroke-width="1.6" stroke-linecap="round" stroke-linejoin="round"/><polyline points="32,43.7 32,45 30.7,45" fill="none" stroke="#111" stroke-width="1.6" stroke-linecap="round" stroke-linejoin="round"/><polyline points="35.25,24.2 37.2,24.2" fill="none" stroke="#111" stroke-width="1.6" stroke-linecap="round" stroke-linejoin="round"/><polyline points="38.5,24.2 40.45,24.2" fill="none" stroke="#111" stroke-width="1.6" stroke-linecap="round" stroke-linejoin="round"/><polyline points="19,19 28.1,19" fill="none" stroke="#111" stroke-width="1.6" stroke-linecap="round" stroke-linejoin="round"/><rect x="20.95" y="29.4" width="2.6" height="5.85" fill="none" stroke="#111" stroke-width="1.6"/><circle cx="22.25" cy="19" r="0.65" fill="none" stroke="#111" stroke-width="1.6"/><polyline points="22.25,19 22.25,21.6" fill="none" stroke="#111" stroke-width="1.6" stroke-linecap="round" stroke-linejoin="round"/><circle cx="22.25" cy="22.25" r="0.65" fill="none" stroke="#111" stroke-width="1.6"/><polyline points="22.25,22.9 23.22,26.48" fill="none" stroke="#111" stroke-width="1.6" stroke-linecap="round" stroke-linejoin="round"/><circle cx="22.25" cy="26.15" r="0.65" fill="none" stroke="#111" stroke-width="1.6"/><polyline points="22.25,26.8 22.25,29.4" fill="none" stroke="#111" stroke-width="1.6" stroke-linecap="round" stroke-linejoin="round"/><polyline points="22.25,35.25 22.25,37.85 20.95,37.85 22.25,39.8 23.55,37.85 22.25,37.85" fill="none" stroke="#111" stroke-width="1.6" stroke-linecap="round" stroke-linejoin="round"/><circle cx="28.75" cy="19" r="0.65" fill="none" stroke="#111" stroke-width="1.6"/><polyline points="29.4,19 34.6,17.05" fill="none" stroke="#111" stroke-width="1.6" stroke-linecap="round" stroke-linejoin="round"/><circle cx="35.25" cy="19" r="0.65" fill="none" stroke="#111" stroke-width="1.6"/><polyline points="35.9,19 45,19" fill="none" stroke="#111" stroke-width="1.6" stroke-linecap="round" stroke-linejoin="round"/><rect x="40.45" y="29.4" width="2.6" height="5.85" fill="none" stroke="#111" stroke-width="1.6"/><polyline points="41.75,19 41.75,21.6" fill="none" stroke="#111" stroke-width="1.6" stroke-linecap="round" stroke-linejoin="round"/><circle cx="41.75" cy="19" r="0.65" fill="none" stroke="#111" stroke-width="1.6"/><circle cx="41.75" cy="22.25" r="0.65" fill="none" stroke="#111" stroke-width="1.6"/><polyline points="41.75,22.9 42.72,26.48" fill="none" stroke="#111" stroke-width="1.6" stroke-linecap="round" stroke-linejoin="round"/><circle cx="41.75" cy="26.15" r="0.65" fill="none" stroke="#111" stroke-width="1.6"/><polyline points="41.75,26.8 41.75,29.4" fill="none" stroke="#111" stroke-width="1.6" stroke-linecap="round" stroke-linejoin="round"/><polyline points="41.75,35.25 41.75,37.85 40.45,37.85 41.75,39.8 43.05,37.85 41.75,37.85" fill="none" stroke="#111" stroke-width="1.6" stroke-linecap="round" stroke-linejoin="round"/></svg>