<svg xmlns="http://www.w3.org/2000/svg" width="96" height="64" viewBox="0 0 96 64"><circle cx="7.46" cy="15.52" r="0.37" fill="none" stroke="#111" stroke-width="1.6"/><path d="M 8.93 15.52 Q 11.12 17.72 8.93 19.92" fill="none" stroke="#111" stroke-width="1.6" stroke-linecap="round"/><path d="M 8.93 19.92 Q 11.12 22.11 8.93 24.31" fill="none" stroke="#111" stroke-width="1.6" stroke-linecap="round"/><path d="M 8.93 24.31 Q 11.12 26.51 8.93 28.7" fill="none" stroke="#111" stroke-width="1.6" stroke-linecap="round"/><path d="M 8.93 28.7 Q 11.12 30.9 8.93 33.1" fill="none" stroke="#111" stroke-width="1.6" stroke-linecap="round"/><path d="M 8.93 33.1 Q 11.12 35.3 8.93 37.49" fill="none" stroke="#111" stroke-width="1.6" stroke-linecap="round"/><path d="M 8.93 37.49 Q 11.12 39.69 8.93 41.89" fill="none" stroke="#111" stroke-width="1.6" stroke-linecap="round"/><polyline points="8.93,15.52 8.93,14.06 6,14.06" fill="none" stroke="#111" stroke-width="1.6" stroke-linecap="round" stroke-linejoin="round"/><polyline points="8.93,41.89 8.93,43.35 6,43.35" fill="none" stroke="#111" stroke-width="1.6" stroke-linecap="round" stroke-linejoin="round"/><rect x="12.59" y="6" width="1.47" height="52" fill="none" stroke="#111" stroke-width="1.6"/><polyline points="17.72,54.34 17.72,58 20.65,58" fill="none" stroke="#111" stroke-width="1.6" stroke-linecap="round" stroke-linejoin="round"/><path d="M 17.72 15.89 Q 15.53 13.69 17.72 11.49" fill="none" stroke="#111" stroke-width="1.6" stroke-linecap="round"/><path d="M 17.72 20.28 Q 15.53 18.08 17.72 15.89" fill="none" stroke="#111" stroke-width="1.6" stroke-linecap="round"/><path d="M 17.72 24.68 Q 15.53 22.48 17.72 20.28" fill="none" stroke="#111" stroke-width="1.6" stroke-linecap="round"/><path d="M 17.72 45.18 Q 15.53 42.99 17.72 40.79" fill="none" stroke="#111" stroke-width="1.6" stroke-linecap="round"/><path d="M 17.72 49.58 Q 15.53 47.38 17.72 45.18" fill="none" stroke="#111" stroke-width="1.6" stroke-linecap="round"/><path d="M 17.72 53.97 Q 15.53 51.77 17.72 49.58" fill="none" stroke="#111" stroke-width="1.6" stroke-linecap="round"/><circle cx="19.18" cy="8.2" r="0.37" fill="none" stroke="#111" stroke-width="1.6"/><circle cx="19.18" cy="38.96" r="0.37" fill="none" stroke="#111" stroke-width="1.6"/><polyline points="20.65,6.73 17.72,6.73 17.72,11.13" fill="none" stroke="#111" stroke-width="1.6" stroke-linecap="round" stroke-linejoin="round"/><polyline points="20.65,28.7 17.72,28.7 17.72,25.04" fill="none" stroke="#111" stroke-width="1.6" stroke-linecap="round" stroke-linejoin="round"/><polyline points="20.65,36.03 17.72,36.03 17.72,40.42" fill="none" stroke="#111" stroke-width="1.6" stroke-linecap="round" stroke-linejoin="round"/></svg>