<svg xmlns="http://www.w3.org/2000/svg" width="96" height="64" viewBox="0 0 96 64"><rect x="6" y="6" width="0.33" height="0.1" fill="none" stroke="#111" stroke-width="1.6"/><rect x="6" y="6.98" width="0.33" height="0.1" fill="none" stroke="#111" stroke-width="1.6"/><rect x="6" y="7.96" width="0.33" height="0.1" fill="none" stroke="#111" stroke-width="1.6"/><rect x="6" y="8.94" width="0.33" height="0.1" fill="none" stroke="#111" stroke-width="1.6"/><rect x="6" y="9.92" width="0.33" height="0.1" fill="none" stroke="#111" stroke-width="1.6"/><rect x="6" y="10.9" width="0.33" height="0.09" fill="none" stroke="#111" stroke-width="1.6"/><rect x="6" y="11.88" width="0.33" height="0.09" fill="none" stroke="#111" stroke-width="1.6"/><rect x="6" y="12.85" width="0.33" height="0.1" fill="none" stroke="#111" stroke-width="1.6"/><rect x="6" y="13.83" width="0.33" height="0.1" fill="none" stroke="#111" stroke-width="1.6"/><rect x="6" y="14.81" width="0.33" height="0.1" fill="none" stroke="#111" stroke-width="1.6"/><rect x="6" y="15.79" width="0.33" height="0.1" fill="none" stroke="#111" stroke-width="1.6"/><rect x="6" y="16.77" width="0.33" height="0.1" fill="none" stroke="#111" stroke-width="1.6"/><rect x="6" y="17.75" width="0.33" height="0.1" fill="none" stroke="#111" stroke-width="1.6"/><rect x="6" y="18.73" width="0.33" height="0.1" fill="none" stroke="#111" stroke-width="1.6"/><rect x="6" y="19.71" width="0.33" height="0.1" fill="none" stroke="#111" stroke-width="1.6"/><rect x="6" y="20.69" width="0.33" height="0.1" fill="none" stroke="#111" stroke-width="1.6"/><rect x="6" y="21.67" width="0.33" height="0.1" fill="none" stroke="#111" stroke-width="1.6"/><rect x="6" y="22.65" width="0.33" height="0.1" fill="none" stroke="#111" stroke-width="1.6"/><rect x="6" y="23.63" width="0.33" height="0.1" fill="none" stroke="#111" stroke-width="1.6"/><rect x="6" y="24.61" width="0.33" height="0.09" fill="none" stroke="#111" stroke-width="1.6"/><rect x="6" y="25.59" width="0.33" height="0.09" fill="none" stroke="#111" stroke-width="1.6"/><rect x="6" y="26.56" width="0.33" height="0.1" fill="none" stroke="#111" stroke-width="1.6"/><rect x="6" y="27.54" width="0.33" height="0.1" fill="none" stroke="#111" stroke-width="1.6"/><rect x="6" y="28.52" width="0.33" height="0.1" fill="none" stroke="#111" stroke-width="1.6"/><rect x="6" y="29.5" width="0.33" height="0.1" fill="none" stroke="#111" stroke-width="1.6"/><rect x="6" y="30.48" width="0.33" height="0.1" fill="none" stroke="#111" stroke-width="1.6"/><rect x="6" y="31.46" width="0.33" height="0.1" fill="none" stroke="#111" stroke-width="1.6"/><rect x="6" y="32.44" width="0.33" height="0.1" fill="none" stroke="#111" stroke-width="1.6"/><rect x="6" y="33.42" width="0.33" height="0.1" fill="none" stroke="#111" stroke-width="1.6"/><rect x="6" y="34.4" width="0.33" height="0.1" fill="none" stroke="#111" stroke-width="1.6"/><rect x="6" y="35.38" width="0.33" height="0.1" fill="none" stroke="#111" stroke-width="1.6"/><rect x="6" y="36.36" width="0.33" height="0.1" fill="none" stroke="#111" stroke-width="1.6"/><rect x="6" y="37.34" width="0.33" height="0.1" fill="none" stroke="#111" stroke-width="1.6"/><rect x="6" y="38.32" width="0.33" height="0.09" fill="none" stroke="#111" stroke-width="1.6"/><rect x="6" y="39.3" width="0.33" height="0.09" fill="none" stroke="#111" stroke-width="1.6"/><rect x="6" y="40.27" width="0.33" height="0.1" fill="none" stroke="#111" stroke-width="1.6"/><rect x="6" y="41.25" width="0.33" height="0.1" fill="none" stroke="#111" stroke-width="1.6"/><rect x="6" y="42.23" width="0.33" height="0.1" fill="none" stroke="#111" stroke-width="1.6"/><rect x="6" y="43.21" width="0.33" height="0.1" fill="none" stroke="#111" stroke-width="1.6"/><rect x="6" y="44.19" width="0.33" height="0.1" fill="none" stroke="#111" stroke-width="1.6"/><rect x="6" y="45.17" width="0.33" height="0.1" fill="none" stroke="#111" stroke-width="1.6"/><rect x="6" y="46.15" width="0.33" height="0.1" fill="none" stroke="#111" stroke-width="1.6"/><rect x="6" y="47.13" width="0.33" height="0.1" fill="none" stroke="#111" stroke-width="1.6"/><rect x="6" y="48.11" width="0.33" height="0.1" fill="none" stroke="#111" stroke-width="1.6"/><rect x="6" y="49.09" width="0.33" height="0.1" fill="none" stroke="#111" stroke-width="1.6"/><rect x="6" y="50.07" width="0.33" height="0.1" fill="none" stroke="#111" stroke-width="1.6"/><rect x="6" y="51.05" width="0.33" height="0.1" fill="none" stroke="#111" stroke-width="1.6"/><rect x="6" y="52.03" width="0.33" height="0.09" fill="none" stroke="#111" stroke-width="1.6"/><rect x="6" y="53.01" width="0.33" height="0.09" fill="none" stroke="#111" stroke-width="1.6"/><rect x="6" y="53.98" width="0.33" height="0.1" fill="none" stroke="#111" stroke-width="1.6"/><rect x="6" y="54.96" width="0.33" height="0.1" fill="none" stroke="#111" stroke-width="1.6"/><rect x="6" y="55.94" width="0.33" height="0.1" fill="none" stroke="#111" stroke-width="1.6"/><rect x="6" y="56.92" width="0.33" height="0.1" fill="none" stroke="#111" stroke-width="1.6"/><rect x="6" y="57.9" width="0.33" height="0.1" fill="none" stroke="#111" stroke-width="1.6"/><polyline points="6.49,6.05 6.33,6.05" fill="none" stroke="#111" stroke-width="1.6" stroke-linecap="round" stroke-linejoin="round"/><polyline points="6.49,7.03 6.33,7.03" fill="none" stroke="#111" stroke-width="1.6" stroke-linecap="round" stroke-linejoin="round"/><polyline points="6.49,8.01 6.33,8.01" fill="none" stroke="#111" stroke-width="1.6" stroke-linecap="round" stroke-linejoin="round"/><polyline points="6.49,8.99 6.33,8.99" fill="none" stroke="#111" stroke-width="1.6" stroke-linecap="round" stroke-linejoin="round"/><polyline points="6.49,9.97 6.33,9.97" fill="none" stroke="#111" stroke-width="1.6" stroke-linecap="round" stroke-linejoin="round"/><polyline points="6.49,10.95 6.33,10.95" fill="none" stroke="#111" stroke-width="1.6" stroke-linecap="round" stroke-linejoin="round"/><polyline points="6.49,11.92 6.33,11.92" fill="none" stroke="#111" stroke-width="1.6" stroke-linecap="round" stroke-linejoin="round"/><polyline points="6.49,12.9 6.33,12.9" fill="none" stroke="#111" stroke-width="1.6" stroke-linecap="round" stroke-linejoin="round"/><polyline points="6.49,13.88 6.33,13.88" fill="none" stroke="#111" stroke-width="1.6" stroke-linecap="round" stroke-linejoin="round"/><polyline points="6.49,14.86 6.33,14.86" fill="none" stroke="#111" stroke-width="1.6" stroke-linecap="round" stroke-linejoin="round"/><polyline points="6.49,15.84 6.33,15.84" fill="none" stroke="#111" stroke-width="1.6" stroke-linecap="round" stroke-linejoin="round"/><polyline points="6.49,16.82 6.33,16.82" fill="none" stroke="#111" stroke-width="1.6" stroke-linecap="round" stroke-linejoin="round"/><polyline points="6.49,17.8 6.33,17.8" fill="none" stroke="#111" stroke-width="1.6" stroke-linecap="round" stroke-linejoin="round"/><polyline points="6.49,18.78 6.33,18.78" fill="none" stroke="#111" stroke-width="1.6" stroke-linecap="round" stroke-linejoin="round"/><polyline points="6.49,19.76 6.33,19.76" fill="none" stroke="#111" stroke-width="1.6" stroke-linecap="round" stroke-linejoin="round"/><polyline points="6.49,20.74 6.33,20.74" fill="none" stroke="#111" stroke-width="1.6" stroke-linecap="round" stroke-linejoin="round"/><polyline points="6.49,21.72 6.33,21.72" fill="none" stroke="#111" stroke-width="1.6" stroke-linecap="round" stroke-linejoin="round"/><polyline points="6.49,22.7 6.33,22.7" fill="none" stroke="#111" stroke-width="1.6" stroke-linecap="round" stroke-linejoin="round"/><polyline points="6.49,23.68 6.33,23.68" fill="none" stroke="#111" stroke-width="1.6" stroke-linecap="round" stroke-linejoin="round"/><polyline points="6.49,24.66 6.33,24.66" fill="none" stroke="#111" stroke-width="1.6" stroke-linecap="round" stroke-linejoin="round"/><polyline points="6.49,25.63 6.33,25.63" fill="none" stroke="#111" stroke-width="1.6" stroke-linecap="round" stroke-linejoin="round"/><polyline points="6.49,26.61 6.33,26.61" fill="none" stroke="#111" stroke-width="1.6" stroke-linecap="round" stroke-linejoin="round"/><polyline points="6.49,27.59 6.33,27.59" fill="none" stroke="#111" stroke-width="1.6" stroke-linecap="round" stroke-linejoin="round"/><polyline points="6.49,28.57 6.33,28.57" fill="none" stroke="#111" stroke-width="1.6" stroke-linecap="round" stroke-linejoin="round"/><polyline points="6.49,29.55 6.33,29.55" fill="none" stroke="#111" stroke-width="1.6" stroke-linecap="round" stroke-linejoin="round"/><polyline points="6.49,30.53 6.33,30.53" fill="none" stroke="#111" stroke-width="1.6" stroke-linecap="round" stroke-linejoin="round"/><polyline points="6.49,31.51 6.33,31.51" fill="none" stroke="#111" stroke-width="1.6" stroke-linecap="round" stroke-linejoin="round"/><polyline points="6.49,32.49 6.33,32.49" fill="none" stroke="#111" stroke-width="1.6" stroke-linecap="round" stroke-linejoin="round"/><polyline points="6.49,33.47 6.33,33.47" fill="none" stroke="#111" stroke-width="1.6" stroke-linecap="round" stroke-linejoin="round"/><polyline points="6.49,34.45 6.33,34.45" fill="none" stroke="#111" stroke-width="1.6" stroke-linecap="round" stroke-linejoin="round"/><polyline points="6.49,35.43 6.33,35.43" fill="none" stroke="#111" stroke-width="1.6" stroke-linecap="round" stroke-linejoin="round"/><polyline points="6.49,36.41 6.33,36.41" fill="none" stroke="#111" stroke-width="1.6" stroke-linecap="round" stroke-linejoin="round"/><polyline points="6.49,37.39 6.33,37.39" fill="none" stroke="#111" stroke-width="1.6" stroke-linecap="round" stroke-linejoin="round"/><polyline points="6.49,38.37 6.33,38.37" fill="none" stroke="#111" stroke-width="1.6" stroke-linecap="round" stroke-linejoin="round"/><polyline points="6.49,39.34 6.33,39.34" fill="none" stroke="#111" stroke-width="1.6" stroke-linecap="round" stroke-linejoin="round"/><polyline points="6.49,40.32 6.33,40.32" fill="none" stroke="#111" stroke-width="1.6" stroke-linecap="round" stroke-linejoin="round"/><polyline points="6.49,41.3 6.33,41.3" fill="none" stroke="#111" stroke-width="1.6" stroke-linecap="round" stroke-linejoin="round"/><polyline points="6.49,42.28 6.33,42.28" fill="none" stroke="#111" stroke-width="1.6" stroke-linecap="round" stroke-linejoin="round"/><polyline points="6.49,43.26 6.33,43.26" fill="none" stroke="#111" stroke-width="1.6" stroke-linecap="round" stroke-linejoin="round"/><polyline points="6.49,44.24 6.33,44.24" fill="none" stroke="#111" stroke-width="1.6" stroke-linecap="round" stroke-linejoin="round"/><polyline points="6.49,45.22 6.33,45.22" fill="none" stroke="#111" stroke-width="1.6" stroke-linecap="round" stroke-linejoin="round"/><polyline points="6.49,46.2 6.33,46.2" fill="none" stroke="#111" stroke-width="1.6" stroke-linecap="round" stroke-linejoin="round"/><polyline points="6.49,47.18 6.33,47.18" fill="none" stroke="#111" stroke-width="1.6" stroke-linecap="round" stroke-linejoin="round"/><polyline points="6.49,48.16 6.33,48.16" fill="none" stroke="#111" stroke-width="1.6" stroke-linecap="round" stroke-linejoin="round"/><polyline points="6.49,49.14 6.33,49.14" fill="none" stroke="#111" stroke-width="1.6" stroke-linecap="round" stroke-linejoin="round"/><polyline points="6.49,50.12 6.33,50.12" fill="none" stroke="#111" stroke-width="1.6" stroke-linecap="round" stroke-linejoin="round"/><polyline points="6.49,51.1 6.33,51.1" fill="none" stroke="#111" stroke-width="1.6" stroke-linecap="round" stroke-linejoin="round"/><polyline points="6.49,52.08 6.33,52.08" fill="none" stroke="#111" stroke-width="1.6" stroke-linecap="round" stroke-linejoin="round"/><polyline points="6.49,53.05 6.33,53.05" fill="none" stroke="#111" stroke-width="1.6" stroke-linecap="round" stroke-linejoin="round"/><polyline points="6.49,54.03 6.33,54.03" fill="none" stroke="#111" stroke-width="1.6" stroke-linecap="round" stroke-linejoin="round"/><polyline points="6.49,55.01 6.33,55.01" fill="none" stroke="#111" stroke-width="1.6" stroke-linecap="round" stroke-linejoin="round"/><polyline points="6.49,55.99 6.33,55.99" fill="none" stroke="#111" stroke-width="1.6" stroke-linecap="round" stroke-linejoin="round"/><polyline points="6.49,56.97 6.33,56.97" fill="none" stroke="#111" stroke-width="1.6" stroke-linecap="round" stroke-linejoin="round"/><polyline points="6.49,57.95 6.33,57.95" fill="none" stroke="#111" stroke-width="1.6" stroke-linecap="round" stroke-linejoin="round"/></svg>