<svg xmlns="http://www.w3.org/2000/svg" width="96" height="64" viewBox="0 0 96 64"><circle cx="11.25" cy="28.05" r="1.05" fill="none" stroke="#111" stroke-width="1.6"/><polyline points="19.65,11.25 19.65,7.05 6,7.05" fill="none" stroke="#111" stroke-width="1.6" stroke-linecap="round" stroke-linejoin="round"/><polyline points="19.65,23.85 19.65,28.05 6,28.05" fill="none" stroke="#111" stroke-width="1.6" stroke-linecap="round" stroke-linejoin="round"/><polyline points="19.65,37.5 11.25,37.5 11.25,28.05" fill="none" stroke="#111" stroke-width="1.6" stroke-linecap="round" stroke-linejoin="round"/><path d="M 25.95 11.25 Q 22.8 14.39 19.65 11.25" fill="none" stroke="#111" stroke-width="1.6" stroke-linecap="round"/><path d="M 19.65 23.85 Q 22.8 20.71 25.95 23.85" fill="none" stroke="#111" stroke-width="1.6" stroke-linecap="round"/><path d="M 25.95 37.5 Q 22.8 40.64 19.65 37.5" fill="none" stroke="#111" stroke-width="1.6" stroke-linecap="round"/><path d="M 32.25 11.25 Q 29.1 14.39 25.95 11.25" fill="none" stroke="#111" stroke-width="1.6" stroke-linecap="round"/><path d="M 25.95 23.85 Q 29.1 20.71 32.25 23.85" fill="none" stroke="#111" stroke-width="1.6" stroke-linecap="round"/><path d="M 32.25 37.5 Q 29.1 40.64 25.95 37.5" fill="none" stroke="#111" stroke-width="1.6" stroke-linecap="round"/><path d="M 38.55 11.25 Q 35.4 14.39 32.25 11.25" fill="none" stroke="#111" stroke-width="1.6" stroke-linecap="round"/><path d="M 32.25 23.85 Q 35.4 20.71 38.55 23.85" fill="none" stroke="#111" stroke-width="1.6" stroke-linecap="round"/><path d="M 38.55 37.5 Q 35.4 40.64 32.25 37.5" fill="none" stroke="#111" stroke-width="1.6" stroke-linecap="round"/><path d="M 44.85 11.25 Q 41.7 14.39 38.55 11.25" fill="none" stroke="#111" stroke-width="1.6" stroke-linecap="round"/><path d="M 38.55 23.85 Q 41.7 20.71 44.85 23.85" fill="none" stroke="#111" stroke-width="1.6" stroke-linecap="round"/><path d="M 44.85 37.5 Q 41.7 40.64 38.55 37.5" fill="none" stroke="#111" stroke-width="1.6" stroke-linecap="round"/><polyline points="44.85,11.25 51.15,11.25" fill="none" stroke="#111" stroke-width="1.6" stroke-linecap="round" stroke-linejoin="round"/><polyline points="44.85,23.85 51.15,23.85" fill="none" stroke="#111" stroke-width="1.6" stroke-linecap="round" stroke-linejoin="round"/><polyline points="51.15,37.5 44.85,37.5" fill="none" stroke="#111" stroke-width="1.6" stroke-linecap="round" stroke-linejoin="round"/><path d="M 57.45 11.25 Q 54.3 14.39 51.15 11.25" fill="none" stroke="#111" stroke-width="1.6" stroke-linecap="round"/><path d="M 51.15 23.85 Q 54.3 20.71 57.45 23.85" fill="none" stroke="#111" stroke-width="1.6" stroke-linecap="round"/><path d="M 57.45 37.5 Q 54.3 40.64 51.15 37.5" fill="none" stroke="#111" stroke-width="1.6" stroke-linecap="round"/><path d="M 63.75 11.25 Q 60.6 14.39 57.45 11.25" fill="none" stroke="#111" stroke-width="1.6" stroke-linecap="round"/><path d="M 57.45 23.85 Q 60.6 20.71 63.75 23.85" fill="none" stroke="#111" stroke-width="1.6" stroke-linecap="round"/><path d="M 63.75 37.5 Q 60.6 40.64 57.45 37.5" fill="none" stroke="#111" stroke-width="1.6" stroke-linecap="round"/><path d="M 70.05 11.25 Q 66.9 14.39 63.75 11.25" fill="none" stroke="#111" stroke-width="1.6" stroke-linecap="round"/><path d="M 63.75 23.85 Q 66.9 20.71 70.05 23.85" fill="none" stroke="#111" stroke-width="1.6" stroke-linecap="round"/><path d="M 70.05 37.5 Q 66.9 40.64 63.75 37.5" fill="none" stroke="#111" stroke-width="1.6" stroke-linecap="round"/><path d="M 76.35 11.25 Q 73.2 14.39 70.05 11.25" fill="none" stroke="#111" stroke-width="1.6" stroke-linecap="round"/><path d="M 70.05 23.85 Q 73.2 20.71 76.35 23.85" fill="none" stroke="#111" stroke-width="1.6" stroke-linecap="round"/><path d="M 76.35 37.5 Q 73.2 40.64 70.05 37.5" fill="none" stroke="#111" stroke-width="1.6" stroke-linecap="round"/><polyline points="76.35,11.25 76.35,7.05 90,7.05" fill="none" stroke="#111" stroke-width="1.6" stroke-linecap="round" stroke-linejoin="round"/><polyline points="76.35,23.85 76.35,28.05 90,28.05" fill="none" stroke="#111" stroke-width="1.6" stroke-linecap="round" stroke-linejoin="round"/><polyline points="76.35,37.5 84.75,37.5 84.75,31.2" fill="none" stroke="#111" stroke-width="1.6" stroke-linecap="round" stroke-linejoin="round"/><path d="M 84.75 24.9 Q 87.89 28.05 84.75 31.2" fill="none" stroke="#111" stroke-width="1.6" stroke-linecap="round"/><circle cx="84.75" cy="7.05" r="1.05" fill="none" stroke="#111" stroke-width="1.6"/><polyline points="84.75,24.9 84.75,7.05" fill="none" stroke="#111" stroke-width="1.6" stroke-linecap="round" stroke-linejoin="round"/></svg>