<svg xmlns="http://www.w3.org/2000/svg" width="96" height="64" viewBox="0 0 96 64"><rect x="6" y="6" width="14.25" height="49.86" fill="none" stroke="#111" stroke-width="1.6"/><rect x="6" y="9.21" width="3.56" height="0.71" fill="none" stroke="#111" stroke-width="1.6"/><rect x="6" y="16.33" width="3.56" height="0.71" fill="none" stroke="#111" stroke-width="1.6"/><rect x="6" y="23.45" width="3.56" height="0.71" fill="none" stroke="#111" stroke-width="1.6"/><rect x="6" y="30.58" width="3.56" height="0.71" fill="none" stroke="#111" stroke-width="1.6"/><rect x="6" y="37.7" width="3.56" height="0.71" fill="none" stroke="#111" stroke-width="1.6"/><rect x="6" y="44.82" width="3.56" height="0.71" fill="none" stroke="#111" stroke-width="1.6"/><rect x="6" y="51.95" width="3.56" height="0.71" fill="none" stroke="#111" stroke-width="1.6"/><polyline points="10.27,58 15.97,58" fill="none" stroke="#111" stroke-width="1.6" stroke-linecap="round" stroke-linejoin="round"/><rect x="16.68" y="9.21" width="3.57" height="0.71" fill="none" stroke="#111" stroke-width="1.6"/><rect x="16.68" y="16.33" width="3.57" height="0.71" fill="none" stroke="#111" stroke-width="1.6"/><rect x="16.68" y="23.45" width="3.57" height="0.71" fill="none" stroke="#111" stroke-width="1.6"/><rect x="16.68" y="30.58" width="3.57" height="0.71" fill="none" stroke="#111" stroke-width="1.6"/><rect x="16.68" y="37.7" width="3.57" height="0.71" fill="none" stroke="#111" stroke-width="1.6"/><rect x="16.68" y="44.82" width="3.57" height="0.71" fill="none" stroke="#111" stroke-width="1.6"/><rect x="16.68" y="51.95" width="3.57" height="0.71" fill="none" stroke="#111" stroke-width="1.6"/></svg>