<svg xmlns="http://www.w3.org/2000/svg" width="96" height="64" viewBox="0 0 96 64"><rect x="6" y="6" width="0.45" height="0.13" fill="none" stroke="#111" stroke-width="1.6"/><rect x="6" y="7.33" width="0.45" height="0.13" fill="none" stroke="#111" stroke-width="1.6"/><rect x="6" y="8.66" width="0.45" height="0.13" fill="none" stroke="#111" stroke-width="1.6"/><rect x="6" y="9.99" width="0.45" height="0.13" fill="none" stroke="#111" stroke-width="1.6"/><rect x="6" y="11.32" width="0.45" height="0.13" fill="none" stroke="#111" stroke-width="1.6"/><rect x="6" y="12.65" width="0.45" height="0.13" fill="none" stroke="#111" stroke-width="1.6"/><rect x="6" y="13.98" width="0.45" height="0.13" fill="none" stroke="#111" stroke-width="1.6"/><rect x="6" y="15.31" width="0.45" height="0.13" fill="none" stroke="#111" stroke-width="1.6"/><rect x="6" y="16.64" width="0.45" height="0.13" fill="none" stroke="#111" stroke-width="1.6"/><rect x="6" y="17.97" width="0.45" height="0.13" fill="none" stroke="#111" stroke-width="1.6"/><rect x="6" y="19.3" width="0.45" height="0.13" fill="none" stroke="#111" stroke-width="1.6"/><rect x="6" y="20.63" width="0.45" height="0.13" fill="none" stroke="#111" stroke-width="1.6"/><rect x="6" y="21.96" width="0.45" height="0.13" fill="none" stroke="#111" stroke-width="1.6"/><rect x="6" y="23.29" width="0.45" height="0.13" fill="none" stroke="#111" stroke-width="1.6"/><rect x="6" y="24.62" width="0.45" height="0.13" fill="none" stroke="#111" stroke-width="1.6"/><rect x="6" y="25.95" width="0.45" height="0.13" fill="none" stroke="#111" stroke-width="1.6"/><rect x="6" y="27.28" width="0.45" height="0.13" fill="none" stroke="#111" stroke-width="1.6"/><rect x="6" y="28.61" width="0.45" height="0.13" fill="none" stroke="#111" stroke-width="1.6"/><rect x="6" y="29.94" width="0.45" height="0.13" fill="none" stroke="#111" stroke-width="1.6"/><rect x="6" y="31.27" width="0.45" height="0.13" fill="none" stroke="#111" stroke-width="1.6"/><rect x="6" y="32.6" width="0.45" height="0.13" fill="none" stroke="#111" stroke-width="1.6"/><rect x="6" y="33.93" width="0.45" height="0.13" fill="none" stroke="#111" stroke-width="1.6"/><rect x="6" y="35.26" width="0.45" height="0.13" fill="none" stroke="#111" stroke-width="1.6"/><rect x="6" y="36.59" width="0.45" height="0.13" fill="none" stroke="#111" stroke-width="1.6"/><rect x="6" y="37.92" width="0.45" height="0.13" fill="none" stroke="#111" stroke-width="1.6"/><rect x="6" y="39.25" width="0.45" height="0.13" fill="none" stroke="#111" stroke-width="1.6"/><rect x="6" y="40.58" width="0.45" height="0.13" fill="none" stroke="#111" stroke-width="1.6"/><rect x="6" y="41.91" width="0.45" height="0.13" fill="none" stroke="#111" stroke-width="1.6"/><rect x="6" y="43.24" width="0.45" height="0.13" fill="none" stroke="#111" stroke-width="1.6"/><rect x="6" y="44.57" width="0.45" height="0.13" fill="none" stroke="#111" stroke-width="1.6"/><rect x="6" y="45.9" width="0.45" height="0.13" fill="none" stroke="#111" stroke-width="1.6"/><rect x="6" y="47.23" width="0.45" height="0.13" fill="none" stroke="#111" stroke-width="1.6"/><rect x="6" y="48.56" width="0.45" height="0.13" fill="none" stroke="#111" stroke-width="1.6"/><rect x="6" y="49.89" width="0.45" height="0.13" fill="none" stroke="#111" stroke-width="1.6"/><rect x="6" y="51.22" width="0.45" height="0.13" fill="none" stroke="#111" stroke-width="1.6"/><rect x="6" y="52.55" width="0.45" height="0.13" fill="none" stroke="#111" stroke-width="1.6"/><rect x="6" y="53.88" width="0.45" height="0.13" fill="none" stroke="#111" stroke-width="1.6"/><rect x="6" y="55.21" width="0.45" height="0.13" fill="none" stroke="#111" stroke-width="1.6"/><rect x="6" y="56.54" width="0.45" height="0.13" fill="none" stroke="#111" stroke-width="1.6"/><rect x="6" y="57.87" width="0.45" height="0.13" fill="none" stroke="#111" stroke-width="1.6"/><polyline points="6.66,6.07 6.45,6.07" fill="none" stroke="#111" stroke-width="1.6" stroke-linecap="round" stroke-linejoin="round"/><polyline points="6.66,7.4 6.45,7.4" fill="none" stroke="#111" stroke-width="1.6" stroke-linecap="round" stroke-linejoin="round"/><polyline points="6.66,8.73 6.45,8.73" fill="none" stroke="#111" stroke-width="1.6" stroke-linecap="round" stroke-linejoin="round"/><polyline points="6.66,10.06 6.45,10.06" fill="none" stroke="#111" stroke-width="1.6" stroke-linecap="round" stroke-linejoin="round"/><polyline points="6.66,11.39 6.45,11.39" fill="none" stroke="#111" stroke-width="1.6" stroke-linecap="round" stroke-linejoin="round"/><polyline points="6.66,12.72 6.45,12.72" fill="none" stroke="#111" stroke-width="1.6" stroke-linecap="round" stroke-linejoin="round"/><polyline points="6.66,14.05 6.45,14.05" fill="none" stroke="#111" stroke-width="1.6" stroke-linecap="round" stroke-linejoin="round"/><polyline points="6.66,15.38 6.45,15.38" fill="none" stroke="#111" stroke-width="1.6" stroke-linecap="round" stroke-linejoin="round"/><polyline points="6.66,16.71 6.45,16.71" fill="none" stroke="#111" stroke-width="1.6" stroke-linecap="round" stroke-linejoin="round"/><polyline points="6.66,18.04 6.45,18.04" fill="none" stroke="#111" stroke-width="1.6" stroke-linecap="round" stroke-linejoin="round"/><polyline points="6.66,19.37 6.45,19.37" fill="none" stroke="#111" stroke-width="1.6" stroke-linecap="round" stroke-linejoin="round"/><polyline points="6.66,20.7 6.45,20.7" fill="none" stroke="#111" stroke-width="1.6" stroke-linecap="round" stroke-linejoin="round"/><polyline points="6.66,22.03 6.45,22.03" fill="none" stroke="#111" stroke-width="1.6" stroke-linecap="round" stroke-linejoin="round"/><polyline points="6.66,23.36 6.45,23.36" fill="none" stroke="#111" stroke-width="1.6" stroke-linecap="round" stroke-linejoin="round"/><polyline points="6.66,24.69 6.45,24.69" fill="none" stroke="#111" stroke-width="1.6" stroke-linecap="round" stroke-linejoin="round"/><polyline points="6.66,26.02 6.45,26.02" fill="none" stroke="#111" stroke-width="1.6" stroke-linecap="round" stroke-linejoin="round"/><polyline points="6.66,27.35 6.45,27.35" fill="none" stroke="#111" stroke-width="1.6" stroke-linecap="round" stroke-linejoin="round"/><polyline points="6.66,28.68 6.45,28.68" fill="none" stroke="#111" stroke-width="1.6" stroke-linecap="round" stroke-linejoin="round"/><polyline points="6.66,30.01 6.45,30.01" fill="none" stroke="#111" stroke-width="1.6" stroke-linecap="round" stroke-linejoin="round"/><polyline points="6.66,31.34 6.45,31.34" fill="none" stroke="#111" stroke-width="1.6" stroke-linecap="round" stroke-linejoin="round"/><polyline points="6.66,32.66 6.45,32.66" fill="none" stroke="#111" stroke-width="1.6" stroke-linecap="round" stroke-linejoin="round"/><polyline points="6.66,33.99 6.45,33.99" fill="none" stroke="#111" stroke-width="1.6" stroke-linecap="round" stroke-linejoin="round"/><polyline points="6.66,35.32 6.45,35.32" fill="none" stroke="#111" stroke-width="1.6" stroke-linecap="round" stroke-linejoin="round"/><polyline points="6.66,36.65 6.45,36.65" fill="none" stroke="#111" stroke-width="1.6" stroke-linecap="round" stroke-linejoin="round"/><polyline points="6.66,37.98 6.45,37.98" fill="none" stroke="#111" stroke-width="1.6" stroke-linecap="round" stroke-linejoin="round"/><polyline points="6.66,39.31 6.45,39.31" fill="none" stroke="#111" stroke-width="1.6" stroke-linecap="round" stroke-linejoin="round"/><polyline points="6.66,40.64 6.45,40.64" fill="none" stroke="#111" stroke-width="1.6" stroke-linecap="round" stroke-linejoin="round"/><polyline points="6.66,41.97 6.45,41.97" fill="none" stroke="#111" stroke-width="1.6" stroke-linecap="round" stroke-linejoin="round"/><polyline points="6.66,43.3 6.45,43.3" fill="none" stroke="#111" stroke-width="1.6" stroke-linecap="round" stroke-linejoin="round"/><polyline points="6.66,44.63 6.45,44.63" fill="none" stroke="#111" stroke-width="1.6" stroke-linecap="round" stroke-linejoin="round"/><polyline points="6.66,45.96 6.45,45.96" fill="none" stroke="#111" stroke-width="1.6" stroke-linecap="round" stroke-linejoin="round"/><polyline points="6.66,47.29 6.45,47.29" fill="none" stroke="#111" stroke-width="1.6" stroke-linecap="round" stroke-linejoin="round"/><polyline points="6.66,48.62 6.45,48.62" fill="none" stroke="#111" stroke-width="1.6" stroke-linecap="round" stroke-linejoin="round"/><polyline points="6.66,49.95 6.45,49.95" fill="none" stroke="#111" stroke-width="1.6" stroke-linecap="round" stroke-linejoin="round"/><polyline points="6.66,51.28 6.45,51.28" fill="none" stroke="#111" stroke-width="1.6" stroke-linecap="round" stroke-linejoin="round"/><polyline points="6.66,52.61 6.45,52.61" fill="none" stroke="#111" stroke-width="1.6" stroke-linecap="round" stroke-linejoin="round"/><polyline points="6.66,53.94 6.45,53.94" fill="none" stroke="#111" stroke-width="1.6" stroke-linecap="round" stroke-linejoin="round"/><polyline points="6.66,55.27 6.45,55.27" fill="none" stroke="#111" stroke-width="1.6" stroke-linecap="round" stroke-linejoin="round"/><polyline points="6.66,56.6 6.45,56.6" fill="none" stroke="#111" stroke-width="1.6" stroke-linecap="round" stroke-linejoin="round"/><polyline points="6.66,57.93 6.45,57.93" fill="none" stroke="#111" stroke-width="1.6" stroke-linecap="round" stroke-linejoin="round"/></svg>