<svg xmlns="http://www.w3.org/2000/svg" width="96" height="64" viewBox="0 0 96 64"><rect x="6" y="6" width="84" height="28" fill="none" stroke="#111" stroke-width="1.6"/><path d="M 10.67 15.33 Q 14.4 11.62 18.13 15.33" fill="none" stroke="#111" stroke-width="1.6" stroke-linecap="round"/><path d="M 18.13 15.33 Q 21.87 11.62 25.6 15.33" fill="none" stroke="#111" stroke-width="1.6" stroke-linecap="round"/><path d="M 25.6 15.33 Q 29.33 11.62 33.07 15.33" fill="none" stroke="#111" stroke-width="1.6" stroke-linecap="round"/><path d="M 33.07 15.33 Q 36.8 11.62 40.53 15.33" fill="none" stroke="#111" stroke-width="1.6" stroke-linecap="round"/><polyline points="40.53,15.33 55.47,15.33" fill="none" stroke="#111" stroke-width="1.6" stroke-linecap="round" stroke-linejoin="round"/><rect x="40.53" y="26.53" width="14.94" height="1.87" fill="none" stroke="#111" stroke-width="1.6"/><circle cx="48" cy="15.33" r="1.87" fill="none" stroke="#111" stroke-width="1.6"/><polyline points="48,15.33 48,20.93" fill="none" stroke="#111" stroke-width="1.6" stroke-linecap="round" stroke-linejoin="round"/><polyline points="48,28.4 48,34" fill="none" stroke="#111" stroke-width="1.6" stroke-linecap="round" stroke-linejoin="round"/><rect x="40.53" y="20.93" width="14.94" height="1.87" fill="none" stroke="#111" stroke-width="1.6"/><path d="M 55.47 15.33 Q 59.2 11.62 62.93 15.33" fill="none" stroke="#111" stroke-width="1.6" stroke-linecap="round"/><path d="M 62.93 15.33 Q 66.67 11.62 70.4 15.33" fill="none" stroke="#111" stroke-width="1.6" stroke-linecap="round"/><path d="M 70.4 15.33 Q 74.13 11.62 77.87 15.33" fill="none" stroke="#111" stroke-width="1.6" stroke-linecap="round"/><path d="M 77.87 15.33 Q 81.6 11.62 85.33 15.33" fill="none" stroke="#111" stroke-width="1.6" stroke-linecap="round"/></svg>