<svg xmlns="http://www.w3.org/2000/svg" width="96" height="64" viewBox="0 0 96 64"><rect x="6" y="6" width="2.49" height="0.73" fill="none" stroke="#111" stroke-width="1.6"/><rect x="6" y="13.32" width="2.49" height="0.74" fill="none" stroke="#111" stroke-width="1.6"/><rect x="6" y="20.65" width="2.49" height="0.73" fill="none" stroke="#111" stroke-width="1.6"/><rect x="6" y="27.97" width="2.49" height="0.73" fill="none" stroke="#111" stroke-width="1.6"/><rect x="6" y="35.3" width="2.49" height="0.73" fill="none" stroke="#111" stroke-width="1.6"/><rect x="6" y="42.62" width="2.49" height="0.73" fill="none" stroke="#111" stroke-width="1.6"/><rect x="6" y="49.94" width="2.49" height="0.74" fill="none" stroke="#111" stroke-width="1.6"/><rect x="6" y="57.27" width="2.49" height="0.73" fill="none" stroke="#111" stroke-width="1.6"/><polyline points="9.66,6.37 8.49,6.37" fill="none" stroke="#111" stroke-width="1.6" stroke-linecap="round" stroke-linejoin="round"/><polyline points="9.66,13.69 8.49,13.69" fill="none" stroke="#111" stroke-width="1.6" stroke-linecap="round" stroke-linejoin="round"/><polyline points="9.66,21.01 8.49,21.01" fill="none" stroke="#111" stroke-width="1.6" stroke-linecap="round" stroke-linejoin="round"/><polyline points="9.66,28.34 8.49,28.34" fill="none" stroke="#111" stroke-width="1.6" stroke-linecap="round" stroke-linejoin="round"/><polyline points="9.66,35.66 8.49,35.66" fill="none" stroke="#111" stroke-width="1.6" stroke-linecap="round" stroke-linejoin="round"/><polyline points="9.66,42.99 8.49,42.99" fill="none" stroke="#111" stroke-width="1.6" stroke-linecap="round" stroke-linejoin="round"/><polyline points="9.66,50.31 8.49,50.31" fill="none" stroke="#111" stroke-width="1.6" stroke-linecap="round" stroke-linejoin="round"/><polyline points="9.66,57.63 8.49,57.63" fill="none" stroke="#111" stroke-width="1.6" stroke-linecap="round" stroke-linejoin="round"/></svg>