<svg xmlns="http://www.w3.org/2000/svg" width="96" height="64" viewBox="0 0 96 64"><polyline points="6,6 9.25,6" fill="none" stroke="#111" stroke-width="1.6" stroke-linecap="round" stroke-linejoin="round"/><polyline points="6,19 9.25,19" fill="none" stroke="#111" stroke-width="1.6" stroke-linecap="round" stroke-linejoin="round"/><polyline points="6,45 9.25,45" fill="none" stroke="#111" stroke-width="1.6" stroke-linecap="round" stroke-linejoin="round"/><polyline points="6,58 9.25,58" fill="none" stroke="#111" stroke-width="1.6" stroke-linecap="round" stroke-linejoin="round"/><path d="M 9.25 6 Q 12.5 9.25 9.25 12.5" fill="none" stroke="#111" stroke-width="1.6" stroke-linecap="round"/><path d="M 9.25 12.5 Q 12.5 15.75 9.25 19" fill="none" stroke="#111" stroke-width="1.6" stroke-linecap="round"/><path d="M 9.25 45 Q 12.5 48.25 9.25 51.5" fill="none" stroke="#111" stroke-width="1.6" stroke-linecap="round"/><path d="M 9.25 51.5 Q 12.5 54.75 9.25 58" fill="none" stroke="#111" stroke-width="1.6" stroke-linecap="round"/><polyline points="15.75,6 15.75,58" fill="none" stroke="#111" stroke-width="1.6" stroke-linecap="round" stroke-linejoin="round"/><polyline points="22.25,6 22.25,58" fill="none" stroke="#111" stroke-width="1.6" stroke-linecap="round" stroke-linejoin="round"/><polyline points="28.75,6 32,6" fill="none" stroke="#111" stroke-width="1.6" stroke-linecap="round" stroke-linejoin="round"/><path d="M 28.75 12.5 Q 25.5 9.25 28.75 6" fill="none" stroke="#111" stroke-width="1.6" stroke-linecap="round"/><path d="M 28.75 19 Q 25.5 15.75 28.75 12.5" fill="none" stroke="#111" stroke-width="1.6" stroke-linecap="round"/><polyline points="28.75,19 32,19" fill="none" stroke="#111" stroke-width="1.6" stroke-linecap="round" stroke-linejoin="round"/><polyline points="28.75,45 32,45" fill="none" stroke="#111" stroke-width="1.6" stroke-linecap="round" stroke-linejoin="round"/><path d="M 28.75 51.5 Q 25.5 48.25 28.75 45" fill="none" stroke="#111" stroke-width="1.6" stroke-linecap="round"/><path d="M 28.75 58 Q 25.5 54.75 28.75 51.5" fill="none" stroke="#111" stroke-width="1.6" stroke-linecap="round"/><polyline points="28.75,58 32,58" fill="none" stroke="#111" stroke-width="1.6" stroke-linecap="round" stroke-linejoin="round"/><circle cx="9.25" cy="9.25" r="1.3" fill="none" stroke="#111" stroke-width="1.6"/><circle cx="9.25" cy="48.25" r="1.3" fill="none" stroke="#111" stroke-width="1.6"/><circle cx="28.75" cy="9.25" r="1.3" fill="none" stroke="#111" stroke-width="1.6"/><circle cx="28.75" cy="48.25" r="1.3" fill="none" stroke="#111" stroke-width="1.6"/></svg>