<svg xmlns="http://www.w3.org/2000/svg" width="96" height="64" viewBox="0 0 96 64"><rect x="6" y="6" width="24.96" height="52" fill="none" stroke="#111" stroke-width="1.6"/><polyline points="12.45,51.76 15.98,51.76" fill="none" stroke="#111" stroke-width="1.6" stroke-linecap="round" stroke-linejoin="round"/><polyline points="15.98,35.12 12.45,35.12" fill="none" stroke="#111" stroke-width="1.6" stroke-linecap="round" stroke-linejoin="round"/><polyline points="15.98,39.28 12.45,39.28" fill="none" stroke="#111" stroke-width="1.6" stroke-linecap="round" stroke-linejoin="round"/><polyline points="15.98,43.44 12.45,43.44" fill="none" stroke="#111" stroke-width="1.6" stroke-linecap="round" stroke-linejoin="round"/><polyline points="15.98,47.6 12.45,47.6" fill="none" stroke="#111" stroke-width="1.6" stroke-linecap="round" stroke-linejoin="round"/><polyline points="16.19,21.08 16.19,24.2 19.31,22.64 16.19,21.08" fill="none" stroke="#111" stroke-width="1.6" stroke-linecap="round" stroke-linejoin="round"/><polyline points="16.19,22.64 12.66,22.64" fill="none" stroke="#111" stroke-width="1.6" stroke-linecap="round" stroke-linejoin="round"/><polyline points="16.19,25.24 16.19,28.36 19.31,26.8 16.19,25.24" fill="none" stroke="#111" stroke-width="1.6" stroke-linecap="round" stroke-linejoin="round"/><polyline points="16.19,26.8 12.55,26.8" fill="none" stroke="#111" stroke-width="1.6" stroke-linecap="round" stroke-linejoin="round"/><polyline points="16.19,29.4 16.19,32.52 19.31,30.96 16.19,29.4" fill="none" stroke="#111" stroke-width="1.6" stroke-linecap="round" stroke-linejoin="round"/><polyline points="16.19,30.96 12.55,30.96" fill="none" stroke="#111" stroke-width="1.6" stroke-linecap="round" stroke-linejoin="round"/><circle cx="16.5" cy="51.76" r="0.52" fill="none" stroke="#111" stroke-width="1.6"/><circle cx="16.61" cy="35.12" r="0.52" fill="none" stroke="#111" stroke-width="1.6"/><circle cx="16.61" cy="39.28" r="0.52" fill="none" stroke="#111" stroke-width="1.6"/><circle cx="16.61" cy="43.44" r="0.52" fill="none" stroke="#111" stroke-width="1.6"/><circle cx="16.61" cy="47.6" r="0.52" fill="none" stroke="#111" stroke-width="1.6"/><circle cx="19.83" cy="22.64" r="0.52" fill="none" stroke="#111" stroke-width="1.6"/><circle cx="19.83" cy="26.8" r="0.52" fill="none" stroke="#111" stroke-width="1.6"/><circle cx="19.83" cy="30.96" r="0.52" fill="none" stroke="#111" stroke-width="1.6"/><polyline points="20.14,50.2 20.14,53.32 17.02,51.76 20.14,50.2" fill="none" stroke="#111" stroke-width="1.6" stroke-linecap="round" stroke-linejoin="round"/><polyline points="20.14,51.76 23.78,51.76" fill="none" stroke="#111" stroke-width="1.6" stroke-linecap="round" stroke-linejoin="round"/><polyline points="20.25,33.56 20.25,36.68 17.13,35.12 20.25,33.56" fill="none" stroke="#111" stroke-width="1.6" stroke-linecap="round" stroke-linejoin="round"/><polyline points="20.25,35.12 23.89,35.12" fill="none" stroke="#111" stroke-width="1.6" stroke-linecap="round" stroke-linejoin="round"/><polyline points="20.25,37.72 20.25,40.84 17.13,39.28 20.25,37.72" fill="none" stroke="#111" stroke-width="1.6" stroke-linecap="round" stroke-linejoin="round"/><polyline points="20.25,39.28 23.89,39.28" fill="none" stroke="#111" stroke-width="1.6" stroke-linecap="round" stroke-linejoin="round"/><polyline points="20.25,41.88 20.25,45 17.13,43.44 20.25,41.88" fill="none" stroke="#111" stroke-width="1.6" stroke-linecap="round" stroke-linejoin="round"/><polyline points="20.25,43.44 23.89,43.44" fill="none" stroke="#111" stroke-width="1.6" stroke-linecap="round" stroke-linejoin="round"/><polyline points="20.25,46.04 20.25,49.16 17.13,47.6 20.25,46.04" fill="none" stroke="#111" stroke-width="1.6" stroke-linecap="round" stroke-linejoin="round"/><polyline points="20.25,47.6 23.89,47.6" fill="none" stroke="#111" stroke-width="1.6" stroke-linecap="round" stroke-linejoin="round"/><polyline points="23.89,22.64 20.35,22.64" fill="none" stroke="#111" stroke-width="1.6" stroke-linecap="round" stroke-linejoin="round"/><polyline points="23.89,26.8 20.35,26.8" fill="none" stroke="#111" stroke-width="1.6" stroke-linecap="round" stroke-linejoin="round"/><polyline points="23.89,30.96 20.35,30.96" fill="none" stroke="#111" stroke-width="1.6" stroke-linecap="round" stroke-linejoin="round"/></svg>