<svg xmlns="http://www.w3.org/2000/svg" width="96" height="64" viewBox="0 0 96 64"><rect x="6" y="6" width="0.3" height="0.09" fill="none" stroke="#111" stroke-width="1.6"/><rect x="6" y="6.88" width="0.3" height="0.09" fill="none" stroke="#111" stroke-width="1.6"/><rect x="6" y="7.76" width="0.3" height="0.09" fill="none" stroke="#111" stroke-width="1.6"/><rect x="6" y="8.64" width="0.3" height="0.09" fill="none" stroke="#111" stroke-width="1.6"/><rect x="6" y="9.52" width="0.3" height="0.09" fill="none" stroke="#111" stroke-width="1.6"/><rect x="6" y="10.4" width="0.3" height="0.09" fill="none" stroke="#111" stroke-width="1.6"/><rect x="6" y="11.28" width="0.3" height="0.09" fill="none" stroke="#111" stroke-width="1.6"/><rect x="6" y="12.16" width="0.3" height="0.09" fill="none" stroke="#111" stroke-width="1.6"/><rect x="6" y="13.04" width="0.3" height="0.09" fill="none" stroke="#111" stroke-width="1.6"/><rect x="6" y="13.92" width="0.3" height="0.09" fill="none" stroke="#111" stroke-width="1.6"/><rect x="6" y="14.8" width="0.3" height="0.09" fill="none" stroke="#111" stroke-width="1.6"/><rect x="6" y="15.68" width="0.3" height="0.09" fill="none" stroke="#111" stroke-width="1.6"/><rect x="6" y="16.56" width="0.3" height="0.09" fill="none" stroke="#111" stroke-width="1.6"/><rect x="6" y="17.44" width="0.3" height="0.09" fill="none" stroke="#111" stroke-width="1.6"/><rect x="6" y="18.32" width="0.3" height="0.09" fill="none" stroke="#111" stroke-width="1.6"/><rect x="6" y="19.2" width="0.3" height="0.09" fill="none" stroke="#111" stroke-width="1.6"/><rect x="6" y="20.08" width="0.3" height="0.09" fill="none" stroke="#111" stroke-width="1.6"/><rect x="6" y="20.96" width="0.3" height="0.09" fill="none" stroke="#111" stroke-width="1.6"/><rect x="6" y="21.84" width="0.3" height="0.09" fill="none" stroke="#111" stroke-width="1.6"/><rect x="6" y="22.72" width="0.3" height="0.09" fill="none" stroke="#111" stroke-width="1.6"/><rect x="6" y="23.6" width="0.3" height="0.09" fill="none" stroke="#111" stroke-width="1.6"/><rect x="6" y="24.48" width="0.3" height="0.09" fill="none" stroke="#111" stroke-width="1.6"/><rect x="6" y="25.36" width="0.3" height="0.09" fill="none" stroke="#111" stroke-width="1.6"/><rect x="6" y="26.24" width="0.3" height="0.08" fill="none" stroke="#111" stroke-width="1.6"/><rect x="6" y="27.12" width="0.3" height="0.08" fill="none" stroke="#111" stroke-width="1.6"/><rect x="6" y="28" width="0.3" height="0.08" fill="none" stroke="#111" stroke-width="1.6"/><rect x="6" y="28.88" width="0.3" height="0.08" fill="none" stroke="#111" stroke-width="1.6"/><rect x="6" y="29.76" width="0.3" height="0.08" fill="none" stroke="#111" stroke-width="1.6"/><rect x="6" y="30.64" width="0.3" height="0.08" fill="none" stroke="#111" stroke-width="1.6"/><rect x="6" y="31.52" width="0.3" height="0.08" fill="none" stroke="#111" stroke-width="1.6"/><rect x="6" y="32.4" width="0.3" height="0.08" fill="none" stroke="#111" stroke-width="1.6"/><rect x="6" y="33.28" width="0.3" height="0.08" fill="none" stroke="#111" stroke-width="1.6"/><rect x="6" y="34.16" width="0.3" height="0.08" fill="none" stroke="#111" stroke-width="1.6"/><rect x="6" y="35.04" width="0.3" height="0.08" fill="none" stroke="#111" stroke-width="1.6"/><rect x="6" y="35.92" width="0.3" height="0.08" fill="none" stroke="#111" stroke-width="1.6"/><rect x="6" y="36.8" width="0.3" height="0.08" fill="none" stroke="#111" stroke-width="1.6"/><rect x="6" y="37.68" width="0.3" height="0.08" fill="none" stroke="#111" stroke-width="1.6"/><rect x="6" y="38.55" width="0.3" height="0.09" fill="none" stroke="#111" stroke-width="1.6"/><rect x="6" y="39.43" width="0.3" height="0.09" fill="none" stroke="#111" stroke-width="1.6"/><rect x="6" y="40.31" width="0.3" height="0.09" fill="none" stroke="#111" stroke-width="1.6"/><rect x="6" y="41.19" width="0.3" height="0.09" fill="none" stroke="#111" stroke-width="1.6"/><rect x="6" y="42.07" width="0.3" height="0.09" fill="none" stroke="#111" stroke-width="1.6"/><rect x="6" y="42.95" width="0.3" height="0.09" fill="none" stroke="#111" stroke-width="1.6"/><rect x="6" y="43.83" width="0.3" height="0.09" fill="none" stroke="#111" stroke-width="1.6"/><rect x="6" y="44.71" width="0.3" height="0.09" fill="none" stroke="#111" stroke-width="1.6"/><rect x="6" y="45.59" width="0.3" height="0.09" fill="none" stroke="#111" stroke-width="1.6"/><rect x="6" y="46.47" width="0.3" height="0.09" fill="none" stroke="#111" stroke-width="1.6"/><rect x="6" y="47.35" width="0.3" height="0.09" fill="none" stroke="#111" stroke-width="1.6"/><rect x="6" y="48.23" width="0.3" height="0.09" fill="none" stroke="#111" stroke-width="1.6"/><rect x="6" y="49.11" width="0.3" height="0.09" fill="none" stroke="#111" stroke-width="1.6"/><rect x="6" y="49.99" width="0.3" height="0.09" fill="none" stroke="#111" stroke-width="1.6"/><rect x="6" y="50.87" width="0.3" height="0.09" fill="none" stroke="#111" stroke-width="1.6"/><rect x="6" y="51.75" width="0.3" height="0.09" fill="none" stroke="#111" stroke-width="1.6"/><rect x="6" y="52.63" width="0.3" height="0.09" fill="none" stroke="#111" stroke-width="1.6"/><rect x="6" y="53.51" width="0.3" height="0.09" fill="none" stroke="#111" stroke-width="1.6"/><rect x="6" y="54.39" width="0.3" height="0.09" fill="none" stroke="#111" stroke-width="1.6"/><rect x="6" y="55.27" width="0.3" height="0.09" fill="none" stroke="#111" stroke-width="1.6"/><rect x="6" y="56.15" width="0.3" height="0.09" fill="none" stroke="#111" stroke-width="1.6"/><rect x="6" y="57.03" width="0.3" height="0.09" fill="none" stroke="#111" stroke-width="1.6"/><rect x="6" y="57.91" width="0.3" height="0.09" fill="none" stroke="#111" stroke-width="1.6"/><polyline points="6.44,6.04 6.3,6.04" fill="none" stroke="#111" stroke-width="1.6" stroke-linecap="round" stroke-linejoin="round"/><polyline points="6.44,6.92 6.3,6.92" fill="none" stroke="#111" stroke-width="1.6" stroke-linecap="round" stroke-linejoin="round"/><polyline points="6.44,7.8 6.3,7.8" fill="none" stroke="#111" stroke-width="1.6" stroke-linecap="round" stroke-linejoin="round"/><polyline points="6.44,8.68 6.3,8.68" fill="none" stroke="#111" stroke-width="1.6" stroke-linecap="round" stroke-linejoin="round"/><polyline points="6.44,9.56 6.3,9.56" fill="none" stroke="#111" stroke-width="1.6" stroke-linecap="round" stroke-linejoin="round"/><polyline points="6.44,10.44 6.3,10.44" fill="none" stroke="#111" stroke-width="1.6" stroke-linecap="round" stroke-linejoin="round"/><polyline points="6.44,11.32 6.3,11.32" fill="none" stroke="#111" stroke-width="1.6" stroke-linecap="round" stroke-linejoin="round"/><polyline points="6.44,12.2 6.3,12.2" fill="none" stroke="#111" stroke-width="1.6" stroke-linecap="round" stroke-linejoin="round"/><polyline points="6.44,13.08 6.3,13.08" fill="none" stroke="#111" stroke-width="1.6" stroke-linecap="round" stroke-linejoin="round"/><polyline points="6.44,13.96 6.3,13.96" fill="none" stroke="#111" stroke-width="1.6" stroke-linecap="round" stroke-linejoin="round"/><polyline points="6.44,14.84 6.3,14.84" fill="none" stroke="#111" stroke-width="1.6" stroke-linecap="round" stroke-linejoin="round"/><polyline points="6.44,15.72 6.3,15.72" fill="none" stroke="#111" stroke-width="1.6" stroke-linecap="round" stroke-linejoin="round"/><polyline points="6.44,16.6 6.3,16.6" fill="none" stroke="#111" stroke-width="1.6" stroke-linecap="round" stroke-linejoin="round"/><polyline points="6.44,17.48 6.3,17.48" fill="none" stroke="#111" stroke-width="1.6" stroke-linecap="round" stroke-linejoin="round"/><polyline points="6.44,18.36 6.3,18.36" fill="none" stroke="#111" stroke-width="1.6" stroke-linecap="round" stroke-linejoin="round"/><polyline points="6.44,19.24 6.3,19.24" fill="none" stroke="#111" stroke-width="1.6" stroke-linecap="round" stroke-linejoin="round"/><polyline points="6.44,20.12 6.3,20.12" fill="none" stroke="#111" stroke-width="1.6" stroke-linecap="round" stroke-linejoin="round"/><polyline points="6.44,21 6.3,21" fill="none" stroke="#111" stroke-width="1.6" stroke-linecap="round" stroke-linejoin="round"/><polyline points="6.44,21.88 6.3,21.88" fill="none" stroke="#111" stroke-width="1.6" stroke-linecap="round" stroke-linejoin="round"/><polyline points="6.44,22.76 6.3,22.76" fill="none" stroke="#111" stroke-width="1.6" stroke-linecap="round" stroke-linejoin="round"/><polyline points="6.44,23.64 6.3,23.64" fill="none" stroke="#111" stroke-width="1.6" stroke-linecap="round" stroke-linejoin="round"/><polyline points="6.44,24.52 6.3,24.52" fill="none" stroke="#111" stroke-width="1.6" stroke-linecap="round" stroke-linejoin="round"/><polyline points="6.44,25.4 6.3,25.4" fill="none" stroke="#111" stroke-width="1.6" stroke-linecap="round" stroke-linejoin="round"/><polyline points="6.44,26.28 6.3,26.28" fill="none" stroke="#111" stroke-width="1.6" stroke-linecap="round" stroke-linejoin="round"/><polyline points="6.44,27.16 6.3,27.16" fill="none" stroke="#111" stroke-width="1.6" stroke-linecap="round" stroke-linejoin="round"/><polyline points="6.44,28.04 6.3,28.04" fill="none" stroke="#111" stroke-width="1.6" stroke-linecap="round" stroke-linejoin="round"/><polyline points="6.44,28.92 6.3,28.92" fill="none" stroke="#111" stroke-width="1.6" stroke-linecap="round" stroke-linejoin="round"/><polyline points="6.44,29.8 6.3,29.8" fill="none" stroke="#111" stroke-width="1.6" stroke-linecap="round" stroke-linejoin="round"/><polyline points="6.44,30.68 6.3,30.68" fill="none" stroke="#111" stroke-width="1.6" stroke-linecap="round" stroke-linejoin="round"/><polyline points="6.44,31.56 6.3,31.56" fill="none" stroke="#111" stroke-width="1.6" stroke-linecap="round" stroke-linejoin="round"/><polyline points="6.44,32.44 6.3,32.44" fill="none" stroke="#111" stroke-width="1.6" stroke-linecap="round" stroke-linejoin="round"/><polyline points="6.44,33.32 6.3,33.32" fill="none" stroke="#111" stroke-width="1.6" stroke-linecap="round" stroke-linejoin="round"/><polyline points="6.44,34.2 6.3,34.2" fill="none" stroke="#111" stroke-width="1.6" stroke-linecap="round" stroke-linejoin="round"/><polyline points="6.44,35.08 6.3,35.08" fill="none" stroke="#111" stroke-width="1.6" stroke-linecap="round" stroke-linejoin="round"/><polyline points="6.44,35.96 6.3,35.96" fill="none" stroke="#111" stroke-width="1.6" stroke-linecap="round" stroke-linejoin="round"/><polyline points="6.44,36.84 6.3,36.84" fill="none" stroke="#111" stroke-width="1.6" stroke-linecap="round" stroke-linejoin="round"/><polyline points="6.44,37.72 6.3,37.72" fill="none" stroke="#111" stroke-width="1.6" stroke-linecap="round" stroke-linejoin="round"/><polyline points="6.44,38.6 6.3,38.6" fill="none" stroke="#111" stroke-width="1.6" stroke-linecap="round" stroke-linejoin="round"/><polyline points="6.44,39.48 6.3,39.48" fill="none" stroke="#111" stroke-width="1.6" stroke-linecap="round" stroke-linejoin="round"/><polyline points="6.44,40.36 6.3,40.36" fill="none" stroke="#111" stroke-width="1.6" stroke-linecap="round" stroke-linejoin="round"/><polyline points="6.44,41.24 6.3,41.24" fill="none" stroke="#111" stroke-width="1.6" stroke-linecap="round" stroke-linejoin="round"/><polyline points="6.44,42.12 6.3,42.12" fill="none" stroke="#111" stroke-width="1.6" stroke-linecap="round" stroke-linejoin="round"/><polyline points="6.44,43 6.3,43" fill="none" stroke="#111" stroke-width="1.6" stroke-linecap="round" stroke-linejoin="round"/><polyline points="6.44,43.88 6.3,43.88" fill="none" stroke="#111" stroke-width="1.6" stroke-linecap="round" stroke-linejoin="round"/><polyline points="6.44,44.76 6.3,44.76" fill="none" stroke="#111" stroke-width="1.6" stroke-linecap="round" stroke-linejoin="round"/><polyline points="6.44,45.64 6.3,45.64" fill="none" stroke="#111" stroke-width="1.6" stroke-linecap="round" stroke-linejoin="round"/><polyline points="6.44,46.52 6.3,46.52" fill="none" stroke="#111" stroke-width="1.6" stroke-linecap="round" stroke-linejoin="round"/><polyline points="6.44,47.4 6.3,47.4" fill="none" stroke="#111" stroke-width="1.6" stroke-linecap="round" stroke-linejoin="round"/><polyline points="6.44,48.28 6.3,48.28" fill="none" stroke="#111" stroke-width="1.6" stroke-linecap="round" stroke-linejoin="round"/><polyline points="6.44,49.16 6.3,49.16" fill="none" stroke="#111" stroke-width="1.6" stroke-linecap="round" stroke-linejoin="round"/><polyline points="6.44,50.04 6.3,50.04" fill="none" stroke="#111" stroke-width="1.6" stroke-linecap="round" stroke-linejoin="round"/><polyline points="6.44,50.92 6.3,50.92" fill="none" stroke="#111" stroke-width="1.6" stroke-linecap="round" stroke-linejoin="round"/><polyline points="6.44,51.8 6.3,51.8" fill="none" stroke="#111" stroke-width="1.6" stroke-linecap="round" stroke-linejoin="round"/><polyline points="6.44,52.68 6.3,52.68" fill="none" stroke="#111" stroke-width="1.6" stroke-linecap="round" stroke-linejoin="round"/><polyline points="6.44,53.56 6.3,53.56" fill="none" stroke="#111" stroke-width="1.6" stroke-linecap="round" stroke-linejoin="round"/><polyline points="6.44,54.44 6.3,54.44" fill="none" stroke="#111" stroke-width="1.6" stroke-linecap="round" stroke-linejoin="round"/><polyline points="6.44,55.32 6.3,55.32" fill="none" stroke="#111" stroke-width="1.6" stroke-linecap="round" stroke-linejoin="round"/><polyline points="6.44,56.2 6.3,56.2" fill="none" stroke="#111" stroke-width="1.6" stroke-linecap="round" stroke-linejoin="round"/><polyline points="6.44,57.08 6.3,57.08" fill="none" stroke="#111" stroke-width="1.6" stroke-linecap="round" stroke-linejoin="round"/><polyline points="6.44,57.96 6.3,57.96" fill="none" stroke="#111" stroke-width="1.6" stroke-linecap="round" stroke-linejoin="round"/></svg>