<svg xmlns="http://www.w3.org/2000/svg" width="96" height="64" viewBox="0 0 96 64"><polyline points="63.09,50.72 63.09,52.8" fill="none" stroke="#111" stroke-width="1.6" stroke-linecap="round" stroke-linejoin="round"/><polyline points="14.21,32 11.09,32" fill="none" stroke="#111" stroke-width="1.6" stroke-linecap="round" stroke-linejoin="round"/><polyline points="31.89,6 47.49,6" fill="none" stroke="#111" stroke-width="1.6" stroke-linecap="round" stroke-linejoin="round"/><polyline points="31.89,58 47.49,58" fill="none" stroke="#111" stroke-width="1.6" stroke-linecap="round" stroke-linejoin="round"/><path d="M 31.89 58 Q 6 32 31.89 6" fill="none" stroke="#111" stroke-width="1.6" stroke-linecap="round"/><polyline points="42.29,32 26.69,32 25.65,27.84 23.57,36.16 21.49,27.84 19.41,36.16 17.33,27.84 15.25,36.16 14.21,32" fill="none" stroke="#111" stroke-width="1.6" stroke-linecap="round" stroke-linejoin="round"/><polyline points="42.29,34.08 63.09,13.28" fill="none" stroke="#111" stroke-width="1.6" stroke-linecap="round" stroke-linejoin="round"/><polyline points="43.33,19.52 43.33,45.52" fill="none" stroke="#111" stroke-width="1.6" stroke-linecap="round" stroke-linejoin="round"/><path d="M 47.49 6 Q 73.37 32 47.49 58" fill="none" stroke="#111" stroke-width="1.6" stroke-linecap="round"/><polyline points="49.57,41.36 53.73,37.2 57.89,45.52 49.57,41.36" fill="none" stroke="#111" stroke-width="1.6" stroke-linecap="round" stroke-linejoin="round"/><polyline points="63.09,13.28 63.09,11.2" fill="none" stroke="#111" stroke-width="1.6" stroke-linecap="round" stroke-linejoin="round"/><polyline points="63.09,50.72 42.29,29.92 42.29,29.92" fill="none" stroke="#111" stroke-width="1.6" stroke-linecap="round" stroke-linejoin="round"/></svg>