<svg xmlns="http://www.w3.org/2000/svg" width="96" height="64" viewBox="0 0 96 64"><rect x="6" y="6" width="84" height="42" fill="none" stroke="#111" stroke-width="1.6"/><polyline points="6,13 30.5,13 30.5,31.2" fill="none" stroke="#111" stroke-width="1.6" stroke-linecap="round" stroke-linejoin="round"/><polyline points="27,30.5 34,30.5" fill="none" stroke="#111" stroke-width="1.6" stroke-linecap="round" stroke-linejoin="round"/><polyline points="30.5,30.5 30.5,41 6,41" fill="none" stroke="#111" stroke-width="1.6" stroke-linecap="round" stroke-linejoin="round"/><polyline points="30.5,30.5 27,23.5 34,23.5 30.5,30.5" fill="none" stroke="#111" stroke-width="1.6" stroke-linecap="round" stroke-linejoin="round"/><polyline points="38.2,21.4 45.2,21.4 43.1,22.1 43.1,20.7 45.2,21.4" fill="none" stroke="#111" stroke-width="1.6" stroke-linecap="round" stroke-linejoin="round"/><polyline points="38.2,27 45.2,27 43.1,27.7 43.1,26.3 45.2,27" fill="none" stroke="#111" stroke-width="1.6" stroke-linecap="round" stroke-linejoin="round"/><polyline points="50.8,15.1 50.8,26.3" fill="none" stroke="#111" stroke-width="1.6" stroke-linecap="round" stroke-linejoin="round"/><polyline points="50.8,20 57.8,13" fill="none" stroke="#111" stroke-width="1.6" stroke-linecap="round" stroke-linejoin="round"/><polyline points="50.8,21.4 57.8,28.4" fill="none" stroke="#111" stroke-width="1.6" stroke-linecap="round" stroke-linejoin="round"/><polyline points="56.4,27 55,24.2 53.6,25.6 56.4,27" fill="none" stroke="#111" stroke-width="1.6" stroke-linecap="round" stroke-linejoin="round"/><polyline points="57.8,13 90,13" fill="none" stroke="#111" stroke-width="1.6" stroke-linecap="round" stroke-linejoin="round"/><polyline points="57.8,28.4 57.8,41 60.6,41 61.3,39.6 62,42.4 62.7,39.6 63.4,42.4 64.1,39.6 64.8,42.4 65.5,39.6 66.2,41 70.4,41" fill="none" stroke="#111" stroke-width="1.6" stroke-linecap="round" stroke-linejoin="round"/><circle cx="57.8" cy="29.1" r="0.7" fill="none" stroke="#111" stroke-width="1.6"/><polyline points="63.4,23.5 63.4,34.7" fill="none" stroke="#111" stroke-width="1.6" stroke-linecap="round" stroke-linejoin="round"/><polyline points="63.4,28.4 70.4,21.4" fill="none" stroke="#111" stroke-width="1.6" stroke-linecap="round" stroke-linejoin="round"/><polyline points="63.4,29.1 57.8,29.1" fill="none" stroke="#111" stroke-width="1.6" stroke-linecap="round" stroke-linejoin="round"/><polyline points="63.4,29.8 70.4,36.8" fill="none" stroke="#111" stroke-width="1.6" stroke-linecap="round" stroke-linejoin="round"/><polyline points="69,35.4 67.6,32.6 66.2,34 69,35.4" fill="none" stroke="#111" stroke-width="1.6" stroke-linecap="round" stroke-linejoin="round"/><circle cx="70.4" cy="13" r="0.7" fill="none" stroke="#111" stroke-width="1.6"/><polyline points="70.4,21.4 70.4,13" fill="none" stroke="#111" stroke-width="1.6" stroke-linecap="round" stroke-linejoin="round"/><polyline points="70.4,36.8 70.4,41" fill="none" stroke="#111" stroke-width="1.6" stroke-linecap="round" stroke-linejoin="round"/><polyline points="70.4,41 90,41" fill="none" stroke="#111" stroke-width="1.6" stroke-linecap="round" stroke-linejoin="round"/><circle cx="70.4" cy="41" r="0.7" fill="none" stroke="#111" stroke-width="1.6"/><polyline points="72.5,23.5 79.5,23.5" fill="none" stroke="#111" stroke-width="1.6" stroke-linecap="round" stroke-linejoin="round"/><circle cx="76" cy="13" r="0.7" fill="none" stroke="#111" stroke-width="1.6"/><polyline points="76,23.5 76,13" fill="none" stroke="#111" stroke-width="1.6" stroke-linecap="round" stroke-linejoin="round"/><polyline points="76,23.5 76,41" fill="none" stroke="#111" stroke-width="1.6" stroke-linecap="round" stroke-linejoin="round"/><polyline points="76,23.5 72.5,30.5 79.5,30.5 76,23.5" fill="none" stroke="#111" stroke-width="1.6" stroke-linecap="round" stroke-linejoin="round"/><circle cx="76" cy="41" r="0.7" fill="none" stroke="#111" stroke-width="1.6"/></svg>