<svg xmlns="http://www.w3.org/2000/svg" width="96" height="64" viewBox="0 0 96 64"><rect x="6" y="6" width="3.22" height="51.52" fill="none" stroke="#111" stroke-width="1.6"/><rect x="6" y="6.72" width="0.8" height="0.17" fill="none" stroke="#111" stroke-width="1.6"/><rect x="6" y="8.33" width="0.8" height="0.17" fill="none" stroke="#111" stroke-width="1.6"/><rect x="6" y="9.94" width="0.8" height="0.17" fill="none" stroke="#111" stroke-width="1.6"/><rect x="6" y="11.55" width="0.8" height="0.17" fill="none" stroke="#111" stroke-width="1.6"/><rect x="6" y="13.16" width="0.8" height="0.17" fill="none" stroke="#111" stroke-width="1.6"/><rect x="6" y="14.77" width="0.8" height="0.16" fill="none" stroke="#111" stroke-width="1.6"/><rect x="6" y="16.38" width="0.8" height="0.16" fill="none" stroke="#111" stroke-width="1.6"/><rect x="6" y="17.99" width="0.8" height="0.16" fill="none" stroke="#111" stroke-width="1.6"/><rect x="6" y="19.6" width="0.8" height="0.16" fill="none" stroke="#111" stroke-width="1.6"/><rect x="6" y="21.21" width="0.8" height="0.16" fill="none" stroke="#111" stroke-width="1.6"/><rect x="6" y="22.82" width="0.8" height="0.16" fill="none" stroke="#111" stroke-width="1.6"/><rect x="6" y="24.43" width="0.8" height="0.16" fill="none" stroke="#111" stroke-width="1.6"/><rect x="6" y="26.04" width="0.8" height="0.16" fill="none" stroke="#111" stroke-width="1.6"/><rect x="6" y="27.65" width="0.8" height="0.16" fill="none" stroke="#111" stroke-width="1.6"/><rect x="6" y="29.26" width="0.8" height="0.16" fill="none" stroke="#111" stroke-width="1.6"/><rect x="6" y="30.87" width="0.8" height="0.16" fill="none" stroke="#111" stroke-width="1.6"/><rect x="6" y="32.48" width="0.8" height="0.16" fill="none" stroke="#111" stroke-width="1.6"/><rect x="6" y="34.09" width="0.8" height="0.16" fill="none" stroke="#111" stroke-width="1.6"/><rect x="6" y="35.7" width="0.8" height="0.16" fill="none" stroke="#111" stroke-width="1.6"/><rect x="6" y="37.31" width="0.8" height="0.16" fill="none" stroke="#111" stroke-width="1.6"/><rect x="6" y="38.92" width="0.8" height="0.16" fill="none" stroke="#111" stroke-width="1.6"/><rect x="6" y="40.53" width="0.8" height="0.16" fill="none" stroke="#111" stroke-width="1.6"/><rect x="6" y="42.14" width="0.8" height="0.16" fill="none" stroke="#111" stroke-width="1.6"/><rect x="6" y="43.75" width="0.8" height="0.16" fill="none" stroke="#111" stroke-width="1.6"/><rect x="6" y="45.36" width="0.8" height="0.16" fill="none" stroke="#111" stroke-width="1.6"/><rect x="6" y="46.97" width="0.8" height="0.16" fill="none" stroke="#111" stroke-width="1.6"/><rect x="6" y="48.58" width="0.8" height="0.16" fill="none" stroke="#111" stroke-width="1.6"/><rect x="6" y="50.19" width="0.8" height="0.16" fill="none" stroke="#111" stroke-width="1.6"/><rect x="6" y="51.8" width="0.8" height="0.16" fill="none" stroke="#111" stroke-width="1.6"/><rect x="6" y="53.41" width="0.8" height="0.16" fill="none" stroke="#111" stroke-width="1.6"/><rect x="6" y="55.02" width="0.8" height="0.16" fill="none" stroke="#111" stroke-width="1.6"/><rect x="6" y="56.63" width="0.8" height="0.16" fill="none" stroke="#111" stroke-width="1.6"/><polyline points="6.97,58 8.25,58" fill="none" stroke="#111" stroke-width="1.6" stroke-linecap="round" stroke-linejoin="round"/><rect x="8.41" y="6.72" width="0.81" height="0.17" fill="none" stroke="#111" stroke-width="1.6"/><rect x="8.41" y="8.33" width="0.81" height="0.17" fill="none" stroke="#111" stroke-width="1.6"/><rect x="8.41" y="9.94" width="0.81" height="0.17" fill="none" stroke="#111" stroke-width="1.6"/><rect x="8.41" y="11.55" width="0.81" height="0.17" fill="none" stroke="#111" stroke-width="1.6"/><rect x="8.41" y="13.16" width="0.81" height="0.17" fill="none" stroke="#111" stroke-width="1.6"/><rect x="8.41" y="14.77" width="0.81" height="0.16" fill="none" stroke="#111" stroke-width="1.6"/><rect x="8.41" y="16.38" width="0.81" height="0.16" fill="none" stroke="#111" stroke-width="1.6"/><rect x="8.41" y="17.99" width="0.81" height="0.16" fill="none" stroke="#111" stroke-width="1.6"/><rect x="8.41" y="19.6" width="0.81" height="0.16" fill="none" stroke="#111" stroke-width="1.6"/><rect x="8.41" y="21.21" width="0.81" height="0.16" fill="none" stroke="#111" stroke-width="1.6"/><rect x="8.41" y="22.82" width="0.81" height="0.16" fill="none" stroke="#111" stroke-width="1.6"/><rect x="8.41" y="24.43" width="0.81" height="0.16" fill="none" stroke="#111" stroke-width="1.6"/><rect x="8.41" y="26.04" width="0.81" height="0.16" fill="none" stroke="#111" stroke-width="1.6"/><rect x="8.41" y="27.65" width="0.81" height="0.16" fill="none" stroke="#111" stroke-width="1.6"/><rect x="8.41" y="29.26" width="0.81" height="0.16" fill="none" stroke="#111" stroke-width="1.6"/><rect x="8.41" y="30.87" width="0.81" height="0.16" fill="none" stroke="#111" stroke-width="1.6"/><rect x="8.41" y="32.48" width="0.81" height="0.16" fill="none" stroke="#111" stroke-width="1.6"/><rect x="8.41" y="34.09" width="0.81" height="0.16" fill="none" stroke="#111" stroke-width="1.6"/><rect x="8.41" y="35.7" width="0.81" height="0.16" fill="none" stroke="#111" stroke-width="1.6"/><rect x="8.41" y="37.31" width="0.81" height="0.16" fill="none" stroke="#111" stroke-width="1.6"/><rect x="8.41" y="38.92" width="0.81" height="0.16" fill="none" stroke="#111" stroke-width="1.6"/><rect x="8.41" y="40.53" width="0.81" height="0.16" fill="none" stroke="#111" stroke-width="1.6"/><rect x="8.41" y="42.14" width="0.81" height="0.16" fill="none" stroke="#111" stroke-width="1.6"/><rect x="8.41" y="43.75" width="0.81" height="0.16" fill="none" stroke="#111" stroke-width="1.6"/><rect x="8.41" y="45.36" width="0.81" height="0.16" fill="none" stroke="#111" stroke-width="1.6"/><rect x="8.41" y="46.97" width="0.81" height="0.16" fill="none" stroke="#111" stroke-width="1.6"/><rect x="8.41" y="48.58" width="0.81" height="0.16" fill="none" stroke="#111" stroke-width="1.6"/><rect x="8.41" y="50.19" width="0.81" height="0.16" fill="none" stroke="#111" stroke-width="1.6"/><rect x="8.41" y="51.8" width="0.81" height="0.16" fill="none" stroke="#111" stroke-width="1.6"/><rect x="8.41" y="53.41" width="0.81" height="0.16" fill="none" stroke="#111" stroke-width="1.6"/><rect x="8.41" y="55.02" width="0.81" height="0.16" fill="none" stroke="#111" stroke-width="1.6"/><rect x="8.41" y="56.63" width="0.81" height="0.16" fill="none" stroke="#111" stroke-width="1.6"/></svg>