<svg xmlns="http://www.w3.org/2000/svg" width="96" height="64" viewBox="0 0 96 64"><polyline points="6,6.29 6.44,6.29" fill="none" stroke="#111" stroke-width="1.6" stroke-linecap="round" stroke-linejoin="round"/><polyline points="6,7.76 6.44,7.76" fill="none" stroke="#111" stroke-width="1.6" stroke-linecap="round" stroke-linejoin="round"/><polyline points="6,9.23 6.44,9.23" fill="none" stroke="#111" stroke-width="1.6" stroke-linecap="round" stroke-linejoin="round"/><polyline points="6,10.7 6.44,10.7" fill="none" stroke="#111" stroke-width="1.6" stroke-linecap="round" stroke-linejoin="round"/><polyline points="6,12.17 6.44,12.17" fill="none" stroke="#111" stroke-width="1.6" stroke-linecap="round" stroke-linejoin="round"/><polyline points="6,13.64 6.44,13.64" fill="none" stroke="#111" stroke-width="1.6" stroke-linecap="round" stroke-linejoin="round"/><polyline points="6,15.11 6.44,15.11" fill="none" stroke="#111" stroke-width="1.6" stroke-linecap="round" stroke-linejoin="round"/><polyline points="6,16.58 6.44,16.58" fill="none" stroke="#111" stroke-width="1.6" stroke-linecap="round" stroke-linejoin="round"/><polyline points="6,18.05 6.44,18.05" fill="none" stroke="#111" stroke-width="1.6" stroke-linecap="round" stroke-linejoin="round"/><polyline points="6,19.51 6.44,19.51" fill="none" stroke="#111" stroke-width="1.6" stroke-linecap="round" stroke-linejoin="round"/><polyline points="6,20.98 6.44,20.98" fill="none" stroke="#111" stroke-width="1.6" stroke-linecap="round" stroke-linejoin="round"/><polyline points="6,22.45 6.44,22.45" fill="none" stroke="#111" stroke-width="1.6" stroke-linecap="round" stroke-linejoin="round"/><polyline points="6,23.92 6.44,23.92" fill="none" stroke="#111" stroke-width="1.6" stroke-linecap="round" stroke-linejoin="round"/><polyline points="6,25.39 6.44,25.39" fill="none" stroke="#111" stroke-width="1.6" stroke-linecap="round" stroke-linejoin="round"/><polyline points="6,26.86 6.44,26.86" fill="none" stroke="#111" stroke-width="1.6" stroke-linecap="round" stroke-linejoin="round"/><polyline points="6,28.33 6.44,28.33" fill="none" stroke="#111" stroke-width="1.6" stroke-linecap="round" stroke-linejoin="round"/><polyline points="6,29.8 6.44,29.8" fill="none" stroke="#111" stroke-width="1.6" stroke-linecap="round" stroke-linejoin="round"/><polyline points="6,31.27 6.44,31.27" fill="none" stroke="#111" stroke-width="1.6" stroke-linecap="round" stroke-linejoin="round"/><polyline points="6,32.73 6.44,32.73" fill="none" stroke="#111" stroke-width="1.6" stroke-linecap="round" stroke-linejoin="round"/><polyline points="6,34.2 6.44,34.2" fill="none" stroke="#111" stroke-width="1.6" stroke-linecap="round" stroke-linejoin="round"/><polyline points="6,35.67 6.44,35.67" fill="none" stroke="#111" stroke-width="1.6" stroke-linecap="round" stroke-linejoin="round"/><polyline points="6,37.14 6.44,37.14" fill="none" stroke="#111" stroke-width="1.6" stroke-linecap="round" stroke-linejoin="round"/><polyline points="6,38.61 6.44,38.61" fill="none" stroke="#111" stroke-width="1.6" stroke-linecap="round" stroke-linejoin="round"/><polyline points="6,40.08 6.44,40.08" fill="none" stroke="#111" stroke-width="1.6" stroke-linecap="round" stroke-linejoin="round"/><polyline points="6,41.55 6.44,41.55" fill="none" stroke="#111" stroke-width="1.6" stroke-linecap="round" stroke-linejoin="round"/><polyline points="6,43.02 6.44,43.02" fill="none" stroke="#111" stroke-width="1.6" stroke-linecap="round" stroke-linejoin="round"/><polyline points="6,44.49 6.44,44.49" fill="none" stroke="#111" stroke-width="1.6" stroke-linecap="round" stroke-linejoin="round"/><polyline points="6,45.95 6.44,45.95" fill="none" stroke="#111" stroke-width="1.6" stroke-linecap="round" stroke-linejoin="round"/><polyline points="6,47.42 6.44,47.42" fill="none" stroke="#111" stroke-width="1.6" stroke-linecap="round" stroke-linejoin="round"/><polyline points="6,48.89 6.44,48.89" fill="none" stroke="#111" stroke-width="1.6" stroke-linecap="round" stroke-linejoin="round"/><polyline points="6,50.36 6.44,50.36" fill="none" stroke="#111" stroke-width="1.6" stroke-linecap="round" stroke-linejoin="round"/><polyline points="6,51.83 6.44,51.83" fill="none" stroke="#111" stroke-width="1.6" stroke-linecap="round" stroke-linejoin="round"/><polyline points="6,53.3 6.44,53.3" fill="none" stroke="#111" stroke-width="1.6" stroke-linecap="round" stroke-linejoin="round"/><polyline points="6,54.77 6.44,54.77" fill="none" stroke="#111" stroke-width="1.6" stroke-linecap="round" stroke-linejoin="round"/><polyline points="6,56.24 6.44,56.24" fill="none" stroke="#111" stroke-width="1.6" stroke-linecap="round" stroke-linejoin="round"/><polyline points="6,57.71 6.44,57.71" fill="none" stroke="#111" stroke-width="1.6" stroke-linecap="round" stroke-linejoin="round"/><path d="M 6.73 6.59 Q 6.44 6.29 6.73 6" fill="none" stroke="#111" stroke-width="1.6" stroke-linecap="round"/><path d="M 6.73 8.06 Q 6.44 7.76 6.73 7.47" fill="none" stroke="#111" stroke-width="1.6" stroke-linecap="round"/><path d="M 6.73 9.53 Q 6.44 9.23 6.73 8.94" fill="none" stroke="#111" stroke-width="1.6" stroke-linecap="round"/><path d="M 6.73 10.99 Q 6.44 10.7 6.73 10.41" fill="none" stroke="#111" stroke-width="1.6" stroke-linecap="round"/><path d="M 6.73 12.46 Q 6.44 12.17 6.73 11.88" fill="none" stroke="#111" stroke-width="1.6" stroke-linecap="round"/><path d="M 6.73 13.93 Q 6.44 13.64 6.73 13.34" fill="none" stroke="#111" stroke-width="1.6" stroke-linecap="round"/><path d="M 6.73 15.4 Q 6.44 15.11 6.73 14.81" fill="none" stroke="#111" stroke-width="1.6" stroke-linecap="round"/><path d="M 6.73 16.87 Q 6.44 16.58 6.73 16.28" fill="none" stroke="#111" stroke-width="1.6" stroke-linecap="round"/><path d="M 6.73 18.34 Q 6.44 18.05 6.73 17.75" fill="none" stroke="#111" stroke-width="1.6" stroke-linecap="round"/><path d="M 6.73 19.81 Q 6.44 19.51 6.73 19.22" fill="none" stroke="#111" stroke-width="1.6" stroke-linecap="round"/><path d="M 6.73 21.28 Q 6.44 20.98 6.73 20.69" fill="none" stroke="#111" stroke-width="1.6" stroke-linecap="round"/><path d="M 6.73 22.75 Q 6.44 22.45 6.73 22.16" fill="none" stroke="#111" stroke-width="1.6" stroke-linecap="round"/><path d="M 6.73 24.21 Q 6.44 23.92 6.73 23.63" fill="none" stroke="#111" stroke-width="1.6" stroke-linecap="round"/><path d="M 6.73 25.68 Q 6.44 25.39 6.73 25.1" fill="none" stroke="#111" stroke-width="1.6" stroke-linecap="round"/><path d="M 6.73 27.15 Q 6.44 26.86 6.73 26.56" fill="none" stroke="#111" stroke-width="1.6" stroke-linecap="round"/><path d="M 6.73 28.62 Q 6.44 28.33 6.73 28.03" fill="none" stroke="#111" stroke-width="1.6" stroke-linecap="round"/><path d="M 6.73 30.09 Q 6.44 29.8 6.73 29.5" fill="none" stroke="#111" stroke-width="1.6" stroke-linecap="round"/><path d="M 6.73 31.56 Q 6.44 31.27 6.73 30.97" fill="none" stroke="#111" stroke-width="1.6" stroke-linecap="round"/><path d="M 6.73 33.03 Q 6.44 32.73 6.73 32.44" fill="none" stroke="#111" stroke-width="1.6" stroke-linecap="round"/><path d="M 6.73 34.5 Q 6.44 34.2 6.73 33.91" fill="none" stroke="#111" stroke-width="1.6" stroke-linecap="round"/><path d="M 6.73 35.97 Q 6.44 35.67 6.73 35.38" fill="none" stroke="#111" stroke-width="1.6" stroke-linecap="round"/><path d="M 6.73 37.44 Q 6.44 37.14 6.73 36.85" fill="none" stroke="#111" stroke-width="1.6" stroke-linecap="round"/><path d="M 6.73 38.9 Q 6.44 38.61 6.73 38.32" fill="none" stroke="#111" stroke-width="1.6" stroke-linecap="round"/><path d="M 6.73 40.37 Q 6.44 40.08 6.73 39.79" fill="none" stroke="#111" stroke-width="1.6" stroke-linecap="round"/><path d="M 6.73 41.84 Q 6.44 41.55 6.73 41.25" fill="none" stroke="#111" stroke-width="1.6" stroke-linecap="round"/><path d="M 6.73 43.31 Q 6.44 43.02 6.73 42.72" fill="none" stroke="#111" stroke-width="1.6" stroke-linecap="round"/><path d="M 6.73 44.78 Q 6.44 44.49 6.73 44.19" fill="none" stroke="#111" stroke-width="1.6" stroke-linecap="round"/><path d="M 6.73 46.25 Q 6.44 45.95 6.73 45.66" fill="none" stroke="#111" stroke-width="1.6" stroke-linecap="round"/><path d="M 6.73 47.72 Q 6.44 47.42 6.73 47.13" fill="none" stroke="#111" stroke-width="1.6" stroke-linecap="round"/><path d="M 6.73 49.19 Q 6.44 48.89 6.73 48.6" fill="none" stroke="#111" stroke-width="1.6" stroke-linecap="round"/><path d="M 6.73 50.66 Q 6.44 50.36 6.73 50.07" fill="none" stroke="#111" stroke-width="1.6" stroke-linecap="round"/><path d="M 6.73 52.12 Q 6.44 51.83 6.73 51.54" fill="none" stroke="#111" stroke-width="1.6" stroke-linecap="round"/><path d="M 6.73 53.59 Q 6.44 53.3 6.73 53.01" fill="none" stroke="#111" stroke-width="1.6" stroke-linecap="round"/><path d="M 6.73 55.06 Q 6.44 54.77 6.73 54.47" fill="none" stroke="#111" stroke-width="1.6" stroke-linecap="round"/><path d="M 6.73 56.53 Q 6.44 56.24 6.73 55.94" fill="none" stroke="#111" stroke-width="1.6" stroke-linecap="round"/><path d="M 6.73 58 Q 6.44 57.71 6.73 57.41" fill="none" stroke="#111" stroke-width="1.6" stroke-linecap="round"/></svg>