<svg xmlns="http://www.w3.org/2000/svg" width="96" height="64" viewBox="0 0 96 64"><path d="M 9.25 22.25 Q 8.26 24.49 6 25.43" fill="none" stroke="#111" stroke-width="1.6" stroke-linecap="round"/><path d="M 9.25 28.75 Q 8.26 30.99 6 31.94" fill="none" stroke="#111" stroke-width="1.6" stroke-linecap="round"/><path d="M 9.25 35.25 Q 8.26 37.49 6 38.43" fill="none" stroke="#111" stroke-width="1.6" stroke-linecap="round"/><path d="M 9.25 41.75 Q 8.26 43.99 6 44.94" fill="none" stroke="#111" stroke-width="1.6" stroke-linecap="round"/><path d="M 6 19 Q 8.3 19.95 9.25 22.25" fill="none" stroke="#111" stroke-width="1.6" stroke-linecap="round"/><path d="M 6 25.5 Q 8.3 26.45 9.25 28.75" fill="none" stroke="#111" stroke-width="1.6" stroke-linecap="round"/><path d="M 6 32 Q 8.3 32.95 9.25 35.25" fill="none" stroke="#111" stroke-width="1.6" stroke-linecap="round"/><path d="M 6 38.5 Q 8.3 39.45 9.25 41.75" fill="none" stroke="#111" stroke-width="1.6" stroke-linecap="round"/><polyline points="11.2,58 11.2,6" fill="none" stroke="#111" stroke-width="1.6" stroke-linecap="round" stroke-linejoin="round"/><polyline points="13.8,6 13.8,58" fill="none" stroke="#111" stroke-width="1.6" stroke-linecap="round" stroke-linejoin="round"/><path d="M 15.81 9.25 Q 16.71 6.94 19 6" fill="none" stroke="#111" stroke-width="1.6" stroke-linecap="round"/><path d="M 15.81 15.75 Q 16.71 13.44 19 12.5" fill="none" stroke="#111" stroke-width="1.6" stroke-linecap="round"/><path d="M 15.81 22.25 Q 16.71 19.94 19 19" fill="none" stroke="#111" stroke-width="1.6" stroke-linecap="round"/><path d="M 15.81 41.75 Q 16.71 39.44 19 38.5" fill="none" stroke="#111" stroke-width="1.6" stroke-linecap="round"/><path d="M 15.81 48.25 Q 16.71 45.94 19 45" fill="none" stroke="#111" stroke-width="1.6" stroke-linecap="round"/><path d="M 15.81 54.75 Q 16.71 52.44 19 51.5" fill="none" stroke="#111" stroke-width="1.6" stroke-linecap="round"/><path d="M 19 12.43 Q 16.75 11.5 15.81 9.25" fill="none" stroke="#111" stroke-width="1.6" stroke-linecap="round"/><path d="M 19 18.93 Q 16.75 18 15.81 15.75" fill="none" stroke="#111" stroke-width="1.6" stroke-linecap="round"/><path d="M 19 25.43 Q 16.75 24.5 15.81 22.25" fill="none" stroke="#111" stroke-width="1.6" stroke-linecap="round"/><path d="M 19 44.94 Q 16.75 44 15.81 41.75" fill="none" stroke="#111" stroke-width="1.6" stroke-linecap="round"/><path d="M 19 51.43 Q 16.75 50.5 15.81 48.25" fill="none" stroke="#111" stroke-width="1.6" stroke-linecap="round"/><path d="M 19 57.94 Q 16.75 57 15.81 54.75" fill="none" stroke="#111" stroke-width="1.6" stroke-linecap="round"/></svg>