<svg xmlns="http://www.w3.org/2000/svg" width="96" height="64" viewBox="0 0 96 64"><circle cx="7.35" cy="7.35" r="1.35" fill="none" stroke="#111" stroke-width="1.6"/><polyline points="7.35,17.48 36.39,17.48" fill="none" stroke="#111" stroke-width="1.6" stroke-linecap="round" stroke-linejoin="round"/><circle cx="7.35" cy="20.86" r="1.35" fill="none" stroke="#111" stroke-width="1.6"/><polyline points="7.35,30.99 36.39,30.99" fill="none" stroke="#111" stroke-width="1.6" stroke-linecap="round" stroke-linejoin="round"/><circle cx="7.35" cy="34.36" r="1.35" fill="none" stroke="#111" stroke-width="1.6"/><polyline points="7.35,44.49 36.39,44.49" fill="none" stroke="#111" stroke-width="1.6" stroke-linecap="round" stroke-linejoin="round"/><circle cx="7.35" cy="47.87" r="1.35" fill="none" stroke="#111" stroke-width="1.6"/><polyline points="7.35,58 36.39,58" fill="none" stroke="#111" stroke-width="1.6" stroke-linecap="round" stroke-linejoin="round"/><path d="M 7.35 14.1 Q 10.73 10.74 14.1 14.1" fill="none" stroke="#111" stroke-width="1.6" stroke-linecap="round"/><path d="M 7.35 27.61 Q 10.73 24.25 14.1 27.61" fill="none" stroke="#111" stroke-width="1.6" stroke-linecap="round"/><path d="M 7.35 41.12 Q 10.73 37.75 14.1 41.12" fill="none" stroke="#111" stroke-width="1.6" stroke-linecap="round"/><path d="M 7.35 54.62 Q 10.73 51.26 14.1 54.62" fill="none" stroke="#111" stroke-width="1.6" stroke-linecap="round"/><polyline points="16.13,26.94 7.35,30.99" fill="none" stroke="#111" stroke-width="1.6" stroke-linecap="round" stroke-linejoin="round"/><polyline points="16.13,40.44 7.35,44.49" fill="none" stroke="#111" stroke-width="1.6" stroke-linecap="round" stroke-linejoin="round"/><polyline points="16.13,53.95 7.35,58" fill="none" stroke="#111" stroke-width="1.6" stroke-linecap="round" stroke-linejoin="round"/><path d="M 14.1 14.1 Q 17.48 10.74 20.86 14.1" fill="none" stroke="#111" stroke-width="1.6" stroke-linecap="round"/><path d="M 14.1 27.61 Q 17.48 24.25 20.86 27.61" fill="none" stroke="#111" stroke-width="1.6" stroke-linecap="round"/><path d="M 14.1 41.12 Q 17.48 37.75 20.86 41.12" fill="none" stroke="#111" stroke-width="1.6" stroke-linecap="round"/><path d="M 14.1 54.62 Q 17.48 51.26 20.86 54.62" fill="none" stroke="#111" stroke-width="1.6" stroke-linecap="round"/><path d="M 20.86 14.1 Q 24.23 10.74 27.61 14.1" fill="none" stroke="#111" stroke-width="1.6" stroke-linecap="round"/><path d="M 20.86 27.61 Q 24.23 24.25 27.61 27.61" fill="none" stroke="#111" stroke-width="1.6" stroke-linecap="round"/><path d="M 20.86 41.12 Q 24.23 37.75 27.61 41.12" fill="none" stroke="#111" stroke-width="1.6" stroke-linecap="round"/><path d="M 20.86 54.62 Q 24.23 51.26 27.61 54.62" fill="none" stroke="#111" stroke-width="1.6" stroke-linecap="round"/><polyline points="24.91,22.88 19.51,25.58" fill="none" stroke="#111" stroke-width="1.6" stroke-linecap="round" stroke-linejoin="round"/><polyline points="24.91,36.39 19.51,39.09" fill="none" stroke="#111" stroke-width="1.6" stroke-linecap="round" stroke-linejoin="round"/><polyline points="24.91,49.9 19.51,52.6" fill="none" stroke="#111" stroke-width="1.6" stroke-linecap="round" stroke-linejoin="round"/><path d="M 27.61 14.1 Q 30.99 10.74 34.36 14.1" fill="none" stroke="#111" stroke-width="1.6" stroke-linecap="round"/><path d="M 27.61 27.61 Q 30.99 24.25 34.36 27.61" fill="none" stroke="#111" stroke-width="1.6" stroke-linecap="round"/><path d="M 27.61 41.12 Q 30.99 37.75 34.36 41.12" fill="none" stroke="#111" stroke-width="1.6" stroke-linecap="round"/><path d="M 27.61 54.62 Q 30.99 51.26 34.36 54.62" fill="none" stroke="#111" stroke-width="1.6" stroke-linecap="round"/><polyline points="36.39,17.48 27.61,21.53" fill="none" stroke="#111" stroke-width="1.6" stroke-linecap="round" stroke-linejoin="round"/><polyline points="36.39,30.99 27.61,35.04" fill="none" stroke="#111" stroke-width="1.6" stroke-linecap="round" stroke-linejoin="round"/><polyline points="36.39,44.49 27.61,48.55" fill="none" stroke="#111" stroke-width="1.6" stroke-linecap="round" stroke-linejoin="round"/></svg>