<svg xmlns="http://www.w3.org/2000/svg" width="96" height="64" viewBox="0 0 96 64"><polyline points="16.83,13.58 16.83,12.28 16.83,12.93 18.46,12.93 18.46,12.28 18.46,13.58" fill="none" stroke="#111" stroke-width="1.6" stroke-linecap="round" stroke-linejoin="round"/><polyline points="19.11,12.28 20.52,12.28 20.73,12.5 20.73,13.37 20.52,13.58 19.11,13.58 19.11,12.93" fill="none" stroke="#111" stroke-width="1.6" stroke-linecap="round" stroke-linejoin="round"/><polyline points="23.77,13.58 23.77,12.28" fill="none" stroke="#111" stroke-width="1.6" stroke-linecap="round" stroke-linejoin="round"/><rect x="6" y="6" width="21.67" height="52" fill="none" stroke="#111" stroke-width="1.6"/><polyline points="16.83,19 16.83,45 20.08,45 21.17,42.83 23.33,41.75 23.33,22.25 21.17,21.17 20.08,19 16.83,19" fill="none" stroke="#111" stroke-width="1.6" stroke-linecap="round" stroke-linejoin="round"/><polyline points="19,22.79 20.08,22.79 21.17,24.96 21.17,39.04 20.08,41.21 19,41.21 19,24.42" fill="none" stroke="#111" stroke-width="1.6" stroke-linecap="round" stroke-linejoin="round"/><polyline points="21.38,13.58 21.38,12.28 22.25,12.28 22.25,13.58 22.25,12.28 22.9,12.28 23.12,12.5 23.12,13.58" fill="none" stroke="#111" stroke-width="1.6" stroke-linecap="round" stroke-linejoin="round"/></svg>