<svg xmlns="http://www.w3.org/2000/svg" width="96" height="64" viewBox="0 0 96 64"><polyline points="6,32 8.6,32" fill="none" stroke="#111" stroke-width="1.6" stroke-linecap="round" stroke-linejoin="round"/><polyline points="6,45 9.25,45" fill="none" stroke="#111" stroke-width="1.6" stroke-linecap="round" stroke-linejoin="round"/><polyline points="8.6,45 15.1,45" fill="none" stroke="#111" stroke-width="1.6" stroke-linecap="round" stroke-linejoin="round"/><circle cx="13.8" cy="32" r="5.2" fill="none" stroke="#111" stroke-width="1.6"/><polyline points="19,58 19,54.75" fill="none" stroke="#111" stroke-width="1.6" stroke-linecap="round" stroke-linejoin="round"/><circle cx="20.3" cy="45" r="5.2" fill="none" stroke="#111" stroke-width="1.6"/><circle cx="32" cy="32" r="26" fill="none" stroke="#111" stroke-width="1.6"/><circle cx="32" cy="50.2" r="5.2" fill="none" stroke="#111" stroke-width="1.6"/><polyline points="32,58 32,55.4" fill="none" stroke="#111" stroke-width="1.6" stroke-linecap="round" stroke-linejoin="round"/><circle cx="43.7" cy="45" r="5.2" fill="none" stroke="#111" stroke-width="1.6"/><circle cx="50.2" cy="32" r="5.2" fill="none" stroke="#111" stroke-width="1.6"/><polyline points="55.4,45 48.9,45" fill="none" stroke="#111" stroke-width="1.6" stroke-linecap="round" stroke-linejoin="round"/><polyline points="58,32 55.4,32" fill="none" stroke="#111" stroke-width="1.6" stroke-linecap="round" stroke-linejoin="round"/><polyline points="58,45 54.75,45" fill="none" stroke="#111" stroke-width="1.6" stroke-linecap="round" stroke-linejoin="round"/><polyline points="6,32 17.7,32" fill="none" stroke="#111" stroke-width="1.6" stroke-linecap="round" stroke-linejoin="round"/><rect x="12.5" y="9.25" width="39" height="48.75" fill="none" stroke="#111" stroke-width="1.6"/><circle cx="20.95" cy="32" r="2.6" fill="none" stroke="#111" stroke-width="1.6"/><polyline points="23.55,31.35 45,22.25" fill="none" stroke="#111" stroke-width="1.6" stroke-linecap="round" stroke-linejoin="round"/><circle cx="43.05" cy="19" r="2.6" fill="none" stroke="#111" stroke-width="1.6"/><circle cx="43.05" cy="45" r="2.6" fill="none" stroke="#111" stroke-width="1.6"/><polyline points="58,19 46.3,19" fill="none" stroke="#111" stroke-width="1.6" stroke-linecap="round" stroke-linejoin="round"/><polyline points="58,45 46.3,45" fill="none" stroke="#111" stroke-width="1.6" stroke-linecap="round" stroke-linejoin="round"/></svg>