<svg xmlns="http://www.w3.org/2000/svg" width="96" height="64" viewBox="0 0 96 64"><rect x="6" y="6" width="1.02" height="52" fill="none" stroke="#111" stroke-width="1.6"/><rect x="6" y="6.46" width="0.51" height="0.1" fill="none" stroke="#111" stroke-width="1.6"/><rect x="6" y="7.48" width="0.51" height="0.1" fill="none" stroke="#111" stroke-width="1.6"/><rect x="6" y="8.5" width="0.51" height="0.1" fill="none" stroke="#111" stroke-width="1.6"/><rect x="6" y="9.52" width="0.51" height="0.1" fill="none" stroke="#111" stroke-width="1.6"/><rect x="6" y="10.54" width="0.51" height="0.1" fill="none" stroke="#111" stroke-width="1.6"/><rect x="6" y="11.56" width="0.51" height="0.1" fill="none" stroke="#111" stroke-width="1.6"/><rect x="6" y="12.58" width="0.51" height="0.1" fill="none" stroke="#111" stroke-width="1.6"/><rect x="6" y="13.6" width="0.51" height="0.1" fill="none" stroke="#111" stroke-width="1.6"/><rect x="6" y="14.62" width="0.51" height="0.1" fill="none" stroke="#111" stroke-width="1.6"/><rect x="6" y="15.64" width="0.51" height="0.1" fill="none" stroke="#111" stroke-width="1.6"/><rect x="6" y="16.65" width="0.51" height="0.11" fill="none" stroke="#111" stroke-width="1.6"/><rect x="6" y="17.67" width="0.51" height="0.11" fill="none" stroke="#111" stroke-width="1.6"/><rect x="6" y="18.69" width="0.51" height="0.11" fill="none" stroke="#111" stroke-width="1.6"/><rect x="6" y="19.71" width="0.51" height="0.11" fill="none" stroke="#111" stroke-width="1.6"/><rect x="6" y="20.73" width="0.51" height="0.11" fill="none" stroke="#111" stroke-width="1.6"/><rect x="6" y="21.75" width="0.51" height="0.1" fill="none" stroke="#111" stroke-width="1.6"/><rect x="6" y="22.77" width="0.51" height="0.1" fill="none" stroke="#111" stroke-width="1.6"/><rect x="6" y="23.79" width="0.51" height="0.1" fill="none" stroke="#111" stroke-width="1.6"/><rect x="6" y="24.81" width="0.51" height="0.1" fill="none" stroke="#111" stroke-width="1.6"/><rect x="6" y="25.83" width="0.51" height="0.1" fill="none" stroke="#111" stroke-width="1.6"/><rect x="6" y="26.85" width="0.51" height="0.1" fill="none" stroke="#111" stroke-width="1.6"/><rect x="6" y="27.87" width="0.51" height="0.1" fill="none" stroke="#111" stroke-width="1.6"/><rect x="6" y="28.89" width="0.51" height="0.1" fill="none" stroke="#111" stroke-width="1.6"/><rect x="6" y="29.91" width="0.51" height="0.1" fill="none" stroke="#111" stroke-width="1.6"/><rect x="6" y="30.93" width="0.51" height="0.1" fill="none" stroke="#111" stroke-width="1.6"/><rect x="6" y="31.95" width="0.51" height="0.1" fill="none" stroke="#111" stroke-width="1.6"/><rect x="6" y="32.97" width="0.51" height="0.1" fill="none" stroke="#111" stroke-width="1.6"/><rect x="6" y="33.99" width="0.51" height="0.1" fill="none" stroke="#111" stroke-width="1.6"/><rect x="6" y="35.01" width="0.51" height="0.1" fill="none" stroke="#111" stroke-width="1.6"/><rect x="6" y="36.03" width="0.51" height="0.1" fill="none" stroke="#111" stroke-width="1.6"/><rect x="6" y="37.05" width="0.51" height="0.1" fill="none" stroke="#111" stroke-width="1.6"/><rect x="6" y="38.07" width="0.51" height="0.1" fill="none" stroke="#111" stroke-width="1.6"/><rect x="6" y="39.09" width="0.51" height="0.1" fill="none" stroke="#111" stroke-width="1.6"/><rect x="6" y="40.11" width="0.51" height="0.1" fill="none" stroke="#111" stroke-width="1.6"/><rect x="6" y="41.13" width="0.51" height="0.1" fill="none" stroke="#111" stroke-width="1.6"/><rect x="6" y="42.15" width="0.51" height="0.1" fill="none" stroke="#111" stroke-width="1.6"/><rect x="6" y="43.16" width="0.51" height="0.11" fill="none" stroke="#111" stroke-width="1.6"/><rect x="6" y="44.18" width="0.51" height="0.11" fill="none" stroke="#111" stroke-width="1.6"/><rect x="6" y="45.2" width="0.51" height="0.11" fill="none" stroke="#111" stroke-width="1.6"/><rect x="6" y="46.22" width="0.51" height="0.11" fill="none" stroke="#111" stroke-width="1.6"/><rect x="6" y="47.24" width="0.51" height="0.11" fill="none" stroke="#111" stroke-width="1.6"/><rect x="6" y="48.26" width="0.51" height="0.1" fill="none" stroke="#111" stroke-width="1.6"/><rect x="6" y="49.28" width="0.51" height="0.1" fill="none" stroke="#111" stroke-width="1.6"/><rect x="6" y="50.3" width="0.51" height="0.1" fill="none" stroke="#111" stroke-width="1.6"/><rect x="6" y="51.32" width="0.51" height="0.1" fill="none" stroke="#111" stroke-width="1.6"/><rect x="6" y="52.34" width="0.51" height="0.1" fill="none" stroke="#111" stroke-width="1.6"/><rect x="6" y="53.36" width="0.51" height="0.1" fill="none" stroke="#111" stroke-width="1.6"/><rect x="6" y="54.38" width="0.51" height="0.1" fill="none" stroke="#111" stroke-width="1.6"/><rect x="6" y="55.4" width="0.51" height="0.1" fill="none" stroke="#111" stroke-width="1.6"/><rect x="6" y="56.42" width="0.51" height="0.1" fill="none" stroke="#111" stroke-width="1.6"/><rect x="6" y="57.44" width="0.51" height="0.1" fill="none" stroke="#111" stroke-width="1.6"/></svg>