<svg xmlns="http://www.w3.org/2000/svg" width="96" height="64" viewBox="0 0 96 64"><polyline points="14.65,21.13 15.12,21.13 15.12,19.24" fill="none" stroke="#111" stroke-width="1.6" stroke-linecap="round" stroke-linejoin="round"/><polyline points="14.75,19.24 15.45,19.24" fill="none" stroke="#111" stroke-width="1.6" stroke-linecap="round" stroke-linejoin="round"/><polyline points="14.75,19.24 14.75,21.13 14.51,21.13" fill="none" stroke="#111" stroke-width="1.6" stroke-linecap="round" stroke-linejoin="round"/><polyline points="17.11,20.18 14.27,18.29 14.27,22.07 17.11,20.18" fill="none" stroke="#111" stroke-width="1.6" stroke-linecap="round" stroke-linejoin="round"/><polyline points="18.05,20.18 16.87,20.18" fill="none" stroke="#111" stroke-width="1.6" stroke-linecap="round" stroke-linejoin="round"/><polyline points="18.05,24.91 16.87,24.91" fill="none" stroke="#111" stroke-width="1.6" stroke-linecap="round" stroke-linejoin="round"/><polyline points="18.05,29.64 16.87,29.64" fill="none" stroke="#111" stroke-width="1.6" stroke-linecap="round" stroke-linejoin="round"/><polyline points="18.05,34.36 16.87,34.36" fill="none" stroke="#111" stroke-width="1.6" stroke-linecap="round" stroke-linejoin="round"/><polyline points="18.05,39.09 16.87,39.09" fill="none" stroke="#111" stroke-width="1.6" stroke-linecap="round" stroke-linejoin="round"/><polyline points="18.05,43.82 16.87,43.82" fill="none" stroke="#111" stroke-width="1.6" stroke-linecap="round" stroke-linejoin="round"/><polyline points="26.09,20.18 27.27,20.18" fill="none" stroke="#111" stroke-width="1.6" stroke-linecap="round" stroke-linejoin="round"/><polyline points="26.09,24.91 27.27,24.91" fill="none" stroke="#111" stroke-width="1.6" stroke-linecap="round" stroke-linejoin="round"/><polyline points="26.09,29.64 27.27,29.64" fill="none" stroke="#111" stroke-width="1.6" stroke-linecap="round" stroke-linejoin="round"/><polyline points="26.09,34.36 27.27,34.36" fill="none" stroke="#111" stroke-width="1.6" stroke-linecap="round" stroke-linejoin="round"/><polyline points="26.09,39.09 27.27,39.09" fill="none" stroke="#111" stroke-width="1.6" stroke-linecap="round" stroke-linejoin="round"/><polyline points="26.09,43.82 27.27,43.82" fill="none" stroke="#111" stroke-width="1.6" stroke-linecap="round" stroke-linejoin="round"/><rect x="27.27" y="18.29" width="4.73" height="3.78" fill="none" stroke="#111" stroke-width="1.6"/><polyline points="27.27,18.76 28.69,18.76" fill="none" stroke="#111" stroke-width="1.6" stroke-linecap="round" stroke-linejoin="round"/><polyline points="27.27,21.6 28.69,21.6" fill="none" stroke="#111" stroke-width="1.6" stroke-linecap="round" stroke-linejoin="round"/><rect x="27.27" y="23.02" width="4.73" height="3.78" fill="none" stroke="#111" stroke-width="1.6"/><polyline points="27.27,23.49 28.69,23.49" fill="none" stroke="#111" stroke-width="1.6" stroke-linecap="round" stroke-linejoin="round"/><polyline points="27.27,26.33 28.69,26.33" fill="none" stroke="#111" stroke-width="1.6" stroke-linecap="round" stroke-linejoin="round"/><rect x="27.27" y="27.75" width="4.73" height="3.78" fill="none" stroke="#111" stroke-width="1.6"/><polyline points="27.27,28.22 28.69,28.22" fill="none" stroke="#111" stroke-width="1.6" stroke-linecap="round" stroke-linejoin="round"/><polyline points="27.27,31.05 28.69,31.05" fill="none" stroke="#111" stroke-width="1.6" stroke-linecap="round" stroke-linejoin="round"/><rect x="27.27" y="32.47" width="4.73" height="3.78" fill="none" stroke="#111" stroke-width="1.6"/><polyline points="27.27,32.95 28.69,32.95" fill="none" stroke="#111" stroke-width="1.6" stroke-linecap="round" stroke-linejoin="round"/><polyline points="27.27,35.78 28.69,35.78" fill="none" stroke="#111" stroke-width="1.6" stroke-linecap="round" stroke-linejoin="round"/><rect x="27.27" y="37.2" width="4.73" height="3.78" fill="none" stroke="#111" stroke-width="1.6"/><polyline points="27.27,37.67 28.69,37.67" fill="none" stroke="#111" stroke-width="1.6" stroke-linecap="round" stroke-linejoin="round"/><polyline points="27.27,40.51 28.69,40.51" fill="none" stroke="#111" stroke-width="1.6" stroke-linecap="round" stroke-linejoin="round"/><rect x="27.27" y="41.93" width="4.73" height="3.78" fill="none" stroke="#111" stroke-width="1.6"/><polyline points="27.27,42.4 28.69,42.4" fill="none" stroke="#111" stroke-width="1.6" stroke-linecap="round" stroke-linejoin="round"/><polyline points="27.27,45.24 28.69,45.24" fill="none" stroke="#111" stroke-width="1.6" stroke-linecap="round" stroke-linejoin="round"/><path d="M 28.69 18.76 Q 29.16 19.24 28.69 19.71" fill="none" stroke="#111" stroke-width="1.6" stroke-linecap="round"/><path d="M 28.69 19.71 Q 29.16 20.18 28.69 20.65" fill="none" stroke="#111" stroke-width="1.6" stroke-linecap="round"/><path d="M 28.69 20.65 Q 29.16 21.13 28.69 21.6" fill="none" stroke="#111" stroke-width="1.6" stroke-linecap="round"/><path d="M 28.69 23.49 Q 29.16 23.96 28.69 24.44" fill="none" stroke="#111" stroke-width="1.6" stroke-linecap="round"/><path d="M 28.69 24.44 Q 29.16 24.91 28.69 25.38" fill="none" stroke="#111" stroke-width="1.6" stroke-linecap="round"/><path d="M 28.69 25.38 Q 29.16 25.85 28.69 26.33" fill="none" stroke="#111" stroke-width="1.6" stroke-linecap="round"/><path d="M 28.69 28.22 Q 29.16 28.69 28.69 29.16" fill="none" stroke="#111" stroke-width="1.6" stroke-linecap="round"/><path d="M 28.69 29.16 Q 29.16 29.64 28.69 30.11" fill="none" stroke="#111" stroke-width="1.6" stroke-linecap="round"/><path d="M 28.69 30.11 Q 29.16 30.58 28.69 31.05" fill="none" stroke="#111" stroke-width="1.6" stroke-linecap="round"/><path d="M 28.69 32.95 Q 29.16 33.42 28.69 33.89" fill="none" stroke="#111" stroke-width="1.6" stroke-linecap="round"/><path d="M 28.69 33.89 Q 29.16 34.36 28.69 34.84" fill="none" stroke="#111" stroke-width="1.6" stroke-linecap="round"/><path d="M 28.69 34.84 Q 29.16 35.31 28.69 35.78" fill="none" stroke="#111" stroke-width="1.6" stroke-linecap="round"/><path d="M 28.69 37.67 Q 29.16 38.15 28.69 38.62" fill="none" stroke="#111" stroke-width="1.6" stroke-linecap="round"/><path d="M 28.69 38.62 Q 29.16 39.09 28.69 39.56" fill="none" stroke="#111" stroke-width="1.6" stroke-linecap="round"/><path d="M 28.69 39.56 Q 29.16 40.04 28.69 40.51" fill="none" stroke="#111" stroke-width="1.6" stroke-linecap="round"/><path d="M 28.69 42.4 Q 29.16 42.87 28.69 43.35" fill="none" stroke="#111" stroke-width="1.6" stroke-linecap="round"/><path d="M 28.69 43.35 Q 29.16 43.82 28.69 44.29" fill="none" stroke="#111" stroke-width="1.6" stroke-linecap="round"/><path d="M 28.69 44.29 Q 29.16 44.76 28.69 45.24" fill="none" stroke="#111" stroke-width="1.6" stroke-linecap="round"/><polyline points="29.64,7.18 29.64,6" fill="none" stroke="#111" stroke-width="1.6" stroke-linecap="round" stroke-linejoin="round"/><polyline points="29.64,8.36 29.64,10.73" fill="none" stroke="#111" stroke-width="1.6" stroke-linecap="round" stroke-linejoin="round"/><polyline points="29.64,11.91 29.64,14.27" fill="none" stroke="#111" stroke-width="1.6" stroke-linecap="round" stroke-linejoin="round"/><polyline points="29.64,17.82 29.64,15.45" fill="none" stroke="#111" stroke-width="1.6" stroke-linecap="round" stroke-linejoin="round"/><polyline points="29.64,47.36 29.64,49.73" fill="none" stroke="#111" stroke-width="1.6" stroke-linecap="round" stroke-linejoin="round"/><polyline points="29.64,50.91 29.64,53.27" fill="none" stroke="#111" stroke-width="1.6" stroke-linecap="round" stroke-linejoin="round"/><polyline points="29.64,54.45 29.64,56.82" fill="none" stroke="#111" stroke-width="1.6" stroke-linecap="round" stroke-linejoin="round"/><path d="M 30.58 19.71 Q 30.11 19.24 30.58 18.76" fill="none" stroke="#111" stroke-width="1.6" stroke-linecap="round"/><path d="M 30.58 20.65 Q 30.11 20.18 30.58 19.71" fill="none" stroke="#111" stroke-width="1.6" stroke-linecap="round"/><path d="M 30.58 21.6 Q 30.11 21.13 30.58 20.65" fill="none" stroke="#111" stroke-width="1.6" stroke-linecap="round"/><path d="M 30.58 24.44 Q 30.11 23.96 30.58 23.49" fill="none" stroke="#111" stroke-width="1.6" stroke-linecap="round"/><path d="M 30.58 25.38 Q 30.11 24.91 30.58 24.44" fill="none" stroke="#111" stroke-width="1.6" stroke-linecap="round"/><path d="M 30.58 26.33 Q 30.11 25.85 30.58 25.38" fill="none" stroke="#111" stroke-width="1.6" stroke-linecap="round"/><path d="M 30.58 29.16 Q 30.11 28.69 30.58 28.22" fill="none" stroke="#111" stroke-width="1.6" stroke-linecap="round"/><path d="M 30.58 30.11 Q 30.11 29.64 30.58 29.16" fill="none" stroke="#111" stroke-width="1.6" stroke-linecap="round"/><path d="M 30.58 31.05 Q 30.11 30.58 30.58 30.11" fill="none" stroke="#111" stroke-width="1.6" stroke-linecap="round"/><path d="M 30.58 33.89 Q 30.11 33.42 30.58 32.95" fill="none" stroke="#111" stroke-width="1.6" stroke-linecap="round"/><path d="M 30.58 34.84 Q 30.11 34.36 30.58 33.89" fill="none" stroke="#111" stroke-width="1.6" stroke-linecap="round"/><path d="M 30.58 35.78 Q 30.11 35.31 30.58 34.84" fill="none" stroke="#111" stroke-width="1.6" stroke-linecap="round"/><path d="M 30.58 38.62 Q 30.11 38.15 30.58 37.67" fill="none" stroke="#111" stroke-width="1.6" stroke-linecap="round"/><path d="M 30.58 39.56 Q 30.11 39.09 30.58 38.62" fill="none" stroke="#111" stroke-width="1.6" stroke-linecap="round"/><path d="M 30.58 40.51 Q 30.11 40.04 30.58 39.56" fill="none" stroke="#111" stroke-width="1.6" stroke-linecap="round"/><path d="M 30.58 43.35 Q 30.11 42.87 30.58 42.4" fill="none" stroke="#111" stroke-width="1.6" stroke-linecap="round"/><path d="M 30.58 44.29 Q 30.11 43.82 30.58 43.35" fill="none" stroke="#111" stroke-width="1.6" stroke-linecap="round"/><path d="M 30.58 45.24 Q 30.11 44.76 30.58 44.29" fill="none" stroke="#111" stroke-width="1.6" stroke-linecap="round"/><polyline points="32,18.76 30.58,18.76" fill="none" stroke="#111" stroke-width="1.6" stroke-linecap="round" stroke-linejoin="round"/><polyline points="32,21.6 30.58,21.6" fill="none" stroke="#111" stroke-width="1.6" stroke-linecap="round" stroke-linejoin="round"/><polyline points="32,23.49 30.58,23.49" fill="none" stroke="#111" stroke-width="1.6" stroke-linecap="round" stroke-linejoin="round"/><polyline points="32,26.33 30.58,26.33" fill="none" stroke="#111" stroke-width="1.6" stroke-linecap="round" stroke-linejoin="round"/><polyline points="32,28.22 30.58,28.22" fill="none" stroke="#111" stroke-width="1.6" stroke-linecap="round" stroke-linejoin="round"/><polyline points="32,31.05 30.58,31.05" fill="none" stroke="#111" stroke-width="1.6" stroke-linecap="round" stroke-linejoin="round"/><polyline points="32,32.95 30.58,32.95" fill="none" stroke="#111" stroke-width="1.6" stroke-linecap="round" stroke-linejoin="round"/><polyline points="32,35.78 30.58,35.78" fill="none" stroke="#111" stroke-width="1.6" stroke-linecap="round" stroke-linejoin="round"/><polyline points="32,37.67 30.58,37.67" fill="none" stroke="#111" stroke-width="1.6" stroke-linecap="round" stroke-linejoin="round"/><polyline points="32,40.51 30.58,40.51" fill="none" stroke="#111" stroke-width="1.6" stroke-linecap="round" stroke-linejoin="round"/><polyline points="32,42.4 30.58,42.4" fill="none" stroke="#111" stroke-width="1.6" stroke-linecap="round" stroke-linejoin="round"/><polyline points="32,45.24 30.58,45.24" fill="none" stroke="#111" stroke-width="1.6" stroke-linecap="round" stroke-linejoin="round"/><rect x="33.18" y="19" width="8.04" height="2.36" fill="none" stroke="#111" stroke-width="1.6"/><polyline points="33.18,20.18 32,20.18" fill="none" stroke="#111" stroke-width="1.6" stroke-linecap="round" stroke-linejoin="round"/><rect x="33.18" y="23.73" width="8.04" height="2.36" fill="none" stroke="#111" stroke-width="1.6"/><polyline points="33.18,24.91 32,24.91" fill="none" stroke="#111" stroke-width="1.6" stroke-linecap="round" stroke-linejoin="round"/><rect x="33.18" y="28.45" width="8.04" height="2.37" fill="none" stroke="#111" stroke-width="1.6"/><polyline points="33.18,29.64 32,29.64" fill="none" stroke="#111" stroke-width="1.6" stroke-linecap="round" stroke-linejoin="round"/><rect x="33.18" y="33.18" width="8.04" height="2.37" fill="none" stroke="#111" stroke-width="1.6"/><polyline points="33.18,34.36 32,34.36" fill="none" stroke="#111" stroke-width="1.6" stroke-linecap="round" stroke-linejoin="round"/><rect x="33.18" y="37.91" width="8.04" height="2.36" fill="none" stroke="#111" stroke-width="1.6"/><polyline points="33.18,39.09 32,39.09" fill="none" stroke="#111" stroke-width="1.6" stroke-linecap="round" stroke-linejoin="round"/><rect x="33.18" y="42.64" width="8.04" height="2.36" fill="none" stroke="#111" stroke-width="1.6"/><polyline points="33.18,43.82 32,43.82" fill="none" stroke="#111" stroke-width="1.6" stroke-linecap="round" stroke-linejoin="round"/><polyline points="41.22,20.18 42.4,20.18" fill="none" stroke="#111" stroke-width="1.6" stroke-linecap="round" stroke-linejoin="round"/><polyline points="41.22,24.91 42.4,24.91" fill="none" stroke="#111" stroke-width="1.6" stroke-linecap="round" stroke-linejoin="round"/><polyline points="41.22,29.64 42.4,29.64" fill="none" stroke="#111" stroke-width="1.6" stroke-linecap="round" stroke-linejoin="round"/><polyline points="41.22,34.36 42.4,34.36" fill="none" stroke="#111" stroke-width="1.6" stroke-linecap="round" stroke-linejoin="round"/><polyline points="41.22,39.09 42.4,39.09" fill="none" stroke="#111" stroke-width="1.6" stroke-linecap="round" stroke-linejoin="round"/><polyline points="41.22,43.82 42.4,43.82" fill="none" stroke="#111" stroke-width="1.6" stroke-linecap="round" stroke-linejoin="round"/><rect x="6" y="6" width="47.27" height="52" fill="none" stroke="#111" stroke-width="1.6"/><polyline points="14.65,25.85 15.12,25.85 15.12,23.96" fill="none" stroke="#111" stroke-width="1.6" stroke-linecap="round" stroke-linejoin="round"/><polyline points="14.65,30.58 15.12,30.58 15.12,28.69" fill="none" stroke="#111" stroke-width="1.6" stroke-linecap="round" stroke-linejoin="round"/><polyline points="14.65,35.31 15.12,35.31 15.12,33.42" fill="none" stroke="#111" stroke-width="1.6" stroke-linecap="round" stroke-linejoin="round"/><polyline points="14.65,40.04 15.12,40.04 15.12,38.15" fill="none" stroke="#111" stroke-width="1.6" stroke-linecap="round" stroke-linejoin="round"/><polyline points="14.65,44.76 15.12,44.76 15.12,42.87" fill="none" stroke="#111" stroke-width="1.6" stroke-linecap="round" stroke-linejoin="round"/><polyline points="14.75,23.96 15.45,23.96" fill="none" stroke="#111" stroke-width="1.6" stroke-linecap="round" stroke-linejoin="round"/><polyline points="14.75,23.96 14.75,25.85 14.51,25.85" fill="none" stroke="#111" stroke-width="1.6" stroke-linecap="round" stroke-linejoin="round"/><polyline points="14.75,28.69 15.45,28.69" fill="none" stroke="#111" stroke-width="1.6" stroke-linecap="round" stroke-linejoin="round"/><polyline points="14.75,28.69 14.75,30.58 14.51,30.58" fill="none" stroke="#111" stroke-width="1.6" stroke-linecap="round" stroke-linejoin="round"/><polyline points="14.75,33.42 15.45,33.42" fill="none" stroke="#111" stroke-width="1.6" stroke-linecap="round" stroke-linejoin="round"/><polyline points="14.75,33.42 14.75,35.31 14.51,35.31" fill="none" stroke="#111" stroke-width="1.6" stroke-linecap="round" stroke-linejoin="round"/><polyline points="14.75,38.15 15.45,38.15" fill="none" stroke="#111" stroke-width="1.6" stroke-linecap="round" stroke-linejoin="round"/><polyline points="14.75,38.15 14.75,40.04 14.51,40.04" fill="none" stroke="#111" stroke-width="1.6" stroke-linecap="round" stroke-linejoin="round"/><polyline points="14.75,42.87 15.45,42.87" fill="none" stroke="#111" stroke-width="1.6" stroke-linecap="round" stroke-linejoin="round"/><polyline points="14.75,42.87 14.75,44.76 14.51,44.76" fill="none" stroke="#111" stroke-width="1.6" stroke-linecap="round" stroke-linejoin="round"/><polyline points="17.11,24.91 14.27,23.02 14.27,26.8 17.11,24.91" fill="none" stroke="#111" stroke-width="1.6" stroke-linecap="round" stroke-linejoin="round"/><polyline points="17.11,29.64 14.27,27.75 14.27,31.53 17.11,29.64" fill="none" stroke="#111" stroke-width="1.6" stroke-linecap="round" stroke-linejoin="round"/><polyline points="17.11,34.36 14.27,32.47 14.27,36.25 17.11,34.36" fill="none" stroke="#111" stroke-width="1.6" stroke-linecap="round" stroke-linejoin="round"/><polyline points="17.11,39.09 14.27,37.2 14.27,40.98 17.11,39.09" fill="none" stroke="#111" stroke-width="1.6" stroke-linecap="round" stroke-linejoin="round"/><polyline points="17.11,43.82 14.27,41.93 14.27,45.71 17.11,43.82" fill="none" stroke="#111" stroke-width="1.6" stroke-linecap="round" stroke-linejoin="round"/><rect x="18.05" y="19" width="8.04" height="2.36" fill="none" stroke="#111" stroke-width="1.6"/><rect x="18.05" y="23.73" width="8.04" height="2.36" fill="none" stroke="#111" stroke-width="1.6"/><rect x="18.05" y="28.45" width="8.04" height="2.37" fill="none" stroke="#111" stroke-width="1.6"/><rect x="18.05" y="33.18" width="8.04" height="2.37" fill="none" stroke="#111" stroke-width="1.6"/><rect x="18.05" y="37.91" width="8.04" height="2.36" fill="none" stroke="#111" stroke-width="1.6"/><rect x="18.05" y="42.64" width="8.04" height="2.36" fill="none" stroke="#111" stroke-width="1.6"/><polyline points="42.78,21.13 43.25,21.13 43.25,19.24" fill="none" stroke="#111" stroke-width="1.6" stroke-linecap="round" stroke-linejoin="round"/><polyline points="42.78,25.85 43.25,25.85 43.25,23.96" fill="none" stroke="#111" stroke-width="1.6" stroke-linecap="round" stroke-linejoin="round"/><polyline points="42.78,30.58 43.25,30.58 43.25,28.69" fill="none" stroke="#111" stroke-width="1.6" stroke-linecap="round" stroke-linejoin="round"/><polyline points="42.78,35.31 43.25,35.31 43.25,33.42" fill="none" stroke="#111" stroke-width="1.6" stroke-linecap="round" stroke-linejoin="round"/><polyline points="42.78,40.04 43.25,40.04 43.25,38.15" fill="none" stroke="#111" stroke-width="1.6" stroke-linecap="round" stroke-linejoin="round"/><polyline points="42.78,44.76 43.25,44.76 43.25,42.87" fill="none" stroke="#111" stroke-width="1.6" stroke-linecap="round" stroke-linejoin="round"/><polyline points="42.87,19.24 43.58,19.24" fill="none" stroke="#111" stroke-width="1.6" stroke-linecap="round" stroke-linejoin="round"/><polyline points="42.87,19.24 42.87,21.13 42.64,21.13" fill="none" stroke="#111" stroke-width="1.6" stroke-linecap="round" stroke-linejoin="round"/><polyline points="42.87,23.96 43.58,23.96" fill="none" stroke="#111" stroke-width="1.6" stroke-linecap="round" stroke-linejoin="round"/><polyline points="42.87,23.96 42.87,25.85 42.64,25.85" fill="none" stroke="#111" stroke-width="1.6" stroke-linecap="round" stroke-linejoin="round"/><polyline points="42.87,28.69 43.58,28.69" fill="none" stroke="#111" stroke-width="1.6" stroke-linecap="round" stroke-linejoin="round"/><polyline points="42.87,28.69 42.87,30.58 42.64,30.58" fill="none" stroke="#111" stroke-width="1.6" stroke-linecap="round" stroke-linejoin="round"/><polyline points="42.87,33.42 43.58,33.42" fill="none" stroke="#111" stroke-width="1.6" stroke-linecap="round" stroke-linejoin="round"/><polyline points="42.87,33.42 42.87,35.31 42.64,35.31" fill="none" stroke="#111" stroke-width="1.6" stroke-linecap="round" stroke-linejoin="round"/><polyline points="42.87,38.15 43.58,38.15" fill="none" stroke="#111" stroke-width="1.6" stroke-linecap="round" stroke-linejoin="round"/><polyline points="42.87,38.15 42.87,40.04 42.64,40.04" fill="none" stroke="#111" stroke-width="1.6" stroke-linecap="round" stroke-linejoin="round"/><polyline points="42.87,42.87 43.58,42.87" fill="none" stroke="#111" stroke-width="1.6" stroke-linecap="round" stroke-linejoin="round"/><polyline points="42.87,42.87 42.87,44.76 42.64,44.76" fill="none" stroke="#111" stroke-width="1.6" stroke-linecap="round" stroke-linejoin="round"/><polyline points="45.24,20.18 42.4,18.29 42.4,22.07 45.24,20.18" fill="none" stroke="#111" stroke-width="1.6" stroke-linecap="round" stroke-linejoin="round"/><polyline points="45.24,24.91 42.4,23.02 42.4,26.8 45.24,24.91" fill="none" stroke="#111" stroke-width="1.6" stroke-linecap="round" stroke-linejoin="round"/><polyline points="45.24,29.64 42.4,27.75 42.4,31.53 45.24,29.64" fill="none" stroke="#111" stroke-width="1.6" stroke-linecap="round" stroke-linejoin="round"/><polyline points="45.24,34.36 42.4,32.47 42.4,36.25 45.24,34.36" fill="none" stroke="#111" stroke-width="1.6" stroke-linecap="round" stroke-linejoin="round"/><polyline points="45.24,39.09 42.4,37.2 42.4,40.98 45.24,39.09" fill="none" stroke="#111" stroke-width="1.6" stroke-linecap="round" stroke-linejoin="round"/><polyline points="45.24,43.82 42.4,41.93 42.4,45.71 45.24,43.82" fill="none" stroke="#111" stroke-width="1.6" stroke-linecap="round" stroke-linejoin="round"/></svg>