<svg xmlns="http://www.w3.org/2000/svg" width="96" height="64" viewBox="0 0 96 64"><polyline points="6,6.19 6.28,6.19" fill="none" stroke="#111" stroke-width="1.6" stroke-linecap="round" stroke-linejoin="round"/><polyline points="6,7.13 6.28,7.13" fill="none" stroke="#111" stroke-width="1.6" stroke-linecap="round" stroke-linejoin="round"/><polyline points="6,8.06 6.28,8.06" fill="none" stroke="#111" stroke-width="1.6" stroke-linecap="round" stroke-linejoin="round"/><polyline points="6,9 6.28,9" fill="none" stroke="#111" stroke-width="1.6" stroke-linecap="round" stroke-linejoin="round"/><polyline points="6,9.94 6.28,9.94" fill="none" stroke="#111" stroke-width="1.6" stroke-linecap="round" stroke-linejoin="round"/><polyline points="6,10.88 6.28,10.88" fill="none" stroke="#111" stroke-width="1.6" stroke-linecap="round" stroke-linejoin="round"/><polyline points="6,11.82 6.28,11.82" fill="none" stroke="#111" stroke-width="1.6" stroke-linecap="round" stroke-linejoin="round"/><polyline points="6,12.76 6.28,12.76" fill="none" stroke="#111" stroke-width="1.6" stroke-linecap="round" stroke-linejoin="round"/><polyline points="6,13.7 6.28,13.7" fill="none" stroke="#111" stroke-width="1.6" stroke-linecap="round" stroke-linejoin="round"/><polyline points="6,14.64 6.28,14.64" fill="none" stroke="#111" stroke-width="1.6" stroke-linecap="round" stroke-linejoin="round"/><polyline points="6,15.57 6.28,15.57" fill="none" stroke="#111" stroke-width="1.6" stroke-linecap="round" stroke-linejoin="round"/><polyline points="6,16.51 6.28,16.51" fill="none" stroke="#111" stroke-width="1.6" stroke-linecap="round" stroke-linejoin="round"/><polyline points="6,17.45 6.28,17.45" fill="none" stroke="#111" stroke-width="1.6" stroke-linecap="round" stroke-linejoin="round"/><polyline points="6,18.39 6.28,18.39" fill="none" stroke="#111" stroke-width="1.6" stroke-linecap="round" stroke-linejoin="round"/><polyline points="6,19.33 6.28,19.33" fill="none" stroke="#111" stroke-width="1.6" stroke-linecap="round" stroke-linejoin="round"/><polyline points="6,20.27 6.28,20.27" fill="none" stroke="#111" stroke-width="1.6" stroke-linecap="round" stroke-linejoin="round"/><polyline points="6,21.21 6.28,21.21" fill="none" stroke="#111" stroke-width="1.6" stroke-linecap="round" stroke-linejoin="round"/><polyline points="6,22.14 6.28,22.14" fill="none" stroke="#111" stroke-width="1.6" stroke-linecap="round" stroke-linejoin="round"/><polyline points="6,23.08 6.28,23.08" fill="none" stroke="#111" stroke-width="1.6" stroke-linecap="round" stroke-linejoin="round"/><polyline points="6,24.02 6.28,24.02" fill="none" stroke="#111" stroke-width="1.6" stroke-linecap="round" stroke-linejoin="round"/><polyline points="6,24.96 6.28,24.96" fill="none" stroke="#111" stroke-width="1.6" stroke-linecap="round" stroke-linejoin="round"/><polyline points="6,25.9 6.28,25.9" fill="none" stroke="#111" stroke-width="1.6" stroke-linecap="round" stroke-linejoin="round"/><polyline points="6,26.84 6.28,26.84" fill="none" stroke="#111" stroke-width="1.6" stroke-linecap="round" stroke-linejoin="round"/><polyline points="6,27.78 6.28,27.78" fill="none" stroke="#111" stroke-width="1.6" stroke-linecap="round" stroke-linejoin="round"/><polyline points="6,28.71 6.28,28.71" fill="none" stroke="#111" stroke-width="1.6" stroke-linecap="round" stroke-linejoin="round"/><polyline points="6,29.65 6.28,29.65" fill="none" stroke="#111" stroke-width="1.6" stroke-linecap="round" stroke-linejoin="round"/><polyline points="6,30.59 6.28,30.59" fill="none" stroke="#111" stroke-width="1.6" stroke-linecap="round" stroke-linejoin="round"/><polyline points="6,31.53 6.28,31.53" fill="none" stroke="#111" stroke-width="1.6" stroke-linecap="round" stroke-linejoin="round"/><polyline points="6,32.47 6.28,32.47" fill="none" stroke="#111" stroke-width="1.6" stroke-linecap="round" stroke-linejoin="round"/><polyline points="6,33.41 6.28,33.41" fill="none" stroke="#111" stroke-width="1.6" stroke-linecap="round" stroke-linejoin="round"/><polyline points="6,34.35 6.28,34.35" fill="none" stroke="#111" stroke-width="1.6" stroke-linecap="round" stroke-linejoin="round"/><polyline points="6,35.29 6.28,35.29" fill="none" stroke="#111" stroke-width="1.6" stroke-linecap="round" stroke-linejoin="round"/><polyline points="6,36.22 6.28,36.22" fill="none" stroke="#111" stroke-width="1.6" stroke-linecap="round" stroke-linejoin="round"/><polyline points="6,37.16 6.28,37.16" fill="none" stroke="#111" stroke-width="1.6" stroke-linecap="round" stroke-linejoin="round"/><polyline points="6,38.1 6.28,38.1" fill="none" stroke="#111" stroke-width="1.6" stroke-linecap="round" stroke-linejoin="round"/><polyline points="6,39.04 6.28,39.04" fill="none" stroke="#111" stroke-width="1.6" stroke-linecap="round" stroke-linejoin="round"/><polyline points="6,39.98 6.28,39.98" fill="none" stroke="#111" stroke-width="1.6" stroke-linecap="round" stroke-linejoin="round"/><polyline points="6,40.92 6.28,40.92" fill="none" stroke="#111" stroke-width="1.6" stroke-linecap="round" stroke-linejoin="round"/><polyline points="6,41.86 6.28,41.86" fill="none" stroke="#111" stroke-width="1.6" stroke-linecap="round" stroke-linejoin="round"/><polyline points="6,42.79 6.28,42.79" fill="none" stroke="#111" stroke-width="1.6" stroke-linecap="round" stroke-linejoin="round"/><polyline points="6,43.73 6.28,43.73" fill="none" stroke="#111" stroke-width="1.6" stroke-linecap="round" stroke-linejoin="round"/><polyline points="6,44.67 6.28,44.67" fill="none" stroke="#111" stroke-width="1.6" stroke-linecap="round" stroke-linejoin="round"/><polyline points="6,45.61 6.28,45.61" fill="none" stroke="#111" stroke-width="1.6" stroke-linecap="round" stroke-linejoin="round"/><polyline points="6,46.55 6.28,46.55" fill="none" stroke="#111" stroke-width="1.6" stroke-linecap="round" stroke-linejoin="round"/><polyline points="6,47.49 6.28,47.49" fill="none" stroke="#111" stroke-width="1.6" stroke-linecap="round" stroke-linejoin="round"/><polyline points="6,48.43 6.28,48.43" fill="none" stroke="#111" stroke-width="1.6" stroke-linecap="round" stroke-linejoin="round"/><polyline points="6,49.36 6.28,49.36" fill="none" stroke="#111" stroke-width="1.6" stroke-linecap="round" stroke-linejoin="round"/><polyline points="6,50.3 6.28,50.3" fill="none" stroke="#111" stroke-width="1.6" stroke-linecap="round" stroke-linejoin="round"/><polyline points="6,51.24 6.28,51.24" fill="none" stroke="#111" stroke-width="1.6" stroke-linecap="round" stroke-linejoin="round"/><polyline points="6,52.18 6.28,52.18" fill="none" stroke="#111" stroke-width="1.6" stroke-linecap="round" stroke-linejoin="round"/><polyline points="6,53.12 6.28,53.12" fill="none" stroke="#111" stroke-width="1.6" stroke-linecap="round" stroke-linejoin="round"/><polyline points="6,54.06 6.28,54.06" fill="none" stroke="#111" stroke-width="1.6" stroke-linecap="round" stroke-linejoin="round"/><polyline points="6,55 6.28,55" fill="none" stroke="#111" stroke-width="1.6" stroke-linecap="round" stroke-linejoin="round"/><polyline points="6,55.94 6.28,55.94" fill="none" stroke="#111" stroke-width="1.6" stroke-linecap="round" stroke-linejoin="round"/><polyline points="6,56.87 6.28,56.87" fill="none" stroke="#111" stroke-width="1.6" stroke-linecap="round" stroke-linejoin="round"/><polyline points="6,57.81 6.28,57.81" fill="none" stroke="#111" stroke-width="1.6" stroke-linecap="round" stroke-linejoin="round"/><path d="M 6.47 6.38 Q 6.28 6.19 6.47 6" fill="none" stroke="#111" stroke-width="1.6" stroke-linecap="round"/><path d="M 6.47 7.31 Q 6.28 7.13 6.47 6.94" fill="none" stroke="#111" stroke-width="1.6" stroke-linecap="round"/><path d="M 6.47 8.25 Q 6.28 8.06 6.47 7.88" fill="none" stroke="#111" stroke-width="1.6" stroke-linecap="round"/><path d="M 6.47 9.19 Q 6.28 9 6.47 8.82" fill="none" stroke="#111" stroke-width="1.6" stroke-linecap="round"/><path d="M 6.47 10.13 Q 6.28 9.94 6.47 9.75" fill="none" stroke="#111" stroke-width="1.6" stroke-linecap="round"/><path d="M 6.47 11.07 Q 6.28 10.88 6.47 10.69" fill="none" stroke="#111" stroke-width="1.6" stroke-linecap="round"/><path d="M 6.47 12.01 Q 6.28 11.82 6.47 11.63" fill="none" stroke="#111" stroke-width="1.6" stroke-linecap="round"/><path d="M 6.47 12.95 Q 6.28 12.76 6.47 12.57" fill="none" stroke="#111" stroke-width="1.6" stroke-linecap="round"/><path d="M 6.47 13.88 Q 6.28 13.7 6.47 13.51" fill="none" stroke="#111" stroke-width="1.6" stroke-linecap="round"/><path d="M 6.47 14.82 Q 6.28 14.64 6.47 14.45" fill="none" stroke="#111" stroke-width="1.6" stroke-linecap="round"/><path d="M 6.47 15.76 Q 6.28 15.57 6.47 15.39" fill="none" stroke="#111" stroke-width="1.6" stroke-linecap="round"/><path d="M 6.47 16.7 Q 6.28 16.51 6.47 16.32" fill="none" stroke="#111" stroke-width="1.6" stroke-linecap="round"/><path d="M 6.47 17.64 Q 6.28 17.45 6.47 17.26" fill="none" stroke="#111" stroke-width="1.6" stroke-linecap="round"/><path d="M 6.47 18.58 Q 6.28 18.39 6.47 18.2" fill="none" stroke="#111" stroke-width="1.6" stroke-linecap="round"/><path d="M 6.47 19.52 Q 6.28 19.33 6.47 19.14" fill="none" stroke="#111" stroke-width="1.6" stroke-linecap="round"/><path d="M 6.47 20.45 Q 6.28 20.27 6.47 20.08" fill="none" stroke="#111" stroke-width="1.6" stroke-linecap="round"/><path d="M 6.47 21.39 Q 6.28 21.21 6.47 21.02" fill="none" stroke="#111" stroke-width="1.6" stroke-linecap="round"/><path d="M 6.47 22.33 Q 6.28 22.14 6.47 21.96" fill="none" stroke="#111" stroke-width="1.6" stroke-linecap="round"/><path d="M 6.47 23.27 Q 6.28 23.08 6.47 22.9" fill="none" stroke="#111" stroke-width="1.6" stroke-linecap="round"/><path d="M 6.47 24.21 Q 6.28 24.02 6.47 23.83" fill="none" stroke="#111" stroke-width="1.6" stroke-linecap="round"/><path d="M 6.47 25.15 Q 6.28 24.96 6.47 24.77" fill="none" stroke="#111" stroke-width="1.6" stroke-linecap="round"/><path d="M 6.47 26.09 Q 6.28 25.9 6.47 25.71" fill="none" stroke="#111" stroke-width="1.6" stroke-linecap="round"/><path d="M 6.47 27.03 Q 6.28 26.84 6.47 26.65" fill="none" stroke="#111" stroke-width="1.6" stroke-linecap="round"/><path d="M 6.47 27.96 Q 6.28 27.78 6.47 27.59" fill="none" stroke="#111" stroke-width="1.6" stroke-linecap="round"/><path d="M 6.47 28.9 Q 6.28 28.71 6.47 28.53" fill="none" stroke="#111" stroke-width="1.6" stroke-linecap="round"/><path d="M 6.47 29.84 Q 6.28 29.65 6.47 29.47" fill="none" stroke="#111" stroke-width="1.6" stroke-linecap="round"/><path d="M 6.47 30.78 Q 6.28 30.59 6.47 30.4" fill="none" stroke="#111" stroke-width="1.6" stroke-linecap="round"/><path d="M 6.47 31.72 Q 6.28 31.53 6.47 31.34" fill="none" stroke="#111" stroke-width="1.6" stroke-linecap="round"/><path d="M 6.47 32.66 Q 6.28 32.47 6.47 32.28" fill="none" stroke="#111" stroke-width="1.6" stroke-linecap="round"/><path d="M 6.47 33.6 Q 6.28 33.41 6.47 33.22" fill="none" stroke="#111" stroke-width="1.6" stroke-linecap="round"/><path d="M 6.47 34.53 Q 6.28 34.35 6.47 34.16" fill="none" stroke="#111" stroke-width="1.6" stroke-linecap="round"/><path d="M 6.47 35.47 Q 6.28 35.29 6.47 35.1" fill="none" stroke="#111" stroke-width="1.6" stroke-linecap="round"/><path d="M 6.47 36.41 Q 6.28 36.22 6.47 36.04" fill="none" stroke="#111" stroke-width="1.6" stroke-linecap="round"/><path d="M 6.47 37.35 Q 6.28 37.16 6.47 36.97" fill="none" stroke="#111" stroke-width="1.6" stroke-linecap="round"/><path d="M 6.47 38.29 Q 6.28 38.1 6.47 37.91" fill="none" stroke="#111" stroke-width="1.6" stroke-linecap="round"/><path d="M 6.47 39.23 Q 6.28 39.04 6.47 38.85" fill="none" stroke="#111" stroke-width="1.6" stroke-linecap="round"/><path d="M 6.47 40.17 Q 6.28 39.98 6.47 39.79" fill="none" stroke="#111" stroke-width="1.6" stroke-linecap="round"/><path d="M 6.47 41.1 Q 6.28 40.92 6.47 40.73" fill="none" stroke="#111" stroke-width="1.6" stroke-linecap="round"/><path d="M 6.47 42.04 Q 6.28 41.86 6.47 41.67" fill="none" stroke="#111" stroke-width="1.6" stroke-linecap="round"/><path d="M 6.47 42.98 Q 6.28 42.79 6.47 42.61" fill="none" stroke="#111" stroke-width="1.6" stroke-linecap="round"/><path d="M 6.47 43.92 Q 6.28 43.73 6.47 43.55" fill="none" stroke="#111" stroke-width="1.6" stroke-linecap="round"/><path d="M 6.47 44.86 Q 6.28 44.67 6.47 44.48" fill="none" stroke="#111" stroke-width="1.6" stroke-linecap="round"/><path d="M 6.47 45.8 Q 6.28 45.61 6.47 45.42" fill="none" stroke="#111" stroke-width="1.6" stroke-linecap="round"/><path d="M 6.47 46.74 Q 6.28 46.55 6.47 46.36" fill="none" stroke="#111" stroke-width="1.6" stroke-linecap="round"/><path d="M 6.47 47.68 Q 6.28 47.49 6.47 47.3" fill="none" stroke="#111" stroke-width="1.6" stroke-linecap="round"/><path d="M 6.47 48.61 Q 6.28 48.43 6.47 48.24" fill="none" stroke="#111" stroke-width="1.6" stroke-linecap="round"/><path d="M 6.47 49.55 Q 6.28 49.36 6.47 49.18" fill="none" stroke="#111" stroke-width="1.6" stroke-linecap="round"/><path d="M 6.47 50.49 Q 6.28 50.3 6.47 50.12" fill="none" stroke="#111" stroke-width="1.6" stroke-linecap="round"/><path d="M 6.47 51.43 Q 6.28 51.24 6.47 51.05" fill="none" stroke="#111" stroke-width="1.6" stroke-linecap="round"/><path d="M 6.47 52.37 Q 6.28 52.18 6.47 51.99" fill="none" stroke="#111" stroke-width="1.6" stroke-linecap="round"/><path d="M 6.47 53.31 Q 6.28 53.12 6.47 52.93" fill="none" stroke="#111" stroke-width="1.6" stroke-linecap="round"/><path d="M 6.47 54.25 Q 6.28 54.06 6.47 53.87" fill="none" stroke="#111" stroke-width="1.6" stroke-linecap="round"/><path d="M 6.47 55.18 Q 6.28 55 6.47 54.81" fill="none" stroke="#111" stroke-width="1.6" stroke-linecap="round"/><path d="M 6.47 56.12 Q 6.28 55.94 6.47 55.75" fill="none" stroke="#111" stroke-width="1.6" stroke-linecap="round"/><path d="M 6.47 57.06 Q 6.28 56.87 6.47 56.69" fill="none" stroke="#111" stroke-width="1.6" stroke-linecap="round"/><path d="M 6.47 58 Q 6.28 57.81 6.47 57.62" fill="none" stroke="#111" stroke-width="1.6" stroke-linecap="round"/></svg>