<svg xmlns="http://www.w3.org/2000/svg" width="96" height="64" viewBox="0 0 96 64"><rect x="6" y="6" width="84" height="25.85" fill="none" stroke="#111" stroke-width="1.6"/><polyline points="12.46,6 12.46,18.92 15.69,18.92" fill="none" stroke="#111" stroke-width="1.6" stroke-linecap="round" stroke-linejoin="round"/><polyline points="13.75,13.11 13.75,12.46 17.31,12.46 17.63,12.46" fill="none" stroke="#111" stroke-width="1.6" stroke-linecap="round" stroke-linejoin="round"/><polyline points="13.75,13.11 13.75,12.46 17.31,12.46 17.63,12.46" fill="none" stroke="#111" stroke-width="1.6" stroke-linecap="round" stroke-linejoin="round"/><polyline points="13.75,22.8 13.75,22.15 17.31,22.15 17.63,22.15" fill="none" stroke="#111" stroke-width="1.6" stroke-linecap="round" stroke-linejoin="round"/><polyline points="13.75,22.8 13.75,22.15 17.31,22.15 17.63,22.15" fill="none" stroke="#111" stroke-width="1.6" stroke-linecap="round" stroke-linejoin="round"/><polyline points="15.69,9.23 15.69,12.46" fill="none" stroke="#111" stroke-width="1.6" stroke-linecap="round" stroke-linejoin="round"/><polyline points="15.69,9.23 15.69,12.46" fill="none" stroke="#111" stroke-width="1.6" stroke-linecap="round" stroke-linejoin="round"/><polyline points="15.69,12.46 15.69,22.15" fill="none" stroke="#111" stroke-width="1.6" stroke-linecap="round" stroke-linejoin="round"/><polyline points="15.69,12.46 17.31,15.69 14.08,15.69 15.69,12.46" fill="none" stroke="#111" stroke-width="1.6" stroke-linecap="round" stroke-linejoin="round"/><polyline points="15.69,12.46 17.31,15.69 14.08,15.69 15.69,12.46" fill="none" stroke="#111" stroke-width="1.6" stroke-linecap="round" stroke-linejoin="round"/><circle cx="15.69" cy="18.92" r="0.65" fill="none" stroke="#111" stroke-width="1.6"/><polyline points="15.69,18.92 15.69,22.15" fill="none" stroke="#111" stroke-width="1.6" stroke-linecap="round" stroke-linejoin="round"/><polyline points="15.69,22.15 15.69,28.62 28.62,28.62 28.62,22.15" fill="none" stroke="#111" stroke-width="1.6" stroke-linecap="round" stroke-linejoin="round"/><polyline points="15.69,22.15 17.31,25.38 14.08,25.38 15.69,22.15" fill="none" stroke="#111" stroke-width="1.6" stroke-linecap="round" stroke-linejoin="round"/><polyline points="15.69,22.15 17.31,25.38 14.08,25.38 15.69,22.15" fill="none" stroke="#111" stroke-width="1.6" stroke-linecap="round" stroke-linejoin="round"/><polyline points="25.38,6 25.38,18.92 28.62,18.92" fill="none" stroke="#111" stroke-width="1.6" stroke-linecap="round" stroke-linejoin="round"/><polyline points="26.68,13.11 26.68,12.46 30.23,12.46 30.55,12.46" fill="none" stroke="#111" stroke-width="1.6" stroke-linecap="round" stroke-linejoin="round"/><polyline points="26.68,13.11 26.68,12.46 30.23,12.46 30.55,12.46" fill="none" stroke="#111" stroke-width="1.6" stroke-linecap="round" stroke-linejoin="round"/><polyline points="26.68,22.8 26.68,22.15 30.23,22.15 30.55,22.15" fill="none" stroke="#111" stroke-width="1.6" stroke-linecap="round" stroke-linejoin="round"/><polyline points="26.68,22.8 26.68,22.15 30.23,22.15 30.55,22.15" fill="none" stroke="#111" stroke-width="1.6" stroke-linecap="round" stroke-linejoin="round"/><circle cx="28.62" cy="9.23" r="0.65" fill="none" stroke="#111" stroke-width="1.6"/><polyline points="28.62,9.23 28.62,12.46" fill="none" stroke="#111" stroke-width="1.6" stroke-linecap="round" stroke-linejoin="round"/><polyline points="28.62,9.23 28.62,12.46" fill="none" stroke="#111" stroke-width="1.6" stroke-linecap="round" stroke-linejoin="round"/><polyline points="28.62,12.46 28.62,22.15" fill="none" stroke="#111" stroke-width="1.6" stroke-linecap="round" stroke-linejoin="round"/><polyline points="28.62,12.46 30.23,15.69 27,15.69 28.62,12.46" fill="none" stroke="#111" stroke-width="1.6" stroke-linecap="round" stroke-linejoin="round"/><polyline points="28.62,12.46 30.23,15.69 27,15.69 28.62,12.46" fill="none" stroke="#111" stroke-width="1.6" stroke-linecap="round" stroke-linejoin="round"/><circle cx="28.62" cy="18.92" r="0.65" fill="none" stroke="#111" stroke-width="1.6"/><polyline points="28.62,18.92 28.62,22.15" fill="none" stroke="#111" stroke-width="1.6" stroke-linecap="round" stroke-linejoin="round"/><polyline points="28.62,22.15 30.23,25.38 27,25.38 28.62,22.15" fill="none" stroke="#111" stroke-width="1.6" stroke-linecap="round" stroke-linejoin="round"/><polyline points="28.62,22.15 30.23,25.38 27,25.38 28.62,22.15" fill="none" stroke="#111" stroke-width="1.6" stroke-linecap="round" stroke-linejoin="round"/><circle cx="28.62" cy="28.62" r="0.65" fill="none" stroke="#111" stroke-width="1.6"/><polyline points="38.31,6 38.31,18.92 41.54,18.92" fill="none" stroke="#111" stroke-width="1.6" stroke-linecap="round" stroke-linejoin="round"/><polyline points="39.6,13.11 39.6,12.46 43.15,12.46 43.48,12.46" fill="none" stroke="#111" stroke-width="1.6" stroke-linecap="round" stroke-linejoin="round"/><polyline points="39.6,13.11 39.6,12.46 43.15,12.46 43.48,12.46" fill="none" stroke="#111" stroke-width="1.6" stroke-linecap="round" stroke-linejoin="round"/><polyline points="39.6,22.8 39.6,22.15 43.15,22.15 43.48,22.15" fill="none" stroke="#111" stroke-width="1.6" stroke-linecap="round" stroke-linejoin="round"/><polyline points="39.6,22.8 39.6,22.15 43.15,22.15 43.48,22.15" fill="none" stroke="#111" stroke-width="1.6" stroke-linecap="round" stroke-linejoin="round"/><circle cx="41.54" cy="9.23" r="0.65" fill="none" stroke="#111" stroke-width="1.6"/><polyline points="41.54,9.23 41.54,12.46" fill="none" stroke="#111" stroke-width="1.6" stroke-linecap="round" stroke-linejoin="round"/><polyline points="41.54,9.23 41.54,12.46" fill="none" stroke="#111" stroke-width="1.6" stroke-linecap="round" stroke-linejoin="round"/><polyline points="41.54,12.46 41.54,22.15" fill="none" stroke="#111" stroke-width="1.6" stroke-linecap="round" stroke-linejoin="round"/><polyline points="41.54,12.46 43.15,15.69 39.92,15.69 41.54,12.46" fill="none" stroke="#111" stroke-width="1.6" stroke-linecap="round" stroke-linejoin="round"/><polyline points="41.54,12.46 43.15,15.69 39.92,15.69 41.54,12.46" fill="none" stroke="#111" stroke-width="1.6" stroke-linecap="round" stroke-linejoin="round"/><circle cx="41.54" cy="18.92" r="0.65" fill="none" stroke="#111" stroke-width="1.6"/><polyline points="41.54,18.92 41.54,22.15" fill="none" stroke="#111" stroke-width="1.6" stroke-linecap="round" stroke-linejoin="round"/><polyline points="41.54,22.15 41.54,28.62 54.46,28.62 54.46,22.15" fill="none" stroke="#111" stroke-width="1.6" stroke-linecap="round" stroke-linejoin="round"/><polyline points="41.54,22.15 41.54,28.62 54.46,28.62 54.46,22.15" fill="none" stroke="#111" stroke-width="1.6" stroke-linecap="round" stroke-linejoin="round"/><polyline points="41.54,22.15 43.15,25.38 39.92,25.38 41.54,22.15" fill="none" stroke="#111" stroke-width="1.6" stroke-linecap="round" stroke-linejoin="round"/><polyline points="41.54,22.15 43.15,25.38 39.92,25.38 41.54,22.15" fill="none" stroke="#111" stroke-width="1.6" stroke-linecap="round" stroke-linejoin="round"/><circle cx="41.54" cy="28.62" r="0.65" fill="none" stroke="#111" stroke-width="1.6"/><polyline points="41.54,28.62 28.62,28.62" fill="none" stroke="#111" stroke-width="1.6" stroke-linecap="round" stroke-linejoin="round"/><polyline points="51.23,6 51.23,18.92 54.46,18.92" fill="none" stroke="#111" stroke-width="1.6" stroke-linecap="round" stroke-linejoin="round"/><polyline points="54.46,9.23 54.46,12.46" fill="none" stroke="#111" stroke-width="1.6" stroke-linecap="round" stroke-linejoin="round"/><circle cx="54.46" cy="9.23" r="0.65" fill="none" stroke="#111" stroke-width="1.6"/><circle cx="54.46" cy="18.92" r="0.65" fill="none" stroke="#111" stroke-width="1.6"/><polyline points="54.46,28.62 54.46,12.46" fill="none" stroke="#111" stroke-width="1.6" stroke-linecap="round" stroke-linejoin="round"/><polyline points="54.46,28.62 67.38,28.62" fill="none" stroke="#111" stroke-width="1.6" stroke-linecap="round" stroke-linejoin="round"/><circle cx="54.46" cy="28.62" r="0.65" fill="none" stroke="#111" stroke-width="1.6"/><polyline points="56.08,12.46 56.4,12.46" fill="none" stroke="#111" stroke-width="1.6" stroke-linecap="round" stroke-linejoin="round"/><polyline points="56.08,12.46 52.52,12.46 52.52,13.11" fill="none" stroke="#111" stroke-width="1.6" stroke-linecap="round" stroke-linejoin="round"/><polyline points="56.08,15.69 52.85,15.69 54.46,12.46 56.08,15.69" fill="none" stroke="#111" stroke-width="1.6" stroke-linecap="round" stroke-linejoin="round"/><polyline points="56.08,22.15 56.4,22.15" fill="none" stroke="#111" stroke-width="1.6" stroke-linecap="round" stroke-linejoin="round"/><polyline points="56.08,22.15 52.52,22.15 52.52,22.8" fill="none" stroke="#111" stroke-width="1.6" stroke-linecap="round" stroke-linejoin="round"/><polyline points="56.08,25.38 52.85,25.38 54.46,22.15 56.08,25.38" fill="none" stroke="#111" stroke-width="1.6" stroke-linecap="round" stroke-linejoin="round"/><polyline points="64.15,6 64.15,18.92 67.38,18.92" fill="none" stroke="#111" stroke-width="1.6" stroke-linecap="round" stroke-linejoin="round"/><polyline points="65.45,13.11 65.45,12.46 69,12.46 69.32,12.46" fill="none" stroke="#111" stroke-width="1.6" stroke-linecap="round" stroke-linejoin="round"/><polyline points="65.45,13.11 65.45,12.46 69,12.46 69.32,12.46" fill="none" stroke="#111" stroke-width="1.6" stroke-linecap="round" stroke-linejoin="round"/><polyline points="65.45,22.8 65.45,22.15 69,22.15 69.32,22.15" fill="none" stroke="#111" stroke-width="1.6" stroke-linecap="round" stroke-linejoin="round"/><polyline points="65.45,22.8 65.45,22.15 69,22.15 69.32,22.15" fill="none" stroke="#111" stroke-width="1.6" stroke-linecap="round" stroke-linejoin="round"/><polyline points="67.38,9.23 67.38,12.46" fill="none" stroke="#111" stroke-width="1.6" stroke-linecap="round" stroke-linejoin="round"/><circle cx="67.38" cy="9.23" r="0.65" fill="none" stroke="#111" stroke-width="1.6"/><polyline points="67.38,12.46 67.38,22.15" fill="none" stroke="#111" stroke-width="1.6" stroke-linecap="round" stroke-linejoin="round"/><polyline points="67.38,12.46 65.77,15.69 69,15.69 67.38,12.46" fill="none" stroke="#111" stroke-width="1.6" stroke-linecap="round" stroke-linejoin="round"/><polyline points="67.38,12.46 65.77,15.69 69,15.69 67.38,12.46" fill="none" stroke="#111" stroke-width="1.6" stroke-linecap="round" stroke-linejoin="round"/><circle cx="67.38" cy="18.92" r="0.65" fill="none" stroke="#111" stroke-width="1.6"/><polyline points="67.38,22.15 65.77,25.38 69,25.38 67.38,22.15" fill="none" stroke="#111" stroke-width="1.6" stroke-linecap="round" stroke-linejoin="round"/><polyline points="67.38,22.15 65.77,25.38 69,25.38 67.38,22.15" fill="none" stroke="#111" stroke-width="1.6" stroke-linecap="round" stroke-linejoin="round"/><polyline points="67.38,22.15 67.38,28.62 80.31,28.62 80.31,22.15" fill="none" stroke="#111" stroke-width="1.6" stroke-linecap="round" stroke-linejoin="round"/><circle cx="67.38" cy="28.62" r="0.65" fill="none" stroke="#111" stroke-width="1.6"/><polyline points="77.08,6 77.08,18.92 80.31,18.92" fill="none" stroke="#111" stroke-width="1.6" stroke-linecap="round" stroke-linejoin="round"/><polyline points="78.37,13.11 78.37,12.46 81.92,12.46 82.25,12.46" fill="none" stroke="#111" stroke-width="1.6" stroke-linecap="round" stroke-linejoin="round"/><polyline points="78.37,13.11 78.37,12.46 81.92,12.46 82.25,12.46" fill="none" stroke="#111" stroke-width="1.6" stroke-linecap="round" stroke-linejoin="round"/><polyline points="78.37,22.8 78.37,22.15 81.92,22.15 82.25,22.15" fill="none" stroke="#111" stroke-width="1.6" stroke-linecap="round" stroke-linejoin="round"/><polyline points="78.37,22.8 78.37,22.15 81.92,22.15 82.25,22.15" fill="none" stroke="#111" stroke-width="1.6" stroke-linecap="round" stroke-linejoin="round"/><polyline points="80.31,9.23 80.31,12.46" fill="none" stroke="#111" stroke-width="1.6" stroke-linecap="round" stroke-linejoin="round"/><polyline points="80.31,9.23 80.31,12.46" fill="none" stroke="#111" stroke-width="1.6" stroke-linecap="round" stroke-linejoin="round"/><circle cx="80.31" cy="9.23" r="0.65" fill="none" stroke="#111" stroke-width="1.6"/><polyline points="80.31,12.46 80.31,22.15" fill="none" stroke="#111" stroke-width="1.6" stroke-linecap="round" stroke-linejoin="round"/><polyline points="80.31,12.46 78.69,15.69 81.92,15.69 80.31,12.46" fill="none" stroke="#111" stroke-width="1.6" stroke-linecap="round" stroke-linejoin="round"/><polyline points="80.31,12.46 78.69,15.69 81.92,15.69 80.31,12.46" fill="none" stroke="#111" stroke-width="1.6" stroke-linecap="round" stroke-linejoin="round"/><circle cx="80.31" cy="18.92" r="0.65" fill="none" stroke="#111" stroke-width="1.6"/><polyline points="80.31,22.15 78.69,25.38 81.92,25.38 80.31,22.15" fill="none" stroke="#111" stroke-width="1.6" stroke-linecap="round" stroke-linejoin="round"/><polyline points="80.31,22.15 78.69,25.38 81.92,25.38 80.31,22.15" fill="none" stroke="#111" stroke-width="1.6" stroke-linecap="round" stroke-linejoin="round"/><circle cx="80.31" cy="28.62" r="0.65" fill="none" stroke="#111" stroke-width="1.6"/><polyline points="84.83,13.11 84.83,12.46 88.38,12.46 88.71,12.46" fill="none" stroke="#111" stroke-width="1.6" stroke-linecap="round" stroke-linejoin="round"/><polyline points="86.77,9.23 15.69,9.23" fill="none" stroke="#111" stroke-width="1.6" stroke-linecap="round" stroke-linejoin="round"/><polyline points="86.77,9.23 86.77,17.31" fill="none" stroke="#111" stroke-width="1.6" stroke-linecap="round" stroke-linejoin="round"/><polyline points="86.77,12.46 88.38,15.69 85.15,15.69 86.77,12.46" fill="none" stroke="#111" stroke-width="1.6" stroke-linecap="round" stroke-linejoin="round"/><polyline points="86.77,17.31 86.77,28.62" fill="none" stroke="#111" stroke-width="1.6" stroke-linecap="round" stroke-linejoin="round"/><circle cx="86.77" cy="18.92" r="0.65" fill="none" stroke="#111" stroke-width="1.6"/><polyline points="86.77,28.62 80.31,28.62" fill="none" stroke="#111" stroke-width="1.6" stroke-linecap="round" stroke-linejoin="round"/><polyline points="90,18.92 86.77,18.92" fill="none" stroke="#111" stroke-width="1.6" stroke-linecap="round" stroke-linejoin="round"/></svg>