<svg xmlns="http://www.w3.org/2000/svg" width="96" height="64" viewBox="0 0 96 64"><rect x="11.2" y="15.42" width="29.25" height="33.48" fill="none" stroke="#111" stroke-width="1.6"/><polyline points="17.7,48.9 17.7,15.42" fill="none" stroke="#111" stroke-width="1.6" stroke-linecap="round" stroke-linejoin="round"/><polyline points="33.95,15.42 33.95,48.9" fill="none" stroke="#111" stroke-width="1.6" stroke-linecap="round" stroke-linejoin="round"/><polyline points="6,25.5 17.7,25.5" fill="none" stroke="#111" stroke-width="1.6" stroke-linecap="round" stroke-linejoin="round"/><rect x="6.32" y="6" width="39.01" height="52" fill="none" stroke="#111" stroke-width="1.6"/><polyline points="6.32,38.5 11.2,38.5" fill="none" stroke="#111" stroke-width="1.6" stroke-linecap="round" stroke-linejoin="round"/><circle cx="11.2" cy="38.5" r="0.71" fill="none" stroke="#111" stroke-width="1.6"/><polyline points="12.82,19 9.58,19" fill="none" stroke="#111" stroke-width="1.6" stroke-linecap="round" stroke-linejoin="round"/><polyline points="12.82,22.25 9.58,22.25 11.2,19 12.82,22.25" fill="none" stroke="#111" stroke-width="1.6" stroke-linecap="round" stroke-linejoin="round"/><polyline points="12.82,41.75 9.58,41.75" fill="none" stroke="#111" stroke-width="1.6" stroke-linecap="round" stroke-linejoin="round"/><polyline points="12.82,45 9.58,45 11.2,41.75 12.82,45" fill="none" stroke="#111" stroke-width="1.6" stroke-linecap="round" stroke-linejoin="round"/><circle cx="17.7" cy="15.42" r="0.71" fill="none" stroke="#111" stroke-width="1.6"/><circle cx="17.7" cy="25.5" r="0.71" fill="none" stroke="#111" stroke-width="1.6"/><circle cx="17.7" cy="48.9" r="0.71" fill="none" stroke="#111" stroke-width="1.6"/><polyline points="19.32,19 16.07,19" fill="none" stroke="#111" stroke-width="1.6" stroke-linecap="round" stroke-linejoin="round"/><polyline points="19.32,22.25 16.07,22.25 17.7,19 19.32,22.25" fill="none" stroke="#111" stroke-width="1.6" stroke-linecap="round" stroke-linejoin="round"/><polyline points="19.32,41.75 16.07,41.75" fill="none" stroke="#111" stroke-width="1.6" stroke-linecap="round" stroke-linejoin="round"/><polyline points="19.32,45 16.07,45 17.7,41.75 19.32,45" fill="none" stroke="#111" stroke-width="1.6" stroke-linecap="round" stroke-linejoin="round"/><polyline points="25.82,6 25.82,58" fill="none" stroke="#111" stroke-width="1.6" stroke-linecap="round" stroke-linejoin="round"/><circle cx="25.82" cy="15.42" r="0.71" fill="none" stroke="#111" stroke-width="1.6"/><circle cx="25.82" cy="48.9" r="0.71" fill="none" stroke="#111" stroke-width="1.6"/><polyline points="27.45,29.73 24.2,29.73 24.2,30.38" fill="none" stroke="#111" stroke-width="1.6" stroke-linecap="round" stroke-linejoin="round"/><polyline points="27.45,32.98 24.2,32.98 25.82,29.73 27.45,32.98" fill="none" stroke="#111" stroke-width="1.6" stroke-linecap="round" stroke-linejoin="round"/><circle cx="33.95" cy="15.42" r="0.71" fill="none" stroke="#111" stroke-width="1.6"/><circle cx="33.95" cy="38.5" r="0.71" fill="none" stroke="#111" stroke-width="1.6"/><circle cx="33.95" cy="48.9" r="0.71" fill="none" stroke="#111" stroke-width="1.6"/><polyline points="35.58,19 32.32,19" fill="none" stroke="#111" stroke-width="1.6" stroke-linecap="round" stroke-linejoin="round"/><polyline points="35.58,22.25 32.32,22.25 33.95,19 35.58,22.25" fill="none" stroke="#111" stroke-width="1.6" stroke-linecap="round" stroke-linejoin="round"/><polyline points="35.58,41.75 32.32,41.75" fill="none" stroke="#111" stroke-width="1.6" stroke-linecap="round" stroke-linejoin="round"/><polyline points="35.58,45 32.32,45 33.95,41.75 35.58,45" fill="none" stroke="#111" stroke-width="1.6" stroke-linecap="round" stroke-linejoin="round"/><circle cx="40.45" cy="25.5" r="0.71" fill="none" stroke="#111" stroke-width="1.6"/><polyline points="42.07,19 38.82,19" fill="none" stroke="#111" stroke-width="1.6" stroke-linecap="round" stroke-linejoin="round"/><polyline points="42.07,22.25 38.82,22.25 40.45,19 42.07,22.25" fill="none" stroke="#111" stroke-width="1.6" stroke-linecap="round" stroke-linejoin="round"/><polyline points="42.07,41.75 38.82,41.75" fill="none" stroke="#111" stroke-width="1.6" stroke-linecap="round" stroke-linejoin="round"/><polyline points="42.07,45 38.82,45 40.45,41.75 42.07,45" fill="none" stroke="#111" stroke-width="1.6" stroke-linecap="round" stroke-linejoin="round"/><polyline points="45.33,25.5 40.45,25.5" fill="none" stroke="#111" stroke-width="1.6" stroke-linecap="round" stroke-linejoin="round"/><polyline points="45.33,38.5 33.95,38.5" fill="none" stroke="#111" stroke-width="1.6" stroke-linecap="round" stroke-linejoin="round"/></svg>