<svg xmlns="http://www.w3.org/2000/svg" width="96" height="64" viewBox="0 0 96 64"><rect x="6" y="6" width="4.66" height="51.3" fill="none" stroke="#111" stroke-width="1.6"/><rect x="6" y="7.05" width="1.17" height="0.23" fill="none" stroke="#111" stroke-width="1.6"/><rect x="6" y="9.38" width="1.17" height="0.23" fill="none" stroke="#111" stroke-width="1.6"/><rect x="6" y="11.71" width="1.17" height="0.24" fill="none" stroke="#111" stroke-width="1.6"/><rect x="6" y="14.04" width="1.17" height="0.24" fill="none" stroke="#111" stroke-width="1.6"/><rect x="6" y="16.38" width="1.17" height="0.23" fill="none" stroke="#111" stroke-width="1.6"/><rect x="6" y="18.71" width="1.17" height="0.23" fill="none" stroke="#111" stroke-width="1.6"/><rect x="6" y="21.04" width="1.17" height="0.23" fill="none" stroke="#111" stroke-width="1.6"/><rect x="6" y="23.37" width="1.17" height="0.24" fill="none" stroke="#111" stroke-width="1.6"/><rect x="6" y="25.7" width="1.17" height="0.24" fill="none" stroke="#111" stroke-width="1.6"/><rect x="6" y="28.04" width="1.17" height="0.23" fill="none" stroke="#111" stroke-width="1.6"/><rect x="6" y="30.37" width="1.17" height="0.23" fill="none" stroke="#111" stroke-width="1.6"/><rect x="6" y="32.7" width="1.17" height="0.23" fill="none" stroke="#111" stroke-width="1.6"/><rect x="6" y="35.03" width="1.17" height="0.23" fill="none" stroke="#111" stroke-width="1.6"/><rect x="6" y="37.36" width="1.17" height="0.24" fill="none" stroke="#111" stroke-width="1.6"/><rect x="6" y="39.7" width="1.17" height="0.23" fill="none" stroke="#111" stroke-width="1.6"/><rect x="6" y="42.03" width="1.17" height="0.23" fill="none" stroke="#111" stroke-width="1.6"/><rect x="6" y="44.36" width="1.17" height="0.23" fill="none" stroke="#111" stroke-width="1.6"/><rect x="6" y="46.69" width="1.17" height="0.23" fill="none" stroke="#111" stroke-width="1.6"/><rect x="6" y="49.02" width="1.17" height="0.24" fill="none" stroke="#111" stroke-width="1.6"/><rect x="6" y="51.35" width="1.17" height="0.24" fill="none" stroke="#111" stroke-width="1.6"/><rect x="6" y="53.69" width="1.17" height="0.23" fill="none" stroke="#111" stroke-width="1.6"/><rect x="6" y="56.02" width="1.17" height="0.23" fill="none" stroke="#111" stroke-width="1.6"/><polyline points="7.4,58 9.26,58" fill="none" stroke="#111" stroke-width="1.6" stroke-linecap="round" stroke-linejoin="round"/><rect x="9.5" y="7.05" width="1.16" height="0.23" fill="none" stroke="#111" stroke-width="1.6"/><rect x="9.5" y="9.38" width="1.16" height="0.23" fill="none" stroke="#111" stroke-width="1.6"/><rect x="9.5" y="11.71" width="1.16" height="0.24" fill="none" stroke="#111" stroke-width="1.6"/><rect x="9.5" y="14.04" width="1.16" height="0.24" fill="none" stroke="#111" stroke-width="1.6"/><rect x="9.5" y="16.38" width="1.16" height="0.23" fill="none" stroke="#111" stroke-width="1.6"/><rect x="9.5" y="18.71" width="1.16" height="0.23" fill="none" stroke="#111" stroke-width="1.6"/><rect x="9.5" y="21.04" width="1.16" height="0.23" fill="none" stroke="#111" stroke-width="1.6"/><rect x="9.5" y="23.37" width="1.16" height="0.24" fill="none" stroke="#111" stroke-width="1.6"/><rect x="9.5" y="25.7" width="1.16" height="0.24" fill="none" stroke="#111" stroke-width="1.6"/><rect x="9.5" y="28.04" width="1.16" height="0.23" fill="none" stroke="#111" stroke-width="1.6"/><rect x="9.5" y="30.37" width="1.16" height="0.23" fill="none" stroke="#111" stroke-width="1.6"/><rect x="9.5" y="32.7" width="1.16" height="0.23" fill="none" stroke="#111" stroke-width="1.6"/><rect x="9.5" y="35.03" width="1.16" height="0.23" fill="none" stroke="#111" stroke-width="1.6"/><rect x="9.5" y="37.36" width="1.16" height="0.24" fill="none" stroke="#111" stroke-width="1.6"/><rect x="9.5" y="39.7" width="1.16" height="0.23" fill="none" stroke="#111" stroke-width="1.6"/><rect x="9.5" y="42.03" width="1.16" height="0.23" fill="none" stroke="#111" stroke-width="1.6"/><rect x="9.5" y="44.36" width="1.16" height="0.23" fill="none" stroke="#111" stroke-width="1.6"/><rect x="9.5" y="46.69" width="1.16" height="0.23" fill="none" stroke="#111" stroke-width="1.6"/><rect x="9.5" y="49.02" width="1.16" height="0.24" fill="none" stroke="#111" stroke-width="1.6"/><rect x="9.5" y="51.35" width="1.16" height="0.24" fill="none" stroke="#111" stroke-width="1.6"/><rect x="9.5" y="53.69" width="1.16" height="0.23" fill="none" stroke="#111" stroke-width="1.6"/><rect x="9.5" y="56.02" width="1.16" height="0.23" fill="none" stroke="#111" stroke-width="1.6"/></svg>