<svg xmlns="http://www.w3.org/2000/svg" width="96" height="64" viewBox="0 0 96 64"><polyline points="9.71,6 9.71,58" fill="none" stroke="#111" stroke-width="1.6" stroke-linecap="round" stroke-linejoin="round"/><path d="M 20.86 17.14 Q 31.95 28.29 20.86 39.43" fill="none" stroke="#111" stroke-width="1.6" stroke-linecap="round"/><polyline points="20.86,17.14 9.71,17.14 9.71,39.43 20.86,39.43" fill="none" stroke="#111" stroke-width="1.6" stroke-linecap="round" stroke-linejoin="round"/><path d="M 9.71 17.14 Q 13.29 28.29 9.71 39.43" fill="none" stroke="#111" stroke-width="1.6" stroke-linecap="round"/><polyline points="9.71,6 9.71,17.14" fill="none" stroke="#111" stroke-width="1.6" stroke-linecap="round" stroke-linejoin="round"/><polyline points="9.71,17.14 19,17.14" fill="none" stroke="#111" stroke-width="1.6" stroke-linecap="round" stroke-linejoin="round"/><polyline points="9.71,39.43 9.71,58" fill="none" stroke="#111" stroke-width="1.6" stroke-linecap="round" stroke-linejoin="round"/><polyline points="9.71,39.43 19,39.43" fill="none" stroke="#111" stroke-width="1.6" stroke-linecap="round" stroke-linejoin="round"/><path d="M 32 28.29 Q 27.25 35.84 19.07 39.43" fill="none" stroke="#111" stroke-width="1.6" stroke-linecap="round"/><path d="M 19.07 17.14 Q 27.27 20.7 32 28.29" fill="none" stroke="#111" stroke-width="1.6" stroke-linecap="round"/><polyline points="19,17.14 9.71,17.14 9.71,17.14 10.46,18.33 12.02,21.67 12.98,25.24 13.21,29.03 12.76,32.67 11.57,36.23 9.71,39.43 9.71,39.43 19,39.43" fill="none" stroke="#111" stroke-width="1.6" stroke-linecap="round" stroke-linejoin="round"/><rect x="6" y="6" width="29.71" height="44.57" fill="none" stroke="#111" stroke-width="1.6"/></svg>