<svg xmlns="http://www.w3.org/2000/svg" width="96" height="64" viewBox="0 0 96 64"><rect x="6" y="6" width="1.32" height="51.6" fill="none" stroke="#111" stroke-width="1.6"/><rect x="6" y="6.6" width="0.66" height="0.13" fill="none" stroke="#111" stroke-width="1.6"/><rect x="6" y="7.92" width="0.66" height="0.13" fill="none" stroke="#111" stroke-width="1.6"/><rect x="6" y="9.24" width="0.66" height="0.13" fill="none" stroke="#111" stroke-width="1.6"/><rect x="6" y="10.56" width="0.66" height="0.14" fill="none" stroke="#111" stroke-width="1.6"/><rect x="6" y="11.89" width="0.66" height="0.13" fill="none" stroke="#111" stroke-width="1.6"/><rect x="6" y="13.21" width="0.66" height="0.13" fill="none" stroke="#111" stroke-width="1.6"/><rect x="6" y="14.53" width="0.66" height="0.14" fill="none" stroke="#111" stroke-width="1.6"/><rect x="6" y="15.86" width="0.66" height="0.13" fill="none" stroke="#111" stroke-width="1.6"/><rect x="6" y="17.18" width="0.66" height="0.13" fill="none" stroke="#111" stroke-width="1.6"/><rect x="6" y="18.5" width="0.66" height="0.14" fill="none" stroke="#111" stroke-width="1.6"/><rect x="6" y="19.83" width="0.66" height="0.13" fill="none" stroke="#111" stroke-width="1.6"/><rect x="6" y="21.15" width="0.66" height="0.13" fill="none" stroke="#111" stroke-width="1.6"/><rect x="6" y="22.47" width="0.66" height="0.14" fill="none" stroke="#111" stroke-width="1.6"/><rect x="6" y="23.8" width="0.66" height="0.13" fill="none" stroke="#111" stroke-width="1.6"/><rect x="6" y="25.12" width="0.66" height="0.13" fill="none" stroke="#111" stroke-width="1.6"/><rect x="6" y="26.44" width="0.66" height="0.14" fill="none" stroke="#111" stroke-width="1.6"/><rect x="6" y="27.77" width="0.66" height="0.13" fill="none" stroke="#111" stroke-width="1.6"/><rect x="6" y="29.09" width="0.66" height="0.13" fill="none" stroke="#111" stroke-width="1.6"/><rect x="6" y="30.41" width="0.66" height="0.13" fill="none" stroke="#111" stroke-width="1.6"/><rect x="6" y="31.74" width="0.66" height="0.13" fill="none" stroke="#111" stroke-width="1.6"/><rect x="6" y="33.06" width="0.66" height="0.13" fill="none" stroke="#111" stroke-width="1.6"/><rect x="6" y="34.38" width="0.66" height="0.13" fill="none" stroke="#111" stroke-width="1.6"/><rect x="6" y="35.7" width="0.66" height="0.14" fill="none" stroke="#111" stroke-width="1.6"/><rect x="6" y="37.03" width="0.66" height="0.13" fill="none" stroke="#111" stroke-width="1.6"/><rect x="6" y="38.35" width="0.66" height="0.13" fill="none" stroke="#111" stroke-width="1.6"/><rect x="6" y="39.67" width="0.66" height="0.14" fill="none" stroke="#111" stroke-width="1.6"/><rect x="6" y="41" width="0.66" height="0.13" fill="none" stroke="#111" stroke-width="1.6"/><rect x="6" y="42.32" width="0.66" height="0.13" fill="none" stroke="#111" stroke-width="1.6"/><rect x="6" y="43.64" width="0.66" height="0.14" fill="none" stroke="#111" stroke-width="1.6"/><rect x="6" y="44.97" width="0.66" height="0.13" fill="none" stroke="#111" stroke-width="1.6"/><rect x="6" y="46.29" width="0.66" height="0.13" fill="none" stroke="#111" stroke-width="1.6"/><rect x="6" y="47.61" width="0.66" height="0.14" fill="none" stroke="#111" stroke-width="1.6"/><rect x="6" y="48.94" width="0.66" height="0.13" fill="none" stroke="#111" stroke-width="1.6"/><rect x="6" y="50.26" width="0.66" height="0.13" fill="none" stroke="#111" stroke-width="1.6"/><rect x="6" y="51.58" width="0.66" height="0.14" fill="none" stroke="#111" stroke-width="1.6"/><rect x="6" y="52.91" width="0.66" height="0.13" fill="none" stroke="#111" stroke-width="1.6"/><rect x="6" y="54.23" width="0.66" height="0.13" fill="none" stroke="#111" stroke-width="1.6"/><rect x="6" y="55.55" width="0.66" height="0.13" fill="none" stroke="#111" stroke-width="1.6"/><rect x="6" y="56.88" width="0.66" height="0.13" fill="none" stroke="#111" stroke-width="1.6"/><polyline points="6.13,58 7.19,58" fill="none" stroke="#111" stroke-width="1.6" stroke-linecap="round" stroke-linejoin="round"/></svg>