<svg xmlns="http://www.w3.org/2000/svg" width="96" height="64" viewBox="0 0 96 64"><rect x="6" y="6" width="2.79" height="51.58" fill="none" stroke="#111" stroke-width="1.6"/><rect x="6" y="6.63" width="0.7" height="0.14" fill="none" stroke="#111" stroke-width="1.6"/><rect x="6" y="8.02" width="0.7" height="0.14" fill="none" stroke="#111" stroke-width="1.6"/><rect x="6" y="9.42" width="0.7" height="0.13" fill="none" stroke="#111" stroke-width="1.6"/><rect x="6" y="10.81" width="0.7" height="0.14" fill="none" stroke="#111" stroke-width="1.6"/><rect x="6" y="12.2" width="0.7" height="0.14" fill="none" stroke="#111" stroke-width="1.6"/><rect x="6" y="13.6" width="0.7" height="0.14" fill="none" stroke="#111" stroke-width="1.6"/><rect x="6" y="14.99" width="0.7" height="0.14" fill="none" stroke="#111" stroke-width="1.6"/><rect x="6" y="16.39" width="0.7" height="0.14" fill="none" stroke="#111" stroke-width="1.6"/><rect x="6" y="17.78" width="0.7" height="0.14" fill="none" stroke="#111" stroke-width="1.6"/><rect x="6" y="19.17" width="0.7" height="0.14" fill="none" stroke="#111" stroke-width="1.6"/><rect x="6" y="20.57" width="0.7" height="0.14" fill="none" stroke="#111" stroke-width="1.6"/><rect x="6" y="21.96" width="0.7" height="0.14" fill="none" stroke="#111" stroke-width="1.6"/><rect x="6" y="23.36" width="0.7" height="0.14" fill="none" stroke="#111" stroke-width="1.6"/><rect x="6" y="24.75" width="0.7" height="0.14" fill="none" stroke="#111" stroke-width="1.6"/><rect x="6" y="26.14" width="0.7" height="0.14" fill="none" stroke="#111" stroke-width="1.6"/><rect x="6" y="27.54" width="0.7" height="0.14" fill="none" stroke="#111" stroke-width="1.6"/><rect x="6" y="28.93" width="0.7" height="0.14" fill="none" stroke="#111" stroke-width="1.6"/><rect x="6" y="30.33" width="0.7" height="0.14" fill="none" stroke="#111" stroke-width="1.6"/><rect x="6" y="31.72" width="0.7" height="0.14" fill="none" stroke="#111" stroke-width="1.6"/><rect x="6" y="33.12" width="0.7" height="0.13" fill="none" stroke="#111" stroke-width="1.6"/><rect x="6" y="34.51" width="0.7" height="0.14" fill="none" stroke="#111" stroke-width="1.6"/><rect x="6" y="35.9" width="0.7" height="0.14" fill="none" stroke="#111" stroke-width="1.6"/><rect x="6" y="37.3" width="0.7" height="0.14" fill="none" stroke="#111" stroke-width="1.6"/><rect x="6" y="38.69" width="0.7" height="0.14" fill="none" stroke="#111" stroke-width="1.6"/><rect x="6" y="40.09" width="0.7" height="0.14" fill="none" stroke="#111" stroke-width="1.6"/><rect x="6" y="41.48" width="0.7" height="0.14" fill="none" stroke="#111" stroke-width="1.6"/><rect x="6" y="42.87" width="0.7" height="0.14" fill="none" stroke="#111" stroke-width="1.6"/><rect x="6" y="44.27" width="0.7" height="0.14" fill="none" stroke="#111" stroke-width="1.6"/><rect x="6" y="45.66" width="0.7" height="0.14" fill="none" stroke="#111" stroke-width="1.6"/><rect x="6" y="47.06" width="0.7" height="0.14" fill="none" stroke="#111" stroke-width="1.6"/><rect x="6" y="48.45" width="0.7" height="0.14" fill="none" stroke="#111" stroke-width="1.6"/><rect x="6" y="49.84" width="0.7" height="0.14" fill="none" stroke="#111" stroke-width="1.6"/><rect x="6" y="51.24" width="0.7" height="0.14" fill="none" stroke="#111" stroke-width="1.6"/><rect x="6" y="52.63" width="0.7" height="0.14" fill="none" stroke="#111" stroke-width="1.6"/><rect x="6" y="54.03" width="0.7" height="0.14" fill="none" stroke="#111" stroke-width="1.6"/><rect x="6" y="55.42" width="0.7" height="0.14" fill="none" stroke="#111" stroke-width="1.6"/><rect x="6" y="56.82" width="0.7" height="0.13" fill="none" stroke="#111" stroke-width="1.6"/><polyline points="6.84,58 7.95,58" fill="none" stroke="#111" stroke-width="1.6" stroke-linecap="round" stroke-linejoin="round"/><rect x="8.09" y="6.63" width="0.7" height="0.14" fill="none" stroke="#111" stroke-width="1.6"/><rect x="8.09" y="8.02" width="0.7" height="0.14" fill="none" stroke="#111" stroke-width="1.6"/><rect x="8.09" y="9.42" width="0.7" height="0.13" fill="none" stroke="#111" stroke-width="1.6"/><rect x="8.09" y="10.81" width="0.7" height="0.14" fill="none" stroke="#111" stroke-width="1.6"/><rect x="8.09" y="12.2" width="0.7" height="0.14" fill="none" stroke="#111" stroke-width="1.6"/><rect x="8.09" y="13.6" width="0.7" height="0.14" fill="none" stroke="#111" stroke-width="1.6"/><rect x="8.09" y="14.99" width="0.7" height="0.14" fill="none" stroke="#111" stroke-width="1.6"/><rect x="8.09" y="16.39" width="0.7" height="0.14" fill="none" stroke="#111" stroke-width="1.6"/><rect x="8.09" y="17.78" width="0.7" height="0.14" fill="none" stroke="#111" stroke-width="1.6"/><rect x="8.09" y="19.17" width="0.7" height="0.14" fill="none" stroke="#111" stroke-width="1.6"/><rect x="8.09" y="20.57" width="0.7" height="0.14" fill="none" stroke="#111" stroke-width="1.6"/><rect x="8.09" y="21.96" width="0.7" height="0.14" fill="none" stroke="#111" stroke-width="1.6"/><rect x="8.09" y="23.36" width="0.7" height="0.14" fill="none" stroke="#111" stroke-width="1.6"/><rect x="8.09" y="24.75" width="0.7" height="0.14" fill="none" stroke="#111" stroke-width="1.6"/><rect x="8.09" y="26.14" width="0.7" height="0.14" fill="none" stroke="#111" stroke-width="1.6"/><rect x="8.09" y="27.54" width="0.7" height="0.14" fill="none" stroke="#111" stroke-width="1.6"/><rect x="8.09" y="28.93" width="0.7" height="0.14" fill="none" stroke="#111" stroke-width="1.6"/><rect x="8.09" y="30.33" width="0.7" height="0.14" fill="none" stroke="#111" stroke-width="1.6"/><rect x="8.09" y="31.72" width="0.7" height="0.14" fill="none" stroke="#111" stroke-width="1.6"/><rect x="8.09" y="33.12" width="0.7" height="0.13" fill="none" stroke="#111" stroke-width="1.6"/><rect x="8.09" y="34.51" width="0.7" height="0.14" fill="none" stroke="#111" stroke-width="1.6"/><rect x="8.09" y="35.9" width="0.7" height="0.14" fill="none" stroke="#111" stroke-width="1.6"/><rect x="8.09" y="37.3" width="0.7" height="0.14" fill="none" stroke="#111" stroke-width="1.6"/><rect x="8.09" y="38.69" width="0.7" height="0.14" fill="none" stroke="#111" stroke-width="1.6"/><rect x="8.09" y="40.09" width="0.7" height="0.14" fill="none" stroke="#111" stroke-width="1.6"/><rect x="8.09" y="41.48" width="0.7" height="0.14" fill="none" stroke="#111" stroke-width="1.6"/><rect x="8.09" y="42.87" width="0.7" height="0.14" fill="none" stroke="#111" stroke-width="1.6"/><rect x="8.09" y="44.27" width="0.7" height="0.14" fill="none" stroke="#111" stroke-width="1.6"/><rect x="8.09" y="45.66" width="0.7" height="0.14" fill="none" stroke="#111" stroke-width="1.6"/><rect x="8.09" y="47.06" width="0.7" height="0.14" fill="none" stroke="#111" stroke-width="1.6"/><rect x="8.09" y="48.45" width="0.7" height="0.14" fill="none" stroke="#111" stroke-width="1.6"/><rect x="8.09" y="49.84" width="0.7" height="0.14" fill="none" stroke="#111" stroke-width="1.6"/><rect x="8.09" y="51.24" width="0.7" height="0.14" fill="none" stroke="#111" stroke-width="1.6"/><rect x="8.09" y="52.63" width="0.7" height="0.14" fill="none" stroke="#111" stroke-width="1.6"/><rect x="8.09" y="54.03" width="0.7" height="0.14" fill="none" stroke="#111" stroke-width="1.6"/><rect x="8.09" y="55.42" width="0.7" height="0.14" fill="none" stroke="#111" stroke-width="1.6"/><rect x="8.09" y="56.82" width="0.7" height="0.13" fill="none" stroke="#111" stroke-width="1.6"/></svg>