<svg xmlns="http://www.w3.org/2000/svg" width="96" height="64" viewBox="0 0 96 64"><rect x="6" y="6" width="69.33" height="52" fill="none" stroke="#111" stroke-width="1.6"/><polyline points="6,14.67 32,14.67 32,36.33" fill="none" stroke="#111" stroke-width="1.6" stroke-linecap="round" stroke-linejoin="round"/><polyline points="14.67,27.67 23.33,27.67" fill="none" stroke="#111" stroke-width="1.6" stroke-linecap="round" stroke-linejoin="round"/><circle cx="19" cy="14.67" r="0.87" fill="none" stroke="#111" stroke-width="1.6"/><polyline points="19,27.67 19,14.67" fill="none" stroke="#111" stroke-width="1.6" stroke-linecap="round" stroke-linejoin="round"/><polyline points="19,27.67 19,49.33" fill="none" stroke="#111" stroke-width="1.6" stroke-linecap="round" stroke-linejoin="round"/><polyline points="19,27.67 14.67,36.33 23.33,36.33 19,27.67" fill="none" stroke="#111" stroke-width="1.6" stroke-linecap="round" stroke-linejoin="round"/><circle cx="19" cy="49.33" r="0.87" fill="none" stroke="#111" stroke-width="1.6"/><polyline points="27.67,36.33 36.33,36.33" fill="none" stroke="#111" stroke-width="1.6" stroke-linecap="round" stroke-linejoin="round"/><polyline points="32,36.33 32,49.33 6,49.33" fill="none" stroke="#111" stroke-width="1.6" stroke-linecap="round" stroke-linejoin="round"/><polyline points="32,36.33 27.67,27.67 36.33,27.67 32,36.33" fill="none" stroke="#111" stroke-width="1.6" stroke-linecap="round" stroke-linejoin="round"/><polyline points="41.53,28.53 50.2,28.53 47.6,29.4 47.6,27.67 50.2,28.53" fill="none" stroke="#111" stroke-width="1.6" stroke-linecap="round" stroke-linejoin="round"/><polyline points="41.53,35.47 50.2,35.47 47.6,36.33 47.6,34.6 50.2,35.47" fill="none" stroke="#111" stroke-width="1.6" stroke-linecap="round" stroke-linejoin="round"/><polyline points="58,19 58,45" fill="none" stroke="#111" stroke-width="1.6" stroke-linecap="round" stroke-linejoin="round"/><polyline points="58,27.67 71,14.67" fill="none" stroke="#111" stroke-width="1.6" stroke-linecap="round" stroke-linejoin="round"/><polyline points="61.47,43.27 64.93,39.8 68.4,46.73 61.47,43.27" fill="none" stroke="#111" stroke-width="1.6" stroke-linecap="round" stroke-linejoin="round"/><polyline points="71,14.67 75.33,14.67" fill="none" stroke="#111" stroke-width="1.6" stroke-linecap="round" stroke-linejoin="round"/><polyline points="71,49.33 58,36.33" fill="none" stroke="#111" stroke-width="1.6" stroke-linecap="round" stroke-linejoin="round"/><polyline points="71,49.33 75.33,49.33" fill="none" stroke="#111" stroke-width="1.6" stroke-linecap="round" stroke-linejoin="round"/></svg>