<svg xmlns="http://www.w3.org/2000/svg" width="96" height="64" viewBox="0 0 96 64"><rect x="6" y="6" width="1.16" height="52" fill="none" stroke="#111" stroke-width="1.6"/><rect x="6" y="6.52" width="0.58" height="0.12" fill="none" stroke="#111" stroke-width="1.6"/><rect x="6" y="7.68" width="0.58" height="0.11" fill="none" stroke="#111" stroke-width="1.6"/><rect x="6" y="8.83" width="0.58" height="0.12" fill="none" stroke="#111" stroke-width="1.6"/><rect x="6" y="9.99" width="0.58" height="0.11" fill="none" stroke="#111" stroke-width="1.6"/><rect x="6" y="11.14" width="0.58" height="0.12" fill="none" stroke="#111" stroke-width="1.6"/><rect x="6" y="12.3" width="0.58" height="0.11" fill="none" stroke="#111" stroke-width="1.6"/><rect x="6" y="13.45" width="0.58" height="0.12" fill="none" stroke="#111" stroke-width="1.6"/><rect x="6" y="14.61" width="0.58" height="0.11" fill="none" stroke="#111" stroke-width="1.6"/><rect x="6" y="15.76" width="0.58" height="0.12" fill="none" stroke="#111" stroke-width="1.6"/><rect x="6" y="16.92" width="0.58" height="0.12" fill="none" stroke="#111" stroke-width="1.6"/><rect x="6" y="18.08" width="0.58" height="0.11" fill="none" stroke="#111" stroke-width="1.6"/><rect x="6" y="19.23" width="0.58" height="0.12" fill="none" stroke="#111" stroke-width="1.6"/><rect x="6" y="20.39" width="0.58" height="0.11" fill="none" stroke="#111" stroke-width="1.6"/><rect x="6" y="21.54" width="0.58" height="0.12" fill="none" stroke="#111" stroke-width="1.6"/><rect x="6" y="22.7" width="0.58" height="0.11" fill="none" stroke="#111" stroke-width="1.6"/><rect x="6" y="23.85" width="0.58" height="0.12" fill="none" stroke="#111" stroke-width="1.6"/><rect x="6" y="25.01" width="0.58" height="0.11" fill="none" stroke="#111" stroke-width="1.6"/><rect x="6" y="26.16" width="0.58" height="0.12" fill="none" stroke="#111" stroke-width="1.6"/><rect x="6" y="27.32" width="0.58" height="0.12" fill="none" stroke="#111" stroke-width="1.6"/><rect x="6" y="28.48" width="0.58" height="0.11" fill="none" stroke="#111" stroke-width="1.6"/><rect x="6" y="29.63" width="0.58" height="0.12" fill="none" stroke="#111" stroke-width="1.6"/><rect x="6" y="30.79" width="0.58" height="0.11" fill="none" stroke="#111" stroke-width="1.6"/><rect x="6" y="31.94" width="0.58" height="0.12" fill="none" stroke="#111" stroke-width="1.6"/><rect x="6" y="33.1" width="0.58" height="0.11" fill="none" stroke="#111" stroke-width="1.6"/><rect x="6" y="34.25" width="0.58" height="0.12" fill="none" stroke="#111" stroke-width="1.6"/><rect x="6" y="35.41" width="0.58" height="0.11" fill="none" stroke="#111" stroke-width="1.6"/><rect x="6" y="36.56" width="0.58" height="0.12" fill="none" stroke="#111" stroke-width="1.6"/><rect x="6" y="37.72" width="0.58" height="0.12" fill="none" stroke="#111" stroke-width="1.6"/><rect x="6" y="38.88" width="0.58" height="0.11" fill="none" stroke="#111" stroke-width="1.6"/><rect x="6" y="40.03" width="0.58" height="0.12" fill="none" stroke="#111" stroke-width="1.6"/><rect x="6" y="41.19" width="0.58" height="0.11" fill="none" stroke="#111" stroke-width="1.6"/><rect x="6" y="42.34" width="0.58" height="0.12" fill="none" stroke="#111" stroke-width="1.6"/><rect x="6" y="43.5" width="0.58" height="0.11" fill="none" stroke="#111" stroke-width="1.6"/><rect x="6" y="44.65" width="0.58" height="0.12" fill="none" stroke="#111" stroke-width="1.6"/><rect x="6" y="45.81" width="0.58" height="0.11" fill="none" stroke="#111" stroke-width="1.6"/><rect x="6" y="46.96" width="0.58" height="0.12" fill="none" stroke="#111" stroke-width="1.6"/><rect x="6" y="48.12" width="0.58" height="0.12" fill="none" stroke="#111" stroke-width="1.6"/><rect x="6" y="49.28" width="0.58" height="0.11" fill="none" stroke="#111" stroke-width="1.6"/><rect x="6" y="50.43" width="0.58" height="0.12" fill="none" stroke="#111" stroke-width="1.6"/><rect x="6" y="51.59" width="0.58" height="0.11" fill="none" stroke="#111" stroke-width="1.6"/><rect x="6" y="52.74" width="0.58" height="0.12" fill="none" stroke="#111" stroke-width="1.6"/><rect x="6" y="53.9" width="0.58" height="0.11" fill="none" stroke="#111" stroke-width="1.6"/><rect x="6" y="55.05" width="0.58" height="0.12" fill="none" stroke="#111" stroke-width="1.6"/><rect x="6" y="56.21" width="0.58" height="0.11" fill="none" stroke="#111" stroke-width="1.6"/><rect x="6" y="57.36" width="0.58" height="0.12" fill="none" stroke="#111" stroke-width="1.6"/></svg>