<svg xmlns="http://www.w3.org/2000/svg" width="96" height="64" viewBox="0 0 96 64"><polyline points="6,6.32 6.48,6.32" fill="none" stroke="#111" stroke-width="1.6" stroke-linecap="round" stroke-linejoin="round"/><polyline points="6,7.93 6.48,7.93" fill="none" stroke="#111" stroke-width="1.6" stroke-linecap="round" stroke-linejoin="round"/><polyline points="6,9.53 6.48,9.53" fill="none" stroke="#111" stroke-width="1.6" stroke-linecap="round" stroke-linejoin="round"/><polyline points="6,11.14 6.48,11.14" fill="none" stroke="#111" stroke-width="1.6" stroke-linecap="round" stroke-linejoin="round"/><polyline points="6,12.74 6.48,12.74" fill="none" stroke="#111" stroke-width="1.6" stroke-linecap="round" stroke-linejoin="round"/><polyline points="6,14.35 6.48,14.35" fill="none" stroke="#111" stroke-width="1.6" stroke-linecap="round" stroke-linejoin="round"/><polyline points="6,15.95 6.48,15.95" fill="none" stroke="#111" stroke-width="1.6" stroke-linecap="round" stroke-linejoin="round"/><polyline points="6,17.56 6.48,17.56" fill="none" stroke="#111" stroke-width="1.6" stroke-linecap="round" stroke-linejoin="round"/><polyline points="6,19.16 6.48,19.16" fill="none" stroke="#111" stroke-width="1.6" stroke-linecap="round" stroke-linejoin="round"/><polyline points="6,20.77 6.48,20.77" fill="none" stroke="#111" stroke-width="1.6" stroke-linecap="round" stroke-linejoin="round"/><polyline points="6,22.37 6.48,22.37" fill="none" stroke="#111" stroke-width="1.6" stroke-linecap="round" stroke-linejoin="round"/><polyline points="6,23.98 6.48,23.98" fill="none" stroke="#111" stroke-width="1.6" stroke-linecap="round" stroke-linejoin="round"/><polyline points="6,25.58 6.48,25.58" fill="none" stroke="#111" stroke-width="1.6" stroke-linecap="round" stroke-linejoin="round"/><polyline points="6,27.19 6.48,27.19" fill="none" stroke="#111" stroke-width="1.6" stroke-linecap="round" stroke-linejoin="round"/><polyline points="6,28.79 6.48,28.79" fill="none" stroke="#111" stroke-width="1.6" stroke-linecap="round" stroke-linejoin="round"/><polyline points="6,30.4 6.48,30.4" fill="none" stroke="#111" stroke-width="1.6" stroke-linecap="round" stroke-linejoin="round"/><polyline points="6,32 6.48,32" fill="none" stroke="#111" stroke-width="1.6" stroke-linecap="round" stroke-linejoin="round"/><polyline points="6,33.6 6.48,33.6" fill="none" stroke="#111" stroke-width="1.6" stroke-linecap="round" stroke-linejoin="round"/><polyline points="6,35.21 6.48,35.21" fill="none" stroke="#111" stroke-width="1.6" stroke-linecap="round" stroke-linejoin="round"/><polyline points="6,36.81 6.48,36.81" fill="none" stroke="#111" stroke-width="1.6" stroke-linecap="round" stroke-linejoin="round"/><polyline points="6,38.42 6.48,38.42" fill="none" stroke="#111" stroke-width="1.6" stroke-linecap="round" stroke-linejoin="round"/><polyline points="6,40.02 6.48,40.02" fill="none" stroke="#111" stroke-width="1.6" stroke-linecap="round" stroke-linejoin="round"/><polyline points="6,41.63 6.48,41.63" fill="none" stroke="#111" stroke-width="1.6" stroke-linecap="round" stroke-linejoin="round"/><polyline points="6,43.23 6.48,43.23" fill="none" stroke="#111" stroke-width="1.6" stroke-linecap="round" stroke-linejoin="round"/><polyline points="6,44.84 6.48,44.84" fill="none" stroke="#111" stroke-width="1.6" stroke-linecap="round" stroke-linejoin="round"/><polyline points="6,46.44 6.48,46.44" fill="none" stroke="#111" stroke-width="1.6" stroke-linecap="round" stroke-linejoin="round"/><polyline points="6,48.05 6.48,48.05" fill="none" stroke="#111" stroke-width="1.6" stroke-linecap="round" stroke-linejoin="round"/><polyline points="6,49.65 6.48,49.65" fill="none" stroke="#111" stroke-width="1.6" stroke-linecap="round" stroke-linejoin="round"/><polyline points="6,51.26 6.48,51.26" fill="none" stroke="#111" stroke-width="1.6" stroke-linecap="round" stroke-linejoin="round"/><polyline points="6,52.86 6.48,52.86" fill="none" stroke="#111" stroke-width="1.6" stroke-linecap="round" stroke-linejoin="round"/><polyline points="6,54.47 6.48,54.47" fill="none" stroke="#111" stroke-width="1.6" stroke-linecap="round" stroke-linejoin="round"/><polyline points="6,56.07 6.48,56.07" fill="none" stroke="#111" stroke-width="1.6" stroke-linecap="round" stroke-linejoin="round"/><polyline points="6,57.68 6.48,57.68" fill="none" stroke="#111" stroke-width="1.6" stroke-linecap="round" stroke-linejoin="round"/><path d="M 6.8 6.64 Q 6.48 6.32 6.8 6" fill="none" stroke="#111" stroke-width="1.6" stroke-linecap="round"/><path d="M 6.8 8.25 Q 6.48 7.93 6.8 7.6" fill="none" stroke="#111" stroke-width="1.6" stroke-linecap="round"/><path d="M 6.8 9.85 Q 6.48 9.53 6.8 9.21" fill="none" stroke="#111" stroke-width="1.6" stroke-linecap="round"/><path d="M 6.8 11.46 Q 6.48 11.14 6.8 10.81" fill="none" stroke="#111" stroke-width="1.6" stroke-linecap="round"/><path d="M 6.8 13.06 Q 6.48 12.74 6.8 12.42" fill="none" stroke="#111" stroke-width="1.6" stroke-linecap="round"/><path d="M 6.8 14.67 Q 6.48 14.35 6.8 14.02" fill="none" stroke="#111" stroke-width="1.6" stroke-linecap="round"/><path d="M 6.8 16.27 Q 6.48 15.95 6.8 15.63" fill="none" stroke="#111" stroke-width="1.6" stroke-linecap="round"/><path d="M 6.8 17.88 Q 6.48 17.56 6.8 17.23" fill="none" stroke="#111" stroke-width="1.6" stroke-linecap="round"/><path d="M 6.8 19.48 Q 6.48 19.16 6.8 18.84" fill="none" stroke="#111" stroke-width="1.6" stroke-linecap="round"/><path d="M 6.8 21.09 Q 6.48 20.77 6.8 20.44" fill="none" stroke="#111" stroke-width="1.6" stroke-linecap="round"/><path d="M 6.8 22.69 Q 6.48 22.37 6.8 22.05" fill="none" stroke="#111" stroke-width="1.6" stroke-linecap="round"/><path d="M 6.8 24.3 Q 6.48 23.98 6.8 23.65" fill="none" stroke="#111" stroke-width="1.6" stroke-linecap="round"/><path d="M 6.8 25.9 Q 6.48 25.58 6.8 25.26" fill="none" stroke="#111" stroke-width="1.6" stroke-linecap="round"/><path d="M 6.8 27.51 Q 6.48 27.19 6.8 26.86" fill="none" stroke="#111" stroke-width="1.6" stroke-linecap="round"/><path d="M 6.8 29.11 Q 6.48 28.79 6.8 28.47" fill="none" stroke="#111" stroke-width="1.6" stroke-linecap="round"/><path d="M 6.8 30.72 Q 6.48 30.4 6.8 30.07" fill="none" stroke="#111" stroke-width="1.6" stroke-linecap="round"/><path d="M 6.8 32.32 Q 6.48 32 6.8 31.68" fill="none" stroke="#111" stroke-width="1.6" stroke-linecap="round"/><path d="M 6.8 33.93 Q 6.48 33.6 6.8 33.28" fill="none" stroke="#111" stroke-width="1.6" stroke-linecap="round"/><path d="M 6.8 35.53 Q 6.48 35.21 6.8 34.89" fill="none" stroke="#111" stroke-width="1.6" stroke-linecap="round"/><path d="M 6.8 37.14 Q 6.48 36.81 6.8 36.49" fill="none" stroke="#111" stroke-width="1.6" stroke-linecap="round"/><path d="M 6.8 38.74 Q 6.48 38.42 6.8 38.1" fill="none" stroke="#111" stroke-width="1.6" stroke-linecap="round"/><path d="M 6.8 40.35 Q 6.48 40.02 6.8 39.7" fill="none" stroke="#111" stroke-width="1.6" stroke-linecap="round"/><path d="M 6.8 41.95 Q 6.48 41.63 6.8 41.31" fill="none" stroke="#111" stroke-width="1.6" stroke-linecap="round"/><path d="M 6.8 43.56 Q 6.48 43.23 6.8 42.91" fill="none" stroke="#111" stroke-width="1.6" stroke-linecap="round"/><path d="M 6.8 45.16 Q 6.48 44.84 6.8 44.52" fill="none" stroke="#111" stroke-width="1.6" stroke-linecap="round"/><path d="M 6.8 46.77 Q 6.48 46.44 6.8 46.12" fill="none" stroke="#111" stroke-width="1.6" stroke-linecap="round"/><path d="M 6.8 48.37 Q 6.48 48.05 6.8 47.73" fill="none" stroke="#111" stroke-width="1.6" stroke-linecap="round"/><path d="M 6.8 49.98 Q 6.48 49.65 6.8 49.33" fill="none" stroke="#111" stroke-width="1.6" stroke-linecap="round"/><path d="M 6.8 51.58 Q 6.48 51.26 6.8 50.94" fill="none" stroke="#111" stroke-width="1.6" stroke-linecap="round"/><path d="M 6.8 53.19 Q 6.48 52.86 6.8 52.54" fill="none" stroke="#111" stroke-width="1.6" stroke-linecap="round"/><path d="M 6.8 54.79 Q 6.48 54.47 6.8 54.15" fill="none" stroke="#111" stroke-width="1.6" stroke-linecap="round"/><path d="M 6.8 56.4 Q 6.48 56.07 6.8 55.75" fill="none" stroke="#111" stroke-width="1.6" stroke-linecap="round"/><path d="M 6.8 58 Q 6.48 57.68 6.8 57.36" fill="none" stroke="#111" stroke-width="1.6" stroke-linecap="round"/></svg>