<svg xmlns="http://www.w3.org/2000/svg" width="96" height="64" viewBox="0 0 96 64"><rect x="6" y="6" width="0.32" height="0.09" fill="none" stroke="#111" stroke-width="1.6"/><rect x="6" y="6.94" width="0.32" height="0.1" fill="none" stroke="#111" stroke-width="1.6"/><rect x="6" y="7.89" width="0.32" height="0.09" fill="none" stroke="#111" stroke-width="1.6"/><rect x="6" y="8.83" width="0.32" height="0.1" fill="none" stroke="#111" stroke-width="1.6"/><rect x="6" y="9.77" width="0.32" height="0.1" fill="none" stroke="#111" stroke-width="1.6"/><rect x="6" y="10.72" width="0.32" height="0.09" fill="none" stroke="#111" stroke-width="1.6"/><rect x="6" y="11.66" width="0.32" height="0.1" fill="none" stroke="#111" stroke-width="1.6"/><rect x="6" y="12.61" width="0.32" height="0.09" fill="none" stroke="#111" stroke-width="1.6"/><rect x="6" y="13.55" width="0.32" height="0.09" fill="none" stroke="#111" stroke-width="1.6"/><rect x="6" y="14.49" width="0.32" height="0.1" fill="none" stroke="#111" stroke-width="1.6"/><rect x="6" y="15.44" width="0.32" height="0.09" fill="none" stroke="#111" stroke-width="1.6"/><rect x="6" y="16.38" width="0.32" height="0.1" fill="none" stroke="#111" stroke-width="1.6"/><rect x="6" y="17.32" width="0.32" height="0.1" fill="none" stroke="#111" stroke-width="1.6"/><rect x="6" y="18.27" width="0.32" height="0.09" fill="none" stroke="#111" stroke-width="1.6"/><rect x="6" y="19.21" width="0.32" height="0.1" fill="none" stroke="#111" stroke-width="1.6"/><rect x="6" y="20.16" width="0.32" height="0.09" fill="none" stroke="#111" stroke-width="1.6"/><rect x="6" y="21.1" width="0.32" height="0.09" fill="none" stroke="#111" stroke-width="1.6"/><rect x="6" y="22.04" width="0.32" height="0.1" fill="none" stroke="#111" stroke-width="1.6"/><rect x="6" y="22.99" width="0.32" height="0.09" fill="none" stroke="#111" stroke-width="1.6"/><rect x="6" y="23.93" width="0.32" height="0.1" fill="none" stroke="#111" stroke-width="1.6"/><rect x="6" y="24.87" width="0.32" height="0.1" fill="none" stroke="#111" stroke-width="1.6"/><rect x="6" y="25.82" width="0.32" height="0.09" fill="none" stroke="#111" stroke-width="1.6"/><rect x="6" y="26.76" width="0.32" height="0.1" fill="none" stroke="#111" stroke-width="1.6"/><rect x="6" y="27.71" width="0.32" height="0.09" fill="none" stroke="#111" stroke-width="1.6"/><rect x="6" y="28.65" width="0.32" height="0.09" fill="none" stroke="#111" stroke-width="1.6"/><rect x="6" y="29.59" width="0.32" height="0.1" fill="none" stroke="#111" stroke-width="1.6"/><rect x="6" y="30.54" width="0.32" height="0.09" fill="none" stroke="#111" stroke-width="1.6"/><rect x="6" y="31.48" width="0.32" height="0.1" fill="none" stroke="#111" stroke-width="1.6"/><rect x="6" y="32.42" width="0.32" height="0.1" fill="none" stroke="#111" stroke-width="1.6"/><rect x="6" y="33.37" width="0.32" height="0.09" fill="none" stroke="#111" stroke-width="1.6"/><rect x="6" y="34.31" width="0.32" height="0.1" fill="none" stroke="#111" stroke-width="1.6"/><rect x="6" y="35.26" width="0.32" height="0.09" fill="none" stroke="#111" stroke-width="1.6"/><rect x="6" y="36.2" width="0.32" height="0.09" fill="none" stroke="#111" stroke-width="1.6"/><rect x="6" y="37.14" width="0.32" height="0.1" fill="none" stroke="#111" stroke-width="1.6"/><rect x="6" y="38.09" width="0.32" height="0.09" fill="none" stroke="#111" stroke-width="1.6"/><rect x="6" y="39.03" width="0.32" height="0.1" fill="none" stroke="#111" stroke-width="1.6"/><rect x="6" y="39.97" width="0.32" height="0.1" fill="none" stroke="#111" stroke-width="1.6"/><rect x="6" y="40.92" width="0.32" height="0.09" fill="none" stroke="#111" stroke-width="1.6"/><rect x="6" y="41.86" width="0.32" height="0.1" fill="none" stroke="#111" stroke-width="1.6"/><rect x="6" y="42.81" width="0.32" height="0.09" fill="none" stroke="#111" stroke-width="1.6"/><rect x="6" y="43.75" width="0.32" height="0.09" fill="none" stroke="#111" stroke-width="1.6"/><rect x="6" y="44.69" width="0.32" height="0.1" fill="none" stroke="#111" stroke-width="1.6"/><rect x="6" y="45.64" width="0.32" height="0.09" fill="none" stroke="#111" stroke-width="1.6"/><rect x="6" y="46.58" width="0.32" height="0.1" fill="none" stroke="#111" stroke-width="1.6"/><rect x="6" y="47.52" width="0.32" height="0.1" fill="none" stroke="#111" stroke-width="1.6"/><rect x="6" y="48.47" width="0.32" height="0.09" fill="none" stroke="#111" stroke-width="1.6"/><rect x="6" y="49.41" width="0.32" height="0.1" fill="none" stroke="#111" stroke-width="1.6"/><rect x="6" y="50.36" width="0.32" height="0.09" fill="none" stroke="#111" stroke-width="1.6"/><rect x="6" y="51.3" width="0.32" height="0.09" fill="none" stroke="#111" stroke-width="1.6"/><rect x="6" y="52.24" width="0.32" height="0.1" fill="none" stroke="#111" stroke-width="1.6"/><rect x="6" y="53.19" width="0.32" height="0.09" fill="none" stroke="#111" stroke-width="1.6"/><rect x="6" y="54.13" width="0.32" height="0.1" fill="none" stroke="#111" stroke-width="1.6"/><rect x="6" y="55.07" width="0.32" height="0.1" fill="none" stroke="#111" stroke-width="1.6"/><rect x="6" y="56.02" width="0.32" height="0.09" fill="none" stroke="#111" stroke-width="1.6"/><rect x="6" y="56.96" width="0.32" height="0.1" fill="none" stroke="#111" stroke-width="1.6"/><rect x="6" y="57.91" width="0.32" height="0.09" fill="none" stroke="#111" stroke-width="1.6"/><polyline points="6.47,6.05 6.32,6.05" fill="none" stroke="#111" stroke-width="1.6" stroke-linecap="round" stroke-linejoin="round"/><polyline points="6.47,6.99 6.32,6.99" fill="none" stroke="#111" stroke-width="1.6" stroke-linecap="round" stroke-linejoin="round"/><polyline points="6.47,7.93 6.32,7.93" fill="none" stroke="#111" stroke-width="1.6" stroke-linecap="round" stroke-linejoin="round"/><polyline points="6.47,8.88 6.32,8.88" fill="none" stroke="#111" stroke-width="1.6" stroke-linecap="round" stroke-linejoin="round"/><polyline points="6.47,9.82 6.32,9.82" fill="none" stroke="#111" stroke-width="1.6" stroke-linecap="round" stroke-linejoin="round"/><polyline points="6.47,10.77 6.32,10.77" fill="none" stroke="#111" stroke-width="1.6" stroke-linecap="round" stroke-linejoin="round"/><polyline points="6.47,11.71 6.32,11.71" fill="none" stroke="#111" stroke-width="1.6" stroke-linecap="round" stroke-linejoin="round"/><polyline points="6.47,12.65 6.32,12.65" fill="none" stroke="#111" stroke-width="1.6" stroke-linecap="round" stroke-linejoin="round"/><polyline points="6.47,13.6 6.32,13.6" fill="none" stroke="#111" stroke-width="1.6" stroke-linecap="round" stroke-linejoin="round"/><polyline points="6.47,14.54 6.32,14.54" fill="none" stroke="#111" stroke-width="1.6" stroke-linecap="round" stroke-linejoin="round"/><polyline points="6.47,15.48 6.32,15.48" fill="none" stroke="#111" stroke-width="1.6" stroke-linecap="round" stroke-linejoin="round"/><polyline points="6.47,16.43 6.32,16.43" fill="none" stroke="#111" stroke-width="1.6" stroke-linecap="round" stroke-linejoin="round"/><polyline points="6.47,17.37 6.32,17.37" fill="none" stroke="#111" stroke-width="1.6" stroke-linecap="round" stroke-linejoin="round"/><polyline points="6.47,18.32 6.32,18.32" fill="none" stroke="#111" stroke-width="1.6" stroke-linecap="round" stroke-linejoin="round"/><polyline points="6.47,19.26 6.32,19.26" fill="none" stroke="#111" stroke-width="1.6" stroke-linecap="round" stroke-linejoin="round"/><polyline points="6.47,20.2 6.32,20.2" fill="none" stroke="#111" stroke-width="1.6" stroke-linecap="round" stroke-linejoin="round"/><polyline points="6.47,21.15 6.32,21.15" fill="none" stroke="#111" stroke-width="1.6" stroke-linecap="round" stroke-linejoin="round"/><polyline points="6.47,22.09 6.32,22.09" fill="none" stroke="#111" stroke-width="1.6" stroke-linecap="round" stroke-linejoin="round"/><polyline points="6.47,23.03 6.32,23.03" fill="none" stroke="#111" stroke-width="1.6" stroke-linecap="round" stroke-linejoin="round"/><polyline points="6.47,23.98 6.32,23.98" fill="none" stroke="#111" stroke-width="1.6" stroke-linecap="round" stroke-linejoin="round"/><polyline points="6.47,24.92 6.32,24.92" fill="none" stroke="#111" stroke-width="1.6" stroke-linecap="round" stroke-linejoin="round"/><polyline points="6.47,25.87 6.32,25.87" fill="none" stroke="#111" stroke-width="1.6" stroke-linecap="round" stroke-linejoin="round"/><polyline points="6.47,26.81 6.32,26.81" fill="none" stroke="#111" stroke-width="1.6" stroke-linecap="round" stroke-linejoin="round"/><polyline points="6.47,27.75 6.32,27.75" fill="none" stroke="#111" stroke-width="1.6" stroke-linecap="round" stroke-linejoin="round"/><polyline points="6.47,28.7 6.32,28.7" fill="none" stroke="#111" stroke-width="1.6" stroke-linecap="round" stroke-linejoin="round"/><polyline points="6.47,29.64 6.32,29.64" fill="none" stroke="#111" stroke-width="1.6" stroke-linecap="round" stroke-linejoin="round"/><polyline points="6.47,30.58 6.32,30.58" fill="none" stroke="#111" stroke-width="1.6" stroke-linecap="round" stroke-linejoin="round"/><polyline points="6.47,31.53 6.32,31.53" fill="none" stroke="#111" stroke-width="1.6" stroke-linecap="round" stroke-linejoin="round"/><polyline points="6.47,32.47 6.32,32.47" fill="none" stroke="#111" stroke-width="1.6" stroke-linecap="round" stroke-linejoin="round"/><polyline points="6.47,33.42 6.32,33.42" fill="none" stroke="#111" stroke-width="1.6" stroke-linecap="round" stroke-linejoin="round"/><polyline points="6.47,34.36 6.32,34.36" fill="none" stroke="#111" stroke-width="1.6" stroke-linecap="round" stroke-linejoin="round"/><polyline points="6.47,35.3 6.32,35.3" fill="none" stroke="#111" stroke-width="1.6" stroke-linecap="round" stroke-linejoin="round"/><polyline points="6.47,36.25 6.32,36.25" fill="none" stroke="#111" stroke-width="1.6" stroke-linecap="round" stroke-linejoin="round"/><polyline points="6.47,37.19 6.32,37.19" fill="none" stroke="#111" stroke-width="1.6" stroke-linecap="round" stroke-linejoin="round"/><polyline points="6.47,38.13 6.32,38.13" fill="none" stroke="#111" stroke-width="1.6" stroke-linecap="round" stroke-linejoin="round"/><polyline points="6.47,39.08 6.32,39.08" fill="none" stroke="#111" stroke-width="1.6" stroke-linecap="round" stroke-linejoin="round"/><polyline points="6.47,40.02 6.32,40.02" fill="none" stroke="#111" stroke-width="1.6" stroke-linecap="round" stroke-linejoin="round"/><polyline points="6.47,40.97 6.32,40.97" fill="none" stroke="#111" stroke-width="1.6" stroke-linecap="round" stroke-linejoin="round"/><polyline points="6.47,41.91 6.32,41.91" fill="none" stroke="#111" stroke-width="1.6" stroke-linecap="round" stroke-linejoin="round"/><polyline points="6.47,42.85 6.32,42.85" fill="none" stroke="#111" stroke-width="1.6" stroke-linecap="round" stroke-linejoin="round"/><polyline points="6.47,43.8 6.32,43.8" fill="none" stroke="#111" stroke-width="1.6" stroke-linecap="round" stroke-linejoin="round"/><polyline points="6.47,44.74 6.32,44.74" fill="none" stroke="#111" stroke-width="1.6" stroke-linecap="round" stroke-linejoin="round"/><polyline points="6.47,45.68 6.32,45.68" fill="none" stroke="#111" stroke-width="1.6" stroke-linecap="round" stroke-linejoin="round"/><polyline points="6.47,46.63 6.32,46.63" fill="none" stroke="#111" stroke-width="1.6" stroke-linecap="round" stroke-linejoin="round"/><polyline points="6.47,47.57 6.32,47.57" fill="none" stroke="#111" stroke-width="1.6" stroke-linecap="round" stroke-linejoin="round"/><polyline points="6.47,48.52 6.32,48.52" fill="none" stroke="#111" stroke-width="1.6" stroke-linecap="round" stroke-linejoin="round"/><polyline points="6.47,49.46 6.32,49.46" fill="none" stroke="#111" stroke-width="1.6" stroke-linecap="round" stroke-linejoin="round"/><polyline points="6.47,50.4 6.32,50.4" fill="none" stroke="#111" stroke-width="1.6" stroke-linecap="round" stroke-linejoin="round"/><polyline points="6.47,51.35 6.32,51.35" fill="none" stroke="#111" stroke-width="1.6" stroke-linecap="round" stroke-linejoin="round"/><polyline points="6.47,52.29 6.32,52.29" fill="none" stroke="#111" stroke-width="1.6" stroke-linecap="round" stroke-linejoin="round"/><polyline points="6.47,53.23 6.32,53.23" fill="none" stroke="#111" stroke-width="1.6" stroke-linecap="round" stroke-linejoin="round"/><polyline points="6.47,54.18 6.32,54.18" fill="none" stroke="#111" stroke-width="1.6" stroke-linecap="round" stroke-linejoin="round"/><polyline points="6.47,55.12 6.32,55.12" fill="none" stroke="#111" stroke-width="1.6" stroke-linecap="round" stroke-linejoin="round"/><polyline points="6.47,56.07 6.32,56.07" fill="none" stroke="#111" stroke-width="1.6" stroke-linecap="round" stroke-linejoin="round"/><polyline points="6.47,57.01 6.32,57.01" fill="none" stroke="#111" stroke-width="1.6" stroke-linecap="round" stroke-linejoin="round"/><polyline points="6.47,57.95 6.32,57.95" fill="none" stroke="#111" stroke-width="1.6" stroke-linecap="round" stroke-linejoin="round"/></svg>