<svg xmlns="http://www.w3.org/2000/svg" width="96" height="64" viewBox="0 0 96 64"><polyline points="15.82,24.49 15.82,27.96 19.87,26.22 15.82,24.49 15.82,24.49" fill="none" stroke="#111" stroke-width="1.6" stroke-linecap="round" stroke-linejoin="round"/><polyline points="19.87,24.49 23.33,27.96 26.8,24.49 19.87,24.49 19.87,24.49" fill="none" stroke="#111" stroke-width="1.6" stroke-linecap="round" stroke-linejoin="round"/><rect x="6" y="23.33" width="28.89" height="5.78" fill="none" stroke="#111" stroke-width="1.6"/><rect x="6" y="29.11" width="28.89" height="5.78" fill="none" stroke="#111" stroke-width="1.6"/><rect x="6" y="34.89" width="28.89" height="5.78" fill="none" stroke="#111" stroke-width="1.6"/><rect x="6" y="40.67" width="28.89" height="5.77" fill="none" stroke="#111" stroke-width="1.6"/><rect x="6" y="46.44" width="28.89" height="5.78" fill="none" stroke="#111" stroke-width="1.6"/><rect x="6" y="52.22" width="28.89" height="5.78" fill="none" stroke="#111" stroke-width="1.6"/><polyline points="8.89,23.33 8.89,20.44 6,20.44 6,6 34.89,6 34.89,20.44 32,20.44 32,23.33 32,23.33" fill="none" stroke="#111" stroke-width="1.6" stroke-linecap="round" stroke-linejoin="round"/><polyline points="17.56,6 17.56,20.44 8.89,20.44 8.89,20.44" fill="none" stroke="#111" stroke-width="1.6" stroke-linecap="round" stroke-linejoin="round"/></svg>