<svg xmlns="http://www.w3.org/2000/svg" width="96" height="64" viewBox="0 0 96 64"><polyline points="6,6.44 6.67,6.44" fill="none" stroke="#111" stroke-width="1.6" stroke-linecap="round" stroke-linejoin="round"/><polyline points="6,8.67 6.67,8.67" fill="none" stroke="#111" stroke-width="1.6" stroke-linecap="round" stroke-linejoin="round"/><polyline points="6,10.89 6.67,10.89" fill="none" stroke="#111" stroke-width="1.6" stroke-linecap="round" stroke-linejoin="round"/><polyline points="6,13.11 6.67,13.11" fill="none" stroke="#111" stroke-width="1.6" stroke-linecap="round" stroke-linejoin="round"/><polyline points="6,15.33 6.67,15.33" fill="none" stroke="#111" stroke-width="1.6" stroke-linecap="round" stroke-linejoin="round"/><polyline points="6,17.56 6.67,17.56" fill="none" stroke="#111" stroke-width="1.6" stroke-linecap="round" stroke-linejoin="round"/><polyline points="6,19.78 6.67,19.78" fill="none" stroke="#111" stroke-width="1.6" stroke-linecap="round" stroke-linejoin="round"/><polyline points="6,22 6.67,22" fill="none" stroke="#111" stroke-width="1.6" stroke-linecap="round" stroke-linejoin="round"/><polyline points="6,24.22 6.67,24.22" fill="none" stroke="#111" stroke-width="1.6" stroke-linecap="round" stroke-linejoin="round"/><polyline points="6,26.44 6.67,26.44" fill="none" stroke="#111" stroke-width="1.6" stroke-linecap="round" stroke-linejoin="round"/><polyline points="6,28.67 6.67,28.67" fill="none" stroke="#111" stroke-width="1.6" stroke-linecap="round" stroke-linejoin="round"/><polyline points="6,30.89 6.67,30.89" fill="none" stroke="#111" stroke-width="1.6" stroke-linecap="round" stroke-linejoin="round"/><polyline points="6,33.11 6.67,33.11" fill="none" stroke="#111" stroke-width="1.6" stroke-linecap="round" stroke-linejoin="round"/><polyline points="6,35.33 6.67,35.33" fill="none" stroke="#111" stroke-width="1.6" stroke-linecap="round" stroke-linejoin="round"/><polyline points="6,37.56 6.67,37.56" fill="none" stroke="#111" stroke-width="1.6" stroke-linecap="round" stroke-linejoin="round"/><polyline points="6,39.78 6.67,39.78" fill="none" stroke="#111" stroke-width="1.6" stroke-linecap="round" stroke-linejoin="round"/><polyline points="6,42 6.67,42" fill="none" stroke="#111" stroke-width="1.6" stroke-linecap="round" stroke-linejoin="round"/><polyline points="6,44.22 6.67,44.22" fill="none" stroke="#111" stroke-width="1.6" stroke-linecap="round" stroke-linejoin="round"/><polyline points="6,46.44 6.67,46.44" fill="none" stroke="#111" stroke-width="1.6" stroke-linecap="round" stroke-linejoin="round"/><polyline points="6,48.67 6.67,48.67" fill="none" stroke="#111" stroke-width="1.6" stroke-linecap="round" stroke-linejoin="round"/><polyline points="6,50.89 6.67,50.89" fill="none" stroke="#111" stroke-width="1.6" stroke-linecap="round" stroke-linejoin="round"/><polyline points="6,53.11 6.67,53.11" fill="none" stroke="#111" stroke-width="1.6" stroke-linecap="round" stroke-linejoin="round"/><polyline points="6,55.33 6.67,55.33" fill="none" stroke="#111" stroke-width="1.6" stroke-linecap="round" stroke-linejoin="round"/><polyline points="6,57.56 6.67,57.56" fill="none" stroke="#111" stroke-width="1.6" stroke-linecap="round" stroke-linejoin="round"/><path d="M 7.11 6.89 Q 6.67 6.44 7.11 6" fill="none" stroke="#111" stroke-width="1.6" stroke-linecap="round"/><path d="M 7.11 9.11 Q 6.67 8.67 7.11 8.22" fill="none" stroke="#111" stroke-width="1.6" stroke-linecap="round"/><path d="M 7.11 11.33 Q 6.67 10.89 7.11 10.44" fill="none" stroke="#111" stroke-width="1.6" stroke-linecap="round"/><path d="M 7.11 13.56 Q 6.67 13.11 7.11 12.67" fill="none" stroke="#111" stroke-width="1.6" stroke-linecap="round"/><path d="M 7.11 15.78 Q 6.67 15.33 7.11 14.89" fill="none" stroke="#111" stroke-width="1.6" stroke-linecap="round"/><path d="M 7.11 18 Q 6.67 17.56 7.11 17.11" fill="none" stroke="#111" stroke-width="1.6" stroke-linecap="round"/><path d="M 7.11 20.22 Q 6.67 19.78 7.11 19.33" fill="none" stroke="#111" stroke-width="1.6" stroke-linecap="round"/><path d="M 7.11 22.44 Q 6.67 22 7.11 21.56" fill="none" stroke="#111" stroke-width="1.6" stroke-linecap="round"/><path d="M 7.11 24.67 Q 6.67 24.22 7.11 23.78" fill="none" stroke="#111" stroke-width="1.6" stroke-linecap="round"/><path d="M 7.11 26.89 Q 6.67 26.44 7.11 26" fill="none" stroke="#111" stroke-width="1.6" stroke-linecap="round"/><path d="M 7.11 29.11 Q 6.67 28.67 7.11 28.22" fill="none" stroke="#111" stroke-width="1.6" stroke-linecap="round"/><path d="M 7.11 31.33 Q 6.67 30.89 7.11 30.44" fill="none" stroke="#111" stroke-width="1.6" stroke-linecap="round"/><path d="M 7.11 33.56 Q 6.67 33.11 7.11 32.67" fill="none" stroke="#111" stroke-width="1.6" stroke-linecap="round"/><path d="M 7.11 35.78 Q 6.67 35.33 7.11 34.89" fill="none" stroke="#111" stroke-width="1.6" stroke-linecap="round"/><path d="M 7.11 38 Q 6.67 37.56 7.11 37.11" fill="none" stroke="#111" stroke-width="1.6" stroke-linecap="round"/><path d="M 7.11 40.22 Q 6.67 39.78 7.11 39.33" fill="none" stroke="#111" stroke-width="1.6" stroke-linecap="round"/><path d="M 7.11 42.44 Q 6.67 42 7.11 41.56" fill="none" stroke="#111" stroke-width="1.6" stroke-linecap="round"/><path d="M 7.11 44.67 Q 6.67 44.22 7.11 43.78" fill="none" stroke="#111" stroke-width="1.6" stroke-linecap="round"/><path d="M 7.11 46.89 Q 6.67 46.44 7.11 46" fill="none" stroke="#111" stroke-width="1.6" stroke-linecap="round"/><path d="M 7.11 49.11 Q 6.67 48.67 7.11 48.22" fill="none" stroke="#111" stroke-width="1.6" stroke-linecap="round"/><path d="M 7.11 51.33 Q 6.67 50.89 7.11 50.44" fill="none" stroke="#111" stroke-width="1.6" stroke-linecap="round"/><path d="M 7.11 53.56 Q 6.67 53.11 7.11 52.67" fill="none" stroke="#111" stroke-width="1.6" stroke-linecap="round"/><path d="M 7.11 55.78 Q 6.67 55.33 7.11 54.89" fill="none" stroke="#111" stroke-width="1.6" stroke-linecap="round"/><path d="M 7.11 58 Q 6.67 57.56 7.11 57.11" fill="none" stroke="#111" stroke-width="1.6" stroke-linecap="round"/></svg>