<svg xmlns="http://www.w3.org/2000/svg" width="96" height="64" viewBox="0 0 96 64"><polyline points="17.27,8.17 21.6,10.77 21.6,52.8 17.27,55.4 17.27,8.17" fill="none" stroke="#111" stroke-width="1.6" stroke-linecap="round" stroke-linejoin="round"/><polyline points="33.73,26.37 33.73,33.3 25.93,33.3 23.77,29.83 25.93,26.37 33.73,26.37" fill="none" stroke="#111" stroke-width="1.6" stroke-linecap="round" stroke-linejoin="round"/><polyline points="35.47,15.97 24.63,15.97 24.63,8.17 19.43,8.17 19.43,9.47" fill="none" stroke="#111" stroke-width="1.6" stroke-linecap="round" stroke-linejoin="round"/><polyline points="21.6,29.83 23.77,29.83" fill="none" stroke="#111" stroke-width="1.6" stroke-linecap="round" stroke-linejoin="round"/><rect x="28.1" y="39.8" width="4.33" height="5.63" fill="none" stroke="#111" stroke-width="1.6"/><polyline points="29.4,41.97 28.97,42.4" fill="none" stroke="#111" stroke-width="1.6" stroke-linecap="round" stroke-linejoin="round"/><polyline points="29.4,41.97 31.13,41.97 31.57,41.53" fill="none" stroke="#111" stroke-width="1.6" stroke-linecap="round" stroke-linejoin="round"/><polyline points="30.27,33.73 30.7,34.17" fill="none" stroke="#111" stroke-width="1.6" stroke-linecap="round" stroke-linejoin="round"/><polyline points="30.27,39.8 30.27,33.73 29.83,34.17" fill="none" stroke="#111" stroke-width="1.6" stroke-linecap="round" stroke-linejoin="round"/><polyline points="30.27,41.1 30.27,44.13" fill="none" stroke="#111" stroke-width="1.6" stroke-linecap="round" stroke-linejoin="round"/><polyline points="30.27,41.97 29.4,43.27 31.13,43.27 30.27,41.97" fill="none" stroke="#111" stroke-width="1.6" stroke-linecap="round" stroke-linejoin="round"/><polyline points="33.73,29.83 35.47,29.83" fill="none" stroke="#111" stroke-width="1.6" stroke-linecap="round" stroke-linejoin="round"/><rect x="35.47" y="12.5" width="5.41" height="20.37" fill="none" stroke="#111" stroke-width="1.6"/><rect x="6" y="6" width="43.33" height="52" fill="none" stroke="#111" stroke-width="1.6"/></svg>