<svg xmlns="http://www.w3.org/2000/svg" width="96" height="64" viewBox="0 0 96 64"><rect x="6" y="6" width="52" height="52" fill="none" stroke="#111" stroke-width="1.6"/><polyline points="25.5,25.5 25.5,22.9 30.05,22.9" fill="none" stroke="#111" stroke-width="1.6" stroke-linecap="round" stroke-linejoin="round"/><polyline points="25.5,38.5 25.5,35.9 30.05,35.9" fill="none" stroke="#111" stroke-width="1.6" stroke-linecap="round" stroke-linejoin="round"/><polyline points="30.05,25.5 30.05,20.3 34.6,22.9 30.05,25.5" fill="none" stroke="#111" stroke-width="1.6" stroke-linecap="round" stroke-linejoin="round"/><polyline points="30.05,28.1 25.5,28.1 25.5,25.5 22.25,25.5" fill="none" stroke="#111" stroke-width="1.6" stroke-linecap="round" stroke-linejoin="round"/><polyline points="30.05,38.5 30.05,33.3 34.6,35.9 30.05,38.5" fill="none" stroke="#111" stroke-width="1.6" stroke-linecap="round" stroke-linejoin="round"/><polyline points="30.05,41.1 25.5,41.1 25.5,38.5 22.25,38.5" fill="none" stroke="#111" stroke-width="1.6" stroke-linecap="round" stroke-linejoin="round"/><polyline points="34.6,22.9 39.15,22.9 39.15,25.5 42.4,25.5" fill="none" stroke="#111" stroke-width="1.6" stroke-linecap="round" stroke-linejoin="round"/><polyline points="34.6,25.5 34.6,30.05 34.6,30.7 30.05,28.1 34.6,25.5" fill="none" stroke="#111" stroke-width="1.6" stroke-linecap="round" stroke-linejoin="round"/><polyline points="34.6,35.9 39.15,35.9 39.15,38.5 42.4,38.5" fill="none" stroke="#111" stroke-width="1.6" stroke-linecap="round" stroke-linejoin="round"/><polyline points="34.6,38.5 34.6,43.05 34.6,43.7 30.05,41.1 34.6,38.5" fill="none" stroke="#111" stroke-width="1.6" stroke-linecap="round" stroke-linejoin="round"/><polyline points="39.15,25.5 39.15,28.1 34.6,28.1" fill="none" stroke="#111" stroke-width="1.6" stroke-linecap="round" stroke-linejoin="round"/><polyline points="39.15,38.5 39.15,41.1 34.6,41.1" fill="none" stroke="#111" stroke-width="1.6" stroke-linecap="round" stroke-linejoin="round"/></svg>