<svg xmlns="http://www.w3.org/2000/svg" width="96" height="64" viewBox="0 0 96 64"><polyline points="11.14,44.65 17.56,44.65 17.56,52.35" fill="none" stroke="#111" stroke-width="1.6" stroke-linecap="round" stroke-linejoin="round"/><polyline points="13.7,31.81 7.28,31.81" fill="none" stroke="#111" stroke-width="1.6" stroke-linecap="round" stroke-linejoin="round"/><circle cx="16.27" cy="31.81" r="2.57" fill="none" stroke="#111" stroke-width="1.6"/><polyline points="18.84,18.97 6,18.97" fill="none" stroke="#111" stroke-width="1.6" stroke-linecap="round" stroke-linejoin="round"/><circle cx="21.41" cy="19.1" r="2.57" fill="none" stroke="#111" stroke-width="1.6"/><circle cx="22.69" cy="44.65" r="2.57" fill="none" stroke="#111" stroke-width="1.6"/><polyline points="22.69,47.21 22.69,49.78 7.28,49.78 7.28,44.65" fill="none" stroke="#111" stroke-width="1.6" stroke-linecap="round" stroke-linejoin="round"/><polyline points="27.83,6.13 27.83,9.98 38.1,9.98 38.1,6.13" fill="none" stroke="#111" stroke-width="1.6" stroke-linecap="round" stroke-linejoin="round"/><polyline points="32.96,6 32.96,16.4" fill="none" stroke="#111" stroke-width="1.6" stroke-linecap="round" stroke-linejoin="round"/><circle cx="32.96" cy="18.97" r="2.57" fill="none" stroke="#111" stroke-width="1.6"/><path d="M 48.37 52.35 Q 32.96 57.49 17.56 52.35" fill="none" stroke="#111" stroke-width="1.6" stroke-linecap="round"/><path d="M 38.1 6.13 Q 56.54 21.01 54.79 44.65" fill="none" stroke="#111" stroke-width="1.6" stroke-linecap="round"/><path d="M 11.14 44.65 Q 9.59 21.1 27.83 6.13" fill="none" stroke="#111" stroke-width="1.6" stroke-linecap="round"/><polyline points="35.92,34.38 35.92,52.09 32.96,52.09 32.96,58" fill="none" stroke="#111" stroke-width="1.6" stroke-linecap="round" stroke-linejoin="round"/><circle cx="43.23" cy="44.65" r="2.57" fill="none" stroke="#111" stroke-width="1.6"/><polyline points="43.23,47.21 43.23,49.78 58.64,49.78 58.64,44.65" fill="none" stroke="#111" stroke-width="1.6" stroke-linecap="round" stroke-linejoin="round"/><circle cx="44.52" cy="18.97" r="2.57" fill="none" stroke="#111" stroke-width="1.6"/><polyline points="47.09,18.97 58.64,18.97" fill="none" stroke="#111" stroke-width="1.6" stroke-linecap="round" stroke-linejoin="round"/><circle cx="49.65" cy="31.81" r="2.57" fill="none" stroke="#111" stroke-width="1.6"/><polyline points="54.79,44.65 48.37,44.65 48.37,52.35" fill="none" stroke="#111" stroke-width="1.6" stroke-linecap="round" stroke-linejoin="round"/><polyline points="58.64,31.81 52.22,31.81" fill="none" stroke="#111" stroke-width="1.6" stroke-linecap="round" stroke-linejoin="round"/><circle cx="35.66" cy="31.81" r="2.57" fill="none" stroke="#111" stroke-width="1.6"/></svg>