<svg xmlns="http://www.w3.org/2000/svg" width="96" height="64" viewBox="0 0 96 64"><rect x="6" y="6" width="3.67" height="51.45" fill="none" stroke="#111" stroke-width="1.6"/><rect x="6" y="6.83" width="0.92" height="0.18" fill="none" stroke="#111" stroke-width="1.6"/><rect x="6" y="8.66" width="0.92" height="0.19" fill="none" stroke="#111" stroke-width="1.6"/><rect x="6" y="10.5" width="0.92" height="0.19" fill="none" stroke="#111" stroke-width="1.6"/><rect x="6" y="12.34" width="0.92" height="0.18" fill="none" stroke="#111" stroke-width="1.6"/><rect x="6" y="14.18" width="0.92" height="0.18" fill="none" stroke="#111" stroke-width="1.6"/><rect x="6" y="16.01" width="0.92" height="0.19" fill="none" stroke="#111" stroke-width="1.6"/><rect x="6" y="17.85" width="0.92" height="0.19" fill="none" stroke="#111" stroke-width="1.6"/><rect x="6" y="19.69" width="0.92" height="0.18" fill="none" stroke="#111" stroke-width="1.6"/><rect x="6" y="21.53" width="0.92" height="0.18" fill="none" stroke="#111" stroke-width="1.6"/><rect x="6" y="23.36" width="0.92" height="0.19" fill="none" stroke="#111" stroke-width="1.6"/><rect x="6" y="25.2" width="0.92" height="0.19" fill="none" stroke="#111" stroke-width="1.6"/><rect x="6" y="27.04" width="0.92" height="0.18" fill="none" stroke="#111" stroke-width="1.6"/><rect x="6" y="28.88" width="0.92" height="0.18" fill="none" stroke="#111" stroke-width="1.6"/><rect x="6" y="30.71" width="0.92" height="0.19" fill="none" stroke="#111" stroke-width="1.6"/><rect x="6" y="32.55" width="0.92" height="0.18" fill="none" stroke="#111" stroke-width="1.6"/><rect x="6" y="34.39" width="0.92" height="0.18" fill="none" stroke="#111" stroke-width="1.6"/><rect x="6" y="36.23" width="0.92" height="0.18" fill="none" stroke="#111" stroke-width="1.6"/><rect x="6" y="38.06" width="0.92" height="0.19" fill="none" stroke="#111" stroke-width="1.6"/><rect x="6" y="39.9" width="0.92" height="0.18" fill="none" stroke="#111" stroke-width="1.6"/><rect x="6" y="41.74" width="0.92" height="0.18" fill="none" stroke="#111" stroke-width="1.6"/><rect x="6" y="43.58" width="0.92" height="0.18" fill="none" stroke="#111" stroke-width="1.6"/><rect x="6" y="45.41" width="0.92" height="0.19" fill="none" stroke="#111" stroke-width="1.6"/><rect x="6" y="47.25" width="0.92" height="0.18" fill="none" stroke="#111" stroke-width="1.6"/><rect x="6" y="49.09" width="0.92" height="0.18" fill="none" stroke="#111" stroke-width="1.6"/><rect x="6" y="50.93" width="0.92" height="0.18" fill="none" stroke="#111" stroke-width="1.6"/><rect x="6" y="52.76" width="0.92" height="0.19" fill="none" stroke="#111" stroke-width="1.6"/><rect x="6" y="54.6" width="0.92" height="0.18" fill="none" stroke="#111" stroke-width="1.6"/><rect x="6" y="56.44" width="0.92" height="0.18" fill="none" stroke="#111" stroke-width="1.6"/><polyline points="7.1,58 8.57,58" fill="none" stroke="#111" stroke-width="1.6" stroke-linecap="round" stroke-linejoin="round"/><rect x="8.76" y="6.83" width="0.91" height="0.18" fill="none" stroke="#111" stroke-width="1.6"/><rect x="8.76" y="8.66" width="0.91" height="0.19" fill="none" stroke="#111" stroke-width="1.6"/><rect x="8.76" y="10.5" width="0.91" height="0.19" fill="none" stroke="#111" stroke-width="1.6"/><rect x="8.76" y="12.34" width="0.91" height="0.18" fill="none" stroke="#111" stroke-width="1.6"/><rect x="8.76" y="14.18" width="0.91" height="0.18" fill="none" stroke="#111" stroke-width="1.6"/><rect x="8.76" y="16.01" width="0.91" height="0.19" fill="none" stroke="#111" stroke-width="1.6"/><rect x="8.76" y="17.85" width="0.91" height="0.19" fill="none" stroke="#111" stroke-width="1.6"/><rect x="8.76" y="19.69" width="0.91" height="0.18" fill="none" stroke="#111" stroke-width="1.6"/><rect x="8.76" y="21.53" width="0.91" height="0.18" fill="none" stroke="#111" stroke-width="1.6"/><rect x="8.76" y="23.36" width="0.91" height="0.19" fill="none" stroke="#111" stroke-width="1.6"/><rect x="8.76" y="25.2" width="0.91" height="0.19" fill="none" stroke="#111" stroke-width="1.6"/><rect x="8.76" y="27.04" width="0.91" height="0.18" fill="none" stroke="#111" stroke-width="1.6"/><rect x="8.76" y="28.88" width="0.91" height="0.18" fill="none" stroke="#111" stroke-width="1.6"/><rect x="8.76" y="30.71" width="0.91" height="0.19" fill="none" stroke="#111" stroke-width="1.6"/><rect x="8.76" y="32.55" width="0.91" height="0.18" fill="none" stroke="#111" stroke-width="1.6"/><rect x="8.76" y="34.39" width="0.91" height="0.18" fill="none" stroke="#111" stroke-width="1.6"/><rect x="8.76" y="36.23" width="0.91" height="0.18" fill="none" stroke="#111" stroke-width="1.6"/><rect x="8.76" y="38.06" width="0.91" height="0.19" fill="none" stroke="#111" stroke-width="1.6"/><rect x="8.76" y="39.9" width="0.91" height="0.18" fill="none" stroke="#111" stroke-width="1.6"/><rect x="8.76" y="41.74" width="0.91" height="0.18" fill="none" stroke="#111" stroke-width="1.6"/><rect x="8.76" y="43.58" width="0.91" height="0.18" fill="none" stroke="#111" stroke-width="1.6"/><rect x="8.76" y="45.41" width="0.91" height="0.19" fill="none" stroke="#111" stroke-width="1.6"/><rect x="8.76" y="47.25" width="0.91" height="0.18" fill="none" stroke="#111" stroke-width="1.6"/><rect x="8.76" y="49.09" width="0.91" height="0.18" fill="none" stroke="#111" stroke-width="1.6"/><rect x="8.76" y="50.93" width="0.91" height="0.18" fill="none" stroke="#111" stroke-width="1.6"/><rect x="8.76" y="52.76" width="0.91" height="0.19" fill="none" stroke="#111" stroke-width="1.6"/><rect x="8.76" y="54.6" width="0.91" height="0.18" fill="none" stroke="#111" stroke-width="1.6"/></svg>