<svg xmlns="http://www.w3.org/2000/svg" width="96" height="64" viewBox="0 0 96 64"><rect x="6" y="6" width="2.89" height="52" fill="none" stroke="#111" stroke-width="1.6"/><rect x="6" y="6.65" width="0.72" height="0.14" fill="none" stroke="#111" stroke-width="1.6"/><rect x="6" y="8.09" width="0.72" height="0.15" fill="none" stroke="#111" stroke-width="1.6"/><rect x="6" y="9.54" width="0.72" height="0.14" fill="none" stroke="#111" stroke-width="1.6"/><rect x="6" y="10.98" width="0.72" height="0.15" fill="none" stroke="#111" stroke-width="1.6"/><rect x="6" y="12.43" width="0.72" height="0.14" fill="none" stroke="#111" stroke-width="1.6"/><rect x="6" y="13.87" width="0.72" height="0.15" fill="none" stroke="#111" stroke-width="1.6"/><rect x="6" y="15.32" width="0.72" height="0.14" fill="none" stroke="#111" stroke-width="1.6"/><rect x="6" y="16.76" width="0.72" height="0.15" fill="none" stroke="#111" stroke-width="1.6"/><rect x="6" y="18.21" width="0.72" height="0.14" fill="none" stroke="#111" stroke-width="1.6"/><rect x="6" y="19.65" width="0.72" height="0.14" fill="none" stroke="#111" stroke-width="1.6"/><rect x="6" y="21.09" width="0.72" height="0.15" fill="none" stroke="#111" stroke-width="1.6"/><rect x="6" y="22.54" width="0.72" height="0.14" fill="none" stroke="#111" stroke-width="1.6"/><rect x="6" y="23.98" width="0.72" height="0.15" fill="none" stroke="#111" stroke-width="1.6"/><rect x="6" y="25.43" width="0.72" height="0.14" fill="none" stroke="#111" stroke-width="1.6"/><rect x="6" y="26.87" width="0.72" height="0.15" fill="none" stroke="#111" stroke-width="1.6"/><rect x="6" y="28.32" width="0.72" height="0.14" fill="none" stroke="#111" stroke-width="1.6"/><rect x="6" y="29.76" width="0.72" height="0.15" fill="none" stroke="#111" stroke-width="1.6"/><rect x="6" y="31.21" width="0.72" height="0.14" fill="none" stroke="#111" stroke-width="1.6"/><rect x="6" y="32.65" width="0.72" height="0.14" fill="none" stroke="#111" stroke-width="1.6"/><rect x="6" y="34.09" width="0.72" height="0.15" fill="none" stroke="#111" stroke-width="1.6"/><rect x="6" y="35.54" width="0.72" height="0.14" fill="none" stroke="#111" stroke-width="1.6"/><rect x="6" y="36.98" width="0.72" height="0.15" fill="none" stroke="#111" stroke-width="1.6"/><rect x="6" y="38.43" width="0.72" height="0.14" fill="none" stroke="#111" stroke-width="1.6"/><rect x="6" y="39.87" width="0.72" height="0.15" fill="none" stroke="#111" stroke-width="1.6"/><rect x="6" y="41.32" width="0.72" height="0.14" fill="none" stroke="#111" stroke-width="1.6"/><rect x="6" y="42.76" width="0.72" height="0.15" fill="none" stroke="#111" stroke-width="1.6"/><rect x="6" y="44.21" width="0.72" height="0.14" fill="none" stroke="#111" stroke-width="1.6"/><rect x="6" y="45.65" width="0.72" height="0.14" fill="none" stroke="#111" stroke-width="1.6"/><rect x="6" y="47.09" width="0.72" height="0.15" fill="none" stroke="#111" stroke-width="1.6"/><rect x="6" y="48.54" width="0.72" height="0.14" fill="none" stroke="#111" stroke-width="1.6"/><rect x="6" y="49.98" width="0.72" height="0.15" fill="none" stroke="#111" stroke-width="1.6"/><rect x="6" y="51.43" width="0.72" height="0.14" fill="none" stroke="#111" stroke-width="1.6"/><rect x="6" y="52.87" width="0.72" height="0.15" fill="none" stroke="#111" stroke-width="1.6"/><rect x="6" y="54.32" width="0.72" height="0.14" fill="none" stroke="#111" stroke-width="1.6"/><rect x="6" y="55.76" width="0.72" height="0.15" fill="none" stroke="#111" stroke-width="1.6"/><rect x="6" y="57.21" width="0.72" height="0.14" fill="none" stroke="#111" stroke-width="1.6"/><rect x="8.17" y="6.65" width="0.72" height="0.14" fill="none" stroke="#111" stroke-width="1.6"/><rect x="8.17" y="8.09" width="0.72" height="0.15" fill="none" stroke="#111" stroke-width="1.6"/><rect x="8.17" y="9.54" width="0.72" height="0.14" fill="none" stroke="#111" stroke-width="1.6"/><rect x="8.17" y="10.98" width="0.72" height="0.15" fill="none" stroke="#111" stroke-width="1.6"/><rect x="8.17" y="12.43" width="0.72" height="0.14" fill="none" stroke="#111" stroke-width="1.6"/><rect x="8.17" y="13.87" width="0.72" height="0.15" fill="none" stroke="#111" stroke-width="1.6"/><rect x="8.17" y="15.32" width="0.72" height="0.14" fill="none" stroke="#111" stroke-width="1.6"/><rect x="8.17" y="16.76" width="0.72" height="0.15" fill="none" stroke="#111" stroke-width="1.6"/><rect x="8.17" y="18.21" width="0.72" height="0.14" fill="none" stroke="#111" stroke-width="1.6"/><rect x="8.17" y="19.65" width="0.72" height="0.14" fill="none" stroke="#111" stroke-width="1.6"/><rect x="8.17" y="21.09" width="0.72" height="0.15" fill="none" stroke="#111" stroke-width="1.6"/><rect x="8.17" y="22.54" width="0.72" height="0.14" fill="none" stroke="#111" stroke-width="1.6"/><rect x="8.17" y="23.98" width="0.72" height="0.15" fill="none" stroke="#111" stroke-width="1.6"/><rect x="8.17" y="25.43" width="0.72" height="0.14" fill="none" stroke="#111" stroke-width="1.6"/><rect x="8.17" y="26.87" width="0.72" height="0.15" fill="none" stroke="#111" stroke-width="1.6"/><rect x="8.17" y="28.32" width="0.72" height="0.14" fill="none" stroke="#111" stroke-width="1.6"/><rect x="8.17" y="29.76" width="0.72" height="0.15" fill="none" stroke="#111" stroke-width="1.6"/><rect x="8.17" y="31.21" width="0.72" height="0.14" fill="none" stroke="#111" stroke-width="1.6"/><rect x="8.17" y="32.65" width="0.72" height="0.14" fill="none" stroke="#111" stroke-width="1.6"/><rect x="8.17" y="34.09" width="0.72" height="0.15" fill="none" stroke="#111" stroke-width="1.6"/><rect x="8.17" y="35.54" width="0.72" height="0.14" fill="none" stroke="#111" stroke-width="1.6"/><rect x="8.17" y="36.98" width="0.72" height="0.15" fill="none" stroke="#111" stroke-width="1.6"/><rect x="8.17" y="38.43" width="0.72" height="0.14" fill="none" stroke="#111" stroke-width="1.6"/><rect x="8.17" y="39.87" width="0.72" height="0.15" fill="none" stroke="#111" stroke-width="1.6"/><rect x="8.17" y="41.32" width="0.72" height="0.14" fill="none" stroke="#111" stroke-width="1.6"/><rect x="8.17" y="42.76" width="0.72" height="0.15" fill="none" stroke="#111" stroke-width="1.6"/><rect x="8.17" y="44.21" width="0.72" height="0.14" fill="none" stroke="#111" stroke-width="1.6"/><rect x="8.17" y="45.65" width="0.72" height="0.14" fill="none" stroke="#111" stroke-width="1.6"/><rect x="8.17" y="47.09" width="0.72" height="0.15" fill="none" stroke="#111" stroke-width="1.6"/><rect x="8.17" y="48.54" width="0.72" height="0.14" fill="none" stroke="#111" stroke-width="1.6"/><rect x="8.17" y="49.98" width="0.72" height="0.15" fill="none" stroke="#111" stroke-width="1.6"/><rect x="8.17" y="51.43" width="0.72" height="0.14" fill="none" stroke="#111" stroke-width="1.6"/><rect x="8.17" y="52.87" width="0.72" height="0.15" fill="none" stroke="#111" stroke-width="1.6"/><rect x="8.17" y="54.32" width="0.72" height="0.14" fill="none" stroke="#111" stroke-width="1.6"/><rect x="8.17" y="55.76" width="0.72" height="0.15" fill="none" stroke="#111" stroke-width="1.6"/></svg>