<svg xmlns="http://www.w3.org/2000/svg" width="96" height="64" viewBox="0 0 96 64"><polyline points="8.6,21.6 7.3,20.95" fill="none" stroke="#111" stroke-width="1.6" stroke-linecap="round" stroke-linejoin="round"/><polyline points="8.6,21.6 7.95,22.9" fill="none" stroke="#111" stroke-width="1.6" stroke-linecap="round" stroke-linejoin="round"/><path d="M 11.2 24.2 Q 8.6 26.79 6 24.2" fill="none" stroke="#111" stroke-width="1.6" stroke-linecap="round"/><path d="M 6 24.2 Q 6.76 22.36 8.6 21.6" fill="none" stroke="#111" stroke-width="1.6" stroke-linecap="round"/><polyline points="13.8,19 13.8,26.8 17.7,26.8" fill="none" stroke="#111" stroke-width="1.6" stroke-linecap="round" stroke-linejoin="round"/><polyline points="7.3,48.9 8.6,48.9 8.6,47.6 9.9,47.6 9.9,48.9 12.5,48.9 12.5,47.6 13.8,47.6 13.8,48.9 16.4,48.9" fill="none" stroke="#111" stroke-width="1.6" stroke-linecap="round" stroke-linejoin="round"/><polyline points="13.8,19 8.6,19" fill="none" stroke="#111" stroke-width="1.6" stroke-linecap="round" stroke-linejoin="round"/><polyline points="21.6,37.2 13.8,37.2 13.8,45 8.6,45" fill="none" stroke="#111" stroke-width="1.6" stroke-linecap="round" stroke-linejoin="round"/><path d="M 34.6 12.5 Q 34.59 27.37 21.6 34.6" fill="none" stroke="#111" stroke-width="1.6" stroke-linecap="round"/><polyline points="34.6,8.6 34.6,6" fill="none" stroke="#111" stroke-width="1.6" stroke-linecap="round" stroke-linejoin="round"/><polyline points="34.6,10.16 34.6,8.34" fill="none" stroke="#111" stroke-width="1.6" stroke-linecap="round" stroke-linejoin="round"/><circle cx="34.6" cy="26.8" r="16.64" fill="none" stroke="#111" stroke-width="1.6"/><path d="M 21.6 34.6 Q 34.6 26.57 47.6 34.6" fill="none" stroke="#111" stroke-width="1.6" stroke-linecap="round"/><polyline points="34.6,43.44 34.6,45.52" fill="none" stroke="#111" stroke-width="1.6" stroke-linecap="round" stroke-linejoin="round"/><polyline points="34.6,58 34.6,55.4" fill="none" stroke="#111" stroke-width="1.6" stroke-linecap="round" stroke-linejoin="round"/><path d="M 47.6 34.6 Q 34.84 27.23 34.6 12.5" fill="none" stroke="#111" stroke-width="1.6" stroke-linecap="round"/></svg>