<svg xmlns="http://www.w3.org/2000/svg" width="96" height="64" viewBox="0 0 96 64"><rect x="6" y="6" width="3.25" height="52" fill="none" stroke="#111" stroke-width="1.6"/><rect x="6" y="7.46" width="1.62" height="0.33" fill="none" stroke="#111" stroke-width="1.6"/><rect x="6" y="10.71" width="1.62" height="0.33" fill="none" stroke="#111" stroke-width="1.6"/><rect x="6" y="13.96" width="1.62" height="0.33" fill="none" stroke="#111" stroke-width="1.6"/><rect x="6" y="17.21" width="1.62" height="0.33" fill="none" stroke="#111" stroke-width="1.6"/><rect x="6" y="20.46" width="1.62" height="0.33" fill="none" stroke="#111" stroke-width="1.6"/><rect x="6" y="23.71" width="1.62" height="0.33" fill="none" stroke="#111" stroke-width="1.6"/><rect x="6" y="26.96" width="1.62" height="0.33" fill="none" stroke="#111" stroke-width="1.6"/><rect x="6" y="30.21" width="1.62" height="0.33" fill="none" stroke="#111" stroke-width="1.6"/><rect x="6" y="33.46" width="1.62" height="0.33" fill="none" stroke="#111" stroke-width="1.6"/><rect x="6" y="36.71" width="1.62" height="0.33" fill="none" stroke="#111" stroke-width="1.6"/><rect x="6" y="39.96" width="1.62" height="0.33" fill="none" stroke="#111" stroke-width="1.6"/><rect x="6" y="43.21" width="1.62" height="0.33" fill="none" stroke="#111" stroke-width="1.6"/><rect x="6" y="46.46" width="1.62" height="0.33" fill="none" stroke="#111" stroke-width="1.6"/><rect x="6" y="49.71" width="1.62" height="0.33" fill="none" stroke="#111" stroke-width="1.6"/><rect x="6" y="52.96" width="1.62" height="0.33" fill="none" stroke="#111" stroke-width="1.6"/><rect x="6" y="56.21" width="1.62" height="0.33" fill="none" stroke="#111" stroke-width="1.6"/></svg>