<svg xmlns="http://www.w3.org/2000/svg" width="96" height="64" viewBox="0 0 96 64"><polyline points="19.81,49.06 19.81,53.12 19,53.12 18.19,53.12" fill="none" stroke="#111" stroke-width="1.6" stroke-linecap="round" stroke-linejoin="round"/><polyline points="22.25,15.75 22.25,19 17.38,19" fill="none" stroke="#111" stroke-width="1.6" stroke-linecap="round" stroke-linejoin="round"/><polyline points="22.25,49.06 19,49.06 17.38,49.06 17.38,19" fill="none" stroke="#111" stroke-width="1.6" stroke-linecap="round" stroke-linejoin="round"/><polyline points="24.69,15.1 24.69,14.61" fill="none" stroke="#111" stroke-width="1.6" stroke-linecap="round" stroke-linejoin="round"/><polyline points="24.69,24.85 24.69,24.36" fill="none" stroke="#111" stroke-width="1.6" stroke-linecap="round" stroke-linejoin="round"/><polyline points="24.69,34.6 24.69,34.11" fill="none" stroke="#111" stroke-width="1.6" stroke-linecap="round" stroke-linejoin="round"/><polyline points="24.69,44.35 24.69,43.86" fill="none" stroke="#111" stroke-width="1.6" stroke-linecap="round" stroke-linejoin="round"/><polyline points="27.12,32 24.69,32 24.69,33.14" fill="none" stroke="#111" stroke-width="1.6" stroke-linecap="round" stroke-linejoin="round"/><rect x="6" y="6" width="32.5" height="52" fill="none" stroke="#111" stroke-width="1.6"/><circle cx="12.5" cy="54.75" r="0.65" fill="none" stroke="#111" stroke-width="1.6"/><circle cx="17.38" cy="28.75" r="0.46" fill="none" stroke="#111" stroke-width="1.6"/><polyline points="17.38,28.75 22.25,28.75 22.25,25.5" fill="none" stroke="#111" stroke-width="1.6" stroke-linecap="round" stroke-linejoin="round"/><circle cx="17.38" cy="38.5" r="0.46" fill="none" stroke="#111" stroke-width="1.6"/><polyline points="17.38,38.5 22.25,38.5 22.25,35.25" fill="none" stroke="#111" stroke-width="1.6" stroke-linecap="round" stroke-linejoin="round"/><polyline points="19,14.12 15.75,14.12 15.75,12.5 13.31,12.5" fill="none" stroke="#111" stroke-width="1.6" stroke-linecap="round" stroke-linejoin="round"/><polyline points="19,23.88 15.75,23.88 15.75,22.25 13.31,22.25" fill="none" stroke="#111" stroke-width="1.6" stroke-linecap="round" stroke-linejoin="round"/><polyline points="19,33.62 15.75,33.62 15.75,32 13.31,32" fill="none" stroke="#111" stroke-width="1.6" stroke-linecap="round" stroke-linejoin="round"/><polyline points="19,43.38 15.75,43.38 15.75,41.75 13.31,41.75" fill="none" stroke="#111" stroke-width="1.6" stroke-linecap="round" stroke-linejoin="round"/><circle cx="19.81" cy="49.06" r="0.46" fill="none" stroke="#111" stroke-width="1.6"/><polyline points="22.25,49.06 22.25,45" fill="none" stroke="#111" stroke-width="1.6" stroke-linecap="round" stroke-linejoin="round"/><polyline points="24.69,13.64 24.69,12.5 27.12,12.5" fill="none" stroke="#111" stroke-width="1.6" stroke-linecap="round" stroke-linejoin="round"/><circle cx="24.69" cy="15.75" r="0.65" fill="none" stroke="#111" stroke-width="1.6"/><polyline points="24.69,23.39 24.69,22.25 27.12,22.25" fill="none" stroke="#111" stroke-width="1.6" stroke-linecap="round" stroke-linejoin="round"/><circle cx="24.69" cy="25.5" r="0.65" fill="none" stroke="#111" stroke-width="1.6"/><circle cx="24.69" cy="35.25" r="0.65" fill="none" stroke="#111" stroke-width="1.6"/><polyline points="24.69,42.89 24.69,41.75 27.12,41.75" fill="none" stroke="#111" stroke-width="1.6" stroke-linecap="round" stroke-linejoin="round"/><circle cx="24.69" cy="45" r="0.65" fill="none" stroke="#111" stroke-width="1.6"/><polyline points="27.12,15.75 25.34,15.75" fill="none" stroke="#111" stroke-width="1.6" stroke-linecap="round" stroke-linejoin="round"/><polyline points="27.12,25.5 25.34,25.5" fill="none" stroke="#111" stroke-width="1.6" stroke-linecap="round" stroke-linejoin="round"/><polyline points="27.12,35.25 25.34,35.25" fill="none" stroke="#111" stroke-width="1.6" stroke-linecap="round" stroke-linejoin="round"/><polyline points="27.12,45 25.34,45" fill="none" stroke="#111" stroke-width="1.6" stroke-linecap="round" stroke-linejoin="round"/><polyline points="10.87,51.5 13.31,51.5" fill="none" stroke="#111" stroke-width="1.6" stroke-linecap="round" stroke-linejoin="round"/><polyline points="10.87,54.75 11.85,54.75" fill="none" stroke="#111" stroke-width="1.6" stroke-linecap="round" stroke-linejoin="round"/><path d="M 15.75 50.69 Q 18.18 53.12 15.75 55.56" fill="none" stroke="#111" stroke-width="1.6" stroke-linecap="round"/><polyline points="15.75,50.69 13.31,50.69 13.31,55.56 15.75,55.56" fill="none" stroke="#111" stroke-width="1.6" stroke-linecap="round" stroke-linejoin="round"/><polyline points="19,10.87 19,17.38 25.5,14.12 19,10.87" fill="none" stroke="#111" stroke-width="1.6" stroke-linecap="round" stroke-linejoin="round"/><polyline points="19,20.62 19,27.12 25.5,23.88 19,20.62" fill="none" stroke="#111" stroke-width="1.6" stroke-linecap="round" stroke-linejoin="round"/><polyline points="19,30.38 19,36.88 25.5,33.62 19,30.38" fill="none" stroke="#111" stroke-width="1.6" stroke-linecap="round" stroke-linejoin="round"/><polyline points="19,40.12 19,46.62 25.5,43.38 19,40.12" fill="none" stroke="#111" stroke-width="1.6" stroke-linecap="round" stroke-linejoin="round"/></svg>