<svg xmlns="http://www.w3.org/2000/svg" width="96" height="64" viewBox="0 0 96 64"><rect x="6" y="6" width="33.65" height="52" fill="none" stroke="#111" stroke-width="1.6"/><polyline points="9.82,41.18 15.18,41.18 15.18,42.32" fill="none" stroke="#111" stroke-width="1.6" stroke-linecap="round" stroke-linejoin="round"/><polyline points="9.82,45.76 15.18,45.76 15.18,44.62" fill="none" stroke="#111" stroke-width="1.6" stroke-linecap="round" stroke-linejoin="round"/><polyline points="10.59,48.82 12.12,48.82" fill="none" stroke="#111" stroke-width="1.6" stroke-linecap="round" stroke-linejoin="round"/><polyline points="11.35,30.47 12.12,30.47" fill="none" stroke="#111" stroke-width="1.6" stroke-linecap="round" stroke-linejoin="round"/><polyline points="11.35,30.47 11.74,30.09 11.74,30.85 11.35,30.47" fill="none" stroke="#111" stroke-width="1.6" stroke-linecap="round" stroke-linejoin="round"/><polyline points="12.12,36.59 10.97,36.59" fill="none" stroke="#111" stroke-width="1.6" stroke-linecap="round" stroke-linejoin="round"/><polyline points="13.65,34.29 15.18,34.29 14.41,35.06 13.65,34.29" fill="none" stroke="#111" stroke-width="1.6" stroke-linecap="round" stroke-linejoin="round"/><polyline points="14.41,32.76 14.41,34.29" fill="none" stroke="#111" stroke-width="1.6" stroke-linecap="round" stroke-linejoin="round"/><circle cx="14.41" cy="33.53" r="0.22" fill="none" stroke="#111" stroke-width="1.6"/><polyline points="14.41,33.53 17.47,33.53 17.47,32.76" fill="none" stroke="#111" stroke-width="1.6" stroke-linecap="round" stroke-linejoin="round"/><polyline points="14.41,36.59 15.18,36.59 15.18,37.35" fill="none" stroke="#111" stroke-width="1.6" stroke-linecap="round" stroke-linejoin="round"/><polyline points="14.41,48.82 19,48.82" fill="none" stroke="#111" stroke-width="1.6" stroke-linecap="round" stroke-linejoin="round"/><polyline points="14.41,48.82 14.41,48.82 17.47,48.82" fill="none" stroke="#111" stroke-width="1.6" stroke-linecap="round" stroke-linejoin="round"/><circle cx="15.18" cy="36.59" r="0.22" fill="none" stroke="#111" stroke-width="1.6"/><circle cx="15.18" cy="41.18" r="0.22" fill="none" stroke="#111" stroke-width="1.6"/><polyline points="15.18,41.18 15.18,39.65" fill="none" stroke="#111" stroke-width="1.6" stroke-linecap="round" stroke-linejoin="round"/><rect x="16.71" y="43.09" width="13" height="13" fill="none" stroke="#111" stroke-width="1.6"/><circle cx="17.47" cy="33.53" r="0.17" fill="none" stroke="#111" stroke-width="1.6"/><polyline points="17.47,33.53 17.47,36.59 19.76,36.59 19.76,33.53" fill="none" stroke="#111" stroke-width="1.6" stroke-linecap="round" stroke-linejoin="round"/><circle cx="17.47" cy="36.59" r="0.22" fill="none" stroke="#111" stroke-width="1.6"/><polyline points="17.47,36.59 14.41,36.59" fill="none" stroke="#111" stroke-width="1.6" stroke-linecap="round" stroke-linejoin="round"/><polyline points="17.47,45.76 20.15,45.76" fill="none" stroke="#111" stroke-width="1.6" stroke-linecap="round" stroke-linejoin="round"/><polyline points="18.24,33.15 18.24,33.91" fill="none" stroke="#111" stroke-width="1.6" stroke-linecap="round" stroke-linejoin="round"/><polyline points="18.24,33.53 19,33.15 19,33.91 18.24,33.53" fill="none" stroke="#111" stroke-width="1.6" stroke-linecap="round" stroke-linejoin="round"/><polyline points="18.24,53.79 19.76,53.79 19,54.56 18.24,53.79" fill="none" stroke="#111" stroke-width="1.6" stroke-linecap="round" stroke-linejoin="round"/><polyline points="19,36.59 18.24,36.97 18.24,36.21 19,36.59" fill="none" stroke="#111" stroke-width="1.6" stroke-linecap="round" stroke-linejoin="round"/><polyline points="19,36.59 25.88,36.59 25.88,42.71 25.88,44.62" fill="none" stroke="#111" stroke-width="1.6" stroke-linecap="round" stroke-linejoin="round"/><polyline points="19,36.97 19,36.21" fill="none" stroke="#111" stroke-width="1.6" stroke-linecap="round" stroke-linejoin="round"/><circle cx="19" cy="48.82" r="0.22" fill="none" stroke="#111" stroke-width="1.6"/><polyline points="19,53.79 19,51.88 19.76,51.88" fill="none" stroke="#111" stroke-width="1.6" stroke-linecap="round" stroke-linejoin="round"/><polyline points="19.76,32 19.76,33.53 17.47,33.53 17.47,28.94 18.24,28.94" fill="none" stroke="#111" stroke-width="1.6" stroke-linecap="round" stroke-linejoin="round"/><circle cx="19.76" cy="33.53" r="0.22" fill="none" stroke="#111" stroke-width="1.6"/><circle cx="19.76" cy="36.59" r="0.22" fill="none" stroke="#111" stroke-width="1.6"/><polyline points="19.76,37.35 22.82,37.35" fill="none" stroke="#111" stroke-width="1.6" stroke-linecap="round" stroke-linejoin="round"/><polyline points="19.76,47.29 23.59,50.35 19.76,53.41 19.76,47.29" fill="none" stroke="#111" stroke-width="1.6" stroke-linecap="round" stroke-linejoin="round"/><polyline points="20.53,45.76 20.15,46.15 20.15,45.38 20.53,45.76" fill="none" stroke="#111" stroke-width="1.6" stroke-linecap="round" stroke-linejoin="round"/><polyline points="21.29,22.82 21.29,20.53" fill="none" stroke="#111" stroke-width="1.6" stroke-linecap="round" stroke-linejoin="round"/><polyline points="21.29,22.82 20.91,22.44 21.68,22.44 21.29,22.82" fill="none" stroke="#111" stroke-width="1.6" stroke-linecap="round" stroke-linejoin="round"/><polyline points="21.29,25.88 21.29,26.65 23.59,26.65 23.59,29.23" fill="none" stroke="#111" stroke-width="1.6" stroke-linecap="round" stroke-linejoin="round"/><polyline points="21.29,27.41 25.12,30.47 21.29,33.53 21.29,27.41" fill="none" stroke="#111" stroke-width="1.6" stroke-linecap="round" stroke-linejoin="round"/><polyline points="21.29,28.94 20.53,28.94" fill="none" stroke="#111" stroke-width="1.6" stroke-linecap="round" stroke-linejoin="round"/><polyline points="21.29,32 19.76,32" fill="none" stroke="#111" stroke-width="1.6" stroke-linecap="round" stroke-linejoin="round"/><polyline points="21.29,45 22.82,45 22.06,45.76 21.29,45" fill="none" stroke="#111" stroke-width="1.6" stroke-linecap="round" stroke-linejoin="round"/><polyline points="22.06,45 22.06,43.85 22.82,43.85" fill="none" stroke="#111" stroke-width="1.6" stroke-linecap="round" stroke-linejoin="round"/><polyline points="22.82,37.35 22.44,37.74 22.44,36.97 22.82,37.35" fill="none" stroke="#111" stroke-width="1.6" stroke-linecap="round" stroke-linejoin="round"/><polyline points="23.59,28.94 23.21,28.56 23.97,28.56 23.59,28.94" fill="none" stroke="#111" stroke-width="1.6" stroke-linecap="round" stroke-linejoin="round"/><polyline points="23.59,50.35 27.72,50.35" fill="none" stroke="#111" stroke-width="1.6" stroke-linecap="round" stroke-linejoin="round"/><polyline points="24.35,48.82 24.35,51.88" fill="none" stroke="#111" stroke-width="1.6" stroke-linecap="round" stroke-linejoin="round"/><polyline points="24.35,49.97 25.5,48.82" fill="none" stroke="#111" stroke-width="1.6" stroke-linecap="round" stroke-linejoin="round"/><polyline points="24.35,50.74 25.5,51.88" fill="none" stroke="#111" stroke-width="1.6" stroke-linecap="round" stroke-linejoin="round"/><polyline points="25.5,48.82 25.5,46.53 19,46.53 19,48.82 19.76,48.82" fill="none" stroke="#111" stroke-width="1.6" stroke-linecap="round" stroke-linejoin="round"/><polyline points="25.5,51.88 25.12,51.88 25.5,51.5 25.5,51.88" fill="none" stroke="#111" stroke-width="1.6" stroke-linecap="round" stroke-linejoin="round"/><polyline points="25.88,20.53 26.26,20.91 25.5,20.91 25.88,20.53" fill="none" stroke="#111" stroke-width="1.6" stroke-linecap="round" stroke-linejoin="round"/><polyline points="25.88,22.82 25.88,22.06 25.88,20.53" fill="none" stroke="#111" stroke-width="1.6" stroke-linecap="round" stroke-linejoin="round"/><polyline points="25.88,25.88 25.88,30.47 25.12,30.47" fill="none" stroke="#111" stroke-width="1.6" stroke-linecap="round" stroke-linejoin="round"/><circle cx="25.88" cy="43.85" r="0.22" fill="none" stroke="#111" stroke-width="1.6"/><rect x="25.88" y="52.65" width="1.53" height="0.76" fill="none" stroke="#111" stroke-width="1.6"/><polyline points="25.88,53.03 25.5,53.03 25.5,51.88" fill="none" stroke="#111" stroke-width="1.6" stroke-linecap="round" stroke-linejoin="round"/><polyline points="27.41,22.82 27.41,20.53" fill="none" stroke="#111" stroke-width="1.6" stroke-linecap="round" stroke-linejoin="round"/><polyline points="27.41,22.82 27.03,22.44 27.79,22.44 27.41,22.82" fill="none" stroke="#111" stroke-width="1.6" stroke-linecap="round" stroke-linejoin="round"/><polyline points="27.41,43.09 26.65,42.32 27.41,42.32 27.41,41.18 27.41,26.65 27.41,25.88 27.41,25.88" fill="none" stroke="#111" stroke-width="1.6" stroke-linecap="round" stroke-linejoin="round"/><polyline points="27.41,50.35 27.03,50.74 27.03,49.97 27.41,50.35" fill="none" stroke="#111" stroke-width="1.6" stroke-linecap="round" stroke-linejoin="round"/><polyline points="27.41,53.03 28.18,53.03 28.18,51.73" fill="none" stroke="#111" stroke-width="1.6" stroke-linecap="round" stroke-linejoin="round"/><polyline points="28.18,48.98 28.18,43.85 25.12,43.85" fill="none" stroke="#111" stroke-width="1.6" stroke-linecap="round" stroke-linejoin="round"/><circle cx="28.18" cy="49.74" r="0.76" fill="none" stroke="#111" stroke-width="1.6"/><circle cx="28.18" cy="50.96" r="0.76" fill="none" stroke="#111" stroke-width="1.6"/><polyline points="28.18,53.03 28.18,54.18" fill="none" stroke="#111" stroke-width="1.6" stroke-linecap="round" stroke-linejoin="round"/><circle cx="28.18" cy="53.03" r="0.22" fill="none" stroke="#111" stroke-width="1.6"/><polyline points="28.94,25.88 28.94,26.65 28.94,26.65 28.94,42.32 29.71,42.32 28.94,43.09 29.71,42.32" fill="none" stroke="#111" stroke-width="1.6" stroke-linecap="round" stroke-linejoin="round"/><polyline points="29.71,23.59 30.47,23.59 30.47,22.82 31.24,23.59" fill="none" stroke="#111" stroke-width="1.6" stroke-linecap="round" stroke-linejoin="round"/><polyline points="29.71,25.12 30.47,25.12 30.47,25.88 31.24,25.12" fill="none" stroke="#111" stroke-width="1.6" stroke-linecap="round" stroke-linejoin="round"/><polyline points="30.47,10.59 30.85,10.21 30.85,10.97 30.47,10.59" fill="none" stroke="#111" stroke-width="1.6" stroke-linecap="round" stroke-linejoin="round"/><polyline points="30.47,12.12 30.85,11.74 30.85,12.5 30.47,12.12" fill="none" stroke="#111" stroke-width="1.6" stroke-linecap="round" stroke-linejoin="round"/><polyline points="30.47,13.65 30.85,13.26 30.85,14.03 30.47,13.65" fill="none" stroke="#111" stroke-width="1.6" stroke-linecap="round" stroke-linejoin="round"/><polyline points="30.47,15.18 30.85,14.79 30.85,15.56 30.47,15.18" fill="none" stroke="#111" stroke-width="1.6" stroke-linecap="round" stroke-linejoin="round"/><polyline points="30.47,16.71 30.85,16.32 30.85,17.09 30.47,16.71" fill="none" stroke="#111" stroke-width="1.6" stroke-linecap="round" stroke-linejoin="round"/><polyline points="30.47,19.76 36.59,19.76" fill="none" stroke="#111" stroke-width="1.6" stroke-linecap="round" stroke-linejoin="round"/><polyline points="35.82,10.59 30.47,10.59" fill="none" stroke="#111" stroke-width="1.6" stroke-linecap="round" stroke-linejoin="round"/><polyline points="36.59,15.18 30.47,15.18" fill="none" stroke="#111" stroke-width="1.6" stroke-linecap="round" stroke-linejoin="round"/><polyline points="36.59,19.76 36.21,20.15 36.21,19.38 36.59,19.76" fill="none" stroke="#111" stroke-width="1.6" stroke-linecap="round" stroke-linejoin="round"/><polyline points="37.35,12.12 30.47,12.12" fill="none" stroke="#111" stroke-width="1.6" stroke-linecap="round" stroke-linejoin="round"/><polyline points="37.35,13.65 30.47,13.65" fill="none" stroke="#111" stroke-width="1.6" stroke-linecap="round" stroke-linejoin="round"/><polyline points="37.35,16.71 30.47,16.71" fill="none" stroke="#111" stroke-width="1.6" stroke-linecap="round" stroke-linejoin="round"/></svg>