<svg xmlns="http://www.w3.org/2000/svg" width="96" height="64" viewBox="0 0 96 64"><rect x="6" y="6" width="0.59" height="0.17" fill="none" stroke="#111" stroke-width="1.6"/><rect x="6" y="7.73" width="0.59" height="0.17" fill="none" stroke="#111" stroke-width="1.6"/><rect x="6" y="9.46" width="0.59" height="0.17" fill="none" stroke="#111" stroke-width="1.6"/><rect x="6" y="11.18" width="0.59" height="0.18" fill="none" stroke="#111" stroke-width="1.6"/><rect x="6" y="12.91" width="0.59" height="0.17" fill="none" stroke="#111" stroke-width="1.6"/><rect x="6" y="14.64" width="0.59" height="0.17" fill="none" stroke="#111" stroke-width="1.6"/><rect x="6" y="16.37" width="0.59" height="0.17" fill="none" stroke="#111" stroke-width="1.6"/><rect x="6" y="18.09" width="0.59" height="0.18" fill="none" stroke="#111" stroke-width="1.6"/><rect x="6" y="19.82" width="0.59" height="0.17" fill="none" stroke="#111" stroke-width="1.6"/><rect x="6" y="21.55" width="0.59" height="0.17" fill="none" stroke="#111" stroke-width="1.6"/><rect x="6" y="23.28" width="0.59" height="0.17" fill="none" stroke="#111" stroke-width="1.6"/><rect x="6" y="25" width="0.59" height="0.18" fill="none" stroke="#111" stroke-width="1.6"/><rect x="6" y="26.73" width="0.59" height="0.17" fill="none" stroke="#111" stroke-width="1.6"/><rect x="6" y="28.46" width="0.59" height="0.17" fill="none" stroke="#111" stroke-width="1.6"/><rect x="6" y="30.19" width="0.59" height="0.17" fill="none" stroke="#111" stroke-width="1.6"/><rect x="6" y="31.91" width="0.59" height="0.18" fill="none" stroke="#111" stroke-width="1.6"/><rect x="6" y="33.64" width="0.59" height="0.17" fill="none" stroke="#111" stroke-width="1.6"/><rect x="6" y="35.37" width="0.59" height="0.17" fill="none" stroke="#111" stroke-width="1.6"/><rect x="6" y="37.1" width="0.59" height="0.17" fill="none" stroke="#111" stroke-width="1.6"/><rect x="6" y="38.82" width="0.59" height="0.18" fill="none" stroke="#111" stroke-width="1.6"/><rect x="6" y="40.55" width="0.59" height="0.17" fill="none" stroke="#111" stroke-width="1.6"/><rect x="6" y="42.28" width="0.59" height="0.17" fill="none" stroke="#111" stroke-width="1.6"/><rect x="6" y="44.01" width="0.59" height="0.17" fill="none" stroke="#111" stroke-width="1.6"/><rect x="6" y="45.73" width="0.59" height="0.18" fill="none" stroke="#111" stroke-width="1.6"/><rect x="6" y="47.46" width="0.59" height="0.17" fill="none" stroke="#111" stroke-width="1.6"/><rect x="6" y="49.19" width="0.59" height="0.17" fill="none" stroke="#111" stroke-width="1.6"/><rect x="6" y="50.92" width="0.59" height="0.17" fill="none" stroke="#111" stroke-width="1.6"/><rect x="6" y="52.64" width="0.59" height="0.18" fill="none" stroke="#111" stroke-width="1.6"/><rect x="6" y="54.37" width="0.59" height="0.17" fill="none" stroke="#111" stroke-width="1.6"/><rect x="6" y="56.1" width="0.59" height="0.17" fill="none" stroke="#111" stroke-width="1.6"/><rect x="6" y="57.83" width="0.59" height="0.17" fill="none" stroke="#111" stroke-width="1.6"/><polyline points="6.86,6.09 6.59,6.09" fill="none" stroke="#111" stroke-width="1.6" stroke-linecap="round" stroke-linejoin="round"/><polyline points="6.86,7.81 6.59,7.81" fill="none" stroke="#111" stroke-width="1.6" stroke-linecap="round" stroke-linejoin="round"/><polyline points="6.86,9.54 6.59,9.54" fill="none" stroke="#111" stroke-width="1.6" stroke-linecap="round" stroke-linejoin="round"/><polyline points="6.86,11.27 6.59,11.27" fill="none" stroke="#111" stroke-width="1.6" stroke-linecap="round" stroke-linejoin="round"/><polyline points="6.86,13 6.59,13" fill="none" stroke="#111" stroke-width="1.6" stroke-linecap="round" stroke-linejoin="round"/><polyline points="6.86,14.72 6.59,14.72" fill="none" stroke="#111" stroke-width="1.6" stroke-linecap="round" stroke-linejoin="round"/><polyline points="6.86,16.45 6.59,16.45" fill="none" stroke="#111" stroke-width="1.6" stroke-linecap="round" stroke-linejoin="round"/><polyline points="6.86,18.18 6.59,18.18" fill="none" stroke="#111" stroke-width="1.6" stroke-linecap="round" stroke-linejoin="round"/><polyline points="6.86,19.91 6.59,19.91" fill="none" stroke="#111" stroke-width="1.6" stroke-linecap="round" stroke-linejoin="round"/><polyline points="6.86,21.63 6.59,21.63" fill="none" stroke="#111" stroke-width="1.6" stroke-linecap="round" stroke-linejoin="round"/><polyline points="6.86,23.36 6.59,23.36" fill="none" stroke="#111" stroke-width="1.6" stroke-linecap="round" stroke-linejoin="round"/><polyline points="6.86,25.09 6.59,25.09" fill="none" stroke="#111" stroke-width="1.6" stroke-linecap="round" stroke-linejoin="round"/><polyline points="6.86,26.82 6.59,26.82" fill="none" stroke="#111" stroke-width="1.6" stroke-linecap="round" stroke-linejoin="round"/><polyline points="6.86,28.54 6.59,28.54" fill="none" stroke="#111" stroke-width="1.6" stroke-linecap="round" stroke-linejoin="round"/><polyline points="6.86,30.27 6.59,30.27" fill="none" stroke="#111" stroke-width="1.6" stroke-linecap="round" stroke-linejoin="round"/><polyline points="6.86,32 6.59,32" fill="none" stroke="#111" stroke-width="1.6" stroke-linecap="round" stroke-linejoin="round"/><polyline points="6.86,33.73 6.59,33.73" fill="none" stroke="#111" stroke-width="1.6" stroke-linecap="round" stroke-linejoin="round"/><polyline points="6.86,35.46 6.59,35.46" fill="none" stroke="#111" stroke-width="1.6" stroke-linecap="round" stroke-linejoin="round"/><polyline points="6.86,37.18 6.59,37.18" fill="none" stroke="#111" stroke-width="1.6" stroke-linecap="round" stroke-linejoin="round"/><polyline points="6.86,38.91 6.59,38.91" fill="none" stroke="#111" stroke-width="1.6" stroke-linecap="round" stroke-linejoin="round"/><polyline points="6.86,40.64 6.59,40.64" fill="none" stroke="#111" stroke-width="1.6" stroke-linecap="round" stroke-linejoin="round"/><polyline points="6.86,42.37 6.59,42.37" fill="none" stroke="#111" stroke-width="1.6" stroke-linecap="round" stroke-linejoin="round"/><polyline points="6.86,44.09 6.59,44.09" fill="none" stroke="#111" stroke-width="1.6" stroke-linecap="round" stroke-linejoin="round"/><polyline points="6.86,45.82 6.59,45.82" fill="none" stroke="#111" stroke-width="1.6" stroke-linecap="round" stroke-linejoin="round"/><polyline points="6.86,47.55 6.59,47.55" fill="none" stroke="#111" stroke-width="1.6" stroke-linecap="round" stroke-linejoin="round"/><polyline points="6.86,49.28 6.59,49.28" fill="none" stroke="#111" stroke-width="1.6" stroke-linecap="round" stroke-linejoin="round"/><polyline points="6.86,51 6.59,51" fill="none" stroke="#111" stroke-width="1.6" stroke-linecap="round" stroke-linejoin="round"/><polyline points="6.86,52.73 6.59,52.73" fill="none" stroke="#111" stroke-width="1.6" stroke-linecap="round" stroke-linejoin="round"/><polyline points="6.86,54.46 6.59,54.46" fill="none" stroke="#111" stroke-width="1.6" stroke-linecap="round" stroke-linejoin="round"/><polyline points="6.86,56.19 6.59,56.19" fill="none" stroke="#111" stroke-width="1.6" stroke-linecap="round" stroke-linejoin="round"/><polyline points="6.86,57.91 6.59,57.91" fill="none" stroke="#111" stroke-width="1.6" stroke-linecap="round" stroke-linejoin="round"/></svg>