<svg xmlns="http://www.w3.org/2000/svg" width="96" height="64" viewBox="0 0 96 64"><polyline points="6,6.54 6.8,6.54" fill="none" stroke="#111" stroke-width="1.6" stroke-linecap="round" stroke-linejoin="round"/><polyline points="6,9.22 6.8,9.22" fill="none" stroke="#111" stroke-width="1.6" stroke-linecap="round" stroke-linejoin="round"/><polyline points="6,11.9 6.8,11.9" fill="none" stroke="#111" stroke-width="1.6" stroke-linecap="round" stroke-linejoin="round"/><polyline points="6,14.58 6.8,14.58" fill="none" stroke="#111" stroke-width="1.6" stroke-linecap="round" stroke-linejoin="round"/><polyline points="6,17.26 6.8,17.26" fill="none" stroke="#111" stroke-width="1.6" stroke-linecap="round" stroke-linejoin="round"/><polyline points="6,19.94 6.8,19.94" fill="none" stroke="#111" stroke-width="1.6" stroke-linecap="round" stroke-linejoin="round"/><polyline points="6,22.62 6.8,22.62" fill="none" stroke="#111" stroke-width="1.6" stroke-linecap="round" stroke-linejoin="round"/><polyline points="6,25.3 6.8,25.3" fill="none" stroke="#111" stroke-width="1.6" stroke-linecap="round" stroke-linejoin="round"/><polyline points="6,27.98 6.8,27.98" fill="none" stroke="#111" stroke-width="1.6" stroke-linecap="round" stroke-linejoin="round"/><polyline points="6,30.66 6.8,30.66" fill="none" stroke="#111" stroke-width="1.6" stroke-linecap="round" stroke-linejoin="round"/><polyline points="6,33.34 6.8,33.34" fill="none" stroke="#111" stroke-width="1.6" stroke-linecap="round" stroke-linejoin="round"/><polyline points="6,36.02 6.8,36.02" fill="none" stroke="#111" stroke-width="1.6" stroke-linecap="round" stroke-linejoin="round"/><polyline points="6,38.7 6.8,38.7" fill="none" stroke="#111" stroke-width="1.6" stroke-linecap="round" stroke-linejoin="round"/><polyline points="6,41.38 6.8,41.38" fill="none" stroke="#111" stroke-width="1.6" stroke-linecap="round" stroke-linejoin="round"/><polyline points="6,44.06 6.8,44.06" fill="none" stroke="#111" stroke-width="1.6" stroke-linecap="round" stroke-linejoin="round"/><polyline points="6,46.74 6.8,46.74" fill="none" stroke="#111" stroke-width="1.6" stroke-linecap="round" stroke-linejoin="round"/><polyline points="6,49.42 6.8,49.42" fill="none" stroke="#111" stroke-width="1.6" stroke-linecap="round" stroke-linejoin="round"/><polyline points="6,52.1 6.8,52.1" fill="none" stroke="#111" stroke-width="1.6" stroke-linecap="round" stroke-linejoin="round"/><polyline points="6,54.78 6.8,54.78" fill="none" stroke="#111" stroke-width="1.6" stroke-linecap="round" stroke-linejoin="round"/><polyline points="6,57.46 6.8,57.46" fill="none" stroke="#111" stroke-width="1.6" stroke-linecap="round" stroke-linejoin="round"/><path d="M 7.34 7.07 Q 6.81 6.54 7.34 6" fill="none" stroke="#111" stroke-width="1.6" stroke-linecap="round"/><path d="M 7.34 9.75 Q 6.81 9.22 7.34 8.68" fill="none" stroke="#111" stroke-width="1.6" stroke-linecap="round"/><path d="M 7.34 12.43 Q 6.81 11.9 7.34 11.36" fill="none" stroke="#111" stroke-width="1.6" stroke-linecap="round"/><path d="M 7.34 15.11 Q 6.81 14.58 7.34 14.04" fill="none" stroke="#111" stroke-width="1.6" stroke-linecap="round"/><path d="M 7.34 17.79 Q 6.81 17.26 7.34 16.72" fill="none" stroke="#111" stroke-width="1.6" stroke-linecap="round"/><path d="M 7.34 20.47 Q 6.81 19.94 7.34 19.4" fill="none" stroke="#111" stroke-width="1.6" stroke-linecap="round"/><path d="M 7.34 23.15 Q 6.81 22.62 7.34 22.08" fill="none" stroke="#111" stroke-width="1.6" stroke-linecap="round"/><path d="M 7.34 25.84 Q 6.81 25.3 7.34 24.76" fill="none" stroke="#111" stroke-width="1.6" stroke-linecap="round"/><path d="M 7.34 28.52 Q 6.81 27.98 7.34 27.44" fill="none" stroke="#111" stroke-width="1.6" stroke-linecap="round"/><path d="M 7.34 31.2 Q 6.81 30.66 7.34 30.12" fill="none" stroke="#111" stroke-width="1.6" stroke-linecap="round"/><path d="M 7.34 33.88 Q 6.81 33.34 7.34 32.8" fill="none" stroke="#111" stroke-width="1.6" stroke-linecap="round"/><path d="M 7.34 36.56 Q 6.81 36.02 7.34 35.48" fill="none" stroke="#111" stroke-width="1.6" stroke-linecap="round"/><path d="M 7.34 39.24 Q 6.81 38.7 7.34 38.16" fill="none" stroke="#111" stroke-width="1.6" stroke-linecap="round"/><path d="M 7.34 41.92 Q 6.81 41.38 7.34 40.85" fill="none" stroke="#111" stroke-width="1.6" stroke-linecap="round"/><path d="M 7.34 44.6 Q 6.81 44.06 7.34 43.53" fill="none" stroke="#111" stroke-width="1.6" stroke-linecap="round"/><path d="M 7.34 47.28 Q 6.81 46.74 7.34 46.21" fill="none" stroke="#111" stroke-width="1.6" stroke-linecap="round"/><path d="M 7.34 49.96 Q 6.81 49.42 7.34 48.89" fill="none" stroke="#111" stroke-width="1.6" stroke-linecap="round"/><path d="M 7.34 52.64 Q 6.81 52.1 7.34 51.57" fill="none" stroke="#111" stroke-width="1.6" stroke-linecap="round"/><path d="M 7.34 55.32 Q 6.81 54.78 7.34 54.25" fill="none" stroke="#111" stroke-width="1.6" stroke-linecap="round"/><path d="M 7.34 58 Q 6.81 57.46 7.34 56.93" fill="none" stroke="#111" stroke-width="1.6" stroke-linecap="round"/></svg>