<svg xmlns="http://www.w3.org/2000/svg" width="96" height="64" viewBox="0 0 96 64"><rect x="6" y="6" width="15.6" height="52" fill="none" stroke="#111" stroke-width="1.6"/><polyline points="12.24,34.6 10.42,34.6" fill="none" stroke="#111" stroke-width="1.6" stroke-linecap="round" stroke-linejoin="round"/><polyline points="12.24,37.2 10.42,37.2" fill="none" stroke="#111" stroke-width="1.6" stroke-linecap="round" stroke-linejoin="round"/><polyline points="12.24,39.8 10.42,39.8" fill="none" stroke="#111" stroke-width="1.6" stroke-linecap="round" stroke-linejoin="round"/><polyline points="12.24,42.4 10.42,42.4" fill="none" stroke="#111" stroke-width="1.6" stroke-linecap="round" stroke-linejoin="round"/><polyline points="12.24,45 10.42,45" fill="none" stroke="#111" stroke-width="1.6" stroke-linecap="round" stroke-linejoin="round"/><polyline points="12.24,47.6 10.42,47.6" fill="none" stroke="#111" stroke-width="1.6" stroke-linecap="round" stroke-linejoin="round"/><polyline points="12.24,50.2 10.42,50.2" fill="none" stroke="#111" stroke-width="1.6" stroke-linecap="round" stroke-linejoin="round"/><polyline points="12.24,52.8 10.42,52.8" fill="none" stroke="#111" stroke-width="1.6" stroke-linecap="round" stroke-linejoin="round"/><polyline points="12.5,33.56 15.62,33.56" fill="none" stroke="#111" stroke-width="1.6" stroke-linecap="round" stroke-linejoin="round"/><polyline points="12.5,36.16 15.62,36.16" fill="none" stroke="#111" stroke-width="1.6" stroke-linecap="round" stroke-linejoin="round"/><polyline points="12.5,38.76 15.62,38.76" fill="none" stroke="#111" stroke-width="1.6" stroke-linecap="round" stroke-linejoin="round"/><polyline points="12.5,41.36 15.62,41.36" fill="none" stroke="#111" stroke-width="1.6" stroke-linecap="round" stroke-linejoin="round"/><polyline points="12.5,43.96 15.62,43.96" fill="none" stroke="#111" stroke-width="1.6" stroke-linecap="round" stroke-linejoin="round"/><polyline points="12.5,46.56 15.62,46.56" fill="none" stroke="#111" stroke-width="1.6" stroke-linecap="round" stroke-linejoin="round"/><polyline points="12.5,49.16 15.62,49.16" fill="none" stroke="#111" stroke-width="1.6" stroke-linecap="round" stroke-linejoin="round"/><polyline points="12.5,51.76 15.62,51.76" fill="none" stroke="#111" stroke-width="1.6" stroke-linecap="round" stroke-linejoin="round"/><circle cx="12.76" cy="34.6" r="0.52" fill="none" stroke="#111" stroke-width="1.6"/><circle cx="12.76" cy="37.2" r="0.52" fill="none" stroke="#111" stroke-width="1.6"/><circle cx="12.76" cy="39.8" r="0.52" fill="none" stroke="#111" stroke-width="1.6"/><circle cx="12.76" cy="42.4" r="0.52" fill="none" stroke="#111" stroke-width="1.6"/><circle cx="12.76" cy="45" r="0.52" fill="none" stroke="#111" stroke-width="1.6"/><circle cx="12.76" cy="47.6" r="0.52" fill="none" stroke="#111" stroke-width="1.6"/><circle cx="12.76" cy="50.2" r="0.52" fill="none" stroke="#111" stroke-width="1.6"/><circle cx="12.76" cy="52.8" r="0.52" fill="none" stroke="#111" stroke-width="1.6"/><polyline points="14.06,30.7 14.06,30.05" fill="none" stroke="#111" stroke-width="1.6" stroke-linecap="round" stroke-linejoin="round"/><polyline points="14.06,32 14.06,31.35" fill="none" stroke="#111" stroke-width="1.6" stroke-linecap="round" stroke-linejoin="round"/><polyline points="14.06,33.3 14.06,32.65" fill="none" stroke="#111" stroke-width="1.6" stroke-linecap="round" stroke-linejoin="round"/><polyline points="14.06,34.6 14.06,33.95" fill="none" stroke="#111" stroke-width="1.6" stroke-linecap="round" stroke-linejoin="round"/><polyline points="14.06,35.9 14.06,35.25" fill="none" stroke="#111" stroke-width="1.6" stroke-linecap="round" stroke-linejoin="round"/><polyline points="14.06,37.2 14.06,36.55" fill="none" stroke="#111" stroke-width="1.6" stroke-linecap="round" stroke-linejoin="round"/><polyline points="14.06,38.5 14.06,37.85" fill="none" stroke="#111" stroke-width="1.6" stroke-linecap="round" stroke-linejoin="round"/><polyline points="14.06,39.8 14.06,39.15" fill="none" stroke="#111" stroke-width="1.6" stroke-linecap="round" stroke-linejoin="round"/><polyline points="14.06,41.1 14.06,40.45" fill="none" stroke="#111" stroke-width="1.6" stroke-linecap="round" stroke-linejoin="round"/><polyline points="14.06,42.66 14.06,42.01" fill="none" stroke="#111" stroke-width="1.6" stroke-linecap="round" stroke-linejoin="round"/><polyline points="14.06,43.96 14.06,43.31" fill="none" stroke="#111" stroke-width="1.6" stroke-linecap="round" stroke-linejoin="round"/><polyline points="14.06,43.96 14.06,43.31" fill="none" stroke="#111" stroke-width="1.6" stroke-linecap="round" stroke-linejoin="round"/><polyline points="14.06,45.26 14.06,44.61" fill="none" stroke="#111" stroke-width="1.6" stroke-linecap="round" stroke-linejoin="round"/><polyline points="14.06,46.56 14.06,45.91" fill="none" stroke="#111" stroke-width="1.6" stroke-linecap="round" stroke-linejoin="round"/><polyline points="14.06,47.86 14.06,47.21" fill="none" stroke="#111" stroke-width="1.6" stroke-linecap="round" stroke-linejoin="round"/><polyline points="14.06,49.16 14.06,48.51" fill="none" stroke="#111" stroke-width="1.6" stroke-linecap="round" stroke-linejoin="round"/><polyline points="14.06,50.46 14.06,49.81" fill="none" stroke="#111" stroke-width="1.6" stroke-linecap="round" stroke-linejoin="round"/><polyline points="14.06,51.76 14.06,51.11" fill="none" stroke="#111" stroke-width="1.6" stroke-linecap="round" stroke-linejoin="round"/><circle cx="15.36" cy="34.6" r="0.52" fill="none" stroke="#111" stroke-width="1.6"/><circle cx="15.36" cy="37.2" r="0.52" fill="none" stroke="#111" stroke-width="1.6"/><circle cx="15.36" cy="39.8" r="0.52" fill="none" stroke="#111" stroke-width="1.6"/><circle cx="15.36" cy="42.4" r="0.52" fill="none" stroke="#111" stroke-width="1.6"/><circle cx="15.36" cy="45" r="0.52" fill="none" stroke="#111" stroke-width="1.6"/><circle cx="15.36" cy="47.6" r="0.52" fill="none" stroke="#111" stroke-width="1.6"/><circle cx="15.36" cy="50.2" r="0.52" fill="none" stroke="#111" stroke-width="1.6"/><circle cx="15.36" cy="52.8" r="0.52" fill="none" stroke="#111" stroke-width="1.6"/><polyline points="17.7,34.6 15.88,34.6" fill="none" stroke="#111" stroke-width="1.6" stroke-linecap="round" stroke-linejoin="round"/><polyline points="17.7,37.2 15.88,37.2" fill="none" stroke="#111" stroke-width="1.6" stroke-linecap="round" stroke-linejoin="round"/><polyline points="17.7,39.8 15.88,39.8" fill="none" stroke="#111" stroke-width="1.6" stroke-linecap="round" stroke-linejoin="round"/><polyline points="17.7,42.4 15.88,42.4" fill="none" stroke="#111" stroke-width="1.6" stroke-linecap="round" stroke-linejoin="round"/><polyline points="17.7,45 15.88,45" fill="none" stroke="#111" stroke-width="1.6" stroke-linecap="round" stroke-linejoin="round"/><polyline points="17.7,47.6 15.88,47.6" fill="none" stroke="#111" stroke-width="1.6" stroke-linecap="round" stroke-linejoin="round"/><polyline points="17.7,50.2 15.88,50.2" fill="none" stroke="#111" stroke-width="1.6" stroke-linecap="round" stroke-linejoin="round"/><polyline points="17.7,52.8 15.88,52.8" fill="none" stroke="#111" stroke-width="1.6" stroke-linecap="round" stroke-linejoin="round"/><rect x="6" y="11.2" width="11.7" height="18.2" fill="none" stroke="#111" stroke-width="1.6"/></svg>