<svg xmlns="http://www.w3.org/2000/svg" width="96" height="64" viewBox="0 0 96 64"><rect x="6" y="6" width="0.35" height="0.1" fill="none" stroke="#111" stroke-width="1.6"/><rect x="6" y="7.04" width="0.35" height="0.1" fill="none" stroke="#111" stroke-width="1.6"/><rect x="6" y="8.08" width="0.35" height="0.1" fill="none" stroke="#111" stroke-width="1.6"/><rect x="6" y="9.11" width="0.35" height="0.11" fill="none" stroke="#111" stroke-width="1.6"/><rect x="6" y="10.15" width="0.35" height="0.11" fill="none" stroke="#111" stroke-width="1.6"/><rect x="6" y="11.19" width="0.35" height="0.1" fill="none" stroke="#111" stroke-width="1.6"/><rect x="6" y="12.23" width="0.35" height="0.1" fill="none" stroke="#111" stroke-width="1.6"/><rect x="6" y="13.27" width="0.35" height="0.1" fill="none" stroke="#111" stroke-width="1.6"/><rect x="6" y="14.3" width="0.35" height="0.11" fill="none" stroke="#111" stroke-width="1.6"/><rect x="6" y="15.34" width="0.35" height="0.11" fill="none" stroke="#111" stroke-width="1.6"/><rect x="6" y="16.38" width="0.35" height="0.1" fill="none" stroke="#111" stroke-width="1.6"/><rect x="6" y="17.42" width="0.35" height="0.1" fill="none" stroke="#111" stroke-width="1.6"/><rect x="6" y="18.46" width="0.35" height="0.1" fill="none" stroke="#111" stroke-width="1.6"/><rect x="6" y="19.49" width="0.35" height="0.11" fill="none" stroke="#111" stroke-width="1.6"/><rect x="6" y="20.53" width="0.35" height="0.1" fill="none" stroke="#111" stroke-width="1.6"/><rect x="6" y="21.57" width="0.35" height="0.1" fill="none" stroke="#111" stroke-width="1.6"/><rect x="6" y="22.61" width="0.35" height="0.1" fill="none" stroke="#111" stroke-width="1.6"/><rect x="6" y="23.64" width="0.35" height="0.11" fill="none" stroke="#111" stroke-width="1.6"/><rect x="6" y="24.68" width="0.35" height="0.11" fill="none" stroke="#111" stroke-width="1.6"/><rect x="6" y="25.72" width="0.35" height="0.1" fill="none" stroke="#111" stroke-width="1.6"/><rect x="6" y="26.76" width="0.35" height="0.1" fill="none" stroke="#111" stroke-width="1.6"/><rect x="6" y="27.8" width="0.35" height="0.1" fill="none" stroke="#111" stroke-width="1.6"/><rect x="6" y="28.83" width="0.35" height="0.11" fill="none" stroke="#111" stroke-width="1.6"/><rect x="6" y="29.87" width="0.35" height="0.11" fill="none" stroke="#111" stroke-width="1.6"/><rect x="6" y="30.91" width="0.35" height="0.1" fill="none" stroke="#111" stroke-width="1.6"/><rect x="6" y="31.95" width="0.35" height="0.1" fill="none" stroke="#111" stroke-width="1.6"/><rect x="6" y="32.99" width="0.35" height="0.1" fill="none" stroke="#111" stroke-width="1.6"/><rect x="6" y="34.02" width="0.35" height="0.11" fill="none" stroke="#111" stroke-width="1.6"/><rect x="6" y="35.06" width="0.35" height="0.11" fill="none" stroke="#111" stroke-width="1.6"/><rect x="6" y="36.1" width="0.35" height="0.1" fill="none" stroke="#111" stroke-width="1.6"/><rect x="6" y="37.14" width="0.35" height="0.1" fill="none" stroke="#111" stroke-width="1.6"/><rect x="6" y="38.18" width="0.35" height="0.1" fill="none" stroke="#111" stroke-width="1.6"/><rect x="6" y="39.21" width="0.35" height="0.11" fill="none" stroke="#111" stroke-width="1.6"/><rect x="6" y="40.25" width="0.35" height="0.11" fill="none" stroke="#111" stroke-width="1.6"/><rect x="6" y="41.29" width="0.35" height="0.1" fill="none" stroke="#111" stroke-width="1.6"/><rect x="6" y="42.33" width="0.35" height="0.1" fill="none" stroke="#111" stroke-width="1.6"/><rect x="6" y="43.37" width="0.35" height="0.1" fill="none" stroke="#111" stroke-width="1.6"/><rect x="6" y="44.4" width="0.35" height="0.11" fill="none" stroke="#111" stroke-width="1.6"/><rect x="6" y="45.44" width="0.35" height="0.1" fill="none" stroke="#111" stroke-width="1.6"/><rect x="6" y="46.48" width="0.35" height="0.1" fill="none" stroke="#111" stroke-width="1.6"/><rect x="6" y="47.52" width="0.35" height="0.1" fill="none" stroke="#111" stroke-width="1.6"/><rect x="6" y="48.55" width="0.35" height="0.11" fill="none" stroke="#111" stroke-width="1.6"/><rect x="6" y="49.59" width="0.35" height="0.11" fill="none" stroke="#111" stroke-width="1.6"/><rect x="6" y="50.63" width="0.35" height="0.1" fill="none" stroke="#111" stroke-width="1.6"/><rect x="6" y="51.67" width="0.35" height="0.1" fill="none" stroke="#111" stroke-width="1.6"/><rect x="6" y="52.71" width="0.35" height="0.1" fill="none" stroke="#111" stroke-width="1.6"/><rect x="6" y="53.74" width="0.35" height="0.11" fill="none" stroke="#111" stroke-width="1.6"/><rect x="6" y="54.78" width="0.35" height="0.11" fill="none" stroke="#111" stroke-width="1.6"/><rect x="6" y="55.82" width="0.35" height="0.1" fill="none" stroke="#111" stroke-width="1.6"/><rect x="6" y="56.86" width="0.35" height="0.1" fill="none" stroke="#111" stroke-width="1.6"/><rect x="6" y="57.9" width="0.35" height="0.1" fill="none" stroke="#111" stroke-width="1.6"/><polyline points="6.52,6.05 6.35,6.05" fill="none" stroke="#111" stroke-width="1.6" stroke-linecap="round" stroke-linejoin="round"/><polyline points="6.52,7.09 6.35,7.09" fill="none" stroke="#111" stroke-width="1.6" stroke-linecap="round" stroke-linejoin="round"/><polyline points="6.52,8.13 6.35,8.13" fill="none" stroke="#111" stroke-width="1.6" stroke-linecap="round" stroke-linejoin="round"/><polyline points="6.52,9.17 6.35,9.17" fill="none" stroke="#111" stroke-width="1.6" stroke-linecap="round" stroke-linejoin="round"/><polyline points="6.52,10.2 6.35,10.2" fill="none" stroke="#111" stroke-width="1.6" stroke-linecap="round" stroke-linejoin="round"/><polyline points="6.52,11.24 6.35,11.24" fill="none" stroke="#111" stroke-width="1.6" stroke-linecap="round" stroke-linejoin="round"/><polyline points="6.52,12.28 6.35,12.28" fill="none" stroke="#111" stroke-width="1.6" stroke-linecap="round" stroke-linejoin="round"/><polyline points="6.52,13.32 6.35,13.32" fill="none" stroke="#111" stroke-width="1.6" stroke-linecap="round" stroke-linejoin="round"/><polyline points="6.52,14.36 6.35,14.36" fill="none" stroke="#111" stroke-width="1.6" stroke-linecap="round" stroke-linejoin="round"/><polyline points="6.52,15.39 6.35,15.39" fill="none" stroke="#111" stroke-width="1.6" stroke-linecap="round" stroke-linejoin="round"/><polyline points="6.52,16.43 6.35,16.43" fill="none" stroke="#111" stroke-width="1.6" stroke-linecap="round" stroke-linejoin="round"/><polyline points="6.52,17.47 6.35,17.47" fill="none" stroke="#111" stroke-width="1.6" stroke-linecap="round" stroke-linejoin="round"/><polyline points="6.52,18.51 6.35,18.51" fill="none" stroke="#111" stroke-width="1.6" stroke-linecap="round" stroke-linejoin="round"/><polyline points="6.52,19.54 6.35,19.54" fill="none" stroke="#111" stroke-width="1.6" stroke-linecap="round" stroke-linejoin="round"/><polyline points="6.52,20.58 6.35,20.58" fill="none" stroke="#111" stroke-width="1.6" stroke-linecap="round" stroke-linejoin="round"/><polyline points="6.52,21.62 6.35,21.62" fill="none" stroke="#111" stroke-width="1.6" stroke-linecap="round" stroke-linejoin="round"/><polyline points="6.52,22.66 6.35,22.66" fill="none" stroke="#111" stroke-width="1.6" stroke-linecap="round" stroke-linejoin="round"/><polyline points="6.52,23.7 6.35,23.7" fill="none" stroke="#111" stroke-width="1.6" stroke-linecap="round" stroke-linejoin="round"/><polyline points="6.52,24.73 6.35,24.73" fill="none" stroke="#111" stroke-width="1.6" stroke-linecap="round" stroke-linejoin="round"/><polyline points="6.52,25.77 6.35,25.77" fill="none" stroke="#111" stroke-width="1.6" stroke-linecap="round" stroke-linejoin="round"/><polyline points="6.52,26.81 6.35,26.81" fill="none" stroke="#111" stroke-width="1.6" stroke-linecap="round" stroke-linejoin="round"/><polyline points="6.52,27.85 6.35,27.85" fill="none" stroke="#111" stroke-width="1.6" stroke-linecap="round" stroke-linejoin="round"/><polyline points="6.52,28.89 6.35,28.89" fill="none" stroke="#111" stroke-width="1.6" stroke-linecap="round" stroke-linejoin="round"/><polyline points="6.52,29.92 6.35,29.92" fill="none" stroke="#111" stroke-width="1.6" stroke-linecap="round" stroke-linejoin="round"/><polyline points="6.52,30.96 6.35,30.96" fill="none" stroke="#111" stroke-width="1.6" stroke-linecap="round" stroke-linejoin="round"/><polyline points="6.52,32 6.35,32" fill="none" stroke="#111" stroke-width="1.6" stroke-linecap="round" stroke-linejoin="round"/><polyline points="6.52,33.04 6.35,33.04" fill="none" stroke="#111" stroke-width="1.6" stroke-linecap="round" stroke-linejoin="round"/><polyline points="6.52,34.08 6.35,34.08" fill="none" stroke="#111" stroke-width="1.6" stroke-linecap="round" stroke-linejoin="round"/><polyline points="6.52,35.11 6.35,35.11" fill="none" stroke="#111" stroke-width="1.6" stroke-linecap="round" stroke-linejoin="round"/><polyline points="6.52,36.15 6.35,36.15" fill="none" stroke="#111" stroke-width="1.6" stroke-linecap="round" stroke-linejoin="round"/><polyline points="6.52,37.19 6.35,37.19" fill="none" stroke="#111" stroke-width="1.6" stroke-linecap="round" stroke-linejoin="round"/><polyline points="6.52,38.23 6.35,38.23" fill="none" stroke="#111" stroke-width="1.6" stroke-linecap="round" stroke-linejoin="round"/><polyline points="6.52,39.27 6.35,39.27" fill="none" stroke="#111" stroke-width="1.6" stroke-linecap="round" stroke-linejoin="round"/><polyline points="6.52,40.3 6.35,40.3" fill="none" stroke="#111" stroke-width="1.6" stroke-linecap="round" stroke-linejoin="round"/><polyline points="6.52,41.34 6.35,41.34" fill="none" stroke="#111" stroke-width="1.6" stroke-linecap="round" stroke-linejoin="round"/><polyline points="6.52,42.38 6.35,42.38" fill="none" stroke="#111" stroke-width="1.6" stroke-linecap="round" stroke-linejoin="round"/><polyline points="6.52,43.42 6.35,43.42" fill="none" stroke="#111" stroke-width="1.6" stroke-linecap="round" stroke-linejoin="round"/><polyline points="6.52,44.46 6.35,44.46" fill="none" stroke="#111" stroke-width="1.6" stroke-linecap="round" stroke-linejoin="round"/><polyline points="6.52,45.49 6.35,45.49" fill="none" stroke="#111" stroke-width="1.6" stroke-linecap="round" stroke-linejoin="round"/><polyline points="6.52,46.53 6.35,46.53" fill="none" stroke="#111" stroke-width="1.6" stroke-linecap="round" stroke-linejoin="round"/><polyline points="6.52,47.57 6.35,47.57" fill="none" stroke="#111" stroke-width="1.6" stroke-linecap="round" stroke-linejoin="round"/><polyline points="6.52,48.61 6.35,48.61" fill="none" stroke="#111" stroke-width="1.6" stroke-linecap="round" stroke-linejoin="round"/><polyline points="6.52,49.64 6.35,49.64" fill="none" stroke="#111" stroke-width="1.6" stroke-linecap="round" stroke-linejoin="round"/><polyline points="6.52,50.68 6.35,50.68" fill="none" stroke="#111" stroke-width="1.6" stroke-linecap="round" stroke-linejoin="round"/><polyline points="6.52,51.72 6.35,51.72" fill="none" stroke="#111" stroke-width="1.6" stroke-linecap="round" stroke-linejoin="round"/><polyline points="6.52,52.76 6.35,52.76" fill="none" stroke="#111" stroke-width="1.6" stroke-linecap="round" stroke-linejoin="round"/><polyline points="6.52,53.8 6.35,53.8" fill="none" stroke="#111" stroke-width="1.6" stroke-linecap="round" stroke-linejoin="round"/><polyline points="6.52,54.83 6.35,54.83" fill="none" stroke="#111" stroke-width="1.6" stroke-linecap="round" stroke-linejoin="round"/><polyline points="6.52,55.87 6.35,55.87" fill="none" stroke="#111" stroke-width="1.6" stroke-linecap="round" stroke-linejoin="round"/><polyline points="6.52,56.91 6.35,56.91" fill="none" stroke="#111" stroke-width="1.6" stroke-linecap="round" stroke-linejoin="round"/><polyline points="6.52,57.95 6.35,57.95" fill="none" stroke="#111" stroke-width="1.6" stroke-linecap="round" stroke-linejoin="round"/></svg>