<svg xmlns="http://www.w3.org/2000/svg" width="96" height="64" viewBox="0 0 96 64"><rect x="6" y="6" width="3.19" height="51.04" fill="none" stroke="#111" stroke-width="1.6"/><rect x="6" y="7.44" width="1.6" height="0.31" fill="none" stroke="#111" stroke-width="1.6"/><rect x="6" y="10.63" width="1.6" height="0.31" fill="none" stroke="#111" stroke-width="1.6"/><rect x="6" y="13.82" width="1.6" height="0.31" fill="none" stroke="#111" stroke-width="1.6"/><rect x="6" y="17.01" width="1.6" height="0.32" fill="none" stroke="#111" stroke-width="1.6"/><rect x="6" y="20.2" width="1.6" height="0.32" fill="none" stroke="#111" stroke-width="1.6"/><rect x="6" y="23.39" width="1.6" height="0.32" fill="none" stroke="#111" stroke-width="1.6"/><rect x="6" y="26.58" width="1.6" height="0.32" fill="none" stroke="#111" stroke-width="1.6"/><rect x="6" y="29.77" width="1.6" height="0.32" fill="none" stroke="#111" stroke-width="1.6"/><rect x="6" y="32.96" width="1.6" height="0.32" fill="none" stroke="#111" stroke-width="1.6"/><rect x="6" y="36.15" width="1.6" height="0.32" fill="none" stroke="#111" stroke-width="1.6"/><rect x="6" y="39.34" width="1.6" height="0.32" fill="none" stroke="#111" stroke-width="1.6"/><rect x="6" y="42.53" width="1.6" height="0.32" fill="none" stroke="#111" stroke-width="1.6"/><rect x="6" y="45.72" width="1.6" height="0.32" fill="none" stroke="#111" stroke-width="1.6"/><rect x="6" y="48.91" width="1.6" height="0.32" fill="none" stroke="#111" stroke-width="1.6"/><rect x="6" y="52.1" width="1.6" height="0.32" fill="none" stroke="#111" stroke-width="1.6"/><rect x="6" y="55.29" width="1.6" height="0.32" fill="none" stroke="#111" stroke-width="1.6"/><polyline points="6.32,58 8.87,58" fill="none" stroke="#111" stroke-width="1.6" stroke-linecap="round" stroke-linejoin="round"/></svg>