<svg xmlns="http://www.w3.org/2000/svg" width="96" height="64" viewBox="0 0 96 64"><rect x="6" y="6" width="3.85" height="52" fill="none" stroke="#111" stroke-width="1.6"/><rect x="6.19" y="6.19" width="3.47" height="51.62" fill="none" stroke="#111" stroke-width="1.6"/><rect x="6.19" y="6.87" width="0.97" height="0.19" fill="none" stroke="#111" stroke-width="1.6"/><rect x="6.19" y="8.79" width="0.97" height="0.2" fill="none" stroke="#111" stroke-width="1.6"/><rect x="6.19" y="10.72" width="0.97" height="0.19" fill="none" stroke="#111" stroke-width="1.6"/><rect x="6.19" y="12.64" width="0.97" height="0.2" fill="none" stroke="#111" stroke-width="1.6"/><rect x="6.19" y="14.57" width="0.97" height="0.19" fill="none" stroke="#111" stroke-width="1.6"/><rect x="6.19" y="16.5" width="0.97" height="0.19" fill="none" stroke="#111" stroke-width="1.6"/><rect x="6.19" y="18.42" width="0.97" height="0.19" fill="none" stroke="#111" stroke-width="1.6"/><rect x="6.19" y="20.35" width="0.97" height="0.19" fill="none" stroke="#111" stroke-width="1.6"/><rect x="6.19" y="22.27" width="0.97" height="0.2" fill="none" stroke="#111" stroke-width="1.6"/><rect x="6.19" y="24.2" width="0.97" height="0.19" fill="none" stroke="#111" stroke-width="1.6"/><rect x="6.19" y="26.13" width="0.97" height="0.19" fill="none" stroke="#111" stroke-width="1.6"/><rect x="6.19" y="28.05" width="0.97" height="0.19" fill="none" stroke="#111" stroke-width="1.6"/><rect x="6.19" y="29.98" width="0.97" height="0.19" fill="none" stroke="#111" stroke-width="1.6"/><rect x="6.19" y="31.9" width="0.97" height="0.2" fill="none" stroke="#111" stroke-width="1.6"/><rect x="6.19" y="33.83" width="0.97" height="0.19" fill="none" stroke="#111" stroke-width="1.6"/><rect x="6.19" y="35.76" width="0.97" height="0.19" fill="none" stroke="#111" stroke-width="1.6"/><rect x="6.19" y="37.68" width="0.97" height="0.19" fill="none" stroke="#111" stroke-width="1.6"/><rect x="6.19" y="39.61" width="0.97" height="0.19" fill="none" stroke="#111" stroke-width="1.6"/><rect x="6.19" y="41.53" width="0.97" height="0.2" fill="none" stroke="#111" stroke-width="1.6"/><rect x="6.19" y="43.46" width="0.97" height="0.19" fill="none" stroke="#111" stroke-width="1.6"/><rect x="6.19" y="45.39" width="0.97" height="0.19" fill="none" stroke="#111" stroke-width="1.6"/><rect x="6.19" y="47.31" width="0.97" height="0.19" fill="none" stroke="#111" stroke-width="1.6"/><rect x="6.19" y="49.24" width="0.97" height="0.19" fill="none" stroke="#111" stroke-width="1.6"/><rect x="6.19" y="51.16" width="0.97" height="0.2" fill="none" stroke="#111" stroke-width="1.6"/><rect x="6.19" y="53.09" width="0.97" height="0.19" fill="none" stroke="#111" stroke-width="1.6"/><rect x="6.19" y="55.01" width="0.97" height="0.2" fill="none" stroke="#111" stroke-width="1.6"/><rect x="6.19" y="56.94" width="0.97" height="0.19" fill="none" stroke="#111" stroke-width="1.6"/><rect x="8.7" y="6.87" width="0.96" height="0.19" fill="none" stroke="#111" stroke-width="1.6"/><rect x="8.7" y="8.79" width="0.96" height="0.2" fill="none" stroke="#111" stroke-width="1.6"/><rect x="8.7" y="10.72" width="0.96" height="0.19" fill="none" stroke="#111" stroke-width="1.6"/><rect x="8.7" y="12.64" width="0.96" height="0.2" fill="none" stroke="#111" stroke-width="1.6"/><rect x="8.7" y="14.57" width="0.96" height="0.19" fill="none" stroke="#111" stroke-width="1.6"/><rect x="8.7" y="16.5" width="0.96" height="0.19" fill="none" stroke="#111" stroke-width="1.6"/><rect x="8.7" y="18.42" width="0.96" height="0.19" fill="none" stroke="#111" stroke-width="1.6"/><rect x="8.7" y="20.35" width="0.96" height="0.19" fill="none" stroke="#111" stroke-width="1.6"/><rect x="8.7" y="22.27" width="0.96" height="0.2" fill="none" stroke="#111" stroke-width="1.6"/><rect x="8.7" y="24.2" width="0.96" height="0.19" fill="none" stroke="#111" stroke-width="1.6"/><rect x="8.7" y="26.13" width="0.96" height="0.19" fill="none" stroke="#111" stroke-width="1.6"/><rect x="8.7" y="28.05" width="0.96" height="0.19" fill="none" stroke="#111" stroke-width="1.6"/><rect x="8.7" y="29.98" width="0.96" height="0.19" fill="none" stroke="#111" stroke-width="1.6"/><rect x="8.7" y="31.9" width="0.96" height="0.2" fill="none" stroke="#111" stroke-width="1.6"/><rect x="8.7" y="33.83" width="0.96" height="0.19" fill="none" stroke="#111" stroke-width="1.6"/><rect x="8.7" y="35.76" width="0.96" height="0.19" fill="none" stroke="#111" stroke-width="1.6"/><rect x="8.7" y="37.68" width="0.96" height="0.19" fill="none" stroke="#111" stroke-width="1.6"/><rect x="8.7" y="39.61" width="0.96" height="0.19" fill="none" stroke="#111" stroke-width="1.6"/><rect x="8.7" y="41.53" width="0.96" height="0.2" fill="none" stroke="#111" stroke-width="1.6"/><rect x="8.7" y="43.46" width="0.96" height="0.19" fill="none" stroke="#111" stroke-width="1.6"/><rect x="8.7" y="45.39" width="0.96" height="0.19" fill="none" stroke="#111" stroke-width="1.6"/><rect x="8.7" y="47.31" width="0.96" height="0.19" fill="none" stroke="#111" stroke-width="1.6"/><rect x="8.7" y="49.24" width="0.96" height="0.19" fill="none" stroke="#111" stroke-width="1.6"/><rect x="8.7" y="51.16" width="0.96" height="0.2" fill="none" stroke="#111" stroke-width="1.6"/><rect x="8.7" y="53.09" width="0.96" height="0.19" fill="none" stroke="#111" stroke-width="1.6"/><rect x="8.7" y="55.01" width="0.96" height="0.2" fill="none" stroke="#111" stroke-width="1.6"/><rect x="8.7" y="56.94" width="0.96" height="0.19" fill="none" stroke="#111" stroke-width="1.6"/></svg>