<svg xmlns="http://www.w3.org/2000/svg" width="96" height="64" viewBox="0 0 96 64"><rect x="6" y="6" width="41.6" height="52" fill="none" stroke="#111" stroke-width="1.6"/><polyline points="14.84,13.8 17.44,13.8" fill="none" stroke="#111" stroke-width="1.6" stroke-linecap="round" stroke-linejoin="round"/><polyline points="14.84,13.8 14.84,11.2 13.8,11.2" fill="none" stroke="#111" stroke-width="1.6" stroke-linecap="round" stroke-linejoin="round"/><polyline points="14.84,19 16.4,19" fill="none" stroke="#111" stroke-width="1.6" stroke-linecap="round" stroke-linejoin="round"/><polyline points="14.84,19 14.84,21.6 14.32,21.6 13.8,21.6" fill="none" stroke="#111" stroke-width="1.6" stroke-linecap="round" stroke-linejoin="round"/><polyline points="14.84,34.6 17.44,34.6" fill="none" stroke="#111" stroke-width="1.6" stroke-linecap="round" stroke-linejoin="round"/><polyline points="14.84,34.6 14.84,32 13.8,32" fill="none" stroke="#111" stroke-width="1.6" stroke-linecap="round" stroke-linejoin="round"/><polyline points="14.84,39.8 16.4,39.8" fill="none" stroke="#111" stroke-width="1.6" stroke-linecap="round" stroke-linejoin="round"/><polyline points="14.84,39.8 14.84,42.4 13.8,42.4" fill="none" stroke="#111" stroke-width="1.6" stroke-linecap="round" stroke-linejoin="round"/><circle cx="16.92" cy="19" r="0.52" fill="none" stroke="#111" stroke-width="1.6"/><circle cx="16.92" cy="39.8" r="0.52" fill="none" stroke="#111" stroke-width="1.6"/><polyline points="17.44,12.24 17.44,20.56 24.72,16.4 17.44,12.24" fill="none" stroke="#111" stroke-width="1.6" stroke-linecap="round" stroke-linejoin="round"/><polyline points="17.44,33.04 17.44,41.36 24.72,37.2 17.44,33.04" fill="none" stroke="#111" stroke-width="1.6" stroke-linecap="round" stroke-linejoin="round"/><polyline points="19,52.8 26.8,52.8 26.8,37.2" fill="none" stroke="#111" stroke-width="1.6" stroke-linecap="round" stroke-linejoin="round"/><polyline points="24.72,16.4 35.64,16.4" fill="none" stroke="#111" stroke-width="1.6" stroke-linecap="round" stroke-linejoin="round"/><polyline points="24.72,37.2 35.64,37.2" fill="none" stroke="#111" stroke-width="1.6" stroke-linecap="round" stroke-linejoin="round"/><polyline points="26.8,37.2 26.8,21.6 21.08,21.6 21.08,18.48" fill="none" stroke="#111" stroke-width="1.6" stroke-linecap="round" stroke-linejoin="round"/><polyline points="26.8,42.4 21.08,42.4 21.08,39.28" fill="none" stroke="#111" stroke-width="1.6" stroke-linecap="round" stroke-linejoin="round"/><rect x="6" y="6" width="41.6" height="52" fill="none" stroke="#111" stroke-width="1.6"/><polyline points="14.84,13.8 17.44,13.8" fill="none" stroke="#111" stroke-width="1.6" stroke-linecap="round" stroke-linejoin="round"/><polyline points="14.84,13.8 14.84,11.2 13.8,11.2" fill="none" stroke="#111" stroke-width="1.6" stroke-linecap="round" stroke-linejoin="round"/><polyline points="14.84,19 16.4,19" fill="none" stroke="#111" stroke-width="1.6" stroke-linecap="round" stroke-linejoin="round"/><polyline points="14.84,19 14.84,21.6 14.32,21.6 13.8,21.6" fill="none" stroke="#111" stroke-width="1.6" stroke-linecap="round" stroke-linejoin="round"/><polyline points="14.84,34.6 17.44,34.6" fill="none" stroke="#111" stroke-width="1.6" stroke-linecap="round" stroke-linejoin="round"/><polyline points="14.84,34.6 14.84,32 13.8,32" fill="none" stroke="#111" stroke-width="1.6" stroke-linecap="round" stroke-linejoin="round"/><polyline points="14.84,39.8 16.4,39.8" fill="none" stroke="#111" stroke-width="1.6" stroke-linecap="round" stroke-linejoin="round"/><polyline points="14.84,39.8 14.84,42.4 13.8,42.4" fill="none" stroke="#111" stroke-width="1.6" stroke-linecap="round" stroke-linejoin="round"/><circle cx="16.92" cy="19" r="0.52" fill="none" stroke="#111" stroke-width="1.6"/><circle cx="16.92" cy="39.8" r="0.52" fill="none" stroke="#111" stroke-width="1.6"/><polyline points="17.44,12.24 17.44,20.56 24.72,16.4 17.44,12.24" fill="none" stroke="#111" stroke-width="1.6" stroke-linecap="round" stroke-linejoin="round"/><polyline points="17.44,33.04 17.44,41.36 24.72,37.2 17.44,33.04" fill="none" stroke="#111" stroke-width="1.6" stroke-linecap="round" stroke-linejoin="round"/><polyline points="19,52.8 26.8,52.8 26.8,37.2" fill="none" stroke="#111" stroke-width="1.6" stroke-linecap="round" stroke-linejoin="round"/><polyline points="24.72,16.4 35.64,16.4" fill="none" stroke="#111" stroke-width="1.6" stroke-linecap="round" stroke-linejoin="round"/><polyline points="24.72,37.2 35.64,37.2" fill="none" stroke="#111" stroke-width="1.6" stroke-linecap="round" stroke-linejoin="round"/><polyline points="26.8,37.2 26.8,21.6 21.08,21.6 21.08,18.48" fill="none" stroke="#111" stroke-width="1.6" stroke-linecap="round" stroke-linejoin="round"/><polyline points="26.8,42.4 21.08,42.4 21.08,39.28" fill="none" stroke="#111" stroke-width="1.6" stroke-linecap="round" stroke-linejoin="round"/><circle cx="26.8" cy="42.4" r="0.52" fill="none" stroke="#111" stroke-width="1.6"/></svg>