<svg xmlns="http://www.w3.org/2000/svg" width="96" height="64" viewBox="0 0 96 64"><rect x="6" y="6" width="52" height="52" fill="none" stroke="#111" stroke-width="1.6"/><polyline points="17.05,19 22.25,19" fill="none" stroke="#111" stroke-width="1.6" stroke-linecap="round" stroke-linejoin="round"/><polyline points="17.05,38.5 22.25,38.5" fill="none" stroke="#111" stroke-width="1.6" stroke-linecap="round" stroke-linejoin="round"/><polyline points="22.25,13.8 22.25,24.2 31.35,19 22.25,13.8" fill="none" stroke="#111" stroke-width="1.6" stroke-linecap="round" stroke-linejoin="round"/><polyline points="22.25,33.3 22.25,43.7 31.35,38.5 22.25,33.3" fill="none" stroke="#111" stroke-width="1.6" stroke-linecap="round" stroke-linejoin="round"/><polyline points="22.25,51.5 33.95,51.5 33.95,26.15 23.55,26.15 23.55,23.55" fill="none" stroke="#111" stroke-width="1.6" stroke-linecap="round" stroke-linejoin="round"/><polyline points="26.8,35.9 38.5,35.9 38.5,32 42.4,32" fill="none" stroke="#111" stroke-width="1.6" stroke-linecap="round" stroke-linejoin="round"/><polyline points="28.1,17.05 35.9,17.05 35.9,19 40.45,19 40.45,12.5 41.75,12.5" fill="none" stroke="#111" stroke-width="1.6" stroke-linecap="round" stroke-linejoin="round"/><circle cx="28.1" cy="21.6" r="0.65" fill="none" stroke="#111" stroke-width="1.6"/><circle cx="28.1" cy="41.1" r="0.65" fill="none" stroke="#111" stroke-width="1.6"/><polyline points="28.75,21.6 38.5,21.6 38.5,25.5 41.75,25.5" fill="none" stroke="#111" stroke-width="1.6" stroke-linecap="round" stroke-linejoin="round"/><polyline points="28.75,41.1 38.5,41.1 38.5,45 41.75,45" fill="none" stroke="#111" stroke-width="1.6" stroke-linecap="round" stroke-linejoin="round"/><polyline points="33.95,45.65 23.55,45.65 23.55,43.05" fill="none" stroke="#111" stroke-width="1.6" stroke-linecap="round" stroke-linejoin="round"/><circle cx="33.95" cy="45.65" r="0.65" fill="none" stroke="#111" stroke-width="1.6"/><rect x="6" y="6" width="52" height="52" fill="none" stroke="#111" stroke-width="1.6"/><polyline points="17.05,19 22.25,19" fill="none" stroke="#111" stroke-width="1.6" stroke-linecap="round" stroke-linejoin="round"/><polyline points="17.05,38.5 22.25,38.5" fill="none" stroke="#111" stroke-width="1.6" stroke-linecap="round" stroke-linejoin="round"/><polyline points="22.25,13.8 22.25,24.2 31.35,19 22.25,13.8" fill="none" stroke="#111" stroke-width="1.6" stroke-linecap="round" stroke-linejoin="round"/><polyline points="22.25,33.3 22.25,43.7 31.35,38.5 22.25,33.3" fill="none" stroke="#111" stroke-width="1.6" stroke-linecap="round" stroke-linejoin="round"/><polyline points="22.25,51.5 33.95,51.5 33.95,26.15 23.55,26.15 23.55,23.55" fill="none" stroke="#111" stroke-width="1.6" stroke-linecap="round" stroke-linejoin="round"/><polyline points="26.8,35.9 38.5,35.9 38.5,32 42.4,32" fill="none" stroke="#111" stroke-width="1.6" stroke-linecap="round" stroke-linejoin="round"/><polyline points="28.1,17.05 35.9,17.05 35.9,19 40.45,19 40.45,12.5 41.75,12.5" fill="none" stroke="#111" stroke-width="1.6" stroke-linecap="round" stroke-linejoin="round"/><circle cx="28.1" cy="21.6" r="0.65" fill="none" stroke="#111" stroke-width="1.6"/><circle cx="28.1" cy="41.1" r="0.65" fill="none" stroke="#111" stroke-width="1.6"/><polyline points="28.75,21.6 38.5,21.6 38.5,25.5 41.75,25.5" fill="none" stroke="#111" stroke-width="1.6" stroke-linecap="round" stroke-linejoin="round"/><polyline points="28.75,41.1 38.5,41.1 38.5,45 41.75,45" fill="none" stroke="#111" stroke-width="1.6" stroke-linecap="round" stroke-linejoin="round"/><polyline points="33.95,45.65 23.55,45.65 23.55,43.05" fill="none" stroke="#111" stroke-width="1.6" stroke-linecap="round" stroke-linejoin="round"/><circle cx="33.95" cy="45.65" r="0.65" fill="none" stroke="#111" stroke-width="1.6"/></svg>