<svg xmlns="http://www.w3.org/2000/svg" width="96" height="64" viewBox="0 0 96 64"><polyline points="6.34,31.28 41.63,31.28" fill="none" stroke="#111" stroke-width="1.6" stroke-linecap="round" stroke-linejoin="round"/><polyline points="6.56,43.32 41.42,43.32" fill="none" stroke="#111" stroke-width="1.6" stroke-linecap="round" stroke-linejoin="round"/><polyline points="7.19,31.28 9.94,22.83" fill="none" stroke="#111" stroke-width="1.6" stroke-linecap="round" stroke-linejoin="round"/><polyline points="8.67,22.83 39.51,22.83" fill="none" stroke="#111" stroke-width="1.6" stroke-linecap="round" stroke-linejoin="round"/><polyline points="9.3,31.28 12.05,22.83" fill="none" stroke="#111" stroke-width="1.6" stroke-linecap="round" stroke-linejoin="round"/><polyline points="11.41,31.28 14.16,22.83" fill="none" stroke="#111" stroke-width="1.6" stroke-linecap="round" stroke-linejoin="round"/><polyline points="13.53,31.28 16.27,22.83" fill="none" stroke="#111" stroke-width="1.6" stroke-linecap="round" stroke-linejoin="round"/><polyline points="15.64,31.28 18.39,22.83" fill="none" stroke="#111" stroke-width="1.6" stroke-linecap="round" stroke-linejoin="round"/><polyline points="16.49,9.94 31.7,9.94" fill="none" stroke="#111" stroke-width="1.6" stroke-linecap="round" stroke-linejoin="round"/><polyline points="17.75,31.28 20.5,22.83" fill="none" stroke="#111" stroke-width="1.6" stroke-linecap="round" stroke-linejoin="round"/><polyline points="19.87,31.28 22.61,22.83" fill="none" stroke="#111" stroke-width="1.6" stroke-linecap="round" stroke-linejoin="round"/><polyline points="21.98,31.28 24.72,22.83" fill="none" stroke="#111" stroke-width="1.6" stroke-linecap="round" stroke-linejoin="round"/><polyline points="24.09,31.28 26.84,22.83" fill="none" stroke="#111" stroke-width="1.6" stroke-linecap="round" stroke-linejoin="round"/><polyline points="26.2,31.28 28.95,22.83" fill="none" stroke="#111" stroke-width="1.6" stroke-linecap="round" stroke-linejoin="round"/><polyline points="27.26,57.69 29.74,56.99 32.09,55.94 34.29,54.55 36.29,52.86 38.05,50.88 39.55,48.65 40.73,46.19 41.56,43.52 41.69,42.8 41.82,41.55 41.92,40.02 41.98,38.32 42,36.54 41.98,34.78 41.92,33.14 41.82,31.72 41.68,30.61 41.58,30.08 40.57,25.8 39.19,21.78 37.43,17.99 35.29,14.42 32.76,11.05 32.12,10.3 30.95,9.04 29.88,8.06 28.84,7.31 27.75,6.71 27.12,6.43 26.49,6.2 25.86,6.07 25.08,6.01 24,6 23.08,6.01 22.26,6.05 21.61,6.17 20.99,6.38 20.24,6.72 19.37,7.18 18.32,7.91 17.25,8.84 16.1,10.06 14.79,11.61 12.35,14.95 10.28,18.51 8.59,22.3 7.27,26.33 6.32,30.61 6.2,31.51 6.09,32.87 6.03,34.47 6,36.2 6.01,37.97 6.06,39.68 6.15,41.23 6.27,42.53 6.43,43.48 6.85,45 7.92,47.66 9.34,50.09 11.08,52.25 13.12,54.12 15.4,55.67 17.92,56.86 20.63,57.66 22.09,57.9 24.7,58 27.26,57.69" fill="none" stroke="#111" stroke-width="1.6" stroke-linecap="round" stroke-linejoin="round"/><polyline points="28.32,31.28 31.06,22.83" fill="none" stroke="#111" stroke-width="1.6" stroke-linecap="round" stroke-linejoin="round"/><polyline points="30.43,31.28 33.18,22.83" fill="none" stroke="#111" stroke-width="1.6" stroke-linecap="round" stroke-linejoin="round"/><polyline points="32.54,31.28 35.29,22.83" fill="none" stroke="#111" stroke-width="1.6" stroke-linecap="round" stroke-linejoin="round"/><polyline points="34.65,31.28 37.4,22.83" fill="none" stroke="#111" stroke-width="1.6" stroke-linecap="round" stroke-linejoin="round"/><polyline points="36.77,31.28 39.51,22.83" fill="none" stroke="#111" stroke-width="1.6" stroke-linecap="round" stroke-linejoin="round"/><polyline points="38.88,31.28 40.46,26" fill="none" stroke="#111" stroke-width="1.6" stroke-linecap="round" stroke-linejoin="round"/><polyline points="40.99,31.28 41.52,29.69" fill="none" stroke="#111" stroke-width="1.6" stroke-linecap="round" stroke-linejoin="round"/></svg>