<svg xmlns="http://www.w3.org/2000/svg" width="96" height="64" viewBox="0 0 96 64"><polyline points="6,32 19,32" fill="none" stroke="#111" stroke-width="1.6" stroke-linecap="round" stroke-linejoin="round"/><polyline points="6,58 17.7,46.3" fill="none" stroke="#111" stroke-width="1.6" stroke-linecap="round" stroke-linejoin="round"/><polyline points="15.1,38.5 24.2,47.6 21.6,50.2 12.5,41.1 15.1,38.5" fill="none" stroke="#111" stroke-width="1.6" stroke-linecap="round" stroke-linejoin="round"/><polyline points="17.7,17.7 6,6" fill="none" stroke="#111" stroke-width="1.6" stroke-linecap="round" stroke-linejoin="round"/><rect x="19" y="25.5" width="3.25" height="13" fill="none" stroke="#111" stroke-width="1.6"/><polyline points="25.5,15.1 15.1,25.5 12.5,22.9 22.9,12.5 25.5,15.1" fill="none" stroke="#111" stroke-width="1.6" stroke-linecap="round" stroke-linejoin="round"/><rect x="25.5" y="19" width="13" height="3.25" fill="none" stroke="#111" stroke-width="1.6"/><rect x="25.5" y="41.75" width="13" height="3.25" fill="none" stroke="#111" stroke-width="1.6"/><polyline points="32,6 32,19" fill="none" stroke="#111" stroke-width="1.6" stroke-linecap="round" stroke-linejoin="round"/><circle cx="32" cy="32" r="26" fill="none" stroke="#111" stroke-width="1.6"/><polyline points="32,58 32,45" fill="none" stroke="#111" stroke-width="1.6" stroke-linecap="round" stroke-linejoin="round"/><polyline points="38.5,15.1 48.9,25.5 51.5,22.9 41.1,12.5 38.5,15.1" fill="none" stroke="#111" stroke-width="1.6" stroke-linecap="round" stroke-linejoin="round"/><rect x="41.75" y="25.5" width="3.25" height="13" fill="none" stroke="#111" stroke-width="1.6"/><polyline points="48.9,38.5 38.5,48.9 41.1,51.5 51.5,41.1 48.9,38.5" fill="none" stroke="#111" stroke-width="1.6" stroke-linecap="round" stroke-linejoin="round"/><polyline points="58,6 46.3,17.7" fill="none" stroke="#111" stroke-width="1.6" stroke-linecap="round" stroke-linejoin="round"/><polyline points="58,32 45,32" fill="none" stroke="#111" stroke-width="1.6" stroke-linecap="round" stroke-linejoin="round"/><polyline points="58,58 46.3,46.3" fill="none" stroke="#111" stroke-width="1.6" stroke-linecap="round" stroke-linejoin="round"/></svg>