<svg xmlns="http://www.w3.org/2000/svg" width="96" height="64" viewBox="0 0 96 64"><polyline points="29.2,27.6 34,27.6 31.6,32.4 29.2,27.6 29.2,27.6" fill="none" stroke="#111" stroke-width="1.6" stroke-linecap="round" stroke-linejoin="round"/><rect x="6" y="26" width="40" height="32" fill="none" stroke="#111" stroke-width="1.6"/><polyline points="6,42 46,42 46,42" fill="none" stroke="#111" stroke-width="1.6" stroke-linecap="round" stroke-linejoin="round"/><polyline points="10,26 10,22 6,22 6,6 46,6 46,22 42,22 42,26 42,26" fill="none" stroke="#111" stroke-width="1.6" stroke-linecap="round" stroke-linejoin="round"/><polyline points="17.2,32.4 18.8,32.4 20.4,27.6 21.2,27.6 19.6,27.6 18,32.4 18,32.4" fill="none" stroke="#111" stroke-width="1.6" stroke-linecap="round" stroke-linejoin="round"/><polyline points="18,16.4 19.6,16.4 21.2,11.6 22,11.6 20.4,11.6 18.8,16.4 18.8,16.4" fill="none" stroke="#111" stroke-width="1.6" stroke-linecap="round" stroke-linejoin="round"/><polyline points="26,27.6 26,32.4 29.2,30 26,27.6 26,27.6" fill="none" stroke="#111" stroke-width="1.6" stroke-linecap="round" stroke-linejoin="round"/><polyline points="46,34 6,34 6,34" fill="none" stroke="#111" stroke-width="1.6" stroke-linecap="round" stroke-linejoin="round"/><polyline points="46,50 6,50 6,50" fill="none" stroke="#111" stroke-width="1.6" stroke-linecap="round" stroke-linejoin="round"/></svg>