<svg xmlns="http://www.w3.org/2000/svg" width="96" height="64" viewBox="0 0 96 64"><rect x="6" y="6" width="0.9" height="52" fill="none" stroke="#111" stroke-width="1.6"/><rect x="6.09" y="6.09" width="0.72" height="51.82" fill="none" stroke="#111" stroke-width="1.6"/><rect x="6.09" y="6.4" width="0.45" height="0.09" fill="none" stroke="#111" stroke-width="1.6"/><rect x="6.09" y="7.3" width="0.45" height="0.09" fill="none" stroke="#111" stroke-width="1.6"/><rect x="6.09" y="8.2" width="0.45" height="0.09" fill="none" stroke="#111" stroke-width="1.6"/><rect x="6.09" y="9.09" width="0.45" height="0.09" fill="none" stroke="#111" stroke-width="1.6"/><rect x="6.09" y="9.99" width="0.45" height="0.09" fill="none" stroke="#111" stroke-width="1.6"/><rect x="6.09" y="10.89" width="0.45" height="0.09" fill="none" stroke="#111" stroke-width="1.6"/><rect x="6.09" y="11.78" width="0.45" height="0.09" fill="none" stroke="#111" stroke-width="1.6"/><rect x="6.09" y="12.68" width="0.45" height="0.09" fill="none" stroke="#111" stroke-width="1.6"/><rect x="6.09" y="13.58" width="0.45" height="0.09" fill="none" stroke="#111" stroke-width="1.6"/><rect x="6.09" y="14.47" width="0.45" height="0.09" fill="none" stroke="#111" stroke-width="1.6"/><rect x="6.09" y="15.37" width="0.45" height="0.09" fill="none" stroke="#111" stroke-width="1.6"/><rect x="6.09" y="16.27" width="0.45" height="0.09" fill="none" stroke="#111" stroke-width="1.6"/><rect x="6.09" y="17.16" width="0.45" height="0.09" fill="none" stroke="#111" stroke-width="1.6"/><rect x="6.09" y="18.06" width="0.45" height="0.09" fill="none" stroke="#111" stroke-width="1.6"/><rect x="6.09" y="18.96" width="0.45" height="0.08" fill="none" stroke="#111" stroke-width="1.6"/><rect x="6.09" y="19.85" width="0.45" height="0.09" fill="none" stroke="#111" stroke-width="1.6"/><rect x="6.09" y="20.75" width="0.45" height="0.09" fill="none" stroke="#111" stroke-width="1.6"/><rect x="6.09" y="21.64" width="0.45" height="0.09" fill="none" stroke="#111" stroke-width="1.6"/><rect x="6.09" y="22.54" width="0.45" height="0.09" fill="none" stroke="#111" stroke-width="1.6"/><rect x="6.09" y="23.44" width="0.45" height="0.09" fill="none" stroke="#111" stroke-width="1.6"/><rect x="6.09" y="24.33" width="0.45" height="0.09" fill="none" stroke="#111" stroke-width="1.6"/><rect x="6.09" y="25.23" width="0.45" height="0.09" fill="none" stroke="#111" stroke-width="1.6"/><rect x="6.09" y="26.13" width="0.45" height="0.09" fill="none" stroke="#111" stroke-width="1.6"/><rect x="6.09" y="27.02" width="0.45" height="0.09" fill="none" stroke="#111" stroke-width="1.6"/><rect x="6.09" y="27.92" width="0.45" height="0.09" fill="none" stroke="#111" stroke-width="1.6"/><rect x="6.09" y="28.82" width="0.45" height="0.09" fill="none" stroke="#111" stroke-width="1.6"/><rect x="6.09" y="29.71" width="0.45" height="0.09" fill="none" stroke="#111" stroke-width="1.6"/><rect x="6.09" y="30.61" width="0.45" height="0.09" fill="none" stroke="#111" stroke-width="1.6"/><rect x="6.09" y="31.51" width="0.45" height="0.09" fill="none" stroke="#111" stroke-width="1.6"/><rect x="6.09" y="32.4" width="0.45" height="0.09" fill="none" stroke="#111" stroke-width="1.6"/><rect x="6.09" y="33.3" width="0.45" height="0.09" fill="none" stroke="#111" stroke-width="1.6"/><rect x="6.09" y="34.2" width="0.45" height="0.09" fill="none" stroke="#111" stroke-width="1.6"/><rect x="6.09" y="35.09" width="0.45" height="0.09" fill="none" stroke="#111" stroke-width="1.6"/><rect x="6.09" y="35.99" width="0.45" height="0.09" fill="none" stroke="#111" stroke-width="1.6"/><rect x="6.09" y="36.89" width="0.45" height="0.09" fill="none" stroke="#111" stroke-width="1.6"/><rect x="6.09" y="37.78" width="0.45" height="0.09" fill="none" stroke="#111" stroke-width="1.6"/><rect x="6.09" y="38.68" width="0.45" height="0.09" fill="none" stroke="#111" stroke-width="1.6"/><rect x="6.09" y="39.58" width="0.45" height="0.09" fill="none" stroke="#111" stroke-width="1.6"/><rect x="6.09" y="40.47" width="0.45" height="0.09" fill="none" stroke="#111" stroke-width="1.6"/><rect x="6.09" y="41.37" width="0.45" height="0.09" fill="none" stroke="#111" stroke-width="1.6"/><rect x="6.09" y="42.27" width="0.45" height="0.09" fill="none" stroke="#111" stroke-width="1.6"/><rect x="6.09" y="43.16" width="0.45" height="0.09" fill="none" stroke="#111" stroke-width="1.6"/><rect x="6.09" y="44.06" width="0.45" height="0.09" fill="none" stroke="#111" stroke-width="1.6"/><rect x="6.09" y="44.96" width="0.45" height="0.08" fill="none" stroke="#111" stroke-width="1.6"/><rect x="6.09" y="45.85" width="0.45" height="0.09" fill="none" stroke="#111" stroke-width="1.6"/><rect x="6.09" y="46.75" width="0.45" height="0.09" fill="none" stroke="#111" stroke-width="1.6"/><rect x="6.09" y="47.64" width="0.45" height="0.09" fill="none" stroke="#111" stroke-width="1.6"/><rect x="6.09" y="48.54" width="0.45" height="0.09" fill="none" stroke="#111" stroke-width="1.6"/><rect x="6.09" y="49.44" width="0.45" height="0.09" fill="none" stroke="#111" stroke-width="1.6"/><rect x="6.09" y="50.33" width="0.45" height="0.09" fill="none" stroke="#111" stroke-width="1.6"/><rect x="6.09" y="51.23" width="0.45" height="0.09" fill="none" stroke="#111" stroke-width="1.6"/><rect x="6.09" y="52.13" width="0.45" height="0.09" fill="none" stroke="#111" stroke-width="1.6"/><rect x="6.09" y="53.02" width="0.45" height="0.09" fill="none" stroke="#111" stroke-width="1.6"/><rect x="6.09" y="53.92" width="0.45" height="0.09" fill="none" stroke="#111" stroke-width="1.6"/><rect x="6.09" y="54.82" width="0.45" height="0.09" fill="none" stroke="#111" stroke-width="1.6"/><rect x="6.09" y="55.71" width="0.45" height="0.09" fill="none" stroke="#111" stroke-width="1.6"/><rect x="6.09" y="56.61" width="0.45" height="0.09" fill="none" stroke="#111" stroke-width="1.6"/><rect x="6.09" y="57.51" width="0.45" height="0.09" fill="none" stroke="#111" stroke-width="1.6"/></svg>