<svg xmlns="http://www.w3.org/2000/svg" width="96" height="64" viewBox="0 0 96 64"><rect x="6" y="6" width="2.89" height="52" fill="none" stroke="#111" stroke-width="1.6"/><polyline points="6.84,7.07 7.82,8.02" fill="none" stroke="#111" stroke-width="1.6" stroke-linecap="round" stroke-linejoin="round"/><polyline points="6.84,9.96 7.82,10.91" fill="none" stroke="#111" stroke-width="1.6" stroke-linecap="round" stroke-linejoin="round"/><polyline points="6.84,12.85 7.82,13.8" fill="none" stroke="#111" stroke-width="1.6" stroke-linecap="round" stroke-linejoin="round"/><polyline points="6.84,15.74 7.82,16.69" fill="none" stroke="#111" stroke-width="1.6" stroke-linecap="round" stroke-linejoin="round"/><polyline points="6.84,18.62 7.82,19.58" fill="none" stroke="#111" stroke-width="1.6" stroke-linecap="round" stroke-linejoin="round"/><polyline points="6.84,21.51 7.82,22.47" fill="none" stroke="#111" stroke-width="1.6" stroke-linecap="round" stroke-linejoin="round"/><polyline points="6.84,24.4 7.82,25.36" fill="none" stroke="#111" stroke-width="1.6" stroke-linecap="round" stroke-linejoin="round"/><polyline points="6.84,27.29 7.82,28.24" fill="none" stroke="#111" stroke-width="1.6" stroke-linecap="round" stroke-linejoin="round"/><polyline points="6.84,30.18 7.82,31.13" fill="none" stroke="#111" stroke-width="1.6" stroke-linecap="round" stroke-linejoin="round"/><polyline points="6.84,33.07 7.82,34.02" fill="none" stroke="#111" stroke-width="1.6" stroke-linecap="round" stroke-linejoin="round"/><polyline points="6.84,35.96 7.82,36.91" fill="none" stroke="#111" stroke-width="1.6" stroke-linecap="round" stroke-linejoin="round"/><polyline points="6.84,38.85 7.82,39.8" fill="none" stroke="#111" stroke-width="1.6" stroke-linecap="round" stroke-linejoin="round"/><polyline points="6.84,41.74 7.82,42.69" fill="none" stroke="#111" stroke-width="1.6" stroke-linecap="round" stroke-linejoin="round"/><polyline points="6.84,44.62 7.82,45.58" fill="none" stroke="#111" stroke-width="1.6" stroke-linecap="round" stroke-linejoin="round"/><polyline points="6.84,47.51 7.82,48.47" fill="none" stroke="#111" stroke-width="1.6" stroke-linecap="round" stroke-linejoin="round"/><polyline points="6.84,50.4 7.82,51.36" fill="none" stroke="#111" stroke-width="1.6" stroke-linecap="round" stroke-linejoin="round"/><polyline points="6.84,53.29 7.82,54.24" fill="none" stroke="#111" stroke-width="1.6" stroke-linecap="round" stroke-linejoin="round"/><polyline points="6.84,56.18 7.82,57.13" fill="none" stroke="#111" stroke-width="1.6" stroke-linecap="round" stroke-linejoin="round"/><polyline points="7.04,6.87 8.02,7.82" fill="none" stroke="#111" stroke-width="1.6" stroke-linecap="round" stroke-linejoin="round"/><polyline points="7.04,9.76 8.02,10.71" fill="none" stroke="#111" stroke-width="1.6" stroke-linecap="round" stroke-linejoin="round"/><polyline points="7.04,12.64 8.02,13.6" fill="none" stroke="#111" stroke-width="1.6" stroke-linecap="round" stroke-linejoin="round"/><polyline points="7.04,15.53 8.02,16.49" fill="none" stroke="#111" stroke-width="1.6" stroke-linecap="round" stroke-linejoin="round"/><polyline points="7.04,18.42 8.02,19.38" fill="none" stroke="#111" stroke-width="1.6" stroke-linecap="round" stroke-linejoin="round"/><polyline points="7.04,21.31 8.02,22.26" fill="none" stroke="#111" stroke-width="1.6" stroke-linecap="round" stroke-linejoin="round"/><polyline points="7.04,24.2 8.02,25.15" fill="none" stroke="#111" stroke-width="1.6" stroke-linecap="round" stroke-linejoin="round"/><polyline points="7.04,27.09 8.02,28.04" fill="none" stroke="#111" stroke-width="1.6" stroke-linecap="round" stroke-linejoin="round"/><polyline points="7.04,29.98 8.02,30.93" fill="none" stroke="#111" stroke-width="1.6" stroke-linecap="round" stroke-linejoin="round"/><polyline points="7.04,32.87 8.02,33.82" fill="none" stroke="#111" stroke-width="1.6" stroke-linecap="round" stroke-linejoin="round"/><polyline points="7.04,35.76 8.02,36.71" fill="none" stroke="#111" stroke-width="1.6" stroke-linecap="round" stroke-linejoin="round"/><polyline points="7.04,38.64 8.02,39.6" fill="none" stroke="#111" stroke-width="1.6" stroke-linecap="round" stroke-linejoin="round"/><polyline points="7.04,41.53 8.02,42.49" fill="none" stroke="#111" stroke-width="1.6" stroke-linecap="round" stroke-linejoin="round"/><polyline points="7.04,44.42 8.02,45.38" fill="none" stroke="#111" stroke-width="1.6" stroke-linecap="round" stroke-linejoin="round"/><polyline points="7.04,47.31 8.02,48.26" fill="none" stroke="#111" stroke-width="1.6" stroke-linecap="round" stroke-linejoin="round"/><polyline points="7.04,50.2 8.02,51.15" fill="none" stroke="#111" stroke-width="1.6" stroke-linecap="round" stroke-linejoin="round"/><polyline points="7.04,53.09 8.02,54.04" fill="none" stroke="#111" stroke-width="1.6" stroke-linecap="round" stroke-linejoin="round"/><polyline points="7.04,55.98 8.02,56.93" fill="none" stroke="#111" stroke-width="1.6" stroke-linecap="round" stroke-linejoin="round"/><circle cx="7.44" cy="7.44" r="0.72" fill="none" stroke="#111" stroke-width="1.6"/><circle cx="7.44" cy="10.33" r="0.72" fill="none" stroke="#111" stroke-width="1.6"/><circle cx="7.44" cy="13.22" r="0.72" fill="none" stroke="#111" stroke-width="1.6"/><circle cx="7.44" cy="16.11" r="0.72" fill="none" stroke="#111" stroke-width="1.6"/><circle cx="7.44" cy="19" r="0.72" fill="none" stroke="#111" stroke-width="1.6"/><circle cx="7.44" cy="21.89" r="0.72" fill="none" stroke="#111" stroke-width="1.6"/><circle cx="7.44" cy="24.78" r="0.72" fill="none" stroke="#111" stroke-width="1.6"/><circle cx="7.44" cy="27.67" r="0.72" fill="none" stroke="#111" stroke-width="1.6"/><circle cx="7.44" cy="30.56" r="0.72" fill="none" stroke="#111" stroke-width="1.6"/><circle cx="7.44" cy="33.44" r="0.72" fill="none" stroke="#111" stroke-width="1.6"/><circle cx="7.44" cy="36.33" r="0.72" fill="none" stroke="#111" stroke-width="1.6"/><circle cx="7.44" cy="39.22" r="0.72" fill="none" stroke="#111" stroke-width="1.6"/><circle cx="7.44" cy="42.11" r="0.72" fill="none" stroke="#111" stroke-width="1.6"/><circle cx="7.44" cy="45" r="0.72" fill="none" stroke="#111" stroke-width="1.6"/><circle cx="7.44" cy="47.89" r="0.72" fill="none" stroke="#111" stroke-width="1.6"/><circle cx="7.44" cy="50.78" r="0.72" fill="none" stroke="#111" stroke-width="1.6"/><circle cx="7.44" cy="53.67" r="0.72" fill="none" stroke="#111" stroke-width="1.6"/><circle cx="7.44" cy="56.56" r="0.72" fill="none" stroke="#111" stroke-width="1.6"/></svg>