<svg xmlns="http://www.w3.org/2000/svg" width="96" height="64" viewBox="0 0 96 64"><rect x="6" y="6" width="84" height="17.5" fill="none" stroke="#111" stroke-width="1.6"/><circle cx="9.5" cy="8.45" r="0.7" fill="none" stroke="#111" stroke-width="1.6"/><polyline points="9.5,8.45 86.5,8.45" fill="none" stroke="#111" stroke-width="1.6" stroke-linecap="round" stroke-linejoin="round"/><polyline points="9.5,8.45 9.5,10.55 11.6,11.53 7.4,13.35 11.6,15.17 7.4,17.06 11.6,18.95 7.4,20.77 9.5,21.75 9.5,25.25" fill="none" stroke="#111" stroke-width="1.6" stroke-linecap="round" stroke-linejoin="round"/><circle cx="16.5" cy="8.45" r="0.7" fill="none" stroke="#111" stroke-width="1.6"/><polyline points="16.5,8.45 16.5,10.55 18.6,11.53 14.4,13.35 18.6,15.17 14.4,17.06 18.6,18.95 14.4,20.77 16.5,21.75 16.5,25.25" fill="none" stroke="#111" stroke-width="1.6" stroke-linecap="round" stroke-linejoin="round"/><circle cx="23.5" cy="8.45" r="0.7" fill="none" stroke="#111" stroke-width="1.6"/><polyline points="23.5,8.45 23.5,10.55 25.6,11.53 21.4,13.35 25.6,15.17 21.4,17.06 25.6,18.95 21.4,20.77 23.5,21.75 23.5,25.25" fill="none" stroke="#111" stroke-width="1.6" stroke-linecap="round" stroke-linejoin="round"/><circle cx="30.5" cy="8.45" r="0.7" fill="none" stroke="#111" stroke-width="1.6"/><polyline points="30.5,8.45 30.5,10.55 32.6,11.53 28.4,13.35 32.6,15.17 28.4,17.06 32.6,18.95 28.4,20.77 30.5,21.75 30.5,25.25" fill="none" stroke="#111" stroke-width="1.6" stroke-linecap="round" stroke-linejoin="round"/><circle cx="37.5" cy="8.45" r="0.7" fill="none" stroke="#111" stroke-width="1.6"/><polyline points="37.5,8.45 37.5,10.55 39.6,11.53 35.4,13.35 39.6,15.17 35.4,17.06 39.6,18.95 35.4,20.77 37.5,21.75 37.5,25.25" fill="none" stroke="#111" stroke-width="1.6" stroke-linecap="round" stroke-linejoin="round"/><circle cx="44.5" cy="8.45" r="0.7" fill="none" stroke="#111" stroke-width="1.6"/><polyline points="44.5,8.45 44.5,10.55 46.6,11.53 42.4,13.35 46.6,15.17 42.4,17.06 46.6,18.95 42.4,20.77 44.5,21.75 44.5,25.25" fill="none" stroke="#111" stroke-width="1.6" stroke-linecap="round" stroke-linejoin="round"/><circle cx="51.5" cy="8.45" r="0.7" fill="none" stroke="#111" stroke-width="1.6"/><polyline points="51.5,8.45 51.5,10.55 53.6,11.53 49.4,13.35 53.6,15.17 49.4,17.06 53.6,18.95 49.4,20.77 51.5,21.75 51.5,25.25" fill="none" stroke="#111" stroke-width="1.6" stroke-linecap="round" stroke-linejoin="round"/><polyline points="58.5,8.45 58.5,10.55 60.6,11.53 56.4,13.35 60.6,15.17 56.4,17.06 60.6,18.95 56.4,20.77 58.5,21.75 58.5,25.25" fill="none" stroke="#111" stroke-width="1.6" stroke-linecap="round" stroke-linejoin="round"/><circle cx="58.5" cy="8.45" r="0.7" fill="none" stroke="#111" stroke-width="1.6"/><polyline points="65.5,8.45 65.5,10.55 67.6,11.53 63.4,13.35 67.6,15.17 63.4,17.06 67.6,18.95 63.4,20.77 65.5,21.75 65.5,25.25" fill="none" stroke="#111" stroke-width="1.6" stroke-linecap="round" stroke-linejoin="round"/><circle cx="65.5" cy="8.45" r="0.7" fill="none" stroke="#111" stroke-width="1.6"/><polyline points="72.5,8.45 72.5,10.55 74.6,11.53 70.4,13.35 74.6,15.17 70.4,17.06 74.6,18.95 70.4,20.77 72.5,21.75 72.5,25.25" fill="none" stroke="#111" stroke-width="1.6" stroke-linecap="round" stroke-linejoin="round"/><circle cx="72.5" cy="8.45" r="0.7" fill="none" stroke="#111" stroke-width="1.6"/><polyline points="79.5,8.45 79.5,10.55 81.6,11.53 77.4,13.35 81.6,15.17 77.4,17.06 81.6,18.95 77.4,20.77 79.5,21.75 79.5,25.25" fill="none" stroke="#111" stroke-width="1.6" stroke-linecap="round" stroke-linejoin="round"/><circle cx="79.5" cy="8.45" r="0.7" fill="none" stroke="#111" stroke-width="1.6"/><polyline points="86.5,8.45 86.5,10.55 88.6,11.53 84.4,13.35 88.6,15.17 84.4,17.06 88.6,18.95 84.4,20.77 86.5,21.75 86.5,25.25" fill="none" stroke="#111" stroke-width="1.6" stroke-linecap="round" stroke-linejoin="round"/></svg>