<svg xmlns="http://www.w3.org/2000/svg" width="96" height="64" viewBox="0 0 96 64"><rect x="6" y="6" width="24.27" height="52" fill="none" stroke="#111" stroke-width="1.6"/><rect x="6" y="7.73" width="9.53" height="17.34" fill="none" stroke="#111" stroke-width="1.6"/><polyline points="14.32,30.27 11.89,30.27" fill="none" stroke="#111" stroke-width="1.6" stroke-linecap="round" stroke-linejoin="round"/><polyline points="14.32,33.73 11.89,33.73" fill="none" stroke="#111" stroke-width="1.6" stroke-linecap="round" stroke-linejoin="round"/><polyline points="14.32,37.2 11.89,37.2" fill="none" stroke="#111" stroke-width="1.6" stroke-linecap="round" stroke-linejoin="round"/><polyline points="14.32,40.67 11.89,40.67" fill="none" stroke="#111" stroke-width="1.6" stroke-linecap="round" stroke-linejoin="round"/><polyline points="14.32,44.13 11.89,44.13" fill="none" stroke="#111" stroke-width="1.6" stroke-linecap="round" stroke-linejoin="round"/><polyline points="14.32,47.6 11.89,47.6" fill="none" stroke="#111" stroke-width="1.6" stroke-linecap="round" stroke-linejoin="round"/><polyline points="14.32,51.07 11.89,51.07" fill="none" stroke="#111" stroke-width="1.6" stroke-linecap="round" stroke-linejoin="round"/><polyline points="14.32,54.53 11.89,54.53" fill="none" stroke="#111" stroke-width="1.6" stroke-linecap="round" stroke-linejoin="round"/><polyline points="14.67,28.88 18.83,28.88" fill="none" stroke="#111" stroke-width="1.6" stroke-linecap="round" stroke-linejoin="round"/><polyline points="14.67,32.35 18.83,32.35" fill="none" stroke="#111" stroke-width="1.6" stroke-linecap="round" stroke-linejoin="round"/><polyline points="14.67,35.81 18.83,35.81" fill="none" stroke="#111" stroke-width="1.6" stroke-linecap="round" stroke-linejoin="round"/><polyline points="14.67,39.28 18.83,39.28" fill="none" stroke="#111" stroke-width="1.6" stroke-linecap="round" stroke-linejoin="round"/><polyline points="14.67,42.75 18.83,42.75" fill="none" stroke="#111" stroke-width="1.6" stroke-linecap="round" stroke-linejoin="round"/><polyline points="14.67,46.21 18.83,46.21" fill="none" stroke="#111" stroke-width="1.6" stroke-linecap="round" stroke-linejoin="round"/><polyline points="14.67,49.68 18.83,49.68" fill="none" stroke="#111" stroke-width="1.6" stroke-linecap="round" stroke-linejoin="round"/><polyline points="14.67,53.15 18.83,53.15" fill="none" stroke="#111" stroke-width="1.6" stroke-linecap="round" stroke-linejoin="round"/><circle cx="15.01" cy="30.27" r="0.69" fill="none" stroke="#111" stroke-width="1.6"/><circle cx="15.01" cy="33.73" r="0.69" fill="none" stroke="#111" stroke-width="1.6"/><circle cx="15.01" cy="37.2" r="0.69" fill="none" stroke="#111" stroke-width="1.6"/><circle cx="15.01" cy="40.67" r="0.69" fill="none" stroke="#111" stroke-width="1.6"/><circle cx="15.01" cy="44.13" r="0.69" fill="none" stroke="#111" stroke-width="1.6"/><circle cx="15.01" cy="47.6" r="0.69" fill="none" stroke="#111" stroke-width="1.6"/><circle cx="15.01" cy="51.07" r="0.69" fill="none" stroke="#111" stroke-width="1.6"/><circle cx="15.01" cy="54.53" r="0.69" fill="none" stroke="#111" stroke-width="1.6"/><polyline points="15.53,18.13 16.4,18.13" fill="none" stroke="#111" stroke-width="1.6" stroke-linecap="round" stroke-linejoin="round"/><polyline points="16.75,18.13 16.4,18.13" fill="none" stroke="#111" stroke-width="1.6" stroke-linecap="round" stroke-linejoin="round"/><polyline points="16.75,19.87 16.75,18.83" fill="none" stroke="#111" stroke-width="1.6" stroke-linecap="round" stroke-linejoin="round"/><polyline points="16.75,21.6 16.75,20.73" fill="none" stroke="#111" stroke-width="1.6" stroke-linecap="round" stroke-linejoin="round"/><polyline points="16.75,23.33 16.75,22.47" fill="none" stroke="#111" stroke-width="1.6" stroke-linecap="round" stroke-linejoin="round"/><polyline points="16.75,25.07 16.75,24.2" fill="none" stroke="#111" stroke-width="1.6" stroke-linecap="round" stroke-linejoin="round"/><polyline points="16.75,26.8 16.75,25.93" fill="none" stroke="#111" stroke-width="1.6" stroke-linecap="round" stroke-linejoin="round"/><polyline points="16.75,28.53 16.75,27.67" fill="none" stroke="#111" stroke-width="1.6" stroke-linecap="round" stroke-linejoin="round"/><polyline points="16.75,30.27 16.75,29.4" fill="none" stroke="#111" stroke-width="1.6" stroke-linecap="round" stroke-linejoin="round"/><polyline points="16.75,32 16.75,31.13" fill="none" stroke="#111" stroke-width="1.6" stroke-linecap="round" stroke-linejoin="round"/><polyline points="16.75,33.73 16.75,32.87" fill="none" stroke="#111" stroke-width="1.6" stroke-linecap="round" stroke-linejoin="round"/><polyline points="16.75,35.47 16.75,34.6" fill="none" stroke="#111" stroke-width="1.6" stroke-linecap="round" stroke-linejoin="round"/><polyline points="16.75,37.2 16.75,36.33" fill="none" stroke="#111" stroke-width="1.6" stroke-linecap="round" stroke-linejoin="round"/><polyline points="16.75,38.93 16.75,38.07" fill="none" stroke="#111" stroke-width="1.6" stroke-linecap="round" stroke-linejoin="round"/><polyline points="16.75,41.01 16.75,40.15" fill="none" stroke="#111" stroke-width="1.6" stroke-linecap="round" stroke-linejoin="round"/><polyline points="16.75,42.75 16.75,41.88" fill="none" stroke="#111" stroke-width="1.6" stroke-linecap="round" stroke-linejoin="round"/><polyline points="16.75,42.75 16.75,41.88" fill="none" stroke="#111" stroke-width="1.6" stroke-linecap="round" stroke-linejoin="round"/><polyline points="16.75,44.48 16.75,43.61" fill="none" stroke="#111" stroke-width="1.6" stroke-linecap="round" stroke-linejoin="round"/><polyline points="16.75,46.21 16.75,45.35" fill="none" stroke="#111" stroke-width="1.6" stroke-linecap="round" stroke-linejoin="round"/><polyline points="16.75,47.95 16.75,47.08" fill="none" stroke="#111" stroke-width="1.6" stroke-linecap="round" stroke-linejoin="round"/><polyline points="16.75,49.68 16.75,48.81" fill="none" stroke="#111" stroke-width="1.6" stroke-linecap="round" stroke-linejoin="round"/><polyline points="16.75,51.41 16.75,50.55" fill="none" stroke="#111" stroke-width="1.6" stroke-linecap="round" stroke-linejoin="round"/><polyline points="16.75,53.15 16.75,52.28" fill="none" stroke="#111" stroke-width="1.6" stroke-linecap="round" stroke-linejoin="round"/><circle cx="18.48" cy="30.27" r="0.69" fill="none" stroke="#111" stroke-width="1.6"/><circle cx="18.48" cy="33.73" r="0.69" fill="none" stroke="#111" stroke-width="1.6"/><circle cx="18.48" cy="37.2" r="0.69" fill="none" stroke="#111" stroke-width="1.6"/><circle cx="18.48" cy="40.67" r="0.69" fill="none" stroke="#111" stroke-width="1.6"/><circle cx="18.48" cy="44.13" r="0.69" fill="none" stroke="#111" stroke-width="1.6"/><circle cx="18.48" cy="47.6" r="0.69" fill="none" stroke="#111" stroke-width="1.6"/><circle cx="18.48" cy="51.07" r="0.69" fill="none" stroke="#111" stroke-width="1.6"/><circle cx="18.48" cy="54.53" r="0.69" fill="none" stroke="#111" stroke-width="1.6"/><polyline points="19,30.27 19.87,30.27 19.87,54.53 19,54.53" fill="none" stroke="#111" stroke-width="1.6" stroke-linecap="round" stroke-linejoin="round"/><polyline points="19.17,33.73 19.87,33.73" fill="none" stroke="#111" stroke-width="1.6" stroke-linecap="round" stroke-linejoin="round"/><polyline points="19.17,37.2 19.87,37.2" fill="none" stroke="#111" stroke-width="1.6" stroke-linecap="round" stroke-linejoin="round"/><polyline points="19.17,40.67 19.87,40.67" fill="none" stroke="#111" stroke-width="1.6" stroke-linecap="round" stroke-linejoin="round"/><polyline points="19.17,44.13 19.87,44.13" fill="none" stroke="#111" stroke-width="1.6" stroke-linecap="round" stroke-linejoin="round"/><polyline points="19.17,47.6 19.87,47.6" fill="none" stroke="#111" stroke-width="1.6" stroke-linecap="round" stroke-linejoin="round"/><polyline points="19.17,51.07 19.87,51.07" fill="none" stroke="#111" stroke-width="1.6" stroke-linecap="round" stroke-linejoin="round"/><polyline points="19.87,47.6 26.8,47.6" fill="none" stroke="#111" stroke-width="1.6" stroke-linecap="round" stroke-linejoin="round"/></svg>