<svg xmlns="http://www.w3.org/2000/svg" width="96" height="64" viewBox="0 0 96 64"><polyline points="11.47,25.16 11.47,52.53" fill="none" stroke="#111" stroke-width="1.6" stroke-linecap="round" stroke-linejoin="round"/><polyline points="11.47,25.16 28.99,25.16" fill="none" stroke="#111" stroke-width="1.6" stroke-linecap="round" stroke-linejoin="round"/><circle cx="11.47" cy="30.63" r="0.55" fill="none" stroke="#111" stroke-width="1.6"/><circle cx="11.47" cy="47.05" r="0.55" fill="none" stroke="#111" stroke-width="1.6"/><polyline points="11.47,47.05 28.99,47.05" fill="none" stroke="#111" stroke-width="1.6" stroke-linecap="round" stroke-linejoin="round"/><circle cx="14.76" cy="25.16" r="0.55" fill="none" stroke="#111" stroke-width="1.6"/><circle cx="14.76" cy="47.05" r="0.55" fill="none" stroke="#111" stroke-width="1.6"/><polyline points="22.42,16.4 21.87,15.85 21.87,12.57 21.33,12.02" fill="none" stroke="#111" stroke-width="1.6" stroke-linecap="round" stroke-linejoin="round"/><polyline points="22.42,38.29 21.87,37.75 21.87,34.46 21.33,33.92" fill="none" stroke="#111" stroke-width="1.6" stroke-linecap="round" stroke-linejoin="round"/><circle cx="25.71" cy="25.16" r="0.55" fill="none" stroke="#111" stroke-width="1.6"/><circle cx="25.71" cy="47.05" r="0.55" fill="none" stroke="#111" stroke-width="1.6"/><polyline points="28.99,8.74 49.79,8.74" fill="none" stroke="#111" stroke-width="1.6" stroke-linecap="round" stroke-linejoin="round"/><circle cx="28.99" cy="25.16" r="0.55" fill="none" stroke="#111" stroke-width="1.6"/><polyline points="28.99,47.05 28.99,8.74" fill="none" stroke="#111" stroke-width="1.6" stroke-linecap="round" stroke-linejoin="round"/><polyline points="32,52.53 11.47,52.53" fill="none" stroke="#111" stroke-width="1.6" stroke-linecap="round" stroke-linejoin="round"/><polyline points="32.27,25.16 32.27,52.53" fill="none" stroke="#111" stroke-width="1.6" stroke-linecap="round" stroke-linejoin="round"/><polyline points="32.27,25.16 49.79,25.16" fill="none" stroke="#111" stroke-width="1.6" stroke-linecap="round" stroke-linejoin="round"/><polyline points="32.27,47.05 49.79,47.05" fill="none" stroke="#111" stroke-width="1.6" stroke-linecap="round" stroke-linejoin="round"/><circle cx="32.27" cy="47.05" r="0.55" fill="none" stroke="#111" stroke-width="1.6"/><circle cx="35.56" cy="25.16" r="0.55" fill="none" stroke="#111" stroke-width="1.6"/><circle cx="35.56" cy="47.05" r="0.55" fill="none" stroke="#111" stroke-width="1.6"/><polyline points="43.22,16.4 42.67,15.85 42.67,12.57 42.13,12.02" fill="none" stroke="#111" stroke-width="1.6" stroke-linecap="round" stroke-linejoin="round"/><polyline points="43.22,38.29 42.67,37.75 42.67,34.46 42.13,33.92" fill="none" stroke="#111" stroke-width="1.6" stroke-linecap="round" stroke-linejoin="round"/><circle cx="46.51" cy="25.16" r="0.55" fill="none" stroke="#111" stroke-width="1.6"/><circle cx="46.51" cy="47.05" r="0.55" fill="none" stroke="#111" stroke-width="1.6"/><circle cx="49.79" cy="25.16" r="0.55" fill="none" stroke="#111" stroke-width="1.6"/><circle cx="49.79" cy="30.63" r="0.55" fill="none" stroke="#111" stroke-width="1.6"/><polyline points="49.79,47.05 49.79,8.74" fill="none" stroke="#111" stroke-width="1.6" stroke-linecap="round" stroke-linejoin="round"/><polyline points="6,52.53 6,58 55.26,58 55.26,52.53" fill="none" stroke="#111" stroke-width="1.6" stroke-linecap="round" stroke-linejoin="round"/><rect x="8.74" y="6" width="43.79" height="49.26" fill="none" stroke="#111" stroke-width="1.6"/><polyline points="11.47,30.63 8.74,30.63" fill="none" stroke="#111" stroke-width="1.6" stroke-linecap="round" stroke-linejoin="round"/><polyline points="14.76,25.16 14.76,14.21 25.71,14.21 25.71,25.16" fill="none" stroke="#111" stroke-width="1.6" stroke-linecap="round" stroke-linejoin="round"/><polyline points="14.76,47.05 14.76,36.11 25.71,36.11 25.71,47.05" fill="none" stroke="#111" stroke-width="1.6" stroke-linecap="round" stroke-linejoin="round"/><polyline points="17.49,22.42 17.49,27.89" fill="none" stroke="#111" stroke-width="1.6" stroke-linecap="round" stroke-linejoin="round"/><polyline points="17.49,25.16 22.97,22.42 22.97,27.89 17.49,25.16" fill="none" stroke="#111" stroke-width="1.6" stroke-linecap="round" stroke-linejoin="round"/><polyline points="17.49,44.32 17.49,49.79" fill="none" stroke="#111" stroke-width="1.6" stroke-linecap="round" stroke-linejoin="round"/><polyline points="17.49,47.05 22.97,44.32 22.97,49.79 17.49,47.05" fill="none" stroke="#111" stroke-width="1.6" stroke-linecap="round" stroke-linejoin="round"/><polyline points="18.04,21.87 21.33,18.59" fill="none" stroke="#111" stroke-width="1.6" stroke-linecap="round" stroke-linejoin="round"/><polyline points="18.04,43.77 21.33,40.48" fill="none" stroke="#111" stroke-width="1.6" stroke-linecap="round" stroke-linejoin="round"/><polyline points="18.59,12.57 21.87,14.21 18.59,15.85 18.59,12.57" fill="none" stroke="#111" stroke-width="1.6" stroke-linecap="round" stroke-linejoin="round"/><polyline points="18.59,34.46 21.87,36.11 18.59,37.75 18.59,34.46" fill="none" stroke="#111" stroke-width="1.6" stroke-linecap="round" stroke-linejoin="round"/><polyline points="19.68,18.59 21.33,18.59 21.33,20.23" fill="none" stroke="#111" stroke-width="1.6" stroke-linecap="round" stroke-linejoin="round"/><polyline points="19.68,40.48 21.33,40.48 21.33,42.13" fill="none" stroke="#111" stroke-width="1.6" stroke-linecap="round" stroke-linejoin="round"/><polyline points="20.78,21.87 24.06,18.59" fill="none" stroke="#111" stroke-width="1.6" stroke-linecap="round" stroke-linejoin="round"/><polyline points="20.78,43.77 24.06,40.48" fill="none" stroke="#111" stroke-width="1.6" stroke-linecap="round" stroke-linejoin="round"/><polyline points="22.42,18.59 24.06,18.59 24.06,20.23" fill="none" stroke="#111" stroke-width="1.6" stroke-linecap="round" stroke-linejoin="round"/><polyline points="22.42,40.48 24.06,40.48 24.06,42.13" fill="none" stroke="#111" stroke-width="1.6" stroke-linecap="round" stroke-linejoin="round"/><polyline points="35.56,25.16 35.56,14.21 46.51,14.21 46.51,25.16" fill="none" stroke="#111" stroke-width="1.6" stroke-linecap="round" stroke-linejoin="round"/><polyline points="35.56,47.05 35.56,36.11 46.51,36.11 46.51,47.05" fill="none" stroke="#111" stroke-width="1.6" stroke-linecap="round" stroke-linejoin="round"/><polyline points="38.29,22.42 38.29,27.89" fill="none" stroke="#111" stroke-width="1.6" stroke-linecap="round" stroke-linejoin="round"/><polyline points="38.29,25.16 43.77,22.42 43.77,27.89 38.29,25.16" fill="none" stroke="#111" stroke-width="1.6" stroke-linecap="round" stroke-linejoin="round"/><polyline points="38.29,44.32 38.29,49.79" fill="none" stroke="#111" stroke-width="1.6" stroke-linecap="round" stroke-linejoin="round"/><polyline points="38.29,47.05 43.77,44.32 43.77,49.79 38.29,47.05" fill="none" stroke="#111" stroke-width="1.6" stroke-linecap="round" stroke-linejoin="round"/><polyline points="38.84,21.87 42.13,18.59" fill="none" stroke="#111" stroke-width="1.6" stroke-linecap="round" stroke-linejoin="round"/><polyline points="38.84,43.77 42.13,40.48" fill="none" stroke="#111" stroke-width="1.6" stroke-linecap="round" stroke-linejoin="round"/><polyline points="39.39,12.57 42.67,14.21 39.39,15.85 39.39,12.57" fill="none" stroke="#111" stroke-width="1.6" stroke-linecap="round" stroke-linejoin="round"/><polyline points="39.39,34.46 42.67,36.11 39.39,37.75 39.39,34.46" fill="none" stroke="#111" stroke-width="1.6" stroke-linecap="round" stroke-linejoin="round"/><polyline points="40.48,18.59 42.13,18.59 42.13,20.23" fill="none" stroke="#111" stroke-width="1.6" stroke-linecap="round" stroke-linejoin="round"/><polyline points="40.48,40.48 42.13,40.48 42.13,42.13" fill="none" stroke="#111" stroke-width="1.6" stroke-linecap="round" stroke-linejoin="round"/><polyline points="41.58,21.87 44.86,18.59" fill="none" stroke="#111" stroke-width="1.6" stroke-linecap="round" stroke-linejoin="round"/><polyline points="41.58,43.77 44.86,40.48" fill="none" stroke="#111" stroke-width="1.6" stroke-linecap="round" stroke-linejoin="round"/><polyline points="43.22,18.59 44.86,18.59 44.86,20.23" fill="none" stroke="#111" stroke-width="1.6" stroke-linecap="round" stroke-linejoin="round"/><polyline points="43.22,40.48 44.86,40.48 44.86,42.13" fill="none" stroke="#111" stroke-width="1.6" stroke-linecap="round" stroke-linejoin="round"/><polyline points="49.79,30.63 52.53,30.63" fill="none" stroke="#111" stroke-width="1.6" stroke-linecap="round" stroke-linejoin="round"/></svg>