<svg xmlns="http://www.w3.org/2000/svg" width="96" height="64" viewBox="0 0 96 64"><polyline points="6,6.28 6.42,6.28" fill="none" stroke="#111" stroke-width="1.6" stroke-linecap="round" stroke-linejoin="round"/><polyline points="6,7.67 6.42,7.67" fill="none" stroke="#111" stroke-width="1.6" stroke-linecap="round" stroke-linejoin="round"/><polyline points="6,9.06 6.42,9.06" fill="none" stroke="#111" stroke-width="1.6" stroke-linecap="round" stroke-linejoin="round"/><polyline points="6,10.45 6.42,10.45" fill="none" stroke="#111" stroke-width="1.6" stroke-linecap="round" stroke-linejoin="round"/><polyline points="6,11.84 6.42,11.84" fill="none" stroke="#111" stroke-width="1.6" stroke-linecap="round" stroke-linejoin="round"/><polyline points="6,13.23 6.42,13.23" fill="none" stroke="#111" stroke-width="1.6" stroke-linecap="round" stroke-linejoin="round"/><polyline points="6,14.62 6.42,14.62" fill="none" stroke="#111" stroke-width="1.6" stroke-linecap="round" stroke-linejoin="round"/><polyline points="6,16.01 6.42,16.01" fill="none" stroke="#111" stroke-width="1.6" stroke-linecap="round" stroke-linejoin="round"/><polyline points="6,17.4 6.42,17.4" fill="none" stroke="#111" stroke-width="1.6" stroke-linecap="round" stroke-linejoin="round"/><polyline points="6,18.79 6.42,18.79" fill="none" stroke="#111" stroke-width="1.6" stroke-linecap="round" stroke-linejoin="round"/><polyline points="6,20.18 6.42,20.18" fill="none" stroke="#111" stroke-width="1.6" stroke-linecap="round" stroke-linejoin="round"/><polyline points="6,21.57 6.42,21.57" fill="none" stroke="#111" stroke-width="1.6" stroke-linecap="round" stroke-linejoin="round"/><polyline points="6,22.96 6.42,22.96" fill="none" stroke="#111" stroke-width="1.6" stroke-linecap="round" stroke-linejoin="round"/><polyline points="6,24.35 6.42,24.35" fill="none" stroke="#111" stroke-width="1.6" stroke-linecap="round" stroke-linejoin="round"/><polyline points="6,25.74 6.42,25.74" fill="none" stroke="#111" stroke-width="1.6" stroke-linecap="round" stroke-linejoin="round"/><polyline points="6,27.13 6.42,27.13" fill="none" stroke="#111" stroke-width="1.6" stroke-linecap="round" stroke-linejoin="round"/><polyline points="6,28.52 6.42,28.52" fill="none" stroke="#111" stroke-width="1.6" stroke-linecap="round" stroke-linejoin="round"/><polyline points="6,29.91 6.42,29.91" fill="none" stroke="#111" stroke-width="1.6" stroke-linecap="round" stroke-linejoin="round"/><polyline points="6,31.3 6.42,31.3" fill="none" stroke="#111" stroke-width="1.6" stroke-linecap="round" stroke-linejoin="round"/><polyline points="6,32.7 6.42,32.7" fill="none" stroke="#111" stroke-width="1.6" stroke-linecap="round" stroke-linejoin="round"/><polyline points="6,34.09 6.42,34.09" fill="none" stroke="#111" stroke-width="1.6" stroke-linecap="round" stroke-linejoin="round"/><polyline points="6,35.48 6.42,35.48" fill="none" stroke="#111" stroke-width="1.6" stroke-linecap="round" stroke-linejoin="round"/><polyline points="6,36.87 6.42,36.87" fill="none" stroke="#111" stroke-width="1.6" stroke-linecap="round" stroke-linejoin="round"/><polyline points="6,38.26 6.42,38.26" fill="none" stroke="#111" stroke-width="1.6" stroke-linecap="round" stroke-linejoin="round"/><polyline points="6,39.65 6.42,39.65" fill="none" stroke="#111" stroke-width="1.6" stroke-linecap="round" stroke-linejoin="round"/><polyline points="6,41.04 6.42,41.04" fill="none" stroke="#111" stroke-width="1.6" stroke-linecap="round" stroke-linejoin="round"/><polyline points="6,42.43 6.42,42.43" fill="none" stroke="#111" stroke-width="1.6" stroke-linecap="round" stroke-linejoin="round"/><polyline points="6,43.82 6.42,43.82" fill="none" stroke="#111" stroke-width="1.6" stroke-linecap="round" stroke-linejoin="round"/><polyline points="6,45.21 6.42,45.21" fill="none" stroke="#111" stroke-width="1.6" stroke-linecap="round" stroke-linejoin="round"/><polyline points="6,46.6 6.42,46.6" fill="none" stroke="#111" stroke-width="1.6" stroke-linecap="round" stroke-linejoin="round"/><polyline points="6,47.99 6.42,47.99" fill="none" stroke="#111" stroke-width="1.6" stroke-linecap="round" stroke-linejoin="round"/><polyline points="6,49.38 6.42,49.38" fill="none" stroke="#111" stroke-width="1.6" stroke-linecap="round" stroke-linejoin="round"/><polyline points="6,50.77 6.42,50.77" fill="none" stroke="#111" stroke-width="1.6" stroke-linecap="round" stroke-linejoin="round"/><polyline points="6,52.16 6.42,52.16" fill="none" stroke="#111" stroke-width="1.6" stroke-linecap="round" stroke-linejoin="round"/><polyline points="6,53.55 6.42,53.55" fill="none" stroke="#111" stroke-width="1.6" stroke-linecap="round" stroke-linejoin="round"/><polyline points="6,54.94 6.42,54.94" fill="none" stroke="#111" stroke-width="1.6" stroke-linecap="round" stroke-linejoin="round"/><polyline points="6,56.33 6.42,56.33" fill="none" stroke="#111" stroke-width="1.6" stroke-linecap="round" stroke-linejoin="round"/><polyline points="6,57.72 6.42,57.72" fill="none" stroke="#111" stroke-width="1.6" stroke-linecap="round" stroke-linejoin="round"/><path d="M 6.7 6.56 Q 6.42 6.28 6.7 6" fill="none" stroke="#111" stroke-width="1.6" stroke-linecap="round"/><path d="M 6.7 7.95 Q 6.42 7.67 6.7 7.39" fill="none" stroke="#111" stroke-width="1.6" stroke-linecap="round"/><path d="M 6.7 9.34 Q 6.42 9.06 6.7 8.78" fill="none" stroke="#111" stroke-width="1.6" stroke-linecap="round"/><path d="M 6.7 10.73 Q 6.42 10.45 6.7 10.17" fill="none" stroke="#111" stroke-width="1.6" stroke-linecap="round"/><path d="M 6.7 12.12 Q 6.42 11.84 6.7 11.56" fill="none" stroke="#111" stroke-width="1.6" stroke-linecap="round"/><path d="M 6.7 13.51 Q 6.42 13.23 6.7 12.95" fill="none" stroke="#111" stroke-width="1.6" stroke-linecap="round"/><path d="M 6.7 14.9 Q 6.42 14.62 6.7 14.34" fill="none" stroke="#111" stroke-width="1.6" stroke-linecap="round"/><path d="M 6.7 16.29 Q 6.42 16.01 6.7 15.73" fill="none" stroke="#111" stroke-width="1.6" stroke-linecap="round"/><path d="M 6.7 17.68 Q 6.42 17.4 6.7 17.12" fill="none" stroke="#111" stroke-width="1.6" stroke-linecap="round"/><path d="M 6.7 19.07 Q 6.42 18.79 6.7 18.51" fill="none" stroke="#111" stroke-width="1.6" stroke-linecap="round"/><path d="M 6.7 20.46 Q 6.42 20.18 6.7 19.9" fill="none" stroke="#111" stroke-width="1.6" stroke-linecap="round"/><path d="M 6.7 21.85 Q 6.42 21.57 6.7 21.29" fill="none" stroke="#111" stroke-width="1.6" stroke-linecap="round"/><path d="M 6.7 23.24 Q 6.42 22.96 6.7 22.68" fill="none" stroke="#111" stroke-width="1.6" stroke-linecap="round"/><path d="M 6.7 24.63 Q 6.42 24.35 6.7 24.07" fill="none" stroke="#111" stroke-width="1.6" stroke-linecap="round"/><path d="M 6.7 26.02 Q 6.42 25.74 6.7 25.47" fill="none" stroke="#111" stroke-width="1.6" stroke-linecap="round"/><path d="M 6.7 27.41 Q 6.42 27.13 6.7 26.86" fill="none" stroke="#111" stroke-width="1.6" stroke-linecap="round"/><path d="M 6.7 28.8 Q 6.42 28.52 6.7 28.25" fill="none" stroke="#111" stroke-width="1.6" stroke-linecap="round"/><path d="M 6.7 30.19 Q 6.42 29.91 6.7 29.64" fill="none" stroke="#111" stroke-width="1.6" stroke-linecap="round"/><path d="M 6.7 31.58 Q 6.42 31.3 6.7 31.03" fill="none" stroke="#111" stroke-width="1.6" stroke-linecap="round"/><path d="M 6.7 32.97 Q 6.42 32.7 6.7 32.42" fill="none" stroke="#111" stroke-width="1.6" stroke-linecap="round"/><path d="M 6.7 34.36 Q 6.42 34.09 6.7 33.81" fill="none" stroke="#111" stroke-width="1.6" stroke-linecap="round"/><path d="M 6.7 35.75 Q 6.42 35.48 6.7 35.2" fill="none" stroke="#111" stroke-width="1.6" stroke-linecap="round"/><path d="M 6.7 37.14 Q 6.42 36.87 6.7 36.59" fill="none" stroke="#111" stroke-width="1.6" stroke-linecap="round"/><path d="M 6.7 38.53 Q 6.42 38.26 6.7 37.98" fill="none" stroke="#111" stroke-width="1.6" stroke-linecap="round"/><path d="M 6.7 39.93 Q 6.42 39.65 6.7 39.37" fill="none" stroke="#111" stroke-width="1.6" stroke-linecap="round"/><path d="M 6.7 41.32 Q 6.42 41.04 6.7 40.76" fill="none" stroke="#111" stroke-width="1.6" stroke-linecap="round"/><path d="M 6.7 42.71 Q 6.42 42.43 6.7 42.15" fill="none" stroke="#111" stroke-width="1.6" stroke-linecap="round"/><path d="M 6.7 44.1 Q 6.42 43.82 6.7 43.54" fill="none" stroke="#111" stroke-width="1.6" stroke-linecap="round"/><path d="M 6.7 45.49 Q 6.42 45.21 6.7 44.93" fill="none" stroke="#111" stroke-width="1.6" stroke-linecap="round"/><path d="M 6.7 46.88 Q 6.42 46.6 6.7 46.32" fill="none" stroke="#111" stroke-width="1.6" stroke-linecap="round"/><path d="M 6.7 48.27 Q 6.42 47.99 6.7 47.71" fill="none" stroke="#111" stroke-width="1.6" stroke-linecap="round"/><path d="M 6.7 49.66 Q 6.42 49.38 6.7 49.1" fill="none" stroke="#111" stroke-width="1.6" stroke-linecap="round"/><path d="M 6.7 51.05 Q 6.42 50.77 6.7 50.49" fill="none" stroke="#111" stroke-width="1.6" stroke-linecap="round"/><path d="M 6.7 52.44 Q 6.42 52.16 6.7 51.88" fill="none" stroke="#111" stroke-width="1.6" stroke-linecap="round"/><path d="M 6.7 53.83 Q 6.42 53.55 6.7 53.27" fill="none" stroke="#111" stroke-width="1.6" stroke-linecap="round"/><path d="M 6.7 55.22 Q 6.42 54.94 6.7 54.66" fill="none" stroke="#111" stroke-width="1.6" stroke-linecap="round"/><path d="M 6.7 56.61 Q 6.42 56.33 6.7 56.05" fill="none" stroke="#111" stroke-width="1.6" stroke-linecap="round"/><path d="M 6.7 58 Q 6.42 57.72 6.7 57.44" fill="none" stroke="#111" stroke-width="1.6" stroke-linecap="round"/></svg>