<svg xmlns="http://www.w3.org/2000/svg" width="96" height="64" viewBox="0 0 96 64"><polyline points="19.71,21.13 19.71,23.96 22.07,22.55 19.71,21.13 19.71,21.13" fill="none" stroke="#111" stroke-width="1.6" stroke-linecap="round" stroke-linejoin="round"/><polyline points="23.96,21.13 26.8,21.13 24.91,23.96 23.02,21.13 23.96,21.13 23.96,21.13" fill="none" stroke="#111" stroke-width="1.6" stroke-linecap="round" stroke-linejoin="round"/><rect x="6" y="20.18" width="23.64" height="4.73" fill="none" stroke="#111" stroke-width="1.6"/><rect x="6" y="24.91" width="23.64" height="4.73" fill="none" stroke="#111" stroke-width="1.6"/><rect x="6" y="29.64" width="23.64" height="4.72" fill="none" stroke="#111" stroke-width="1.6"/><rect x="6" y="34.36" width="23.64" height="4.73" fill="none" stroke="#111" stroke-width="1.6"/><rect x="6" y="39.09" width="23.64" height="4.73" fill="none" stroke="#111" stroke-width="1.6"/><rect x="6" y="43.82" width="23.64" height="4.73" fill="none" stroke="#111" stroke-width="1.6"/><rect x="6" y="48.55" width="23.64" height="4.72" fill="none" stroke="#111" stroke-width="1.6"/><rect x="6" y="53.27" width="23.64" height="4.73" fill="none" stroke="#111" stroke-width="1.6"/><polyline points="8.36,20.18 8.36,17.82 6,17.82 6,6 29.64,6 29.64,17.82 27.27,17.82 27.27,20.18 27.27,20.18" fill="none" stroke="#111" stroke-width="1.6" stroke-linecap="round" stroke-linejoin="round"/></svg>