<svg xmlns="http://www.w3.org/2000/svg" width="96" height="64" viewBox="0 0 96 64"><polyline points="29.78,48.8 29.78,25.02 37.71,40.88 45.63,25.02 45.63,48.8" fill="none" stroke="#111" stroke-width="1.6" stroke-linecap="round" stroke-linejoin="round"/><polyline points="6,21.85 9.96,21.85" fill="none" stroke="#111" stroke-width="1.6" stroke-linecap="round" stroke-linejoin="round"/><polyline points="6,53.56 9.96,53.56" fill="none" stroke="#111" stroke-width="1.6" stroke-linecap="round" stroke-linejoin="round"/><path d="M 9.96 21.85 Q 13.91 25.82 9.96 29.78" fill="none" stroke="#111" stroke-width="1.6" stroke-linecap="round"/><path d="M 9.96 29.78 Q 13.91 33.74 9.96 37.71" fill="none" stroke="#111" stroke-width="1.6" stroke-linecap="round"/><path d="M 9.96 37.71 Q 13.91 41.67 9.96 45.63" fill="none" stroke="#111" stroke-width="1.6" stroke-linecap="round"/><path d="M 9.96 45.63 Q 13.91 49.6 9.96 53.56" fill="none" stroke="#111" stroke-width="1.6" stroke-linecap="round"/><polyline points="21.85,6 21.85,9.96" fill="none" stroke="#111" stroke-width="1.6" stroke-linecap="round" stroke-linejoin="round"/><path d="M 29.78 9.96 Q 25.82 13.91 21.85 9.96" fill="none" stroke="#111" stroke-width="1.6" stroke-linecap="round"/><path d="M 37.71 9.96 Q 33.74 13.91 29.78 9.96" fill="none" stroke="#111" stroke-width="1.6" stroke-linecap="round"/><circle cx="37.71" cy="37.71" r="20.29" fill="none" stroke="#111" stroke-width="1.6"/><path d="M 45.63 9.96 Q 41.67 13.91 37.71 9.96" fill="none" stroke="#111" stroke-width="1.6" stroke-linecap="round"/><path d="M 53.56 9.96 Q 49.6 13.91 45.63 9.96" fill="none" stroke="#111" stroke-width="1.6" stroke-linecap="round"/><polyline points="53.56,6 53.56,9.96" fill="none" stroke="#111" stroke-width="1.6" stroke-linecap="round" stroke-linejoin="round"/></svg>