<svg xmlns="http://www.w3.org/2000/svg" width="96" height="64" viewBox="0 0 96 64"><polyline points="6,6.43 6.64,6.43" fill="none" stroke="#111" stroke-width="1.6" stroke-linecap="round" stroke-linejoin="round"/><polyline points="6,8.56 6.64,8.56" fill="none" stroke="#111" stroke-width="1.6" stroke-linecap="round" stroke-linejoin="round"/><polyline points="6,10.69 6.64,10.69" fill="none" stroke="#111" stroke-width="1.6" stroke-linecap="round" stroke-linejoin="round"/><polyline points="6,12.82 6.64,12.82" fill="none" stroke="#111" stroke-width="1.6" stroke-linecap="round" stroke-linejoin="round"/><polyline points="6,14.95 6.64,14.95" fill="none" stroke="#111" stroke-width="1.6" stroke-linecap="round" stroke-linejoin="round"/><polyline points="6,17.08 6.64,17.08" fill="none" stroke="#111" stroke-width="1.6" stroke-linecap="round" stroke-linejoin="round"/><polyline points="6,19.21 6.64,19.21" fill="none" stroke="#111" stroke-width="1.6" stroke-linecap="round" stroke-linejoin="round"/><polyline points="6,21.34 6.64,21.34" fill="none" stroke="#111" stroke-width="1.6" stroke-linecap="round" stroke-linejoin="round"/><polyline points="6,23.48 6.64,23.48" fill="none" stroke="#111" stroke-width="1.6" stroke-linecap="round" stroke-linejoin="round"/><polyline points="6,25.61 6.64,25.61" fill="none" stroke="#111" stroke-width="1.6" stroke-linecap="round" stroke-linejoin="round"/><polyline points="6,27.74 6.64,27.74" fill="none" stroke="#111" stroke-width="1.6" stroke-linecap="round" stroke-linejoin="round"/><polyline points="6,29.87 6.64,29.87" fill="none" stroke="#111" stroke-width="1.6" stroke-linecap="round" stroke-linejoin="round"/><polyline points="6,32 6.64,32" fill="none" stroke="#111" stroke-width="1.6" stroke-linecap="round" stroke-linejoin="round"/><polyline points="6,34.13 6.64,34.13" fill="none" stroke="#111" stroke-width="1.6" stroke-linecap="round" stroke-linejoin="round"/><polyline points="6,36.26 6.64,36.26" fill="none" stroke="#111" stroke-width="1.6" stroke-linecap="round" stroke-linejoin="round"/><polyline points="6,38.39 6.64,38.39" fill="none" stroke="#111" stroke-width="1.6" stroke-linecap="round" stroke-linejoin="round"/><polyline points="6,40.52 6.64,40.52" fill="none" stroke="#111" stroke-width="1.6" stroke-linecap="round" stroke-linejoin="round"/><polyline points="6,42.66 6.64,42.66" fill="none" stroke="#111" stroke-width="1.6" stroke-linecap="round" stroke-linejoin="round"/><polyline points="6,44.79 6.64,44.79" fill="none" stroke="#111" stroke-width="1.6" stroke-linecap="round" stroke-linejoin="round"/><polyline points="6,46.92 6.64,46.92" fill="none" stroke="#111" stroke-width="1.6" stroke-linecap="round" stroke-linejoin="round"/><polyline points="6,49.05 6.64,49.05" fill="none" stroke="#111" stroke-width="1.6" stroke-linecap="round" stroke-linejoin="round"/><polyline points="6,51.18 6.64,51.18" fill="none" stroke="#111" stroke-width="1.6" stroke-linecap="round" stroke-linejoin="round"/><polyline points="6,53.31 6.64,53.31" fill="none" stroke="#111" stroke-width="1.6" stroke-linecap="round" stroke-linejoin="round"/><polyline points="6,55.44 6.64,55.44" fill="none" stroke="#111" stroke-width="1.6" stroke-linecap="round" stroke-linejoin="round"/><polyline points="6,57.57 6.64,57.57" fill="none" stroke="#111" stroke-width="1.6" stroke-linecap="round" stroke-linejoin="round"/><path d="M 7.07 6.85 Q 6.64 6.43 7.07 6" fill="none" stroke="#111" stroke-width="1.6" stroke-linecap="round"/><path d="M 7.07 8.98 Q 6.64 8.56 7.07 8.13" fill="none" stroke="#111" stroke-width="1.6" stroke-linecap="round"/><path d="M 7.07 11.11 Q 6.64 10.69 7.07 10.26" fill="none" stroke="#111" stroke-width="1.6" stroke-linecap="round"/><path d="M 7.07 13.25 Q 6.64 12.82 7.07 12.39" fill="none" stroke="#111" stroke-width="1.6" stroke-linecap="round"/><path d="M 7.07 15.38 Q 6.64 14.95 7.07 14.52" fill="none" stroke="#111" stroke-width="1.6" stroke-linecap="round"/><path d="M 7.07 17.51 Q 6.64 17.08 7.07 16.66" fill="none" stroke="#111" stroke-width="1.6" stroke-linecap="round"/><path d="M 7.07 19.64 Q 6.64 19.21 7.07 18.79" fill="none" stroke="#111" stroke-width="1.6" stroke-linecap="round"/><path d="M 7.07 21.77 Q 6.64 21.34 7.07 20.92" fill="none" stroke="#111" stroke-width="1.6" stroke-linecap="round"/><path d="M 7.07 23.9 Q 6.64 23.48 7.07 23.05" fill="none" stroke="#111" stroke-width="1.6" stroke-linecap="round"/><path d="M 7.07 26.03 Q 6.64 25.61 7.07 25.18" fill="none" stroke="#111" stroke-width="1.6" stroke-linecap="round"/><path d="M 7.07 28.16 Q 6.64 27.74 7.07 27.31" fill="none" stroke="#111" stroke-width="1.6" stroke-linecap="round"/><path d="M 7.07 30.3 Q 6.64 29.87 7.07 29.44" fill="none" stroke="#111" stroke-width="1.6" stroke-linecap="round"/><path d="M 7.07 32.43 Q 6.64 32 7.07 31.57" fill="none" stroke="#111" stroke-width="1.6" stroke-linecap="round"/><path d="M 7.07 34.56 Q 6.64 34.13 7.07 33.7" fill="none" stroke="#111" stroke-width="1.6" stroke-linecap="round"/><path d="M 7.07 36.69 Q 6.64 36.26 7.07 35.84" fill="none" stroke="#111" stroke-width="1.6" stroke-linecap="round"/><path d="M 7.07 38.82 Q 6.64 38.39 7.07 37.97" fill="none" stroke="#111" stroke-width="1.6" stroke-linecap="round"/><path d="M 7.07 40.95 Q 6.64 40.52 7.07 40.1" fill="none" stroke="#111" stroke-width="1.6" stroke-linecap="round"/><path d="M 7.07 43.08 Q 6.64 42.66 7.07 42.23" fill="none" stroke="#111" stroke-width="1.6" stroke-linecap="round"/><path d="M 7.07 45.21 Q 6.64 44.79 7.07 44.36" fill="none" stroke="#111" stroke-width="1.6" stroke-linecap="round"/><path d="M 7.07 47.34 Q 6.64 46.92 7.07 46.49" fill="none" stroke="#111" stroke-width="1.6" stroke-linecap="round"/><path d="M 7.07 49.48 Q 6.64 49.05 7.07 48.62" fill="none" stroke="#111" stroke-width="1.6" stroke-linecap="round"/><path d="M 7.07 51.61 Q 6.64 51.18 7.07 50.75" fill="none" stroke="#111" stroke-width="1.6" stroke-linecap="round"/><path d="M 7.07 53.74 Q 6.64 53.31 7.07 52.89" fill="none" stroke="#111" stroke-width="1.6" stroke-linecap="round"/><path d="M 7.07 55.87 Q 6.64 55.44 7.07 55.02" fill="none" stroke="#111" stroke-width="1.6" stroke-linecap="round"/><path d="M 7.07 58 Q 6.64 57.57 7.07 57.15" fill="none" stroke="#111" stroke-width="1.6" stroke-linecap="round"/></svg>