<svg xmlns="http://www.w3.org/2000/svg" width="96" height="64" viewBox="0 0 96 64"><rect x="6" y="6" width="84" height="28" fill="none" stroke="#111" stroke-width="1.6"/><rect x="8.1" y="10.69" width="2.8" height="7" fill="none" stroke="#111" stroke-width="1.6"/><polyline points="9.5,6 9.5,10.69" fill="none" stroke="#111" stroke-width="1.6" stroke-linecap="round" stroke-linejoin="round"/><circle cx="9.5" cy="8.38" r="0.7" fill="none" stroke="#111" stroke-width="1.6"/><polyline points="9.5,8.38 23.5,8.38 23.5,10.69" fill="none" stroke="#111" stroke-width="1.6" stroke-linecap="round" stroke-linejoin="round"/><circle cx="9.5" cy="20" r="0.7" fill="none" stroke="#111" stroke-width="1.6"/><polyline points="9.5,20 13.7,20 13.7,22.31" fill="none" stroke="#111" stroke-width="1.6" stroke-linecap="round" stroke-linejoin="round"/><polyline points="9.5,34 9.5,17.69" fill="none" stroke="#111" stroke-width="1.6" stroke-linecap="round" stroke-linejoin="round"/><rect x="12.3" y="22.31" width="2.8" height="7" fill="none" stroke="#111" stroke-width="1.6"/><polyline points="13.7,29.31 13.7,31.62 86.5,31.62" fill="none" stroke="#111" stroke-width="1.6" stroke-linecap="round" stroke-linejoin="round"/><rect x="22.1" y="10.69" width="2.8" height="7" fill="none" stroke="#111" stroke-width="1.6"/><circle cx="23.5" cy="8.38" r="0.7" fill="none" stroke="#111" stroke-width="1.6"/><polyline points="23.5,8.38 37.5,8.38 37.5,10.69" fill="none" stroke="#111" stroke-width="1.6" stroke-linecap="round" stroke-linejoin="round"/><circle cx="23.5" cy="20" r="0.7" fill="none" stroke="#111" stroke-width="1.6"/><polyline points="23.5,20 27.7,20 27.7,22.31" fill="none" stroke="#111" stroke-width="1.6" stroke-linecap="round" stroke-linejoin="round"/><polyline points="23.5,34 23.5,17.69" fill="none" stroke="#111" stroke-width="1.6" stroke-linecap="round" stroke-linejoin="round"/><rect x="26.3" y="22.31" width="2.8" height="7" fill="none" stroke="#111" stroke-width="1.6"/><polyline points="27.7,29.31 27.7,31.62 86.5,31.62" fill="none" stroke="#111" stroke-width="1.6" stroke-linecap="round" stroke-linejoin="round"/><circle cx="27.7" cy="31.62" r="0.7" fill="none" stroke="#111" stroke-width="1.6"/><rect x="36.1" y="10.69" width="2.8" height="7" fill="none" stroke="#111" stroke-width="1.6"/><circle cx="37.5" cy="8.38" r="0.7" fill="none" stroke="#111" stroke-width="1.6"/><polyline points="37.5,8.38 51.5,8.38 51.5,10.69" fill="none" stroke="#111" stroke-width="1.6" stroke-linecap="round" stroke-linejoin="round"/><circle cx="37.5" cy="20" r="0.7" fill="none" stroke="#111" stroke-width="1.6"/><polyline points="37.5,20 41.7,20 41.7,22.31" fill="none" stroke="#111" stroke-width="1.6" stroke-linecap="round" stroke-linejoin="round"/><polyline points="37.5,34 37.5,17.69" fill="none" stroke="#111" stroke-width="1.6" stroke-linecap="round" stroke-linejoin="round"/><rect x="40.3" y="22.31" width="2.8" height="7" fill="none" stroke="#111" stroke-width="1.6"/><polyline points="41.7,29.31 41.7,31.62 86.5,31.62" fill="none" stroke="#111" stroke-width="1.6" stroke-linecap="round" stroke-linejoin="round"/><circle cx="41.7" cy="31.62" r="0.7" fill="none" stroke="#111" stroke-width="1.6"/><rect x="50.1" y="10.69" width="2.8" height="7" fill="none" stroke="#111" stroke-width="1.6"/><circle cx="51.5" cy="8.38" r="0.7" fill="none" stroke="#111" stroke-width="1.6"/><polyline points="51.5,8.38 65.5,8.38 65.5,10.69" fill="none" stroke="#111" stroke-width="1.6" stroke-linecap="round" stroke-linejoin="round"/><polyline points="51.5,20 55.7,20 55.7,22.31" fill="none" stroke="#111" stroke-width="1.6" stroke-linecap="round" stroke-linejoin="round"/><circle cx="51.5" cy="20" r="0.7" fill="none" stroke="#111" stroke-width="1.6"/><polyline points="51.5,34 51.5,17.69" fill="none" stroke="#111" stroke-width="1.6" stroke-linecap="round" stroke-linejoin="round"/><rect x="54.3" y="22.31" width="2.8" height="7" fill="none" stroke="#111" stroke-width="1.6"/><polyline points="55.7,29.31 55.7,31.62 86.5,31.62" fill="none" stroke="#111" stroke-width="1.6" stroke-linecap="round" stroke-linejoin="round"/><circle cx="55.7" cy="31.62" r="0.7" fill="none" stroke="#111" stroke-width="1.6"/><rect x="64.1" y="10.69" width="2.8" height="7" fill="none" stroke="#111" stroke-width="1.6"/><polyline points="65.5,8.38 79.5,8.38 79.5,10.69" fill="none" stroke="#111" stroke-width="1.6" stroke-linecap="round" stroke-linejoin="round"/><circle cx="65.5" cy="8.38" r="0.7" fill="none" stroke="#111" stroke-width="1.6"/><polyline points="65.5,20 69.7,20 69.7,22.31" fill="none" stroke="#111" stroke-width="1.6" stroke-linecap="round" stroke-linejoin="round"/><circle cx="65.5" cy="20" r="0.7" fill="none" stroke="#111" stroke-width="1.6"/><polyline points="65.5,34 65.5,17.69" fill="none" stroke="#111" stroke-width="1.6" stroke-linecap="round" stroke-linejoin="round"/><rect x="68.3" y="22.31" width="2.8" height="7" fill="none" stroke="#111" stroke-width="1.6"/><polyline points="69.7,29.31 69.7,31.62 86.5,31.62" fill="none" stroke="#111" stroke-width="1.6" stroke-linecap="round" stroke-linejoin="round"/><circle cx="69.7" cy="31.62" r="0.7" fill="none" stroke="#111" stroke-width="1.6"/><rect x="78.1" y="10.69" width="2.8" height="7" fill="none" stroke="#111" stroke-width="1.6"/><polyline points="79.5,20 83.7,20 83.7,22.31" fill="none" stroke="#111" stroke-width="1.6" stroke-linecap="round" stroke-linejoin="round"/><circle cx="79.5" cy="20" r="0.7" fill="none" stroke="#111" stroke-width="1.6"/><polyline points="79.5,34 79.5,17.69" fill="none" stroke="#111" stroke-width="1.6" stroke-linecap="round" stroke-linejoin="round"/><rect x="82.3" y="22.31" width="2.8" height="7" fill="none" stroke="#111" stroke-width="1.6"/><polyline points="83.7,29.31 83.7,31.62 86.5,31.62" fill="none" stroke="#111" stroke-width="1.6" stroke-linecap="round" stroke-linejoin="round"/><circle cx="83.7" cy="31.62" r="0.7" fill="none" stroke="#111" stroke-width="1.6"/><polyline points="86.5,31.62 86.5,6" fill="none" stroke="#111" stroke-width="1.6" stroke-linecap="round" stroke-linejoin="round"/></svg>