<svg xmlns="http://www.w3.org/2000/svg" width="96" height="64" viewBox="0 0 96 64"><rect x="6" y="6" width="2" height="52" fill="none" stroke="#111" stroke-width="1.6"/><rect x="6.2" y="6.2" width="1.6" height="51.6" fill="none" stroke="#111" stroke-width="1.6"/><rect x="6.2" y="6.9" width="1" height="0.2" fill="none" stroke="#111" stroke-width="1.6"/><rect x="6.2" y="8.9" width="1" height="0.2" fill="none" stroke="#111" stroke-width="1.6"/><rect x="6.2" y="10.9" width="1" height="0.2" fill="none" stroke="#111" stroke-width="1.6"/><rect x="6.2" y="12.9" width="1" height="0.2" fill="none" stroke="#111" stroke-width="1.6"/><rect x="6.2" y="14.9" width="1" height="0.2" fill="none" stroke="#111" stroke-width="1.6"/><rect x="6.2" y="16.9" width="1" height="0.2" fill="none" stroke="#111" stroke-width="1.6"/><rect x="6.2" y="18.9" width="1" height="0.2" fill="none" stroke="#111" stroke-width="1.6"/><rect x="6.2" y="20.9" width="1" height="0.2" fill="none" stroke="#111" stroke-width="1.6"/><rect x="6.2" y="22.9" width="1" height="0.2" fill="none" stroke="#111" stroke-width="1.6"/><rect x="6.2" y="24.9" width="1" height="0.2" fill="none" stroke="#111" stroke-width="1.6"/><rect x="6.2" y="26.9" width="1" height="0.2" fill="none" stroke="#111" stroke-width="1.6"/><rect x="6.2" y="28.9" width="1" height="0.2" fill="none" stroke="#111" stroke-width="1.6"/><rect x="6.2" y="30.9" width="1" height="0.2" fill="none" stroke="#111" stroke-width="1.6"/><rect x="6.2" y="32.9" width="1" height="0.2" fill="none" stroke="#111" stroke-width="1.6"/><rect x="6.2" y="34.9" width="1" height="0.2" fill="none" stroke="#111" stroke-width="1.6"/><rect x="6.2" y="36.9" width="1" height="0.2" fill="none" stroke="#111" stroke-width="1.6"/><rect x="6.2" y="38.9" width="1" height="0.2" fill="none" stroke="#111" stroke-width="1.6"/><rect x="6.2" y="40.9" width="1" height="0.2" fill="none" stroke="#111" stroke-width="1.6"/><rect x="6.2" y="42.9" width="1" height="0.2" fill="none" stroke="#111" stroke-width="1.6"/><rect x="6.2" y="44.9" width="1" height="0.2" fill="none" stroke="#111" stroke-width="1.6"/><rect x="6.2" y="46.9" width="1" height="0.2" fill="none" stroke="#111" stroke-width="1.6"/><rect x="6.2" y="48.9" width="1" height="0.2" fill="none" stroke="#111" stroke-width="1.6"/><rect x="6.2" y="50.9" width="1" height="0.2" fill="none" stroke="#111" stroke-width="1.6"/><rect x="6.2" y="52.9" width="1" height="0.2" fill="none" stroke="#111" stroke-width="1.6"/><rect x="6.2" y="54.9" width="1" height="0.2" fill="none" stroke="#111" stroke-width="1.6"/><rect x="6.2" y="56.9" width="1" height="0.2" fill="none" stroke="#111" stroke-width="1.6"/></svg>