<svg xmlns="http://www.w3.org/2000/svg" width="96" height="64" viewBox="0 0 96 64"><rect x="6" y="6" width="84" height="10.5" fill="none" stroke="#111" stroke-width="1.6"/><rect x="6.84" y="8.73" width="2.52" height="6.72" fill="none" stroke="#111" stroke-width="1.6"/><polyline points="8.1,8.73 8.1,7.47 12.3,7.47 12.3,15.45" fill="none" stroke="#111" stroke-width="1.6" stroke-linecap="round" stroke-linejoin="round"/><rect x="19.44" y="8.73" width="2.52" height="6.72" fill="none" stroke="#111" stroke-width="1.6"/><polyline points="20.7,8.73 20.7,7.47 24.9,7.47 24.9,15.45" fill="none" stroke="#111" stroke-width="1.6" stroke-linecap="round" stroke-linejoin="round"/><rect x="32.04" y="8.73" width="2.52" height="6.72" fill="none" stroke="#111" stroke-width="1.6"/><polyline points="33.3,8.73 33.3,7.47 37.5,7.47 37.5,15.45" fill="none" stroke="#111" stroke-width="1.6" stroke-linecap="round" stroke-linejoin="round"/><rect x="44.64" y="8.73" width="2.52" height="6.72" fill="none" stroke="#111" stroke-width="1.6"/><polyline points="45.9,8.73 45.9,7.47 50.1,7.47 50.1,15.45" fill="none" stroke="#111" stroke-width="1.6" stroke-linecap="round" stroke-linejoin="round"/><rect x="57.24" y="8.73" width="2.52" height="6.72" fill="none" stroke="#111" stroke-width="1.6"/><polyline points="58.5,8.73 58.5,7.47 62.7,7.47 62.7,15.45" fill="none" stroke="#111" stroke-width="1.6" stroke-linecap="round" stroke-linejoin="round"/><rect x="69.84" y="8.73" width="2.52" height="6.72" fill="none" stroke="#111" stroke-width="1.6"/><polyline points="71.1,8.73 71.1,7.47 75.3,7.47 75.3,15.45" fill="none" stroke="#111" stroke-width="1.6" stroke-linecap="round" stroke-linejoin="round"/><rect x="82.44" y="8.73" width="2.52" height="6.72" fill="none" stroke="#111" stroke-width="1.6"/><polyline points="83.7,8.73 83.7,7.47 87.9,7.47 87.9,15.45" fill="none" stroke="#111" stroke-width="1.6" stroke-linecap="round" stroke-linejoin="round"/></svg>