<svg xmlns="http://www.w3.org/2000/svg" width="96" height="64" viewBox="0 0 96 64"><polyline points="6,11.18 6,10.05" fill="none" stroke="#111" stroke-width="1.6" stroke-linecap="round" stroke-linejoin="round"/><polyline points="6,11.18 6,11.65" fill="none" stroke="#111" stroke-width="1.6" stroke-linecap="round" stroke-linejoin="round"/><polyline points="6,12.78 6,11.65" fill="none" stroke="#111" stroke-width="1.6" stroke-linecap="round" stroke-linejoin="round"/><polyline points="6,12.78 6,56.87" fill="none" stroke="#111" stroke-width="1.6" stroke-linecap="round" stroke-linejoin="round"/><polyline points="6.9,9.14 13.23,9.14" fill="none" stroke="#111" stroke-width="1.6" stroke-linecap="round" stroke-linejoin="round"/><path d="M 6 10.05 Q 6.26 9.41 6.9 9.14" fill="none" stroke="#111" stroke-width="1.6" stroke-linecap="round"/><polyline points="7.13,58 18.43,58" fill="none" stroke="#111" stroke-width="1.6" stroke-linecap="round" stroke-linejoin="round"/><path d="M 7.13 58 Q 6.33 57.67 6 56.87" fill="none" stroke="#111" stroke-width="1.6" stroke-linecap="round"/><circle cx="8.26" cy="7.36" r="1.13" fill="none" stroke="#111" stroke-width="1.6"/><rect x="8.26" y="10.07" width="2.26" height="0.9" fill="none" stroke="#111" stroke-width="1.6"/><rect x="8.26" y="14.59" width="2.26" height="0.91" fill="none" stroke="#111" stroke-width="1.6"/><rect x="8.26" y="19.11" width="2.26" height="0.91" fill="none" stroke="#111" stroke-width="1.6"/><rect x="8.26" y="23.63" width="2.26" height="0.91" fill="none" stroke="#111" stroke-width="1.6"/><rect x="8.26" y="28.16" width="2.26" height="0.9" fill="none" stroke="#111" stroke-width="1.6"/><rect x="8.26" y="32.68" width="2.26" height="0.9" fill="none" stroke="#111" stroke-width="1.6"/><rect x="8.26" y="37.2" width="2.26" height="0.9" fill="none" stroke="#111" stroke-width="1.6"/><rect x="8.26" y="41.72" width="2.26" height="0.91" fill="none" stroke="#111" stroke-width="1.6"/><rect x="8.26" y="46.24" width="2.26" height="0.91" fill="none" stroke="#111" stroke-width="1.6"/><rect x="8.26" y="50.77" width="2.26" height="0.9" fill="none" stroke="#111" stroke-width="1.6"/><rect x="8.26" y="55.29" width="2.26" height="0.9" fill="none" stroke="#111" stroke-width="1.6"/><path d="M 13.87 8.69 Q 13.63 9.04 13.23 9.17" fill="none" stroke="#111" stroke-width="1.6" stroke-linecap="round"/><rect x="15.04" y="12.33" width="2.26" height="0.9" fill="none" stroke="#111" stroke-width="1.6"/><rect x="15.04" y="16.85" width="2.26" height="0.91" fill="none" stroke="#111" stroke-width="1.6"/><rect x="15.04" y="21.37" width="2.26" height="0.91" fill="none" stroke="#111" stroke-width="1.6"/><rect x="15.04" y="25.9" width="2.26" height="0.9" fill="none" stroke="#111" stroke-width="1.6"/><rect x="15.04" y="30.42" width="2.26" height="0.9" fill="none" stroke="#111" stroke-width="1.6"/><rect x="15.04" y="34.94" width="2.26" height="0.9" fill="none" stroke="#111" stroke-width="1.6"/><rect x="15.04" y="39.46" width="2.26" height="0.91" fill="none" stroke="#111" stroke-width="1.6"/><rect x="15.04" y="43.98" width="2.26" height="0.91" fill="none" stroke="#111" stroke-width="1.6"/><rect x="15.04" y="48.5" width="2.26" height="0.91" fill="none" stroke="#111" stroke-width="1.6"/><rect x="15.04" y="53.03" width="2.26" height="0.9" fill="none" stroke="#111" stroke-width="1.6"/><polyline points="15.72,6.68 13.91,8.71" fill="none" stroke="#111" stroke-width="1.6" stroke-linecap="round" stroke-linejoin="round"/><path d="M 15.79 6.7 Q 16.34 6.18 17.08 6" fill="none" stroke="#111" stroke-width="1.6" stroke-linecap="round"/><polyline points="17.08,6 17.3,6" fill="none" stroke="#111" stroke-width="1.6" stroke-linecap="round" stroke-linejoin="round"/><path d="M 17.3 6 Q 18.9 6.66 19.57 8.26" fill="none" stroke="#111" stroke-width="1.6" stroke-linecap="round"/><path d="M 19.57 56.87 Q 19.23 57.67 18.43 58" fill="none" stroke="#111" stroke-width="1.6" stroke-linecap="round"/><polyline points="19.57,56.87 19.57,8.01" fill="none" stroke="#111" stroke-width="1.6" stroke-linecap="round" stroke-linejoin="round"/></svg>