<svg xmlns="http://www.w3.org/2000/svg" width="96" height="64" viewBox="0 0 96 64"><polyline points="6,6.23 6.34,6.23" fill="none" stroke="#111" stroke-width="1.6" stroke-linecap="round" stroke-linejoin="round"/><polyline points="6,7.37 6.34,7.37" fill="none" stroke="#111" stroke-width="1.6" stroke-linecap="round" stroke-linejoin="round"/><polyline points="6,8.52 6.34,8.52" fill="none" stroke="#111" stroke-width="1.6" stroke-linecap="round" stroke-linejoin="round"/><polyline points="6,9.67 6.34,9.67" fill="none" stroke="#111" stroke-width="1.6" stroke-linecap="round" stroke-linejoin="round"/><polyline points="6,10.81 6.34,10.81" fill="none" stroke="#111" stroke-width="1.6" stroke-linecap="round" stroke-linejoin="round"/><polyline points="6,11.96 6.34,11.96" fill="none" stroke="#111" stroke-width="1.6" stroke-linecap="round" stroke-linejoin="round"/><polyline points="6,13.1 6.34,13.1" fill="none" stroke="#111" stroke-width="1.6" stroke-linecap="round" stroke-linejoin="round"/><polyline points="6,14.25 6.34,14.25" fill="none" stroke="#111" stroke-width="1.6" stroke-linecap="round" stroke-linejoin="round"/><polyline points="6,15.39 6.34,15.39" fill="none" stroke="#111" stroke-width="1.6" stroke-linecap="round" stroke-linejoin="round"/><polyline points="6,16.54 6.34,16.54" fill="none" stroke="#111" stroke-width="1.6" stroke-linecap="round" stroke-linejoin="round"/><polyline points="6,17.68 6.34,17.68" fill="none" stroke="#111" stroke-width="1.6" stroke-linecap="round" stroke-linejoin="round"/><polyline points="6,18.83 6.34,18.83" fill="none" stroke="#111" stroke-width="1.6" stroke-linecap="round" stroke-linejoin="round"/><polyline points="6,19.97 6.34,19.97" fill="none" stroke="#111" stroke-width="1.6" stroke-linecap="round" stroke-linejoin="round"/><polyline points="6,21.12 6.34,21.12" fill="none" stroke="#111" stroke-width="1.6" stroke-linecap="round" stroke-linejoin="round"/><polyline points="6,22.26 6.34,22.26" fill="none" stroke="#111" stroke-width="1.6" stroke-linecap="round" stroke-linejoin="round"/><polyline points="6,23.41 6.34,23.41" fill="none" stroke="#111" stroke-width="1.6" stroke-linecap="round" stroke-linejoin="round"/><polyline points="6,24.56 6.34,24.56" fill="none" stroke="#111" stroke-width="1.6" stroke-linecap="round" stroke-linejoin="round"/><polyline points="6,25.7 6.34,25.7" fill="none" stroke="#111" stroke-width="1.6" stroke-linecap="round" stroke-linejoin="round"/><polyline points="6,26.85 6.34,26.85" fill="none" stroke="#111" stroke-width="1.6" stroke-linecap="round" stroke-linejoin="round"/><polyline points="6,27.99 6.34,27.99" fill="none" stroke="#111" stroke-width="1.6" stroke-linecap="round" stroke-linejoin="round"/><polyline points="6,29.14 6.34,29.14" fill="none" stroke="#111" stroke-width="1.6" stroke-linecap="round" stroke-linejoin="round"/><polyline points="6,30.28 6.34,30.28" fill="none" stroke="#111" stroke-width="1.6" stroke-linecap="round" stroke-linejoin="round"/><polyline points="6,31.43 6.34,31.43" fill="none" stroke="#111" stroke-width="1.6" stroke-linecap="round" stroke-linejoin="round"/><polyline points="6,32.57 6.34,32.57" fill="none" stroke="#111" stroke-width="1.6" stroke-linecap="round" stroke-linejoin="round"/><polyline points="6,33.72 6.34,33.72" fill="none" stroke="#111" stroke-width="1.6" stroke-linecap="round" stroke-linejoin="round"/><polyline points="6,34.86 6.34,34.86" fill="none" stroke="#111" stroke-width="1.6" stroke-linecap="round" stroke-linejoin="round"/><polyline points="6,36.01 6.34,36.01" fill="none" stroke="#111" stroke-width="1.6" stroke-linecap="round" stroke-linejoin="round"/><polyline points="6,37.15 6.34,37.15" fill="none" stroke="#111" stroke-width="1.6" stroke-linecap="round" stroke-linejoin="round"/><polyline points="6,38.3 6.34,38.3" fill="none" stroke="#111" stroke-width="1.6" stroke-linecap="round" stroke-linejoin="round"/><polyline points="6,39.44 6.34,39.44" fill="none" stroke="#111" stroke-width="1.6" stroke-linecap="round" stroke-linejoin="round"/><polyline points="6,40.59 6.34,40.59" fill="none" stroke="#111" stroke-width="1.6" stroke-linecap="round" stroke-linejoin="round"/><polyline points="6,41.74 6.34,41.74" fill="none" stroke="#111" stroke-width="1.6" stroke-linecap="round" stroke-linejoin="round"/><polyline points="6,42.88 6.34,42.88" fill="none" stroke="#111" stroke-width="1.6" stroke-linecap="round" stroke-linejoin="round"/><polyline points="6,44.03 6.34,44.03" fill="none" stroke="#111" stroke-width="1.6" stroke-linecap="round" stroke-linejoin="round"/><polyline points="6,45.17 6.34,45.17" fill="none" stroke="#111" stroke-width="1.6" stroke-linecap="round" stroke-linejoin="round"/><polyline points="6,46.32 6.34,46.32" fill="none" stroke="#111" stroke-width="1.6" stroke-linecap="round" stroke-linejoin="round"/><polyline points="6,47.46 6.34,47.46" fill="none" stroke="#111" stroke-width="1.6" stroke-linecap="round" stroke-linejoin="round"/><polyline points="6,48.61 6.34,48.61" fill="none" stroke="#111" stroke-width="1.6" stroke-linecap="round" stroke-linejoin="round"/><polyline points="6,49.75 6.34,49.75" fill="none" stroke="#111" stroke-width="1.6" stroke-linecap="round" stroke-linejoin="round"/><polyline points="6,50.9 6.34,50.9" fill="none" stroke="#111" stroke-width="1.6" stroke-linecap="round" stroke-linejoin="round"/><polyline points="6,52.04 6.34,52.04" fill="none" stroke="#111" stroke-width="1.6" stroke-linecap="round" stroke-linejoin="round"/><polyline points="6,53.19 6.34,53.19" fill="none" stroke="#111" stroke-width="1.6" stroke-linecap="round" stroke-linejoin="round"/><polyline points="6,54.33 6.34,54.33" fill="none" stroke="#111" stroke-width="1.6" stroke-linecap="round" stroke-linejoin="round"/><polyline points="6,55.48 6.34,55.48" fill="none" stroke="#111" stroke-width="1.6" stroke-linecap="round" stroke-linejoin="round"/><polyline points="6,56.63 6.34,56.63" fill="none" stroke="#111" stroke-width="1.6" stroke-linecap="round" stroke-linejoin="round"/><polyline points="6,57.77 6.34,57.77" fill="none" stroke="#111" stroke-width="1.6" stroke-linecap="round" stroke-linejoin="round"/><path d="M 6.57 6.46 Q 6.34 6.23 6.57 6" fill="none" stroke="#111" stroke-width="1.6" stroke-linecap="round"/><path d="M 6.57 7.6 Q 6.34 7.37 6.57 7.15" fill="none" stroke="#111" stroke-width="1.6" stroke-linecap="round"/><path d="M 6.57 8.75 Q 6.34 8.52 6.57 8.29" fill="none" stroke="#111" stroke-width="1.6" stroke-linecap="round"/><path d="M 6.57 9.89 Q 6.34 9.67 6.57 9.44" fill="none" stroke="#111" stroke-width="1.6" stroke-linecap="round"/><path d="M 6.57 11.04 Q 6.34 10.81 6.57 10.58" fill="none" stroke="#111" stroke-width="1.6" stroke-linecap="round"/><path d="M 6.57 12.19 Q 6.34 11.96 6.57 11.73" fill="none" stroke="#111" stroke-width="1.6" stroke-linecap="round"/><path d="M 6.57 13.33 Q 6.34 13.1 6.57 12.87" fill="none" stroke="#111" stroke-width="1.6" stroke-linecap="round"/><path d="M 6.57 14.48 Q 6.34 14.25 6.57 14.02" fill="none" stroke="#111" stroke-width="1.6" stroke-linecap="round"/><path d="M 6.57 15.62 Q 6.34 15.39 6.57 15.16" fill="none" stroke="#111" stroke-width="1.6" stroke-linecap="round"/><path d="M 6.57 16.77 Q 6.34 16.54 6.57 16.31" fill="none" stroke="#111" stroke-width="1.6" stroke-linecap="round"/><path d="M 6.57 17.91 Q 6.34 17.68 6.57 17.45" fill="none" stroke="#111" stroke-width="1.6" stroke-linecap="round"/><path d="M 6.57 19.06 Q 6.34 18.83 6.57 18.6" fill="none" stroke="#111" stroke-width="1.6" stroke-linecap="round"/><path d="M 6.57 20.2 Q 6.34 19.97 6.57 19.74" fill="none" stroke="#111" stroke-width="1.6" stroke-linecap="round"/><path d="M 6.57 21.35 Q 6.34 21.12 6.57 20.89" fill="none" stroke="#111" stroke-width="1.6" stroke-linecap="round"/><path d="M 6.57 22.49 Q 6.34 22.26 6.57 22.04" fill="none" stroke="#111" stroke-width="1.6" stroke-linecap="round"/><path d="M 6.57 23.64 Q 6.34 23.41 6.57 23.18" fill="none" stroke="#111" stroke-width="1.6" stroke-linecap="round"/><path d="M 6.57 24.78 Q 6.34 24.56 6.57 24.33" fill="none" stroke="#111" stroke-width="1.6" stroke-linecap="round"/><path d="M 6.57 25.93 Q 6.34 25.7 6.57 25.47" fill="none" stroke="#111" stroke-width="1.6" stroke-linecap="round"/><path d="M 6.57 27.07 Q 6.34 26.85 6.57 26.62" fill="none" stroke="#111" stroke-width="1.6" stroke-linecap="round"/><path d="M 6.57 28.22 Q 6.34 27.99 6.57 27.76" fill="none" stroke="#111" stroke-width="1.6" stroke-linecap="round"/><path d="M 6.57 29.37 Q 6.34 29.14 6.57 28.91" fill="none" stroke="#111" stroke-width="1.6" stroke-linecap="round"/><path d="M 6.57 30.51 Q 6.34 30.28 6.57 30.05" fill="none" stroke="#111" stroke-width="1.6" stroke-linecap="round"/><path d="M 6.57 31.66 Q 6.34 31.43 6.57 31.2" fill="none" stroke="#111" stroke-width="1.6" stroke-linecap="round"/><path d="M 6.57 32.8 Q 6.34 32.57 6.57 32.34" fill="none" stroke="#111" stroke-width="1.6" stroke-linecap="round"/><path d="M 6.57 33.95 Q 6.34 33.72 6.57 33.49" fill="none" stroke="#111" stroke-width="1.6" stroke-linecap="round"/><path d="M 6.57 35.09 Q 6.34 34.86 6.57 34.63" fill="none" stroke="#111" stroke-width="1.6" stroke-linecap="round"/><path d="M 6.57 36.24 Q 6.34 36.01 6.57 35.78" fill="none" stroke="#111" stroke-width="1.6" stroke-linecap="round"/><path d="M 6.57 37.38 Q 6.34 37.15 6.57 36.93" fill="none" stroke="#111" stroke-width="1.6" stroke-linecap="round"/><path d="M 6.57 38.53 Q 6.34 38.3 6.57 38.07" fill="none" stroke="#111" stroke-width="1.6" stroke-linecap="round"/><path d="M 6.57 39.67 Q 6.34 39.44 6.57 39.22" fill="none" stroke="#111" stroke-width="1.6" stroke-linecap="round"/><path d="M 6.57 40.82 Q 6.34 40.59 6.57 40.36" fill="none" stroke="#111" stroke-width="1.6" stroke-linecap="round"/><path d="M 6.57 41.96 Q 6.34 41.74 6.57 41.51" fill="none" stroke="#111" stroke-width="1.6" stroke-linecap="round"/><path d="M 6.57 43.11 Q 6.34 42.88 6.57 42.65" fill="none" stroke="#111" stroke-width="1.6" stroke-linecap="round"/><path d="M 6.57 44.26 Q 6.34 44.03 6.57 43.8" fill="none" stroke="#111" stroke-width="1.6" stroke-linecap="round"/><path d="M 6.57 45.4 Q 6.34 45.17 6.57 44.94" fill="none" stroke="#111" stroke-width="1.6" stroke-linecap="round"/><path d="M 6.57 46.55 Q 6.34 46.32 6.57 46.09" fill="none" stroke="#111" stroke-width="1.6" stroke-linecap="round"/><path d="M 6.57 47.69 Q 6.34 47.46 6.57 47.23" fill="none" stroke="#111" stroke-width="1.6" stroke-linecap="round"/><path d="M 6.57 48.84 Q 6.34 48.61 6.57 48.38" fill="none" stroke="#111" stroke-width="1.6" stroke-linecap="round"/><path d="M 6.57 49.98 Q 6.34 49.75 6.57 49.52" fill="none" stroke="#111" stroke-width="1.6" stroke-linecap="round"/><path d="M 6.57 51.13 Q 6.34 50.9 6.57 50.67" fill="none" stroke="#111" stroke-width="1.6" stroke-linecap="round"/><path d="M 6.57 52.27 Q 6.34 52.04 6.57 51.81" fill="none" stroke="#111" stroke-width="1.6" stroke-linecap="round"/><path d="M 6.57 53.42 Q 6.34 53.19 6.57 52.96" fill="none" stroke="#111" stroke-width="1.6" stroke-linecap="round"/><path d="M 6.57 54.56 Q 6.34 54.33 6.57 54.11" fill="none" stroke="#111" stroke-width="1.6" stroke-linecap="round"/><path d="M 6.57 55.71 Q 6.34 55.48 6.57 55.25" fill="none" stroke="#111" stroke-width="1.6" stroke-linecap="round"/><path d="M 6.57 56.85 Q 6.34 56.63 6.57 56.4" fill="none" stroke="#111" stroke-width="1.6" stroke-linecap="round"/><path d="M 6.57 58 Q 6.34 57.77 6.57 57.54" fill="none" stroke="#111" stroke-width="1.6" stroke-linecap="round"/></svg>