<svg xmlns="http://www.w3.org/2000/svg" width="96" height="64" viewBox="0 0 96 64"><polyline points="6,8.45 6.98,8.45" fill="none" stroke="#111" stroke-width="1.6" stroke-linecap="round" stroke-linejoin="round"/><polyline points="6,10.42 9.34,10.42" fill="none" stroke="#111" stroke-width="1.6" stroke-linecap="round" stroke-linejoin="round"/><polyline points="6,12.38 6.98,12.38" fill="none" stroke="#111" stroke-width="1.6" stroke-linecap="round" stroke-linejoin="round"/><polyline points="6,14.34 9.34,14.34" fill="none" stroke="#111" stroke-width="1.6" stroke-linecap="round" stroke-linejoin="round"/><polyline points="6,16.3 6.98,16.3" fill="none" stroke="#111" stroke-width="1.6" stroke-linecap="round" stroke-linejoin="round"/><polyline points="6,18.26 9.34,18.26" fill="none" stroke="#111" stroke-width="1.6" stroke-linecap="round" stroke-linejoin="round"/><polyline points="6,20.23 6.98,20.23" fill="none" stroke="#111" stroke-width="1.6" stroke-linecap="round" stroke-linejoin="round"/><polyline points="6,22.19 9.34,22.19" fill="none" stroke="#111" stroke-width="1.6" stroke-linecap="round" stroke-linejoin="round"/><polyline points="6,24.15 6.98,24.15" fill="none" stroke="#111" stroke-width="1.6" stroke-linecap="round" stroke-linejoin="round"/><polyline points="6,26.11 9.34,26.11" fill="none" stroke="#111" stroke-width="1.6" stroke-linecap="round" stroke-linejoin="round"/><polyline points="6,28.08 6.98,28.08" fill="none" stroke="#111" stroke-width="1.6" stroke-linecap="round" stroke-linejoin="round"/><polyline points="6,30.04 9.34,30.04" fill="none" stroke="#111" stroke-width="1.6" stroke-linecap="round" stroke-linejoin="round"/><polyline points="6,32 6.98,32" fill="none" stroke="#111" stroke-width="1.6" stroke-linecap="round" stroke-linejoin="round"/><polyline points="6,33.96 9.34,33.96" fill="none" stroke="#111" stroke-width="1.6" stroke-linecap="round" stroke-linejoin="round"/><polyline points="6,35.92 6.98,35.92" fill="none" stroke="#111" stroke-width="1.6" stroke-linecap="round" stroke-linejoin="round"/><polyline points="6,37.89 9.34,37.89" fill="none" stroke="#111" stroke-width="1.6" stroke-linecap="round" stroke-linejoin="round"/><polyline points="6,39.85 6.98,39.85" fill="none" stroke="#111" stroke-width="1.6" stroke-linecap="round" stroke-linejoin="round"/><polyline points="6,41.81 9.34,41.81" fill="none" stroke="#111" stroke-width="1.6" stroke-linecap="round" stroke-linejoin="round"/><polyline points="6,43.77 6.98,43.77" fill="none" stroke="#111" stroke-width="1.6" stroke-linecap="round" stroke-linejoin="round"/><polyline points="6,45.74 9.34,45.74" fill="none" stroke="#111" stroke-width="1.6" stroke-linecap="round" stroke-linejoin="round"/><polyline points="6,47.7 6.98,47.7" fill="none" stroke="#111" stroke-width="1.6" stroke-linecap="round" stroke-linejoin="round"/><polyline points="6,49.66 9.34,49.66" fill="none" stroke="#111" stroke-width="1.6" stroke-linecap="round" stroke-linejoin="round"/><polyline points="6,51.62 6.98,51.62" fill="none" stroke="#111" stroke-width="1.6" stroke-linecap="round" stroke-linejoin="round"/><polyline points="6,53.58 9.34,53.58" fill="none" stroke="#111" stroke-width="1.6" stroke-linecap="round" stroke-linejoin="round"/><polyline points="6,55.55 6.98,55.55" fill="none" stroke="#111" stroke-width="1.6" stroke-linecap="round" stroke-linejoin="round"/><polyline points="6,58 11.89,55.06 11.89,8.94 6,6 6,58" fill="none" stroke="#111" stroke-width="1.6" stroke-linecap="round" stroke-linejoin="round"/><circle cx="7.57" cy="8.45" r="0.59" fill="none" stroke="#111" stroke-width="1.6"/><circle cx="7.57" cy="12.38" r="0.59" fill="none" stroke="#111" stroke-width="1.6"/><circle cx="7.57" cy="16.3" r="0.59" fill="none" stroke="#111" stroke-width="1.6"/><circle cx="7.57" cy="20.23" r="0.59" fill="none" stroke="#111" stroke-width="1.6"/><circle cx="7.57" cy="24.15" r="0.59" fill="none" stroke="#111" stroke-width="1.6"/><circle cx="7.57" cy="28.08" r="0.59" fill="none" stroke="#111" stroke-width="1.6"/><circle cx="7.57" cy="32" r="0.59" fill="none" stroke="#111" stroke-width="1.6"/><circle cx="7.57" cy="35.92" r="0.59" fill="none" stroke="#111" stroke-width="1.6"/><circle cx="7.57" cy="39.85" r="0.59" fill="none" stroke="#111" stroke-width="1.6"/><circle cx="7.57" cy="43.77" r="0.59" fill="none" stroke="#111" stroke-width="1.6"/><circle cx="7.57" cy="47.7" r="0.59" fill="none" stroke="#111" stroke-width="1.6"/><circle cx="7.57" cy="51.62" r="0.59" fill="none" stroke="#111" stroke-width="1.6"/><circle cx="7.57" cy="55.55" r="0.59" fill="none" stroke="#111" stroke-width="1.6"/><circle cx="9.92" cy="10.42" r="0.59" fill="none" stroke="#111" stroke-width="1.6"/><circle cx="9.92" cy="14.34" r="0.59" fill="none" stroke="#111" stroke-width="1.6"/><circle cx="9.92" cy="18.26" r="0.59" fill="none" stroke="#111" stroke-width="1.6"/><circle cx="9.92" cy="22.19" r="0.59" fill="none" stroke="#111" stroke-width="1.6"/><circle cx="9.92" cy="26.11" r="0.59" fill="none" stroke="#111" stroke-width="1.6"/><circle cx="9.92" cy="30.04" r="0.59" fill="none" stroke="#111" stroke-width="1.6"/><circle cx="9.92" cy="33.96" r="0.59" fill="none" stroke="#111" stroke-width="1.6"/><circle cx="9.92" cy="37.89" r="0.59" fill="none" stroke="#111" stroke-width="1.6"/><circle cx="9.92" cy="41.81" r="0.59" fill="none" stroke="#111" stroke-width="1.6"/><circle cx="9.92" cy="45.74" r="0.59" fill="none" stroke="#111" stroke-width="1.6"/><circle cx="9.92" cy="49.66" r="0.59" fill="none" stroke="#111" stroke-width="1.6"/><circle cx="9.92" cy="53.58" r="0.59" fill="none" stroke="#111" stroke-width="1.6"/></svg>