<svg xmlns="http://www.w3.org/2000/svg" width="96" height="64" viewBox="0 0 96 64"><rect x="6" y="6" width="1.03" height="0.3" fill="none" stroke="#111" stroke-width="1.6"/><rect x="6" y="9.04" width="1.03" height="0.31" fill="none" stroke="#111" stroke-width="1.6"/><rect x="6" y="12.08" width="1.03" height="0.31" fill="none" stroke="#111" stroke-width="1.6"/><rect x="6" y="15.12" width="1.03" height="0.31" fill="none" stroke="#111" stroke-width="1.6"/><rect x="6" y="18.16" width="1.03" height="0.31" fill="none" stroke="#111" stroke-width="1.6"/><rect x="6" y="21.2" width="1.03" height="0.31" fill="none" stroke="#111" stroke-width="1.6"/><rect x="6" y="24.25" width="1.03" height="0.3" fill="none" stroke="#111" stroke-width="1.6"/><rect x="6" y="27.29" width="1.03" height="0.3" fill="none" stroke="#111" stroke-width="1.6"/><rect x="6" y="30.33" width="1.03" height="0.3" fill="none" stroke="#111" stroke-width="1.6"/><rect x="6" y="33.37" width="1.03" height="0.3" fill="none" stroke="#111" stroke-width="1.6"/><rect x="6" y="36.41" width="1.03" height="0.3" fill="none" stroke="#111" stroke-width="1.6"/><rect x="6" y="39.45" width="1.03" height="0.3" fill="none" stroke="#111" stroke-width="1.6"/><rect x="6" y="42.49" width="1.03" height="0.31" fill="none" stroke="#111" stroke-width="1.6"/><rect x="6" y="45.53" width="1.03" height="0.31" fill="none" stroke="#111" stroke-width="1.6"/><rect x="6" y="48.57" width="1.03" height="0.31" fill="none" stroke="#111" stroke-width="1.6"/><rect x="6" y="51.61" width="1.03" height="0.31" fill="none" stroke="#111" stroke-width="1.6"/><rect x="6" y="54.65" width="1.03" height="0.31" fill="none" stroke="#111" stroke-width="1.6"/><rect x="6" y="57.7" width="1.03" height="0.3" fill="none" stroke="#111" stroke-width="1.6"/><polyline points="7.52,6.15 7.03,6.15" fill="none" stroke="#111" stroke-width="1.6" stroke-linecap="round" stroke-linejoin="round"/><polyline points="7.52,9.19 7.03,9.19" fill="none" stroke="#111" stroke-width="1.6" stroke-linecap="round" stroke-linejoin="round"/><polyline points="7.52,12.23 7.03,12.23" fill="none" stroke="#111" stroke-width="1.6" stroke-linecap="round" stroke-linejoin="round"/><polyline points="7.52,15.27 7.03,15.27" fill="none" stroke="#111" stroke-width="1.6" stroke-linecap="round" stroke-linejoin="round"/><polyline points="7.52,18.32 7.03,18.32" fill="none" stroke="#111" stroke-width="1.6" stroke-linecap="round" stroke-linejoin="round"/><polyline points="7.52,21.36 7.03,21.36" fill="none" stroke="#111" stroke-width="1.6" stroke-linecap="round" stroke-linejoin="round"/><polyline points="7.52,24.4 7.03,24.4" fill="none" stroke="#111" stroke-width="1.6" stroke-linecap="round" stroke-linejoin="round"/><polyline points="7.52,27.44 7.03,27.44" fill="none" stroke="#111" stroke-width="1.6" stroke-linecap="round" stroke-linejoin="round"/><polyline points="7.52,30.48 7.03,30.48" fill="none" stroke="#111" stroke-width="1.6" stroke-linecap="round" stroke-linejoin="round"/><polyline points="7.52,33.52 7.03,33.52" fill="none" stroke="#111" stroke-width="1.6" stroke-linecap="round" stroke-linejoin="round"/><polyline points="7.52,36.56 7.03,36.56" fill="none" stroke="#111" stroke-width="1.6" stroke-linecap="round" stroke-linejoin="round"/><polyline points="7.52,39.6 7.03,39.6" fill="none" stroke="#111" stroke-width="1.6" stroke-linecap="round" stroke-linejoin="round"/><polyline points="7.52,42.64 7.03,42.64" fill="none" stroke="#111" stroke-width="1.6" stroke-linecap="round" stroke-linejoin="round"/><polyline points="7.52,45.68 7.03,45.68" fill="none" stroke="#111" stroke-width="1.6" stroke-linecap="round" stroke-linejoin="round"/><polyline points="7.52,48.73 7.03,48.73" fill="none" stroke="#111" stroke-width="1.6" stroke-linecap="round" stroke-linejoin="round"/><polyline points="7.52,51.77 7.03,51.77" fill="none" stroke="#111" stroke-width="1.6" stroke-linecap="round" stroke-linejoin="round"/><polyline points="7.52,54.81 7.03,54.81" fill="none" stroke="#111" stroke-width="1.6" stroke-linecap="round" stroke-linejoin="round"/><polyline points="7.52,57.85 7.03,57.85" fill="none" stroke="#111" stroke-width="1.6" stroke-linecap="round" stroke-linejoin="round"/></svg>