<svg xmlns="http://www.w3.org/2000/svg" width="96" height="64" viewBox="0 0 96 64"><rect x="6" y="6" width="37.82" height="52" fill="none" stroke="#111" stroke-width="1.6"/><polyline points="21.6,22.55 20.18,22.55 20.18,13.09 17.35,13.09" fill="none" stroke="#111" stroke-width="1.6" stroke-linecap="round" stroke-linejoin="round"/><polyline points="21.6,41.45 17.35,41.45" fill="none" stroke="#111" stroke-width="1.6" stroke-linecap="round" stroke-linejoin="round"/><polyline points="24.91,25.85 24.91,38.15" fill="none" stroke="#111" stroke-width="1.6" stroke-linecap="round" stroke-linejoin="round"/><circle cx="24.91" cy="32" r="0.47" fill="none" stroke="#111" stroke-width="1.6"/><polyline points="24.91,32 21.13,32 21.13,26.8 19.24,26.8 17.35,26.8" fill="none" stroke="#111" stroke-width="1.6" stroke-linecap="round" stroke-linejoin="round"/><polyline points="22.55,20.18 27.27,24.91" fill="none" stroke="#111" stroke-width="1.6" stroke-linecap="round" stroke-linejoin="round"/><polyline points="22.55,24.91 27.27,20.18" fill="none" stroke="#111" stroke-width="1.6" stroke-linecap="round" stroke-linejoin="round"/><polyline points="22.55,39.09 27.27,43.82" fill="none" stroke="#111" stroke-width="1.6" stroke-linecap="round" stroke-linejoin="round"/><polyline points="22.55,43.82 27.27,39.09" fill="none" stroke="#111" stroke-width="1.6" stroke-linecap="round" stroke-linejoin="round"/><circle cx="24.91" cy="22.55" r="3.31" fill="none" stroke="#111" stroke-width="1.6"/><circle cx="24.91" cy="41.45" r="3.31" fill="none" stroke="#111" stroke-width="1.6"/><rect x="28.22" y="22.55" width="3.78" height="0" fill="none" stroke="#111" stroke-width="1.6"/><rect x="28.22" y="41.45" width="3.78" height="0" fill="none" stroke="#111" stroke-width="1.6"/></svg>