<svg xmlns="http://www.w3.org/2000/svg" width="96" height="64" viewBox="0 0 96 64"><polyline points="11.2,32 14.32,32" fill="none" stroke="#111" stroke-width="1.6" stroke-linecap="round" stroke-linejoin="round"/><circle cx="15.36" cy="32" r="1.04" fill="none" stroke="#111" stroke-width="1.6"/><polyline points="19.52,15.36 19.52,32 19.52,32" fill="none" stroke="#111" stroke-width="1.6" stroke-linecap="round" stroke-linejoin="round"/><polyline points="19.52,21.6 27.84,13.28 42.4,13.28" fill="none" stroke="#111" stroke-width="1.6" stroke-linecap="round" stroke-linejoin="round"/><polyline points="19.52,23.68 15.36,23.68 15.36,48.64" fill="none" stroke="#111" stroke-width="1.6" stroke-linecap="round" stroke-linejoin="round"/><polyline points="19.52,25.76 27.84,34.08 32,34.08" fill="none" stroke="#111" stroke-width="1.6" stroke-linecap="round" stroke-linejoin="round"/><polyline points="26.8,33.04 24.72,28.88 22.64,30.96 26.8,33.04" fill="none" stroke="#111" stroke-width="1.6" stroke-linecap="round" stroke-linejoin="round"/><polyline points="27.84,34.08 27.84,48.64 30.96,48.64 32,46.56 33.04,50.72 34.08,46.56 35.12,50.72 36.16,46.56 37.2,50.72 38.24,48.64 42.4,48.64" fill="none" stroke="#111" stroke-width="1.6" stroke-linecap="round" stroke-linejoin="round"/><circle cx="27.84" cy="34.08" r="1.04" fill="none" stroke="#111" stroke-width="1.6"/><polyline points="27.84,48.64 24.72,48.64 23.68,50.72 22.64,46.56 21.6,50.72 20.56,46.56 19.52,50.72 18.48,46.56 17.44,48.64 15.36,48.64" fill="none" stroke="#111" stroke-width="1.6" stroke-linecap="round" stroke-linejoin="round"/><circle cx="27.84" cy="48.64" r="1.04" fill="none" stroke="#111" stroke-width="1.6"/><polyline points="32,25.76 32,42.4 32,42.4" fill="none" stroke="#111" stroke-width="1.6" stroke-linecap="round" stroke-linejoin="round"/><polyline points="32,32 40.32,23.68 42.4,23.68 42.4,13.28" fill="none" stroke="#111" stroke-width="1.6" stroke-linecap="round" stroke-linejoin="round"/><circle cx="32" cy="32" r="26" fill="none" stroke="#111" stroke-width="1.6"/><polyline points="32,36.16 40.32,44.48 42.4,44.48 42.4,48.64" fill="none" stroke="#111" stroke-width="1.6" stroke-linecap="round" stroke-linejoin="round"/><polyline points="39.28,43.44 37.2,39.28 35.12,41.36 39.28,43.44" fill="none" stroke="#111" stroke-width="1.6" stroke-linecap="round" stroke-linejoin="round"/><circle cx="42.4" cy="13.28" r="1.04" fill="none" stroke="#111" stroke-width="1.6"/><circle cx="42.4" cy="23.68" r="1.04" fill="none" stroke="#111" stroke-width="1.6"/><polyline points="42.4,44.48 47.6,44.48" fill="none" stroke="#111" stroke-width="1.6" stroke-linecap="round" stroke-linejoin="round"/><circle cx="42.4" cy="44.48" r="1.04" fill="none" stroke="#111" stroke-width="1.6"/><polyline points="42.4,48.64 42.4,52.8" fill="none" stroke="#111" stroke-width="1.6" stroke-linecap="round" stroke-linejoin="round"/><circle cx="42.4" cy="48.64" r="1.04" fill="none" stroke="#111" stroke-width="1.6"/><polyline points="44.48,30.96 50.72,30.96" fill="none" stroke="#111" stroke-width="1.6" stroke-linecap="round" stroke-linejoin="round"/><polyline points="47.6,23.68 42.4,23.68" fill="none" stroke="#111" stroke-width="1.6" stroke-linecap="round" stroke-linejoin="round"/><polyline points="47.6,23.68 47.6,30.96" fill="none" stroke="#111" stroke-width="1.6" stroke-linecap="round" stroke-linejoin="round"/><polyline points="47.6,30.96 44.48,37.2 50.72,37.2 47.6,30.96" fill="none" stroke="#111" stroke-width="1.6" stroke-linecap="round" stroke-linejoin="round"/><polyline points="47.6,37.2 47.6,44.48" fill="none" stroke="#111" stroke-width="1.6" stroke-linecap="round" stroke-linejoin="round"/></svg>