<svg xmlns="http://www.w3.org/2000/svg" width="96" height="64" viewBox="0 0 96 64"><rect x="6" y="6" width="22.75" height="52" fill="none" stroke="#111" stroke-width="1.6"/><rect x="6" y="7.62" width="8.94" height="16.26" fill="none" stroke="#111" stroke-width="1.6"/><polyline points="13.8,28.75 11.52,28.75" fill="none" stroke="#111" stroke-width="1.6" stroke-linecap="round" stroke-linejoin="round"/><polyline points="13.8,32 11.52,32" fill="none" stroke="#111" stroke-width="1.6" stroke-linecap="round" stroke-linejoin="round"/><polyline points="13.8,35.25 11.52,35.25" fill="none" stroke="#111" stroke-width="1.6" stroke-linecap="round" stroke-linejoin="round"/><polyline points="13.8,38.5 11.52,38.5" fill="none" stroke="#111" stroke-width="1.6" stroke-linecap="round" stroke-linejoin="round"/><polyline points="13.8,41.75 11.52,41.75" fill="none" stroke="#111" stroke-width="1.6" stroke-linecap="round" stroke-linejoin="round"/><polyline points="13.8,45 11.52,45" fill="none" stroke="#111" stroke-width="1.6" stroke-linecap="round" stroke-linejoin="round"/><polyline points="13.8,48.25 11.52,48.25" fill="none" stroke="#111" stroke-width="1.6" stroke-linecap="round" stroke-linejoin="round"/><polyline points="13.8,51.5 11.52,51.5" fill="none" stroke="#111" stroke-width="1.6" stroke-linecap="round" stroke-linejoin="round"/><polyline points="14.12,27.45 18.02,27.45" fill="none" stroke="#111" stroke-width="1.6" stroke-linecap="round" stroke-linejoin="round"/><polyline points="14.12,30.7 18.02,30.7" fill="none" stroke="#111" stroke-width="1.6" stroke-linecap="round" stroke-linejoin="round"/><polyline points="14.12,33.95 18.02,33.95" fill="none" stroke="#111" stroke-width="1.6" stroke-linecap="round" stroke-linejoin="round"/><polyline points="14.12,37.2 18.02,37.2" fill="none" stroke="#111" stroke-width="1.6" stroke-linecap="round" stroke-linejoin="round"/><polyline points="14.12,40.45 18.02,40.45" fill="none" stroke="#111" stroke-width="1.6" stroke-linecap="round" stroke-linejoin="round"/><polyline points="14.12,43.7 18.02,43.7" fill="none" stroke="#111" stroke-width="1.6" stroke-linecap="round" stroke-linejoin="round"/><polyline points="14.12,46.95 18.02,46.95" fill="none" stroke="#111" stroke-width="1.6" stroke-linecap="round" stroke-linejoin="round"/><polyline points="14.12,50.2 18.02,50.2" fill="none" stroke="#111" stroke-width="1.6" stroke-linecap="round" stroke-linejoin="round"/><circle cx="14.45" cy="28.75" r="0.65" fill="none" stroke="#111" stroke-width="1.6"/><circle cx="14.45" cy="32" r="0.65" fill="none" stroke="#111" stroke-width="1.6"/><circle cx="14.45" cy="35.25" r="0.65" fill="none" stroke="#111" stroke-width="1.6"/><circle cx="14.45" cy="38.5" r="0.65" fill="none" stroke="#111" stroke-width="1.6"/><circle cx="14.45" cy="41.75" r="0.65" fill="none" stroke="#111" stroke-width="1.6"/><circle cx="14.45" cy="45" r="0.65" fill="none" stroke="#111" stroke-width="1.6"/><circle cx="14.45" cy="48.25" r="0.65" fill="none" stroke="#111" stroke-width="1.6"/><circle cx="14.45" cy="51.5" r="0.65" fill="none" stroke="#111" stroke-width="1.6"/><polyline points="14.94,17.38 15.75,17.38" fill="none" stroke="#111" stroke-width="1.6" stroke-linecap="round" stroke-linejoin="round"/><polyline points="16.08,17.38 15.75,17.38" fill="none" stroke="#111" stroke-width="1.6" stroke-linecap="round" stroke-linejoin="round"/><polyline points="16.08,19 16.08,18.02" fill="none" stroke="#111" stroke-width="1.6" stroke-linecap="round" stroke-linejoin="round"/><polyline points="16.08,20.62 16.08,19.81" fill="none" stroke="#111" stroke-width="1.6" stroke-linecap="round" stroke-linejoin="round"/><polyline points="16.08,22.25 16.08,21.44" fill="none" stroke="#111" stroke-width="1.6" stroke-linecap="round" stroke-linejoin="round"/><polyline points="16.08,23.88 16.08,23.06" fill="none" stroke="#111" stroke-width="1.6" stroke-linecap="round" stroke-linejoin="round"/><polyline points="16.08,25.5 16.08,24.69" fill="none" stroke="#111" stroke-width="1.6" stroke-linecap="round" stroke-linejoin="round"/><polyline points="16.08,27.12 16.08,26.31" fill="none" stroke="#111" stroke-width="1.6" stroke-linecap="round" stroke-linejoin="round"/><polyline points="16.08,28.75 16.08,27.94" fill="none" stroke="#111" stroke-width="1.6" stroke-linecap="round" stroke-linejoin="round"/><polyline points="16.08,30.38 16.08,29.56" fill="none" stroke="#111" stroke-width="1.6" stroke-linecap="round" stroke-linejoin="round"/><polyline points="16.08,32 16.08,31.19" fill="none" stroke="#111" stroke-width="1.6" stroke-linecap="round" stroke-linejoin="round"/><polyline points="16.08,33.62 16.08,32.81" fill="none" stroke="#111" stroke-width="1.6" stroke-linecap="round" stroke-linejoin="round"/><polyline points="16.08,35.25 16.08,34.44" fill="none" stroke="#111" stroke-width="1.6" stroke-linecap="round" stroke-linejoin="round"/><polyline points="16.08,36.88 16.08,36.06" fill="none" stroke="#111" stroke-width="1.6" stroke-linecap="round" stroke-linejoin="round"/><polyline points="16.08,38.82 16.08,38.01" fill="none" stroke="#111" stroke-width="1.6" stroke-linecap="round" stroke-linejoin="round"/><polyline points="16.08,40.45 16.08,39.64" fill="none" stroke="#111" stroke-width="1.6" stroke-linecap="round" stroke-linejoin="round"/><polyline points="16.08,42.07 16.08,41.26" fill="none" stroke="#111" stroke-width="1.6" stroke-linecap="round" stroke-linejoin="round"/><polyline points="16.08,43.7 16.08,42.89" fill="none" stroke="#111" stroke-width="1.6" stroke-linecap="round" stroke-linejoin="round"/><polyline points="16.08,45.33 16.08,44.51" fill="none" stroke="#111" stroke-width="1.6" stroke-linecap="round" stroke-linejoin="round"/><polyline points="16.08,46.95 16.08,46.14" fill="none" stroke="#111" stroke-width="1.6" stroke-linecap="round" stroke-linejoin="round"/><polyline points="16.08,48.58 16.08,47.76" fill="none" stroke="#111" stroke-width="1.6" stroke-linecap="round" stroke-linejoin="round"/><polyline points="16.08,50.2 16.08,49.39" fill="none" stroke="#111" stroke-width="1.6" stroke-linecap="round" stroke-linejoin="round"/><circle cx="17.7" cy="28.75" r="0.65" fill="none" stroke="#111" stroke-width="1.6"/><circle cx="17.7" cy="32" r="0.65" fill="none" stroke="#111" stroke-width="1.6"/><circle cx="17.7" cy="35.25" r="0.65" fill="none" stroke="#111" stroke-width="1.6"/><circle cx="17.7" cy="38.5" r="0.65" fill="none" stroke="#111" stroke-width="1.6"/><circle cx="17.7" cy="41.75" r="0.65" fill="none" stroke="#111" stroke-width="1.6"/><circle cx="17.7" cy="45" r="0.65" fill="none" stroke="#111" stroke-width="1.6"/><circle cx="17.7" cy="48.25" r="0.65" fill="none" stroke="#111" stroke-width="1.6"/><circle cx="17.7" cy="51.5" r="0.65" fill="none" stroke="#111" stroke-width="1.6"/><polyline points="18.19,28.75 19,28.75 19,51.5 18.19,51.5" fill="none" stroke="#111" stroke-width="1.6" stroke-linecap="round" stroke-linejoin="round"/><polyline points="18.35,32 19,32" fill="none" stroke="#111" stroke-width="1.6" stroke-linecap="round" stroke-linejoin="round"/><polyline points="18.35,35.25 19,35.25" fill="none" stroke="#111" stroke-width="1.6" stroke-linecap="round" stroke-linejoin="round"/><polyline points="18.35,38.5 19,38.5" fill="none" stroke="#111" stroke-width="1.6" stroke-linecap="round" stroke-linejoin="round"/><polyline points="18.35,41.75 19,41.75" fill="none" stroke="#111" stroke-width="1.6" stroke-linecap="round" stroke-linejoin="round"/><polyline points="18.35,45 19,45" fill="none" stroke="#111" stroke-width="1.6" stroke-linecap="round" stroke-linejoin="round"/><polyline points="18.35,48.25 19,48.25" fill="none" stroke="#111" stroke-width="1.6" stroke-linecap="round" stroke-linejoin="round"/><polyline points="19,45 25.5,45" fill="none" stroke="#111" stroke-width="1.6" stroke-linecap="round" stroke-linejoin="round"/></svg>