<svg xmlns="http://www.w3.org/2000/svg" width="96" height="64" viewBox="0 0 96 64"><polyline points="12.33,25.9 14.14,25.9 15.04,22.28 15.95,22.28 14.14,22.28 13.23,25.9 13.23,25.9" fill="none" stroke="#111" stroke-width="1.6" stroke-linecap="round" stroke-linejoin="round"/><polyline points="15.95,22.73 15.95,25.44 18.66,24.09 15.95,22.73 15.95,22.73" fill="none" stroke="#111" stroke-width="1.6" stroke-linecap="round" stroke-linejoin="round"/><polyline points="19.11,22.73 22.73,22.73 20.92,25.44 19.11,22.73 19.11,22.73" fill="none" stroke="#111" stroke-width="1.6" stroke-linecap="round" stroke-linejoin="round"/><rect x="6" y="21.83" width="22.61" height="4.52" fill="none" stroke="#111" stroke-width="1.6"/><rect x="6" y="26.35" width="22.61" height="4.52" fill="none" stroke="#111" stroke-width="1.6"/><rect x="6" y="30.87" width="22.61" height="4.52" fill="none" stroke="#111" stroke-width="1.6"/><rect x="6" y="35.39" width="22.61" height="4.52" fill="none" stroke="#111" stroke-width="1.6"/><rect x="6" y="39.91" width="22.61" height="4.52" fill="none" stroke="#111" stroke-width="1.6"/><rect x="6" y="44.43" width="22.61" height="4.53" fill="none" stroke="#111" stroke-width="1.6"/><rect x="6" y="48.96" width="22.61" height="4.52" fill="none" stroke="#111" stroke-width="1.6"/><rect x="6" y="53.48" width="22.61" height="4.52" fill="none" stroke="#111" stroke-width="1.6"/><polyline points="8.26,21.83 8.26,19.57 6,19.57 6,6 28.61,6 28.61,19.57 26.35,19.57 26.35,21.83 26.35,21.83" fill="none" stroke="#111" stroke-width="1.6" stroke-linecap="round" stroke-linejoin="round"/></svg>