<svg xmlns="http://www.w3.org/2000/svg" width="96" height="64" viewBox="0 0 96 64"><polyline points="15,22 14,22" fill="none" stroke="#111" stroke-width="1.6" stroke-linecap="round" stroke-linejoin="round"/><polyline points="15,30 14,30" fill="none" stroke="#111" stroke-width="1.6" stroke-linecap="round" stroke-linejoin="round"/><polyline points="15,34 14,34" fill="none" stroke="#111" stroke-width="1.6" stroke-linecap="round" stroke-linejoin="round"/><polyline points="19,9 19,11" fill="none" stroke="#111" stroke-width="1.6" stroke-linecap="round" stroke-linejoin="round"/><polyline points="19,10 18.4,10" fill="none" stroke="#111" stroke-width="1.6" stroke-linecap="round" stroke-linejoin="round"/><polyline points="19,11 32.6,11" fill="none" stroke="#111" stroke-width="1.6" stroke-linecap="round" stroke-linejoin="round"/><polyline points="23,22 24,22" fill="none" stroke="#111" stroke-width="1.6" stroke-linecap="round" stroke-linejoin="round"/><polyline points="23,30 24,30" fill="none" stroke="#111" stroke-width="1.6" stroke-linecap="round" stroke-linejoin="round"/><rect x="15" y="33" width="8" height="2" fill="none" stroke="#111" stroke-width="1.6"/><polyline points="23,34 24,34" fill="none" stroke="#111" stroke-width="1.6" stroke-linecap="round" stroke-linejoin="round"/><rect x="24" y="20.4" width="4" height="3.2" fill="none" stroke="#111" stroke-width="1.6"/><polyline points="24,20.8 25.2,20.8" fill="none" stroke="#111" stroke-width="1.6" stroke-linecap="round" stroke-linejoin="round"/><polyline points="24,23.2 25.2,23.2" fill="none" stroke="#111" stroke-width="1.6" stroke-linecap="round" stroke-linejoin="round"/><rect x="24" y="28.4" width="4" height="3.2" fill="none" stroke="#111" stroke-width="1.6"/><polyline points="24,28.8 25.2,28.8" fill="none" stroke="#111" stroke-width="1.6" stroke-linecap="round" stroke-linejoin="round"/><polyline points="24,31.2 25.2,31.2" fill="none" stroke="#111" stroke-width="1.6" stroke-linecap="round" stroke-linejoin="round"/><rect x="24" y="32.4" width="4" height="3.2" fill="none" stroke="#111" stroke-width="1.6"/><polyline points="24,32.8 25.2,32.8" fill="none" stroke="#111" stroke-width="1.6" stroke-linecap="round" stroke-linejoin="round"/><polyline points="24,35.2 25.2,35.2" fill="none" stroke="#111" stroke-width="1.6" stroke-linecap="round" stroke-linejoin="round"/><polyline points="25,6 25,8" fill="none" stroke="#111" stroke-width="1.6" stroke-linecap="round" stroke-linejoin="round"/><polyline points="25,14 25,12" fill="none" stroke="#111" stroke-width="1.6" stroke-linecap="round" stroke-linejoin="round"/><polyline points="25,17 25,15" fill="none" stroke="#111" stroke-width="1.6" stroke-linecap="round" stroke-linejoin="round"/><polyline points="25,20 25,18" fill="none" stroke="#111" stroke-width="1.6" stroke-linecap="round" stroke-linejoin="round"/><polyline points="25,24 25,25.6" fill="none" stroke="#111" stroke-width="1.6" stroke-linecap="round" stroke-linejoin="round"/><polyline points="25,26.4 25,28" fill="none" stroke="#111" stroke-width="1.6" stroke-linecap="round" stroke-linejoin="round"/><polyline points="25,36 25,38" fill="none" stroke="#111" stroke-width="1.6" stroke-linecap="round" stroke-linejoin="round"/><polyline points="25,39 25,41" fill="none" stroke="#111" stroke-width="1.6" stroke-linecap="round" stroke-linejoin="round"/><polyline points="25,42 25,44" fill="none" stroke="#111" stroke-width="1.6" stroke-linecap="round" stroke-linejoin="round"/><polyline points="25,45 25,47" fill="none" stroke="#111" stroke-width="1.6" stroke-linecap="round" stroke-linejoin="round"/><polyline points="25,48 25,50" fill="none" stroke="#111" stroke-width="1.6" stroke-linecap="round" stroke-linejoin="round"/><polyline points="25,51 25,53" fill="none" stroke="#111" stroke-width="1.6" stroke-linecap="round" stroke-linejoin="round"/><polyline points="25,54 25,56" fill="none" stroke="#111" stroke-width="1.6" stroke-linecap="round" stroke-linejoin="round"/><polyline points="25,57 25,58" fill="none" stroke="#111" stroke-width="1.6" stroke-linecap="round" stroke-linejoin="round"/><path d="M 25.2 20.8 Q 25.6 21.2 25.2 21.6" fill="none" stroke="#111" stroke-width="1.6" stroke-linecap="round"/><path d="M 25.2 21.6 Q 25.6 22 25.2 22.4" fill="none" stroke="#111" stroke-width="1.6" stroke-linecap="round"/><path d="M 25.2 22.4 Q 25.6 22.8 25.2 23.2" fill="none" stroke="#111" stroke-width="1.6" stroke-linecap="round"/><path d="M 25.2 28.8 Q 25.6 29.2 25.2 29.6" fill="none" stroke="#111" stroke-width="1.6" stroke-linecap="round"/><path d="M 25.2 29.6 Q 25.6 30 25.2 30.4" fill="none" stroke="#111" stroke-width="1.6" stroke-linecap="round"/><path d="M 25.2 30.4 Q 25.6 30.8 25.2 31.2" fill="none" stroke="#111" stroke-width="1.6" stroke-linecap="round"/><path d="M 25.2 32.8 Q 25.6 33.2 25.2 33.6" fill="none" stroke="#111" stroke-width="1.6" stroke-linecap="round"/><path d="M 25.2 33.6 Q 25.6 34 25.2 34.4" fill="none" stroke="#111" stroke-width="1.6" stroke-linecap="round"/><path d="M 25.2 34.4 Q 25.6 34.8 25.2 35.2" fill="none" stroke="#111" stroke-width="1.6" stroke-linecap="round"/><path d="M 26.8 21.6 Q 26.4 21.2 26.8 20.8" fill="none" stroke="#111" stroke-width="1.6" stroke-linecap="round"/><path d="M 26.8 22.4 Q 26.4 22 26.8 21.6" fill="none" stroke="#111" stroke-width="1.6" stroke-linecap="round"/><path d="M 26.8 23.2 Q 26.4 22.8 26.8 22.4" fill="none" stroke="#111" stroke-width="1.6" stroke-linecap="round"/><path d="M 26.8 29.6 Q 26.4 29.2 26.8 28.8" fill="none" stroke="#111" stroke-width="1.6" stroke-linecap="round"/><path d="M 26.8 30.4 Q 26.4 30 26.8 29.6" fill="none" stroke="#111" stroke-width="1.6" stroke-linecap="round"/><path d="M 26.8 31.2 Q 26.4 30.8 26.8 30.4" fill="none" stroke="#111" stroke-width="1.6" stroke-linecap="round"/><path d="M 26.8 33.6 Q 26.4 33.2 26.8 32.8" fill="none" stroke="#111" stroke-width="1.6" stroke-linecap="round"/><path d="M 26.8 34.4 Q 26.4 34 26.8 33.6" fill="none" stroke="#111" stroke-width="1.6" stroke-linecap="round"/><path d="M 26.8 35.2 Q 26.4 34.8 26.8 34.4" fill="none" stroke="#111" stroke-width="1.6" stroke-linecap="round"/><polyline points="27,6 27,8" fill="none" stroke="#111" stroke-width="1.6" stroke-linecap="round" stroke-linejoin="round"/><polyline points="27,12 27,14" fill="none" stroke="#111" stroke-width="1.6" stroke-linecap="round" stroke-linejoin="round"/><polyline points="27,15 27,17" fill="none" stroke="#111" stroke-width="1.6" stroke-linecap="round" stroke-linejoin="round"/><polyline points="27,20 27,18" fill="none" stroke="#111" stroke-width="1.6" stroke-linecap="round" stroke-linejoin="round"/><polyline points="27,24 27,25.6" fill="none" stroke="#111" stroke-width="1.6" stroke-linecap="round" stroke-linejoin="round"/><polyline points="27,28 27,26.4" fill="none" stroke="#111" stroke-width="1.6" stroke-linecap="round" stroke-linejoin="round"/><polyline points="27,36 27,38" fill="none" stroke="#111" stroke-width="1.6" stroke-linecap="round" stroke-linejoin="round"/><polyline points="27,39 27,41" fill="none" stroke="#111" stroke-width="1.6" stroke-linecap="round" stroke-linejoin="round"/><polyline points="27,42 27,44" fill="none" stroke="#111" stroke-width="1.6" stroke-linecap="round" stroke-linejoin="round"/><polyline points="27,45 27,47" fill="none" stroke="#111" stroke-width="1.6" stroke-linecap="round" stroke-linejoin="round"/><polyline points="27,48 27,50" fill="none" stroke="#111" stroke-width="1.6" stroke-linecap="round" stroke-linejoin="round"/><polyline points="27,51 27,53" fill="none" stroke="#111" stroke-width="1.6" stroke-linecap="round" stroke-linejoin="round"/><polyline points="27,54 27,56" fill="none" stroke="#111" stroke-width="1.6" stroke-linecap="round" stroke-linejoin="round"/><polyline points="27,57 27,58" fill="none" stroke="#111" stroke-width="1.6" stroke-linecap="round" stroke-linejoin="round"/><polyline points="28,20.8 26.8,20.8" fill="none" stroke="#111" stroke-width="1.6" stroke-linecap="round" stroke-linejoin="round"/><polyline points="28,23.2 26.8,23.2" fill="none" stroke="#111" stroke-width="1.6" stroke-linecap="round" stroke-linejoin="round"/><polyline points="28,28.8 26.8,28.8" fill="none" stroke="#111" stroke-width="1.6" stroke-linecap="round" stroke-linejoin="round"/><polyline points="28,31.2 26.8,31.2" fill="none" stroke="#111" stroke-width="1.6" stroke-linecap="round" stroke-linejoin="round"/><polyline points="28,32.8 26.8,32.8" fill="none" stroke="#111" stroke-width="1.6" stroke-linecap="round" stroke-linejoin="round"/><polyline points="28,35.2 26.8,35.2" fill="none" stroke="#111" stroke-width="1.6" stroke-linecap="round" stroke-linejoin="round"/><rect x="29" y="21" width="8" height="2" fill="none" stroke="#111" stroke-width="1.6"/><polyline points="29,22 28,22" fill="none" stroke="#111" stroke-width="1.6" stroke-linecap="round" stroke-linejoin="round"/><rect x="29" y="33" width="8" height="2" fill="none" stroke="#111" stroke-width="1.6"/><polyline points="29,34 28,34" fill="none" stroke="#111" stroke-width="1.6" stroke-linecap="round" stroke-linejoin="round"/><polyline points="32.6,9 19,9" fill="none" stroke="#111" stroke-width="1.6" stroke-linecap="round" stroke-linejoin="round"/><polyline points="32.6,9 32.6,11" fill="none" stroke="#111" stroke-width="1.6" stroke-linecap="round" stroke-linejoin="round"/><polyline points="32.6,10 33.2,10" fill="none" stroke="#111" stroke-width="1.6" stroke-linecap="round" stroke-linejoin="round"/><polyline points="37,22 38,22" fill="none" stroke="#111" stroke-width="1.6" stroke-linecap="round" stroke-linejoin="round"/><polyline points="37,34 38,34" fill="none" stroke="#111" stroke-width="1.6" stroke-linecap="round" stroke-linejoin="round"/><rect x="6" y="6" width="40" height="52" fill="none" stroke="#111" stroke-width="1.6"/><polyline points="14,26 19,26 19,23" fill="none" stroke="#111" stroke-width="1.6" stroke-linecap="round" stroke-linejoin="round"/><rect x="15" y="21" width="8" height="2" fill="none" stroke="#111" stroke-width="1.6"/><rect x="15" y="29" width="8" height="2" fill="none" stroke="#111" stroke-width="1.6"/><polyline points="28,30 33,30 33,33" fill="none" stroke="#111" stroke-width="1.6" stroke-linecap="round" stroke-linejoin="round"/></svg>