<svg xmlns="http://www.w3.org/2000/svg" width="96" height="64" viewBox="0 0 96 64"><rect x="7.79" y="22.14" width="23.31" height="19.72" fill="none" stroke="#111" stroke-width="1.6"/><rect x="11.38" y="20.34" width="16.14" height="23.32" fill="none" stroke="#111" stroke-width="1.6"/><polyline points="11.38,29.31 20.34,29.31 20.34,20.34" fill="none" stroke="#111" stroke-width="1.6" stroke-linecap="round" stroke-linejoin="round"/><polyline points="20.34,29.31 20.34,44.55" fill="none" stroke="#111" stroke-width="1.6" stroke-linecap="round" stroke-linejoin="round"/><rect x="9.59" y="24.83" width="19.72" height="14.34" fill="none" stroke="#111" stroke-width="1.6"/><rect x="6" y="6" width="26.9" height="52" fill="none" stroke="#111" stroke-width="1.6"/><polyline points="6,32.9 32.9,32.9" fill="none" stroke="#111" stroke-width="1.6" stroke-linecap="round" stroke-linejoin="round"/><polyline points="20.34,32.9 20.34,43.66 6,43.66" fill="none" stroke="#111" stroke-width="1.6" stroke-linecap="round" stroke-linejoin="round"/><rect x="9.59" y="14.07" width="19.72" height="35.86" fill="none" stroke="#111" stroke-width="1.6"/><polyline points="9.59,21.24 21.69,21.24" fill="none" stroke="#111" stroke-width="1.6" stroke-linecap="round" stroke-linejoin="round"/><polyline points="9.59,24.83 21.69,24.83" fill="none" stroke="#111" stroke-width="1.6" stroke-linecap="round" stroke-linejoin="round"/><polyline points="9.59,39.17 21.69,39.17" fill="none" stroke="#111" stroke-width="1.6" stroke-linecap="round" stroke-linejoin="round"/><polyline points="9.59,44.55 21.69,44.55" fill="none" stroke="#111" stroke-width="1.6" stroke-linecap="round" stroke-linejoin="round"/><polyline points="21.69,49.93 21.69,14.07" fill="none" stroke="#111" stroke-width="1.6" stroke-linecap="round" stroke-linejoin="round"/><rect x="9.59" y="22.14" width="19.72" height="19.72" fill="none" stroke="#111" stroke-width="1.6"/><rect x="14.07" y="24.83" width="9.86" height="14.34" fill="none" stroke="#111" stroke-width="1.6"/></svg>