<svg xmlns="http://www.w3.org/2000/svg" width="96" height="64" viewBox="0 0 96 64"><rect x="6" y="6" width="3.06" height="52" fill="none" stroke="#111" stroke-width="1.6"/><polyline points="6.89,7.13 7.93,8.14" fill="none" stroke="#111" stroke-width="1.6" stroke-linecap="round" stroke-linejoin="round"/><polyline points="6.89,10.19 7.93,11.2" fill="none" stroke="#111" stroke-width="1.6" stroke-linecap="round" stroke-linejoin="round"/><polyline points="6.89,13.25 7.93,14.26" fill="none" stroke="#111" stroke-width="1.6" stroke-linecap="round" stroke-linejoin="round"/><polyline points="6.89,16.31 7.93,17.32" fill="none" stroke="#111" stroke-width="1.6" stroke-linecap="round" stroke-linejoin="round"/><polyline points="6.89,19.37 7.93,20.38" fill="none" stroke="#111" stroke-width="1.6" stroke-linecap="round" stroke-linejoin="round"/><polyline points="6.89,22.43 7.93,23.44" fill="none" stroke="#111" stroke-width="1.6" stroke-linecap="round" stroke-linejoin="round"/><polyline points="6.89,25.48 7.93,26.49" fill="none" stroke="#111" stroke-width="1.6" stroke-linecap="round" stroke-linejoin="round"/><polyline points="6.89,28.54 7.93,29.55" fill="none" stroke="#111" stroke-width="1.6" stroke-linecap="round" stroke-linejoin="round"/><polyline points="6.89,31.6 7.93,32.61" fill="none" stroke="#111" stroke-width="1.6" stroke-linecap="round" stroke-linejoin="round"/><polyline points="6.89,34.66 7.93,35.67" fill="none" stroke="#111" stroke-width="1.6" stroke-linecap="round" stroke-linejoin="round"/><polyline points="6.89,37.72 7.93,38.73" fill="none" stroke="#111" stroke-width="1.6" stroke-linecap="round" stroke-linejoin="round"/><polyline points="6.89,40.78 7.93,41.79" fill="none" stroke="#111" stroke-width="1.6" stroke-linecap="round" stroke-linejoin="round"/><polyline points="6.89,43.84 7.93,44.85" fill="none" stroke="#111" stroke-width="1.6" stroke-linecap="round" stroke-linejoin="round"/><polyline points="6.89,46.9 7.93,47.91" fill="none" stroke="#111" stroke-width="1.6" stroke-linecap="round" stroke-linejoin="round"/><polyline points="6.89,49.96 7.93,50.96" fill="none" stroke="#111" stroke-width="1.6" stroke-linecap="round" stroke-linejoin="round"/><polyline points="6.89,53.01 7.93,54.02" fill="none" stroke="#111" stroke-width="1.6" stroke-linecap="round" stroke-linejoin="round"/><polyline points="6.89,56.07 7.93,57.08" fill="none" stroke="#111" stroke-width="1.6" stroke-linecap="round" stroke-linejoin="round"/><polyline points="7.1,6.92 8.14,7.93" fill="none" stroke="#111" stroke-width="1.6" stroke-linecap="round" stroke-linejoin="round"/><polyline points="7.1,9.98 8.14,10.99" fill="none" stroke="#111" stroke-width="1.6" stroke-linecap="round" stroke-linejoin="round"/><polyline points="7.1,13.04 8.14,14.04" fill="none" stroke="#111" stroke-width="1.6" stroke-linecap="round" stroke-linejoin="round"/><polyline points="7.1,16.09 8.14,17.1" fill="none" stroke="#111" stroke-width="1.6" stroke-linecap="round" stroke-linejoin="round"/><polyline points="7.1,19.15 8.14,20.16" fill="none" stroke="#111" stroke-width="1.6" stroke-linecap="round" stroke-linejoin="round"/><polyline points="7.1,22.21 8.14,23.22" fill="none" stroke="#111" stroke-width="1.6" stroke-linecap="round" stroke-linejoin="round"/><polyline points="7.1,25.27 8.14,26.28" fill="none" stroke="#111" stroke-width="1.6" stroke-linecap="round" stroke-linejoin="round"/><polyline points="7.1,28.33 8.14,29.34" fill="none" stroke="#111" stroke-width="1.6" stroke-linecap="round" stroke-linejoin="round"/><polyline points="7.1,31.39 8.14,32.4" fill="none" stroke="#111" stroke-width="1.6" stroke-linecap="round" stroke-linejoin="round"/><polyline points="7.1,34.45 8.14,35.46" fill="none" stroke="#111" stroke-width="1.6" stroke-linecap="round" stroke-linejoin="round"/><polyline points="7.1,37.51 8.14,38.52" fill="none" stroke="#111" stroke-width="1.6" stroke-linecap="round" stroke-linejoin="round"/><polyline points="7.1,40.56 8.14,41.57" fill="none" stroke="#111" stroke-width="1.6" stroke-linecap="round" stroke-linejoin="round"/><polyline points="7.1,43.62 8.14,44.63" fill="none" stroke="#111" stroke-width="1.6" stroke-linecap="round" stroke-linejoin="round"/><polyline points="7.1,46.68 8.14,47.69" fill="none" stroke="#111" stroke-width="1.6" stroke-linecap="round" stroke-linejoin="round"/><polyline points="7.1,49.74 8.14,50.75" fill="none" stroke="#111" stroke-width="1.6" stroke-linecap="round" stroke-linejoin="round"/><polyline points="7.1,52.8 8.14,53.81" fill="none" stroke="#111" stroke-width="1.6" stroke-linecap="round" stroke-linejoin="round"/><polyline points="7.1,55.86 8.14,56.87" fill="none" stroke="#111" stroke-width="1.6" stroke-linecap="round" stroke-linejoin="round"/><circle cx="7.53" cy="7.53" r="0.76" fill="none" stroke="#111" stroke-width="1.6"/><circle cx="7.53" cy="10.59" r="0.76" fill="none" stroke="#111" stroke-width="1.6"/><circle cx="7.53" cy="13.65" r="0.76" fill="none" stroke="#111" stroke-width="1.6"/><circle cx="7.53" cy="16.71" r="0.76" fill="none" stroke="#111" stroke-width="1.6"/><circle cx="7.53" cy="19.76" r="0.76" fill="none" stroke="#111" stroke-width="1.6"/><circle cx="7.53" cy="22.82" r="0.76" fill="none" stroke="#111" stroke-width="1.6"/><circle cx="7.53" cy="25.88" r="0.76" fill="none" stroke="#111" stroke-width="1.6"/><circle cx="7.53" cy="28.94" r="0.76" fill="none" stroke="#111" stroke-width="1.6"/><circle cx="7.53" cy="32" r="0.76" fill="none" stroke="#111" stroke-width="1.6"/><circle cx="7.53" cy="35.06" r="0.76" fill="none" stroke="#111" stroke-width="1.6"/><circle cx="7.53" cy="38.12" r="0.76" fill="none" stroke="#111" stroke-width="1.6"/><circle cx="7.53" cy="41.18" r="0.76" fill="none" stroke="#111" stroke-width="1.6"/><circle cx="7.53" cy="44.24" r="0.76" fill="none" stroke="#111" stroke-width="1.6"/><circle cx="7.53" cy="47.29" r="0.76" fill="none" stroke="#111" stroke-width="1.6"/><circle cx="7.53" cy="50.35" r="0.76" fill="none" stroke="#111" stroke-width="1.6"/><circle cx="7.53" cy="53.41" r="0.76" fill="none" stroke="#111" stroke-width="1.6"/><circle cx="7.53" cy="56.47" r="0.76" fill="none" stroke="#111" stroke-width="1.6"/></svg>