<svg xmlns="http://www.w3.org/2000/svg" width="96" height="64" viewBox="0 0 96 64"><polyline points="6,6.26 6.39,6.26" fill="none" stroke="#111" stroke-width="1.6" stroke-linecap="round" stroke-linejoin="round"/><polyline points="6,7.54 6.39,7.54" fill="none" stroke="#111" stroke-width="1.6" stroke-linecap="round" stroke-linejoin="round"/><polyline points="6,8.83 6.39,8.83" fill="none" stroke="#111" stroke-width="1.6" stroke-linecap="round" stroke-linejoin="round"/><polyline points="6,10.12 6.39,10.12" fill="none" stroke="#111" stroke-width="1.6" stroke-linecap="round" stroke-linejoin="round"/><polyline points="6,11.41 6.39,11.41" fill="none" stroke="#111" stroke-width="1.6" stroke-linecap="round" stroke-linejoin="round"/><polyline points="6,12.69 6.39,12.69" fill="none" stroke="#111" stroke-width="1.6" stroke-linecap="round" stroke-linejoin="round"/><polyline points="6,13.98 6.39,13.98" fill="none" stroke="#111" stroke-width="1.6" stroke-linecap="round" stroke-linejoin="round"/><polyline points="6,15.27 6.39,15.27" fill="none" stroke="#111" stroke-width="1.6" stroke-linecap="round" stroke-linejoin="round"/><polyline points="6,16.55 6.39,16.55" fill="none" stroke="#111" stroke-width="1.6" stroke-linecap="round" stroke-linejoin="round"/><polyline points="6,17.84 6.39,17.84" fill="none" stroke="#111" stroke-width="1.6" stroke-linecap="round" stroke-linejoin="round"/><polyline points="6,19.13 6.39,19.13" fill="none" stroke="#111" stroke-width="1.6" stroke-linecap="round" stroke-linejoin="round"/><polyline points="6,20.42 6.39,20.42" fill="none" stroke="#111" stroke-width="1.6" stroke-linecap="round" stroke-linejoin="round"/><polyline points="6,21.7 6.39,21.7" fill="none" stroke="#111" stroke-width="1.6" stroke-linecap="round" stroke-linejoin="round"/><polyline points="6,22.99 6.39,22.99" fill="none" stroke="#111" stroke-width="1.6" stroke-linecap="round" stroke-linejoin="round"/><polyline points="6,24.28 6.39,24.28" fill="none" stroke="#111" stroke-width="1.6" stroke-linecap="round" stroke-linejoin="round"/><polyline points="6,25.56 6.39,25.56" fill="none" stroke="#111" stroke-width="1.6" stroke-linecap="round" stroke-linejoin="round"/><polyline points="6,26.85 6.39,26.85" fill="none" stroke="#111" stroke-width="1.6" stroke-linecap="round" stroke-linejoin="round"/><polyline points="6,28.14 6.39,28.14" fill="none" stroke="#111" stroke-width="1.6" stroke-linecap="round" stroke-linejoin="round"/><polyline points="6,29.43 6.39,29.43" fill="none" stroke="#111" stroke-width="1.6" stroke-linecap="round" stroke-linejoin="round"/><polyline points="6,30.71 6.39,30.71" fill="none" stroke="#111" stroke-width="1.6" stroke-linecap="round" stroke-linejoin="round"/><polyline points="6,32 6.39,32" fill="none" stroke="#111" stroke-width="1.6" stroke-linecap="round" stroke-linejoin="round"/><polyline points="6,33.29 6.39,33.29" fill="none" stroke="#111" stroke-width="1.6" stroke-linecap="round" stroke-linejoin="round"/><polyline points="6,34.57 6.39,34.57" fill="none" stroke="#111" stroke-width="1.6" stroke-linecap="round" stroke-linejoin="round"/><polyline points="6,35.86 6.39,35.86" fill="none" stroke="#111" stroke-width="1.6" stroke-linecap="round" stroke-linejoin="round"/><polyline points="6,37.15 6.39,37.15" fill="none" stroke="#111" stroke-width="1.6" stroke-linecap="round" stroke-linejoin="round"/><polyline points="6,38.44 6.39,38.44" fill="none" stroke="#111" stroke-width="1.6" stroke-linecap="round" stroke-linejoin="round"/><polyline points="6,39.72 6.39,39.72" fill="none" stroke="#111" stroke-width="1.6" stroke-linecap="round" stroke-linejoin="round"/><polyline points="6,41.01 6.39,41.01" fill="none" stroke="#111" stroke-width="1.6" stroke-linecap="round" stroke-linejoin="round"/><polyline points="6,42.3 6.39,42.3" fill="none" stroke="#111" stroke-width="1.6" stroke-linecap="round" stroke-linejoin="round"/><polyline points="6,43.58 6.39,43.58" fill="none" stroke="#111" stroke-width="1.6" stroke-linecap="round" stroke-linejoin="round"/><polyline points="6,44.87 6.39,44.87" fill="none" stroke="#111" stroke-width="1.6" stroke-linecap="round" stroke-linejoin="round"/><polyline points="6,46.16 6.39,46.16" fill="none" stroke="#111" stroke-width="1.6" stroke-linecap="round" stroke-linejoin="round"/><polyline points="6,47.45 6.39,47.45" fill="none" stroke="#111" stroke-width="1.6" stroke-linecap="round" stroke-linejoin="round"/><polyline points="6,48.73 6.39,48.73" fill="none" stroke="#111" stroke-width="1.6" stroke-linecap="round" stroke-linejoin="round"/><polyline points="6,50.02 6.39,50.02" fill="none" stroke="#111" stroke-width="1.6" stroke-linecap="round" stroke-linejoin="round"/><polyline points="6,51.31 6.39,51.31" fill="none" stroke="#111" stroke-width="1.6" stroke-linecap="round" stroke-linejoin="round"/><polyline points="6,52.59 6.39,52.59" fill="none" stroke="#111" stroke-width="1.6" stroke-linecap="round" stroke-linejoin="round"/><polyline points="6,53.88 6.39,53.88" fill="none" stroke="#111" stroke-width="1.6" stroke-linecap="round" stroke-linejoin="round"/><polyline points="6,55.17 6.39,55.17" fill="none" stroke="#111" stroke-width="1.6" stroke-linecap="round" stroke-linejoin="round"/><polyline points="6,56.46 6.39,56.46" fill="none" stroke="#111" stroke-width="1.6" stroke-linecap="round" stroke-linejoin="round"/><polyline points="6,57.74 6.39,57.74" fill="none" stroke="#111" stroke-width="1.6" stroke-linecap="round" stroke-linejoin="round"/><path d="M 6.64 6.51 Q 6.39 6.26 6.64 6" fill="none" stroke="#111" stroke-width="1.6" stroke-linecap="round"/><path d="M 6.64 7.8 Q 6.39 7.54 6.64 7.29" fill="none" stroke="#111" stroke-width="1.6" stroke-linecap="round"/><path d="M 6.64 9.09 Q 6.39 8.83 6.64 8.57" fill="none" stroke="#111" stroke-width="1.6" stroke-linecap="round"/><path d="M 6.64 10.38 Q 6.39 10.12 6.64 9.86" fill="none" stroke="#111" stroke-width="1.6" stroke-linecap="round"/><path d="M 6.64 11.66 Q 6.39 11.41 6.64 11.15" fill="none" stroke="#111" stroke-width="1.6" stroke-linecap="round"/><path d="M 6.64 12.95 Q 6.39 12.69 6.64 12.44" fill="none" stroke="#111" stroke-width="1.6" stroke-linecap="round"/><path d="M 6.64 14.24 Q 6.39 13.98 6.64 13.72" fill="none" stroke="#111" stroke-width="1.6" stroke-linecap="round"/><path d="M 6.64 15.52 Q 6.39 15.27 6.64 15.01" fill="none" stroke="#111" stroke-width="1.6" stroke-linecap="round"/><path d="M 6.64 16.81 Q 6.39 16.55 6.64 16.3" fill="none" stroke="#111" stroke-width="1.6" stroke-linecap="round"/><path d="M 6.64 18.1 Q 6.39 17.84 6.64 17.58" fill="none" stroke="#111" stroke-width="1.6" stroke-linecap="round"/><path d="M 6.64 19.39 Q 6.39 19.13 6.64 18.87" fill="none" stroke="#111" stroke-width="1.6" stroke-linecap="round"/><path d="M 6.64 20.67 Q 6.39 20.42 6.64 20.16" fill="none" stroke="#111" stroke-width="1.6" stroke-linecap="round"/><path d="M 6.64 21.96 Q 6.39 21.7 6.64 21.45" fill="none" stroke="#111" stroke-width="1.6" stroke-linecap="round"/><path d="M 6.64 23.25 Q 6.39 22.99 6.64 22.73" fill="none" stroke="#111" stroke-width="1.6" stroke-linecap="round"/><path d="M 6.64 24.53 Q 6.39 24.28 6.64 24.02" fill="none" stroke="#111" stroke-width="1.6" stroke-linecap="round"/><path d="M 6.64 25.82 Q 6.39 25.56 6.64 25.31" fill="none" stroke="#111" stroke-width="1.6" stroke-linecap="round"/><path d="M 6.64 27.11 Q 6.39 26.85 6.64 26.59" fill="none" stroke="#111" stroke-width="1.6" stroke-linecap="round"/><path d="M 6.64 28.4 Q 6.39 28.14 6.64 27.88" fill="none" stroke="#111" stroke-width="1.6" stroke-linecap="round"/><path d="M 6.64 29.68 Q 6.39 29.43 6.64 29.17" fill="none" stroke="#111" stroke-width="1.6" stroke-linecap="round"/><path d="M 6.64 30.97 Q 6.39 30.71 6.64 30.46" fill="none" stroke="#111" stroke-width="1.6" stroke-linecap="round"/><path d="M 6.64 32.26 Q 6.39 32 6.64 31.74" fill="none" stroke="#111" stroke-width="1.6" stroke-linecap="round"/><path d="M 6.64 33.54 Q 6.39 33.29 6.64 33.03" fill="none" stroke="#111" stroke-width="1.6" stroke-linecap="round"/><path d="M 6.64 34.83 Q 6.39 34.57 6.64 34.32" fill="none" stroke="#111" stroke-width="1.6" stroke-linecap="round"/><path d="M 6.64 36.12 Q 6.39 35.86 6.64 35.6" fill="none" stroke="#111" stroke-width="1.6" stroke-linecap="round"/><path d="M 6.64 37.41 Q 6.39 37.15 6.64 36.89" fill="none" stroke="#111" stroke-width="1.6" stroke-linecap="round"/><path d="M 6.64 38.69 Q 6.39 38.44 6.64 38.18" fill="none" stroke="#111" stroke-width="1.6" stroke-linecap="round"/><path d="M 6.64 39.98 Q 6.39 39.72 6.64 39.47" fill="none" stroke="#111" stroke-width="1.6" stroke-linecap="round"/><path d="M 6.64 41.27 Q 6.39 41.01 6.64 40.75" fill="none" stroke="#111" stroke-width="1.6" stroke-linecap="round"/><path d="M 6.64 42.55 Q 6.39 42.3 6.64 42.04" fill="none" stroke="#111" stroke-width="1.6" stroke-linecap="round"/><path d="M 6.64 43.84 Q 6.39 43.58 6.64 43.33" fill="none" stroke="#111" stroke-width="1.6" stroke-linecap="round"/><path d="M 6.64 45.13 Q 6.39 44.87 6.64 44.61" fill="none" stroke="#111" stroke-width="1.6" stroke-linecap="round"/><path d="M 6.64 46.42 Q 6.39 46.16 6.64 45.9" fill="none" stroke="#111" stroke-width="1.6" stroke-linecap="round"/><path d="M 6.64 47.7 Q 6.39 47.45 6.64 47.19" fill="none" stroke="#111" stroke-width="1.6" stroke-linecap="round"/><path d="M 6.64 48.99 Q 6.39 48.73 6.64 48.48" fill="none" stroke="#111" stroke-width="1.6" stroke-linecap="round"/><path d="M 6.64 50.28 Q 6.39 50.02 6.64 49.76" fill="none" stroke="#111" stroke-width="1.6" stroke-linecap="round"/><path d="M 6.64 51.56 Q 6.39 51.31 6.64 51.05" fill="none" stroke="#111" stroke-width="1.6" stroke-linecap="round"/><path d="M 6.64 52.85 Q 6.39 52.59 6.64 52.34" fill="none" stroke="#111" stroke-width="1.6" stroke-linecap="round"/><path d="M 6.64 54.14 Q 6.39 53.88 6.64 53.62" fill="none" stroke="#111" stroke-width="1.6" stroke-linecap="round"/><path d="M 6.64 55.43 Q 6.39 55.17 6.64 54.91" fill="none" stroke="#111" stroke-width="1.6" stroke-linecap="round"/><path d="M 6.64 56.71 Q 6.39 56.46 6.64 56.2" fill="none" stroke="#111" stroke-width="1.6" stroke-linecap="round"/><path d="M 6.64 58 Q 6.39 57.74 6.64 57.49" fill="none" stroke="#111" stroke-width="1.6" stroke-linecap="round"/></svg>