<svg xmlns="http://www.w3.org/2000/svg" width="96" height="64" viewBox="0 0 96 64"><polyline points="75.52,17.01 75.52,6" fill="none" stroke="#111" stroke-width="1.6" stroke-linecap="round" stroke-linejoin="round"/><polyline points="75.52,52.34 75.52,41.34" fill="none" stroke="#111" stroke-width="1.6" stroke-linecap="round" stroke-linejoin="round"/><rect x="6" y="6" width="84" height="46.34" fill="none" stroke="#111" stroke-width="1.6"/><rect x="24.54" y="20.48" width="26.65" height="16.8" fill="none" stroke="#111" stroke-width="1.6"/><polyline points="24.54,29.17 6,29.17" fill="none" stroke="#111" stroke-width="1.6" stroke-linecap="round" stroke-linejoin="round"/><polyline points="31.37,47.13 15.27,47.13 15.27,29.17" fill="none" stroke="#111" stroke-width="1.6" stroke-linecap="round" stroke-linejoin="round"/><circle cx="32.65" cy="47.13" r="1.16" fill="none" stroke="#111" stroke-width="1.6"/><polyline points="33.81,46.55 42.38,42.84" fill="none" stroke="#111" stroke-width="1.6" stroke-linecap="round" stroke-linejoin="round"/><circle cx="43.08" cy="47.13" r="1.16" fill="none" stroke="#111" stroke-width="1.6"/><polyline points="50.03,47.13 44.35,47.13" fill="none" stroke="#111" stroke-width="1.6" stroke-linecap="round" stroke-linejoin="round"/><polyline points="50.03,47.13 51.19,44.81 52.34,47.13 53.5,49.45 54.66,47.13" fill="none" stroke="#111" stroke-width="1.6" stroke-linecap="round" stroke-linejoin="round"/><polyline points="51.19,29.17 65.09,29.17" fill="none" stroke="#111" stroke-width="1.6" stroke-linecap="round" stroke-linejoin="round"/><polyline points="54.66,47.13 55.82,44.81 56.98,47.13 58.14,49.45 59.3,47.13" fill="none" stroke="#111" stroke-width="1.6" stroke-linecap="round" stroke-linejoin="round"/><polyline points="59.3,47.13 60.46,44.81 61.61,47.13 62.77,49.45 63.93,47.13" fill="none" stroke="#111" stroke-width="1.6" stroke-linecap="round" stroke-linejoin="round"/><polyline points="65.09,20.48 65.09,37.86" fill="none" stroke="#111" stroke-width="1.6" stroke-linecap="round" stroke-linejoin="round"/><polyline points="67.41,18.74 67.41,23.38" fill="none" stroke="#111" stroke-width="1.6" stroke-linecap="round" stroke-linejoin="round"/><polyline points="67.41,26.86 67.41,31.49" fill="none" stroke="#111" stroke-width="1.6" stroke-linecap="round" stroke-linejoin="round"/><polyline points="67.41,34.97 67.41,39.6" fill="none" stroke="#111" stroke-width="1.6" stroke-linecap="round" stroke-linejoin="round"/><polyline points="67.41,37.28 78.99,37.28 78.99,21.06 67.41,21.06" fill="none" stroke="#111" stroke-width="1.6" stroke-linecap="round" stroke-linejoin="round"/><polyline points="68.57,29.17 73.2,27.43 73.2,30.91 68.57,29.17" fill="none" stroke="#111" stroke-width="1.6" stroke-linecap="round" stroke-linejoin="round"/><circle cx="71.46" cy="29.17" r="12.74" fill="none" stroke="#111" stroke-width="1.6"/><polyline points="75.52,17.59 75.52,21.06" fill="none" stroke="#111" stroke-width="1.6" stroke-linecap="round" stroke-linejoin="round"/><circle cx="75.52" cy="21.06" r="1.16" fill="none" stroke="#111" stroke-width="1.6"/><circle cx="75.52" cy="37.28" r="1.16" fill="none" stroke="#111" stroke-width="1.6"/><polyline points="75.52,40.76 75.52,29.17 67.41,29.17" fill="none" stroke="#111" stroke-width="1.6" stroke-linecap="round" stroke-linejoin="round"/><polyline points="75.52,47.13 63.93,47.13" fill="none" stroke="#111" stroke-width="1.6" stroke-linecap="round" stroke-linejoin="round"/><polyline points="76.68,26.86 77.26,27.43 80.73,27.43 81.31,28.01" fill="none" stroke="#111" stroke-width="1.6" stroke-linecap="round" stroke-linejoin="round"/><polyline points="78.99,27.43 77.26,30.33 80.73,30.33 78.99,27.43" fill="none" stroke="#111" stroke-width="1.6" stroke-linecap="round" stroke-linejoin="round"/><circle cx="15.27" cy="29.17" r="1.27" fill="none" stroke="#111" stroke-width="1.6"/><polyline points="37.75,38.79 37.75,37.4" fill="none" stroke="#111" stroke-width="1.6" stroke-linecap="round" stroke-linejoin="round"/><polyline points="37.75,41.69 37.75,40.53" fill="none" stroke="#111" stroke-width="1.6" stroke-linecap="round" stroke-linejoin="round"/><polyline points="37.75,44.58 37.75,43.42" fill="none" stroke="#111" stroke-width="1.6" stroke-linecap="round" stroke-linejoin="round"/><circle cx="75.52" cy="47.13" r="1.27" fill="none" stroke="#111" stroke-width="1.6"/></svg>