<svg xmlns="http://www.w3.org/2000/svg" width="96" height="64" viewBox="0 0 96 64"><rect x="6" y="6" width="6.93" height="52" fill="none" stroke="#111" stroke-width="1.6"/><rect x="6" y="7.56" width="1.73" height="0.35" fill="none" stroke="#111" stroke-width="1.6"/><rect x="6" y="11.03" width="1.73" height="0.34" fill="none" stroke="#111" stroke-width="1.6"/><rect x="6" y="14.49" width="1.73" height="0.35" fill="none" stroke="#111" stroke-width="1.6"/><rect x="6" y="17.96" width="1.73" height="0.35" fill="none" stroke="#111" stroke-width="1.6"/><rect x="6" y="21.43" width="1.73" height="0.34" fill="none" stroke="#111" stroke-width="1.6"/><rect x="6" y="24.89" width="1.73" height="0.35" fill="none" stroke="#111" stroke-width="1.6"/><rect x="6" y="28.36" width="1.73" height="0.35" fill="none" stroke="#111" stroke-width="1.6"/><rect x="6" y="31.83" width="1.73" height="0.34" fill="none" stroke="#111" stroke-width="1.6"/><rect x="6" y="35.29" width="1.73" height="0.35" fill="none" stroke="#111" stroke-width="1.6"/><rect x="6" y="38.76" width="1.73" height="0.35" fill="none" stroke="#111" stroke-width="1.6"/><rect x="6" y="42.23" width="1.73" height="0.34" fill="none" stroke="#111" stroke-width="1.6"/><rect x="6" y="45.69" width="1.73" height="0.35" fill="none" stroke="#111" stroke-width="1.6"/><rect x="6" y="49.16" width="1.73" height="0.35" fill="none" stroke="#111" stroke-width="1.6"/><rect x="6" y="52.63" width="1.73" height="0.34" fill="none" stroke="#111" stroke-width="1.6"/><rect x="6" y="56.09" width="1.73" height="0.35" fill="none" stroke="#111" stroke-width="1.6"/><rect x="11.2" y="7.56" width="1.73" height="0.35" fill="none" stroke="#111" stroke-width="1.6"/><rect x="11.2" y="11.03" width="1.73" height="0.34" fill="none" stroke="#111" stroke-width="1.6"/><rect x="11.2" y="14.49" width="1.73" height="0.35" fill="none" stroke="#111" stroke-width="1.6"/><rect x="11.2" y="17.96" width="1.73" height="0.35" fill="none" stroke="#111" stroke-width="1.6"/><rect x="11.2" y="21.43" width="1.73" height="0.34" fill="none" stroke="#111" stroke-width="1.6"/><rect x="11.2" y="24.89" width="1.73" height="0.35" fill="none" stroke="#111" stroke-width="1.6"/><rect x="11.2" y="28.36" width="1.73" height="0.35" fill="none" stroke="#111" stroke-width="1.6"/><rect x="11.2" y="31.83" width="1.73" height="0.34" fill="none" stroke="#111" stroke-width="1.6"/><rect x="11.2" y="35.29" width="1.73" height="0.35" fill="none" stroke="#111" stroke-width="1.6"/><rect x="11.2" y="38.76" width="1.73" height="0.35" fill="none" stroke="#111" stroke-width="1.6"/><rect x="11.2" y="42.23" width="1.73" height="0.34" fill="none" stroke="#111" stroke-width="1.6"/><rect x="11.2" y="45.69" width="1.73" height="0.35" fill="none" stroke="#111" stroke-width="1.6"/><rect x="11.2" y="49.16" width="1.73" height="0.35" fill="none" stroke="#111" stroke-width="1.6"/><rect x="11.2" y="52.63" width="1.73" height="0.34" fill="none" stroke="#111" stroke-width="1.6"/><rect x="11.2" y="56.09" width="1.73" height="0.35" fill="none" stroke="#111" stroke-width="1.6"/></svg>