<svg xmlns="http://www.w3.org/2000/svg" width="96" height="64" viewBox="0 0 96 64"><rect x="6" y="6" width="2.14" height="51.36" fill="none" stroke="#111" stroke-width="1.6"/><rect x="6" y="6.96" width="1.07" height="0.22" fill="none" stroke="#111" stroke-width="1.6"/><rect x="6" y="9.1" width="1.07" height="0.22" fill="none" stroke="#111" stroke-width="1.6"/><rect x="6" y="11.24" width="1.07" height="0.22" fill="none" stroke="#111" stroke-width="1.6"/><rect x="6" y="13.38" width="1.07" height="0.22" fill="none" stroke="#111" stroke-width="1.6"/><rect x="6" y="15.52" width="1.07" height="0.22" fill="none" stroke="#111" stroke-width="1.6"/><rect x="6" y="17.66" width="1.07" height="0.22" fill="none" stroke="#111" stroke-width="1.6"/><rect x="6" y="19.8" width="1.07" height="0.22" fill="none" stroke="#111" stroke-width="1.6"/><rect x="6" y="21.94" width="1.07" height="0.22" fill="none" stroke="#111" stroke-width="1.6"/><rect x="6" y="24.08" width="1.07" height="0.22" fill="none" stroke="#111" stroke-width="1.6"/><rect x="6" y="26.22" width="1.07" height="0.22" fill="none" stroke="#111" stroke-width="1.6"/><rect x="6" y="28.36" width="1.07" height="0.22" fill="none" stroke="#111" stroke-width="1.6"/><rect x="6" y="30.5" width="1.07" height="0.22" fill="none" stroke="#111" stroke-width="1.6"/><rect x="6" y="32.64" width="1.07" height="0.22" fill="none" stroke="#111" stroke-width="1.6"/><rect x="6" y="34.78" width="1.07" height="0.22" fill="none" stroke="#111" stroke-width="1.6"/><rect x="6" y="36.92" width="1.07" height="0.22" fill="none" stroke="#111" stroke-width="1.6"/><rect x="6" y="39.06" width="1.07" height="0.22" fill="none" stroke="#111" stroke-width="1.6"/><rect x="6" y="41.2" width="1.07" height="0.22" fill="none" stroke="#111" stroke-width="1.6"/><rect x="6" y="43.34" width="1.07" height="0.22" fill="none" stroke="#111" stroke-width="1.6"/><rect x="6" y="45.48" width="1.07" height="0.22" fill="none" stroke="#111" stroke-width="1.6"/><rect x="6" y="47.62" width="1.07" height="0.22" fill="none" stroke="#111" stroke-width="1.6"/><rect x="6" y="49.76" width="1.07" height="0.22" fill="none" stroke="#111" stroke-width="1.6"/><rect x="6" y="51.9" width="1.07" height="0.22" fill="none" stroke="#111" stroke-width="1.6"/><rect x="6" y="54.04" width="1.07" height="0.22" fill="none" stroke="#111" stroke-width="1.6"/><rect x="6" y="56.18" width="1.07" height="0.22" fill="none" stroke="#111" stroke-width="1.6"/><polyline points="6.21,58 7.93,58" fill="none" stroke="#111" stroke-width="1.6" stroke-linecap="round" stroke-linejoin="round"/></svg>