<svg xmlns="http://www.w3.org/2000/svg" width="96" height="64" viewBox="0 0 96 64"><rect x="6" y="6" width="1.79" height="52" fill="none" stroke="#111" stroke-width="1.6"/><rect x="6" y="6.4" width="0.45" height="0.09" fill="none" stroke="#111" stroke-width="1.6"/><rect x="6" y="7.3" width="0.45" height="0.09" fill="none" stroke="#111" stroke-width="1.6"/><rect x="6" y="8.2" width="0.45" height="0.09" fill="none" stroke="#111" stroke-width="1.6"/><rect x="6" y="9.09" width="0.45" height="0.09" fill="none" stroke="#111" stroke-width="1.6"/><rect x="6" y="9.99" width="0.45" height="0.09" fill="none" stroke="#111" stroke-width="1.6"/><rect x="6" y="10.89" width="0.45" height="0.09" fill="none" stroke="#111" stroke-width="1.6"/><rect x="6" y="11.78" width="0.45" height="0.09" fill="none" stroke="#111" stroke-width="1.6"/><rect x="6" y="12.68" width="0.45" height="0.09" fill="none" stroke="#111" stroke-width="1.6"/><rect x="6" y="13.58" width="0.45" height="0.09" fill="none" stroke="#111" stroke-width="1.6"/><rect x="6" y="14.47" width="0.45" height="0.09" fill="none" stroke="#111" stroke-width="1.6"/><rect x="6" y="15.37" width="0.45" height="0.09" fill="none" stroke="#111" stroke-width="1.6"/><rect x="6" y="16.27" width="0.45" height="0.09" fill="none" stroke="#111" stroke-width="1.6"/><rect x="6" y="17.16" width="0.45" height="0.09" fill="none" stroke="#111" stroke-width="1.6"/><rect x="6" y="18.06" width="0.45" height="0.09" fill="none" stroke="#111" stroke-width="1.6"/><rect x="6" y="18.96" width="0.45" height="0.08" fill="none" stroke="#111" stroke-width="1.6"/><rect x="6" y="19.85" width="0.45" height="0.09" fill="none" stroke="#111" stroke-width="1.6"/><rect x="6" y="20.75" width="0.45" height="0.09" fill="none" stroke="#111" stroke-width="1.6"/><rect x="6" y="21.64" width="0.45" height="0.09" fill="none" stroke="#111" stroke-width="1.6"/><rect x="6" y="22.54" width="0.45" height="0.09" fill="none" stroke="#111" stroke-width="1.6"/><rect x="6" y="23.44" width="0.45" height="0.09" fill="none" stroke="#111" stroke-width="1.6"/><rect x="6" y="24.33" width="0.45" height="0.09" fill="none" stroke="#111" stroke-width="1.6"/><rect x="6" y="25.23" width="0.45" height="0.09" fill="none" stroke="#111" stroke-width="1.6"/><rect x="6" y="26.13" width="0.45" height="0.09" fill="none" stroke="#111" stroke-width="1.6"/><rect x="6" y="27.02" width="0.45" height="0.09" fill="none" stroke="#111" stroke-width="1.6"/><rect x="6" y="27.92" width="0.45" height="0.09" fill="none" stroke="#111" stroke-width="1.6"/><rect x="6" y="28.82" width="0.45" height="0.09" fill="none" stroke="#111" stroke-width="1.6"/><rect x="6" y="29.71" width="0.45" height="0.09" fill="none" stroke="#111" stroke-width="1.6"/><rect x="6" y="30.61" width="0.45" height="0.09" fill="none" stroke="#111" stroke-width="1.6"/><rect x="6" y="31.51" width="0.45" height="0.09" fill="none" stroke="#111" stroke-width="1.6"/><rect x="6" y="32.4" width="0.45" height="0.09" fill="none" stroke="#111" stroke-width="1.6"/><rect x="6" y="33.3" width="0.45" height="0.09" fill="none" stroke="#111" stroke-width="1.6"/><rect x="6" y="34.2" width="0.45" height="0.09" fill="none" stroke="#111" stroke-width="1.6"/><rect x="6" y="35.09" width="0.45" height="0.09" fill="none" stroke="#111" stroke-width="1.6"/><rect x="6" y="35.99" width="0.45" height="0.09" fill="none" stroke="#111" stroke-width="1.6"/><rect x="6" y="36.89" width="0.45" height="0.09" fill="none" stroke="#111" stroke-width="1.6"/><rect x="6" y="37.78" width="0.45" height="0.09" fill="none" stroke="#111" stroke-width="1.6"/><rect x="6" y="38.68" width="0.45" height="0.09" fill="none" stroke="#111" stroke-width="1.6"/><rect x="6" y="39.58" width="0.45" height="0.09" fill="none" stroke="#111" stroke-width="1.6"/><rect x="6" y="40.47" width="0.45" height="0.09" fill="none" stroke="#111" stroke-width="1.6"/><rect x="6" y="41.37" width="0.45" height="0.09" fill="none" stroke="#111" stroke-width="1.6"/><rect x="6" y="42.27" width="0.45" height="0.09" fill="none" stroke="#111" stroke-width="1.6"/><rect x="6" y="43.16" width="0.45" height="0.09" fill="none" stroke="#111" stroke-width="1.6"/><rect x="6" y="44.06" width="0.45" height="0.09" fill="none" stroke="#111" stroke-width="1.6"/><rect x="6" y="44.96" width="0.45" height="0.08" fill="none" stroke="#111" stroke-width="1.6"/><rect x="6" y="45.85" width="0.45" height="0.09" fill="none" stroke="#111" stroke-width="1.6"/><rect x="6" y="46.75" width="0.45" height="0.09" fill="none" stroke="#111" stroke-width="1.6"/><rect x="6" y="47.64" width="0.45" height="0.09" fill="none" stroke="#111" stroke-width="1.6"/><rect x="6" y="48.54" width="0.45" height="0.09" fill="none" stroke="#111" stroke-width="1.6"/><rect x="6" y="49.44" width="0.45" height="0.09" fill="none" stroke="#111" stroke-width="1.6"/><rect x="6" y="50.33" width="0.45" height="0.09" fill="none" stroke="#111" stroke-width="1.6"/><rect x="6" y="51.23" width="0.45" height="0.09" fill="none" stroke="#111" stroke-width="1.6"/><rect x="6" y="52.13" width="0.45" height="0.09" fill="none" stroke="#111" stroke-width="1.6"/><rect x="6" y="53.02" width="0.45" height="0.09" fill="none" stroke="#111" stroke-width="1.6"/><rect x="6" y="53.92" width="0.45" height="0.09" fill="none" stroke="#111" stroke-width="1.6"/><rect x="6" y="54.82" width="0.45" height="0.09" fill="none" stroke="#111" stroke-width="1.6"/><rect x="6" y="55.71" width="0.45" height="0.09" fill="none" stroke="#111" stroke-width="1.6"/><rect x="6" y="56.61" width="0.45" height="0.09" fill="none" stroke="#111" stroke-width="1.6"/><rect x="6" y="57.51" width="0.45" height="0.09" fill="none" stroke="#111" stroke-width="1.6"/><rect x="7.34" y="6.4" width="0.45" height="0.09" fill="none" stroke="#111" stroke-width="1.6"/><rect x="7.34" y="7.3" width="0.45" height="0.09" fill="none" stroke="#111" stroke-width="1.6"/><rect x="7.34" y="8.2" width="0.45" height="0.09" fill="none" stroke="#111" stroke-width="1.6"/><rect x="7.34" y="9.09" width="0.45" height="0.09" fill="none" stroke="#111" stroke-width="1.6"/><rect x="7.34" y="9.99" width="0.45" height="0.09" fill="none" stroke="#111" stroke-width="1.6"/><rect x="7.34" y="10.89" width="0.45" height="0.09" fill="none" stroke="#111" stroke-width="1.6"/><rect x="7.34" y="11.78" width="0.45" height="0.09" fill="none" stroke="#111" stroke-width="1.6"/><rect x="7.34" y="12.68" width="0.45" height="0.09" fill="none" stroke="#111" stroke-width="1.6"/><rect x="7.34" y="13.58" width="0.45" height="0.09" fill="none" stroke="#111" stroke-width="1.6"/><rect x="7.34" y="14.47" width="0.45" height="0.09" fill="none" stroke="#111" stroke-width="1.6"/><rect x="7.34" y="15.37" width="0.45" height="0.09" fill="none" stroke="#111" stroke-width="1.6"/><rect x="7.34" y="16.27" width="0.45" height="0.09" fill="none" stroke="#111" stroke-width="1.6"/><rect x="7.34" y="17.16" width="0.45" height="0.09" fill="none" stroke="#111" stroke-width="1.6"/><rect x="7.34" y="18.06" width="0.45" height="0.09" fill="none" stroke="#111" stroke-width="1.6"/><rect x="7.34" y="18.96" width="0.45" height="0.08" fill="none" stroke="#111" stroke-width="1.6"/><rect x="7.34" y="19.85" width="0.45" height="0.09" fill="none" stroke="#111" stroke-width="1.6"/><rect x="7.34" y="20.75" width="0.45" height="0.09" fill="none" stroke="#111" stroke-width="1.6"/><rect x="7.34" y="21.64" width="0.45" height="0.09" fill="none" stroke="#111" stroke-width="1.6"/><rect x="7.34" y="22.54" width="0.45" height="0.09" fill="none" stroke="#111" stroke-width="1.6"/><rect x="7.34" y="23.44" width="0.45" height="0.09" fill="none" stroke="#111" stroke-width="1.6"/><rect x="7.34" y="24.33" width="0.45" height="0.09" fill="none" stroke="#111" stroke-width="1.6"/><rect x="7.34" y="25.23" width="0.45" height="0.09" fill="none" stroke="#111" stroke-width="1.6"/><rect x="7.34" y="26.13" width="0.45" height="0.09" fill="none" stroke="#111" stroke-width="1.6"/><rect x="7.34" y="27.02" width="0.45" height="0.09" fill="none" stroke="#111" stroke-width="1.6"/><rect x="7.34" y="27.92" width="0.45" height="0.09" fill="none" stroke="#111" stroke-width="1.6"/><rect x="7.34" y="28.82" width="0.45" height="0.09" fill="none" stroke="#111" stroke-width="1.6"/><rect x="7.34" y="29.71" width="0.45" height="0.09" fill="none" stroke="#111" stroke-width="1.6"/><rect x="7.34" y="30.61" width="0.45" height="0.09" fill="none" stroke="#111" stroke-width="1.6"/><rect x="7.34" y="31.51" width="0.45" height="0.09" fill="none" stroke="#111" stroke-width="1.6"/><rect x="7.34" y="32.4" width="0.45" height="0.09" fill="none" stroke="#111" stroke-width="1.6"/><rect x="7.34" y="33.3" width="0.45" height="0.09" fill="none" stroke="#111" stroke-width="1.6"/><rect x="7.34" y="34.2" width="0.45" height="0.09" fill="none" stroke="#111" stroke-width="1.6"/><rect x="7.34" y="35.09" width="0.45" height="0.09" fill="none" stroke="#111" stroke-width="1.6"/><rect x="7.34" y="35.99" width="0.45" height="0.09" fill="none" stroke="#111" stroke-width="1.6"/><rect x="7.34" y="36.89" width="0.45" height="0.09" fill="none" stroke="#111" stroke-width="1.6"/><rect x="7.34" y="37.78" width="0.45" height="0.09" fill="none" stroke="#111" stroke-width="1.6"/><rect x="7.34" y="38.68" width="0.45" height="0.09" fill="none" stroke="#111" stroke-width="1.6"/><rect x="7.34" y="39.58" width="0.45" height="0.09" fill="none" stroke="#111" stroke-width="1.6"/><rect x="7.34" y="40.47" width="0.45" height="0.09" fill="none" stroke="#111" stroke-width="1.6"/><rect x="7.34" y="41.37" width="0.45" height="0.09" fill="none" stroke="#111" stroke-width="1.6"/><rect x="7.34" y="42.27" width="0.45" height="0.09" fill="none" stroke="#111" stroke-width="1.6"/><rect x="7.34" y="43.16" width="0.45" height="0.09" fill="none" stroke="#111" stroke-width="1.6"/><rect x="7.34" y="44.06" width="0.45" height="0.09" fill="none" stroke="#111" stroke-width="1.6"/><rect x="7.34" y="44.96" width="0.45" height="0.08" fill="none" stroke="#111" stroke-width="1.6"/><rect x="7.34" y="45.85" width="0.45" height="0.09" fill="none" stroke="#111" stroke-width="1.6"/><rect x="7.34" y="46.75" width="0.45" height="0.09" fill="none" stroke="#111" stroke-width="1.6"/><rect x="7.34" y="47.64" width="0.45" height="0.09" fill="none" stroke="#111" stroke-width="1.6"/><rect x="7.34" y="48.54" width="0.45" height="0.09" fill="none" stroke="#111" stroke-width="1.6"/><rect x="7.34" y="49.44" width="0.45" height="0.09" fill="none" stroke="#111" stroke-width="1.6"/><rect x="7.34" y="50.33" width="0.45" height="0.09" fill="none" stroke="#111" stroke-width="1.6"/><rect x="7.34" y="51.23" width="0.45" height="0.09" fill="none" stroke="#111" stroke-width="1.6"/><rect x="7.34" y="52.13" width="0.45" height="0.09" fill="none" stroke="#111" stroke-width="1.6"/><rect x="7.34" y="53.02" width="0.45" height="0.09" fill="none" stroke="#111" stroke-width="1.6"/><rect x="7.34" y="53.92" width="0.45" height="0.09" fill="none" stroke="#111" stroke-width="1.6"/><rect x="7.34" y="54.82" width="0.45" height="0.09" fill="none" stroke="#111" stroke-width="1.6"/><rect x="7.34" y="55.71" width="0.45" height="0.09" fill="none" stroke="#111" stroke-width="1.6"/><rect x="7.34" y="56.61" width="0.45" height="0.09" fill="none" stroke="#111" stroke-width="1.6"/><rect x="7.34" y="57.51" width="0.45" height="0.09" fill="none" stroke="#111" stroke-width="1.6"/></svg>