<svg xmlns="http://www.w3.org/2000/svg" width="96" height="64" viewBox="0 0 96 64"><rect x="6" y="6" width="69.33" height="52" fill="none" stroke="#111" stroke-width="1.6"/><polyline points="6,14.67 23.33,14.67" fill="none" stroke="#111" stroke-width="1.6" stroke-linecap="round" stroke-linejoin="round"/><polyline points="21.6,49.33 6,49.33" fill="none" stroke="#111" stroke-width="1.6" stroke-linecap="round" stroke-linejoin="round"/><polyline points="21.6,49.33 26.8,49.33 26.8,14.67 21.6,14.67" fill="none" stroke="#111" stroke-width="1.6" stroke-linecap="round" stroke-linejoin="round"/><polyline points="33.73,25.07 19.87,25.07 26.8,38.93 33.73,25.07" fill="none" stroke="#111" stroke-width="1.6" stroke-linecap="round" stroke-linejoin="round"/><polyline points="33.73,38.93 19.87,38.93" fill="none" stroke="#111" stroke-width="1.6" stroke-linecap="round" stroke-linejoin="round"/><polyline points="35.47,28.53 49.33,25.07" fill="none" stroke="#111" stroke-width="1.6" stroke-linecap="round" stroke-linejoin="round"/><polyline points="35.47,35.47 49.33,32" fill="none" stroke="#111" stroke-width="1.6" stroke-linecap="round" stroke-linejoin="round"/><polyline points="42.4,25.07 49.33,25.07 44.13,28.53" fill="none" stroke="#111" stroke-width="1.6" stroke-linecap="round" stroke-linejoin="round"/><polyline points="42.4,32 49.33,32 44.13,35.47" fill="none" stroke="#111" stroke-width="1.6" stroke-linecap="round" stroke-linejoin="round"/><rect x="52.8" y="21.6" width="10.4" height="20.8" fill="none" stroke="#111" stroke-width="1.6"/><polyline points="58,21.6 58,14.67 75.33,14.67" fill="none" stroke="#111" stroke-width="1.6" stroke-linecap="round" stroke-linejoin="round"/><polyline points="58,42.4 58,49.33 75.33,49.33" fill="none" stroke="#111" stroke-width="1.6" stroke-linecap="round" stroke-linejoin="round"/></svg>