<svg xmlns="http://www.w3.org/2000/svg" width="96" height="64" viewBox="0 0 96 64"><rect x="6" y="6" width="1.25" height="0.37" fill="none" stroke="#111" stroke-width="1.6"/><rect x="6" y="9.69" width="1.25" height="0.37" fill="none" stroke="#111" stroke-width="1.6"/><rect x="6" y="13.38" width="1.25" height="0.36" fill="none" stroke="#111" stroke-width="1.6"/><rect x="6" y="17.06" width="1.25" height="0.37" fill="none" stroke="#111" stroke-width="1.6"/><rect x="6" y="20.75" width="1.25" height="0.37" fill="none" stroke="#111" stroke-width="1.6"/><rect x="6" y="24.44" width="1.25" height="0.37" fill="none" stroke="#111" stroke-width="1.6"/><rect x="6" y="28.13" width="1.25" height="0.37" fill="none" stroke="#111" stroke-width="1.6"/><rect x="6" y="31.82" width="1.25" height="0.36" fill="none" stroke="#111" stroke-width="1.6"/><rect x="6" y="35.5" width="1.25" height="0.37" fill="none" stroke="#111" stroke-width="1.6"/><rect x="6" y="39.19" width="1.25" height="0.37" fill="none" stroke="#111" stroke-width="1.6"/><rect x="6" y="42.88" width="1.25" height="0.37" fill="none" stroke="#111" stroke-width="1.6"/><rect x="6" y="46.57" width="1.25" height="0.37" fill="none" stroke="#111" stroke-width="1.6"/><rect x="6" y="50.26" width="1.25" height="0.36" fill="none" stroke="#111" stroke-width="1.6"/><rect x="6" y="53.94" width="1.25" height="0.37" fill="none" stroke="#111" stroke-width="1.6"/><rect x="6" y="57.63" width="1.25" height="0.37" fill="none" stroke="#111" stroke-width="1.6"/><polyline points="7.84,6.18 7.25,6.18" fill="none" stroke="#111" stroke-width="1.6" stroke-linecap="round" stroke-linejoin="round"/><polyline points="7.84,9.87 7.25,9.87" fill="none" stroke="#111" stroke-width="1.6" stroke-linecap="round" stroke-linejoin="round"/><polyline points="7.84,13.56 7.25,13.56" fill="none" stroke="#111" stroke-width="1.6" stroke-linecap="round" stroke-linejoin="round"/><polyline points="7.84,17.25 7.25,17.25" fill="none" stroke="#111" stroke-width="1.6" stroke-linecap="round" stroke-linejoin="round"/><polyline points="7.84,20.94 7.25,20.94" fill="none" stroke="#111" stroke-width="1.6" stroke-linecap="round" stroke-linejoin="round"/><polyline points="7.84,24.62 7.25,24.62" fill="none" stroke="#111" stroke-width="1.6" stroke-linecap="round" stroke-linejoin="round"/><polyline points="7.84,28.31 7.25,28.31" fill="none" stroke="#111" stroke-width="1.6" stroke-linecap="round" stroke-linejoin="round"/><polyline points="7.84,32 7.25,32" fill="none" stroke="#111" stroke-width="1.6" stroke-linecap="round" stroke-linejoin="round"/><polyline points="7.84,35.69 7.25,35.69" fill="none" stroke="#111" stroke-width="1.6" stroke-linecap="round" stroke-linejoin="round"/><polyline points="7.84,39.38 7.25,39.38" fill="none" stroke="#111" stroke-width="1.6" stroke-linecap="round" stroke-linejoin="round"/><polyline points="7.84,43.06 7.25,43.06" fill="none" stroke="#111" stroke-width="1.6" stroke-linecap="round" stroke-linejoin="round"/><polyline points="7.84,46.75 7.25,46.75" fill="none" stroke="#111" stroke-width="1.6" stroke-linecap="round" stroke-linejoin="round"/><polyline points="7.84,50.44 7.25,50.44" fill="none" stroke="#111" stroke-width="1.6" stroke-linecap="round" stroke-linejoin="round"/><polyline points="7.84,54.13 7.25,54.13" fill="none" stroke="#111" stroke-width="1.6" stroke-linecap="round" stroke-linejoin="round"/><polyline points="7.84,57.82 7.25,57.82" fill="none" stroke="#111" stroke-width="1.6" stroke-linecap="round" stroke-linejoin="round"/></svg>