<svg xmlns="http://www.w3.org/2000/svg" width="96" height="64" viewBox="0 0 96 64"><rect x="6" y="6" width="52" height="52" fill="none" stroke="#111" stroke-width="1.6"/><polyline points="19.87,22.47 26.8,22.47 23.33,15.53 19.87,22.47" fill="none" stroke="#111" stroke-width="1.6" stroke-linecap="round" stroke-linejoin="round"/><polyline points="19.87,48.47 26.8,48.47 23.33,41.53 19.87,48.47" fill="none" stroke="#111" stroke-width="1.6" stroke-linecap="round" stroke-linejoin="round"/><rect x="23.33" y="10.33" width="17.34" height="43.34" fill="none" stroke="#111" stroke-width="1.6"/><circle cx="23.33" cy="32" r="0.87" fill="none" stroke="#111" stroke-width="1.6"/><polyline points="23.33,32 6,32" fill="none" stroke="#111" stroke-width="1.6" stroke-linecap="round" stroke-linejoin="round"/><polyline points="26.8,15.53 19.87,15.53" fill="none" stroke="#111" stroke-width="1.6" stroke-linecap="round" stroke-linejoin="round"/><polyline points="26.8,41.53 19.87,41.53" fill="none" stroke="#111" stroke-width="1.6" stroke-linecap="round" stroke-linejoin="round"/><polyline points="28.53,35.47 35.47,35.47 32,28.53 28.53,35.47" fill="none" stroke="#111" stroke-width="1.6" stroke-linecap="round" stroke-linejoin="round"/><circle cx="32" cy="10.33" r="0.87" fill="none" stroke="#111" stroke-width="1.6"/><circle cx="32" cy="53.67" r="0.87" fill="none" stroke="#111" stroke-width="1.6"/><polyline points="32,58 32,6" fill="none" stroke="#111" stroke-width="1.6" stroke-linecap="round" stroke-linejoin="round"/><polyline points="35.47,28.53 28.53,28.53 28.53,30.27" fill="none" stroke="#111" stroke-width="1.6" stroke-linecap="round" stroke-linejoin="round"/><polyline points="37.2,15.53 44.13,15.53" fill="none" stroke="#111" stroke-width="1.6" stroke-linecap="round" stroke-linejoin="round"/><polyline points="37.2,41.53 44.13,41.53" fill="none" stroke="#111" stroke-width="1.6" stroke-linecap="round" stroke-linejoin="round"/><polyline points="40.67,32 58,32" fill="none" stroke="#111" stroke-width="1.6" stroke-linecap="round" stroke-linejoin="round"/><circle cx="40.67" cy="32" r="0.87" fill="none" stroke="#111" stroke-width="1.6"/><polyline points="44.13,22.47 37.2,22.47 40.67,15.53 44.13,22.47" fill="none" stroke="#111" stroke-width="1.6" stroke-linecap="round" stroke-linejoin="round"/><polyline points="44.13,48.47 37.2,48.47 40.67,41.53 44.13,48.47" fill="none" stroke="#111" stroke-width="1.6" stroke-linecap="round" stroke-linejoin="round"/></svg>