<svg xmlns="http://www.w3.org/2000/svg" width="96" height="64" viewBox="0 0 96 64"><polyline points="6,49.33 14.32,49.33" fill="none" stroke="#111" stroke-width="1.6" stroke-linecap="round" stroke-linejoin="round"/><rect x="6" y="6" width="52" height="52" fill="none" stroke="#111" stroke-width="1.6"/><polyline points="12.41,24.89 16.31,24.89 16.31,39.11 12.41,39.11" fill="none" stroke="#111" stroke-width="1.6" stroke-linecap="round" stroke-linejoin="round"/><polyline points="18.65,47.95 45.35,47.95" fill="none" stroke="#111" stroke-width="1.6" stroke-linecap="round" stroke-linejoin="round"/><circle cx="24.72" cy="27.84" r="6.76" fill="none" stroke="#111" stroke-width="1.6"/><path d="M 18.65 47.95 Q 14.93 43.95 12.41 39.11" fill="none" stroke="#111" stroke-width="1.6" stroke-linecap="round"/><path d="M 51.59 39.11 Q 49.03 43.93 45.35 47.95" fill="none" stroke="#111" stroke-width="1.6" stroke-linecap="round"/><path d="M 12.41 24.89 Q 17.27 17.27 24.89 12.41" fill="none" stroke="#111" stroke-width="1.6" stroke-linecap="round"/><circle cx="32" cy="32" r="24.79" fill="none" stroke="#111" stroke-width="1.6"/><path d="M 39.11 12.41 Q 46.73 17.27 51.59 24.89" fill="none" stroke="#111" stroke-width="1.6" stroke-linecap="round"/><polyline points="39.11,12.41 39.11,16.31 24.89,16.31 24.89,12.41" fill="none" stroke="#111" stroke-width="1.6" stroke-linecap="round" stroke-linejoin="round"/><circle cx="39.28" cy="36.25" r="6.76" fill="none" stroke="#111" stroke-width="1.6"/><circle cx="42.4" cy="23.33" r="3.9" fill="none" stroke="#111" stroke-width="1.6"/><polyline points="51.59,39.11 47.69,39.11 47.69,24.89 51.59,24.89" fill="none" stroke="#111" stroke-width="1.6" stroke-linecap="round" stroke-linejoin="round"/></svg>