<svg xmlns="http://www.w3.org/2000/svg" width="96" height="64" viewBox="0 0 96 64"><rect x="6" y="6" width="4.95" height="52" fill="none" stroke="#111" stroke-width="1.6"/><rect x="6" y="7.11" width="1.24" height="0.25" fill="none" stroke="#111" stroke-width="1.6"/><rect x="6" y="9.59" width="1.24" height="0.25" fill="none" stroke="#111" stroke-width="1.6"/><rect x="6" y="12.07" width="1.24" height="0.24" fill="none" stroke="#111" stroke-width="1.6"/><rect x="6" y="14.54" width="1.24" height="0.25" fill="none" stroke="#111" stroke-width="1.6"/><rect x="6" y="17.02" width="1.24" height="0.25" fill="none" stroke="#111" stroke-width="1.6"/><rect x="6" y="19.5" width="1.24" height="0.24" fill="none" stroke="#111" stroke-width="1.6"/><rect x="6" y="21.97" width="1.24" height="0.25" fill="none" stroke="#111" stroke-width="1.6"/><rect x="6" y="24.45" width="1.24" height="0.25" fill="none" stroke="#111" stroke-width="1.6"/><rect x="6" y="26.92" width="1.24" height="0.25" fill="none" stroke="#111" stroke-width="1.6"/><rect x="6" y="29.4" width="1.24" height="0.25" fill="none" stroke="#111" stroke-width="1.6"/><rect x="6" y="31.88" width="1.24" height="0.24" fill="none" stroke="#111" stroke-width="1.6"/><rect x="6" y="34.35" width="1.24" height="0.25" fill="none" stroke="#111" stroke-width="1.6"/><rect x="6" y="36.83" width="1.24" height="0.25" fill="none" stroke="#111" stroke-width="1.6"/><rect x="6" y="39.3" width="1.24" height="0.25" fill="none" stroke="#111" stroke-width="1.6"/><rect x="6" y="41.78" width="1.24" height="0.25" fill="none" stroke="#111" stroke-width="1.6"/><rect x="6" y="44.26" width="1.24" height="0.24" fill="none" stroke="#111" stroke-width="1.6"/><rect x="6" y="46.73" width="1.24" height="0.25" fill="none" stroke="#111" stroke-width="1.6"/><rect x="6" y="49.21" width="1.24" height="0.25" fill="none" stroke="#111" stroke-width="1.6"/><rect x="6" y="51.69" width="1.24" height="0.24" fill="none" stroke="#111" stroke-width="1.6"/><rect x="6" y="54.16" width="1.24" height="0.25" fill="none" stroke="#111" stroke-width="1.6"/><rect x="6" y="56.64" width="1.24" height="0.25" fill="none" stroke="#111" stroke-width="1.6"/><rect x="9.71" y="7.11" width="1.24" height="0.25" fill="none" stroke="#111" stroke-width="1.6"/><rect x="9.71" y="9.59" width="1.24" height="0.25" fill="none" stroke="#111" stroke-width="1.6"/><rect x="9.71" y="12.07" width="1.24" height="0.24" fill="none" stroke="#111" stroke-width="1.6"/><rect x="9.71" y="14.54" width="1.24" height="0.25" fill="none" stroke="#111" stroke-width="1.6"/><rect x="9.71" y="17.02" width="1.24" height="0.25" fill="none" stroke="#111" stroke-width="1.6"/><rect x="9.71" y="19.5" width="1.24" height="0.24" fill="none" stroke="#111" stroke-width="1.6"/><rect x="9.71" y="21.97" width="1.24" height="0.25" fill="none" stroke="#111" stroke-width="1.6"/><rect x="9.71" y="24.45" width="1.24" height="0.25" fill="none" stroke="#111" stroke-width="1.6"/><rect x="9.71" y="26.92" width="1.24" height="0.25" fill="none" stroke="#111" stroke-width="1.6"/><rect x="9.71" y="29.4" width="1.24" height="0.25" fill="none" stroke="#111" stroke-width="1.6"/><rect x="9.71" y="31.88" width="1.24" height="0.24" fill="none" stroke="#111" stroke-width="1.6"/><rect x="9.71" y="34.35" width="1.24" height="0.25" fill="none" stroke="#111" stroke-width="1.6"/><rect x="9.71" y="36.83" width="1.24" height="0.25" fill="none" stroke="#111" stroke-width="1.6"/><rect x="9.71" y="39.3" width="1.24" height="0.25" fill="none" stroke="#111" stroke-width="1.6"/><rect x="9.71" y="41.78" width="1.24" height="0.25" fill="none" stroke="#111" stroke-width="1.6"/><rect x="9.71" y="44.26" width="1.24" height="0.24" fill="none" stroke="#111" stroke-width="1.6"/><rect x="9.71" y="46.73" width="1.24" height="0.25" fill="none" stroke="#111" stroke-width="1.6"/><rect x="9.71" y="49.21" width="1.24" height="0.25" fill="none" stroke="#111" stroke-width="1.6"/><rect x="9.71" y="51.69" width="1.24" height="0.24" fill="none" stroke="#111" stroke-width="1.6"/><rect x="9.71" y="54.16" width="1.24" height="0.25" fill="none" stroke="#111" stroke-width="1.6"/></svg>