<svg xmlns="http://www.w3.org/2000/svg" width="96" height="64" viewBox="0 0 96 64"><polyline points="8.17,6 8.17,58" fill="none" stroke="#111" stroke-width="1.6" stroke-linecap="round" stroke-linejoin="round"/><path d="M 14.67 25.5 Q 21.14 32 14.67 38.5" fill="none" stroke="#111" stroke-width="1.6" stroke-linecap="round"/><polyline points="14.67,25.5 8.17,25.5 8.17,38.5 14.67,38.5" fill="none" stroke="#111" stroke-width="1.6" stroke-linecap="round" stroke-linejoin="round"/><path d="M 8.17 25.5 Q 10.25 32 8.17 38.5" fill="none" stroke="#111" stroke-width="1.6" stroke-linecap="round"/><polyline points="8.17,6 8.17,25.5" fill="none" stroke="#111" stroke-width="1.6" stroke-linecap="round" stroke-linejoin="round"/><polyline points="8.17,25.5 13.58,25.5" fill="none" stroke="#111" stroke-width="1.6" stroke-linecap="round" stroke-linejoin="round"/><polyline points="8.17,38.5 8.17,58" fill="none" stroke="#111" stroke-width="1.6" stroke-linecap="round" stroke-linejoin="round"/><polyline points="8.17,38.5 13.58,38.5" fill="none" stroke="#111" stroke-width="1.6" stroke-linecap="round" stroke-linejoin="round"/><path d="M 21.17 32 Q 18.4 36.41 13.63 38.5" fill="none" stroke="#111" stroke-width="1.6" stroke-linecap="round"/><path d="M 13.63 25.5 Q 18.41 27.58 21.17 32" fill="none" stroke="#111" stroke-width="1.6" stroke-linecap="round"/><polyline points="13.58,25.5 8.17,25.5 8.17,25.5 8.6,26.19 9.51,28.14 10.07,30.22 10.2,32.43 9.94,34.56 9.25,36.64 8.17,38.5 8.17,38.5 13.58,38.5" fill="none" stroke="#111" stroke-width="1.6" stroke-linecap="round" stroke-linejoin="round"/><rect x="6" y="19" width="17.33" height="26" fill="none" stroke="#111" stroke-width="1.6"/></svg>