<svg xmlns="http://www.w3.org/2000/svg" width="96" height="64" viewBox="0 0 96 64"><rect x="6" y="6" width="3.47" height="52" fill="none" stroke="#111" stroke-width="1.6"/><polyline points="7.01,7.28 8.18,8.43" fill="none" stroke="#111" stroke-width="1.6" stroke-linecap="round" stroke-linejoin="round"/><polyline points="7.01,10.75 8.18,11.89" fill="none" stroke="#111" stroke-width="1.6" stroke-linecap="round" stroke-linejoin="round"/><polyline points="7.01,14.22 8.18,15.36" fill="none" stroke="#111" stroke-width="1.6" stroke-linecap="round" stroke-linejoin="round"/><polyline points="7.01,17.68 8.18,18.83" fill="none" stroke="#111" stroke-width="1.6" stroke-linecap="round" stroke-linejoin="round"/><polyline points="7.01,21.15 8.18,22.29" fill="none" stroke="#111" stroke-width="1.6" stroke-linecap="round" stroke-linejoin="round"/><polyline points="7.01,24.62 8.18,25.76" fill="none" stroke="#111" stroke-width="1.6" stroke-linecap="round" stroke-linejoin="round"/><polyline points="7.01,28.08 8.18,29.23" fill="none" stroke="#111" stroke-width="1.6" stroke-linecap="round" stroke-linejoin="round"/><polyline points="7.01,31.55 8.18,32.69" fill="none" stroke="#111" stroke-width="1.6" stroke-linecap="round" stroke-linejoin="round"/><polyline points="7.01,35.02 8.18,36.16" fill="none" stroke="#111" stroke-width="1.6" stroke-linecap="round" stroke-linejoin="round"/><polyline points="7.01,38.48 8.18,39.63" fill="none" stroke="#111" stroke-width="1.6" stroke-linecap="round" stroke-linejoin="round"/><polyline points="7.01,41.95 8.18,43.09" fill="none" stroke="#111" stroke-width="1.6" stroke-linecap="round" stroke-linejoin="round"/><polyline points="7.01,45.42 8.18,46.56" fill="none" stroke="#111" stroke-width="1.6" stroke-linecap="round" stroke-linejoin="round"/><polyline points="7.01,48.88 8.18,50.03" fill="none" stroke="#111" stroke-width="1.6" stroke-linecap="round" stroke-linejoin="round"/><polyline points="7.01,52.35 8.18,53.49" fill="none" stroke="#111" stroke-width="1.6" stroke-linecap="round" stroke-linejoin="round"/><polyline points="7.01,55.82 8.18,56.96" fill="none" stroke="#111" stroke-width="1.6" stroke-linecap="round" stroke-linejoin="round"/><polyline points="7.25,7.04 8.43,8.18" fill="none" stroke="#111" stroke-width="1.6" stroke-linecap="round" stroke-linejoin="round"/><polyline points="7.25,10.51 8.43,11.65" fill="none" stroke="#111" stroke-width="1.6" stroke-linecap="round" stroke-linejoin="round"/><polyline points="7.25,13.97 8.43,15.12" fill="none" stroke="#111" stroke-width="1.6" stroke-linecap="round" stroke-linejoin="round"/><polyline points="7.25,17.44 8.43,18.58" fill="none" stroke="#111" stroke-width="1.6" stroke-linecap="round" stroke-linejoin="round"/><polyline points="7.25,20.91 8.43,22.05" fill="none" stroke="#111" stroke-width="1.6" stroke-linecap="round" stroke-linejoin="round"/><polyline points="7.25,24.37 8.43,25.52" fill="none" stroke="#111" stroke-width="1.6" stroke-linecap="round" stroke-linejoin="round"/><polyline points="7.25,27.84 8.43,28.98" fill="none" stroke="#111" stroke-width="1.6" stroke-linecap="round" stroke-linejoin="round"/><polyline points="7.25,31.31 8.43,32.45" fill="none" stroke="#111" stroke-width="1.6" stroke-linecap="round" stroke-linejoin="round"/><polyline points="7.25,34.77 8.43,35.92" fill="none" stroke="#111" stroke-width="1.6" stroke-linecap="round" stroke-linejoin="round"/><polyline points="7.25,38.24 8.43,39.38" fill="none" stroke="#111" stroke-width="1.6" stroke-linecap="round" stroke-linejoin="round"/><polyline points="7.25,41.71 8.43,42.85" fill="none" stroke="#111" stroke-width="1.6" stroke-linecap="round" stroke-linejoin="round"/><polyline points="7.25,45.17 8.43,46.32" fill="none" stroke="#111" stroke-width="1.6" stroke-linecap="round" stroke-linejoin="round"/><polyline points="7.25,48.64 8.43,49.78" fill="none" stroke="#111" stroke-width="1.6" stroke-linecap="round" stroke-linejoin="round"/><polyline points="7.25,52.11 8.43,53.25" fill="none" stroke="#111" stroke-width="1.6" stroke-linecap="round" stroke-linejoin="round"/><polyline points="7.25,55.57 8.43,56.72" fill="none" stroke="#111" stroke-width="1.6" stroke-linecap="round" stroke-linejoin="round"/><circle cx="7.73" cy="7.73" r="0.87" fill="none" stroke="#111" stroke-width="1.6"/><circle cx="7.73" cy="11.2" r="0.87" fill="none" stroke="#111" stroke-width="1.6"/><circle cx="7.73" cy="14.67" r="0.87" fill="none" stroke="#111" stroke-width="1.6"/><circle cx="7.73" cy="18.13" r="0.87" fill="none" stroke="#111" stroke-width="1.6"/><circle cx="7.73" cy="21.6" r="0.87" fill="none" stroke="#111" stroke-width="1.6"/><circle cx="7.73" cy="25.07" r="0.87" fill="none" stroke="#111" stroke-width="1.6"/><circle cx="7.73" cy="28.53" r="0.87" fill="none" stroke="#111" stroke-width="1.6"/><circle cx="7.73" cy="32" r="0.87" fill="none" stroke="#111" stroke-width="1.6"/><circle cx="7.73" cy="35.47" r="0.87" fill="none" stroke="#111" stroke-width="1.6"/><circle cx="7.73" cy="38.93" r="0.87" fill="none" stroke="#111" stroke-width="1.6"/><circle cx="7.73" cy="42.4" r="0.87" fill="none" stroke="#111" stroke-width="1.6"/><circle cx="7.73" cy="45.87" r="0.87" fill="none" stroke="#111" stroke-width="1.6"/><circle cx="7.73" cy="49.33" r="0.87" fill="none" stroke="#111" stroke-width="1.6"/><circle cx="7.73" cy="52.8" r="0.87" fill="none" stroke="#111" stroke-width="1.6"/><circle cx="7.73" cy="56.27" r="0.87" fill="none" stroke="#111" stroke-width="1.6"/></svg>