<svg xmlns="http://www.w3.org/2000/svg" width="96" height="64" viewBox="0 0 96 64"><rect x="6" y="6" width="5.78" height="52" fill="none" stroke="#111" stroke-width="1.6"/><rect x="6" y="7.3" width="1.44" height="0.29" fill="none" stroke="#111" stroke-width="1.6"/><rect x="6" y="10.19" width="1.44" height="0.29" fill="none" stroke="#111" stroke-width="1.6"/><rect x="6" y="13.08" width="1.44" height="0.29" fill="none" stroke="#111" stroke-width="1.6"/><rect x="6" y="15.97" width="1.44" height="0.29" fill="none" stroke="#111" stroke-width="1.6"/><rect x="6" y="18.86" width="1.44" height="0.28" fill="none" stroke="#111" stroke-width="1.6"/><rect x="6" y="21.74" width="1.44" height="0.29" fill="none" stroke="#111" stroke-width="1.6"/><rect x="6" y="24.63" width="1.44" height="0.29" fill="none" stroke="#111" stroke-width="1.6"/><rect x="6" y="27.52" width="1.44" height="0.29" fill="none" stroke="#111" stroke-width="1.6"/><rect x="6" y="30.41" width="1.44" height="0.29" fill="none" stroke="#111" stroke-width="1.6"/><rect x="6" y="33.3" width="1.44" height="0.29" fill="none" stroke="#111" stroke-width="1.6"/><rect x="6" y="36.19" width="1.44" height="0.29" fill="none" stroke="#111" stroke-width="1.6"/><rect x="6" y="39.08" width="1.44" height="0.29" fill="none" stroke="#111" stroke-width="1.6"/><rect x="6" y="41.97" width="1.44" height="0.29" fill="none" stroke="#111" stroke-width="1.6"/><rect x="6" y="44.86" width="1.44" height="0.28" fill="none" stroke="#111" stroke-width="1.6"/><rect x="6" y="47.74" width="1.44" height="0.29" fill="none" stroke="#111" stroke-width="1.6"/><rect x="6" y="50.63" width="1.44" height="0.29" fill="none" stroke="#111" stroke-width="1.6"/><rect x="6" y="53.52" width="1.44" height="0.29" fill="none" stroke="#111" stroke-width="1.6"/><rect x="6" y="56.41" width="1.44" height="0.29" fill="none" stroke="#111" stroke-width="1.6"/><rect x="10.33" y="7.3" width="1.45" height="0.29" fill="none" stroke="#111" stroke-width="1.6"/><rect x="10.33" y="10.19" width="1.45" height="0.29" fill="none" stroke="#111" stroke-width="1.6"/><rect x="10.33" y="13.08" width="1.45" height="0.29" fill="none" stroke="#111" stroke-width="1.6"/><rect x="10.33" y="15.97" width="1.45" height="0.29" fill="none" stroke="#111" stroke-width="1.6"/><rect x="10.33" y="18.86" width="1.45" height="0.28" fill="none" stroke="#111" stroke-width="1.6"/><rect x="10.33" y="21.74" width="1.45" height="0.29" fill="none" stroke="#111" stroke-width="1.6"/><rect x="10.33" y="24.63" width="1.45" height="0.29" fill="none" stroke="#111" stroke-width="1.6"/><rect x="10.33" y="27.52" width="1.45" height="0.29" fill="none" stroke="#111" stroke-width="1.6"/><rect x="10.33" y="30.41" width="1.45" height="0.29" fill="none" stroke="#111" stroke-width="1.6"/><rect x="10.33" y="33.3" width="1.45" height="0.29" fill="none" stroke="#111" stroke-width="1.6"/><rect x="10.33" y="36.19" width="1.45" height="0.29" fill="none" stroke="#111" stroke-width="1.6"/><rect x="10.33" y="39.08" width="1.45" height="0.29" fill="none" stroke="#111" stroke-width="1.6"/><rect x="10.33" y="41.97" width="1.45" height="0.29" fill="none" stroke="#111" stroke-width="1.6"/><rect x="10.33" y="44.86" width="1.45" height="0.28" fill="none" stroke="#111" stroke-width="1.6"/><rect x="10.33" y="47.74" width="1.45" height="0.29" fill="none" stroke="#111" stroke-width="1.6"/><rect x="10.33" y="50.63" width="1.45" height="0.29" fill="none" stroke="#111" stroke-width="1.6"/><rect x="10.33" y="53.52" width="1.45" height="0.29" fill="none" stroke="#111" stroke-width="1.6"/><rect x="10.33" y="56.41" width="1.45" height="0.29" fill="none" stroke="#111" stroke-width="1.6"/></svg>