<svg xmlns="http://www.w3.org/2000/svg" width="96" height="64" viewBox="0 0 96 64"><path d="M 6.52 28.88 Q 8.07 30.44 6.52 32" fill="none" stroke="#111" stroke-width="1.6" stroke-linecap="round"/><path d="M 6.52 32 Q 8.07 33.56 6.52 35.12" fill="none" stroke="#111" stroke-width="1.6" stroke-linecap="round"/><path d="M 6.52 35.12 Q 8.07 36.68 6.52 38.24" fill="none" stroke="#111" stroke-width="1.6" stroke-linecap="round"/><polyline points="6.52,21.6 6.52,25.76" fill="none" stroke="#111" stroke-width="1.6" stroke-linecap="round" stroke-linejoin="round"/><circle cx="6.52" cy="27.32" r="0.52" fill="none" stroke="#111" stroke-width="1.6"/><polyline points="6.52,38.24 6.52,42.4" fill="none" stroke="#111" stroke-width="1.6" stroke-linecap="round" stroke-linejoin="round"/><polyline points="10.42,9.9 10.42,54.1" fill="none" stroke="#111" stroke-width="1.6" stroke-linecap="round" stroke-linejoin="round"/><polyline points="13.02,9.9 13.02,54.1" fill="none" stroke="#111" stroke-width="1.6" stroke-linecap="round" stroke-linejoin="round"/><polyline points="16.92,6 16.92,10.16" fill="none" stroke="#111" stroke-width="1.6" stroke-linecap="round" stroke-linejoin="round"/><circle cx="16.92" cy="11.72" r="0.52" fill="none" stroke="#111" stroke-width="1.6"/><polyline points="16.92,22.64 16.92,26.8" fill="none" stroke="#111" stroke-width="1.6" stroke-linecap="round" stroke-linejoin="round"/><polyline points="16.92,37.2 16.92,41.36" fill="none" stroke="#111" stroke-width="1.6" stroke-linecap="round" stroke-linejoin="round"/><circle cx="16.92" cy="42.92" r="0.52" fill="none" stroke="#111" stroke-width="1.6"/><polyline points="16.92,53.84 16.92,58" fill="none" stroke="#111" stroke-width="1.6" stroke-linecap="round" stroke-linejoin="round"/><path d="M 16.92 13.28 Q 15.37 11.72 16.92 10.16" fill="none" stroke="#111" stroke-width="1.6" stroke-linecap="round"/><path d="M 16.92 16.4 Q 15.37 14.84 16.92 13.28" fill="none" stroke="#111" stroke-width="1.6" stroke-linecap="round"/><path d="M 16.92 19.52 Q 15.37 17.96 16.92 16.4" fill="none" stroke="#111" stroke-width="1.6" stroke-linecap="round"/><path d="M 16.92 22.64 Q 15.37 21.08 16.92 19.52" fill="none" stroke="#111" stroke-width="1.6" stroke-linecap="round"/><path d="M 16.92 44.48 Q 15.37 42.92 16.92 41.36" fill="none" stroke="#111" stroke-width="1.6" stroke-linecap="round"/><path d="M 16.92 47.6 Q 15.37 46.04 16.92 44.48" fill="none" stroke="#111" stroke-width="1.6" stroke-linecap="round"/><path d="M 16.92 50.72 Q 15.37 49.16 16.92 47.6" fill="none" stroke="#111" stroke-width="1.6" stroke-linecap="round"/><path d="M 16.92 53.84 Q 15.37 52.28 16.92 50.72" fill="none" stroke="#111" stroke-width="1.6" stroke-linecap="round"/><path d="M 6.52 25.76 Q 8.07 27.32 6.52 28.88" fill="none" stroke="#111" stroke-width="1.6" stroke-linecap="round"/></svg>