<svg xmlns="http://www.w3.org/2000/svg" width="96" height="64" viewBox="0 0 96 64"><polyline points="6,6.18 6.28,6.18" fill="none" stroke="#111" stroke-width="1.6" stroke-linecap="round" stroke-linejoin="round"/><polyline points="6,7.11 6.28,7.11" fill="none" stroke="#111" stroke-width="1.6" stroke-linecap="round" stroke-linejoin="round"/><polyline points="6,8.03 6.28,8.03" fill="none" stroke="#111" stroke-width="1.6" stroke-linecap="round" stroke-linejoin="round"/><polyline points="6,8.95 6.28,8.95" fill="none" stroke="#111" stroke-width="1.6" stroke-linecap="round" stroke-linejoin="round"/><polyline points="6,9.87 6.28,9.87" fill="none" stroke="#111" stroke-width="1.6" stroke-linecap="round" stroke-linejoin="round"/><polyline points="6,10.79 6.28,10.79" fill="none" stroke="#111" stroke-width="1.6" stroke-linecap="round" stroke-linejoin="round"/><polyline points="6,11.72 6.28,11.72" fill="none" stroke="#111" stroke-width="1.6" stroke-linecap="round" stroke-linejoin="round"/><polyline points="6,12.64 6.28,12.64" fill="none" stroke="#111" stroke-width="1.6" stroke-linecap="round" stroke-linejoin="round"/><polyline points="6,13.56 6.28,13.56" fill="none" stroke="#111" stroke-width="1.6" stroke-linecap="round" stroke-linejoin="round"/><polyline points="6,14.48 6.28,14.48" fill="none" stroke="#111" stroke-width="1.6" stroke-linecap="round" stroke-linejoin="round"/><polyline points="6,15.4 6.28,15.4" fill="none" stroke="#111" stroke-width="1.6" stroke-linecap="round" stroke-linejoin="round"/><polyline points="6,16.33 6.28,16.33" fill="none" stroke="#111" stroke-width="1.6" stroke-linecap="round" stroke-linejoin="round"/><polyline points="6,17.25 6.28,17.25" fill="none" stroke="#111" stroke-width="1.6" stroke-linecap="round" stroke-linejoin="round"/><polyline points="6,18.17 6.28,18.17" fill="none" stroke="#111" stroke-width="1.6" stroke-linecap="round" stroke-linejoin="round"/><polyline points="6,19.09 6.28,19.09" fill="none" stroke="#111" stroke-width="1.6" stroke-linecap="round" stroke-linejoin="round"/><polyline points="6,20.01 6.28,20.01" fill="none" stroke="#111" stroke-width="1.6" stroke-linecap="round" stroke-linejoin="round"/><polyline points="6,20.94 6.28,20.94" fill="none" stroke="#111" stroke-width="1.6" stroke-linecap="round" stroke-linejoin="round"/><polyline points="6,21.86 6.28,21.86" fill="none" stroke="#111" stroke-width="1.6" stroke-linecap="round" stroke-linejoin="round"/><polyline points="6,22.78 6.28,22.78" fill="none" stroke="#111" stroke-width="1.6" stroke-linecap="round" stroke-linejoin="round"/><polyline points="6,23.7 6.28,23.7" fill="none" stroke="#111" stroke-width="1.6" stroke-linecap="round" stroke-linejoin="round"/><polyline points="6,24.62 6.28,24.62" fill="none" stroke="#111" stroke-width="1.6" stroke-linecap="round" stroke-linejoin="round"/><polyline points="6,25.55 6.28,25.55" fill="none" stroke="#111" stroke-width="1.6" stroke-linecap="round" stroke-linejoin="round"/><polyline points="6,26.47 6.28,26.47" fill="none" stroke="#111" stroke-width="1.6" stroke-linecap="round" stroke-linejoin="round"/><polyline points="6,27.39 6.28,27.39" fill="none" stroke="#111" stroke-width="1.6" stroke-linecap="round" stroke-linejoin="round"/><polyline points="6,28.31 6.28,28.31" fill="none" stroke="#111" stroke-width="1.6" stroke-linecap="round" stroke-linejoin="round"/><polyline points="6,29.23 6.28,29.23" fill="none" stroke="#111" stroke-width="1.6" stroke-linecap="round" stroke-linejoin="round"/><polyline points="6,30.16 6.28,30.16" fill="none" stroke="#111" stroke-width="1.6" stroke-linecap="round" stroke-linejoin="round"/><polyline points="6,31.08 6.28,31.08" fill="none" stroke="#111" stroke-width="1.6" stroke-linecap="round" stroke-linejoin="round"/><polyline points="6,32 6.28,32" fill="none" stroke="#111" stroke-width="1.6" stroke-linecap="round" stroke-linejoin="round"/><polyline points="6,32.92 6.28,32.92" fill="none" stroke="#111" stroke-width="1.6" stroke-linecap="round" stroke-linejoin="round"/><polyline points="6,33.84 6.28,33.84" fill="none" stroke="#111" stroke-width="1.6" stroke-linecap="round" stroke-linejoin="round"/><polyline points="6,34.77 6.28,34.77" fill="none" stroke="#111" stroke-width="1.6" stroke-linecap="round" stroke-linejoin="round"/><polyline points="6,35.69 6.28,35.69" fill="none" stroke="#111" stroke-width="1.6" stroke-linecap="round" stroke-linejoin="round"/><polyline points="6,36.61 6.28,36.61" fill="none" stroke="#111" stroke-width="1.6" stroke-linecap="round" stroke-linejoin="round"/><polyline points="6,37.53 6.28,37.53" fill="none" stroke="#111" stroke-width="1.6" stroke-linecap="round" stroke-linejoin="round"/><polyline points="6,38.45 6.28,38.45" fill="none" stroke="#111" stroke-width="1.6" stroke-linecap="round" stroke-linejoin="round"/><polyline points="6,39.38 6.28,39.38" fill="none" stroke="#111" stroke-width="1.6" stroke-linecap="round" stroke-linejoin="round"/><polyline points="6,40.3 6.28,40.3" fill="none" stroke="#111" stroke-width="1.6" stroke-linecap="round" stroke-linejoin="round"/><polyline points="6,41.22 6.28,41.22" fill="none" stroke="#111" stroke-width="1.6" stroke-linecap="round" stroke-linejoin="round"/><polyline points="6,42.14 6.28,42.14" fill="none" stroke="#111" stroke-width="1.6" stroke-linecap="round" stroke-linejoin="round"/><polyline points="6,43.06 6.28,43.06" fill="none" stroke="#111" stroke-width="1.6" stroke-linecap="round" stroke-linejoin="round"/><polyline points="6,43.99 6.28,43.99" fill="none" stroke="#111" stroke-width="1.6" stroke-linecap="round" stroke-linejoin="round"/><polyline points="6,44.91 6.28,44.91" fill="none" stroke="#111" stroke-width="1.6" stroke-linecap="round" stroke-linejoin="round"/><polyline points="6,45.83 6.28,45.83" fill="none" stroke="#111" stroke-width="1.6" stroke-linecap="round" stroke-linejoin="round"/><polyline points="6,46.75 6.28,46.75" fill="none" stroke="#111" stroke-width="1.6" stroke-linecap="round" stroke-linejoin="round"/><polyline points="6,47.67 6.28,47.67" fill="none" stroke="#111" stroke-width="1.6" stroke-linecap="round" stroke-linejoin="round"/><polyline points="6,48.6 6.28,48.6" fill="none" stroke="#111" stroke-width="1.6" stroke-linecap="round" stroke-linejoin="round"/><polyline points="6,49.52 6.28,49.52" fill="none" stroke="#111" stroke-width="1.6" stroke-linecap="round" stroke-linejoin="round"/><polyline points="6,50.44 6.28,50.44" fill="none" stroke="#111" stroke-width="1.6" stroke-linecap="round" stroke-linejoin="round"/><polyline points="6,51.36 6.28,51.36" fill="none" stroke="#111" stroke-width="1.6" stroke-linecap="round" stroke-linejoin="round"/><polyline points="6,52.28 6.28,52.28" fill="none" stroke="#111" stroke-width="1.6" stroke-linecap="round" stroke-linejoin="round"/><polyline points="6,53.21 6.28,53.21" fill="none" stroke="#111" stroke-width="1.6" stroke-linecap="round" stroke-linejoin="round"/><polyline points="6,54.13 6.28,54.13" fill="none" stroke="#111" stroke-width="1.6" stroke-linecap="round" stroke-linejoin="round"/><polyline points="6,55.05 6.28,55.05" fill="none" stroke="#111" stroke-width="1.6" stroke-linecap="round" stroke-linejoin="round"/><polyline points="6,55.97 6.28,55.97" fill="none" stroke="#111" stroke-width="1.6" stroke-linecap="round" stroke-linejoin="round"/><polyline points="6,56.89 6.28,56.89" fill="none" stroke="#111" stroke-width="1.6" stroke-linecap="round" stroke-linejoin="round"/><polyline points="6,57.82 6.28,57.82" fill="none" stroke="#111" stroke-width="1.6" stroke-linecap="round" stroke-linejoin="round"/><path d="M 6.46 6.37 Q 6.28 6.18 6.46 6" fill="none" stroke="#111" stroke-width="1.6" stroke-linecap="round"/><path d="M 6.46 7.29 Q 6.28 7.11 6.46 6.92" fill="none" stroke="#111" stroke-width="1.6" stroke-linecap="round"/><path d="M 6.46 8.21 Q 6.28 8.03 6.46 7.84" fill="none" stroke="#111" stroke-width="1.6" stroke-linecap="round"/><path d="M 6.46 9.13 Q 6.28 8.95 6.46 8.77" fill="none" stroke="#111" stroke-width="1.6" stroke-linecap="round"/><path d="M 6.46 10.06 Q 6.28 9.87 6.46 9.69" fill="none" stroke="#111" stroke-width="1.6" stroke-linecap="round"/><path d="M 6.46 10.98 Q 6.28 10.79 6.46 10.61" fill="none" stroke="#111" stroke-width="1.6" stroke-linecap="round"/><path d="M 6.46 11.9 Q 6.28 11.72 6.46 11.53" fill="none" stroke="#111" stroke-width="1.6" stroke-linecap="round"/><path d="M 6.46 12.82 Q 6.28 12.64 6.46 12.45" fill="none" stroke="#111" stroke-width="1.6" stroke-linecap="round"/><path d="M 6.46 13.74 Q 6.28 13.56 6.46 13.38" fill="none" stroke="#111" stroke-width="1.6" stroke-linecap="round"/><path d="M 6.46 14.67 Q 6.28 14.48 6.46 14.3" fill="none" stroke="#111" stroke-width="1.6" stroke-linecap="round"/><path d="M 6.46 15.59 Q 6.28 15.4 6.46 15.22" fill="none" stroke="#111" stroke-width="1.6" stroke-linecap="round"/><path d="M 6.46 16.51 Q 6.28 16.33 6.46 16.14" fill="none" stroke="#111" stroke-width="1.6" stroke-linecap="round"/><path d="M 6.46 17.43 Q 6.28 17.25 6.46 17.06" fill="none" stroke="#111" stroke-width="1.6" stroke-linecap="round"/><path d="M 6.46 18.35 Q 6.28 18.17 6.46 17.99" fill="none" stroke="#111" stroke-width="1.6" stroke-linecap="round"/><path d="M 6.46 19.28 Q 6.28 19.09 6.46 18.91" fill="none" stroke="#111" stroke-width="1.6" stroke-linecap="round"/><path d="M 6.46 20.2 Q 6.28 20.01 6.46 19.83" fill="none" stroke="#111" stroke-width="1.6" stroke-linecap="round"/><path d="M 6.46 21.12 Q 6.28 20.94 6.46 20.75" fill="none" stroke="#111" stroke-width="1.6" stroke-linecap="round"/><path d="M 6.46 22.04 Q 6.28 21.86 6.46 21.67" fill="none" stroke="#111" stroke-width="1.6" stroke-linecap="round"/><path d="M 6.46 22.96 Q 6.28 22.78 6.46 22.6" fill="none" stroke="#111" stroke-width="1.6" stroke-linecap="round"/><path d="M 6.46 23.89 Q 6.28 23.7 6.46 23.52" fill="none" stroke="#111" stroke-width="1.6" stroke-linecap="round"/><path d="M 6.46 24.81 Q 6.28 24.62 6.46 24.44" fill="none" stroke="#111" stroke-width="1.6" stroke-linecap="round"/><path d="M 6.46 25.73 Q 6.28 25.55 6.46 25.36" fill="none" stroke="#111" stroke-width="1.6" stroke-linecap="round"/><path d="M 6.46 26.65 Q 6.28 26.47 6.46 26.28" fill="none" stroke="#111" stroke-width="1.6" stroke-linecap="round"/><path d="M 6.46 27.57 Q 6.28 27.39 6.46 27.21" fill="none" stroke="#111" stroke-width="1.6" stroke-linecap="round"/><path d="M 6.46 28.5 Q 6.28 28.31 6.46 28.13" fill="none" stroke="#111" stroke-width="1.6" stroke-linecap="round"/><path d="M 6.46 29.42 Q 6.28 29.23 6.46 29.05" fill="none" stroke="#111" stroke-width="1.6" stroke-linecap="round"/><path d="M 6.46 30.34 Q 6.28 30.16 6.46 29.97" fill="none" stroke="#111" stroke-width="1.6" stroke-linecap="round"/><path d="M 6.46 31.26 Q 6.28 31.08 6.46 30.89" fill="none" stroke="#111" stroke-width="1.6" stroke-linecap="round"/><path d="M 6.46 32.18 Q 6.28 32 6.46 31.82" fill="none" stroke="#111" stroke-width="1.6" stroke-linecap="round"/><path d="M 6.46 33.11 Q 6.28 32.92 6.46 32.74" fill="none" stroke="#111" stroke-width="1.6" stroke-linecap="round"/><path d="M 6.46 34.03 Q 6.28 33.84 6.46 33.66" fill="none" stroke="#111" stroke-width="1.6" stroke-linecap="round"/><path d="M 6.46 34.95 Q 6.28 34.77 6.46 34.58" fill="none" stroke="#111" stroke-width="1.6" stroke-linecap="round"/><path d="M 6.46 35.87 Q 6.28 35.69 6.46 35.5" fill="none" stroke="#111" stroke-width="1.6" stroke-linecap="round"/><path d="M 6.46 36.79 Q 6.28 36.61 6.46 36.43" fill="none" stroke="#111" stroke-width="1.6" stroke-linecap="round"/><path d="M 6.46 37.72 Q 6.28 37.53 6.46 37.35" fill="none" stroke="#111" stroke-width="1.6" stroke-linecap="round"/><path d="M 6.46 38.64 Q 6.28 38.45 6.46 38.27" fill="none" stroke="#111" stroke-width="1.6" stroke-linecap="round"/><path d="M 6.46 39.56 Q 6.28 39.38 6.46 39.19" fill="none" stroke="#111" stroke-width="1.6" stroke-linecap="round"/><path d="M 6.46 40.48 Q 6.28 40.3 6.46 40.11" fill="none" stroke="#111" stroke-width="1.6" stroke-linecap="round"/><path d="M 6.46 41.4 Q 6.28 41.22 6.46 41.04" fill="none" stroke="#111" stroke-width="1.6" stroke-linecap="round"/><path d="M 6.46 42.33 Q 6.28 42.14 6.46 41.96" fill="none" stroke="#111" stroke-width="1.6" stroke-linecap="round"/><path d="M 6.46 43.25 Q 6.28 43.06 6.46 42.88" fill="none" stroke="#111" stroke-width="1.6" stroke-linecap="round"/><path d="M 6.46 44.17 Q 6.28 43.99 6.46 43.8" fill="none" stroke="#111" stroke-width="1.6" stroke-linecap="round"/><path d="M 6.46 45.09 Q 6.28 44.91 6.46 44.72" fill="none" stroke="#111" stroke-width="1.6" stroke-linecap="round"/><path d="M 6.46 46.01 Q 6.28 45.83 6.46 45.65" fill="none" stroke="#111" stroke-width="1.6" stroke-linecap="round"/><path d="M 6.46 46.94 Q 6.28 46.75 6.46 46.57" fill="none" stroke="#111" stroke-width="1.6" stroke-linecap="round"/><path d="M 6.46 47.86 Q 6.28 47.67 6.46 47.49" fill="none" stroke="#111" stroke-width="1.6" stroke-linecap="round"/><path d="M 6.46 48.78 Q 6.28 48.6 6.46 48.41" fill="none" stroke="#111" stroke-width="1.6" stroke-linecap="round"/><path d="M 6.46 49.7 Q 6.28 49.52 6.46 49.33" fill="none" stroke="#111" stroke-width="1.6" stroke-linecap="round"/><path d="M 6.46 50.62 Q 6.28 50.44 6.46 50.26" fill="none" stroke="#111" stroke-width="1.6" stroke-linecap="round"/><path d="M 6.46 51.55 Q 6.28 51.36 6.46 51.18" fill="none" stroke="#111" stroke-width="1.6" stroke-linecap="round"/><path d="M 6.46 52.47 Q 6.28 52.28 6.46 52.1" fill="none" stroke="#111" stroke-width="1.6" stroke-linecap="round"/><path d="M 6.46 53.39 Q 6.28 53.21 6.46 53.02" fill="none" stroke="#111" stroke-width="1.6" stroke-linecap="round"/><path d="M 6.46 54.31 Q 6.28 54.13 6.46 53.94" fill="none" stroke="#111" stroke-width="1.6" stroke-linecap="round"/><path d="M 6.46 55.23 Q 6.28 55.05 6.46 54.87" fill="none" stroke="#111" stroke-width="1.6" stroke-linecap="round"/><path d="M 6.46 56.16 Q 6.28 55.97 6.46 55.79" fill="none" stroke="#111" stroke-width="1.6" stroke-linecap="round"/><path d="M 6.46 57.08 Q 6.28 56.89 6.46 56.71" fill="none" stroke="#111" stroke-width="1.6" stroke-linecap="round"/><path d="M 6.46 58 Q 6.28 57.82 6.46 57.63" fill="none" stroke="#111" stroke-width="1.6" stroke-linecap="round"/></svg>