<svg xmlns="http://www.w3.org/2000/svg" width="96" height="64" viewBox="0 0 96 64"><rect x="6" y="6" width="84" height="42" fill="none" stroke="#111" stroke-width="1.6"/><rect x="9.15" y="13.04" width="4.2" height="10.5" fill="none" stroke="#111" stroke-width="1.6"/><polyline points="11.25,6 11.25,13.04" fill="none" stroke="#111" stroke-width="1.6" stroke-linecap="round" stroke-linejoin="round"/><circle cx="11.25" cy="9.57" r="1.05" fill="none" stroke="#111" stroke-width="1.6"/><polyline points="11.25,9.57 32.25,9.57 32.25,13.04" fill="none" stroke="#111" stroke-width="1.6" stroke-linecap="round" stroke-linejoin="round"/><circle cx="11.25" cy="27" r="1.05" fill="none" stroke="#111" stroke-width="1.6"/><polyline points="11.25,27 17.55,27 17.55,30.46" fill="none" stroke="#111" stroke-width="1.6" stroke-linecap="round" stroke-linejoin="round"/><polyline points="11.25,48 11.25,23.54" fill="none" stroke="#111" stroke-width="1.6" stroke-linecap="round" stroke-linejoin="round"/><rect x="15.45" y="30.46" width="4.2" height="10.5" fill="none" stroke="#111" stroke-width="1.6"/><polyline points="17.55,40.96 17.55,44.43 84.75,44.43" fill="none" stroke="#111" stroke-width="1.6" stroke-linecap="round" stroke-linejoin="round"/><rect x="30.15" y="13.04" width="4.2" height="10.5" fill="none" stroke="#111" stroke-width="1.6"/><circle cx="32.25" cy="9.57" r="1.05" fill="none" stroke="#111" stroke-width="1.6"/><polyline points="32.25,9.57 53.25,9.57 53.25,13.04" fill="none" stroke="#111" stroke-width="1.6" stroke-linecap="round" stroke-linejoin="round"/><circle cx="32.25" cy="27" r="1.05" fill="none" stroke="#111" stroke-width="1.6"/><polyline points="32.25,27 38.55,27 38.55,30.46" fill="none" stroke="#111" stroke-width="1.6" stroke-linecap="round" stroke-linejoin="round"/><polyline points="32.25,48 32.25,23.54" fill="none" stroke="#111" stroke-width="1.6" stroke-linecap="round" stroke-linejoin="round"/><rect x="36.45" y="30.46" width="4.2" height="10.5" fill="none" stroke="#111" stroke-width="1.6"/><polyline points="38.55,40.96 38.55,44.43 84.75,44.43" fill="none" stroke="#111" stroke-width="1.6" stroke-linecap="round" stroke-linejoin="round"/><circle cx="38.55" cy="44.43" r="1.05" fill="none" stroke="#111" stroke-width="1.6"/><rect x="51.15" y="13.04" width="4.2" height="10.5" fill="none" stroke="#111" stroke-width="1.6"/><circle cx="53.25" cy="9.57" r="1.05" fill="none" stroke="#111" stroke-width="1.6"/><polyline points="53.25,9.57 74.25,9.57 74.25,13.04" fill="none" stroke="#111" stroke-width="1.6" stroke-linecap="round" stroke-linejoin="round"/><polyline points="53.25,27 59.55,27 59.55,30.46" fill="none" stroke="#111" stroke-width="1.6" stroke-linecap="round" stroke-linejoin="round"/><circle cx="53.25" cy="27" r="1.05" fill="none" stroke="#111" stroke-width="1.6"/><polyline points="53.25,48 53.25,23.54" fill="none" stroke="#111" stroke-width="1.6" stroke-linecap="round" stroke-linejoin="round"/><rect x="57.45" y="30.46" width="4.2" height="10.5" fill="none" stroke="#111" stroke-width="1.6"/><polyline points="59.55,40.96 59.55,44.43 84.75,44.43" fill="none" stroke="#111" stroke-width="1.6" stroke-linecap="round" stroke-linejoin="round"/><circle cx="59.55" cy="44.43" r="1.05" fill="none" stroke="#111" stroke-width="1.6"/><rect x="72.15" y="13.04" width="4.2" height="10.5" fill="none" stroke="#111" stroke-width="1.6"/><polyline points="74.25,27 80.55,27 80.55,30.46" fill="none" stroke="#111" stroke-width="1.6" stroke-linecap="round" stroke-linejoin="round"/><circle cx="74.25" cy="27" r="1.05" fill="none" stroke="#111" stroke-width="1.6"/><polyline points="74.25,48 74.25,23.54" fill="none" stroke="#111" stroke-width="1.6" stroke-linecap="round" stroke-linejoin="round"/><rect x="78.45" y="30.46" width="4.2" height="10.5" fill="none" stroke="#111" stroke-width="1.6"/><polyline points="80.55,40.96 80.55,44.43 84.75,44.43" fill="none" stroke="#111" stroke-width="1.6" stroke-linecap="round" stroke-linejoin="round"/><circle cx="80.55" cy="44.43" r="1.05" fill="none" stroke="#111" stroke-width="1.6"/><polyline points="84.75,44.43 84.75,6" fill="none" stroke="#111" stroke-width="1.6" stroke-linecap="round" stroke-linejoin="round"/></svg>