<svg xmlns="http://www.w3.org/2000/svg" width="96" height="64" viewBox="0 0 96 64"><rect x="6" y="6" width="52" height="52" fill="none" stroke="#111" stroke-width="1.6"/><polyline points="6,11.2 45,11.2" fill="none" stroke="#111" stroke-width="1.6" stroke-linecap="round" stroke-linejoin="round"/><polyline points="6,16.4 45,16.4" fill="none" stroke="#111" stroke-width="1.6" stroke-linecap="round" stroke-linejoin="round"/><polyline points="6,26.8 45,26.8" fill="none" stroke="#111" stroke-width="1.6" stroke-linecap="round" stroke-linejoin="round"/><polyline points="6,32 45,32" fill="none" stroke="#111" stroke-width="1.6" stroke-linecap="round" stroke-linejoin="round"/><polyline points="7.3,8.6 9.9,8.6" fill="none" stroke="#111" stroke-width="1.6" stroke-linecap="round" stroke-linejoin="round"/><polyline points="7.3,13.8 9.9,13.8" fill="none" stroke="#111" stroke-width="1.6" stroke-linecap="round" stroke-linejoin="round"/><polyline points="7.3,24.2 9.9,24.2" fill="none" stroke="#111" stroke-width="1.6" stroke-linecap="round" stroke-linejoin="round"/><polyline points="7.3,29.4 9.9,29.4" fill="none" stroke="#111" stroke-width="1.6" stroke-linecap="round" stroke-linejoin="round"/><polyline points="8.6,7.3 8.6,9.9" fill="none" stroke="#111" stroke-width="1.6" stroke-linecap="round" stroke-linejoin="round"/><polyline points="8.6,22.9 8.6,25.5" fill="none" stroke="#111" stroke-width="1.6" stroke-linecap="round" stroke-linejoin="round"/><polyline points="16.4,34.6 16.4,16.4" fill="none" stroke="#111" stroke-width="1.6" stroke-linecap="round" stroke-linejoin="round"/><polyline points="16.4,47.6 24.2,47.6" fill="none" stroke="#111" stroke-width="1.6" stroke-linecap="round" stroke-linejoin="round"/><polyline points="24.2,11.2 24.2,32 24.2,37.2" fill="none" stroke="#111" stroke-width="1.6" stroke-linecap="round" stroke-linejoin="round"/><polyline points="24.2,47.6 32,47.6" fill="none" stroke="#111" stroke-width="1.6" stroke-linecap="round" stroke-linejoin="round"/><polyline points="32,34.6 32,32" fill="none" stroke="#111" stroke-width="1.6" stroke-linecap="round" stroke-linejoin="round"/><polyline points="32,47.6 32,58" fill="none" stroke="#111" stroke-width="1.6" stroke-linecap="round" stroke-linejoin="round"/><polyline points="32,47.6 39.8,47.6" fill="none" stroke="#111" stroke-width="1.6" stroke-linecap="round" stroke-linejoin="round"/><polyline points="39.8,26.8 39.8,32 39.8,37.2" fill="none" stroke="#111" stroke-width="1.6" stroke-linecap="round" stroke-linejoin="round"/><path d="M 47.6 11.2 Q 46.3 12.49 45 11.2" fill="none" stroke="#111" stroke-width="1.6" stroke-linecap="round"/><path d="M 47.6 26.8 Q 46.3 28.09 45 26.8" fill="none" stroke="#111" stroke-width="1.6" stroke-linecap="round"/><path d="M 50.2 11.2 Q 48.9 12.49 47.6 11.2" fill="none" stroke="#111" stroke-width="1.6" stroke-linecap="round"/><path d="M 50.2 26.8 Q 48.9 28.09 47.6 26.8" fill="none" stroke="#111" stroke-width="1.6" stroke-linecap="round"/><path d="M 52.8 11.2 Q 51.5 12.49 50.2 11.2" fill="none" stroke="#111" stroke-width="1.6" stroke-linecap="round"/><path d="M 52.8 26.8 Q 51.5 28.09 50.2 26.8" fill="none" stroke="#111" stroke-width="1.6" stroke-linecap="round"/><path d="M 55.4 11.2 Q 54.1 12.49 52.8 11.2" fill="none" stroke="#111" stroke-width="1.6" stroke-linecap="round"/><path d="M 55.4 26.8 Q 54.1 28.09 52.8 26.8" fill="none" stroke="#111" stroke-width="1.6" stroke-linecap="round"/><polyline points="55.4,11.2 58,11.2" fill="none" stroke="#111" stroke-width="1.6" stroke-linecap="round" stroke-linejoin="round"/><polyline points="55.4,16.4 58,16.4" fill="none" stroke="#111" stroke-width="1.6" stroke-linecap="round" stroke-linejoin="round"/><polyline points="55.4,26.8 58,26.8" fill="none" stroke="#111" stroke-width="1.6" stroke-linecap="round" stroke-linejoin="round"/><polyline points="55.4,32 58,32" fill="none" stroke="#111" stroke-width="1.6" stroke-linecap="round" stroke-linejoin="round"/><polyline points="13.8,42.4 19,42.4 16.4,37.2 13.8,42.4" fill="none" stroke="#111" stroke-width="1.6" stroke-linecap="round" stroke-linejoin="round"/><circle cx="16.4" cy="16.4" r="0.52" fill="none" stroke="#111" stroke-width="1.6"/><polyline points="16.4,37.2 16.4,32" fill="none" stroke="#111" stroke-width="1.6" stroke-linecap="round" stroke-linejoin="round"/><polyline points="16.4,47.6 16.4,37.2" fill="none" stroke="#111" stroke-width="1.6" stroke-linecap="round" stroke-linejoin="round"/><polyline points="19,38.24 17.96,37.2 14.84,37.2 13.8,36.16" fill="none" stroke="#111" stroke-width="1.6" stroke-linecap="round" stroke-linejoin="round"/><polyline points="21.6,42.4 26.8,42.4 24.2,37.2 21.6,42.4" fill="none" stroke="#111" stroke-width="1.6" stroke-linecap="round" stroke-linejoin="round"/><circle cx="24.2" cy="11.2" r="0.52" fill="none" stroke="#111" stroke-width="1.6"/><circle cx="24.2" cy="47.6" r="0.52" fill="none" stroke="#111" stroke-width="1.6"/><polyline points="24.2,47.6 24.2,37.2" fill="none" stroke="#111" stroke-width="1.6" stroke-linecap="round" stroke-linejoin="round"/><polyline points="26.8,38.24 25.76,37.2 22.64,37.2 21.6,36.16" fill="none" stroke="#111" stroke-width="1.6" stroke-linecap="round" stroke-linejoin="round"/><polyline points="29.4,42.4 34.6,42.4 32,37.2 29.4,42.4" fill="none" stroke="#111" stroke-width="1.6" stroke-linecap="round" stroke-linejoin="round"/><circle cx="32" cy="32" r="0.52" fill="none" stroke="#111" stroke-width="1.6"/><polyline points="32,37.2 32,32" fill="none" stroke="#111" stroke-width="1.6" stroke-linecap="round" stroke-linejoin="round"/><polyline points="32,47.6 32,37.2" fill="none" stroke="#111" stroke-width="1.6" stroke-linecap="round" stroke-linejoin="round"/><circle cx="32" cy="47.6" r="0.52" fill="none" stroke="#111" stroke-width="1.6"/><polyline points="34.6,38.24 33.56,37.2 30.44,37.2 29.4,36.16" fill="none" stroke="#111" stroke-width="1.6" stroke-linecap="round" stroke-linejoin="round"/><polyline points="37.2,42.4 42.4,42.4 39.8,37.2 37.2,42.4" fill="none" stroke="#111" stroke-width="1.6" stroke-linecap="round" stroke-linejoin="round"/><circle cx="39.8" cy="26.8" r="0.52" fill="none" stroke="#111" stroke-width="1.6"/><polyline points="39.8,47.6 39.8,37.2" fill="none" stroke="#111" stroke-width="1.6" stroke-linecap="round" stroke-linejoin="round"/><circle cx="39.8" cy="47.6" r="0.52" fill="none" stroke="#111" stroke-width="1.6"/><polyline points="42.4,38.24 41.36,37.2 38.24,37.2 37.2,36.16" fill="none" stroke="#111" stroke-width="1.6" stroke-linecap="round" stroke-linejoin="round"/><circle cx="44.17" cy="12.14" r="0.52" fill="none" stroke="#111" stroke-width="1.6"/><circle cx="44.17" cy="15.36" r="0.52" fill="none" stroke="#111" stroke-width="1.6"/><circle cx="44.17" cy="27.74" r="0.52" fill="none" stroke="#111" stroke-width="1.6"/><circle cx="44.17" cy="30.96" r="0.52" fill="none" stroke="#111" stroke-width="1.6"/><path d="M 45 16.4 Q 46.3 15.11 47.6 16.4" fill="none" stroke="#111" stroke-width="1.6" stroke-linecap="round"/><path d="M 45 32 Q 46.3 30.71 47.6 32" fill="none" stroke="#111" stroke-width="1.6" stroke-linecap="round"/><path d="M 47.6 16.4 Q 48.9 15.11 50.2 16.4" fill="none" stroke="#111" stroke-width="1.6" stroke-linecap="round"/><path d="M 47.6 32 Q 48.9 30.71 50.2 32" fill="none" stroke="#111" stroke-width="1.6" stroke-linecap="round"/><path d="M 50.2 16.4 Q 51.5 15.11 52.8 16.4" fill="none" stroke="#111" stroke-width="1.6" stroke-linecap="round"/><path d="M 50.2 32 Q 51.5 30.71 52.8 32" fill="none" stroke="#111" stroke-width="1.6" stroke-linecap="round"/><path d="M 52.8 16.4 Q 54.1 15.11 55.4 16.4" fill="none" stroke="#111" stroke-width="1.6" stroke-linecap="round"/><path d="M 52.8 32 Q 54.1 30.71 55.4 32" fill="none" stroke="#111" stroke-width="1.6" stroke-linecap="round"/></svg>