<svg xmlns="http://www.w3.org/2000/svg" width="96" height="64" viewBox="0 0 96 64"><polyline points="6,6 10.33,6" fill="none" stroke="#111" stroke-width="1.6" stroke-linecap="round" stroke-linejoin="round"/><polyline points="6,23.33 10.33,23.33" fill="none" stroke="#111" stroke-width="1.6" stroke-linecap="round" stroke-linejoin="round"/><polyline points="6,40.67 10.33,40.67" fill="none" stroke="#111" stroke-width="1.6" stroke-linecap="round" stroke-linejoin="round"/><polyline points="6,58 10.33,58" fill="none" stroke="#111" stroke-width="1.6" stroke-linecap="round" stroke-linejoin="round"/><path d="M 10.33 14.67 Q 12.49 16.83 10.33 19" fill="none" stroke="#111" stroke-width="1.6" stroke-linecap="round"/><path d="M 10.33 19 Q 12.49 21.17 10.33 23.33" fill="none" stroke="#111" stroke-width="1.6" stroke-linecap="round"/><path d="M 10.33 49.33 Q 12.49 51.5 10.33 53.67" fill="none" stroke="#111" stroke-width="1.6" stroke-linecap="round"/><path d="M 10.33 53.67 Q 12.49 55.83 10.33 58" fill="none" stroke="#111" stroke-width="1.6" stroke-linecap="round"/><rect x="13.8" y="6" width="1.73" height="52" fill="none" stroke="#111" stroke-width="1.6"/><polyline points="19,6 23.33,6" fill="none" stroke="#111" stroke-width="1.6" stroke-linecap="round" stroke-linejoin="round"/><polyline points="19,23.33 23.33,23.33" fill="none" stroke="#111" stroke-width="1.6" stroke-linecap="round" stroke-linejoin="round"/><polyline points="19,40.67 23.33,40.67" fill="none" stroke="#111" stroke-width="1.6" stroke-linecap="round" stroke-linejoin="round"/><polyline points="19,58 23.33,58" fill="none" stroke="#111" stroke-width="1.6" stroke-linecap="round" stroke-linejoin="round"/><path d="M 10.33 6 Q 12.49 8.17 10.33 10.33" fill="none" stroke="#111" stroke-width="1.6" stroke-linecap="round"/><path d="M 10.33 10.33 Q 12.49 12.5 10.33 14.67" fill="none" stroke="#111" stroke-width="1.6" stroke-linecap="round"/><path d="M 10.33 40.67 Q 12.49 42.83 10.33 45" fill="none" stroke="#111" stroke-width="1.6" stroke-linecap="round"/><path d="M 10.33 45 Q 12.49 47.17 10.33 49.33" fill="none" stroke="#111" stroke-width="1.6" stroke-linecap="round"/><circle cx="10.77" cy="8.17" r="0.43" fill="none" stroke="#111" stroke-width="1.6"/><circle cx="10.77" cy="42.83" r="0.43" fill="none" stroke="#111" stroke-width="1.6"/><circle cx="18.57" cy="8.17" r="0.43" fill="none" stroke="#111" stroke-width="1.6"/><circle cx="18.57" cy="42.83" r="0.43" fill="none" stroke="#111" stroke-width="1.6"/><path d="M 19 10.33 Q 16.84 8.17 19 6" fill="none" stroke="#111" stroke-width="1.6" stroke-linecap="round"/><path d="M 19 14.67 Q 16.84 12.5 19 10.33" fill="none" stroke="#111" stroke-width="1.6" stroke-linecap="round"/><path d="M 19 19 Q 16.84 16.83 19 14.67" fill="none" stroke="#111" stroke-width="1.6" stroke-linecap="round"/><path d="M 19 23.33 Q 16.84 21.17 19 19" fill="none" stroke="#111" stroke-width="1.6" stroke-linecap="round"/><path d="M 19 45 Q 16.84 42.83 19 40.67" fill="none" stroke="#111" stroke-width="1.6" stroke-linecap="round"/><path d="M 19 49.33 Q 16.84 47.17 19 45" fill="none" stroke="#111" stroke-width="1.6" stroke-linecap="round"/><path d="M 19 53.67 Q 16.84 51.5 19 49.33" fill="none" stroke="#111" stroke-width="1.6" stroke-linecap="round"/><path d="M 19 58 Q 16.84 55.83 19 53.67" fill="none" stroke="#111" stroke-width="1.6" stroke-linecap="round"/></svg>