<svg xmlns="http://www.w3.org/2000/svg" width="96" height="64" viewBox="0 0 96 64"><polyline points="6,6 6,58 20.86,50.57 20.86,13.43 6,6" fill="none" stroke="#111" stroke-width="1.6" stroke-linecap="round" stroke-linejoin="round"/><polyline points="6,12.19 8.48,12.19" fill="none" stroke="#111" stroke-width="1.6" stroke-linecap="round" stroke-linejoin="round"/><polyline points="6,17.14 14.42,17.14" fill="none" stroke="#111" stroke-width="1.6" stroke-linecap="round" stroke-linejoin="round"/><polyline points="6,22.1 8.48,22.1" fill="none" stroke="#111" stroke-width="1.6" stroke-linecap="round" stroke-linejoin="round"/><polyline points="6,27.05 14.42,27.05" fill="none" stroke="#111" stroke-width="1.6" stroke-linecap="round" stroke-linejoin="round"/><polyline points="6,32 8.48,32" fill="none" stroke="#111" stroke-width="1.6" stroke-linecap="round" stroke-linejoin="round"/><polyline points="6,36.95 14.42,36.95" fill="none" stroke="#111" stroke-width="1.6" stroke-linecap="round" stroke-linejoin="round"/><polyline points="6,41.9 8.48,41.9" fill="none" stroke="#111" stroke-width="1.6" stroke-linecap="round" stroke-linejoin="round"/><polyline points="6,46.86 14.42,46.86" fill="none" stroke="#111" stroke-width="1.6" stroke-linecap="round" stroke-linejoin="round"/><polyline points="6,51.81 8.48,51.81" fill="none" stroke="#111" stroke-width="1.6" stroke-linecap="round" stroke-linejoin="round"/><circle cx="9.96" cy="12.19" r="1.49" fill="none" stroke="#111" stroke-width="1.6"/><circle cx="9.96" cy="22.1" r="1.49" fill="none" stroke="#111" stroke-width="1.6"/><circle cx="9.96" cy="32" r="1.49" fill="none" stroke="#111" stroke-width="1.6"/><circle cx="9.96" cy="41.9" r="1.49" fill="none" stroke="#111" stroke-width="1.6"/><circle cx="9.96" cy="51.81" r="1.49" fill="none" stroke="#111" stroke-width="1.6"/><circle cx="15.9" cy="17.14" r="1.49" fill="none" stroke="#111" stroke-width="1.6"/><circle cx="15.9" cy="27.05" r="1.49" fill="none" stroke="#111" stroke-width="1.6"/><circle cx="15.9" cy="36.95" r="1.49" fill="none" stroke="#111" stroke-width="1.6"/><circle cx="15.9" cy="46.86" r="1.49" fill="none" stroke="#111" stroke-width="1.6"/></svg>