<svg xmlns="http://www.w3.org/2000/svg" width="96" height="64" viewBox="0 0 96 64"><rect x="6" y="6" width="24" height="52" fill="none" stroke="#111" stroke-width="1.6"/><polyline points="15.6,40 12.2,40" fill="none" stroke="#111" stroke-width="1.6" stroke-linecap="round" stroke-linejoin="round"/><polyline points="15.6,44 12.2,44" fill="none" stroke="#111" stroke-width="1.6" stroke-linecap="round" stroke-linejoin="round"/><polyline points="15.6,48 12.2,48" fill="none" stroke="#111" stroke-width="1.6" stroke-linecap="round" stroke-linejoin="round"/><polyline points="15.6,52 12.2,52" fill="none" stroke="#111" stroke-width="1.6" stroke-linecap="round" stroke-linejoin="round"/><polyline points="15.8,22.5 15.8,25.5 18.8,24 15.8,22.5" fill="none" stroke="#111" stroke-width="1.6" stroke-linecap="round" stroke-linejoin="round"/><polyline points="15.8,24 12.4,24" fill="none" stroke="#111" stroke-width="1.6" stroke-linecap="round" stroke-linejoin="round"/><polyline points="15.8,26.5 15.8,29.5 18.8,28 15.8,26.5" fill="none" stroke="#111" stroke-width="1.6" stroke-linecap="round" stroke-linejoin="round"/><polyline points="15.8,28 12.3,28" fill="none" stroke="#111" stroke-width="1.6" stroke-linecap="round" stroke-linejoin="round"/><polyline points="15.8,30.5 15.8,33.5 18.8,32 15.8,30.5" fill="none" stroke="#111" stroke-width="1.6" stroke-linecap="round" stroke-linejoin="round"/><polyline points="15.8,32 12.3,32" fill="none" stroke="#111" stroke-width="1.6" stroke-linecap="round" stroke-linejoin="round"/><polyline points="15.8,34.5 15.8,37.5 18.8,36 15.8,34.5" fill="none" stroke="#111" stroke-width="1.6" stroke-linecap="round" stroke-linejoin="round"/><polyline points="15.8,36 12.3,36" fill="none" stroke="#111" stroke-width="1.6" stroke-linecap="round" stroke-linejoin="round"/><circle cx="16.2" cy="40" r="0.5" fill="none" stroke="#111" stroke-width="1.6"/><circle cx="16.2" cy="44" r="0.5" fill="none" stroke="#111" stroke-width="1.6"/><circle cx="16.2" cy="48" r="0.5" fill="none" stroke="#111" stroke-width="1.6"/><circle cx="16.2" cy="52" r="0.5" fill="none" stroke="#111" stroke-width="1.6"/><circle cx="19.3" cy="24" r="0.5" fill="none" stroke="#111" stroke-width="1.6"/><circle cx="19.3" cy="28" r="0.5" fill="none" stroke="#111" stroke-width="1.6"/><circle cx="19.3" cy="32" r="0.5" fill="none" stroke="#111" stroke-width="1.6"/><circle cx="19.3" cy="36" r="0.5" fill="none" stroke="#111" stroke-width="1.6"/><polyline points="19.7,38.5 19.7,41.5 16.7,40 19.7,38.5" fill="none" stroke="#111" stroke-width="1.6" stroke-linecap="round" stroke-linejoin="round"/><polyline points="19.7,40 23.2,40" fill="none" stroke="#111" stroke-width="1.6" stroke-linecap="round" stroke-linejoin="round"/><polyline points="19.7,42.5 19.7,45.5 16.7,44 19.7,42.5" fill="none" stroke="#111" stroke-width="1.6" stroke-linecap="round" stroke-linejoin="round"/><polyline points="19.7,44 23.2,44" fill="none" stroke="#111" stroke-width="1.6" stroke-linecap="round" stroke-linejoin="round"/><polyline points="19.7,46.5 19.7,49.5 16.7,48 19.7,46.5" fill="none" stroke="#111" stroke-width="1.6" stroke-linecap="round" stroke-linejoin="round"/><polyline points="19.7,48 23.2,48" fill="none" stroke="#111" stroke-width="1.6" stroke-linecap="round" stroke-linejoin="round"/><polyline points="19.7,50.5 19.7,53.5 16.7,52 19.7,50.5" fill="none" stroke="#111" stroke-width="1.6" stroke-linecap="round" stroke-linejoin="round"/><polyline points="19.7,52 23.2,52" fill="none" stroke="#111" stroke-width="1.6" stroke-linecap="round" stroke-linejoin="round"/><polyline points="23.2,24 19.8,24" fill="none" stroke="#111" stroke-width="1.6" stroke-linecap="round" stroke-linejoin="round"/><polyline points="23.2,28 19.8,28" fill="none" stroke="#111" stroke-width="1.6" stroke-linecap="round" stroke-linejoin="round"/><polyline points="23.2,32 19.8,32" fill="none" stroke="#111" stroke-width="1.6" stroke-linecap="round" stroke-linejoin="round"/><polyline points="23.2,36 19.8,36" fill="none" stroke="#111" stroke-width="1.6" stroke-linecap="round" stroke-linejoin="round"/></svg>