<svg xmlns="http://www.w3.org/2000/svg" width="96" height="64" viewBox="0 0 96 64"><rect x="6" y="6" width="0.43" height="0.13" fill="none" stroke="#111" stroke-width="1.6"/><rect x="6" y="7.27" width="0.43" height="0.12" fill="none" stroke="#111" stroke-width="1.6"/><rect x="6" y="8.53" width="0.43" height="0.13" fill="none" stroke="#111" stroke-width="1.6"/><rect x="6" y="9.8" width="0.43" height="0.12" fill="none" stroke="#111" stroke-width="1.6"/><rect x="6" y="11.06" width="0.43" height="0.13" fill="none" stroke="#111" stroke-width="1.6"/><rect x="6" y="12.33" width="0.43" height="0.12" fill="none" stroke="#111" stroke-width="1.6"/><rect x="6" y="13.59" width="0.43" height="0.13" fill="none" stroke="#111" stroke-width="1.6"/><rect x="6" y="14.86" width="0.43" height="0.12" fill="none" stroke="#111" stroke-width="1.6"/><rect x="6" y="16.12" width="0.43" height="0.13" fill="none" stroke="#111" stroke-width="1.6"/><rect x="6" y="17.39" width="0.43" height="0.12" fill="none" stroke="#111" stroke-width="1.6"/><rect x="6" y="18.65" width="0.43" height="0.13" fill="none" stroke="#111" stroke-width="1.6"/><rect x="6" y="19.92" width="0.43" height="0.12" fill="none" stroke="#111" stroke-width="1.6"/><rect x="6" y="21.18" width="0.43" height="0.13" fill="none" stroke="#111" stroke-width="1.6"/><rect x="6" y="22.45" width="0.43" height="0.12" fill="none" stroke="#111" stroke-width="1.6"/><rect x="6" y="23.71" width="0.43" height="0.13" fill="none" stroke="#111" stroke-width="1.6"/><rect x="6" y="24.98" width="0.43" height="0.12" fill="none" stroke="#111" stroke-width="1.6"/><rect x="6" y="26.24" width="0.43" height="0.13" fill="none" stroke="#111" stroke-width="1.6"/><rect x="6" y="27.51" width="0.43" height="0.13" fill="none" stroke="#111" stroke-width="1.6"/><rect x="6" y="28.77" width="0.43" height="0.13" fill="none" stroke="#111" stroke-width="1.6"/><rect x="6" y="30.04" width="0.43" height="0.13" fill="none" stroke="#111" stroke-width="1.6"/><rect x="6" y="31.3" width="0.43" height="0.13" fill="none" stroke="#111" stroke-width="1.6"/><rect x="6" y="32.57" width="0.43" height="0.13" fill="none" stroke="#111" stroke-width="1.6"/><rect x="6" y="33.83" width="0.43" height="0.13" fill="none" stroke="#111" stroke-width="1.6"/><rect x="6" y="35.1" width="0.43" height="0.13" fill="none" stroke="#111" stroke-width="1.6"/><rect x="6" y="36.36" width="0.43" height="0.13" fill="none" stroke="#111" stroke-width="1.6"/><rect x="6" y="37.63" width="0.43" height="0.13" fill="none" stroke="#111" stroke-width="1.6"/><rect x="6" y="38.9" width="0.43" height="0.12" fill="none" stroke="#111" stroke-width="1.6"/><rect x="6" y="40.16" width="0.43" height="0.13" fill="none" stroke="#111" stroke-width="1.6"/><rect x="6" y="41.43" width="0.43" height="0.12" fill="none" stroke="#111" stroke-width="1.6"/><rect x="6" y="42.69" width="0.43" height="0.13" fill="none" stroke="#111" stroke-width="1.6"/><rect x="6" y="43.96" width="0.43" height="0.12" fill="none" stroke="#111" stroke-width="1.6"/><rect x="6" y="45.22" width="0.43" height="0.13" fill="none" stroke="#111" stroke-width="1.6"/><rect x="6" y="46.49" width="0.43" height="0.12" fill="none" stroke="#111" stroke-width="1.6"/><rect x="6" y="47.75" width="0.43" height="0.13" fill="none" stroke="#111" stroke-width="1.6"/><rect x="6" y="49.02" width="0.43" height="0.12" fill="none" stroke="#111" stroke-width="1.6"/><rect x="6" y="50.28" width="0.43" height="0.13" fill="none" stroke="#111" stroke-width="1.6"/><rect x="6" y="51.55" width="0.43" height="0.12" fill="none" stroke="#111" stroke-width="1.6"/><rect x="6" y="52.81" width="0.43" height="0.13" fill="none" stroke="#111" stroke-width="1.6"/><rect x="6" y="54.08" width="0.43" height="0.12" fill="none" stroke="#111" stroke-width="1.6"/><rect x="6" y="55.34" width="0.43" height="0.13" fill="none" stroke="#111" stroke-width="1.6"/><rect x="6" y="56.61" width="0.43" height="0.12" fill="none" stroke="#111" stroke-width="1.6"/><rect x="6" y="57.87" width="0.43" height="0.13" fill="none" stroke="#111" stroke-width="1.6"/><polyline points="6.63,6.06 6.43,6.06" fill="none" stroke="#111" stroke-width="1.6" stroke-linecap="round" stroke-linejoin="round"/><polyline points="6.63,7.33 6.43,7.33" fill="none" stroke="#111" stroke-width="1.6" stroke-linecap="round" stroke-linejoin="round"/><polyline points="6.63,8.59 6.43,8.59" fill="none" stroke="#111" stroke-width="1.6" stroke-linecap="round" stroke-linejoin="round"/><polyline points="6.63,9.86 6.43,9.86" fill="none" stroke="#111" stroke-width="1.6" stroke-linecap="round" stroke-linejoin="round"/><polyline points="6.63,11.12 6.43,11.12" fill="none" stroke="#111" stroke-width="1.6" stroke-linecap="round" stroke-linejoin="round"/><polyline points="6.63,12.39 6.43,12.39" fill="none" stroke="#111" stroke-width="1.6" stroke-linecap="round" stroke-linejoin="round"/><polyline points="6.63,13.65 6.43,13.65" fill="none" stroke="#111" stroke-width="1.6" stroke-linecap="round" stroke-linejoin="round"/><polyline points="6.63,14.92 6.43,14.92" fill="none" stroke="#111" stroke-width="1.6" stroke-linecap="round" stroke-linejoin="round"/><polyline points="6.63,16.18 6.43,16.18" fill="none" stroke="#111" stroke-width="1.6" stroke-linecap="round" stroke-linejoin="round"/><polyline points="6.63,17.45 6.43,17.45" fill="none" stroke="#111" stroke-width="1.6" stroke-linecap="round" stroke-linejoin="round"/><polyline points="6.63,18.72 6.43,18.72" fill="none" stroke="#111" stroke-width="1.6" stroke-linecap="round" stroke-linejoin="round"/><polyline points="6.63,19.98 6.43,19.98" fill="none" stroke="#111" stroke-width="1.6" stroke-linecap="round" stroke-linejoin="round"/><polyline points="6.63,21.25 6.43,21.25" fill="none" stroke="#111" stroke-width="1.6" stroke-linecap="round" stroke-linejoin="round"/><polyline points="6.63,22.51 6.43,22.51" fill="none" stroke="#111" stroke-width="1.6" stroke-linecap="round" stroke-linejoin="round"/><polyline points="6.63,23.78 6.43,23.78" fill="none" stroke="#111" stroke-width="1.6" stroke-linecap="round" stroke-linejoin="round"/><polyline points="6.63,25.04 6.43,25.04" fill="none" stroke="#111" stroke-width="1.6" stroke-linecap="round" stroke-linejoin="round"/><polyline points="6.63,26.31 6.43,26.31" fill="none" stroke="#111" stroke-width="1.6" stroke-linecap="round" stroke-linejoin="round"/><polyline points="6.63,27.57 6.43,27.57" fill="none" stroke="#111" stroke-width="1.6" stroke-linecap="round" stroke-linejoin="round"/><polyline points="6.63,28.84 6.43,28.84" fill="none" stroke="#111" stroke-width="1.6" stroke-linecap="round" stroke-linejoin="round"/><polyline points="6.63,30.1 6.43,30.1" fill="none" stroke="#111" stroke-width="1.6" stroke-linecap="round" stroke-linejoin="round"/><polyline points="6.63,31.37 6.43,31.37" fill="none" stroke="#111" stroke-width="1.6" stroke-linecap="round" stroke-linejoin="round"/><polyline points="6.63,32.63 6.43,32.63" fill="none" stroke="#111" stroke-width="1.6" stroke-linecap="round" stroke-linejoin="round"/><polyline points="6.63,33.9 6.43,33.9" fill="none" stroke="#111" stroke-width="1.6" stroke-linecap="round" stroke-linejoin="round"/><polyline points="6.63,35.16 6.43,35.16" fill="none" stroke="#111" stroke-width="1.6" stroke-linecap="round" stroke-linejoin="round"/><polyline points="6.63,36.43 6.43,36.43" fill="none" stroke="#111" stroke-width="1.6" stroke-linecap="round" stroke-linejoin="round"/><polyline points="6.63,37.69 6.43,37.69" fill="none" stroke="#111" stroke-width="1.6" stroke-linecap="round" stroke-linejoin="round"/><polyline points="6.63,38.96 6.43,38.96" fill="none" stroke="#111" stroke-width="1.6" stroke-linecap="round" stroke-linejoin="round"/><polyline points="6.63,40.22 6.43,40.22" fill="none" stroke="#111" stroke-width="1.6" stroke-linecap="round" stroke-linejoin="round"/><polyline points="6.63,41.49 6.43,41.49" fill="none" stroke="#111" stroke-width="1.6" stroke-linecap="round" stroke-linejoin="round"/><polyline points="6.63,42.75 6.43,42.75" fill="none" stroke="#111" stroke-width="1.6" stroke-linecap="round" stroke-linejoin="round"/><polyline points="6.63,44.02 6.43,44.02" fill="none" stroke="#111" stroke-width="1.6" stroke-linecap="round" stroke-linejoin="round"/><polyline points="6.63,45.28 6.43,45.28" fill="none" stroke="#111" stroke-width="1.6" stroke-linecap="round" stroke-linejoin="round"/><polyline points="6.63,46.55 6.43,46.55" fill="none" stroke="#111" stroke-width="1.6" stroke-linecap="round" stroke-linejoin="round"/><polyline points="6.63,47.82 6.43,47.82" fill="none" stroke="#111" stroke-width="1.6" stroke-linecap="round" stroke-linejoin="round"/><polyline points="6.63,49.08 6.43,49.08" fill="none" stroke="#111" stroke-width="1.6" stroke-linecap="round" stroke-linejoin="round"/><polyline points="6.63,50.35 6.43,50.35" fill="none" stroke="#111" stroke-width="1.6" stroke-linecap="round" stroke-linejoin="round"/><polyline points="6.63,51.61 6.43,51.61" fill="none" stroke="#111" stroke-width="1.6" stroke-linecap="round" stroke-linejoin="round"/><polyline points="6.63,52.88 6.43,52.88" fill="none" stroke="#111" stroke-width="1.6" stroke-linecap="round" stroke-linejoin="round"/><polyline points="6.63,54.14 6.43,54.14" fill="none" stroke="#111" stroke-width="1.6" stroke-linecap="round" stroke-linejoin="round"/><polyline points="6.63,55.41 6.43,55.41" fill="none" stroke="#111" stroke-width="1.6" stroke-linecap="round" stroke-linejoin="round"/><polyline points="6.63,56.67 6.43,56.67" fill="none" stroke="#111" stroke-width="1.6" stroke-linecap="round" stroke-linejoin="round"/><polyline points="6.63,57.94 6.43,57.94" fill="none" stroke="#111" stroke-width="1.6" stroke-linecap="round" stroke-linejoin="round"/></svg>