<svg xmlns="http://www.w3.org/2000/svg" width="96" height="64" viewBox="0 0 96 64"><rect x="6" y="6" width="84" height="31.5" fill="none" stroke="#111" stroke-width="1.6"/><polyline points="19.65,16.5 23.85,16.5" fill="none" stroke="#111" stroke-width="1.6" stroke-linecap="round" stroke-linejoin="round"/><polyline points="19.65,27 19.65,16.5" fill="none" stroke="#111" stroke-width="1.6" stroke-linecap="round" stroke-linejoin="round"/><polyline points="19.65,27 23.85,27" fill="none" stroke="#111" stroke-width="1.6" stroke-linecap="round" stroke-linejoin="round"/><polyline points="21.75,16.5 21.75,11.25" fill="none" stroke="#111" stroke-width="1.6" stroke-linecap="round" stroke-linejoin="round"/><polyline points="21.75,27 21.75,32.25" fill="none" stroke="#111" stroke-width="1.6" stroke-linecap="round" stroke-linejoin="round"/><polyline points="23.85,27 23.85,16.5" fill="none" stroke="#111" stroke-width="1.6" stroke-linecap="round" stroke-linejoin="round"/><rect x="28.05" y="19.65" width="8.4" height="1.05" fill="none" stroke="#111" stroke-width="1.6"/><rect x="28.05" y="22.8" width="8.4" height="1.05" fill="none" stroke="#111" stroke-width="1.6"/><polyline points="32.25,19.65 32.25,11.25" fill="none" stroke="#111" stroke-width="1.6" stroke-linecap="round" stroke-linejoin="round"/><polyline points="32.25,23.85 32.25,32.25" fill="none" stroke="#111" stroke-width="1.6" stroke-linecap="round" stroke-linejoin="round"/><polyline points="41.7,11.25 16.5,11.25" fill="none" stroke="#111" stroke-width="1.6" stroke-linecap="round" stroke-linejoin="round"/><polyline points="41.7,32.25 16.5,32.25" fill="none" stroke="#111" stroke-width="1.6" stroke-linecap="round" stroke-linejoin="round"/><path d="M 41.7 11.25 Q 43.27 9.68 44.85 11.25" fill="none" stroke="#111" stroke-width="1.6" stroke-linecap="round"/><path d="M 41.7 32.25 Q 43.27 30.68 44.85 32.25" fill="none" stroke="#111" stroke-width="1.6" stroke-linecap="round"/><path d="M 44.85 11.25 Q 46.42 9.68 48 11.25" fill="none" stroke="#111" stroke-width="1.6" stroke-linecap="round"/><path d="M 44.85 32.25 Q 46.42 30.68 48 32.25" fill="none" stroke="#111" stroke-width="1.6" stroke-linecap="round"/><circle cx="48" cy="21.75" r="7.45" fill="none" stroke="#111" stroke-width="1.6"/><path d="M 48 11.25 Q 49.57 9.68 51.15 11.25" fill="none" stroke="#111" stroke-width="1.6" stroke-linecap="round"/><path d="M 48 32.25 Q 49.57 30.68 51.15 32.25" fill="none" stroke="#111" stroke-width="1.6" stroke-linecap="round"/><path d="M 51.15 11.25 Q 52.73 9.68 54.3 11.25" fill="none" stroke="#111" stroke-width="1.6" stroke-linecap="round"/><path d="M 51.15 32.25 Q 52.73 30.68 54.3 32.25" fill="none" stroke="#111" stroke-width="1.6" stroke-linecap="round"/><polyline points="54.3,32.25 77.4,32.25" fill="none" stroke="#111" stroke-width="1.6" stroke-linecap="round" stroke-linejoin="round"/><rect x="59.55" y="19.65" width="8.4" height="1.05" fill="none" stroke="#111" stroke-width="1.6"/><rect x="59.55" y="22.8" width="8.4" height="1.05" fill="none" stroke="#111" stroke-width="1.6"/><polyline points="63.75,19.65 63.75,11.25" fill="none" stroke="#111" stroke-width="1.6" stroke-linecap="round" stroke-linejoin="round"/><polyline points="63.75,23.85 63.75,32.25" fill="none" stroke="#111" stroke-width="1.6" stroke-linecap="round" stroke-linejoin="round"/><polyline points="77.4,11.25 54.3,11.25" fill="none" stroke="#111" stroke-width="1.6" stroke-linecap="round" stroke-linejoin="round"/></svg>