<svg xmlns="http://www.w3.org/2000/svg" width="96" height="64" viewBox="0 0 96 64"><rect x="6" y="6" width="2.36" height="52" fill="none" stroke="#111" stroke-width="1.6"/><rect x="6" y="7.06" width="1.18" height="0.24" fill="none" stroke="#111" stroke-width="1.6"/><rect x="6" y="9.43" width="1.18" height="0.23" fill="none" stroke="#111" stroke-width="1.6"/><rect x="6" y="11.79" width="1.18" height="0.24" fill="none" stroke="#111" stroke-width="1.6"/><rect x="6" y="14.15" width="1.18" height="0.24" fill="none" stroke="#111" stroke-width="1.6"/><rect x="6" y="16.52" width="1.18" height="0.23" fill="none" stroke="#111" stroke-width="1.6"/><rect x="6" y="18.88" width="1.18" height="0.24" fill="none" stroke="#111" stroke-width="1.6"/><rect x="6" y="21.25" width="1.18" height="0.23" fill="none" stroke="#111" stroke-width="1.6"/><rect x="6" y="23.61" width="1.18" height="0.24" fill="none" stroke="#111" stroke-width="1.6"/><rect x="6" y="25.97" width="1.18" height="0.24" fill="none" stroke="#111" stroke-width="1.6"/><rect x="6" y="28.34" width="1.18" height="0.23" fill="none" stroke="#111" stroke-width="1.6"/><rect x="6" y="30.7" width="1.18" height="0.24" fill="none" stroke="#111" stroke-width="1.6"/><rect x="6" y="33.06" width="1.18" height="0.24" fill="none" stroke="#111" stroke-width="1.6"/><rect x="6" y="35.43" width="1.18" height="0.23" fill="none" stroke="#111" stroke-width="1.6"/><rect x="6" y="37.79" width="1.18" height="0.24" fill="none" stroke="#111" stroke-width="1.6"/><rect x="6" y="40.15" width="1.18" height="0.24" fill="none" stroke="#111" stroke-width="1.6"/><rect x="6" y="42.52" width="1.18" height="0.23" fill="none" stroke="#111" stroke-width="1.6"/><rect x="6" y="44.88" width="1.18" height="0.24" fill="none" stroke="#111" stroke-width="1.6"/><rect x="6" y="47.25" width="1.18" height="0.23" fill="none" stroke="#111" stroke-width="1.6"/><rect x="6" y="49.61" width="1.18" height="0.24" fill="none" stroke="#111" stroke-width="1.6"/><rect x="6" y="51.97" width="1.18" height="0.24" fill="none" stroke="#111" stroke-width="1.6"/><rect x="6" y="54.34" width="1.18" height="0.23" fill="none" stroke="#111" stroke-width="1.6"/><rect x="6" y="56.7" width="1.18" height="0.24" fill="none" stroke="#111" stroke-width="1.6"/></svg>