<svg xmlns="http://www.w3.org/2000/svg" width="96" height="64" viewBox="0 0 96 64"><rect x="6" y="6" width="1.17" height="0.34" fill="none" stroke="#111" stroke-width="1.6"/><rect x="6" y="9.44" width="1.17" height="0.35" fill="none" stroke="#111" stroke-width="1.6"/><rect x="6" y="12.89" width="1.17" height="0.34" fill="none" stroke="#111" stroke-width="1.6"/><rect x="6" y="16.33" width="1.17" height="0.35" fill="none" stroke="#111" stroke-width="1.6"/><rect x="6" y="19.77" width="1.17" height="0.35" fill="none" stroke="#111" stroke-width="1.6"/><rect x="6" y="23.22" width="1.17" height="0.34" fill="none" stroke="#111" stroke-width="1.6"/><rect x="6" y="26.66" width="1.17" height="0.35" fill="none" stroke="#111" stroke-width="1.6"/><rect x="6" y="30.11" width="1.17" height="0.34" fill="none" stroke="#111" stroke-width="1.6"/><rect x="6" y="33.55" width="1.17" height="0.34" fill="none" stroke="#111" stroke-width="1.6"/><rect x="6" y="36.99" width="1.17" height="0.35" fill="none" stroke="#111" stroke-width="1.6"/><rect x="6" y="40.44" width="1.17" height="0.34" fill="none" stroke="#111" stroke-width="1.6"/><rect x="6" y="43.88" width="1.17" height="0.35" fill="none" stroke="#111" stroke-width="1.6"/><rect x="6" y="47.32" width="1.17" height="0.35" fill="none" stroke="#111" stroke-width="1.6"/><rect x="6" y="50.77" width="1.17" height="0.34" fill="none" stroke="#111" stroke-width="1.6"/><rect x="6" y="54.21" width="1.17" height="0.35" fill="none" stroke="#111" stroke-width="1.6"/><rect x="6" y="57.66" width="1.17" height="0.34" fill="none" stroke="#111" stroke-width="1.6"/><polyline points="7.72,6.17 7.17,6.17" fill="none" stroke="#111" stroke-width="1.6" stroke-linecap="round" stroke-linejoin="round"/><polyline points="7.72,9.62 7.17,9.62" fill="none" stroke="#111" stroke-width="1.6" stroke-linecap="round" stroke-linejoin="round"/><polyline points="7.72,13.06 7.17,13.06" fill="none" stroke="#111" stroke-width="1.6" stroke-linecap="round" stroke-linejoin="round"/><polyline points="7.72,16.5 7.17,16.5" fill="none" stroke="#111" stroke-width="1.6" stroke-linecap="round" stroke-linejoin="round"/><polyline points="7.72,19.95 7.17,19.95" fill="none" stroke="#111" stroke-width="1.6" stroke-linecap="round" stroke-linejoin="round"/><polyline points="7.72,23.39 7.17,23.39" fill="none" stroke="#111" stroke-width="1.6" stroke-linecap="round" stroke-linejoin="round"/><polyline points="7.72,26.83 7.17,26.83" fill="none" stroke="#111" stroke-width="1.6" stroke-linecap="round" stroke-linejoin="round"/><polyline points="7.72,30.28 7.17,30.28" fill="none" stroke="#111" stroke-width="1.6" stroke-linecap="round" stroke-linejoin="round"/><polyline points="7.72,33.72 7.17,33.72" fill="none" stroke="#111" stroke-width="1.6" stroke-linecap="round" stroke-linejoin="round"/><polyline points="7.72,37.17 7.17,37.17" fill="none" stroke="#111" stroke-width="1.6" stroke-linecap="round" stroke-linejoin="round"/><polyline points="7.72,40.61 7.17,40.61" fill="none" stroke="#111" stroke-width="1.6" stroke-linecap="round" stroke-linejoin="round"/><polyline points="7.72,44.05 7.17,44.05" fill="none" stroke="#111" stroke-width="1.6" stroke-linecap="round" stroke-linejoin="round"/><polyline points="7.72,47.5 7.17,47.5" fill="none" stroke="#111" stroke-width="1.6" stroke-linecap="round" stroke-linejoin="round"/><polyline points="7.72,50.94 7.17,50.94" fill="none" stroke="#111" stroke-width="1.6" stroke-linecap="round" stroke-linejoin="round"/><polyline points="7.72,54.38 7.17,54.38" fill="none" stroke="#111" stroke-width="1.6" stroke-linecap="round" stroke-linejoin="round"/><polyline points="7.72,57.83 7.17,57.83" fill="none" stroke="#111" stroke-width="1.6" stroke-linecap="round" stroke-linejoin="round"/></svg>