<svg xmlns="http://www.w3.org/2000/svg" width="96" height="64" viewBox="0 0 96 64"><rect x="6" y="6" width="5.47" height="52" fill="none" stroke="#111" stroke-width="1.6"/><rect x="6" y="7.23" width="1.37" height="0.28" fill="none" stroke="#111" stroke-width="1.6"/><rect x="6" y="9.97" width="1.37" height="0.27" fill="none" stroke="#111" stroke-width="1.6"/><rect x="6" y="12.71" width="1.37" height="0.27" fill="none" stroke="#111" stroke-width="1.6"/><rect x="6" y="15.44" width="1.37" height="0.28" fill="none" stroke="#111" stroke-width="1.6"/><rect x="6" y="18.18" width="1.37" height="0.27" fill="none" stroke="#111" stroke-width="1.6"/><rect x="6" y="20.92" width="1.37" height="0.27" fill="none" stroke="#111" stroke-width="1.6"/><rect x="6" y="23.65" width="1.37" height="0.28" fill="none" stroke="#111" stroke-width="1.6"/><rect x="6" y="26.39" width="1.37" height="0.27" fill="none" stroke="#111" stroke-width="1.6"/><rect x="6" y="29.13" width="1.37" height="0.27" fill="none" stroke="#111" stroke-width="1.6"/><rect x="6" y="31.86" width="1.37" height="0.28" fill="none" stroke="#111" stroke-width="1.6"/><rect x="6" y="34.6" width="1.37" height="0.27" fill="none" stroke="#111" stroke-width="1.6"/><rect x="6" y="37.34" width="1.37" height="0.27" fill="none" stroke="#111" stroke-width="1.6"/><rect x="6" y="40.07" width="1.37" height="0.28" fill="none" stroke="#111" stroke-width="1.6"/><rect x="6" y="42.81" width="1.37" height="0.27" fill="none" stroke="#111" stroke-width="1.6"/><rect x="6" y="45.55" width="1.37" height="0.27" fill="none" stroke="#111" stroke-width="1.6"/><rect x="6" y="48.28" width="1.37" height="0.28" fill="none" stroke="#111" stroke-width="1.6"/><rect x="6" y="51.02" width="1.37" height="0.27" fill="none" stroke="#111" stroke-width="1.6"/><rect x="6" y="53.76" width="1.37" height="0.27" fill="none" stroke="#111" stroke-width="1.6"/><rect x="6" y="56.49" width="1.37" height="0.28" fill="none" stroke="#111" stroke-width="1.6"/><rect x="10.11" y="7.23" width="1.36" height="0.28" fill="none" stroke="#111" stroke-width="1.6"/><rect x="10.11" y="9.97" width="1.36" height="0.27" fill="none" stroke="#111" stroke-width="1.6"/><rect x="10.11" y="12.71" width="1.36" height="0.27" fill="none" stroke="#111" stroke-width="1.6"/><rect x="10.11" y="15.44" width="1.36" height="0.28" fill="none" stroke="#111" stroke-width="1.6"/><rect x="10.11" y="18.18" width="1.36" height="0.27" fill="none" stroke="#111" stroke-width="1.6"/><rect x="10.11" y="20.92" width="1.36" height="0.27" fill="none" stroke="#111" stroke-width="1.6"/><rect x="10.11" y="23.65" width="1.36" height="0.28" fill="none" stroke="#111" stroke-width="1.6"/><rect x="10.11" y="26.39" width="1.36" height="0.27" fill="none" stroke="#111" stroke-width="1.6"/><rect x="10.11" y="29.13" width="1.36" height="0.27" fill="none" stroke="#111" stroke-width="1.6"/><rect x="10.11" y="31.86" width="1.36" height="0.28" fill="none" stroke="#111" stroke-width="1.6"/><rect x="10.11" y="34.6" width="1.36" height="0.27" fill="none" stroke="#111" stroke-width="1.6"/><rect x="10.11" y="37.34" width="1.36" height="0.27" fill="none" stroke="#111" stroke-width="1.6"/><rect x="10.11" y="40.07" width="1.36" height="0.28" fill="none" stroke="#111" stroke-width="1.6"/><rect x="10.11" y="42.81" width="1.36" height="0.27" fill="none" stroke="#111" stroke-width="1.6"/><rect x="10.11" y="45.55" width="1.36" height="0.27" fill="none" stroke="#111" stroke-width="1.6"/><rect x="10.11" y="48.28" width="1.36" height="0.28" fill="none" stroke="#111" stroke-width="1.6"/><rect x="10.11" y="51.02" width="1.36" height="0.27" fill="none" stroke="#111" stroke-width="1.6"/><rect x="10.11" y="53.76" width="1.36" height="0.27" fill="none" stroke="#111" stroke-width="1.6"/><rect x="10.11" y="56.49" width="1.36" height="0.28" fill="none" stroke="#111" stroke-width="1.6"/></svg>