<svg xmlns="http://www.w3.org/2000/svg" width="96" height="64" viewBox="0 0 96 64"><polyline points="60.6,33.3 69,33.3" fill="none" stroke="#111" stroke-width="1.6" stroke-linecap="round" stroke-linejoin="round"/><polyline points="60.6,33.3 56.4,27 41.7,27 41.7,39.6 56.4,39.6 60.6,33.3" fill="none" stroke="#111" stroke-width="1.6" stroke-linecap="round" stroke-linejoin="round"/><polyline points="69,29.1 64.8,29.1 64.8,18.6" fill="none" stroke="#111" stroke-width="1.6" stroke-linecap="round" stroke-linejoin="round"/><polyline points="69,31.2 69,24.9 79.5,31.2 69,37.5 69,31.2" fill="none" stroke="#111" stroke-width="1.6" stroke-linecap="round" stroke-linejoin="round"/><rect x="6" y="6" width="84" height="50.4" fill="none" stroke="#111" stroke-width="1.6"/><rect x="12.3" y="10.2" width="21" height="8.4" fill="none" stroke="#111" stroke-width="1.6"/><rect x="18.6" y="43.8" width="21" height="8.4" fill="none" stroke="#111" stroke-width="1.6"/><polyline points="24.9,18.6 24.9,24.9 50.1,24.9" fill="none" stroke="#111" stroke-width="1.6" stroke-linecap="round" stroke-linejoin="round"/><polyline points="29.1,43.8 29.1,33.3 41.7,33.3" fill="none" stroke="#111" stroke-width="1.6" stroke-linecap="round" stroke-linejoin="round"/><polyline points="39.6,6 39.6,8.1 50.1,8.1 50.1,27" fill="none" stroke="#111" stroke-width="1.6" stroke-linecap="round" stroke-linejoin="round"/><polyline points="79.5,31.2 88.74,31.2 88.74,39.6 90,39.6" fill="none" stroke="#111" stroke-width="1.6" stroke-linecap="round" stroke-linejoin="round"/><polyline points="90,22.8 88.74,22.8 88.74,18.6 64.8,18.6" fill="none" stroke="#111" stroke-width="1.6" stroke-linecap="round" stroke-linejoin="round"/></svg>