<svg xmlns="http://www.w3.org/2000/svg" width="96" height="64" viewBox="0 0 96 64"><rect x="6" y="6" width="30.54" height="52" fill="none" stroke="#111" stroke-width="1.6"/><polyline points="8.89,14.25 17.14,14.25 17.14,22.51 17.14,22.51" fill="none" stroke="#111" stroke-width="1.6" stroke-linecap="round" stroke-linejoin="round"/><polyline points="11.37,57.17 16.73,57.17 17.14,57.17 17.14,48.51 17.14,48.51" fill="none" stroke="#111" stroke-width="1.6" stroke-linecap="round" stroke-linejoin="round"/><polyline points="11.78,35.71 17.14,35.71 17.14,25.4 17.14,25.4" fill="none" stroke="#111" stroke-width="1.6" stroke-linecap="round" stroke-linejoin="round"/><polyline points="17.14,45.62 17.14,37.37 8.89,37.37 8.89,37.37" fill="none" stroke="#111" stroke-width="1.6" stroke-linecap="round" stroke-linejoin="round"/><polyline points="29.11,55.94 24.98,55.94 24.98,44.79 24.98,44.79" fill="none" stroke="#111" stroke-width="1.6" stroke-linecap="round" stroke-linejoin="round"/><polyline points="30.76,32 24.98,32 24.98,41.9 24.98,41.9" fill="none" stroke="#111" stroke-width="1.6" stroke-linecap="round" stroke-linejoin="round"/><polyline points="31.17,9.71 24.98,9.71 24.98,18.79 24.98,18.79" fill="none" stroke="#111" stroke-width="1.6" stroke-linecap="round" stroke-linejoin="round"/><polyline points="31.59,30.35 24.98,30.35 24.98,21.68 24.98,21.68" fill="none" stroke="#111" stroke-width="1.6" stroke-linecap="round" stroke-linejoin="round"/></svg>