<svg xmlns="http://www.w3.org/2000/svg" width="96" height="64" viewBox="0 0 96 64"><rect x="6" y="6" width="84" height="50.4" fill="none" stroke="#111" stroke-width="1.6"/><polyline points="14.4,25.32 15.66,21.54 13.14,21.54 14.4,25.32" fill="none" stroke="#111" stroke-width="1.6" stroke-linecap="round" stroke-linejoin="round"/><polyline points="14.4,28.68 14.4,19.44" fill="none" stroke="#111" stroke-width="1.6" stroke-linecap="round" stroke-linejoin="round"/><path d="M 14.4 28.68 Q 16.92 31.2 14.4 33.72" fill="none" stroke="#111" stroke-width="1.6" stroke-linecap="round"/><polyline points="14.4,33.72 14.4,37.08" fill="none" stroke="#111" stroke-width="1.6" stroke-linecap="round" stroke-linejoin="round"/><polyline points="22.8,25.32 24.06,21.54 21.54,21.54 22.8,25.32" fill="none" stroke="#111" stroke-width="1.6" stroke-linecap="round" stroke-linejoin="round"/><polyline points="22.8,28.68 22.8,19.44" fill="none" stroke="#111" stroke-width="1.6" stroke-linecap="round" stroke-linejoin="round"/><path d="M 22.8 28.68 Q 25.32 31.2 22.8 33.72" fill="none" stroke="#111" stroke-width="1.6" stroke-linecap="round"/><polyline points="22.8,33.72 22.8,37.08" fill="none" stroke="#111" stroke-width="1.6" stroke-linecap="round" stroke-linejoin="round"/><polyline points="31.2,25.32 32.46,21.54 29.94,21.54 31.2,25.32" fill="none" stroke="#111" stroke-width="1.6" stroke-linecap="round" stroke-linejoin="round"/><polyline points="31.2,28.68 31.2,19.44" fill="none" stroke="#111" stroke-width="1.6" stroke-linecap="round" stroke-linejoin="round"/><path d="M 31.2 28.68 Q 33.72 31.2 31.2 33.72" fill="none" stroke="#111" stroke-width="1.6" stroke-linecap="round"/><polyline points="31.2,33.72 31.2,37.08" fill="none" stroke="#111" stroke-width="1.6" stroke-linecap="round" stroke-linejoin="round"/><rect x="38.34" y="27.42" width="7.56" height="7.56" fill="none" stroke="#111" stroke-width="1.6"/><polyline points="38.34,27.42 45.9,34.98" fill="none" stroke="#111" stroke-width="1.6" stroke-linecap="round" stroke-linejoin="round"/><polyline points="42.12,27.42 42.12,24.06" fill="none" stroke="#111" stroke-width="1.6" stroke-linecap="round" stroke-linejoin="round"/><polyline points="42.12,38.34 42.12,34.98" fill="none" stroke="#111" stroke-width="1.6" stroke-linecap="round" stroke-linejoin="round"/><polyline points="45.9,27.42 38.34,34.98" fill="none" stroke="#111" stroke-width="1.6" stroke-linecap="round" stroke-linejoin="round"/><polyline points="49.26,31.2 45.9,31.2" fill="none" stroke="#111" stroke-width="1.6" stroke-linecap="round" stroke-linejoin="round"/></svg>