<svg xmlns="http://www.w3.org/2000/svg" width="96" height="64" viewBox="0 0 96 64"><rect x="6" y="24.64" width="11.97" height="15.57" fill="none" stroke="#111" stroke-width="1.6"/><rect x="6" y="24.64" width="11.97" height="15.57" fill="none" stroke="#111" stroke-width="1.6"/><rect x="6" y="24.64" width="11.97" height="15.57" fill="none" stroke="#111" stroke-width="1.6"/><rect x="6" y="24.64" width="11.97" height="15.57" fill="none" stroke="#111" stroke-width="1.6"/><rect x="6" y="24.64" width="11.97" height="15.57" fill="none" stroke="#111" stroke-width="1.6"/><rect x="6" y="24.64" width="11.97" height="15.57" fill="none" stroke="#111" stroke-width="1.6"/><rect x="6" y="24.64" width="11.97" height="15.57" fill="none" stroke="#111" stroke-width="1.6"/><rect x="6" y="24.64" width="11.97" height="15.57" fill="none" stroke="#111" stroke-width="1.6"/><rect x="6" y="24.64" width="11.97" height="15.57" fill="none" stroke="#111" stroke-width="1.6"/><rect x="6" y="24.64" width="11.97" height="15.57" fill="none" stroke="#111" stroke-width="1.6"/><rect x="7.71" y="29.61" width="8.55" height="4.78" fill="none" stroke="#111" stroke-width="1.6"/><rect x="7.71" y="29.61" width="8.55" height="4.78" fill="none" stroke="#111" stroke-width="1.6"/><rect x="7.71" y="29.61" width="8.55" height="4.78" fill="none" stroke="#111" stroke-width="1.6"/><rect x="7.71" y="29.61" width="8.55" height="4.78" fill="none" stroke="#111" stroke-width="1.6"/><rect x="7.71" y="29.61" width="8.55" height="4.78" fill="none" stroke="#111" stroke-width="1.6"/><rect x="7.71" y="29.61" width="8.55" height="4.78" fill="none" stroke="#111" stroke-width="1.6"/><rect x="7.71" y="29.61" width="8.55" height="4.78" fill="none" stroke="#111" stroke-width="1.6"/><rect x="7.71" y="29.61" width="8.55" height="4.78" fill="none" stroke="#111" stroke-width="1.6"/><rect x="7.71" y="29.61" width="8.55" height="4.78" fill="none" stroke="#111" stroke-width="1.6"/><rect x="7.71" y="29.61" width="8.55" height="4.78" fill="none" stroke="#111" stroke-width="1.6"/><rect x="7.71" y="29.61" width="8.55" height="4.78" fill="none" stroke="#111" stroke-width="1.6"/><rect x="7.71" y="29.61" width="8.55" height="4.78" fill="none" stroke="#111" stroke-width="1.6"/><rect x="7.71" y="18.66" width="8.55" height="26.68" fill="none" stroke="#111" stroke-width="1.6"/><rect x="7.71" y="26.36" width="8.55" height="12.14" fill="none" stroke="#111" stroke-width="1.6"/><rect x="9.42" y="7.03" width="5.13" height="49.94" fill="none" stroke="#111" stroke-width="1.6"/><rect x="9.42" y="6" width="5.13" height="52" fill="none" stroke="#111" stroke-width="1.6"/><rect x="9.42" y="22.42" width="5.13" height="19.16" fill="none" stroke="#111" stroke-width="1.6"/></svg>