<svg xmlns="http://www.w3.org/2000/svg" width="96" height="64" viewBox="0 0 96 64"><rect x="6" y="6" width="52" height="52" fill="none" stroke="#111" stroke-width="1.6"/><polyline points="26.8,20.73 33.73,25.07 26.8,29.4 26.8,20.73" fill="none" stroke="#111" stroke-width="1.6" stroke-linecap="round" stroke-linejoin="round"/><polyline points="26.8,25.07 19,25.07" fill="none" stroke="#111" stroke-width="1.6" stroke-linecap="round" stroke-linejoin="round"/><polyline points="26.8,34.6 33.73,38.93 26.8,43.27 26.8,34.6" fill="none" stroke="#111" stroke-width="1.6" stroke-linecap="round" stroke-linejoin="round"/><polyline points="26.8,38.93 19,38.93" fill="none" stroke="#111" stroke-width="1.6" stroke-linecap="round" stroke-linejoin="round"/><polyline points="28.53,25.93 28.53,24.2 29.4,24.2 29.4,25.93 27.67,25.93" fill="none" stroke="#111" stroke-width="1.6" stroke-linecap="round" stroke-linejoin="round"/><polyline points="28.53,39.8 28.53,38.07 29.4,38.07 29.4,39.8 27.67,39.8" fill="none" stroke="#111" stroke-width="1.6" stroke-linecap="round" stroke-linejoin="round"/><polyline points="29.4,24.2 30.27,24.2" fill="none" stroke="#111" stroke-width="1.6" stroke-linecap="round" stroke-linejoin="round"/><polyline points="29.4,38.07 30.27,38.07" fill="none" stroke="#111" stroke-width="1.6" stroke-linecap="round" stroke-linejoin="round"/><circle cx="35.03" cy="25.07" r="1.3" fill="none" stroke="#111" stroke-width="1.6"/><circle cx="35.03" cy="38.93" r="1.3" fill="none" stroke="#111" stroke-width="1.6"/><polyline points="36.33,25.07 45,25.07" fill="none" stroke="#111" stroke-width="1.6" stroke-linecap="round" stroke-linejoin="round"/><polyline points="36.33,38.93 45,38.93" fill="none" stroke="#111" stroke-width="1.6" stroke-linecap="round" stroke-linejoin="round"/></svg>