<svg xmlns="http://www.w3.org/2000/svg" width="96" height="64" viewBox="0 0 96 64"><circle cx="10.55" cy="12.5" r="1.3" fill="none" stroke="#111" stroke-width="1.6"/><circle cx="10.55" cy="19" r="1.3" fill="none" stroke="#111" stroke-width="1.6"/><circle cx="10.55" cy="25.5" r="1.3" fill="none" stroke="#111" stroke-width="1.6"/><circle cx="10.55" cy="32" r="1.3" fill="none" stroke="#111" stroke-width="1.6"/><circle cx="10.55" cy="38.5" r="1.3" fill="none" stroke="#111" stroke-width="1.6"/><circle cx="10.55" cy="45" r="1.3" fill="none" stroke="#111" stroke-width="1.6"/><circle cx="10.55" cy="51.5" r="1.3" fill="none" stroke="#111" stroke-width="1.6"/><polyline points="11.85,12.18 21.8,9.51" fill="none" stroke="#111" stroke-width="1.6" stroke-linecap="round" stroke-linejoin="round"/><polyline points="11.85,18.68 21.8,16.01" fill="none" stroke="#111" stroke-width="1.6" stroke-linecap="round" stroke-linejoin="round"/><polyline points="11.85,25.18 21.8,22.51" fill="none" stroke="#111" stroke-width="1.6" stroke-linecap="round" stroke-linejoin="round"/><polyline points="11.85,31.67 21.8,29.01" fill="none" stroke="#111" stroke-width="1.6" stroke-linecap="round" stroke-linejoin="round"/><polyline points="11.85,38.17 21.8,35.51" fill="none" stroke="#111" stroke-width="1.6" stroke-linecap="round" stroke-linejoin="round"/><polyline points="11.85,44.61 21.8,41.95" fill="none" stroke="#111" stroke-width="1.6" stroke-linecap="round" stroke-linejoin="round"/><polyline points="11.85,51.11 21.8,48.44" fill="none" stroke="#111" stroke-width="1.6" stroke-linecap="round" stroke-linejoin="round"/><circle cx="20.95" cy="12.5" r="1.3" fill="none" stroke="#111" stroke-width="1.6"/><circle cx="20.95" cy="19" r="1.3" fill="none" stroke="#111" stroke-width="1.6"/><circle cx="20.95" cy="25.5" r="1.3" fill="none" stroke="#111" stroke-width="1.6"/><circle cx="20.95" cy="32" r="1.3" fill="none" stroke="#111" stroke-width="1.6"/><circle cx="20.95" cy="38.5" r="1.3" fill="none" stroke="#111" stroke-width="1.6"/><circle cx="20.95" cy="45" r="1.3" fill="none" stroke="#111" stroke-width="1.6"/><circle cx="20.95" cy="51.5" r="1.3" fill="none" stroke="#111" stroke-width="1.6"/><rect x="6" y="6" width="19.5" height="52" fill="none" stroke="#111" stroke-width="1.6"/></svg>