<svg xmlns="http://www.w3.org/2000/svg" width="96" height="64" viewBox="0 0 96 64"><rect x="6" y="6" width="84" height="42" fill="none" stroke="#111" stroke-width="1.6"/><rect x="21.4" y="24.2" width="11.2" height="1.4" fill="none" stroke="#111" stroke-width="1.6"/><rect x="21.4" y="28.4" width="11.2" height="1.4" fill="none" stroke="#111" stroke-width="1.6"/><polyline points="27,24.2 27,13" fill="none" stroke="#111" stroke-width="1.6" stroke-linecap="round" stroke-linejoin="round"/><polyline points="27,29.8 27,41" fill="none" stroke="#111" stroke-width="1.6" stroke-linecap="round" stroke-linejoin="round"/><polyline points="39.6,13 17.2,13" fill="none" stroke="#111" stroke-width="1.6" stroke-linecap="round" stroke-linejoin="round"/><polyline points="39.6,41 17.2,41" fill="none" stroke="#111" stroke-width="1.6" stroke-linecap="round" stroke-linejoin="round"/><path d="M 39.6 13 Q 41.7 10.91 43.8 13" fill="none" stroke="#111" stroke-width="1.6" stroke-linecap="round"/><path d="M 39.6 41 Q 41.7 38.91 43.8 41" fill="none" stroke="#111" stroke-width="1.6" stroke-linecap="round"/><path d="M 43.8 13 Q 45.9 10.91 48 13" fill="none" stroke="#111" stroke-width="1.6" stroke-linecap="round"/><path d="M 43.8 41 Q 45.9 38.91 48 41" fill="none" stroke="#111" stroke-width="1.6" stroke-linecap="round"/><circle cx="48" cy="27" r="9.94" fill="none" stroke="#111" stroke-width="1.6"/><path d="M 48 13 Q 50.1 10.91 52.2 13" fill="none" stroke="#111" stroke-width="1.6" stroke-linecap="round"/><path d="M 48 41 Q 50.1 38.91 52.2 41" fill="none" stroke="#111" stroke-width="1.6" stroke-linecap="round"/><path d="M 52.2 13 Q 54.3 10.91 56.4 13" fill="none" stroke="#111" stroke-width="1.6" stroke-linecap="round"/><path d="M 52.2 41 Q 54.3 38.91 56.4 41" fill="none" stroke="#111" stroke-width="1.6" stroke-linecap="round"/><polyline points="56.4,41 76,41" fill="none" stroke="#111" stroke-width="1.6" stroke-linecap="round" stroke-linejoin="round"/><rect x="63.4" y="17.2" width="11.2" height="1.4" fill="none" stroke="#111" stroke-width="1.6"/><rect x="63.4" y="21.4" width="11.2" height="1.4" fill="none" stroke="#111" stroke-width="1.6"/><rect x="63.4" y="31.2" width="11.2" height="1.4" fill="none" stroke="#111" stroke-width="1.6"/><rect x="63.4" y="35.4" width="11.2" height="1.4" fill="none" stroke="#111" stroke-width="1.6"/><polyline points="69,17.2 69,13" fill="none" stroke="#111" stroke-width="1.6" stroke-linecap="round" stroke-linejoin="round"/><polyline points="69,22.8 69,31.2" fill="none" stroke="#111" stroke-width="1.6" stroke-linecap="round" stroke-linejoin="round"/><polyline points="69,27 80.2,27" fill="none" stroke="#111" stroke-width="1.6" stroke-linecap="round" stroke-linejoin="round"/><polyline points="69,36.8 69,41" fill="none" stroke="#111" stroke-width="1.6" stroke-linecap="round" stroke-linejoin="round"/><polyline points="76,13 56.4,13" fill="none" stroke="#111" stroke-width="1.6" stroke-linecap="round" stroke-linejoin="round"/></svg>