<svg xmlns="http://www.w3.org/2000/svg" width="96" height="64" viewBox="0 0 96 64"><rect x="12.07" y="10.33" width="39.86" height="43.34" fill="none" stroke="#111" stroke-width="1.6"/><polyline points="25.93,53.67 25.93,10.33" fill="none" stroke="#111" stroke-width="1.6" stroke-linecap="round" stroke-linejoin="round"/><polyline points="38.07,10.33 38.07,53.67" fill="none" stroke="#111" stroke-width="1.6" stroke-linecap="round" stroke-linejoin="round"/><rect x="6" y="6" width="52" height="52" fill="none" stroke="#111" stroke-width="1.6"/><polyline points="6,23.33 41.53,23.33" fill="none" stroke="#111" stroke-width="1.6" stroke-linecap="round" stroke-linejoin="round"/><polyline points="6,40.67 15.53,40.67" fill="none" stroke="#111" stroke-width="1.6" stroke-linecap="round" stroke-linejoin="round"/><circle cx="12.07" cy="40.67" r="0.95" fill="none" stroke="#111" stroke-width="1.6"/><polyline points="13.8,14.67 10.33,14.67" fill="none" stroke="#111" stroke-width="1.6" stroke-linecap="round" stroke-linejoin="round"/><polyline points="13.8,45.87 10.33,45.87" fill="none" stroke="#111" stroke-width="1.6" stroke-linecap="round" stroke-linejoin="round"/><circle cx="25.93" cy="10.33" r="0.95" fill="none" stroke="#111" stroke-width="1.6"/><circle cx="25.93" cy="40.67" r="0.95" fill="none" stroke="#111" stroke-width="1.6"/><circle cx="25.93" cy="53.67" r="0.95" fill="none" stroke="#111" stroke-width="1.6"/><polyline points="27.67,14.67 24.2,14.67" fill="none" stroke="#111" stroke-width="1.6" stroke-linecap="round" stroke-linejoin="round"/><polyline points="27.67,45.87 24.2,45.87" fill="none" stroke="#111" stroke-width="1.6" stroke-linecap="round" stroke-linejoin="round"/><polyline points="30.27,30.27 30.27,31.13" fill="none" stroke="#111" stroke-width="1.6" stroke-linecap="round" stroke-linejoin="round"/><polyline points="32,6 32,58" fill="none" stroke="#111" stroke-width="1.6" stroke-linecap="round" stroke-linejoin="round"/><circle cx="32" cy="10.33" r="0.95" fill="none" stroke="#111" stroke-width="1.6"/><circle cx="32" cy="53.67" r="0.95" fill="none" stroke="#111" stroke-width="1.6"/><polyline points="33.73,30.27 30.27,30.27" fill="none" stroke="#111" stroke-width="1.6" stroke-linecap="round" stroke-linejoin="round"/><circle cx="38.07" cy="10.33" r="0.95" fill="none" stroke="#111" stroke-width="1.6"/><circle cx="38.07" cy="23.33" r="0.95" fill="none" stroke="#111" stroke-width="1.6"/><circle cx="38.07" cy="53.67" r="0.95" fill="none" stroke="#111" stroke-width="1.6"/><polyline points="39.8,14.67 36.33,14.67" fill="none" stroke="#111" stroke-width="1.6" stroke-linecap="round" stroke-linejoin="round"/><polyline points="39.8,45.87 36.33,45.87" fill="none" stroke="#111" stroke-width="1.6" stroke-linecap="round" stroke-linejoin="round"/><circle cx="51.93" cy="23.33" r="0.95" fill="none" stroke="#111" stroke-width="1.6"/><polyline points="53.67,14.67 50.2,14.67" fill="none" stroke="#111" stroke-width="1.6" stroke-linecap="round" stroke-linejoin="round"/><polyline points="53.67,45.87 50.2,45.87" fill="none" stroke="#111" stroke-width="1.6" stroke-linecap="round" stroke-linejoin="round"/><polyline points="58,23.33 48.47,23.33" fill="none" stroke="#111" stroke-width="1.6" stroke-linecap="round" stroke-linejoin="round"/><polyline points="58,40.67 22.47,40.67" fill="none" stroke="#111" stroke-width="1.6" stroke-linecap="round" stroke-linejoin="round"/><polyline points="13.8,18.13 10.33,18.13 12.07,14.67 13.8,18.13" fill="none" stroke="#111" stroke-width="1.6" stroke-linecap="round" stroke-linejoin="round"/><polyline points="13.8,49.33 10.33,49.33 12.07,45.87 13.8,49.33" fill="none" stroke="#111" stroke-width="1.6" stroke-linecap="round" stroke-linejoin="round"/><rect x="15.53" y="38.93" width="6.94" height="3.47" fill="none" stroke="#111" stroke-width="1.6"/><polyline points="27.67,18.13 24.2,18.13 25.93,14.67 27.67,18.13" fill="none" stroke="#111" stroke-width="1.6" stroke-linecap="round" stroke-linejoin="round"/><polyline points="27.67,49.33 24.2,49.33 25.93,45.87 27.67,49.33" fill="none" stroke="#111" stroke-width="1.6" stroke-linecap="round" stroke-linejoin="round"/><polyline points="33.73,33.73 30.27,33.73 32,30.27 33.73,33.73" fill="none" stroke="#111" stroke-width="1.6" stroke-linecap="round" stroke-linejoin="round"/><polyline points="39.8,18.13 36.33,18.13 38.07,14.67 39.8,18.13" fill="none" stroke="#111" stroke-width="1.6" stroke-linecap="round" stroke-linejoin="round"/><polyline points="39.8,49.33 36.33,49.33 38.07,45.87 39.8,49.33" fill="none" stroke="#111" stroke-width="1.6" stroke-linecap="round" stroke-linejoin="round"/><rect x="41.53" y="21.6" width="6.94" height="3.47" fill="none" stroke="#111" stroke-width="1.6"/><polyline points="53.67,18.13 50.2,18.13 51.93,14.67 53.67,18.13" fill="none" stroke="#111" stroke-width="1.6" stroke-linecap="round" stroke-linejoin="round"/><polyline points="53.67,49.33 50.2,49.33 51.93,45.87 53.67,49.33" fill="none" stroke="#111" stroke-width="1.6" stroke-linecap="round" stroke-linejoin="round"/></svg>