<svg xmlns="http://www.w3.org/2000/svg" width="96" height="64" viewBox="0 0 96 64"><rect x="6" y="43.82" width="23.64" height="4.73" fill="none" stroke="#111" stroke-width="1.6"/><rect x="6" y="48.55" width="23.64" height="9.45" fill="none" stroke="#111" stroke-width="1.6"/><rect x="6" y="29.64" width="23.64" height="9.45" fill="none" stroke="#111" stroke-width="1.6"/><rect x="6" y="39.09" width="23.64" height="4.73" fill="none" stroke="#111" stroke-width="1.6"/><polyline points="8.36,29.64 8.36,27.27 6,27.27 6,6 29.64,6 29.64,27.27 27.27,27.27 27.27,29.64 27.27,29.64" fill="none" stroke="#111" stroke-width="1.6" stroke-linecap="round" stroke-linejoin="round"/><polyline points="19.71,32.95 21.6,34.84 23.49,32.95 19.71,32.95 19.71,32.95" fill="none" stroke="#111" stroke-width="1.6" stroke-linecap="round" stroke-linejoin="round"/><polyline points="19.71,40.51 21.6,42.4 23.49,40.51 19.71,40.51 19.71,40.51" fill="none" stroke="#111" stroke-width="1.6" stroke-linecap="round" stroke-linejoin="round"/><polyline points="19.71,45.24 21.6,47.13 23.49,45.24 19.71,45.24 19.71,45.24" fill="none" stroke="#111" stroke-width="1.6" stroke-linecap="round" stroke-linejoin="round"/><polyline points="19.71,51.85 23.49,51.85 21.6,53.75 19.71,51.85 19.71,51.85" fill="none" stroke="#111" stroke-width="1.6" stroke-linecap="round" stroke-linejoin="round"/></svg>