<svg xmlns="http://www.w3.org/2000/svg" width="96" height="64" viewBox="0 0 96 64"><path d="M 6 6 Q 15.12 32 6 58" fill="none" stroke="#111" stroke-width="1.6" stroke-linecap="round"/><path d="M 12.5 6 Q 21.62 32 12.5 58" fill="none" stroke="#111" stroke-width="1.6" stroke-linecap="round"/><polyline points="12.5,19 19,19" fill="none" stroke="#111" stroke-width="1.6" stroke-linecap="round" stroke-linejoin="round"/><polyline points="12.5,45 19,45" fill="none" stroke="#111" stroke-width="1.6" stroke-linecap="round" stroke-linejoin="round"/><path d="M 77.5 32 Q 67.89 48.39 51.5 58" fill="none" stroke="#111" stroke-width="1.6" stroke-linecap="round"/><path d="M 51.5 6 Q 68.02 15.48 77.5 32" fill="none" stroke="#111" stroke-width="1.6" stroke-linecap="round"/><polyline points="51.5,6 12.5,6" fill="none" stroke="#111" stroke-width="1.6" stroke-linecap="round" stroke-linejoin="round"/><polyline points="51.5,58 12.5,58" fill="none" stroke="#111" stroke-width="1.6" stroke-linecap="round" stroke-linejoin="round"/><path d="M 6 6 Q 15.12 32 6 58" fill="none" stroke="#111" stroke-width="1.6" stroke-linecap="round"/><path d="M 12.5 6 Q 21.62 32 12.5 58" fill="none" stroke="#111" stroke-width="1.6" stroke-linecap="round"/><polyline points="12.5,19 19,19" fill="none" stroke="#111" stroke-width="1.6" stroke-linecap="round" stroke-linejoin="round"/><polyline points="12.5,45 19,45" fill="none" stroke="#111" stroke-width="1.6" stroke-linecap="round" stroke-linejoin="round"/><path d="M 77.5 32 Q 67.89 48.39 51.5 58" fill="none" stroke="#111" stroke-width="1.6" stroke-linecap="round"/><path d="M 51.5 6 Q 68.02 15.48 77.5 32" fill="none" stroke="#111" stroke-width="1.6" stroke-linecap="round"/><polyline points="51.5,6 12.5,6" fill="none" stroke="#111" stroke-width="1.6" stroke-linecap="round" stroke-linejoin="round"/><polyline points="51.5,58 12.5,58" fill="none" stroke="#111" stroke-width="1.6" stroke-linecap="round" stroke-linejoin="round"/><rect x="25.5" y="6" width="52" height="52" fill="none" stroke="#111" stroke-width="1.6"/></svg>