<svg xmlns="http://www.w3.org/2000/svg" width="96" height="64" viewBox="0 0 96 64"><rect x="6" y="6" width="1.93" height="52" fill="none" stroke="#111" stroke-width="1.6"/><rect x="6" y="6.87" width="0.96" height="0.19" fill="none" stroke="#111" stroke-width="1.6"/><rect x="6" y="8.79" width="0.96" height="0.2" fill="none" stroke="#111" stroke-width="1.6"/><rect x="6" y="10.72" width="0.96" height="0.19" fill="none" stroke="#111" stroke-width="1.6"/><rect x="6" y="12.64" width="0.96" height="0.2" fill="none" stroke="#111" stroke-width="1.6"/><rect x="6" y="14.57" width="0.96" height="0.19" fill="none" stroke="#111" stroke-width="1.6"/><rect x="6" y="16.5" width="0.96" height="0.19" fill="none" stroke="#111" stroke-width="1.6"/><rect x="6" y="18.42" width="0.96" height="0.19" fill="none" stroke="#111" stroke-width="1.6"/><rect x="6" y="20.35" width="0.96" height="0.19" fill="none" stroke="#111" stroke-width="1.6"/><rect x="6" y="22.27" width="0.96" height="0.2" fill="none" stroke="#111" stroke-width="1.6"/><rect x="6" y="24.2" width="0.96" height="0.19" fill="none" stroke="#111" stroke-width="1.6"/><rect x="6" y="26.13" width="0.96" height="0.19" fill="none" stroke="#111" stroke-width="1.6"/><rect x="6" y="28.05" width="0.96" height="0.19" fill="none" stroke="#111" stroke-width="1.6"/><rect x="6" y="29.98" width="0.96" height="0.19" fill="none" stroke="#111" stroke-width="1.6"/><rect x="6" y="31.9" width="0.96" height="0.2" fill="none" stroke="#111" stroke-width="1.6"/><rect x="6" y="33.83" width="0.96" height="0.19" fill="none" stroke="#111" stroke-width="1.6"/><rect x="6" y="35.76" width="0.96" height="0.19" fill="none" stroke="#111" stroke-width="1.6"/><rect x="6" y="37.68" width="0.96" height="0.19" fill="none" stroke="#111" stroke-width="1.6"/><rect x="6" y="39.61" width="0.96" height="0.19" fill="none" stroke="#111" stroke-width="1.6"/><rect x="6" y="41.53" width="0.96" height="0.2" fill="none" stroke="#111" stroke-width="1.6"/><rect x="6" y="43.46" width="0.96" height="0.19" fill="none" stroke="#111" stroke-width="1.6"/><rect x="6" y="45.39" width="0.96" height="0.19" fill="none" stroke="#111" stroke-width="1.6"/><rect x="6" y="47.31" width="0.96" height="0.19" fill="none" stroke="#111" stroke-width="1.6"/><rect x="6" y="49.24" width="0.96" height="0.19" fill="none" stroke="#111" stroke-width="1.6"/><rect x="6" y="51.16" width="0.96" height="0.2" fill="none" stroke="#111" stroke-width="1.6"/><rect x="6" y="53.09" width="0.96" height="0.19" fill="none" stroke="#111" stroke-width="1.6"/><rect x="6" y="55.01" width="0.96" height="0.2" fill="none" stroke="#111" stroke-width="1.6"/><rect x="6" y="56.94" width="0.96" height="0.19" fill="none" stroke="#111" stroke-width="1.6"/></svg>