<svg xmlns="http://www.w3.org/2000/svg" width="96" height="64" viewBox="0 0 96 64"><rect x="6" y="28.29" width="37.14" height="29.71" fill="none" stroke="#111" stroke-width="1.6"/><polyline points="6,35.71 43.14,35.71 43.14,35.71" fill="none" stroke="#111" stroke-width="1.6" stroke-linecap="round" stroke-linejoin="round"/><polyline points="6,43.14 43.14,43.14 43.14,43.14" fill="none" stroke="#111" stroke-width="1.6" stroke-linecap="round" stroke-linejoin="round"/><polyline points="6,50.57 43.14,50.57 43.14,50.57" fill="none" stroke="#111" stroke-width="1.6" stroke-linecap="round" stroke-linejoin="round"/><polyline points="9.71,28.29 9.71,24.57 6,24.57 6,6 43.14,6 43.14,24.57 39.43,24.57 39.43,28.29 39.43,28.29" fill="none" stroke="#111" stroke-width="1.6" stroke-linecap="round" stroke-linejoin="round"/><polyline points="19.37,15.66 20.86,15.66 22.34,11.2 23.09,11.2 21.6,11.2 20.11,15.66 20.11,15.66" fill="none" stroke="#111" stroke-width="1.6" stroke-linecap="round" stroke-linejoin="round"/><polyline points="19.37,23.09 20.86,23.09 22.34,18.63 23.09,18.63 21.6,18.63 20.11,23.09 20.11,23.09" fill="none" stroke="#111" stroke-width="1.6" stroke-linecap="round" stroke-linejoin="round"/><polyline points="19.37,34.23 20.86,34.23 22.34,29.77 23.09,29.77 21.6,29.77 20.11,34.23 20.11,34.23" fill="none" stroke="#111" stroke-width="1.6" stroke-linecap="round" stroke-linejoin="round"/><polyline points="24.57,29.77 24.57,34.23 26.8,32 24.57,29.77 24.57,29.77" fill="none" stroke="#111" stroke-width="1.6" stroke-linecap="round" stroke-linejoin="round"/><polyline points="27.54,29.77 32,29.77 29.77,34.23 27.54,29.77 27.54,29.77" fill="none" stroke="#111" stroke-width="1.6" stroke-linecap="round" stroke-linejoin="round"/></svg>