<svg xmlns="http://www.w3.org/2000/svg" width="96" height="64" viewBox="0 0 96 64"><rect x="6" y="6" width="4" height="52" fill="none" stroke="#111" stroke-width="1.6"/><polyline points="7.16,7.48 8.52,8.8" fill="none" stroke="#111" stroke-width="1.6" stroke-linecap="round" stroke-linejoin="round"/><polyline points="7.16,11.48 8.52,12.8" fill="none" stroke="#111" stroke-width="1.6" stroke-linecap="round" stroke-linejoin="round"/><polyline points="7.16,15.48 8.52,16.8" fill="none" stroke="#111" stroke-width="1.6" stroke-linecap="round" stroke-linejoin="round"/><polyline points="7.16,19.48 8.52,20.8" fill="none" stroke="#111" stroke-width="1.6" stroke-linecap="round" stroke-linejoin="round"/><polyline points="7.16,23.48 8.52,24.8" fill="none" stroke="#111" stroke-width="1.6" stroke-linecap="round" stroke-linejoin="round"/><polyline points="7.16,27.48 8.52,28.8" fill="none" stroke="#111" stroke-width="1.6" stroke-linecap="round" stroke-linejoin="round"/><polyline points="7.16,31.48 8.52,32.8" fill="none" stroke="#111" stroke-width="1.6" stroke-linecap="round" stroke-linejoin="round"/><polyline points="7.16,35.48 8.52,36.8" fill="none" stroke="#111" stroke-width="1.6" stroke-linecap="round" stroke-linejoin="round"/><polyline points="7.16,39.48 8.52,40.8" fill="none" stroke="#111" stroke-width="1.6" stroke-linecap="round" stroke-linejoin="round"/><polyline points="7.16,43.48 8.52,44.8" fill="none" stroke="#111" stroke-width="1.6" stroke-linecap="round" stroke-linejoin="round"/><polyline points="7.16,47.48 8.52,48.8" fill="none" stroke="#111" stroke-width="1.6" stroke-linecap="round" stroke-linejoin="round"/><polyline points="7.16,51.48 8.52,52.8" fill="none" stroke="#111" stroke-width="1.6" stroke-linecap="round" stroke-linejoin="round"/><polyline points="7.16,55.48 8.52,56.8" fill="none" stroke="#111" stroke-width="1.6" stroke-linecap="round" stroke-linejoin="round"/><polyline points="7.44,7.2 8.8,8.52" fill="none" stroke="#111" stroke-width="1.6" stroke-linecap="round" stroke-linejoin="round"/><polyline points="7.44,11.2 8.8,12.52" fill="none" stroke="#111" stroke-width="1.6" stroke-linecap="round" stroke-linejoin="round"/><polyline points="7.44,15.2 8.8,16.52" fill="none" stroke="#111" stroke-width="1.6" stroke-linecap="round" stroke-linejoin="round"/><polyline points="7.44,19.2 8.8,20.52" fill="none" stroke="#111" stroke-width="1.6" stroke-linecap="round" stroke-linejoin="round"/><polyline points="7.44,23.2 8.8,24.52" fill="none" stroke="#111" stroke-width="1.6" stroke-linecap="round" stroke-linejoin="round"/><polyline points="7.44,27.2 8.8,28.52" fill="none" stroke="#111" stroke-width="1.6" stroke-linecap="round" stroke-linejoin="round"/><polyline points="7.44,31.2 8.8,32.52" fill="none" stroke="#111" stroke-width="1.6" stroke-linecap="round" stroke-linejoin="round"/><polyline points="7.44,35.2 8.8,36.52" fill="none" stroke="#111" stroke-width="1.6" stroke-linecap="round" stroke-linejoin="round"/><polyline points="7.44,39.2 8.8,40.52" fill="none" stroke="#111" stroke-width="1.6" stroke-linecap="round" stroke-linejoin="round"/><polyline points="7.44,43.2 8.8,44.52" fill="none" stroke="#111" stroke-width="1.6" stroke-linecap="round" stroke-linejoin="round"/><polyline points="7.44,47.2 8.8,48.52" fill="none" stroke="#111" stroke-width="1.6" stroke-linecap="round" stroke-linejoin="round"/><polyline points="7.44,51.2 8.8,52.52" fill="none" stroke="#111" stroke-width="1.6" stroke-linecap="round" stroke-linejoin="round"/><polyline points="7.44,55.2 8.8,56.52" fill="none" stroke="#111" stroke-width="1.6" stroke-linecap="round" stroke-linejoin="round"/><circle cx="8" cy="8" r="1" fill="none" stroke="#111" stroke-width="1.6"/><circle cx="8" cy="12" r="1" fill="none" stroke="#111" stroke-width="1.6"/><circle cx="8" cy="16" r="1" fill="none" stroke="#111" stroke-width="1.6"/><circle cx="8" cy="20" r="1" fill="none" stroke="#111" stroke-width="1.6"/><circle cx="8" cy="24" r="1" fill="none" stroke="#111" stroke-width="1.6"/><circle cx="8" cy="28" r="1" fill="none" stroke="#111" stroke-width="1.6"/><circle cx="8" cy="32" r="1" fill="none" stroke="#111" stroke-width="1.6"/><circle cx="8" cy="36" r="1" fill="none" stroke="#111" stroke-width="1.6"/><circle cx="8" cy="40" r="1" fill="none" stroke="#111" stroke-width="1.6"/><circle cx="8" cy="44" r="1" fill="none" stroke="#111" stroke-width="1.6"/><circle cx="8" cy="48" r="1" fill="none" stroke="#111" stroke-width="1.6"/><circle cx="8" cy="52" r="1" fill="none" stroke="#111" stroke-width="1.6"/><circle cx="8" cy="56" r="1" fill="none" stroke="#111" stroke-width="1.6"/></svg>