<svg xmlns="http://www.w3.org/2000/svg" width="96" height="64" viewBox="0 0 96 64"><polyline points="14.67,18.38 20.11,18.38 22.59,19.62 22.59,40.91 20.11,42.15 14.67,42.15 14.67,18.38" fill="none" stroke="#111" stroke-width="1.6" stroke-linecap="round" stroke-linejoin="round"/><rect x="6" y="6" width="19.81" height="52" fill="none" stroke="#111" stroke-width="1.6"/><rect x="16.15" y="25.31" width="0.99" height="0.99" fill="none" stroke="#111" stroke-width="1.6"/><rect x="16.15" y="27.3" width="0.99" height="0.99" fill="none" stroke="#111" stroke-width="1.6"/><rect x="16.15" y="29.28" width="0.99" height="0.99" fill="none" stroke="#111" stroke-width="1.6"/><rect x="16.15" y="31.26" width="0.99" height="0.99" fill="none" stroke="#111" stroke-width="1.6"/><rect x="16.15" y="33.24" width="0.99" height="0.99" fill="none" stroke="#111" stroke-width="1.6"/><rect x="16.15" y="35.22" width="0.99" height="0.99" fill="none" stroke="#111" stroke-width="1.6"/><rect x="16.15" y="37.2" width="0.99" height="0.99" fill="none" stroke="#111" stroke-width="1.6"/><rect x="16.15" y="39.18" width="0.99" height="0.99" fill="none" stroke="#111" stroke-width="1.6"/><rect x="18.13" y="25.31" width="0.99" height="0.99" fill="none" stroke="#111" stroke-width="1.6"/><rect x="18.13" y="27.3" width="0.99" height="0.99" fill="none" stroke="#111" stroke-width="1.6"/><rect x="18.13" y="29.28" width="0.99" height="0.99" fill="none" stroke="#111" stroke-width="1.6"/><rect x="18.13" y="31.26" width="0.99" height="0.99" fill="none" stroke="#111" stroke-width="1.6"/><rect x="18.13" y="33.24" width="0.99" height="0.99" fill="none" stroke="#111" stroke-width="1.6"/><rect x="18.13" y="35.22" width="0.99" height="0.99" fill="none" stroke="#111" stroke-width="1.6"/><rect x="18.13" y="37.2" width="0.99" height="0.99" fill="none" stroke="#111" stroke-width="1.6"/><rect x="18.13" y="39.18" width="0.99" height="0.99" fill="none" stroke="#111" stroke-width="1.6"/><polyline points="18.63,20.11 18.63,23.58" fill="none" stroke="#111" stroke-width="1.6" stroke-linecap="round" stroke-linejoin="round"/><rect x="20.11" y="25.31" width="0.99" height="0.99" fill="none" stroke="#111" stroke-width="1.6"/><rect x="20.11" y="27.3" width="0.99" height="0.99" fill="none" stroke="#111" stroke-width="1.6"/><rect x="20.11" y="29.28" width="0.99" height="0.99" fill="none" stroke="#111" stroke-width="1.6"/><rect x="20.11" y="31.26" width="0.99" height="0.99" fill="none" stroke="#111" stroke-width="1.6"/><rect x="20.11" y="33.24" width="0.99" height="0.99" fill="none" stroke="#111" stroke-width="1.6"/><rect x="20.11" y="35.22" width="0.99" height="0.99" fill="none" stroke="#111" stroke-width="1.6"/><rect x="20.11" y="37.2" width="0.99" height="0.99" fill="none" stroke="#111" stroke-width="1.6"/><rect x="20.11" y="39.18" width="0.99" height="0.99" fill="none" stroke="#111" stroke-width="1.6"/></svg>