<svg xmlns="http://www.w3.org/2000/svg" width="96" height="64" viewBox="0 0 96 64"><polyline points="10.84,12.46 10.84,20.53" fill="none" stroke="#111" stroke-width="1.6" stroke-linecap="round" stroke-linejoin="round"/><polyline points="10.84,12.46 10.84,20.53 10.84,20.53" fill="none" stroke="#111" stroke-width="1.6" stroke-linecap="round" stroke-linejoin="round"/><polyline points="10.84,16.5 6.81,16.5" fill="none" stroke="#111" stroke-width="1.6" stroke-linecap="round" stroke-linejoin="round"/><polyline points="10.84,16.5 18.92,16.5" fill="none" stroke="#111" stroke-width="1.6" stroke-linecap="round" stroke-linejoin="round"/><polyline points="10.84,28.61 10.84,36.68" fill="none" stroke="#111" stroke-width="1.6" stroke-linecap="round" stroke-linejoin="round"/><polyline points="10.84,28.61 10.84,36.68 10.84,36.68" fill="none" stroke="#111" stroke-width="1.6" stroke-linecap="round" stroke-linejoin="round"/><polyline points="10.84,32.65 6.81,32.65" fill="none" stroke="#111" stroke-width="1.6" stroke-linecap="round" stroke-linejoin="round"/><polyline points="10.84,44.76 10.84,52.83" fill="none" stroke="#111" stroke-width="1.6" stroke-linecap="round" stroke-linejoin="round"/><polyline points="10.84,48.8 6.81,48.8" fill="none" stroke="#111" stroke-width="1.6" stroke-linecap="round" stroke-linejoin="round"/><polyline points="11.65,12.46 16.5,7.61 14.07,7.61 16.5,7.61 16.5,10.04" fill="none" stroke="#111" stroke-width="1.6" stroke-linecap="round" stroke-linejoin="round"/><polyline points="11.65,28.61 16.5,23.76 14.07,23.76 16.5,23.76 16.5,26.19" fill="none" stroke="#111" stroke-width="1.6" stroke-linecap="round" stroke-linejoin="round"/><polyline points="11.65,32.65 18.92,32.65" fill="none" stroke="#111" stroke-width="1.6" stroke-linecap="round" stroke-linejoin="round"/><polyline points="11.65,44.76 16.5,39.91 14.07,39.91 16.5,39.91 16.5,42.34" fill="none" stroke="#111" stroke-width="1.6" stroke-linecap="round" stroke-linejoin="round"/><polyline points="14.88,12.46 19.73,7.61 17.3,7.61 19.73,7.61 19.73,10.04" fill="none" stroke="#111" stroke-width="1.6" stroke-linecap="round" stroke-linejoin="round"/><polyline points="14.88,28.61 19.73,23.76 17.3,23.76 19.73,23.76 19.73,26.19" fill="none" stroke="#111" stroke-width="1.6" stroke-linecap="round" stroke-linejoin="round"/><polyline points="14.88,44.76 19.73,39.91 17.3,39.91 19.73,39.91 19.73,42.34" fill="none" stroke="#111" stroke-width="1.6" stroke-linecap="round" stroke-linejoin="round"/><circle cx="14.88" cy="56.87" r="1.13" fill="none" stroke="#111" stroke-width="1.6"/><polyline points="18.92,12.46 18.92,20.53 10.84,16.5 18.92,12.46" fill="none" stroke="#111" stroke-width="1.6" stroke-linecap="round" stroke-linejoin="round"/><rect x="18.92" y="12.46" width="0" height="0" fill="none" stroke="#111" stroke-width="1.6"/><polyline points="18.92,16.5 22.96,16.5" fill="none" stroke="#111" stroke-width="1.6" stroke-linecap="round" stroke-linejoin="round"/><rect x="18.92" y="12.46" width="0" height="8.07" fill="none" stroke="#111" stroke-width="1.6"/><polyline points="18.92,28.61 18.92,36.68 10.84,32.65 18.92,28.61" fill="none" stroke="#111" stroke-width="1.6" stroke-linecap="round" stroke-linejoin="round"/><rect x="18.92" y="28.61" width="0" height="0" fill="none" stroke="#111" stroke-width="1.6"/><rect x="18.92" y="28.61" width="0" height="8.07" fill="none" stroke="#111" stroke-width="1.6"/><polyline points="18.92,44.76 18.92,52.83 10.84,48.8 18.92,44.76" fill="none" stroke="#111" stroke-width="1.6" stroke-linecap="round" stroke-linejoin="round"/><polyline points="18.92,48.8 10.84,48.8" fill="none" stroke="#111" stroke-width="1.6" stroke-linecap="round" stroke-linejoin="round"/><polyline points="18.92,48.8 22.96,48.8" fill="none" stroke="#111" stroke-width="1.6" stroke-linecap="round" stroke-linejoin="round"/><polyline points="22.96,32.65 18.92,32.65" fill="none" stroke="#111" stroke-width="1.6" stroke-linecap="round" stroke-linejoin="round"/><rect x="6" y="6" width="17.76" height="50.87" fill="none" stroke="#111" stroke-width="1.6"/></svg>