<svg xmlns="http://www.w3.org/2000/svg" width="96" height="64" viewBox="0 0 96 64"><rect x="6" y="6" width="84" height="15" fill="none" stroke="#111" stroke-width="1.6"/><rect x="7.2" y="9.9" width="3.6" height="9.6" fill="none" stroke="#111" stroke-width="1.6"/><polyline points="9,9.9 9,8.1 15,8.1 15,19.5" fill="none" stroke="#111" stroke-width="1.6" stroke-linecap="round" stroke-linejoin="round"/><rect x="25.2" y="9.9" width="3.6" height="9.6" fill="none" stroke="#111" stroke-width="1.6"/><polyline points="27,9.9 27,8.1 33,8.1 33,19.5" fill="none" stroke="#111" stroke-width="1.6" stroke-linecap="round" stroke-linejoin="round"/><rect x="43.2" y="9.9" width="3.6" height="9.6" fill="none" stroke="#111" stroke-width="1.6"/><polyline points="45,9.9 45,8.1 51,8.1 51,19.5" fill="none" stroke="#111" stroke-width="1.6" stroke-linecap="round" stroke-linejoin="round"/><rect x="61.2" y="9.9" width="3.6" height="9.6" fill="none" stroke="#111" stroke-width="1.6"/><polyline points="63,9.9 63,8.1 69,8.1 69,19.5" fill="none" stroke="#111" stroke-width="1.6" stroke-linecap="round" stroke-linejoin="round"/><rect x="79.2" y="9.9" width="3.6" height="9.6" fill="none" stroke="#111" stroke-width="1.6"/><polyline points="81,9.9 81,8.1 87,8.1 87,19.5" fill="none" stroke="#111" stroke-width="1.6" stroke-linecap="round" stroke-linejoin="round"/></svg>