<svg xmlns="http://www.w3.org/2000/svg" width="96" height="64" viewBox="0 0 96 64"><rect x="6" y="6" width="6.5" height="52" fill="none" stroke="#111" stroke-width="1.6"/><polyline points="7.88,8.41 10.09,10.55" fill="none" stroke="#111" stroke-width="1.6" stroke-linecap="round" stroke-linejoin="round"/><polyline points="7.88,14.91 10.09,17.05" fill="none" stroke="#111" stroke-width="1.6" stroke-linecap="round" stroke-linejoin="round"/><polyline points="7.88,21.41 10.09,23.55" fill="none" stroke="#111" stroke-width="1.6" stroke-linecap="round" stroke-linejoin="round"/><polyline points="7.88,27.91 10.09,30.05" fill="none" stroke="#111" stroke-width="1.6" stroke-linecap="round" stroke-linejoin="round"/><polyline points="7.88,34.41 10.09,36.55" fill="none" stroke="#111" stroke-width="1.6" stroke-linecap="round" stroke-linejoin="round"/><polyline points="7.88,40.91 10.09,43.05" fill="none" stroke="#111" stroke-width="1.6" stroke-linecap="round" stroke-linejoin="round"/><polyline points="7.88,47.41 10.09,49.55" fill="none" stroke="#111" stroke-width="1.6" stroke-linecap="round" stroke-linejoin="round"/><polyline points="7.88,53.9 10.09,56.05" fill="none" stroke="#111" stroke-width="1.6" stroke-linecap="round" stroke-linejoin="round"/><polyline points="8.34,7.95 10.55,10.1" fill="none" stroke="#111" stroke-width="1.6" stroke-linecap="round" stroke-linejoin="round"/><polyline points="8.34,14.45 10.55,16.6" fill="none" stroke="#111" stroke-width="1.6" stroke-linecap="round" stroke-linejoin="round"/><polyline points="8.34,20.95 10.55,23.1" fill="none" stroke="#111" stroke-width="1.6" stroke-linecap="round" stroke-linejoin="round"/><polyline points="8.34,27.45 10.55,29.59" fill="none" stroke="#111" stroke-width="1.6" stroke-linecap="round" stroke-linejoin="round"/><polyline points="8.34,33.95 10.55,36.09" fill="none" stroke="#111" stroke-width="1.6" stroke-linecap="round" stroke-linejoin="round"/><polyline points="8.34,40.45 10.55,42.59" fill="none" stroke="#111" stroke-width="1.6" stroke-linecap="round" stroke-linejoin="round"/><polyline points="8.34,46.95 10.55,49.09" fill="none" stroke="#111" stroke-width="1.6" stroke-linecap="round" stroke-linejoin="round"/><polyline points="8.34,53.45 10.55,55.6" fill="none" stroke="#111" stroke-width="1.6" stroke-linecap="round" stroke-linejoin="round"/><circle cx="9.25" cy="9.25" r="1.62" fill="none" stroke="#111" stroke-width="1.6"/><circle cx="9.25" cy="15.75" r="1.62" fill="none" stroke="#111" stroke-width="1.6"/><circle cx="9.25" cy="22.25" r="1.62" fill="none" stroke="#111" stroke-width="1.6"/><circle cx="9.25" cy="28.75" r="1.62" fill="none" stroke="#111" stroke-width="1.6"/><circle cx="9.25" cy="35.25" r="1.62" fill="none" stroke="#111" stroke-width="1.6"/><circle cx="9.25" cy="41.75" r="1.62" fill="none" stroke="#111" stroke-width="1.6"/><circle cx="9.25" cy="48.25" r="1.62" fill="none" stroke="#111" stroke-width="1.6"/><circle cx="9.25" cy="54.75" r="1.62" fill="none" stroke="#111" stroke-width="1.6"/></svg>