<svg xmlns="http://www.w3.org/2000/svg" width="96" height="64" viewBox="0 0 96 64"><rect x="6" y="6" width="57.78" height="52" fill="none" stroke="#111" stroke-width="1.6"/><circle cx="20.44" cy="26.22" r="0.29" fill="none" stroke="#111" stroke-width="1.6"/><circle cx="20.44" cy="26.22" r="0.58" fill="none" stroke="#111" stroke-width="1.6"/><polyline points="20.44,26.22 20.44,14.67 23.33,14.67 23.33,14.67" fill="none" stroke="#111" stroke-width="1.6" stroke-linecap="round" stroke-linejoin="round"/><circle cx="20.44" cy="37.78" r="0.29" fill="none" stroke="#111" stroke-width="1.6"/><circle cx="20.44" cy="37.78" r="0.58" fill="none" stroke="#111" stroke-width="1.6"/><polyline points="23.33,8.89 23.33,20.44 34.89,14.67 23.33,8.89 23.33,8.89" fill="none" stroke="#111" stroke-width="1.6" stroke-linecap="round" stroke-linejoin="round"/><polyline points="23.33,26.22 17.56,26.22 17.56,26.22" fill="none" stroke="#111" stroke-width="1.6" stroke-linecap="round" stroke-linejoin="round"/><polyline points="23.33,32 23.33,43.56 34.89,37.78 23.33,32 23.33,32" fill="none" stroke="#111" stroke-width="1.6" stroke-linecap="round" stroke-linejoin="round"/><polyline points="23.33,37.78 17.56,37.78" fill="none" stroke="#111" stroke-width="1.6" stroke-linecap="round" stroke-linejoin="round"/><polyline points="23.33,49.33 20.44,49.33 20.44,37.78" fill="none" stroke="#111" stroke-width="1.6" stroke-linecap="round" stroke-linejoin="round"/><polyline points="34.89,14.67 40.67,14.67 40.67,14.67" fill="none" stroke="#111" stroke-width="1.6" stroke-linecap="round" stroke-linejoin="round"/><polyline points="34.89,20.44 23.33,26.22 34.89,32 34.89,20.44 34.89,20.44" fill="none" stroke="#111" stroke-width="1.6" stroke-linecap="round" stroke-linejoin="round"/><polyline points="34.89,37.78 40.67,37.78" fill="none" stroke="#111" stroke-width="1.6" stroke-linecap="round" stroke-linejoin="round"/><polyline points="34.89,43.56 23.33,49.33 34.89,55.11 34.89,43.56 34.89,43.56" fill="none" stroke="#111" stroke-width="1.6" stroke-linecap="round" stroke-linejoin="round"/><polyline points="34.89,49.33 40.67,49.33" fill="none" stroke="#111" stroke-width="1.6" stroke-linecap="round" stroke-linejoin="round"/><polyline points="40.67,26.22 34.89,26.22 34.89,26.22" fill="none" stroke="#111" stroke-width="1.6" stroke-linecap="round" stroke-linejoin="round"/></svg>