<svg xmlns="http://www.w3.org/2000/svg" width="96" height="64" viewBox="0 0 96 64"><rect x="6" y="6" width="30.59" height="52" fill="none" stroke="#111" stroke-width="1.6"/><polyline points="18.24,25.12 18.24,29.71 22.82,27.41 18.24,25.12" fill="none" stroke="#111" stroke-width="1.6" stroke-linecap="round" stroke-linejoin="round"/><polyline points="18.24,27.41 15.18,27.41" fill="none" stroke="#111" stroke-width="1.6" stroke-linecap="round" stroke-linejoin="round"/><polyline points="18.24,31.24 18.24,35.82 22.82,33.53 18.24,31.24" fill="none" stroke="#111" stroke-width="1.6" stroke-linecap="round" stroke-linejoin="round"/><circle cx="23.59" cy="27.41" r="0.76" fill="none" stroke="#111" stroke-width="1.6"/><circle cx="23.59" cy="33.53" r="0.76" fill="none" stroke="#111" stroke-width="1.6"/><polyline points="24.35,27.41 27.41,27.41" fill="none" stroke="#111" stroke-width="1.6" stroke-linecap="round" stroke-linejoin="round"/><polyline points="18.24,33.53 15.18,33.53" fill="none" stroke="#111" stroke-width="1.6" stroke-linecap="round" stroke-linejoin="round"/><polyline points="18.24,39.65 15.18,39.65" fill="none" stroke="#111" stroke-width="1.6" stroke-linecap="round" stroke-linejoin="round"/><polyline points="18.24,45.76 15.18,45.76" fill="none" stroke="#111" stroke-width="1.6" stroke-linecap="round" stroke-linejoin="round"/><circle cx="19" cy="39.65" r="0.76" fill="none" stroke="#111" stroke-width="1.6"/><circle cx="19" cy="45.76" r="0.76" fill="none" stroke="#111" stroke-width="1.6"/><polyline points="24.35,33.53 27.41,33.53" fill="none" stroke="#111" stroke-width="1.6" stroke-linecap="round" stroke-linejoin="round"/><polyline points="24.35,39.65 27.41,39.65" fill="none" stroke="#111" stroke-width="1.6" stroke-linecap="round" stroke-linejoin="round"/><polyline points="24.35,41.94 24.35,37.35 19.76,39.65 24.35,41.94" fill="none" stroke="#111" stroke-width="1.6" stroke-linecap="round" stroke-linejoin="round"/><polyline points="24.35,45.76 27.41,45.76" fill="none" stroke="#111" stroke-width="1.6" stroke-linecap="round" stroke-linejoin="round"/><polyline points="24.35,48.06 24.35,43.47 19.76,45.76 24.35,48.06" fill="none" stroke="#111" stroke-width="1.6" stroke-linecap="round" stroke-linejoin="round"/></svg>