<svg xmlns="http://www.w3.org/2000/svg" width="96" height="64" viewBox="0 0 96 64"><polyline points="6,6.2 6.3,6.2" fill="none" stroke="#111" stroke-width="1.6" stroke-linecap="round" stroke-linejoin="round"/><polyline points="6,7.19 6.3,7.19" fill="none" stroke="#111" stroke-width="1.6" stroke-linecap="round" stroke-linejoin="round"/><polyline points="6,8.18 6.3,8.18" fill="none" stroke="#111" stroke-width="1.6" stroke-linecap="round" stroke-linejoin="round"/><polyline points="6,9.18 6.3,9.18" fill="none" stroke="#111" stroke-width="1.6" stroke-linecap="round" stroke-linejoin="round"/><polyline points="6,10.17 6.3,10.17" fill="none" stroke="#111" stroke-width="1.6" stroke-linecap="round" stroke-linejoin="round"/><polyline points="6,11.16 6.3,11.16" fill="none" stroke="#111" stroke-width="1.6" stroke-linecap="round" stroke-linejoin="round"/><polyline points="6,12.15 6.3,12.15" fill="none" stroke="#111" stroke-width="1.6" stroke-linecap="round" stroke-linejoin="round"/><polyline points="6,13.15 6.3,13.15" fill="none" stroke="#111" stroke-width="1.6" stroke-linecap="round" stroke-linejoin="round"/><polyline points="6,14.14 6.3,14.14" fill="none" stroke="#111" stroke-width="1.6" stroke-linecap="round" stroke-linejoin="round"/><polyline points="6,15.13 6.3,15.13" fill="none" stroke="#111" stroke-width="1.6" stroke-linecap="round" stroke-linejoin="round"/><polyline points="6,16.12 6.3,16.12" fill="none" stroke="#111" stroke-width="1.6" stroke-linecap="round" stroke-linejoin="round"/><polyline points="6,17.11 6.3,17.11" fill="none" stroke="#111" stroke-width="1.6" stroke-linecap="round" stroke-linejoin="round"/><polyline points="6,18.11 6.3,18.11" fill="none" stroke="#111" stroke-width="1.6" stroke-linecap="round" stroke-linejoin="round"/><polyline points="6,19.1 6.3,19.1" fill="none" stroke="#111" stroke-width="1.6" stroke-linecap="round" stroke-linejoin="round"/><polyline points="6,20.09 6.3,20.09" fill="none" stroke="#111" stroke-width="1.6" stroke-linecap="round" stroke-linejoin="round"/><polyline points="6,21.08 6.3,21.08" fill="none" stroke="#111" stroke-width="1.6" stroke-linecap="round" stroke-linejoin="round"/><polyline points="6,22.08 6.3,22.08" fill="none" stroke="#111" stroke-width="1.6" stroke-linecap="round" stroke-linejoin="round"/><polyline points="6,23.07 6.3,23.07" fill="none" stroke="#111" stroke-width="1.6" stroke-linecap="round" stroke-linejoin="round"/><polyline points="6,24.06 6.3,24.06" fill="none" stroke="#111" stroke-width="1.6" stroke-linecap="round" stroke-linejoin="round"/><polyline points="6,25.05 6.3,25.05" fill="none" stroke="#111" stroke-width="1.6" stroke-linecap="round" stroke-linejoin="round"/><polyline points="6,26.05 6.3,26.05" fill="none" stroke="#111" stroke-width="1.6" stroke-linecap="round" stroke-linejoin="round"/><polyline points="6,27.04 6.3,27.04" fill="none" stroke="#111" stroke-width="1.6" stroke-linecap="round" stroke-linejoin="round"/><polyline points="6,28.03 6.3,28.03" fill="none" stroke="#111" stroke-width="1.6" stroke-linecap="round" stroke-linejoin="round"/><polyline points="6,29.02 6.3,29.02" fill="none" stroke="#111" stroke-width="1.6" stroke-linecap="round" stroke-linejoin="round"/><polyline points="6,30.02 6.3,30.02" fill="none" stroke="#111" stroke-width="1.6" stroke-linecap="round" stroke-linejoin="round"/><polyline points="6,31.01 6.3,31.01" fill="none" stroke="#111" stroke-width="1.6" stroke-linecap="round" stroke-linejoin="round"/><polyline points="6,32 6.3,32" fill="none" stroke="#111" stroke-width="1.6" stroke-linecap="round" stroke-linejoin="round"/><polyline points="6,32.99 6.3,32.99" fill="none" stroke="#111" stroke-width="1.6" stroke-linecap="round" stroke-linejoin="round"/><polyline points="6,33.98 6.3,33.98" fill="none" stroke="#111" stroke-width="1.6" stroke-linecap="round" stroke-linejoin="round"/><polyline points="6,34.98 6.3,34.98" fill="none" stroke="#111" stroke-width="1.6" stroke-linecap="round" stroke-linejoin="round"/><polyline points="6,35.97 6.3,35.97" fill="none" stroke="#111" stroke-width="1.6" stroke-linecap="round" stroke-linejoin="round"/><polyline points="6,36.96 6.3,36.96" fill="none" stroke="#111" stroke-width="1.6" stroke-linecap="round" stroke-linejoin="round"/><polyline points="6,37.95 6.3,37.95" fill="none" stroke="#111" stroke-width="1.6" stroke-linecap="round" stroke-linejoin="round"/><polyline points="6,38.95 6.3,38.95" fill="none" stroke="#111" stroke-width="1.6" stroke-linecap="round" stroke-linejoin="round"/><polyline points="6,39.94 6.3,39.94" fill="none" stroke="#111" stroke-width="1.6" stroke-linecap="round" stroke-linejoin="round"/><polyline points="6,40.93 6.3,40.93" fill="none" stroke="#111" stroke-width="1.6" stroke-linecap="round" stroke-linejoin="round"/><polyline points="6,41.92 6.3,41.92" fill="none" stroke="#111" stroke-width="1.6" stroke-linecap="round" stroke-linejoin="round"/><polyline points="6,42.92 6.3,42.92" fill="none" stroke="#111" stroke-width="1.6" stroke-linecap="round" stroke-linejoin="round"/><polyline points="6,43.91 6.3,43.91" fill="none" stroke="#111" stroke-width="1.6" stroke-linecap="round" stroke-linejoin="round"/><polyline points="6,44.9 6.3,44.9" fill="none" stroke="#111" stroke-width="1.6" stroke-linecap="round" stroke-linejoin="round"/><polyline points="6,45.89 6.3,45.89" fill="none" stroke="#111" stroke-width="1.6" stroke-linecap="round" stroke-linejoin="round"/><polyline points="6,46.89 6.3,46.89" fill="none" stroke="#111" stroke-width="1.6" stroke-linecap="round" stroke-linejoin="round"/><polyline points="6,47.88 6.3,47.88" fill="none" stroke="#111" stroke-width="1.6" stroke-linecap="round" stroke-linejoin="round"/><polyline points="6,48.87 6.3,48.87" fill="none" stroke="#111" stroke-width="1.6" stroke-linecap="round" stroke-linejoin="round"/><polyline points="6,49.86 6.3,49.86" fill="none" stroke="#111" stroke-width="1.6" stroke-linecap="round" stroke-linejoin="round"/><polyline points="6,50.85 6.3,50.85" fill="none" stroke="#111" stroke-width="1.6" stroke-linecap="round" stroke-linejoin="round"/><polyline points="6,51.85 6.3,51.85" fill="none" stroke="#111" stroke-width="1.6" stroke-linecap="round" stroke-linejoin="round"/><polyline points="6,52.84 6.3,52.84" fill="none" stroke="#111" stroke-width="1.6" stroke-linecap="round" stroke-linejoin="round"/><polyline points="6,53.83 6.3,53.83" fill="none" stroke="#111" stroke-width="1.6" stroke-linecap="round" stroke-linejoin="round"/><polyline points="6,54.82 6.3,54.82" fill="none" stroke="#111" stroke-width="1.6" stroke-linecap="round" stroke-linejoin="round"/><polyline points="6,55.82 6.3,55.82" fill="none" stroke="#111" stroke-width="1.6" stroke-linecap="round" stroke-linejoin="round"/><polyline points="6,56.81 6.3,56.81" fill="none" stroke="#111" stroke-width="1.6" stroke-linecap="round" stroke-linejoin="round"/><polyline points="6,57.8 6.3,57.8" fill="none" stroke="#111" stroke-width="1.6" stroke-linecap="round" stroke-linejoin="round"/><path d="M 6.5 6.4 Q 6.3 6.2 6.5 6" fill="none" stroke="#111" stroke-width="1.6" stroke-linecap="round"/><path d="M 6.5 7.39 Q 6.3 7.19 6.5 6.99" fill="none" stroke="#111" stroke-width="1.6" stroke-linecap="round"/><path d="M 6.5 8.38 Q 6.3 8.18 6.5 7.98" fill="none" stroke="#111" stroke-width="1.6" stroke-linecap="round"/><path d="M 6.5 9.37 Q 6.3 9.18 6.5 8.98" fill="none" stroke="#111" stroke-width="1.6" stroke-linecap="round"/><path d="M 6.5 10.37 Q 6.3 10.17 6.5 9.97" fill="none" stroke="#111" stroke-width="1.6" stroke-linecap="round"/><path d="M 6.5 11.36 Q 6.3 11.16 6.5 10.96" fill="none" stroke="#111" stroke-width="1.6" stroke-linecap="round"/><path d="M 6.5 12.35 Q 6.3 12.15 6.5 11.95" fill="none" stroke="#111" stroke-width="1.6" stroke-linecap="round"/><path d="M 6.5 13.34 Q 6.3 13.15 6.5 12.95" fill="none" stroke="#111" stroke-width="1.6" stroke-linecap="round"/><path d="M 6.5 14.34 Q 6.3 14.14 6.5 13.94" fill="none" stroke="#111" stroke-width="1.6" stroke-linecap="round"/><path d="M 6.5 15.33 Q 6.3 15.13 6.5 14.93" fill="none" stroke="#111" stroke-width="1.6" stroke-linecap="round"/><path d="M 6.5 16.32 Q 6.3 16.12 6.5 15.92" fill="none" stroke="#111" stroke-width="1.6" stroke-linecap="round"/><path d="M 6.5 17.31 Q 6.3 17.11 6.5 16.92" fill="none" stroke="#111" stroke-width="1.6" stroke-linecap="round"/><path d="M 6.5 18.31 Q 6.3 18.11 6.5 17.91" fill="none" stroke="#111" stroke-width="1.6" stroke-linecap="round"/><path d="M 6.5 19.3 Q 6.3 19.1 6.5 18.9" fill="none" stroke="#111" stroke-width="1.6" stroke-linecap="round"/><path d="M 6.5 20.29 Q 6.3 20.09 6.5 19.89" fill="none" stroke="#111" stroke-width="1.6" stroke-linecap="round"/><path d="M 6.5 21.28 Q 6.3 21.08 6.5 20.89" fill="none" stroke="#111" stroke-width="1.6" stroke-linecap="round"/><path d="M 6.5 22.27 Q 6.3 22.08 6.5 21.88" fill="none" stroke="#111" stroke-width="1.6" stroke-linecap="round"/><path d="M 6.5 23.27 Q 6.3 23.07 6.5 22.87" fill="none" stroke="#111" stroke-width="1.6" stroke-linecap="round"/><path d="M 6.5 24.26 Q 6.3 24.06 6.5 23.86" fill="none" stroke="#111" stroke-width="1.6" stroke-linecap="round"/><path d="M 6.5 25.25 Q 6.3 25.05 6.5 24.85" fill="none" stroke="#111" stroke-width="1.6" stroke-linecap="round"/><path d="M 6.5 26.24 Q 6.3 26.05 6.5 25.85" fill="none" stroke="#111" stroke-width="1.6" stroke-linecap="round"/><path d="M 6.5 27.24 Q 6.3 27.04 6.5 26.84" fill="none" stroke="#111" stroke-width="1.6" stroke-linecap="round"/><path d="M 6.5 28.23 Q 6.3 28.03 6.5 27.83" fill="none" stroke="#111" stroke-width="1.6" stroke-linecap="round"/><path d="M 6.5 29.22 Q 6.3 29.02 6.5 28.82" fill="none" stroke="#111" stroke-width="1.6" stroke-linecap="round"/><path d="M 6.5 30.21 Q 6.3 30.02 6.5 29.82" fill="none" stroke="#111" stroke-width="1.6" stroke-linecap="round"/><path d="M 6.5 31.21 Q 6.3 31.01 6.5 30.81" fill="none" stroke="#111" stroke-width="1.6" stroke-linecap="round"/><path d="M 6.5 32.2 Q 6.3 32 6.5 31.8" fill="none" stroke="#111" stroke-width="1.6" stroke-linecap="round"/><path d="M 6.5 33.19 Q 6.3 32.99 6.5 32.79" fill="none" stroke="#111" stroke-width="1.6" stroke-linecap="round"/><path d="M 6.5 34.18 Q 6.3 33.98 6.5 33.79" fill="none" stroke="#111" stroke-width="1.6" stroke-linecap="round"/><path d="M 6.5 35.18 Q 6.3 34.98 6.5 34.78" fill="none" stroke="#111" stroke-width="1.6" stroke-linecap="round"/><path d="M 6.5 36.17 Q 6.3 35.97 6.5 35.77" fill="none" stroke="#111" stroke-width="1.6" stroke-linecap="round"/><path d="M 6.5 37.16 Q 6.3 36.96 6.5 36.76" fill="none" stroke="#111" stroke-width="1.6" stroke-linecap="round"/><path d="M 6.5 38.15 Q 6.3 37.95 6.5 37.76" fill="none" stroke="#111" stroke-width="1.6" stroke-linecap="round"/><path d="M 6.5 39.15 Q 6.3 38.95 6.5 38.75" fill="none" stroke="#111" stroke-width="1.6" stroke-linecap="round"/><path d="M 6.5 40.14 Q 6.3 39.94 6.5 39.74" fill="none" stroke="#111" stroke-width="1.6" stroke-linecap="round"/><path d="M 6.5 41.13 Q 6.3 40.93 6.5 40.73" fill="none" stroke="#111" stroke-width="1.6" stroke-linecap="round"/><path d="M 6.5 42.12 Q 6.3 41.92 6.5 41.73" fill="none" stroke="#111" stroke-width="1.6" stroke-linecap="round"/><path d="M 6.5 43.11 Q 6.3 42.92 6.5 42.72" fill="none" stroke="#111" stroke-width="1.6" stroke-linecap="round"/><path d="M 6.5 44.11 Q 6.3 43.91 6.5 43.71" fill="none" stroke="#111" stroke-width="1.6" stroke-linecap="round"/><path d="M 6.5 45.1 Q 6.3 44.9 6.5 44.7" fill="none" stroke="#111" stroke-width="1.6" stroke-linecap="round"/><path d="M 6.5 46.09 Q 6.3 45.89 6.5 45.69" fill="none" stroke="#111" stroke-width="1.6" stroke-linecap="round"/><path d="M 6.5 47.08 Q 6.3 46.89 6.5 46.69" fill="none" stroke="#111" stroke-width="1.6" stroke-linecap="round"/><path d="M 6.5 48.08 Q 6.3 47.88 6.5 47.68" fill="none" stroke="#111" stroke-width="1.6" stroke-linecap="round"/><path d="M 6.5 49.07 Q 6.3 48.87 6.5 48.67" fill="none" stroke="#111" stroke-width="1.6" stroke-linecap="round"/><path d="M 6.5 50.06 Q 6.3 49.86 6.5 49.66" fill="none" stroke="#111" stroke-width="1.6" stroke-linecap="round"/><path d="M 6.5 51.05 Q 6.3 50.85 6.5 50.66" fill="none" stroke="#111" stroke-width="1.6" stroke-linecap="round"/><path d="M 6.5 52.05 Q 6.3 51.85 6.5 51.65" fill="none" stroke="#111" stroke-width="1.6" stroke-linecap="round"/><path d="M 6.5 53.04 Q 6.3 52.84 6.5 52.64" fill="none" stroke="#111" stroke-width="1.6" stroke-linecap="round"/><path d="M 6.5 54.03 Q 6.3 53.83 6.5 53.63" fill="none" stroke="#111" stroke-width="1.6" stroke-linecap="round"/><path d="M 6.5 55.02 Q 6.3 54.82 6.5 54.63" fill="none" stroke="#111" stroke-width="1.6" stroke-linecap="round"/><path d="M 6.5 56.02 Q 6.3 55.82 6.5 55.62" fill="none" stroke="#111" stroke-width="1.6" stroke-linecap="round"/><path d="M 6.5 57.01 Q 6.3 56.81 6.5 56.61" fill="none" stroke="#111" stroke-width="1.6" stroke-linecap="round"/><path d="M 6.5 58 Q 6.3 57.8 6.5 57.6" fill="none" stroke="#111" stroke-width="1.6" stroke-linecap="round"/></svg>