<svg xmlns="http://www.w3.org/2000/svg" width="96" height="64" viewBox="0 0 96 64"><rect x="6" y="20.89" width="14.68" height="23.27" fill="none" stroke="#111" stroke-width="1.6"/><rect x="6" y="20.89" width="14.68" height="23.27" fill="none" stroke="#111" stroke-width="1.6"/><rect x="6" y="20.89" width="14.68" height="23.27" fill="none" stroke="#111" stroke-width="1.6"/><rect x="6" y="20.89" width="14.68" height="23.27" fill="none" stroke="#111" stroke-width="1.6"/><rect x="6" y="20.89" width="14.68" height="23.27" fill="none" stroke="#111" stroke-width="1.6"/><rect x="6" y="20.89" width="14.68" height="23.27" fill="none" stroke="#111" stroke-width="1.6"/><rect x="6" y="20.89" width="14.68" height="23.27" fill="none" stroke="#111" stroke-width="1.6"/><rect x="6" y="20.89" width="14.68" height="23.27" fill="none" stroke="#111" stroke-width="1.6"/><rect x="6" y="20.89" width="14.68" height="23.27" fill="none" stroke="#111" stroke-width="1.6"/><rect x="6" y="20.89" width="14.68" height="23.27" fill="none" stroke="#111" stroke-width="1.6"/><rect x="6" y="20.89" width="14.68" height="23.27" fill="none" stroke="#111" stroke-width="1.6"/><rect x="6" y="20.89" width="14.68" height="23.27" fill="none" stroke="#111" stroke-width="1.6"/><rect x="8.1" y="26.97" width="10.48" height="10.06" fill="none" stroke="#111" stroke-width="1.6"/><rect x="8.1" y="26.97" width="10.48" height="10.06" fill="none" stroke="#111" stroke-width="1.6"/><rect x="8.1" y="28.23" width="10.48" height="7.54" fill="none" stroke="#111" stroke-width="1.6"/><rect x="8.1" y="26.34" width="10.48" height="12.37" fill="none" stroke="#111" stroke-width="1.6"/><rect x="10.19" y="8.94" width="6.29" height="46.12" fill="none" stroke="#111" stroke-width="1.6"/><rect x="10.19" y="6" width="6.29" height="52" fill="none" stroke="#111" stroke-width="1.6"/></svg>