<svg xmlns="http://www.w3.org/2000/svg" width="96" height="64" viewBox="0 0 96 64"><rect x="6" y="6" width="1.75" height="0.51" fill="none" stroke="#111" stroke-width="1.6"/><rect x="6" y="11.15" width="1.75" height="0.51" fill="none" stroke="#111" stroke-width="1.6"/><rect x="6" y="16.3" width="1.75" height="0.51" fill="none" stroke="#111" stroke-width="1.6"/><rect x="6" y="21.45" width="1.75" height="0.51" fill="none" stroke="#111" stroke-width="1.6"/><rect x="6" y="26.59" width="1.75" height="0.52" fill="none" stroke="#111" stroke-width="1.6"/><rect x="6" y="31.74" width="1.75" height="0.52" fill="none" stroke="#111" stroke-width="1.6"/><rect x="6" y="36.89" width="1.75" height="0.52" fill="none" stroke="#111" stroke-width="1.6"/><rect x="6" y="42.04" width="1.75" height="0.51" fill="none" stroke="#111" stroke-width="1.6"/><rect x="6" y="47.19" width="1.75" height="0.51" fill="none" stroke="#111" stroke-width="1.6"/><rect x="6" y="52.34" width="1.75" height="0.51" fill="none" stroke="#111" stroke-width="1.6"/><rect x="6" y="57.49" width="1.75" height="0.51" fill="none" stroke="#111" stroke-width="1.6"/><polyline points="8.57,6.26 7.75,6.26" fill="none" stroke="#111" stroke-width="1.6" stroke-linecap="round" stroke-linejoin="round"/><polyline points="8.57,11.41 7.75,11.41" fill="none" stroke="#111" stroke-width="1.6" stroke-linecap="round" stroke-linejoin="round"/><polyline points="8.57,16.55 7.75,16.55" fill="none" stroke="#111" stroke-width="1.6" stroke-linecap="round" stroke-linejoin="round"/><polyline points="8.57,21.7 7.75,21.7" fill="none" stroke="#111" stroke-width="1.6" stroke-linecap="round" stroke-linejoin="round"/><polyline points="8.57,26.85 7.75,26.85" fill="none" stroke="#111" stroke-width="1.6" stroke-linecap="round" stroke-linejoin="round"/><polyline points="8.57,32 7.75,32" fill="none" stroke="#111" stroke-width="1.6" stroke-linecap="round" stroke-linejoin="round"/><polyline points="8.57,37.15 7.75,37.15" fill="none" stroke="#111" stroke-width="1.6" stroke-linecap="round" stroke-linejoin="round"/><polyline points="8.57,42.3 7.75,42.3" fill="none" stroke="#111" stroke-width="1.6" stroke-linecap="round" stroke-linejoin="round"/><polyline points="8.57,47.45 7.75,47.45" fill="none" stroke="#111" stroke-width="1.6" stroke-linecap="round" stroke-linejoin="round"/><polyline points="8.57,52.59 7.75,52.59" fill="none" stroke="#111" stroke-width="1.6" stroke-linecap="round" stroke-linejoin="round"/><polyline points="8.57,57.74 7.75,57.74" fill="none" stroke="#111" stroke-width="1.6" stroke-linecap="round" stroke-linejoin="round"/></svg>