<svg xmlns="http://www.w3.org/2000/svg" width="96" height="64" viewBox="0 0 96 64"><rect x="6" y="6" width="3.25" height="52" fill="none" stroke="#111" stroke-width="1.6"/><rect x="6.16" y="6.16" width="2.93" height="51.68" fill="none" stroke="#111" stroke-width="1.6"/><rect x="6.16" y="6.73" width="0.81" height="0.16" fill="none" stroke="#111" stroke-width="1.6"/><rect x="6.16" y="8.36" width="0.81" height="0.16" fill="none" stroke="#111" stroke-width="1.6"/><rect x="6.16" y="9.98" width="0.81" height="0.16" fill="none" stroke="#111" stroke-width="1.6"/><rect x="6.16" y="11.61" width="0.81" height="0.16" fill="none" stroke="#111" stroke-width="1.6"/><rect x="6.16" y="13.23" width="0.81" height="0.16" fill="none" stroke="#111" stroke-width="1.6"/><rect x="6.16" y="14.86" width="0.81" height="0.16" fill="none" stroke="#111" stroke-width="1.6"/><rect x="6.16" y="16.48" width="0.81" height="0.16" fill="none" stroke="#111" stroke-width="1.6"/><rect x="6.16" y="18.11" width="0.81" height="0.16" fill="none" stroke="#111" stroke-width="1.6"/><rect x="6.16" y="19.73" width="0.81" height="0.16" fill="none" stroke="#111" stroke-width="1.6"/><rect x="6.16" y="21.36" width="0.81" height="0.16" fill="none" stroke="#111" stroke-width="1.6"/><rect x="6.16" y="22.98" width="0.81" height="0.16" fill="none" stroke="#111" stroke-width="1.6"/><rect x="6.16" y="24.61" width="0.81" height="0.16" fill="none" stroke="#111" stroke-width="1.6"/><rect x="6.16" y="26.23" width="0.81" height="0.16" fill="none" stroke="#111" stroke-width="1.6"/><rect x="6.16" y="27.86" width="0.81" height="0.16" fill="none" stroke="#111" stroke-width="1.6"/><rect x="6.16" y="29.48" width="0.81" height="0.16" fill="none" stroke="#111" stroke-width="1.6"/><rect x="6.16" y="31.11" width="0.81" height="0.16" fill="none" stroke="#111" stroke-width="1.6"/><rect x="6.16" y="32.73" width="0.81" height="0.16" fill="none" stroke="#111" stroke-width="1.6"/><rect x="6.16" y="34.36" width="0.81" height="0.16" fill="none" stroke="#111" stroke-width="1.6"/><rect x="6.16" y="35.98" width="0.81" height="0.16" fill="none" stroke="#111" stroke-width="1.6"/><rect x="6.16" y="37.61" width="0.81" height="0.16" fill="none" stroke="#111" stroke-width="1.6"/><rect x="6.16" y="39.23" width="0.81" height="0.16" fill="none" stroke="#111" stroke-width="1.6"/><rect x="6.16" y="40.86" width="0.81" height="0.16" fill="none" stroke="#111" stroke-width="1.6"/><rect x="6.16" y="42.48" width="0.81" height="0.16" fill="none" stroke="#111" stroke-width="1.6"/><rect x="6.16" y="44.11" width="0.81" height="0.16" fill="none" stroke="#111" stroke-width="1.6"/><rect x="6.16" y="45.73" width="0.81" height="0.16" fill="none" stroke="#111" stroke-width="1.6"/><rect x="6.16" y="47.36" width="0.81" height="0.16" fill="none" stroke="#111" stroke-width="1.6"/><rect x="6.16" y="48.98" width="0.81" height="0.16" fill="none" stroke="#111" stroke-width="1.6"/><rect x="6.16" y="50.61" width="0.81" height="0.16" fill="none" stroke="#111" stroke-width="1.6"/><rect x="6.16" y="52.23" width="0.81" height="0.16" fill="none" stroke="#111" stroke-width="1.6"/><rect x="6.16" y="53.86" width="0.81" height="0.16" fill="none" stroke="#111" stroke-width="1.6"/><rect x="6.16" y="55.48" width="0.81" height="0.16" fill="none" stroke="#111" stroke-width="1.6"/><rect x="6.16" y="57.11" width="0.81" height="0.16" fill="none" stroke="#111" stroke-width="1.6"/><rect x="8.28" y="6.73" width="0.81" height="0.16" fill="none" stroke="#111" stroke-width="1.6"/><rect x="8.28" y="8.36" width="0.81" height="0.16" fill="none" stroke="#111" stroke-width="1.6"/><rect x="8.28" y="9.98" width="0.81" height="0.16" fill="none" stroke="#111" stroke-width="1.6"/><rect x="8.28" y="11.61" width="0.81" height="0.16" fill="none" stroke="#111" stroke-width="1.6"/><rect x="8.28" y="13.23" width="0.81" height="0.16" fill="none" stroke="#111" stroke-width="1.6"/><rect x="8.28" y="14.86" width="0.81" height="0.16" fill="none" stroke="#111" stroke-width="1.6"/><rect x="8.28" y="16.48" width="0.81" height="0.16" fill="none" stroke="#111" stroke-width="1.6"/><rect x="8.28" y="18.11" width="0.81" height="0.16" fill="none" stroke="#111" stroke-width="1.6"/><rect x="8.28" y="19.73" width="0.81" height="0.16" fill="none" stroke="#111" stroke-width="1.6"/><rect x="8.28" y="21.36" width="0.81" height="0.16" fill="none" stroke="#111" stroke-width="1.6"/><rect x="8.28" y="22.98" width="0.81" height="0.16" fill="none" stroke="#111" stroke-width="1.6"/><rect x="8.28" y="24.61" width="0.81" height="0.16" fill="none" stroke="#111" stroke-width="1.6"/><rect x="8.28" y="26.23" width="0.81" height="0.16" fill="none" stroke="#111" stroke-width="1.6"/><rect x="8.28" y="27.86" width="0.81" height="0.16" fill="none" stroke="#111" stroke-width="1.6"/><rect x="8.28" y="29.48" width="0.81" height="0.16" fill="none" stroke="#111" stroke-width="1.6"/><rect x="8.28" y="31.11" width="0.81" height="0.16" fill="none" stroke="#111" stroke-width="1.6"/><rect x="8.28" y="32.73" width="0.81" height="0.16" fill="none" stroke="#111" stroke-width="1.6"/><rect x="8.28" y="34.36" width="0.81" height="0.16" fill="none" stroke="#111" stroke-width="1.6"/><rect x="8.28" y="35.98" width="0.81" height="0.16" fill="none" stroke="#111" stroke-width="1.6"/><rect x="8.28" y="37.61" width="0.81" height="0.16" fill="none" stroke="#111" stroke-width="1.6"/><rect x="8.28" y="39.23" width="0.81" height="0.16" fill="none" stroke="#111" stroke-width="1.6"/><rect x="8.28" y="40.86" width="0.81" height="0.16" fill="none" stroke="#111" stroke-width="1.6"/><rect x="8.28" y="42.48" width="0.81" height="0.16" fill="none" stroke="#111" stroke-width="1.6"/><rect x="8.28" y="44.11" width="0.81" height="0.16" fill="none" stroke="#111" stroke-width="1.6"/><rect x="8.28" y="45.73" width="0.81" height="0.16" fill="none" stroke="#111" stroke-width="1.6"/><rect x="8.28" y="47.36" width="0.81" height="0.16" fill="none" stroke="#111" stroke-width="1.6"/><rect x="8.28" y="48.98" width="0.81" height="0.16" fill="none" stroke="#111" stroke-width="1.6"/><rect x="8.28" y="50.61" width="0.81" height="0.16" fill="none" stroke="#111" stroke-width="1.6"/><rect x="8.28" y="52.23" width="0.81" height="0.16" fill="none" stroke="#111" stroke-width="1.6"/><rect x="8.28" y="53.86" width="0.81" height="0.16" fill="none" stroke="#111" stroke-width="1.6"/><rect x="8.28" y="55.48" width="0.81" height="0.16" fill="none" stroke="#111" stroke-width="1.6"/></svg>