<svg xmlns="http://www.w3.org/2000/svg" width="96" height="64" viewBox="0 0 96 64"><rect x="6" y="6" width="84" height="42" fill="none" stroke="#111" stroke-width="1.6"/><rect x="9.36" y="16.92" width="10.08" height="26.88" fill="none" stroke="#111" stroke-width="1.6"/><circle cx="14.4" cy="11.88" r="1.68" fill="none" stroke="#111" stroke-width="1.6"/><polyline points="14.4,16.92 14.4,11.88 31.2,11.88 31.2,16.92" fill="none" stroke="#111" stroke-width="1.6" stroke-linecap="round" stroke-linejoin="round"/><polyline points="14.4,43.8 14.4,52.2" fill="none" stroke="#111" stroke-width="1.6" stroke-linecap="round" stroke-linejoin="round"/><rect x="26.16" y="16.92" width="10.08" height="26.88" fill="none" stroke="#111" stroke-width="1.6"/><circle cx="31.2" cy="11.88" r="1.68" fill="none" stroke="#111" stroke-width="1.6"/><polyline points="31.2,16.92 31.2,11.88 48,11.88 48,16.92" fill="none" stroke="#111" stroke-width="1.6" stroke-linecap="round" stroke-linejoin="round"/><polyline points="31.2,43.8 31.2,52.2" fill="none" stroke="#111" stroke-width="1.6" stroke-linecap="round" stroke-linejoin="round"/><rect x="42.96" y="16.92" width="10.08" height="26.88" fill="none" stroke="#111" stroke-width="1.6"/><circle cx="48" cy="11.88" r="1.68" fill="none" stroke="#111" stroke-width="1.6"/><polyline points="48,16.92 48,11.88 64.8,11.88 64.8,16.92" fill="none" stroke="#111" stroke-width="1.6" stroke-linecap="round" stroke-linejoin="round"/><polyline points="48,43.8 48,52.2" fill="none" stroke="#111" stroke-width="1.6" stroke-linecap="round" stroke-linejoin="round"/><rect x="59.76" y="16.92" width="10.08" height="26.88" fill="none" stroke="#111" stroke-width="1.6"/><circle cx="64.8" cy="11.88" r="1.68" fill="none" stroke="#111" stroke-width="1.6"/><polyline points="64.8,16.92 64.8,11.88 81.6,11.88 81.6,16.92" fill="none" stroke="#111" stroke-width="1.6" stroke-linecap="round" stroke-linejoin="round"/><polyline points="64.8,43.8 64.8,52.2" fill="none" stroke="#111" stroke-width="1.6" stroke-linecap="round" stroke-linejoin="round"/><rect x="76.56" y="16.92" width="10.08" height="26.88" fill="none" stroke="#111" stroke-width="1.6"/><polyline points="81.6,43.8 81.6,52.2" fill="none" stroke="#111" stroke-width="1.6" stroke-linecap="round" stroke-linejoin="round"/></svg>