<svg xmlns="http://www.w3.org/2000/svg" width="96" height="64" viewBox="0 0 96 64"><rect x="6" y="11.2" width="71.07" height="41.6" fill="none" stroke="#111" stroke-width="1.6"/><polyline points="12.07,19 20.73,19" fill="none" stroke="#111" stroke-width="1.6" stroke-linecap="round" stroke-linejoin="round"/><polyline points="12.07,23.33 20.73,23.33 16.4,19 12.07,23.33" fill="none" stroke="#111" stroke-width="1.6" stroke-linecap="round" stroke-linejoin="round"/><polyline points="12.07,40.67 20.73,40.67" fill="none" stroke="#111" stroke-width="1.6" stroke-linecap="round" stroke-linejoin="round"/><polyline points="12.07,40.67 20.73,40.67" fill="none" stroke="#111" stroke-width="1.6" stroke-linecap="round" stroke-linejoin="round"/><polyline points="12.07,45 20.73,45 16.4,40.67 12.07,45" fill="none" stroke="#111" stroke-width="1.6" stroke-linecap="round" stroke-linejoin="round"/><polyline points="16.4,14.67 68.4,14.67" fill="none" stroke="#111" stroke-width="1.6" stroke-linecap="round" stroke-linejoin="round"/><polyline points="16.4,14.67 68.4,14.67" fill="none" stroke="#111" stroke-width="1.6" stroke-linecap="round" stroke-linejoin="round"/><polyline points="16.4,27.67 16.4,14.67" fill="none" stroke="#111" stroke-width="1.6" stroke-linecap="round" stroke-linejoin="round"/><circle cx="16.4" cy="32" r="0.87" fill="none" stroke="#111" stroke-width="1.6"/><circle cx="16.4" cy="32" r="0.87" fill="none" stroke="#111" stroke-width="1.6"/><polyline points="16.4,36.33 16.4,27.67" fill="none" stroke="#111" stroke-width="1.6" stroke-linecap="round" stroke-linejoin="round"/><polyline points="16.4,49.33 16.4,36.33" fill="none" stroke="#111" stroke-width="1.6" stroke-linecap="round" stroke-linejoin="round"/><polyline points="16.4,49.33 68.4,49.33" fill="none" stroke="#111" stroke-width="1.6" stroke-linecap="round" stroke-linejoin="round"/><polyline points="25.07,6 25.07,27.67 21.6,32 15.53,32" fill="none" stroke="#111" stroke-width="1.6" stroke-linecap="round" stroke-linejoin="round"/><polyline points="25.07,58 25.07,37.2 29.4,32 33.73,32" fill="none" stroke="#111" stroke-width="1.6" stroke-linecap="round" stroke-linejoin="round"/><polyline points="29.4,19 38.07,19" fill="none" stroke="#111" stroke-width="1.6" stroke-linecap="round" stroke-linejoin="round"/><polyline points="29.4,23.33 38.07,23.33 33.73,19 29.4,23.33" fill="none" stroke="#111" stroke-width="1.6" stroke-linecap="round" stroke-linejoin="round"/><polyline points="29.4,40.67 38.07,40.67" fill="none" stroke="#111" stroke-width="1.6" stroke-linecap="round" stroke-linejoin="round"/><polyline points="29.4,40.67 38.07,40.67" fill="none" stroke="#111" stroke-width="1.6" stroke-linecap="round" stroke-linejoin="round"/><polyline points="29.4,45 38.07,45 33.73,40.67 29.4,45" fill="none" stroke="#111" stroke-width="1.6" stroke-linecap="round" stroke-linejoin="round"/><circle cx="33.73" cy="14.67" r="0.87" fill="none" stroke="#111" stroke-width="1.6"/><circle cx="33.73" cy="14.67" r="0.87" fill="none" stroke="#111" stroke-width="1.6"/><polyline points="33.73,27.67 33.73,14.67" fill="none" stroke="#111" stroke-width="1.6" stroke-linecap="round" stroke-linejoin="round"/><polyline points="33.73,27.67 33.73,36.33" fill="none" stroke="#111" stroke-width="1.6" stroke-linecap="round" stroke-linejoin="round"/><circle cx="33.73" cy="32" r="0.87" fill="none" stroke="#111" stroke-width="1.6"/><circle cx="33.73" cy="32" r="0.87" fill="none" stroke="#111" stroke-width="1.6"/><circle cx="33.73" cy="49.33" r="0.87" fill="none" stroke="#111" stroke-width="1.6"/><circle cx="33.73" cy="49.33" r="0.87" fill="none" stroke="#111" stroke-width="1.6"/><polyline points="33.73,49.33 33.73,36.33" fill="none" stroke="#111" stroke-width="1.6" stroke-linecap="round" stroke-linejoin="round"/><polyline points="33.73,49.33 33.73,36.33" fill="none" stroke="#111" stroke-width="1.6" stroke-linecap="round" stroke-linejoin="round"/><polyline points="37.2,35.47 47.6,35.47 42.4,30.27 37.2,35.47" fill="none" stroke="#111" stroke-width="1.6" stroke-linecap="round" stroke-linejoin="round"/><polyline points="37.2,35.47 47.6,35.47 42.4,30.27 37.2,35.47" fill="none" stroke="#111" stroke-width="1.6" stroke-linecap="round" stroke-linejoin="round"/><circle cx="42.4" cy="14.67" r="0.87" fill="none" stroke="#111" stroke-width="1.6"/><circle cx="42.4" cy="14.67" r="0.87" fill="none" stroke="#111" stroke-width="1.6"/><polyline points="42.4,25.07 42.4,6" fill="none" stroke="#111" stroke-width="1.6" stroke-linecap="round" stroke-linejoin="round"/><polyline points="42.4,38.07 42.4,25.07" fill="none" stroke="#111" stroke-width="1.6" stroke-linecap="round" stroke-linejoin="round"/><polyline points="42.4,38.07 42.4,25.07" fill="none" stroke="#111" stroke-width="1.6" stroke-linecap="round" stroke-linejoin="round"/><polyline points="42.4,38.07 42.4,58" fill="none" stroke="#111" stroke-width="1.6" stroke-linecap="round" stroke-linejoin="round"/><circle cx="42.4" cy="49.33" r="0.87" fill="none" stroke="#111" stroke-width="1.6"/><circle cx="42.4" cy="49.33" r="0.87" fill="none" stroke="#111" stroke-width="1.6"/><polyline points="46.73,19 55.4,19" fill="none" stroke="#111" stroke-width="1.6" stroke-linecap="round" stroke-linejoin="round"/><polyline points="46.73,23.33 55.4,23.33 51.07,19 46.73,23.33" fill="none" stroke="#111" stroke-width="1.6" stroke-linecap="round" stroke-linejoin="round"/><polyline points="46.73,40.67 55.4,40.67" fill="none" stroke="#111" stroke-width="1.6" stroke-linecap="round" stroke-linejoin="round"/><polyline points="46.73,40.67 55.4,40.67" fill="none" stroke="#111" stroke-width="1.6" stroke-linecap="round" stroke-linejoin="round"/><polyline points="46.73,45 55.4,45 51.07,40.67 46.73,45" fill="none" stroke="#111" stroke-width="1.6" stroke-linecap="round" stroke-linejoin="round"/><polyline points="47.6,30.27 37.2,30.27 37.2,32" fill="none" stroke="#111" stroke-width="1.6" stroke-linecap="round" stroke-linejoin="round"/><circle cx="51.07" cy="14.67" r="0.87" fill="none" stroke="#111" stroke-width="1.6"/><circle cx="51.07" cy="14.67" r="0.87" fill="none" stroke="#111" stroke-width="1.6"/><polyline points="51.07,27.67 51.07,14.67" fill="none" stroke="#111" stroke-width="1.6" stroke-linecap="round" stroke-linejoin="round"/><polyline points="51.07,27.67 51.07,36.33" fill="none" stroke="#111" stroke-width="1.6" stroke-linecap="round" stroke-linejoin="round"/><circle cx="51.07" cy="32" r="0.87" fill="none" stroke="#111" stroke-width="1.6"/><circle cx="51.07" cy="32" r="0.87" fill="none" stroke="#111" stroke-width="1.6"/><polyline points="51.07,49.33 51.07,36.33" fill="none" stroke="#111" stroke-width="1.6" stroke-linecap="round" stroke-linejoin="round"/><polyline points="51.07,49.33 51.07,36.33" fill="none" stroke="#111" stroke-width="1.6" stroke-linecap="round" stroke-linejoin="round"/><circle cx="51.07" cy="49.33" r="0.87" fill="none" stroke="#111" stroke-width="1.6"/><circle cx="51.07" cy="49.33" r="0.87" fill="none" stroke="#111" stroke-width="1.6"/><polyline points="59.73,6 59.73,28.53 62.33,32 68.4,32" fill="none" stroke="#111" stroke-width="1.6" stroke-linecap="round" stroke-linejoin="round"/><polyline points="59.73,58 59.73,37.2 55.4,32 50.2,32" fill="none" stroke="#111" stroke-width="1.6" stroke-linecap="round" stroke-linejoin="round"/><polyline points="64.07,19 72.73,19" fill="none" stroke="#111" stroke-width="1.6" stroke-linecap="round" stroke-linejoin="round"/><polyline points="64.07,23.33 72.73,23.33 68.4,19 64.07,23.33" fill="none" stroke="#111" stroke-width="1.6" stroke-linecap="round" stroke-linejoin="round"/><polyline points="64.07,40.67 72.73,40.67" fill="none" stroke="#111" stroke-width="1.6" stroke-linecap="round" stroke-linejoin="round"/><polyline points="64.07,40.67 72.73,40.67" fill="none" stroke="#111" stroke-width="1.6" stroke-linecap="round" stroke-linejoin="round"/><polyline points="64.07,45 72.73,45 68.4,40.67 64.07,45" fill="none" stroke="#111" stroke-width="1.6" stroke-linecap="round" stroke-linejoin="round"/><polyline points="68.4,27.67 68.4,14.67" fill="none" stroke="#111" stroke-width="1.6" stroke-linecap="round" stroke-linejoin="round"/><polyline points="68.4,27.67 68.4,36.33" fill="none" stroke="#111" stroke-width="1.6" stroke-linecap="round" stroke-linejoin="round"/><circle cx="68.4" cy="32" r="0.87" fill="none" stroke="#111" stroke-width="1.6"/><circle cx="68.4" cy="32" r="0.87" fill="none" stroke="#111" stroke-width="1.6"/><polyline points="68.4,49.33 68.4,36.33" fill="none" stroke="#111" stroke-width="1.6" stroke-linecap="round" stroke-linejoin="round"/></svg>