<svg xmlns="http://www.w3.org/2000/svg" width="96" height="64" viewBox="0 0 96 64"><rect x="6" y="6" width="3.95" height="51.41" fill="none" stroke="#111" stroke-width="1.6"/><rect x="6" y="6.89" width="0.99" height="0.2" fill="none" stroke="#111" stroke-width="1.6"/><rect x="6" y="8.87" width="0.99" height="0.19" fill="none" stroke="#111" stroke-width="1.6"/><rect x="6" y="10.84" width="0.99" height="0.2" fill="none" stroke="#111" stroke-width="1.6"/><rect x="6" y="12.82" width="0.99" height="0.2" fill="none" stroke="#111" stroke-width="1.6"/><rect x="6" y="14.8" width="0.99" height="0.2" fill="none" stroke="#111" stroke-width="1.6"/><rect x="6" y="16.78" width="0.99" height="0.19" fill="none" stroke="#111" stroke-width="1.6"/><rect x="6" y="18.75" width="0.99" height="0.2" fill="none" stroke="#111" stroke-width="1.6"/><rect x="6" y="20.73" width="0.99" height="0.2" fill="none" stroke="#111" stroke-width="1.6"/><rect x="6" y="22.71" width="0.99" height="0.19" fill="none" stroke="#111" stroke-width="1.6"/><rect x="6" y="24.68" width="0.99" height="0.2" fill="none" stroke="#111" stroke-width="1.6"/><rect x="6" y="26.66" width="0.99" height="0.2" fill="none" stroke="#111" stroke-width="1.6"/><rect x="6" y="28.64" width="0.99" height="0.2" fill="none" stroke="#111" stroke-width="1.6"/><rect x="6" y="30.62" width="0.99" height="0.19" fill="none" stroke="#111" stroke-width="1.6"/><rect x="6" y="32.59" width="0.99" height="0.2" fill="none" stroke="#111" stroke-width="1.6"/><rect x="6" y="34.57" width="0.99" height="0.2" fill="none" stroke="#111" stroke-width="1.6"/><rect x="6" y="36.55" width="0.99" height="0.2" fill="none" stroke="#111" stroke-width="1.6"/><rect x="6" y="38.52" width="0.99" height="0.2" fill="none" stroke="#111" stroke-width="1.6"/><rect x="6" y="40.5" width="0.99" height="0.2" fill="none" stroke="#111" stroke-width="1.6"/><rect x="6" y="42.48" width="0.99" height="0.2" fill="none" stroke="#111" stroke-width="1.6"/><rect x="6" y="44.46" width="0.99" height="0.19" fill="none" stroke="#111" stroke-width="1.6"/><rect x="6" y="46.43" width="0.99" height="0.2" fill="none" stroke="#111" stroke-width="1.6"/><rect x="6" y="48.41" width="0.99" height="0.2" fill="none" stroke="#111" stroke-width="1.6"/><rect x="6" y="50.39" width="0.99" height="0.2" fill="none" stroke="#111" stroke-width="1.6"/><rect x="6" y="52.37" width="0.99" height="0.19" fill="none" stroke="#111" stroke-width="1.6"/><rect x="6" y="54.34" width="0.99" height="0.2" fill="none" stroke="#111" stroke-width="1.6"/><rect x="6" y="56.32" width="0.99" height="0.2" fill="none" stroke="#111" stroke-width="1.6"/><polyline points="7.19,58 8.77,58" fill="none" stroke="#111" stroke-width="1.6" stroke-linecap="round" stroke-linejoin="round"/><rect x="8.97" y="6.89" width="0.98" height="0.2" fill="none" stroke="#111" stroke-width="1.6"/><rect x="8.97" y="8.87" width="0.98" height="0.19" fill="none" stroke="#111" stroke-width="1.6"/><rect x="8.97" y="10.84" width="0.98" height="0.2" fill="none" stroke="#111" stroke-width="1.6"/><rect x="8.97" y="12.82" width="0.98" height="0.2" fill="none" stroke="#111" stroke-width="1.6"/><rect x="8.97" y="14.8" width="0.98" height="0.2" fill="none" stroke="#111" stroke-width="1.6"/><rect x="8.97" y="16.78" width="0.98" height="0.19" fill="none" stroke="#111" stroke-width="1.6"/><rect x="8.97" y="18.75" width="0.98" height="0.2" fill="none" stroke="#111" stroke-width="1.6"/><rect x="8.97" y="20.73" width="0.98" height="0.2" fill="none" stroke="#111" stroke-width="1.6"/><rect x="8.97" y="22.71" width="0.98" height="0.19" fill="none" stroke="#111" stroke-width="1.6"/><rect x="8.97" y="24.68" width="0.98" height="0.2" fill="none" stroke="#111" stroke-width="1.6"/><rect x="8.97" y="26.66" width="0.98" height="0.2" fill="none" stroke="#111" stroke-width="1.6"/><rect x="8.97" y="28.64" width="0.98" height="0.2" fill="none" stroke="#111" stroke-width="1.6"/><rect x="8.97" y="30.62" width="0.98" height="0.19" fill="none" stroke="#111" stroke-width="1.6"/><rect x="8.97" y="32.59" width="0.98" height="0.2" fill="none" stroke="#111" stroke-width="1.6"/><rect x="8.97" y="34.57" width="0.98" height="0.2" fill="none" stroke="#111" stroke-width="1.6"/><rect x="8.97" y="36.55" width="0.98" height="0.2" fill="none" stroke="#111" stroke-width="1.6"/><rect x="8.97" y="38.52" width="0.98" height="0.2" fill="none" stroke="#111" stroke-width="1.6"/><rect x="8.97" y="40.5" width="0.98" height="0.2" fill="none" stroke="#111" stroke-width="1.6"/><rect x="8.97" y="42.48" width="0.98" height="0.2" fill="none" stroke="#111" stroke-width="1.6"/><rect x="8.97" y="44.46" width="0.98" height="0.19" fill="none" stroke="#111" stroke-width="1.6"/><rect x="8.97" y="46.43" width="0.98" height="0.2" fill="none" stroke="#111" stroke-width="1.6"/><rect x="8.97" y="48.41" width="0.98" height="0.2" fill="none" stroke="#111" stroke-width="1.6"/><rect x="8.97" y="50.39" width="0.98" height="0.2" fill="none" stroke="#111" stroke-width="1.6"/><rect x="8.97" y="52.37" width="0.98" height="0.19" fill="none" stroke="#111" stroke-width="1.6"/><rect x="8.97" y="54.34" width="0.98" height="0.2" fill="none" stroke="#111" stroke-width="1.6"/></svg>