<svg xmlns="http://www.w3.org/2000/svg" width="96" height="64" viewBox="0 0 96 64"><rect x="6" y="6" width="84" height="21" fill="none" stroke="#111" stroke-width="1.6"/><polyline points="8.62,12.82 8.62,13.88 13.88,13.88 13.88,14.92" fill="none" stroke="#111" stroke-width="1.6" stroke-linecap="round" stroke-linejoin="round"/><polyline points="8.62,19.12 13.88,19.12 11.25,13.88 8.62,19.12" fill="none" stroke="#111" stroke-width="1.6" stroke-linecap="round" stroke-linejoin="round"/><polyline points="11.25,6 11.25,23.85 84.75,23.85 84.75,6" fill="none" stroke="#111" stroke-width="1.6" stroke-linecap="round" stroke-linejoin="round"/><polyline points="19.12,12.82 19.12,13.88 24.38,13.88 24.38,14.92" fill="none" stroke="#111" stroke-width="1.6" stroke-linecap="round" stroke-linejoin="round"/><polyline points="19.12,19.12 24.38,19.12 21.75,13.88 19.12,19.12" fill="none" stroke="#111" stroke-width="1.6" stroke-linecap="round" stroke-linejoin="round"/><polyline points="21.75,6 21.75,24.38" fill="none" stroke="#111" stroke-width="1.6" stroke-linecap="round" stroke-linejoin="round"/><circle cx="21.75" cy="23.85" r="0.53" fill="none" stroke="#111" stroke-width="1.6"/><polyline points="29.62,12.82 29.62,13.88 34.88,13.88 34.88,14.92" fill="none" stroke="#111" stroke-width="1.6" stroke-linecap="round" stroke-linejoin="round"/><polyline points="29.62,19.12 34.88,19.12 32.25,13.88 29.62,19.12" fill="none" stroke="#111" stroke-width="1.6" stroke-linecap="round" stroke-linejoin="round"/><polyline points="32.25,6 32.25,24.38" fill="none" stroke="#111" stroke-width="1.6" stroke-linecap="round" stroke-linejoin="round"/><circle cx="32.25" cy="23.85" r="0.53" fill="none" stroke="#111" stroke-width="1.6"/><polyline points="40.12,12.82 40.12,13.88 45.38,13.88 45.38,14.92" fill="none" stroke="#111" stroke-width="1.6" stroke-linecap="round" stroke-linejoin="round"/><polyline points="40.12,19.12 45.38,19.12 42.75,13.88 40.12,19.12" fill="none" stroke="#111" stroke-width="1.6" stroke-linecap="round" stroke-linejoin="round"/><polyline points="42.75,6 42.75,24.38" fill="none" stroke="#111" stroke-width="1.6" stroke-linecap="round" stroke-linejoin="round"/><circle cx="42.75" cy="23.85" r="0.53" fill="none" stroke="#111" stroke-width="1.6"/><polyline points="42.75,24.38 42.75,27" fill="none" stroke="#111" stroke-width="1.6" stroke-linecap="round" stroke-linejoin="round"/><circle cx="42.75" cy="24.38" r="0.53" fill="none" stroke="#111" stroke-width="1.6"/><polyline points="50.62,12.82 50.62,13.88 55.88,13.88 55.88,14.92" fill="none" stroke="#111" stroke-width="1.6" stroke-linecap="round" stroke-linejoin="round"/><polyline points="50.62,19.12 55.88,19.12 53.25,13.88 50.62,19.12" fill="none" stroke="#111" stroke-width="1.6" stroke-linecap="round" stroke-linejoin="round"/><polyline points="53.25,6 53.25,24.38" fill="none" stroke="#111" stroke-width="1.6" stroke-linecap="round" stroke-linejoin="round"/><circle cx="53.25" cy="23.85" r="0.53" fill="none" stroke="#111" stroke-width="1.6"/><polyline points="61.12,12.82 61.12,13.88 66.38,13.88 66.38,14.92" fill="none" stroke="#111" stroke-width="1.6" stroke-linecap="round" stroke-linejoin="round"/><polyline points="61.12,19.12 66.38,19.12 63.75,13.88 61.12,19.12" fill="none" stroke="#111" stroke-width="1.6" stroke-linecap="round" stroke-linejoin="round"/><polyline points="63.75,6 63.75,24.38" fill="none" stroke="#111" stroke-width="1.6" stroke-linecap="round" stroke-linejoin="round"/><circle cx="63.75" cy="23.85" r="0.53" fill="none" stroke="#111" stroke-width="1.6"/><polyline points="71.62,12.82 71.62,13.88 76.88,13.88 76.88,14.92" fill="none" stroke="#111" stroke-width="1.6" stroke-linecap="round" stroke-linejoin="round"/><polyline points="71.62,19.12 76.88,19.12 74.25,13.88 71.62,19.12" fill="none" stroke="#111" stroke-width="1.6" stroke-linecap="round" stroke-linejoin="round"/><polyline points="74.25,6 74.25,24.38" fill="none" stroke="#111" stroke-width="1.6" stroke-linecap="round" stroke-linejoin="round"/><circle cx="74.25" cy="23.85" r="0.53" fill="none" stroke="#111" stroke-width="1.6"/><polyline points="82.12,12.82 82.12,13.88 87.38,13.88 87.38,14.92" fill="none" stroke="#111" stroke-width="1.6" stroke-linecap="round" stroke-linejoin="round"/><polyline points="82.12,19.12 87.38,19.12 84.75,13.88 82.12,19.12" fill="none" stroke="#111" stroke-width="1.6" stroke-linecap="round" stroke-linejoin="round"/></svg>