<svg xmlns="http://www.w3.org/2000/svg" width="96" height="64" viewBox="0 0 96 64"><rect x="6" y="22.93" width="11.97" height="18.99" fill="none" stroke="#111" stroke-width="1.6"/><rect x="6" y="22.93" width="11.97" height="18.99" fill="none" stroke="#111" stroke-width="1.6"/><rect x="6" y="22.93" width="11.97" height="18.99" fill="none" stroke="#111" stroke-width="1.6"/><rect x="6" y="22.93" width="11.97" height="18.99" fill="none" stroke="#111" stroke-width="1.6"/><rect x="6" y="22.93" width="11.97" height="18.99" fill="none" stroke="#111" stroke-width="1.6"/><rect x="6" y="22.93" width="11.97" height="18.99" fill="none" stroke="#111" stroke-width="1.6"/><rect x="6" y="22.93" width="11.97" height="18.99" fill="none" stroke="#111" stroke-width="1.6"/><rect x="6" y="22.93" width="11.97" height="18.99" fill="none" stroke="#111" stroke-width="1.6"/><rect x="7.71" y="27.89" width="8.55" height="8.22" fill="none" stroke="#111" stroke-width="1.6"/><rect x="7.71" y="27.89" width="8.55" height="8.22" fill="none" stroke="#111" stroke-width="1.6"/><rect x="7.71" y="27.89" width="8.55" height="8.22" fill="none" stroke="#111" stroke-width="1.6"/><rect x="7.71" y="27.89" width="8.55" height="8.22" fill="none" stroke="#111" stroke-width="1.6"/><rect x="7.71" y="27.89" width="8.55" height="8.22" fill="none" stroke="#111" stroke-width="1.6"/><rect x="7.71" y="27.89" width="8.55" height="8.22" fill="none" stroke="#111" stroke-width="1.6"/><rect x="7.71" y="27.89" width="8.55" height="8.22" fill="none" stroke="#111" stroke-width="1.6"/><rect x="7.71" y="27.89" width="8.55" height="8.22" fill="none" stroke="#111" stroke-width="1.6"/><rect x="7.71" y="20.71" width="8.55" height="22.58" fill="none" stroke="#111" stroke-width="1.6"/><rect x="7.71" y="27.38" width="8.55" height="10.09" fill="none" stroke="#111" stroke-width="1.6"/><rect x="9.42" y="9.42" width="5.13" height="45.16" fill="none" stroke="#111" stroke-width="1.6"/><rect x="9.42" y="6" width="5.13" height="52" fill="none" stroke="#111" stroke-width="1.6"/><rect x="9.42" y="18.32" width="5.13" height="27.36" fill="none" stroke="#111" stroke-width="1.6"/></svg>