<svg xmlns="http://www.w3.org/2000/svg" width="96" height="64" viewBox="0 0 96 64"><rect x="6" y="24.45" width="12.3" height="15.98" fill="none" stroke="#111" stroke-width="1.6"/><rect x="6" y="24.45" width="12.3" height="15.98" fill="none" stroke="#111" stroke-width="1.6"/><rect x="6" y="24.45" width="12.3" height="15.98" fill="none" stroke="#111" stroke-width="1.6"/><rect x="6" y="24.45" width="12.3" height="15.98" fill="none" stroke="#111" stroke-width="1.6"/><rect x="6" y="24.45" width="12.3" height="15.98" fill="none" stroke="#111" stroke-width="1.6"/><rect x="6" y="24.45" width="12.3" height="15.98" fill="none" stroke="#111" stroke-width="1.6"/><rect x="6" y="24.45" width="12.3" height="15.98" fill="none" stroke="#111" stroke-width="1.6"/><rect x="6" y="24.45" width="12.3" height="15.98" fill="none" stroke="#111" stroke-width="1.6"/><rect x="6" y="24.45" width="12.3" height="15.98" fill="none" stroke="#111" stroke-width="1.6"/><rect x="6" y="24.45" width="12.3" height="15.98" fill="none" stroke="#111" stroke-width="1.6"/><rect x="6" y="24.45" width="12.3" height="15.98" fill="none" stroke="#111" stroke-width="1.6"/><rect x="6" y="24.45" width="12.3" height="15.98" fill="none" stroke="#111" stroke-width="1.6"/><rect x="6" y="24.45" width="12.3" height="15.98" fill="none" stroke="#111" stroke-width="1.6"/><rect x="6" y="24.45" width="12.3" height="15.98" fill="none" stroke="#111" stroke-width="1.6"/><rect x="6" y="24.45" width="12.3" height="15.98" fill="none" stroke="#111" stroke-width="1.6"/><rect x="7.76" y="26.2" width="8.78" height="12.48" fill="none" stroke="#111" stroke-width="1.6"/><rect x="9.51" y="6" width="5.27" height="52" fill="none" stroke="#111" stroke-width="1.6"/><rect x="9.51" y="17.24" width="5.27" height="29.52" fill="none" stroke="#111" stroke-width="1.6"/></svg>