<svg xmlns="http://www.w3.org/2000/svg" width="96" height="64" viewBox="0 0 96 64"><rect x="6" y="6" width="3.12" height="51.53" fill="none" stroke="#111" stroke-width="1.6"/><rect x="6" y="6.7" width="0.78" height="0.16" fill="none" stroke="#111" stroke-width="1.6"/><rect x="6" y="8.26" width="0.78" height="0.16" fill="none" stroke="#111" stroke-width="1.6"/><rect x="6" y="9.83" width="0.78" height="0.15" fill="none" stroke="#111" stroke-width="1.6"/><rect x="6" y="11.39" width="0.78" height="0.15" fill="none" stroke="#111" stroke-width="1.6"/><rect x="6" y="12.95" width="0.78" height="0.16" fill="none" stroke="#111" stroke-width="1.6"/><rect x="6" y="14.51" width="0.78" height="0.16" fill="none" stroke="#111" stroke-width="1.6"/><rect x="6" y="16.07" width="0.78" height="0.16" fill="none" stroke="#111" stroke-width="1.6"/><rect x="6" y="17.63" width="0.78" height="0.16" fill="none" stroke="#111" stroke-width="1.6"/><rect x="6" y="19.2" width="0.78" height="0.15" fill="none" stroke="#111" stroke-width="1.6"/><rect x="6" y="20.76" width="0.78" height="0.15" fill="none" stroke="#111" stroke-width="1.6"/><rect x="6" y="22.32" width="0.78" height="0.15" fill="none" stroke="#111" stroke-width="1.6"/><rect x="6" y="23.88" width="0.78" height="0.16" fill="none" stroke="#111" stroke-width="1.6"/><rect x="6" y="25.44" width="0.78" height="0.16" fill="none" stroke="#111" stroke-width="1.6"/><rect x="6" y="27" width="0.78" height="0.16" fill="none" stroke="#111" stroke-width="1.6"/><rect x="6" y="28.56" width="0.78" height="0.16" fill="none" stroke="#111" stroke-width="1.6"/><rect x="6" y="30.13" width="0.78" height="0.15" fill="none" stroke="#111" stroke-width="1.6"/><rect x="6" y="31.69" width="0.78" height="0.15" fill="none" stroke="#111" stroke-width="1.6"/><rect x="6" y="33.25" width="0.78" height="0.16" fill="none" stroke="#111" stroke-width="1.6"/><rect x="6" y="34.81" width="0.78" height="0.16" fill="none" stroke="#111" stroke-width="1.6"/><rect x="6" y="36.37" width="0.78" height="0.16" fill="none" stroke="#111" stroke-width="1.6"/><rect x="6" y="37.93" width="0.78" height="0.16" fill="none" stroke="#111" stroke-width="1.6"/><rect x="6" y="39.5" width="0.78" height="0.15" fill="none" stroke="#111" stroke-width="1.6"/><rect x="6" y="41.06" width="0.78" height="0.15" fill="none" stroke="#111" stroke-width="1.6"/><rect x="6" y="42.62" width="0.78" height="0.15" fill="none" stroke="#111" stroke-width="1.6"/><rect x="6" y="44.18" width="0.78" height="0.16" fill="none" stroke="#111" stroke-width="1.6"/><rect x="6" y="45.74" width="0.78" height="0.16" fill="none" stroke="#111" stroke-width="1.6"/><rect x="6" y="47.3" width="0.78" height="0.16" fill="none" stroke="#111" stroke-width="1.6"/><rect x="6" y="48.86" width="0.78" height="0.16" fill="none" stroke="#111" stroke-width="1.6"/><rect x="6" y="50.43" width="0.78" height="0.15" fill="none" stroke="#111" stroke-width="1.6"/><rect x="6" y="51.99" width="0.78" height="0.15" fill="none" stroke="#111" stroke-width="1.6"/><rect x="6" y="53.55" width="0.78" height="0.16" fill="none" stroke="#111" stroke-width="1.6"/><rect x="6" y="55.11" width="0.78" height="0.16" fill="none" stroke="#111" stroke-width="1.6"/><rect x="6" y="56.67" width="0.78" height="0.16" fill="none" stroke="#111" stroke-width="1.6"/><polyline points="6.94,58 8.19,58" fill="none" stroke="#111" stroke-width="1.6" stroke-linecap="round" stroke-linejoin="round"/><rect x="8.34" y="6.7" width="0.78" height="0.16" fill="none" stroke="#111" stroke-width="1.6"/><rect x="8.34" y="8.26" width="0.78" height="0.16" fill="none" stroke="#111" stroke-width="1.6"/><rect x="8.34" y="9.83" width="0.78" height="0.15" fill="none" stroke="#111" stroke-width="1.6"/><rect x="8.34" y="11.39" width="0.78" height="0.15" fill="none" stroke="#111" stroke-width="1.6"/><rect x="8.34" y="12.95" width="0.78" height="0.16" fill="none" stroke="#111" stroke-width="1.6"/><rect x="8.34" y="14.51" width="0.78" height="0.16" fill="none" stroke="#111" stroke-width="1.6"/><rect x="8.34" y="16.07" width="0.78" height="0.16" fill="none" stroke="#111" stroke-width="1.6"/><rect x="8.34" y="17.63" width="0.78" height="0.16" fill="none" stroke="#111" stroke-width="1.6"/><rect x="8.34" y="19.2" width="0.78" height="0.15" fill="none" stroke="#111" stroke-width="1.6"/><rect x="8.34" y="20.76" width="0.78" height="0.15" fill="none" stroke="#111" stroke-width="1.6"/><rect x="8.34" y="22.32" width="0.78" height="0.15" fill="none" stroke="#111" stroke-width="1.6"/><rect x="8.34" y="23.88" width="0.78" height="0.16" fill="none" stroke="#111" stroke-width="1.6"/><rect x="8.34" y="25.44" width="0.78" height="0.16" fill="none" stroke="#111" stroke-width="1.6"/><rect x="8.34" y="27" width="0.78" height="0.16" fill="none" stroke="#111" stroke-width="1.6"/><rect x="8.34" y="28.56" width="0.78" height="0.16" fill="none" stroke="#111" stroke-width="1.6"/><rect x="8.34" y="30.13" width="0.78" height="0.15" fill="none" stroke="#111" stroke-width="1.6"/><rect x="8.34" y="31.69" width="0.78" height="0.15" fill="none" stroke="#111" stroke-width="1.6"/><rect x="8.34" y="33.25" width="0.78" height="0.16" fill="none" stroke="#111" stroke-width="1.6"/><rect x="8.34" y="34.81" width="0.78" height="0.16" fill="none" stroke="#111" stroke-width="1.6"/><rect x="8.34" y="36.37" width="0.78" height="0.16" fill="none" stroke="#111" stroke-width="1.6"/><rect x="8.34" y="37.93" width="0.78" height="0.16" fill="none" stroke="#111" stroke-width="1.6"/><rect x="8.34" y="39.5" width="0.78" height="0.15" fill="none" stroke="#111" stroke-width="1.6"/><rect x="8.34" y="41.06" width="0.78" height="0.15" fill="none" stroke="#111" stroke-width="1.6"/><rect x="8.34" y="42.62" width="0.78" height="0.15" fill="none" stroke="#111" stroke-width="1.6"/><rect x="8.34" y="44.18" width="0.78" height="0.16" fill="none" stroke="#111" stroke-width="1.6"/><rect x="8.34" y="45.74" width="0.78" height="0.16" fill="none" stroke="#111" stroke-width="1.6"/><rect x="8.34" y="47.3" width="0.78" height="0.16" fill="none" stroke="#111" stroke-width="1.6"/><rect x="8.34" y="48.86" width="0.78" height="0.16" fill="none" stroke="#111" stroke-width="1.6"/><rect x="8.34" y="50.43" width="0.78" height="0.15" fill="none" stroke="#111" stroke-width="1.6"/><rect x="8.34" y="51.99" width="0.78" height="0.15" fill="none" stroke="#111" stroke-width="1.6"/><rect x="8.34" y="53.55" width="0.78" height="0.16" fill="none" stroke="#111" stroke-width="1.6"/><rect x="8.34" y="55.11" width="0.78" height="0.16" fill="none" stroke="#111" stroke-width="1.6"/><rect x="8.34" y="56.67" width="0.78" height="0.16" fill="none" stroke="#111" stroke-width="1.6"/></svg>