<svg xmlns="http://www.w3.org/2000/svg" width="96" height="64" viewBox="0 0 96 64"><polyline points="52.56,58 52.3,57.87 51.63,57.47 50.7,56.81 49.51,56.01 48.32,55.21 47.39,54.68 46.72,54.15 46.46,54.02 46.33,54.15 45.8,54.42 45,54.82 44.47,55.08 43.81,55.35 43.41,55.35 43.41,55.35 43.14,54.82 42.74,53.76 42.08,52.56 41.55,51.1 40.89,49.51 40.09,47.92 39.56,46.33 38.9,44.87 38.5,43.81 38.23,43.01 38.1,42.61 38.1,42.61 38.5,42.21 39.16,41.82 40.49,40.62 41.82,38.9 42.61,37.04 43.01,34.92 42.74,32.93 41.95,31.07 40.62,29.35 39.03,28.15 37.17,27.36 35.05,27.09 33.06,27.22 31.2,28.02 29.48,29.35 28.68,30.14 27.76,31.87 27.09,33.72 27.09,34.12 27.22,36.24 27.76,38.1 28.82,39.83 30.28,41.29 30.54,41.42 31.2,41.95 31.73,42.35 32,42.61 29.48,48.85 29.08,49.91 28.29,51.63 27.76,53.09 27.22,54.29 26.83,55.08 26.69,55.35 26.69,55.35 26.43,55.35 26.03,55.21 25.1,54.82 24.57,54.55 23.91,54.15 23.51,54.02 23.24,54.15 22.71,54.55 21.79,55.21 20.59,56.01 19.53,56.67 18.6,57.34 17.81,57.87 17.54,58 17.41,58 17.14,57.87 16.61,57.34 15.68,56.54 14.49,55.35 14.36,55.21 13.3,54.15 12.5,53.36 11.97,52.69 11.84,52.43 11.84,52.43 11.97,52.16 12.5,51.37 13.03,50.44 13.83,49.24 15.95,46.19 14.76,43.41 14.49,42.48 13.96,41.42 13.69,40.76 13.56,40.36 13.16,40.22 12.5,40.09 11.31,39.83 9.98,39.56 8.65,39.43 7.59,39.16 6.66,39.03 6.27,38.9 6.27,38.9 6.13,38.63 6.13,38.23 6.13,37.57 6,36.51 6,34.92 6,34.65 6.13,33.19 6.13,32 6.13,31.34 6.13,30.94 6.13,30.94 6.53,30.94 7.33,30.67 8.52,30.54 9.85,30.28 9.98,30.14 11.31,29.88 12.5,29.74 13.3,29.48 13.69,29.35 13.69,29.35 13.96,28.82 14.36,27.89 14.89,26.83 15.29,25.77 15.68,24.84 15.95,24.04 16.08,23.78 16.08,23.78 15.82,23.38 15.42,22.71 14.76,21.79 13.83,20.59 13.83,20.46 13.03,19.27 12.37,18.34 11.97,17.67 11.84,17.28 11.84,17.28 12.1,17.01 12.63,16.35 13.56,15.42 14.49,14.36 14.89,14.09 15.95,12.9 16.74,12.23 17.28,11.84 17.54,11.7 17.54,11.7 17.81,11.97 18.6,12.5 19.53,13.16 20.72,13.96 20.86,13.96 22.05,14.76 22.98,15.42 23.64,15.95 23.91,16.08 24.04,16.08 24.44,15.95 25.37,15.68 26.3,15.29 27.36,14.76 28.42,14.36 29.08,14.09 29.48,13.83 29.48,13.83 29.61,13.43 29.74,12.63 30.01,11.44 30.28,9.98 30.41,9.71 30.67,8.39 30.81,7.19 30.94,6.4 31.07,6.13 31.34,6 32,6 32.93,6 34.26,6 35.45,6 36.78,6 37.84,6 38.63,6.13 38.9,6.13 38.9,6.13 39.03,6.53 39.3,7.46 39.43,8.65 39.83,10.11 39.83,10.38 40.09,11.7 40.36,12.9 40.49,13.69 40.62,13.96 40.62,13.96 41.29,14.22 42.21,14.62 43.28,15.15 45.93,16.21 49.24,13.96 49.51,13.69 50.7,12.9 51.63,12.23 52.3,11.84 52.69,11.7 52.69,11.7 52.96,11.97 53.62,12.63 54.55,13.43 55.48,14.49 56.28,15.29 57.2,16.21 57.73,16.74 58.13,17.14 58.13,17.41 58.13,17.54 58,17.94 57.47,18.6 56.81,19.66 56.01,20.72 55.35,21.79 54.68,22.85 54.15,23.64 54.02,24.04 54.02,24.17 54.29,24.84 54.68,25.77 55.21,26.96 56.28,29.48 58,29.88 59.06,30.01 60.52,30.28 61.85,30.54 63.97,30.94 64.1,38.77 63.7,38.9 63.44,38.9 62.64,39.16 61.45,39.3 60.12,39.56 59.06,39.83 57.87,40.09 57.07,40.22 56.67,40.22 56.54,40.36 56.28,40.89 55.88,41.82 55.48,42.88 54.95,43.94 54.55,45 54.29,45.8 54.15,46.19 54.29,46.46 54.82,47.12 55.35,48.18 56.14,49.24 56.94,50.44 57.6,51.37 58,52.03 58.27,52.43 58.13,52.69 57.73,53.22 56.81,54.02 55.61,55.35 55.35,55.48 54.29,56.54 53.49,57.34 52.83,57.87 52.56,58" fill="none" stroke="#111" stroke-width="1.6" stroke-linecap="round" stroke-linejoin="round"/></svg>