<svg xmlns="http://www.w3.org/2000/svg" width="96" height="64" viewBox="0 0 96 64"><rect x="6" y="6" width="8.67" height="52" fill="none" stroke="#111" stroke-width="1.6"/><rect x="6.43" y="6.43" width="7.8" height="51.14" fill="none" stroke="#111" stroke-width="1.6"/><rect x="6.43" y="7.95" width="2.17" height="0.43" fill="none" stroke="#111" stroke-width="1.6"/><rect x="6.43" y="12.28" width="2.17" height="0.44" fill="none" stroke="#111" stroke-width="1.6"/><rect x="6.43" y="16.62" width="2.17" height="0.43" fill="none" stroke="#111" stroke-width="1.6"/><rect x="6.43" y="20.95" width="2.17" height="0.43" fill="none" stroke="#111" stroke-width="1.6"/><rect x="6.43" y="25.28" width="2.17" height="0.44" fill="none" stroke="#111" stroke-width="1.6"/><rect x="6.43" y="29.62" width="2.17" height="0.43" fill="none" stroke="#111" stroke-width="1.6"/><rect x="6.43" y="33.95" width="2.17" height="0.43" fill="none" stroke="#111" stroke-width="1.6"/><rect x="6.43" y="38.28" width="2.17" height="0.44" fill="none" stroke="#111" stroke-width="1.6"/><rect x="6.43" y="42.62" width="2.17" height="0.43" fill="none" stroke="#111" stroke-width="1.6"/><rect x="6.43" y="46.95" width="2.17" height="0.43" fill="none" stroke="#111" stroke-width="1.6"/><rect x="6.43" y="51.28" width="2.17" height="0.44" fill="none" stroke="#111" stroke-width="1.6"/><rect x="6.43" y="55.62" width="2.17" height="0.43" fill="none" stroke="#111" stroke-width="1.6"/><rect x="12.07" y="7.95" width="2.16" height="0.43" fill="none" stroke="#111" stroke-width="1.6"/><rect x="12.07" y="12.28" width="2.16" height="0.44" fill="none" stroke="#111" stroke-width="1.6"/><rect x="12.07" y="16.62" width="2.16" height="0.43" fill="none" stroke="#111" stroke-width="1.6"/><rect x="12.07" y="20.95" width="2.16" height="0.43" fill="none" stroke="#111" stroke-width="1.6"/><rect x="12.07" y="25.28" width="2.16" height="0.44" fill="none" stroke="#111" stroke-width="1.6"/><rect x="12.07" y="29.62" width="2.16" height="0.43" fill="none" stroke="#111" stroke-width="1.6"/><rect x="12.07" y="33.95" width="2.16" height="0.43" fill="none" stroke="#111" stroke-width="1.6"/><rect x="12.07" y="38.28" width="2.16" height="0.44" fill="none" stroke="#111" stroke-width="1.6"/><rect x="12.07" y="42.62" width="2.16" height="0.43" fill="none" stroke="#111" stroke-width="1.6"/><rect x="12.07" y="46.95" width="2.16" height="0.43" fill="none" stroke="#111" stroke-width="1.6"/><rect x="12.07" y="51.28" width="2.16" height="0.44" fill="none" stroke="#111" stroke-width="1.6"/><rect x="12.07" y="55.62" width="2.16" height="0.43" fill="none" stroke="#111" stroke-width="1.6"/></svg>