<svg xmlns="http://www.w3.org/2000/svg" width="96" height="64" viewBox="0 0 96 64"><rect x="6" y="6" width="0.38" height="0.11" fill="none" stroke="#111" stroke-width="1.6"/><rect x="6" y="7.1" width="0.38" height="0.11" fill="none" stroke="#111" stroke-width="1.6"/><rect x="6" y="8.21" width="0.38" height="0.11" fill="none" stroke="#111" stroke-width="1.6"/><rect x="6" y="9.31" width="0.38" height="0.11" fill="none" stroke="#111" stroke-width="1.6"/><rect x="6" y="10.42" width="0.38" height="0.11" fill="none" stroke="#111" stroke-width="1.6"/><rect x="6" y="11.52" width="0.38" height="0.11" fill="none" stroke="#111" stroke-width="1.6"/><rect x="6" y="12.62" width="0.38" height="0.11" fill="none" stroke="#111" stroke-width="1.6"/><rect x="6" y="13.73" width="0.38" height="0.11" fill="none" stroke="#111" stroke-width="1.6"/><rect x="6" y="14.83" width="0.38" height="0.11" fill="none" stroke="#111" stroke-width="1.6"/><rect x="6" y="15.94" width="0.38" height="0.11" fill="none" stroke="#111" stroke-width="1.6"/><rect x="6" y="17.04" width="0.38" height="0.11" fill="none" stroke="#111" stroke-width="1.6"/><rect x="6" y="18.14" width="0.38" height="0.11" fill="none" stroke="#111" stroke-width="1.6"/><rect x="6" y="19.25" width="0.38" height="0.11" fill="none" stroke="#111" stroke-width="1.6"/><rect x="6" y="20.35" width="0.38" height="0.11" fill="none" stroke="#111" stroke-width="1.6"/><rect x="6" y="21.46" width="0.38" height="0.11" fill="none" stroke="#111" stroke-width="1.6"/><rect x="6" y="22.56" width="0.38" height="0.11" fill="none" stroke="#111" stroke-width="1.6"/><rect x="6" y="23.66" width="0.38" height="0.11" fill="none" stroke="#111" stroke-width="1.6"/><rect x="6" y="24.77" width="0.38" height="0.11" fill="none" stroke="#111" stroke-width="1.6"/><rect x="6" y="25.87" width="0.38" height="0.11" fill="none" stroke="#111" stroke-width="1.6"/><rect x="6" y="26.98" width="0.38" height="0.11" fill="none" stroke="#111" stroke-width="1.6"/><rect x="6" y="28.08" width="0.38" height="0.11" fill="none" stroke="#111" stroke-width="1.6"/><rect x="6" y="29.18" width="0.38" height="0.12" fill="none" stroke="#111" stroke-width="1.6"/><rect x="6" y="30.29" width="0.38" height="0.11" fill="none" stroke="#111" stroke-width="1.6"/><rect x="6" y="31.39" width="0.38" height="0.11" fill="none" stroke="#111" stroke-width="1.6"/><rect x="6" y="32.5" width="0.38" height="0.11" fill="none" stroke="#111" stroke-width="1.6"/><rect x="6" y="33.6" width="0.38" height="0.11" fill="none" stroke="#111" stroke-width="1.6"/><rect x="6" y="34.7" width="0.38" height="0.12" fill="none" stroke="#111" stroke-width="1.6"/><rect x="6" y="35.81" width="0.38" height="0.11" fill="none" stroke="#111" stroke-width="1.6"/><rect x="6" y="36.91" width="0.38" height="0.11" fill="none" stroke="#111" stroke-width="1.6"/><rect x="6" y="38.02" width="0.38" height="0.11" fill="none" stroke="#111" stroke-width="1.6"/><rect x="6" y="39.12" width="0.38" height="0.11" fill="none" stroke="#111" stroke-width="1.6"/><rect x="6" y="40.23" width="0.38" height="0.11" fill="none" stroke="#111" stroke-width="1.6"/><rect x="6" y="41.33" width="0.38" height="0.11" fill="none" stroke="#111" stroke-width="1.6"/><rect x="6" y="42.43" width="0.38" height="0.11" fill="none" stroke="#111" stroke-width="1.6"/><rect x="6" y="43.54" width="0.38" height="0.11" fill="none" stroke="#111" stroke-width="1.6"/><rect x="6" y="44.64" width="0.38" height="0.11" fill="none" stroke="#111" stroke-width="1.6"/><rect x="6" y="45.75" width="0.38" height="0.11" fill="none" stroke="#111" stroke-width="1.6"/><rect x="6" y="46.85" width="0.38" height="0.11" fill="none" stroke="#111" stroke-width="1.6"/><rect x="6" y="47.95" width="0.38" height="0.11" fill="none" stroke="#111" stroke-width="1.6"/><rect x="6" y="49.06" width="0.38" height="0.11" fill="none" stroke="#111" stroke-width="1.6"/><rect x="6" y="50.16" width="0.38" height="0.11" fill="none" stroke="#111" stroke-width="1.6"/><rect x="6" y="51.27" width="0.38" height="0.11" fill="none" stroke="#111" stroke-width="1.6"/><rect x="6" y="52.37" width="0.38" height="0.11" fill="none" stroke="#111" stroke-width="1.6"/><rect x="6" y="53.47" width="0.38" height="0.11" fill="none" stroke="#111" stroke-width="1.6"/><rect x="6" y="54.58" width="0.38" height="0.11" fill="none" stroke="#111" stroke-width="1.6"/><rect x="6" y="55.68" width="0.38" height="0.11" fill="none" stroke="#111" stroke-width="1.6"/><rect x="6" y="56.79" width="0.38" height="0.11" fill="none" stroke="#111" stroke-width="1.6"/><rect x="6" y="57.89" width="0.38" height="0.11" fill="none" stroke="#111" stroke-width="1.6"/><polyline points="6.55,6.06 6.38,6.06" fill="none" stroke="#111" stroke-width="1.6" stroke-linecap="round" stroke-linejoin="round"/><polyline points="6.55,7.16 6.38,7.16" fill="none" stroke="#111" stroke-width="1.6" stroke-linecap="round" stroke-linejoin="round"/><polyline points="6.55,8.26 6.38,8.26" fill="none" stroke="#111" stroke-width="1.6" stroke-linecap="round" stroke-linejoin="round"/><polyline points="6.55,9.37 6.38,9.37" fill="none" stroke="#111" stroke-width="1.6" stroke-linecap="round" stroke-linejoin="round"/><polyline points="6.55,10.47 6.38,10.47" fill="none" stroke="#111" stroke-width="1.6" stroke-linecap="round" stroke-linejoin="round"/><polyline points="6.55,11.58 6.38,11.58" fill="none" stroke="#111" stroke-width="1.6" stroke-linecap="round" stroke-linejoin="round"/><polyline points="6.55,12.68 6.38,12.68" fill="none" stroke="#111" stroke-width="1.6" stroke-linecap="round" stroke-linejoin="round"/><polyline points="6.55,13.78 6.38,13.78" fill="none" stroke="#111" stroke-width="1.6" stroke-linecap="round" stroke-linejoin="round"/><polyline points="6.55,14.89 6.38,14.89" fill="none" stroke="#111" stroke-width="1.6" stroke-linecap="round" stroke-linejoin="round"/><polyline points="6.55,15.99 6.38,15.99" fill="none" stroke="#111" stroke-width="1.6" stroke-linecap="round" stroke-linejoin="round"/><polyline points="6.55,17.1 6.38,17.1" fill="none" stroke="#111" stroke-width="1.6" stroke-linecap="round" stroke-linejoin="round"/><polyline points="6.55,18.2 6.38,18.2" fill="none" stroke="#111" stroke-width="1.6" stroke-linecap="round" stroke-linejoin="round"/><polyline points="6.55,19.3 6.38,19.3" fill="none" stroke="#111" stroke-width="1.6" stroke-linecap="round" stroke-linejoin="round"/><polyline points="6.55,20.41 6.38,20.41" fill="none" stroke="#111" stroke-width="1.6" stroke-linecap="round" stroke-linejoin="round"/><polyline points="6.55,21.51 6.38,21.51" fill="none" stroke="#111" stroke-width="1.6" stroke-linecap="round" stroke-linejoin="round"/><polyline points="6.55,22.62 6.38,22.62" fill="none" stroke="#111" stroke-width="1.6" stroke-linecap="round" stroke-linejoin="round"/><polyline points="6.55,23.72 6.38,23.72" fill="none" stroke="#111" stroke-width="1.6" stroke-linecap="round" stroke-linejoin="round"/><polyline points="6.55,24.82 6.38,24.82" fill="none" stroke="#111" stroke-width="1.6" stroke-linecap="round" stroke-linejoin="round"/><polyline points="6.55,25.93 6.38,25.93" fill="none" stroke="#111" stroke-width="1.6" stroke-linecap="round" stroke-linejoin="round"/><polyline points="6.55,27.03 6.38,27.03" fill="none" stroke="#111" stroke-width="1.6" stroke-linecap="round" stroke-linejoin="round"/><polyline points="6.55,28.14 6.38,28.14" fill="none" stroke="#111" stroke-width="1.6" stroke-linecap="round" stroke-linejoin="round"/><polyline points="6.55,29.24 6.38,29.24" fill="none" stroke="#111" stroke-width="1.6" stroke-linecap="round" stroke-linejoin="round"/><polyline points="6.55,30.34 6.38,30.34" fill="none" stroke="#111" stroke-width="1.6" stroke-linecap="round" stroke-linejoin="round"/><polyline points="6.55,31.45 6.38,31.45" fill="none" stroke="#111" stroke-width="1.6" stroke-linecap="round" stroke-linejoin="round"/><polyline points="6.55,32.55 6.38,32.55" fill="none" stroke="#111" stroke-width="1.6" stroke-linecap="round" stroke-linejoin="round"/><polyline points="6.55,33.66 6.38,33.66" fill="none" stroke="#111" stroke-width="1.6" stroke-linecap="round" stroke-linejoin="round"/><polyline points="6.55,34.76 6.38,34.76" fill="none" stroke="#111" stroke-width="1.6" stroke-linecap="round" stroke-linejoin="round"/><polyline points="6.55,35.86 6.38,35.86" fill="none" stroke="#111" stroke-width="1.6" stroke-linecap="round" stroke-linejoin="round"/><polyline points="6.55,36.97 6.38,36.97" fill="none" stroke="#111" stroke-width="1.6" stroke-linecap="round" stroke-linejoin="round"/><polyline points="6.55,38.07 6.38,38.07" fill="none" stroke="#111" stroke-width="1.6" stroke-linecap="round" stroke-linejoin="round"/><polyline points="6.55,39.18 6.38,39.18" fill="none" stroke="#111" stroke-width="1.6" stroke-linecap="round" stroke-linejoin="round"/><polyline points="6.55,40.28 6.38,40.28" fill="none" stroke="#111" stroke-width="1.6" stroke-linecap="round" stroke-linejoin="round"/><polyline points="6.55,41.38 6.38,41.38" fill="none" stroke="#111" stroke-width="1.6" stroke-linecap="round" stroke-linejoin="round"/><polyline points="6.55,42.49 6.38,42.49" fill="none" stroke="#111" stroke-width="1.6" stroke-linecap="round" stroke-linejoin="round"/><polyline points="6.55,43.59 6.38,43.59" fill="none" stroke="#111" stroke-width="1.6" stroke-linecap="round" stroke-linejoin="round"/><polyline points="6.55,44.7 6.38,44.7" fill="none" stroke="#111" stroke-width="1.6" stroke-linecap="round" stroke-linejoin="round"/><polyline points="6.55,45.8 6.38,45.8" fill="none" stroke="#111" stroke-width="1.6" stroke-linecap="round" stroke-linejoin="round"/><polyline points="6.55,46.9 6.38,46.9" fill="none" stroke="#111" stroke-width="1.6" stroke-linecap="round" stroke-linejoin="round"/><polyline points="6.55,48.01 6.38,48.01" fill="none" stroke="#111" stroke-width="1.6" stroke-linecap="round" stroke-linejoin="round"/><polyline points="6.55,49.11 6.38,49.11" fill="none" stroke="#111" stroke-width="1.6" stroke-linecap="round" stroke-linejoin="round"/><polyline points="6.55,50.22 6.38,50.22" fill="none" stroke="#111" stroke-width="1.6" stroke-linecap="round" stroke-linejoin="round"/><polyline points="6.55,51.32 6.38,51.32" fill="none" stroke="#111" stroke-width="1.6" stroke-linecap="round" stroke-linejoin="round"/><polyline points="6.55,52.42 6.38,52.42" fill="none" stroke="#111" stroke-width="1.6" stroke-linecap="round" stroke-linejoin="round"/><polyline points="6.55,53.53 6.38,53.53" fill="none" stroke="#111" stroke-width="1.6" stroke-linecap="round" stroke-linejoin="round"/><polyline points="6.55,54.63 6.38,54.63" fill="none" stroke="#111" stroke-width="1.6" stroke-linecap="round" stroke-linejoin="round"/><polyline points="6.55,55.74 6.38,55.74" fill="none" stroke="#111" stroke-width="1.6" stroke-linecap="round" stroke-linejoin="round"/><polyline points="6.55,56.84 6.38,56.84" fill="none" stroke="#111" stroke-width="1.6" stroke-linecap="round" stroke-linejoin="round"/><polyline points="6.55,57.94 6.38,57.94" fill="none" stroke="#111" stroke-width="1.6" stroke-linecap="round" stroke-linejoin="round"/></svg>