<svg xmlns="http://www.w3.org/2000/svg" width="96" height="64" viewBox="0 0 96 64"><polyline points="6,46.86 17.14,46.86" fill="none" stroke="#111" stroke-width="1.6" stroke-linecap="round" stroke-linejoin="round"/><rect x="6" y="6" width="14.86" height="52" fill="none" stroke="#111" stroke-width="1.6"/><polyline points="9.71,13.43 9.71,20.86" fill="none" stroke="#111" stroke-width="1.6" stroke-linecap="round" stroke-linejoin="round"/><polyline points="9.71,28.29 9.71,35.71" fill="none" stroke="#111" stroke-width="1.6" stroke-linecap="round" stroke-linejoin="round"/><polyline points="9.71,43.14 9.71,50.57" fill="none" stroke="#111" stroke-width="1.6" stroke-linecap="round" stroke-linejoin="round"/><polyline points="10.46,13.43 14.91,8.97 12.69,8.97 14.91,8.97 14.91,11.2" fill="none" stroke="#111" stroke-width="1.6" stroke-linecap="round" stroke-linejoin="round"/><polyline points="10.46,28.29 14.91,23.83 12.69,23.83 14.91,23.83 14.91,26.06" fill="none" stroke="#111" stroke-width="1.6" stroke-linecap="round" stroke-linejoin="round"/><polyline points="10.46,43.14 14.91,38.69 12.69,38.69 14.91,38.69 14.91,40.91" fill="none" stroke="#111" stroke-width="1.6" stroke-linecap="round" stroke-linejoin="round"/><polyline points="13.43,13.43 17.89,8.97 15.66,8.97 17.89,8.97 17.89,11.2" fill="none" stroke="#111" stroke-width="1.6" stroke-linecap="round" stroke-linejoin="round"/><polyline points="13.43,28.29 17.89,23.83 15.66,23.83 17.89,23.83 17.89,26.06" fill="none" stroke="#111" stroke-width="1.6" stroke-linecap="round" stroke-linejoin="round"/><polyline points="13.43,43.14 17.89,38.69 15.66,38.69 17.89,38.69 17.89,40.91" fill="none" stroke="#111" stroke-width="1.6" stroke-linecap="round" stroke-linejoin="round"/><polyline points="17.14,13.43 17.14,20.86 9.71,17.14 17.14,13.43" fill="none" stroke="#111" stroke-width="1.6" stroke-linecap="round" stroke-linejoin="round"/><rect x="17.14" y="13.43" width="0" height="0" fill="none" stroke="#111" stroke-width="1.6"/><polyline points="17.14,17.14 6,17.14" fill="none" stroke="#111" stroke-width="1.6" stroke-linecap="round" stroke-linejoin="round"/><polyline points="17.14,28.29 17.14,35.71 9.71,32 17.14,28.29" fill="none" stroke="#111" stroke-width="1.6" stroke-linecap="round" stroke-linejoin="round"/><polyline points="17.14,43.14 17.14,50.57 9.71,46.86 17.14,43.14" fill="none" stroke="#111" stroke-width="1.6" stroke-linecap="round" stroke-linejoin="round"/><polyline points="17.14,46.86 19.37,46.86 19.37,17.14 17.14,17.14" fill="none" stroke="#111" stroke-width="1.6" stroke-linecap="round" stroke-linejoin="round"/><circle cx="19.37" cy="32" r="0.74" fill="none" stroke="#111" stroke-width="1.6"/><polyline points="20.86,32 6,32" fill="none" stroke="#111" stroke-width="1.6" stroke-linecap="round" stroke-linejoin="round"/></svg>