<svg xmlns="http://www.w3.org/2000/svg" width="96" height="64" viewBox="0 0 96 64"><polyline points="6,6.21 6.31,6.21" fill="none" stroke="#111" stroke-width="1.6" stroke-linecap="round" stroke-linejoin="round"/><polyline points="6,7.24 6.31,7.24" fill="none" stroke="#111" stroke-width="1.6" stroke-linecap="round" stroke-linejoin="round"/><polyline points="6,8.27 6.31,8.27" fill="none" stroke="#111" stroke-width="1.6" stroke-linecap="round" stroke-linejoin="round"/><polyline points="6,9.3 6.31,9.3" fill="none" stroke="#111" stroke-width="1.6" stroke-linecap="round" stroke-linejoin="round"/><polyline points="6,10.33 6.31,10.33" fill="none" stroke="#111" stroke-width="1.6" stroke-linecap="round" stroke-linejoin="round"/><polyline points="6,11.37 6.31,11.37" fill="none" stroke="#111" stroke-width="1.6" stroke-linecap="round" stroke-linejoin="round"/><polyline points="6,12.4 6.31,12.4" fill="none" stroke="#111" stroke-width="1.6" stroke-linecap="round" stroke-linejoin="round"/><polyline points="6,13.43 6.31,13.43" fill="none" stroke="#111" stroke-width="1.6" stroke-linecap="round" stroke-linejoin="round"/><polyline points="6,14.46 6.31,14.46" fill="none" stroke="#111" stroke-width="1.6" stroke-linecap="round" stroke-linejoin="round"/><polyline points="6,15.49 6.31,15.49" fill="none" stroke="#111" stroke-width="1.6" stroke-linecap="round" stroke-linejoin="round"/><polyline points="6,16.52 6.31,16.52" fill="none" stroke="#111" stroke-width="1.6" stroke-linecap="round" stroke-linejoin="round"/><polyline points="6,17.56 6.31,17.56" fill="none" stroke="#111" stroke-width="1.6" stroke-linecap="round" stroke-linejoin="round"/><polyline points="6,18.59 6.31,18.59" fill="none" stroke="#111" stroke-width="1.6" stroke-linecap="round" stroke-linejoin="round"/><polyline points="6,19.62 6.31,19.62" fill="none" stroke="#111" stroke-width="1.6" stroke-linecap="round" stroke-linejoin="round"/><polyline points="6,20.65 6.31,20.65" fill="none" stroke="#111" stroke-width="1.6" stroke-linecap="round" stroke-linejoin="round"/><polyline points="6,21.68 6.31,21.68" fill="none" stroke="#111" stroke-width="1.6" stroke-linecap="round" stroke-linejoin="round"/><polyline points="6,22.71 6.31,22.71" fill="none" stroke="#111" stroke-width="1.6" stroke-linecap="round" stroke-linejoin="round"/><polyline points="6,23.75 6.31,23.75" fill="none" stroke="#111" stroke-width="1.6" stroke-linecap="round" stroke-linejoin="round"/><polyline points="6,24.78 6.31,24.78" fill="none" stroke="#111" stroke-width="1.6" stroke-linecap="round" stroke-linejoin="round"/><polyline points="6,25.81 6.31,25.81" fill="none" stroke="#111" stroke-width="1.6" stroke-linecap="round" stroke-linejoin="round"/><polyline points="6,26.84 6.31,26.84" fill="none" stroke="#111" stroke-width="1.6" stroke-linecap="round" stroke-linejoin="round"/><polyline points="6,27.87 6.31,27.87" fill="none" stroke="#111" stroke-width="1.6" stroke-linecap="round" stroke-linejoin="round"/><polyline points="6,28.9 6.31,28.9" fill="none" stroke="#111" stroke-width="1.6" stroke-linecap="round" stroke-linejoin="round"/><polyline points="6,29.94 6.31,29.94" fill="none" stroke="#111" stroke-width="1.6" stroke-linecap="round" stroke-linejoin="round"/><polyline points="6,30.97 6.31,30.97" fill="none" stroke="#111" stroke-width="1.6" stroke-linecap="round" stroke-linejoin="round"/><polyline points="6,32 6.31,32" fill="none" stroke="#111" stroke-width="1.6" stroke-linecap="round" stroke-linejoin="round"/><polyline points="6,33.03 6.31,33.03" fill="none" stroke="#111" stroke-width="1.6" stroke-linecap="round" stroke-linejoin="round"/><polyline points="6,34.06 6.31,34.06" fill="none" stroke="#111" stroke-width="1.6" stroke-linecap="round" stroke-linejoin="round"/><polyline points="6,35.1 6.31,35.1" fill="none" stroke="#111" stroke-width="1.6" stroke-linecap="round" stroke-linejoin="round"/><polyline points="6,36.13 6.31,36.13" fill="none" stroke="#111" stroke-width="1.6" stroke-linecap="round" stroke-linejoin="round"/><polyline points="6,37.16 6.31,37.16" fill="none" stroke="#111" stroke-width="1.6" stroke-linecap="round" stroke-linejoin="round"/><polyline points="6,38.19 6.31,38.19" fill="none" stroke="#111" stroke-width="1.6" stroke-linecap="round" stroke-linejoin="round"/><polyline points="6,39.22 6.31,39.22" fill="none" stroke="#111" stroke-width="1.6" stroke-linecap="round" stroke-linejoin="round"/><polyline points="6,40.25 6.31,40.25" fill="none" stroke="#111" stroke-width="1.6" stroke-linecap="round" stroke-linejoin="round"/><polyline points="6,41.29 6.31,41.29" fill="none" stroke="#111" stroke-width="1.6" stroke-linecap="round" stroke-linejoin="round"/><polyline points="6,42.32 6.31,42.32" fill="none" stroke="#111" stroke-width="1.6" stroke-linecap="round" stroke-linejoin="round"/><polyline points="6,43.35 6.31,43.35" fill="none" stroke="#111" stroke-width="1.6" stroke-linecap="round" stroke-linejoin="round"/><polyline points="6,44.38 6.31,44.38" fill="none" stroke="#111" stroke-width="1.6" stroke-linecap="round" stroke-linejoin="round"/><polyline points="6,45.41 6.31,45.41" fill="none" stroke="#111" stroke-width="1.6" stroke-linecap="round" stroke-linejoin="round"/><polyline points="6,46.44 6.31,46.44" fill="none" stroke="#111" stroke-width="1.6" stroke-linecap="round" stroke-linejoin="round"/><polyline points="6,47.48 6.31,47.48" fill="none" stroke="#111" stroke-width="1.6" stroke-linecap="round" stroke-linejoin="round"/><polyline points="6,48.51 6.31,48.51" fill="none" stroke="#111" stroke-width="1.6" stroke-linecap="round" stroke-linejoin="round"/><polyline points="6,49.54 6.31,49.54" fill="none" stroke="#111" stroke-width="1.6" stroke-linecap="round" stroke-linejoin="round"/><polyline points="6,50.57 6.31,50.57" fill="none" stroke="#111" stroke-width="1.6" stroke-linecap="round" stroke-linejoin="round"/><polyline points="6,51.6 6.31,51.6" fill="none" stroke="#111" stroke-width="1.6" stroke-linecap="round" stroke-linejoin="round"/><polyline points="6,52.63 6.31,52.63" fill="none" stroke="#111" stroke-width="1.6" stroke-linecap="round" stroke-linejoin="round"/><polyline points="6,53.67 6.31,53.67" fill="none" stroke="#111" stroke-width="1.6" stroke-linecap="round" stroke-linejoin="round"/><polyline points="6,54.7 6.31,54.7" fill="none" stroke="#111" stroke-width="1.6" stroke-linecap="round" stroke-linejoin="round"/><polyline points="6,55.73 6.31,55.73" fill="none" stroke="#111" stroke-width="1.6" stroke-linecap="round" stroke-linejoin="round"/><polyline points="6,56.76 6.31,56.76" fill="none" stroke="#111" stroke-width="1.6" stroke-linecap="round" stroke-linejoin="round"/><polyline points="6,57.79 6.31,57.79" fill="none" stroke="#111" stroke-width="1.6" stroke-linecap="round" stroke-linejoin="round"/><path d="M 6.52 6.41 Q 6.31 6.21 6.52 6" fill="none" stroke="#111" stroke-width="1.6" stroke-linecap="round"/><path d="M 6.52 7.44 Q 6.31 7.24 6.52 7.03" fill="none" stroke="#111" stroke-width="1.6" stroke-linecap="round"/><path d="M 6.52 8.48 Q 6.31 8.27 6.52 8.06" fill="none" stroke="#111" stroke-width="1.6" stroke-linecap="round"/><path d="M 6.52 9.51 Q 6.31 9.3 6.52 9.1" fill="none" stroke="#111" stroke-width="1.6" stroke-linecap="round"/><path d="M 6.52 10.54 Q 6.31 10.33 6.52 10.13" fill="none" stroke="#111" stroke-width="1.6" stroke-linecap="round"/><path d="M 6.52 11.57 Q 6.31 11.37 6.52 11.16" fill="none" stroke="#111" stroke-width="1.6" stroke-linecap="round"/><path d="M 6.52 12.6 Q 6.31 12.4 6.52 12.19" fill="none" stroke="#111" stroke-width="1.6" stroke-linecap="round"/><path d="M 6.52 13.63 Q 6.31 13.43 6.52 13.22" fill="none" stroke="#111" stroke-width="1.6" stroke-linecap="round"/><path d="M 6.52 14.67 Q 6.31 14.46 6.52 14.25" fill="none" stroke="#111" stroke-width="1.6" stroke-linecap="round"/><path d="M 6.52 15.7 Q 6.31 15.49 6.52 15.29" fill="none" stroke="#111" stroke-width="1.6" stroke-linecap="round"/><path d="M 6.52 16.73 Q 6.31 16.52 6.52 16.32" fill="none" stroke="#111" stroke-width="1.6" stroke-linecap="round"/><path d="M 6.52 17.76 Q 6.31 17.56 6.52 17.35" fill="none" stroke="#111" stroke-width="1.6" stroke-linecap="round"/><path d="M 6.52 18.79 Q 6.31 18.59 6.52 18.38" fill="none" stroke="#111" stroke-width="1.6" stroke-linecap="round"/><path d="M 6.52 19.83 Q 6.31 19.62 6.52 19.41" fill="none" stroke="#111" stroke-width="1.6" stroke-linecap="round"/><path d="M 6.52 20.86 Q 6.31 20.65 6.52 20.44" fill="none" stroke="#111" stroke-width="1.6" stroke-linecap="round"/><path d="M 6.52 21.89 Q 6.31 21.68 6.52 21.48" fill="none" stroke="#111" stroke-width="1.6" stroke-linecap="round"/><path d="M 6.52 22.92 Q 6.31 22.71 6.52 22.51" fill="none" stroke="#111" stroke-width="1.6" stroke-linecap="round"/><path d="M 6.52 23.95 Q 6.31 23.75 6.52 23.54" fill="none" stroke="#111" stroke-width="1.6" stroke-linecap="round"/><path d="M 6.52 24.98 Q 6.31 24.78 6.52 24.57" fill="none" stroke="#111" stroke-width="1.6" stroke-linecap="round"/><path d="M 6.52 26.02 Q 6.31 25.81 6.52 25.6" fill="none" stroke="#111" stroke-width="1.6" stroke-linecap="round"/><path d="M 6.52 27.05 Q 6.31 26.84 6.52 26.63" fill="none" stroke="#111" stroke-width="1.6" stroke-linecap="round"/><path d="M 6.52 28.08 Q 6.31 27.87 6.52 27.67" fill="none" stroke="#111" stroke-width="1.6" stroke-linecap="round"/><path d="M 6.52 29.11 Q 6.31 28.9 6.52 28.7" fill="none" stroke="#111" stroke-width="1.6" stroke-linecap="round"/><path d="M 6.52 30.14 Q 6.31 29.94 6.52 29.73" fill="none" stroke="#111" stroke-width="1.6" stroke-linecap="round"/><path d="M 6.52 31.17 Q 6.31 30.97 6.52 30.76" fill="none" stroke="#111" stroke-width="1.6" stroke-linecap="round"/><path d="M 6.52 32.21 Q 6.31 32 6.52 31.79" fill="none" stroke="#111" stroke-width="1.6" stroke-linecap="round"/><path d="M 6.52 33.24 Q 6.31 33.03 6.52 32.83" fill="none" stroke="#111" stroke-width="1.6" stroke-linecap="round"/><path d="M 6.52 34.27 Q 6.31 34.06 6.52 33.86" fill="none" stroke="#111" stroke-width="1.6" stroke-linecap="round"/><path d="M 6.52 35.3 Q 6.31 35.1 6.52 34.89" fill="none" stroke="#111" stroke-width="1.6" stroke-linecap="round"/><path d="M 6.52 36.33 Q 6.31 36.13 6.52 35.92" fill="none" stroke="#111" stroke-width="1.6" stroke-linecap="round"/><path d="M 6.52 37.37 Q 6.31 37.16 6.52 36.95" fill="none" stroke="#111" stroke-width="1.6" stroke-linecap="round"/><path d="M 6.52 38.4 Q 6.31 38.19 6.52 37.98" fill="none" stroke="#111" stroke-width="1.6" stroke-linecap="round"/><path d="M 6.52 39.43 Q 6.31 39.22 6.52 39.02" fill="none" stroke="#111" stroke-width="1.6" stroke-linecap="round"/><path d="M 6.52 40.46 Q 6.31 40.25 6.52 40.05" fill="none" stroke="#111" stroke-width="1.6" stroke-linecap="round"/><path d="M 6.52 41.49 Q 6.31 41.29 6.52 41.08" fill="none" stroke="#111" stroke-width="1.6" stroke-linecap="round"/><path d="M 6.52 42.52 Q 6.31 42.32 6.52 42.11" fill="none" stroke="#111" stroke-width="1.6" stroke-linecap="round"/><path d="M 6.52 43.56 Q 6.31 43.35 6.52 43.14" fill="none" stroke="#111" stroke-width="1.6" stroke-linecap="round"/><path d="M 6.52 44.59 Q 6.31 44.38 6.52 44.17" fill="none" stroke="#111" stroke-width="1.6" stroke-linecap="round"/><path d="M 6.52 45.62 Q 6.31 45.41 6.52 45.21" fill="none" stroke="#111" stroke-width="1.6" stroke-linecap="round"/><path d="M 6.52 46.65 Q 6.31 46.44 6.52 46.24" fill="none" stroke="#111" stroke-width="1.6" stroke-linecap="round"/><path d="M 6.52 47.68 Q 6.31 47.48 6.52 47.27" fill="none" stroke="#111" stroke-width="1.6" stroke-linecap="round"/><path d="M 6.52 48.71 Q 6.31 48.51 6.52 48.3" fill="none" stroke="#111" stroke-width="1.6" stroke-linecap="round"/><path d="M 6.52 49.75 Q 6.31 49.54 6.52 49.33" fill="none" stroke="#111" stroke-width="1.6" stroke-linecap="round"/><path d="M 6.52 50.78 Q 6.31 50.57 6.52 50.37" fill="none" stroke="#111" stroke-width="1.6" stroke-linecap="round"/><path d="M 6.52 51.81 Q 6.31 51.6 6.52 51.4" fill="none" stroke="#111" stroke-width="1.6" stroke-linecap="round"/><path d="M 6.52 52.84 Q 6.31 52.63 6.52 52.43" fill="none" stroke="#111" stroke-width="1.6" stroke-linecap="round"/><path d="M 6.52 53.87 Q 6.31 53.67 6.52 53.46" fill="none" stroke="#111" stroke-width="1.6" stroke-linecap="round"/><path d="M 6.52 54.9 Q 6.31 54.7 6.52 54.49" fill="none" stroke="#111" stroke-width="1.6" stroke-linecap="round"/><path d="M 6.52 55.94 Q 6.31 55.73 6.52 55.52" fill="none" stroke="#111" stroke-width="1.6" stroke-linecap="round"/><path d="M 6.52 56.97 Q 6.31 56.76 6.52 56.56" fill="none" stroke="#111" stroke-width="1.6" stroke-linecap="round"/><path d="M 6.52 58 Q 6.31 57.79 6.52 57.59" fill="none" stroke="#111" stroke-width="1.6" stroke-linecap="round"/></svg>