<svg xmlns="http://www.w3.org/2000/svg" width="96" height="64" viewBox="0 0 96 64"><rect x="6" y="6" width="52" height="52" fill="none" stroke="#111" stroke-width="1.6"/><polyline points="6,19 36.55,19" fill="none" stroke="#111" stroke-width="1.6" stroke-linecap="round" stroke-linejoin="round"/><polyline points="6,32 36.55,32" fill="none" stroke="#111" stroke-width="1.6" stroke-linecap="round" stroke-linejoin="round"/><polyline points="19,19 19,51.5" fill="none" stroke="#111" stroke-width="1.6" stroke-linecap="round" stroke-linejoin="round"/><polyline points="32,32 32,58" fill="none" stroke="#111" stroke-width="1.6" stroke-linecap="round" stroke-linejoin="round"/><path d="M 41.75 19.19 Q 39.15 21.61 36.55 19.19" fill="none" stroke="#111" stroke-width="1.6" stroke-linecap="round"/><path d="M 36.55 31.81 Q 39.15 29.39 41.75 31.81" fill="none" stroke="#111" stroke-width="1.6" stroke-linecap="round"/><path d="M 46.95 19.19 Q 44.35 21.61 41.75 19.19" fill="none" stroke="#111" stroke-width="1.6" stroke-linecap="round"/><path d="M 41.75 31.81 Q 44.35 29.39 46.95 31.81" fill="none" stroke="#111" stroke-width="1.6" stroke-linecap="round"/><path d="M 52.15 19.19 Q 49.55 21.61 46.95 19.19" fill="none" stroke="#111" stroke-width="1.6" stroke-linecap="round"/><path d="M 46.95 31.81 Q 49.55 29.39 52.15 31.81" fill="none" stroke="#111" stroke-width="1.6" stroke-linecap="round"/><polyline points="58,19 52.15,19" fill="none" stroke="#111" stroke-width="1.6" stroke-linecap="round" stroke-linejoin="round"/><polyline points="58,32 52.15,32" fill="none" stroke="#111" stroke-width="1.6" stroke-linecap="round" stroke-linejoin="round"/><polyline points="15.75,45 22.25,45 19,38.5 15.75,45" fill="none" stroke="#111" stroke-width="1.6" stroke-linecap="round" stroke-linejoin="round"/><circle cx="19" cy="19" r="1.3" fill="none" stroke="#111" stroke-width="1.6"/><polyline points="22.25,40.45 22.25,38.5 15.75,38.5" fill="none" stroke="#111" stroke-width="1.6" stroke-linecap="round" stroke-linejoin="round"/><polyline points="28.75,45 35.25,45 32,38.5 28.75,45" fill="none" stroke="#111" stroke-width="1.6" stroke-linecap="round" stroke-linejoin="round"/><circle cx="32" cy="32" r="1.3" fill="none" stroke="#111" stroke-width="1.6"/><polyline points="32,51.5 19,51.5" fill="none" stroke="#111" stroke-width="1.6" stroke-linecap="round" stroke-linejoin="round"/><circle cx="32" cy="51.5" r="1.3" fill="none" stroke="#111" stroke-width="1.6"/><polyline points="35.25,40.45 35.25,38.5 28.75,38.5" fill="none" stroke="#111" stroke-width="1.6" stroke-linecap="round" stroke-linejoin="round"/><circle cx="54.1" cy="21.6" r="1.3" fill="none" stroke="#111" stroke-width="1.6"/><circle cx="54.1" cy="29.4" r="1.3" fill="none" stroke="#111" stroke-width="1.6"/><polyline points="15.75,45 22.25,45 19,38.5 15.75,45" fill="none" stroke="#111" stroke-width="1.6" stroke-linecap="round" stroke-linejoin="round"/><circle cx="19" cy="19" r="1.3" fill="none" stroke="#111" stroke-width="1.6"/><polyline points="22.25,40.45 22.25,38.5 15.75,38.5" fill="none" stroke="#111" stroke-width="1.6" stroke-linecap="round" stroke-linejoin="round"/><polyline points="28.75,45 35.25,45 32,38.5 28.75,45" fill="none" stroke="#111" stroke-width="1.6" stroke-linecap="round" stroke-linejoin="round"/><circle cx="32" cy="32" r="1.3" fill="none" stroke="#111" stroke-width="1.6"/><polyline points="32,51.5 19,51.5" fill="none" stroke="#111" stroke-width="1.6" stroke-linecap="round" stroke-linejoin="round"/><circle cx="32" cy="51.5" r="1.3" fill="none" stroke="#111" stroke-width="1.6"/><polyline points="35.25,40.45 35.25,38.5 28.75,38.5" fill="none" stroke="#111" stroke-width="1.6" stroke-linecap="round" stroke-linejoin="round"/><circle cx="54.1" cy="21.6" r="1.3" fill="none" stroke="#111" stroke-width="1.6"/><circle cx="54.1" cy="29.4" r="1.3" fill="none" stroke="#111" stroke-width="1.6"/><polyline points="15.75,45 22.25,45 19,38.5 15.75,45" fill="none" stroke="#111" stroke-width="1.6" stroke-linecap="round" stroke-linejoin="round"/><circle cx="19" cy="19" r="1.3" fill="none" stroke="#111" stroke-width="1.6"/><polyline points="22.25,40.45 22.25,38.5 15.75,38.5" fill="none" stroke="#111" stroke-width="1.6" stroke-linecap="round" stroke-linejoin="round"/><polyline points="28.75,45 35.25,45 32,38.5 28.75,45" fill="none" stroke="#111" stroke-width="1.6" stroke-linecap="round" stroke-linejoin="round"/><circle cx="32" cy="32" r="1.3" fill="none" stroke="#111" stroke-width="1.6"/><polyline points="32,51.5 19,51.5" fill="none" stroke="#111" stroke-width="1.6" stroke-linecap="round" stroke-linejoin="round"/><circle cx="32" cy="51.5" r="1.3" fill="none" stroke="#111" stroke-width="1.6"/><polyline points="35.25,40.45 35.25,38.5 28.75,38.5" fill="none" stroke="#111" stroke-width="1.6" stroke-linecap="round" stroke-linejoin="round"/><circle cx="54.1" cy="21.6" r="1.3" fill="none" stroke="#111" stroke-width="1.6"/><circle cx="54.1" cy="29.4" r="1.3" fill="none" stroke="#111" stroke-width="1.6"/></svg>