<svg xmlns="http://www.w3.org/2000/svg" width="96" height="64" viewBox="0 0 96 64"><polyline points="36.42,32 32,32" fill="none" stroke="#111" stroke-width="1.6" stroke-linecap="round" stroke-linejoin="round"/><polyline points="36.42,33.3 36.42,30.7 39.02,32 36.42,33.3 36.42,33.3" fill="none" stroke="#111" stroke-width="1.6" stroke-linecap="round" stroke-linejoin="round"/><polyline points="40.45,25.5 32,25.5" fill="none" stroke="#111" stroke-width="1.6" stroke-linecap="round" stroke-linejoin="round"/><polyline points="40.45,25.5 40.45,26.15 40.45,26.15" fill="none" stroke="#111" stroke-width="1.6" stroke-linecap="round" stroke-linejoin="round"/><polyline points="40.45,26.15 40.45,28.29" fill="none" stroke="#111" stroke-width="1.6" stroke-linecap="round" stroke-linejoin="round"/><polyline points="40.45,37.91 40.45,35.51" fill="none" stroke="#111" stroke-width="1.6" stroke-linecap="round" stroke-linejoin="round"/><polyline points="40.45,38.5 32,38.5" fill="none" stroke="#111" stroke-width="1.6" stroke-linecap="round" stroke-linejoin="round"/><polyline points="40.45,38.5 40.45,37.85 40.45,37.85" fill="none" stroke="#111" stroke-width="1.6" stroke-linecap="round" stroke-linejoin="round"/><rect x="39.08" y="28.29" width="2.61" height="7.15" fill="none" stroke="#111" stroke-width="1.6"/><rect x="19" y="20.62" width="26" height="22.76" fill="none" stroke="#111" stroke-width="1.6"/><polyline points="36.42,32 32,32" fill="none" stroke="#111" stroke-width="1.6" stroke-linecap="round" stroke-linejoin="round"/><polyline points="36.42,33.3 36.42,30.7 39.02,32 36.42,33.3 36.42,33.3" fill="none" stroke="#111" stroke-width="1.6" stroke-linecap="round" stroke-linejoin="round"/><polyline points="40.45,25.5 32,25.5" fill="none" stroke="#111" stroke-width="1.6" stroke-linecap="round" stroke-linejoin="round"/><polyline points="40.45,25.5 40.45,26.15 40.45,26.15" fill="none" stroke="#111" stroke-width="1.6" stroke-linecap="round" stroke-linejoin="round"/><polyline points="40.45,26.15 40.45,28.29" fill="none" stroke="#111" stroke-width="1.6" stroke-linecap="round" stroke-linejoin="round"/><polyline points="40.45,37.91 40.45,35.51" fill="none" stroke="#111" stroke-width="1.6" stroke-linecap="round" stroke-linejoin="round"/><polyline points="40.45,38.5 32,38.5" fill="none" stroke="#111" stroke-width="1.6" stroke-linecap="round" stroke-linejoin="round"/><polyline points="40.45,38.5 40.45,37.85 40.45,37.85" fill="none" stroke="#111" stroke-width="1.6" stroke-linecap="round" stroke-linejoin="round"/><rect x="39.08" y="28.29" width="2.61" height="7.15" fill="none" stroke="#111" stroke-width="1.6"/><rect x="19" y="20.62" width="26" height="22.76" fill="none" stroke="#111" stroke-width="1.6"/><polyline points="36.42,32 32,32" fill="none" stroke="#111" stroke-width="1.6" stroke-linecap="round" stroke-linejoin="round"/><polyline points="36.42,33.3 36.42,30.7 39.02,32 36.42,33.3 36.42,33.3" fill="none" stroke="#111" stroke-width="1.6" stroke-linecap="round" stroke-linejoin="round"/><polyline points="40.45,25.5 32,25.5" fill="none" stroke="#111" stroke-width="1.6" stroke-linecap="round" stroke-linejoin="round"/><polyline points="40.45,25.5 40.45,26.15 40.45,26.15" fill="none" stroke="#111" stroke-width="1.6" stroke-linecap="round" stroke-linejoin="round"/><polyline points="40.45,26.15 40.45,28.29" fill="none" stroke="#111" stroke-width="1.6" stroke-linecap="round" stroke-linejoin="round"/><polyline points="40.45,37.91 40.45,35.51" fill="none" stroke="#111" stroke-width="1.6" stroke-linecap="round" stroke-linejoin="round"/><polyline points="40.45,38.5 32,38.5" fill="none" stroke="#111" stroke-width="1.6" stroke-linecap="round" stroke-linejoin="round"/><polyline points="40.45,38.5 40.45,37.85 40.45,37.85" fill="none" stroke="#111" stroke-width="1.6" stroke-linecap="round" stroke-linejoin="round"/><rect x="39.08" y="28.29" width="2.61" height="7.15" fill="none" stroke="#111" stroke-width="1.6"/><rect x="19" y="20.62" width="26" height="22.76" fill="none" stroke="#111" stroke-width="1.6"/><polyline points="36.42,32 32,32" fill="none" stroke="#111" stroke-width="1.6" stroke-linecap="round" stroke-linejoin="round"/><polyline points="36.42,33.3 36.42,30.7 39.02,32 36.42,33.3 36.42,33.3" fill="none" stroke="#111" stroke-width="1.6" stroke-linecap="round" stroke-linejoin="round"/><polyline points="40.45,25.5 32,25.5" fill="none" stroke="#111" stroke-width="1.6" stroke-linecap="round" stroke-linejoin="round"/><polyline points="40.45,25.5 40.45,26.15 40.45,26.15" fill="none" stroke="#111" stroke-width="1.6" stroke-linecap="round" stroke-linejoin="round"/><polyline points="40.45,26.15 40.45,28.29" fill="none" stroke="#111" stroke-width="1.6" stroke-linecap="round" stroke-linejoin="round"/><polyline points="40.45,37.91 40.45,35.51" fill="none" stroke="#111" stroke-width="1.6" stroke-linecap="round" stroke-linejoin="round"/><polyline points="40.45,38.5 32,38.5" fill="none" stroke="#111" stroke-width="1.6" stroke-linecap="round" stroke-linejoin="round"/><polyline points="40.45,38.5 40.45,37.85 40.45,37.85" fill="none" stroke="#111" stroke-width="1.6" stroke-linecap="round" stroke-linejoin="round"/><rect x="39.08" y="28.29" width="2.61" height="7.15" fill="none" stroke="#111" stroke-width="1.6"/><rect x="19" y="20.62" width="26" height="22.76" fill="none" stroke="#111" stroke-width="1.6"/><rect x="6" y="6" width="52" height="52" fill="none" stroke="#111" stroke-width="1.6"/></svg>