<svg xmlns="http://www.w3.org/2000/svg" width="96" height="64" viewBox="0 0 96 64"><rect x="6" y="6" width="2.17" height="52" fill="none" stroke="#111" stroke-width="1.6"/><rect x="6" y="6.49" width="0.54" height="0.11" fill="none" stroke="#111" stroke-width="1.6"/><rect x="6" y="7.57" width="0.54" height="0.11" fill="none" stroke="#111" stroke-width="1.6"/><rect x="6" y="8.65" width="0.54" height="0.11" fill="none" stroke="#111" stroke-width="1.6"/><rect x="6" y="9.74" width="0.54" height="0.11" fill="none" stroke="#111" stroke-width="1.6"/><rect x="6" y="10.82" width="0.54" height="0.11" fill="none" stroke="#111" stroke-width="1.6"/><rect x="6" y="11.9" width="0.54" height="0.11" fill="none" stroke="#111" stroke-width="1.6"/><rect x="6" y="12.99" width="0.54" height="0.11" fill="none" stroke="#111" stroke-width="1.6"/><rect x="6" y="14.07" width="0.54" height="0.11" fill="none" stroke="#111" stroke-width="1.6"/><rect x="6" y="15.15" width="0.54" height="0.11" fill="none" stroke="#111" stroke-width="1.6"/><rect x="6" y="16.24" width="0.54" height="0.11" fill="none" stroke="#111" stroke-width="1.6"/><rect x="6" y="17.32" width="0.54" height="0.11" fill="none" stroke="#111" stroke-width="1.6"/><rect x="6" y="18.4" width="0.54" height="0.11" fill="none" stroke="#111" stroke-width="1.6"/><rect x="6" y="19.49" width="0.54" height="0.11" fill="none" stroke="#111" stroke-width="1.6"/><rect x="6" y="20.57" width="0.54" height="0.11" fill="none" stroke="#111" stroke-width="1.6"/><rect x="6" y="21.65" width="0.54" height="0.11" fill="none" stroke="#111" stroke-width="1.6"/><rect x="6" y="22.74" width="0.54" height="0.11" fill="none" stroke="#111" stroke-width="1.6"/><rect x="6" y="23.82" width="0.54" height="0.11" fill="none" stroke="#111" stroke-width="1.6"/><rect x="6" y="24.9" width="0.54" height="0.11" fill="none" stroke="#111" stroke-width="1.6"/><rect x="6" y="25.99" width="0.54" height="0.11" fill="none" stroke="#111" stroke-width="1.6"/><rect x="6" y="27.07" width="0.54" height="0.11" fill="none" stroke="#111" stroke-width="1.6"/><rect x="6" y="28.15" width="0.54" height="0.11" fill="none" stroke="#111" stroke-width="1.6"/><rect x="6" y="29.24" width="0.54" height="0.11" fill="none" stroke="#111" stroke-width="1.6"/><rect x="6" y="30.32" width="0.54" height="0.11" fill="none" stroke="#111" stroke-width="1.6"/><rect x="6" y="31.4" width="0.54" height="0.11" fill="none" stroke="#111" stroke-width="1.6"/><rect x="6" y="32.49" width="0.54" height="0.11" fill="none" stroke="#111" stroke-width="1.6"/><rect x="6" y="33.57" width="0.54" height="0.11" fill="none" stroke="#111" stroke-width="1.6"/><rect x="6" y="34.65" width="0.54" height="0.11" fill="none" stroke="#111" stroke-width="1.6"/><rect x="6" y="35.74" width="0.54" height="0.11" fill="none" stroke="#111" stroke-width="1.6"/><rect x="6" y="36.82" width="0.54" height="0.11" fill="none" stroke="#111" stroke-width="1.6"/><rect x="6" y="37.9" width="0.54" height="0.11" fill="none" stroke="#111" stroke-width="1.6"/><rect x="6" y="38.99" width="0.54" height="0.11" fill="none" stroke="#111" stroke-width="1.6"/><rect x="6" y="40.07" width="0.54" height="0.11" fill="none" stroke="#111" stroke-width="1.6"/><rect x="6" y="41.15" width="0.54" height="0.11" fill="none" stroke="#111" stroke-width="1.6"/><rect x="6" y="42.24" width="0.54" height="0.11" fill="none" stroke="#111" stroke-width="1.6"/><rect x="6" y="43.32" width="0.54" height="0.11" fill="none" stroke="#111" stroke-width="1.6"/><rect x="6" y="44.4" width="0.54" height="0.11" fill="none" stroke="#111" stroke-width="1.6"/><rect x="6" y="45.49" width="0.54" height="0.11" fill="none" stroke="#111" stroke-width="1.6"/><rect x="6" y="46.57" width="0.54" height="0.11" fill="none" stroke="#111" stroke-width="1.6"/><rect x="6" y="47.65" width="0.54" height="0.11" fill="none" stroke="#111" stroke-width="1.6"/><rect x="6" y="48.74" width="0.54" height="0.11" fill="none" stroke="#111" stroke-width="1.6"/><rect x="6" y="49.82" width="0.54" height="0.11" fill="none" stroke="#111" stroke-width="1.6"/><rect x="6" y="50.9" width="0.54" height="0.11" fill="none" stroke="#111" stroke-width="1.6"/><rect x="6" y="51.99" width="0.54" height="0.11" fill="none" stroke="#111" stroke-width="1.6"/><rect x="6" y="53.07" width="0.54" height="0.11" fill="none" stroke="#111" stroke-width="1.6"/><rect x="6" y="54.15" width="0.54" height="0.11" fill="none" stroke="#111" stroke-width="1.6"/><rect x="6" y="55.24" width="0.54" height="0.11" fill="none" stroke="#111" stroke-width="1.6"/><rect x="6" y="56.32" width="0.54" height="0.11" fill="none" stroke="#111" stroke-width="1.6"/><rect x="6" y="57.4" width="0.54" height="0.11" fill="none" stroke="#111" stroke-width="1.6"/><rect x="7.62" y="6.49" width="0.55" height="0.11" fill="none" stroke="#111" stroke-width="1.6"/><rect x="7.62" y="7.57" width="0.55" height="0.11" fill="none" stroke="#111" stroke-width="1.6"/><rect x="7.62" y="8.65" width="0.55" height="0.11" fill="none" stroke="#111" stroke-width="1.6"/><rect x="7.62" y="9.74" width="0.55" height="0.11" fill="none" stroke="#111" stroke-width="1.6"/><rect x="7.62" y="10.82" width="0.55" height="0.11" fill="none" stroke="#111" stroke-width="1.6"/><rect x="7.62" y="11.9" width="0.55" height="0.11" fill="none" stroke="#111" stroke-width="1.6"/><rect x="7.62" y="12.99" width="0.55" height="0.11" fill="none" stroke="#111" stroke-width="1.6"/><rect x="7.62" y="14.07" width="0.55" height="0.11" fill="none" stroke="#111" stroke-width="1.6"/><rect x="7.62" y="15.15" width="0.55" height="0.11" fill="none" stroke="#111" stroke-width="1.6"/><rect x="7.62" y="16.24" width="0.55" height="0.11" fill="none" stroke="#111" stroke-width="1.6"/><rect x="7.62" y="17.32" width="0.55" height="0.11" fill="none" stroke="#111" stroke-width="1.6"/><rect x="7.62" y="18.4" width="0.55" height="0.11" fill="none" stroke="#111" stroke-width="1.6"/><rect x="7.62" y="19.49" width="0.55" height="0.11" fill="none" stroke="#111" stroke-width="1.6"/><rect x="7.62" y="20.57" width="0.55" height="0.11" fill="none" stroke="#111" stroke-width="1.6"/><rect x="7.62" y="21.65" width="0.55" height="0.11" fill="none" stroke="#111" stroke-width="1.6"/><rect x="7.62" y="22.74" width="0.55" height="0.11" fill="none" stroke="#111" stroke-width="1.6"/><rect x="7.62" y="23.82" width="0.55" height="0.11" fill="none" stroke="#111" stroke-width="1.6"/><rect x="7.62" y="24.9" width="0.55" height="0.11" fill="none" stroke="#111" stroke-width="1.6"/><rect x="7.62" y="25.99" width="0.55" height="0.11" fill="none" stroke="#111" stroke-width="1.6"/><rect x="7.62" y="27.07" width="0.55" height="0.11" fill="none" stroke="#111" stroke-width="1.6"/><rect x="7.62" y="28.15" width="0.55" height="0.11" fill="none" stroke="#111" stroke-width="1.6"/><rect x="7.62" y="29.24" width="0.55" height="0.11" fill="none" stroke="#111" stroke-width="1.6"/><rect x="7.62" y="30.32" width="0.55" height="0.11" fill="none" stroke="#111" stroke-width="1.6"/><rect x="7.62" y="31.4" width="0.55" height="0.11" fill="none" stroke="#111" stroke-width="1.6"/><rect x="7.62" y="32.49" width="0.55" height="0.11" fill="none" stroke="#111" stroke-width="1.6"/><rect x="7.62" y="33.57" width="0.55" height="0.11" fill="none" stroke="#111" stroke-width="1.6"/><rect x="7.62" y="34.65" width="0.55" height="0.11" fill="none" stroke="#111" stroke-width="1.6"/><rect x="7.62" y="35.74" width="0.55" height="0.11" fill="none" stroke="#111" stroke-width="1.6"/><rect x="7.62" y="36.82" width="0.55" height="0.11" fill="none" stroke="#111" stroke-width="1.6"/><rect x="7.62" y="37.9" width="0.55" height="0.11" fill="none" stroke="#111" stroke-width="1.6"/><rect x="7.62" y="38.99" width="0.55" height="0.11" fill="none" stroke="#111" stroke-width="1.6"/><rect x="7.62" y="40.07" width="0.55" height="0.11" fill="none" stroke="#111" stroke-width="1.6"/><rect x="7.62" y="41.15" width="0.55" height="0.11" fill="none" stroke="#111" stroke-width="1.6"/><rect x="7.62" y="42.24" width="0.55" height="0.11" fill="none" stroke="#111" stroke-width="1.6"/><rect x="7.62" y="43.32" width="0.55" height="0.11" fill="none" stroke="#111" stroke-width="1.6"/><rect x="7.62" y="44.4" width="0.55" height="0.11" fill="none" stroke="#111" stroke-width="1.6"/><rect x="7.62" y="45.49" width="0.55" height="0.11" fill="none" stroke="#111" stroke-width="1.6"/><rect x="7.62" y="46.57" width="0.55" height="0.11" fill="none" stroke="#111" stroke-width="1.6"/><rect x="7.62" y="47.65" width="0.55" height="0.11" fill="none" stroke="#111" stroke-width="1.6"/><rect x="7.62" y="48.74" width="0.55" height="0.11" fill="none" stroke="#111" stroke-width="1.6"/><rect x="7.62" y="49.82" width="0.55" height="0.11" fill="none" stroke="#111" stroke-width="1.6"/><rect x="7.62" y="50.9" width="0.55" height="0.11" fill="none" stroke="#111" stroke-width="1.6"/><rect x="7.62" y="51.99" width="0.55" height="0.11" fill="none" stroke="#111" stroke-width="1.6"/><rect x="7.62" y="53.07" width="0.55" height="0.11" fill="none" stroke="#111" stroke-width="1.6"/><rect x="7.62" y="54.15" width="0.55" height="0.11" fill="none" stroke="#111" stroke-width="1.6"/><rect x="7.62" y="55.24" width="0.55" height="0.11" fill="none" stroke="#111" stroke-width="1.6"/><rect x="7.62" y="56.32" width="0.55" height="0.11" fill="none" stroke="#111" stroke-width="1.6"/><rect x="7.62" y="57.4" width="0.55" height="0.11" fill="none" stroke="#111" stroke-width="1.6"/></svg>