<svg xmlns="http://www.w3.org/2000/svg" width="96" height="64" viewBox="0 0 96 64"><rect x="6" y="6" width="6.93" height="52" fill="none" stroke="#111" stroke-width="1.6"/><rect x="6.35" y="6.35" width="6.24" height="51.3" fill="none" stroke="#111" stroke-width="1.6"/><rect x="6.35" y="7.56" width="1.73" height="0.35" fill="none" stroke="#111" stroke-width="1.6"/><rect x="6.35" y="11.03" width="1.73" height="0.34" fill="none" stroke="#111" stroke-width="1.6"/><rect x="6.35" y="14.49" width="1.73" height="0.35" fill="none" stroke="#111" stroke-width="1.6"/><rect x="6.35" y="17.96" width="1.73" height="0.35" fill="none" stroke="#111" stroke-width="1.6"/><rect x="6.35" y="21.43" width="1.73" height="0.34" fill="none" stroke="#111" stroke-width="1.6"/><rect x="6.35" y="24.89" width="1.73" height="0.35" fill="none" stroke="#111" stroke-width="1.6"/><rect x="6.35" y="28.36" width="1.73" height="0.35" fill="none" stroke="#111" stroke-width="1.6"/><rect x="6.35" y="31.83" width="1.73" height="0.34" fill="none" stroke="#111" stroke-width="1.6"/><rect x="6.35" y="35.29" width="1.73" height="0.35" fill="none" stroke="#111" stroke-width="1.6"/><rect x="6.35" y="38.76" width="1.73" height="0.35" fill="none" stroke="#111" stroke-width="1.6"/><rect x="6.35" y="42.23" width="1.73" height="0.34" fill="none" stroke="#111" stroke-width="1.6"/><rect x="6.35" y="45.69" width="1.73" height="0.35" fill="none" stroke="#111" stroke-width="1.6"/><rect x="6.35" y="49.16" width="1.73" height="0.35" fill="none" stroke="#111" stroke-width="1.6"/><rect x="6.35" y="52.63" width="1.73" height="0.34" fill="none" stroke="#111" stroke-width="1.6"/><rect x="6.35" y="56.09" width="1.73" height="0.35" fill="none" stroke="#111" stroke-width="1.6"/><rect x="10.85" y="7.56" width="1.74" height="0.35" fill="none" stroke="#111" stroke-width="1.6"/><rect x="10.85" y="11.03" width="1.74" height="0.34" fill="none" stroke="#111" stroke-width="1.6"/><rect x="10.85" y="14.49" width="1.74" height="0.35" fill="none" stroke="#111" stroke-width="1.6"/><rect x="10.85" y="17.96" width="1.74" height="0.35" fill="none" stroke="#111" stroke-width="1.6"/><rect x="10.85" y="21.43" width="1.74" height="0.34" fill="none" stroke="#111" stroke-width="1.6"/><rect x="10.85" y="24.89" width="1.74" height="0.35" fill="none" stroke="#111" stroke-width="1.6"/><rect x="10.85" y="28.36" width="1.74" height="0.35" fill="none" stroke="#111" stroke-width="1.6"/><rect x="10.85" y="31.83" width="1.74" height="0.34" fill="none" stroke="#111" stroke-width="1.6"/><rect x="10.85" y="35.29" width="1.74" height="0.35" fill="none" stroke="#111" stroke-width="1.6"/><rect x="10.85" y="38.76" width="1.74" height="0.35" fill="none" stroke="#111" stroke-width="1.6"/><rect x="10.85" y="42.23" width="1.74" height="0.34" fill="none" stroke="#111" stroke-width="1.6"/><rect x="10.85" y="45.69" width="1.74" height="0.35" fill="none" stroke="#111" stroke-width="1.6"/><rect x="10.85" y="49.16" width="1.74" height="0.35" fill="none" stroke="#111" stroke-width="1.6"/><rect x="10.85" y="52.63" width="1.74" height="0.34" fill="none" stroke="#111" stroke-width="1.6"/></svg>