<svg xmlns="http://www.w3.org/2000/svg" width="96" height="64" viewBox="0 0 96 64"><rect x="6" y="6" width="84" height="26.25" fill="none" stroke="#111" stroke-width="1.6"/><rect x="8.1" y="12.82" width="6.3" height="16.8" fill="none" stroke="#111" stroke-width="1.6"/><circle cx="11.25" cy="9.67" r="1.05" fill="none" stroke="#111" stroke-width="1.6"/><polyline points="11.25,12.82 11.25,9.67 21.75,9.67 21.75,12.82" fill="none" stroke="#111" stroke-width="1.6" stroke-linecap="round" stroke-linejoin="round"/><polyline points="11.25,29.62 11.25,34.88" fill="none" stroke="#111" stroke-width="1.6" stroke-linecap="round" stroke-linejoin="round"/><rect x="18.6" y="12.82" width="6.3" height="16.8" fill="none" stroke="#111" stroke-width="1.6"/><circle cx="21.75" cy="9.67" r="1.05" fill="none" stroke="#111" stroke-width="1.6"/><polyline points="21.75,12.82 21.75,9.67 32.25,9.67 32.25,12.82" fill="none" stroke="#111" stroke-width="1.6" stroke-linecap="round" stroke-linejoin="round"/><polyline points="21.75,29.62 21.75,34.88" fill="none" stroke="#111" stroke-width="1.6" stroke-linecap="round" stroke-linejoin="round"/><rect x="29.1" y="12.82" width="6.3" height="16.8" fill="none" stroke="#111" stroke-width="1.6"/><circle cx="32.25" cy="9.67" r="1.05" fill="none" stroke="#111" stroke-width="1.6"/><polyline points="32.25,12.82 32.25,9.67 42.75,9.67 42.75,12.82" fill="none" stroke="#111" stroke-width="1.6" stroke-linecap="round" stroke-linejoin="round"/><polyline points="32.25,29.62 32.25,34.88" fill="none" stroke="#111" stroke-width="1.6" stroke-linecap="round" stroke-linejoin="round"/><rect x="39.6" y="12.82" width="6.3" height="16.8" fill="none" stroke="#111" stroke-width="1.6"/><circle cx="42.75" cy="9.67" r="1.05" fill="none" stroke="#111" stroke-width="1.6"/><polyline points="42.75,12.82 42.75,9.67 53.25,9.67 53.25,12.82" fill="none" stroke="#111" stroke-width="1.6" stroke-linecap="round" stroke-linejoin="round"/><polyline points="42.75,29.62 42.75,34.88" fill="none" stroke="#111" stroke-width="1.6" stroke-linecap="round" stroke-linejoin="round"/><rect x="50.1" y="12.82" width="6.3" height="16.8" fill="none" stroke="#111" stroke-width="1.6"/><circle cx="53.25" cy="9.67" r="1.05" fill="none" stroke="#111" stroke-width="1.6"/><polyline points="53.25,12.82 53.25,9.67 63.75,9.67 63.75,12.82" fill="none" stroke="#111" stroke-width="1.6" stroke-linecap="round" stroke-linejoin="round"/><polyline points="53.25,29.62 53.25,34.88" fill="none" stroke="#111" stroke-width="1.6" stroke-linecap="round" stroke-linejoin="round"/><rect x="60.6" y="12.82" width="6.3" height="16.8" fill="none" stroke="#111" stroke-width="1.6"/><circle cx="63.75" cy="9.67" r="1.05" fill="none" stroke="#111" stroke-width="1.6"/><polyline points="63.75,12.82 63.75,9.67 74.25,9.67 74.25,12.82" fill="none" stroke="#111" stroke-width="1.6" stroke-linecap="round" stroke-linejoin="round"/><polyline points="63.75,29.62 63.75,34.88" fill="none" stroke="#111" stroke-width="1.6" stroke-linecap="round" stroke-linejoin="round"/><rect x="71.1" y="12.82" width="6.3" height="16.8" fill="none" stroke="#111" stroke-width="1.6"/><circle cx="74.25" cy="9.67" r="1.05" fill="none" stroke="#111" stroke-width="1.6"/><polyline points="74.25,12.82 74.25,9.67 84.75,9.67 84.75,12.82" fill="none" stroke="#111" stroke-width="1.6" stroke-linecap="round" stroke-linejoin="round"/><polyline points="74.25,29.62 74.25,34.88" fill="none" stroke="#111" stroke-width="1.6" stroke-linecap="round" stroke-linejoin="round"/><rect x="81.6" y="12.82" width="6.3" height="16.8" fill="none" stroke="#111" stroke-width="1.6"/><polyline points="84.75,29.62 84.75,34.88" fill="none" stroke="#111" stroke-width="1.6" stroke-linecap="round" stroke-linejoin="round"/></svg>