<svg xmlns="http://www.w3.org/2000/svg" width="96" height="64" viewBox="0 0 96 64"><polyline points="7.73,30.27 9.47,30.27 12.07,25.07 12.93,25.07 11.2,25.07 8.6,30.27 8.6,30.27" fill="none" stroke="#111" stroke-width="1.6" stroke-linecap="round" stroke-linejoin="round"/><polyline points="16.4,25.93 16.4,29.4 19.87,27.67 16.4,25.93 16.4,25.93" fill="none" stroke="#111" stroke-width="1.6" stroke-linecap="round" stroke-linejoin="round"/><polyline points="33.73,25.93 37.2,25.93 35.47,29.4 33.73,25.93 33.73,25.93" fill="none" stroke="#111" stroke-width="1.6" stroke-linecap="round" stroke-linejoin="round"/><rect x="6" y="23.33" width="34.67" height="8.67" fill="none" stroke="#111" stroke-width="1.6"/><rect x="6" y="32" width="34.67" height="8.67" fill="none" stroke="#111" stroke-width="1.6"/><rect x="6" y="40.67" width="34.67" height="8.66" fill="none" stroke="#111" stroke-width="1.6"/><rect x="6" y="49.33" width="34.67" height="8.67" fill="none" stroke="#111" stroke-width="1.6"/><polyline points="10.33,23.33 10.33,19 6,19 6,6 40.67,6 40.67,19 36.33,19 36.33,23.33 36.33,23.33" fill="none" stroke="#111" stroke-width="1.6" stroke-linecap="round" stroke-linejoin="round"/></svg>