<svg xmlns="http://www.w3.org/2000/svg" width="96" height="64" viewBox="0 0 96 64"><polyline points="6,6.51 6.76,6.51" fill="none" stroke="#111" stroke-width="1.6" stroke-linecap="round" stroke-linejoin="round"/><polyline points="6,9.06 6.76,9.06" fill="none" stroke="#111" stroke-width="1.6" stroke-linecap="round" stroke-linejoin="round"/><polyline points="6,11.61 6.76,11.61" fill="none" stroke="#111" stroke-width="1.6" stroke-linecap="round" stroke-linejoin="round"/><polyline points="6,14.16 6.76,14.16" fill="none" stroke="#111" stroke-width="1.6" stroke-linecap="round" stroke-linejoin="round"/><polyline points="6,16.71 6.76,16.71" fill="none" stroke="#111" stroke-width="1.6" stroke-linecap="round" stroke-linejoin="round"/><polyline points="6,19.25 6.76,19.25" fill="none" stroke="#111" stroke-width="1.6" stroke-linecap="round" stroke-linejoin="round"/><polyline points="6,21.8 6.76,21.8" fill="none" stroke="#111" stroke-width="1.6" stroke-linecap="round" stroke-linejoin="round"/><polyline points="6,24.35 6.76,24.35" fill="none" stroke="#111" stroke-width="1.6" stroke-linecap="round" stroke-linejoin="round"/><polyline points="6,26.9 6.76,26.9" fill="none" stroke="#111" stroke-width="1.6" stroke-linecap="round" stroke-linejoin="round"/><polyline points="6,29.45 6.76,29.45" fill="none" stroke="#111" stroke-width="1.6" stroke-linecap="round" stroke-linejoin="round"/><polyline points="6,32 6.76,32" fill="none" stroke="#111" stroke-width="1.6" stroke-linecap="round" stroke-linejoin="round"/><polyline points="6,34.55 6.76,34.55" fill="none" stroke="#111" stroke-width="1.6" stroke-linecap="round" stroke-linejoin="round"/><polyline points="6,37.1 6.76,37.1" fill="none" stroke="#111" stroke-width="1.6" stroke-linecap="round" stroke-linejoin="round"/><polyline points="6,39.65 6.76,39.65" fill="none" stroke="#111" stroke-width="1.6" stroke-linecap="round" stroke-linejoin="round"/><polyline points="6,42.2 6.76,42.2" fill="none" stroke="#111" stroke-width="1.6" stroke-linecap="round" stroke-linejoin="round"/><polyline points="6,44.75 6.76,44.75" fill="none" stroke="#111" stroke-width="1.6" stroke-linecap="round" stroke-linejoin="round"/><polyline points="6,47.29 6.76,47.29" fill="none" stroke="#111" stroke-width="1.6" stroke-linecap="round" stroke-linejoin="round"/><polyline points="6,49.84 6.76,49.84" fill="none" stroke="#111" stroke-width="1.6" stroke-linecap="round" stroke-linejoin="round"/><polyline points="6,52.39 6.76,52.39" fill="none" stroke="#111" stroke-width="1.6" stroke-linecap="round" stroke-linejoin="round"/><polyline points="6,54.94 6.76,54.94" fill="none" stroke="#111" stroke-width="1.6" stroke-linecap="round" stroke-linejoin="round"/><polyline points="6,57.49 6.76,57.49" fill="none" stroke="#111" stroke-width="1.6" stroke-linecap="round" stroke-linejoin="round"/><path d="M 7.27 7.02 Q 6.77 6.51 7.27 6" fill="none" stroke="#111" stroke-width="1.6" stroke-linecap="round"/><path d="M 7.27 9.57 Q 6.77 9.06 7.27 8.55" fill="none" stroke="#111" stroke-width="1.6" stroke-linecap="round"/><path d="M 7.27 12.12 Q 6.77 11.61 7.27 11.1" fill="none" stroke="#111" stroke-width="1.6" stroke-linecap="round"/><path d="M 7.27 14.67 Q 6.77 14.16 7.27 13.65" fill="none" stroke="#111" stroke-width="1.6" stroke-linecap="round"/><path d="M 7.27 17.22 Q 6.77 16.71 7.27 16.2" fill="none" stroke="#111" stroke-width="1.6" stroke-linecap="round"/><path d="M 7.27 19.76 Q 6.77 19.25 7.27 18.75" fill="none" stroke="#111" stroke-width="1.6" stroke-linecap="round"/><path d="M 7.27 22.31 Q 6.77 21.8 7.27 21.29" fill="none" stroke="#111" stroke-width="1.6" stroke-linecap="round"/><path d="M 7.27 24.86 Q 6.77 24.35 7.27 23.84" fill="none" stroke="#111" stroke-width="1.6" stroke-linecap="round"/><path d="M 7.27 27.41 Q 6.77 26.9 7.27 26.39" fill="none" stroke="#111" stroke-width="1.6" stroke-linecap="round"/><path d="M 7.27 29.96 Q 6.77 29.45 7.27 28.94" fill="none" stroke="#111" stroke-width="1.6" stroke-linecap="round"/><path d="M 7.27 32.51 Q 6.77 32 7.27 31.49" fill="none" stroke="#111" stroke-width="1.6" stroke-linecap="round"/><path d="M 7.27 35.06 Q 6.77 34.55 7.27 34.04" fill="none" stroke="#111" stroke-width="1.6" stroke-linecap="round"/><path d="M 7.27 37.61 Q 6.77 37.1 7.27 36.59" fill="none" stroke="#111" stroke-width="1.6" stroke-linecap="round"/><path d="M 7.27 40.16 Q 6.77 39.65 7.27 39.14" fill="none" stroke="#111" stroke-width="1.6" stroke-linecap="round"/><path d="M 7.27 42.71 Q 6.77 42.2 7.27 41.69" fill="none" stroke="#111" stroke-width="1.6" stroke-linecap="round"/><path d="M 7.27 45.25 Q 6.77 44.75 7.27 44.24" fill="none" stroke="#111" stroke-width="1.6" stroke-linecap="round"/><path d="M 7.27 47.8 Q 6.77 47.29 7.27 46.78" fill="none" stroke="#111" stroke-width="1.6" stroke-linecap="round"/><path d="M 7.27 50.35 Q 6.77 49.84 7.27 49.33" fill="none" stroke="#111" stroke-width="1.6" stroke-linecap="round"/><path d="M 7.27 52.9 Q 6.77 52.39 7.27 51.88" fill="none" stroke="#111" stroke-width="1.6" stroke-linecap="round"/><path d="M 7.27 55.45 Q 6.77 54.94 7.27 54.43" fill="none" stroke="#111" stroke-width="1.6" stroke-linecap="round"/><path d="M 7.27 58 Q 6.77 57.49 7.27 56.98" fill="none" stroke="#111" stroke-width="1.6" stroke-linecap="round"/></svg>