<svg xmlns="http://www.w3.org/2000/svg" width="96" height="64" viewBox="0 0 96 64"><rect x="6" y="6" width="84" height="33.03" fill="none" stroke="#111" stroke-width="1.6"/><polyline points="10.72,15.44 29.6,15.44" fill="none" stroke="#111" stroke-width="1.6" stroke-linecap="round" stroke-linejoin="round"/><rect x="10.72" y="26.76" width="15.1" height="1.89" fill="none" stroke="#111" stroke-width="1.6"/><circle cx="18.27" cy="15.44" r="1.89" fill="none" stroke="#111" stroke-width="1.6"/><polyline points="18.27,15.44 18.27,21.1" fill="none" stroke="#111" stroke-width="1.6" stroke-linecap="round" stroke-linejoin="round"/><polyline points="18.27,28.65 18.27,34.31 76.79,34.31 76.79,28.65" fill="none" stroke="#111" stroke-width="1.6" stroke-linecap="round" stroke-linejoin="round"/><rect x="10.72" y="21.1" width="15.1" height="1.89" fill="none" stroke="#111" stroke-width="1.6"/><path d="M 29.6 15.44 Q 33.37 11.68 37.15 15.44" fill="none" stroke="#111" stroke-width="1.6" stroke-linecap="round"/><path d="M 37.15 15.44 Q 40.92 11.68 44.7 15.44" fill="none" stroke="#111" stroke-width="1.6" stroke-linecap="round"/><path d="M 44.7 15.44 Q 48.47 11.68 52.25 15.44" fill="none" stroke="#111" stroke-width="1.6" stroke-linecap="round"/><circle cx="48.47" cy="34.31" r="1.89" fill="none" stroke="#111" stroke-width="1.6"/><path d="M 52.25 15.44 Q 56.02 11.68 59.8 15.44" fill="none" stroke="#111" stroke-width="1.6" stroke-linecap="round"/><path d="M 59.8 15.44 Q 63.57 11.68 67.35 15.44" fill="none" stroke="#111" stroke-width="1.6" stroke-linecap="round"/><polyline points="67.35,15.44 86.22,15.44" fill="none" stroke="#111" stroke-width="1.6" stroke-linecap="round" stroke-linejoin="round"/><rect x="69.24" y="26.76" width="15.1" height="1.89" fill="none" stroke="#111" stroke-width="1.6"/><polyline points="76.79,15.44 76.79,21.1" fill="none" stroke="#111" stroke-width="1.6" stroke-linecap="round" stroke-linejoin="round"/><circle cx="76.79" cy="15.44" r="1.89" fill="none" stroke="#111" stroke-width="1.6"/><rect x="69.24" y="21.1" width="15.1" height="1.89" fill="none" stroke="#111" stroke-width="1.6"/></svg>