<svg xmlns="http://www.w3.org/2000/svg" width="96" height="64" viewBox="0 0 96 64"><polyline points="11.2,32 20.56,32" fill="none" stroke="#111" stroke-width="1.6" stroke-linecap="round" stroke-linejoin="round"/><rect x="16.4" y="13.8" width="31.2" height="36.4" fill="none" stroke="#111" stroke-width="1.6"/><circle cx="23.16" cy="32" r="2.08" fill="none" stroke="#111" stroke-width="1.6"/><polyline points="25.24,31.48 42.4,24.2" fill="none" stroke="#111" stroke-width="1.6" stroke-linecap="round" stroke-linejoin="round"/><circle cx="40.84" cy="21.6" r="2.08" fill="none" stroke="#111" stroke-width="1.6"/><circle cx="40.84" cy="42.4" r="2.08" fill="none" stroke="#111" stroke-width="1.6"/><polyline points="52.8,21.6 43.44,21.6" fill="none" stroke="#111" stroke-width="1.6" stroke-linecap="round" stroke-linejoin="round"/><polyline points="52.8,42.4 43.44,42.4" fill="none" stroke="#111" stroke-width="1.6" stroke-linecap="round" stroke-linejoin="round"/><polyline points="11.2,32 20.56,32" fill="none" stroke="#111" stroke-width="1.6" stroke-linecap="round" stroke-linejoin="round"/><rect x="16.4" y="13.8" width="31.2" height="36.4" fill="none" stroke="#111" stroke-width="1.6"/><circle cx="23.16" cy="32" r="2.08" fill="none" stroke="#111" stroke-width="1.6"/><polyline points="25.24,31.48 42.4,24.2" fill="none" stroke="#111" stroke-width="1.6" stroke-linecap="round" stroke-linejoin="round"/><circle cx="40.84" cy="21.6" r="2.08" fill="none" stroke="#111" stroke-width="1.6"/><circle cx="40.84" cy="42.4" r="2.08" fill="none" stroke="#111" stroke-width="1.6"/><polyline points="52.8,21.6 43.44,21.6" fill="none" stroke="#111" stroke-width="1.6" stroke-linecap="round" stroke-linejoin="round"/><polyline points="52.8,42.4 43.44,42.4" fill="none" stroke="#111" stroke-width="1.6" stroke-linecap="round" stroke-linejoin="round"/><polyline points="11.2,32 20.56,32" fill="none" stroke="#111" stroke-width="1.6" stroke-linecap="round" stroke-linejoin="round"/><rect x="16.4" y="13.8" width="31.2" height="36.4" fill="none" stroke="#111" stroke-width="1.6"/><circle cx="23.16" cy="32" r="2.08" fill="none" stroke="#111" stroke-width="1.6"/><polyline points="25.24,31.48 42.4,24.2" fill="none" stroke="#111" stroke-width="1.6" stroke-linecap="round" stroke-linejoin="round"/><circle cx="40.84" cy="21.6" r="2.08" fill="none" stroke="#111" stroke-width="1.6"/><circle cx="40.84" cy="42.4" r="2.08" fill="none" stroke="#111" stroke-width="1.6"/><polyline points="52.8,21.6 43.44,21.6" fill="none" stroke="#111" stroke-width="1.6" stroke-linecap="round" stroke-linejoin="round"/><polyline points="52.8,42.4 43.44,42.4" fill="none" stroke="#111" stroke-width="1.6" stroke-linecap="round" stroke-linejoin="round"/><polyline points="11.2,32 20.56,32" fill="none" stroke="#111" stroke-width="1.6" stroke-linecap="round" stroke-linejoin="round"/><rect x="16.4" y="13.8" width="31.2" height="36.4" fill="none" stroke="#111" stroke-width="1.6"/><circle cx="23.16" cy="32" r="2.08" fill="none" stroke="#111" stroke-width="1.6"/><polyline points="25.24,31.48 42.4,24.2" fill="none" stroke="#111" stroke-width="1.6" stroke-linecap="round" stroke-linejoin="round"/><circle cx="40.84" cy="21.6" r="2.08" fill="none" stroke="#111" stroke-width="1.6"/><circle cx="40.84" cy="42.4" r="2.08" fill="none" stroke="#111" stroke-width="1.6"/><polyline points="52.8,21.6 43.44,21.6" fill="none" stroke="#111" stroke-width="1.6" stroke-linecap="round" stroke-linejoin="round"/><polyline points="52.8,42.4 43.44,42.4" fill="none" stroke="#111" stroke-width="1.6" stroke-linecap="round" stroke-linejoin="round"/><rect x="6" y="6" width="41.6" height="52" fill="none" stroke="#111" stroke-width="1.6"/></svg>