<svg xmlns="http://www.w3.org/2000/svg" width="96" height="64" viewBox="0 0 96 64"><rect x="6" y="6" width="0.63" height="0.19" fill="none" stroke="#111" stroke-width="1.6"/><rect x="6" y="7.85" width="0.63" height="0.19" fill="none" stroke="#111" stroke-width="1.6"/><rect x="6" y="9.7" width="0.63" height="0.19" fill="none" stroke="#111" stroke-width="1.6"/><rect x="6" y="11.55" width="0.63" height="0.19" fill="none" stroke="#111" stroke-width="1.6"/><rect x="6" y="13.4" width="0.63" height="0.19" fill="none" stroke="#111" stroke-width="1.6"/><rect x="6" y="15.25" width="0.63" height="0.19" fill="none" stroke="#111" stroke-width="1.6"/><rect x="6" y="17.1" width="0.63" height="0.19" fill="none" stroke="#111" stroke-width="1.6"/><rect x="6" y="18.95" width="0.63" height="0.19" fill="none" stroke="#111" stroke-width="1.6"/><rect x="6" y="20.8" width="0.63" height="0.19" fill="none" stroke="#111" stroke-width="1.6"/><rect x="6" y="22.65" width="0.63" height="0.19" fill="none" stroke="#111" stroke-width="1.6"/><rect x="6" y="24.51" width="0.63" height="0.18" fill="none" stroke="#111" stroke-width="1.6"/><rect x="6" y="26.36" width="0.63" height="0.18" fill="none" stroke="#111" stroke-width="1.6"/><rect x="6" y="28.21" width="0.63" height="0.18" fill="none" stroke="#111" stroke-width="1.6"/><rect x="6" y="30.06" width="0.63" height="0.18" fill="none" stroke="#111" stroke-width="1.6"/><rect x="6" y="31.91" width="0.63" height="0.18" fill="none" stroke="#111" stroke-width="1.6"/><rect x="6" y="33.76" width="0.63" height="0.18" fill="none" stroke="#111" stroke-width="1.6"/><rect x="6" y="35.61" width="0.63" height="0.18" fill="none" stroke="#111" stroke-width="1.6"/><rect x="6" y="37.46" width="0.63" height="0.18" fill="none" stroke="#111" stroke-width="1.6"/><rect x="6" y="39.31" width="0.63" height="0.18" fill="none" stroke="#111" stroke-width="1.6"/><rect x="6" y="41.16" width="0.63" height="0.19" fill="none" stroke="#111" stroke-width="1.6"/><rect x="6" y="43.01" width="0.63" height="0.19" fill="none" stroke="#111" stroke-width="1.6"/><rect x="6" y="44.86" width="0.63" height="0.19" fill="none" stroke="#111" stroke-width="1.6"/><rect x="6" y="46.71" width="0.63" height="0.19" fill="none" stroke="#111" stroke-width="1.6"/><rect x="6" y="48.56" width="0.63" height="0.19" fill="none" stroke="#111" stroke-width="1.6"/><rect x="6" y="50.41" width="0.63" height="0.19" fill="none" stroke="#111" stroke-width="1.6"/><rect x="6" y="52.26" width="0.63" height="0.19" fill="none" stroke="#111" stroke-width="1.6"/><rect x="6" y="54.11" width="0.63" height="0.19" fill="none" stroke="#111" stroke-width="1.6"/><rect x="6" y="55.96" width="0.63" height="0.19" fill="none" stroke="#111" stroke-width="1.6"/><rect x="6" y="57.81" width="0.63" height="0.19" fill="none" stroke="#111" stroke-width="1.6"/><polyline points="6.93,6.09 6.63,6.09" fill="none" stroke="#111" stroke-width="1.6" stroke-linecap="round" stroke-linejoin="round"/><polyline points="6.93,7.94 6.63,7.94" fill="none" stroke="#111" stroke-width="1.6" stroke-linecap="round" stroke-linejoin="round"/><polyline points="6.93,9.79 6.63,9.79" fill="none" stroke="#111" stroke-width="1.6" stroke-linecap="round" stroke-linejoin="round"/><polyline points="6.93,11.64 6.63,11.64" fill="none" stroke="#111" stroke-width="1.6" stroke-linecap="round" stroke-linejoin="round"/><polyline points="6.93,13.49 6.63,13.49" fill="none" stroke="#111" stroke-width="1.6" stroke-linecap="round" stroke-linejoin="round"/><polyline points="6.93,15.35 6.63,15.35" fill="none" stroke="#111" stroke-width="1.6" stroke-linecap="round" stroke-linejoin="round"/><polyline points="6.93,17.2 6.63,17.2" fill="none" stroke="#111" stroke-width="1.6" stroke-linecap="round" stroke-linejoin="round"/><polyline points="6.93,19.05 6.63,19.05" fill="none" stroke="#111" stroke-width="1.6" stroke-linecap="round" stroke-linejoin="round"/><polyline points="6.93,20.9 6.63,20.9" fill="none" stroke="#111" stroke-width="1.6" stroke-linecap="round" stroke-linejoin="round"/><polyline points="6.93,22.75 6.63,22.75" fill="none" stroke="#111" stroke-width="1.6" stroke-linecap="round" stroke-linejoin="round"/><polyline points="6.93,24.6 6.63,24.6" fill="none" stroke="#111" stroke-width="1.6" stroke-linecap="round" stroke-linejoin="round"/><polyline points="6.93,26.45 6.63,26.45" fill="none" stroke="#111" stroke-width="1.6" stroke-linecap="round" stroke-linejoin="round"/><polyline points="6.93,28.3 6.63,28.3" fill="none" stroke="#111" stroke-width="1.6" stroke-linecap="round" stroke-linejoin="round"/><polyline points="6.93,30.15 6.63,30.15" fill="none" stroke="#111" stroke-width="1.6" stroke-linecap="round" stroke-linejoin="round"/><polyline points="6.93,32 6.63,32" fill="none" stroke="#111" stroke-width="1.6" stroke-linecap="round" stroke-linejoin="round"/><polyline points="6.93,33.85 6.63,33.85" fill="none" stroke="#111" stroke-width="1.6" stroke-linecap="round" stroke-linejoin="round"/><polyline points="6.93,35.7 6.63,35.7" fill="none" stroke="#111" stroke-width="1.6" stroke-linecap="round" stroke-linejoin="round"/><polyline points="6.93,37.55 6.63,37.55" fill="none" stroke="#111" stroke-width="1.6" stroke-linecap="round" stroke-linejoin="round"/><polyline points="6.93,39.4 6.63,39.4" fill="none" stroke="#111" stroke-width="1.6" stroke-linecap="round" stroke-linejoin="round"/><polyline points="6.93,41.25 6.63,41.25" fill="none" stroke="#111" stroke-width="1.6" stroke-linecap="round" stroke-linejoin="round"/><polyline points="6.93,43.1 6.63,43.1" fill="none" stroke="#111" stroke-width="1.6" stroke-linecap="round" stroke-linejoin="round"/><polyline points="6.93,44.95 6.63,44.95" fill="none" stroke="#111" stroke-width="1.6" stroke-linecap="round" stroke-linejoin="round"/><polyline points="6.93,46.8 6.63,46.8" fill="none" stroke="#111" stroke-width="1.6" stroke-linecap="round" stroke-linejoin="round"/><polyline points="6.93,48.65 6.63,48.65" fill="none" stroke="#111" stroke-width="1.6" stroke-linecap="round" stroke-linejoin="round"/><polyline points="6.93,50.51 6.63,50.51" fill="none" stroke="#111" stroke-width="1.6" stroke-linecap="round" stroke-linejoin="round"/><polyline points="6.93,52.36 6.63,52.36" fill="none" stroke="#111" stroke-width="1.6" stroke-linecap="round" stroke-linejoin="round"/><polyline points="6.93,54.21 6.63,54.21" fill="none" stroke="#111" stroke-width="1.6" stroke-linecap="round" stroke-linejoin="round"/><polyline points="6.93,56.06 6.63,56.06" fill="none" stroke="#111" stroke-width="1.6" stroke-linecap="round" stroke-linejoin="round"/><polyline points="6.93,57.91 6.63,57.91" fill="none" stroke="#111" stroke-width="1.6" stroke-linecap="round" stroke-linejoin="round"/></svg>