<svg xmlns="http://www.w3.org/2000/svg" width="96" height="64" viewBox="0 0 96 64"><polyline points="12.5,32 15.1,32" fill="none" stroke="#111" stroke-width="1.6" stroke-linecap="round" stroke-linejoin="round"/><circle cx="20.3" cy="32" r="5.2" fill="none" stroke="#111" stroke-width="1.6"/><polyline points="25.5,58 25.5,54.75" fill="none" stroke="#111" stroke-width="1.6" stroke-linecap="round" stroke-linejoin="round"/><circle cx="38.5" cy="32" r="26" fill="none" stroke="#111" stroke-width="1.6"/><circle cx="38.5" cy="50.2" r="5.2" fill="none" stroke="#111" stroke-width="1.6"/><polyline points="38.5,58 38.5,55.4" fill="none" stroke="#111" stroke-width="1.6" stroke-linecap="round" stroke-linejoin="round"/><circle cx="56.7" cy="32" r="5.2" fill="none" stroke="#111" stroke-width="1.6"/><polyline points="64.5,32 61.9,32" fill="none" stroke="#111" stroke-width="1.6" stroke-linecap="round" stroke-linejoin="round"/><rect x="6" y="45" width="6.5" height="13" fill="none" stroke="#111" stroke-width="1.6"/><polyline points="28.75,45 32,48.25 35.25,45 35.25,32 51.5,32" fill="none" stroke="#111" stroke-width="1.6" stroke-linecap="round" stroke-linejoin="round"/><polyline points="38.5,45 41.75,48.25 45,45 51.5,45" fill="none" stroke="#111" stroke-width="1.6" stroke-linecap="round" stroke-linejoin="round"/><rect x="12.5" y="12.5" width="39" height="45.5" fill="none" stroke="#111" stroke-width="1.6"/><polyline points="51.5,19 25.5,19 25.5,45 22.25,48.25 19,45" fill="none" stroke="#111" stroke-width="1.6" stroke-linecap="round" stroke-linejoin="round"/></svg>