<svg xmlns="http://www.w3.org/2000/svg" width="96" height="64" viewBox="0 0 96 64"><rect x="6" y="6" width="18.16" height="52" fill="none" stroke="#111" stroke-width="1.6"/><rect x="10.95" y="12.6" width="0" height="0" fill="none" stroke="#111" stroke-width="1.6"/><polyline points="10.95,12.6 10.95,20.86 19.21,16.73 10.95,12.6" fill="none" stroke="#111" stroke-width="1.6" stroke-linecap="round" stroke-linejoin="round"/><polyline points="10.95,16.73 6.83,16.73" fill="none" stroke="#111" stroke-width="1.6" stroke-linecap="round" stroke-linejoin="round"/><rect x="10.95" y="12.6" width="0" height="8.26" fill="none" stroke="#111" stroke-width="1.6"/><rect x="10.95" y="29.11" width="0" height="0" fill="none" stroke="#111" stroke-width="1.6"/><polyline points="10.95,29.11 10.95,37.37 19.21,33.24 10.95,29.11" fill="none" stroke="#111" stroke-width="1.6" stroke-linecap="round" stroke-linejoin="round"/><polyline points="10.95,33.24 6.83,33.24" fill="none" stroke="#111" stroke-width="1.6" stroke-linecap="round" stroke-linejoin="round"/><polyline points="10.95,33.24 19.21,33.24" fill="none" stroke="#111" stroke-width="1.6" stroke-linecap="round" stroke-linejoin="round"/><rect x="10.95" y="29.11" width="0" height="8.26" fill="none" stroke="#111" stroke-width="1.6"/><polyline points="10.95,45.62 10.95,53.87 19.21,49.75 10.95,45.62" fill="none" stroke="#111" stroke-width="1.6" stroke-linecap="round" stroke-linejoin="round"/><polyline points="10.95,49.75 6.83,49.75" fill="none" stroke="#111" stroke-width="1.6" stroke-linecap="round" stroke-linejoin="round"/><polyline points="15.08,12.6 10.13,7.65 12.6,7.65 10.13,7.65 10.13,10.13" fill="none" stroke="#111" stroke-width="1.6" stroke-linecap="round" stroke-linejoin="round"/><polyline points="15.08,29.11 10.13,24.16 12.6,24.16 10.13,24.16 10.13,26.63" fill="none" stroke="#111" stroke-width="1.6" stroke-linecap="round" stroke-linejoin="round"/><polyline points="15.08,45.62 10.13,40.67 12.6,40.67 10.13,40.67 10.13,43.14" fill="none" stroke="#111" stroke-width="1.6" stroke-linecap="round" stroke-linejoin="round"/><polyline points="18.38,12.6 13.43,7.65 15.9,7.65 13.43,7.65 13.43,10.13" fill="none" stroke="#111" stroke-width="1.6" stroke-linecap="round" stroke-linejoin="round"/><polyline points="18.38,29.11 13.43,24.16 15.9,24.16 13.43,24.16 13.43,26.63" fill="none" stroke="#111" stroke-width="1.6" stroke-linecap="round" stroke-linejoin="round"/><polyline points="18.38,45.62 13.43,40.67 15.9,40.67 13.43,40.67 13.43,43.14" fill="none" stroke="#111" stroke-width="1.6" stroke-linecap="round" stroke-linejoin="round"/><polyline points="19.21,12.6 19.21,20.86" fill="none" stroke="#111" stroke-width="1.6" stroke-linecap="round" stroke-linejoin="round"/><polyline points="19.21,12.6 19.21,20.86 19.21,20.86" fill="none" stroke="#111" stroke-width="1.6" stroke-linecap="round" stroke-linejoin="round"/><polyline points="19.21,16.73 10.95,16.73" fill="none" stroke="#111" stroke-width="1.6" stroke-linecap="round" stroke-linejoin="round"/><polyline points="19.21,16.73 23.33,16.73" fill="none" stroke="#111" stroke-width="1.6" stroke-linecap="round" stroke-linejoin="round"/><polyline points="19.21,29.11 19.21,37.37" fill="none" stroke="#111" stroke-width="1.6" stroke-linecap="round" stroke-linejoin="round"/><polyline points="19.21,29.11 19.21,37.37 19.21,37.37" fill="none" stroke="#111" stroke-width="1.6" stroke-linecap="round" stroke-linejoin="round"/><polyline points="19.21,33.24 23.33,33.24" fill="none" stroke="#111" stroke-width="1.6" stroke-linecap="round" stroke-linejoin="round"/><polyline points="19.21,45.62 19.21,53.87" fill="none" stroke="#111" stroke-width="1.6" stroke-linecap="round" stroke-linejoin="round"/><polyline points="19.21,49.75 10.95,49.75" fill="none" stroke="#111" stroke-width="1.6" stroke-linecap="round" stroke-linejoin="round"/><polyline points="19.21,49.75 23.33,49.75" fill="none" stroke="#111" stroke-width="1.6" stroke-linecap="round" stroke-linejoin="round"/></svg>