<svg xmlns="http://www.w3.org/2000/svg" width="96" height="64" viewBox="0 0 96 64"><rect x="6" y="6" width="27.04" height="52" fill="none" stroke="#111" stroke-width="1.6"/><polyline points="10.16,21.08 12.24,21.08 12.24,29.4 10.68,29.4 10.68,29.4" fill="none" stroke="#111" stroke-width="1.6" stroke-linecap="round" stroke-linejoin="round"/><polyline points="10.68,30.44 12.24,30.44 12.24,38.76 10.68,38.76 10.68,38.76" fill="none" stroke="#111" stroke-width="1.6" stroke-linecap="round" stroke-linejoin="round"/><polyline points="10.68,39.8 12.24,39.8 12.24,48.12 10.68,48.12 10.68,48.12" fill="none" stroke="#111" stroke-width="1.6" stroke-linecap="round" stroke-linejoin="round"/><polyline points="10.68,49.16 12.24,49.16 12.24,57.48 10.68,57.48 10.68,57.48" fill="none" stroke="#111" stroke-width="1.6" stroke-linecap="round" stroke-linejoin="round"/><polyline points="28.36,21.08 26.8,21.08 26.8,29.4 28.36,29.4 28.36,29.4" fill="none" stroke="#111" stroke-width="1.6" stroke-linecap="round" stroke-linejoin="round"/><polyline points="28.36,30.44 26.8,30.44 26.8,38.76 28.36,38.76 28.36,38.76" fill="none" stroke="#111" stroke-width="1.6" stroke-linecap="round" stroke-linejoin="round"/><polyline points="28.36,39.8 26.8,39.8 26.8,48.12 28.36,48.12 28.36,48.12" fill="none" stroke="#111" stroke-width="1.6" stroke-linecap="round" stroke-linejoin="round"/><polyline points="28.36,49.16 26.8,49.16 26.8,57.48 28.36,57.48 28.36,57.48" fill="none" stroke="#111" stroke-width="1.6" stroke-linecap="round" stroke-linejoin="round"/></svg>