<svg xmlns="http://www.w3.org/2000/svg" width="96" height="64" viewBox="0 0 96 64"><rect x="6" y="6" width="3.47" height="52" fill="none" stroke="#111" stroke-width="1.6"/><rect x="6.17" y="6.17" width="3.12" height="51.66" fill="none" stroke="#111" stroke-width="1.6"/><rect x="6.17" y="6.78" width="0.87" height="0.17" fill="none" stroke="#111" stroke-width="1.6"/><rect x="6.17" y="8.51" width="0.87" height="0.18" fill="none" stroke="#111" stroke-width="1.6"/><rect x="6.17" y="10.25" width="0.87" height="0.17" fill="none" stroke="#111" stroke-width="1.6"/><rect x="6.17" y="11.98" width="0.87" height="0.17" fill="none" stroke="#111" stroke-width="1.6"/><rect x="6.17" y="13.71" width="0.87" height="0.18" fill="none" stroke="#111" stroke-width="1.6"/><rect x="6.17" y="15.45" width="0.87" height="0.17" fill="none" stroke="#111" stroke-width="1.6"/><rect x="6.17" y="17.18" width="0.87" height="0.17" fill="none" stroke="#111" stroke-width="1.6"/><rect x="6.17" y="18.91" width="0.87" height="0.18" fill="none" stroke="#111" stroke-width="1.6"/><rect x="6.17" y="20.65" width="0.87" height="0.17" fill="none" stroke="#111" stroke-width="1.6"/><rect x="6.17" y="22.38" width="0.87" height="0.17" fill="none" stroke="#111" stroke-width="1.6"/><rect x="6.17" y="24.11" width="0.87" height="0.18" fill="none" stroke="#111" stroke-width="1.6"/><rect x="6.17" y="25.85" width="0.87" height="0.17" fill="none" stroke="#111" stroke-width="1.6"/><rect x="6.17" y="27.58" width="0.87" height="0.17" fill="none" stroke="#111" stroke-width="1.6"/><rect x="6.17" y="29.31" width="0.87" height="0.18" fill="none" stroke="#111" stroke-width="1.6"/><rect x="6.17" y="31.05" width="0.87" height="0.17" fill="none" stroke="#111" stroke-width="1.6"/><rect x="6.17" y="32.78" width="0.87" height="0.17" fill="none" stroke="#111" stroke-width="1.6"/><rect x="6.17" y="34.51" width="0.87" height="0.18" fill="none" stroke="#111" stroke-width="1.6"/><rect x="6.17" y="36.25" width="0.87" height="0.17" fill="none" stroke="#111" stroke-width="1.6"/><rect x="6.17" y="37.98" width="0.87" height="0.17" fill="none" stroke="#111" stroke-width="1.6"/><rect x="6.17" y="39.71" width="0.87" height="0.18" fill="none" stroke="#111" stroke-width="1.6"/><rect x="6.17" y="41.45" width="0.87" height="0.17" fill="none" stroke="#111" stroke-width="1.6"/><rect x="6.17" y="43.18" width="0.87" height="0.17" fill="none" stroke="#111" stroke-width="1.6"/><rect x="6.17" y="44.91" width="0.87" height="0.18" fill="none" stroke="#111" stroke-width="1.6"/><rect x="6.17" y="46.65" width="0.87" height="0.17" fill="none" stroke="#111" stroke-width="1.6"/><rect x="6.17" y="48.38" width="0.87" height="0.17" fill="none" stroke="#111" stroke-width="1.6"/><rect x="6.17" y="50.11" width="0.87" height="0.18" fill="none" stroke="#111" stroke-width="1.6"/><rect x="6.17" y="51.85" width="0.87" height="0.17" fill="none" stroke="#111" stroke-width="1.6"/><rect x="6.17" y="53.58" width="0.87" height="0.17" fill="none" stroke="#111" stroke-width="1.6"/><rect x="6.17" y="55.31" width="0.87" height="0.18" fill="none" stroke="#111" stroke-width="1.6"/><rect x="6.17" y="57.05" width="0.87" height="0.17" fill="none" stroke="#111" stroke-width="1.6"/><rect x="8.43" y="6.78" width="0.86" height="0.17" fill="none" stroke="#111" stroke-width="1.6"/><rect x="8.43" y="8.51" width="0.86" height="0.18" fill="none" stroke="#111" stroke-width="1.6"/><rect x="8.43" y="10.25" width="0.86" height="0.17" fill="none" stroke="#111" stroke-width="1.6"/><rect x="8.43" y="11.98" width="0.86" height="0.17" fill="none" stroke="#111" stroke-width="1.6"/><rect x="8.43" y="13.71" width="0.86" height="0.18" fill="none" stroke="#111" stroke-width="1.6"/><rect x="8.43" y="15.45" width="0.86" height="0.17" fill="none" stroke="#111" stroke-width="1.6"/><rect x="8.43" y="17.18" width="0.86" height="0.17" fill="none" stroke="#111" stroke-width="1.6"/><rect x="8.43" y="18.91" width="0.86" height="0.18" fill="none" stroke="#111" stroke-width="1.6"/><rect x="8.43" y="20.65" width="0.86" height="0.17" fill="none" stroke="#111" stroke-width="1.6"/><rect x="8.43" y="22.38" width="0.86" height="0.17" fill="none" stroke="#111" stroke-width="1.6"/><rect x="8.43" y="24.11" width="0.86" height="0.18" fill="none" stroke="#111" stroke-width="1.6"/><rect x="8.43" y="25.85" width="0.86" height="0.17" fill="none" stroke="#111" stroke-width="1.6"/><rect x="8.43" y="27.58" width="0.86" height="0.17" fill="none" stroke="#111" stroke-width="1.6"/><rect x="8.43" y="29.31" width="0.86" height="0.18" fill="none" stroke="#111" stroke-width="1.6"/><rect x="8.43" y="31.05" width="0.86" height="0.17" fill="none" stroke="#111" stroke-width="1.6"/><rect x="8.43" y="32.78" width="0.86" height="0.17" fill="none" stroke="#111" stroke-width="1.6"/><rect x="8.43" y="34.51" width="0.86" height="0.18" fill="none" stroke="#111" stroke-width="1.6"/><rect x="8.43" y="36.25" width="0.86" height="0.17" fill="none" stroke="#111" stroke-width="1.6"/><rect x="8.43" y="37.98" width="0.86" height="0.17" fill="none" stroke="#111" stroke-width="1.6"/><rect x="8.43" y="39.71" width="0.86" height="0.18" fill="none" stroke="#111" stroke-width="1.6"/><rect x="8.43" y="41.45" width="0.86" height="0.17" fill="none" stroke="#111" stroke-width="1.6"/><rect x="8.43" y="43.18" width="0.86" height="0.17" fill="none" stroke="#111" stroke-width="1.6"/><rect x="8.43" y="44.91" width="0.86" height="0.18" fill="none" stroke="#111" stroke-width="1.6"/><rect x="8.43" y="46.65" width="0.86" height="0.17" fill="none" stroke="#111" stroke-width="1.6"/><rect x="8.43" y="48.38" width="0.86" height="0.17" fill="none" stroke="#111" stroke-width="1.6"/><rect x="8.43" y="50.11" width="0.86" height="0.18" fill="none" stroke="#111" stroke-width="1.6"/><rect x="8.43" y="51.85" width="0.86" height="0.17" fill="none" stroke="#111" stroke-width="1.6"/><rect x="8.43" y="53.58" width="0.86" height="0.17" fill="none" stroke="#111" stroke-width="1.6"/><rect x="8.43" y="55.31" width="0.86" height="0.18" fill="none" stroke="#111" stroke-width="1.6"/></svg>