<svg xmlns="http://www.w3.org/2000/svg" width="96" height="64" viewBox="0 0 96 64"><circle cx="42.4" cy="14.4" r="0" fill="none" stroke="#111" stroke-width="1.6"/><polyline points="42.4,14.4 42.4,38.2" fill="none" stroke="#111" stroke-width="1.6" stroke-linecap="round" stroke-linejoin="round"/><circle cx="42.4" cy="31.2" r="0" fill="none" stroke="#111" stroke-width="1.6"/><polyline points="46.6,36.8 46.6,39.6" fill="none" stroke="#111" stroke-width="1.6" stroke-linecap="round" stroke-linejoin="round"/><polyline points="48,36.8 48,39.6" fill="none" stroke="#111" stroke-width="1.6" stroke-linecap="round" stroke-linejoin="round"/><polyline points="51.92,14.4 50.8,14.4" fill="none" stroke="#111" stroke-width="1.6" stroke-linecap="round" stroke-linejoin="round"/><circle cx="51.92" cy="14.4" r="0" fill="none" stroke="#111" stroke-width="1.6"/><polyline points="51.92,31.2 50.8,31.2" fill="none" stroke="#111" stroke-width="1.6" stroke-linecap="round" stroke-linejoin="round"/><circle cx="51.92" cy="31.2" r="0" fill="none" stroke="#111" stroke-width="1.6"/><polyline points="53.32,13 51.92,13 51.92,15.8 53.32,15.8" fill="none" stroke="#111" stroke-width="1.6" stroke-linecap="round" stroke-linejoin="round"/><polyline points="53.32,29.8 51.92,29.8 51.92,32.6 53.32,32.6" fill="none" stroke="#111" stroke-width="1.6" stroke-linecap="round" stroke-linejoin="round"/><polyline points="83.56,9.92 83.56,8.8 90,8.8" fill="none" stroke="#111" stroke-width="1.6" stroke-linecap="round" stroke-linejoin="round"/><polyline points="83.56,32.32 83.56,31.2 90,31.2" fill="none" stroke="#111" stroke-width="1.6" stroke-linecap="round" stroke-linejoin="round"/><polyline points="90,14.4 83.56,14.4 83.56,13.28" fill="none" stroke="#111" stroke-width="1.6" stroke-linecap="round" stroke-linejoin="round"/><polyline points="90,36.8 83.56,36.8 83.56,35.68" fill="none" stroke="#111" stroke-width="1.6" stroke-linecap="round" stroke-linejoin="round"/><rect x="6" y="6" width="84" height="36.4" fill="none" stroke="#111" stroke-width="1.6"/><polyline points="17.2,8.8 16.36,8.8" fill="none" stroke="#111" stroke-width="1.6" stroke-linecap="round" stroke-linejoin="round"/><polyline points="17.2,14.4 16.36,14.4" fill="none" stroke="#111" stroke-width="1.6" stroke-linecap="round" stroke-linejoin="round"/><polyline points="17.2,20 16.36,20" fill="none" stroke="#111" stroke-width="1.6" stroke-linecap="round" stroke-linejoin="round"/><polyline points="17.2,25.6 16.36,25.6" fill="none" stroke="#111" stroke-width="1.6" stroke-linecap="round" stroke-linejoin="round"/><polyline points="17.2,31.2 16.36,31.2" fill="none" stroke="#111" stroke-width="1.6" stroke-linecap="round" stroke-linejoin="round"/><polyline points="17.2,36.8 16.36,36.8" fill="none" stroke="#111" stroke-width="1.6" stroke-linecap="round" stroke-linejoin="round"/><polyline points="22.8,8.8 25.6,8.8 25.6,10.2" fill="none" stroke="#111" stroke-width="1.6" stroke-linecap="round" stroke-linejoin="round"/><polyline points="22.8,25.6 25.6,25.6 25.6,27" fill="none" stroke="#111" stroke-width="1.6" stroke-linecap="round" stroke-linejoin="round"/><polyline points="25.6,18.6 25.6,20 22.8,20" fill="none" stroke="#111" stroke-width="1.6" stroke-linecap="round" stroke-linejoin="round"/><polyline points="25.6,35.4 25.6,36.8 22.8,36.8" fill="none" stroke="#111" stroke-width="1.6" stroke-linecap="round" stroke-linejoin="round"/><polyline points="31.2,10.2 53.32,10.2" fill="none" stroke="#111" stroke-width="1.6" stroke-linecap="round" stroke-linejoin="round"/><polyline points="31.2,18.6 53.32,18.6" fill="none" stroke="#111" stroke-width="1.6" stroke-linecap="round" stroke-linejoin="round"/><polyline points="31.2,35.4 53.32,35.4" fill="none" stroke="#111" stroke-width="1.6" stroke-linecap="round" stroke-linejoin="round"/><polyline points="31.48,27 53.32,27" fill="none" stroke="#111" stroke-width="1.6" stroke-linecap="round" stroke-linejoin="round"/><polyline points="34,31.2 22.8,31.2" fill="none" stroke="#111" stroke-width="1.6" stroke-linecap="round" stroke-linejoin="round"/><polyline points="34.28,14.4 22.8,14.4" fill="none" stroke="#111" stroke-width="1.6" stroke-linecap="round" stroke-linejoin="round"/><polyline points="40.44,14.4 44.36,14.4" fill="none" stroke="#111" stroke-width="1.6" stroke-linecap="round" stroke-linejoin="round"/><polyline points="40.44,31.2 44.36,31.2" fill="none" stroke="#111" stroke-width="1.6" stroke-linecap="round" stroke-linejoin="round"/><polyline points="46.6,38.2 42.4,38.2" fill="none" stroke="#111" stroke-width="1.6" stroke-linecap="round" stroke-linejoin="round"/><polyline points="61.44,18.6 64.24,18.6" fill="none" stroke="#111" stroke-width="1.6" stroke-linecap="round" stroke-linejoin="round"/><polyline points="61.44,21.4 64.24,21.4" fill="none" stroke="#111" stroke-width="1.6" stroke-linecap="round" stroke-linejoin="round"/><polyline points="61.44,24.2 64.24,24.2" fill="none" stroke="#111" stroke-width="1.6" stroke-linecap="round" stroke-linejoin="round"/><polyline points="61.44,27.28 64.24,27.28" fill="none" stroke="#111" stroke-width="1.6" stroke-linecap="round" stroke-linejoin="round"/><polyline points="61.44,30.08 64.24,30.08" fill="none" stroke="#111" stroke-width="1.6" stroke-linecap="round" stroke-linejoin="round"/><polyline points="64.24,13 61.44,13" fill="none" stroke="#111" stroke-width="1.6" stroke-linecap="round" stroke-linejoin="round"/><polyline points="64.24,15.8 61.44,15.8" fill="none" stroke="#111" stroke-width="1.6" stroke-linecap="round" stroke-linejoin="round"/><polyline points="64.24,32.88 61.44,32.88" fill="none" stroke="#111" stroke-width="1.6" stroke-linecap="round" stroke-linejoin="round"/><polyline points="67.6,38.2 48,38.2" fill="none" stroke="#111" stroke-width="1.6" stroke-linecap="round" stroke-linejoin="round"/><polyline points="67.6,38.2 67.6,42.4" fill="none" stroke="#111" stroke-width="1.6" stroke-linecap="round" stroke-linejoin="round"/><path d="M 17.2 25.6 Q 18.59 27 17.2 28.4" fill="none" stroke="#111" stroke-width="1.6" stroke-linecap="round"/><path d="M 17.21 8.8 Q 18.6 10.2 17.21 11.6" fill="none" stroke="#111" stroke-width="1.6" stroke-linecap="round"/><path d="M 17.21 28.4 Q 18.6 29.8 17.21 31.2" fill="none" stroke="#111" stroke-width="1.6" stroke-linecap="round"/><path d="M 17.21 31.2 Q 18.6 32.6 17.21 34" fill="none" stroke="#111" stroke-width="1.6" stroke-linecap="round"/><path d="M 17.21 34 Q 18.6 35.4 17.21 36.8" fill="none" stroke="#111" stroke-width="1.6" stroke-linecap="round"/><path d="M 17.21 11.6 Q 18.61 13 17.21 14.4" fill="none" stroke="#111" stroke-width="1.6" stroke-linecap="round"/><path d="M 17.21 14.4 Q 18.61 15.8 17.21 17.2" fill="none" stroke="#111" stroke-width="1.6" stroke-linecap="round"/><path d="M 17.21 17.2 Q 18.61 18.6 17.21 20" fill="none" stroke="#111" stroke-width="1.6" stroke-linecap="round"/><path d="M 22.79 11.6 Q 21.39 10.2 22.79 8.8" fill="none" stroke="#111" stroke-width="1.6" stroke-linecap="round"/><path d="M 22.79 14.4 Q 21.39 13 22.79 11.6" fill="none" stroke="#111" stroke-width="1.6" stroke-linecap="round"/><path d="M 22.79 17.2 Q 21.39 15.8 22.79 14.4" fill="none" stroke="#111" stroke-width="1.6" stroke-linecap="round"/><path d="M 22.79 28.4 Q 21.39 27 22.79 25.6" fill="none" stroke="#111" stroke-width="1.6" stroke-linecap="round"/><path d="M 22.79 31.2 Q 21.39 29.8 22.79 28.4" fill="none" stroke="#111" stroke-width="1.6" stroke-linecap="round"/><path d="M 22.79 34 Q 21.39 32.6 22.79 31.2" fill="none" stroke="#111" stroke-width="1.6" stroke-linecap="round"/><path d="M 22.79 20 Q 21.4 18.6 22.79 17.2" fill="none" stroke="#111" stroke-width="1.6" stroke-linecap="round"/><path d="M 22.79 36.8 Q 21.4 35.4 22.79 34" fill="none" stroke="#111" stroke-width="1.6" stroke-linecap="round"/><path d="M 28.4 10.21 Q 27 11.6 25.6 10.21" fill="none" stroke="#111" stroke-width="1.6" stroke-linecap="round"/><path d="M 25.6 18.31 Q 27 16.92 28.4 18.31" fill="none" stroke="#111" stroke-width="1.6" stroke-linecap="round"/><path d="M 25.6 35.11 Q 27 33.72 28.4 35.11" fill="none" stroke="#111" stroke-width="1.6" stroke-linecap="round"/><path d="M 28.54 27.15 Q 27.14 28.54 25.74 27.15" fill="none" stroke="#111" stroke-width="1.6" stroke-linecap="round"/><path d="M 31.2 10.2 Q 29.8 11.59 28.4 10.2" fill="none" stroke="#111" stroke-width="1.6" stroke-linecap="round"/><path d="M 28.4 18.31 Q 29.8 16.91 31.2 18.31" fill="none" stroke="#111" stroke-width="1.6" stroke-linecap="round"/><path d="M 28.4 35.11 Q 29.8 33.71 31.2 35.11" fill="none" stroke="#111" stroke-width="1.6" stroke-linecap="round"/><path d="M 31.34 27.14 Q 29.94 28.53 28.54 27.14" fill="none" stroke="#111" stroke-width="1.6" stroke-linecap="round"/><rect x="34.28" y="13" width="6.16" height="2.8" fill="none" stroke="#111" stroke-width="1.6"/><rect x="34.28" y="29.8" width="6.16" height="2.8" fill="none" stroke="#111" stroke-width="1.6"/><rect x="44.36" y="13" width="6.16" height="2.8" fill="none" stroke="#111" stroke-width="1.6"/><rect x="44.36" y="29.8" width="6.16" height="2.8" fill="none" stroke="#111" stroke-width="1.6"/><polyline points="61.44,35.68 61.44,10.2 78.8,10.2 78.8,15.8 81.04,15.8 81.04,18.88 83.84,18.88 83.84,27 81.04,27 81.04,30.08 78.8,30.08 78.8,35.68 61.44,35.68" fill="none" stroke="#111" stroke-width="1.6" stroke-linecap="round" stroke-linejoin="round"/><polyline points="78.8,42.4 78.8,35.68" fill="none" stroke="#111" stroke-width="1.6" stroke-linecap="round" stroke-linejoin="round"/><polyline points="85.24,13.28 81.88,13.28" fill="none" stroke="#111" stroke-width="1.6" stroke-linecap="round" stroke-linejoin="round"/><polyline points="85.24,35.68 81.88,35.68" fill="none" stroke="#111" stroke-width="1.6" stroke-linecap="round" stroke-linejoin="round"/><polyline points="85.52,9.92 81.32,9.92 83.56,13.28 85.52,9.92" fill="none" stroke="#111" stroke-width="1.6" stroke-linecap="round" stroke-linejoin="round"/><polyline points="85.52,12.16 86.64,13.28 86.08,13.28" fill="none" stroke="#111" stroke-width="1.6" stroke-linecap="round" stroke-linejoin="round"/><polyline points="85.52,32.32 81.32,32.32 83.56,35.68 85.52,32.32" fill="none" stroke="#111" stroke-width="1.6" stroke-linecap="round" stroke-linejoin="round"/><polyline points="85.52,34.56 86.64,35.68 86.08,35.68" fill="none" stroke="#111" stroke-width="1.6" stroke-linecap="round" stroke-linejoin="round"/><polyline points="86.08,10.76 87.2,11.88 86.64,11.88" fill="none" stroke="#111" stroke-width="1.6" stroke-linecap="round" stroke-linejoin="round"/><polyline points="86.08,33.16 87.2,34.28 86.64,34.28" fill="none" stroke="#111" stroke-width="1.6" stroke-linecap="round" stroke-linejoin="round"/><polyline points="86.64,13.28 86.64,12.72" fill="none" stroke="#111" stroke-width="1.6" stroke-linecap="round" stroke-linejoin="round"/><polyline points="86.64,35.68 86.64,35.12" fill="none" stroke="#111" stroke-width="1.6" stroke-linecap="round" stroke-linejoin="round"/><polyline points="87.2,11.88 87.2,11.32" fill="none" stroke="#111" stroke-width="1.6" stroke-linecap="round" stroke-linejoin="round"/><polyline points="87.2,34.28 87.2,33.72" fill="none" stroke="#111" stroke-width="1.6" stroke-linecap="round" stroke-linejoin="round"/></svg>