<svg xmlns="http://www.w3.org/2000/svg" width="96" height="64" viewBox="0 0 96 64"><rect x="6" y="6" width="0.98" height="51.71" fill="none" stroke="#111" stroke-width="1.6"/><rect x="6" y="6.44" width="0.49" height="0.1" fill="none" stroke="#111" stroke-width="1.6"/><rect x="6" y="7.41" width="0.49" height="0.1" fill="none" stroke="#111" stroke-width="1.6"/><rect x="6" y="8.39" width="0.49" height="0.1" fill="none" stroke="#111" stroke-width="1.6"/><rect x="6" y="9.37" width="0.49" height="0.09" fill="none" stroke="#111" stroke-width="1.6"/><rect x="6" y="10.34" width="0.49" height="0.1" fill="none" stroke="#111" stroke-width="1.6"/><rect x="6" y="11.32" width="0.49" height="0.09" fill="none" stroke="#111" stroke-width="1.6"/><rect x="6" y="12.29" width="0.49" height="0.1" fill="none" stroke="#111" stroke-width="1.6"/><rect x="6" y="13.27" width="0.49" height="0.1" fill="none" stroke="#111" stroke-width="1.6"/><rect x="6" y="14.24" width="0.49" height="0.1" fill="none" stroke="#111" stroke-width="1.6"/><rect x="6" y="15.22" width="0.49" height="0.1" fill="none" stroke="#111" stroke-width="1.6"/><rect x="6" y="16.2" width="0.49" height="0.09" fill="none" stroke="#111" stroke-width="1.6"/><rect x="6" y="17.17" width="0.49" height="0.1" fill="none" stroke="#111" stroke-width="1.6"/><rect x="6" y="18.15" width="0.49" height="0.09" fill="none" stroke="#111" stroke-width="1.6"/><rect x="6" y="19.12" width="0.49" height="0.1" fill="none" stroke="#111" stroke-width="1.6"/><rect x="6" y="20.1" width="0.49" height="0.1" fill="none" stroke="#111" stroke-width="1.6"/><rect x="6" y="21.07" width="0.49" height="0.1" fill="none" stroke="#111" stroke-width="1.6"/><rect x="6" y="22.05" width="0.49" height="0.1" fill="none" stroke="#111" stroke-width="1.6"/><rect x="6" y="23.02" width="0.49" height="0.1" fill="none" stroke="#111" stroke-width="1.6"/><rect x="6" y="24" width="0.49" height="0.1" fill="none" stroke="#111" stroke-width="1.6"/><rect x="6" y="24.98" width="0.49" height="0.09" fill="none" stroke="#111" stroke-width="1.6"/><rect x="6" y="25.95" width="0.49" height="0.1" fill="none" stroke="#111" stroke-width="1.6"/><rect x="6" y="26.93" width="0.49" height="0.09" fill="none" stroke="#111" stroke-width="1.6"/><rect x="6" y="27.9" width="0.49" height="0.1" fill="none" stroke="#111" stroke-width="1.6"/><rect x="6" y="28.88" width="0.49" height="0.1" fill="none" stroke="#111" stroke-width="1.6"/><rect x="6" y="29.85" width="0.49" height="0.1" fill="none" stroke="#111" stroke-width="1.6"/><rect x="6" y="30.83" width="0.49" height="0.1" fill="none" stroke="#111" stroke-width="1.6"/><rect x="6" y="31.8" width="0.49" height="0.1" fill="none" stroke="#111" stroke-width="1.6"/><rect x="6" y="32.78" width="0.49" height="0.1" fill="none" stroke="#111" stroke-width="1.6"/><rect x="6" y="33.76" width="0.49" height="0.09" fill="none" stroke="#111" stroke-width="1.6"/><rect x="6" y="34.73" width="0.49" height="0.1" fill="none" stroke="#111" stroke-width="1.6"/><rect x="6" y="35.71" width="0.49" height="0.09" fill="none" stroke="#111" stroke-width="1.6"/><rect x="6" y="36.68" width="0.49" height="0.1" fill="none" stroke="#111" stroke-width="1.6"/><rect x="6" y="37.66" width="0.49" height="0.1" fill="none" stroke="#111" stroke-width="1.6"/><rect x="6" y="38.63" width="0.49" height="0.1" fill="none" stroke="#111" stroke-width="1.6"/><rect x="6" y="39.61" width="0.49" height="0.1" fill="none" stroke="#111" stroke-width="1.6"/><rect x="6" y="40.59" width="0.49" height="0.09" fill="none" stroke="#111" stroke-width="1.6"/><rect x="6" y="41.56" width="0.49" height="0.1" fill="none" stroke="#111" stroke-width="1.6"/><rect x="6" y="42.54" width="0.49" height="0.09" fill="none" stroke="#111" stroke-width="1.6"/><rect x="6" y="43.51" width="0.49" height="0.1" fill="none" stroke="#111" stroke-width="1.6"/><rect x="6" y="44.49" width="0.49" height="0.1" fill="none" stroke="#111" stroke-width="1.6"/><rect x="6" y="45.46" width="0.49" height="0.1" fill="none" stroke="#111" stroke-width="1.6"/><rect x="6" y="46.44" width="0.49" height="0.1" fill="none" stroke="#111" stroke-width="1.6"/><rect x="6" y="47.41" width="0.49" height="0.1" fill="none" stroke="#111" stroke-width="1.6"/><rect x="6" y="48.39" width="0.49" height="0.1" fill="none" stroke="#111" stroke-width="1.6"/><rect x="6" y="49.37" width="0.49" height="0.09" fill="none" stroke="#111" stroke-width="1.6"/><rect x="6" y="50.34" width="0.49" height="0.1" fill="none" stroke="#111" stroke-width="1.6"/><rect x="6" y="51.32" width="0.49" height="0.09" fill="none" stroke="#111" stroke-width="1.6"/><rect x="6" y="52.29" width="0.49" height="0.1" fill="none" stroke="#111" stroke-width="1.6"/><rect x="6" y="53.27" width="0.49" height="0.1" fill="none" stroke="#111" stroke-width="1.6"/><rect x="6" y="54.24" width="0.49" height="0.1" fill="none" stroke="#111" stroke-width="1.6"/><rect x="6" y="55.22" width="0.49" height="0.1" fill="none" stroke="#111" stroke-width="1.6"/><rect x="6" y="56.2" width="0.49" height="0.09" fill="none" stroke="#111" stroke-width="1.6"/><rect x="6" y="57.17" width="0.49" height="0.1" fill="none" stroke="#111" stroke-width="1.6"/><polyline points="6.1,58 6.88,58" fill="none" stroke="#111" stroke-width="1.6" stroke-linecap="round" stroke-linejoin="round"/></svg>