<svg xmlns="http://www.w3.org/2000/svg" width="96" height="64" viewBox="0 0 96 64"><rect x="6" y="6.84" width="84" height="31.92" fill="none" stroke="#111" stroke-width="1.6"/><rect x="10.2" y="10.2" width="8.4" height="25.2" fill="none" stroke="#111" stroke-width="1.6"/><polyline points="14.4,10.2 14.4,6" fill="none" stroke="#111" stroke-width="1.6" stroke-linecap="round" stroke-linejoin="round"/><polyline points="14.4,39.6 14.4,35.4" fill="none" stroke="#111" stroke-width="1.6" stroke-linecap="round" stroke-linejoin="round"/><rect x="27" y="10.2" width="8.4" height="25.2" fill="none" stroke="#111" stroke-width="1.6"/><polyline points="31.2,10.2 31.2,6" fill="none" stroke="#111" stroke-width="1.6" stroke-linecap="round" stroke-linejoin="round"/><polyline points="31.2,39.6 31.2,35.4" fill="none" stroke="#111" stroke-width="1.6" stroke-linecap="round" stroke-linejoin="round"/><rect x="43.8" y="10.2" width="8.4" height="25.2" fill="none" stroke="#111" stroke-width="1.6"/><polyline points="48,10.2 48,6" fill="none" stroke="#111" stroke-width="1.6" stroke-linecap="round" stroke-linejoin="round"/><polyline points="48,39.6 48,35.4" fill="none" stroke="#111" stroke-width="1.6" stroke-linecap="round" stroke-linejoin="round"/><rect x="60.6" y="10.2" width="8.4" height="25.2" fill="none" stroke="#111" stroke-width="1.6"/><polyline points="64.8,10.2 64.8,6" fill="none" stroke="#111" stroke-width="1.6" stroke-linecap="round" stroke-linejoin="round"/><polyline points="64.8,39.6 64.8,35.4" fill="none" stroke="#111" stroke-width="1.6" stroke-linecap="round" stroke-linejoin="round"/><rect x="77.4" y="10.2" width="8.4" height="25.2" fill="none" stroke="#111" stroke-width="1.6"/><polyline points="81.6,10.2 81.6,6" fill="none" stroke="#111" stroke-width="1.6" stroke-linecap="round" stroke-linejoin="round"/><polyline points="81.6,39.6 81.6,35.4" fill="none" stroke="#111" stroke-width="1.6" stroke-linecap="round" stroke-linejoin="round"/></svg>