<svg xmlns="http://www.w3.org/2000/svg" width="96" height="64" viewBox="0 0 96 64"><rect x="6" y="6" width="84" height="17.5" fill="none" stroke="#111" stroke-width="1.6"/><rect x="7.4" y="10.55" width="4.2" height="11.2" fill="none" stroke="#111" stroke-width="1.6"/><circle cx="9.5" cy="8.45" r="0.7" fill="none" stroke="#111" stroke-width="1.6"/><polyline points="9.5,10.55 9.5,8.45 16.5,8.45 16.5,10.55" fill="none" stroke="#111" stroke-width="1.6" stroke-linecap="round" stroke-linejoin="round"/><polyline points="9.5,21.75 9.5,25.25" fill="none" stroke="#111" stroke-width="1.6" stroke-linecap="round" stroke-linejoin="round"/><rect x="14.4" y="10.55" width="4.2" height="11.2" fill="none" stroke="#111" stroke-width="1.6"/><circle cx="16.5" cy="8.45" r="0.7" fill="none" stroke="#111" stroke-width="1.6"/><polyline points="16.5,10.55 16.5,8.45 23.5,8.45 23.5,10.55" fill="none" stroke="#111" stroke-width="1.6" stroke-linecap="round" stroke-linejoin="round"/><polyline points="16.5,21.75 16.5,25.25" fill="none" stroke="#111" stroke-width="1.6" stroke-linecap="round" stroke-linejoin="round"/><rect x="21.4" y="10.55" width="4.2" height="11.2" fill="none" stroke="#111" stroke-width="1.6"/><circle cx="23.5" cy="8.45" r="0.7" fill="none" stroke="#111" stroke-width="1.6"/><polyline points="23.5,10.55 23.5,8.45 30.5,8.45 30.5,10.55" fill="none" stroke="#111" stroke-width="1.6" stroke-linecap="round" stroke-linejoin="round"/><polyline points="23.5,21.75 23.5,25.25" fill="none" stroke="#111" stroke-width="1.6" stroke-linecap="round" stroke-linejoin="round"/><rect x="28.4" y="10.55" width="4.2" height="11.2" fill="none" stroke="#111" stroke-width="1.6"/><circle cx="30.5" cy="8.45" r="0.7" fill="none" stroke="#111" stroke-width="1.6"/><polyline points="30.5,10.55 30.5,8.45 37.5,8.45 37.5,10.55" fill="none" stroke="#111" stroke-width="1.6" stroke-linecap="round" stroke-linejoin="round"/><polyline points="30.5,21.75 30.5,25.25" fill="none" stroke="#111" stroke-width="1.6" stroke-linecap="round" stroke-linejoin="round"/><rect x="35.4" y="10.55" width="4.2" height="11.2" fill="none" stroke="#111" stroke-width="1.6"/><circle cx="37.5" cy="8.45" r="0.7" fill="none" stroke="#111" stroke-width="1.6"/><polyline points="37.5,10.55 37.5,8.45 44.5,8.45 44.5,10.55" fill="none" stroke="#111" stroke-width="1.6" stroke-linecap="round" stroke-linejoin="round"/><polyline points="37.5,21.75 37.5,25.25" fill="none" stroke="#111" stroke-width="1.6" stroke-linecap="round" stroke-linejoin="round"/><rect x="42.4" y="10.55" width="4.2" height="11.2" fill="none" stroke="#111" stroke-width="1.6"/><circle cx="44.5" cy="8.45" r="0.7" fill="none" stroke="#111" stroke-width="1.6"/><polyline points="44.5,10.55 44.5,8.45 51.5,8.45 51.5,10.55" fill="none" stroke="#111" stroke-width="1.6" stroke-linecap="round" stroke-linejoin="round"/><polyline points="44.5,21.75 44.5,25.25" fill="none" stroke="#111" stroke-width="1.6" stroke-linecap="round" stroke-linejoin="round"/><rect x="49.4" y="10.55" width="4.2" height="11.2" fill="none" stroke="#111" stroke-width="1.6"/><circle cx="51.5" cy="8.45" r="0.7" fill="none" stroke="#111" stroke-width="1.6"/><polyline points="51.5,10.55 51.5,8.45 58.5,8.45 58.5,10.55" fill="none" stroke="#111" stroke-width="1.6" stroke-linecap="round" stroke-linejoin="round"/><polyline points="51.5,21.75 51.5,25.25" fill="none" stroke="#111" stroke-width="1.6" stroke-linecap="round" stroke-linejoin="round"/><rect x="56.4" y="10.55" width="4.2" height="11.2" fill="none" stroke="#111" stroke-width="1.6"/><circle cx="58.5" cy="8.45" r="0.7" fill="none" stroke="#111" stroke-width="1.6"/><polyline points="58.5,10.55 58.5,8.45 65.5,8.45 65.5,10.55" fill="none" stroke="#111" stroke-width="1.6" stroke-linecap="round" stroke-linejoin="round"/><polyline points="58.5,21.75 58.5,25.25" fill="none" stroke="#111" stroke-width="1.6" stroke-linecap="round" stroke-linejoin="round"/><rect x="63.4" y="10.55" width="4.2" height="11.2" fill="none" stroke="#111" stroke-width="1.6"/><circle cx="65.5" cy="8.45" r="0.7" fill="none" stroke="#111" stroke-width="1.6"/><polyline points="65.5,10.55 65.5,8.45 72.5,8.45 72.5,10.55" fill="none" stroke="#111" stroke-width="1.6" stroke-linecap="round" stroke-linejoin="round"/><polyline points="65.5,21.75 65.5,25.25" fill="none" stroke="#111" stroke-width="1.6" stroke-linecap="round" stroke-linejoin="round"/><rect x="70.4" y="10.55" width="4.2" height="11.2" fill="none" stroke="#111" stroke-width="1.6"/><circle cx="72.5" cy="8.45" r="0.7" fill="none" stroke="#111" stroke-width="1.6"/><polyline points="72.5,10.55 72.5,8.45 79.5,8.45 79.5,10.55" fill="none" stroke="#111" stroke-width="1.6" stroke-linecap="round" stroke-linejoin="round"/><polyline points="72.5,21.75 72.5,25.25" fill="none" stroke="#111" stroke-width="1.6" stroke-linecap="round" stroke-linejoin="round"/><rect x="77.4" y="10.55" width="4.2" height="11.2" fill="none" stroke="#111" stroke-width="1.6"/><circle cx="79.5" cy="8.45" r="0.7" fill="none" stroke="#111" stroke-width="1.6"/><polyline points="79.5,10.55 79.5,8.45 86.5,8.45 86.5,10.55" fill="none" stroke="#111" stroke-width="1.6" stroke-linecap="round" stroke-linejoin="round"/><polyline points="79.5,21.75 79.5,25.25" fill="none" stroke="#111" stroke-width="1.6" stroke-linecap="round" stroke-linejoin="round"/><rect x="84.4" y="10.55" width="4.2" height="11.2" fill="none" stroke="#111" stroke-width="1.6"/><polyline points="86.5,21.75 86.5,25.25" fill="none" stroke="#111" stroke-width="1.6" stroke-linecap="round" stroke-linejoin="round"/></svg>