<svg xmlns="http://www.w3.org/2000/svg" width="96" height="64" viewBox="0 0 96 64"><rect x="6" y="6" width="1.35" height="0.4" fill="none" stroke="#111" stroke-width="1.6"/><rect x="6" y="9.97" width="1.35" height="0.4" fill="none" stroke="#111" stroke-width="1.6"/><rect x="6" y="13.94" width="1.35" height="0.4" fill="none" stroke="#111" stroke-width="1.6"/><rect x="6" y="17.91" width="1.35" height="0.4" fill="none" stroke="#111" stroke-width="1.6"/><rect x="6" y="21.88" width="1.35" height="0.39" fill="none" stroke="#111" stroke-width="1.6"/><rect x="6" y="25.85" width="1.35" height="0.39" fill="none" stroke="#111" stroke-width="1.6"/><rect x="6" y="29.82" width="1.35" height="0.39" fill="none" stroke="#111" stroke-width="1.6"/><rect x="6" y="33.79" width="1.35" height="0.39" fill="none" stroke="#111" stroke-width="1.6"/><rect x="6" y="37.76" width="1.35" height="0.39" fill="none" stroke="#111" stroke-width="1.6"/><rect x="6" y="41.73" width="1.35" height="0.39" fill="none" stroke="#111" stroke-width="1.6"/><rect x="6" y="45.69" width="1.35" height="0.4" fill="none" stroke="#111" stroke-width="1.6"/><rect x="6" y="49.66" width="1.35" height="0.4" fill="none" stroke="#111" stroke-width="1.6"/><rect x="6" y="53.63" width="1.35" height="0.4" fill="none" stroke="#111" stroke-width="1.6"/><rect x="6" y="57.6" width="1.35" height="0.4" fill="none" stroke="#111" stroke-width="1.6"/><polyline points="7.98,6.2 7.35,6.2" fill="none" stroke="#111" stroke-width="1.6" stroke-linecap="round" stroke-linejoin="round"/><polyline points="7.98,10.17 7.35,10.17" fill="none" stroke="#111" stroke-width="1.6" stroke-linecap="round" stroke-linejoin="round"/><polyline points="7.98,14.14 7.35,14.14" fill="none" stroke="#111" stroke-width="1.6" stroke-linecap="round" stroke-linejoin="round"/><polyline points="7.98,18.11 7.35,18.11" fill="none" stroke="#111" stroke-width="1.6" stroke-linecap="round" stroke-linejoin="round"/><polyline points="7.98,22.08 7.35,22.08" fill="none" stroke="#111" stroke-width="1.6" stroke-linecap="round" stroke-linejoin="round"/><polyline points="7.98,26.05 7.35,26.05" fill="none" stroke="#111" stroke-width="1.6" stroke-linecap="round" stroke-linejoin="round"/><polyline points="7.98,30.02 7.35,30.02" fill="none" stroke="#111" stroke-width="1.6" stroke-linecap="round" stroke-linejoin="round"/><polyline points="7.98,33.98 7.35,33.98" fill="none" stroke="#111" stroke-width="1.6" stroke-linecap="round" stroke-linejoin="round"/><polyline points="7.98,37.95 7.35,37.95" fill="none" stroke="#111" stroke-width="1.6" stroke-linecap="round" stroke-linejoin="round"/><polyline points="7.98,41.92 7.35,41.92" fill="none" stroke="#111" stroke-width="1.6" stroke-linecap="round" stroke-linejoin="round"/><polyline points="7.98,45.89 7.35,45.89" fill="none" stroke="#111" stroke-width="1.6" stroke-linecap="round" stroke-linejoin="round"/><polyline points="7.98,49.86 7.35,49.86" fill="none" stroke="#111" stroke-width="1.6" stroke-linecap="round" stroke-linejoin="round"/><polyline points="7.98,53.83 7.35,53.83" fill="none" stroke="#111" stroke-width="1.6" stroke-linecap="round" stroke-linejoin="round"/><polyline points="7.98,57.8 7.35,57.8" fill="none" stroke="#111" stroke-width="1.6" stroke-linecap="round" stroke-linejoin="round"/></svg>