<svg xmlns="http://www.w3.org/2000/svg" width="96" height="64" viewBox="0 0 96 64"><polyline points="6,32 10.33,32" fill="none" stroke="#111" stroke-width="1.6" stroke-linecap="round" stroke-linejoin="round"/><circle cx="11.78" cy="32" r="1.44" fill="none" stroke="#111" stroke-width="1.6"/><polyline points="12.12,30.5 14.32,17.56" fill="none" stroke="#111" stroke-width="1.6" stroke-linecap="round" stroke-linejoin="round"/><circle cx="14.67" cy="16.11" r="1.44" fill="none" stroke="#111" stroke-width="1.6"/><path d="M 18.28 26.94 Q 20.79 30.98 19.72 35.61" fill="none" stroke="#111" stroke-width="1.6" stroke-linecap="round"/><circle cx="14.67" cy="49.33" r="1.44" fill="none" stroke="#111" stroke-width="1.6"/><polyline points="19.72,35.61 19.72,33.59" fill="none" stroke="#111" stroke-width="1.6" stroke-linecap="round" stroke-linejoin="round"/><polyline points="19.72,35.61 19.72,35.61" fill="none" stroke="#111" stroke-width="1.6" stroke-linecap="round" stroke-linejoin="round"/><polyline points="19.72,35.61 21.46,34.46" fill="none" stroke="#111" stroke-width="1.6" stroke-linecap="round" stroke-linejoin="round"/><circle cx="20.44" cy="17.56" r="1.44" fill="none" stroke="#111" stroke-width="1.6"/><circle cx="20.44" cy="46.44" r="1.44" fill="none" stroke="#111" stroke-width="1.6"/><circle cx="24.78" cy="21.89" r="1.44" fill="none" stroke="#111" stroke-width="1.6"/><circle cx="24.78" cy="42.11" r="1.44" fill="none" stroke="#111" stroke-width="1.6"/><circle cx="29.11" cy="26.22" r="1.44" fill="none" stroke="#111" stroke-width="1.6"/><circle cx="29.11" cy="37.78" r="1.44" fill="none" stroke="#111" stroke-width="1.6"/><circle cx="30.56" cy="32" r="1.44" fill="none" stroke="#111" stroke-width="1.6"/><polyline points="34.89,14.67 20.44,14.67 20.44,14.67 20.44,16.11" fill="none" stroke="#111" stroke-width="1.6" stroke-linecap="round" stroke-linejoin="round"/><polyline points="34.89,20.44 29.11,20.44 29.11,21.89 26.22,21.89" fill="none" stroke="#111" stroke-width="1.6" stroke-linecap="round" stroke-linejoin="round"/><polyline points="34.89,26.22 30.56,26.22" fill="none" stroke="#111" stroke-width="1.6" stroke-linecap="round" stroke-linejoin="round"/><polyline points="34.89,32 32,32" fill="none" stroke="#111" stroke-width="1.6" stroke-linecap="round" stroke-linejoin="round"/><polyline points="34.89,37.78 30.56,37.78" fill="none" stroke="#111" stroke-width="1.6" stroke-linecap="round" stroke-linejoin="round"/><polyline points="34.89,43.56 29.11,43.56 29.11,42.11 26.22,42.11" fill="none" stroke="#111" stroke-width="1.6" stroke-linecap="round" stroke-linejoin="round"/><polyline points="34.89,49.33 24.78,49.33 24.78,46.44 21.89,46.44" fill="none" stroke="#111" stroke-width="1.6" stroke-linecap="round" stroke-linejoin="round"/><polyline points="6,6 34.89,6 34.89,58 6,58 6,6 6,6" fill="none" stroke="#111" stroke-width="1.6" stroke-linecap="round" stroke-linejoin="round"/><polyline points="34.89,8.89 14.67,8.89 14.67,14.67" fill="none" stroke="#111" stroke-width="1.6" stroke-linecap="round" stroke-linejoin="round"/><polyline points="34.89,55.11 14.67,55.11 14.67,50.78" fill="none" stroke="#111" stroke-width="1.6" stroke-linecap="round" stroke-linejoin="round"/></svg>