<svg xmlns="http://www.w3.org/2000/svg" width="96" height="64" viewBox="0 0 96 64"><polyline points="48,29.31 39.6,26.16 39.6,32.46 48,29.31" fill="none" stroke="#111" stroke-width="1.6" stroke-linecap="round" stroke-linejoin="round"/><polyline points="50.1,13.56 50.1,45.06" fill="none" stroke="#111" stroke-width="1.6" stroke-linecap="round" stroke-linejoin="round"/><polyline points="50.1,29.31 27,29.31" fill="none" stroke="#111" stroke-width="1.6" stroke-linecap="round" stroke-linejoin="round"/><circle cx="58.5" cy="29.31" r="23.31" fill="none" stroke="#111" stroke-width="1.6"/><polyline points="69,8.31 69,17.76 50.1,17.76" fill="none" stroke="#111" stroke-width="1.6" stroke-linecap="round" stroke-linejoin="round"/><polyline points="69,50.31 69,40.86 50.1,40.86" fill="none" stroke="#111" stroke-width="1.6" stroke-linecap="round" stroke-linejoin="round"/><polyline points="48,29.31 39.6,26.16 39.6,32.46 48,29.31" fill="none" stroke="#111" stroke-width="1.6" stroke-linecap="round" stroke-linejoin="round"/><polyline points="50.1,13.56 50.1,45.06" fill="none" stroke="#111" stroke-width="1.6" stroke-linecap="round" stroke-linejoin="round"/><polyline points="50.1,29.31 27,29.31" fill="none" stroke="#111" stroke-width="1.6" stroke-linecap="round" stroke-linejoin="round"/><circle cx="58.5" cy="29.31" r="23.31" fill="none" stroke="#111" stroke-width="1.6"/><polyline points="69,8.31 69,17.76 50.1,17.76" fill="none" stroke="#111" stroke-width="1.6" stroke-linecap="round" stroke-linejoin="round"/><polyline points="69,50.31 69,40.86 50.1,40.86" fill="none" stroke="#111" stroke-width="1.6" stroke-linecap="round" stroke-linejoin="round"/><rect x="6" y="18.81" width="84" height="21" fill="none" stroke="#111" stroke-width="1.6"/></svg>