<svg xmlns="http://www.w3.org/2000/svg" width="96" height="64" viewBox="0 0 96 64"><polyline points="6,6.19 6.29,6.19" fill="none" stroke="#111" stroke-width="1.6" stroke-linecap="round" stroke-linejoin="round"/><polyline points="6,7.15 6.29,7.15" fill="none" stroke="#111" stroke-width="1.6" stroke-linecap="round" stroke-linejoin="round"/><polyline points="6,8.1 6.29,8.1" fill="none" stroke="#111" stroke-width="1.6" stroke-linecap="round" stroke-linejoin="round"/><polyline points="6,9.06 6.29,9.06" fill="none" stroke="#111" stroke-width="1.6" stroke-linecap="round" stroke-linejoin="round"/><polyline points="6,10.01 6.29,10.01" fill="none" stroke="#111" stroke-width="1.6" stroke-linecap="round" stroke-linejoin="round"/><polyline points="6,10.97 6.29,10.97" fill="none" stroke="#111" stroke-width="1.6" stroke-linecap="round" stroke-linejoin="round"/><polyline points="6,11.93 6.29,11.93" fill="none" stroke="#111" stroke-width="1.6" stroke-linecap="round" stroke-linejoin="round"/><polyline points="6,12.88 6.29,12.88" fill="none" stroke="#111" stroke-width="1.6" stroke-linecap="round" stroke-linejoin="round"/><polyline points="6,13.84 6.29,13.84" fill="none" stroke="#111" stroke-width="1.6" stroke-linecap="round" stroke-linejoin="round"/><polyline points="6,14.79 6.29,14.79" fill="none" stroke="#111" stroke-width="1.6" stroke-linecap="round" stroke-linejoin="round"/><polyline points="6,15.75 6.29,15.75" fill="none" stroke="#111" stroke-width="1.6" stroke-linecap="round" stroke-linejoin="round"/><polyline points="6,16.71 6.29,16.71" fill="none" stroke="#111" stroke-width="1.6" stroke-linecap="round" stroke-linejoin="round"/><polyline points="6,17.66 6.29,17.66" fill="none" stroke="#111" stroke-width="1.6" stroke-linecap="round" stroke-linejoin="round"/><polyline points="6,18.62 6.29,18.62" fill="none" stroke="#111" stroke-width="1.6" stroke-linecap="round" stroke-linejoin="round"/><polyline points="6,19.57 6.29,19.57" fill="none" stroke="#111" stroke-width="1.6" stroke-linecap="round" stroke-linejoin="round"/><polyline points="6,20.53 6.29,20.53" fill="none" stroke="#111" stroke-width="1.6" stroke-linecap="round" stroke-linejoin="round"/><polyline points="6,21.49 6.29,21.49" fill="none" stroke="#111" stroke-width="1.6" stroke-linecap="round" stroke-linejoin="round"/><polyline points="6,22.44 6.29,22.44" fill="none" stroke="#111" stroke-width="1.6" stroke-linecap="round" stroke-linejoin="round"/><polyline points="6,23.4 6.29,23.4" fill="none" stroke="#111" stroke-width="1.6" stroke-linecap="round" stroke-linejoin="round"/><polyline points="6,24.35 6.29,24.35" fill="none" stroke="#111" stroke-width="1.6" stroke-linecap="round" stroke-linejoin="round"/><polyline points="6,25.31 6.29,25.31" fill="none" stroke="#111" stroke-width="1.6" stroke-linecap="round" stroke-linejoin="round"/><polyline points="6,26.26 6.29,26.26" fill="none" stroke="#111" stroke-width="1.6" stroke-linecap="round" stroke-linejoin="round"/><polyline points="6,27.22 6.29,27.22" fill="none" stroke="#111" stroke-width="1.6" stroke-linecap="round" stroke-linejoin="round"/><polyline points="6,28.18 6.29,28.18" fill="none" stroke="#111" stroke-width="1.6" stroke-linecap="round" stroke-linejoin="round"/><polyline points="6,29.13 6.29,29.13" fill="none" stroke="#111" stroke-width="1.6" stroke-linecap="round" stroke-linejoin="round"/><polyline points="6,30.09 6.29,30.09" fill="none" stroke="#111" stroke-width="1.6" stroke-linecap="round" stroke-linejoin="round"/><polyline points="6,31.04 6.29,31.04" fill="none" stroke="#111" stroke-width="1.6" stroke-linecap="round" stroke-linejoin="round"/><polyline points="6,32 6.29,32" fill="none" stroke="#111" stroke-width="1.6" stroke-linecap="round" stroke-linejoin="round"/><polyline points="6,32.96 6.29,32.96" fill="none" stroke="#111" stroke-width="1.6" stroke-linecap="round" stroke-linejoin="round"/><polyline points="6,33.91 6.29,33.91" fill="none" stroke="#111" stroke-width="1.6" stroke-linecap="round" stroke-linejoin="round"/><polyline points="6,34.87 6.29,34.87" fill="none" stroke="#111" stroke-width="1.6" stroke-linecap="round" stroke-linejoin="round"/><polyline points="6,35.82 6.29,35.82" fill="none" stroke="#111" stroke-width="1.6" stroke-linecap="round" stroke-linejoin="round"/><polyline points="6,36.78 6.29,36.78" fill="none" stroke="#111" stroke-width="1.6" stroke-linecap="round" stroke-linejoin="round"/><polyline points="6,37.74 6.29,37.74" fill="none" stroke="#111" stroke-width="1.6" stroke-linecap="round" stroke-linejoin="round"/><polyline points="6,38.69 6.29,38.69" fill="none" stroke="#111" stroke-width="1.6" stroke-linecap="round" stroke-linejoin="round"/><polyline points="6,39.65 6.29,39.65" fill="none" stroke="#111" stroke-width="1.6" stroke-linecap="round" stroke-linejoin="round"/><polyline points="6,40.6 6.29,40.6" fill="none" stroke="#111" stroke-width="1.6" stroke-linecap="round" stroke-linejoin="round"/><polyline points="6,41.56 6.29,41.56" fill="none" stroke="#111" stroke-width="1.6" stroke-linecap="round" stroke-linejoin="round"/><polyline points="6,42.51 6.29,42.51" fill="none" stroke="#111" stroke-width="1.6" stroke-linecap="round" stroke-linejoin="round"/><polyline points="6,43.47 6.29,43.47" fill="none" stroke="#111" stroke-width="1.6" stroke-linecap="round" stroke-linejoin="round"/><polyline points="6,44.43 6.29,44.43" fill="none" stroke="#111" stroke-width="1.6" stroke-linecap="round" stroke-linejoin="round"/><polyline points="6,45.38 6.29,45.38" fill="none" stroke="#111" stroke-width="1.6" stroke-linecap="round" stroke-linejoin="round"/><polyline points="6,46.34 6.29,46.34" fill="none" stroke="#111" stroke-width="1.6" stroke-linecap="round" stroke-linejoin="round"/><polyline points="6,47.29 6.29,47.29" fill="none" stroke="#111" stroke-width="1.6" stroke-linecap="round" stroke-linejoin="round"/><polyline points="6,48.25 6.29,48.25" fill="none" stroke="#111" stroke-width="1.6" stroke-linecap="round" stroke-linejoin="round"/><polyline points="6,49.21 6.29,49.21" fill="none" stroke="#111" stroke-width="1.6" stroke-linecap="round" stroke-linejoin="round"/><polyline points="6,50.16 6.29,50.16" fill="none" stroke="#111" stroke-width="1.6" stroke-linecap="round" stroke-linejoin="round"/><polyline points="6,51.12 6.29,51.12" fill="none" stroke="#111" stroke-width="1.6" stroke-linecap="round" stroke-linejoin="round"/><polyline points="6,52.07 6.29,52.07" fill="none" stroke="#111" stroke-width="1.6" stroke-linecap="round" stroke-linejoin="round"/><polyline points="6,53.03 6.29,53.03" fill="none" stroke="#111" stroke-width="1.6" stroke-linecap="round" stroke-linejoin="round"/><polyline points="6,53.99 6.29,53.99" fill="none" stroke="#111" stroke-width="1.6" stroke-linecap="round" stroke-linejoin="round"/><polyline points="6,54.94 6.29,54.94" fill="none" stroke="#111" stroke-width="1.6" stroke-linecap="round" stroke-linejoin="round"/><polyline points="6,55.9 6.29,55.9" fill="none" stroke="#111" stroke-width="1.6" stroke-linecap="round" stroke-linejoin="round"/><polyline points="6,56.85 6.29,56.85" fill="none" stroke="#111" stroke-width="1.6" stroke-linecap="round" stroke-linejoin="round"/><polyline points="6,57.81 6.29,57.81" fill="none" stroke="#111" stroke-width="1.6" stroke-linecap="round" stroke-linejoin="round"/><path d="M 6.48 6.38 Q 6.29 6.19 6.48 6" fill="none" stroke="#111" stroke-width="1.6" stroke-linecap="round"/><path d="M 6.48 7.34 Q 6.29 7.15 6.48 6.96" fill="none" stroke="#111" stroke-width="1.6" stroke-linecap="round"/><path d="M 6.48 8.29 Q 6.29 8.1 6.48 7.91" fill="none" stroke="#111" stroke-width="1.6" stroke-linecap="round"/><path d="M 6.48 9.25 Q 6.29 9.06 6.48 8.87" fill="none" stroke="#111" stroke-width="1.6" stroke-linecap="round"/><path d="M 6.48 10.21 Q 6.29 10.01 6.48 9.82" fill="none" stroke="#111" stroke-width="1.6" stroke-linecap="round"/><path d="M 6.48 11.16 Q 6.29 10.97 6.48 10.78" fill="none" stroke="#111" stroke-width="1.6" stroke-linecap="round"/><path d="M 6.48 12.12 Q 6.29 11.93 6.48 11.74" fill="none" stroke="#111" stroke-width="1.6" stroke-linecap="round"/><path d="M 6.48 13.07 Q 6.29 12.88 6.48 12.69" fill="none" stroke="#111" stroke-width="1.6" stroke-linecap="round"/><path d="M 6.48 14.03 Q 6.29 13.84 6.48 13.65" fill="none" stroke="#111" stroke-width="1.6" stroke-linecap="round"/><path d="M 6.48 14.99 Q 6.29 14.79 6.48 14.6" fill="none" stroke="#111" stroke-width="1.6" stroke-linecap="round"/><path d="M 6.48 15.94 Q 6.29 15.75 6.48 15.56" fill="none" stroke="#111" stroke-width="1.6" stroke-linecap="round"/><path d="M 6.48 16.9 Q 6.29 16.71 6.48 16.51" fill="none" stroke="#111" stroke-width="1.6" stroke-linecap="round"/><path d="M 6.48 17.85 Q 6.29 17.66 6.48 17.47" fill="none" stroke="#111" stroke-width="1.6" stroke-linecap="round"/><path d="M 6.48 18.81 Q 6.29 18.62 6.48 18.43" fill="none" stroke="#111" stroke-width="1.6" stroke-linecap="round"/><path d="M 6.48 19.76 Q 6.29 19.57 6.48 19.38" fill="none" stroke="#111" stroke-width="1.6" stroke-linecap="round"/><path d="M 6.48 20.72 Q 6.29 20.53 6.48 20.34" fill="none" stroke="#111" stroke-width="1.6" stroke-linecap="round"/><path d="M 6.48 21.68 Q 6.29 21.49 6.48 21.29" fill="none" stroke="#111" stroke-width="1.6" stroke-linecap="round"/><path d="M 6.48 22.63 Q 6.29 22.44 6.48 22.25" fill="none" stroke="#111" stroke-width="1.6" stroke-linecap="round"/><path d="M 6.48 23.59 Q 6.29 23.4 6.48 23.21" fill="none" stroke="#111" stroke-width="1.6" stroke-linecap="round"/><path d="M 6.48 24.54 Q 6.29 24.35 6.48 24.16" fill="none" stroke="#111" stroke-width="1.6" stroke-linecap="round"/><path d="M 6.48 25.5 Q 6.29 25.31 6.48 25.12" fill="none" stroke="#111" stroke-width="1.6" stroke-linecap="round"/><path d="M 6.48 26.46 Q 6.29 26.26 6.48 26.07" fill="none" stroke="#111" stroke-width="1.6" stroke-linecap="round"/><path d="M 6.48 27.41 Q 6.29 27.22 6.48 27.03" fill="none" stroke="#111" stroke-width="1.6" stroke-linecap="round"/><path d="M 6.48 28.37 Q 6.29 28.18 6.48 27.99" fill="none" stroke="#111" stroke-width="1.6" stroke-linecap="round"/><path d="M 6.48 29.32 Q 6.29 29.13 6.48 28.94" fill="none" stroke="#111" stroke-width="1.6" stroke-linecap="round"/><path d="M 6.48 30.28 Q 6.29 30.09 6.48 29.9" fill="none" stroke="#111" stroke-width="1.6" stroke-linecap="round"/><path d="M 6.48 31.24 Q 6.29 31.04 6.48 30.85" fill="none" stroke="#111" stroke-width="1.6" stroke-linecap="round"/><path d="M 6.48 32.19 Q 6.29 32 6.48 31.81" fill="none" stroke="#111" stroke-width="1.6" stroke-linecap="round"/><path d="M 6.48 33.15 Q 6.29 32.96 6.48 32.76" fill="none" stroke="#111" stroke-width="1.6" stroke-linecap="round"/><path d="M 6.48 34.1 Q 6.29 33.91 6.48 33.72" fill="none" stroke="#111" stroke-width="1.6" stroke-linecap="round"/><path d="M 6.48 35.06 Q 6.29 34.87 6.48 34.68" fill="none" stroke="#111" stroke-width="1.6" stroke-linecap="round"/><path d="M 6.48 36.01 Q 6.29 35.82 6.48 35.63" fill="none" stroke="#111" stroke-width="1.6" stroke-linecap="round"/><path d="M 6.48 36.97 Q 6.29 36.78 6.48 36.59" fill="none" stroke="#111" stroke-width="1.6" stroke-linecap="round"/><path d="M 6.48 37.93 Q 6.29 37.74 6.48 37.54" fill="none" stroke="#111" stroke-width="1.6" stroke-linecap="round"/><path d="M 6.48 38.88 Q 6.29 38.69 6.48 38.5" fill="none" stroke="#111" stroke-width="1.6" stroke-linecap="round"/><path d="M 6.48 39.84 Q 6.29 39.65 6.48 39.46" fill="none" stroke="#111" stroke-width="1.6" stroke-linecap="round"/><path d="M 6.48 40.79 Q 6.29 40.6 6.48 40.41" fill="none" stroke="#111" stroke-width="1.6" stroke-linecap="round"/><path d="M 6.48 41.75 Q 6.29 41.56 6.48 41.37" fill="none" stroke="#111" stroke-width="1.6" stroke-linecap="round"/><path d="M 6.48 42.71 Q 6.29 42.51 6.48 42.32" fill="none" stroke="#111" stroke-width="1.6" stroke-linecap="round"/><path d="M 6.48 43.66 Q 6.29 43.47 6.48 43.28" fill="none" stroke="#111" stroke-width="1.6" stroke-linecap="round"/><path d="M 6.48 44.62 Q 6.29 44.43 6.48 44.24" fill="none" stroke="#111" stroke-width="1.6" stroke-linecap="round"/><path d="M 6.48 45.57 Q 6.29 45.38 6.48 45.19" fill="none" stroke="#111" stroke-width="1.6" stroke-linecap="round"/><path d="M 6.48 46.53 Q 6.29 46.34 6.48 46.15" fill="none" stroke="#111" stroke-width="1.6" stroke-linecap="round"/><path d="M 6.48 47.49 Q 6.29 47.29 6.48 47.1" fill="none" stroke="#111" stroke-width="1.6" stroke-linecap="round"/><path d="M 6.48 48.44 Q 6.29 48.25 6.48 48.06" fill="none" stroke="#111" stroke-width="1.6" stroke-linecap="round"/><path d="M 6.48 49.4 Q 6.29 49.21 6.48 49.01" fill="none" stroke="#111" stroke-width="1.6" stroke-linecap="round"/><path d="M 6.48 50.35 Q 6.29 50.16 6.48 49.97" fill="none" stroke="#111" stroke-width="1.6" stroke-linecap="round"/><path d="M 6.48 51.31 Q 6.29 51.12 6.48 50.93" fill="none" stroke="#111" stroke-width="1.6" stroke-linecap="round"/><path d="M 6.48 52.26 Q 6.29 52.07 6.48 51.88" fill="none" stroke="#111" stroke-width="1.6" stroke-linecap="round"/><path d="M 6.48 53.22 Q 6.29 53.03 6.48 52.84" fill="none" stroke="#111" stroke-width="1.6" stroke-linecap="round"/><path d="M 6.48 54.18 Q 6.29 53.99 6.48 53.79" fill="none" stroke="#111" stroke-width="1.6" stroke-linecap="round"/><path d="M 6.48 55.13 Q 6.29 54.94 6.48 54.75" fill="none" stroke="#111" stroke-width="1.6" stroke-linecap="round"/><path d="M 6.48 56.09 Q 6.29 55.9 6.48 55.71" fill="none" stroke="#111" stroke-width="1.6" stroke-linecap="round"/><path d="M 6.48 57.04 Q 6.29 56.85 6.48 56.66" fill="none" stroke="#111" stroke-width="1.6" stroke-linecap="round"/><path d="M 6.48 58 Q 6.29 57.81 6.48 57.62" fill="none" stroke="#111" stroke-width="1.6" stroke-linecap="round"/></svg>