<svg xmlns="http://www.w3.org/2000/svg" width="96" height="64" viewBox="0 0 96 64"><rect x="6" y="6" width="0.49" height="0.14" fill="none" stroke="#111" stroke-width="1.6"/><rect x="6" y="7.44" width="0.49" height="0.14" fill="none" stroke="#111" stroke-width="1.6"/><rect x="6" y="8.88" width="0.49" height="0.14" fill="none" stroke="#111" stroke-width="1.6"/><rect x="6" y="10.32" width="0.49" height="0.15" fill="none" stroke="#111" stroke-width="1.6"/><rect x="6" y="11.76" width="0.49" height="0.15" fill="none" stroke="#111" stroke-width="1.6"/><rect x="6" y="13.2" width="0.49" height="0.15" fill="none" stroke="#111" stroke-width="1.6"/><rect x="6" y="14.64" width="0.49" height="0.15" fill="none" stroke="#111" stroke-width="1.6"/><rect x="6" y="16.08" width="0.49" height="0.15" fill="none" stroke="#111" stroke-width="1.6"/><rect x="6" y="17.52" width="0.49" height="0.15" fill="none" stroke="#111" stroke-width="1.6"/><rect x="6" y="18.96" width="0.49" height="0.15" fill="none" stroke="#111" stroke-width="1.6"/><rect x="6" y="20.4" width="0.49" height="0.15" fill="none" stroke="#111" stroke-width="1.6"/><rect x="6" y="21.84" width="0.49" height="0.15" fill="none" stroke="#111" stroke-width="1.6"/><rect x="6" y="23.29" width="0.49" height="0.14" fill="none" stroke="#111" stroke-width="1.6"/><rect x="6" y="24.73" width="0.49" height="0.14" fill="none" stroke="#111" stroke-width="1.6"/><rect x="6" y="26.17" width="0.49" height="0.14" fill="none" stroke="#111" stroke-width="1.6"/><rect x="6" y="27.61" width="0.49" height="0.14" fill="none" stroke="#111" stroke-width="1.6"/><rect x="6" y="29.05" width="0.49" height="0.14" fill="none" stroke="#111" stroke-width="1.6"/><rect x="6" y="30.49" width="0.49" height="0.14" fill="none" stroke="#111" stroke-width="1.6"/><rect x="6" y="31.93" width="0.49" height="0.14" fill="none" stroke="#111" stroke-width="1.6"/><rect x="6" y="33.37" width="0.49" height="0.14" fill="none" stroke="#111" stroke-width="1.6"/><rect x="6" y="34.81" width="0.49" height="0.14" fill="none" stroke="#111" stroke-width="1.6"/><rect x="6" y="36.25" width="0.49" height="0.14" fill="none" stroke="#111" stroke-width="1.6"/><rect x="6" y="37.69" width="0.49" height="0.14" fill="none" stroke="#111" stroke-width="1.6"/><rect x="6" y="39.13" width="0.49" height="0.14" fill="none" stroke="#111" stroke-width="1.6"/><rect x="6" y="40.57" width="0.49" height="0.14" fill="none" stroke="#111" stroke-width="1.6"/><rect x="6" y="42.01" width="0.49" height="0.15" fill="none" stroke="#111" stroke-width="1.6"/><rect x="6" y="43.45" width="0.49" height="0.15" fill="none" stroke="#111" stroke-width="1.6"/><rect x="6" y="44.89" width="0.49" height="0.15" fill="none" stroke="#111" stroke-width="1.6"/><rect x="6" y="46.33" width="0.49" height="0.15" fill="none" stroke="#111" stroke-width="1.6"/><rect x="6" y="47.77" width="0.49" height="0.15" fill="none" stroke="#111" stroke-width="1.6"/><rect x="6" y="49.21" width="0.49" height="0.15" fill="none" stroke="#111" stroke-width="1.6"/><rect x="6" y="50.65" width="0.49" height="0.15" fill="none" stroke="#111" stroke-width="1.6"/><rect x="6" y="52.09" width="0.49" height="0.15" fill="none" stroke="#111" stroke-width="1.6"/><rect x="6" y="53.53" width="0.49" height="0.15" fill="none" stroke="#111" stroke-width="1.6"/><rect x="6" y="54.98" width="0.49" height="0.14" fill="none" stroke="#111" stroke-width="1.6"/><rect x="6" y="56.42" width="0.49" height="0.14" fill="none" stroke="#111" stroke-width="1.6"/><rect x="6" y="57.86" width="0.49" height="0.14" fill="none" stroke="#111" stroke-width="1.6"/><polyline points="6.72,6.07 6.49,6.07" fill="none" stroke="#111" stroke-width="1.6" stroke-linecap="round" stroke-linejoin="round"/><polyline points="6.72,7.51 6.49,7.51" fill="none" stroke="#111" stroke-width="1.6" stroke-linecap="round" stroke-linejoin="round"/><polyline points="6.72,8.95 6.49,8.95" fill="none" stroke="#111" stroke-width="1.6" stroke-linecap="round" stroke-linejoin="round"/><polyline points="6.72,10.39 6.49,10.39" fill="none" stroke="#111" stroke-width="1.6" stroke-linecap="round" stroke-linejoin="round"/><polyline points="6.72,11.83 6.49,11.83" fill="none" stroke="#111" stroke-width="1.6" stroke-linecap="round" stroke-linejoin="round"/><polyline points="6.72,13.27 6.49,13.27" fill="none" stroke="#111" stroke-width="1.6" stroke-linecap="round" stroke-linejoin="round"/><polyline points="6.72,14.71 6.49,14.71" fill="none" stroke="#111" stroke-width="1.6" stroke-linecap="round" stroke-linejoin="round"/><polyline points="6.72,16.16 6.49,16.16" fill="none" stroke="#111" stroke-width="1.6" stroke-linecap="round" stroke-linejoin="round"/><polyline points="6.72,17.6 6.49,17.6" fill="none" stroke="#111" stroke-width="1.6" stroke-linecap="round" stroke-linejoin="round"/><polyline points="6.72,19.04 6.49,19.04" fill="none" stroke="#111" stroke-width="1.6" stroke-linecap="round" stroke-linejoin="round"/><polyline points="6.72,20.48 6.49,20.48" fill="none" stroke="#111" stroke-width="1.6" stroke-linecap="round" stroke-linejoin="round"/><polyline points="6.72,21.92 6.49,21.92" fill="none" stroke="#111" stroke-width="1.6" stroke-linecap="round" stroke-linejoin="round"/><polyline points="6.72,23.36 6.49,23.36" fill="none" stroke="#111" stroke-width="1.6" stroke-linecap="round" stroke-linejoin="round"/><polyline points="6.72,24.8 6.49,24.8" fill="none" stroke="#111" stroke-width="1.6" stroke-linecap="round" stroke-linejoin="round"/><polyline points="6.72,26.24 6.49,26.24" fill="none" stroke="#111" stroke-width="1.6" stroke-linecap="round" stroke-linejoin="round"/><polyline points="6.72,27.68 6.49,27.68" fill="none" stroke="#111" stroke-width="1.6" stroke-linecap="round" stroke-linejoin="round"/><polyline points="6.72,29.12 6.49,29.12" fill="none" stroke="#111" stroke-width="1.6" stroke-linecap="round" stroke-linejoin="round"/><polyline points="6.72,30.56 6.49,30.56" fill="none" stroke="#111" stroke-width="1.6" stroke-linecap="round" stroke-linejoin="round"/><polyline points="6.72,32 6.49,32" fill="none" stroke="#111" stroke-width="1.6" stroke-linecap="round" stroke-linejoin="round"/><polyline points="6.72,33.44 6.49,33.44" fill="none" stroke="#111" stroke-width="1.6" stroke-linecap="round" stroke-linejoin="round"/><polyline points="6.72,34.88 6.49,34.88" fill="none" stroke="#111" stroke-width="1.6" stroke-linecap="round" stroke-linejoin="round"/><polyline points="6.72,36.32 6.49,36.32" fill="none" stroke="#111" stroke-width="1.6" stroke-linecap="round" stroke-linejoin="round"/><polyline points="6.72,37.76 6.49,37.76" fill="none" stroke="#111" stroke-width="1.6" stroke-linecap="round" stroke-linejoin="round"/><polyline points="6.72,39.2 6.49,39.2" fill="none" stroke="#111" stroke-width="1.6" stroke-linecap="round" stroke-linejoin="round"/><polyline points="6.72,40.64 6.49,40.64" fill="none" stroke="#111" stroke-width="1.6" stroke-linecap="round" stroke-linejoin="round"/><polyline points="6.72,42.08 6.49,42.08" fill="none" stroke="#111" stroke-width="1.6" stroke-linecap="round" stroke-linejoin="round"/><polyline points="6.72,43.52 6.49,43.52" fill="none" stroke="#111" stroke-width="1.6" stroke-linecap="round" stroke-linejoin="round"/><polyline points="6.72,44.96 6.49,44.96" fill="none" stroke="#111" stroke-width="1.6" stroke-linecap="round" stroke-linejoin="round"/><polyline points="6.72,46.4 6.49,46.4" fill="none" stroke="#111" stroke-width="1.6" stroke-linecap="round" stroke-linejoin="round"/><polyline points="6.72,47.84 6.49,47.84" fill="none" stroke="#111" stroke-width="1.6" stroke-linecap="round" stroke-linejoin="round"/><polyline points="6.72,49.29 6.49,49.29" fill="none" stroke="#111" stroke-width="1.6" stroke-linecap="round" stroke-linejoin="round"/><polyline points="6.72,50.73 6.49,50.73" fill="none" stroke="#111" stroke-width="1.6" stroke-linecap="round" stroke-linejoin="round"/><polyline points="6.72,52.17 6.49,52.17" fill="none" stroke="#111" stroke-width="1.6" stroke-linecap="round" stroke-linejoin="round"/><polyline points="6.72,53.61 6.49,53.61" fill="none" stroke="#111" stroke-width="1.6" stroke-linecap="round" stroke-linejoin="round"/><polyline points="6.72,55.05 6.49,55.05" fill="none" stroke="#111" stroke-width="1.6" stroke-linecap="round" stroke-linejoin="round"/><polyline points="6.72,56.49 6.49,56.49" fill="none" stroke="#111" stroke-width="1.6" stroke-linecap="round" stroke-linejoin="round"/><polyline points="6.72,57.93 6.49,57.93" fill="none" stroke="#111" stroke-width="1.6" stroke-linecap="round" stroke-linejoin="round"/></svg>