<svg xmlns="http://www.w3.org/2000/svg" width="96" height="64" viewBox="0 0 96 64"><rect x="6" y="6" width="2.81" height="52" fill="none" stroke="#111" stroke-width="1.6"/><rect x="6" y="6.63" width="0.7" height="0.14" fill="none" stroke="#111" stroke-width="1.6"/><rect x="6" y="8.04" width="0.7" height="0.14" fill="none" stroke="#111" stroke-width="1.6"/><rect x="6" y="9.44" width="0.7" height="0.14" fill="none" stroke="#111" stroke-width="1.6"/><rect x="6" y="10.85" width="0.7" height="0.14" fill="none" stroke="#111" stroke-width="1.6"/><rect x="6" y="12.25" width="0.7" height="0.14" fill="none" stroke="#111" stroke-width="1.6"/><rect x="6" y="13.66" width="0.7" height="0.14" fill="none" stroke="#111" stroke-width="1.6"/><rect x="6" y="15.06" width="0.7" height="0.15" fill="none" stroke="#111" stroke-width="1.6"/><rect x="6" y="16.47" width="0.7" height="0.14" fill="none" stroke="#111" stroke-width="1.6"/><rect x="6" y="17.88" width="0.7" height="0.14" fill="none" stroke="#111" stroke-width="1.6"/><rect x="6" y="19.28" width="0.7" height="0.14" fill="none" stroke="#111" stroke-width="1.6"/><rect x="6" y="20.69" width="0.7" height="0.14" fill="none" stroke="#111" stroke-width="1.6"/><rect x="6" y="22.09" width="0.7" height="0.14" fill="none" stroke="#111" stroke-width="1.6"/><rect x="6" y="23.5" width="0.7" height="0.14" fill="none" stroke="#111" stroke-width="1.6"/><rect x="6" y="24.9" width="0.7" height="0.14" fill="none" stroke="#111" stroke-width="1.6"/><rect x="6" y="26.31" width="0.7" height="0.14" fill="none" stroke="#111" stroke-width="1.6"/><rect x="6" y="27.71" width="0.7" height="0.14" fill="none" stroke="#111" stroke-width="1.6"/><rect x="6" y="29.12" width="0.7" height="0.14" fill="none" stroke="#111" stroke-width="1.6"/><rect x="6" y="30.52" width="0.7" height="0.14" fill="none" stroke="#111" stroke-width="1.6"/><rect x="6" y="31.93" width="0.7" height="0.14" fill="none" stroke="#111" stroke-width="1.6"/><rect x="6" y="33.34" width="0.7" height="0.14" fill="none" stroke="#111" stroke-width="1.6"/><rect x="6" y="34.74" width="0.7" height="0.14" fill="none" stroke="#111" stroke-width="1.6"/><rect x="6" y="36.15" width="0.7" height="0.14" fill="none" stroke="#111" stroke-width="1.6"/><rect x="6" y="37.55" width="0.7" height="0.14" fill="none" stroke="#111" stroke-width="1.6"/><rect x="6" y="38.96" width="0.7" height="0.14" fill="none" stroke="#111" stroke-width="1.6"/><rect x="6" y="40.36" width="0.7" height="0.14" fill="none" stroke="#111" stroke-width="1.6"/><rect x="6" y="41.77" width="0.7" height="0.14" fill="none" stroke="#111" stroke-width="1.6"/><rect x="6" y="43.17" width="0.7" height="0.14" fill="none" stroke="#111" stroke-width="1.6"/><rect x="6" y="44.58" width="0.7" height="0.14" fill="none" stroke="#111" stroke-width="1.6"/><rect x="6" y="45.98" width="0.7" height="0.14" fill="none" stroke="#111" stroke-width="1.6"/><rect x="6" y="47.39" width="0.7" height="0.14" fill="none" stroke="#111" stroke-width="1.6"/><rect x="6" y="48.79" width="0.7" height="0.15" fill="none" stroke="#111" stroke-width="1.6"/><rect x="6" y="50.2" width="0.7" height="0.14" fill="none" stroke="#111" stroke-width="1.6"/><rect x="6" y="51.61" width="0.7" height="0.14" fill="none" stroke="#111" stroke-width="1.6"/><rect x="6" y="53.01" width="0.7" height="0.14" fill="none" stroke="#111" stroke-width="1.6"/><rect x="6" y="54.42" width="0.7" height="0.14" fill="none" stroke="#111" stroke-width="1.6"/><rect x="6" y="55.82" width="0.7" height="0.14" fill="none" stroke="#111" stroke-width="1.6"/><rect x="6" y="57.23" width="0.7" height="0.14" fill="none" stroke="#111" stroke-width="1.6"/><rect x="8.11" y="6.63" width="0.7" height="0.14" fill="none" stroke="#111" stroke-width="1.6"/><rect x="8.11" y="8.04" width="0.7" height="0.14" fill="none" stroke="#111" stroke-width="1.6"/><rect x="8.11" y="9.44" width="0.7" height="0.14" fill="none" stroke="#111" stroke-width="1.6"/><rect x="8.11" y="10.85" width="0.7" height="0.14" fill="none" stroke="#111" stroke-width="1.6"/><rect x="8.11" y="12.25" width="0.7" height="0.14" fill="none" stroke="#111" stroke-width="1.6"/><rect x="8.11" y="13.66" width="0.7" height="0.14" fill="none" stroke="#111" stroke-width="1.6"/><rect x="8.11" y="15.06" width="0.7" height="0.15" fill="none" stroke="#111" stroke-width="1.6"/><rect x="8.11" y="16.47" width="0.7" height="0.14" fill="none" stroke="#111" stroke-width="1.6"/><rect x="8.11" y="17.88" width="0.7" height="0.14" fill="none" stroke="#111" stroke-width="1.6"/><rect x="8.11" y="19.28" width="0.7" height="0.14" fill="none" stroke="#111" stroke-width="1.6"/><rect x="8.11" y="20.69" width="0.7" height="0.14" fill="none" stroke="#111" stroke-width="1.6"/><rect x="8.11" y="22.09" width="0.7" height="0.14" fill="none" stroke="#111" stroke-width="1.6"/><rect x="8.11" y="23.5" width="0.7" height="0.14" fill="none" stroke="#111" stroke-width="1.6"/><rect x="8.11" y="24.9" width="0.7" height="0.14" fill="none" stroke="#111" stroke-width="1.6"/><rect x="8.11" y="26.31" width="0.7" height="0.14" fill="none" stroke="#111" stroke-width="1.6"/><rect x="8.11" y="27.71" width="0.7" height="0.14" fill="none" stroke="#111" stroke-width="1.6"/><rect x="8.11" y="29.12" width="0.7" height="0.14" fill="none" stroke="#111" stroke-width="1.6"/><rect x="8.11" y="30.52" width="0.7" height="0.14" fill="none" stroke="#111" stroke-width="1.6"/><rect x="8.11" y="31.93" width="0.7" height="0.14" fill="none" stroke="#111" stroke-width="1.6"/><rect x="8.11" y="33.34" width="0.7" height="0.14" fill="none" stroke="#111" stroke-width="1.6"/><rect x="8.11" y="34.74" width="0.7" height="0.14" fill="none" stroke="#111" stroke-width="1.6"/><rect x="8.11" y="36.15" width="0.7" height="0.14" fill="none" stroke="#111" stroke-width="1.6"/><rect x="8.11" y="37.55" width="0.7" height="0.14" fill="none" stroke="#111" stroke-width="1.6"/><rect x="8.11" y="38.96" width="0.7" height="0.14" fill="none" stroke="#111" stroke-width="1.6"/><rect x="8.11" y="40.36" width="0.7" height="0.14" fill="none" stroke="#111" stroke-width="1.6"/><rect x="8.11" y="41.77" width="0.7" height="0.14" fill="none" stroke="#111" stroke-width="1.6"/><rect x="8.11" y="43.17" width="0.7" height="0.14" fill="none" stroke="#111" stroke-width="1.6"/><rect x="8.11" y="44.58" width="0.7" height="0.14" fill="none" stroke="#111" stroke-width="1.6"/><rect x="8.11" y="45.98" width="0.7" height="0.14" fill="none" stroke="#111" stroke-width="1.6"/><rect x="8.11" y="47.39" width="0.7" height="0.14" fill="none" stroke="#111" stroke-width="1.6"/><rect x="8.11" y="48.79" width="0.7" height="0.15" fill="none" stroke="#111" stroke-width="1.6"/><rect x="8.11" y="50.2" width="0.7" height="0.14" fill="none" stroke="#111" stroke-width="1.6"/><rect x="8.11" y="51.61" width="0.7" height="0.14" fill="none" stroke="#111" stroke-width="1.6"/><rect x="8.11" y="53.01" width="0.7" height="0.14" fill="none" stroke="#111" stroke-width="1.6"/><rect x="8.11" y="54.42" width="0.7" height="0.14" fill="none" stroke="#111" stroke-width="1.6"/><rect x="8.11" y="55.82" width="0.7" height="0.14" fill="none" stroke="#111" stroke-width="1.6"/><rect x="8.11" y="57.23" width="0.7" height="0.14" fill="none" stroke="#111" stroke-width="1.6"/></svg>