<svg xmlns="http://www.w3.org/2000/svg" width="96" height="64" viewBox="0 0 96 64"><rect x="12.3" y="11.25" width="8.93" height="41.5" fill="none" stroke="#111" stroke-width="1.6"/><rect x="12.3" y="11.25" width="8.93" height="41.5" fill="none" stroke="#111" stroke-width="1.6"/><rect x="11.78" y="13.88" width="9.45" height="36.24" fill="none" stroke="#111" stroke-width="1.6"/><polyline points="15.45,32.79 15.45,42.24 11.78,42.24 11.78,42.24" fill="none" stroke="#111" stroke-width="1.6" stroke-linecap="round" stroke-linejoin="round"/><polyline points="21.23,29.9 11.78,29.9 11.78,29.9" fill="none" stroke="#111" stroke-width="1.6" stroke-linecap="round" stroke-linejoin="round"/><polyline points="21.23,32.79 11.78,32.79 11.78,32.79" fill="none" stroke="#111" stroke-width="1.6" stroke-linecap="round" stroke-linejoin="round"/><rect x="12.3" y="20.18" width="8.41" height="23.64" fill="none" stroke="#111" stroke-width="1.6"/><rect x="12.83" y="11.25" width="7.35" height="41.5" fill="none" stroke="#111" stroke-width="1.6"/><polyline points="9.15,32.26 23.33,32.26 23.33,32.26" fill="none" stroke="#111" stroke-width="1.6" stroke-linecap="round" stroke-linejoin="round"/><polyline points="9.15,44.61 23.33,44.61 23.33,44.61" fill="none" stroke="#111" stroke-width="1.6" stroke-linecap="round" stroke-linejoin="round"/><polyline points="9.15,46.18 23.33,46.18 23.33,46.18" fill="none" stroke="#111" stroke-width="1.6" stroke-linecap="round" stroke-linejoin="round"/><polyline points="9.15,49.07 16.24,49.07" fill="none" stroke="#111" stroke-width="1.6" stroke-linecap="round" stroke-linejoin="round"/><polyline points="16.24,27.01 23.33,27.01 23.33,27.01" fill="none" stroke="#111" stroke-width="1.6" stroke-linecap="round" stroke-linejoin="round"/><polyline points="16.24,32.26 16.24,21.76 16.24,21.76" fill="none" stroke="#111" stroke-width="1.6" stroke-linecap="round" stroke-linejoin="round"/><polyline points="16.24,32.26 16.24,38.57 23.33,38.57 23.33,38.57" fill="none" stroke="#111" stroke-width="1.6" stroke-linecap="round" stroke-linejoin="round"/><polyline points="16.24,38.57 9.15,38.57 9.15,38.57" fill="none" stroke="#111" stroke-width="1.6" stroke-linecap="round" stroke-linejoin="round"/><polyline points="16.24,51.7 16.24,44.61 16.24,44.61" fill="none" stroke="#111" stroke-width="1.6" stroke-linecap="round" stroke-linejoin="round"/><polyline points="23.33,21.76 9.15,21.76 9.15,21.76" fill="none" stroke="#111" stroke-width="1.6" stroke-linecap="round" stroke-linejoin="round"/><polyline points="23.33,49.86 16.24,49.86 16.24,49.86" fill="none" stroke="#111" stroke-width="1.6" stroke-linecap="round" stroke-linejoin="round"/><rect x="9.15" y="11.78" width="14.18" height="39.92" fill="none" stroke="#111" stroke-width="1.6"/><rect x="11.25" y="26.22" width="10.51" height="11.56" fill="none" stroke="#111" stroke-width="1.6"/><rect x="6" y="6" width="21.01" height="52" fill="none" stroke="#111" stroke-width="1.6"/><rect x="12.83" y="13.88" width="7.35" height="36.24" fill="none" stroke="#111" stroke-width="1.6"/><rect x="12.83" y="13.62" width="7.35" height="36.76" fill="none" stroke="#111" stroke-width="1.6"/></svg>