<svg xmlns="http://www.w3.org/2000/svg" width="96" height="64" viewBox="0 0 96 64"><rect x="6" y="6" width="20.8" height="52" fill="none" stroke="#111" stroke-width="1.6"/><polyline points="6,11.2 21.6,11.2" fill="none" stroke="#111" stroke-width="1.6" stroke-linecap="round" stroke-linejoin="round"/><polyline points="6,21.6 21.6,21.6" fill="none" stroke="#111" stroke-width="1.6" stroke-linecap="round" stroke-linejoin="round"/><polyline points="6,37.2 21.6,37.2" fill="none" stroke="#111" stroke-width="1.6" stroke-linecap="round" stroke-linejoin="round"/><polyline points="6,47.6 21.6,47.6" fill="none" stroke="#111" stroke-width="1.6" stroke-linecap="round" stroke-linejoin="round"/><polyline points="13.8,11.2 16.4,12.5 16.4,9.9 13.8,11.2" fill="none" stroke="#111" stroke-width="1.6" stroke-linecap="round" stroke-linejoin="round"/><polyline points="13.8,21.6 16.4,22.9 16.4,20.3 13.8,21.6" fill="none" stroke="#111" stroke-width="1.6" stroke-linecap="round" stroke-linejoin="round"/><polyline points="13.8,37.2 16.4,38.5 16.4,35.9 13.8,37.2" fill="none" stroke="#111" stroke-width="1.6" stroke-linecap="round" stroke-linejoin="round"/><polyline points="13.8,47.6 16.4,48.9 16.4,46.3 13.8,47.6" fill="none" stroke="#111" stroke-width="1.6" stroke-linecap="round" stroke-linejoin="round"/><polyline points="21.6,11.2 21.6,58" fill="none" stroke="#111" stroke-width="1.6" stroke-linecap="round" stroke-linejoin="round"/><circle cx="21.6" cy="21.6" r="0.52" fill="none" stroke="#111" stroke-width="1.6"/><circle cx="21.6" cy="37.2" r="0.52" fill="none" stroke="#111" stroke-width="1.6"/><circle cx="21.6" cy="47.6" r="0.52" fill="none" stroke="#111" stroke-width="1.6"/><polyline points="13.28,12.5 13.8,11.98 13.8,10.42 14.32,9.9" fill="none" stroke="#111" stroke-width="1.6" stroke-linecap="round" stroke-linejoin="round"/><polyline points="13.28,22.9 13.8,22.38 13.8,20.82 14.32,20.3" fill="none" stroke="#111" stroke-width="1.6" stroke-linecap="round" stroke-linejoin="round"/><polyline points="13.28,38.5 13.8,37.98 13.8,36.42 14.32,35.9" fill="none" stroke="#111" stroke-width="1.6" stroke-linecap="round" stroke-linejoin="round"/><polyline points="13.28,48.9 13.8,48.38 13.8,46.82 14.32,46.3" fill="none" stroke="#111" stroke-width="1.6" stroke-linecap="round" stroke-linejoin="round"/><polyline points="13.8,11.2 11.2,12.5 11.2,9.9 13.8,11.2" fill="none" stroke="#111" stroke-width="1.6" stroke-linecap="round" stroke-linejoin="round"/><polyline points="13.8,21.6 11.2,22.9 11.2,20.3 13.8,21.6" fill="none" stroke="#111" stroke-width="1.6" stroke-linecap="round" stroke-linejoin="round"/><polyline points="13.8,37.2 11.2,38.5 11.2,35.9 13.8,37.2" fill="none" stroke="#111" stroke-width="1.6" stroke-linecap="round" stroke-linejoin="round"/><polyline points="13.8,47.6 11.2,48.9 11.2,46.3 13.8,47.6" fill="none" stroke="#111" stroke-width="1.6" stroke-linecap="round" stroke-linejoin="round"/></svg>