<svg xmlns="http://www.w3.org/2000/svg" width="96" height="64" viewBox="0 0 96 64"><rect x="6" y="6" width="0.89" height="51.73" fill="none" stroke="#111" stroke-width="1.6"/><rect x="6" y="6.4" width="0.45" height="0.09" fill="none" stroke="#111" stroke-width="1.6"/><rect x="6" y="7.29" width="0.45" height="0.09" fill="none" stroke="#111" stroke-width="1.6"/><rect x="6" y="8.19" width="0.45" height="0.08" fill="none" stroke="#111" stroke-width="1.6"/><rect x="6" y="9.08" width="0.45" height="0.09" fill="none" stroke="#111" stroke-width="1.6"/><rect x="6" y="9.97" width="0.45" height="0.09" fill="none" stroke="#111" stroke-width="1.6"/><rect x="6" y="10.86" width="0.45" height="0.09" fill="none" stroke="#111" stroke-width="1.6"/><rect x="6" y="11.75" width="0.45" height="0.09" fill="none" stroke="#111" stroke-width="1.6"/><rect x="6" y="12.64" width="0.45" height="0.09" fill="none" stroke="#111" stroke-width="1.6"/><rect x="6" y="13.54" width="0.45" height="0.09" fill="none" stroke="#111" stroke-width="1.6"/><rect x="6" y="14.43" width="0.45" height="0.09" fill="none" stroke="#111" stroke-width="1.6"/><rect x="6" y="15.32" width="0.45" height="0.09" fill="none" stroke="#111" stroke-width="1.6"/><rect x="6" y="16.21" width="0.45" height="0.09" fill="none" stroke="#111" stroke-width="1.6"/><rect x="6" y="17.1" width="0.45" height="0.09" fill="none" stroke="#111" stroke-width="1.6"/><rect x="6" y="18" width="0.45" height="0.09" fill="none" stroke="#111" stroke-width="1.6"/><rect x="6" y="18.89" width="0.45" height="0.09" fill="none" stroke="#111" stroke-width="1.6"/><rect x="6" y="19.78" width="0.45" height="0.09" fill="none" stroke="#111" stroke-width="1.6"/><rect x="6" y="20.67" width="0.45" height="0.09" fill="none" stroke="#111" stroke-width="1.6"/><rect x="6" y="21.56" width="0.45" height="0.09" fill="none" stroke="#111" stroke-width="1.6"/><rect x="6" y="22.46" width="0.45" height="0.09" fill="none" stroke="#111" stroke-width="1.6"/><rect x="6" y="23.35" width="0.45" height="0.09" fill="none" stroke="#111" stroke-width="1.6"/><rect x="6" y="24.24" width="0.45" height="0.09" fill="none" stroke="#111" stroke-width="1.6"/><rect x="6" y="25.13" width="0.45" height="0.09" fill="none" stroke="#111" stroke-width="1.6"/><rect x="6" y="26.02" width="0.45" height="0.09" fill="none" stroke="#111" stroke-width="1.6"/><rect x="6" y="26.92" width="0.45" height="0.09" fill="none" stroke="#111" stroke-width="1.6"/><rect x="6" y="27.81" width="0.45" height="0.09" fill="none" stroke="#111" stroke-width="1.6"/><rect x="6" y="28.7" width="0.45" height="0.09" fill="none" stroke="#111" stroke-width="1.6"/><rect x="6" y="29.59" width="0.45" height="0.09" fill="none" stroke="#111" stroke-width="1.6"/><rect x="6" y="30.48" width="0.45" height="0.09" fill="none" stroke="#111" stroke-width="1.6"/><rect x="6" y="31.38" width="0.45" height="0.08" fill="none" stroke="#111" stroke-width="1.6"/><rect x="6" y="32.27" width="0.45" height="0.09" fill="none" stroke="#111" stroke-width="1.6"/><rect x="6" y="33.16" width="0.45" height="0.09" fill="none" stroke="#111" stroke-width="1.6"/><rect x="6" y="34.05" width="0.45" height="0.09" fill="none" stroke="#111" stroke-width="1.6"/><rect x="6" y="34.94" width="0.45" height="0.09" fill="none" stroke="#111" stroke-width="1.6"/><rect x="6" y="35.84" width="0.45" height="0.08" fill="none" stroke="#111" stroke-width="1.6"/><rect x="6" y="36.73" width="0.45" height="0.09" fill="none" stroke="#111" stroke-width="1.6"/><rect x="6" y="37.62" width="0.45" height="0.09" fill="none" stroke="#111" stroke-width="1.6"/><rect x="6" y="38.51" width="0.45" height="0.09" fill="none" stroke="#111" stroke-width="1.6"/><rect x="6" y="39.4" width="0.45" height="0.09" fill="none" stroke="#111" stroke-width="1.6"/><rect x="6" y="40.3" width="0.45" height="0.08" fill="none" stroke="#111" stroke-width="1.6"/><rect x="6" y="41.19" width="0.45" height="0.09" fill="none" stroke="#111" stroke-width="1.6"/><rect x="6" y="42.08" width="0.45" height="0.09" fill="none" stroke="#111" stroke-width="1.6"/><rect x="6" y="42.97" width="0.45" height="0.09" fill="none" stroke="#111" stroke-width="1.6"/><rect x="6" y="43.86" width="0.45" height="0.09" fill="none" stroke="#111" stroke-width="1.6"/><rect x="6" y="44.75" width="0.45" height="0.09" fill="none" stroke="#111" stroke-width="1.6"/><rect x="6" y="45.65" width="0.45" height="0.09" fill="none" stroke="#111" stroke-width="1.6"/><rect x="6" y="46.54" width="0.45" height="0.09" fill="none" stroke="#111" stroke-width="1.6"/><rect x="6" y="47.43" width="0.45" height="0.09" fill="none" stroke="#111" stroke-width="1.6"/><rect x="6" y="48.32" width="0.45" height="0.09" fill="none" stroke="#111" stroke-width="1.6"/><rect x="6" y="49.21" width="0.45" height="0.09" fill="none" stroke="#111" stroke-width="1.6"/><rect x="6" y="50.11" width="0.45" height="0.09" fill="none" stroke="#111" stroke-width="1.6"/><rect x="6" y="51" width="0.45" height="0.09" fill="none" stroke="#111" stroke-width="1.6"/><rect x="6" y="51.89" width="0.45" height="0.09" fill="none" stroke="#111" stroke-width="1.6"/><rect x="6" y="52.78" width="0.45" height="0.09" fill="none" stroke="#111" stroke-width="1.6"/><rect x="6" y="53.67" width="0.45" height="0.09" fill="none" stroke="#111" stroke-width="1.6"/><rect x="6" y="54.57" width="0.45" height="0.09" fill="none" stroke="#111" stroke-width="1.6"/><rect x="6" y="55.46" width="0.45" height="0.09" fill="none" stroke="#111" stroke-width="1.6"/><rect x="6" y="56.35" width="0.45" height="0.09" fill="none" stroke="#111" stroke-width="1.6"/><rect x="6" y="57.24" width="0.45" height="0.09" fill="none" stroke="#111" stroke-width="1.6"/><polyline points="6.09,58 6.8,58" fill="none" stroke="#111" stroke-width="1.6" stroke-linecap="round" stroke-linejoin="round"/></svg>