<svg xmlns="http://www.w3.org/2000/svg" width="96" height="64" viewBox="0 0 96 64"><polyline points="14.56,29.55 12.73,29.55 13.65,31.39 14.56,29.55 14.56,29.55" fill="none" stroke="#111" stroke-width="1.6" stroke-linecap="round" stroke-linejoin="round"/><polyline points="6,10.59 10.59,10.59 10.59,16.71 6,16.71 6,16.71" fill="none" stroke="#111" stroke-width="1.6" stroke-linecap="round" stroke-linejoin="round"/><rect x="6" y="27.41" width="15.29" height="6.12" fill="none" stroke="#111" stroke-width="1.6"/><rect x="6" y="33.53" width="15.29" height="3.06" fill="none" stroke="#111" stroke-width="1.6"/><rect x="6" y="36.59" width="15.29" height="3.06" fill="none" stroke="#111" stroke-width="1.6"/><rect x="6" y="39.65" width="15.29" height="3.06" fill="none" stroke="#111" stroke-width="1.6"/><rect x="6" y="42.71" width="15.29" height="3.05" fill="none" stroke="#111" stroke-width="1.6"/><rect x="6" y="45.76" width="15.29" height="3.06" fill="none" stroke="#111" stroke-width="1.6"/><rect x="6" y="48.82" width="15.29" height="3.06" fill="none" stroke="#111" stroke-width="1.6"/><rect x="6" y="51.88" width="15.29" height="6.12" fill="none" stroke="#111" stroke-width="1.6"/><polyline points="7.53,27.41 7.53,25.88 6,25.88 6,6 21.29,6 21.29,25.88 19.76,25.88 19.76,27.41 19.76,27.41" fill="none" stroke="#111" stroke-width="1.6" stroke-linecap="round" stroke-linejoin="round"/></svg>