<svg xmlns="http://www.w3.org/2000/svg" width="96" height="64" viewBox="0 0 96 64"><rect x="6" y="6" width="2.89" height="52" fill="none" stroke="#111" stroke-width="1.6"/><rect x="6.29" y="6.29" width="2.31" height="51.42" fill="none" stroke="#111" stroke-width="1.6"/><rect x="6.29" y="7.3" width="1.44" height="0.29" fill="none" stroke="#111" stroke-width="1.6"/><rect x="6.29" y="10.19" width="1.44" height="0.29" fill="none" stroke="#111" stroke-width="1.6"/><rect x="6.29" y="13.08" width="1.44" height="0.29" fill="none" stroke="#111" stroke-width="1.6"/><rect x="6.29" y="15.97" width="1.44" height="0.29" fill="none" stroke="#111" stroke-width="1.6"/><rect x="6.29" y="18.86" width="1.44" height="0.28" fill="none" stroke="#111" stroke-width="1.6"/><rect x="6.29" y="21.74" width="1.44" height="0.29" fill="none" stroke="#111" stroke-width="1.6"/><rect x="6.29" y="24.63" width="1.44" height="0.29" fill="none" stroke="#111" stroke-width="1.6"/><rect x="6.29" y="27.52" width="1.44" height="0.29" fill="none" stroke="#111" stroke-width="1.6"/><rect x="6.29" y="30.41" width="1.44" height="0.29" fill="none" stroke="#111" stroke-width="1.6"/><rect x="6.29" y="33.3" width="1.44" height="0.29" fill="none" stroke="#111" stroke-width="1.6"/><rect x="6.29" y="36.19" width="1.44" height="0.29" fill="none" stroke="#111" stroke-width="1.6"/><rect x="6.29" y="39.08" width="1.44" height="0.29" fill="none" stroke="#111" stroke-width="1.6"/><rect x="6.29" y="41.97" width="1.44" height="0.29" fill="none" stroke="#111" stroke-width="1.6"/><rect x="6.29" y="44.86" width="1.44" height="0.28" fill="none" stroke="#111" stroke-width="1.6"/><rect x="6.29" y="47.74" width="1.44" height="0.29" fill="none" stroke="#111" stroke-width="1.6"/><rect x="6.29" y="50.63" width="1.44" height="0.29" fill="none" stroke="#111" stroke-width="1.6"/><rect x="6.29" y="53.52" width="1.44" height="0.29" fill="none" stroke="#111" stroke-width="1.6"/><rect x="6.29" y="56.41" width="1.44" height="0.29" fill="none" stroke="#111" stroke-width="1.6"/></svg>