<svg xmlns="http://www.w3.org/2000/svg" width="96" height="64" viewBox="0 0 96 64"><polyline points="6,6 10.03,8.35 10.03,55.99 6,58 6,6" fill="none" stroke="#111" stroke-width="1.6" stroke-linecap="round" stroke-linejoin="round"/><polyline points="6,8.01 6.67,8.01" fill="none" stroke="#111" stroke-width="1.6" stroke-linecap="round" stroke-linejoin="round"/><polyline points="6,9.35 8.28,9.35" fill="none" stroke="#111" stroke-width="1.6" stroke-linecap="round" stroke-linejoin="round"/><polyline points="6,10.7 6.67,10.7" fill="none" stroke="#111" stroke-width="1.6" stroke-linecap="round" stroke-linejoin="round"/><polyline points="6,12.04 8.28,12.04" fill="none" stroke="#111" stroke-width="1.6" stroke-linecap="round" stroke-linejoin="round"/><polyline points="6,13.38 6.67,13.38" fill="none" stroke="#111" stroke-width="1.6" stroke-linecap="round" stroke-linejoin="round"/><polyline points="6,14.72 8.28,14.72" fill="none" stroke="#111" stroke-width="1.6" stroke-linecap="round" stroke-linejoin="round"/><polyline points="6,16.06 6.67,16.06" fill="none" stroke="#111" stroke-width="1.6" stroke-linecap="round" stroke-linejoin="round"/><polyline points="6,17.41 8.28,17.41" fill="none" stroke="#111" stroke-width="1.6" stroke-linecap="round" stroke-linejoin="round"/><polyline points="6,18.75 6.67,18.75" fill="none" stroke="#111" stroke-width="1.6" stroke-linecap="round" stroke-linejoin="round"/><polyline points="6,20.09 8.28,20.09" fill="none" stroke="#111" stroke-width="1.6" stroke-linecap="round" stroke-linejoin="round"/><polyline points="6,21.43 6.67,21.43" fill="none" stroke="#111" stroke-width="1.6" stroke-linecap="round" stroke-linejoin="round"/><polyline points="6,22.77 8.28,22.77" fill="none" stroke="#111" stroke-width="1.6" stroke-linecap="round" stroke-linejoin="round"/><polyline points="6,24.12 6.67,24.12" fill="none" stroke="#111" stroke-width="1.6" stroke-linecap="round" stroke-linejoin="round"/><polyline points="6,25.46 8.28,25.46" fill="none" stroke="#111" stroke-width="1.6" stroke-linecap="round" stroke-linejoin="round"/><polyline points="6,26.8 6.67,26.8" fill="none" stroke="#111" stroke-width="1.6" stroke-linecap="round" stroke-linejoin="round"/><polyline points="6,28.14 8.28,28.14" fill="none" stroke="#111" stroke-width="1.6" stroke-linecap="round" stroke-linejoin="round"/><polyline points="6,29.48 6.67,29.48" fill="none" stroke="#111" stroke-width="1.6" stroke-linecap="round" stroke-linejoin="round"/><polyline points="6,30.83 8.28,30.83" fill="none" stroke="#111" stroke-width="1.6" stroke-linecap="round" stroke-linejoin="round"/><polyline points="6,32.17 6.67,32.17" fill="none" stroke="#111" stroke-width="1.6" stroke-linecap="round" stroke-linejoin="round"/><polyline points="6,33.51 8.28,33.51" fill="none" stroke="#111" stroke-width="1.6" stroke-linecap="round" stroke-linejoin="round"/><polyline points="6,34.85 6.67,34.85" fill="none" stroke="#111" stroke-width="1.6" stroke-linecap="round" stroke-linejoin="round"/><polyline points="6,36.19 8.28,36.19" fill="none" stroke="#111" stroke-width="1.6" stroke-linecap="round" stroke-linejoin="round"/><polyline points="6,37.54 6.67,37.54" fill="none" stroke="#111" stroke-width="1.6" stroke-linecap="round" stroke-linejoin="round"/><polyline points="6,38.88 8.28,38.88" fill="none" stroke="#111" stroke-width="1.6" stroke-linecap="round" stroke-linejoin="round"/><polyline points="6,40.22 6.67,40.22" fill="none" stroke="#111" stroke-width="1.6" stroke-linecap="round" stroke-linejoin="round"/><polyline points="6,41.56 8.28,41.56" fill="none" stroke="#111" stroke-width="1.6" stroke-linecap="round" stroke-linejoin="round"/><polyline points="6,42.9 6.67,42.9" fill="none" stroke="#111" stroke-width="1.6" stroke-linecap="round" stroke-linejoin="round"/><polyline points="6,44.25 8.28,44.25" fill="none" stroke="#111" stroke-width="1.6" stroke-linecap="round" stroke-linejoin="round"/><polyline points="6,45.59 6.67,45.59" fill="none" stroke="#111" stroke-width="1.6" stroke-linecap="round" stroke-linejoin="round"/><polyline points="6,46.93 8.28,46.93" fill="none" stroke="#111" stroke-width="1.6" stroke-linecap="round" stroke-linejoin="round"/><polyline points="6,48.27 6.67,48.27" fill="none" stroke="#111" stroke-width="1.6" stroke-linecap="round" stroke-linejoin="round"/><polyline points="6,49.61 8.28,49.61" fill="none" stroke="#111" stroke-width="1.6" stroke-linecap="round" stroke-linejoin="round"/><polyline points="6,50.95 6.67,50.95" fill="none" stroke="#111" stroke-width="1.6" stroke-linecap="round" stroke-linejoin="round"/><polyline points="6,52.3 8.28,52.3" fill="none" stroke="#111" stroke-width="1.6" stroke-linecap="round" stroke-linejoin="round"/><polyline points="6,53.64 6.67,53.64" fill="none" stroke="#111" stroke-width="1.6" stroke-linecap="round" stroke-linejoin="round"/><polyline points="6,54.98 8.28,54.98" fill="none" stroke="#111" stroke-width="1.6" stroke-linecap="round" stroke-linejoin="round"/><polyline points="6,56.32 6.67,56.32" fill="none" stroke="#111" stroke-width="1.6" stroke-linecap="round" stroke-linejoin="round"/><circle cx="7.07" cy="8.01" r="0.4" fill="none" stroke="#111" stroke-width="1.6"/><circle cx="7.07" cy="10.7" r="0.4" fill="none" stroke="#111" stroke-width="1.6"/><circle cx="7.07" cy="13.38" r="0.4" fill="none" stroke="#111" stroke-width="1.6"/><circle cx="7.07" cy="16.06" r="0.4" fill="none" stroke="#111" stroke-width="1.6"/><circle cx="7.07" cy="18.75" r="0.4" fill="none" stroke="#111" stroke-width="1.6"/><circle cx="7.07" cy="21.43" r="0.4" fill="none" stroke="#111" stroke-width="1.6"/><circle cx="7.07" cy="24.12" r="0.4" fill="none" stroke="#111" stroke-width="1.6"/><circle cx="7.07" cy="26.8" r="0.4" fill="none" stroke="#111" stroke-width="1.6"/><circle cx="7.07" cy="29.48" r="0.4" fill="none" stroke="#111" stroke-width="1.6"/><circle cx="7.07" cy="32.17" r="0.4" fill="none" stroke="#111" stroke-width="1.6"/><circle cx="7.07" cy="34.85" r="0.4" fill="none" stroke="#111" stroke-width="1.6"/><circle cx="7.07" cy="37.54" r="0.4" fill="none" stroke="#111" stroke-width="1.6"/><circle cx="7.07" cy="40.22" r="0.4" fill="none" stroke="#111" stroke-width="1.6"/><circle cx="7.07" cy="42.9" r="0.4" fill="none" stroke="#111" stroke-width="1.6"/><circle cx="7.07" cy="45.59" r="0.4" fill="none" stroke="#111" stroke-width="1.6"/><circle cx="7.07" cy="48.27" r="0.4" fill="none" stroke="#111" stroke-width="1.6"/><circle cx="7.07" cy="50.95" r="0.4" fill="none" stroke="#111" stroke-width="1.6"/><circle cx="7.07" cy="53.64" r="0.4" fill="none" stroke="#111" stroke-width="1.6"/><circle cx="7.07" cy="56.32" r="0.4" fill="none" stroke="#111" stroke-width="1.6"/><circle cx="8.68" cy="9.35" r="0.4" fill="none" stroke="#111" stroke-width="1.6"/><circle cx="8.68" cy="12.04" r="0.4" fill="none" stroke="#111" stroke-width="1.6"/><circle cx="8.68" cy="14.72" r="0.4" fill="none" stroke="#111" stroke-width="1.6"/><circle cx="8.68" cy="17.41" r="0.4" fill="none" stroke="#111" stroke-width="1.6"/><circle cx="8.68" cy="20.09" r="0.4" fill="none" stroke="#111" stroke-width="1.6"/><circle cx="8.68" cy="22.77" r="0.4" fill="none" stroke="#111" stroke-width="1.6"/><circle cx="8.68" cy="25.46" r="0.4" fill="none" stroke="#111" stroke-width="1.6"/><circle cx="8.68" cy="28.14" r="0.4" fill="none" stroke="#111" stroke-width="1.6"/><circle cx="8.68" cy="30.83" r="0.4" fill="none" stroke="#111" stroke-width="1.6"/><circle cx="8.68" cy="33.51" r="0.4" fill="none" stroke="#111" stroke-width="1.6"/><circle cx="8.68" cy="36.19" r="0.4" fill="none" stroke="#111" stroke-width="1.6"/><circle cx="8.68" cy="38.88" r="0.4" fill="none" stroke="#111" stroke-width="1.6"/><circle cx="8.68" cy="41.56" r="0.4" fill="none" stroke="#111" stroke-width="1.6"/><circle cx="8.68" cy="44.25" r="0.4" fill="none" stroke="#111" stroke-width="1.6"/><circle cx="8.68" cy="46.93" r="0.4" fill="none" stroke="#111" stroke-width="1.6"/><circle cx="8.68" cy="49.61" r="0.4" fill="none" stroke="#111" stroke-width="1.6"/><circle cx="8.68" cy="52.3" r="0.4" fill="none" stroke="#111" stroke-width="1.6"/><circle cx="8.68" cy="54.98" r="0.4" fill="none" stroke="#111" stroke-width="1.6"/></svg>