<svg xmlns="http://www.w3.org/2000/svg" width="96" height="64" viewBox="0 0 96 64"><circle cx="9.31" cy="10.73" r="0.95" fill="none" stroke="#111" stroke-width="1.6"/><circle cx="9.31" cy="15.45" r="0.95" fill="none" stroke="#111" stroke-width="1.6"/><circle cx="9.31" cy="20.18" r="0.95" fill="none" stroke="#111" stroke-width="1.6"/><circle cx="9.31" cy="24.91" r="0.95" fill="none" stroke="#111" stroke-width="1.6"/><circle cx="9.31" cy="29.64" r="0.95" fill="none" stroke="#111" stroke-width="1.6"/><circle cx="9.31" cy="34.36" r="0.95" fill="none" stroke="#111" stroke-width="1.6"/><circle cx="9.31" cy="39.09" r="0.95" fill="none" stroke="#111" stroke-width="1.6"/><circle cx="9.31" cy="43.82" r="0.95" fill="none" stroke="#111" stroke-width="1.6"/><circle cx="9.31" cy="48.55" r="0.95" fill="none" stroke="#111" stroke-width="1.6"/><circle cx="9.31" cy="53.27" r="0.95" fill="none" stroke="#111" stroke-width="1.6"/><polyline points="10.25,10.49 17.49,8.55" fill="none" stroke="#111" stroke-width="1.6" stroke-linecap="round" stroke-linejoin="round"/><polyline points="10.25,15.22 17.49,13.28" fill="none" stroke="#111" stroke-width="1.6" stroke-linecap="round" stroke-linejoin="round"/><polyline points="10.25,19.95 17.49,18.01" fill="none" stroke="#111" stroke-width="1.6" stroke-linecap="round" stroke-linejoin="round"/><polyline points="10.25,24.67 17.49,22.73" fill="none" stroke="#111" stroke-width="1.6" stroke-linecap="round" stroke-linejoin="round"/><polyline points="10.25,29.4 17.49,27.46" fill="none" stroke="#111" stroke-width="1.6" stroke-linecap="round" stroke-linejoin="round"/><polyline points="10.25,34.13 17.49,32.19" fill="none" stroke="#111" stroke-width="1.6" stroke-linecap="round" stroke-linejoin="round"/><polyline points="10.25,38.81 17.49,36.87" fill="none" stroke="#111" stroke-width="1.6" stroke-linecap="round" stroke-linejoin="round"/><polyline points="10.25,43.53 17.49,41.6" fill="none" stroke="#111" stroke-width="1.6" stroke-linecap="round" stroke-linejoin="round"/><polyline points="10.25,48.26 17.49,46.32" fill="none" stroke="#111" stroke-width="1.6" stroke-linecap="round" stroke-linejoin="round"/><polyline points="10.25,52.99 17.49,51.05" fill="none" stroke="#111" stroke-width="1.6" stroke-linecap="round" stroke-linejoin="round"/><circle cx="16.87" cy="10.73" r="0.95" fill="none" stroke="#111" stroke-width="1.6"/><circle cx="16.87" cy="15.45" r="0.95" fill="none" stroke="#111" stroke-width="1.6"/><circle cx="16.87" cy="20.18" r="0.95" fill="none" stroke="#111" stroke-width="1.6"/><circle cx="16.87" cy="24.91" r="0.95" fill="none" stroke="#111" stroke-width="1.6"/><circle cx="16.87" cy="29.64" r="0.95" fill="none" stroke="#111" stroke-width="1.6"/><circle cx="16.87" cy="34.36" r="0.95" fill="none" stroke="#111" stroke-width="1.6"/><circle cx="16.87" cy="39.09" r="0.95" fill="none" stroke="#111" stroke-width="1.6"/><circle cx="16.87" cy="43.82" r="0.95" fill="none" stroke="#111" stroke-width="1.6"/><circle cx="16.87" cy="48.55" r="0.95" fill="none" stroke="#111" stroke-width="1.6"/><circle cx="16.87" cy="53.27" r="0.95" fill="none" stroke="#111" stroke-width="1.6"/><rect x="6" y="6" width="14.18" height="52" fill="none" stroke="#111" stroke-width="1.6"/></svg>