<svg xmlns="http://www.w3.org/2000/svg" width="96" height="64" viewBox="0 0 96 64"><rect x="6" y="39.09" width="4.73" height="9.46" fill="none" stroke="#111" stroke-width="1.6"/><polyline points="22.55,39.09 24.91,41.45 27.27,39.09 27.27,20.18 39.09,20.18" fill="none" stroke="#111" stroke-width="1.6" stroke-linecap="round" stroke-linejoin="round"/><polyline points="29.64,39.09 32,41.45 34.36,39.09 39.09,39.09" fill="none" stroke="#111" stroke-width="1.6" stroke-linecap="round" stroke-linejoin="round"/><polyline points="31.53,21.13 32.47,23.02" fill="none" stroke="#111" stroke-width="1.6" stroke-linecap="round" stroke-linejoin="round"/><polyline points="36.25,40.04 37.2,41.93" fill="none" stroke="#111" stroke-width="1.6" stroke-linecap="round" stroke-linejoin="round"/><rect x="10.73" y="6" width="28.36" height="52" fill="none" stroke="#111" stroke-width="1.6"/><polyline points="39.09,10.73 20.18,10.73 20.18,39.09 17.82,41.45 15.45,39.09" fill="none" stroke="#111" stroke-width="1.6" stroke-linecap="round" stroke-linejoin="round"/><polyline points="39.09,29.64 31.53,29.64 31.53,21.13 30.58,23.02" fill="none" stroke="#111" stroke-width="1.6" stroke-linecap="round" stroke-linejoin="round"/><polyline points="39.09,48.55 36.25,48.55 36.25,40.04 35.31,41.93" fill="none" stroke="#111" stroke-width="1.6" stroke-linecap="round" stroke-linejoin="round"/></svg>