<svg xmlns="http://www.w3.org/2000/svg" width="96" height="64" viewBox="0 0 96 64"><rect x="6" y="6" width="2.6" height="52" fill="none" stroke="#111" stroke-width="1.6"/><polyline points="6.75,6.96 7.64,7.82" fill="none" stroke="#111" stroke-width="1.6" stroke-linecap="round" stroke-linejoin="round"/><polyline points="6.75,9.56 7.64,10.42" fill="none" stroke="#111" stroke-width="1.6" stroke-linecap="round" stroke-linejoin="round"/><polyline points="6.75,12.16 7.64,13.02" fill="none" stroke="#111" stroke-width="1.6" stroke-linecap="round" stroke-linejoin="round"/><polyline points="6.75,14.76 7.64,15.62" fill="none" stroke="#111" stroke-width="1.6" stroke-linecap="round" stroke-linejoin="round"/><polyline points="6.75,17.36 7.64,18.22" fill="none" stroke="#111" stroke-width="1.6" stroke-linecap="round" stroke-linejoin="round"/><polyline points="6.75,19.96 7.64,20.82" fill="none" stroke="#111" stroke-width="1.6" stroke-linecap="round" stroke-linejoin="round"/><polyline points="6.75,22.56 7.64,23.42" fill="none" stroke="#111" stroke-width="1.6" stroke-linecap="round" stroke-linejoin="round"/><polyline points="6.75,25.16 7.64,26.02" fill="none" stroke="#111" stroke-width="1.6" stroke-linecap="round" stroke-linejoin="round"/><polyline points="6.75,27.76 7.64,28.62" fill="none" stroke="#111" stroke-width="1.6" stroke-linecap="round" stroke-linejoin="round"/><polyline points="6.75,30.36 7.64,31.22" fill="none" stroke="#111" stroke-width="1.6" stroke-linecap="round" stroke-linejoin="round"/><polyline points="6.75,32.96 7.64,33.82" fill="none" stroke="#111" stroke-width="1.6" stroke-linecap="round" stroke-linejoin="round"/><polyline points="6.75,35.56 7.64,36.42" fill="none" stroke="#111" stroke-width="1.6" stroke-linecap="round" stroke-linejoin="round"/><polyline points="6.75,38.16 7.64,39.02" fill="none" stroke="#111" stroke-width="1.6" stroke-linecap="round" stroke-linejoin="round"/><polyline points="6.75,40.76 7.64,41.62" fill="none" stroke="#111" stroke-width="1.6" stroke-linecap="round" stroke-linejoin="round"/><polyline points="6.75,43.36 7.64,44.22" fill="none" stroke="#111" stroke-width="1.6" stroke-linecap="round" stroke-linejoin="round"/><polyline points="6.75,45.96 7.64,46.82" fill="none" stroke="#111" stroke-width="1.6" stroke-linecap="round" stroke-linejoin="round"/><polyline points="6.75,48.56 7.64,49.42" fill="none" stroke="#111" stroke-width="1.6" stroke-linecap="round" stroke-linejoin="round"/><polyline points="6.75,51.16 7.64,52.02" fill="none" stroke="#111" stroke-width="1.6" stroke-linecap="round" stroke-linejoin="round"/><polyline points="6.75,53.76 7.64,54.62" fill="none" stroke="#111" stroke-width="1.6" stroke-linecap="round" stroke-linejoin="round"/><polyline points="6.75,56.36 7.64,57.22" fill="none" stroke="#111" stroke-width="1.6" stroke-linecap="round" stroke-linejoin="round"/><polyline points="6.94,6.78 7.82,7.64" fill="none" stroke="#111" stroke-width="1.6" stroke-linecap="round" stroke-linejoin="round"/><polyline points="6.94,9.38 7.82,10.24" fill="none" stroke="#111" stroke-width="1.6" stroke-linecap="round" stroke-linejoin="round"/><polyline points="6.94,11.98 7.82,12.84" fill="none" stroke="#111" stroke-width="1.6" stroke-linecap="round" stroke-linejoin="round"/><polyline points="6.94,14.58 7.82,15.44" fill="none" stroke="#111" stroke-width="1.6" stroke-linecap="round" stroke-linejoin="round"/><polyline points="6.94,17.18 7.82,18.04" fill="none" stroke="#111" stroke-width="1.6" stroke-linecap="round" stroke-linejoin="round"/><polyline points="6.94,19.78 7.82,20.64" fill="none" stroke="#111" stroke-width="1.6" stroke-linecap="round" stroke-linejoin="round"/><polyline points="6.94,22.38 7.82,23.24" fill="none" stroke="#111" stroke-width="1.6" stroke-linecap="round" stroke-linejoin="round"/><polyline points="6.94,24.98 7.82,25.84" fill="none" stroke="#111" stroke-width="1.6" stroke-linecap="round" stroke-linejoin="round"/><polyline points="6.94,27.58 7.82,28.44" fill="none" stroke="#111" stroke-width="1.6" stroke-linecap="round" stroke-linejoin="round"/><polyline points="6.94,30.18 7.82,31.04" fill="none" stroke="#111" stroke-width="1.6" stroke-linecap="round" stroke-linejoin="round"/><polyline points="6.94,32.78 7.82,33.64" fill="none" stroke="#111" stroke-width="1.6" stroke-linecap="round" stroke-linejoin="round"/><polyline points="6.94,35.38 7.82,36.24" fill="none" stroke="#111" stroke-width="1.6" stroke-linecap="round" stroke-linejoin="round"/><polyline points="6.94,37.98 7.82,38.84" fill="none" stroke="#111" stroke-width="1.6" stroke-linecap="round" stroke-linejoin="round"/><polyline points="6.94,40.58 7.82,41.44" fill="none" stroke="#111" stroke-width="1.6" stroke-linecap="round" stroke-linejoin="round"/><polyline points="6.94,43.18 7.82,44.04" fill="none" stroke="#111" stroke-width="1.6" stroke-linecap="round" stroke-linejoin="round"/><polyline points="6.94,45.78 7.82,46.64" fill="none" stroke="#111" stroke-width="1.6" stroke-linecap="round" stroke-linejoin="round"/><polyline points="6.94,48.38 7.82,49.24" fill="none" stroke="#111" stroke-width="1.6" stroke-linecap="round" stroke-linejoin="round"/><polyline points="6.94,50.98 7.82,51.84" fill="none" stroke="#111" stroke-width="1.6" stroke-linecap="round" stroke-linejoin="round"/><polyline points="6.94,53.58 7.82,54.44" fill="none" stroke="#111" stroke-width="1.6" stroke-linecap="round" stroke-linejoin="round"/><polyline points="6.94,56.18 7.82,57.04" fill="none" stroke="#111" stroke-width="1.6" stroke-linecap="round" stroke-linejoin="round"/><circle cx="7.3" cy="7.3" r="0.65" fill="none" stroke="#111" stroke-width="1.6"/><circle cx="7.3" cy="9.9" r="0.65" fill="none" stroke="#111" stroke-width="1.6"/><circle cx="7.3" cy="12.5" r="0.65" fill="none" stroke="#111" stroke-width="1.6"/><circle cx="7.3" cy="15.1" r="0.65" fill="none" stroke="#111" stroke-width="1.6"/><circle cx="7.3" cy="17.7" r="0.65" fill="none" stroke="#111" stroke-width="1.6"/><circle cx="7.3" cy="20.3" r="0.65" fill="none" stroke="#111" stroke-width="1.6"/><circle cx="7.3" cy="22.9" r="0.65" fill="none" stroke="#111" stroke-width="1.6"/><circle cx="7.3" cy="25.5" r="0.65" fill="none" stroke="#111" stroke-width="1.6"/><circle cx="7.3" cy="28.1" r="0.65" fill="none" stroke="#111" stroke-width="1.6"/><circle cx="7.3" cy="30.7" r="0.65" fill="none" stroke="#111" stroke-width="1.6"/><circle cx="7.3" cy="33.3" r="0.65" fill="none" stroke="#111" stroke-width="1.6"/><circle cx="7.3" cy="35.9" r="0.65" fill="none" stroke="#111" stroke-width="1.6"/><circle cx="7.3" cy="38.5" r="0.65" fill="none" stroke="#111" stroke-width="1.6"/><circle cx="7.3" cy="41.1" r="0.65" fill="none" stroke="#111" stroke-width="1.6"/><circle cx="7.3" cy="43.7" r="0.65" fill="none" stroke="#111" stroke-width="1.6"/><circle cx="7.3" cy="46.3" r="0.65" fill="none" stroke="#111" stroke-width="1.6"/><circle cx="7.3" cy="48.9" r="0.65" fill="none" stroke="#111" stroke-width="1.6"/><circle cx="7.3" cy="51.5" r="0.65" fill="none" stroke="#111" stroke-width="1.6"/><circle cx="7.3" cy="54.1" r="0.65" fill="none" stroke="#111" stroke-width="1.6"/><circle cx="7.3" cy="56.7" r="0.65" fill="none" stroke="#111" stroke-width="1.6"/></svg>