<svg xmlns="http://www.w3.org/2000/svg" width="96" height="64" viewBox="0 0 96 64"><rect x="6" y="6" width="12.53" height="50.12" fill="none" stroke="#111" stroke-width="1.6"/><rect x="6" y="8.82" width="3.13" height="0.63" fill="none" stroke="#111" stroke-width="1.6"/><rect x="6" y="15.08" width="3.13" height="0.63" fill="none" stroke="#111" stroke-width="1.6"/><rect x="6" y="21.35" width="3.13" height="0.63" fill="none" stroke="#111" stroke-width="1.6"/><rect x="6" y="27.61" width="3.13" height="0.63" fill="none" stroke="#111" stroke-width="1.6"/><rect x="6" y="33.88" width="3.13" height="0.63" fill="none" stroke="#111" stroke-width="1.6"/><rect x="6" y="40.14" width="3.13" height="0.63" fill="none" stroke="#111" stroke-width="1.6"/><rect x="6" y="46.41" width="3.13" height="0.63" fill="none" stroke="#111" stroke-width="1.6"/><rect x="6" y="52.67" width="3.13" height="0.63" fill="none" stroke="#111" stroke-width="1.6"/><polyline points="9.76,58 14.77,58" fill="none" stroke="#111" stroke-width="1.6" stroke-linecap="round" stroke-linejoin="round"/><rect x="15.4" y="8.82" width="3.13" height="0.63" fill="none" stroke="#111" stroke-width="1.6"/><rect x="15.4" y="15.08" width="3.13" height="0.63" fill="none" stroke="#111" stroke-width="1.6"/><rect x="15.4" y="21.35" width="3.13" height="0.63" fill="none" stroke="#111" stroke-width="1.6"/><rect x="15.4" y="27.61" width="3.13" height="0.63" fill="none" stroke="#111" stroke-width="1.6"/><rect x="15.4" y="33.88" width="3.13" height="0.63" fill="none" stroke="#111" stroke-width="1.6"/><rect x="15.4" y="40.14" width="3.13" height="0.63" fill="none" stroke="#111" stroke-width="1.6"/><rect x="15.4" y="46.41" width="3.13" height="0.63" fill="none" stroke="#111" stroke-width="1.6"/><rect x="15.4" y="52.67" width="3.13" height="0.63" fill="none" stroke="#111" stroke-width="1.6"/></svg>