<svg xmlns="http://www.w3.org/2000/svg" width="96" height="64" viewBox="0 0 96 64"><rect x="6" y="6" width="84" height="42" fill="none" stroke="#111" stroke-width="1.6"/><circle cx="14.4" cy="11.88" r="1.68" fill="none" stroke="#111" stroke-width="1.6"/><polyline points="14.4,11.88 81.6,11.88" fill="none" stroke="#111" stroke-width="1.6" stroke-linecap="round" stroke-linejoin="round"/><polyline points="14.4,11.88 14.4,16.92 19.44,19.27 9.36,23.64 19.44,28.01 9.36,32.54 19.44,37.08 9.36,41.45 14.4,43.8 14.4,52.2" fill="none" stroke="#111" stroke-width="1.6" stroke-linecap="round" stroke-linejoin="round"/><circle cx="31.2" cy="11.88" r="1.68" fill="none" stroke="#111" stroke-width="1.6"/><polyline points="31.2,11.88 31.2,16.92 36.24,19.27 26.16,23.64 36.24,28.01 26.16,32.54 36.24,37.08 26.16,41.45 31.2,43.8 31.2,52.2" fill="none" stroke="#111" stroke-width="1.6" stroke-linecap="round" stroke-linejoin="round"/><circle cx="48" cy="11.88" r="1.68" fill="none" stroke="#111" stroke-width="1.6"/><polyline points="48,11.88 48,16.92 53.04,19.27 42.96,23.64 53.04,28.01 42.96,32.54 53.04,37.08 42.96,41.45 48,43.8 48,52.2" fill="none" stroke="#111" stroke-width="1.6" stroke-linecap="round" stroke-linejoin="round"/><polyline points="64.8,11.88 64.8,16.92 69.84,19.27 59.76,23.64 69.84,28.01 59.76,32.54 69.84,37.08 59.76,41.45 64.8,43.8 64.8,52.2" fill="none" stroke="#111" stroke-width="1.6" stroke-linecap="round" stroke-linejoin="round"/><circle cx="64.8" cy="11.88" r="1.68" fill="none" stroke="#111" stroke-width="1.6"/><polyline points="81.6,11.88 81.6,16.92 86.64,19.27 76.56,23.64 86.64,28.01 76.56,32.54 86.64,37.08 76.56,41.45 81.6,43.8 81.6,52.2" fill="none" stroke="#111" stroke-width="1.6" stroke-linecap="round" stroke-linejoin="round"/></svg>