<svg xmlns="http://www.w3.org/2000/svg" width="96" height="64" viewBox="0 0 96 64"><polyline points="24.09,51.22 24.09,21.83" fill="none" stroke="#111" stroke-width="1.6" stroke-linecap="round" stroke-linejoin="round"/><polyline points="33.13,30.87 33.13,55.74" fill="none" stroke="#111" stroke-width="1.6" stroke-linecap="round" stroke-linejoin="round"/><rect x="6" y="6" width="54.26" height="49.74" fill="none" stroke="#111" stroke-width="1.6"/><polyline points="6,12.78 6,12.78" fill="none" stroke="#111" stroke-width="1.6" stroke-linecap="round" stroke-linejoin="round"/><polyline points="6,21.83 15.04,21.83" fill="none" stroke="#111" stroke-width="1.6" stroke-linecap="round" stroke-linejoin="round"/><polyline points="6,30.87 37.65,30.87" fill="none" stroke="#111" stroke-width="1.6" stroke-linecap="round" stroke-linejoin="round"/><polyline points="6,39.91 44.43,39.91" fill="none" stroke="#111" stroke-width="1.6" stroke-linecap="round" stroke-linejoin="round"/><circle cx="15.04" cy="12.78" r="0.99" fill="none" stroke="#111" stroke-width="1.6"/><polyline points="15.04,12.78 15.04,51.22 42.17,51.22 42.17,39.91" fill="none" stroke="#111" stroke-width="1.6" stroke-linecap="round" stroke-linejoin="round"/><polyline points="17.3,44.43 12.78,44.43" fill="none" stroke="#111" stroke-width="1.6" stroke-linecap="round" stroke-linejoin="round"/><polyline points="17.3,48.96 12.78,48.96 15.04,44.43 17.3,48.96" fill="none" stroke="#111" stroke-width="1.6" stroke-linecap="round" stroke-linejoin="round"/><circle cx="24.09" cy="21.83" r="0.99" fill="none" stroke="#111" stroke-width="1.6"/><circle cx="24.09" cy="51.22" r="0.99" fill="none" stroke="#111" stroke-width="1.6"/><polyline points="26.35,44.43 21.83,44.43" fill="none" stroke="#111" stroke-width="1.6" stroke-linecap="round" stroke-linejoin="round"/><polyline points="26.35,48.96 21.83,48.96 24.09,44.43 26.35,48.96" fill="none" stroke="#111" stroke-width="1.6" stroke-linecap="round" stroke-linejoin="round"/><circle cx="33.13" cy="30.87" r="0.99" fill="none" stroke="#111" stroke-width="1.6"/><circle cx="33.13" cy="51.22" r="0.99" fill="none" stroke="#111" stroke-width="1.6"/><polyline points="33.13,55.74 33.13,58" fill="none" stroke="#111" stroke-width="1.6" stroke-linecap="round" stroke-linejoin="round"/><polyline points="35.39,44.43 30.87,44.43" fill="none" stroke="#111" stroke-width="1.6" stroke-linecap="round" stroke-linejoin="round"/><polyline points="35.39,48.96 30.87,48.96 33.13,44.43 35.39,48.96" fill="none" stroke="#111" stroke-width="1.6" stroke-linecap="round" stroke-linejoin="round"/><circle cx="42.17" cy="39.91" r="0.99" fill="none" stroke="#111" stroke-width="1.6"/><rect x="44.43" y="10.52" width="11.31" height="4.52" fill="none" stroke="#111" stroke-width="1.6"/><polyline points="44.43,12.78 6,12.78" fill="none" stroke="#111" stroke-width="1.6" stroke-linecap="round" stroke-linejoin="round"/><rect x="44.43" y="19.57" width="11.31" height="4.52" fill="none" stroke="#111" stroke-width="1.6"/><polyline points="44.43,21.83 33.13,21.83 33.13,21.83 19.57,21.83 19.57,21.83 15.04,21.83" fill="none" stroke="#111" stroke-width="1.6" stroke-linecap="round" stroke-linejoin="round"/><rect x="44.43" y="28.61" width="11.31" height="4.52" fill="none" stroke="#111" stroke-width="1.6"/><polyline points="44.43,30.87 37.65,30.87" fill="none" stroke="#111" stroke-width="1.6" stroke-linecap="round" stroke-linejoin="round"/><rect x="44.43" y="37.65" width="11.31" height="4.52" fill="none" stroke="#111" stroke-width="1.6"/><polyline points="44.43,44.43 39.91,44.43" fill="none" stroke="#111" stroke-width="1.6" stroke-linecap="round" stroke-linejoin="round"/><polyline points="44.43,48.96 39.91,48.96 42.17,44.43 44.43,48.96" fill="none" stroke="#111" stroke-width="1.6" stroke-linecap="round" stroke-linejoin="round"/><polyline points="60.26,12.78 55.74,12.78" fill="none" stroke="#111" stroke-width="1.6" stroke-linecap="round" stroke-linejoin="round"/><polyline points="60.26,21.83 55.74,21.83" fill="none" stroke="#111" stroke-width="1.6" stroke-linecap="round" stroke-linejoin="round"/><polyline points="60.26,30.87 55.74,30.87" fill="none" stroke="#111" stroke-width="1.6" stroke-linecap="round" stroke-linejoin="round"/><polyline points="60.26,39.91 55.74,39.91" fill="none" stroke="#111" stroke-width="1.6" stroke-linecap="round" stroke-linejoin="round"/></svg>