<svg xmlns="http://www.w3.org/2000/svg" width="96" height="64" viewBox="0 0 96 64"><circle cx="8.48" cy="9.71" r="0.62" fill="none" stroke="#111" stroke-width="1.6"/><path d="M 10.95 9.71 Q 14.65 13.43 10.95 17.14" fill="none" stroke="#111" stroke-width="1.6" stroke-linecap="round"/><path d="M 10.95 17.14 Q 14.65 20.86 10.95 24.57" fill="none" stroke="#111" stroke-width="1.6" stroke-linecap="round"/><path d="M 10.95 24.57 Q 14.65 28.29 10.95 32" fill="none" stroke="#111" stroke-width="1.6" stroke-linecap="round"/><path d="M 10.95 32 Q 14.65 35.71 10.95 39.43" fill="none" stroke="#111" stroke-width="1.6" stroke-linecap="round"/><path d="M 10.95 39.43 Q 14.65 43.14 10.95 46.86" fill="none" stroke="#111" stroke-width="1.6" stroke-linecap="round"/><path d="M 10.95 46.86 Q 14.65 50.57 10.95 54.29" fill="none" stroke="#111" stroke-width="1.6" stroke-linecap="round"/><polyline points="10.95,9.71 10.95,7.24 6,7.24" fill="none" stroke="#111" stroke-width="1.6" stroke-linecap="round" stroke-linejoin="round"/><polyline points="10.95,54.29 10.95,56.76 6,56.76" fill="none" stroke="#111" stroke-width="1.6" stroke-linecap="round" stroke-linejoin="round"/><rect x="17.14" y="6" width="2.48" height="52" fill="none" stroke="#111" stroke-width="1.6"/><polyline points="25.81,17.14 25.81,7.24 30.76,7.24" fill="none" stroke="#111" stroke-width="1.6" stroke-linecap="round" stroke-linejoin="round"/><path d="M 25.81 24.57 Q 22.11 20.86 25.81 17.14" fill="none" stroke="#111" stroke-width="1.6" stroke-linecap="round"/><path d="M 25.81 32 Q 22.11 28.29 25.81 24.57" fill="none" stroke="#111" stroke-width="1.6" stroke-linecap="round"/><path d="M 25.81 39.43 Q 22.11 35.71 25.81 32" fill="none" stroke="#111" stroke-width="1.6" stroke-linecap="round"/><path d="M 25.81 46.86 Q 22.11 43.14 25.81 39.43" fill="none" stroke="#111" stroke-width="1.6" stroke-linecap="round"/><circle cx="28.29" cy="14.67" r="0.62" fill="none" stroke="#111" stroke-width="1.6"/><polyline points="30.76,56.76 25.81,56.76 25.81,46.86" fill="none" stroke="#111" stroke-width="1.6" stroke-linecap="round" stroke-linejoin="round"/></svg>