<svg xmlns="http://www.w3.org/2000/svg" width="96" height="64" viewBox="0 0 96 64"><rect x="6" y="6" width="4.88" height="51.27" fill="none" stroke="#111" stroke-width="1.6"/><rect x="6" y="7.1" width="1.22" height="0.24" fill="none" stroke="#111" stroke-width="1.6"/><rect x="6" y="9.54" width="1.22" height="0.24" fill="none" stroke="#111" stroke-width="1.6"/><rect x="6" y="11.98" width="1.22" height="0.25" fill="none" stroke="#111" stroke-width="1.6"/><rect x="6" y="14.42" width="1.22" height="0.25" fill="none" stroke="#111" stroke-width="1.6"/><rect x="6" y="16.86" width="1.22" height="0.25" fill="none" stroke="#111" stroke-width="1.6"/><rect x="6" y="19.31" width="1.22" height="0.24" fill="none" stroke="#111" stroke-width="1.6"/><rect x="6" y="21.75" width="1.22" height="0.24" fill="none" stroke="#111" stroke-width="1.6"/><rect x="6" y="24.19" width="1.22" height="0.24" fill="none" stroke="#111" stroke-width="1.6"/><rect x="6" y="26.63" width="1.22" height="0.24" fill="none" stroke="#111" stroke-width="1.6"/><rect x="6" y="29.07" width="1.22" height="0.24" fill="none" stroke="#111" stroke-width="1.6"/><rect x="6" y="31.51" width="1.22" height="0.25" fill="none" stroke="#111" stroke-width="1.6"/><rect x="6" y="33.95" width="1.22" height="0.25" fill="none" stroke="#111" stroke-width="1.6"/><rect x="6" y="36.39" width="1.22" height="0.25" fill="none" stroke="#111" stroke-width="1.6"/><rect x="6" y="38.84" width="1.22" height="0.24" fill="none" stroke="#111" stroke-width="1.6"/><rect x="6" y="41.28" width="1.22" height="0.24" fill="none" stroke="#111" stroke-width="1.6"/><rect x="6" y="43.72" width="1.22" height="0.24" fill="none" stroke="#111" stroke-width="1.6"/><rect x="6" y="46.16" width="1.22" height="0.24" fill="none" stroke="#111" stroke-width="1.6"/><rect x="6" y="48.6" width="1.22" height="0.25" fill="none" stroke="#111" stroke-width="1.6"/><rect x="6" y="51.04" width="1.22" height="0.25" fill="none" stroke="#111" stroke-width="1.6"/><rect x="6" y="53.48" width="1.22" height="0.25" fill="none" stroke="#111" stroke-width="1.6"/><rect x="6" y="55.92" width="1.22" height="0.25" fill="none" stroke="#111" stroke-width="1.6"/><polyline points="7.46,58 9.42,58" fill="none" stroke="#111" stroke-width="1.6" stroke-linecap="round" stroke-linejoin="round"/><rect x="9.66" y="7.1" width="1.22" height="0.24" fill="none" stroke="#111" stroke-width="1.6"/><rect x="9.66" y="9.54" width="1.22" height="0.24" fill="none" stroke="#111" stroke-width="1.6"/><rect x="9.66" y="11.98" width="1.22" height="0.25" fill="none" stroke="#111" stroke-width="1.6"/><rect x="9.66" y="14.42" width="1.22" height="0.25" fill="none" stroke="#111" stroke-width="1.6"/><rect x="9.66" y="16.86" width="1.22" height="0.25" fill="none" stroke="#111" stroke-width="1.6"/><rect x="9.66" y="19.31" width="1.22" height="0.24" fill="none" stroke="#111" stroke-width="1.6"/><rect x="9.66" y="21.75" width="1.22" height="0.24" fill="none" stroke="#111" stroke-width="1.6"/><rect x="9.66" y="24.19" width="1.22" height="0.24" fill="none" stroke="#111" stroke-width="1.6"/><rect x="9.66" y="26.63" width="1.22" height="0.24" fill="none" stroke="#111" stroke-width="1.6"/><rect x="9.66" y="29.07" width="1.22" height="0.24" fill="none" stroke="#111" stroke-width="1.6"/><rect x="9.66" y="31.51" width="1.22" height="0.25" fill="none" stroke="#111" stroke-width="1.6"/><rect x="9.66" y="33.95" width="1.22" height="0.25" fill="none" stroke="#111" stroke-width="1.6"/><rect x="9.66" y="36.39" width="1.22" height="0.25" fill="none" stroke="#111" stroke-width="1.6"/><rect x="9.66" y="38.84" width="1.22" height="0.24" fill="none" stroke="#111" stroke-width="1.6"/><rect x="9.66" y="41.28" width="1.22" height="0.24" fill="none" stroke="#111" stroke-width="1.6"/><rect x="9.66" y="43.72" width="1.22" height="0.24" fill="none" stroke="#111" stroke-width="1.6"/><rect x="9.66" y="46.16" width="1.22" height="0.24" fill="none" stroke="#111" stroke-width="1.6"/><rect x="9.66" y="48.6" width="1.22" height="0.25" fill="none" stroke="#111" stroke-width="1.6"/><rect x="9.66" y="51.04" width="1.22" height="0.25" fill="none" stroke="#111" stroke-width="1.6"/><rect x="9.66" y="53.48" width="1.22" height="0.25" fill="none" stroke="#111" stroke-width="1.6"/><rect x="9.66" y="55.92" width="1.22" height="0.25" fill="none" stroke="#111" stroke-width="1.6"/></svg>