<svg xmlns="http://www.w3.org/2000/svg" width="96" height="64" viewBox="0 0 96 64"><rect x="6" y="6" width="84" height="23.33" fill="none" stroke="#111" stroke-width="1.6"/><rect x="7.87" y="12.07" width="5.6" height="14.93" fill="none" stroke="#111" stroke-width="1.6"/><circle cx="10.67" cy="9.27" r="0.93" fill="none" stroke="#111" stroke-width="1.6"/><polyline points="10.67,12.07 10.67,9.27 20,9.27 20,12.07" fill="none" stroke="#111" stroke-width="1.6" stroke-linecap="round" stroke-linejoin="round"/><polyline points="10.67,27 10.67,31.67" fill="none" stroke="#111" stroke-width="1.6" stroke-linecap="round" stroke-linejoin="round"/><rect x="17.2" y="12.07" width="5.6" height="14.93" fill="none" stroke="#111" stroke-width="1.6"/><circle cx="20" cy="9.27" r="0.93" fill="none" stroke="#111" stroke-width="1.6"/><polyline points="20,12.07 20,9.27 29.33,9.27 29.33,12.07" fill="none" stroke="#111" stroke-width="1.6" stroke-linecap="round" stroke-linejoin="round"/><polyline points="20,27 20,31.67" fill="none" stroke="#111" stroke-width="1.6" stroke-linecap="round" stroke-linejoin="round"/><rect x="26.53" y="12.07" width="5.6" height="14.93" fill="none" stroke="#111" stroke-width="1.6"/><circle cx="29.33" cy="9.27" r="0.93" fill="none" stroke="#111" stroke-width="1.6"/><polyline points="29.33,12.07 29.33,9.27 38.67,9.27 38.67,12.07" fill="none" stroke="#111" stroke-width="1.6" stroke-linecap="round" stroke-linejoin="round"/><polyline points="29.33,27 29.33,31.67" fill="none" stroke="#111" stroke-width="1.6" stroke-linecap="round" stroke-linejoin="round"/><rect x="35.87" y="12.07" width="5.6" height="14.93" fill="none" stroke="#111" stroke-width="1.6"/><circle cx="38.67" cy="9.27" r="0.93" fill="none" stroke="#111" stroke-width="1.6"/><polyline points="38.67,12.07 38.67,9.27 48,9.27 48,12.07" fill="none" stroke="#111" stroke-width="1.6" stroke-linecap="round" stroke-linejoin="round"/><polyline points="38.67,27 38.67,31.67" fill="none" stroke="#111" stroke-width="1.6" stroke-linecap="round" stroke-linejoin="round"/><rect x="45.2" y="12.07" width="5.6" height="14.93" fill="none" stroke="#111" stroke-width="1.6"/><circle cx="48" cy="9.27" r="0.93" fill="none" stroke="#111" stroke-width="1.6"/><polyline points="48,12.07 48,9.27 57.33,9.27 57.33,12.07" fill="none" stroke="#111" stroke-width="1.6" stroke-linecap="round" stroke-linejoin="round"/><polyline points="48,27 48,31.67" fill="none" stroke="#111" stroke-width="1.6" stroke-linecap="round" stroke-linejoin="round"/><rect x="54.53" y="12.07" width="5.6" height="14.93" fill="none" stroke="#111" stroke-width="1.6"/><circle cx="57.33" cy="9.27" r="0.93" fill="none" stroke="#111" stroke-width="1.6"/><polyline points="57.33,12.07 57.33,9.27 66.67,9.27 66.67,12.07" fill="none" stroke="#111" stroke-width="1.6" stroke-linecap="round" stroke-linejoin="round"/><polyline points="57.33,27 57.33,31.67" fill="none" stroke="#111" stroke-width="1.6" stroke-linecap="round" stroke-linejoin="round"/><rect x="63.87" y="12.07" width="5.6" height="14.93" fill="none" stroke="#111" stroke-width="1.6"/><circle cx="66.67" cy="9.27" r="0.93" fill="none" stroke="#111" stroke-width="1.6"/><polyline points="66.67,12.07 66.67,9.27 76,9.27 76,12.07" fill="none" stroke="#111" stroke-width="1.6" stroke-linecap="round" stroke-linejoin="round"/><polyline points="66.67,27 66.67,31.67" fill="none" stroke="#111" stroke-width="1.6" stroke-linecap="round" stroke-linejoin="round"/><rect x="73.2" y="12.07" width="5.6" height="14.93" fill="none" stroke="#111" stroke-width="1.6"/><circle cx="76" cy="9.27" r="0.93" fill="none" stroke="#111" stroke-width="1.6"/><polyline points="76,12.07 76,9.27 85.33,9.27 85.33,12.07" fill="none" stroke="#111" stroke-width="1.6" stroke-linecap="round" stroke-linejoin="round"/><polyline points="76,27 76,31.67" fill="none" stroke="#111" stroke-width="1.6" stroke-linecap="round" stroke-linejoin="round"/><rect x="82.53" y="12.07" width="5.6" height="14.93" fill="none" stroke="#111" stroke-width="1.6"/><polyline points="85.33,27 85.33,31.67" fill="none" stroke="#111" stroke-width="1.6" stroke-linecap="round" stroke-linejoin="round"/></svg>