<svg xmlns="http://www.w3.org/2000/svg" width="96" height="64" viewBox="0 0 96 64"><rect x="6" y="6" width="1.21" height="52" fill="none" stroke="#111" stroke-width="1.6"/><rect x="6" y="6.54" width="0.6" height="0.13" fill="none" stroke="#111" stroke-width="1.6"/><rect x="6" y="7.75" width="0.6" height="0.12" fill="none" stroke="#111" stroke-width="1.6"/><rect x="6" y="8.96" width="0.6" height="0.12" fill="none" stroke="#111" stroke-width="1.6"/><rect x="6" y="10.17" width="0.6" height="0.12" fill="none" stroke="#111" stroke-width="1.6"/><rect x="6" y="11.38" width="0.6" height="0.12" fill="none" stroke="#111" stroke-width="1.6"/><rect x="6" y="12.59" width="0.6" height="0.12" fill="none" stroke="#111" stroke-width="1.6"/><rect x="6" y="13.8" width="0.6" height="0.12" fill="none" stroke="#111" stroke-width="1.6"/><rect x="6" y="15.01" width="0.6" height="0.12" fill="none" stroke="#111" stroke-width="1.6"/><rect x="6" y="16.22" width="0.6" height="0.12" fill="none" stroke="#111" stroke-width="1.6"/><rect x="6" y="17.43" width="0.6" height="0.12" fill="none" stroke="#111" stroke-width="1.6"/><rect x="6" y="18.64" width="0.6" height="0.12" fill="none" stroke="#111" stroke-width="1.6"/><rect x="6" y="19.85" width="0.6" height="0.12" fill="none" stroke="#111" stroke-width="1.6"/><rect x="6" y="21.06" width="0.6" height="0.12" fill="none" stroke="#111" stroke-width="1.6"/><rect x="6" y="22.27" width="0.6" height="0.12" fill="none" stroke="#111" stroke-width="1.6"/><rect x="6" y="23.47" width="0.6" height="0.13" fill="none" stroke="#111" stroke-width="1.6"/><rect x="6" y="24.68" width="0.6" height="0.12" fill="none" stroke="#111" stroke-width="1.6"/><rect x="6" y="25.89" width="0.6" height="0.12" fill="none" stroke="#111" stroke-width="1.6"/><rect x="6" y="27.1" width="0.6" height="0.12" fill="none" stroke="#111" stroke-width="1.6"/><rect x="6" y="28.31" width="0.6" height="0.12" fill="none" stroke="#111" stroke-width="1.6"/><rect x="6" y="29.52" width="0.6" height="0.12" fill="none" stroke="#111" stroke-width="1.6"/><rect x="6" y="30.73" width="0.6" height="0.12" fill="none" stroke="#111" stroke-width="1.6"/><rect x="6" y="31.94" width="0.6" height="0.12" fill="none" stroke="#111" stroke-width="1.6"/><rect x="6" y="33.15" width="0.6" height="0.12" fill="none" stroke="#111" stroke-width="1.6"/><rect x="6" y="34.36" width="0.6" height="0.12" fill="none" stroke="#111" stroke-width="1.6"/><rect x="6" y="35.57" width="0.6" height="0.12" fill="none" stroke="#111" stroke-width="1.6"/><rect x="6" y="36.78" width="0.6" height="0.12" fill="none" stroke="#111" stroke-width="1.6"/><rect x="6" y="37.99" width="0.6" height="0.12" fill="none" stroke="#111" stroke-width="1.6"/><rect x="6" y="39.2" width="0.6" height="0.12" fill="none" stroke="#111" stroke-width="1.6"/><rect x="6" y="40.4" width="0.6" height="0.13" fill="none" stroke="#111" stroke-width="1.6"/><rect x="6" y="41.61" width="0.6" height="0.12" fill="none" stroke="#111" stroke-width="1.6"/><rect x="6" y="42.82" width="0.6" height="0.12" fill="none" stroke="#111" stroke-width="1.6"/><rect x="6" y="44.03" width="0.6" height="0.12" fill="none" stroke="#111" stroke-width="1.6"/><rect x="6" y="45.24" width="0.6" height="0.12" fill="none" stroke="#111" stroke-width="1.6"/><rect x="6" y="46.45" width="0.6" height="0.12" fill="none" stroke="#111" stroke-width="1.6"/><rect x="6" y="47.66" width="0.6" height="0.12" fill="none" stroke="#111" stroke-width="1.6"/><rect x="6" y="48.87" width="0.6" height="0.12" fill="none" stroke="#111" stroke-width="1.6"/><rect x="6" y="50.08" width="0.6" height="0.12" fill="none" stroke="#111" stroke-width="1.6"/><rect x="6" y="51.29" width="0.6" height="0.12" fill="none" stroke="#111" stroke-width="1.6"/><rect x="6" y="52.5" width="0.6" height="0.12" fill="none" stroke="#111" stroke-width="1.6"/><rect x="6" y="53.71" width="0.6" height="0.12" fill="none" stroke="#111" stroke-width="1.6"/><rect x="6" y="54.92" width="0.6" height="0.12" fill="none" stroke="#111" stroke-width="1.6"/><rect x="6" y="56.13" width="0.6" height="0.12" fill="none" stroke="#111" stroke-width="1.6"/><rect x="6" y="57.33" width="0.6" height="0.13" fill="none" stroke="#111" stroke-width="1.6"/></svg>