<svg xmlns="http://www.w3.org/2000/svg" width="96" height="64" viewBox="0 0 96 64"><rect x="6" y="15.45" width="23.64" height="4.73" fill="none" stroke="#111" stroke-width="1.6"/><rect x="6" y="20.18" width="23.64" height="4.73" fill="none" stroke="#111" stroke-width="1.6"/><rect x="6" y="24.91" width="23.64" height="4.73" fill="none" stroke="#111" stroke-width="1.6"/><rect x="6" y="29.64" width="23.64" height="4.72" fill="none" stroke="#111" stroke-width="1.6"/><rect x="6" y="48.55" width="23.64" height="4.72" fill="none" stroke="#111" stroke-width="1.6"/><rect x="6" y="53.27" width="23.64" height="4.73" fill="none" stroke="#111" stroke-width="1.6"/><polyline points="8.36,15.45 8.36,13.09 6,13.09 6,6 29.64,6 29.64,13.09 27.27,13.09 27.27,15.45 27.27,15.45" fill="none" stroke="#111" stroke-width="1.6" stroke-linecap="round" stroke-linejoin="round"/><polyline points="8.36,48.55 8.36,46.18 6,46.18 6,39.09 29.64,39.09 29.64,46.18 27.27,46.18 27.27,48.55 27.27,48.55" fill="none" stroke="#111" stroke-width="1.6" stroke-linecap="round" stroke-linejoin="round"/><polyline points="14.98,16.4 17.82,17.82 14.98,19.24 14.98,16.4 14.98,16.4" fill="none" stroke="#111" stroke-width="1.6" stroke-linecap="round" stroke-linejoin="round"/><polyline points="14.98,49.49 14.98,52.33 17.82,50.91 14.98,49.49 14.98,49.49" fill="none" stroke="#111" stroke-width="1.6" stroke-linecap="round" stroke-linejoin="round"/><polyline points="17.82,16.4 20.65,16.4 19.24,18.76 17.82,16.4 18.29,16.4" fill="none" stroke="#111" stroke-width="1.6" stroke-linecap="round" stroke-linejoin="round"/><polyline points="17.82,49.49 20.65,49.49 19.24,51.85 17.82,49.49 17.82,49.49" fill="none" stroke="#111" stroke-width="1.6" stroke-linecap="round" stroke-linejoin="round"/></svg>