<svg xmlns="http://www.w3.org/2000/svg" width="96" height="64" viewBox="0 0 96 64"><polyline points="10.2,11.6 10.2,6 6,6" fill="none" stroke="#111" stroke-width="1.6" stroke-linecap="round" stroke-linejoin="round"/><polyline points="10.2,28.4 10.2,34 6,34" fill="none" stroke="#111" stroke-width="1.6" stroke-linecap="round" stroke-linejoin="round"/><path d="M 18.6 11.6 Q 14.4 15.78 10.2 11.6" fill="none" stroke="#111" stroke-width="1.6" stroke-linecap="round"/><path d="M 10.2 28.4 Q 14.4 24.22 18.6 28.4" fill="none" stroke="#111" stroke-width="1.6" stroke-linecap="round"/><path d="M 27 11.6 Q 22.8 15.78 18.6 11.6" fill="none" stroke="#111" stroke-width="1.6" stroke-linecap="round"/><path d="M 18.6 28.4 Q 22.8 24.22 27 28.4" fill="none" stroke="#111" stroke-width="1.6" stroke-linecap="round"/><path d="M 35.4 11.6 Q 31.2 15.78 27 11.6" fill="none" stroke="#111" stroke-width="1.6" stroke-linecap="round"/><path d="M 27 28.4 Q 31.2 24.22 35.4 28.4" fill="none" stroke="#111" stroke-width="1.6" stroke-linecap="round"/><path d="M 43.8 11.6 Q 39.6 15.78 35.4 11.6" fill="none" stroke="#111" stroke-width="1.6" stroke-linecap="round"/><path d="M 35.4 28.4 Q 39.6 24.22 43.8 28.4" fill="none" stroke="#111" stroke-width="1.6" stroke-linecap="round"/><polyline points="43.8,11.6 52.2,11.6" fill="none" stroke="#111" stroke-width="1.6" stroke-linecap="round" stroke-linejoin="round"/><polyline points="43.8,28.4 52.2,28.4" fill="none" stroke="#111" stroke-width="1.6" stroke-linecap="round" stroke-linejoin="round"/><path d="M 60.6 11.6 Q 56.4 15.78 52.2 11.6" fill="none" stroke="#111" stroke-width="1.6" stroke-linecap="round"/><path d="M 52.2 28.4 Q 56.4 24.22 60.6 28.4" fill="none" stroke="#111" stroke-width="1.6" stroke-linecap="round"/><path d="M 69 11.6 Q 64.8 15.78 60.6 11.6" fill="none" stroke="#111" stroke-width="1.6" stroke-linecap="round"/><path d="M 60.6 28.4 Q 64.8 24.22 69 28.4" fill="none" stroke="#111" stroke-width="1.6" stroke-linecap="round"/><path d="M 77.4 11.6 Q 73.2 15.78 69 11.6" fill="none" stroke="#111" stroke-width="1.6" stroke-linecap="round"/><path d="M 69 28.4 Q 73.2 24.22 77.4 28.4" fill="none" stroke="#111" stroke-width="1.6" stroke-linecap="round"/><path d="M 85.8 11.6 Q 81.6 15.78 77.4 11.6" fill="none" stroke="#111" stroke-width="1.6" stroke-linecap="round"/><path d="M 77.4 28.4 Q 81.6 24.22 85.8 28.4" fill="none" stroke="#111" stroke-width="1.6" stroke-linecap="round"/><polyline points="85.8,11.6 85.8,6 90,6" fill="none" stroke="#111" stroke-width="1.6" stroke-linecap="round" stroke-linejoin="round"/><polyline points="85.8,28.4 85.8,34 90,34" fill="none" stroke="#111" stroke-width="1.6" stroke-linecap="round" stroke-linejoin="round"/></svg>