<svg xmlns="http://www.w3.org/2000/svg" width="96" height="64" viewBox="0 0 96 64"><polyline points="13.8,15.1 13.8,13.54 13.8,14.32 15.75,14.32 15.75,13.54 15.75,15.1" fill="none" stroke="#111" stroke-width="1.6" stroke-linecap="round" stroke-linejoin="round"/><polyline points="16.53,13.54 18.22,13.54 18.48,13.8 18.48,14.84 18.22,15.1 16.53,15.1 16.53,14.32" fill="none" stroke="#111" stroke-width="1.6" stroke-linecap="round" stroke-linejoin="round"/><polyline points="22.12,15.1 22.12,13.54" fill="none" stroke="#111" stroke-width="1.6" stroke-linecap="round" stroke-linejoin="round"/><rect x="6" y="6" width="18.2" height="52" fill="none" stroke="#111" stroke-width="1.6"/><polyline points="13.8,19 13.8,45 17.7,45 19,42.4 21.6,41.1 21.6,22.9 19,21.6 17.7,19 13.8,19" fill="none" stroke="#111" stroke-width="1.6" stroke-linecap="round" stroke-linejoin="round"/><polyline points="16.4,22.9 17.7,22.9 19,25.5 19,37.85 17.7,40.45 16.4,40.45 16.4,22.9" fill="none" stroke="#111" stroke-width="1.6" stroke-linecap="round" stroke-linejoin="round"/><polyline points="19.26,15.1 19.26,13.54 20.3,13.54 20.3,15.1 20.3,13.54 21.08,13.54 21.34,13.8 21.34,15.1" fill="none" stroke="#111" stroke-width="1.6" stroke-linecap="round" stroke-linejoin="round"/></svg>