<svg xmlns="http://www.w3.org/2000/svg" width="96" height="64" viewBox="0 0 96 64"><rect x="6" y="6" width="1.85" height="51.72" fill="none" stroke="#111" stroke-width="1.6"/><rect x="6" y="6.42" width="0.46" height="0.09" fill="none" stroke="#111" stroke-width="1.6"/><rect x="6" y="7.34" width="0.46" height="0.09" fill="none" stroke="#111" stroke-width="1.6"/><rect x="6" y="8.26" width="0.46" height="0.1" fill="none" stroke="#111" stroke-width="1.6"/><rect x="6" y="9.19" width="0.46" height="0.09" fill="none" stroke="#111" stroke-width="1.6"/><rect x="6" y="10.11" width="0.46" height="0.09" fill="none" stroke="#111" stroke-width="1.6"/><rect x="6" y="11.03" width="0.46" height="0.1" fill="none" stroke="#111" stroke-width="1.6"/><rect x="6" y="11.96" width="0.46" height="0.09" fill="none" stroke="#111" stroke-width="1.6"/><rect x="6" y="12.88" width="0.46" height="0.09" fill="none" stroke="#111" stroke-width="1.6"/><rect x="6" y="13.8" width="0.46" height="0.1" fill="none" stroke="#111" stroke-width="1.6"/><rect x="6" y="14.73" width="0.46" height="0.09" fill="none" stroke="#111" stroke-width="1.6"/><rect x="6" y="15.65" width="0.46" height="0.09" fill="none" stroke="#111" stroke-width="1.6"/><rect x="6" y="16.58" width="0.46" height="0.09" fill="none" stroke="#111" stroke-width="1.6"/><rect x="6" y="17.5" width="0.46" height="0.09" fill="none" stroke="#111" stroke-width="1.6"/><rect x="6" y="18.42" width="0.46" height="0.1" fill="none" stroke="#111" stroke-width="1.6"/><rect x="6" y="19.35" width="0.46" height="0.09" fill="none" stroke="#111" stroke-width="1.6"/><rect x="6" y="20.27" width="0.46" height="0.09" fill="none" stroke="#111" stroke-width="1.6"/><rect x="6" y="21.19" width="0.46" height="0.1" fill="none" stroke="#111" stroke-width="1.6"/><rect x="6" y="22.12" width="0.46" height="0.09" fill="none" stroke="#111" stroke-width="1.6"/><rect x="6" y="23.04" width="0.46" height="0.09" fill="none" stroke="#111" stroke-width="1.6"/><rect x="6" y="23.96" width="0.46" height="0.1" fill="none" stroke="#111" stroke-width="1.6"/><rect x="6" y="24.89" width="0.46" height="0.09" fill="none" stroke="#111" stroke-width="1.6"/><rect x="6" y="25.81" width="0.46" height="0.09" fill="none" stroke="#111" stroke-width="1.6"/><rect x="6" y="26.74" width="0.46" height="0.09" fill="none" stroke="#111" stroke-width="1.6"/><rect x="6" y="27.66" width="0.46" height="0.09" fill="none" stroke="#111" stroke-width="1.6"/><rect x="6" y="28.58" width="0.46" height="0.09" fill="none" stroke="#111" stroke-width="1.6"/><rect x="6" y="29.51" width="0.46" height="0.09" fill="none" stroke="#111" stroke-width="1.6"/><rect x="6" y="30.43" width="0.46" height="0.09" fill="none" stroke="#111" stroke-width="1.6"/><rect x="6" y="31.35" width="0.46" height="0.1" fill="none" stroke="#111" stroke-width="1.6"/><rect x="6" y="32.28" width="0.46" height="0.09" fill="none" stroke="#111" stroke-width="1.6"/><rect x="6" y="33.2" width="0.46" height="0.09" fill="none" stroke="#111" stroke-width="1.6"/><rect x="6" y="34.12" width="0.46" height="0.1" fill="none" stroke="#111" stroke-width="1.6"/><rect x="6" y="35.05" width="0.46" height="0.09" fill="none" stroke="#111" stroke-width="1.6"/><rect x="6" y="35.97" width="0.46" height="0.09" fill="none" stroke="#111" stroke-width="1.6"/><rect x="6" y="36.9" width="0.46" height="0.09" fill="none" stroke="#111" stroke-width="1.6"/><rect x="6" y="37.82" width="0.46" height="0.09" fill="none" stroke="#111" stroke-width="1.6"/><rect x="6" y="38.74" width="0.46" height="0.09" fill="none" stroke="#111" stroke-width="1.6"/><rect x="6" y="39.67" width="0.46" height="0.09" fill="none" stroke="#111" stroke-width="1.6"/><rect x="6" y="40.59" width="0.46" height="0.09" fill="none" stroke="#111" stroke-width="1.6"/><rect x="6" y="41.51" width="0.46" height="0.1" fill="none" stroke="#111" stroke-width="1.6"/><rect x="6" y="42.44" width="0.46" height="0.09" fill="none" stroke="#111" stroke-width="1.6"/><rect x="6" y="43.36" width="0.46" height="0.09" fill="none" stroke="#111" stroke-width="1.6"/><rect x="6" y="44.28" width="0.46" height="0.1" fill="none" stroke="#111" stroke-width="1.6"/><rect x="6" y="45.21" width="0.46" height="0.09" fill="none" stroke="#111" stroke-width="1.6"/><rect x="6" y="46.13" width="0.46" height="0.09" fill="none" stroke="#111" stroke-width="1.6"/><rect x="6" y="47.06" width="0.46" height="0.09" fill="none" stroke="#111" stroke-width="1.6"/><rect x="6" y="47.98" width="0.46" height="0.09" fill="none" stroke="#111" stroke-width="1.6"/><rect x="6" y="48.9" width="0.46" height="0.09" fill="none" stroke="#111" stroke-width="1.6"/><rect x="6" y="49.83" width="0.46" height="0.09" fill="none" stroke="#111" stroke-width="1.6"/><rect x="6" y="50.75" width="0.46" height="0.09" fill="none" stroke="#111" stroke-width="1.6"/><rect x="6" y="51.67" width="0.46" height="0.1" fill="none" stroke="#111" stroke-width="1.6"/><rect x="6" y="52.6" width="0.46" height="0.09" fill="none" stroke="#111" stroke-width="1.6"/><rect x="6" y="53.52" width="0.46" height="0.09" fill="none" stroke="#111" stroke-width="1.6"/><rect x="6" y="54.44" width="0.46" height="0.1" fill="none" stroke="#111" stroke-width="1.6"/><rect x="6" y="55.37" width="0.46" height="0.09" fill="none" stroke="#111" stroke-width="1.6"/><rect x="6" y="56.29" width="0.46" height="0.09" fill="none" stroke="#111" stroke-width="1.6"/><rect x="6" y="57.21" width="0.46" height="0.1" fill="none" stroke="#111" stroke-width="1.6"/><polyline points="6.55,58 7.29,58" fill="none" stroke="#111" stroke-width="1.6" stroke-linecap="round" stroke-linejoin="round"/><rect x="7.39" y="6.42" width="0.46" height="0.09" fill="none" stroke="#111" stroke-width="1.6"/><rect x="7.39" y="7.34" width="0.46" height="0.09" fill="none" stroke="#111" stroke-width="1.6"/><rect x="7.39" y="8.26" width="0.46" height="0.1" fill="none" stroke="#111" stroke-width="1.6"/><rect x="7.39" y="9.19" width="0.46" height="0.09" fill="none" stroke="#111" stroke-width="1.6"/><rect x="7.39" y="10.11" width="0.46" height="0.09" fill="none" stroke="#111" stroke-width="1.6"/><rect x="7.39" y="11.03" width="0.46" height="0.1" fill="none" stroke="#111" stroke-width="1.6"/><rect x="7.39" y="11.96" width="0.46" height="0.09" fill="none" stroke="#111" stroke-width="1.6"/><rect x="7.39" y="12.88" width="0.46" height="0.09" fill="none" stroke="#111" stroke-width="1.6"/><rect x="7.39" y="13.8" width="0.46" height="0.1" fill="none" stroke="#111" stroke-width="1.6"/><rect x="7.39" y="14.73" width="0.46" height="0.09" fill="none" stroke="#111" stroke-width="1.6"/><rect x="7.39" y="15.65" width="0.46" height="0.09" fill="none" stroke="#111" stroke-width="1.6"/><rect x="7.39" y="16.58" width="0.46" height="0.09" fill="none" stroke="#111" stroke-width="1.6"/><rect x="7.39" y="17.5" width="0.46" height="0.09" fill="none" stroke="#111" stroke-width="1.6"/><rect x="7.39" y="18.42" width="0.46" height="0.1" fill="none" stroke="#111" stroke-width="1.6"/><rect x="7.39" y="19.35" width="0.46" height="0.09" fill="none" stroke="#111" stroke-width="1.6"/><rect x="7.39" y="20.27" width="0.46" height="0.09" fill="none" stroke="#111" stroke-width="1.6"/><rect x="7.39" y="21.19" width="0.46" height="0.1" fill="none" stroke="#111" stroke-width="1.6"/><rect x="7.39" y="22.12" width="0.46" height="0.09" fill="none" stroke="#111" stroke-width="1.6"/><rect x="7.39" y="23.04" width="0.46" height="0.09" fill="none" stroke="#111" stroke-width="1.6"/><rect x="7.39" y="23.96" width="0.46" height="0.1" fill="none" stroke="#111" stroke-width="1.6"/><rect x="7.39" y="24.89" width="0.46" height="0.09" fill="none" stroke="#111" stroke-width="1.6"/><rect x="7.39" y="25.81" width="0.46" height="0.09" fill="none" stroke="#111" stroke-width="1.6"/><rect x="7.39" y="26.74" width="0.46" height="0.09" fill="none" stroke="#111" stroke-width="1.6"/><rect x="7.39" y="27.66" width="0.46" height="0.09" fill="none" stroke="#111" stroke-width="1.6"/><rect x="7.39" y="28.58" width="0.46" height="0.09" fill="none" stroke="#111" stroke-width="1.6"/><rect x="7.39" y="29.51" width="0.46" height="0.09" fill="none" stroke="#111" stroke-width="1.6"/><rect x="7.39" y="30.43" width="0.46" height="0.09" fill="none" stroke="#111" stroke-width="1.6"/><rect x="7.39" y="31.35" width="0.46" height="0.1" fill="none" stroke="#111" stroke-width="1.6"/><rect x="7.39" y="32.28" width="0.46" height="0.09" fill="none" stroke="#111" stroke-width="1.6"/><rect x="7.39" y="33.2" width="0.46" height="0.09" fill="none" stroke="#111" stroke-width="1.6"/><rect x="7.39" y="34.12" width="0.46" height="0.1" fill="none" stroke="#111" stroke-width="1.6"/><rect x="7.39" y="35.05" width="0.46" height="0.09" fill="none" stroke="#111" stroke-width="1.6"/><rect x="7.39" y="35.97" width="0.46" height="0.09" fill="none" stroke="#111" stroke-width="1.6"/><rect x="7.39" y="36.9" width="0.46" height="0.09" fill="none" stroke="#111" stroke-width="1.6"/><rect x="7.39" y="37.82" width="0.46" height="0.09" fill="none" stroke="#111" stroke-width="1.6"/><rect x="7.39" y="38.74" width="0.46" height="0.09" fill="none" stroke="#111" stroke-width="1.6"/><rect x="7.39" y="39.67" width="0.46" height="0.09" fill="none" stroke="#111" stroke-width="1.6"/><rect x="7.39" y="40.59" width="0.46" height="0.09" fill="none" stroke="#111" stroke-width="1.6"/><rect x="7.39" y="41.51" width="0.46" height="0.1" fill="none" stroke="#111" stroke-width="1.6"/><rect x="7.39" y="42.44" width="0.46" height="0.09" fill="none" stroke="#111" stroke-width="1.6"/><rect x="7.39" y="43.36" width="0.46" height="0.09" fill="none" stroke="#111" stroke-width="1.6"/><rect x="7.39" y="44.28" width="0.46" height="0.1" fill="none" stroke="#111" stroke-width="1.6"/><rect x="7.39" y="45.21" width="0.46" height="0.09" fill="none" stroke="#111" stroke-width="1.6"/><rect x="7.39" y="46.13" width="0.46" height="0.09" fill="none" stroke="#111" stroke-width="1.6"/><rect x="7.39" y="47.06" width="0.46" height="0.09" fill="none" stroke="#111" stroke-width="1.6"/><rect x="7.39" y="47.98" width="0.46" height="0.09" fill="none" stroke="#111" stroke-width="1.6"/><rect x="7.39" y="48.9" width="0.46" height="0.09" fill="none" stroke="#111" stroke-width="1.6"/><rect x="7.39" y="49.83" width="0.46" height="0.09" fill="none" stroke="#111" stroke-width="1.6"/><rect x="7.39" y="50.75" width="0.46" height="0.09" fill="none" stroke="#111" stroke-width="1.6"/><rect x="7.39" y="51.67" width="0.46" height="0.1" fill="none" stroke="#111" stroke-width="1.6"/><rect x="7.39" y="52.6" width="0.46" height="0.09" fill="none" stroke="#111" stroke-width="1.6"/><rect x="7.39" y="53.52" width="0.46" height="0.09" fill="none" stroke="#111" stroke-width="1.6"/><rect x="7.39" y="54.44" width="0.46" height="0.1" fill="none" stroke="#111" stroke-width="1.6"/><rect x="7.39" y="55.37" width="0.46" height="0.09" fill="none" stroke="#111" stroke-width="1.6"/><rect x="7.39" y="56.29" width="0.46" height="0.09" fill="none" stroke="#111" stroke-width="1.6"/><rect x="7.39" y="57.21" width="0.46" height="0.1" fill="none" stroke="#111" stroke-width="1.6"/></svg>