<svg xmlns="http://www.w3.org/2000/svg" width="96" height="64" viewBox="0 0 96 64"><rect x="6" y="6" width="0.96" height="52" fill="none" stroke="#111" stroke-width="1.6"/><rect x="6.1" y="6.1" width="0.77" height="51.8" fill="none" stroke="#111" stroke-width="1.6"/><rect x="6.1" y="6.43" width="0.48" height="0.1" fill="none" stroke="#111" stroke-width="1.6"/><rect x="6.1" y="7.4" width="0.48" height="0.09" fill="none" stroke="#111" stroke-width="1.6"/><rect x="6.1" y="8.36" width="0.48" height="0.1" fill="none" stroke="#111" stroke-width="1.6"/><rect x="6.1" y="9.32" width="0.48" height="0.1" fill="none" stroke="#111" stroke-width="1.6"/><rect x="6.1" y="10.29" width="0.48" height="0.09" fill="none" stroke="#111" stroke-width="1.6"/><rect x="6.1" y="11.25" width="0.48" height="0.09" fill="none" stroke="#111" stroke-width="1.6"/><rect x="6.1" y="12.21" width="0.48" height="0.1" fill="none" stroke="#111" stroke-width="1.6"/><rect x="6.1" y="13.17" width="0.48" height="0.1" fill="none" stroke="#111" stroke-width="1.6"/><rect x="6.1" y="14.14" width="0.48" height="0.09" fill="none" stroke="#111" stroke-width="1.6"/><rect x="6.1" y="15.1" width="0.48" height="0.1" fill="none" stroke="#111" stroke-width="1.6"/><rect x="6.1" y="16.06" width="0.48" height="0.1" fill="none" stroke="#111" stroke-width="1.6"/><rect x="6.1" y="17.03" width="0.48" height="0.09" fill="none" stroke="#111" stroke-width="1.6"/><rect x="6.1" y="17.99" width="0.48" height="0.1" fill="none" stroke="#111" stroke-width="1.6"/><rect x="6.1" y="18.95" width="0.48" height="0.1" fill="none" stroke="#111" stroke-width="1.6"/><rect x="6.1" y="19.91" width="0.48" height="0.1" fill="none" stroke="#111" stroke-width="1.6"/><rect x="6.1" y="20.88" width="0.48" height="0.09" fill="none" stroke="#111" stroke-width="1.6"/><rect x="6.1" y="21.84" width="0.48" height="0.1" fill="none" stroke="#111" stroke-width="1.6"/><rect x="6.1" y="22.8" width="0.48" height="0.1" fill="none" stroke="#111" stroke-width="1.6"/><rect x="6.1" y="23.77" width="0.48" height="0.09" fill="none" stroke="#111" stroke-width="1.6"/><rect x="6.1" y="24.73" width="0.48" height="0.1" fill="none" stroke="#111" stroke-width="1.6"/><rect x="6.1" y="25.69" width="0.48" height="0.1" fill="none" stroke="#111" stroke-width="1.6"/><rect x="6.1" y="26.66" width="0.48" height="0.09" fill="none" stroke="#111" stroke-width="1.6"/><rect x="6.1" y="27.62" width="0.48" height="0.09" fill="none" stroke="#111" stroke-width="1.6"/><rect x="6.1" y="28.58" width="0.48" height="0.1" fill="none" stroke="#111" stroke-width="1.6"/><rect x="6.1" y="29.54" width="0.48" height="0.1" fill="none" stroke="#111" stroke-width="1.6"/><rect x="6.1" y="30.51" width="0.48" height="0.09" fill="none" stroke="#111" stroke-width="1.6"/><rect x="6.1" y="31.47" width="0.48" height="0.1" fill="none" stroke="#111" stroke-width="1.6"/><rect x="6.1" y="32.43" width="0.48" height="0.1" fill="none" stroke="#111" stroke-width="1.6"/><rect x="6.1" y="33.4" width="0.48" height="0.09" fill="none" stroke="#111" stroke-width="1.6"/><rect x="6.1" y="34.36" width="0.48" height="0.1" fill="none" stroke="#111" stroke-width="1.6"/><rect x="6.1" y="35.32" width="0.48" height="0.1" fill="none" stroke="#111" stroke-width="1.6"/><rect x="6.1" y="36.29" width="0.48" height="0.09" fill="none" stroke="#111" stroke-width="1.6"/><rect x="6.1" y="37.25" width="0.48" height="0.09" fill="none" stroke="#111" stroke-width="1.6"/><rect x="6.1" y="38.21" width="0.48" height="0.1" fill="none" stroke="#111" stroke-width="1.6"/><rect x="6.1" y="39.17" width="0.48" height="0.1" fill="none" stroke="#111" stroke-width="1.6"/><rect x="6.1" y="40.14" width="0.48" height="0.09" fill="none" stroke="#111" stroke-width="1.6"/><rect x="6.1" y="41.1" width="0.48" height="0.1" fill="none" stroke="#111" stroke-width="1.6"/><rect x="6.1" y="42.06" width="0.48" height="0.1" fill="none" stroke="#111" stroke-width="1.6"/><rect x="6.1" y="43.03" width="0.48" height="0.09" fill="none" stroke="#111" stroke-width="1.6"/><rect x="6.1" y="43.99" width="0.48" height="0.1" fill="none" stroke="#111" stroke-width="1.6"/><rect x="6.1" y="44.95" width="0.48" height="0.1" fill="none" stroke="#111" stroke-width="1.6"/><rect x="6.1" y="45.91" width="0.48" height="0.1" fill="none" stroke="#111" stroke-width="1.6"/><rect x="6.1" y="46.88" width="0.48" height="0.09" fill="none" stroke="#111" stroke-width="1.6"/><rect x="6.1" y="47.84" width="0.48" height="0.1" fill="none" stroke="#111" stroke-width="1.6"/><rect x="6.1" y="48.8" width="0.48" height="0.1" fill="none" stroke="#111" stroke-width="1.6"/><rect x="6.1" y="49.77" width="0.48" height="0.09" fill="none" stroke="#111" stroke-width="1.6"/><rect x="6.1" y="50.73" width="0.48" height="0.1" fill="none" stroke="#111" stroke-width="1.6"/><rect x="6.1" y="51.69" width="0.48" height="0.1" fill="none" stroke="#111" stroke-width="1.6"/><rect x="6.1" y="52.66" width="0.48" height="0.09" fill="none" stroke="#111" stroke-width="1.6"/><rect x="6.1" y="53.62" width="0.48" height="0.09" fill="none" stroke="#111" stroke-width="1.6"/><rect x="6.1" y="54.58" width="0.48" height="0.1" fill="none" stroke="#111" stroke-width="1.6"/><rect x="6.1" y="55.54" width="0.48" height="0.1" fill="none" stroke="#111" stroke-width="1.6"/><rect x="6.1" y="56.51" width="0.48" height="0.09" fill="none" stroke="#111" stroke-width="1.6"/><rect x="6.1" y="57.47" width="0.48" height="0.1" fill="none" stroke="#111" stroke-width="1.6"/></svg>